<?xml version="1.0" encoding="UTF-8"?>
<svg width="716px" height="163px" viewBox="0 0 716 163" version="1.1" xmlns="http://www.w3.org/2000/svg" xmlns:xlink="http://www.w3.org/1999/xlink">
    <!-- Generator: Sketch 49.1 (51147) - http://www.bohemiancoding.com/sketch -->
    <title>Group 19</title>
    <desc>Created with Sketch.</desc>
    <defs></defs>
    <g id="Page-1" stroke="none" stroke-width="1" fill="none" fill-rule="evenodd">
        <g id="Group-19">
            <path d="M214.431738,158 L0.281231881,158 C0.0979571721,156.270422 0,154.521873 0,152.738542 C0,125.539586 22.0372038,103.488258 49.221899,103.488258 C53.7437285,103.488258 58.1233621,104.111159 62.281802,105.255779 C74.3905725,75.7675825 103.357456,55 137.18744,55 C167.712158,55 194.277511,71.913185 208.073673,96.87033 C211.328379,96.1936761 214.696842,95.8332157 218.150622,95.8332157 C223.770029,95.8332157 229.168762,96.7777476 234.198018,98.514416 C247.996128,83.6685378 267.695055,74.380046 289.563894,74.380046 C296.505663,74.380046 303.229137,75.3355641 309.613042,77.0913891 C328.202041,31.8570683 372.67108,0 424.605794,0 C471.466372,0 512.248657,25.9444973 533.428086,64.2282732 C538.424607,63.1902993 543.595764,62.6373599 548.897897,62.6373599 C563.164663,62.6373599 576.50489,66.6000921 587.885316,73.4681811 C601.492347,60.7602763 619.756329,52.975472 639.839434,52.975472 C681.902381,52.975472 716,87.0636992 716,129.121044 C716,139.345572 713.972286,149.094766 710.314638,158 L214.431738,158 Z" id="Combined-Shape-Copy-9" fill="#DFEAEC" transform="translate(358.000000, 79.000000) scale(-1, 1) translate(-358.000000, -79.000000) "></path>
            <path d="M172.267471,163 L39.1745874,163 C39.0608113,161.925311 39,160.838833 39,159.730744 C39,142.830422 52.6805883,129.128626 69.5567141,129.128626 C72.3638437,129.128626 75.0826988,129.515672 77.6642379,130.226892 C85.1813034,111.904129 103.163803,99 124.165291,99 C143.114887,99 159.606529,109.509163 168.171118,125.016516 C170.191624,124.596071 172.282749,124.372095 174.426839,124.372095 C177.967523,124.372095 181.367085,124.976679 184.52894,126.08684 C193.076412,116.888566 205.273625,111.134459 218.813488,111.134459 C223.114066,111.134459 227.279406,111.727122 231.234374,112.816178 C242.750667,84.7594474 270.300211,65 302.474904,65 C331.506059,65 356.771578,81.0921566 369.892698,104.83779 C372.988153,104.193983 376.191798,103.851021 379.476586,103.851021 C388.31516,103.851021 396.579722,106.308918 403.630146,110.568872 C412.06,102.686754 423.374937,97.8582041 435.816861,97.8582041 C461.875778,97.8582041 483,119.001535 483,145.087736 C483,151.429532 481.743786,157.4765 479.477794,163 L172.267471,163 Z" id="Combined-Shape-Copy-10" fill="#BEE3E8" transform="translate(261.000000, 114.000000) scale(-1, 1) translate(-261.000000, -114.000000) "></path>
        </g>
    </g>
</svg>