<?xml version="1.0" encoding="UTF-8"?>
<svg width="375px" height="1270px" viewBox="0 0 375 1270" version="1.1" xmlns="http://www.w3.org/2000/svg" xmlns:xlink="http://www.w3.org/1999/xlink">
    <!-- Generator: Sketch 49.1 (51147) - http://www.bohemiancoding.com/sketch -->
    <title>Group 10</title>
    <desc>Created with Sketch.</desc>
    <defs>
        <rect id="path-1" x="0" y="0" width="375" height="1378"></rect>
        <linearGradient x1="50%" y1="-250.154523%" x2="50%" y2="100%" id="linearGradient-3">
            <stop stop-color="#15ADC2" offset="0%"></stop>
            <stop stop-color="#2E3374" offset="100%"></stop>
        </linearGradient>
    </defs>
    <g id="Page-1" stroke="none" stroke-width="1" fill="none" fill-rule="evenodd">
        <g id="Avaleht_375px" transform="translate(0.000000, -2792.000000)">
            <g id="Group-10" transform="translate(0.000000, 2707.000000)">
                <mask id="mask-2" fill="white">
                    <use xlink:href="#path-1"></use>
                </mask>
                <g id="Mask"></g>
                <g mask="url(#mask-2)">
                    <g transform="translate(-544.000000, 5.000000)">
                        <rect id="Rectangle-27-Copy-5" fill="url(#linearGradient-3)" x="96" y="173" width="1025" height="1054"></rect>
                        <path d="M287.24253,0 L482.47646,0 L1029.72572,0 C1033.76224,9.80702993 1036,20.5434843 1036,31.8034075 C1036,78.1197237 998.370357,115.659923 951.950292,115.659923 C929.786866,115.659923 909.630996,107.086784 894.614472,93.0920031 C882.055197,100.655595 867.333114,105.019616 851.588516,105.019616 C845.737157,105.019616 840.030343,104.410683 834.516254,103.267598 C811.14294,145.428212 766.136195,174 714.421534,174 C657.107128,174 608.031734,138.916899 587.517181,89.101888 C580.471996,91.035518 573.052066,92.0877974 565.39123,92.0877974 C534.266455,92.0877974 507.12456,75.0745887 492.797226,49.861764 C487.418763,52.3351823 481.435423,53.7169302 475.129894,53.7169302 C472.151405,53.7169302 469.246492,53.4054643 466.439681,52.8207828 C454.542074,74.3856946 431.632504,89 405.308434,89 C376.133953,89 351.153338,71.0551957 340.710912,45.5751036 C337.124734,46.5641443 333.347803,47.1023791 329.448243,47.1023791 C315.414173,47.1023791 302.970892,40.2742271 295.243019,29.7512667 C289.82394,48.6565918 272.48882,62.482947 251.94086,62.482947 C240.059024,62.482947 229.25344,57.8514812 221.203065,50.2910821 C214.470024,54.3771604 206.5775,56.7347352 198.136804,56.7347352 C194.999884,56.7347352 191.940455,56.4057713 188.984345,55.7882425 C176.453887,78.5646662 152.325722,94 124.601436,94 C93.8751208,94 67.5657493,75.0470606 56.5678752,48.1355027 C52.7909435,49.1801074 48.8131112,49.7485802 44.7061285,49.7485802 C20.015442,49.7485802 0,29.6240675 0,4.80171911 C0,3.17421335 0.0889702756,1.57844973 0.255430791,0 L287.24253,0 Z" id="Combined-Shape-Copy-18" fill="#285489" transform="translate(518.000000, 87.000000) scale(-1, -1) translate(-518.000000, -87.000000) "></path>
                        <path d="M598.24253,1226 L793.47646,1226 L1340.72572,1226 C1344.76224,1235.80703 1347,1246.54348 1347,1257.80341 C1347,1304.11972 1309.37036,1341.65992 1262.95029,1341.65992 C1240.78687,1341.65992 1220.631,1333.08678 1205.61447,1319.092 C1193.0552,1326.65559 1178.33311,1331.01962 1162.58852,1331.01962 C1156.73716,1331.01962 1151.03034,1330.41068 1145.51625,1329.2676 C1122.14294,1371.42821 1077.13619,1400 1025.42153,1400 C968.107128,1400 919.031734,1364.9169 898.517181,1315.10189 C891.471996,1317.03552 884.052066,1318.0878 876.39123,1318.0878 C845.266455,1318.0878 818.12456,1301.07459 803.797226,1275.86176 C798.418763,1278.33518 792.435423,1279.71693 786.129894,1279.71693 C783.151405,1279.71693 780.246492,1279.40546 777.439681,1278.82078 C765.542074,1300.38569 742.632504,1315 716.308434,1315 C687.133953,1315 662.153338,1297.0552 651.710912,1271.5751 C648.124734,1272.56414 644.347803,1273.10238 640.448243,1273.10238 C626.414173,1273.10238 613.970892,1266.27423 606.243019,1255.75127 C600.82394,1274.65659 583.48882,1288.48295 562.94086,1288.48295 C551.059024,1288.48295 540.25344,1283.85148 532.203065,1276.29108 C525.470024,1280.37716 517.5775,1282.73474 509.136804,1282.73474 C505.999884,1282.73474 502.940455,1282.40577 499.984345,1281.78824 C487.453887,1304.56467 463.325722,1320 435.601436,1320 C404.875121,1320 378.565749,1301.04706 367.567875,1274.1355 C363.790944,1275.18011 359.813111,1275.74858 355.706128,1275.74858 C331.015442,1275.74858 311,1255.62407 311,1230.80172 C311,1229.17421 311.08897,1227.57845 311.255431,1226 L598.24253,1226 Z" id="Combined-Shape-Copy-19" fill="#2E3374"></path>
                        <g id="Group-3-Copy-9" stroke-width="1" fill="none" transform="translate(825.000000, 176.500000) scale(-1, 1) rotate(-270.000000) translate(-825.000000, -176.500000) translate(796.500000, 118.500000)">
                            <path d="M11,39.4996532 C7.96286255,39.4996532 5.5,37.0376395 5.5,34 C5.5,37.0376395 3.03783102,39.4996532 0,39.4996532 C3.03783102,39.4996532 5.5,41.9623605 5.5,45 C5.5,41.9623605 7.96286255,39.4996532 11,39.4996532" id="Fill-49" fill="#FFFFFE"></path>
                            <path d="M57,40.0003368 C54.7911755,40.0003368 53,38.2096842 53,36 C53,38.2096842 51.2094981,40.0003368 49,40.0003368 C51.2094981,40.0003368 53,41.7909895 53,44 C53,41.7909895 54.7911755,40.0003368 57,40.0003368" id="Fill-50" fill="#FFFFFE"></path>
                            <path d="M19,108.500343 C15.13376,108.500343 11.99968,105.1424 11.99968,101 C11.99968,105.1424 8.8656,108.500343 5,108.500343 C8.8656,108.500343 11.99968,111.858286 11.99968,116 C11.99968,111.858286 15.13376,108.500343 19,108.500343" id="Fill-51" fill="#FFFFFE"></path>
                            <path d="M50,7.5 C45.8578792,7.5 42.5,4.14212077 42.5,0 C42.5,4.14212077 39.1421208,7.5 35,7.5 C39.1421208,7.5 42.5,10.8578792 42.5,15 C42.5,10.8578792 45.8578792,7.5 50,7.5" id="Fill-52" fill="#FFFFFE"></path>
                        </g>
                    </g>
                </g>
            </g>
        </g>
    </g>
</svg>