<?xml version="1.0" encoding="UTF-8"?>
<svg width="80px" height="123px" viewBox="0 0 80 123" version="1.1" xmlns="http://www.w3.org/2000/svg" xmlns:xlink="http://www.w3.org/1999/xlink">
    <!-- Generator: Sketch 49.1 (51147) - http://www.bohemiancoding.com/sketch -->
    <title>Group 3</title>
    <desc>Created with Sketch.</desc>
    <defs></defs>
    <g id="Page-1" stroke="none" stroke-width="1" fill="none" fill-rule="evenodd">
        <g id="Avalahet_2000px" transform="translate(-659.000000, -41.000000)">
            <g id="Group-9">
                <g transform="translate(-406.000000, 0.000000)" id="Group">
                    <g transform="translate(944.000000, 41.000000)">
                        <g id="Group-3" transform="translate(121.000000, 0.000000)">
                            <path d="M58.9829252,27 C58.4209191,27 57.9658503,26.5604396 57.9658503,26.0192684 L57.9658503,18.9607105 L53.0170748,18.9607105 C52.4558494,18.9607105 52,18.5219028 52,17.9799789 C52,17.4388078 52.4558494,17 53.0170748,17 L58.9829252,17 C59.5449312,17 60,17.4388078 60,17.9799789 L60,26.0192684 C60,26.5604396 59.5449312,27 58.9829252,27" id="Fill-152" fill="#B6B8B5"></path>
                            <path d="M66,82.5084712 C66,83.8793093 64.8780444,85 63.5073606,85 L17.4926394,85 C16.1211903,85 15,83.8793093 15,82.5084712 L15,26.4915288 C15,25.1214557 16.1211903,24 17.4926394,24 L63.5073606,24 C64.8780444,24 66,25.1214557 66,26.4915288 L66,82.5084712" id="Fill-153" fill="#8B8E8D"></path>
                            <path d="M54,13.5003795 C54,20.9561416 47.9561416,27 40.4996205,27 C33.0438584,27 27,20.9561416 27,13.5003795 C27,6.0446175 33.0438584,0 40.4996205,0 C47.9561416,0 54,6.0446175 54,13.5003795" id="Fill-154" fill="#F3F4F1"></path>
                            <polygon id="Fill-155" fill="#F3F4F1" points="27 30 54 30 54 14 27 14"></polygon>
                            <path d="M52,13.4996273 C52,18.7466358 46.6266133,23 39.9996157,23 C33.3726181,23 28,18.7466358 28,13.4996273 C28,8.2533642 33.3726181,4 39.9996157,4 C46.6266133,4 52,8.2533642 52,13.4996273" id="Fill-156" fill="#5498C1"></path>
                            <path d="M52.31,14 C52.309,13.9961941 52.309,13.9923882 52.309,13.9895338 C52.309,13.9923882 52.309,13.9961941 52.31,14 M52.309,13.9828735 C52.308,13.9733587 52.308,13.963844 52.307,13.9533777 C52.308,13.9628925 52.308,13.9733587 52.309,13.9828735 M52.307,13.9429115 C52.306,13.9343482 52.306,13.9267364 52.305,13.9181732 C52.306,13.9267364 52.306,13.9343482 52.307,13.9429115 M52.305,13.905804 C52.304,13.8962892 52.304,13.8886775 52.303,13.8791627 C52.304,13.887726 52.304,13.8972407 52.305,13.905804 M52.302,13.869648 C52.302,13.8582303 52.301,13.8468126 52.3,13.8353949 C52.301,13.8468126 52.302,13.8582303 52.302,13.869648 M52.3,13.8249286 C52.299,13.8163654 52.298,13.8078021 52.298,13.8001903 C52.299,13.8078021 52.299,13.8163654 52.3,13.8249286 M52.297,13.7868696 C52.297,13.7792578 52.296,13.7716461 52.295,13.7630828 C52.296,13.7716461 52.297,13.7792578 52.297,13.7868696 M52.294,13.7507136 C52.294,13.7411989 52.293,13.7307326 52.292,13.7212179 C52.293,13.7316841 52.294,13.7411989 52.294,13.7507136 M52.292,13.7164605 C52.291,13.7050428 52.29,13.6926736 52.289,13.6812559 C52.29,13.6926736 52.291,13.7040913 52.292,13.7164605 M52.288,13.6688868 C52.287,13.661275 52.287,13.6536632 52.286,13.6450999 C52.287,13.6527117 52.287,13.661275 52.288,13.6688868 M52.285,13.6327307 C52.284,13.6251189 52.284,13.6165557 52.283,13.6089439 C52.284,13.6165557 52.284,13.6251189 52.285,13.6327307 M52.282,13.5965747 C52.281,13.5880114 52.28,13.5794481 52.279,13.5699334 C52.28,13.5784967 52.281,13.5880114 52.282,13.5965747 M52.279,13.5613701 C52.278,13.5499524 52.276,13.5394862 52.275,13.5280685 C52.276,13.5385347 52.278,13.5499524 52.279,13.5613701 M52.274,13.5137964 C52.273,13.5071361 52.273,13.4995243 52.272,13.4919125 C52.273,13.4995243 52.273,13.5071361 52.274,13.5137964 M52.27,13.4785918 C52.27,13.47098 52.269,13.4633682 52.268,13.4557564 C52.269,13.4633682 52.27,13.47098 52.27,13.4785918 M52.267,13.4433873 C52.266,13.4338725 52.265,13.4243578 52.264,13.414843 C52.265,13.4243578 52.266,13.4338725 52.267,13.4433873 M52.262,13.4034253 C52.261,13.3939106 52.26,13.3834443 52.259,13.3748811 C52.26,13.3843958 52.261,13.3939106 52.262,13.4034253 M52.258,13.3606089 C52.257,13.3539486 52.256,13.3463368 52.255,13.338725 C52.256,13.3463368 52.257,13.3539486 52.258,13.3606089 M52.253,13.3244529 C52.253,13.3177926 52.252,13.3111323 52.251,13.3044719 C52.252,13.3111323 52.253,13.3177926 52.253,13.3244529 M52.249,13.2892483 C52.248,13.2816365 52.247,13.2740247 52.246,13.2673644 C52.247,13.2749762 52.248,13.2816365 52.249,13.2892483 M52.243,13.2426261 C52.242,13.2359657 52.241,13.2293054 52.241,13.2226451 C52.241,13.2293054 52.242,13.2359657 52.243,13.2426261 M52.238,13.2055186 C52.238,13.1998097 52.237,13.1941009 52.236,13.188392 C52.237,13.1941009 52.238,13.1998097 52.238,13.2055186 M52.234,13.1712655 C52.233,13.1655566 52.232,13.1588963 52.231,13.1541389 C52.232,13.1598478 52.233,13.1655566 52.234,13.1712655 M52.229,13.1360609 C52.228,13.1284491 52.227,13.1208373 52.226,13.112274 C52.227,13.1198858 52.228,13.1284491 52.229,13.1360609 M52.222,13.0884872 C52.221,13.0827783 52.22,13.0770695 52.22,13.0713606 C52.22,13.0770695 52.221,13.0827783 52.222,13.0884872 M52.217,13.0532826 C52.216,13.0475737 52.215,13.0418649 52.215,13.0371075 C52.215,13.0418649 52.216,13.0475737 52.217,13.0532826 M52.212,13.0190295 C52.211,13.0133206 52.21,13.0076118 52.209,13.0009515 C52.21,13.0066603 52.211,13.0133206 52.212,13.0190295 M52.207,12.9847764 C52.205,12.9762131 52.204,12.9676499 52.203,12.9590866 C52.204,12.9676499 52.205,12.9762131 52.207,12.9847764 M52.199,12.9352997 C52.198,12.9305423 52.197,12.9248335 52.196,12.9200761 C52.197,12.9248335 52.198,12.9305423 52.199,12.9352997 M52.193,12.9010466 C52.192,12.8953378 52.191,12.8905804 52.191,12.885823 C52.191,12.8905804 52.192,12.8953378 52.193,12.9010466 M52.188,12.867745 C52.187,12.8620362 52.186,12.8572788 52.185,12.8515699 C52.186,12.8563273 52.187,12.8620362 52.188,12.867745 M52.18,12.8249286 C52.179,12.8173168 52.178,12.8106565 52.176,12.8030447 C52.178,12.809705 52.179,12.8173168 52.18,12.8249286 M52.173,12.7830637 C52.172,12.7783064 52.171,12.7745005 52.171,12.7697431 C52.171,12.7745005 52.172,12.7783064 52.173,12.7830637 M52.167,12.7497621 C52.166,12.7450048 52.165,12.7392959 52.164,12.7345385 C52.165,12.7392959 52.166,12.7450048 52.167,12.7497621 M52.161,12.7164605 C52.16,12.7117031 52.159,12.7059943 52.158,12.7012369 C52.159,12.7069458 52.16,12.7117031 52.161,12.7164605 M52.149,12.6555661 C52.149,12.6546147 52.149,12.6536632 52.149,12.6527117 C52.149,12.6536632 52.149,12.6546147 52.149,12.6555661 M52.145,12.6317793 C52.144,12.6279734 52.143,12.623216 52.142,12.6194101 C52.143,12.623216 52.144,12.6279734 52.145,12.6317793 M52.138,12.5984776 C52.137,12.5946717 52.137,12.5899144 52.136,12.5861085 C52.137,12.5899144 52.137,12.5946717 52.138,12.5984776 M52.132,12.5661275 C52.131,12.5613701 52.13,12.5575642 52.129,12.5537583 C52.13,12.5575642 52.131,12.5613701 52.132,12.5661275 M52.121,12.5137964 C52.12,12.5099905 52.12,12.5061846 52.119,12.5023787 C52.12,12.5061846 52.12,12.5099905 52.121,12.5137964 M52.115,12.4823977 C52.114,12.4785918 52.113,12.4738344 52.112,12.4700285 C52.113,12.4738344 52.114,12.4785918 52.115,12.4823977 M52.107,12.4490961 C52.107,12.4452902 52.106,12.4414843 52.105,12.4376784 C52.106,12.4405328 52.107,12.4452902 52.107,12.4490961 M52.1,12.414843 C52.1,12.4129401 52.099,12.4119886 52.099,12.4100856 C52.099,12.4119886 52.1,12.4129401 52.1,12.414843 M52.081,12.3301618 C52.081,12.3273073 52.08,12.3254044 52.079,12.32255 C52.08,12.3254044 52.08,12.3273073 52.081,12.3301618 M52.074,12.2978116 C52.073,12.2959087 52.073,12.2940057 52.072,12.2921028 C52.073,12.2940057 52.073,12.2959087 52.074,12.2978116 M52.045,12.1788773 C52.045,12.1779258 52.045,12.1769743 52.045,12.1760228 C52.045,12.1769743 52.045,12.1779258 52.045,12.1788773 M52.038,12.1484301 C52.038,12.1474786 52.037,12.1465271 52.037,12.1455756 C52.037,12.1465271 52.038,12.1474786 52.038,12.1484301 M52.008,12.0313987 C52.008,12.0304472 52.008,12.0294957 52.007,12.0285442 C52.008,12.0294957 52.008,12.0304472 52.008,12.0313987 M52,12.0009515 L52,12 L52,12.0009515" id="Fill-157" fill="#D5D5D0"></path>
                            <path d="M40.1662172,24 C40.161687,24 40.1571567,24 40.1526265,24 C40.1579118,24 40.161687,24 40.1662172,24 M40.1194046,23.9992439 C40.1148743,23.9992439 40.1103441,23.9992439 40.1058138,23.9992439 C40.1103441,23.9992439 40.1148743,23.9992439 40.1194046,23.9992439 M40.0620214,23.9992439 C40.0612663,23.9992439 40.0612663,23.9992439 40.0605113,23.9992439 C40.0612663,23.9992439 40.0612663,23.9992439 40.0620214,23.9992439 M40.0152087,23.9984877 C40.0106785,23.9984877 40.0061482,23.9984877 40.0008629,23.9984877 C40.0061482,23.9984877 40.0106785,23.9984877 40.0152087,23.9984877 M39.9691511,23.9977316 C39.9638658,23.9977316 39.9593356,23.9977316 39.9540503,23.9977316 C39.9593356,23.9977316 39.9638658,23.9977316 39.9691511,23.9977316 M39.9155431,23.9969754 C39.914033,23.9969754 39.9110128,23.9969754 39.9095028,23.9969754 C39.9117679,23.9969754 39.913278,23.9969754 39.9155431,23.9969754 M39.8642002,23.9954631 C39.860425,23.9954631 39.8551397,23.9954631 39.8506094,23.9954631 C39.8551397,23.9954631 39.8596699,23.9954631 39.8642002,23.9954631 M39.8188976,23.994707 C39.8136123,23.994707 39.808327,23.9939509 39.8030417,23.9939509 C39.808327,23.9939509 39.8143674,23.994707 39.8188976,23.994707 M39.7683098,23.9931947 C39.7645346,23.9931947 39.7622694,23.9931947 39.7584942,23.9931947 C39.7615144,23.9931947 39.7652896,23.9931947 39.7683098,23.9931947 M39.7147018,23.9916824 C39.7101715,23.9909263 39.7048862,23.9909263 39.701111,23.9909263 C39.7056412,23.9909263 39.7094165,23.9909263 39.7147018,23.9916824 M39.6678891,23.989414 C39.6633589,23.989414 39.6588286,23.989414 39.6535433,23.989414 C39.6580736,23.989414 39.6633589,23.989414 39.6678891,23.989414 M39.6188113,23.9879017 C39.6157912,23.9879017 39.612016,23.9879017 39.6082408,23.9871456 C39.612016,23.9879017 39.6157912,23.9879017 39.6188113,23.9879017 M39.5644483,23.9856333 C39.559918,23.9856333 39.5561428,23.9848771 39.5516126,23.9848771 C39.5553878,23.9848771 39.559918,23.9856333 39.5644483,23.9856333 M39.5191457,23.9833648 C39.5138604,23.9833648 39.5085751,23.9826087 39.5032898,23.9826087 C39.5085751,23.9826087 39.5138604,23.9833648 39.5191457,23.9833648 M39.470823,23.9810964 C39.4670478,23.9810964 39.4625175,23.9803403 39.4587423,23.9803403 C39.4625175,23.9803403 39.4662927,23.9810964 39.470823,23.9810964 M39.4149498,23.9780718 C39.4104196,23.9780718 39.4066444,23.9773157 39.4021141,23.9773157 C39.4066444,23.9773157 39.4111746,23.9780718 39.4149498,23.9780718 M39.3696473,23.9758034 C39.365117,23.9750473 39.3598317,23.9750473 39.3545464,23.9750473 C39.3590767,23.9750473 39.365117,23.9750473 39.3696473,23.9758034 M39.3220796,23.9727788 C39.3175493,23.9727788 39.3137741,23.9720227 39.3099989,23.9720227 C39.3137741,23.9720227 39.3175493,23.9727788 39.3220796,23.9727788 M39.2654514,23.9689981 C39.2624312,23.9689981 39.2594111,23.9689981 39.2563909,23.9689981 C39.2594111,23.9689981 39.2624312,23.9689981 39.2654514,23.9689981 M39.2209039,23.9659735 C39.2163736,23.9659735 39.2110883,23.9652174 39.205803,23.9652174 C39.2110883,23.9652174 39.2163736,23.9659735 39.2209039,23.9659735 M39.1733362,23.962949 C39.169561,23.962949 39.1650307,23.9621928 39.1612555,23.9621928 C39.1657858,23.9621928 39.169561,23.962949 39.1733362,23.962949 M39.116708,23.9591682 C39.1151979,23.9584121 39.1121778,23.9584121 39.1106677,23.9584121 C39.1129328,23.9584121 39.1144429,23.9584121 39.116708,23.9591682 M39.0721605,23.9553875 C39.0676302,23.9553875 39.0631,23.9546314 39.0585697,23.9546314 C39.0631,23.9546314 39.0676302,23.9546314 39.0721605,23.9553875 M39.0253479,23.9516068 C39.0215726,23.9516068 39.0177974,23.9508507 39.0132672,23.9508507 C39.0177974,23.9508507 39.0215726,23.9516068 39.0253479,23.9516068 M38.9241721,23.9432892 C38.9203969,23.9425331 38.9166217,23.9425331 38.9120915,23.9417769 C38.9158667,23.9425331 38.9203969,23.9425331 38.9241721,23.9432892 M38.8773595,23.9387524 C38.8735843,23.9387524 38.8698091,23.9379962 38.8667889,23.9379962 C38.8705641,23.9379962 38.8735843,23.9387524 38.8773595,23.9387524 M38.7761838,23.9289225 C38.7731636,23.9289225 38.7701435,23.9281664 38.7671233,23.9281664 C38.7701435,23.9281664 38.7731636,23.9289225 38.7761838,23.9289225 M38.7301262,23.9243856 C38.727106,23.9243856 38.7233308,23.9236295 38.7203106,23.9236295 C38.7233308,23.9236295 38.727106,23.9243856 38.7301262,23.9243856 M38.6765182,23.9190926 C38.6757631,23.9190926 38.6757631,23.9190926 38.6750081,23.9183365 C38.6757631,23.9190926 38.6757631,23.9190926 38.6765182,23.9190926 M38.6304606,23.9137996 C38.6266854,23.9137996 38.6229101,23.9130435 38.6191349,23.9122873 C38.6229101,23.9130435 38.6266854,23.9137996 38.6304606,23.9137996 M38.584403,23.9085066 C38.5813828,23.9085066 38.5776076,23.9077505 38.5738324,23.9077505 C38.5776076,23.9077505 38.5806278,23.9085066 38.584403,23.9085066 M38.532305,23.9024575 C38.53155,23.9024575 38.5300399,23.9024575 38.5292849,23.9024575 C38.5300399,23.9024575 38.53155,23.9024575 38.532305,23.9024575 M38.4839823,23.8971645 C38.4809621,23.8964083 38.478697,23.8964083 38.4756768,23.8964083 C38.478697,23.8964083 38.4809621,23.8964083 38.4839823,23.8971645 M38.4386798,23.8918715 C38.4349045,23.8911153 38.4318844,23.8903592 38.4281092,23.8903592 C38.4318844,23.8903592 38.4349045,23.8911153 38.4386798,23.8918715 M38.3865818,23.8850662 C38.3858268,23.8850662 38.3850717,23.8850662 38.3843167,23.88431 C38.3850717,23.8850662 38.3858268,23.8850662 38.3865818,23.8850662 M38.337504,23.879017 C38.335994,23.8782609 38.3344839,23.8782609 38.3322187,23.8782609 C38.3344839,23.8782609 38.335994,23.8782609 38.337504,23.879017 M38.2929565,23.8729679 C38.2899364,23.8722117 38.2869162,23.8722117 38.283896,23.8714556 C38.2869162,23.8722117 38.2899364,23.8722117 38.2929565,23.8729679 M38.2431237,23.8661626 C38.2416136,23.8661626 38.2401035,23.8654064 38.2393485,23.8654064 C38.2408586,23.8654064 38.2416136,23.8661626 38.2431237,23.8661626 M38.1925359,23.8586011 C38.1917808,23.8586011 38.1917808,23.8586011 38.1910258,23.8586011 C38.1917808,23.8586011 38.1917808,23.8586011 38.1925359,23.8586011 M38.1464783,23.852552 C38.1449682,23.852552 38.1434581,23.8517958 38.141948,23.8517958 C38.1434581,23.8517958 38.1449682,23.8517958 38.1464783,23.852552 M38.000755,23.8306238 L38,23.8306238 L38.000755,23.8306238 M52,14.362949 C52,14.3538752 51.999245,14.3440454 51.999245,14.3349716 C51.999245,14.3440454 52,14.3538752 52,14.362949 M51.999245,14.3258979 C51.999245,14.3190926 51.999245,14.3130435 51.999245,14.3062382 C51.999245,14.3130435 51.999245,14.3190926 51.999245,14.3258979 M51.999245,14.2956522 C51.999245,14.2888469 51.999245,14.2827977 51.999245,14.2759924 C51.999245,14.2820416 51.999245,14.2888469 51.999245,14.2956522 M51.999245,14.2676749 C51.999245,14.257845 51.9984899,14.2487713 51.9984899,14.2389414 C51.9984899,14.2487713 51.999245,14.257845 51.999245,14.2676749 M51.9984899,14.2359168 C51.9984899,14.2275992 51.9984899,14.2185255 51.9984899,14.2102079 C51.9984899,14.2185255 51.9984899,14.2275992 51.9984899,14.2359168 M51.9977349,14.2018904 C51.9977349,14.1950851 51.9977349,14.1882798 51.9977349,14.1814745 C51.9977349,14.1882798 51.9977349,14.1950851 51.9977349,14.2018904 M51.9969798,14.1724008 C51.9969798,14.1655955 51.9969798,14.158034 51.9969798,14.1512287 C51.9969798,14.158034 51.9969798,14.1655955 51.9969798,14.1724008 M51.9969798,14.1436673 C51.9962248,14.1338374 51.9962248,14.1247637 51.9954697,14.11569 C51.9962248,14.1247637 51.9962248,14.1338374 51.9969798,14.1436673 M51.9954697,14.1081285 C51.9954697,14.1013233 51.9954697,14.094518 51.9947147,14.0869565 C51.9954697,14.094518 51.9954697,14.1013233 51.9954697,14.1081285 M51.9947147,14.0771267 C51.9939597,14.0710775 51.9939597,14.0642722 51.9939597,14.0582231 C51.9939597,14.0642722 51.9939597,14.0710775 51.9947147,14.0771267 M51.9932046,14.0483932 C51.9932046,14.0408318 51.9932046,14.0340265 51.9924496,14.026465 C51.9932046,14.0340265 51.9932046,14.0408318 51.9932046,14.0483932 M51.9924496,14.0204159 C51.9916945,14.0128544 51.9916945,14.0068053 51.9916945,14 C51.9916945,14.0068053 51.9916945,14.0136106 51.9924496,14.0204159" id="Fill-158" fill="#D5D5D0"></path>
                            <path d="M40.1625943,24 C40.1474308,24 40.1330255,24 40.1171038,24 C40.1125547,24 40.1087638,24 40.1034566,24 C40.092084,24 40.0814695,23.9992339 40.0700968,23.9992339 C40.0655478,23.9992339 40.0609987,23.9992339 40.0564497,23.9992339 C40.0420443,23.9992339 40.0268808,23.9992339 40.0124754,23.9992339 C40.0117173,23.9992339 40.0117173,23.9992339 40.0109591,23.9992339 C39.9957956,23.9992339 39.980632,23.9984679 39.9654685,23.9984679 C39.9609195,23.9984679 39.9563704,23.9984679 39.9510632,23.9984679 C39.9404487,23.9984679 39.9298342,23.9977018 39.9192198,23.9977018 C39.9139125,23.9977018 39.9093635,23.9977018 39.9040562,23.9977018 C39.8911672,23.9969357 39.8782783,23.9969357 39.8653893,23.9969357 C39.8631147,23.9969357 39.8615984,23.9969357 39.8593238,23.9969357 C39.8441603,23.9961697 39.8289968,23.9961697 39.8138333,23.9954036 C39.8092842,23.9954036 39.8047352,23.9954036 39.8001861,23.9954036 C39.7895716,23.9954036 39.7789572,23.9946375 39.7683427,23.9946375 C39.7637936,23.9946375 39.7577282,23.9938715 39.752421,23.9938715 C39.7410484,23.9938715 39.7289175,23.9931054 39.7175449,23.9931054 C39.7145122,23.9931054 39.7107213,23.9931054 39.7076886,23.9931054 C39.6925251,23.9923393 39.6781197,23.9915733 39.6637144,23.9915733 C39.6584071,23.9908072 39.6546163,23.9908072 39.6500672,23.9908072 C39.6386946,23.9900411 39.6280801,23.9900411 39.6167074,23.9892751 C39.6121584,23.9892751 39.6068512,23.9892751 39.6023021,23.9892751 C39.5909295,23.988509 39.5795568,23.988509 39.567426,23.9877429 C39.5643933,23.9877429 39.5606024,23.9877429 39.5568115,23.9869769 C39.541648,23.9869769 39.5272427,23.9862108 39.5128373,23.9854447 C39.5082882,23.9854447 39.5037392,23.9846787 39.4999483,23.9846787 C39.4893338,23.9839126 39.4779612,23.9839126 39.4673467,23.9831465 C39.4620395,23.9831465 39.4567323,23.9823805 39.451425,23.9823805 C39.4408106,23.9816144 39.4294379,23.9816144 39.4188234,23.9808483 C39.4142744,23.9808483 39.4104835,23.9800823 39.4066926,23.9800823 C39.3922873,23.9793162 39.3771238,23.9785501 39.3627184,23.977784 C39.3589275,23.977784 39.3543785,23.977018 39.3498294,23.977018 C39.3392149,23.9762519 39.3278423,23.9762519 39.3172278,23.9754858 C39.3126788,23.9747198 39.3066134,23.9747198 39.3020643,23.9747198 C39.2914498,23.9739537 39.2800772,23.9731876 39.2694627,23.9724216 C39.2649137,23.9724216 39.2611228,23.9716555 39.2573319,23.9716555 C39.2421684,23.9708894 39.2270049,23.9701234 39.2125995,23.9685912 C39.2095668,23.9685912 39.2065341,23.9685912 39.2035014,23.9685912 C39.1921288,23.9670591 39.1799979,23.966293 39.1678671,23.965527 C39.1633181,23.965527 39.1580108,23.9647609 39.1527036,23.9647609 C39.1420891,23.9639948 39.1314747,23.9632288 39.120102,23.9624627 C39.1163111,23.9624627 39.1125202,23.9616966 39.1079712,23.9616966 C39.0928077,23.9601645 39.0784023,23.9593984 39.0632388,23.9586324 C39.0609643,23.9578663 39.0594479,23.9578663 39.0571734,23.9578663 C39.0442844,23.9571002 39.0313954,23.9555681 39.0185064,23.954802 C39.0139573,23.954036 39.0094083,23.954036 39.0048592,23.954036 C38.9934866,23.9525038 38.9828721,23.9517378 38.9714995,23.9509717 C38.9677086,23.9509717 38.9639177,23.9502056 38.9593686,23.9502056 C38.9297998,23.9471414 38.8994727,23.9448432 38.8699038,23.942545 C38.866113,23.9417789 38.8615639,23.9417789 38.857773,23.9410128 C38.8464004,23.9402468 38.8342696,23.9387146 38.8228969,23.9379486 C38.819106,23.9379486 38.8160733,23.9371825 38.8122825,23.9371825 C38.7819554,23.9341182 38.7516284,23.9310539 38.7213013,23.9279897 C38.7182686,23.9279897 38.7152359,23.9272236 38.7122032,23.9272236 C38.6993142,23.9256915 38.6879416,23.9249254 38.6750526,23.9233933 C38.6720199,23.9233933 38.668229,23.9226272 38.6651963,23.9226272 C38.6500327,23.9210951 38.6356274,23.9195629 38.621222,23.9180308 C38.6204639,23.9180308 38.6204639,23.9180308 38.6197057,23.9172647 C38.6053003,23.9157326 38.5901368,23.9142005 38.5749733,23.9126683 C38.5711824,23.9126683 38.5673915,23.9119023 38.5636006,23.9111362 C38.552228,23.9103701 38.5408554,23.908838 38.5287245,23.9073059 C38.5249337,23.9073059 38.521901,23.9065398 38.5181101,23.9065398 C38.5037047,23.9050077 38.4900576,23.9034755 38.4764104,23.9011773 C38.4756522,23.9011773 38.4741359,23.9011773 38.4733777,23.9011773 C38.4582142,23.8996452 38.4430506,23.897347 38.4278871,23.8958149 C38.4248544,23.8950488 38.4225799,23.8950488 38.4195472,23.8950488 C38.4074163,23.8935167 38.3945273,23.8919845 38.3823965,23.8904524 C38.3786056,23.8896863 38.3755729,23.8889202 38.3717821,23.8889202 C38.3581349,23.8873881 38.3444877,23.8850899 38.3300824,23.8835578 C38.3293242,23.8835578 38.328566,23.8835578 38.3278078,23.8827917 C38.3118861,23.8812596 38.2967226,23.8789614 38.2808009,23.8774292 C38.2792846,23.8766632 38.2777682,23.8766632 38.2754937,23.8766632 C38.2626047,23.874365 38.2497157,23.8728328 38.2360685,23.8713007 C38.2330358,23.8705346 38.2300031,23.8705346 38.2269704,23.8697686 C38.2133232,23.8682364 38.1996761,23.8659382 38.1860289,23.8644061 C38.1845125,23.8644061 38.1837544,23.86364 38.182238,23.86364 C38.1663163,23.8613418 38.1511528,23.8590436 38.1352311,23.8567454 C38.1344729,23.8567454 38.1344729,23.8567454 38.1337147,23.8567454 C38.1185512,23.8544472 38.1041458,23.8529151 38.0889823,23.8506169 C38.087466,23.8498508 38.0859496,23.8498508 38.0844333,23.8498508 C38.0366682,23.8429562 37.9896612,23.8360616 37.9426543,23.8284009 L37.9418961,23.8284009 C34.5695282,23.2998145 31.7043802,21.5922506 30,19.2442545 C31.204742,19.5851544 32.4974325,19.7705427 33.841679,19.7705427 C40.3786746,19.7705427 45.6783265,15.399363 45.6783265,10.0077816 C45.6783265,8.1768809 45.0664783,6.46395452 44.0035152,5 C47.9194955,6.10696718 50.9089844,8.86021289 51.7566254,12.2584872 L51.7566254,12.2592533 C51.7589,12.266914 51.7604163,12.2738086 51.7619327,12.2814692 C51.7626908,12.2822353 51.7626908,12.2830014 51.7626908,12.2837674 C51.7702726,12.3144101 51.7778544,12.3450528 51.7846779,12.3756955 C51.7846779,12.3764616 51.7854361,12.3772276 51.7854361,12.3779937 C51.7869525,12.3856544 51.7884688,12.3933151 51.7907434,12.4002097 C51.7907434,12.4009757 51.7907434,12.4017418 51.7907434,12.4025079 C51.7983251,12.4331506 51.8051487,12.4637932 51.8112141,12.4936699 C51.8119723,12.495202 51.8119723,12.4967341 51.8127305,12.4982663 C51.8142468,12.5051609 51.8157632,12.5120555 51.8165213,12.518184 C51.8172795,12.5204822 51.8180377,12.5220144 51.8180377,12.5243126 C51.8225868,12.5457624 51.8271358,12.5672123 51.8316849,12.5886622 C51.8316849,12.5901943 51.8324431,12.5909604 51.8324431,12.5924925 C51.8339594,12.5986211 51.8347176,12.6047496 51.8362339,12.6108782 C51.8369921,12.6139424 51.8377503,12.6170067 51.8377503,12.620071 C51.8392666,12.6254334 51.8400248,12.6307959 51.8415412,12.6369244 C51.8422993,12.6399887 51.8430575,12.643819 51.8438157,12.6468833 C51.8445739,12.6522458 51.845332,12.6576083 51.8468484,12.6629707 C51.8476066,12.666035 51.8476066,12.6690993 51.8483648,12.6721635 C51.8506393,12.6828885 51.8529138,12.6936134 51.8544302,12.7043384 C51.8551883,12.7074026 51.8559465,12.7104669 51.8567047,12.7142972 C51.8574629,12.7188936 51.858221,12.7250222 51.8597374,12.7303846 C51.8604956,12.7334489 51.8604956,12.7372793 51.8612537,12.7403435 C51.8627701,12.745706 51.8635283,12.7518345 51.8642865,12.757197 C51.8650446,12.7602613 51.8658028,12.7640916 51.866561,12.7671559 C51.8673192,12.7732844 51.8688355,12.7786469 51.8695937,12.7840094 C51.8695937,12.7847754 51.8695937,12.7855415 51.8695937,12.7863076 C51.8718682,12.7985646 51.8741427,12.8108217 51.8764173,12.8230788 C51.8771754,12.8269091 51.8779336,12.8315055 51.8786918,12.8353359 C51.87945,12.8399323 51.8802082,12.8452947 51.8809663,12.8498911 C51.8817245,12.8537215 51.8824827,12.8583179 51.8832409,12.8621482 C51.883999,12.8675107 51.8847572,12.8728732 51.8862736,12.8782356 C51.8862736,12.882066 51.8870317,12.8851302 51.8877899,12.8889606 C51.8885481,12.894323 51.8893063,12.8996855 51.8900644,12.905048 C51.8915808,12.9111765 51.892339,12.916539 51.8930971,12.9226675 C51.8946135,12.9295621 51.8953717,12.9372228 51.896888,12.9441174 C51.8976462,12.9487138 51.8984044,12.9525441 51.8991626,12.9571406 C51.8999207,12.961737 51.9006789,12.9663334 51.9014371,12.9716958 C51.9014371,12.9755262 51.9021953,12.9793565 51.9029534,12.9839529 C51.9037116,12.9893154 51.9044698,12.9939118 51.905228,12.9992743 C51.9059861,13.0031046 51.9067443,13.007701 51.9075025,13.0115313 C51.9082607,13.0176599 51.9090189,13.0245545 51.9105352,13.030683 C51.9112934,13.0375776 51.9120516,13.0444722 51.9135679,13.0513668 C51.9135679,13.0559632 51.9143261,13.0597936 51.9150843,13.06439 C51.9158424,13.0697524 51.9166006,13.0743488 51.9173588,13.0789452 C51.918117,13.0835416 51.9188751,13.0881381 51.9196333,13.0935005 C51.9196333,13.0973309 51.9203915,13.1019273 51.9211497,13.1065237 C51.9219078,13.1111201 51.922666,13.1157165 51.9234242,13.1210789 C51.9234242,13.1256753 51.9241824,13.1302718 51.9249406,13.1348682 C51.9256987,13.1417628 51.9264569,13.1478913 51.9279733,13.1540198 C51.9287314,13.1609144 51.9294896,13.167043 51.9302478,13.1731715 C51.931006,13.1777679 51.9317641,13.1823643 51.9317641,13.1877268 C51.9325223,13.1915571 51.9332805,13.1969196 51.9340387,13.201516 C51.9347968,13.2061124 51.9347968,13.2107088 51.935555,13.2153052 C51.9363132,13.2199016 51.9370714,13.224498 51.9370714,13.2290944 C51.9378295,13.2336908 51.9385877,13.2382872 51.9393459,13.2428836 C51.9393459,13.2482461 51.9401041,13.2536086 51.9408623,13.2589711 C51.9416204,13.2658657 51.9423786,13.2719942 51.9431368,13.2788888 C51.943895,13.2842513 51.9446531,13.2903798 51.9454113,13.2965083 C51.9461695,13.3003387 51.9461695,13.3049351 51.9469277,13.3087654 C51.9476858,13.3141279 51.948444,13.3194904 51.948444,13.3248528 C51.9492022,13.3286832 51.9492022,13.3325135 51.9499604,13.3363438 C51.9507185,13.3424724 51.9514767,13.3486009 51.9522349,13.3539634 C51.9522349,13.3577937 51.9529931,13.3616241 51.9529931,13.3654544 C51.9537512,13.372349 51.9545094,13.3807757 51.9552676,13.3884364 C51.9560258,13.3915007 51.9560258,13.394565 51.956784,13.3976292 C51.9575421,13.4052899 51.9583003,13.4129506 51.9590585,13.4206112 C51.9590585,13.4236755 51.9598167,13.4267398 51.9598167,13.4305701 C51.9605748,13.4366987 51.961333,13.4428272 51.961333,13.4489557 C51.9620912,13.4527861 51.9620912,13.4566164 51.9628494,13.4596807 C51.9636075,13.4658092 51.9636075,13.4719377 51.9643657,13.4773002 C51.9643657,13.4811306 51.9651239,13.4849609 51.9651239,13.4887912 C51.9658821,13.497984 51.9673984,13.5064108 51.9681566,13.5156036 C51.9681566,13.5179018 51.9681566,13.5202 51.9681566,13.5224982 C51.9689148,13.5301589 51.969673,13.5370535 51.9704311,13.5439481 C51.9704311,13.5477784 51.9711893,13.5508427 51.9711893,13.5539069 C51.9719475,13.5600355 51.9719475,13.5669301 51.9727057,13.5730586 C51.9727057,13.576889 51.9734638,13.5799532 51.9734638,13.5830175 C51.974222,13.5899121 51.974222,13.5960406 51.9749802,13.6021692 C51.9749802,13.6052334 51.9757384,13.6090638 51.9757384,13.6121281 C51.9764965,13.6213209 51.9772547,13.6312797 51.9780129,13.6404725 C51.9780129,13.6412386 51.9780129,13.6435368 51.9780129,13.6443029 C51.9787711,13.6519636 51.9795292,13.6603903 51.9795292,13.668051 C51.9802874,13.6711152 51.9802874,13.6749456 51.9802874,13.6780098 C51.9810456,13.6849044 51.9818038,13.691033 51.9818038,13.6971615 C51.9818038,13.7009919 51.9825619,13.7040561 51.9825619,13.7078865 C51.9825619,13.714015 51.9833201,13.7209096 51.9840783,13.7278042 C51.9840783,13.7301024 51.9840783,13.7331667 51.9840783,13.7362309 C51.9848365,13.7454238 51.9855947,13.7546166 51.9855947,13.7638094 C51.9863528,13.7668736 51.9863528,13.7691718 51.9863528,13.77147 C51.987111,13.7791307 51.987111,13.7852593 51.9878692,13.7929199 C51.9878692,13.7959842 51.9878692,13.7990485 51.9878692,13.8028788 C51.9886274,13.8097734 51.9886274,13.8159019 51.9893855,13.8227965 C51.9893855,13.8250948 51.9893855,13.8289251 51.9893855,13.8312233 C51.9901437,13.83965 51.9901437,13.8473107 51.9909019,13.8549714 C51.9909019,13.8572696 51.9909019,13.8588017 51.9909019,13.8603338 C51.9909019,13.862632 51.9909019,13.8656963 51.9916601,13.8687606 C51.9916601,13.8756552 51.9916601,13.8817837 51.9924182,13.8894444 C51.9924182,13.8917426 51.9924182,13.8932747 51.9924182,13.8955729 C51.9931764,13.9032336 51.9931764,13.9101282 51.9931764,13.9177889 C51.9931764,13.9208532 51.9939346,13.9246835 51.9939346,13.9277478 C51.9939346,13.9338763 51.9939346,13.9407709 51.9946928,13.9468994 C51.9946928,13.9507298 51.9946928,13.953794 51.9946928,13.9568583 C51.9954509,13.964519 51.9954509,13.9714136 51.9954509,13.9783082 C51.9954509,13.9806064 51.9954509,13.9836707 51.9954509,13.9859689 C51.9962091,13.9951617 51.9962091,14.0043545 51.9969673,14.0143134 C51.9969673,14.0166116 51.9969673,14.0189098 51.9969673,14.021974 C51.9969673,14.0288686 51.9969673,14.0365293 51.9969673,14.0434239 C51.9977255,14.0464882 51.9977255,14.0495525 51.9977255,14.0526167 C51.9977255,14.0595113 51.9977255,14.0664059 51.9977255,14.0733005 C51.9977255,14.0763648 51.9977255,14.078663 51.9984836,14.0817273 C51.9984836,14.090154 51.9984836,14.0993468 51.9984836,14.1077736 C51.9984836,14.1085396 51.9984836,14.1100718 51.9984836,14.1108378 C51.9984836,14.1207967 51.9992418,14.1299895 51.9992418,14.1399484 C51.9992418,14.1430127 51.9992418,14.1453109 51.9992418,14.1483751 C51.9992418,14.1552697 51.9992418,14.1613983 51.9992418,14.1682929 C51.9992418,14.1721232 51.9992418,14.1751875 51.9992418,14.1790178 C51.9992418,14.1859124 51.9992418,14.192041 51.9992418,14.1989356 C51.9992418,14.2019998 51.9992418,14.2050641 51.9992418,14.2081284 C51.9992418,14.2173212 52,14.2272801 52,14.2364729 C52,19.6288203 46.6995899,24 40.1625943,24" id="Fill-159" fill="#4C87AA"></path>
                            <path d="M37,10.9996075 C37,12.6568102 35.6568102,14 33.9996075,14 C32.3431898,14 31,12.6568102 31,10.9996075 C31,9.34318985 32.3431898,8 33.9996075,8 C35.6568102,8 37,9.34318985 37,10.9996075" id="Fill-160" fill="#CCEAF2"></path>
                            <path d="M36,17.5 C36,18.3290686 35.3284728,19 34.5003837,19 C33.6715272,19 33,18.3290686 33,17.5 C33,16.6716991 33.6715272,16 34.5003837,16 C35.3284728,16 36,16.6716991 36,17.5" id="Fill-161" fill="#CCEAF2"></path>
                            <polygon id="Fill-162" fill="#E5E6E3" points="4 38 28 38 28 29 4 29"></polygon>
                            <path d="M9,12.5007327 C9,14.985184 6.98575267,17 4.50036636,17 C2.01498005,17 0,14.985184 0,12.5007327 C0,10.014816 2.01498005,8 4.50036636,8 C6.98575267,8 9,10.014816 9,12.5007327" id="Fill-163" fill="#E5E6E3"></path>
                            <path d="M11,13.5 C11,14.3279857 10.3279857,15 9.49910873,15 C8.67112299,15 8,14.3279857 8,13.5 C8,12.6720143 8.67112299,12 9.49910873,12 C10.3279857,12 11,12.6720143 11,13.5" id="Fill-164" fill="#E5E6E3"></path>
                            <polygon id="Fill-165" fill="#E5E6E3" points="58 38 77 38 77 29 58 29"></polygon>
                            <path d="M80,55.4996336 C80,53.0149801 77.9857527,51 75.5003664,51 C73.0149801,51 71,53.0149801 71,55.4996336 C71,57.9850199 73.0149801,60 75.5003664,60 C77.9857527,60 80,57.9850199 80,55.4996336" id="Fill-166" fill="#E5E6E3"></path>
                            <path d="M73,54.4995542 C73,53.6713224 72.3286776,53 71.5004458,53 C70.672214,53 70,53.6713224 70,54.4995542 C70,55.3286776 70.672214,56 71.5004458,56 C72.3286776,56 73,55.3286776 73,54.4995542" id="Fill-167" fill="#E5E6E3"></path>
                            <polygon id="Fill-168" fill="#E5E6E3" points="20 121 35 121 35 73 20 73"></polygon>
                            <polygon id="Fill-169" fill="#E5E6E3" points="46 121 61 121 61 73 46 73"></polygon>
                            <path d="M27.5,113 C22.8055283,113 19,117.028939 19,122 L36,122 C36,117.028939 32.1944717,113 27.5,113" id="Fill-170" fill="#B6B8B5"></path>
                            <polygon id="Fill-171" fill="#676867" points="19 123 36 123 36 121 19 121"></polygon>
                            <path d="M53.4996205,113 C48.8061174,113 45,117.028939 45,122 L62,122 C62,117.028939 58.1946417,113 53.4996205,113" id="Fill-172" fill="#B6B8B5"></path>
                            <polygon id="Fill-173" fill="#676867" points="45 123 62 123 62 121 45 121"></polygon>
                            <path d="M79.986811,41.3995119 L79.986811,29.9841962 C79.986811,29.4433792 79.5574371,29 79.0320769,29 L71.9686559,29 C71.4432956,29 71.0139217,29.4433792 71.0139217,29.9841962 L71.0139217,41.3995119 L71,41.3995119 L71,55 L80,55 L80,41.3995119 L79.986811,41.3995119" id="Fill-174" fill="#E5E6E3"></path>
                            <path d="M0.0139216804,25.6001278 L0.0139216804,37.0165306 C0.0139216804,37.5573632 0.443295612,38 0.968655866,38 L8.03207685,38 C8.55743711,38 8.98681104,37.5573632 8.98681104,37.0165306 L8.98681104,25.6001278 L9,25.6001278 L9,12 L0,12 L0,25.6001278 L0.0139216804,25.6001278" id="Fill-175" fill="#E5E6E3"></path>
                            <path d="M61,73.4999755 C61,74.8747203 59.8863447,76 58.5241124,76 L22.4758876,76 C21.1136553,76 20,74.8747203 20,73.4999755 L20,31.5000245 C20,30.1252797 21.1136553,29 22.4758876,29 L58.5241124,29 C59.8863447,29 61,30.1252797 61,31.5000245 L61,73.4999755" id="Fill-176" fill="#E5E6E3"></path>
                            <polygon id="Fill-177" fill="#B6B8B5" points="40 76 42 76 42 29 40 29"></polygon>
                            <polygon id="Fill-178" fill="#363635" points="20 70 61 70 61 66 20 66"></polygon>
                            <polygon id="Fill-179" fill="#363635" points="36 72 44 72 44 65 36 65"></polygon>
                            <polygon id="Fill-180" fill="#E5E6E3" points="39 70 42 70 42 67 39 67"></polygon>
                        </g>
                    </g>
                </g>
            </g>
        </g>
    </g>
</svg>