<?xml version="1.0" encoding="UTF-8"?>
<svg width="100px" height="100px" viewBox="0 0 100 100" version="1.1" xmlns="http://www.w3.org/2000/svg" xmlns:xlink="http://www.w3.org/1999/xlink">
    <!-- Generator: Sketch 49.1 (51147) - http://www.bohemiancoding.com/sketch -->
    <title>Group 15</title>
    <desc>Created with Sketch.</desc>
    <defs></defs>
    <g id="Page-1" stroke="none" stroke-width="1" fill="none" fill-rule="evenodd">
        <g id="Avaleht_700px" transform="translate(-430.000000, -625.000000)">
            <g id="Group-5" transform="translate(380.000000, 625.000000)">
                <g id="Group-15" transform="translate(50.000000, 0.000000)">
                    <circle id="Oval-9-Copy-4" fill="#FFFFFF" opacity="0.6" cx="50" cy="50" r="50"></circle>
                    <g id="Group-18-Copy" transform="translate(24.000000, 19.000000)">
                        <polygon id="Fill-609" fill="#4A2D30" points="24.1991364 57.5326316 30.0223182 57.5326316 30.0223182 48.4231579 24.1991364 48.4231579"></polygon>
                        <polygon id="Fill-610" fill="#6B3E43" points="14.2861364 57.64 39.9353182 57.64 39.9353182 55.7778947 14.2861364 55.7778947"></polygon>
                        <polygon id="Fill-611" fill="#4A2D30" points="10.9323182 59.5042105 43.1971364 59.5042105 43.1971364 57.6410526 10.9323182 57.6410526"></polygon>
                        <path d="M8.61977273,42.2178947 C18.7993636,52.4673684 35.3687727,52.46 45.5525455,42.2063158 L43.9707727,40.6126316 C34.6568182,49.9884211 19.5102727,49.9947368 10.2025909,40.6242105 C0.894909091,31.2515789 0.897,15.9978947 10.2109545,6.62105263 L8.62709091,5.02631579 C-1.55772727,15.2821053 -1.56190909,31.9663158 8.61977273,42.2178947" id="Fill-612" fill="#6B3E43"></path>
                        <path d="M44.9921818,42.88 C45.4793636,43.3705263 46.2697273,43.3705263 46.7579545,42.88 C47.2440909,42.3873684 47.2440909,41.5926316 46.7579545,41.1021053 L9.8325,3.92315789 C9.34427273,3.43263158 8.55390909,3.43263158 8.06672727,3.92315789 C7.57954545,4.41473684 7.57954545,5.21052632 8.06672727,5.70105263 L44.9921818,42.88" id="Fill-613" fill="#4A2D30"></path>
                        <path d="M48.6836818,16.7694737 C52.3218636,28.5978947 45.747,41.1568421 33.9992273,44.8210526 C22.2535455,48.4842105 9.77918182,41.8642105 6.141,30.0368421 C2.50281818,18.2084211 9.07663636,5.64947368 20.8233636,1.98526316 C32.5711364,-1.67789474 45.0455,4.94105263 48.6836818,16.7694737" id="Fill-614" fill="#3198AB"></path>
                        <path d="M45.4532273,10.2557895 C44.9043636,10.6505263 44.1119091,10.44 43.332,10.2294737 C42.7465455,10.0705263 42.1673636,9.91263158 41.7052727,10.0105263 C39.9980455,10.2094737 40.2008636,11.5915789 39.2181364,12.3431579 C38.6661364,12.8273684 37.8465,12.7915789 37.0707727,12.7547368 C36.7435455,12.74 36.4246818,12.7242105 36.1371818,12.7473684 C33.5622273,12.9947368 34.6348636,14.3284211 36.7383182,14.3410526 C37.1272273,14.3631579 37.6813182,14.1894737 38.2573636,14.0157895 C39.0174091,13.7863158 39.8150909,13.5568421 40.3231818,13.7778947 C42.0084545,14.5884211 40.4904545,16.8410526 39.6394545,17.6631579 C37.6645909,19.5021053 34.9495455,18.7694737 32.6673182,17.8126316 C31.2538636,18.2305263 32.1665455,19.4768421 32.9464545,19.9726316 C33.9971364,20.8694737 35.4618182,20.9673684 36.7592273,21.2305263 C39.7868636,21.7336842 39.4732273,23.9452632 39.9499545,26.5768421 C40.3033182,28.8031579 40.1151364,31.42 40.9713636,33.4894737 C41.5285909,34.8157895 43.1647273,36.8684211 43.6634091,38.7336842 C42.2091818,40.3 40.5228636,41.6663158 38.6305909,42.7778947 C36.846,41.9768421 34.9809091,40.2494737 33.9302273,39.6905263 C32.3766818,38.9505263 30.6213636,38.2757895 29.6177273,36.8084211 C28.8388636,35.7157895 29.0009091,34.4410526 27.9889091,33.3105263 C26.5200455,31.8863158 25.4066364,32.9642105 24.0987727,34.0421053 C23.1651818,34.8126316 22.1312273,35.5821053 20.7993182,35.4410526 C19.0690909,35.2021053 18.8965909,33.9210526 17.6451818,33.0884211 C16.1303182,32.1136842 15.4622727,32.1 14.5673636,30.2642105 C11.8387273,25.0873684 15.7560455,20.4778947 20.5630455,18.5663158 C21.2384091,18.7368421 23.2216364,17.2915789 24.3559545,16.8305263 C25.5038636,16.2505263 26.6852273,16.14 28.1269091,15.8010526 C27.7212727,14.4821053 26.5357273,15.2968421 25.6815909,14.6736842 C24.8901818,14.2526316 24.7647273,13.8473684 24.3831364,12.9642105 C25.2027727,12.0410526 26.8713182,12.0768421 26.3726364,10.4526316 C25.967,9.13263158 24.173,8.69157895 23.2195455,9.54421053 C21.9953182,10.5947368 23.4652273,12.1389474 21.5185909,12.6347368 C21.2708182,12.7115789 20.8871364,12.6115789 20.4794091,12.5126316 C19.7245909,12.3273684 18.8871818,12.1431579 18.6718182,13.0768421 C18.3790909,14.2810526 25.8373636,15.1810526 21.3774545,16.1263158 C20.5400455,16.2757895 18.7951818,16.7094737 18.1281818,16.6957895 C17.5500455,16.6968421 17.0220909,16.3936842 16.4993636,16.0905263 C15.7246818,15.6410526 14.9635909,15.1915789 14.0749545,15.7336842 C14.2558182,16.6789474 15.7152727,17.1136842 16.1585455,18.2 C15.3002273,19.0673684 14.651,18.5515789 13.9955,18.0368421 C13.5564091,17.6915789 13.1141818,17.3463158 12.604,17.4157895 C10.9281364,17.7168421 11.8795,20.0905263 11.9892727,21.1684211 C12.1314545,22.3473684 12.1095,23.3557895 10.5988182,23.8273684 C8.98463636,24.3305263 9.20104545,23.5957895 8.89577273,22.2442105 C8.50477273,20.2515789 8.57377273,20.12 9.61086364,18.4621053 C10.4075,17.1010526 9.76140909,16.0778947 10.7901364,14.7557895 C11.5805,13.7305263 12.7587273,13.2515789 13.4800909,12.36 C14.5391364,11.14 14.6217273,8.88947368 12.5287273,9.98631579 C11.8847273,10.4105263 11.1738182,12.4115789 10.3750909,12.3273684 C8.67622727,12.1884211 10.0457727,10.5389474 10.5883636,10.1463158 C12.0143636,9.03473684 12.1011364,9.67473684 11.7394091,7.78526316 L11.6348636,7.57263158 C14.1157273,5.05894737 17.2259545,3.10631579 20.8191818,1.98526316 C30.1833182,-0.934736842 40.0053636,2.67684211 45.4532273,10.2557895" id="Fill-615" fill="#AACC3A"></path>
                        <path d="M46.4913636,34.5505263 C45.218,34.7242105 43.9958636,32.5463158 43.3497727,31.5242105 C42.5186364,30.1863158 42.6022727,29.1326316 42.6095909,27.8115789 C43.3623182,27.4273684 44.6105909,27.8242105 45.3716818,29.1136842 C46.4673182,30.8852632 46.2624091,32.7294737 46.4913636,34.5505263" id="Fill-616" fill="#AACC3A"></path>
                        <path d="M27.4045,45.8315789 C17.9002727,45.8315789 9.09963636,39.6568421 6.141,30.0378947 C4.80595455,25.6989474 4.84463636,21.2631579 6.00927273,17.2021053 C6.03122727,17.1263158 6.05318182,17.0515789 6.07618182,16.9757895 C4.84777273,21.0968421 4.78086364,25.6178947 6.141,30.0368421 C9.09963636,39.6568421 17.9023636,45.8305263 27.4055455,45.8305263 C29.5874091,45.8305263 31.8069091,45.5052632 33.9992273,44.8210526 C35.2914091,44.4178947 36.5198182,43.9084211 37.6802727,43.3031579 C37.5265909,43.3831579 37.3718636,43.4621053 37.2150455,43.5389474 C37.0268636,43.6326316 36.8365909,43.7221053 36.6442273,43.8105263 C36.6275,43.8178947 36.6097273,43.8263158 36.593,43.8336842 C36.524,43.8652632 36.455,43.8968421 36.3849545,43.9273684 C36.3839091,43.9273684 36.3828636,43.9273684 36.3828636,43.9284211 C36.3765909,43.9305263 36.3703182,43.9336842 36.3640455,43.9368421 C36.3577727,43.9389474 36.3525455,43.9410526 36.3473182,43.9431579 C36.3452273,43.9442105 36.3431364,43.9452632 36.3420909,43.9463158 C35.5862273,44.2778947 34.8052727,44.5705263 33.9992273,44.8221053 C31.8058636,45.5063158 29.5863636,45.8315789 27.4045,45.8315789 M38.6253636,42.7810526 L38.6232727,42.7810526 C38.6253636,42.78 38.6285,42.7778947 38.6295455,42.7768421 C38.6305909,42.7768421 38.6305909,42.7778947 38.6305909,42.7778947 C38.663,42.7589474 38.6954091,42.74 38.7267727,42.7210526 L38.7142273,42.7284211 C38.6839091,42.7463158 38.6546364,42.7631579 38.6253636,42.7810526 M39.3028182,42.3663158 C39.4429091,42.2778947 39.5840455,42.1863158 39.7220455,42.0936842 C39.5840455,42.1873684 39.445,42.2778947 39.3028182,42.3663158 M40.7455455,41.3684211 C41.2348182,41 41.7063182,40.6126316 42.1610909,40.2084211 C42.1119545,40.2526316 42.0617727,40.2968421 42.0126364,40.34 C41.9363182,40.4063158 41.8610455,40.4715789 41.7836818,40.5378947 C41.6467273,40.6536842 41.5087273,40.7684211 41.3686364,40.8831579 C41.2870909,40.9484211 41.2055455,41.0136842 41.124,41.0778947 C40.9995909,41.1736842 40.8751818,41.2726316 40.7455455,41.3684211 M42.2499545,40.1294737 L42.2499545,40.1284211 C42.2520455,40.1273684 42.2530909,40.1263158 42.2551818,40.1242105 C42.2530909,40.1263158 42.2520455,40.1273684 42.2499545,40.1294737 M44.0188636,38.3452632 C45.5504545,36.6157895 46.8039545,34.6610526 47.7396364,32.5578947 C46.8039545,34.6610526 45.5504545,36.6157895 44.0188636,38.3452632 M47.7396364,32.5568421 C47.7438182,32.5463158 47.748,32.5378947 47.7521818,32.5273684 C47.748,32.5378947 47.7438182,32.5463158 47.7396364,32.5568421 M47.7542727,32.5252632 C47.7668182,32.4947368 47.7804091,32.4642105 47.794,32.4347368 C47.7804091,32.4652632 47.7678636,32.4947368 47.7542727,32.5252632 M47.794,32.4336842 C47.7981818,32.4231579 47.8023636,32.4157895 47.8065455,32.4063158 C47.8023636,32.4147368 47.7981818,32.4242105 47.794,32.4336842 M47.8086364,32.4 C47.8128182,32.3915789 47.8159545,32.3831579 47.8201364,32.3747368 C47.8159545,32.3831579 47.8128182,32.3915789 47.8086364,32.4 M47.8211818,32.3705263 C47.8253636,32.3610526 47.8295455,32.3515789 47.8337273,32.3421053 C47.8295455,32.3515789 47.8253636,32.3610526 47.8211818,32.3705263 M47.8337273,32.3410526 C47.8431364,32.3210526 47.8515,32.3010526 47.8609091,32.28 C47.8515,32.3010526 47.8431364,32.3210526 47.8337273,32.3410526 M47.8609091,32.2789474 C47.8650909,32.2694737 47.8692727,32.26 47.8734545,32.2505263 C47.8692727,32.26 47.8650909,32.2694737 47.8609091,32.2789474 M47.8745,32.2473684 C47.8786818,32.2378947 47.8818182,32.2294737 47.886,32.2210526 C47.8828636,32.2294737 47.8786818,32.2378947 47.8745,32.2473684 M47.8880909,32.2157895 C47.8922727,32.2063158 47.8954091,32.1978947 47.8995909,32.1884211 C47.8954091,32.1978947 47.8922727,32.2063158 47.8880909,32.2157895 M47.9006364,32.1863158 C47.9131818,32.1557895 47.9257273,32.1263158 47.9382727,32.0957895 C47.9257273,32.1263158 47.9131818,32.1568421 47.9006364,32.1863158 M47.9403636,32.0915789 C47.9445455,32.0831579 47.9476818,32.0747368 47.9508182,32.0663158 C47.9476818,32.0747368 47.9445455,32.0831579 47.9403636,32.0915789 M47.9529091,32.0610526 C47.9570909,32.0526316 47.9602273,32.0431579 47.9644091,32.0347368 C47.9602273,32.0431579 47.9570909,32.0526316 47.9529091,32.0610526 M47.9654545,32.0305263 C47.978,32.0010526 47.9905455,31.9705263 48.0030909,31.94 C47.9905455,31.9705263 47.9790455,32 47.9654545,32.0305263 M48.0041364,31.9378947 C48.0083182,31.9284211 48.0114545,31.9189474 48.0156364,31.9105263 C48.0114545,31.92 48.0083182,31.9284211 48.0041364,31.9378947 M48.0177273,31.9052632 C48.0208636,31.8957895 48.0250455,31.8873684 48.0281818,31.8778947 C48.0250455,31.8863158 48.0208636,31.8968421 48.0177273,31.9052632 M48.0292273,31.8757895 C48.0417727,31.8452632 48.0543182,31.8147368 48.0668636,31.7842105 C48.0543182,31.8136842 48.0417727,31.8452632 48.0292273,31.8757895 M48.0668636,31.7821053 C48.0710455,31.7726316 48.0752273,31.7621053 48.0794091,31.7526316 C48.0752273,31.7621053 48.0710455,31.7726316 48.0668636,31.7821053 M48.0794091,31.7515789 C49.2241818,28.8831579 49.7876818,25.7673684 49.6716364,22.5894737 C49.6716364,22.5873684 49.6716364,22.5863158 49.6716364,22.5852632 C49.7887273,25.7642105 49.2252273,28.8821053 48.0794091,31.7515789 M6.37204545,16.0547368 C6.44522727,15.8421053 6.52154545,15.6305263 6.601,15.42 C6.86236364,14.7315789 7.15509091,14.06 7.48022727,13.4021053 C7.66422727,13.0326316 7.85763636,12.6684211 8.06045455,12.3094737 C7.38718182,13.5021053 6.82159091,14.7557895 6.37204545,16.0547368 M9.95272727,9.48421053 C10.2255909,9.13578947 10.5089091,8.79578947 10.8016364,8.46526316 L10.7995455,8.46315789 C10.8016364,8.46210526 10.8037273,8.45894737 10.8047727,8.45789474 L10.8068636,8.46 C10.5120455,8.79263158 10.2266364,9.13368421 9.95272727,9.48421053 M12.5695,6.67894737 L12.5684545,6.67894737 C14.881,4.59578947 17.664,2.96842105 20.8202273,1.98421053 C21.781,1.68315789 22.7459545,1.45263158 23.7109091,1.28631579 C23.7056818,1.28842105 23.6994091,1.29052632 23.6941818,1.29263158 C22.7344545,1.45789474 21.7747273,1.68736842 20.8191818,1.98526316 C17.664,2.96947368 14.881,4.59578947 12.5695,6.67894737" id="Fill-617" fill="#CEA831"></path>
                        <path d="M42.2551818,40.1242105 C42.8782727,39.5631579 43.4668636,38.9684211 44.0188636,38.3452632 C43.4668636,38.9684211 42.8782727,39.5631579 42.2551818,40.1242105 M10.8068636,8.46 L10.8047727,8.45789474 C11.3578182,7.83368421 11.9453636,7.24 12.5684545,6.67894737 L12.5695,6.67894737 C12.2485455,6.96842105 11.937,7.26631579 11.6348636,7.57263158 L11.6359091,7.57368421 C11.3515455,7.86210526 11.0745,8.15684211 10.8068636,8.46" id="Fill-618" fill="#3D2729"></path>
                        <path d="M27.4055455,45.8305263 C17.9023636,45.8305263 9.09963636,39.6568421 6.141,30.0368421 C4.78086364,25.6178947 4.84777273,21.0968421 6.07618182,16.9757895 C6.13054545,16.7968421 6.18595455,16.62 6.24345455,16.4442105 C6.28527273,16.3136842 6.32813636,16.1842105 6.37204545,16.0547368 C6.82159091,14.7557895 7.38718182,13.5021053 8.06045455,12.3094737 C8.32390909,11.8463158 8.60304545,11.3926316 8.89890909,10.9494737 C9.22927273,10.4463158 9.58159091,9.95684211 9.95272727,9.48421053 C10.2266364,9.13368421 10.5120455,8.79263158 10.8068636,8.46 C11.0745,8.15684211 11.3515455,7.86210526 11.6359091,7.57368421 L11.7394091,7.78526316 C12.1011364,9.67473684 12.0143636,9.03473684 10.5883636,10.1463158 C10.0457727,10.5389474 8.67622727,12.1884211 10.3750909,12.3273684 C10.3918182,12.3294737 10.4085455,12.3294737 10.4242273,12.3294737 C11.2030909,12.3294737 11.8983182,10.4010526 12.5287273,9.98631579 C12.9197273,9.78105263 13.2344091,9.69368421 13.4811364,9.69368421 C13.6463182,9.69368421 13.7822273,9.73368421 13.8888636,9.80421053 C13.2469545,10.9421053 12.719,12.1452632 12.3144091,13.3936842 C11.7833182,13.7884211 11.2271364,14.1884211 10.7901364,14.7557895 C9.76140909,16.0778947 10.4075,17.1010526 9.61086364,18.4621053 C8.57377273,20.12 8.50477273,20.2515789 8.89577273,22.2442105 C9.13622727,23.3052632 9.05363636,23.9863158 9.78963636,23.9863158 C9.99036364,23.9863158 10.2517273,23.9357895 10.5988182,23.8273684 C11.1539545,23.6536842 11.5083636,23.4084211 11.7279091,23.1073684 C11.8596364,23.7842105 12.0279545,24.46 12.236,25.1336842 C12.7305,26.7442105 13.4152727,28.2431579 14.2568636,29.6126316 C14.3488636,29.8294737 14.4513182,30.0463158 14.5673636,30.2642105 C15.1015909,31.36 15.5542727,31.8063158 16.1554091,32.1957895 C19.7873182,36.36 25.0773182,38.8094737 30.6454091,38.8094737 C31.0939091,38.8094737 31.5455455,38.7936842 31.9971818,38.7621053 C32.6317727,39.0989474 33.2977273,39.3894737 33.9302273,39.6905263 C34.9809091,40.2494737 36.846,41.9757895 38.6295455,42.7768421 C38.6285,42.7778947 38.6253636,42.78 38.6232727,42.7810526 L38.6201364,42.7810526 C38.3138182,42.9610526 37.9991364,43.1357895 37.6802727,43.3031579 C36.5198182,43.9084211 35.2914091,44.4178947 33.9992273,44.8210526 C31.8069091,45.5052632 29.5874091,45.8305263 27.4055455,45.8305263 M39.2944545,42.3726316 C39.4565,42.2694737 39.6164545,42.1642105 39.7753636,42.0578947 C39.7575909,42.0694737 39.7398182,42.0821053 39.7220455,42.0936842 C39.5840455,42.1863158 39.4429091,42.2778947 39.3028182,42.3663158 C39.2996818,42.3684211 39.2965455,42.3705263 39.2944545,42.3726316 M40.6838636,41.4136842 C41.7627727,40.6063158 42.7580455,39.7084211 43.6634091,38.7336842 C43.3445455,37.5421053 42.5625455,36.2747368 41.8934545,35.1684211 C42.7758182,34.5305263 43.5965,33.8231579 44.3492273,33.0568421 C44.9284091,33.8442105 45.6257273,34.56 46.3460455,34.56 C46.3941364,34.56 46.4422273,34.5568421 46.4913636,34.5505263 C46.3418636,33.3631579 46.3774091,32.1652632 46.1160455,30.9842105 C47.9351364,28.52 49.1625,25.6410526 49.6716364,22.5894737 C49.7876818,25.7673684 49.2241818,28.8831579 48.0794091,31.7515789 C48.0794091,31.7515789 48.0794091,31.7515789 48.0794091,31.7526316 C48.0752273,31.7621053 48.0710455,31.7726316 48.0668636,31.7821053 C48.0668636,31.7831579 48.0668636,31.7831579 48.0668636,31.7842105 C48.0543182,31.8147368 48.0417727,31.8452632 48.0292273,31.8757895 C48.0292273,31.8768421 48.0292273,31.8768421 48.0281818,31.8778947 C48.0250455,31.8873684 48.0208636,31.8957895 48.0177273,31.9052632 C48.0166818,31.9073684 48.0156364,31.9084211 48.0156364,31.9105263 C48.0114545,31.9189474 48.0083182,31.9284211 48.0041364,31.9378947 C48.0041364,31.9378947 48.0030909,31.9389474 48.0030909,31.94 C47.9905455,31.9705263 47.978,32.0010526 47.9654545,32.0305263 C47.9654545,32.0315789 47.9644091,32.0336842 47.9644091,32.0347368 C47.9602273,32.0431579 47.9570909,32.0526316 47.9529091,32.0610526 C47.9529091,32.0621053 47.9518636,32.0642105 47.9508182,32.0663158 C47.9476818,32.0747368 47.9445455,32.0831579 47.9403636,32.0915789 C47.9403636,32.0926316 47.9393182,32.0947368 47.9382727,32.0957895 C47.9257273,32.1263158 47.9131818,32.1557895 47.9006364,32.1863158 C47.9006364,32.1873684 47.8995909,32.1884211 47.8995909,32.1884211 C47.8954091,32.1978947 47.8922727,32.2063158 47.8880909,32.2157895 C47.8870455,32.2178947 47.8870455,32.2189474 47.886,32.2210526 C47.8818182,32.2294737 47.8786818,32.2378947 47.8745,32.2473684 C47.8745,32.2473684 47.8734545,32.2494737 47.8734545,32.2505263 C47.8692727,32.26 47.8650909,32.2694737 47.8609091,32.2789474 L47.8609091,32.28 C47.8515,32.3010526 47.8431364,32.3210526 47.8337273,32.3410526 L47.8337273,32.3421053 C47.8295455,32.3515789 47.8253636,32.3610526 47.8211818,32.3705263 C47.8211818,32.3715789 47.8201364,32.3736842 47.8201364,32.3747368 C47.8159545,32.3831579 47.8128182,32.3915789 47.8086364,32.4 C47.8086364,32.4010526 47.8065455,32.4042105 47.8065455,32.4063158 C47.8023636,32.4157895 47.7981818,32.4231579 47.794,32.4336842 C47.794,32.4336842 47.794,32.4336842 47.794,32.4347368 C47.7804091,32.4642105 47.7668182,32.4947368 47.7542727,32.5252632 C47.7532273,32.5252632 47.7532273,32.5273684 47.7521818,32.5273684 C47.748,32.5378947 47.7438182,32.5463158 47.7396364,32.5568421 C47.7396364,32.5568421 47.7396364,32.5568421 47.7396364,32.5578947 C46.8039545,34.6610526 45.5504545,36.6157895 44.0188636,38.3452632 C43.4668636,38.9684211 42.8782727,39.5631579 42.2551818,40.1242105 C42.2530909,40.1263158 42.2520455,40.1273684 42.2499545,40.1284211 L42.2489091,40.1284211 C42.2196364,40.1557895 42.1903636,40.1821053 42.1610909,40.2084211 C41.7063182,40.6126316 41.2348182,41 40.7455455,41.3684211 C40.7246364,41.3831579 40.7037273,41.3978947 40.6838636,41.4136842" id="Fill-619" fill="#298191"></path>
                        <path d="M38.6305909,42.7778947 C38.6305909,42.7778947 38.6305909,42.7768421 38.6295455,42.7768421 C36.846,41.9757895 34.9809091,40.2494737 33.9302273,39.6905263 C33.2977273,39.3894737 32.6317727,39.0989474 31.9971818,38.7621053 C33.4461818,38.6578947 34.9056364,38.3873684 36.3535909,37.9357895 C38.3911818,37.3 40.25,36.3557895 41.8934545,35.1684211 C42.5625455,36.2747368 43.3445455,37.5421053 43.6634091,38.7336842 C42.7580455,39.7084211 41.7627727,40.6063158 40.6838636,41.4136842 C40.6786364,41.4168421 40.6744545,41.42 40.6692273,41.4231579 C40.4716364,41.5705263 40.2625455,41.7178947 40.0628636,41.8547368 C39.9687727,41.9231579 39.8725909,41.9905263 39.7753636,42.0578947 C39.6164545,42.1642105 39.4565,42.2694737 39.2944545,42.3726316 C39.1585455,42.4578947 39.0205455,42.5410526 38.8815,42.6231579 L38.7267727,42.7210526 C38.6954091,42.74 38.663,42.7589474 38.6305909,42.7778947 M16.1554091,32.1957895 C15.5542727,31.8063158 15.1015909,31.36 14.5673636,30.2642105 C14.4513182,30.0463158 14.3488636,29.8294737 14.2568636,29.6126316 C14.8224545,30.5336842 15.4580909,31.3957895 16.1554091,32.1957895 M9.78963636,23.9863158 C9.05363636,23.9863158 9.13622727,23.3052632 8.89577273,22.2442105 C8.50477273,20.2515789 8.57377273,20.12 9.61086364,18.4621053 C10.4075,17.1010526 9.76140909,16.0778947 10.7901364,14.7557895 C11.2271364,14.1884211 11.7833182,13.7884211 12.3144091,13.3936842 C11.3243636,16.4536842 11.0797273,19.7852632 11.7279091,23.1073684 C11.5083636,23.4084211 11.1539545,23.6536842 10.5988182,23.8273684 C10.2517273,23.9357895 9.99036364,23.9863158 9.78963636,23.9863158 M10.4242273,12.3294737 C10.4085455,12.3294737 10.3918182,12.3294737 10.3750909,12.3273684 C8.67622727,12.1884211 10.0457727,10.5389474 10.5883636,10.1463158 C12.0143636,9.03473684 12.1011364,9.67473684 11.7394091,7.78526316 L11.6359091,7.57368421 L11.6348636,7.57263158 C11.937,7.26631579 12.2485455,6.96842105 12.5695,6.67894737 C14.881,4.59578947 17.664,2.96947368 20.8191818,1.98526316 C21.7747273,1.68736842 22.7344545,1.45789474 23.6941818,1.29263158 C19.4109545,2.95473684 16.0205455,6.02421053 13.8888636,9.80421053 C13.7822273,9.73368421 13.6463182,9.69368421 13.4811364,9.69368421 C13.2344091,9.69368421 12.9197273,9.78105263 12.5287273,9.98631579 C11.8983182,10.4010526 11.2030909,12.3294737 10.4242273,12.3294737" id="Fill-620" fill="#90B13E"></path>
                        <path d="M46.3460455,34.56 C45.6257273,34.56 44.9284091,33.8442105 44.3492273,33.0568421 C44.988,32.4063158 45.5776364,31.7136842 46.1160455,30.9842105 C46.3774091,32.1652632 46.3418636,33.3631579 46.4913636,34.5505263 C46.4422273,34.5568421 46.3941364,34.56 46.3460455,34.56" id="Fill-621" fill="#90B13E"></path>
                        <path d="M35.9458636,13.9252632 C35.5151364,13.9252632 35.1032273,13.8442105 34.7258182,13.6947368 C34.4341364,13.3126316 34.7749545,12.8778947 36.1371818,12.7473684 C36.2438182,12.7389474 36.3556818,12.7357895 36.4706818,12.7357895 C36.6630455,12.7357895 36.8648182,12.7452632 37.0707727,12.7547368 C37.2756818,12.7642105 37.4837273,12.7736842 37.6896818,12.7736842 C37.9845,12.7736842 38.2751364,12.7536842 38.5417273,12.6852632 C37.927,13.4421053 36.9923636,13.9252632 35.9458636,13.9252632" id="Fill-622" fill="#96CED1"></path>
                        <path d="M34.7258182,13.6947368 C33.4765,13.2042105 32.5930909,11.9810526 32.5930909,10.5505263 C32.5930909,8.68526316 34.0922727,7.17368421 35.9458636,7.17368421 C37.7973636,7.17368421 39.2975909,8.68526316 39.2975909,10.5505263 C39.2975909,11.36 39.0142727,12.1042105 38.5417273,12.6852632 C38.2751364,12.7536842 37.9845,12.7736842 37.6896818,12.7736842 C37.4837273,12.7736842 37.2756818,12.7642105 37.0707727,12.7547368 C36.8648182,12.7452632 36.6630455,12.7357895 36.4706818,12.7357895 C36.3556818,12.7357895 36.2438182,12.7389474 36.1371818,12.7473684 C34.7749545,12.8778947 34.4341364,13.3126316 34.7258182,13.6947368" id="Fill-623" fill="#D7E390"></path>
                        <polygon id="Fill-626" fill="#563338" points="14.2861364 55.7810526 24.1939091 55.7810526 24.1939091 55.7778947 14.2861364 55.7778947"></polygon>
                        <polygon id="Fill-627" fill="#3C2629" points="10.9323182 57.6442105 14.283 57.6442105 14.283 57.6410526 10.9323182 57.6410526"></polygon>
                        <path d="M24.1939091,49.7421053 C23.5844091,49.6736842 22.9759545,49.5852632 22.3727273,49.4747368 C22.977,49.5842105 23.5833636,49.6726316 24.1939091,49.7389474 L24.1939091,49.7421053 M2.35645455,15.1926316 C3.51377273,11.7347368 5.40186364,8.47368421 8.02281818,5.65684211 C8.02490909,5.65894737 8.02804545,5.66210526 8.03118182,5.66526316 C5.40709091,8.48 3.51586364,11.7389474 2.35645455,15.1926316" id="Fill-628" fill="#563338"></path>
                        <path d="M8.02490909,3.96631579 C8.03431818,3.95578947 8.04477273,3.94631579 8.05418182,3.93684211 C8.05209091,3.93894737 8.05,3.94105263 8.04686364,3.94421053 L8.02490909,3.96631579" id="Fill-629" fill="#C9A432"></path>
                        <path d="M8.04686364,3.94421053 C8.05,3.94105263 8.05209091,3.93894737 8.05418182,3.93684211 C8.05731818,3.93368421 8.05940909,3.93052632 8.06254545,3.92842105 L8.04686364,3.94421053" id="Fill-630" fill="#3C2629"></path>
                        <path d="M27.0720455,47.6526316 C20.9603182,47.6526316 14.8496364,45.3094737 10.1952727,40.6231579 C1.09981818,31.4652632 0.890727273,16.6757895 9.59936364,7.25473684 L9.60145455,7.25684211 C0.902227273,16.6757895 1.10295455,31.4610526 10.2025909,40.6242105 C14.8548636,45.3073684 20.9634545,47.6494737 27.0751818,47.6484211 C30.7060455,47.6484211 34.3400455,46.8210526 37.6666818,45.1684211 C34.339,46.8242105 30.705,47.6526316 27.0720455,47.6526316" id="Fill-632" fill="#563338"></path>
                        <path d="M36.3420909,43.9463158 C36.3431364,43.9452632 36.3452273,43.9442105 36.3473182,43.9431579 C36.3452273,43.9442105 36.3431364,43.9452632 36.3420909,43.9463158 M36.3640455,43.9368421 C36.3703182,43.9336842 36.3765909,43.9305263 36.3828636,43.9284211 C36.3765909,43.9305263 36.3703182,43.9336842 36.3640455,43.9368421 M36.3849545,43.9273684 C36.455,43.8968421 36.524,43.8652632 36.593,43.8336842 C36.6097273,43.8263158 36.6275,43.8178947 36.6442273,43.8105263 C36.5585,43.8494737 36.4717273,43.8884211 36.3849545,43.9273684 M37.2150455,43.5389474 C37.3718636,43.4621053 37.5265909,43.3831579 37.6802727,43.3031579 C38.0001818,43.1357895 38.3138182,42.9621053 38.6232727,42.7810526 L38.6253636,42.7810526 C38.1674545,43.0494737 37.697,43.3021053 37.2150455,43.5389474" id="Fill-633" fill="#A88934"></path>
                        <path d="M37.6802727,43.3031579 C37.9991364,43.1357895 38.3138182,42.9610526 38.6201364,42.7810526 L38.6232727,42.7810526 C38.3138182,42.9621053 38.0001818,43.1357895 37.6802727,43.3031579" id="Fill-634" fill="#246A78"></path>
                        <path d="M38.7142273,42.7284211 L38.7267727,42.7210526 C38.9013636,42.6168421 39.0749091,42.5105263 39.2463636,42.4031579 C39.2651818,42.3905263 39.2829545,42.3789474 39.3028182,42.3663158 C39.445,42.2778947 39.5840455,42.1873684 39.7220455,42.0936842 C40.0712273,41.8610526 40.4120455,41.6189474 40.7455455,41.3684211 C40.8751818,41.2726316 40.9995909,41.1736842 41.124,41.0778947 C40.3629091,41.6768421 39.5589545,42.2284211 38.7142273,42.7284211" id="Fill-635" fill="#A88934"></path>
                        <path d="M39.2463636,42.4031579 C39.2620455,42.3926316 39.2777273,42.3821053 39.2944545,42.3726316 C39.2965455,42.3705263 39.2996818,42.3684211 39.3028182,42.3663158 C39.2829545,42.3789474 39.2651818,42.3905263 39.2463636,42.4031579 M39.7220455,42.0936842 C39.7398182,42.0821053 39.7575909,42.0694737 39.7753636,42.0578947 C40.0848182,41.8494737 40.3869545,41.6347368 40.6838636,41.4136842 C40.7037273,41.3978947 40.7246364,41.3831579 40.7455455,41.3684211 C40.4120455,41.6189474 40.0712273,41.8610526 39.7220455,42.0936842" id="Fill-636" fill="#246A78"></path>
                        <path d="M38.7267727,42.7210526 L38.8815,42.6231579 C39.0205455,42.5410526 39.1585455,42.4578947 39.2944545,42.3726316 C39.2777273,42.3821053 39.2620455,42.3926316 39.2463636,42.4031579 C39.0749091,42.5105263 38.9013636,42.6168421 38.7267727,42.7210526 M39.7753636,42.0578947 C39.8725909,41.9905263 39.9687727,41.9231579 40.0628636,41.8547368 C40.2625455,41.7178947 40.4716364,41.5705263 40.6692273,41.4231579 C40.6744545,41.42 40.6786364,41.4168421 40.6838636,41.4136842 C40.3869545,41.6347368 40.0848182,41.8494737 39.7753636,42.0578947" id="Fill-637" fill="#76933D"></path>
                        <path d="M41.3686364,40.8831579 C41.5087273,40.7684211 41.6467273,40.6536842 41.7836818,40.5378947 C41.6467273,40.6536842 41.5087273,40.7694737 41.3686364,40.8831579 M42.0126364,40.34 C42.0617727,40.2968421 42.1119545,40.2526316 42.1610909,40.2084211 C42.1903636,40.1821053 42.2206818,40.1557895 42.2499545,40.1284211 L42.2499545,40.1294737 C42.1715455,40.2 42.0920909,40.2705263 42.0126364,40.34" id="Fill-638" fill="#A88934"></path>
                        <path d="M42.1610909,40.2084211 C42.1903636,40.1821053 42.2196364,40.1557895 42.2489091,40.1284211 L42.2499545,40.1284211 C42.2206818,40.1557895 42.1903636,40.1821053 42.1610909,40.2084211" id="Fill-639" fill="#246A78"></path>
                        <path d="M6.00927273,17.2021053 C6.18177273,16.6 6.37936364,16.0042105 6.601,15.42 C6.52154545,15.6305263 6.44522727,15.8421053 6.37204545,16.0547368 C6.2675,16.3589474 6.16818182,16.6663158 6.07618182,16.9757895 C6.05318182,17.0515789 6.03122727,17.1263158 6.00927273,17.2021053" id="Fill-640" fill="#A88934"></path>
                        <path d="M6.07618182,16.9757895 C6.16818182,16.6663158 6.2675,16.3589474 6.37204545,16.0547368 C6.32813636,16.1842105 6.28527273,16.3136842 6.24345455,16.4442105 C6.18595455,16.62 6.13054545,16.7968421 6.07618182,16.9757895" id="Fill-641" fill="#246A78"></path>
                        <path d="M7.48022727,13.4021053 C8.36259091,11.6210526 9.47704545,9.95789474 10.7995455,8.46315789 L10.8016364,8.46526316 C10.5089091,8.79578947 10.2255909,9.13578947 9.95272727,9.48421053 C9.25122727,10.3778947 8.61872727,11.3231579 8.06045455,12.3094737 C7.85763636,12.6684211 7.66422727,13.0326316 7.48022727,13.4021053" id="Fill-642" fill="#A88934"></path>
                        <path d="M8.06045455,12.3094737 C8.61872727,11.3231579 9.25122727,10.3778947 9.95272727,9.48421053 C9.58159091,9.95684211 9.22927273,10.4463158 8.89890909,10.9494737 C8.60304545,11.3926316 8.32390909,11.8463158 8.06045455,12.3094737" id="Fill-643" fill="#246A78"></path>
                        <path d="M30.0223182,55.7778947 L30.0170909,55.7778947 L30.0170909,49.7389474 C30.0181364,49.7389474 30.0202273,49.7389474 30.0223182,49.7378947 L30.0223182,55.7778947" id="Fill-645" fill="#3C2629"></path>
                        <polyline id="Fill-646" fill="#563338" points="33.948 55.7810526 30.0170909 55.7810526 30.0170909 55.7778947 33.9511364 55.7778947 33.948 55.7810526"></polyline>
                        <path d="M39.9405455,46.5063158 C41.7052727,45.4989474 43.378,44.2684211 44.9148182,42.8126316 L44.9221364,42.82 C43.3821818,44.2726316 41.7073636,45.5010526 39.9405455,46.5063158" id="Fill-647" fill="#563338"></path>
                    </g>
                </g>
            </g>
        </g>
    </g>
</svg>