<?xml version="1.0" encoding="UTF-8"?>
<svg width="81px" height="80px" viewBox="0 0 81 80" version="1.1" xmlns="http://www.w3.org/2000/svg" xmlns:xlink="http://www.w3.org/1999/xlink">
    <!-- Generator: Sketch 49.1 (51147) - http://www.bohemiancoding.com/sketch -->
    <title>Group 9</title>
    <desc>Created with Sketch.</desc>
    <defs></defs>
    <g id="Page-1" stroke="none" stroke-width="1" fill="none" fill-rule="evenodd">
        <g id="Avaleht_md" transform="translate(-844.000000, -634.000000)">
            <g id="Group-10" transform="translate(320.000000, 558.000000)">
                <g id="Group-13" transform="translate(0.000000, 76.000000)">
                    <g id="Group-9" transform="translate(524.000000, 0.000000)">
                        <polygon id="Fill-59" fill="#CECECA" points="34.4482759 43.7209302 38.1724138 43.7209302 38.1724138 31.627907 34.4482759 31.627907"></polygon>
                        <polygon id="Fill-60" fill="#CECECA" points="34.4482759 80 38.1724138 80 38.1724138 43.7209302 34.4482759 43.7209302"></polygon>
                        <polyline id="Fill-61" fill="#CECECA" points="20.4827586 80 30.2215294 43.7209302 33.5172414 44.6653246 24.0804807 80 20.4827586 80"></polyline>
                        <polyline id="Fill-62" fill="#CECECA" points="51.2068966 80 41.467325 43.7209302 38.1724138 44.6653246 47.6068815 80 51.2068966 80"></polyline>
                        <path d="M40.0344828,43.721213 C40.0344828,45.7763632 38.3675497,47.4418605 36.3106278,47.4418605 C34.253706,47.4418605 32.5862069,45.7763632 32.5862069,43.721213 C32.5862069,41.6660628 34.253706,40 36.3106278,40 C38.3675497,40 40.0344828,41.6660628 40.0344828,43.721213" id="Fill-63" fill="#E0584B"></path>
                        <polygon id="Fill-64" fill="#E0584B" points="29.7931034 45.5813953 41.8965517 45.5813953 41.8965517 41.8604651 29.7931034 41.8604651"></polygon>
                        <polyline id="Fill-65" fill="#9FD6E4" points="33.4431005 34.4186047 40.9655172 13.6143222 11.2465547 2.79069767 3.72413793 23.5944338 33.4431005 34.4186047"></polyline>
                        <polyline id="Fill-66" fill="#7ECAD1" points="54.7640152 40.9302326 61.4482759 22.3299857 41.1314654 14.8837209 34.4482759 33.4839678 54.7640152 40.9302326"></polyline>
                        <polyline id="Fill-67" fill="#E15A75" points="77.3995857 42.7906977 80.0689655 35.4109754 59.46194 27.9069767 56.7931034 35.2866991 77.3995857 42.7906977"></polyline>
                        <path d="M8.52458556,0 L9.74590141,0.462670176 C10.8660959,0.88705795 11.4492467,2.1903003 11.0431893,3.35900735 L3.99665265,23.6273518 C3.59007131,24.7960589 2.34151032,25.4052959 1.2218398,24.9814551 L0,24.5187849 L8.52458556,0" id="Fill-68" fill="#10242F"></path>
                        <path d="M80.2679686,33.5759317 C80.8128067,33.7895991 81.1222462,34.372779 80.9542502,34.8728048 L77.8654724,44.0516927 C77.6974764,44.5511678 77.1128094,44.7857614 76.5674606,44.572094 L76.3448276,44.4845344 L80.0453356,33.4883721 L80.2679686,33.5759317" id="Fill-69" fill="#10242F"></path>
                        <polyline id="Fill-70" fill="#D7EEF3" points="39.1994139 16.744186 40.0344828 14.51282 12.0074827 4.65116279 11.1724138 6.88252879 39.1994139 16.744186"></polyline>
                        <polyline id="Fill-71" fill="#D7EEF3" points="59.676207 26.0465116 60.5172414 23.6805473 41.8060044 16.744186 40.9655172 19.1107093 59.676207 26.0465116"></polyline>
                        <path d="M4.25998671,12.0949496 L4.2610221,12.0916473 L8.37931034,0 C8.37931034,0 6.70714554,0.388579497 2.89585226,11.5654688 L2.89429917,11.5682208 L2.89326377,11.5715232 C-0.916994109,22.7489628 0.132379902,24.1860465 0.132379902,24.1860465 L4.25895131,12.0977016 L4.25998671,12.0949496" id="Fill-72" fill="#FFFFFE"></path>
                    </g>
                </g>
            </g>
        </g>
    </g>
</svg>