<?xml version="1.0" encoding="UTF-8"?>
<svg width="112px" height="205px" viewBox="0 0 112 205" version="1.1" xmlns="http://www.w3.org/2000/svg" xmlns:xlink="http://www.w3.org/1999/xlink">
    <!-- Generator: Sketch 49.1 (51147) - http://www.bohemiancoding.com/sketch -->
    <title>Group Copy 2</title>
    <desc>Created with Sketch.</desc>
    <defs></defs>
    <g id="Page-1" stroke="none" stroke-width="1" fill="none" fill-rule="evenodd">
        <g id="Avaleht_375px" transform="translate(-239.000000, -3850.000000)">
            <g id="Group-Copy-2" transform="translate(239.000000, 3850.000000)">
                <polyline id="Fill-441" fill="#FFFFFE" points="56 129 43.5704331 129 41 165 56 165 56 129"></polyline>
                <polyline id="Fill-442" fill="#FFFFFE" points="57 129 69.4295669 129 72 165 57 165 57 129"></polyline>
                <path d="M58,147.000563 C58,150.865386 54.8662594,154 50.9988748,154 C47.1337406,154 44,150.865386 44,147.000563 C44,143.133489 47.1337406,140 50.9988748,140 C54.8662594,140 58,143.133489 58,147.000563" id="Fill-443" fill="#FFFFFE"></path>
                <path d="M67,151.000563 C67,154.866511 63.8662594,158 60,158 C56.1348658,158 53,154.866511 53,151.000563 C53,147.135739 56.1348658,144 60,144 C63.8662594,144 67,147.135739 67,151.000563" id="Fill-444" fill="#FFFFFE"></path>
                <path d="M58,157.999437 C58,161.864261 54.8662594,165 50.9988748,165 C47.1337406,165 44,161.864261 44,157.999437 C44,154.133489 47.1337406,151 50.9988748,151 C54.8662594,151 58,154.133489 58,157.999437" id="Fill-445" fill="#FFFFFE"></path>
                <path d="M57,166.000563 C57,169.865386 53.8665113,173 49.9994374,173 C46.1334887,173 43,169.865386 43,166.000563 C43,162.133489 46.1334887,159 49.9994374,159 C53.8665113,159 57,162.133489 57,166.000563" id="Fill-446" fill="#FFFFFE"></path>
                <path d="M69,166.000563 C69,169.865386 65.8651342,173 62,173 C58.1337406,173 55,169.865386 55,166.000563 C55,162.133489 58.1337406,159 62,159 C65.8651342,159 69,162.133489 69,166.000563" id="Fill-447" fill="#FFFFFE"></path>
                <path d="M68,158.998875 C68,162.866259 64.8662594,166 61.0011252,166 C57.1348658,166 54,162.866259 54,158.998875 C54,155.133741 57.1348658,152 61.0011252,152 C64.8662594,152 68,155.133741 68,158.998875" id="Fill-448" fill="#FFFFFE"></path>
                <path d="M68,173 C68,176.866259 64.8662594,180 61.0011252,180 C57.1348658,180 54,176.866259 54,173 C54,169.133741 57.1348658,166 61.0011252,166 C64.8662594,166 68,169.133741 68,173" id="Fill-449" fill="#FFFFFE"></path>
                <path d="M75,166.000563 C75,169.865386 71.8651342,173 67.9988748,173 C64.1337406,173 61,169.865386 61,166.000563 C61,162.133489 64.1337406,159 67.9988748,159 C71.8651342,159 75,162.133489 75,166.000563" id="Fill-450" fill="#FFFFFE"></path>
                <path d="M49,165.001125 C49,168.866259 45.8662594,172 42.0011252,172 C38.1337406,172 35,168.866259 35,165.001125 C35,161.133741 38.1337406,158 42.0011252,158 C45.8662594,158 49,161.133741 49,165.001125" id="Fill-451" fill="#FFFFFE"></path>
                <path d="M49,175.999437 C49,179.865386 45.8662594,183 42,183 C38.1337406,183 35,179.865386 35,175.999437 C35,172.133489 38.1337406,169 42,169 C45.8662594,169 49,172.133489 49,175.999437" id="Fill-452" fill="#FFFFFE"></path>
                <path d="M43,185.5 C43,188.537297 40.5370535,191 37.4994558,191 C34.4618581,191 32,188.537297 32,185.5 C32,182.462703 34.4618581,180 37.4994558,180 C40.5370535,180 43,182.462703 43,185.5" id="Fill-453" fill="#FFFFFE"></path>
                <path d="M58,177 C58,180.865134 54.8662594,184 50.9988748,184 C47.1337406,184 44,180.865134 44,177 C44,173.133741 47.1337406,170 50.9988748,170 C54.8662594,170 58,173.133741 58,177" id="Fill-454" fill="#FFFFFE"></path>
                <path d="M61,192.5 C61,199.403121 55.4042621,205 48.5,205 C41.5968787,205 36,199.403121 36,192.5 C36,185.596879 41.5968787,180 48.5,180 C55.4042621,180 61,185.596879 61,192.5" id="Fill-455" fill="#FFFFFE"></path>
                <path d="M83,184 C83,191.732757 76.73073,198 68.9994293,198 C61.2681286,198 55,191.732757 55,184 C55,176.268384 61.2681286,170 68.9994293,170 C76.73073,170 83,176.268384 83,184" id="Fill-456" fill="#FFFFFE"></path>
                <path d="M62,135.331877 C62,138.829202 59.3134166,150 56,150 C52.6876697,150 50,138.829202 50,135.331877 C50,131.835699 52.6876697,129 56,129 C59.3134166,129 62,131.835699 62,135.331877" id="Fill-457" fill="#FADC47"></path>
                <path d="M61,133.221187 C61,135.553977 59.2087247,143 56.9994853,143 C54.7902458,143 53,135.553977 53,133.221187 C53,130.889484 54.7902458,129 56.9994853,129 C59.2087247,129 61,130.889484 61,133.221187" id="Fill-458" fill="#E8814E"></path>
                <polyline id="Fill-459" fill="#CE3642" points="102.611774 118 73 118 73 78 109 97.2961145 102.611774 118"></polyline>
                <polyline id="Fill-460" fill="#CE3642" points="9.3872972 118 39 118 39 78 3 97.2961145 9.3872972 118"></polyline>
                <polygon id="Fill-461" fill="#FFFFFE" points="35 123 79 123 79 30 35 30"></polygon>
                <path d="M57,0 C57,0 35,6.80855831 35,30 C49.698523,30 57,30 57,30 C57,30 64.3026013,30 79,30 C79,6.80855831 57,0 57,0" id="Fill-462" fill="#DE4D52"></path>
                <polygon id="Fill-463" fill="#10242F" points="37 131 74 131 74 123 37 123"></polygon>
                <polygon id="Fill-464" fill="#EEEEEA" points="0 120 12 120 12 94 0 94"></polygon>
                <path d="M5.99946452,84 C5.99946452,84 0,85.8153365 0,92 C4.0085676,92 5.99946452,92 5.99946452,92 C5.99946452,92 7.9914324,92 12,92 C12,85.8153365 5.99946452,84 5.99946452,84" id="Fill-465" fill="#DE4D52"></path>
                <polygon id="Fill-466" fill="#10242F" points="1 124 12 124 12 121 1 121"></polygon>
                <polygon id="Fill-467" fill="#EEEEEA" points="100 120 112 120 112 94 100 94"></polygon>
                <path d="M106.000535,84 C106.000535,84 100,85.8153365 100,92 C104.008568,92 106.000535,92 106.000535,92 C106.000535,92 107.991432,92 112,92 C112,85.8153365 106.000535,84 106.000535,84" id="Fill-468" fill="#DE4D52"></path>
                <polygon id="Fill-469" fill="#10242F" points="100 124 111 124 111 121 100 121"></polygon>
                <path d="M69,52.0005595 C69,59.1795722 63.1798227,65 56,65 C48.8201773,65 43,59.1795722 43,52.0005595 C43,44.8204278 48.8201773,39 56,39 C63.1798227,39 69,44.8204278 69,52.0005595" id="Fill-470" fill="#DE4D52"></path>
                <path d="M67,51 C67,57.0756751 62.2992621,62 56.4994505,62 C50.7007379,62 46,57.0756751 46,51 C46,44.9243249 50.7007379,40 56.4994505,40 C62.2992621,40 67,44.9243249 67,51" id="Fill-471" fill="#BDDFEC"></path>
                <path d="M57,47 C57,48.6579991 55.6582948,50 54.0006609,50 C52.344349,50 51,48.6579991 51,47 C51,45.343323 52.344349,44 54.0006609,44 C55.6582948,44 57,45.343323 57,47" id="Fill-472" fill="#FFFFFE"></path>
                <path d="M99.9366029,117 L79,117 L79,80 L100,91.4129849 C99.9588475,91.7729286 99.9366029,92.1483776 99.9366029,92.5393319 L99.9366029,117" id="Fill-473" fill="#B7313C"></path>
                <path d="M79,123 L57,123 L57,64.4078933 C64.2137783,64.4078933 70.0614811,58.54857 70.0614811,51.321583 C70.0614811,44.0934695 64.2137783,38.2341462 57,38.2341462 L57,30 C57,30 64.3026013,30 79,30 L79,123" id="Fill-474" fill="#E4E4DF"></path>
                <path d="M79,30 C64.3026013,30 57,30 57,30 L57,0 C57,0 79,6.80855831 79,30" id="Fill-475" fill="#D44348"></path>
                <polygon id="Fill-476" fill="#0F212A" points="57 131 75 131 75 123 57 123"></polygon>
                <path d="M112,120 L100,120 L100,94 C104.008568,94 106.000535,94 106.000535,94 C106.000535,94 107.991432,94 112,94 L112,120" id="Fill-477" fill="#D1D0CB"></path>
                <path d="M112,92 C107.991432,92 106.000535,92 106.000535,92 C106.000535,92 104.008568,92 100,92 C100,91.6317162 100.021419,91.2780386 100.061044,90.9389671 L100.063186,90.9400104 C100.695047,85.6056338 106.000535,84 106.000535,84 C106.000535,84 112,85.8153365 112,92" id="Fill-478" fill="#D44348"></path>
                <polygon id="Fill-479" fill="#0F212A" points="100 124 111 124 111 121 100 121"></polygon>
                <path d="M57,65 L57,62.6924203 C62.450977,62.6924203 66.8689851,57.9060388 66.8689851,52.0005595 C66.8689851,46.0950803 62.450977,41.3086988 57,41.3086988 L57,39 C63.6275286,39 69,44.8204278 69,52.0005595 C69,59.1795722 63.6275286,65 57,65" id="Fill-480" fill="#D44348"></path>
                <path d="M57,62 L57,40 C63.0756751,40 68,44.9243249 68,51 C68,57.0756751 63.0756751,62 57,62" id="Fill-481" fill="#A4C6D8"></path>
            </g>
        </g>
    </g>
</svg>