<?xml version="1.0" encoding="UTF-8"?>
<svg width="975px" height="498px" viewBox="0 0 975 498" version="1.1" xmlns="http://www.w3.org/2000/svg" xmlns:xlink="http://www.w3.org/1999/xlink">
    <!-- Generator: Sketch 49.1 (51147) - http://www.bohemiancoding.com/sketch -->
    <title>Group 7</title>
    <desc>Created with Sketch.</desc>
    <defs></defs>
    <g id="Page-1" stroke="none" stroke-width="1" fill="none" fill-rule="evenodd">
        <g id="Avaleht_1025px" transform="translate(-25.000000, -642.000000)">
            <g id="Group-7" transform="translate(25.000000, 642.000000)">
                <path d="M247.431738,158 L33.2812319,158 C33.0979572,156.270422 33,154.521873 33,152.738542 C33,125.539586 55.0372038,103.488258 82.221899,103.488258 C86.7437285,103.488258 91.1233621,104.111159 95.281802,105.255779 C107.390572,75.7675825 136.357456,55 170.18744,55 C200.712158,55 227.277511,71.913185 241.073673,96.87033 C244.328379,96.1936761 247.696842,95.8332157 251.150622,95.8332157 C256.770029,95.8332157 262.168762,96.7777476 267.198018,98.514416 C280.996128,83.6685378 300.695055,74.380046 322.563894,74.380046 C329.505663,74.380046 336.229137,75.3355641 342.613042,77.0913891 C361.202041,31.8570683 405.67108,0 457.605794,0 C504.466372,0 545.248657,25.9444973 566.428086,64.2282732 C571.424607,63.1902993 576.595764,62.6373599 581.897897,62.6373599 C596.164663,62.6373599 609.50489,66.6000921 620.885316,73.4681811 C634.492347,60.7602763 652.756329,52.975472 672.839434,52.975472 C714.902381,52.975472 749,87.0636992 749,129.121044 C749,139.345572 746.972286,149.094766 743.314638,158 L247.431738,158 Z" id="Combined-Shape-Copy-6" fill="#DFEAEC" transform="translate(391.000000, 79.000000) scale(-1, 1) translate(-391.000000, -79.000000) "></path>
                <path d="M427.431738,498 L213.281232,498 C213.097957,496.270422 213,494.521873 213,492.738542 C213,465.539586 235.037204,443.488258 262.221899,443.488258 C266.743728,443.488258 271.123362,444.111159 275.281802,445.255779 C287.390572,415.767583 316.357456,395 350.18744,395 C380.712158,395 407.277511,411.913185 421.073673,436.87033 C424.328379,436.193676 427.696842,435.833216 431.150622,435.833216 C436.770029,435.833216 442.168762,436.777748 447.198018,438.514416 C460.996128,423.668538 480.695055,414.380046 502.563894,414.380046 C509.505663,414.380046 516.229137,415.335564 522.613042,417.091389 C541.202041,371.857068 585.67108,340 637.605794,340 C684.466372,340 725.248657,365.944497 746.428086,404.228273 C751.424607,403.190299 756.595764,402.63736 761.897897,402.63736 C776.164663,402.63736 789.50489,406.600092 800.885316,413.468181 C814.492347,400.760276 832.756329,392.975472 852.839434,392.975472 C894.902381,392.975472 929,427.063699 929,469.121044 C929,479.345572 926.972286,489.094766 923.314638,498 L427.431738,498 Z" id="Combined-Shape-Copy-7" fill="#DFEAEC" transform="translate(571.000000, 419.000000) scale(1, -1) translate(-571.000000, -419.000000) "></path>
                <path d="M205.267471,163 L72.1745874,163 C72.0608113,161.925311 72,160.838833 72,159.730744 C72,142.830422 85.6805883,129.128626 102.556714,129.128626 C105.363844,129.128626 108.082699,129.515672 110.664238,130.226892 C118.181303,111.904129 136.163803,99 157.165291,99 C176.114887,99 192.606529,109.509163 201.171118,125.016516 C203.191624,124.596071 205.282749,124.372095 207.426839,124.372095 C210.967523,124.372095 214.367085,124.976679 217.52894,126.08684 C226.076412,116.888566 238.273625,111.134459 251.813488,111.134459 C256.114066,111.134459 260.279406,111.727122 264.234374,112.816178 C275.750667,84.7594474 303.300211,65 335.474904,65 C364.506059,65 389.771578,81.0921566 402.892698,104.83779 C405.988153,104.193983 409.191798,103.851021 412.476586,103.851021 C421.31516,103.851021 429.579722,106.308918 436.630146,110.568872 C445.06,102.686754 456.374937,97.8582041 468.816861,97.8582041 C494.875778,97.8582041 516,119.001535 516,145.087736 C516,151.429532 514.743786,157.4765 512.477794,163 L205.267471,163 Z" id="Combined-Shape-Copy-4" fill="#BEE3E8" transform="translate(294.000000, 114.000000) scale(-1, 1) translate(-294.000000, -114.000000) "></path>
                <path d="M592.267471,438 L459.174587,438 C459.060811,436.925311 459,435.838833 459,434.730744 C459,417.830422 472.680588,404.128626 489.556714,404.128626 C492.363844,404.128626 495.082699,404.515672 497.664238,405.226892 C505.181303,386.904129 523.163803,374 544.165291,374 C563.114887,374 579.606529,384.509163 588.171118,400.016516 C590.191624,399.596071 592.282749,399.372095 594.426839,399.372095 C597.967523,399.372095 601.367085,399.976679 604.52894,401.08684 C613.076412,391.888566 625.273625,386.134459 638.813488,386.134459 C643.114066,386.134459 647.279406,386.727122 651.234374,387.816178 C662.750667,359.759447 690.300211,340 722.474904,340 C751.506059,340 776.771578,356.092157 789.892698,379.83779 C792.988153,379.193983 796.191798,378.851021 799.476586,378.851021 C808.31516,378.851021 816.579722,381.308918 823.630146,385.568872 C832.06,377.686754 843.374937,372.858204 855.816861,372.858204 C881.875778,372.858204 903,394.001535 903,420.087736 C903,426.429532 901.743786,432.4765 899.477794,438 L592.267471,438 Z" id="Combined-Shape-Copy-5" fill="#BEE3E8" transform="translate(681.000000, 389.000000) scale(1, -1) translate(-681.000000, -389.000000) "></path>
                <rect id="Rectangle-2-Copy" fill="#BEE3E8" x="0" y="158" width="975" height="183" rx="4"></rect>
            </g>
        </g>
    </g>
</svg>