<?xml version="1.0" encoding="UTF-8"?>
<svg width="100px" height="100px" viewBox="0 0 100 100" version="1.1" xmlns="http://www.w3.org/2000/svg" xmlns:xlink="http://www.w3.org/1999/xlink">
    <!-- Generator: Sketch 49.1 (51147) - http://www.bohemiancoding.com/sketch -->
    <title>Group 14</title>
    <desc>Created with Sketch.</desc>
    <defs></defs>
    <g id="Page-1" stroke="none" stroke-width="1" fill="none" fill-rule="evenodd">
        <g id="Avaleht_700px" transform="translate(-170.000000, -625.000000)">
            <g id="Group" transform="translate(120.000000, 625.000000)">
                <g id="Group-14" transform="translate(50.000000, 0.000000)">
                    <circle id="Oval-9-Copy-4" fill="#FFFFFF" opacity="0.6" cx="50" cy="50" r="50"></circle>
                    <g id="Group-6-Copy" transform="translate(8.000000, 23.000000)">
                        <polyline id="Fill-551" fill="#CE5231" points="68.8364945 22.2833333 68.4083255 18.2821429 77.7483568 17.2797619 78.1765258 21.2797619 68.8364945 22.2833333"></polyline>
                        <polyline id="Fill-552" fill="#464644" points="80.1853521 20.1916667 80.1401565 19.7738095 79.5062285 19.5845238 80.0878247 19.277381 80.0343036 18.7857143 79.6584664 18.6559524 79.9974335 18.4392857 79.9486698 17.9821429 80.5171831 18.1142857 81.021471 18.225 81.0309859 18.2238095 81.1546792 18.3392857 81.2890767 19.5916667 81.193928 19.725 81.1844131 19.725 80.7098592 19.95 80.1853521 20.1916667"></polyline>
                        <polyline id="Fill-553" fill="#F0E1BD" points="78.1765258 21.2821429 77.7483568 17.2797619 80.5445383 18.0940476 80.5171831 18.1142857 79.9974335 18.4392857 79.6584664 18.6559524 80.0343036 18.7857143 80.6408764 18.9904762 80.0878247 19.277381 79.5062285 19.5845238 80.1401565 19.7738095 80.7098592 19.95 80.7431612 19.9583333 78.1765258 21.2821429"></polyline>
                        <path d="M79.1018466,9.46547619 C78.8627856,8.99047619 79.0590297,8.40714286 79.5323944,8.16666667 C80.0164632,7.92380952 80.593302,8.12142857 80.8311737,8.59642857 C81.0726135,9.08214286 80.8846948,9.65238095 80.4018153,9.89642857 C79.9248826,10.1357143 79.3444757,9.94880952 79.1018466,9.46547619 M80.8157121,6.21547619 L48.2332394,22.5821429 L51.3564945,28.8107143 L83.9389671,12.4440476 L80.8157121,6.21547619" id="Fill-554" fill="#EFC651"></path>
                        <polyline id="Fill-555" fill="#917A32" points="81.7553052 13.5392857 80.6836933 11.4035714 81.4258529 11.0309524 82.4962754 13.1690476 81.7553052 13.5392857"></polyline>
                        <polyline id="Fill-556" fill="#917A32" points="80.3756495 14.2333333 79.5288263 12.547619 80.11518 12.2559524 80.9572457 13.9392857 80.3756495 14.2333333"></polyline>
                        <polyline id="Fill-557" fill="#917A32" points="78.9174961 14.9654762 78.0706729 13.2809524 78.6546479 12.9869048 79.501471 14.672619 78.9174961 14.9654762"></polyline>
                        <polyline id="Fill-558" fill="#2C6D61" points="77.456964 15.7011905 77.456964 15.7 77.6282316 15.6142857 77.456964 15.7011905"></polyline>
                        <polyline id="Fill-559" fill="#917A32" points="77.456964 15.7 76.6113302 14.0130952 77.1964945 13.7202381 78.0421283 15.4047619 77.6282316 15.6142857 77.456964 15.7"></polyline>
                        <polyline id="Fill-560" fill="#2C6D61" points="76.633928 16.1142857 76.6600939 16.1 76.633928 16.1142857"></polyline>
                        <polyline id="Fill-561" fill="#917A32" points="75.9191236 16.4714286 74.8487011 14.3345238 75.5896714 13.9630952 76.6600939 16.1 76.633928 16.1142857 75.9191236 16.4714286"></polyline>
                        <polyline id="Fill-562" fill="#917A32" points="74.5394679 17.1654762 73.6926448 15.4797619 74.2778091 15.1869048 75.1234429 16.8714286 74.5394679 17.1654762"></polyline>
                        <polyline id="Fill-563" fill="#917A32" points="73.291831 17.7916667 73.291831 16.8607143 73.6652895 17.6047619 73.291831 17.7916667"></polyline>
                        <polyline id="Fill-564" fill="#917A32" points="70.3969327 19.2452381 70.3969327 18.1809524 70.4016901 18.1904762 70.4016901 19.2428571 70.3969327 19.2452381"></polyline>
                        <path d="M1.99336463,14.575 L4.09377152,14.9797619 C3.89158059,16.8714286 3.20532081,19.127381 1.92200313,19.0059524 C0.00237871674,18.7535714 -0.382973396,14.15 0.385352113,12.4392857 C1.09302034,10.8321429 2.57020344,10.1440476 3.84162754,9.89166667 C4.88231612,9.65714286 5.80406886,9.52619048 6.44037559,9.95119048 L6.48081377,9.97261905 C7.00532081,10.3369048 7.33953052,11.075 7.42992175,12.4392857 L16.607011,16.0511905 L16.607011,16.4869048 L3.49909233,11.6821429 L3.245759,11.5904762 C2.48813772,11.4797619 1.60920188,12.9666667 1.99336463,14.575" id="Fill-565" fill="#C7C6C1"></path>
                        <path d="M16.607011,14.6761905 L16.607011,16.0511905 L7.42992175,12.4392857 C7.33953052,11.075 7.00532081,10.3369048 6.48081377,9.97261905 L16.607011,14.6761905" id="Fill-566" fill="#F4F4F1"></path>
                        <path d="M16.607011,16.4869048 L16.607011,21.0488095 L1.92200313,19.0059524 C3.20532081,19.127381 3.89158059,16.8714286 4.09377152,14.9797619 C4.17583725,14.2095238 4.17583725,13.5035714 4.1056651,13.0357143 C3.98316119,12.2880952 3.76194053,11.8642857 3.49909233,11.6821429 L16.607011,16.4869048" id="Fill-567" fill="#E4E4DF"></path>
                        <path d="M4.09377152,14.9797619 L1.99336463,14.575 C1.60920188,12.9666667 2.48813772,11.4797619 3.245759,11.5904762 L3.49909233,11.6821429 C3.76194053,11.8642857 3.98316119,12.2880952 4.1056651,13.0357143 C4.17583725,13.5035714 4.17583725,14.2107143 4.09377152,14.9797619" id="Fill-568" fill="#ACADA9"></path>
                        <polyline id="Fill-569" fill="#EEA043" points="22.6287324 13.3261905 24.6661033 29.4535714 12.5179969 30.9904762 10.4818153 14.8619048 22.6287324 13.3261905"></polyline>
                        <polygon id="Fill-570" fill="#474250" points="16.371518 49.5369048 68.6461972 49.5369048 68.6461972 10.9345238 16.371518 10.9345238"></polygon>
                        <path d="M70.3969327,9.37619048 L70.3969327,35.8130952 C64.3050391,37.9488095 54.0551487,39.347619 42.4267919,39.347619 C30.954241,39.347619 20.8173396,37.9869048 14.6992801,35.8964286 L14.6992801,9.37619048 L70.3969327,9.37619048" id="Fill-571" fill="#60566C"></path>
                        <path d="M53.1869171,7.175 L50.8438811,7.175 C50.8438811,4.54285714 48.6994679,2.4047619 46.0721753,2.4047619 L38.8646635,2.4047619 C36.2361815,2.4047619 34.0917684,4.54285714 34.0917684,7.175 L31.7511111,7.175 C31.7511111,5.21547619 32.5467919,3.44047619 33.8384351,2.15 C35.1312676,0.863095238 36.9057903,0.0678571429 38.8646635,0.0678571429 L46.0721753,0.0678571429 C50.0041941,0.0678571429 53.1869171,3.24761905 53.1869171,7.175" id="Fill-572" fill="#474250"></path>
                        <polygon id="Fill-573" fill="#EFC653" points="30.9554304 10.4488095 34.8279812 10.4488095 34.8279812 7.175 30.9554304 7.175"></polygon>
                        <polygon id="Fill-574" fill="#EFC653" points="50.1885446 10.4488095 54.0622848 10.4488095 54.0622848 7.175 50.1885446 7.175"></polygon>
                        <polygon id="Fill-575" fill="#F1CB2B" points="38.7730829 44.0785714 46.3243192 44.0785714 46.3243192 34.6178571 38.7730829 34.6178571"></polygon>
                        <path d="M45.4489515,38.3761905 L45.4489515,38.422619 L39.6353678,38.422619 L39.6353678,38.3761905 C39.6353678,36.7666667 40.9400939,35.4619048 42.543349,35.4619048 C43.3509233,35.4619048 44.0788106,35.7916667 44.6056964,36.3166667 C45.1242567,36.8428571 45.4489515,37.5678571 45.4489515,38.3761905" id="Fill-576" fill="#E5AA2D"></path>
                        <polygon id="Fill-577" fill="#E5AA2D" points="39.6353678 40.9095238 45.4489515 40.9095238 45.4489515 39.5940476 39.6353678 39.5940476"></polygon>
                        <path d="M68.6878247,41.9833333 L68.6461972,41.9833333 L68.6461972,36.3869048 C68.6604695,36.3821429 68.6735524,36.3785714 68.6878247,36.375 L68.6878247,41.9833333" id="Fill-578" fill="#38848D"></path>
                        <path d="M68.6461972,41.9833333 L46.3243192,41.9833333 L46.3243192,39.2952381 C55.303975,39.0535714 63.2132081,37.9738095 68.6461972,36.3869048 L68.6461972,41.9833333 M38.7730829,41.9833333 L16.4131455,41.9833333 L16.4131455,36.4333333 C21.8853834,38.0059524 29.8041315,39.0714286 38.7730829,39.3011905 L38.7730829,41.9833333" id="Fill-579" fill="#38333A"></path>
                        <path d="M38.7730829,39.3011905 C29.8041315,39.0714286 21.8853834,38.0059524 16.4131455,36.4333333 L16.4131455,36.4285714 C21.8782473,37.997619 29.7981847,39.0666667 38.7730829,39.3 L38.7730829,39.3011905" id="Fill-580" fill="#4A414C"></path>
                        <path d="M46.3243192,41.9833333 L38.7730829,41.9833333 L38.7730829,39.3 C39.9862285,39.3309524 41.2184038,39.347619 42.4660407,39.347619 C43.7707668,39.347619 45.0588419,39.3297619 46.3243192,39.2952381 L46.3243192,41.9833333 Z M39.6353678,40.9095238 L45.4489515,40.9095238 L45.4489515,39.5940476 L39.6353678,39.5940476 L39.6353678,40.9095238 Z" id="Fill-581" fill="#BE9A34"></path>
                        <polygon id="Fill-582" fill="#B88232" points="39.6353678 40.9095238 45.4489515 40.9095238 45.4489515 39.5940476 39.6353678 39.5940476"></polygon>
                        <path d="M70.4016901,22.1166667 L70.4016901,22.1142857 L72.8589045,21.8511905 L70.4016901,22.1166667 M70.4016901,11.4464286 L70.4016901,11.4440476 L71.3293897,10.9797619 L70.4016901,11.4464286" id="Fill-583" fill="#306C6B"></path>
                        <polyline id="Fill-584" fill="#843525" points="70.4016901 22.1142857 70.4016901 19.2440476 71.6219718 18.6309524 71.6231612 18.6309524 71.7623161 18.5607143 73.291831 17.7928571 73.291831 21.8035714 72.8589045 21.8511905 70.4016901 22.1142857"></polyline>
                        <polyline id="Fill-585" fill="#987931" points="70.4016901 19.2440476 70.4016901 19.2428571 70.8239124 19.0309524 70.4016901 18.1904762 70.4016901 11.4464286 71.3293897 10.9797619 73.291831 9.99761905 73.291831 16.8607143 72.8196557 15.9178571 72.2344914 16.2119048 73.0789358 17.897619 73.291831 17.7916667 73.291831 17.7928571 71.7623161 18.5607143 72.2047574 18.3357143 71.360313 16.6511905 70.776338 16.9464286 71.6219718 18.6309524 70.4016901 19.2440476"></polyline>
                        <polyline id="Fill-586" fill="#5B4A25" points="73.0789358 17.897619 72.2344914 16.2119048 72.8196557 15.9178571 73.291831 16.8607143 73.291831 17.7916667 73.0789358 17.897619"></polyline>
                        <polyline id="Fill-587" fill="#4C2319" points="71.6231612 18.6309524 71.6219718 18.6309524 71.7623161 18.5607143 71.6231612 18.6309524"></polyline>
                        <polyline id="Fill-588" fill="#5B4A25" points="71.6219718 18.6309524 70.776338 16.9464286 71.360313 16.6511905 72.2047574 18.3357143 71.7623161 18.5607143 71.6219718 18.6309524"></polyline>
                        <polyline id="Fill-589" fill="#5B4A25" points="70.4016901 19.2428571 70.4016901 18.1904762 70.8239124 19.0309524 70.4016901 19.2428571"></polyline>
                        <path d="M13.6692958,30.8452381 L14.6992801,30.7142857 L14.6992801,30.7166667 L14.6909546,30.7178571 L14.6909546,30.7166667 L13.6692958,30.8452381 M12.1469171,28.0452381 L11.5391549,23.25 L11.5391549,23.2345238 L12.1469171,28.0452381" id="Fill-590" fill="#306C6B"></path>
                        <polyline id="Fill-591" fill="#817B6A" points="11.7413459 14.7035714 11.5391549 14.6285714 11.5391549 14.0571429 12.8307981 14.5654762 11.7413459 14.7035714"></polyline>
                        <polyline id="Fill-592" fill="#98927F" points="12.8307981 14.5654762 11.5391549 14.0571429 11.5391549 12.3333333 14.6992801 13.7988095 14.6992801 14.3285714 12.8307981 14.5654762"></polyline>
                        <polyline id="Fill-593" fill="#908A77" points="11.5391549 14.7285714 11.5391549 14.6285714 11.7413459 14.7035714 11.5391549 14.7285714"></polyline>
                        <polyline id="Fill-594" fill="#9A642E" points="12.5191862 30.9892857 11.5391549 23.2345238 11.5391549 14.7285714 11.7413459 14.7035714 12.8307981 14.5654762 14.6992801 14.3285714 14.6992801 30.7142857 13.6692958 30.8452381 12.9045383 30.9416667 12.5191862 30.9892857"></polyline>
                        <polyline id="Fill-595" fill="#3C3539" points="14.6992801 30.7166667 14.6992801 13.7988095 14.7028482 13.8011905 14.7028482 30.7166667 14.6992801 30.7166667"></polyline>
                        <path d="M1.96363067,19.0083333 C1.95411581,19.0083333 1.94460094,19.0071429 1.93508607,19.0071429 C1.93389671,19.0071429 1.93389671,19.0071429 1.93389671,19.0071429 C1.93032864,19.0059524 1.92557121,19.0059524 1.92200313,19.0059524 C1.74478873,18.9821429 1.57946792,18.9214286 1.42723005,18.8297619 C1.57827856,18.9202381 1.74122066,18.9797619 1.91605634,19.002381 L1.96363067,19.0083333 M0.85514867,11.6321429 C0.894397496,11.5809524 0.934835681,11.5297619 0.975273865,11.4809524 L1.00143975,11.4547619 C0.95029734,11.5130952 0.902723005,11.5714286 0.85514867,11.6321429" id="Fill-598" fill="#A1A2A1"></path>
                        <path d="M11.1680751,20.2916667 L1.92200313,19.0059524 C1.92557121,19.0059524 1.93032864,19.0059524 1.93389671,19.0071429 C1.93389671,19.0071429 1.93389671,19.0071429 1.93508607,19.0071429 C1.94460094,19.0071429 1.95411581,19.0083333 1.96363067,19.0083333 L11.1668858,20.2880952 L11.1680751,20.2916667" id="Fill-599" fill="#B7B7B6"></path>
                        <path d="M12.5179969,30.9904762 L12.9045383,30.9416667 L13.1816588,30.9071429 L12.5179969,30.9904762 M11.3286385,21.5630952 L11.1680751,20.2916667 L11.1668858,20.2880952 L11.1704538,20.2880952 L11.3286385,21.5630952" id="Fill-600" fill="#C28236"></path>
                        <path d="M16.3679499,36.4202381 C15.8779343,36.2785714 15.4081377,36.1333333 14.9585603,35.9845238 C15.4117058,36.1321429 15.8815023,36.2785714 16.3679499,36.4071429 L16.3679499,36.4202381" id="Fill-601" fill="#4D4658"></path>
                        <polyline id="Fill-602" fill="#265758" points="13.1816588 30.9071429 13.6692958 30.8452381 14.6909546 30.7166667 14.6909546 30.7178571 13.1816588 30.9071429"></polyline>
                        <polyline id="Fill-603" fill="#7B5128" points="12.9045383 30.9416667 13.6692958 30.8452381 13.1816588 30.9071429 12.9045383 30.9416667"></polyline>
                        <path d="M53.1785915,7.175 L50.8343662,7.175 C50.8319875,4.54642857 48.6923318,2.40595238 46.0650391,2.40595238 L38.8587167,2.40595238 C38.3615649,2.40595238 37.8810642,2.48333333 37.4302973,2.625 C37.8834429,2.48214286 38.365133,2.4047619 38.8646635,2.4047619 L46.0721753,2.4047619 C48.6994679,2.4047619 50.8438811,4.54285714 50.8438811,7.175 L53.1785915,7.175 M34.0893897,7.175 L31.7451643,7.175 C31.7463537,5.69642857 32.1994992,4.325 32.9773396,3.18928571 C32.2030673,4.32738095 31.7511111,5.69880952 31.7511111,7.175 L34.0893897,7.175 M37.4184038,2.6297619 C37.4207825,2.62857143 37.4219718,2.62857143 37.4231612,2.62738095 C37.4219718,2.62857143 37.4207825,2.62857143 37.4184038,2.6297619 M34.6174648,1.47738095 C35.1610016,1.06904762 35.7651956,0.739285714 36.4145853,0.502380952 C35.766385,0.74047619 35.1621909,1.07142857 34.6174648,1.47738095" id="Fill-604" fill="#368196"></path>
                        <path d="M53.1785915,7.175 L50.8438811,7.175 C50.8438811,4.54285714 48.6994679,2.4047619 46.0721753,2.4047619 L38.8646635,2.4047619 C38.365133,2.4047619 37.8834429,2.48214286 37.4302973,2.625 C37.4279186,2.62619048 37.4255399,2.62738095 37.4231612,2.62738095 C37.4219718,2.62857143 37.4207825,2.62857143 37.4184038,2.6297619 C35.4928326,3.24166667 34.0917684,5.04880952 34.0893897,7.175 L31.7511111,7.175 C31.7511111,5.69880952 32.2030673,4.32738095 32.9773396,3.18928571 C33.2306729,2.81904762 33.519687,2.47261905 33.8384351,2.15595238 C34.0810642,1.91190476 34.3415336,1.68452381 34.6174648,1.47738095 C35.1621909,1.07142857 35.766385,0.74047619 36.4145853,0.502380952 C37.1757746,0.223809524 37.9988106,0.0738095238 38.8587167,0.0738095238 L46.0650391,0.0738095238 C50.000626,0.0738095238 53.1750235,3.25 53.1785915,7.175" id="Fill-605" fill="#34303C"></path>
                        <path d="M34.0893897,7.18095238 L31.7451643,7.18095238 C31.7451643,7.1797619 31.7451643,7.17738095 31.7451643,7.175 L34.0893897,7.175 C34.0893897,7.17738095 34.0893897,7.1797619 34.0893897,7.18095238" id="Fill-606" fill="#AF913F"></path>
                        <path d="M53.1785915,7.18095238 L50.8343662,7.18095238 C50.8343662,7.1797619 50.8343662,7.17738095 50.8343662,7.175 L53.1785915,7.175 C53.1785915,7.17738095 53.1785915,7.1797619 53.1785915,7.18095238" id="Fill-607" fill="#AF913F"></path>
                    </g>
                </g>
            </g>
        </g>
    </g>
</svg>