<?xml version="1.0" encoding="UTF-8"?>
<svg width="375px" height="1397px" viewBox="0 0 375 1397" version="1.1" xmlns="http://www.w3.org/2000/svg" xmlns:xlink="http://www.w3.org/1999/xlink">
    <!-- Generator: Sketch 49.1 (51147) - http://www.bohemiancoding.com/sketch -->
    <title>Group 26</title>
    <desc>Created with Sketch.</desc>
    <defs>
        <rect id="path-1" x="0" y="0" width="375" height="1475"></rect>
        <linearGradient x1="50%" y1="-250.154523%" x2="50%" y2="100%" id="linearGradient-3">
            <stop stop-color="#15ADC2" offset="0%"></stop>
            <stop stop-color="#2E3374" offset="100%"></stop>
        </linearGradient>
    </defs>
    <g id="Page-1" stroke="none" stroke-width="1" fill="none" fill-rule="evenodd">
        <g id="Group-26" transform="translate(0.000000, -26.000000)">
            <mask id="mask-2" fill="white">
                <use xlink:href="#path-1"></use>
            </mask>
            <g id="Mask"></g>
            <g mask="url(#mask-2)">
                <g transform="translate(-448.000000, 23.000000)">
                    <rect id="Rectangle-27-Copy-6" fill="url(#linearGradient-3)" x="0" y="146" width="1025" height="1081"></rect>
                    <path d="M383.24253,0 L578.47646,0 L1125.72572,0 C1129.76224,9.80702993 1132,20.5434843 1132,31.8034075 C1132,78.1197237 1094.37036,115.659923 1047.95029,115.659923 C1025.78687,115.659923 1005.631,107.086784 990.614472,93.0920031 C978.055197,100.655595 963.333114,105.019616 947.588516,105.019616 C941.737157,105.019616 936.030343,104.410683 930.516254,103.267598 C907.14294,145.428212 862.136195,174 810.421534,174 C753.107128,174 704.031734,138.916899 683.517181,89.101888 C676.471996,91.035518 669.052066,92.0877974 661.39123,92.0877974 C630.266455,92.0877974 603.12456,75.0745887 588.797226,49.861764 C583.418763,52.3351823 577.435423,53.7169302 571.129894,53.7169302 C568.151405,53.7169302 565.246492,53.4054643 562.439681,52.8207828 C550.542074,74.3856946 527.632504,89 501.308434,89 C472.133953,89 447.153338,71.0551957 436.710912,45.5751036 C433.124734,46.5641443 429.347803,47.1023791 425.448243,47.1023791 C411.414173,47.1023791 398.970892,40.2742271 391.243019,29.7512667 C385.82394,48.6565918 368.48882,62.482947 347.94086,62.482947 C336.059024,62.482947 325.25344,57.8514812 317.203065,50.2910821 C310.470024,54.3771604 302.5775,56.7347352 294.136804,56.7347352 C290.999884,56.7347352 287.940455,56.4057713 284.984345,55.7882425 C272.453887,78.5646662 248.325722,94 220.601436,94 C189.875121,94 163.565749,75.0470606 152.567875,48.1355027 C148.790944,49.1801074 144.813111,49.7485802 140.706128,49.7485802 C116.015442,49.7485802 96,29.6240675 96,4.80171911 C96,3.17421335 96.0889703,1.57844973 96.2554308,0 L383.24253,0 Z" id="Combined-Shape-Copy-22" fill="#285489" transform="translate(614.000000, 87.000000) scale(-1, -1) translate(-614.000000, -87.000000) "></path>
                    <path d="M352.24253,1226 L547.47646,1226 L1094.72572,1226 C1098.76224,1235.80703 1101,1246.54348 1101,1257.80341 C1101,1304.11972 1063.37036,1341.65992 1016.95029,1341.65992 C994.786866,1341.65992 974.630996,1333.08678 959.614472,1319.092 C947.055197,1326.65559 932.333114,1331.01962 916.588516,1331.01962 C910.737157,1331.01962 905.030343,1330.41068 899.516254,1329.2676 C876.14294,1371.42821 831.136195,1400 779.421534,1400 C722.107128,1400 673.031734,1364.9169 652.517181,1315.10189 C645.471996,1317.03552 638.052066,1318.0878 630.39123,1318.0878 C599.266455,1318.0878 572.12456,1301.07459 557.797226,1275.86176 C552.418763,1278.33518 546.435423,1279.71693 540.129894,1279.71693 C537.151405,1279.71693 534.246492,1279.40546 531.439681,1278.82078 C519.542074,1300.38569 496.632504,1315 470.308434,1315 C441.133953,1315 416.153338,1297.0552 405.710912,1271.5751 C402.124734,1272.56414 398.347803,1273.10238 394.448243,1273.10238 C380.414173,1273.10238 367.970892,1266.27423 360.243019,1255.75127 C354.82394,1274.65659 337.48882,1288.48295 316.94086,1288.48295 C305.059024,1288.48295 294.25344,1283.85148 286.203065,1276.29108 C279.470024,1280.37716 271.5775,1282.73474 263.136804,1282.73474 C259.999884,1282.73474 256.940455,1282.40577 253.984345,1281.78824 C241.453887,1304.56467 217.325722,1320 189.601436,1320 C158.875121,1320 132.565749,1301.04706 121.567875,1274.1355 C117.790944,1275.18011 113.813111,1275.74858 109.706128,1275.74858 C85.015442,1275.74858 65,1255.62407 65,1230.80172 C65,1229.17421 65.0889703,1227.57845 65.2554308,1226 L352.24253,1226 Z" id="Combined-Shape-Copy-23" fill="#2E3374"></path>
                    <g id="Group-3-Copy-11" stroke-width="1" fill="none" transform="translate(728.000000, 175.500000) scale(-1, 1) rotate(-270.000000) translate(-728.000000, -175.500000) translate(699.500000, 117.500000)">
                        <path d="M11,39.4996532 C7.96286255,39.4996532 5.5,37.0376395 5.5,34 C5.5,37.0376395 3.03783102,39.4996532 0,39.4996532 C3.03783102,39.4996532 5.5,41.9623605 5.5,45 C5.5,41.9623605 7.96286255,39.4996532 11,39.4996532" id="Fill-49" fill="#FFFFFE"></path>
                        <path d="M57,40.0003368 C54.7911755,40.0003368 53,38.2096842 53,36 C53,38.2096842 51.2094981,40.0003368 49,40.0003368 C51.2094981,40.0003368 53,41.7909895 53,44 C53,41.7909895 54.7911755,40.0003368 57,40.0003368" id="Fill-50" fill="#FFFFFE"></path>
                        <path d="M19,108.500343 C15.13376,108.500343 11.99968,105.1424 11.99968,101 C11.99968,105.1424 8.8656,108.500343 5,108.500343 C8.8656,108.500343 11.99968,111.858286 11.99968,116 C11.99968,111.858286 15.13376,108.500343 19,108.500343" id="Fill-51" fill="#FFFFFE"></path>
                        <path d="M50,7.5 C45.8578792,7.5 42.5,4.14212077 42.5,0 C42.5,4.14212077 39.1421208,7.5 35,7.5 C39.1421208,7.5 42.5,10.8578792 42.5,15 C42.5,10.8578792 45.8578792,7.5 50,7.5" id="Fill-52" fill="#FFFFFE"></path>
                    </g>
                </g>
            </g>
        </g>
    </g>
</svg>