<?xml version="1.0" encoding="UTF-8"?>
<svg width="700px" height="754px" viewBox="0 0 700 754" version="1.1" xmlns="http://www.w3.org/2000/svg" xmlns:xlink="http://www.w3.org/1999/xlink">
    <!-- Generator: Sketch 49.1 (51147) - http://www.bohemiancoding.com/sketch -->
    <title>Group 9</title>
    <desc>Created with Sketch.</desc>
    <defs>
        <rect id="path-1" x="0" y="0" width="700" height="760"></rect>
    </defs>
    <g id="Page-1" stroke="none" stroke-width="1" fill="none" fill-rule="evenodd">
        <g id="Avaleht_700px" transform="translate(0.000000, -3448.000000)">
            <g id="Group-9" transform="translate(0.000000, 3447.000000)">
                <mask id="mask-2" fill="white">
                    <use xlink:href="#path-1"></use>
                </mask>
                <g id="Mask"></g>
                <g mask="url(#mask-2)">
                    <g transform="translate(-44.000000, 1.000000)">
                        <rect id="Rectangle-2-Copy-5" fill="#FFFFFF" x="44" y="157" width="700" height="514"></rect>
                        <path d="M156.625871,754 L42.150212,754 C42.052321,753.088316 42,752.166632 42,751.226615 C42,736.88968 53.7705459,725.266129 68.2904781,725.266129 C70.7056847,725.266129 73.0449415,725.594468 75.266054,726.197813 C81.7336095,710.654189 97.205447,699.707317 115.274771,699.707317 C131.578682,699.707317 145.76781,708.622484 153.136637,721.77773 C154.875046,721.421057 156.674215,721.231053 158.518953,721.231053 C161.470299,721.231053 164.30768,721.712446 166.955531,722.598858 C174.320275,714.575594 184.909332,709.543822 196.677039,709.543822 C200.377531,709.543822 203.961656,710.051819 207.364764,710.985295 C217.274118,686.936669 240.979506,670 268.664669,670 C293.64493,670 315.384998,683.793277 326.675248,704.146677 C329.338775,703.594843 332.095396,703.300875 334.921838,703.300875 C342.527112,703.300875 349.63847,705.407644 355.705104,709.059033 C362.958689,702.302932 372.694785,698.164175 383.400611,698.164175 C405.823369,698.164175 424,716.28703 424,738.646631 C424,744.082456 422.919074,749.265572 420.969269,754 L156.625871,754 Z" id="Combined-Shape-Copy-22" fill="#FFFFFE" transform="translate(233.000000, 712.000000) scale(1, -1) translate(-233.000000, -712.000000) "></path>
                        <path d="M534.625871,754 L420.150212,754 C420.052321,753.088316 420,752.166632 420,751.226615 C420,736.88968 431.770546,725.266129 446.290478,725.266129 C448.705685,725.266129 451.044942,725.594468 453.266054,726.197813 C459.733609,710.654189 475.205447,699.707317 493.274771,699.707317 C509.578682,699.707317 523.76781,708.622484 531.136637,721.77773 C532.875046,721.421057 534.674215,721.231053 536.518953,721.231053 C539.470299,721.231053 542.30768,721.712446 544.955531,722.598858 C552.320275,714.575594 562.909332,709.543822 574.677039,709.543822 C578.377531,709.543822 581.961656,710.051819 585.364764,710.985295 C595.274118,686.936669 618.979506,670 646.664669,670 C671.64493,670 693.384998,683.793277 704.675248,704.146677 C707.338775,703.594843 710.095396,703.300875 712.921838,703.300875 C720.527112,703.300875 727.63847,705.407644 733.705104,709.059033 C740.958689,702.302932 750.694785,698.164175 761.400611,698.164175 C783.823369,698.164175 802,716.28703 802,738.646631 C802,744.082456 800.919074,749.265572 798.969269,754 L534.625871,754 Z" id="Combined-Shape-Copy-25" fill="#FFFFFE" transform="translate(611.000000, 712.000000) scale(1, -1) translate(-611.000000, -712.000000) "></path>
                        <path d="M214.431738,158 L0.281231881,158 C0.0979571721,156.270422 0,154.521873 0,152.738542 C0,125.539586 22.0372038,103.488258 49.221899,103.488258 C53.7437285,103.488258 58.1233621,104.111159 62.281802,105.255779 C74.3905725,75.7675825 103.357456,55 137.18744,55 C167.712158,55 194.277511,71.913185 208.073673,96.87033 C211.328379,96.1936761 214.696842,95.8332157 218.150622,95.8332157 C223.770029,95.8332157 229.168762,96.7777476 234.198018,98.514416 C247.996128,83.6685378 267.695055,74.380046 289.563894,74.380046 C296.505663,74.380046 303.229137,75.3355641 309.613042,77.0913891 C328.202041,31.8570683 372.67108,0 424.605794,0 C471.466372,0 512.248657,25.9444973 533.428086,64.2282732 C538.424607,63.1902993 543.595764,62.6373599 548.897897,62.6373599 C563.164663,62.6373599 576.50489,66.6000921 587.885316,73.4681811 C601.492347,60.7602763 619.756329,52.975472 639.839434,52.975472 C681.902381,52.975472 716,87.0636992 716,129.121044 C716,139.345572 713.972286,149.094766 710.314638,158 L214.431738,158 Z" id="Combined-Shape-Copy-9" fill-opacity="0.5" fill="#FFFFFE" transform="translate(358.000000, 79.000000) scale(-1, 1) translate(-358.000000, -79.000000) "></path>
                        <path d="M148.625871,158 L34.150212,158 C34.052321,157.088316 34,156.166632 34,155.226615 C34,140.88968 45.7705459,129.266129 60.2904781,129.266129 C62.7056847,129.266129 65.0449415,129.594468 67.266054,130.197813 C73.7336095,114.654189 89.205447,103.707317 107.274771,103.707317 C123.578682,103.707317 137.76781,112.622484 145.136637,125.77773 C146.875046,125.421057 148.674215,125.231053 150.518953,125.231053 C153.470299,125.231053 156.30768,125.712446 158.955531,126.598858 C166.320275,118.575594 176.909332,113.543822 188.677039,113.543822 C192.377531,113.543822 195.961656,114.051819 199.364764,114.985295 C209.274118,90.9366692 232.979506,74 260.664669,74 C285.64493,74 307.384998,87.7932771 318.675248,108.146677 C321.338775,107.594843 324.095396,107.300875 326.921838,107.300875 C334.527112,107.300875 341.63847,109.407644 347.705104,113.059033 C354.958689,106.302932 364.694785,102.164175 375.400611,102.164175 C397.823369,102.164175 416,120.28703 416,142.646631 C416,148.082456 414.919074,153.265572 412.969269,158 L148.625871,158 Z" id="Combined-Shape-Copy-24" fill="#FFFFFE" transform="translate(225.000000, 116.000000) scale(-1, 1) translate(-225.000000, -116.000000) "></path>
                        <path d="M519.625871,189 L405.150212,189 C405.052321,188.088316 405,187.166632 405,186.226615 C405,171.88968 416.770546,160.266129 431.290478,160.266129 C433.705685,160.266129 436.044942,160.594468 438.266054,161.197813 C444.733609,145.654189 460.205447,134.707317 478.274771,134.707317 C494.578682,134.707317 508.76781,143.622484 516.136637,156.77773 C517.875046,156.421057 519.674215,156.231053 521.518953,156.231053 C524.470299,156.231053 527.30768,156.712446 529.955531,157.598858 C537.320275,149.575594 547.909332,144.543822 559.677039,144.543822 C563.377531,144.543822 566.961656,145.051819 570.364764,145.985295 C580.274118,121.936669 603.979506,105 631.664669,105 C656.64493,105 678.384998,118.793277 689.675248,139.146677 C692.338775,138.594843 695.095396,138.300875 697.921838,138.300875 C705.527112,138.300875 712.63847,140.407644 718.705104,144.059033 C725.958689,137.302932 735.694785,133.164175 746.400611,133.164175 C768.823369,133.164175 787,151.28703 787,173.646631 C787,179.082456 785.919074,184.265572 783.969269,189 L519.625871,189 Z" id="Combined-Shape-Copy-24" fill="#FFFFFE" transform="translate(596.000000, 147.000000) scale(-1, 1) translate(-596.000000, -147.000000) "></path>
                    </g>
                </g>
            </g>
        </g>
    </g>
</svg>