<?xml version="1.0" encoding="UTF-8"?>
<svg width="375px" height="467px" viewBox="0 0 375 467" version="1.1" xmlns="http://www.w3.org/2000/svg" xmlns:xlink="http://www.w3.org/1999/xlink">
    <!-- Generator: Sketch 49.1 (51147) - http://www.bohemiancoding.com/sketch -->
    <title>Group 24</title>
    <desc>Created with Sketch.</desc>
    <defs>
        <rect id="path-1" x="0" y="0" width="375" height="468"></rect>
        <linearGradient x1="50%" y1="-250.154523%" x2="50%" y2="100%" id="linearGradient-3">
            <stop stop-color="#15ADC2" offset="0%"></stop>
            <stop stop-color="#2E3374" offset="100%"></stop>
        </linearGradient>
    </defs>
    <g id="Page-1" stroke="none" stroke-width="1" fill="none" fill-rule="evenodd">
        <g id="Group-24">
            <mask id="mask-2" fill="white">
                <use xlink:href="#path-1"></use>
            </mask>
            <g id="Mask"></g>
            <g mask="url(#mask-2)">
                <g transform="translate(-377.000000, 0.000000)">
                    <rect id="Rectangle-27-Copy-6" fill="url(#linearGradient-3)" x="6" y="0" width="1025" height="331"></rect>
                    <path d="M287.24253,293 L482.47646,293 L1029.72572,293 C1033.76224,302.80703 1036,313.543484 1036,324.803408 C1036,371.119724 998.370357,408.659923 951.950292,408.659923 C929.786866,408.659923 909.630996,400.086784 894.614472,386.092003 C882.055197,393.655595 867.333114,398.019616 851.588516,398.019616 C845.737157,398.019616 840.030343,397.410683 834.516254,396.267598 C811.14294,438.428212 766.136195,467 714.421534,467 C657.107128,467 608.031734,431.916899 587.517181,382.101888 C580.471996,384.035518 573.052066,385.087797 565.39123,385.087797 C534.266455,385.087797 507.12456,368.074589 492.797226,342.861764 C487.418763,345.335182 481.435423,346.71693 475.129894,346.71693 C472.151405,346.71693 469.246492,346.405464 466.439681,345.820783 C454.542074,367.385695 431.632504,382 405.308434,382 C376.133953,382 351.153338,364.055196 340.710912,338.575104 C337.124734,339.564144 333.347803,340.102379 329.448243,340.102379 C315.414173,340.102379 302.970892,333.274227 295.243019,322.751267 C289.82394,341.656592 272.48882,355.482947 251.94086,355.482947 C240.059024,355.482947 229.25344,350.851481 221.203065,343.291082 C214.470024,347.37716 206.5775,349.734735 198.136804,349.734735 C194.999884,349.734735 191.940455,349.405771 188.984345,348.788243 C176.453887,371.564666 152.325722,387 124.601436,387 C93.8751208,387 67.5657493,368.047061 56.5678752,341.135503 C52.7909435,342.180107 48.8131112,342.74858 44.7061285,342.74858 C20.015442,342.74858 0,322.624068 0,297.801719 C0,296.174213 0.0889702756,294.57845 0.255430791,293 L287.24253,293 Z" id="Combined-Shape-Copy-22" fill="#2E3374"></path>
                    <path d="M804.816861,242.858204 C792.374937,242.858204 781.06,247.686754 772.630146,255.568872 C765.579722,251.308918 757.31516,248.851021 748.476586,248.851021 C745.191798,248.851021 741.988153,249.193983 738.892698,249.83779 C725.771578,226.092157 700.506059,210 671.474904,210 C639.300211,210 611.750667,229.759447 600.234374,257.816178 C596.279406,256.727122 592.114066,256.134459 587.813488,256.134459 C561.958931,256.134459 541,277.115334 541,302.993952 C541,304.690714 541.093164,306.354382 541.267471,308 L848.477794,308 C850.743786,302.4765 852,296.429532 852,290.087736 C852,264.001535 830.875778,242.858204 804.816861,242.858204" id="Fill-384-Copy-14" fill="#FFFFFE" opacity="0.2"></path>
                    <path d="M803.968575,373.806508 C791.566658,373.806508 780.288103,368.928688 771.885354,360.96614 C764.857601,365.269563 756.619613,367.75254 747.809458,367.75254 C744.535232,367.75254 741.341889,367.406078 738.256387,366.755702 C725.177457,390.743638 699.993178,407 671.055371,407 C638.984133,407 611.523173,387.038926 600.04391,358.695902 C596.101658,359.796071 591.949712,360.394781 587.662962,360.394781 C561.891539,360.394781 541,339.199816 541,313.05713 C541,311.343054 541.092865,309.66241 541.266611,308 L847.489119,308 C849.747826,313.579862 851,319.688534 851,326.095042 C851,352.447429 829.943701,373.806508 803.968575,373.806508 Z" id="Fill-384-Copy-15" fill="#FFFFFE" opacity="0.2"></path>
                    <g id="Group-3-Copy-11" stroke-width="1" fill="none" transform="translate(433.907445, 53.907445) rotate(151.000000) translate(-433.907445, -53.907445) translate(411.907445, 31.907445)">
                        <path d="M11.5942933,35.6015524 C8.55715582,35.6015524 6.09429327,33.1395386 6.09429327,30.1018991 C6.09429327,33.1395386 3.6321243,35.6015524 0.594293274,35.6015524 C3.6321243,35.6015524 6.09429327,38.0642596 6.09429327,41.1018991 C6.09429327,38.0642596 8.55715582,35.6015524 11.5942933,35.6015524" id="Fill-49" fill="#FFFFFE"></path>
                        <path d="M44,40.0003368 C41.7911755,40.0003368 40,38.2096842 40,36 C40,38.2096842 38.2094981,40.0003368 36,40.0003368 C38.2094981,40.0003368 40,41.7909895 40,44 C40,41.7909895 41.7911755,40.0003368 44,40.0003368" id="Fill-50" fill="#FFFFFE"></path>
                        <path d="M37,7.5 C32.8578792,7.5 29.5,4.14212077 29.5,0 C29.5,4.14212077 26.1421208,7.5 22,7.5 C26.1421208,7.5 29.5,10.8578792 29.5,15 C29.5,10.8578792 32.8578792,7.5 37,7.5" id="Fill-52" fill="#FFFFFE"></path>
                    </g>
                </g>
            </g>
        </g>
    </g>
</svg>