<?xml version="1.0" encoding="UTF-8"?>
<svg width="76px" height="80px" viewBox="0 0 76 80" version="1.1" xmlns="http://www.w3.org/2000/svg" xmlns:xlink="http://www.w3.org/1999/xlink">
    <!-- Generator: Sketch 49.1 (51147) - http://www.bohemiancoding.com/sketch -->
    <title>Group 12</title>
    <desc>Created with Sketch.</desc>
    <defs></defs>
    <g id="Page-1" stroke="none" stroke-width="1" fill="none" fill-rule="evenodd">
        <g id="Avaleht_md" transform="translate(-383.000000, -634.000000)">
            <g id="Group-10" transform="translate(320.000000, 558.000000)">
                <g id="Group-13" transform="translate(0.000000, 76.000000)">
                    <g id="Group-12" transform="translate(63.000000, 0.000000)">
                        <path d="M62.5257143,10.3148052 C56.1506494,3.93974026 47.3402597,0 37.6176623,0 C18.1631169,0 2.39376623,15.7693506 2.39376623,35.2238961 L2.39376623,72.9475325 C2.39376623,74.5932468 2.50909091,76.2046753 2.72311688,77.7838961 L5.21558442,77.7838961 C4.98493506,76.2046753 4.8612987,74.5932468 4.8612987,72.9475325 L4.8612987,35.2238961 C4.8612987,17.1584416 19.5615584,2.46753247 37.6176623,2.46753247 C55.6820779,2.46753247 70.372987,17.1584416 70.372987,35.2238961 L70.372987,72.9475325 C70.372987,74.5932468 70.2493506,76.2046753 70.0197403,77.7838961 L72.5122078,77.7838961 C72.7262338,76.2046753 72.8405195,74.5838961 72.8405195,72.9475325 L72.8405195,35.2238961 C72.8405195,25.4919481 68.9007792,16.6909091 62.5257143,10.3148052" id="Fill-774" fill="#62BCBC"></path>
                        <path d="M70.372987,71.574026 L4.8612987,71.574026 L4.8612987,59.3797403 L5.16987013,59.4337662 L5.42545455,58.0436364 L4.98493506,57.9646753 C5.0161039,57.5636364 5.0212987,57.1594805 4.98493506,56.7584416 L5.43272727,56.6794805 L5.39428571,56.4623377 L5.19480519,55.2862338 L4.8612987,55.3454545 L4.8612987,53.6374026 L5.67376623,53.6374026 C6.60051948,53.6374026 7.66441558,52.9433766 8.04051948,52.0945455 L8.4612987,51.1366234 L11.0431169,53.6374026 C10.9527273,53.8680519 10.8737662,54.1049351 10.8093506,54.3449351 L10.3625974,54.2618182 L10.107013,55.6561039 L10.5516883,55.7350649 C10.5184416,56.132987 10.5184416,56.5371429 10.5516883,56.9433766 L10.1038961,57.0161039 L10.3418182,58.4103896 L10.7885714,58.3376623 C10.8425974,58.5288312 10.9049351,58.7220779 10.9672727,58.9101299 C11.0368831,59.1002597 11.1127273,59.2851948 11.1958442,59.467013 L10.8020779,59.6924675 L11.4451948,60.8093506 L11.5044156,60.9225974 L11.8961039,60.6950649 C12.1246753,61.0296104 12.3885714,61.3412987 12.665974,61.6280519 L12.372987,61.972987 L13.4503896,62.8831169 L13.7475325,62.5402597 C14.0737662,62.7719481 14.4228571,62.9735065 14.7885714,63.1480519 L14.6306494,63.5719481 L15.9532468,64.0602597 L16.1101299,63.6322078 C16.4976623,63.7371429 16.8935065,63.8150649 17.2945455,63.8514286 L17.2945455,64.3044156 L18.7075325,64.3116883 L18.7075325,63.8576623 C19.1033766,63.8244156 19.5023377,63.758961 19.8971429,63.6561039 L20.0509091,64.0841558 L21.3797403,63.6062338 L21.2280519,63.1802597 C21.5958442,63.0067532 21.9490909,62.8051948 22.2742857,62.5787013 L22.5651948,62.9309091 L23.6509091,62.0249351 L23.36,61.6779221 C23.6509091,61.3953247 23.9064935,61.0825974 24.1402597,60.7563636 L24.532987,60.9901299 L25.2415584,59.7672727 L24.852987,59.5387013 C25.0202597,59.1792208 25.1677922,58.7958442 25.2675325,58.4083117 L25.7153247,58.4893506 L25.9709091,57.0992208 L25.5303896,57.0212987 C25.5615584,56.6181818 25.5657143,56.2171429 25.5303896,55.812987 L25.9781818,55.7350649 L25.9345455,55.5148052 L25.7361039,54.3428571 L25.2924675,54.4187013 C25.2384416,54.2223377 25.1771429,54.0301299 25.1127273,53.8420779 C25.041039,53.6550649 24.9672727,53.4701299 24.8851948,53.2831169 L25.2779221,53.0618182 L24.8612987,52.3251948 L24.5776623,51.8306494 L24.1838961,52.0561039 C23.9532468,51.7205195 23.6966234,51.414026 23.4161039,51.1251948 L23.7101299,50.7802597 L22.6285714,49.8711688 L22.3335065,50.2119481 C22.1485714,50.08 21.9532468,49.9594805 21.7548052,49.8451948 C21.6083117,49.7631169 21.4472727,49.681039 21.2966234,49.6093506 L21.4535065,49.1833766 L20.1288312,48.6898701 L19.974026,49.1179221 C19.5812987,49.0181818 19.1906494,48.9381818 18.7864935,48.9018182 L18.7885714,48.4509091 L17.3735065,48.4394805 L17.3735065,48.8955844 C16.9776623,48.9309091 16.5776623,48.9984416 16.1818182,49.1002597 L16.0311688,48.6742857 L14.6971429,49.1522078 L14.852987,49.5750649 C14.6358442,49.6758442 14.427013,49.785974 14.2254545,49.9054545 L10.5631169,46.3584416 L12.7875325,41.3007792 L14.4051948,37.627013 L14.4031169,37.627013 L15.9490909,37.627013 C17.3049351,39.1563636 19.252987,40.0758442 21.3714286,40.0758442 C21.5407792,40.0758442 21.7142857,40.0716883 21.8846753,40.0602597 C22.8020779,42.505974 25.0846753,44.1288312 27.6748052,44.1288312 C27.8711688,44.1288312 28.0727273,44.1184416 28.2763636,44.1007792 C28.3127273,44.2493506 28.3522078,44.3968831 28.401039,44.5433766 C29.3838961,47.6571429 32.1849351,49.7433766 35.3766234,49.7433766 C35.6592208,49.7433766 35.9438961,49.7277922 36.2275325,49.6893506 C36.6587013,49.6405195 37.0846753,49.547013 37.5002597,49.4150649 C37.6103896,49.3818182 37.7132468,49.3454545 37.8233766,49.307013 C38.7085714,48.9724675 39.5272727,48.4716883 40.2212987,47.8212987 C40.4727273,47.9251948 40.7231169,48.0249351 40.985974,48.1049351 C42.3553247,49.8742857 44.2088312,51.1864935 46.2607792,51.9012987 C46.4363636,51.9667532 46.612987,52.0218182 46.7844156,52.0685714 C47.7922078,52.3698701 48.8394805,52.5298701 49.9054545,52.5298701 C51.0244156,52.5298701 52.1381818,52.3542857 53.2155844,52.0176623 C56.0768831,51.1106494 58.4041558,49.121039 59.7683117,46.4124675 C60.878961,44.2150649 61.2467532,41.7558442 60.8488312,39.3412987 C61.5688312,38.7875325 62.0332468,37.9179221 62.0332468,36.9412987 C62.0332468,35.8420779 61.4462338,34.878961 60.5683117,34.3501299 C60.5745455,34.0820779 60.5693506,33.814026 60.5537662,33.545974 C60.9101299,34.5766234 61.7527273,35.3818182 62.8083117,35.6851948 L62.8083117,45.2332468 C61.758961,45.5916883 61.0057143,46.585974 61.0057143,47.7537662 C61.0057143,47.9812987 61.0337662,48.2025974 61.0877922,48.4135065 L49.9283117,55.3994805 C49.4950649,55.6748052 49.3620779,56.2493506 49.6353247,56.6825974 C49.8119481,56.9662338 50.1153247,57.1220779 50.425974,57.1220779 C50.5953247,57.1220779 50.7657143,57.0753247 50.9194805,56.9787013 L62.1537662,49.9449351 C62.5838961,50.2420779 63.1064935,50.4166234 63.6696104,50.4166234 C64.2961039,50.4166234 64.8727273,50.2005195 65.3267532,49.8379221 L70.372987,52.7532468 L70.372987,71.574026 M70.372987,50.6025974 L66.2867532,48.2441558 C66.3168831,48.0851948 66.3314286,47.921039 66.3314286,47.7537662 C66.3314286,46.638961 65.6457143,45.6820779 64.6722078,45.2862338 L64.6722078,35.6862338 C66.0820779,35.2820779 67.1137662,33.9833766 67.1137662,32.4446753 C67.1137662,32.1724675 67.0815584,31.9085714 67.0212987,31.6550649 L69.9511688,29.9636364 C70.2285714,31.6768831 70.372987,33.4337662 70.372987,35.2238961 L70.372987,50.6025974 M14.1350649,33.7444156 L13.76,33.7444156 L13.76,33.1677922 C13.8285714,33.172987 13.8971429,33.1750649 13.9677922,33.1750649 C14.001039,33.1750649 14.0353247,33.174026 14.0685714,33.172987 C14.0831169,33.3641558 14.1049351,33.5542857 14.1350649,33.7444156 M60.3781818,32.1953247 C60.3303896,31.9553247 60.2732468,31.7163636 60.2077922,31.4794805 L60.4685714,31.6301299 C60.4228571,31.812987 60.3927273,32.0020779 60.3781818,32.1953247 M66.48,29.787013 C66.5111688,29.6197403 66.5277922,29.4472727 66.5277922,29.2716883 C66.5277922,27.7298701 65.2768831,26.478961 63.7350649,26.478961 C62.1922078,26.478961 60.9423377,27.7298701 60.9423377,29.2716883 C60.9423377,29.4441558 60.9579221,29.6135065 60.9880519,29.7776623 L58.8290909,28.5319481 C57.6218182,26.7781818 55.867013,25.4503896 53.7911688,24.7719481 C53.7953247,24.7054545 53.7974026,24.638961 53.7974026,24.5724675 C53.7974026,23.3215584 53.1158442,22.2275325 52.1028571,21.6446753 C51.8732468,21.3579221 51.6238961,21.0898701 51.3558442,20.8436364 L51.3558442,12.9111688 C52.9215584,12.4987013 54.08,11.0722078 54.08,9.3787013 C54.08,9.04623377 54.0353247,8.72415584 53.9511688,8.41766234 L55.2831169,7.64883117 C62.4072727,12.2285714 67.6498701,19.492987 69.5709091,28.0020779 L66.48,29.787013 M59.0098701,19.2654545 C57.8825974,19.2654545 56.9693506,20.1787013 56.9693506,21.3049351 C56.9693506,22.4322078 57.8825974,23.3454545 59.0098701,23.3454545 C60.1361039,23.3454545 61.0503896,22.4322078 61.0503896,21.3049351 C61.0503896,20.1787013 60.1361039,19.2654545 59.0098701,19.2654545 M11.5397403,28.3262338 L6.72831169,28.3262338 L6.72831169,26.1516883 L6.13922078,26.1516883 L7.85142857,26.1516883 L7.85142857,21.5553247 C13.0161039,10.3553247 24.321039,2.54545455 37.4192208,2.46753247 C37.3766234,2.83012987 37.5490909,3.2 37.8867532,3.38909091 L46.8883117,8.4561039 C46.8114286,8.75116883 46.7709091,9.05974026 46.7709091,9.3787013 C46.7709091,11.0711688 47.9262338,12.4976623 49.4919481,12.9101299 L49.4919481,19.5916883 C48.5558442,19.1553247 47.52,18.9163636 46.4405195,18.9163636 C45.814026,18.9163636 45.1854545,18.9974026 44.5516883,19.1719481 C42.8509091,17.92 40.7605195,17.2581818 38.6576623,17.2581818 C37.6633766,17.2581818 36.6649351,17.4057143 35.7038961,17.7101299 C33.9293506,18.2722078 32.3667532,19.3038961 31.1646753,20.7075325 C30.0903896,20.2150649 28.9236364,19.9636364 27.7579221,19.9636364 C26.9485714,19.9636364 26.1402597,20.0841558 25.3641558,20.3314286 C25.0711688,20.4228571 24.7864935,20.5309091 24.5090909,20.6545455 C24.0581818,20.3231169 23.5012987,20.1267532 22.8987013,20.1267532 C21.3953247,20.1267532 20.1776623,21.3444156 20.1776623,22.8477922 C20.1776623,23.4005195 20.3428571,23.9148052 20.6264935,24.3438961 C20.4498701,24.6857143 20.2971429,25.041039 20.1683117,25.4098701 C19.7922078,25.4649351 19.4161039,25.5522078 19.0607792,25.6664935 C17.8005195,26.0633766 16.7002597,26.7864935 15.8483117,27.7641558 C15.3319481,27.3548052 14.6784416,27.1106494 13.9677922,27.1106494 C12.9745455,27.1106494 12.0924675,27.5885714 11.5397403,28.3262338 M47.8036364,6.83428571 L40.2275325,2.57038961 C44.9932468,2.94753247 49.4753247,4.34909091 53.4524675,6.55376623 L53.0171429,6.80519481 C52.3542857,6.13922078 51.4379221,5.72675325 50.425974,5.72675325 C49.3974026,5.72675325 48.4685714,6.15168831 47.8036364,6.83428571" id="Fill-775" fill="#B7DFE2"></path>
                        <path d="M5.67376623,53.6374026 L4.8612987,53.6374026 L4.8612987,41.3007792 L12.7875325,41.3007792 L10.5631169,46.3584416 L9.51896104,45.3475325 C9.04415584,44.8862338 8.43116883,44.6576623 7.81714286,44.6576623 C7.17818182,44.6576623 6.53818182,44.905974 6.05714286,45.4005195 C5.11792208,46.372987 5.1438961,47.9231169 6.11532468,48.8633766 L8.4612987,51.1366234 L8.04051948,52.0945455 C7.66441558,52.9433766 6.60051948,53.6374026 5.67376623,53.6374026" id="Fill-776" fill="#BDE2E4"></path>
                        <path d="M11.0431169,53.6374026 L6.11532468,48.8633766 C5.1438961,47.9231169 5.11792208,46.372987 6.05714286,45.4005195 C6.53818182,44.905974 7.17818182,44.6576623 7.81714286,44.6576623 C8.43116883,44.6576623 9.04415584,44.8862338 9.51896104,45.3475325 L14.2254545,49.9054545 C14.0831169,49.9896104 13.9438961,50.078961 13.8067532,50.1724675 L13.5158442,49.8254545 L12.4301299,50.7241558 L12.72,51.0732468 C12.4301299,51.36 12.1745455,51.6727273 11.9387013,51.9968831 L11.5501299,51.7651948 L10.8332468,52.985974 L11.2238961,53.2176623 C11.1594805,53.3537662 11.0992208,53.494026 11.0431169,53.6374026" id="Fill-777" fill="#BFE3E6"></path>
                        <path d="M5.16987013,59.4337662 L4.8612987,59.3797403 L4.8612987,55.3454545 L5.19480519,55.2862338 L5.39428571,56.4623377 L5.43272727,56.6794805 L4.98493506,56.7584416 C5.0212987,57.1594805 5.0161039,57.5636364 4.98493506,57.9646753 L5.42545455,58.0436364 L5.16987013,59.4337662" id="Fill-778" fill="#9BC1CA"></path>
                        <path d="M18.7075325,64.3116883 L17.2945455,64.3044156 L17.2945455,63.8514286 C16.8935065,63.8150649 16.4976623,63.7371429 16.1101299,63.6322078 L15.9532468,64.0602597 L14.6306494,63.5719481 L14.7885714,63.1480519 C14.4228571,62.9735065 14.0737662,62.7719481 13.7475325,62.5402597 L13.4503896,62.8831169 L12.372987,61.972987 L12.665974,61.6280519 C12.3885714,61.3412987 12.1246753,61.0296104 11.8961039,60.6950649 L11.5044156,60.9225974 L11.4451948,60.8093506 L10.8020779,59.6924675 L11.1958442,59.467013 C11.1127273,59.2851948 11.0368831,59.1002597 10.9672727,58.9101299 C10.9049351,58.7220779 10.8425974,58.5288312 10.7885714,58.3376623 L10.3418182,58.4103896 L10.1038961,57.0161039 L10.5516883,56.9433766 C10.5184416,56.5371429 10.5184416,56.132987 10.5516883,55.7350649 L10.107013,55.6561039 L10.3625974,54.2618182 L10.8093506,54.3449351 C10.8737662,54.1049351 10.9527273,53.8680519 11.0431169,53.6374026 C11.0992208,53.494026 11.1594805,53.3537662 11.2238961,53.2176623 L10.8332468,52.985974 L11.5501299,51.7651948 L11.9387013,51.9968831 C12.1745455,51.6727273 12.4301299,51.36 12.72,51.0732468 L12.4301299,50.7241558 L13.5158442,49.8254545 L13.8067532,50.1724675 C13.9438961,50.078961 14.0831169,49.9896104 14.2254545,49.9054545 C14.427013,49.785974 14.6358442,49.6758442 14.852987,49.5750649 L14.6971429,49.1522078 L16.0311688,48.6742857 L16.1818182,49.1002597 C16.5776623,48.9984416 16.9776623,48.9309091 17.3735065,48.8955844 L17.3735065,48.4394805 L18.7885714,48.4509091 L18.7864935,48.9018182 C19.1906494,48.9381818 19.5812987,49.0181818 19.974026,49.1179221 L20.1288312,48.6898701 L21.4535065,49.1833766 L21.2966234,49.6093506 C21.4472727,49.681039 21.6083117,49.7631169 21.7548052,49.8451948 C21.9532468,49.9594805 22.1485714,50.08 22.3335065,50.2119481 L22.6285714,49.8711688 L23.7101299,50.7802597 L23.4161039,51.1251948 C23.6966234,51.414026 23.9532468,51.7205195 24.1838961,52.0561039 L24.5776623,51.8306494 L24.8612987,52.3251948 L25.2779221,53.0618182 L24.8851948,53.2831169 C24.9672727,53.4701299 25.041039,53.6550649 25.1127273,53.8420779 C25.1771429,54.0301299 25.2384416,54.2223377 25.2924675,54.4187013 L25.7361039,54.3428571 L25.9345455,55.5148052 L25.9781818,55.7350649 L25.5303896,55.812987 C25.5657143,56.2171429 25.5615584,56.6181818 25.5303896,57.0212987 L25.9709091,57.0992208 L25.7153247,58.4893506 L25.2675325,58.4083117 C25.1677922,58.7958442 25.0202597,59.1792208 24.852987,59.5387013 L25.2415584,59.7672727 L24.532987,60.9901299 L24.1402597,60.7563636 C23.9064935,61.0825974 23.6509091,61.3953247 23.36,61.6779221 L23.6509091,62.0249351 L22.5651948,62.9309091 L22.2742857,62.5787013 C21.9490909,62.8051948 21.5958442,63.0067532 21.2280519,63.1802597 L21.3797403,63.6062338 L20.0509091,64.0841558 L19.8971429,63.6561039 C19.5023377,63.758961 19.1033766,63.8244156 18.7075325,63.8576623 L18.7075325,64.3116883 M18.0384416,52.427013 C15.8587013,52.427013 14.0924675,54.1942857 14.0924675,56.3771429 C14.0924675,58.5579221 15.8587013,60.3262338 18.0384416,60.3262338 C20.2202597,60.3262338 21.9885714,58.5579221 21.9885714,56.3771429 C21.9885714,54.1942857 20.2202597,52.427013 18.0384416,52.427013" id="Fill-779" fill="#BFE3E6"></path>
                        <path d="M18.0384416,60.3262338 C15.8587013,60.3262338 14.0924675,58.5579221 14.0924675,56.3771429 C14.0924675,54.1942857 15.8587013,52.427013 18.0384416,52.427013 C20.2202597,52.427013 21.9885714,54.1942857 21.9885714,56.3771429 C21.9885714,58.5579221 20.2202597,60.3262338 18.0384416,60.3262338 M18.0384416,54.4031169 C16.9496104,54.4031169 16.0664935,55.2862338 16.0664935,56.3771429 C16.0664935,57.465974 16.9496104,58.347013 18.0384416,58.347013 C19.1262338,58.347013 20.0145455,57.465974 20.0145455,56.3771429 C20.0145455,55.2862338 19.1262338,54.4031169 18.0384416,54.4031169" id="Fill-780" fill="#BDE2E4"></path>
                        <path d="M18.0384416,58.347013 C16.9496104,58.347013 16.0664935,57.465974 16.0664935,56.3771429 C16.0664935,55.2862338 16.9496104,54.4031169 18.0384416,54.4031169 C19.1262338,54.4031169 20.0145455,55.2862338 20.0145455,56.3771429 C20.0145455,57.465974 19.1262338,58.347013 18.0384416,58.347013" id="Fill-781" fill="#BFE3E6"></path>
                        <path d="M15.9490909,37.627013 L4.8612987,37.627013 L4.8612987,35.2238961 C4.8612987,34.7303896 4.87272727,34.238961 4.89454545,33.7506494 L13.76,33.7506494 L13.76,33.7444156 L14.1350649,33.7444156 C14.1942857,34.1257143 14.2825974,34.505974 14.4020779,34.881039 C14.7303896,35.9251948 15.2644156,36.854026 15.9490909,37.627013" id="Fill-782" fill="#BFE3E6"></path>
                        <polyline id="Fill-783" fill="#B3DCDF" points="12.7875325 41.3007792 12.7875325 41.3007792 14.4031169 37.627013 14.4051948 37.627013 12.7875325 41.3007792"></polyline>
                        <polyline id="Fill-784" fill="#B7DEE0" points="12.7875325 41.3007792 4.8612987 41.3007792 4.8612987 37.627013 14.4031169 37.627013 12.7875325 41.3007792"></polyline>
                        <path d="M13.76,33.7506494 L4.89454545,33.7506494 C4.97662338,31.8981818 5.21350649,30.0862338 5.59272727,28.3262338 L11.5397403,28.3262338 C11.1605195,28.8322078 10.9361039,29.4607792 10.9361039,30.1423377 C10.9361039,31.7464935 12.1828571,33.0607792 13.76,33.1677922 L13.76,33.7506494" id="Fill-785" fill="#BFE3E6"></path>
                        <path d="M7.85142857,26.1516883 L6.13922078,26.1516883 C6.24935065,25.7735065 6.36571429,25.3942857 6.48831169,25.0212987 L6.72831169,25.0212987 L6.72831169,24.3179221 C7.06181818,23.3766234 7.43688312,22.4550649 7.85142857,21.5553247 L7.85142857,26.1516883" id="Fill-786" fill="#BFE3E6"></path>
                        <path d="M6.72831169,28.3262338 L5.59272727,28.3262338 C5.75064935,27.5916883 5.93350649,26.8664935 6.13922078,26.1516883 L6.72831169,26.1516883 L6.72831169,28.3262338" id="Fill-787" fill="#B5DBDD"></path>
                        <path d="M6.72831169,25.0212987 L6.48831169,25.0212987 C6.56623377,24.7844156 6.64519481,24.5516883 6.72831169,24.3179221 L6.72831169,25.0212987" id="Fill-788" fill="#AAD1D3"></path>
                        <path d="M46.8883117,8.4561039 L37.8867532,3.38909091 C37.5490909,3.2 37.3766234,2.83012987 37.4192208,2.46753247 C37.4846753,2.46753247 37.5511688,2.46753247 37.6176623,2.46753247 C38.4966234,2.46753247 39.3651948,2.50181818 40.2275325,2.57038961 L47.8036364,6.83428571 C47.3703896,7.28 47.0503896,7.83584416 46.8883117,8.4561039" id="Fill-789" fill="#BFE3E6"></path>
                        <path d="M50.425974,57.1220779 C50.1153247,57.1220779 49.8119481,56.9662338 49.6353247,56.6825974 C49.3620779,56.2493506 49.4950649,55.6748052 49.9283117,55.3994805 L61.0877922,48.4135065 C61.2477922,49.0441558 61.6332468,49.5854545 62.1537662,49.9449351 L50.9194805,56.9787013 C50.7657143,57.0753247 50.5953247,57.1220779 50.425974,57.1220779" id="Fill-790" fill="#BFE3E6"></path>
                        <path d="M60.4685714,31.6301299 L60.2077922,31.4794805 C60.1776623,31.3724675 60.1464935,31.2664935 60.1132468,31.1605195 C59.8119481,30.2098701 59.3766234,29.3267532 58.8290909,28.5319481 L60.9880519,29.7776623 C61.0212987,29.9594805 61.0722078,30.134026 61.1376623,30.3012987 C60.8238961,30.6825974 60.5911688,31.1345455 60.4685714,31.6301299 M66.4737662,29.8223377 C66.4758442,29.8109091 66.4779221,29.7984416 66.48,29.787013 L69.5709091,28.0020779 C69.572987,28.0114286 69.5750649,28.0207792 69.5771429,28.0301299 L66.4737662,29.8223377 M51.3558442,20.8436364 C50.8020779,20.3314286 50.1735065,19.9096104 49.4919481,19.5916883 L49.4919481,12.9101299 C49.7901299,12.9890909 50.1028571,13.0306494 50.425974,13.0306494 C50.747013,13.0306494 51.0587013,12.9890909 51.3558442,12.9111688 L51.3558442,20.8436364 M53.9511688,8.41766234 C53.7828571,7.79948052 53.4555844,7.24675325 53.0171429,6.80519481 L53.4524675,6.55376623 C54.0748052,6.89974026 54.6857143,7.26441558 55.2831169,7.64883117 L53.9511688,8.41766234" id="Fill-791" fill="#BFE3E6"></path>
                        <path d="M70.372987,52.7532468 L65.3267532,49.8379221 C65.8181818,49.4472727 66.1683117,48.8872727 66.2867532,48.2441558 L70.372987,50.6025974 L70.372987,52.7532468 M64.6722078,45.2862338 C64.3625974,45.1594805 64.0249351,45.0909091 63.6696104,45.0909091 C63.3683117,45.0909091 63.0784416,45.1407792 62.8083117,45.2332468 L62.8083117,35.6851948 C63.1044156,35.7703896 63.4181818,35.8161039 63.7423377,35.8161039 C64.0644156,35.8161039 64.3771429,35.7703896 64.6722078,35.6862338 L64.6722078,45.2862338 M67.0212987,31.6550649 C66.8987013,31.1449351 66.6607792,30.6805195 66.3366234,30.2898701 C66.3948052,30.1402597 66.4415584,29.9833766 66.4737662,29.8223377 L69.5771429,28.0301299 C69.7205195,28.6680519 69.8451948,29.3122078 69.9511688,29.9636364 L67.0212987,31.6550649" id="Fill-792" fill="#BFE3E6"></path>
                        <path d="M63.6696104,50.4166234 C63.1064935,50.4166234 62.5838961,50.2420779 62.1537662,49.9449351 C61.6332468,49.5854545 61.2477922,49.0441558 61.0877922,48.4135065 C61.0337662,48.2025974 61.0057143,47.9812987 61.0057143,47.7537662 C61.0057143,46.585974 61.758961,45.5916883 62.8083117,45.2332468 C63.0784416,45.1407792 63.3683117,45.0909091 63.6696104,45.0909091 C64.0249351,45.0909091 64.3625974,45.1594805 64.6722078,45.2862338 C65.6457143,45.6820779 66.3314286,46.638961 66.3314286,47.7537662 C66.3314286,47.921039 66.3168831,48.0851948 66.2867532,48.2441558 C66.1683117,48.8872727 65.8181818,49.4472727 65.3267532,49.8379221 C64.8727273,50.2005195 64.2961039,50.4166234 63.6696104,50.4166234 M63.0441558,45.9501299 C62.3979221,45.9501299 61.8711688,46.478961 61.8711688,47.1262338 C61.8711688,47.7755844 62.3979221,48.3012987 63.0441558,48.3012987 C63.6935065,48.3012987 64.2202597,47.7755844 64.2202597,47.1262338 C64.2202597,46.478961 63.6935065,45.9501299 63.0441558,45.9501299" id="Fill-793" fill="#BFE3E6"></path>
                        <path d="M63.7423377,35.8161039 C63.4181818,35.8161039 63.1044156,35.7703896 62.8083117,35.6851948 C61.7527273,35.3818182 60.9101299,34.5766234 60.5537662,33.545974 C60.5267532,33.094026 60.4685714,32.6431169 60.3781818,32.1953247 C60.3927273,32.0020779 60.4228571,31.812987 60.4685714,31.6301299 C60.5911688,31.1345455 60.8238961,30.6825974 61.1376623,30.3012987 C61.2041558,30.4675325 61.2862338,30.6264935 61.3818182,30.7761039 C61.2571429,30.9797403 61.1864935,31.2176623 61.1864935,31.4722078 C61.1864935,32.2181818 61.7890909,32.8218182 62.532987,32.8218182 C63.065974,32.8218182 63.5262338,32.5132468 63.7454545,32.0644156 C64.9236364,32.0602597 65.9303896,31.3257143 66.3366234,30.2898701 C66.6607792,30.6805195 66.8987013,31.1449351 67.0212987,31.6550649 C67.0815584,31.9085714 67.1137662,32.1724675 67.1137662,32.4446753 C67.1137662,33.9833766 66.0820779,35.2820779 64.6722078,35.6862338 C64.3771429,35.7703896 64.0644156,35.8161039 63.7423377,35.8161039" id="Fill-794" fill="#BFE3E6"></path>
                        <path d="M53.7911688,24.7719481 C53.7215584,24.7490909 53.6519481,24.7272727 53.5812987,24.7054545 C53.5324675,24.5028571 53.4763636,24.3012987 53.4161039,24.1101299 C53.1272727,23.1896104 52.6763636,22.3584416 52.1028571,21.6446753 C53.1158442,22.2275325 53.7974026,23.3215584 53.7974026,24.5724675 C53.7974026,24.638961 53.7953247,24.7054545 53.7911688,24.7719481" id="Fill-795" fill="#B8CBBD"></path>
                        <path d="M50.425974,13.0306494 C50.1028571,13.0306494 49.7901299,12.9890909 49.4919481,12.9101299 C47.9262338,12.4976623 46.7709091,11.0711688 46.7709091,9.3787013 C46.7709091,9.05974026 46.8114286,8.75116883 46.8883117,8.4561039 C47.0503896,7.83584416 47.3703896,7.28 47.8036364,6.83428571 C48.4685714,6.15168831 49.3974026,5.72675325 50.425974,5.72675325 C51.4379221,5.72675325 52.3542857,6.13922078 53.0171429,6.80519481 C53.4555844,7.24675325 53.7828571,7.79948052 53.9511688,8.41766234 C54.0353247,8.72415584 54.08,9.04623377 54.08,9.3787013 C54.08,11.0722078 52.9215584,12.4987013 51.3558442,12.9111688 C51.0587013,12.9890909 50.747013,13.0306494 50.425974,13.0306494 M49.4919481,7.06181818 C48.5963636,7.06181818 47.8701299,7.78909091 47.8701299,8.68675325 C47.8701299,9.58233766 48.5963636,10.3106494 49.4919481,10.3106494 C50.3906494,10.3106494 51.1179221,9.58233766 51.1179221,8.68675325 C51.1179221,7.78909091 50.3906494,7.06181818 49.4919481,7.06181818" id="Fill-796" fill="#BFE3E6"></path>
                        <path d="M49.4919481,10.3106494 C48.5963636,10.3106494 47.8701299,9.58233766 47.8701299,8.68675325 C47.8701299,7.78909091 48.5963636,7.06181818 49.4919481,7.06181818 C50.3906494,7.06181818 51.1179221,7.78909091 51.1179221,8.68675325 C51.1179221,9.58233766 50.3906494,10.3106494 49.4919481,10.3106494" id="Fill-797" fill="#A0D2D8"></path>
                        <path d="M62.532987,32.8218182 C61.7890909,32.8218182 61.1864935,32.2181818 61.1864935,31.4722078 C61.1864935,31.2176623 61.2571429,30.9797403 61.3818182,30.7761039 C61.8774026,31.5511688 62.745974,32.0644156 63.7350649,32.0644156 C63.7381818,32.0644156 63.7412987,32.0644156 63.7454545,32.0644156 C63.5262338,32.5132468 63.065974,32.8218182 62.532987,32.8218182" id="Fill-798" fill="#A0D2D8"></path>
                        <path d="M63.0441558,48.3012987 C62.3979221,48.3012987 61.8711688,47.7755844 61.8711688,47.1262338 C61.8711688,46.478961 62.3979221,45.9501299 63.0441558,45.9501299 C63.6935065,45.9501299 64.2202597,46.478961 64.2202597,47.1262338 C64.2202597,47.7755844 63.6935065,48.3012987 63.0441558,48.3012987" id="Fill-799" fill="#BAD2C7"></path>
                        <polyline id="Fill-800" fill="#A2D6DA" points="70.372987 71.574026 70.372987 35.2238961 70.372987 71.574026"></polyline>
                        <polygon id="Fill-801" fill="#3D4A67" points="0 79.4296104 75.2353247 79.4296104 75.2353247 71.574026 0 71.574026"></polygon>
                        <path d="M59.6581818,36.9184416 C59.785974,37.2176623 59.9002597,37.5303896 60.001039,37.8493506 C61.8223377,43.6145455 58.7418182,49.7246753 53.118961,51.5012987 C48.7168831,52.8893506 44.0654545,51.2103896 41.3787013,47.6446753 C40.9662338,47.52 40.5579221,47.358961 40.1724675,47.1709091 C39.4327273,47.9480519 38.4976623,48.5558442 37.4046753,48.8997403 C33.8950649,50.0083117 30.1267532,47.9885714 28.9901299,44.3854545 C28.8966234,44.0893506 28.8228571,43.7901299 28.7709091,43.4898701 C26.025974,44.0228571 23.2405195,42.3657143 22.3574026,39.5677922 L22.3283117,39.4763636 C19.1511688,39.9127273 16.0103896,37.9563636 14.9890909,34.7251948 C13.8514286,31.1179221 15.7797403,27.3007792 19.2914286,26.1911688 C19.7392208,26.0498701 20.1974026,25.9605195 20.6503896,25.9168831 C21.3527273,23.5802597 23.1303896,21.6363636 25.5937662,20.8571429 C27.5844156,20.2296104 29.6509091,20.4820779 31.3797403,21.3963636 C32.5018182,19.9594805 34.0612987,18.827013 35.9376623,18.2348052 C38.9911688,17.2716883 42.1672727,17.9522078 44.5122078,19.7828571 L44.5444156,19.7714286 C48.0571429,18.6628571 51.8285714,20.6815584 52.9651948,24.2815584 C53.0566234,24.5693506 53.1262338,24.8592208 53.1792208,25.147013 C56.1548052,25.9397403 58.665974,28.1849351 59.6602597,31.3309091 C60.2555844,33.2197403 60.2181818,35.1594805 59.6581818,36.9184416" id="Fill-802" fill="#E3B3C6"></path>
                        <path d="M43.0223377,48.7002597 C42.56,48.2857143 42.1319481,47.8171429 41.7506494,47.307013 L41.6779221,47.2155844 L41.6415584,47.1667532 L41.4722078,47.1158442 C41.0836364,47.0005195 40.7064935,46.8477922 40.345974,46.6753247 L39.9854545,46.4997403 L39.707013,46.7885714 C39.0015584,47.5314286 38.1506494,48.0675325 37.172987,48.372987 C36.5880519,48.558961 35.9823377,48.6514286 35.3766234,48.6514286 C32.6618182,48.6514286 30.2794805,46.8696104 29.4441558,44.2161039 C29.3568831,43.9418182 29.2851948,43.6654545 29.2425974,43.3911688 L29.1480519,42.8394805 L28.5974026,42.9496104 C28.2971429,43.0098701 27.9802597,43.0368831 27.6748052,43.0368831 C25.4524675,43.0368831 23.4950649,41.5719481 22.8083117,39.3984416 L22.6379221,38.8685714 L22.185974,38.9288312 C21.9168831,38.9662338 21.6446753,38.9838961 21.3714286,38.9838961 C18.6618182,38.9838961 16.2805195,37.2020779 15.44,34.5527273 C14.9371429,32.9475325 15.0680519,31.2436364 15.8150649,29.7641558 C16.5651948,28.2836364 17.8316883,27.1968831 19.3890909,26.7054545 C19.7880519,26.5787013 20.2077922,26.4976623 20.6337662,26.452987 L20.9994805,26.4197403 L21.1033766,26.0664935 C21.7818182,23.8212987 23.4950649,22.0675325 25.6914286,21.3745455 C27.4555844,20.8166234 29.4046753,21.0025974 31.0545455,21.8701299 L31.4597403,22.0893506 L31.7444156,21.7288312 C32.8415584,20.32 34.3272727,19.2872727 36.0311688,18.7522078 C38.7792208,17.8836364 41.8535065,18.4457143 44.1049351,20.2046753 L44.3657143,20.374026 L44.638961,20.2867532 C45.2280519,20.1018182 45.8296104,20.0072727 46.4405195,20.0072727 C49.1574026,20.0072727 51.5376623,21.7901299 52.3781818,24.4394805 C52.4550649,24.6950649 52.5215584,24.9620779 52.5755844,25.2415584 L52.6358442,25.5792208 L52.9683117,25.6664935 C55.8857143,26.4488312 58.1631169,28.6223377 59.0701299,31.4898701 C59.6155844,33.2155844 59.6155844,35.0348052 59.0701299,36.7501299 L59.0098701,36.9412987 L59.0379221,36.9994805 L59.0857143,37.1272727 C59.2062338,37.4098701 59.3153247,37.705974 59.4150649,38.0062338 C59.4628571,38.1631169 59.5075325,38.3179221 59.5449351,38.4748052 C60.2223377,40.9880519 59.9605195,43.6103896 58.7968831,45.92 C57.5625974,48.3677922 55.4649351,50.158961 52.8872727,50.9735065 C51.9148052,51.28 50.9153247,51.4368831 49.9054545,51.4368831 C47.3651948,51.4368831 44.9018182,50.4425974 43.0223377,48.7002597 M60.4519481,37.678961 C60.3698701,37.4098701 60.2701299,37.1418182 60.1683117,36.8872727 C60.7241558,35.0119481 60.7023377,33.041039 60.1132468,31.1605195 C59.1251948,28.0436364 56.6992208,25.6498701 53.5812987,24.7054545 C53.5324675,24.5028571 53.4763636,24.3012987 53.4161039,24.1101299 C52.4394805,21.0025974 49.6322078,18.9163636 46.4405195,18.9163636 C45.814026,18.9163636 45.1854545,18.9974026 44.5516883,19.1719481 C42.0457143,17.3267532 38.6971429,16.7636364 35.7038961,17.7101299 C33.9293506,18.2722078 32.3667532,19.3038961 31.1646753,20.7075325 C29.3444156,19.8732468 27.2592208,19.7298701 25.3641558,20.3314286 C22.932987,21.0950649 21.0161039,22.9797403 20.1683117,25.4098701 C19.7922078,25.4649351 19.4161039,25.5522078 19.0607792,25.6664935 C17.2197403,26.2462338 15.7184416,27.5231169 14.8384416,29.2716883 C13.9646753,31.0088312 13.8057143,33.0025974 14.4020779,34.881039 C15.3787013,37.9906494 18.1818182,40.0758442 21.3714286,40.0758442 C21.5407792,40.0758442 21.7142857,40.0716883 21.8846753,40.0602597 C22.8020779,42.505974 25.0846753,44.1288312 27.6748052,44.1288312 C27.8711688,44.1288312 28.0727273,44.1184416 28.2763636,44.1007792 C28.3127273,44.2493506 28.3522078,44.3968831 28.401039,44.5433766 C29.3838961,47.6571429 32.1849351,49.7433766 35.3766234,49.7433766 C35.6592208,49.7433766 35.9438961,49.7277922 36.2275325,49.6893506 C36.6587013,49.6405195 37.0846753,49.547013 37.5002597,49.4150649 C37.6103896,49.3818182 37.7132468,49.3454545 37.8233766,49.307013 C38.7085714,48.9724675 39.5272727,48.4716883 40.2212987,47.8212987 C40.4727273,47.9251948 40.7231169,48.0249351 40.985974,48.1049351 C42.3553247,49.8742857 44.2088312,51.1864935 46.2607792,51.9012987 C46.4363636,51.9667532 46.612987,52.0218182 46.7844156,52.0685714 C47.7922078,52.3698701 48.8394805,52.5298701 49.9054545,52.5298701 C51.0244156,52.5298701 52.1381818,52.3542857 53.2155844,52.0176623 C56.0768831,51.1106494 58.4041558,49.121039 59.7683117,46.4124675 C61.1345455,43.7080519 61.3766234,40.6067532 60.4519481,37.678961" id="Fill-803" fill="#DF818F"></path>
                        <path d="M22.4353247,39.0005195 C21.9179221,37.8379221 21.9449351,37.2353247 22.3490909,36.0249351 C23.0223377,34.0041558 26.4820779,32.2690909 28.1974026,33.8867532 C28.4498701,34.1267532 28.9631169,33.6903896 29.067013,33.4607792 C29.9012987,31.598961 30.56,29.9376623 32.6358442,29.2249351 C33.9750649,28.7688312 35.8971429,28.3106494 37.198961,29.3464935 C37.8306494,29.8503896 38.2690909,29.1012987 38.0519481,28.9142857 C36.1745455,27.3174026 33.3984416,27.8264935 32.0446753,28.4602597 C30.0051948,29.414026 29.2519481,31.3963636 28.1963636,33.7527273 C28.4851948,33.6114286 28.7750649,33.4690909 29.0649351,33.3257143 C27.4088312,31.761039 25.0649351,32.4238961 23.4420779,33.4857143 C21.2685714,34.9018182 20.7064935,37.4514286 21.7880519,39.8909091 C21.9064935,40.1568831 22.798961,39.6457143 22.6576623,39.3288312 L22.4353247,39.0005195" id="Fill-804" fill="#DF818F"></path>
                        <path d="M54.3761039,27.5148052 C52.561039,27.2654545 51.2550649,27.7911688 50.1776623,29.0223377 C48.454026,30.9901299 48.5101299,33.0161039 48.0914286,35.4109091 C46.2701299,34.9153247 44.6296104,34.9776623 42.8114286,35.6945455 C41.0337662,36.3937662 40.6025974,37.7101299 39.8690909,39.1761039 C38.2327273,37.3631169 35.7215584,37.3464935 33.4753247,38.0384416 C30.6919481,38.8966234 29.3288312,41.2841558 28.1818182,43.8192208 C27.9293506,44.3781818 28.8644156,44.1163636 29.0181818,43.7766234 C29.9023377,41.8212987 30.718961,40.0675325 32.718961,39.0005195 C34.905974,37.8337662 37.9220779,38.0883117 39.4119481,40.2493506 C39.627013,40.5651948 40.1433766,40.1506494 40.2638961,39.947013 C41.1148052,38.5246753 41.1594805,37.2155844 42.8851948,36.3262338 C44.5558442,35.467013 46.4155844,35.7631169 48.1246753,36.3355844 C48.3968831,36.427013 48.8166234,36.1163636 48.8737662,35.8503896 C49.4067532,33.3412987 49.0057143,28.1963636 53.7849351,28.2545455 C55.3942857,28.2722078 54.8280519,27.5781818 54.3761039,27.5148052" id="Fill-805" fill="#DF818F"></path>
                        <path d="M40.9776623,47.8722078 C43.1127273,49.1303896 45.6716883,49.1605195 48.0633766,48.7605195 C50.854026,48.2950649 50.8041558,45.6311688 51.6051948,44.878961 C52.2846753,44.2431169 54.0768831,44.5153247 54.9122078,44.3158442 C55.8109091,44.1038961 56.5703896,43.5605195 57.2997403,43.0202597 C59.6114286,41.3049351 59.3028571,38.4633766 60.0966234,36.0644156 C60.1849351,35.7984416 59.3381818,36.0446753 59.2342857,36.345974 C58.3646753,38.8893506 58.0436364,44.0602597 53.1698701,43.8711688 C52.5412987,43.8462338 51.8202597,43.6664935 51.281039,44.0914286 C50.5277922,44.6867532 50.2420779,45.705974 49.945974,46.5963636 C48.9163636,49.6903896 43.6623377,48.3605195 41.7537662,47.2353247 C41.4950649,47.0825974 40.7054545,47.7142857 40.9776623,47.8722078" id="Fill-806" fill="#DF818F"></path>
                        <path d="M34.2472727,32.2212987 C36.932987,34.2846753 40.6649351,32.7345455 42.6742857,30.4893506 C44.0425974,28.9568831 44.0467532,26.8831169 43.3090909,25.0638961 C42.3864935,22.7864935 40.5464935,22.4477922 38.6150649,23.2197403 C37.8046753,23.5449351 38.158961,24.0218182 38.6244156,23.8680519 C40.1309091,23.3745455 41.1438961,23.2768831 42.2171429,24.6545455 C43.145974,25.8451948 43.4732468,27.8379221 42.7490909,29.1179221 C41.2664935,31.7423377 37.4898701,33.4836364 35.1158442,31.6602597 C34.8727273,31.4722078 34.1371429,32.1381818 34.2472727,32.2212987" id="Fill-807" fill="#DF818F"></path>
                        <path d="M30.8654545,21.6696104 C30.1994805,22.5018182 30.0093506,23.4638961 30.7220779,24.3532468 C31.3568831,25.1480519 32.4966234,25.4794805 33.4524675,25.3620779 C33.6903896,25.334026 33.9116883,25.2020779 34.0820779,25.0337662 C34.1423377,24.9745455 34.3407792,24.6888312 34.1018182,24.7179221 C32.3698701,24.9298701 30.4394805,23.3257143 31.8493506,21.5584416 C32.1735065,21.1553247 31.2363636,21.2633766 30.8654545,21.6696104" id="Fill-808" fill="#DF818F"></path>
                        <path d="M20.692987,26.3719481 C22.2025974,25.814026 23.8431169,27.7994805 23.3038961,29.2415584 C23.0836364,29.8264935 24.0145455,29.5979221 24.1558442,29.2207792 C24.9776623,27.0244156 22.6825974,24.9381818 20.5984416,25.707013 C20.0987013,25.8919481 20.0488312,26.6098701 20.692987,26.3719481" id="Fill-809" fill="#DF818F"></path>
                        <path d="M54.001039,35.1241558 C53.6644156,34.427013 52.6732468,34.6535065 53.1314286,35.6851948 C55.1885714,40.3106494 48.5392208,43.7901299 45.5116883,40.6742857 C45.2737662,40.4301299 44.6909091,40.3750649 44.6264935,41.1771429 C44.2638961,45.6436364 36.3137662,46.6774026 34.8145455,42.3864935 C34.5527273,41.6374026 33.494026,41.8077922 33.945974,42.9475325 C35.8524675,47.7683117 43.7797403,46.1142857 45.2945455,41.7703896 C49.1293506,44.3064935 56.5205195,40.3158442 54.001039,35.1241558" id="Fill-810" fill="#DF818F"></path>
                        <path d="M34.1994805,32.1641558 C34.3085714,33.1033766 34.4696104,35.3984416 33.1251948,35.6935065 C31.9085714,35.9584416 32.3064935,36.5423377 32.825974,36.4384416 C35.0181818,35.9968831 35.3174026,33.6332468 35.0950649,31.7132468 C35.0597403,31.4109091 33.9220779,31.1231169 34.1994805,32.1641558" id="Fill-811" fill="#DF818F"></path>
                        <path d="M44.2545455,20.2981818 C46.0322078,21.7485714 47.1896104,23.4753247 47.1636364,25.8503896 C47.1574026,26.4301299 48.0935065,26.0914286 48.1007792,25.6602597 C48.1277922,23.0753247 46.9454545,21.1937662 44.9953247,19.598961 C44.6555844,19.3225974 43.8597403,19.972987 44.2545455,20.2981818" id="Fill-812" fill="#DF818F"></path>
                        <path d="M46.7646753,55.7350649 C44.3657143,56.2212987 42.2753247,55.4119481 41.0192208,53.0638961 C40.2264935,51.5802597 39.3412987,49.9522078 37.8233766,49.307013 C38.7085714,48.9724675 39.5272727,48.4706494 40.2212987,47.8212987 C40.4727273,47.9251948 40.7231169,48.0249351 40.9849351,48.1049351 C42.3553247,49.8742857 44.2088312,51.1864935 46.2607792,51.9012987 C45.1532468,53.3984416 45.5563636,54.5672727 46.7646753,55.7350649" id="Fill-813" fill="#E3B3C6"></path>
                        <path d="M47.4088312,56.0467532 C45.5781818,56.6431169 42.7272727,56.9537662 41.2415584,55.3194805 C39.5761039,53.4919481 39.0888312,50.0612987 36.2275325,49.6893506 L36.1672727,49.678961 C35.8836364,49.6446753 36.321039,49.2311688 36.6264935,49.0888312 L36.8176623,49.038961 L36.8550649,49.0441558 C37.2051948,49.0888312 37.5283117,49.1750649 37.8233766,49.307013 C39.3412987,49.9522078 40.2264935,51.5802597 41.0192208,53.0638961 C42.2753247,55.4119481 44.3657143,56.2212987 46.7646753,55.7350649 C45.5563636,54.5672727 45.1532468,53.3984416 46.2607792,51.9012987 L46.2722078,51.8857143 C46.3594805,51.7755844 46.7158442,51.5844156 46.9288312,51.5366234 L46.934026,51.5366234 L47.0909091,51.5802597 L47.0254545,51.7090909 C46.934026,51.8306494 46.8571429,51.9480519 46.7854545,52.0685714 C45.9937662,53.4524675 46.8363636,54.4903896 47.9771429,55.4898701 C48.1454545,55.6374026 47.4857143,56.025974 47.4088312,56.0467532" id="Fill-814" fill="#DF818F"></path>
                        <path d="M13.9677922,33.1750649 C13.8971429,33.1750649 13.8285714,33.172987 13.76,33.1677922 L13.76,28.3262338 L11.5397403,28.3262338 C12.0924675,27.5885714 12.9745455,27.1106494 13.9677922,27.1106494 C14.6784416,27.1106494 15.3319481,27.3548052 15.8483117,27.7641558 C15.4555844,28.2150649 15.1158442,28.72 14.8384416,29.2716883 C14.2264935,30.4883117 13.9646753,31.8316883 14.0685714,33.172987 C14.0353247,33.174026 14.001039,33.1750649 13.9677922,33.1750649" id="Fill-815" fill="#E7F4F5"></path>
                        <path d="M13.76,33.1677922 C12.1828571,33.0607792 10.9361039,31.7464935 10.9361039,30.1423377 C10.9361039,29.4607792 11.1605195,28.8322078 11.5397403,28.3262338 L13.76,28.3262338 L13.76,33.1677922" id="Fill-816" fill="#E8F5F6"></path>
                        <path d="M15.1480519,32.9361039 C15.0919481,31.8431169 15.3153247,30.7532468 15.8150649,29.7641558 C16.0290909,29.3412987 16.2846753,28.9516883 16.5776623,28.5984416 C16.8457143,29.0503896 17.0005195,29.5781818 17.0005195,30.1423377 C17.0005195,31.3974026 16.2368831,32.4758442 15.1480519,32.9361039" id="Fill-817" fill="#EAF3F5"></path>
                        <path d="M14.0685714,33.172987 C13.9646753,31.8316883 14.2264935,30.4883117 14.8384416,29.2716883 C15.1158442,28.72 15.4555844,28.2150649 15.8483117,27.7641558 C16.1392208,27.9948052 16.3875325,28.2774026 16.5776623,28.5984416 C16.2846753,28.9516883 16.0290909,29.3412987 15.8150649,29.7641558 C15.3153247,30.7532468 15.0919481,31.8431169 15.1480519,32.9361039 C14.8145455,33.0774026 14.4498701,33.1605195 14.0685714,33.172987" id="Fill-818" fill="#E9F1F1"></path>
                        <path d="M20.6264935,24.3438961 C20.3428571,23.9148052 20.1776623,23.4005195 20.1776623,22.8477922 C20.1776623,21.3444156 21.3953247,20.1267532 22.8987013,20.1267532 C23.5012987,20.1267532 24.0581818,20.3231169 24.5090909,20.6545455 C22.8353247,21.4015584 21.4701299,22.7054545 20.6264935,24.3438961" id="Fill-819" fill="#D9EFF0"></path>
                        <path d="M22.8987013,25.5677922 C22.3657143,25.5677922 21.8690909,25.4150649 21.4493506,25.1501299 C22.2109091,23.4836364 23.5792208,22.1787013 25.2748052,21.521039 C25.494026,21.9137662 25.6187013,22.3657143 25.6187013,22.8477922 C25.6187013,24.3501299 24.401039,25.5677922 22.8987013,25.5677922" id="Fill-820" fill="#E8E3E9"></path>
                        <path d="M21.4493506,25.1501299 C21.121039,24.9433766 20.8394805,24.6680519 20.6264935,24.3438961 C21.4701299,22.7054545 22.8353247,21.4015584 24.5090909,20.6545455 C24.8218182,20.8851948 25.0836364,21.1802597 25.2748052,21.521039 C23.5792208,22.1787013 22.2109091,23.4836364 21.4493506,25.1501299" id="Fill-821" fill="#E7D6D8"></path>
                        <path d="M24.5444156,12.0135065 C24.5444156,12.9225974 23.8077922,13.6592208 22.8987013,13.6592208 C21.9896104,13.6592208 21.254026,12.9225974 21.254026,12.0135065 C21.254026,11.1054545 21.9896104,10.3688312 22.8987013,10.3688312 C23.8077922,10.3688312 24.5444156,11.1054545 24.5444156,12.0135065" id="Fill-822" fill="#EAF6F7"></path>
                        <path d="M47.1522078,12.6306494 C47.1522078,13.1979221 46.6919481,13.6592208 46.1236364,13.6592208 C45.5553247,13.6592208 45.0961039,13.1979221 45.0961039,12.6306494 C45.0961039,12.0623377 45.5553247,11.6031169 46.1236364,11.6031169 C46.6919481,11.6031169 47.1522078,12.0623377 47.1522078,12.6306494" id="Fill-823" fill="#EAF6F7"></path>
                        <path d="M60.8488312,39.3412987 C60.7574026,38.7833766 60.6254545,38.2285714 60.4519481,37.678961 C60.3698701,37.4098701 60.2701299,37.1418182 60.1683117,36.8872727 C60.4155844,36.0550649 60.5485714,35.2041558 60.5683117,34.3501299 C61.4462338,34.878961 62.0332468,35.8420779 62.0332468,36.9412987 C62.0332468,37.9179221 61.5688312,38.7875325 60.8488312,39.3412987" id="Fill-824" fill="#E0F1F3"></path>
                        <path d="M59.225974,39.9584416 C59.3558442,39.4763636 59.4524675,38.9797403 59.545974,38.48 C59.6685714,38.9361039 59.76,39.3953247 59.8212987,39.8555844 C59.6301299,39.9085714 59.4306494,39.9438961 59.225974,39.9584416 M58.2285714,39.8638961 C56.9371429,39.518961 55.9864935,38.3397403 55.9864935,36.9412987 C55.9864935,35.2716883 57.3402597,33.9179221 59.0098701,33.9179221 C59.1688312,33.9179221 59.3246753,33.9303896 59.4774026,33.9532468 C59.4961039,34.8955844 59.36,35.8379221 59.0701299,36.7501299 L59.0098701,36.9412987 L59.0358442,36.9942857 C58.7968831,37.8462338 58.5703896,38.8696104 58.2285714,39.8638961" id="Fill-825" fill="#E8EBEE"></path>
                        <path d="M59.8212987,39.8555844 C59.76,39.3953247 59.6685714,38.9361039 59.545974,38.48 C59.6987013,37.6633766 59.84,36.8405195 60.0966234,36.0644156 C60.1225974,35.9844156 60.0654545,35.9511688 59.9688312,35.9511688 C59.7433766,35.9511688 59.307013,36.1350649 59.2342857,36.345974 C59.1657143,36.5464935 59.1002597,36.7646753 59.0358442,36.9942857 L59.0098701,36.9412987 L59.0701299,36.7501299 C59.36,35.8379221 59.4961039,34.8955844 59.4774026,33.9532468 C59.8711688,34.0145455 60.24,34.1516883 60.5683117,34.3501299 C60.5485714,35.2041558 60.4155844,36.0550649 60.1683117,36.8872727 C60.2701299,37.1418182 60.3698701,37.4098701 60.4519481,37.678961 C60.6254545,38.2285714 60.7574026,38.7833766 60.8488312,39.3412987 C60.5464935,39.574026 60.1994805,39.7506494 59.8212987,39.8555844" id="Fill-826" fill="#E7E0E2"></path>
                        <path d="M59.0098701,39.9657143 C58.7397403,39.9657143 58.4779221,39.9303896 58.2285714,39.8638961 C58.5703896,38.8696104 58.7968831,37.8462338 59.0358442,36.9942857 C59.1002597,36.7646753 59.1657143,36.5464935 59.2342857,36.345974 C59.307013,36.1350649 59.7433766,35.9511688 59.9688312,35.9511688 C60.0654545,35.9511688 60.1225974,35.9844156 60.0966234,36.0644156 C59.84,36.8405195 59.6987013,37.6633766 59.545974,38.48 C59.4524675,38.9797403 59.3558442,39.4763636 59.225974,39.9584416 C59.1542857,39.9625974 59.0825974,39.9657143 59.0098701,39.9657143" id="Fill-827" fill="#E7E0E2"></path>
                        <path d="M61.4015584,30.0166234 L60.9880519,29.7776623 C60.9579221,29.6135065 60.9423377,29.4441558 60.9423377,29.2716883 C60.9423377,27.7298701 62.1922078,26.478961 63.7350649,26.478961 C65.2768831,26.478961 66.5277922,27.7298701 66.5277922,29.2716883 C66.5277922,29.4472727 66.5111688,29.6197403 66.48,29.787013 L66.0820779,30.0166234 C65.4763636,29.4316883 64.6514286,29.0722078 63.7423377,29.0722078 C62.8332468,29.0722078 62.0083117,29.4316883 61.4015584,30.0166234" id="Fill-828" fill="#D9EFF0"></path>
                        <path d="M61.1376623,30.3012987 C61.0722078,30.134026 61.0212987,29.9594805 60.9880519,29.7776623 L61.4015584,30.0166234 C61.3080519,30.105974 61.2207792,30.2015584 61.1376623,30.3012987 M66.1028571,30.0363636 C66.0955844,30.0301299 66.0893506,30.0228571 66.0820779,30.0166234 L66.48,29.787013 C66.4779221,29.7984416 66.4758442,29.8109091 66.4737662,29.8223377 L66.1028571,30.0363636" id="Fill-829" fill="#DDF0F2"></path>
                        <path d="M66.3366234,30.2898701 C66.2628571,30.2015584 66.1849351,30.1163636 66.1028571,30.0363636 L66.4737662,29.8223377 C66.4415584,29.9833766 66.3948052,30.1402597 66.3366234,30.2898701" id="Fill-830" fill="#DDF0F2"></path>
                        <path d="M63.7454545,32.0644156 C63.8327273,31.8857143 63.8815584,31.6851948 63.8815584,31.4722078 C63.8815584,30.7324675 63.2779221,30.1267532 62.532987,30.1267532 C62.0446753,30.1267532 61.6176623,30.3875325 61.3818182,30.7761039 C61.2862338,30.6264935 61.2041558,30.4675325 61.1376623,30.3012987 C61.2207792,30.2015584 61.3080519,30.105974 61.4015584,30.0166234 C62.0083117,29.4316883 62.8332468,29.0722078 63.7423377,29.0722078 C64.6514286,29.0722078 65.4763636,29.4316883 66.0820779,30.0166234 C66.0893506,30.0228571 66.0955844,30.0301299 66.1028571,30.0363636 C66.1849351,30.1163636 66.2628571,30.2015584 66.3366234,30.2898701 C65.9303896,31.3257143 64.9236364,32.0602597 63.7454545,32.0644156" id="Fill-831" fill="#D2EBED"></path>
                        <path d="M63.7350649,32.0644156 C62.745974,32.0644156 61.8774026,31.5511688 61.3818182,30.7761039 C61.6176623,30.3875325 62.0446753,30.1267532 62.532987,30.1267532 C63.2779221,30.1267532 63.8815584,30.7324675 63.8815584,31.4722078 C63.8815584,31.6851948 63.8327273,31.8857143 63.7454545,32.0644156 C63.7412987,32.0644156 63.7381818,32.0644156 63.7350649,32.0644156" id="Fill-832" fill="#D4ECEE"></path>
                        <path d="M59.0098701,23.3454545 C57.8825974,23.3454545 56.9693506,22.4322078 56.9693506,21.3049351 C56.9693506,20.1787013 57.8825974,19.2654545 59.0098701,19.2654545 C60.1361039,19.2654545 61.0503896,20.1787013 61.0503896,21.3049351 C61.0503896,22.4322078 60.1361039,23.3454545 59.0098701,23.3454545" id="Fill-833" fill="#D9EFF0"></path>
                        <path d="M24.0945455,61.1927273 C25.6405195,64.8862338 26.1007792,68.1184416 25.0805195,71.574026 L23.5916883,71.574026 C24.3168831,69.1792208 24.3896104,66.7293506 23.494026,64.185974 C22.5974026,61.6457143 20.721039,59.1771429 20.1537662,56.5776623 C19.4296104,53.278961 20.4664935,50.4405195 21.9387013,47.5376623 C25.04,41.4337662 29.4576623,35.2072727 31.2498701,28.5516883 C31.3984416,27.9844156 33.0109091,27.7537662 32.8374026,28.3709091 C31.0774026,34.8945455 26.8166234,40.932987 23.7735065,46.9194805 C22.8519481,48.7231169 21.6924675,50.7044156 21.52,52.7615584 C21.2311688,56.1579221 22.8436364,58.2067532 24.0945455,61.1927273" id="Fill-834" fill="#5E6E8B"></path>
                        <path d="M36.3262338,71.574026 L34.7542857,71.574026 C35.4046753,68.267013 34.3355844,65.1168831 32.1309091,61.9407792 C30.4685714,59.5314286 28.9880519,57.4005195 28.7335065,54.4228571 C28.347013,49.972987 29.9428571,44.1735065 31.9657143,40.2171429 C32.2701299,39.6166234 33.8836364,39.5906494 33.4805195,40.3812987 C30.7896104,45.6207792 28.7418182,54.1267532 32.2545455,59.3007792 C35.0420779,63.4057143 37.1407792,67.2394805 36.3262338,71.574026" id="Fill-835" fill="#596931"></path>
                        <path d="M44.1984416,71.574026 L42.3314286,71.574026 C39.7974026,67.4358442 35.8898701,64.0311688 37.2228571,58.6005195 C38.5225974,53.3028571 42.9319481,44.4685714 39.1303896,39.4753247 C38.7771429,39.0161039 40.3075325,38.478961 40.6119481,38.8758442 C44.1412987,43.5064935 40.8093506,51.0992208 39.4441558,55.9605195 C38.2919481,60.0820779 38.2420779,63.3153247 40.9236364,66.9184416 C42.0758442,68.4716883 43.2685714,69.9438961 44.1984416,71.574026" id="Fill-836" fill="#5E6E8B"></path>
                        <path d="M55.278961,71.574026 L52.9257143,71.574026 C49.3236364,69.0337662 47.7267532,65.4701299 49.9896104,60.9038961 C52.4405195,55.9532468 53.3038961,48.3116883 48.5246753,44.4374026 C48.1714286,44.1485714 49.627013,43.5324675 50.0135065,43.8524675 C53.7735065,46.9049351 54.1766234,52.5724675 52.9506494,56.9974026 C52.2109091,59.6872727 49.9241558,62.64 50.4581818,65.5355844 C50.9922078,68.4477922 52.8768831,70.1755844 55.278961,71.574026" id="Fill-837" fill="#E6753F"></path>
                        <path d="M14.9714286,65.2228571 C15.6696104,67.4109091 16.2462338,69.4607792 16.2296104,71.574026 L14.56,71.574026 C14.4031169,66.2348052 10.6690909,61.1605195 12.7667532,55.6737662 C15.3828571,48.8374026 22.1444156,41.9345455 19.8244156,34.1537662 C19.6353247,33.52 21.2228571,33.0846753 21.412987,33.7267532 C23.5096104,40.7594805 18.4020779,46.878961 15.5303896,52.8519481 C13.441039,57.2197403 13.5158442,60.6825974 14.9714286,65.2228571" id="Fill-838" fill="#B2824A"></path>
                        <path d="M23.1948052,33.9418182 C23.1948052,35.3267532 22.0716883,36.4498701 20.6857143,36.4498701 C19.2997403,36.4498701 18.1766234,35.3267532 18.1766234,33.9418182 C18.1766234,32.5558442 19.2997403,31.4327273 20.6857143,31.4327273 C22.0716883,31.4327273 23.1948052,32.5558442 23.1948052,33.9418182" id="Fill-839" fill="#3D4A67"></path>
                        <path d="M34.2358442,28.6628571 C34.2358442,30.0488312 33.1127273,31.1719481 31.7267532,31.1719481 C30.3418182,31.1719481 29.2187013,30.0488312 29.2187013,28.6628571 C29.2187013,27.2779221 30.3418182,26.1548052 31.7267532,26.1548052 C33.1127273,26.1548052 34.2358442,27.2779221 34.2358442,28.6628571" id="Fill-840" fill="#3D4A67"></path>
                        <path d="M35.3620779,40.2992208 C35.3620779,41.6841558 34.238961,42.8083117 32.852987,42.8083117 C31.467013,42.8083117 30.3438961,41.6841558 30.3438961,40.2992208 C30.3438961,38.9132468 31.467013,37.7901299 32.852987,37.7901299 C34.238961,37.7901299 35.3620779,38.9132468 35.3620779,40.2992208" id="Fill-841" fill="#3D4A67"></path>
                        <path d="M42.5433766,39.4503896 C42.5433766,40.8363636 41.4202597,41.9584416 40.0332468,41.9584416 C38.6483117,41.9584416 37.5251948,40.8363636 37.5251948,39.4503896 C37.5251948,38.0644156 38.6483117,36.9412987 40.0332468,36.9412987 C41.4202597,36.9412987 42.5433766,38.0644156 42.5433766,39.4503896" id="Fill-842" fill="#3D4A67"></path>
                        <path d="M52.2763636,44.1433766 C52.2763636,45.5293506 51.1532468,46.6524675 49.7683117,46.6524675 C48.3823377,46.6524675 47.2592208,45.5293506 47.2592208,44.1433766 C47.2592208,42.7574026 48.3823377,41.6342857 49.7683117,41.6342857 C51.1532468,41.6342857 52.2763636,42.7574026 52.2763636,44.1433766" id="Fill-843" fill="#3D4A67"></path>
                    </g>
                </g>
            </g>
        </g>
    </g>
</svg>