<?xml version="1.0" encoding="UTF-8"?>
<svg width="89px" height="80px" viewBox="0 0 89 80" version="1.1" xmlns="http://www.w3.org/2000/svg" xmlns:xlink="http://www.w3.org/1999/xlink">
    <!-- Generator: Sketch 49.1 (51147) - http://www.bohemiancoding.com/sketch -->
    <title>Group 14</title>
    <desc>Created with Sketch.</desc>
    <defs></defs>
    <g id="Page-1" stroke="none" stroke-width="1" fill="none" fill-rule="evenodd">
        <g id="Avaleht_md" transform="translate(-607.000000, -634.000000)">
            <g id="Group-10" transform="translate(320.000000, 558.000000)">
                <g id="Group-13" transform="translate(0.000000, 76.000000)">
                    <g id="Group-14" transform="translate(287.000000, 0.000000)">
                        <path d="M88.1345455,64.1321212 C88.1345455,66.8969697 85.889697,69.1430303 83.1212121,69.1430303 L5.01333333,69.1430303 C2.24606061,69.1430303 0,66.8969697 0,64.1321212 L0,5.01333333 C0,2.24606061 2.24606061,0 5.01333333,0 L83.1212121,0 C85.889697,0 88.1345455,2.24606061 88.1345455,5.01333333 L88.1345455,64.1321212" id="Fill-230" fill="#FFFFFF"></path>
                        <polygon id="Fill-231" fill="#46445F" points="9.6969697 60.6545455 77.7769697 60.6545455 77.7769697 9.6969697 9.6969697 9.6969697"></polygon>
                        <polygon id="Fill-232" fill="#BABAB5" points="9.6969697 60.6545455 12.5030303 60.6545455 12.5030303 9.6969697 9.6969697 9.6969697"></polygon>
                        <polygon id="Fill-233" fill="#73B89F" points="20.6060606 16.9527273 53.4642424 16.9527273 53.4642424 13.3333333 20.6060606 13.3333333"></polygon>
                        <polygon id="Fill-234" fill="#73B89F" points="20.6060606 21.2072727 35.8509091 21.2072727 35.8509091 19.3939394 20.6060606 19.3939394"></polygon>
                        <polygon id="Fill-235" fill="#73B89F" points="37.5757576 21.2072727 60.1357576 21.2072727 60.1357576 19.3939394 37.5757576 19.3939394"></polygon>
                        <polygon id="Fill-236" fill="#73B89F" points="64.2424242 21.2072727 72.2812121 21.2072727 72.2812121 19.3939394 64.2424242 19.3939394"></polygon>
                        <polygon id="Fill-237" fill="#73B89F" points="58.1818182 29.6836364 71.4763636 29.6836364 71.4763636 27.8787879 58.1818182 27.8787879"></polygon>
                        <polygon id="Fill-238" fill="#73B89F" points="20.6060606 26.0509091 44.3078788 26.0509091 44.3078788 24.2424242 20.6060606 24.2424242"></polygon>
                        <polygon id="Fill-239" fill="#73B89F" points="47.2727273 26.0509091 72.5430303 26.0509091 72.5430303 24.2424242 47.2727273 24.2424242"></polygon>
                        <polygon id="Fill-240" fill="#73B89F" points="20.6060606 29.6836364 30.0690909 29.6836364 30.0690909 27.8787879 20.6060606 27.8787879"></polygon>
                        <polygon id="Fill-241" fill="#73B89F" points="31.5151515 29.6836364 55.3078788 29.6836364 55.3078788 27.8787879 31.5151515 27.8787879"></polygon>
                        <polygon id="Fill-242" fill="#73B89F" points="20.6060606 33.3260606 59.7660606 33.3260606 59.7660606 31.5151515 20.6060606 31.5151515"></polygon>
                        <polygon id="Fill-243" fill="#73B89F" points="61.8181818 33.3260606 71.8048485 33.3260606 71.8048485 31.5151515 61.8181818 31.5151515"></polygon>
                        <polygon id="Fill-244" fill="#73B89F" points="20.6060606 36.9636364 45.8763636 36.9636364 45.8763636 35.1515152 20.6060606 35.1515152"></polygon>
                        <polygon id="Fill-245" fill="#73B89F" points="47.2727273 36.9636364 71.3563636 36.9636364 71.3563636 35.1515152 47.2727273 35.1515152"></polygon>
                        <polygon id="Fill-246" fill="#73B89F" points="20.6060606 40.5987879 43.5781818 40.5987879 43.5781818 38.7878788 20.6060606 38.7878788"></polygon>
                        <polygon id="Fill-247" fill="#73B89F" points="46.0606061 40.5987879 51.0036364 40.5987879 51.0036364 38.7878788 46.0606061 38.7878788"></polygon>
                        <polygon id="Fill-248" fill="#73B89F" points="20.6060606 44.2351515 29.0290909 44.2351515 29.0290909 42.4242424 20.6060606 42.4242424"></polygon>
                        <polygon id="Fill-249" fill="#73B89F" points="31.5151515 44.2351515 51.4933333 44.2351515 51.4933333 42.4242424 31.5151515 42.4242424"></polygon>
                        <polygon id="Fill-250" fill="#73B89F" points="20.6060606 47.8690909 35.6424242 47.8690909 35.6424242 46.0606061 20.6060606 46.0606061"></polygon>
                        <polygon id="Fill-251" fill="#73B89F" points="37.5757576 47.8690909 51.08 47.8690909 51.08 46.0606061 37.5757576 46.0606061"></polygon>
                        <polygon id="Fill-252" fill="#73B89F" points="20.6060606 51.510303 29.0290909 51.510303 29.0290909 49.6969697 20.6060606 49.6969697"></polygon>
                        <polygon id="Fill-253" fill="#73B89F" points="31.5151515 51.510303 51.4933333 51.510303 51.4933333 49.6969697 31.5151515 49.6969697"></polygon>
                        <path d="M69.4339394,46.1987879 C69.2618182,46.1987879 69.1018182,46.2254545 68.9418182,46.2618182 L66.9551515,43.2969697 C67.2060606,42.9551515 67.3575758,42.5321212 67.3575758,42.0751515 C67.3575758,40.9272727 66.4290909,40 65.2812121,40 C64.1345455,40 63.2072727,40.9272727 63.2072727,42.0751515 C63.2072727,42.3927273 63.2836364,42.68 63.4048485,42.9490909 L60.2387879,46.1151515 C59.7951515,45.8472727 59.2775758,45.6824242 58.7212121,45.6824242 C57.0884848,45.6824242 55.7575758,47.0060606 55.7575758,48.6412121 C55.7575758,50.2727273 57.0884848,51.5975758 58.7212121,51.5975758 C60.3515152,51.5975758 61.6787879,50.2727273 61.6787879,48.6412121 C61.6787879,48.08 61.5151515,47.5672727 61.2412121,47.1212121 L64.409697,43.9527273 C64.68,44.08 64.9684848,44.150303 65.2812121,44.150303 C65.4557576,44.150303 65.6169697,44.1272727 65.7745455,44.0872727 L67.7624242,47.0521212 C67.5115152,47.3963636 67.3575758,47.8145455 67.3575758,48.2739394 C67.3575758,49.4169697 68.289697,50.3454545 69.4339394,50.3454545 C70.5793939,50.3454545 71.5078788,49.4169697 71.5078788,48.2739394 C71.5078788,47.1236364 70.5793939,46.1987879 69.4339394,46.1987879" id="Fill-254" fill="#73B89F"></path>
                        <polygon id="Fill-255" fill="#D2D2CC" points="25.4545455 72.8121212 63.8715152 72.8121212 63.8715152 69.0909091 25.4545455 69.0909091"></polygon>
                        <polygon id="Fill-256" fill="#FFFFFF" points="18.1818182 79.4230303 70.1393939 79.4230303 70.1393939 73.9393939 18.1818182 73.9393939"></polygon>
                    </g>
                </g>
            </g>
        </g>
    </g>
</svg>