<?xml version="1.0" encoding="UTF-8"?>
<svg width="232px" height="146px" viewBox="0 0 232 146" version="1.1" xmlns="http://www.w3.org/2000/svg" xmlns:xlink="http://www.w3.org/1999/xlink">
    <!-- Generator: Sketch 49.1 (51147) - http://www.bohemiancoding.com/sketch -->
    <title>Combined Shape</title>
    <desc>Created with Sketch.</desc>
    <defs></defs>
    <g id="Page-1" stroke="none" stroke-width="1" fill="none" fill-rule="evenodd" opacity="0.2">
        <g id="Avaleht_md" transform="translate(-307.000000, -272.000000)" fill="#FFFFFE">
            <path d="M536.372502,345 C538.062889,349.114444 539,353.618818 539,358.342809 C539,377.774367 523.241738,393.523991 503.802288,393.523991 C494.520853,393.523991 486.080128,389.927214 479.79162,384.05584 C474.53214,387.229071 468.366936,389.059954 461.77353,389.059954 C459.323142,389.059954 456.933284,388.804482 454.624135,388.324912 C444.836033,406.012985 425.988443,418 404.331761,418 C380.330061,418 359.778632,403.281228 351.187701,382.381827 C348.23737,383.193062 345.130107,383.634536 341.921959,383.634536 C322.634958,383.634536 307,368.005925 307,348.728995 C307,347.465081 307.069499,346.225817 307.199528,345 C307.069499,343.774183 307,342.534919 307,341.271005 C307,321.994075 322.634958,306.365464 341.921959,306.365464 C345.130107,306.365464 348.23737,306.806938 351.187701,307.618173 C359.778632,286.718772 380.330061,272 404.331761,272 C425.988443,272 444.836033,283.987015 454.624135,301.675088 C456.933284,301.195518 459.323142,300.940046 461.77353,300.940046 C468.366936,300.940046 474.53214,302.770929 479.79162,305.94416 C486.080128,300.072786 494.520853,296.476009 503.802288,296.476009 C523.241738,296.476009 539,312.225633 539,331.657191 C539,336.381182 538.062889,340.885556 536.372502,345 Z" id="Combined-Shape"></path>
        </g>
    </g>
</svg>