<?xml version="1.0" encoding="UTF-8"?>
<svg width="375px" height="754px" viewBox="0 0 375 754" version="1.1" xmlns="http://www.w3.org/2000/svg" xmlns:xlink="http://www.w3.org/1999/xlink">
    <!-- Generator: Sketch 49.1 (51147) - http://www.bohemiancoding.com/sketch -->
    <title>Group 11</title>
    <desc>Created with Sketch.</desc>
    <defs>
        <rect id="path-1" x="0" y="0" width="375" height="763"></rect>
    </defs>
    <g id="Page-1" stroke="none" stroke-width="1" fill="none" fill-rule="evenodd">
        <g id="Avaleht_375px" transform="translate(0.000000, -3995.000000)">
            <g id="Group-11" transform="translate(0.000000, 3990.000000)">
                <mask id="mask-2" fill="white">
                    <use xlink:href="#path-1"></use>
                </mask>
                <g id="Mask"></g>
                <g mask="url(#mask-2)">
                    <g transform="translate(-196.000000, 5.000000)">
                        <rect id="Rectangle-2-Copy-3" fill="#FFFFFF" x="196" y="157" width="375" height="514"></rect>
                        <path d="M306.625871,754 L192.150212,754 C192.052321,753.088316 192,752.166632 192,751.226615 C192,736.88968 203.770546,725.266129 218.290478,725.266129 C220.705685,725.266129 223.044942,725.594468 225.266054,726.197813 C231.733609,710.654189 247.205447,699.707317 265.274771,699.707317 C281.578682,699.707317 295.76781,708.622484 303.136637,721.77773 C304.875046,721.421057 306.674215,721.231053 308.518953,721.231053 C311.470299,721.231053 314.30768,721.712446 316.955531,722.598858 C324.320275,714.575594 334.909332,709.543822 346.677039,709.543822 C350.377531,709.543822 353.961656,710.051819 357.364764,710.985295 C367.274118,686.936669 390.979506,670 418.664669,670 C443.64493,670 465.384998,683.793277 476.675248,704.146677 C479.338775,703.594843 482.095396,703.300875 484.921838,703.300875 C492.527112,703.300875 499.63847,705.407644 505.705104,709.059033 C512.958689,702.302932 522.694785,698.164175 533.400611,698.164175 C555.823369,698.164175 574,716.28703 574,738.646631 C574,744.082456 572.919074,749.265572 570.969269,754 L306.625871,754 Z" id="Combined-Shape-Copy-17" fill="#FFFFFE" transform="translate(383.000000, 712.000000) scale(1, -1) translate(-383.000000, -712.000000) "></path>
                        <path d="M214.431738,158 L0.281231881,158 C0.0979571721,156.270422 0,154.521873 0,152.738542 C0,125.539586 22.0372038,103.488258 49.221899,103.488258 C53.7437285,103.488258 58.1233621,104.111159 62.281802,105.255779 C74.3905725,75.7675825 103.357456,55 137.18744,55 C167.712158,55 194.277511,71.913185 208.073673,96.87033 C211.328379,96.1936761 214.696842,95.8332157 218.150622,95.8332157 C223.770029,95.8332157 229.168762,96.7777476 234.198018,98.514416 C247.996128,83.6685378 267.695055,74.380046 289.563894,74.380046 C296.505663,74.380046 303.229137,75.3355641 309.613042,77.0913891 C328.202041,31.8570683 372.67108,0 424.605794,0 C471.466372,0 512.248657,25.9444973 533.428086,64.2282732 C538.424607,63.1902993 543.595764,62.6373599 548.897897,62.6373599 C563.164663,62.6373599 576.50489,66.6000921 587.885316,73.4681811 C601.492347,60.7602763 619.756329,52.975472 639.839434,52.975472 C681.902381,52.975472 716,87.0636992 716,129.121044 C716,139.345572 713.972286,149.094766 710.314638,158 L214.431738,158 Z" id="Combined-Shape-Copy-6" fill-opacity="0.5" fill="#FFFFFE" transform="translate(358.000000, 79.000000) scale(-1, 1) translate(-358.000000, -79.000000) "></path>
                        <path d="M306.625871,158 L192.150212,158 C192.052321,157.088316 192,156.166632 192,155.226615 C192,140.88968 203.770546,129.266129 218.290478,129.266129 C220.705685,129.266129 223.044942,129.594468 225.266054,130.197813 C231.733609,114.654189 247.205447,103.707317 265.274771,103.707317 C281.578682,103.707317 295.76781,112.622484 303.136637,125.77773 C304.875046,125.421057 306.674215,125.231053 308.518953,125.231053 C311.470299,125.231053 314.30768,125.712446 316.955531,126.598858 C324.320275,118.575594 334.909332,113.543822 346.677039,113.543822 C350.377531,113.543822 353.961656,114.051819 357.364764,114.985295 C367.274118,90.9366692 390.979506,74 418.664669,74 C443.64493,74 465.384998,87.7932771 476.675248,108.146677 C479.338775,107.594843 482.095396,107.300875 484.921838,107.300875 C492.527112,107.300875 499.63847,109.407644 505.705104,113.059033 C512.958689,106.302932 522.694785,102.164175 533.400611,102.164175 C555.823369,102.164175 574,120.28703 574,142.646631 C574,148.082456 572.919074,153.265572 570.969269,158 L306.625871,158 Z" id="Combined-Shape-Copy-16" fill="#FFFFFE" transform="translate(383.000000, 116.000000) scale(-1, 1) translate(-383.000000, -116.000000) "></path>
                    </g>
                </g>
            </g>
        </g>
    </g>
</svg>