<?xml version="1.0" encoding="UTF-8"?>
<svg width="975px" height="472px" viewBox="0 0 975 472" version="1.1" xmlns="http://www.w3.org/2000/svg" xmlns:xlink="http://www.w3.org/1999/xlink">
    <!-- Generator: Sketch 49.1 (51147) - http://www.bohemiancoding.com/sketch -->
    <title>Group 16</title>
    <desc>Created with Sketch.</desc>
    <defs></defs>
    <g id="Page-1" stroke="none" stroke-width="1" fill="none" fill-rule="evenodd">
        <g id="Avaleht_1025px" transform="translate(-25.000000, -2200.000000)">
            <g id="Group-16" transform="translate(25.000000, 2200.000000)">
                <path d="M260.431738,158 L46.2812319,158 C46.0979572,156.270422 46,154.521873 46,152.738542 C46,125.539586 68.0372038,103.488258 95.221899,103.488258 C99.7437285,103.488258 104.123362,104.111159 108.281802,105.255779 C120.390572,75.7675825 149.357456,55 183.18744,55 C213.712158,55 240.277511,71.913185 254.073673,96.87033 C257.328379,96.1936761 260.696842,95.8332157 264.150622,95.8332157 C269.770029,95.8332157 275.168762,96.7777476 280.198018,98.514416 C293.996128,83.6685378 313.695055,74.380046 335.563894,74.380046 C342.505663,74.380046 349.229137,75.3355641 355.613042,77.0913891 C374.202041,31.8570683 418.67108,0 470.605794,0 C517.466372,0 558.248657,25.9444973 579.428086,64.2282732 C584.424607,63.1902993 589.595764,62.6373599 594.897897,62.6373599 C609.164663,62.6373599 622.50489,66.6000921 633.885316,73.4681811 C647.492347,60.7602763 665.756329,52.975472 685.839434,52.975472 C727.902381,52.975472 762,87.0636992 762,129.121044 C762,139.345572 759.972286,149.094766 756.314638,158 L260.431738,158 Z" id="Combined-Shape-Copy-3" fill-opacity="0.5" fill="#FFFFFE" transform="translate(404.000000, 79.000000) scale(-1, 1) translate(-404.000000, -79.000000) "></path>
                <path d="M205.267471,158 L72.1745874,158 C72.0608113,156.925311 72,155.838833 72,154.730744 C72,137.830422 85.6805883,124.128626 102.556714,124.128626 C105.363844,124.128626 108.082699,124.515672 110.664238,125.226892 C118.181303,106.904129 136.163803,94 157.165291,94 C176.114887,94 192.606529,104.509163 201.171118,120.016516 C203.191624,119.596071 205.282749,119.372095 207.426839,119.372095 C210.967523,119.372095 214.367085,119.976679 217.52894,121.08684 C226.076412,111.888566 238.273625,106.134459 251.813488,106.134459 C256.114066,106.134459 260.279406,106.727122 264.234374,107.816178 C275.750667,79.7594474 303.300211,60 335.474904,60 C364.506059,60 389.771578,76.0921566 402.892698,99.8377897 C405.988153,99.1939831 409.191798,98.8510207 412.476586,98.8510207 C421.31516,98.8510207 429.579722,101.308918 436.630146,105.568872 C445.06,97.6867536 456.374937,92.8582041 468.816861,92.8582041 C494.875778,92.8582041 516,114.001535 516,140.087736 C516,146.429532 514.743786,152.4765 512.477794,158 L205.267471,158 Z" id="Combined-Shape" fill="#FFFFFE" transform="translate(294.000000, 109.000000) scale(-1, 1) translate(-294.000000, -109.000000) "></path>
                <path d="M592.267471,472 L459.174587,472 C459.060811,470.925311 459,469.838833 459,468.730744 C459,451.830422 472.680588,438.128626 489.556714,438.128626 C492.363844,438.128626 495.082699,438.515672 497.664238,439.226892 C505.181303,420.904129 523.163803,408 544.165291,408 C563.114887,408 579.606529,418.509163 588.171118,434.016516 C590.191624,433.596071 592.282749,433.372095 594.426839,433.372095 C597.967523,433.372095 601.367085,433.976679 604.52894,435.08684 C613.076412,425.888566 625.273625,420.134459 638.813488,420.134459 C643.114066,420.134459 647.279406,420.727122 651.234374,421.816178 C662.750667,393.759447 690.300211,374 722.474904,374 C751.506059,374 776.771578,390.092157 789.892698,413.83779 C792.988153,413.193983 796.191798,412.851021 799.476586,412.851021 C808.31516,412.851021 816.579722,415.308918 823.630146,419.568872 C832.06,411.686754 843.374937,406.858204 855.816861,406.858204 C881.875778,406.858204 903,428.001535 903,454.087736 C903,460.429532 901.743786,466.4765 899.477794,472 L592.267471,472 Z" id="Combined-Shape" fill="#FFFFFE" transform="translate(681.000000, 423.000000) scale(1, -1) translate(-681.000000, -423.000000) "></path>
                <rect id="Rectangle-2" fill="#FFFFFF" x="0" y="156" width="975" height="219" rx="4"></rect>
            </g>
        </g>
    </g>
</svg>