<?xml version="1.0" encoding="UTF-8"?>
<svg width="700px" height="981px" viewBox="0 0 700 981" version="1.1" xmlns="http://www.w3.org/2000/svg" xmlns:xlink="http://www.w3.org/1999/xlink">
    <!-- Generator: Sketch 49.1 (51147) - http://www.bohemiancoding.com/sketch -->
    <title>Group 8</title>
    <desc>Created with Sketch.</desc>
    <defs>
        <rect id="path-1" x="0" y="0" width="700" height="1003"></rect>
        <linearGradient x1="50%" y1="-250.154523%" x2="50%" y2="100%" id="linearGradient-3">
            <stop stop-color="#15ADC2" offset="0%"></stop>
            <stop stop-color="#2E3374" offset="100%"></stop>
        </linearGradient>
    </defs>
    <g id="Page-1" stroke="none" stroke-width="1" fill="none" fill-rule="evenodd">
        <g id="Avaleht_700px" transform="translate(0.000000, -2548.000000)">
            <g id="Group-8" transform="translate(0.000000, 2531.000000)">
                <mask id="mask-2" fill="white">
                    <use xlink:href="#path-1"></use>
                </mask>
                <g id="Mask"></g>
                <g mask="url(#mask-2)">
                    <g transform="translate(-429.000000, 10.000000)">
                        <rect id="Rectangle-27-Copy-6" fill="url(#linearGradient-3)" x="96" y="173" width="1036" height="643"></rect>
                        <path d="M287.24253,0 L482.47646,0 L1029.72572,0 C1033.76224,9.80702993 1036,20.5434843 1036,31.8034075 C1036,78.1197237 998.370357,115.659923 951.950292,115.659923 C929.786866,115.659923 909.630996,107.086784 894.614472,93.0920031 C882.055197,100.655595 867.333114,105.019616 851.588516,105.019616 C845.737157,105.019616 840.030343,104.410683 834.516254,103.267598 C811.14294,145.428212 766.136195,174 714.421534,174 C657.107128,174 608.031734,138.916899 587.517181,89.101888 C580.471996,91.035518 573.052066,92.0877974 565.39123,92.0877974 C534.266455,92.0877974 507.12456,75.0745887 492.797226,49.861764 C487.418763,52.3351823 481.435423,53.7169302 475.129894,53.7169302 C472.151405,53.7169302 469.246492,53.4054643 466.439681,52.8207828 C454.542074,74.3856946 431.632504,89 405.308434,89 C376.133953,89 351.153338,71.0551957 340.710912,45.5751036 C337.124734,46.5641443 333.347803,47.1023791 329.448243,47.1023791 C315.414173,47.1023791 302.970892,40.2742271 295.243019,29.7512667 C289.82394,48.6565918 272.48882,62.482947 251.94086,62.482947 C240.059024,62.482947 229.25344,57.8514812 221.203065,50.2910821 C214.470024,54.3771604 206.5775,56.7347352 198.136804,56.7347352 C194.999884,56.7347352 191.940455,56.4057713 188.984345,55.7882425 C176.453887,78.5646662 152.325722,94 124.601436,94 C93.8751208,94 67.5657493,75.0470606 56.5678752,48.1355027 C52.7909435,49.1801074 48.8131112,49.7485802 44.7061285,49.7485802 C20.015442,49.7485802 0,29.6240675 0,4.80171911 C0,3.17421335 0.0889702756,1.57844973 0.255430791,0 L287.24253,0 Z" id="Combined-Shape-Copy-22" fill="#27558A" transform="translate(518.000000, 87.000000) scale(-1, -1) translate(-518.000000, -87.000000) "></path>
                        <path d="M1128.24253,3 L1323.47646,3 L1870.72572,3 C1874.76224,12.8070299 1877,23.5434843 1877,34.8034075 C1877,81.1197237 1839.37036,118.659923 1792.95029,118.659923 C1770.78687,118.659923 1750.631,110.086784 1735.61447,96.0920031 C1723.0552,103.655595 1708.33311,108.019616 1692.58852,108.019616 C1686.73716,108.019616 1681.03034,107.410683 1675.51625,106.267598 C1652.14294,148.428212 1607.13619,177 1555.42153,177 C1498.10713,177 1449.03173,141.916899 1428.51718,92.101888 C1421.472,94.035518 1414.05207,95.0877974 1406.39123,95.0877974 C1375.26646,95.0877974 1348.12456,78.0745887 1333.79723,52.861764 C1328.41876,55.3351823 1322.43542,56.7169302 1316.12989,56.7169302 C1313.15141,56.7169302 1310.24649,56.4054643 1307.43968,55.8207828 C1295.54207,77.3856946 1272.6325,92 1246.30843,92 C1217.13395,92 1192.15334,74.0551957 1181.71091,48.5751036 C1178.12473,49.5641443 1174.3478,50.1023791 1170.44824,50.1023791 C1156.41417,50.1023791 1143.97089,43.2742271 1136.24302,32.7512667 C1130.82394,51.6565918 1113.48882,65.482947 1092.94086,65.482947 C1081.05902,65.482947 1070.25344,60.8514812 1062.20307,53.2910821 C1055.47002,57.3771604 1047.5775,59.7347352 1039.1368,59.7347352 C1035.99988,59.7347352 1032.94045,59.4057713 1029.98435,58.7882425 C1017.45389,81.5646662 993.325722,97 965.601436,97 C934.875121,97 908.565749,78.0470606 897.567875,51.1355027 C893.790944,52.1801074 889.813111,52.7485802 885.706128,52.7485802 C861.015442,52.7485802 841,32.6240675 841,7.80171911 C841,6.17421335 841.08897,4.57844973 841.255431,3 L1128.24253,3 Z" id="Combined-Shape-Copy-26" fill="#27558A" transform="translate(1359.000000, 90.000000) scale(-1, -1) translate(-1359.000000, -90.000000) "></path>
                        <g id="Group-3-Copy-11" stroke-width="1" fill="none" transform="translate(786.500000, 177.000000) scale(-1, 1) rotate(-270.000000) translate(-786.500000, -177.000000) translate(758.000000, 119.000000)">
                            <path d="M11,39.4996532 C7.96286255,39.4996532 5.5,37.0376395 5.5,34 C5.5,37.0376395 3.03783102,39.4996532 0,39.4996532 C3.03783102,39.4996532 5.5,41.9623605 5.5,45 C5.5,41.9623605 7.96286255,39.4996532 11,39.4996532" id="Fill-49" fill="#FFFFFE"></path>
                            <path d="M57,40.0003368 C54.7911755,40.0003368 53,38.2096842 53,36 C53,38.2096842 51.2094981,40.0003368 49,40.0003368 C51.2094981,40.0003368 53,41.7909895 53,44 C53,41.7909895 54.7911755,40.0003368 57,40.0003368" id="Fill-50" fill="#FFFFFE"></path>
                            <path d="M19,108.500343 C15.13376,108.500343 11.99968,105.1424 11.99968,101 C11.99968,105.1424 8.8656,108.500343 5,108.500343 C8.8656,108.500343 11.99968,111.858286 11.99968,116 C11.99968,111.858286 15.13376,108.500343 19,108.500343" id="Fill-51" fill="#FFFFFE"></path>
                            <path d="M50,7.5 C45.8578792,7.5 42.5,4.14212077 42.5,0 C42.5,4.14212077 39.1421208,7.5 35,7.5 C39.1421208,7.5 42.5,10.8578792 42.5,15 C42.5,10.8578792 45.8578792,7.5 50,7.5" id="Fill-52" fill="#FFFFFE"></path>
                        </g>
                        <path d="M598.24253,814 L793.47646,814 L1340.72572,814 C1344.76224,823.80703 1347,834.543484 1347,845.803408 C1347,892.119724 1309.37036,929.659923 1262.95029,929.659923 C1240.78687,929.659923 1220.631,921.086784 1205.61447,907.092003 C1193.0552,914.655595 1178.33311,919.019616 1162.58852,919.019616 C1156.73716,919.019616 1151.03034,918.410683 1145.51625,917.267598 C1122.14294,959.428212 1077.13619,988 1025.42153,988 C968.107128,988 919.031734,952.916899 898.517181,903.101888 C891.471996,905.035518 884.052066,906.087797 876.39123,906.087797 C845.266455,906.087797 818.12456,889.074589 803.797226,863.861764 C798.418763,866.335182 792.435423,867.71693 786.129894,867.71693 C783.151405,867.71693 780.246492,867.405464 777.439681,866.820783 C765.542074,888.385695 742.632504,903 716.308434,903 C687.133953,903 662.153338,885.055196 651.710912,859.575104 C648.124734,860.564144 644.347803,861.102379 640.448243,861.102379 C626.414173,861.102379 613.970892,854.274227 606.243019,843.751267 C600.82394,862.656592 583.48882,876.482947 562.94086,876.482947 C551.059024,876.482947 540.25344,871.851481 532.203065,864.291082 C525.470024,868.37716 517.5775,870.734735 509.136804,870.734735 C505.999884,870.734735 502.940455,870.405771 499.984345,869.788243 C487.453887,892.564666 463.325722,908 435.601436,908 C404.875121,908 378.565749,889.047061 367.567875,862.135503 C363.790944,863.180107 359.813111,863.74858 355.706128,863.74858 C331.015442,863.74858 311,843.624068 311,818.801719 C311,817.174213 311.08897,815.57845 311.255431,814 L598.24253,814 Z" id="Combined-Shape-Copy-23" fill="#2E3374"></path>
                    </g>
                </g>
            </g>
        </g>
    </g>
</svg>