<?xml version="1.0" encoding="UTF-8"?>
<svg width="375px" height="624px" viewBox="0 0 375 624" version="1.1" xmlns="http://www.w3.org/2000/svg" xmlns:xlink="http://www.w3.org/1999/xlink">
    <!-- Generator: Sketch 49.1 (51147) - http://www.bohemiancoding.com/sketch -->
    <title>Group 9</title>
    <desc>Created with Sketch.</desc>
    <defs>
        <rect id="path-1" x="0" y="0" width="375" height="632"></rect>
    </defs>
    <g id="Page-1" stroke="none" stroke-width="1" fill="none" fill-rule="evenodd">
        <g id="Avaleht_375px" transform="translate(0.000000, -1161.000000)">
            <g id="Group-9" transform="translate(0.000000, 1157.000000)">
                <mask id="mask-2" fill="white">
                    <use xlink:href="#path-1"></use>
                </mask>
                <g id="Mask"></g>
                <g mask="url(#mask-2)">
                    <g transform="translate(-196.000000, 4.000000)">
                        <path d="M214.431738,158 L0.281231881,158 C0.0979571721,156.270422 0,154.521873 0,152.738542 C0,125.539586 22.0372038,103.488258 49.221899,103.488258 C53.7437285,103.488258 58.1233621,104.111159 62.281802,105.255779 C74.3905725,75.7675825 103.357456,55 137.18744,55 C167.712158,55 194.277511,71.913185 208.073673,96.87033 C211.328379,96.1936761 214.696842,95.8332157 218.150622,95.8332157 C223.770029,95.8332157 229.168762,96.7777476 234.198018,98.514416 C247.996128,83.6685378 267.695055,74.380046 289.563894,74.380046 C296.505663,74.380046 303.229137,75.3355641 309.613042,77.0913891 C328.202041,31.8570683 372.67108,0 424.605794,0 C471.466372,0 512.248657,25.9444973 533.428086,64.2282732 C538.424607,63.1902993 543.595764,62.6373599 548.897897,62.6373599 C563.164663,62.6373599 576.50489,66.6000921 587.885316,73.4681811 C601.492347,60.7602763 619.756329,52.975472 639.839434,52.975472 C681.902381,52.975472 716,87.0636992 716,129.121044 C716,139.345572 713.972286,149.094766 710.314638,158 L214.431738,158 Z" id="Combined-Shape-Copy-7" fill="#DFEAEC" transform="translate(358.000000, 79.000000) scale(-1, 1) translate(-358.000000, -79.000000) "></path>
                        <rect id="Rectangle-2-Copy-4" fill="#BEE3E8" x="196" y="157" width="375" height="303"></rect>
                        <path d="M264.431738,624 L50.2812319,624 C50.0979572,622.270422 50,620.521873 50,618.738542 C50,591.539586 72.0372038,569.488258 99.221899,569.488258 C103.743728,569.488258 108.123362,570.111159 112.281802,571.255779 C124.390572,541.767583 153.357456,521 187.18744,521 C217.712158,521 244.277511,537.913185 258.073673,562.87033 C261.328379,562.193676 264.696842,561.833216 268.150622,561.833216 C273.770029,561.833216 279.168762,562.777748 284.198018,564.514416 C297.996128,549.668538 317.695055,540.380046 339.563894,540.380046 C346.505663,540.380046 353.229137,541.335564 359.613042,543.091389 C378.202041,497.857068 422.67108,466 474.605794,466 C521.466372,466 562.248657,491.944497 583.428086,530.228273 C588.424607,529.190299 593.595764,528.63736 598.897897,528.63736 C613.164663,528.63736 626.50489,532.600092 637.885316,539.468181 C651.492347,526.760276 669.756329,518.975472 689.839434,518.975472 C731.902381,518.975472 766,553.063699 766,595.121044 C766,605.345572 763.972286,615.094766 760.314638,624 L264.431738,624 Z" id="Combined-Shape-Copy-8" fill="#DFEAEC" transform="translate(408.000000, 545.000000) scale(1, -1) translate(-408.000000, -545.000000) "></path>
                        <path d="M306.625871,543 L192.150212,543 C192.052321,542.088316 192,541.166632 192,540.226615 C192,525.88968 203.770546,514.266129 218.290478,514.266129 C220.705685,514.266129 223.044942,514.594468 225.266054,515.197813 C231.733609,499.654189 247.205447,488.707317 265.274771,488.707317 C281.578682,488.707317 295.76781,497.622484 303.136637,510.77773 C304.875046,510.421057 306.674215,510.231053 308.518953,510.231053 C311.470299,510.231053 314.30768,510.712446 316.955531,511.598858 C324.320275,503.575594 334.909332,498.543822 346.677039,498.543822 C350.377531,498.543822 353.961656,499.051819 357.364764,499.985295 C367.274118,475.936669 390.979506,459 418.664669,459 C443.64493,459 465.384998,472.793277 476.675248,493.146677 C479.338775,492.594843 482.095396,492.300875 484.921838,492.300875 C492.527112,492.300875 499.63847,494.407644 505.705104,498.059033 C512.958689,491.302932 522.694785,487.164175 533.400611,487.164175 C555.823369,487.164175 574,505.28703 574,527.646631 C574,533.082456 572.919074,538.265572 570.969269,543 L306.625871,543 Z" id="Combined-Shape-Copy-20" fill="#BEE3E8" transform="translate(383.000000, 501.000000) scale(1, -1) translate(-383.000000, -501.000000) "></path>
                        <path d="M306.625871,158 L192.150212,158 C192.052321,157.088316 192,156.166632 192,155.226615 C192,140.88968 203.770546,129.266129 218.290478,129.266129 C220.705685,129.266129 223.044942,129.594468 225.266054,130.197813 C231.733609,114.654189 247.205447,103.707317 265.274771,103.707317 C281.578682,103.707317 295.76781,112.622484 303.136637,125.77773 C304.875046,125.421057 306.674215,125.231053 308.518953,125.231053 C311.470299,125.231053 314.30768,125.712446 316.955531,126.598858 C324.320275,118.575594 334.909332,113.543822 346.677039,113.543822 C350.377531,113.543822 353.961656,114.051819 357.364764,114.985295 C367.274118,90.9366692 390.979506,74 418.664669,74 C443.64493,74 465.384998,87.7932771 476.675248,108.146677 C479.338775,107.594843 482.095396,107.300875 484.921838,107.300875 C492.527112,107.300875 499.63847,109.407644 505.705104,113.059033 C512.958689,106.302932 522.694785,102.164175 533.400611,102.164175 C555.823369,102.164175 574,120.28703 574,142.646631 C574,148.082456 572.919074,153.265572 570.969269,158 L306.625871,158 Z" id="Combined-Shape-Copy-21" fill="#BEE3E8" transform="translate(383.000000, 116.000000) scale(-1, 1) translate(-383.000000, -116.000000) "></path>
                    </g>
                </g>
            </g>
        </g>
    </g>
</svg>