<?xml version="1.0" encoding="UTF-8"?>
<svg width="12530px" height="174px" viewBox="0 0 12530 174" version="1.1" xmlns="http://www.w3.org/2000/svg" xmlns:xlink="http://www.w3.org/1999/xlink">
    <!-- Generator: Sketch 49.1 (51147) - http://www.bohemiancoding.com/sketch -->
    <title>Group 25</title>
    <desc>Created with Sketch.</desc>
    <defs></defs>
    <g id="Page-1" stroke="none" stroke-width="1" fill="none" fill-rule="evenodd">
        <g id="Group-25" fill="#2E3374">
            <g id="Group-21">
                <path d="M2815,60.3634678 C2803.29205,92.6167394 2772.31907,115.659923 2735.95029,115.659923 C2713.78687,115.659923 2693.631,107.086784 2678.61447,93.0920031 C2666.0552,100.655595 2651.33311,105.019616 2635.58852,105.019616 C2629.73716,105.019616 2624.03034,104.410683 2618.51625,103.267598 C2595.14294,145.428212 2550.1362,174 2498.42153,174 C2441.10713,174 2392.03173,138.916899 2371.51718,89.101888 C2364.472,91.035518 2357.05207,92.0877974 2349.39123,92.0877974 C2318.26646,92.0877974 2291.12456,75.0745887 2276.79723,49.861764 C2271.41876,52.3351823 2265.43542,53.7169302 2259.12989,53.7169302 C2256.15141,53.7169302 2253.24649,53.4054643 2250.43968,52.8207828 C2238.54207,74.3856946 2215.6325,89 2189.30843,89 C2160.13395,89 2135.15334,71.0551957 2124.71091,45.5751036 C2121.12473,46.5641443 2117.3478,47.1023791 2113.44824,47.1023791 C2099.41417,47.1023791 2086.97089,40.2742271 2079.24302,29.7512667 C2073.82394,48.6565918 2056.48882,62.482947 2035.94086,62.482947 C2024.05902,62.482947 2013.25344,57.8514812 2005.20307,50.2910821 C1998.47003,54.3771604 1990.5775,56.7347352 1982.1368,56.7347352 C1978.99988,56.7347352 1975.94046,56.4057713 1972.98435,55.7882425 C1960.45389,78.5646662 1936.32572,94 1908.60144,94 C1877.87512,94 1851.56575,75.0470606 1840.56788,48.1355027 C1836.79094,49.1801074 1832.81311,49.7485802 1828.70613,49.7485802 C1812.17209,49.7485802 1797.73456,40.7242101 1790,27.3079086 L1790,0 L2071.24253,0 L2266.47646,0 L2813.72572,0 C2814.17274,1.08606814 2814.5977,2.18353493 2815,3.291849 L2815,60.3634678 Z" id="Combined-Shape-Copy-2"></path>
                <path d="M1980,60.3634678 C1968.29205,92.6167394 1937.31907,115.659923 1900.95029,115.659923 C1878.78687,115.659923 1858.631,107.086784 1843.61447,93.0920031 C1831.0552,100.655595 1816.33311,105.019616 1800.58852,105.019616 C1794.73716,105.019616 1789.03034,104.410683 1783.51625,103.267598 C1760.14294,145.428212 1715.1362,174 1663.42153,174 C1606.10713,174 1557.03173,138.916899 1536.51718,89.101888 C1529.472,91.035518 1522.05207,92.0877974 1514.39123,92.0877974 C1483.26646,92.0877974 1456.12456,75.0745887 1441.79723,49.861764 C1436.41876,52.3351823 1430.43542,53.7169302 1424.12989,53.7169302 C1421.15141,53.7169302 1418.24649,53.4054643 1415.43968,52.8207828 C1403.54207,74.3856946 1380.6325,89 1354.30843,89 C1325.13395,89 1300.15334,71.0551957 1289.71091,45.5751036 C1286.12473,46.5641443 1282.3478,47.1023791 1278.44824,47.1023791 C1264.41417,47.1023791 1251.97089,40.2742271 1244.24302,29.7512667 C1238.82394,48.6565918 1221.48882,62.482947 1200.94086,62.482947 C1189.05902,62.482947 1178.25344,57.8514812 1170.20307,50.2910821 C1163.47003,54.3771604 1155.5775,56.7347352 1147.1368,56.7347352 C1143.99988,56.7347352 1140.94046,56.4057713 1137.98435,55.7882425 C1125.45389,78.5646662 1101.32572,94 1073.60144,94 C1042.87512,94 1016.56575,75.0470606 1005.56788,48.1355027 C1001.79094,49.1801074 997.813112,49.7485802 993.706129,49.7485802 C977.172091,49.7485802 962.734558,40.7242101 955,27.3079086 L955.000001,0 L1236.24253,0 L1431.47646,0 L1978.72572,0 C1979.17274,1.08606814 1979.5977,2.18353493 1980,3.291849 L1980,60.3634678 Z" id="Combined-Shape-Copy-2"></path>
                <path d="M1025,60.3634678 C1013.29205,92.6167394 982.319069,115.659923 945.950292,115.659923 C923.786866,115.659923 903.630996,107.086784 888.614472,93.0920031 C876.055197,100.655595 861.333114,105.019616 845.588516,105.019616 C839.737158,105.019616 834.030343,104.410683 828.516254,103.267598 C805.14294,145.428212 760.136195,174 708.421534,174 C651.107128,174 602.031735,138.916899 581.517182,89.101888 C574.471996,91.035518 567.052066,92.0877974 559.39123,92.0877974 C528.266456,92.0877974 501.12456,75.0745887 486.797227,49.861764 C481.418763,52.3351823 475.435424,53.7169302 469.129895,53.7169302 C466.151406,53.7169302 463.246493,53.4054643 460.439682,52.8207828 C448.542075,74.3856946 425.632504,89 399.308435,89 C370.133954,89 345.153338,71.0551957 334.710912,45.5751036 C331.124735,46.5641443 327.347803,47.1023791 323.448244,47.1023791 C309.414173,47.1023791 296.970892,40.2742271 289.243019,29.7512667 C283.823941,48.6565918 266.48882,62.482947 245.940861,62.482947 C234.059024,62.482947 223.253441,57.8514812 215.203066,50.2910821 C208.470025,54.3771604 200.577501,56.7347352 192.136804,56.7347352 C188.999885,56.7347352 185.940455,56.4057713 182.984346,55.7882425 C170.453887,78.5646662 146.325723,94 118.601437,94 C87.8751216,94 61.5657501,75.0470606 50.567876,48.1355027 C46.7909443,49.1801074 42.813112,49.7485802 38.7061293,49.7485802 C22.1720915,49.7485802 7.73455843,40.7242101 2.04281037e-13,27.3079086 L8.56394756e-07,0 L281.242531,0 L476.476461,0 L1023.72572,0 C1024.17274,1.08606814 1024.5977,2.18353493 1025,3.291849 L1025,60.3634678 Z" id="Combined-Shape-Copy-8" transform="translate(512.500000, 87.000000) scale(-1, 1) translate(-512.500000, -87.000000) "></path>
            </g>
            <g id="Group-21-Copy" transform="translate(2649.000000, 0.000000)">
                <path d="M2815,60.3634678 C2803.29205,92.6167394 2772.31907,115.659923 2735.95029,115.659923 C2713.78687,115.659923 2693.631,107.086784 2678.61447,93.0920031 C2666.0552,100.655595 2651.33311,105.019616 2635.58852,105.019616 C2629.73716,105.019616 2624.03034,104.410683 2618.51625,103.267598 C2595.14294,145.428212 2550.1362,174 2498.42153,174 C2441.10713,174 2392.03173,138.916899 2371.51718,89.101888 C2364.472,91.035518 2357.05207,92.0877974 2349.39123,92.0877974 C2318.26646,92.0877974 2291.12456,75.0745887 2276.79723,49.861764 C2271.41876,52.3351823 2265.43542,53.7169302 2259.12989,53.7169302 C2256.15141,53.7169302 2253.24649,53.4054643 2250.43968,52.8207828 C2238.54207,74.3856946 2215.6325,89 2189.30843,89 C2160.13395,89 2135.15334,71.0551957 2124.71091,45.5751036 C2121.12473,46.5641443 2117.3478,47.1023791 2113.44824,47.1023791 C2099.41417,47.1023791 2086.97089,40.2742271 2079.24302,29.7512667 C2073.82394,48.6565918 2056.48882,62.482947 2035.94086,62.482947 C2024.05902,62.482947 2013.25344,57.8514812 2005.20307,50.2910821 C1998.47003,54.3771604 1990.5775,56.7347352 1982.1368,56.7347352 C1978.99988,56.7347352 1975.94046,56.4057713 1972.98435,55.7882425 C1960.45389,78.5646662 1936.32572,94 1908.60144,94 C1877.87512,94 1851.56575,75.0470606 1840.56788,48.1355027 C1836.79094,49.1801074 1832.81311,49.7485802 1828.70613,49.7485802 C1812.17209,49.7485802 1797.73456,40.7242101 1790,27.3079086 L1790,0 L2071.24253,0 L2266.47646,0 L2813.72572,0 C2814.17274,1.08606814 2814.5977,2.18353493 2815,3.291849 L2815,60.3634678 Z" id="Combined-Shape-Copy-2"></path>
                <path d="M1980,60.3634678 C1968.29205,92.6167394 1937.31907,115.659923 1900.95029,115.659923 C1878.78687,115.659923 1858.631,107.086784 1843.61447,93.0920031 C1831.0552,100.655595 1816.33311,105.019616 1800.58852,105.019616 C1794.73716,105.019616 1789.03034,104.410683 1783.51625,103.267598 C1760.14294,145.428212 1715.1362,174 1663.42153,174 C1606.10713,174 1557.03173,138.916899 1536.51718,89.101888 C1529.472,91.035518 1522.05207,92.0877974 1514.39123,92.0877974 C1483.26646,92.0877974 1456.12456,75.0745887 1441.79723,49.861764 C1436.41876,52.3351823 1430.43542,53.7169302 1424.12989,53.7169302 C1421.15141,53.7169302 1418.24649,53.4054643 1415.43968,52.8207828 C1403.54207,74.3856946 1380.6325,89 1354.30843,89 C1325.13395,89 1300.15334,71.0551957 1289.71091,45.5751036 C1286.12473,46.5641443 1282.3478,47.1023791 1278.44824,47.1023791 C1264.41417,47.1023791 1251.97089,40.2742271 1244.24302,29.7512667 C1238.82394,48.6565918 1221.48882,62.482947 1200.94086,62.482947 C1189.05902,62.482947 1178.25344,57.8514812 1170.20307,50.2910821 C1163.47003,54.3771604 1155.5775,56.7347352 1147.1368,56.7347352 C1143.99988,56.7347352 1140.94046,56.4057713 1137.98435,55.7882425 C1125.45389,78.5646662 1101.32572,94 1073.60144,94 C1042.87512,94 1016.56575,75.0470606 1005.56788,48.1355027 C1001.79094,49.1801074 997.813112,49.7485802 993.706129,49.7485802 C977.172091,49.7485802 962.734558,40.7242101 955,27.3079086 L955.000001,0 L1236.24253,0 L1431.47646,0 L1978.72572,0 C1979.17274,1.08606814 1979.5977,2.18353493 1980,3.291849 L1980,60.3634678 Z" id="Combined-Shape-Copy-2"></path>
                <path d="M1025,60.3634678 C1013.29205,92.6167394 982.319069,115.659923 945.950292,115.659923 C923.786866,115.659923 903.630996,107.086784 888.614472,93.0920031 C876.055197,100.655595 861.333114,105.019616 845.588516,105.019616 C839.737158,105.019616 834.030343,104.410683 828.516254,103.267598 C805.14294,145.428212 760.136195,174 708.421534,174 C651.107128,174 602.031735,138.916899 581.517182,89.101888 C574.471996,91.035518 567.052066,92.0877974 559.39123,92.0877974 C528.266456,92.0877974 501.12456,75.0745887 486.797227,49.861764 C481.418763,52.3351823 475.435424,53.7169302 469.129895,53.7169302 C466.151406,53.7169302 463.246493,53.4054643 460.439682,52.8207828 C448.542075,74.3856946 425.632504,89 399.308435,89 C370.133954,89 345.153338,71.0551957 334.710912,45.5751036 C331.124735,46.5641443 327.347803,47.1023791 323.448244,47.1023791 C309.414173,47.1023791 296.970892,40.2742271 289.243019,29.7512667 C283.823941,48.6565918 266.48882,62.482947 245.940861,62.482947 C234.059024,62.482947 223.253441,57.8514812 215.203066,50.2910821 C208.470025,54.3771604 200.577501,56.7347352 192.136804,56.7347352 C188.999885,56.7347352 185.940455,56.4057713 182.984346,55.7882425 C170.453887,78.5646662 146.325723,94 118.601437,94 C87.8751216,94 61.5657501,75.0470606 50.567876,48.1355027 C46.7909443,49.1801074 42.813112,49.7485802 38.7061293,49.7485802 C22.1720915,49.7485802 7.73455843,40.7242101 2.04281037e-13,27.3079086 L8.56394756e-07,0 L281.242531,0 L476.476461,0 L1023.72572,0 C1024.17274,1.08606814 1024.5977,2.18353493 1025,3.291849 L1025,60.3634678 Z" id="Combined-Shape-Copy-8" transform="translate(512.500000, 87.000000) scale(-1, 1) translate(-512.500000, -87.000000) "></path>
            </g>
            <g id="Group-21-Copy-2" transform="translate(5306.000000, 0.000000)">
                <path d="M2815,60.3634678 C2803.29205,92.6167394 2772.31907,115.659923 2735.95029,115.659923 C2713.78687,115.659923 2693.631,107.086784 2678.61447,93.0920031 C2666.0552,100.655595 2651.33311,105.019616 2635.58852,105.019616 C2629.73716,105.019616 2624.03034,104.410683 2618.51625,103.267598 C2595.14294,145.428212 2550.1362,174 2498.42153,174 C2441.10713,174 2392.03173,138.916899 2371.51718,89.101888 C2364.472,91.035518 2357.05207,92.0877974 2349.39123,92.0877974 C2318.26646,92.0877974 2291.12456,75.0745887 2276.79723,49.861764 C2271.41876,52.3351823 2265.43542,53.7169302 2259.12989,53.7169302 C2256.15141,53.7169302 2253.24649,53.4054643 2250.43968,52.8207828 C2238.54207,74.3856946 2215.6325,89 2189.30843,89 C2160.13395,89 2135.15334,71.0551957 2124.71091,45.5751036 C2121.12473,46.5641443 2117.3478,47.1023791 2113.44824,47.1023791 C2099.41417,47.1023791 2086.97089,40.2742271 2079.24302,29.7512667 C2073.82394,48.6565918 2056.48882,62.482947 2035.94086,62.482947 C2024.05902,62.482947 2013.25344,57.8514812 2005.20307,50.2910821 C1998.47003,54.3771604 1990.5775,56.7347352 1982.1368,56.7347352 C1978.99988,56.7347352 1975.94046,56.4057713 1972.98435,55.7882425 C1960.45389,78.5646662 1936.32572,94 1908.60144,94 C1877.87512,94 1851.56575,75.0470606 1840.56788,48.1355027 C1836.79094,49.1801074 1832.81311,49.7485802 1828.70613,49.7485802 C1812.17209,49.7485802 1797.73456,40.7242101 1790,27.3079086 L1790,0 L2071.24253,0 L2266.47646,0 L2813.72572,0 C2814.17274,1.08606814 2814.5977,2.18353493 2815,3.291849 L2815,60.3634678 Z" id="Combined-Shape-Copy-2"></path>
                <path d="M1980,60.3634678 C1968.29205,92.6167394 1937.31907,115.659923 1900.95029,115.659923 C1878.78687,115.659923 1858.631,107.086784 1843.61447,93.0920031 C1831.0552,100.655595 1816.33311,105.019616 1800.58852,105.019616 C1794.73716,105.019616 1789.03034,104.410683 1783.51625,103.267598 C1760.14294,145.428212 1715.1362,174 1663.42153,174 C1606.10713,174 1557.03173,138.916899 1536.51718,89.101888 C1529.472,91.035518 1522.05207,92.0877974 1514.39123,92.0877974 C1483.26646,92.0877974 1456.12456,75.0745887 1441.79723,49.861764 C1436.41876,52.3351823 1430.43542,53.7169302 1424.12989,53.7169302 C1421.15141,53.7169302 1418.24649,53.4054643 1415.43968,52.8207828 C1403.54207,74.3856946 1380.6325,89 1354.30843,89 C1325.13395,89 1300.15334,71.0551957 1289.71091,45.5751036 C1286.12473,46.5641443 1282.3478,47.1023791 1278.44824,47.1023791 C1264.41417,47.1023791 1251.97089,40.2742271 1244.24302,29.7512667 C1238.82394,48.6565918 1221.48882,62.482947 1200.94086,62.482947 C1189.05902,62.482947 1178.25344,57.8514812 1170.20307,50.2910821 C1163.47003,54.3771604 1155.5775,56.7347352 1147.1368,56.7347352 C1143.99988,56.7347352 1140.94046,56.4057713 1137.98435,55.7882425 C1125.45389,78.5646662 1101.32572,94 1073.60144,94 C1042.87512,94 1016.56575,75.0470606 1005.56788,48.1355027 C1001.79094,49.1801074 997.813112,49.7485802 993.706129,49.7485802 C977.172091,49.7485802 962.734558,40.7242101 955,27.3079086 L955.000001,0 L1236.24253,0 L1431.47646,0 L1978.72572,0 C1979.17274,1.08606814 1979.5977,2.18353493 1980,3.291849 L1980,60.3634678 Z" id="Combined-Shape-Copy-2"></path>
                <path d="M1025,60.3634678 C1013.29205,92.6167394 982.319069,115.659923 945.950292,115.659923 C923.786866,115.659923 903.630996,107.086784 888.614472,93.0920031 C876.055197,100.655595 861.333114,105.019616 845.588516,105.019616 C839.737158,105.019616 834.030343,104.410683 828.516254,103.267598 C805.14294,145.428212 760.136195,174 708.421534,174 C651.107128,174 602.031735,138.916899 581.517182,89.101888 C574.471996,91.035518 567.052066,92.0877974 559.39123,92.0877974 C528.266456,92.0877974 501.12456,75.0745887 486.797227,49.861764 C481.418763,52.3351823 475.435424,53.7169302 469.129895,53.7169302 C466.151406,53.7169302 463.246493,53.4054643 460.439682,52.8207828 C448.542075,74.3856946 425.632504,89 399.308435,89 C370.133954,89 345.153338,71.0551957 334.710912,45.5751036 C331.124735,46.5641443 327.347803,47.1023791 323.448244,47.1023791 C309.414173,47.1023791 296.970892,40.2742271 289.243019,29.7512667 C283.823941,48.6565918 266.48882,62.482947 245.940861,62.482947 C234.059024,62.482947 223.253441,57.8514812 215.203066,50.2910821 C208.470025,54.3771604 200.577501,56.7347352 192.136804,56.7347352 C188.999885,56.7347352 185.940455,56.4057713 182.984346,55.7882425 C170.453887,78.5646662 146.325723,94 118.601437,94 C87.8751216,94 61.5657501,75.0470606 50.567876,48.1355027 C46.7909443,49.1801074 42.813112,49.7485802 38.7061293,49.7485802 C22.1720915,49.7485802 7.73455843,40.7242101 2.04281037e-13,27.3079086 L8.56394756e-07,0 L281.242531,0 L476.476461,0 L1023.72572,0 C1024.17274,1.08606814 1024.5977,2.18353493 1025,3.291849 L1025,60.3634678 Z" id="Combined-Shape-Copy-8" transform="translate(512.500000, 87.000000) scale(-1, 1) translate(-512.500000, -87.000000) "></path>
            </g>
            <g id="Group-21-Copy-3" transform="translate(7960.000000, 0.000000)">
                <path d="M2815,60.3634678 C2803.29205,92.6167394 2772.31907,115.659923 2735.95029,115.659923 C2713.78687,115.659923 2693.631,107.086784 2678.61447,93.0920031 C2666.0552,100.655595 2651.33311,105.019616 2635.58852,105.019616 C2629.73716,105.019616 2624.03034,104.410683 2618.51625,103.267598 C2595.14294,145.428212 2550.1362,174 2498.42153,174 C2441.10713,174 2392.03173,138.916899 2371.51718,89.101888 C2364.472,91.035518 2357.05207,92.0877974 2349.39123,92.0877974 C2318.26646,92.0877974 2291.12456,75.0745887 2276.79723,49.861764 C2271.41876,52.3351823 2265.43542,53.7169302 2259.12989,53.7169302 C2256.15141,53.7169302 2253.24649,53.4054643 2250.43968,52.8207828 C2238.54207,74.3856946 2215.6325,89 2189.30843,89 C2160.13395,89 2135.15334,71.0551957 2124.71091,45.5751036 C2121.12473,46.5641443 2117.3478,47.1023791 2113.44824,47.1023791 C2099.41417,47.1023791 2086.97089,40.2742271 2079.24302,29.7512667 C2073.82394,48.6565918 2056.48882,62.482947 2035.94086,62.482947 C2024.05902,62.482947 2013.25344,57.8514812 2005.20307,50.2910821 C1998.47003,54.3771604 1990.5775,56.7347352 1982.1368,56.7347352 C1978.99988,56.7347352 1975.94046,56.4057713 1972.98435,55.7882425 C1960.45389,78.5646662 1936.32572,94 1908.60144,94 C1877.87512,94 1851.56575,75.0470606 1840.56788,48.1355027 C1836.79094,49.1801074 1832.81311,49.7485802 1828.70613,49.7485802 C1812.17209,49.7485802 1797.73456,40.7242101 1790,27.3079086 L1790,0 L2071.24253,0 L2266.47646,0 L2813.72572,0 C2814.17274,1.08606814 2814.5977,2.18353493 2815,3.291849 L2815,60.3634678 Z" id="Combined-Shape-Copy-2"></path>
                <path d="M1980,60.3634678 C1968.29205,92.6167394 1937.31907,115.659923 1900.95029,115.659923 C1878.78687,115.659923 1858.631,107.086784 1843.61447,93.0920031 C1831.0552,100.655595 1816.33311,105.019616 1800.58852,105.019616 C1794.73716,105.019616 1789.03034,104.410683 1783.51625,103.267598 C1760.14294,145.428212 1715.1362,174 1663.42153,174 C1606.10713,174 1557.03173,138.916899 1536.51718,89.101888 C1529.472,91.035518 1522.05207,92.0877974 1514.39123,92.0877974 C1483.26646,92.0877974 1456.12456,75.0745887 1441.79723,49.861764 C1436.41876,52.3351823 1430.43542,53.7169302 1424.12989,53.7169302 C1421.15141,53.7169302 1418.24649,53.4054643 1415.43968,52.8207828 C1403.54207,74.3856946 1380.6325,89 1354.30843,89 C1325.13395,89 1300.15334,71.0551957 1289.71091,45.5751036 C1286.12473,46.5641443 1282.3478,47.1023791 1278.44824,47.1023791 C1264.41417,47.1023791 1251.97089,40.2742271 1244.24302,29.7512667 C1238.82394,48.6565918 1221.48882,62.482947 1200.94086,62.482947 C1189.05902,62.482947 1178.25344,57.8514812 1170.20307,50.2910821 C1163.47003,54.3771604 1155.5775,56.7347352 1147.1368,56.7347352 C1143.99988,56.7347352 1140.94046,56.4057713 1137.98435,55.7882425 C1125.45389,78.5646662 1101.32572,94 1073.60144,94 C1042.87512,94 1016.56575,75.0470606 1005.56788,48.1355027 C1001.79094,49.1801074 997.813112,49.7485802 993.706129,49.7485802 C977.172091,49.7485802 962.734558,40.7242101 955,27.3079086 L955.000001,0 L1236.24253,0 L1431.47646,0 L1978.72572,0 C1979.17274,1.08606814 1979.5977,2.18353493 1980,3.291849 L1980,60.3634678 Z" id="Combined-Shape-Copy-2"></path>
                <path d="M1025,60.3634678 C1013.29205,92.6167394 982.319069,115.659923 945.950292,115.659923 C923.786866,115.659923 903.630996,107.086784 888.614472,93.0920031 C876.055197,100.655595 861.333114,105.019616 845.588516,105.019616 C839.737158,105.019616 834.030343,104.410683 828.516254,103.267598 C805.14294,145.428212 760.136195,174 708.421534,174 C651.107128,174 602.031735,138.916899 581.517182,89.101888 C574.471996,91.035518 567.052066,92.0877974 559.39123,92.0877974 C528.266456,92.0877974 501.12456,75.0745887 486.797227,49.861764 C481.418763,52.3351823 475.435424,53.7169302 469.129895,53.7169302 C466.151406,53.7169302 463.246493,53.4054643 460.439682,52.8207828 C448.542075,74.3856946 425.632504,89 399.308435,89 C370.133954,89 345.153338,71.0551957 334.710912,45.5751036 C331.124735,46.5641443 327.347803,47.1023791 323.448244,47.1023791 C309.414173,47.1023791 296.970892,40.2742271 289.243019,29.7512667 C283.823941,48.6565918 266.48882,62.482947 245.940861,62.482947 C234.059024,62.482947 223.253441,57.8514812 215.203066,50.2910821 C208.470025,54.3771604 200.577501,56.7347352 192.136804,56.7347352 C188.999885,56.7347352 185.940455,56.4057713 182.984346,55.7882425 C170.453887,78.5646662 146.325723,94 118.601437,94 C87.8751216,94 61.5657501,75.0470606 50.567876,48.1355027 C46.7909443,49.1801074 42.813112,49.7485802 38.7061293,49.7485802 C22.1720915,49.7485802 7.73455843,40.7242101 2.04281037e-13,27.3079086 L8.56394756e-07,0 L281.242531,0 L476.476461,0 L1023.72572,0 C1024.17274,1.08606814 1024.5977,2.18353493 1025,3.291849 L1025,60.3634678 Z" id="Combined-Shape-Copy-8" transform="translate(512.500000, 87.000000) scale(-1, 1) translate(-512.500000, -87.000000) "></path>
            </g>
            <g id="Group-21-Copy-4" transform="translate(10615.000000, 0.000000)">
                <path d="M1915,114.493678 C1910.43134,115.260658 1905.73756,115.659923 1900.95029,115.659923 C1878.78687,115.659923 1858.631,107.086784 1843.61447,93.0920031 C1831.0552,100.655595 1816.33311,105.019616 1800.58852,105.019616 C1794.73716,105.019616 1789.03034,104.410683 1783.51625,103.267598 C1760.14294,145.428212 1715.1362,174 1663.42153,174 C1606.10713,174 1557.03173,138.916899 1536.51718,89.101888 C1529.472,91.035518 1522.05207,92.0877974 1514.39123,92.0877974 C1483.26646,92.0877974 1456.12456,75.0745887 1441.79723,49.861764 C1436.41876,52.3351823 1430.43542,53.7169302 1424.12989,53.7169302 C1421.15141,53.7169302 1418.24649,53.4054643 1415.43968,52.8207828 C1403.54207,74.3856946 1380.6325,89 1354.30843,89 C1325.13395,89 1300.15334,71.0551957 1289.71091,45.5751036 C1286.12473,46.5641443 1282.3478,47.1023791 1278.44824,47.1023791 C1264.41417,47.1023791 1251.97089,40.2742271 1244.24302,29.7512667 C1238.82394,48.6565918 1221.48882,62.482947 1200.94086,62.482947 C1189.05902,62.482947 1178.25344,57.8514812 1170.20307,50.2910821 C1163.47003,54.3771604 1155.5775,56.7347352 1147.1368,56.7347352 C1143.99988,56.7347352 1140.94046,56.4057713 1137.98435,55.7882425 C1125.45389,78.5646662 1101.32572,94 1073.60144,94 C1042.87512,94 1016.56575,75.0470606 1005.56788,48.1355027 C1001.79094,49.1801074 997.813112,49.7485802 993.706129,49.7485802 C977.172091,49.7485802 962.734558,40.7242101 955,27.3079086 L955.000001,0 L1236.24253,0 L1431.47646,0 L1915,0 L1915,114.493678 Z" id="Combined-Shape"></path>
                <path d="M1025,60.3634678 C1013.29205,92.6167394 982.319069,115.659923 945.950292,115.659923 C923.786866,115.659923 903.630996,107.086784 888.614472,93.0920031 C876.055197,100.655595 861.333114,105.019616 845.588516,105.019616 C839.737158,105.019616 834.030343,104.410683 828.516254,103.267598 C805.14294,145.428212 760.136195,174 708.421534,174 C651.107128,174 602.031735,138.916899 581.517182,89.101888 C574.471996,91.035518 567.052066,92.0877974 559.39123,92.0877974 C528.266456,92.0877974 501.12456,75.0745887 486.797227,49.861764 C481.418763,52.3351823 475.435424,53.7169302 469.129895,53.7169302 C466.151406,53.7169302 463.246493,53.4054643 460.439682,52.8207828 C448.542075,74.3856946 425.632504,89 399.308435,89 C370.133954,89 345.153338,71.0551957 334.710912,45.5751036 C331.124735,46.5641443 327.347803,47.1023791 323.448244,47.1023791 C309.414173,47.1023791 296.970892,40.2742271 289.243019,29.7512667 C283.823941,48.6565918 266.48882,62.482947 245.940861,62.482947 C234.059024,62.482947 223.253441,57.8514812 215.203066,50.2910821 C208.470025,54.3771604 200.577501,56.7347352 192.136804,56.7347352 C188.999885,56.7347352 185.940455,56.4057713 182.984346,55.7882425 C170.453887,78.5646662 146.325723,94 118.601437,94 C87.8751216,94 61.5657501,75.0470606 50.567876,48.1355027 C46.7909443,49.1801074 42.813112,49.7485802 38.7061293,49.7485802 C22.1720915,49.7485802 7.73455843,40.7242101 2.04281037e-13,27.3079086 L8.56394756e-07,0 L281.242531,0 L476.476461,0 L1023.72572,0 C1024.17274,1.08606814 1024.5977,2.18353493 1025,3.291849 L1025,60.3634678 Z" id="Combined-Shape-Copy-8" transform="translate(512.500000, 87.000000) scale(-1, 1) translate(-512.500000, -87.000000) "></path>
            </g>
        </g>
    </g>
</svg>