<?xml version="1.0" encoding="UTF-8"?>
<svg width="444px" height="98px" viewBox="0 0 444 98" version="1.1" xmlns="http://www.w3.org/2000/svg" xmlns:xlink="http://www.w3.org/1999/xlink">
    <!-- Generator: Sketch 49.1 (51147) - http://www.bohemiancoding.com/sketch -->
    <title>Group 20</title>
    <desc>Created with Sketch.</desc>
    <defs></defs>
    <g id="Page-1" stroke="none" stroke-width="1" fill="none" fill-rule="evenodd" fill-opacity="0.4">
        <g id="Group-20" fill="#FFFFFE">
            <path d="M133.267471,98 L0.174587376,98 C0.0608113332,96.9253108 0,95.8388335 0,94.7307444 C0,77.8304221 13.6805883,64.1286262 30.5567141,64.1286262 C33.3638437,64.1286262 36.0826988,64.5156715 38.6642379,65.2268918 C46.1813034,46.9041289 64.1638031,34 85.1652913,34 C104.114887,34 120.606529,44.5091635 129.171118,60.0165157 C131.191624,59.5960706 133.282749,59.3720952 135.426839,59.3720952 C138.967523,59.3720952 142.367085,59.9766786 145.52894,61.0868398 C154.076412,51.8885657 166.273625,46.1344589 179.813488,46.1344589 C184.114066,46.1344589 188.279406,46.727122 192.234374,47.8161781 C203.750667,19.7594474 231.300211,0 263.474904,0 C292.506059,0 317.771578,16.0921566 330.892698,39.8377897 C333.988153,39.1939831 337.191798,38.8510207 340.476586,38.8510207 C349.31516,38.8510207 357.579722,41.3089179 364.630146,45.5688718 C373.06,37.6867536 384.374937,32.8582041 396.816861,32.8582041 C422.875778,32.8582041 444,54.0015349 444,80.087736 C444,86.4295318 442.743786,92.4765004 440.477794,98 L133.267471,98 Z" id="Combined-Shape-Copy-9" transform="translate(222.000000, 49.000000) scale(-1, 1) translate(-222.000000, -49.000000) "></path>
        </g>
    </g>
</svg>