<?xml version="1.0" encoding="UTF-8"?>
<svg width="700px" height="377px" viewBox="0 0 700 377" version="1.1" xmlns="http://www.w3.org/2000/svg" xmlns:xlink="http://www.w3.org/1999/xlink">
    <!-- Generator: Sketch 49.1 (51147) - http://www.bohemiancoding.com/sketch -->
    <title>Group 11 Copy</title>
    <desc>Created with Sketch.</desc>
    <defs>
        <rect id="path-1" x="0" y="0" width="700" height="471"></rect>
        <linearGradient x1="50%" y1="-250.154523%" x2="50%" y2="100%" id="linearGradient-3">
            <stop stop-color="#15ADC2" offset="0%"></stop>
            <stop stop-color="#2E3374" offset="100%"></stop>
        </linearGradient>
    </defs>
    <g id="Page-1" stroke="none" stroke-width="1" fill="none" fill-rule="evenodd">
        <g id="Avaleht_700px">
            <g id="Group-11-Copy">
                <mask id="mask-2" fill="white">
                    <use xlink:href="#path-1"></use>
                </mask>
                <g id="Mask"></g>
                <g id="Group-11" mask="url(#mask-2)">
                    <g transform="translate(-864.000000, 0.000000)">
                        <rect id="Rectangle-27-Copy-2" fill="url(#linearGradient-3)" x="863" y="0" width="1097" height="250"></rect>
                        <path d="M1980,305.363468 C1968.29205,337.616739 1937.31907,360.659923 1900.95029,360.659923 C1878.78687,360.659923 1858.631,352.086784 1843.61447,338.092003 C1831.0552,345.655595 1816.33311,350.019616 1800.58852,350.019616 C1794.73716,350.019616 1789.03034,349.410683 1783.51625,348.267598 C1760.14294,390.428212 1715.1362,419 1663.42153,419 C1606.10713,419 1557.03173,383.916899 1536.51718,334.101888 C1529.472,336.035518 1522.05207,337.087797 1514.39123,337.087797 C1483.26646,337.087797 1456.12456,320.074589 1441.79723,294.861764 C1436.41876,297.335182 1430.43542,298.71693 1424.12989,298.71693 C1421.15141,298.71693 1418.24649,298.405464 1415.43968,297.820783 C1403.54207,319.385695 1380.6325,334 1354.30843,334 C1325.13395,334 1300.15334,316.055196 1289.71091,290.575104 C1286.12473,291.564144 1282.3478,292.102379 1278.44824,292.102379 C1264.41417,292.102379 1251.97089,285.274227 1244.24302,274.751267 C1238.82394,293.656592 1221.48882,307.482947 1200.94086,307.482947 C1189.05902,307.482947 1178.25344,302.851481 1170.20307,295.291082 C1163.47003,299.37716 1155.5775,301.734735 1147.1368,301.734735 C1143.99988,301.734735 1140.94046,301.405771 1137.98435,300.788243 C1125.45389,323.564666 1101.32572,339 1073.60144,339 C1042.87512,339 1016.56575,320.047061 1005.56788,293.135503 C1001.79094,294.180107 997.813112,294.74858 993.706129,294.74858 C977.172091,294.74858 962.734558,285.72421 955,272.307909 L955.000001,245 L1236.24253,245 L1431.47646,245 L1978.72572,245 C1979.17274,246.086068 1979.5977,247.183535 1980,248.291849 L1980,305.363468 Z" id="Combined-Shape" fill="#2E3374"></path>
                        <path d="M1025,305.363468 C1013.29205,337.616739 982.319069,360.659923 945.950292,360.659923 C923.786866,360.659923 903.630996,352.086784 888.614472,338.092003 C876.055197,345.655595 861.333114,350.019616 845.588516,350.019616 C839.737158,350.019616 834.030343,349.410683 828.516254,348.267598 C805.14294,390.428212 760.136195,419 708.421534,419 C651.107128,419 602.031735,383.916899 581.517182,334.101888 C574.471996,336.035518 567.052066,337.087797 559.39123,337.087797 C528.266456,337.087797 501.12456,320.074589 486.797227,294.861764 C481.418763,297.335182 475.435424,298.71693 469.129895,298.71693 C466.151406,298.71693 463.246493,298.405464 460.439682,297.820783 C448.542075,319.385695 425.632504,334 399.308435,334 C370.133954,334 345.153338,316.055196 334.710912,290.575104 C331.124735,291.564144 327.347803,292.102379 323.448244,292.102379 C309.414173,292.102379 296.970892,285.274227 289.243019,274.751267 C283.823941,293.656592 266.48882,307.482947 245.940861,307.482947 C234.059024,307.482947 223.253441,302.851481 215.203066,295.291082 C208.470025,299.37716 200.577501,301.734735 192.136804,301.734735 C188.999885,301.734735 185.940455,301.405771 182.984346,300.788243 C170.453887,323.564666 146.325723,339 118.601437,339 C87.8751216,339 61.5657501,320.047061 50.567876,293.135503 C46.7909443,294.180107 42.813112,294.74858 38.7061293,294.74858 C22.1720915,294.74858 7.73455843,285.72421 2.04281037e-13,272.307909 L8.56394756e-07,245 L281.242531,245 L476.476461,245 L1023.72572,245 C1024.17274,246.086068 1024.5977,247.183535 1025,248.291849 L1025,305.363468 Z" id="Combined-Shape-Copy" fill="#2E3374" transform="translate(512.500000, 332.000000) scale(-1, 1) translate(-512.500000, -332.000000) "></path>
                    </g>
                </g>
                <g id="Group-3-Copy" mask="url(#mask-2)" fill="#FFFFFE">
                    <g transform="translate(52.000000, 40.000000)">
                        <path d="M11,39.4996532 C7.96286255,39.4996532 5.5,37.0376395 5.5,34 C5.5,37.0376395 3.03783102,39.4996532 0,39.4996532 C3.03783102,39.4996532 5.5,41.9623605 5.5,45 C5.5,41.9623605 7.96286255,39.4996532 11,39.4996532" id="Fill-49"></path>
                        <path d="M57,40.0003368 C54.7911755,40.0003368 53,38.2096842 53,36 C53,38.2096842 51.2094981,40.0003368 49,40.0003368 C51.2094981,40.0003368 53,41.7909895 53,44 C53,41.7909895 54.7911755,40.0003368 57,40.0003368" id="Fill-50"></path>
                        <path d="M19,108.500343 C15.13376,108.500343 11.99968,105.1424 11.99968,101 C11.99968,105.1424 8.8656,108.500343 5,108.500343 C8.8656,108.500343 11.99968,111.858286 11.99968,116 C11.99968,111.858286 15.13376,108.500343 19,108.500343" id="Fill-51"></path>
                        <path d="M50,7.5 C45.8578792,7.5 42.5,4.14212077 42.5,0 C42.5,4.14212077 39.1421208,7.5 35,7.5 C39.1421208,7.5 42.5,10.8578792 42.5,15 C42.5,10.8578792 45.8578792,7.5 50,7.5" id="Fill-52"></path>
                    </g>
                </g>
                <g id="Group-3-Copy-2" mask="url(#mask-2)" fill="#FFFFFE">
                    <g transform="translate(619.000000, 166.000000)">
                        <path d="M11,39.4996532 C7.96286255,39.4996532 5.5,37.0376395 5.5,34 C5.5,37.0376395 3.03783102,39.4996532 0,39.4996532 C3.03783102,39.4996532 5.5,41.9623605 5.5,45 C5.5,41.9623605 7.96286255,39.4996532 11,39.4996532" id="Fill-49"></path>
                        <path d="M57,40.0003368 C54.7911755,40.0003368 53,38.2096842 53,36 C53,38.2096842 51.2094981,40.0003368 49,40.0003368 C51.2094981,40.0003368 53,41.7909895 53,44 C53,41.7909895 54.7911755,40.0003368 57,40.0003368" id="Fill-50"></path>
                        <path d="M19,108.500343 C15.13376,108.500343 11.99968,105.1424 11.99968,101 C11.99968,105.1424 8.8656,108.500343 5,108.500343 C8.8656,108.500343 11.99968,111.858286 11.99968,116 C11.99968,111.858286 15.13376,108.500343 19,108.500343" id="Fill-51"></path>
                        <path d="M50,7.5 C45.8578792,7.5 42.5,4.14212077 42.5,0 C42.5,4.14212077 39.1421208,7.5 35,7.5 C39.1421208,7.5 42.5,10.8578792 42.5,15 C42.5,10.8578792 45.8578792,7.5 50,7.5" id="Fill-52"></path>
                    </g>
                </g>
            </g>
        </g>
    </g>
</svg>