<?xml version="1.0" encoding="UTF-8"?>
<svg width="375px" height="414px" viewBox="0 0 375 414" version="1.1" xmlns="http://www.w3.org/2000/svg" xmlns:xlink="http://www.w3.org/1999/xlink">
    <!-- Generator: Sketch 49.1 (51147) - http://www.bohemiancoding.com/sketch -->
    <title>Group 2</title>
    <desc>Created with Sketch.</desc>
    <defs>
        <rect id="path-1" x="0" y="0" width="375" height="467"></rect>
        <linearGradient x1="50%" y1="-250.154523%" x2="50%" y2="100%" id="linearGradient-3">
            <stop stop-color="#15ADC2" offset="0%"></stop>
            <stop stop-color="#2E3374" offset="100%"></stop>
        </linearGradient>
    </defs>
    <g id="Page-1" stroke="none" stroke-width="1" fill="none" fill-rule="evenodd">
        <g id="Avaleht_375px">
            <g id="Group-2">
                <mask id="mask-2" fill="white">
                    <use xlink:href="#path-1"></use>
                </mask>
                <g id="Mask"></g>
                <g mask="url(#mask-2)">
                    <g transform="translate(-375.000000, 0.000000)">
                        <rect id="Rectangle-27-Copy-4" fill="url(#linearGradient-3)" x="0" y="0" width="1025" height="294"></rect>
                        <path d="M431.24253,293 L626.47646,293 L1173.72572,293 C1177.76224,302.80703 1180,313.543484 1180,324.803408 C1180,371.119724 1142.37036,408.659923 1095.95029,408.659923 C1073.78687,408.659923 1053.631,400.086784 1038.61447,386.092003 C1026.0552,393.655595 1011.33311,398.019616 995.588516,398.019616 C989.737157,398.019616 984.030343,397.410683 978.516254,396.267598 C955.14294,438.428212 910.136195,467 858.421534,467 C801.107128,467 752.031734,431.916899 731.517181,382.101888 C724.471996,384.035518 717.052066,385.087797 709.39123,385.087797 C678.266455,385.087797 651.12456,368.074589 636.797226,342.861764 C631.418763,345.335182 625.435423,346.71693 619.129894,346.71693 C616.151405,346.71693 613.246492,346.405464 610.439681,345.820783 C598.542074,367.385695 575.632504,382 549.308434,382 C520.133953,382 495.153338,364.055196 484.710912,338.575104 C481.124734,339.564144 477.347803,340.102379 473.448243,340.102379 C459.414173,340.102379 446.970892,333.274227 439.243019,322.751267 C433.82394,341.656592 416.48882,355.482947 395.94086,355.482947 C384.059024,355.482947 373.25344,350.851481 365.203065,343.291082 C358.470024,347.37716 350.5775,349.734735 342.136804,349.734735 C338.999884,349.734735 335.940455,349.405771 332.984345,348.788243 C320.453887,371.564666 296.325722,387 268.601436,387 C237.875121,387 211.565749,368.047061 200.567875,341.135503 C196.790944,342.180107 192.813111,342.74858 188.706128,342.74858 C164.015442,342.74858 144,322.624068 144,297.801719 C144,296.174213 144.08897,294.57845 144.255431,293 L431.24253,293 Z" id="Combined-Shape-Copy-15" fill="#2E3374"></path>
                    </g>
                </g>
                <path d="M470.816861,209.858204 C458.374937,209.858204 447.06,214.686754 438.630146,222.568872 C431.579722,218.308918 423.31516,215.851021 414.476586,215.851021 C411.191798,215.851021 407.988153,216.193983 404.892698,216.83779 C391.771578,193.092157 366.506059,177 337.474904,177 C305.300211,177 277.750667,196.759447 266.234374,224.816178 C262.279406,223.727122 258.114066,223.134459 253.813488,223.134459 C227.958931,223.134459 207,244.115334 207,269.993952 C207,271.690714 207.093164,273.354382 207.267471,275 L514.477794,275 C516.743786,269.4765 518,263.429532 518,257.087736 C518,231.001535 496.875778,209.858204 470.816861,209.858204" id="Fill-384-Copy-12" fill="#FFFFFE" opacity="0.2" mask="url(#mask-2)"></path>
                <path d="M469.968575,340.806508 C457.566658,340.806508 446.288103,335.928688 437.885354,327.96614 C430.857601,332.269563 422.619613,334.75254 413.809458,334.75254 C410.535232,334.75254 407.341889,334.406078 404.256387,333.755702 C391.177457,357.743638 365.993178,374 337.055371,374 C304.984133,374 277.523173,354.038926 266.04391,325.695902 C262.101658,326.796071 257.949712,327.394781 253.662962,327.394781 C227.891539,327.394781 207,306.199816 207,280.05713 C207,278.343054 207.092865,276.66241 207.266611,275 L513.489119,275 C515.747826,280.579862 517,286.688534 517,293.095042 C517,319.447429 495.943701,340.806508 469.968575,340.806508 Z" id="Fill-384-Copy-13" fill="#FFFFFE" opacity="0.2" mask="url(#mask-2)"></path>
                <g id="Group-3-Copy-10" mask="url(#mask-2)" fill="#FFFFFE">
                    <g transform="translate(53.000000, 54.000000) rotate(151.000000) translate(-53.000000, -54.000000) translate(31.000000, 32.000000)">
                        <path d="M11.5942933,35.6015524 C8.55715582,35.6015524 6.09429327,33.1395386 6.09429327,30.1018991 C6.09429327,33.1395386 3.6321243,35.6015524 0.594293274,35.6015524 C3.6321243,35.6015524 6.09429327,38.0642596 6.09429327,41.1018991 C6.09429327,38.0642596 8.55715582,35.6015524 11.5942933,35.6015524" id="Fill-49"></path>
                        <path d="M44,40.0003368 C41.7911755,40.0003368 40,38.2096842 40,36 C40,38.2096842 38.2094981,40.0003368 36,40.0003368 C38.2094981,40.0003368 40,41.7909895 40,44 C40,41.7909895 41.7911755,40.0003368 44,40.0003368" id="Fill-50"></path>
                        <path d="M37,7.5 C32.8578792,7.5 29.5,4.14212077 29.5,0 C29.5,4.14212077 26.1421208,7.5 22,7.5 C26.1421208,7.5 29.5,10.8578792 29.5,15 C29.5,10.8578792 32.8578792,7.5 37,7.5" id="Fill-52"></path>
                    </g>
                </g>
            </g>
        </g>
    </g>
</svg>