<?xml version="1.0" encoding="UTF-8"?>
<svg width="57px" height="116px" viewBox="0 0 57 116" version="1.1" xmlns="http://www.w3.org/2000/svg" xmlns:xlink="http://www.w3.org/1999/xlink">
    <!-- Generator: Sketch 49.1 (51147) - http://www.bohemiancoding.com/sketch -->
    <title>Group 3 Copy</title>
    <desc>Created with Sketch.</desc>
    <defs></defs>
    <g id="Page-1" stroke="none" stroke-width="1" fill="none" fill-rule="evenodd">
        <g id="Avaleht_700px" transform="translate(-52.000000, -40.000000)" fill="#FFFFFE">
            <g id="Group-11-Copy">
                <g id="Group-3-Copy" transform="translate(52.000000, 40.000000)">
                    <path d="M11,39.4996532 C7.96286255,39.4996532 5.5,37.0376395 5.5,34 C5.5,37.0376395 3.03783102,39.4996532 0,39.4996532 C3.03783102,39.4996532 5.5,41.9623605 5.5,45 C5.5,41.9623605 7.96286255,39.4996532 11,39.4996532" id="Fill-49"></path>
                    <path d="M57,40.0003368 C54.7911755,40.0003368 53,38.2096842 53,36 C53,38.2096842 51.2094981,40.0003368 49,40.0003368 C51.2094981,40.0003368 53,41.7909895 53,44 C53,41.7909895 54.7911755,40.0003368 57,40.0003368" id="Fill-50"></path>
                    <path d="M19,108.500343 C15.13376,108.500343 11.99968,105.1424 11.99968,101 C11.99968,105.1424 8.8656,108.500343 5,108.500343 C8.8656,108.500343 11.99968,111.858286 11.99968,116 C11.99968,111.858286 15.13376,108.500343 19,108.500343" id="Fill-51"></path>
                    <path d="M50,7.5 C45.8578792,7.5 42.5,4.14212077 42.5,0 C42.5,4.14212077 39.1421208,7.5 35,7.5 C39.1421208,7.5 42.5,10.8578792 42.5,15 C42.5,10.8578792 45.8578792,7.5 50,7.5" id="Fill-52"></path>
                </g>
            </g>
        </g>
    </g>
</svg>