<?xml version="1.0" encoding="UTF-8"?>
<svg width="716px" height="158px" viewBox="0 0 716 158" version="1.1" xmlns="http://www.w3.org/2000/svg" xmlns:xlink="http://www.w3.org/1999/xlink">
    <!-- Generator: Sketch 49.1 (51147) - http://www.bohemiancoding.com/sketch -->
    <title>Group 22</title>
    <desc>Created with Sketch.</desc>
    <defs></defs>
    <g id="Page-1" stroke="none" stroke-width="1" fill="none" fill-rule="evenodd">
        <g id="Group-22" fill="#FFFFFE">
            <path d="M214.431738,158 L0.281231881,158 C0.0979571721,156.270422 0,154.521873 0,152.738542 C0,125.539586 22.0372038,103.488258 49.221899,103.488258 C53.7437285,103.488258 58.1233621,104.111159 62.281802,105.255779 C74.3905725,75.7675825 103.357456,55 137.18744,55 C167.712158,55 194.277511,71.913185 208.073673,96.87033 C211.328379,96.1936761 214.696842,95.8332157 218.150622,95.8332157 C223.770029,95.8332157 229.168762,96.7777476 234.198018,98.514416 C247.996128,83.6685378 267.695055,74.380046 289.563894,74.380046 C296.505663,74.380046 303.229137,75.3355641 309.613042,77.0913891 C328.202041,31.8570683 372.67108,0 424.605794,0 C471.466372,0 512.248657,25.9444973 533.428086,64.2282732 C538.424607,63.1902993 543.595764,62.6373599 548.897897,62.6373599 C563.164663,62.6373599 576.50489,66.6000921 587.885316,73.4681811 C601.492347,60.7602763 619.756329,52.975472 639.839434,52.975472 C681.902381,52.975472 716,87.0636992 716,129.121044 C716,139.345572 713.972286,149.094766 710.314638,158 L214.431738,158 Z" id="Combined-Shape-Copy-9" fill-opacity="0.5" transform="translate(358.000000, 79.000000) scale(-1, 1) translate(-358.000000, -79.000000) "></path>
            <path d="M159.267471,158 L26.1745874,158 C26.0608113,156.925311 26,155.838833 26,154.730744 C26,137.830422 39.6805883,124.128626 56.5567141,124.128626 C59.3638437,124.128626 62.0826988,124.515672 64.6642379,125.226892 C72.1813034,106.904129 90.1638031,94 111.165291,94 C130.114887,94 146.606529,104.509163 155.171118,120.016516 C157.191624,119.596071 159.282749,119.372095 161.426839,119.372095 C164.967523,119.372095 168.367085,119.976679 171.52894,121.08684 C180.076412,111.888566 192.273625,106.134459 205.813488,106.134459 C210.114066,106.134459 214.279406,106.727122 218.234374,107.816178 C229.750667,79.7594474 257.300211,60 289.474904,60 C318.506059,60 343.771578,76.0921566 356.892698,99.8377897 C359.988153,99.1939831 363.191798,98.8510207 366.476586,98.8510207 C375.31516,98.8510207 383.579722,101.308918 390.630146,105.568872 C399.06,97.6867536 410.374937,92.8582041 422.816861,92.8582041 C448.875778,92.8582041 470,114.001535 470,140.087736 C470,146.429532 468.743786,152.4765 466.477794,158 L159.267471,158 Z" id="Combined-Shape-Copy-10" transform="translate(248.000000, 109.000000) scale(-1, 1) translate(-248.000000, -109.000000) "></path>
        </g>
    </g>
</svg>