<?xml version="1.0" encoding="utf-8"?>
<!-- Generator: Adobe Illustrator 22.0.1, SVG Export Plug-In . SVG Version: 6.00 Build 0)  -->
<svg version="1.1" id="Layer_1" xmlns="http://www.w3.org/2000/svg" xmlns:xlink="http://www.w3.org/1999/xlink" x="0px" y="0px"
	 viewBox="0 0 24 24" style="enable-background:new 0 0 24 24;" xml:space="preserve">
<g>
	<g>
		<path d="M12,1.2c0.1,0,0.3,0,0.4,0c0,0,0.1,0,0.1,0c0.7,0,1.3,0.1,2,0.2c2.6,0.6,4.7,1.9,6.4,4c0.6,0.7,1,1.5,1.4,2.3
			c0.1,0.1,0.1,0.3,0.1,0.4c0.5,1.2,0.7,2.4,0.8,3.6c0,0.1,0,0.2,0,0.2c0,0.1,0,0.3,0,0.4c0,0,0,0.1,0,0.1c0,0.5-0.1,0.9-0.1,1.4
			c-0.1,0.9-0.4,1.8-0.8,2.7c-0.4,0.9-0.8,1.7-1.4,2.4c-0.8,1-1.6,1.8-2.7,2.4c-1.7,1.1-3.6,1.7-5.6,1.8c-0.1,0-0.2,0-0.2,0
			c-0.1,0-0.3,0-0.4,0c0,0-0.1,0-0.1,0c-0.7,0-1.3-0.1-2-0.2c-2.6-0.6-4.7-1.9-6.4-4c-0.6-0.7-1-1.5-1.4-2.3
			c-0.1-0.1-0.1-0.3-0.1-0.4c-0.5-1.2-0.7-2.4-0.8-3.6c0-0.1,0-0.2,0-0.2c0-0.1,0-0.3,0-0.4c0,0,0-0.1,0-0.1c0-0.7,0.1-1.3,0.2-2
			C2.1,7,3.7,4.7,6.2,3c1.7-1.1,3.5-1.7,5.5-1.8C11.9,1.3,11.9,1.2,12,1.2z M12.3,9.2c-0.5,0-1.1,0-1.6,0c-0.1,0-0.1,0-0.2,0.1
			c-0.5,0.9-1.1,1.9-1.6,2.8c0,0.1,0,0.1,0,0.2c0.5,0.9,1.1,1.9,1.6,2.8c0,0.1,0.1,0.1,0.2,0.1c1,0,2.1,0,3.1,0c0.1,0,0.1,0,0.2-0.1
			c0.5-1,1.1-1.9,1.7-2.9c0-0.1,0-0.1,0-0.2c-0.5-0.9-1-1.8-1.6-2.7c0-0.1-0.1-0.1-0.2-0.1C13.4,9.2,12.8,9.2,12.3,9.2z M16.9,14.2
			c-1.3,2.3-2.7,4.7-4,7c0.3,0,0.5,0,0.7-0.1c2.2-0.3,4-1.3,5.4-3c0.1-0.1,0.1-0.1,0-0.2c-0.5-0.8-0.9-1.6-1.4-2.4
			C17.4,15.1,17.1,14.7,16.9,14.2z M4.2,8.3C4.2,8.3,4.2,8.3,4.2,8.3C4.1,8.3,4.1,8.4,4.2,8.3c-0.5,1-0.7,1.9-0.9,2.9
			c-0.2,1.3,0,2.7,0.4,3.9c0,0.1,0.1,0.1,0.2,0.1c1.4,0,2.8,0,4.2,0c0,0,0.1,0,0.1,0C6.8,12.9,5.5,10.6,4.2,8.3z M4.8,17.2
			C4.8,17.3,4.8,17.3,4.8,17.2c0,0.1,0.1,0.1,0.1,0.2c1.4,1.9,3.2,3.1,5.6,3.6c0.1,0,0.1,0,0.2-0.1c0.7-1.2,1.4-2.4,2.1-3.7
			c0,0,0,0,0-0.1C10.1,17.2,7.4,17.2,4.8,17.2z M19.7,7.2c0-0.1-0.1-0.1-0.1-0.1c-1.4-1.9-3.2-3.2-5.6-3.7c-0.1,0-0.2,0-0.2,0.1
			c-0.7,1.2-1.4,2.4-2.1,3.6c0,0,0,0.1-0.1,0.1c1.3,0,2.7,0,4,0C17,7.3,18.4,7.2,19.7,7.2z M7.6,10.2c1.3-2.3,2.6-4.6,4-6.9
			c0,0-0.1,0-0.1,0c-0.3,0-0.7,0.1-1,0.1c-2,0.4-3.7,1.3-5,2.8c-0.1,0.1-0.1,0.1,0,0.2c0.5,0.9,1,1.8,1.6,2.7
			C7.3,9.5,7.4,9.8,7.6,10.2z M16.4,9.2c1.3,2.3,2.6,4.6,4,6.9c0-0.1,0-0.1,0.1-0.1c0.4-0.9,0.6-1.8,0.7-2.7c0.2-1.3,0-2.7-0.4-3.9
			c0-0.1-0.1-0.1-0.2-0.1c-1.4,0-2.7,0-4.1,0C16.5,9.2,16.5,9.2,16.4,9.2z"/>
	</g>
</g>
</svg>
