<?xml version="1.0" encoding="UTF-8"?>
<svg width="20" height="20" fill="none" version="1.1" viewBox="0 0 20 20" xmlns="http://www.w3.org/2000/svg">
 <path d="m10.5 0c-1.4752-0.0035409-2.929 0.34138-4.2461 1.0059-1.5778 0.78855-2.9063 1.9998-3.834 3.5-0.92739 1.4996-1.4189 3.229-1.4199 4.9922-0.0034352 1.318 0.31155 2.6047 0.84375 3.8066l-1.793 5.3789a1.0001 1.0001 0 0 0 1.2656 1.2656l5.3789-1.793c1.2019 0.53223 2.4886 0.84724 3.8066 0.84375 1.7631-1e-3 3.4926-0.49254 4.9922-1.4199 1.499-0.92696 2.7094-2.254 3.498-3.8301v-2e-3c0.66558-1.3182 1.0116-2.7733 1.0078-4.25v-0.49805a1.0001 1.0001 0 0 0-2e-3 -0.054687c-0.1285-2.3299-1.1117-4.5317-2.7617-6.1816-1.65-1.65-3.8518-2.6332-6.1816-2.7617a1.0001 1.0001 0 0 0-0.054688-0.0019531h-0.49805zm-2e-3 2a1.0001 1.0001 0 0 0 2e-3 0h0.45312c1.8357 0.10329 3.5689 0.87745 4.8691 2.1777 1.3003 1.3003 2.0744 3.0334 2.1777 4.8691v0.45312a1.0001 1.0001 0 0 0 0 0.00195c3e-3 1.1625-0.26889 2.3102-0.79297 3.3477a1.0001 1.0001 0 0 0-2e-3 0.0039c-0.62264 1.2458-1.5792 2.2929-2.7637 3.0254-1.1844 0.73249-2.5488 1.1206-3.9414 1.1211a1.0001 1.0001 0 0 0-2e-3 0c-1.1623 0.003082-2.31-0.26887-3.3476-0.79297a1.0001 1.0001 0 0 0-0.76758-0.05664l-3.8008 1.2676 1.2676-3.8008a1.0001 1.0001 0 0 0-0.056641-0.76758c-0.52407-1.0375-0.796-2.1853-0.79297-3.3477a1.0001 1.0001 0 0 0 0-0.0019531c5.383e-4 -1.3926 0.38861-2.757 1.1211-3.9414 0.73249-1.1844 1.7797-2.1411 3.0254-2.7637a1.0001 1.0001 0 0 0 0.00391-0.00195c1.0376-0.52408 2.1853-0.796 3.3477-0.79297z" color="#000000" fill="#15adc2" stroke-linecap="round" stroke-linejoin="round" style="-inkscape-stroke:none"/>
</svg>
