<?xml version="1.0" encoding="utf-8"?>
<!-- Generator: Adobe Illustrator 22.0.1, SVG Export Plug-In . SVG Version: 6.00 Build 0)  -->
<svg version="1.1" id="Layer_1" xmlns="http://www.w3.org/2000/svg" xmlns:xlink="http://www.w3.org/1999/xlink" x="0px" y="0px"
	 viewBox="0 0 24 24" style="enable-background:new 0 0 24 24;" xml:space="preserve">
<g>
	<path d="M2.2,19.5c0-4.8,0-9.7,0-14.5c0,0,0-0.1,0-0.1c0.1-1.5,1.4-2.7,2.9-2.7c0.6,0,1.3,0,1.9,0c0,0,0.1,0,0.1,0c0-0.3,0-0.7,0-1
		c0-0.5,0.3-0.9,0.8-1c0.1,0,0.1,0,0.2,0c0,0,0.1,0,0.1,0c0,0,0,0,0,0c0.5,0,0.9,0.4,0.9,1c0,0.3,0,0.6,0,0.9c0,0,0,0.1,0,0.1
		c2,0,4,0,6,0c0,0,0-0.1,0-0.1c0-0.3,0-0.6,0-0.9c0-0.5,0.3-0.8,0.8-0.9c0.1,0,0.1,0,0.2,0c0,0,0.1,0,0.1,0c0,0,0,0,0.1,0
		c0.5,0.1,0.8,0.4,0.9,0.9c0,0.3,0,0.5,0,0.8c0,0.1,0,0.2,0,0.4c0.1,0,0.1,0,0.1,0c0.6,0,1.1,0,1.7,0c0.2,0,0.4,0,0.5,0
		c1.2,0.1,2.2,1,2.5,2.2c0,0.2,0.1,0.4,0.1,0.5c0,4.8,0,9.7,0,14.5c0,0.1,0,0.2,0,0.3c-0.2,1.2-1.1,2.2-2.2,2.4
		c-0.2,0-0.4,0.1-0.6,0.1c-4.7,0-9.5,0-14.2,0c0,0-0.1,0-0.1,0c-1.3-0.1-2.4-1-2.7-2.3C2.3,19.8,2.3,19.6,2.2,19.5z M4.3,10.3
		c0,0.1,0,0.1,0,0.1c0,2.9,0,5.9,0,8.8c0,0.1,0,0.1,0,0.2c0,0.4,0.3,0.8,0.7,0.9c0.1,0,0.3,0,0.4,0c4.6,0,9.2,0,13.8,0
		c0,0,0.1,0,0.1,0c0.6,0,1-0.4,1-1c0-2.9,0-5.9,0-8.8c0,0,0-0.1,0-0.1C14.9,10.3,9.6,10.3,4.3,10.3z M20.2,8.2c0,0,0-0.1,0-0.1
		c0-1,0-1.9,0-2.9c0-0.6-0.4-1-1-1c-0.6,0-1.2,0-1.8,0c0,0-0.1,0-0.2,0c0,0.1,0,0.1,0,0.1c0,0.3,0,0.6,0,0.8c0,0.6-0.3,0.9-0.9,1
		c-0.6,0.1-1.1-0.4-1.1-1c0-0.3,0-0.6,0-0.9c0-0.1,0-0.1,0-0.2c-2,0-4,0-6,0c0,0,0,0.1,0,0.1c0,0.3,0,0.6,0,0.9c0,0.6-0.3,0.9-0.9,1
		C7.8,6.3,7.3,5.9,7.3,5.3c0-0.3,0-0.6,0-0.9c0,0,0-0.1,0-0.1c-0.1,0-0.1,0-0.2,0c-0.6,0-1.2,0-1.8,0c-0.6,0-1,0.4-1,1
		c0,0.9,0,1.9,0,2.8c0,0,0,0.1,0,0.1C9.6,8.2,14.9,8.2,20.2,8.2z"/>
</g>
</svg>
