<?xml version="1.0" encoding="utf-8"?>
<!-- Generator: Adobe Illustrator 22.0.1, SVG Export Plug-In . SVG Version: 6.00 Build 0)  -->
<svg version="1.1" id="Layer_1" xmlns="http://www.w3.org/2000/svg" xmlns:xlink="http://www.w3.org/1999/xlink" x="0px" y="0px"
	 viewBox="0 0 200 244.4" style="enable-background:new 0 0 200 244.4;" xml:space="preserve">
<path d="M200.3,76.1c-0.2-2.9-1.5-5.3-3.8-7.2c-0.8-0.7-1.7-1.2-2.4-1.9c-20.2-20.2-40.4-40.4-60.5-60.6c-0.6-0.6-1.1-1.2-1.5-1.8
	c-1.4-2-3.3-3.4-5.7-4.2c-1-0.3-2-0.2-3-0.4c-0.1,0-0.2,0-0.2,0c-0.5,0.2-0.9,0.1-1.4,0.1c-29.5,0-58.9,0-88.4,0c-0.6,0-1.1,0-1.7,0
	c-4.1-0.1-8,0.8-11.7,2.5C11.1,6.5,5.1,12.9,1.9,21.9c-0.9,2.6-1.5,5.4-1.7,8.2c0,0.5,0,1,0,1.4c0.2,0.4,0.1,0.9,0.1,1.3
	c0,59.8,0,119.6,0,179.3c0,0.4,0.1,0.9-0.1,1.3c0,0.5,0,1,0,1.4c0.3,1.4,0.2,2.8,0.5,4.2c1.7,7.3,5.3,13.5,11.1,18.3
	c5.7,4.7,12.3,7.4,19.8,7.4c0.6,0,1.1,0,1.7,0c44.6,0,89.3,0,133.9,0c0.6,0,1.1,0,1.7,0c4.1,0.1,8-0.8,11.7-2.5
	c8.7-3.8,14.7-10.2,17.9-19.2c0.9-2.6,1.5-5.4,1.7-8.2c0-0.5,0-1,0-1.4c-0.2-0.4-0.1-0.9-0.1-1.3c0-44.7,0-89.5,0-134.2
	c0-0.4-0.1-0.9,0.1-1.3C200.3,76.5,200.3,76.3,200.3,76.1z M133.6,38.7c0-0.1,0-0.2,0-0.2c9.5,9.5,18.9,18.9,28.4,28.3
	c-0.2,0.2-0.6,0.1-0.9,0.1c-8.8,0-17.6,0-26.4,0c-0.6,0-1.1,0.2-1.1-0.8C133.6,56.9,133.6,47.8,133.6,38.7z M178,211
	c0,7.1-4.3,11.4-11.4,11.4c-44.2,0-88.4,0-132.6,0c-7.2,0-11.5-4.3-11.5-11.5c0-29.5,0-59,0-88.4c0-29.5,0-59,0-88.6
	c0-3.5,1-6.6,3.7-9c2.1-1.7,4.5-2.4,7.2-2.4c25.6,0,51.2,0,76.8,0c1.1,0,1.1,0.4,1.1,1.2c0,18.1,0,36.2,0,54.2
	c0,6.8,4.4,11.2,11.2,11.2c18.1,0,36.2,0,54.2,0c1.1,0,1.3,0.3,1.3,1.3C178,130.6,178,170.8,178,211z M0.2,31.5
	c0.4,0.3,0.2,0.7,0.2,1.1c0,59.9,0,119.8,0,179.7c0,0.4,0.2,0.8-0.2,1.1C0.2,152.8,0.2,92.1,0.2,31.5z M200.3,213.4
	c-0.4-0.3-0.2-0.7-0.2-1.1c0-44.9,0-89.7,0-134.6c0-0.4-0.2-0.8,0.2-1.1C200.3,122.2,200.3,167.8,200.3,213.4z M33,244.7
	c0.3,0,0.6,0,1,0c44.2,0,88.3,0,132.5,0c0.3,0,0.6,0,1,0c0.1,0.1,0.1,0.1,0,0.1c0,0,0,0.1-0.1,0.1c-44.8,0-89.6,0-134.4,0
	C33,244.8,33,244.8,33,244.7C33,244.7,33,244.7,33,244.7z M123,0.1c-0.2,0.4-0.6,0.2-1,0.2c-29.6,0-59.2,0-88.8,0
	c-0.1,0-0.2,0-0.2,0C33,0.2,32.9,0.2,33,0.1c0,0,0.1-0.1,0.1-0.1C63,0.1,93,0.1,123,0.1z M33,0.1c0,0.1,0,0.1,0,0.2
	c-0.6,0-1.1,0-1.7,0c0-0.1,0-0.1,0-0.2C31.9,0.1,32.5,0.1,33,0.1z M33,244.7c0,0.1,0,0.1,0,0.2c-0.6,0-1.1,0-1.7,0
	c0-0.1,0-0.1,0-0.2C31.9,244.7,32.5,244.7,33,244.7z M167.4,244.9c0-0.1,0-0.1,0-0.2c0.6,0,1.1,0,1.7,0c0,0.1,0,0.1,0,0.2
	C168.6,244.9,168,244.9,167.4,244.9z M154.1,171.6c4.2,6.5,0.9,15.5-6.4,17.2c-1.1,0.3-2.3,0.4-3.4,0.4c-29.4,0-58.7,0-88.1,0
	c-4.7,0-8.5-1.6-10.5-6.1c-1.9-4.2-1.6-11.6,4.1-14.8c1.9-1.1,4-1.5,6.2-1.5c14.8,0,29.5,0,44.3,0s29.5,0,44.3,0
	C148.5,166.9,151.9,168.2,154.1,171.6z M155.6,130.9c1.1,5.5-1.2,10.6-5.7,12.7c-1.7,0.8-3.4,1.1-5.2,1.1c-29.6,0-59.2,0-88.8,0
	c-5.2,0-9.1-2.7-10.6-7.2c-1.6-4.9-0.1-10.3,3.6-13c2-1.4,4.2-2.1,6.6-2.1c15,0,29.9,0,44.9,0c15,0,30,0,45,0
	C150.5,122.5,154.5,125.8,155.6,130.9z M89.1,90.4c-0.6,6.3-4.8,9.8-11.1,9.8c-7.5,0-14.9,0-22.4,0c-4.7,0-8.5-2.4-10-6.4
	c-1.8-4.6-0.8-9.9,2.4-13c2.1-2,4.6-2.8,7.4-2.8c3.9,0,7.8,0,11.6,0c3.7,0,7.4,0,11.2,0C84.8,77.9,89.9,82.7,89.1,90.4z"/>
</svg>
