<?xml version="1.0" encoding="UTF-8"?>
<svg width="24" height="24" fill="none" version="1.1" viewBox="0 0 24 24" xmlns="http://www.w3.org/2000/svg">
 <path d="m9.5078 10.131a1.0001 1.0001 0 0 0-0.50781 0.86914v6a1.0001 1.0001 0 0 0 1.5137 0.85742l5-3a1.0001 1.0001 0 0 0 0-1.7148l-5-3a1.0001 1.0001 0 0 0-1.0059-0.011719zm1.4922 2.6348 2.0566 1.2344-2.0566 1.2344zm3-11.766a1 1 0 0 0-1 1v6a1.0001 1.0001 0 0 0 1 1h6a1 1 0 0 0 1-1 1 1 0 0 0-1-1h-5v-5a1 1 0 0 0-1-1zm-8 0c-0.79526 0-1.5588 0.31655-2.1211 0.87891-0.56236 0.56234-0.87891 1.3258-0.87891 2.1211v16c0 0.79524 0.31659 1.5587 0.87891 2.1211 0.56235 0.56239 1.3258 0.87891 2.1211 0.87891h12c0.79523 0 1.5587-0.31655 2.1211-0.87891s0.87891-1.3259 0.87891-2.1211v-12.5a1.0001 1.0001 0 0 0-0.29297-0.70703l-5.5-5.5a1.0001 1.0001 0 0 0-0.70703-0.29297zm0 2h8.0859l4.9141 4.9141v12.086c0 0.26557-0.10512 0.51919-0.29297 0.70703s-0.44146 0.29297-0.70703 0.29297h-12c-0.26561 0-0.51924-0.10516-0.70703-0.29297-0.18784-0.18785-0.29297-0.44148-0.29297-0.70703v-16c0-0.2656 0.10516-0.51923 0.29297-0.70703 0.1878-0.1878 0.44143-0.29297 0.70703-0.29297z" color="#000000" fill="#000" stroke-linecap="round" stroke-linejoin="round" style="-inkscape-stroke:none"/>
</svg>
