<?xml version="1.0" encoding="utf-8"?>
<!-- Generator: Adobe Illustrator 22.0.1, SVG Export Plug-In . SVG Version: 6.00 Build 0)  -->
<svg version="1.1" id="Layer_1" xmlns="http://www.w3.org/2000/svg" xmlns:xlink="http://www.w3.org/1999/xlink" x="0px" y="0px"
	 viewBox="0 0 24 24" style="enable-background:new 0 0 24 24;" xml:space="preserve">
<g>
	<path d="M12,24c-0.3,0-0.5-0.1-0.7-0.3l-7-7c-0.1-0.1-0.2-0.2-0.2-0.3C4,16.3,4,16.1,4,16l0,0l0,0V9c0-0.6,0.4-1,1-1h4.6L4.3,2.7
		C4,2.4,3.9,2,4.1,1.6C4.2,1.2,4.6,1,5,1h14c0.6,0,1,0.4,1,1v7c0,0.6-0.4,1-1,1h-4.6l5.3,5.3c0.3,0.3,0.4,0.7,0.2,1.1
		C19.8,16.8,19.4,17,19,17h-6v6c0,0.4-0.2,0.8-0.6,0.9C12.3,24,12.1,24,12,24z M7.4,17l3.6,3.6V17H7.4z M12,15h4.6l-5-5H6v5H12z
		 M12.4,8H18V3H7.4L12.4,8z"/>
</g>
</svg>
