<?xml version="1.0" standalone="no"?>
<!DOCTYPE svg PUBLIC "-//W3C//DTD SVG 1.1//EN" "http://www.w3.org/Graphics/SVG/1.1/DTD/svg11.dtd">
<svg width="100%" height="100%" viewBox="0 0 500 500" version="1.1" xmlns="http://www.w3.org/2000/svg" xmlns:xlink="http://www.w3.org/1999/xlink" xml:space="preserve" style="fill-rule:evenodd;clip-rule:evenodd;stroke-linejoin:round;stroke-miterlimit:1.41421;">
    <path d="M250.744,20.835C377.482,21.232 479.167,123.165 479.167,250C479.167,377.083 377.083,479.167 250,479.167C122.917,479.167 20.833,377.083 20.833,250C20.833,123.165 122.518,21.232 249.256,20.835L250,20.833L250.744,20.835ZM436.375,270.833L353.033,270.833C348.165,328.745 329.108,384.005 297.302,431.574C371.791,412.473 427.857,349.185 436.375,270.833ZM146.967,270.833L63.625,270.833C72.143,349.185 128.209,412.473 202.698,431.574C170.892,384.005 151.835,328.745 146.967,270.833ZM310.963,270.833L188.891,270.833C194.449,326.246 214.818,380.56 250,425C284.88,380.941 305.201,327.177 310.963,270.833ZM202.698,68.426C128.209,87.527 72.143,150.815 63.625,229.167L146.967,229.167C151.835,171.255 170.892,115.995 202.698,68.426ZM311.306,229.167C306.045,173.392 285.61,119.981 250,75C214.705,119.584 194.317,172.45 188.837,229.167L311.306,229.167ZM297.302,68.426C329.108,115.995 348.165,171.255 353.033,229.167L436.375,229.167C427.857,150.815 371.791,87.527 297.302,68.426Z" style="fill:black;"/>
</svg>
