<?xml version="1.0" encoding="UTF-8"?>
<svg width="24" height="24" fill="none" version="1.1" viewBox="0 0 24 24" xmlns="http://www.w3.org/2000/svg">
 <path d="m18.293 8.293-4.293 4.293-3.293-3.293a1.0001 1.0001 0 0 0-1.4141 0l-3 3a1 1 0 0 0 0 1.4141 1 1 0 0 0 1.4141 0l2.293-2.293 3.293 3.293a1.0001 1.0001 0 0 0 1.4141 0l5-5a1 1 0 0 0 0-1.4141 1 1 0 0 0-1.4141 0zm-15.293-6.293a1 1 0 0 0-1 1v18a1.0001 1.0001 0 0 0 1 1h18a1 1 0 0 0 1-1 1 1 0 0 0-1-1h-17v-17a1 1 0 0 0-1-1z" color="#000000" fill="#000" stroke-linecap="round" stroke-linejoin="round" style="-inkscape-stroke:none"/>
</svg>
