<svg viewBox="0 0 24 24" xmlns="http://www.w3.org/2000/svg">
<path d="M6.11328 13.2891C6.48568 13.6615 6.91536 13.8477 7.40234 13.8477C7.88932 13.8477 8.31901 13.6615 8.69141 13.2891C9.0638 12.9167 9.25 12.487 9.25 12C9.25 11.513 9.0638 11.0833 8.69141 10.7109C8.31901 10.3385 7.88932 10.1523 7.40234 10.1523C6.91536 10.1523 6.48568 10.3385 6.11328 10.7109C5.76953 11.0833 5.59766 11.513 5.59766 12C5.59766 12.487 5.76953 12.9167 6.11328 13.2891ZM12.6016 10.1523H22.0977V13.8477H20.25V17.5H16.5977V13.8477H12.6016C12.2292 14.8503 11.5273 15.7096 10.4961 16.4258C9.49349 17.1419 8.46224 17.5 7.40234 17.5C5.88411 17.5 4.58073 16.9701 3.49219 15.9102C2.43229 14.8216 1.90234 13.5182 1.90234 12C1.90234 10.4818 2.43229 9.19271 3.49219 8.13281C4.58073 7.04427 5.88411 6.5 7.40234 6.5C8.46224 6.5 9.49349 6.85807 10.4961 7.57422C11.5273 8.29036 12.2292 9.14974 12.6016 10.1523Z"/>
</svg>
