<?xml version="1.0" encoding="UTF-8"?>
<svg width="24" height="24" fill="none" version="1.1" viewBox="0 0 24 24" xmlns="http://www.w3.org/2000/svg">
 <path d="m4 3a1 1 0 0 0-1 1v16a1 1 0 0 0 1 1 1 1 0 0 0 1-1v-16a1 1 0 0 0-1-1zm4 4a1 1 0 0 0-1 1v12a1 1 0 0 0 1 1 1 1 0 0 0 1-1v-12a1 1 0 0 0-1-1zm4-2a1 1 0 0 0-1 1v14a1 1 0 0 0 1 1 1 1 0 0 0 1-1v-14a1 1 0 0 0-1-1zm3.7246 0.039063a1 1 0 0 0-0.68555 1.2363l4 14a1 1 0 0 0 1.2363 0.68555 1 1 0 0 0 0.68555-1.2363l-4-14a1 1 0 0 0-1.2363-0.68555z" color="#000000" fill="#000" stroke-linecap="round" stroke-linejoin="round" style="-inkscape-stroke:none"/>
</svg>
