<svg xmlns="http://www.w3.org/2000/svg" viewBox="0 0 21 22">
  <path d="M6.5 18H6V9H6.5C6.6 9 6.8 9 6.8 8.9 6.9 8.8 7 8.6 7 8.5 7 8.4 6.9 8.2 6.8 8.1 6.8 8 6.6 8 6.5 8H2.5C2.4 8 2.2 8 2.1 8.1 2 8.2 2 8.4 2 8.5 2 8.6 2 8.8 2.1 8.9 2.2 9 2.4 9 2.5 9H3V18H2.5C2.4 18 2.2 18 2.1 18.1 2 18.2 2 18.4 2 18.5 2 18.6 2 18.8 2.1 18.9 2.2 19 2.4 19 2.5 19H6.5C6.6 19 6.8 19 6.8 18.9 6.9 18.8 7 18.6 7 18.5 7 18.4 6.9 18.2 6.8 18.1 6.8 18 6.6 18 6.5 18ZM5 18H4V9H5V18ZM12.5 18H12V9H12.5C12.6 9 12.8 9 12.9 8.9 13 8.8 13 8.6 13 8.5 13 8.4 13 8.2 12.9 8.1 12.8 8 12.6 8 12.5 8H8.5C8.4 8 8.2 8 8.1 8.1 8.1 8.2 8 8.4 8 8.5 8 8.6 8.1 8.8 8.1 8.9 8.2 9 8.4 9 8.5 9H9V18H8.5C8.4 18 8.2 18 8.1 18.1 8.1 18.2 8 18.4 8 18.5 8 18.6 8.1 18.8 8.1 18.9 8.2 19 8.4 19 8.5 19H12.5C12.6 19 12.8 19 12.9 18.9 13 18.8 13 18.6 13 18.5 13 18.4 13 18.2 12.9 18.1 12.8 18 12.6 18 12.5 18ZM11 18H10V9H11V18ZM18.5 18H18V9H18.5C18.6 9 18.8 9 18.9 8.9 18.9 8.8 19 8.6 19 8.5 19 8.4 18.9 8.2 18.9 8.1 18.8 8 18.6 8 18.5 8H14.5C14.4 8 14.2 8 14.1 8.1 14 8.2 14 8.4 14 8.5 14 8.6 14 8.8 14.1 8.9 14.2 9 14.4 9 14.5 9H15V18H14.5C14.4 18 14.2 18 14.1 18.1 14 18.2 14 18.4 14 18.5 14 18.6 14 18.8 14.1 18.9 14.2 19 14.4 19 14.5 19H18.5C18.6 19 18.8 19 18.9 18.9 18.9 18.8 19 18.6 19 18.5 19 18.4 18.9 18.2 18.9 18.1 18.8 18 18.6 18 18.5 18ZM17 18H16V9H17V18ZM19.5 21H1.5C1.4 21 1.2 20.9 1.1 20.8 1 20.8 1 20.6 1 20.5 1 20.4 1 20.2 1.1 20.1 1.2 20 1.4 20 1.5 20H19.5C19.6 20 19.8 20 19.9 20.1 20 20.2 20 20.4 20 20.5 20 20.6 20 20.8 19.9 20.8 19.8 20.9 19.6 21 19.5 21ZM18.5 7H2.5C2.4 7 2.3 7 2.2 6.9 2.1 6.8 2 6.7 2 6.6 2 6.5 2 6.4 2 6.3 2.1 6.2 2.1 6.1 2.2 6.1L10.2 1.1C10.3 1 10.4 1 10.5 1 10.6 1 10.7 1 10.8 1.1L18.8 6.1C18.9 6.1 18.9 6.2 19 6.3 19 6.4 19 6.5 19 6.6 18.9 6.7 18.9 6.8 18.8 6.9 18.7 7 18.6 7 18.5 7ZM4.2 6H16.8L10.5 2.1 4.2 6Z" class="a"/>
  <path d="M6 18H5.9V18.1H6V18ZM6 9V8.9H5.9V9H6ZM3 9H3.1V8.9H3V9ZM3 18V18.1H3.1V18H3ZM5 18V18.1H5.1V18H5ZM4 18H3.9V18.1H4V18ZM4 9V8.9H3.9V9H4ZM5 9H5.1V8.9H5V9ZM12 18H11.9V18.1H12V18ZM12 9V8.9H11.9V9H12ZM9 9H9.1V8.9H9V9ZM9 18V18.1H9.1V18H9ZM11 18V18.1H11.1V18H11ZM10 18H9.9V18.1H10V18ZM10 9V8.9H9.9V9H10ZM11 9H11.1V8.9H11V9ZM18 18H17.9V18.1H18V18ZM18 9V8.9H17.9V9H18ZM15 9H15.1V8.9H15V9ZM15 18V18.1H15.1V18H15ZM17 18V18.1H17.1V18H17ZM16 18H15.9V18.1H16V18ZM16 9V8.9H15.9V9H16ZM17 9H17.1V8.9H17V9ZM2.2 6.9L2.1 7 2.1 7 2.2 6.9ZM2 6.6L1.9 6.7 1.9 6.7 2 6.6ZM2.2 6.1L2.2 6 2.2 6 2.2 6.1ZM10.2 1.1L10.3 1.2 10.3 1.2 10.2 1.1ZM10.8 1.1L10.8 1 10.8 1 10.8 1.1ZM18.8 6.1L18.7 6.2 18.7 6.2 18.8 6.1ZM19 6.6L19.1 6.7 19.1 6.7 19 6.6ZM18.8 6.9L18.9 7 18.9 7 18.8 6.9ZM4.2 6L4.2 5.9 3.8 6.1H4.2V6ZM16.8 6V6.1H17.2L16.8 5.9 16.8 6ZM10.5 2.1L10.6 2 10.5 1.9 10.4 2 10.5 2.1ZM6.5 17.9H6V18.1H6.5V17.9ZM6.1 18V9H5.9V18H6.1ZM6 9.1H6.5V8.9H6V9.1ZM6.5 9.1C6.7 9.1 6.8 9.1 6.9 8.9L6.8 8.8C6.7 8.8 6.6 8.9 6.5 8.9V9.1ZM6.9 8.9C7.1 8.8 7.1 8.7 7.1 8.5H6.9C6.9 8.6 6.8 8.7 6.8 8.8L6.9 8.9ZM7.1 8.5C7.1 8.3 7.1 8.2 6.9 8.1L6.8 8.2C6.8 8.3 6.9 8.4 6.9 8.5H7.1ZM6.9 8.1C6.8 7.9 6.7 7.9 6.5 7.9V8.1C6.6 8.1 6.7 8.2 6.8 8.2L6.9 8.1ZM6.5 7.9H2.5V8.1H6.5V7.9ZM2.5 7.9C2.3 7.9 2.2 7.9 2.1 8.1L2.2 8.2C2.3 8.2 2.4 8.1 2.5 8.1V7.9ZM2.1 8.1C1.9 8.2 1.9 8.3 1.9 8.5H2.1C2.1 8.4 2.2 8.3 2.2 8.2L2.1 8.1ZM1.9 8.5C1.9 8.7 1.9 8.8 2.1 8.9L2.2 8.8C2.2 8.7 2.1 8.6 2.1 8.5H1.9ZM2.1 8.9C2.2 9.1 2.3 9.1 2.5 9.1V8.9C2.4 8.9 2.3 8.8 2.2 8.8L2.1 8.9ZM2.5 9.1H3V8.9H2.5V9.1ZM2.9 9V18H3.1V9H2.9ZM3 17.9H2.5V18.1H3V17.9ZM2.5 17.9C2.3 17.9 2.2 17.9 2.1 18.1L2.2 18.2C2.3 18.2 2.4 18.1 2.5 18.1V17.9ZM2.1 18.1C1.9 18.2 1.9 18.3 1.9 18.5H2.1C2.1 18.4 2.2 18.3 2.2 18.2L2.1 18.1ZM1.9 18.5C1.9 18.7 1.9 18.8 2.1 18.9L2.2 18.8C2.2 18.7 2.1 18.6 2.1 18.5H1.9ZM2.1 18.9C2.2 19.1 2.3 19.1 2.5 19.1V18.9C2.4 18.9 2.3 18.8 2.2 18.8L2.1 18.9ZM2.5 19.1H6.5V18.9H2.5V19.1ZM6.5 19.1C6.7 19.1 6.8 19.1 6.9 18.9L6.8 18.8C6.7 18.8 6.6 18.9 6.5 18.9V19.1ZM6.9 18.9C7.1 18.8 7.1 18.7 7.1 18.5H6.9C6.9 18.6 6.8 18.7 6.8 18.8L6.9 18.9ZM7.1 18.5C7.1 18.3 7.1 18.2 6.9 18.1L6.8 18.2C6.8 18.3 6.9 18.4 6.9 18.5H7.1ZM6.9 18.1C6.8 17.9 6.7 17.9 6.5 17.9V18.1C6.6 18.1 6.7 18.2 6.8 18.2L6.9 18.1ZM5 17.9H4V18.1H5V17.9ZM4.1 18V9H3.9V18H4.1ZM4 9.1H5V8.9H4V9.1ZM4.9 9V18H5.1V9H4.9ZM12.5 17.9H12V18.1H12.5V17.9ZM12.1 18V9H11.9V18H12.1ZM12 9.1H12.5V8.9H12V9.1ZM12.5 9.1C12.7 9.1 12.8 9.1 12.9 8.9L12.8 8.8C12.7 8.8 12.6 8.9 12.5 8.9V9.1ZM12.9 8.9C13.1 8.8 13.1 8.7 13.1 8.5H12.9C12.9 8.6 12.8 8.7 12.8 8.8L12.9 8.9ZM13.1 8.5C13.1 8.3 13.1 8.2 12.9 8.1L12.8 8.2C12.8 8.3 12.9 8.4 12.9 8.5H13.1ZM12.9 8.1C12.8 7.9 12.7 7.9 12.5 7.9V8.1C12.6 8.1 12.7 8.2 12.8 8.2L12.9 8.1ZM12.5 7.9H8.5V8.1H12.5V7.9ZM8.5 7.9C8.3 7.9 8.2 7.9 8.1 8.1L8.2 8.2C8.3 8.2 8.4 8.1 8.5 8.1V7.9ZM8.1 8.1C7.9 8.2 7.9 8.3 7.9 8.5H8.1C8.1 8.4 8.2 8.3 8.2 8.2L8.1 8.1ZM7.9 8.5C7.9 8.7 7.9 8.8 8.1 8.9L8.2 8.8C8.2 8.7 8.1 8.6 8.1 8.5H7.9ZM8.1 8.9C8.2 9.1 8.3 9.1 8.5 9.1V8.9C8.4 8.9 8.3 8.8 8.2 8.8L8.1 8.9ZM8.5 9.1H9V8.9H8.5V9.1ZM8.9 9V18H9.1V9H8.9ZM9 17.9H8.5V18.1H9V17.9ZM8.5 17.9C8.3 17.9 8.2 17.9 8.1 18.1L8.2 18.2C8.3 18.2 8.4 18.1 8.5 18.1V17.9ZM8.1 18.1C7.9 18.2 7.9 18.3 7.9 18.5H8.1C8.1 18.4 8.2 18.3 8.2 18.2L8.1 18.1ZM7.9 18.5C7.9 18.7 7.9 18.8 8.1 18.9L8.2 18.8C8.2 18.7 8.1 18.6 8.1 18.5H7.9ZM8.1 18.9C8.2 19.1 8.3 19.1 8.5 19.1V18.9C8.4 18.9 8.3 18.8 8.2 18.8L8.1 18.9ZM8.5 19.1H12.5V18.9H8.5V19.1ZM12.5 19.1C12.7 19.1 12.8 19.1 12.9 18.9L12.8 18.8C12.7 18.8 12.6 18.9 12.5 18.9V19.1ZM12.9 18.9C13.1 18.8 13.1 18.7 13.1 18.5H12.9C12.9 18.6 12.8 18.7 12.8 18.8L12.9 18.9ZM13.1 18.5C13.1 18.3 13.1 18.2 12.9 18.1L12.8 18.2C12.8 18.3 12.9 18.4 12.9 18.5H13.1ZM12.9 18.1C12.8 17.9 12.7 17.9 12.5 17.9V18.1C12.6 18.1 12.7 18.2 12.8 18.2L12.9 18.1ZM11 17.9H10V18.1H11V17.9ZM10.1 18V9H9.9V18H10.1ZM10 9.1H11V8.9H10V9.1ZM10.9 9V18H11.1V9H10.9ZM18.5 17.9H18V18.1H18.5V17.9ZM18.1 18V9H17.9V18H18.1ZM18 9.1H18.5V8.9H18V9.1ZM18.5 9.1C18.7 9.1 18.8 9.1 18.9 8.9L18.8 8.8C18.7 8.8 18.6 8.9 18.5 8.9V9.1ZM18.9 8.9C19.1 8.8 19.1 8.7 19.1 8.5H18.9C18.9 8.6 18.8 8.7 18.8 8.8L18.9 8.9ZM19.1 8.5C19.1 8.3 19.1 8.2 18.9 8.1L18.8 8.2C18.8 8.3 18.9 8.4 18.9 8.5H19.1ZM18.9 8.1C18.8 7.9 18.7 7.9 18.5 7.9V8.1C18.6 8.1 18.7 8.2 18.8 8.2L18.9 8.1ZM18.5 7.9H14.5V8.1H18.5V7.9ZM14.5 7.9C14.3 7.9 14.2 7.9 14.1 8.1L14.2 8.2C14.3 8.2 14.4 8.1 14.5 8.1V7.9ZM14.1 8.1C13.9 8.2 13.9 8.3 13.9 8.5H14.1C14.1 8.4 14.2 8.3 14.2 8.2L14.1 8.1ZM13.9 8.5C13.9 8.7 13.9 8.8 14.1 8.9L14.2 8.8C14.2 8.7 14.1 8.6 14.1 8.5H13.9ZM14.1 8.9C14.2 9.1 14.3 9.1 14.5 9.1V8.9C14.4 8.9 14.3 8.8 14.2 8.8L14.1 8.9ZM14.5 9.1H15V8.9H14.5V9.1ZM14.9 9V18H15.1V9H14.9ZM15 17.9H14.5V18.1H15V17.9ZM14.5 17.9C14.3 17.9 14.2 17.9 14.1 18.1L14.2 18.2C14.3 18.2 14.4 18.1 14.5 18.1V17.9ZM14.1 18.1C13.9 18.2 13.9 18.3 13.9 18.5H14.1C14.1 18.4 14.2 18.3 14.2 18.2L14.1 18.1ZM13.9 18.5C13.9 18.7 13.9 18.8 14.1 18.9L14.2 18.8C14.2 18.7 14.1 18.6 14.1 18.5H13.9ZM14.1 18.9C14.2 19.1 14.3 19.1 14.5 19.1V18.9C14.4 18.9 14.3 18.8 14.2 18.8L14.1 18.9ZM14.5 19.1H18.5V18.9H14.5V19.1ZM18.5 19.1C18.7 19.1 18.8 19.1 18.9 18.9L18.8 18.8C18.7 18.8 18.6 18.9 18.5 18.9V19.1ZM18.9 18.9C19.1 18.8 19.1 18.7 19.1 18.5H18.9C18.9 18.6 18.8 18.7 18.8 18.8L18.9 18.9ZM19.1 18.5C19.1 18.3 19.1 18.2 18.9 18.1L18.8 18.2C18.8 18.3 18.9 18.4 18.9 18.5H19.1ZM18.9 18.1C18.8 17.9 18.7 17.9 18.5 17.9V18.1C18.6 18.1 18.7 18.2 18.8 18.2L18.9 18.1ZM17 17.9H16V18.1H17V17.9ZM16.1 18V9H15.9V18H16.1ZM16 9.1H17V8.9H16V9.1ZM16.9 9V18H17.1V9H16.9ZM19.5 20.9H1.5V21.1H19.5V20.9ZM1.5 20.9C1.4 20.9 1.3 20.8 1.2 20.8L1.1 20.9C1.2 21.1 1.3 21.1 1.5 21.1V20.9ZM1.2 20.8C1.2 20.7 1.1 20.6 1.1 20.5H0.9C0.9 20.7 0.9 20.8 1.1 20.9L1.2 20.8ZM1.1 20.5C1.1 20.4 1.2 20.3 1.2 20.2L1.1 20.1C0.9 20.2 0.9 20.3 0.9 20.5H1.1ZM1.2 20.2C1.3 20.2 1.4 20.1 1.5 20.1V19.9C1.3 19.9 1.2 19.9 1.1 20.1L1.2 20.2ZM1.5 20.1H19.5V19.9H1.5V20.1ZM19.5 20.1C19.6 20.1 19.7 20.2 19.8 20.2L19.9 20.1C19.8 19.9 19.7 19.9 19.5 19.9V20.1ZM19.8 20.2C19.8 20.3 19.9 20.4 19.9 20.5H20.1C20.1 20.3 20.1 20.2 19.9 20.1L19.8 20.2ZM19.9 20.5C19.9 20.6 19.8 20.7 19.8 20.8L19.9 20.9C20.1 20.8 20.1 20.7 20.1 20.5H19.9ZM19.8 20.8C19.7 20.8 19.6 20.9 19.5 20.9V21.1C19.7 21.1 19.8 21.1 19.9 20.9L19.8 20.8ZM18.5 6.9H2.5V7.1H18.5V6.9ZM2.5 6.9C2.4 6.9 2.3 6.9 2.3 6.8L2.1 7C2.2 7.1 2.4 7.1 2.5 7.1V6.9ZM2.3 6.8C2.2 6.8 2.2 6.7 2.1 6.6L1.9 6.7C1.9 6.8 2 6.9 2.1 7L2.3 6.8ZM2.1 6.6C2.1 6.5 2.1 6.4 2.2 6.4L1.9 6.3C1.9 6.4 1.9 6.5 1.9 6.7L2.1 6.6ZM2.2 6.4C2.2 6.3 2.2 6.2 2.3 6.2L2.2 6C2 6 2 6.1 1.9 6.3L2.2 6.4ZM2.3 6.2L10.3 1.2 10.2 1 2.2 6 2.3 6.2ZM10.3 1.2C10.4 1.1 10.4 1.1 10.5 1.1V0.9C10.4 0.9 10.3 0.9 10.2 1L10.3 1.2ZM10.5 1.1C10.6 1.1 10.6 1.1 10.7 1.2L10.8 1C10.7 0.9 10.6 0.9 10.5 0.9V1.1ZM10.7 1.2L18.7 6.2 18.8 6 10.8 1 10.7 1.2ZM18.7 6.2C18.8 6.2 18.8 6.3 18.9 6.4L19.1 6.3C19 6.1 18.9 6 18.8 6L18.7 6.2ZM18.9 6.4C18.9 6.4 18.9 6.5 18.9 6.6L19.1 6.7C19.1 6.5 19.1 6.4 19.1 6.3L18.9 6.4ZM18.9 6.6C18.8 6.7 18.8 6.7 18.7 6.8L18.9 7C19 6.9 19.1 6.8 19.1 6.7L18.9 6.6ZM18.7 6.8C18.7 6.9 18.6 6.9 18.5 6.9V7.1C18.6 7.1 18.8 7.1 18.9 7L18.7 6.8ZM4.2 6.1H16.8V5.9H4.2V6.1ZM16.8 5.9L10.6 2 10.4 2.2 16.7 6.1 16.8 5.9ZM10.4 2L4.2 5.9 4.3 6.1 10.6 2.2 10.4 2Z" class="a"/>
</svg>
