<?xml version="1.0" encoding="UTF-8"?>
<svg width="24" height="24" fill="none" version="1.1" viewBox="0 0 24 24" xmlns="http://www.w3.org/2000/svg">
 <path d="m12 1c-1.8561 0-3.6367 0.7383-4.9492 2.0508-1.3125 1.3125-2.0508 3.0931-2.0508 4.9492 0 1.1533 0.33738 2.7514 1.793 4.207a1.0001 1.0001 0 0 0 0.03125 0.03125c0.56711 0.51858 0.95509 1.2035 1.1055 1.957a1 1 0 0 0 1.1758 0.78516 1 1 0 0 0 0.78516-1.1758c-0.23362-1.1707-0.83385-2.2374-1.7148-3.043l0.03125 0.03125c-1.0844-1.0844-1.207-1.9463-1.207-2.793 0-1.3265 0.52689-2.5972 1.4648-3.5352 0.93796-0.93796 2.2087-1.4648 3.5352-1.4648s2.5972 0.52689 3.5352 1.4648c0.93801 0.93794 1.4648 2.2087 1.4648 3.5352a1.0001 1.0001 0 0 0 0 0.017578c0.0087 0.51514-0.092 1.0265-0.29492 1.5-0.2029 0.47349-0.50377 0.89719-0.88281 1.2461a1.0001 1.0001 0 0 0-0.0293 0.0293c-0.84994 0.84994-1.4663 1.8335-1.6855 3.0273a1 1 0 0 0 0.80273 1.1641 1 1 0 0 0 1.1641-0.80469c0.14072-0.76614 0.46275-1.3026 1.1328-1.9727l-0.0293 0.0293c0.58676-0.5401 1.0511-1.1987 1.3652-1.9316 0.31276-0.72986 0.4671-1.5186 0.45508-2.3125-0.002168-1.8532-0.73817-3.6308-2.0488-4.9414-1.3125-1.3125-3.0931-2.0508-4.9492-2.0508zm-2 20a1 1 0 0 0-1 1 1 1 0 0 0 1 1h4a1 1 0 0 0 1-1 1 1 0 0 0-1-1zm-1-4a1 1 0 0 0-1 1 1 1 0 0 0 1 1h6a1 1 0 0 0 1-1 1 1 0 0 0-1-1z" color="#000000" fill="#000" stroke-linecap="round" stroke-linejoin="round" style="-inkscape-stroke:none"/>
</svg>
