<svg viewBox="0 0 24 24" xmlns="http://www.w3.org/2000/svg">
<path d="M12 9.16705C14.21 9.16705 16 7.33967 16 5.08353C16 2.82738 14.21 1 12 1C9.79 1 8 2.82738 8 5.08353C8 7.33967 9.79 9.16705 12 9.16705ZM12 3.04176C13.1 3.04176 14 3.96056 14 5.08353C14 6.2065 13.1 7.12529 12 7.12529C10.9 7.12529 10 6.2065 10 5.08353C10 3.96056 10.9 3.04176 12 3.04176ZM3 8.14617C6.48 8.14617 9.64 9.52436 12 11.7703C14.36 9.52436 17.52 8.14617 21 8.14617V19.3759C17.52 19.3759 14.36 20.7643 12 23C9.64 20.7541 6.48 19.3759 3 19.3759V8.14617ZM19 17.4668C16.47 17.8139 14.07 18.794 12 20.3457C9.94 18.794 7.53 17.8037 5 17.4566V10.3615C7.1 10.7494 9.05 11.7397 10.64 13.2506L12 14.5573L13.36 13.2608C14.95 11.7499 16.9 10.7596 19 10.3717V17.4668Z"/>
</svg>