<svg width="14" height="18" viewBox="0 0 14 18" fill="none" xmlns="http://www.w3.org/2000/svg">
<path d="M7 0C3.40643 0 0.5 2.817 0.5 6.3C0.5 11.025 7 18 7 18C7 18 13.5 11.025 13.5 6.3C13.5 2.817 10.5936 0 7 0ZM2.35714 6.3C2.35714 3.816 4.43714 1.8 7 1.8C9.56286 1.8 11.6429 3.816 11.6429 6.3C11.6429 8.892 8.96857 12.771 7 15.192C5.06857 12.789 2.35714 8.865 2.35714 6.3Z" fill="#2E3374"/>
<path d="M7.00014 8.5498C8.28223 8.5498 9.32157 7.54244 9.32157 6.2998C9.32157 5.05716 8.28223 4.0498 7.00014 4.0498C5.71805 4.0498 4.67871 5.05716 4.67871 6.2998C4.67871 7.54244 5.71805 8.5498 7.00014 8.5498Z" fill="#2E3374"/>
</svg>
