<?xml version="1.0" encoding="utf-8"?>
<!-- Generator: Adobe Illustrator 22.0.1, SVG Export Plug-In . SVG Version: 6.00 Build 0)  -->
<svg version="1.1" id="Layer_1" xmlns="http://www.w3.org/2000/svg" xmlns:xlink="http://www.w3.org/1999/xlink" x="0px" y="0px"
	 viewBox="0 0 24 24" style="enable-background:new 0 0 24 24;" xml:space="preserve">
<g>
	<path d="M12.1,21.9c-0.3,0-0.7,0-1,0c-5.5-0.6-9.5-5.4-9-10.9c0.4-4.8,4.2-8.6,9-9c0.4,0,0.8,0.2,1,0.5c0.2,0.3,0.2,0.8-0.1,1.1
		c-0.9,1.3-1.3,2.9-1.1,4.5c0.2,1.6,1.1,3,2.4,3.9c2.2,1.6,5,1.6,7.1,0c0.3-0.2,0.7-0.2,1.1-0.1c0.3,0.2,0.5,0.6,0.5,1
		C21.5,18.1,17.1,21.9,12.1,21.9z M9.3,4.4c-2.8,1-4.9,3.6-5.2,6.8c-0.4,4.4,2.8,8.3,7.2,8.7c3.7,0.4,7-1.9,8.2-5.2
		c-2.5,0.9-5.2,0.5-7.4-1.1c-1.7-1.3-2.9-3.1-3.2-5.3C8.7,7,8.9,5.7,9.3,4.4z"/>
</g>
</svg>
