<?xml version="1.0" encoding="UTF-8"?>
<svg width="24" height="24" fill="none" version="1.1" viewBox="0 0 24 24" xmlns="http://www.w3.org/2000/svg">
 <path d="m10 5a1.0001 1.0001 0 0 0-1 1v4a1.0001 1.0001 0 0 0 1 1h8a1.0001 1.0001 0 0 0 1-1v-4a1.0001 1.0001 0 0 0-1-1zm1 2h6v2h-6zm-1 10a1 1 0 0 0-1 1 1 1 0 0 0 1 1h5a1 1 0 0 0 1-1 1 1 0 0 0-1-1zm0-4a1 1 0 0 0-1 1 1 1 0 0 0 1 1h8a1 1 0 0 0 1-1 1 1 0 0 0-1-1zm-2-12c-0.79526 0-1.5588 0.31655-2.1211 0.87891-0.56236 0.56234-0.87891 1.3258-0.87891 2.1211v4h-1c-1.6455 0-3 1.3545-3 3v9c0 0.79524 0.31659 1.5587 0.87891 2.1211 0.56235 0.56239 1.3258 0.87891 2.1211 0.87891h16c0.79523 0 1.5587-0.31655 2.1211-0.87891s0.87891-1.3259 0.87891-2.1211v-16c0-0.79525-0.31651-1.5587-0.87891-2.1211-0.56235-0.56232-1.3259-0.87891-2.1211-0.87891zm0 2h12c0.26556 0 0.51918 0.10513 0.70703 0.29297 0.18781 0.18779 0.29297 0.44142 0.29297 0.70703v16c0 0.26557-0.10512 0.51919-0.29297 0.70703s-0.44146 0.29297-0.70703 0.29297h-13.414c0.13323-0.34307 0.41406-0.62512 0.41406-1v-16c0-0.2656 0.10516-0.51923 0.29297-0.70703 0.1878-0.1878 0.44143-0.29297 0.70703-0.29297zm-4 7h1v10c0 0.26556-0.10513 0.51918-0.29297 0.70703-0.18779 0.18781-0.44142 0.29297-0.70703 0.29297s-0.51924-0.10516-0.70703-0.29297c-0.18784-0.18785-0.29297-0.44148-0.29297-0.70703v-9c0-0.55454 0.44546-1 1-1z" color="#000000" fill="#000" stroke-linecap="round" stroke-linejoin="round" style="-inkscape-stroke:none"/>
</svg>
