<svg width="18" height="50" viewBox="0 0 18 50" fill="none" xmlns="http://www.w3.org/2000/svg">
	<path fill-rule="evenodd" clip-rule="evenodd" d="M8.77693 9.41177C11.3759 9.41177 13.4828 7.30487 13.4828 4.70588C13.4828 2.1069 11.3759 0 8.77693 0C6.17794 0 4.07104 2.1069 4.07104 4.70588C4.07104 7.30487 6.17794 9.41177 8.77693 9.41177Z" fill="#EEEEEE"/>
	<path fill-rule="evenodd" clip-rule="evenodd" d="M5.29335 11.1765C2.60394 11.1765 0.396319 13.3038 0.296779 15.9914L0.00209877 23.9478C-0.0608356 25.647 1.29965 27.0588 3.00004 27.0588H3.53106L5.50496 47.2913C5.65489 48.828 6.94676 50 8.49079 50H8.93002C10.4741 50 11.7659 48.828 11.9158 47.2913L13.8897 27.0588H14.4208C16.1212 27.0588 17.4816 25.647 17.4187 23.9478L17.124 15.9914C17.0245 13.3038 14.8169 11.1765 12.1275 11.1765H5.29335Z" fill="#EEEEEE"/>
</svg>
