<?xml version="1.0" encoding="UTF-8"?>
<svg width="26" height="24" fill="none" version="1.1" viewBox="0 0 26 24" xmlns="http://www.w3.org/2000/svg">
 <path d="m8.0302 12c-1.4625 0.0446-2.6587 0.6161-3.5885 1.7143h-1.8146c-0.74027 0-1.3632-0.1808-1.8687-0.5424-0.50556-0.3616-0.75833-0.8907-0.75833-1.5871 0-3.1518 0.55972-4.7277 1.6792-4.7277 0.05416 0 0.25052 0.09375 0.58906 0.28125s0.77865 0.37723 1.3203 0.5692c0.54167 0.19196 1.0788 0.28795 1.6115 0.28795 0.60486 0 1.2052-0.10268 1.801-0.30804-0.04514 0.33036-0.06771 0.625-0.06771 0.88393 0 1.2411 0.36563 2.384 1.0969 3.4286zm14.503 8.5312c0 1.0715-0.3295 1.9175-0.9885 2.538s-1.5347 0.9308-2.6271 0.9308h-11.835c-1.0924 0-1.968-0.3103-2.6271-0.9308s-0.98854-1.4665-0.98854-2.538c0-0.4732 0.0158-0.9352 0.04739-1.3861 0.0316-0.4509 0.09479-0.9375 0.18959-1.4598 0.09479-0.5224 0.21441-1.0067 0.35885-1.4532 0.14444-0.4464 0.33854-0.8817 0.58229-1.3058s0.52361-0.7857 0.83959-1.0848c0.31597-0.2991 0.7019-0.5379 1.1578-0.7165 0.4559-0.1786 0.9592-0.2679 1.5099-0.2679 0.09028 0 0.28438 0.096 0.5823 0.288 0.29791 0.192 0.62743 0.4062 0.98854 0.6428 0.36108 0.2367 0.84408 0.4509 1.449 0.6429 0.6048 0.192 1.2142 0.288 1.8281 0.288s1.2233-0.096 1.8281-0.288c0.6049-0.192 1.0879-0.4062 1.449-0.6429 0.3611-0.2366 0.6906-0.4508 0.9885-0.6428s0.492-0.288 0.5823-0.288c0.5507 0 1.054 0.0893 1.5099 0.2679s0.8419 0.4174 1.1578 0.7165c0.316 0.2991 0.5959 0.6607 0.8396 1.0848 0.2438 0.4241 0.4379 0.8594 0.5823 1.3058 0.1444 0.4465 0.2641 0.9308 0.3589 1.4532 0.0947 0.5223 0.1579 1.0089 0.1895 1.4598s0.0474 0.9129 0.0474 1.3861zm-13.867-17.103c0 0.94643-0.33855 1.7545-1.0156 2.4241s-1.4941 1.0045-2.451 1.0045-1.774-0.33482-2.451-1.0045-1.0156-1.4777-1.0156-2.4241 0.33855-1.7545 1.0156-2.4241c0.67708-0.66964 1.4941-1.0045 2.451-1.0045s1.774 0.33482 2.451 1.0045c0.67708 0.66965 1.0156 1.4777 1.0156 2.4241zm9.5333 5.1429c0 1.4196-0.5078 2.6317-1.5234 3.6362-1.0157 1.0045-2.2412 1.5067-3.6766 1.5067s-2.6609-0.5022-3.6766-1.5067c-1.0156-1.0045-1.5234-2.2165-1.5234-3.6362s0.50781-2.6317 1.5234-3.6362c1.0157-1.0045 2.2412-1.5067 3.6766-1.5067s2.6609 0.50223 3.6766 1.5067c1.0156 1.0045 1.5234 2.2165 1.5234 3.6362zm7.8 3.0134c0 0.6964-0.2528 1.2255-0.7583 1.5871-0.5056 0.3616-1.1285 0.5424-1.8688 0.5424h-1.8146c-0.9298-1.0982-2.126-1.6697-3.5885-1.7143 0.7312-1.0446 1.0969-2.1875 1.0969-3.4286 0-0.25893-0.0226-0.55357-0.0677-0.88393 0.5958 0.20536 1.1961 0.30804 1.801 0.30804 0.5326 0 1.0698-0.09599 1.6115-0.28795 0.5416-0.19197 0.9817-0.3817 1.3203-0.5692 0.3385-0.1875 0.5349-0.28125 0.589-0.28125 1.1195 0 1.6792 1.5759 1.6792 4.7277zm-1.7333-8.1562c0 0.94643-0.3386 1.7545-1.0157 2.4241-0.677 0.66964-1.4941 1.0045-2.451 1.0045s-1.774-0.33482-2.451-1.0045c-0.6771-0.66964-1.0157-1.4777-1.0157-2.4241s0.3386-1.7545 1.0157-2.4241c0.677-0.66964 1.4941-1.0045 2.451-1.0045s1.774 0.33482 2.451 1.0045c0.6771 0.66965 1.0157 1.4777 1.0157 2.4241z" fill="#15ADC2"/>
</svg>
