<?xml version="1.0" encoding="utf-8"?>
<!-- Generator: Adobe Illustrator 22.0.1, SVG Export Plug-In . SVG Version: 6.00 Build 0)  -->
<svg version="1.1" id="Layer_1" xmlns="http://www.w3.org/2000/svg" xmlns:xlink="http://www.w3.org/1999/xlink" x="0px" y="0px"
	 viewBox="0 0 24 24" style="enable-background:new 0 0 24 24;" xml:space="preserve">
<g>
	<path d="M20,22.9h-0.2c-3.3-0.3-6.3-1.4-9.1-3.3c-2.5-1.6-4.7-3.8-6.3-6.3c-1.7-2.6-2.8-5.7-3.2-9.1C1,3.5,1.3,2.7,1.8,2.1
		c0.5-0.6,1.2-1,2-1.1l3.3,0c1.6,0,2.8,1.1,3,2.6c0.1,0.9,0.4,1.7,0.7,2.6c0.4,1,0.2,2.3-0.6,3.1l-0.8,0.8c1.2,1.9,2.7,3.4,4.6,4.6
		l0.8-0.8c1-0.8,2.2-1,3.2-0.6c0.8,0.3,1.6,0.5,2.5,0.6c1.5,0.1,2.6,1.4,2.6,3v3C23,21.6,21.7,22.9,20,22.9z M3.9,3
		C3.6,3,3.4,3.2,3.3,3.4C3.2,3.6,3.1,3.8,3.1,4C3.5,7.1,4.5,9.9,6,12.3c1.4,2.3,3.4,4.3,5.7,5.7c2.6,1.7,5.3,2.7,8.2,3l0.1,0
		c0.6,0,1-0.4,1-1v-3c0-0.5-0.3-1-0.8-1c-1.1-0.1-2.1-0.4-3-0.7c-0.5-0.2-0.9,0-1.1,0.2l-1.2,1.2c-0.3,0.3-0.8,0.4-1.2,0.2
		c-2.7-1.5-4.9-3.7-6.4-6.4C7,10,7.1,9.5,7.4,9.2l1.3-1.3c0.2-0.2,0.3-0.7,0.2-1c-0.3-1-0.7-2-0.8-3.1c0-0.5-0.6-0.8-1-0.8H3.9z"/>
</g>
</svg>
