<?xml version="1.0" encoding="UTF-8"?>
<svg width="20" height="20" fill="none" version="1.1" viewBox="0 0 20 20" xmlns="http://www.w3.org/2000/svg">
 <path d="m1 11a1.0001 1.0001 0 0 0-1 1v5c0 0.79524 0.31659 1.5587 0.87891 2.1211 0.56235 0.56239 1.3258 0.87891 2.1211 0.87891h1c0.79525 0 1.5587-0.31651 2.1211-0.87891 0.56232-0.56235 0.87891-1.3259 0.87891-2.1211v-3c0-0.79524-0.31659-1.5587-0.87891-2.1211-0.56235-0.56239-1.3258-0.87891-2.1211-0.87891zm15 0c-0.79523 0-1.5587 0.31655-2.1211 0.87891s-0.87891 1.3259-0.87891 2.1211v3c0 0.79523 0.31655 1.5587 0.87891 2.1211s1.3259 0.87891 2.1211 0.87891h1c0.79523 0 1.5587-0.31655 2.1211-0.87891s0.87891-1.3259 0.87891-2.1211v-5a1.0001 1.0001 0 0 0-1-1zm-14 2h2c0.26561 0 0.51924 0.10516 0.70703 0.29297 0.18784 0.18785 0.29297 0.44148 0.29297 0.70703v3c0 0.26556-0.10513 0.51918-0.29297 0.70703-0.18779 0.18781-0.44142 0.29297-0.70703 0.29297h-1c-0.26561 0-0.51924-0.10516-0.70703-0.29297-0.18784-0.18785-0.29297-0.44148-0.29297-0.70703zm14 0h2v4c0 0.26557-0.10512 0.51919-0.29297 0.70703s-0.44146 0.29297-0.70703 0.29297h-1c-0.26557 0-0.51919-0.10512-0.70703-0.29297s-0.29297-0.44146-0.29297-0.70703v-3c0-0.26557 0.10512-0.51919 0.29297-0.70703s0.44146-0.29297 0.70703-0.29297zm-6-13c-2.6518 0-5.1952 1.0546-7.0703 2.9297s-2.9297 4.4185-2.9297 7.0703v6a1 1 0 0 0 1 1 1 1 0 0 0 1-1v-6c0-2.1221 0.84319-4.1557 2.3438-5.6562s3.5341-2.3438 5.6562-2.3438c2.1221 0 4.1556 0.84317 5.6562 2.3438 1.5005 1.5006 2.3438 3.5341 2.3438 5.6562v6a1 1 0 0 0 1 1 1 1 0 0 0 1-1v-6c0-2.6518-1.0546-5.1952-2.9297-7.0703-1.8752-1.8751-4.4186-2.9297-7.0703-2.9297z" color="#000000" fill="#15adc2" stroke-linecap="round" stroke-linejoin="round" style="-inkscape-stroke:none"/>
</svg>
