<?xml version="1.0" encoding="UTF-8"?>
<svg width="24" height="24" fill="none" version="1.1" viewBox="0 0 24 24" xmlns="http://www.w3.org/2000/svg">
 <path d="m14 19a1 1 0 0 0-1 1 1 1 0 0 0 1 1h7a1 1 0 0 0 1-1 1 1 0 0 0-1-1zm0-5a1 1 0 0 0-1 1 1 1 0 0 0 1 1h7a1 1 0 0 0 1-1 1 1 0 0 0-1-1zm0-6a1 1 0 0 0-1 1 1 1 0 0 0 1 1h7a1 1 0 0 0 1-1 1 1 0 0 0-1-1zm0-5a1 1 0 0 0-1 1 1 1 0 0 0 1 1h7a1 1 0 0 0 1-1 1 1 0 0 0-1-1zm-11-1a1.0001 1.0001 0 0 0-1 1v7a1.0001 1.0001 0 0 0 1 1h7a1.0001 1.0001 0 0 0 1-1v-7a1.0001 1.0001 0 0 0-1-1zm1 2h5v5h-5zm-1 9a1.0001 1.0001 0 0 0-1 1v7a1.0001 1.0001 0 0 0 1 1h7a1.0001 1.0001 0 0 0 1-1v-7a1.0001 1.0001 0 0 0-1-1zm1 2h5v5h-5z" color="#000000" fill="#000" stroke-linecap="round" stroke-linejoin="round" style="-inkscape-stroke:none"/>
</svg>
