<?xml version="1.0" encoding="utf-8"?>
<!-- Generator: Adobe Illustrator 22.0.1, SVG Export Plug-In . SVG Version: 6.00 Build 0)  -->
<svg version="1.1" id="Layer_1" xmlns="http://www.w3.org/2000/svg" xmlns:xlink="http://www.w3.org/1999/xlink" x="0px" y="0px"
	 viewBox="0 0 400.3 440.2" style="enable-background:new 0 0 400.3 440.2;" xml:space="preserve">
<path d="M400.2,358.4c0-0.6,0-1.2,0-1.8c0-1.9,0-3.8-0.2-5.6c-0.6-6-2-11.8-4-17.5c-3.6-10.3-9.1-19.4-16.4-27.4
	c-7.5-8.2-16.3-14.6-26.4-19.2c-9.1-4.1-18.6-6.5-28.6-7c-4.4-0.2-8.8-0.1-13.2,0.4c-9.2,1-17.9,3.5-26.1,7.6
	c-7.6,3.7-14.5,8.5-20.5,14.4c-0.8,0.8-1.4,0.8-2.3,0.3c-6.1-3.6-12.2-7.2-18.3-10.8c-14.5-8.5-29-17.1-43.5-25.6
	c-13.8-8.1-27.5-16.2-41.3-24.3c-1.5-0.9-1.5-0.9-1.1-2.6c1.3-5.3,2-10.7,2.2-16.1c0.1-2.4-0.1-4.8-0.1-7.2c0-1.5-0.2-3-0.3-4.5
	c-0.4-3.7-1-7.3-2-10.8c-0.2-0.8,0-1.4,0.7-1.8c1.1-0.7,2.3-1.3,3.4-2c10.4-6.2,20.8-12.3,31.2-18.4c15.5-9.1,31-18.2,46.4-27.3
	c7.5-4.4,15-8.8,22.5-13.3c0.8-0.5,1.5-0.5,2.2,0.2c6.6,6.4,14.1,11.5,22.5,15.3c13.7,6.3,28.1,8.4,43.1,6.5
	c10-1.2,19.5-4.3,28.4-9.2c9.5-5.2,17.6-12,24.4-20.5c5.8-7.2,10.2-15.1,13.2-23.8c2.5-7.4,4.2-14.9,4.1-22.8c0-0.6,0-1.2,0-1.8
	c0-1.1,0-2.3,0-3.4c0-0.6,0-1.2,0-1.8c0-3-0.2-6-0.7-9c-1.6-9.8-4.8-19-9.8-27.5c-4.6-7.9-10.3-14.8-17.2-20.8
	c-6-5.2-12.7-9.4-20-12.7c-7.1-3.1-14.4-5.2-22.1-6.2c-1.9-0.2-3.8-0.1-5.7-0.4c-0.1,0-0.2,0-0.2,0c-0.6,0.3-1.2,0.1-1.8,0.1
	c-1.7,0-3.3,0-5,0c-0.6-0.1-1.2,0.1-1.8-0.1c-0.2,0-0.3,0-0.5,0c-1.5,0.2-3.1,0.1-4.6,0.3c-8.7,1-16.9,3.4-24.8,7.1
	c-9.7,4.7-18.2,10.9-25.4,19c-5.9,6.6-10.7,13.9-14.2,22c-4.7,11-7,22.5-6.5,34.6c0.2,5.7,1,11.2,2.3,16.7c0.2,1,0,1.5-0.9,1.9
	c-11.9,7-23.8,14-35.7,21c-17.3,10.2-34.5,20.3-51.8,30.5c-5.3,3.1-10.7,6.3-16,9.4c-0.8,0.5-1.4,0.4-2-0.2
	c-0.9-0.7-1.6-1.6-2.4-2.3c-6.5-5.7-13.8-10.4-21.8-13.8c-12.3-5.3-25.2-7.3-38.5-6.1c-7.1,0.6-14,2.2-20.8,4.7
	c-12.6,4.7-23.3,12.1-32.2,22.1c-5.8,6.5-10.5,13.8-13.9,21.9c-3.8,8.9-6.2,18.2-6.1,27.9c0,0.6,0,1.2,0,1.8c0,1.1,0,2.1,0,3.2
	c0,0.6,0,1.2,0,1.8c-0.1,1.8,0,3.5,0.2,5.3c0.7,6.5,2.2,12.8,4.4,18.9c5.6,14.9,14.7,27.2,27.4,36.8c8.1,6.1,17,10.4,26.8,13.2
	c6.9,2,14,2.8,21.2,2.9c3.2,0,6.4-0.2,9.6-0.6c14.1-1.7,26.8-6.9,38.2-15.3c2.8-2.1,5.4-4.4,7.9-6.7c0.7-0.6,1.3-0.6,2-0.1
	c14.3,8.4,28.5,16.8,42.8,25.2c7.8,4.6,15.6,9.2,23.4,13.8c12.5,7.3,24.9,14.7,37.4,22c0.7,0.4,1,0.9,0.8,1.8
	c-1.8,7.5-2.8,15.1-2.4,22.9c0.2,3.1,0.4,6.2,0.9,9.3c1.5,9.3,4.5,18.1,9.1,26.4c4.8,8.6,10.9,16,18.4,22.4
	c6.1,5.2,12.8,9.4,20.2,12.5c6.3,2.7,12.9,4.6,19.7,5.6c2.3,0.3,4.6,0.3,6.9,0.6c0.2,0,0.5,0,0.7,0c0.6-0.3,1.2-0.1,1.8-0.1
	c1.6,0,3.3,0,4.9,0c0.5,0.1,1.1-0.1,1.6,0.1c0.2,0,0.3,0,0.5,0c1.7-0.2,3.4-0.1,5.1-0.3c10.6-1.3,20.5-4.6,29.7-9.8
	c8.1-4.6,15.2-10.3,21.2-17.4c6.3-7.3,11.3-15.5,14.6-24.6c2.9-7.9,4.8-16,4.7-24.4c0-0.6,0-1.2,0-1.8
	C400.2,360.7,400.2,359.5,400.2,358.4z M290.8,53.1c15.4-16.9,41.6-17.4,57.7-1.2c7.7,7.8,11.5,17.2,11.7,26.2
	c0,21.9-14.9,39.1-34.7,41.5c-15.2,1.9-27.5-3.6-37.1-15.5c-0.3-0.4-0.5-0.8-0.7-1.2c-0.6-1.3-1.1-2.6-2-3.7
	c-3.1-3.9-4.3-8.6-5-13.4C278.9,73.4,282.3,62.4,290.8,53.1z M116.8,235.9c-0.3,0.7-0.6,1.3-1.1,1.8c-1,1.2-1.8,2.5-2.2,4.1
	c-0.1,0.4-0.4,0.9-0.7,1.2c-7.6,10.3-17.7,16.1-30.5,16.9c-20.6,1.2-38.9-13.8-41.7-34.1c-3.1-21.8,12.1-42.4,33.8-45.3
	c15.2-2,27.7,3.3,37.4,15.2c0.4,0.5,0.7,1.1,1,1.8c0.4,1.1,0.9,2.2,1.7,3c3.1,3.6,4.1,8.1,5,12.5c0.5,2.3,0.6,4.7,0.6,7
	C120.1,225.6,119,230.9,116.8,235.9z M325.8,399.6c-21.6,2.9-41.4-11.6-45-33c-1.4-8-0.3-15.7,3-23.1c0.3-0.6,0.6-1,1-1.5
	c0.9-1.1,1.7-2.2,2-3.6c0.1-0.6,0.5-1,0.8-1.4c8.8-11.7,20.5-17.5,35.2-16.7c18.1,0.9,33.9,15.3,36.7,33.2c0.4,2.2,0.5,4.4,0.6,5.9
	C360.1,379.9,345.3,397,325.8,399.6z M317.5,439.9c1.8,0,3.5,0,5.3,0c0.1,0.1,0.1,0.1,0.1,0.1c0,0-0.1,0.1-0.1,0.1
	c-1.8,0-3.5,0-5.3,0C317.4,440.1,317.4,440.1,317.5,439.9C317.5,440,317.5,439.9,317.5,439.9z M322.8,0.2c-1.8,0-3.5,0-5.3,0
	c-0.1-0.1-0.1-0.1-0.1-0.1c0,0,0.1-0.1,0.1-0.1c1.8,0,3.5,0,5.3,0C322.9,0,322.9,0.1,322.8,0.2C322.9,0.2,322.8,0.2,322.8,0.2z
	 M400.1,81.9c0-1.2,0-2.4,0-3.6c0.1-0.1,0.1-0.1,0.2,0c0,1.2,0,2.4,0,3.6C400.3,81.9,400.2,81.9,400.1,81.9z M400.1,361.9
	c0-1.2,0-2.4,0-3.6c0.1-0.1,0.1-0.1,0.2,0c0,1.2,0,2.4,0,3.6C400.3,362,400.2,362,400.1,361.9z M0.2,218.4c0,1.1,0,2.3,0,3.4
	c-0.1,0.1-0.1,0.1-0.2,0c0-1.1,0-2.2,0-3.4C0.1,218.3,0.1,218.3,0.2,218.4z M400.1,361.9c0.1,0,0.1,0,0.2,0c0,0.6,0,1.3,0,1.9
	c-0.1,0-0.1,0-0.2,0C400.1,363.2,400.1,362.6,400.1,361.9z M400.3,358.3L400.3,358.3l-0.2,0c0-0.6,0-1.3,0-1.9c0.1,0,0.1,0,0.2,0
	C400.3,357,400.3,357.7,400.3,358.3z M0,221.8c0.1,0,0.1,0,0.2,0c0,0.6,0,1.3,0,1.9c0,0-0.1,0-0.1,0l-0.1,0C0,223,0,222.4,0,221.8z
	 M0.2,218.4L0.2,218.4l-0.2,0c0-0.6,0-1.3,0-1.9c0.1,0,0.1,0,0.2,0C0.2,217.1,0.2,217.7,0.2,218.4z M400.1,81.9c0.1,0,0.1,0,0.2,0
	c0,0.6,0,1.3,0,1.9c-0.1,0-0.1,0-0.2,0C400.1,83.1,400.1,82.5,400.1,81.9z M400.3,78.2l-0.1,0l-0.1,0c0-0.6,0-1.3,0-1.9
	c0.1,0,0.1,0,0.2,0C400.3,77,400.3,77.6,400.3,78.2z M322.8,0.2c0-0.1,0-0.1,0-0.2c0.6,0,1.1,0,1.7,0C324,0.5,323.4,0.1,322.8,0.2z
	 M317.5,439.9c0,0.1,0,0.1,0,0.2c-0.6,0-1.1,0-1.7,0C316.3,439.7,316.9,440,317.5,439.9z M317.5,0c0,0.1,0,0.1,0,0.2
	c-0.6-0.1-1.2,0.3-1.7-0.2C316.4,0,317,0,317.5,0z M322.8,440.2c0-0.1,0-0.1,0-0.2c0.5,0.1,1-0.3,1.4,0.2
	C323.8,440.2,323.3,440.2,322.8,440.2z"/>
</svg>
