<?xml version="1.0" encoding="UTF-8"?>
<svg width="20" height="20" fill="none" version="1.1" viewBox="0 0 20 20" xmlns="http://www.w3.org/2000/svg">
 <path d="m13 6a1 1 0 0 0-0.70703 0.29297l-2.793 2.793-1.293-1.293a1.0001 1.0001 0 0 0-1.4141 0l-2.5 2.5a1 1 0 0 0 0 1.4141 1 1 0 0 0 1.4141 0l1.793-1.793 1.293 1.293a1.0001 1.0001 0 0 0 1.4141 0l3.5-3.5a1 1 0 0 0 0-1.4141 1 1 0 0 0-0.70703-0.29297zm1.6504 7.6504a1 1 0 0 0-0.70703 0.29297 1 1 0 0 0 0 1.4141l4.3496 4.3496a1 1 0 0 0 1.4141 0 1 1 0 0 0 0-1.4141l-4.3496-4.3496a1 1 0 0 0-0.70703-0.29297zm-5.6504-13.65c-4.9587 0-9 4.0413-9 9 0 4.9587 4.0413 9 9 9 4.9587 0 9-4.0413 9-9 0-4.9587-4.0413-9-9-9zm0 2c3.8779 0 7 3.1222 7 7 0 3.8779-3.1221 7-7 7-3.8778 0-7-3.1221-7-7 0-3.8778 3.1222-7 7-7z" color="#000000" fill="#15adc2" stroke-linecap="round" stroke-linejoin="round" style="-inkscape-stroke:none"/>
</svg>
