<?xml version="1.0" encoding="UTF-8"?>
<svg width="22" height="20" fill="none" version="1.1" viewBox="0 0 22 20" xmlns="http://www.w3.org/2000/svg">
 <path d="m15 0c-1.3257 0-2.5978 0.52742-3.5352 1.4648-0.93748 0.93742-1.4648 2.2095-1.4648 3.5352v14a1.0001 1.0001 0 0 0 2 0c0-0.53073 0.21061-1.0387 0.58594-1.4141 0.37533-0.37533 0.88334-0.58594 1.4141-0.58594h7a1.0001 1.0001 0 0 0 1-1v-15a1.0001 1.0001 0 0 0-1-1zm0 2h5v13h-6c-0.72171 0-1.3887 0.25604-2 0.61719v-10.617c0-0.79606 0.31599-1.5582 0.87891-2.1211 0.56283-0.56286 1.325-0.87891 2.1211-0.87891zm-14-2a1.0001 1.0001 0 0 0-1 1v15a1.0001 1.0001 0 0 0 1 1h7c0.53079 0 1.0387 0.2106 1.4141 0.58594 0.37533 0.37533 0.58594 0.88334 0.58594 1.4141a1.0001 1.0001 0 0 0 2 0v-14c0-1.3257-0.5274-2.5977-1.4648-3.5352-0.93741-0.9374-2.2095-1.4648-3.5352-1.4648zm1 2h5c0.79604 0 1.5582 0.31602 2.1211 0.87891 0.56289 0.56288 0.87891 1.325 0.87891 2.1211v10.617c-0.61125-0.36115-1.2783-0.61719-2-0.61719h-6z" color="#000000" fill="#15adc2" stroke-linecap="round" stroke-linejoin="round" style="-inkscape-stroke:none"/>
</svg>
