<svg viewBox="0 0 24 24" xmlns="http://www.w3.org/2000/svg">
<path d="M5.39181 15.9181C7.69201 14.9825 9.89474 14.5146 12 14.5146C14.1053 14.5146 16.2885 14.9825 18.5497 15.9181C20.8499 16.8148 22 18.0039 22 19.4854V22H2V19.4854C2 18.0039 3.1306 16.8148 5.39181 15.9181ZM15.5088 10.538C14.5341 11.5127 13.3645 12 12 12C10.6355 12 9.46589 11.5127 8.49123 10.538C7.51657 9.56335 7.02924 8.39376 7.02924 7.02924C7.02924 5.66472 7.51657 4.49513 8.49123 3.52047C9.46589 2.50682 10.6355 2 12 2C13.3645 2 14.5341 2.50682 15.5088 3.52047C16.4834 4.49513 16.9708 5.66472 16.9708 7.02924C16.9708 8.39376 16.4834 9.56335 15.5088 10.538Z"/>
</svg>
