<?xml version="1.0" encoding="UTF-8"?>
<svg width="24" height="24" fill="none" version="1.1" viewBox="0 0 24 24" xmlns="http://www.w3.org/2000/svg">
 <path d="m3.367 4.4463c-1.7752 0-3.2373 1.4621-3.2373 3.2373v8.6328c0 1.7752 1.4621 3.2373 3.2373 3.2373h10.791c1.7752 0 3.2373-1.4621 3.2373-3.2373v-8.6328c0-1.7752-1.4621-3.2373-3.2373-3.2373zm0 2.1582h10.791c0.60881 0 1.0791 0.47033 1.0791 1.0791v8.6328c0 0.60881-0.47028 1.0791-1.0791 1.0791h-10.791c-0.60877 0-1.0791-0.47029-1.0791-1.0791v-8.6328c0-0.60875 0.47034-1.0791 1.0791-1.0791zm19.934 0.12856a1.0792 1.0792 0 0 0-1.1086 0.05269l-6.4746 4.3164a1.0792 1.0792 0 0 0 0 1.7957l6.4746 4.3164a1.0792 1.0792 0 0 0 1.6777-0.89783v-8.6328a1.0792 1.0792 0 0 0-0.56904-0.95053zm-1.5892 2.9675v4.5987l-3.4502-2.2995z" color="#000000" fill="#15adc2" stroke-linecap="round" stroke-linejoin="round" stroke-width="1.0791" style="-inkscape-stroke:none"/>
</svg>
