<svg width="512" height="361" viewBox="0 0 512 361" fill="none" xmlns="http://www.w3.org/2000/svg">
<path d="M506.5 78.2584C506.5 78.2584 501.5 43.0096 486.2 27.4881C466.8 7.10984 445 7.0097 435.05 5.80804C363.55 0.650894 256.35 0.650894 256.35 0.650894H256.15C256.15 0.650894 148.95 0.650894 77.45 5.80804C67.5 7.0097 45.7 7.10984 26.3 27.4881C11 43.0096 5.99999 78.2584 5.99999 78.2584C5.99999 78.2584 0.899994 119.616 0.899994 161.023V199.827C0.899994 241.234 5.99999 282.591 5.99999 282.591C5.99999 282.591 11 317.84 26.3 333.362C45.75 353.74 71.25 353.089 82.6 355.242C123.45 359.147 256.25 360.399 256.25 360.399C256.25 360.399 363.55 360.249 435.05 355.042C445.05 353.84 466.8 353.74 486.2 333.362C501.5 317.84 506.5 282.591 506.5 282.591C506.5 282.591 511.6 241.184 511.6 199.827V161.023C511.6 119.616 506.5 78.2584 506.5 78.2584ZM203.5 246.842V103.143L341.5 175.243L203.5 246.842Z" fill="url(#paint0_linear)"/>
<path d="M203.5 246.842L341.5 175.243L203.5 103.143V246.842Z" fill="white"/>
<path opacity="0.12" d="M203.5 103.143L324.5 184.055L341.5 175.243L203.5 103.143Z" fill="#420000"/>
<defs>
<linearGradient id="paint0_linear" x1="256.25" y1="0.650894" x2="256.25" y2="360.399" gradientUnits="userSpaceOnUse">
<stop stop-color="#E52D27"/>
<stop offset="1" stop-color="#BF171D"/>
</linearGradient>
</defs>
</svg>
