<?xml version="1.0" encoding="utf-8"?>
<!-- Generator: Adobe Illustrator 22.0.1, SVG Export Plug-In . SVG Version: 6.00 Build 0)  -->
<svg version="1.1" id="Layer_1" xmlns="http://www.w3.org/2000/svg" xmlns:xlink="http://www.w3.org/1999/xlink" x="0px" y="0px"
	 viewBox="0 0 259.3 60" style="enable-background:new 0 0 259.3 60;" xml:space="preserve">
<style type="text/css">
	.st0{fill:#CCCCCC;}
	.st1{clip-path:url(#SVGID_2_);}
	.st2{fill:#2E3374;}
</style>
<g>
	<path class="st0" d="M32.1,40.6H11.2c0,2.4,0.5,4.6,1.5,6.4c1,1.8,2.2,3.2,3.8,4.2c1.6,0.9,3.3,1.4,5.2,1.4c1.3,0,2.4-0.1,3.5-0.4
		c1.1-0.3,2.1-0.8,3.1-1.4c1-0.6,1.9-1.3,2.7-2.1c0.8-0.7,1.9-1.7,3.2-3c0.5-0.5,1.3-0.7,2.3-0.7c1.1,0,2,0.3,2.7,0.9
		c0.7,0.6,1,1.4,1,2.5c0,1-0.4,2.1-1.1,3.4c-0.8,1.3-1.9,2.5-3.4,3.7c-1.5,1.2-3.4,2.2-5.7,2.9s-5,1.2-7.9,1.2c-6.8,0-12.2-2-16-5.9
		c-3.8-3.9-5.7-9.2-5.7-15.9c0-3.2,0.5-6.1,1.4-8.8s2.3-5,4.1-6.9c1.8-1.9,4-3.4,6.6-4.4c2.6-1,5.5-1.5,8.8-1.5
		c4.2,0,7.7,0.9,10.7,2.6c3,1.8,5.2,4,6.7,6.8c1.5,2.8,2.2,5.6,2.2,8.5c0,2.7-0.8,4.4-2.3,5.2C37,40.2,34.9,40.6,32.1,40.6z
		 M11.2,34.6h19.3c-0.3-3.6-1.2-6.4-2.9-8.2c-1.7-1.8-4-2.7-6.7-2.7c-2.7,0-4.8,0.9-6.5,2.8C12.6,28.3,11.6,31,11.2,34.6z"/>
	<path class="st0" d="M79.1,53.6v-1.1c-1.4,1.6-2.8,3-4.2,4c-1.4,1-2.9,1.8-4.5,2.3c-1.6,0.5-3.4,0.8-5.3,0.8
		c-2.6,0-4.9-0.5-7.1-1.6c-2.2-1.1-4.1-2.6-5.6-4.6c-1.6-2-2.8-4.4-3.6-7.1c-0.8-2.7-1.2-5.6-1.2-8.8c0-6.7,1.6-11.9,4.9-15.6
		c3.3-3.7,7.5-5.6,12.9-5.6c3.1,0,5.7,0.5,7.8,1.6s4.2,2.7,6.2,4.9V7.1c0-2.2,0.4-3.8,1.3-5c0.9-1.1,2.1-1.7,3.7-1.7
		C85.7,0.5,87,1,87.8,2c0.9,1,1.3,2.5,1.3,4.6v47c0,2-0.5,3.6-1.4,4.6s-2.1,1.5-3.6,1.5c-1.5,0-2.7-0.5-3.6-1.6
		C79.5,57.1,79.1,55.6,79.1,53.6z M58.1,37.9c0,2.9,0.4,5.4,1.3,7.4s2.1,3.6,3.7,4.6c1.6,1,3.3,1.5,5.1,1.5c1.9,0,3.6-0.5,5.1-1.5
		c1.5-1,2.8-2.5,3.7-4.5c0.9-2,1.4-4.5,1.4-7.6c0-2.8-0.5-5.3-1.4-7.3c-0.9-2-2.2-3.6-3.8-4.7c-1.6-1.1-3.3-1.6-5.2-1.6
		c-2,0-3.7,0.6-5.2,1.7c-1.5,1.1-2.7,2.7-3.6,4.8C58.5,32.8,58.1,35.2,58.1,37.9z"/>
	<path class="st0" d="M127.5,53.7v-1.4c-1.3,1.6-2.6,3-4,4.1s-2.9,1.9-4.6,2.4c-1.7,0.5-3.6,0.8-5.7,0.8c-2.6,0-4.9-0.5-6.9-1.6
		c-2-1.1-3.6-2.5-4.7-4.4c-1.3-2.3-2-5.5-2-9.8V22.7c0-2.1,0.5-3.7,1.4-4.8c1-1.1,2.2-1.6,3.8-1.6c1.6,0,2.9,0.5,3.9,1.6
		c1,1.1,1.5,2.7,1.5,4.8v17.1c0,2.5,0.2,4.6,0.6,6.2c0.4,1.7,1.2,3,2.2,3.9c1.1,1,2.5,1.4,4.4,1.4c1.8,0,3.5-0.5,5.1-1.6
		c1.6-1.1,2.7-2.5,3.5-4.2c0.6-1.5,0.9-4.8,0.9-9.9v-13c0-2.1,0.5-3.7,1.5-4.8c1-1.1,2.3-1.6,3.9-1.6c1.6,0,2.9,0.5,3.8,1.6
		c1,1.1,1.4,2.7,1.4,4.8v30.9c0,2-0.5,3.6-1.4,4.6c-0.9,1-2.1,1.5-3.6,1.5c-1.5,0-2.7-0.5-3.6-1.6C128,57.1,127.5,55.6,127.5,53.7z"
		/>
	<path class="st0" d="M155.2,59.7c-1.6,0-3-0.5-4.2-1.6s-1.8-2.5-1.8-4.4c0-1.6,0.6-3,1.7-4.1c1.1-1.1,2.5-1.7,4.1-1.7
		s3,0.6,4.2,1.7c1.2,1.1,1.7,2.5,1.7,4.1c0,1.8-0.6,3.3-1.7,4.4C158.2,59.2,156.8,59.7,155.2,59.7z"/>
	<path class="st0" d="M203,40.6h-20.9c0,2.4,0.5,4.6,1.5,6.4c1,1.8,2.2,3.2,3.8,4.2c1.6,0.9,3.3,1.4,5.2,1.4c1.3,0,2.4-0.1,3.5-0.4
		c1.1-0.3,2.1-0.8,3.1-1.4c1-0.6,1.9-1.3,2.7-2.1c0.8-0.7,1.9-1.7,3.2-3c0.5-0.5,1.3-0.7,2.3-0.7c1.1,0,2,0.3,2.7,0.9
		c0.7,0.6,1,1.4,1,2.5c0,1-0.4,2.1-1.1,3.4c-0.8,1.3-1.9,2.5-3.4,3.7c-1.5,1.2-3.4,2.2-5.7,2.9s-5,1.2-7.9,1.2c-6.8,0-12.2-2-16-5.9
		c-3.8-3.9-5.7-9.2-5.7-15.9c0-3.2,0.5-6.1,1.4-8.8s2.3-5,4.1-6.9c1.8-1.9,4-3.4,6.6-4.4c2.6-1,5.5-1.5,8.8-1.5
		c4.2,0,7.7,0.9,10.7,2.6c3,1.8,5.2,4,6.7,6.8c1.5,2.8,2.2,5.6,2.2,8.5c0,2.7-0.8,4.4-2.3,5.2C207.9,40.2,205.7,40.6,203,40.6z
		 M182.1,34.6h19.3c-0.3-3.6-1.2-6.4-2.9-8.2c-1.7-1.8-4-2.7-6.7-2.7c-2.7,0-4.8,0.9-6.5,2.8C183.5,28.3,182.5,31,182.1,34.6z"/>
	<path class="st0" d="M250.5,40.6h-20.9c0,2.4,0.5,4.6,1.5,6.4c1,1.8,2.2,3.2,3.8,4.2c1.6,0.9,3.3,1.4,5.2,1.4
		c1.3,0,2.4-0.1,3.5-0.4c1.1-0.3,2.1-0.8,3.1-1.4c1-0.6,1.9-1.3,2.7-2.1c0.8-0.7,1.9-1.7,3.2-3c0.5-0.5,1.3-0.7,2.3-0.7
		c1.1,0,2,0.3,2.7,0.9c0.7,0.6,1,1.4,1,2.5c0,1-0.4,2.1-1.1,3.4c-0.8,1.3-1.9,2.5-3.4,3.7c-1.5,1.2-3.4,2.2-5.7,2.9s-5,1.2-7.9,1.2
		c-6.8,0-12.2-2-16-5.9c-3.8-3.9-5.7-9.2-5.7-15.9c0-3.2,0.5-6.1,1.4-8.8s2.3-5,4.1-6.9c1.8-1.9,4-3.4,6.6-4.4
		c2.6-1,5.5-1.5,8.8-1.5c4.2,0,7.7,0.9,10.7,2.6c3,1.8,5.2,4,6.7,6.8c1.5,2.8,2.2,5.6,2.2,8.5c0,2.7-0.8,4.4-2.3,5.2
		C255.4,40.2,253.3,40.6,250.5,40.6z M229.6,34.6H249c-0.3-3.6-1.2-6.4-2.9-8.2c-1.7-1.8-4-2.7-6.7-2.7c-2.7,0-4.8,0.9-6.5,2.8
		C231,28.3,230,31,229.6,34.6z"/>
</g>
<g>
	<defs>
		<rect id="SVGID_1_" width="300%" height="60" x="-300%"/>
		<animate 
    xlink:href="#SVGID_1_"
    attributeName="x"
    from="-300%"
    to="200%" 
    dur="2s"
    begin="0.5s"
    repeatCount="indefinite"/>
	</defs>
	<clipPath id="SVGID_2_">
		<use xlink:href="#SVGID_1_"  style="overflow:visible;"/>
	</clipPath>
	<g class="st1">
		<path class="st2" d="M32.1,40.6H11.2c0,2.4,0.5,4.6,1.5,6.4c1,1.8,2.2,3.2,3.8,4.2c1.6,0.9,3.3,1.4,5.2,1.4c1.3,0,2.4-0.1,3.5-0.4
			c1.1-0.3,2.1-0.8,3.1-1.4c1-0.6,1.9-1.3,2.7-2.1c0.8-0.7,1.9-1.7,3.2-3c0.5-0.5,1.3-0.7,2.3-0.7c1.1,0,2,0.3,2.7,0.9
			c0.7,0.6,1,1.4,1,2.5c0,1-0.4,2.1-1.1,3.4c-0.8,1.3-1.9,2.5-3.4,3.7c-1.5,1.2-3.4,2.2-5.7,2.9s-5,1.2-7.9,1.2
			c-6.8,0-12.2-2-16-5.9c-3.8-3.9-5.7-9.2-5.7-15.9c0-3.2,0.5-6.1,1.4-8.8s2.3-5,4.1-6.9c1.8-1.9,4-3.4,6.6-4.4
			c2.6-1,5.5-1.5,8.8-1.5c4.2,0,7.7,0.9,10.7,2.6c3,1.8,5.2,4,6.7,6.8c1.5,2.8,2.2,5.6,2.2,8.5c0,2.7-0.8,4.4-2.3,5.2
			C37,40.2,34.9,40.6,32.1,40.6z M11.2,34.6h19.3c-0.3-3.6-1.2-6.4-2.9-8.2c-1.7-1.8-4-2.7-6.7-2.7c-2.7,0-4.8,0.9-6.5,2.8
			C12.6,28.3,11.6,31,11.2,34.6z"/>
		<path class="st2" d="M79.1,53.6v-1.1c-1.4,1.6-2.8,3-4.2,4c-1.4,1-2.9,1.8-4.5,2.3c-1.6,0.5-3.4,0.8-5.3,0.8
			c-2.6,0-4.9-0.5-7.1-1.6c-2.2-1.1-4.1-2.6-5.6-4.6c-1.6-2-2.8-4.4-3.6-7.1c-0.8-2.7-1.2-5.6-1.2-8.8c0-6.7,1.6-11.9,4.9-15.6
			c3.3-3.7,7.5-5.6,12.9-5.6c3.1,0,5.7,0.5,7.8,1.6s4.2,2.7,6.2,4.9V7.1c0-2.2,0.4-3.8,1.3-5c0.9-1.1,2.1-1.7,3.7-1.7
			C85.7,0.5,87,1,87.8,2c0.9,1,1.3,2.5,1.3,4.6v47c0,2-0.5,3.6-1.4,4.6s-2.1,1.5-3.6,1.5c-1.5,0-2.7-0.5-3.6-1.6
			C79.5,57.1,79.1,55.6,79.1,53.6z M58.1,37.9c0,2.9,0.4,5.4,1.3,7.4s2.1,3.6,3.7,4.6c1.6,1,3.3,1.5,5.1,1.5c1.9,0,3.6-0.5,5.1-1.5
			c1.5-1,2.8-2.5,3.7-4.5c0.9-2,1.4-4.5,1.4-7.6c0-2.8-0.5-5.3-1.4-7.3c-0.9-2-2.2-3.6-3.8-4.7c-1.6-1.1-3.3-1.6-5.2-1.6
			c-2,0-3.7,0.6-5.2,1.7c-1.5,1.1-2.7,2.7-3.6,4.8C58.5,32.8,58.1,35.2,58.1,37.9z"/>
		<path class="st2" d="M127.5,53.7v-1.4c-1.3,1.6-2.6,3-4,4.1s-2.9,1.9-4.6,2.4c-1.7,0.5-3.6,0.8-5.7,0.8c-2.6,0-4.9-0.5-6.9-1.6
			c-2-1.1-3.6-2.5-4.7-4.4c-1.3-2.3-2-5.5-2-9.8V22.7c0-2.1,0.5-3.7,1.4-4.8c1-1.1,2.2-1.6,3.8-1.6c1.6,0,2.9,0.5,3.9,1.6
			c1,1.1,1.5,2.7,1.5,4.8v17.1c0,2.5,0.2,4.6,0.6,6.2c0.4,1.7,1.2,3,2.2,3.9c1.1,1,2.5,1.4,4.4,1.4c1.8,0,3.5-0.5,5.1-1.6
			c1.6-1.1,2.7-2.5,3.5-4.2c0.6-1.5,0.9-4.8,0.9-9.9v-13c0-2.1,0.5-3.7,1.5-4.8c1-1.1,2.3-1.6,3.9-1.6c1.6,0,2.9,0.5,3.8,1.6
			c1,1.1,1.4,2.7,1.4,4.8v30.9c0,2-0.5,3.6-1.4,4.6c-0.9,1-2.1,1.5-3.6,1.5c-1.5,0-2.7-0.5-3.6-1.6C128,57.1,127.5,55.6,127.5,53.7z
			"/>
		<path class="st2" d="M155.2,59.7c-1.6,0-3-0.5-4.2-1.6s-1.8-2.5-1.8-4.4c0-1.6,0.6-3,1.7-4.1c1.1-1.1,2.5-1.7,4.1-1.7
			s3,0.6,4.2,1.7c1.2,1.1,1.7,2.5,1.7,4.1c0,1.8-0.6,3.3-1.7,4.4C158.2,59.2,156.8,59.7,155.2,59.7z"/>
		<path class="st2" d="M203,40.6h-20.9c0,2.4,0.5,4.6,1.5,6.4c1,1.8,2.2,3.2,3.8,4.2c1.6,0.9,3.3,1.4,5.2,1.4c1.3,0,2.4-0.1,3.5-0.4
			c1.1-0.3,2.1-0.8,3.1-1.4c1-0.6,1.9-1.3,2.7-2.1c0.8-0.7,1.9-1.7,3.2-3c0.5-0.5,1.3-0.7,2.3-0.7c1.1,0,2,0.3,2.7,0.9
			c0.7,0.6,1,1.4,1,2.5c0,1-0.4,2.1-1.1,3.4c-0.8,1.3-1.9,2.5-3.4,3.7c-1.5,1.2-3.4,2.2-5.7,2.9s-5,1.2-7.9,1.2
			c-6.8,0-12.2-2-16-5.9c-3.8-3.9-5.7-9.2-5.7-15.9c0-3.2,0.5-6.1,1.4-8.8s2.3-5,4.1-6.9c1.8-1.9,4-3.4,6.6-4.4
			c2.6-1,5.5-1.5,8.8-1.5c4.2,0,7.7,0.9,10.7,2.6c3,1.8,5.2,4,6.7,6.8c1.5,2.8,2.2,5.6,2.2,8.5c0,2.7-0.8,4.4-2.3,5.2
			C207.9,40.2,205.7,40.6,203,40.6z M182.1,34.6h19.3c-0.3-3.6-1.2-6.4-2.9-8.2c-1.7-1.8-4-2.7-6.7-2.7c-2.7,0-4.8,0.9-6.5,2.8
			C183.5,28.3,182.5,31,182.1,34.6z"/>
		<path class="st2" d="M250.5,40.6h-20.9c0,2.4,0.5,4.6,1.5,6.4c1,1.8,2.2,3.2,3.8,4.2c1.6,0.9,3.3,1.4,5.2,1.4
			c1.3,0,2.4-0.1,3.5-0.4c1.1-0.3,2.1-0.8,3.1-1.4c1-0.6,1.9-1.3,2.7-2.1c0.8-0.7,1.9-1.7,3.2-3c0.5-0.5,1.3-0.7,2.3-0.7
			c1.1,0,2,0.3,2.7,0.9c0.7,0.6,1,1.4,1,2.5c0,1-0.4,2.1-1.1,3.4c-0.8,1.3-1.9,2.5-3.4,3.7c-1.5,1.2-3.4,2.2-5.7,2.9s-5,1.2-7.9,1.2
			c-6.8,0-12.2-2-16-5.9c-3.8-3.9-5.7-9.2-5.7-15.9c0-3.2,0.5-6.1,1.4-8.8s2.3-5,4.1-6.9c1.8-1.9,4-3.4,6.6-4.4
			c2.6-1,5.5-1.5,8.8-1.5c4.2,0,7.7,0.9,10.7,2.6c3,1.8,5.2,4,6.7,6.8c1.5,2.8,2.2,5.6,2.2,8.5c0,2.7-0.8,4.4-2.3,5.2
			C255.4,40.2,253.3,40.6,250.5,40.6z M229.6,34.6H249c-0.3-3.6-1.2-6.4-2.9-8.2c-1.7-1.8-4-2.7-6.7-2.7c-2.7,0-4.8,0.9-6.5,2.8
			C231,28.3,230,31,229.6,34.6z"/>
	</g>
</g>
</svg>
