<?xml version="1.0" encoding="UTF-8"?>
<svg width="22px" height="21px" viewBox="0 0 22 21" version="1.1" xmlns="http://www.w3.org/2000/svg" xmlns:xlink="http://www.w3.org/1999/xlink">
    <!-- Generator: Sketch 53.1 (72631) - https://sketchapp.com -->
    <title>Group 28</title>
    <desc>Created with Sketch.</desc>
    <g id="Page-1" stroke="none" stroke-width="1" fill="none" fill-rule="evenodd">
        <g id="Põhikutseala_detailvaade_md" transform="translate(-1053.000000, -651.000000)">
            <g id="Group-22" transform="translate(974.000000, 651.000000)">
                <g id="Group-18" transform="translate(79.000000, 0.000000)">
                    <g id="Group-10">
                        <g id="Group-28">
                            <ellipse id="Oval-Copy-4" fill="#C7C7C9" cx="11" cy="16.8" rx="11" ry="3.3"></ellipse>
                            <rect id="Rectangle" fill="#C7C7C9" x="0" y="11.3" width="22" height="5.5"></rect>
                            <ellipse id="Oval" fill="#EEEEEE" cx="11" cy="11.3" rx="11" ry="3.3"></ellipse>
                            <ellipse id="Oval-Copy-4" fill="#C7C7C9" cx="11" cy="8.8" rx="11" ry="3.3"></ellipse>
                            <rect id="Rectangle" fill="#C7C7C9" x="0" y="3.3" width="22" height="5.5"></rect>
                            <ellipse id="Oval" fill="#EEEEEE" cx="11" cy="3.3" rx="11" ry="3.3"></ellipse>
                            <path d="M13.9113985,3.81482815 C13.9657763,3.81482815 14.0164735,3.82650781 14.0636442,3.8498675 C14.1110182,3.87322719 14.1377304,3.90242636 14.1435939,3.93746589 C14.2094694,4.16716947 14.1609428,4.3783768 13.9916034,4.57109421 C13.8131033,4.76381163 13.5086809,4.91759392 13.07747,5.03244572 C12.6359554,5.14729751 12.097579,5.20472254 11.4700526,5.20472254 C10.5775705,5.20472254 9.88460386,5.08695256 9.40875446,4.85140905 C8.95640198,4.61586555 8.74626699,4.27812848 8.76690595,3.83818772 L8.17629143,3.83818772 C8.11571527,3.83818772 8.06867825,3.82456144 8.03537052,3.79730847 C8.00231823,3.7700555 7.99247609,3.73696311 8.00565223,3.6980303 L8.12028406,3.35931654 C8.13477781,3.31649045 8.16620581,3.28242475 8.21439111,3.25711842 C8.26233921,3.23181209 8.3144394,3.21915912 8.37087112,3.21915912 L8.89568357,3.21915912 L8.95162128,2.99724321 L8.44062611,2.99724321 C8.38568012,2.99724321 8.34342866,2.98361693 8.31406204,2.95636396 C8.28495086,2.92911099 8.27707925,2.8960186 8.29025539,2.85708579 L8.40488722,2.51837203 C8.41938097,2.47554594 8.44883844,2.44148024 8.49308263,2.41617391 C8.53708962,2.39086758 8.58440424,2.37821461 8.63520581,2.37821461 L9.13051862,2.37821461 C9.30323653,1.93438057 9.58438921,1.59372358 9.96201121,1.35623344 C10.3159421,1.11874329 10.7521715,1 11.2884808,1 C11.6626501,1 11.9979618,1.05742503 12.302154,1.17227683 C12.6166499,1.28712862 12.8826291,1.44091091 13.0992422,1.63362833 C13.3250162,1.82634574 13.485173,2.03755307 13.5733085,2.26725666 L13.5772965,2.27893644 C13.5879312,2.31008269 13.5804849,2.33636194 13.5548177,2.35777499 C13.528964,2.37918803 13.4956159,2.3898944 13.4549121,2.3898944 L12.7146152,2.3898944 C12.6535595,2.3898944 12.6029916,2.37918803 12.5630607,2.35777499 C12.5233304,2.33636194 12.4881233,2.29840302 12.4575068,2.24389709 C12.3463622,2.04533975 12.1962535,1.90129051 12.0075122,1.81174505 C11.8232073,1.72219958 11.5943926,1.67742752 11.317734,1.67742752 C10.7459729,1.67742752 10.3934222,1.91102088 10.2506876,2.37821461 L11.5080201,2.37821461 C11.5639019,2.37821461 11.6093331,2.39086758 11.6444804,2.41617391 C11.679848,2.44148024 11.6995064,2.47554594 11.7032912,2.51837203 L11.7332247,2.85708579 C11.7366653,2.8960186 11.7205187,2.92911099 11.6845927,2.95636396 C11.6484112,2.98361693 11.6027524,2.99724321 11.5478064,2.99724321 L10.1549325,2.99724321 L10.1315322,3.21915912 L11.5620694,3.21915912 C11.6241443,3.21915912 11.6745019,3.23181209 11.7133088,3.25711842 C11.752336,3.28242475 11.7738242,3.31649045 11.7776089,3.35931654 L11.8075424,3.6980303 C11.8109831,3.73696311 11.7943689,3.7700555 11.7575214,3.79730847 C11.7204368,3.82456144 11.6684894,3.83818772 11.6018557,3.83818772 L10.1026034,3.83818772 C10.1833098,4.29759488 10.6324464,4.52729502 11.4407993,4.52729502 C11.8319379,4.52729502 12.1429178,4.48252296 12.3704211,4.3929775 C12.5934881,4.30343203 12.7327537,4.15938279 12.7885585,3.96082546 C12.8024618,3.90631952 12.8284685,3.8683606 12.8666479,3.84694755 C12.9046266,3.82553451 12.9597917,3.81482815 13.0322954,3.81482815 L13.9113985,3.81482815 Z" id="€" fill="#C7C7C9"></path>
                        </g>
                    </g>
                </g>
            </g>
        </g>
    </g>
</svg>