<svg width="138" height="80" viewBox="0 0 138 80" fill="none" xmlns="http://www.w3.org/2000/svg">
<path d="M138 0H0V80H138V0Z" fill="white"/>
<path d="M21.5098 60.5093V55.5481H25.139V56.0797H22.2179V57.6743H24.962V58.2059H22.2179V59.9778H25.2275V60.5093H21.5098Z" fill="black"/>
<path d="M28.5033 60.5093V59.9778C28.2377 60.4207 27.7951 60.5979 27.3525 60.5979C27.1755 60.5979 26.9099 60.5979 26.7329 60.5093C26.5559 60.4208 26.3788 60.3322 26.2903 60.2436C26.2018 60.155 26.1133 59.9778 26.1133 59.8006C26.1133 59.712 26.1133 59.4462 26.1133 59.269V57.0542H26.7329V59.0918C26.7329 59.4462 26.7329 59.6234 26.7329 59.712C26.7329 59.8892 26.8214 59.9778 26.9985 60.0664C27.087 60.155 27.264 60.2436 27.4411 60.2436C27.6181 60.2436 27.7951 60.155 27.9722 60.0664C28.1492 59.9778 28.2377 59.8006 28.3262 59.712C28.4148 59.5348 28.4148 59.269 28.4148 59.0033V57.0542H29.0344V60.6865H28.5033V60.5093Z" fill="black"/>
<path d="M30.0078 60.5095V56.8772H30.5389V57.4087C30.716 57.143 30.8045 56.9658 30.893 56.8772C30.9815 56.7886 31.1585 56.7886 31.2471 56.7886C31.4241 56.7886 31.6897 56.8772 31.8667 56.9658L31.7782 57.5859C31.6011 57.4973 31.5126 57.4087 31.3356 57.4087C31.1586 57.4087 31.07 57.4087 30.9815 57.4973C30.893 57.5859 30.8045 57.6745 30.716 57.8517C30.6274 58.0289 30.6274 58.2947 30.6274 58.5604V60.4209H30.0078V60.5095Z" fill="black"/>
<path d="M32.043 58.7376C32.043 58.0289 32.22 57.5859 32.5741 57.2315C32.9282 56.9658 33.2822 56.7886 33.7248 56.7886C34.2559 56.7886 34.61 56.9658 34.9641 57.3201C35.3181 57.6745 35.4067 58.1175 35.4067 58.649C35.4067 59.092 35.3181 59.4464 35.2296 59.7122C35.0526 59.9779 34.8756 60.1551 34.61 60.3323C34.3444 60.5095 34.0789 60.5981 33.7248 60.5981C33.1937 60.5981 32.8396 60.4209 32.4856 60.0665C32.22 59.8008 32.043 59.3578 32.043 58.7376ZM32.7511 58.7376C32.7511 59.1806 32.8396 59.535 33.0167 59.8008C33.1937 60.0665 33.4593 60.1551 33.8133 60.1551C34.0789 60.1551 34.3444 60.0665 34.61 59.8008C34.787 59.535 34.8756 59.1806 34.8756 58.7376C34.8756 58.2947 34.787 57.9403 34.61 57.6745C34.433 57.4087 34.1674 57.3201 33.8133 57.3201C33.5478 57.3201 33.2822 57.4087 33.0167 57.6745C32.8396 57.9403 32.7511 58.2947 32.7511 58.7376Z" fill="black"/>
<path d="M35.9375 58.7376C35.9375 58.0289 36.1145 57.5859 36.4686 57.2315C36.8227 56.9658 37.1768 56.7886 37.6193 56.7886C38.1505 56.7886 38.5045 56.9658 38.8586 57.3201C39.2127 57.6745 39.3012 58.1175 39.3012 58.649C39.3012 59.092 39.2127 59.4464 39.1242 59.7122C38.9471 59.9779 38.7701 60.1551 38.5045 60.3323C38.239 60.5095 37.9734 60.5981 37.6193 60.5981C37.0882 60.5981 36.7342 60.4209 36.3801 60.0665C36.1145 59.8008 35.9375 59.3578 35.9375 58.7376ZM36.6456 58.7376C36.6456 59.1806 36.7342 59.535 36.9112 59.8008C37.0882 60.0665 37.3538 60.1551 37.7079 60.1551C37.9734 60.1551 38.239 60.0665 38.5045 59.8008C38.6816 59.535 38.7701 59.1806 38.7701 58.7376C38.7701 58.2947 38.6816 57.9403 38.5045 57.6745C38.3275 57.4087 38.0619 57.3201 37.7079 57.3201C37.4423 57.3201 37.1768 57.4087 36.9112 57.6745C36.7342 57.9403 36.6456 58.2947 36.6456 58.7376Z" fill="black"/>
<path d="M40.0996 61.927V56.8771H40.6307V57.3201C40.7192 57.1429 40.8963 56.9657 41.0733 56.8771C41.2503 56.7885 41.4274 56.7 41.6929 56.7C42.047 56.7 42.3126 56.7885 42.4896 56.9657C42.7552 57.1429 42.9322 57.3201 43.0207 57.6745C43.1092 57.9403 43.1977 58.2946 43.1977 58.649C43.1977 59.0034 43.1092 59.3578 43.0207 59.6235C42.8437 59.8893 42.6666 60.1551 42.4011 60.3323C42.1355 60.5095 41.87 60.5981 41.6044 60.5981C41.4274 60.5981 41.2503 60.5981 41.0733 60.5095C40.8963 60.4209 40.8078 60.3323 40.6307 60.1551V61.927H40.0996ZM40.6307 58.7376C40.6307 59.1806 40.7192 59.5349 40.8963 59.8007C41.0733 60.0665 41.3389 60.1551 41.6044 60.1551C41.87 60.1551 42.1355 60.0665 42.3126 59.8007C42.4896 59.5349 42.5781 59.1806 42.5781 58.7376C42.5781 58.2946 42.4896 57.9403 42.3126 57.6745C42.1355 57.4087 41.87 57.3201 41.6044 57.3201C41.3389 57.3201 41.0733 57.4087 40.8963 57.6745C40.7192 57.9403 40.6307 58.2946 40.6307 58.7376Z" fill="black"/>
<path d="M46.3834 60.0664C46.1179 60.2435 45.9408 60.4207 45.7638 60.5093C45.5868 60.5979 45.3212 60.5979 45.0557 60.5979C44.6131 60.5979 44.3475 60.5093 44.1705 60.3321C43.9934 60.1549 43.8164 59.8892 43.8164 59.6234C43.8164 59.4462 43.8164 59.269 43.9049 59.0918C43.9934 58.9146 44.082 58.826 44.259 58.7374C44.3475 58.6489 44.5246 58.5603 44.7016 58.5603C44.7901 58.5603 44.9671 58.4717 45.2327 58.4717C45.7638 58.3831 46.1179 58.3831 46.2949 58.2945C46.2949 58.2059 46.2949 58.1173 46.2949 58.1173C46.2949 57.8515 46.2064 57.6743 46.1179 57.5857C45.9408 57.4085 45.7638 57.4085 45.4097 57.4085C45.1442 57.4085 44.8786 57.4971 44.7901 57.5857C44.6131 57.6743 44.5246 57.8515 44.5246 58.1173L43.9049 58.0287C43.9934 57.7629 44.082 57.5857 44.1705 57.4085C44.259 57.2314 44.436 57.1428 44.7016 57.0542C44.9671 56.9656 45.2327 56.9656 45.4983 56.9656C45.8523 56.9656 46.0294 56.9656 46.2949 57.0542C46.472 57.1428 46.649 57.2314 46.7375 57.3199C46.826 57.4085 46.9145 57.5857 46.9145 57.7629C46.9145 57.8515 46.9145 58.0287 46.9145 58.2945V59.0918C46.9145 59.6234 46.9145 60.0664 46.9145 60.1549C46.9145 60.3321 47.0031 60.4207 47.0916 60.5979H46.472C46.3834 60.4207 46.3834 60.2435 46.3834 60.0664ZM46.2949 58.7374C46.0294 58.826 45.7638 58.9146 45.3212 59.0032C45.0557 59.0032 44.8786 59.0918 44.7901 59.0918C44.7016 59.1804 44.6131 59.1804 44.5246 59.269C44.436 59.3576 44.436 59.4462 44.436 59.5348C44.436 59.712 44.5246 59.8006 44.6131 59.9778C44.7016 60.0663 44.8786 60.1549 45.1442 60.1549C45.4097 60.1549 45.5868 60.0663 45.7638 59.9778C45.9408 59.8892 46.1179 59.712 46.2064 59.5348C46.2949 59.3576 46.2949 59.1804 46.2949 58.9146V58.7374Z" fill="black"/>
<path d="M49.8359 60.5093V55.5481H50.5441V59.9778H53.0226V60.5093H49.8359Z" fill="black"/>
<path d="M53.7305 56.2568V55.5481H54.3497V56.2568H53.7305ZM53.7305 60.5093V56.877H54.3497V60.5093H53.7305Z" fill="black"/>
<path d="M55.2363 56.2568V55.5481H55.8556V56.2568H55.2363ZM55.2363 60.5093V56.877H55.8556V60.5093H55.2363Z" fill="black"/>
<path d="M58.1565 59.9778L58.245 60.5094C58.0679 60.5094 57.8909 60.598 57.8024 60.598C57.5368 60.598 57.4483 60.598 57.2713 60.5094C57.1828 60.4208 57.0942 60.3322 57.0057 60.2436C56.9172 60.155 56.9172 59.8892 56.9172 59.5349V57.4086H56.4746V56.9657H56.9172V56.0797L57.5368 55.7253V56.9657H58.1565V57.4086H57.5368V59.5349C57.5368 59.7121 57.5368 59.8006 57.5368 59.8892C57.5368 59.9778 57.6253 59.9778 57.6253 59.9778C57.7139 59.9778 57.7139 59.9778 57.8024 59.9778C57.9794 59.9778 58.0679 59.9778 58.1565 59.9778Z" fill="black"/>
<path d="M26.998 67.6856V62.6357H30.5388V63.2559H27.6177V64.762H30.3617V65.3821H27.6177V67.0654H30.7158V67.6856H26.998Z" fill="black"/>
<path d="M33.9017 67.6854V67.1538C33.6362 67.5968 33.1936 67.774 32.751 67.774C32.5739 67.774 32.3084 67.774 32.1313 67.6854C31.9543 67.5968 31.7773 67.5082 31.6888 67.4196C31.6002 67.331 31.5117 67.1538 31.5117 66.9766C31.5117 66.888 31.5117 66.6222 31.5117 66.4451V64.2302H32.1313V66.2679C32.1313 66.6223 32.1313 66.7994 32.1313 66.888C32.1313 67.0652 32.2199 67.1538 32.3969 67.2424C32.4854 67.331 32.6625 67.4196 32.8395 67.4196C33.0165 67.4196 33.1936 67.331 33.3706 67.2424C33.5476 67.1538 33.6362 66.9766 33.7247 66.888C33.8132 66.7108 33.8132 66.4451 33.8132 66.1793V64.2302H34.4328V67.8626H33.9017V67.6854Z" fill="black"/>
<path d="M35.4082 67.6855V64.0532H35.9393V64.5848C36.1163 64.319 36.2049 64.1418 36.2934 64.0532C36.3819 63.9646 36.5589 63.9646 36.6475 63.9646C36.8245 63.9646 37.0901 64.0532 37.2671 64.1418L37.1786 64.7619C37.0015 64.6733 36.913 64.5848 36.736 64.5848C36.5589 64.5848 36.4704 64.5848 36.3819 64.6733C36.2934 64.7619 36.2049 64.8505 36.1164 65.0277C36.0278 65.2049 36.0278 65.4707 36.0278 65.7365V67.5969H35.4082V67.6855Z" fill="black"/>
<path d="M37.5312 65.9137C37.5312 65.2049 37.7083 64.7619 38.0624 64.4076C38.4164 64.1418 38.7705 63.9646 39.2131 63.9646C39.7442 63.9646 40.0983 64.1418 40.4524 64.4962C40.8064 64.8505 40.8949 65.2935 40.8949 65.8251C40.8949 66.268 40.8064 66.6224 40.7179 66.8882C40.5409 67.154 40.3638 67.3312 40.0983 67.5083C39.8327 67.6855 39.5672 67.7741 39.2131 67.7741C38.682 67.7741 38.3279 67.5969 37.9738 67.2426C37.7083 66.9768 37.5312 66.4452 37.5312 65.9137ZM38.1509 65.9137C38.1509 66.3566 38.2394 66.711 38.4164 66.9768C38.5935 67.2426 38.859 67.3312 39.2131 67.3312C39.4787 67.3312 39.7442 67.2426 40.0098 66.9768C40.1868 66.711 40.2753 66.3566 40.2753 65.9137C40.2753 65.4707 40.1868 65.1163 40.0098 64.8505C39.8327 64.5848 39.5672 64.4962 39.2131 64.4962C38.9475 64.4962 38.682 64.5848 38.4164 64.8505C38.2394 65.0277 38.1509 65.3821 38.1509 65.9137Z" fill="black"/>
<path d="M41.4258 65.9137C41.4258 65.2049 41.6028 64.7619 41.9569 64.4076C42.311 64.1418 42.665 63.9646 43.1076 63.9646C43.6387 63.9646 43.9928 64.1418 44.3469 64.4962C44.701 64.8505 44.7895 65.2935 44.7895 65.8251C44.7895 66.268 44.701 66.6224 44.6124 66.8882C44.4354 67.154 44.2584 67.3312 43.9928 67.5083C43.7273 67.6855 43.4617 67.7741 43.1076 67.7741C42.5765 67.7741 42.2224 67.5969 41.8684 67.2426C41.6028 66.9768 41.4258 66.4452 41.4258 65.9137ZM42.0454 65.9137C42.0454 66.3566 42.1339 66.711 42.311 66.9768C42.488 67.2426 42.7536 67.3312 43.1076 67.3312C43.3732 67.3312 43.6387 67.2426 43.9043 66.9768C44.0813 66.711 44.1699 66.3566 44.1699 65.9137C44.1699 65.4707 44.0813 65.1163 43.9043 64.8505C43.7273 64.5848 43.4617 64.4962 43.1076 64.4962C42.8421 64.4962 42.5765 64.5848 42.311 64.8505C42.1339 65.0277 42.0454 65.3821 42.0454 65.9137Z" fill="black"/>
<path d="M45.5859 69.103V64.0532H46.117V64.4961C46.2056 64.3189 46.3826 64.1418 46.5596 64.0532C46.7367 63.9646 46.9137 63.876 47.1793 63.876C47.5333 63.876 47.7989 63.9646 47.9759 64.1418C48.2415 64.3189 48.4185 64.4961 48.507 64.8505C48.5956 65.1163 48.6841 65.4707 48.6841 65.825C48.6841 66.1794 48.5956 66.5338 48.507 66.7996C48.33 67.0653 48.153 67.3311 47.8874 67.5083C47.6219 67.6855 47.3563 67.7741 47.0907 67.7741C46.9137 67.7741 46.7367 67.7741 46.5596 67.6855C46.3826 67.5969 46.2941 67.5083 46.117 67.3311V69.103H45.5859ZM46.117 65.9136C46.117 66.3566 46.2056 66.711 46.3826 66.9768C46.5596 67.2425 46.8252 67.3311 47.0907 67.3311C47.3563 67.3311 47.6219 67.2425 47.7989 66.9768C47.9759 66.711 48.0644 66.3566 48.0644 65.9136C48.0644 65.4707 47.9759 65.1163 47.7989 64.8505C47.6219 64.5847 47.3563 64.4961 47.0907 64.4961C46.8252 64.4961 46.5596 64.5847 46.3826 64.8505C46.2056 65.0277 46.117 65.3821 46.117 65.9136Z" fill="black"/>
<path d="M51.7838 67.2424C51.5183 67.4196 51.3412 67.5967 51.1642 67.6853C50.9872 67.7739 50.7216 67.7739 50.4561 67.7739C50.0135 67.7739 49.7479 67.6853 49.5709 67.5082C49.3938 67.331 49.2168 67.0652 49.2168 66.7994C49.2168 66.6222 49.2168 66.445 49.3053 66.2678C49.3938 66.0907 49.4824 66.0021 49.6594 65.9135C49.7479 65.8249 49.9249 65.7363 50.102 65.7363C50.1905 65.7363 50.3675 65.6477 50.6331 65.6477C51.1642 65.5591 51.5183 65.5591 51.6953 65.4705C51.6953 65.3819 51.6953 65.2933 51.6953 65.2933C51.6953 65.0275 51.6068 64.8503 51.5183 64.7618C51.3412 64.5846 51.1642 64.5846 50.8101 64.5846C50.5446 64.5846 50.279 64.6732 50.1905 64.7618C50.0135 64.8503 49.9249 65.0275 49.9249 65.2933L49.3053 65.2047C49.3938 64.9389 49.4824 64.7618 49.5709 64.5846C49.6594 64.4074 49.8364 64.3188 50.102 64.2302C50.3675 64.1416 50.6331 64.1416 50.8986 64.1416C51.2527 64.1416 51.4298 64.1416 51.6953 64.2302C51.8724 64.3188 52.0494 64.4074 52.1379 64.496C52.2264 64.5846 52.3149 64.7618 52.3149 64.9389C52.3149 65.0275 52.3149 65.2047 52.3149 65.4705V66.2678C52.3149 66.7994 52.3149 67.2424 52.3149 67.331C52.3149 67.5082 52.4035 67.5967 52.492 67.7739H51.8723C51.8723 67.5967 51.7838 67.4196 51.7838 67.2424ZM51.7838 65.8249C51.5183 65.9135 51.2527 66.0021 50.8101 66.0907C50.5446 66.0907 50.3675 66.1792 50.279 66.1792C50.1905 66.2678 50.102 66.2678 50.0135 66.3564C49.9249 66.445 49.9249 66.5336 49.9249 66.6222C49.9249 66.7994 50.0135 66.888 50.102 67.0652C50.1905 67.1538 50.3675 67.2424 50.6331 67.2424C50.8986 67.2424 51.0757 67.1538 51.2527 67.0652C51.4298 66.9766 51.6068 66.7994 51.6953 66.6222C51.7838 66.445 51.7838 66.2678 51.7838 66.0021V65.8249Z" fill="black"/>
<path d="M4.60352 74.8616V69.8118H6.81647C7.25906 69.8118 7.61314 69.9004 7.87869 69.989C8.14425 70.0775 8.32128 70.2547 8.4098 70.4319C8.58684 70.6977 8.58684 70.8749 8.58684 71.2293C8.58684 71.5836 8.49832 71.8494 8.23276 72.1152C7.96721 72.381 7.61314 72.5582 7.17055 72.5582C7.34758 72.6468 7.4361 72.7353 7.61314 72.8239C7.79017 73.0011 7.96721 73.2669 8.14425 73.5327L9.02943 74.8616H8.14425L7.52462 73.7985C7.34758 73.5327 7.17055 73.2669 7.08203 73.0897C6.99351 72.9125 6.81647 72.8239 6.72795 72.7353C6.55092 72.7353 6.4624 72.6468 6.37388 72.6468C6.28536 72.6468 6.19684 72.6468 6.01981 72.6468H5.22314V74.8616H4.60352ZM5.22314 72.0266H6.63944C6.90499 72.0266 7.17055 72.0266 7.34758 71.938C7.52462 71.8494 7.61314 71.7608 7.70165 71.6722C7.79017 71.495 7.87869 71.4064 7.87869 71.2293C7.87869 70.9635 7.79017 70.7863 7.61314 70.6091C7.4361 70.4319 7.17055 70.3433 6.81647 70.3433H5.22314V72.0266Z" fill="black"/>
<path d="M12.0384 73.7098L12.658 73.7984C12.5695 74.1528 12.3924 74.4186 12.1269 74.6843C11.8613 74.8615 11.5073 74.9501 11.0647 74.9501C10.5335 74.9501 10.091 74.7729 9.8254 74.4186C9.47133 74.0642 9.38281 73.6212 9.38281 73.0011C9.38281 72.3809 9.55985 71.9379 9.8254 71.5836C10.1795 71.2292 10.5335 71.052 11.0647 71.052C11.5073 71.052 11.9498 71.2292 12.2154 71.5836C12.481 71.9379 12.658 72.3809 12.658 73.0011C12.658 73.0011 12.658 73.0897 12.658 73.1783H9.91392C9.91392 73.6212 10.091 73.887 10.268 74.0642C10.445 74.2414 10.7106 74.4186 11.0647 74.4186C11.3302 74.4186 11.5073 74.33 11.6843 74.2414C11.7728 74.1528 11.9498 73.887 12.0384 73.7098ZM10.0024 72.6467H12.0384C12.0384 72.3809 11.9498 72.1151 11.7728 71.9379C11.5958 71.6722 11.3302 71.5836 10.9761 71.5836C10.7106 71.5836 10.445 71.6722 10.268 71.8493C10.1795 72.1151 10.0024 72.3809 10.0024 72.6467Z" fill="black"/>
<path d="M13.3665 75.1273L13.9861 75.2159C13.9861 75.3931 14.0746 75.5703 14.1632 75.6589C14.3402 75.7475 14.5172 75.8361 14.7828 75.8361C15.0483 75.8361 15.3139 75.7475 15.4024 75.6589C15.5794 75.5703 15.668 75.3931 15.7565 75.2159C15.7565 75.1273 15.845 74.8615 15.7565 74.4186C15.4909 74.7729 15.1369 74.8615 14.7828 74.8615C14.2517 74.8615 13.8976 74.6843 13.632 74.33C13.3665 73.9756 13.1895 73.5326 13.1895 73.0011C13.1895 72.6467 13.278 72.2923 13.3665 72.0265C13.455 71.7608 13.632 71.495 13.8976 71.3178C14.1632 71.1406 14.4287 71.052 14.6943 71.052C15.1369 71.052 15.4909 71.2292 15.7565 71.5836V71.1406H16.2876V74.2414C16.2876 74.7729 16.1991 75.2159 16.1106 75.4817C16.022 75.7475 15.845 75.9247 15.5794 76.0132C15.3139 76.1904 15.0483 76.1904 14.6943 76.1904C14.2517 76.1904 13.8976 76.1018 13.632 75.9246C13.455 75.8361 13.278 75.5703 13.3665 75.1273ZM13.8091 73.0011C13.8091 73.444 13.8976 73.7984 14.0746 74.0642C14.2517 74.2414 14.5172 74.4186 14.7828 74.4186C15.0483 74.4186 15.3139 74.33 15.4909 74.0642C15.668 73.887 15.7565 73.5326 15.7565 73.0011C15.7565 72.5581 15.668 72.2037 15.4909 72.0265C15.3139 71.7608 15.0483 71.6722 14.7828 71.6722C14.5172 71.6722 14.2517 71.7608 14.0746 72.0265C13.8976 72.2037 13.8091 72.5581 13.8091 73.0011Z" fill="black"/>
<path d="M17.3496 70.5205V69.8118H17.9688V70.5205H17.3496ZM17.3496 74.8616V71.2293H17.9688V74.8616H17.3496Z" fill="black"/>
<path d="M18.6777 73.0011C18.6777 72.2923 18.8548 71.8493 19.2088 71.495C19.5629 71.2292 19.917 71.052 20.3596 71.052C20.8907 71.052 21.2448 71.2292 21.5988 71.5836C21.9529 71.9379 22.0414 72.3809 22.0414 72.9125C22.0414 73.3554 21.9529 73.7098 21.8644 73.9756C21.6874 74.2414 21.5103 74.4186 21.2448 74.5958C20.9792 74.7729 20.7137 74.8615 20.3596 74.8615C19.8285 74.8615 19.4744 74.6843 19.1203 74.33C18.8548 74.0642 18.6777 73.6212 18.6777 73.0011ZM19.2974 73.0011C19.2974 73.444 19.3859 73.7984 19.5629 74.0642C19.74 74.33 20.0055 74.4186 20.3596 74.4186C20.6251 74.4186 20.8907 74.33 21.1562 74.0642C21.3333 73.7984 21.4218 73.444 21.4218 73.0011C21.4218 72.5581 21.3333 72.2037 21.1562 71.9379C20.9792 71.6722 20.7137 71.5836 20.3596 71.5836C20.094 71.5836 19.8285 71.6722 19.5629 71.9379C19.3859 72.2037 19.2974 72.5581 19.2974 73.0011Z" fill="black"/>
<path d="M22.75 74.8616V71.2292H23.2811V71.7608C23.5467 71.3178 23.9007 71.1406 24.4318 71.1406C24.6089 71.1406 24.8744 71.1406 25.0515 71.2292C25.2285 71.3178 25.4055 71.4064 25.4941 71.5836C25.5826 71.6722 25.6711 71.8494 25.6711 72.0266C25.6711 72.1152 25.6711 72.3809 25.6711 72.6467V74.8616H25.0515V72.6467C25.0515 72.3809 25.0515 72.2037 24.963 72.1152C24.8744 72.0266 24.7859 71.8494 24.6974 71.8494C24.6089 71.7608 24.4318 71.7608 24.2548 71.7608C23.9893 71.7608 23.7237 71.8494 23.5467 72.0266C23.3696 72.2037 23.2811 72.4695 23.2811 73.0011V74.9501H22.75V74.8616Z" fill="black"/>
<path d="M29.0338 74.4186C28.7683 74.5958 28.5912 74.773 28.4142 74.8616C28.2372 74.9502 27.9716 74.9501 27.7061 74.9501C27.2635 74.9501 26.9979 74.8616 26.8209 74.6844C26.6438 74.5072 26.4668 74.2414 26.4668 73.9756C26.4668 73.7984 26.4668 73.6212 26.5553 73.4441C26.6438 73.2669 26.7324 73.1783 26.9094 73.0897C26.9979 73.0011 27.1749 72.9125 27.352 72.9125C27.4405 72.9125 27.6175 72.8239 27.8831 72.8239C28.4142 72.7353 28.7683 72.7353 28.9453 72.6467C28.9453 72.5581 28.9453 72.4695 28.9453 72.4695C28.9453 72.2037 28.8568 72.0266 28.7683 71.938C28.5912 71.7608 28.4142 71.7608 28.0601 71.7608C27.7946 71.7608 27.529 71.8494 27.4405 71.938C27.2635 72.0266 27.1749 72.2037 27.1749 72.4695L26.5553 72.2037C26.6438 71.938 26.7324 71.7608 26.8209 71.5836C26.9094 71.4064 27.0864 71.3178 27.352 71.2292C27.6175 71.1406 27.8831 71.1406 28.1486 71.1406C28.5027 71.1406 28.6798 71.1406 28.9453 71.2292C29.1223 71.3178 29.2994 71.4064 29.3879 71.495C29.4764 71.5836 29.5649 71.7608 29.5649 71.938C29.5649 72.0266 29.5649 72.2037 29.5649 72.4695V73.2669C29.5649 73.7984 29.5649 74.2414 29.5649 74.33C29.5649 74.5072 29.6535 74.5958 29.742 74.773H29.1223C29.1223 74.6844 29.0338 74.5958 29.0338 74.4186ZM28.9453 73.0011C28.6798 73.0897 28.4142 73.1783 27.9716 73.2669C27.7061 73.2669 27.529 73.3555 27.4405 73.3555C27.352 73.4441 27.2635 73.4441 27.1749 73.5327C27.0864 73.6212 27.0864 73.7098 27.0864 73.7984C27.0864 73.9756 27.1749 74.0642 27.2635 74.2414C27.4405 74.4186 27.6175 74.4186 27.8831 74.4186C28.1486 74.4186 28.3257 74.33 28.5027 74.2414C28.6798 74.1528 28.8568 73.9756 28.9453 73.7984C29.0338 73.6212 29.0338 73.4441 29.0338 73.1783V73.0011H28.9453Z" fill="black"/>
<path d="M32.9284 74.4187C32.6628 74.5958 32.4858 74.773 32.3087 74.8616C32.1317 74.9502 31.8661 74.9502 31.6006 74.9502C31.158 74.9502 30.8924 74.8616 30.7154 74.6844C30.5384 74.5073 30.3613 74.2415 30.3613 73.9757C30.3613 73.7985 30.3613 73.6213 30.4498 73.4441C30.5384 73.2669 30.6269 73.1783 30.8039 73.0897C30.8924 73.0012 31.0695 72.9126 31.2465 72.9126C31.335 72.9126 31.5121 72.824 31.7776 72.824C32.3087 72.7354 32.6628 72.7354 32.8398 72.6468C32.8398 72.5582 32.8398 72.4696 32.8398 72.4696C32.8398 72.2038 32.7513 72.0266 32.6628 71.938C32.4858 71.7608 32.3087 71.7608 31.9547 71.7608C31.6891 71.7608 31.4235 71.8494 31.335 71.938C31.158 72.0266 31.0695 72.2038 31.0695 72.4696L30.4498 72.381C30.5384 72.1152 30.6269 71.938 30.7154 71.7608C30.8039 71.5837 30.981 71.4951 31.2465 71.4065C31.5121 71.3179 31.7776 71.3179 32.0432 71.3179C32.3972 71.3179 32.5743 71.3179 32.8398 71.4065C33.0169 71.4951 33.1939 71.5837 33.2824 71.6722C33.3709 71.7608 33.4595 71.938 33.4595 72.1152C33.4595 72.2038 33.4595 72.381 33.4595 72.6468V73.4441C33.4595 73.9757 33.4595 74.4187 33.4595 74.5072C33.4595 74.6844 33.548 74.773 33.6365 74.9502H33.0169C33.0169 74.6844 32.9284 74.5958 32.9284 74.4187ZM32.8398 73.0012C32.5743 73.0897 32.3087 73.1783 31.8661 73.2669C31.6006 73.2669 31.4235 73.3555 31.335 73.3555C31.2465 73.4441 31.158 73.4441 31.0695 73.5327C30.981 73.6213 30.981 73.7099 30.981 73.7985C30.981 73.9757 31.0695 74.0643 31.158 74.2415C31.2465 74.3301 31.4235 74.4187 31.6891 74.4187C31.9547 74.4187 32.1317 74.3301 32.3087 74.2415C32.4858 74.1529 32.6628 73.9757 32.7513 73.7985C32.8398 73.6213 32.8398 73.4441 32.8398 73.1783V73.0012Z" fill="black"/>
<path d="M35.0528 69.8118H34.4336V74.8616H35.0528V69.8118Z" fill="black"/>
<path d="M38.4166 74.4187C38.1511 74.5958 37.974 74.773 37.797 74.8616C37.62 74.9502 37.3544 74.9502 37.0889 74.9502C36.6463 74.9502 36.3807 74.8616 36.2037 74.6844C36.0266 74.5073 35.8496 74.2415 35.8496 73.9757C35.8496 73.7985 35.8496 73.6213 35.9381 73.4441C36.0266 73.2669 36.1152 73.1783 36.2922 73.0897C36.3807 73.0012 36.5578 72.9126 36.7348 72.9126C36.8233 72.9126 37.0003 72.824 37.2659 72.824C37.797 72.7354 38.1511 72.7354 38.3281 72.6468C38.3281 72.5582 38.3281 72.4696 38.3281 72.4696C38.3281 72.2038 38.2396 72.0266 38.1511 71.938C37.974 71.7608 37.797 71.7608 37.4429 71.7608C37.1774 71.7608 36.9118 71.8494 36.8233 71.938C36.6463 72.0266 36.5578 72.2038 36.5578 72.4696L35.9381 72.381C36.0266 72.1152 36.1152 71.938 36.2037 71.7608C36.2922 71.5837 36.4692 71.4951 36.7348 71.4065C37.0003 71.3179 37.2659 71.3179 37.5315 71.3179C37.8855 71.3179 38.0626 71.3179 38.3281 71.4065C38.5052 71.4951 38.6822 71.5837 38.7707 71.6722C38.8592 71.7608 38.9477 71.938 38.9477 72.1152C38.9477 72.2038 38.9477 72.381 38.9477 72.6468V73.4441C38.9477 73.9757 38.9477 74.4187 38.9477 74.5072C38.9477 74.6844 39.0363 74.773 39.1248 74.9502H38.5052C38.4166 74.6844 38.4166 74.5958 38.4166 74.4187ZM38.3281 73.0012C38.0626 73.0897 37.797 73.1783 37.3544 73.2669C37.0889 73.2669 36.9118 73.3555 36.8233 73.3555C36.7348 73.4441 36.6463 73.4441 36.5578 73.5327C36.4692 73.6213 36.4692 73.7099 36.4692 73.7985C36.4692 73.9757 36.5578 74.0643 36.6463 74.2415C36.7348 74.4187 36.9118 74.4187 37.1774 74.4187C37.4429 74.4187 37.62 74.3301 37.797 74.2415C37.974 74.1529 38.1511 73.9757 38.2396 73.7985C38.3281 73.6213 38.3281 73.4441 38.3281 73.1783V73.0012Z" fill="black"/>
<path d="M39.9219 74.8615V71.2292H40.453V71.7608C40.63 71.495 40.7185 71.3178 40.8071 71.2292C40.8956 71.1406 41.0726 71.1406 41.1611 71.1406C41.3382 71.1406 41.6037 71.2292 41.7808 71.3178L41.6037 71.8494C41.5152 71.7608 41.3382 71.7608 41.2496 71.7608C41.0726 71.7608 40.9841 71.7608 40.8956 71.8494C40.8071 71.938 40.7185 72.0266 40.63 72.2037C40.5415 72.3809 40.5415 72.6467 40.5415 72.9125V74.773H39.9219V74.8615Z" fill="black"/>
<path d="M44.7024 73.7098L45.3221 73.7984C45.2335 74.1528 45.0565 74.4186 44.7909 74.6843C44.5254 74.8615 44.1713 74.9501 43.7287 74.9501C43.1976 74.9501 42.755 74.7729 42.4895 74.4186C42.1354 74.0642 42.0469 73.6212 42.0469 73.0011C42.0469 72.3809 42.2239 71.9379 42.4895 71.5836C42.8435 71.2292 43.1976 71.052 43.7287 71.052C44.1713 71.052 44.6139 71.2292 44.8795 71.5836C45.145 71.9379 45.3221 72.3809 45.3221 73.0011C45.3221 73.0011 45.3221 73.0897 45.3221 73.1783H42.578C42.578 73.6212 42.755 73.887 42.9321 74.0642C43.1091 74.2414 43.3747 74.4186 43.7287 74.4186C43.9943 74.4186 44.1713 74.33 44.3483 74.2414C44.5254 74.1528 44.6139 73.887 44.7024 73.7098ZM42.6665 72.6467H44.7024C44.7024 72.3809 44.6139 72.1151 44.4369 71.9379C44.2598 71.6722 43.9943 71.5836 43.6402 71.5836C43.3746 71.5836 43.1091 71.6722 42.9321 71.8493C42.8435 72.1151 42.755 72.3809 42.6665 72.6467Z" fill="black"/>
<path d="M46.1172 74.8616V71.2292H46.6483V71.7608C46.9139 71.3178 47.2679 71.1406 47.799 71.1406C47.9761 71.1406 48.2416 71.1406 48.4187 71.2292C48.5957 71.3178 48.7727 71.4064 48.8613 71.5836C48.9498 71.6722 49.0383 71.8494 49.0383 72.0266C49.0383 72.1152 49.0383 72.3809 49.0383 72.6467V74.8616H48.4187V72.6467C48.4187 72.3809 48.4187 72.2037 48.3301 72.1152C48.2416 72.0266 48.1531 71.8494 48.0646 71.8494C47.9761 71.7608 47.799 71.7608 47.622 71.7608C47.3564 71.7608 47.0909 71.8494 46.9139 72.0266C46.7368 72.2037 46.6483 72.4695 46.6483 73.0011V74.9501H46.1172V74.8616Z" fill="black"/>
<path d="M49.9251 75.1273L50.5447 75.2159C50.5447 75.3931 50.6332 75.5703 50.7217 75.6589C50.8988 75.7475 51.0758 75.8361 51.3414 75.8361C51.6069 75.8361 51.8725 75.7475 51.961 75.6589C52.138 75.5703 52.2266 75.3931 52.3151 75.2159C52.3151 75.1273 52.4036 74.8615 52.3151 74.4186C52.0495 74.7729 51.6954 74.8615 51.3414 74.8615C50.8103 74.8615 50.4562 74.6843 50.1906 74.33C49.9251 73.9756 49.748 73.5326 49.748 73.0011C49.748 72.6467 49.8366 72.2923 49.9251 72.0265C50.0136 71.7608 50.1906 71.495 50.4562 71.3178C50.7217 71.1406 50.9873 71.052 51.2529 71.052C51.6954 71.052 52.0495 71.2292 52.3151 71.5836V71.1406H52.8462V74.2414C52.8462 74.7729 52.7577 75.2159 52.6691 75.4817C52.5806 75.7475 52.4036 75.9247 52.138 76.0132C51.8725 76.1904 51.6069 76.1904 51.2529 76.1904C50.8103 76.1904 50.4562 76.1018 50.1906 75.9246C50.0136 75.8361 49.9251 75.5703 49.9251 75.1273ZM50.4562 73.0011C50.4562 73.444 50.5447 73.7984 50.7217 74.0642C50.8988 74.2414 51.1643 74.4186 51.4299 74.4186C51.6954 74.4186 51.961 74.33 52.138 74.0642C52.3151 73.887 52.4036 73.5326 52.4036 73.0011C52.4036 72.5581 52.3151 72.2037 52.138 72.0265C51.961 71.7608 51.6954 71.6722 51.4299 71.6722C51.1643 71.6722 50.8988 71.7608 50.7217 72.0265C50.5447 72.2037 50.4562 72.5581 50.4562 73.0011Z" fill="black"/>
<path d="M56.2982 74.8616V74.3301C56.0326 74.7731 55.59 74.9502 55.1475 74.9502C54.9704 74.9502 54.7049 74.9502 54.5278 74.8616C54.3508 74.7731 54.1738 74.6845 54.0852 74.5959C53.9967 74.5073 53.9082 74.3301 53.9082 74.1529C53.9082 74.0643 53.9082 73.7985 53.9082 73.6213V71.4065H54.5278V73.4442C54.5278 73.7985 54.5278 73.9757 54.5278 74.0643C54.5278 74.2415 54.6163 74.3301 54.7934 74.4187C54.8819 74.5073 55.0589 74.5959 55.236 74.5959C55.413 74.5959 55.59 74.5073 55.7671 74.4187C55.9441 74.3301 56.0326 74.1529 56.1212 74.0643C56.2097 73.8871 56.2097 73.6213 56.2097 73.3556V71.4065H56.8293V75.0388H56.2982V74.8616Z" fill="black"/>
<path d="M59.8379 74.8616V69.8118H63.2016V70.4319H60.546V71.938H62.8475V72.5582H60.546V74.8616H59.8379Z" fill="black"/>
<path d="M63.8223 73.0011C63.8223 72.2923 63.9993 71.8493 64.3534 71.495C64.7074 71.2292 65.0615 71.052 65.5041 71.052C66.0352 71.052 66.3893 71.2292 66.7434 71.5836C67.0974 71.9379 67.186 72.3809 67.186 72.9125C67.186 73.3554 67.0974 73.7098 67.0089 73.9756C66.8319 74.2414 66.6549 74.4186 66.3893 74.5958C66.1237 74.7729 65.8582 74.8615 65.5041 74.8615C64.973 74.8615 64.6189 74.6843 64.2649 74.33C63.9108 74.0642 63.8223 73.6212 63.8223 73.0011ZM64.4419 73.0011C64.4419 73.444 64.5304 73.7984 64.7074 74.0642C64.8845 74.33 65.15 74.4186 65.5041 74.4186C65.7697 74.4186 66.0352 74.33 66.3008 74.0642C66.4778 73.7984 66.5663 73.444 66.5663 73.0011C66.5663 72.5581 66.4778 72.2037 66.3008 71.9379C66.1237 71.6722 65.8582 71.5836 65.5041 71.5836C65.2386 71.5836 64.973 71.6722 64.7074 71.9379C64.5304 72.2037 64.4419 72.5581 64.4419 73.0011Z" fill="black"/>
<path d="M67.8926 74.8616V71.2292H68.4237V71.7608C68.6892 71.3178 69.0433 71.1406 69.5744 71.1406C69.7515 71.1406 70.017 71.1406 70.1941 71.2292C70.3711 71.3178 70.5481 71.4064 70.6367 71.5836C70.7252 71.6722 70.8137 71.8494 70.8137 72.0266C70.8137 72.1152 70.8137 72.3809 70.8137 72.6467V74.8616H70.1941V72.6467C70.1941 72.3809 70.1941 72.2037 70.1055 72.1152C70.017 72.0266 69.9285 71.8494 69.84 71.8494C69.7515 71.7608 69.5744 71.7608 69.3974 71.7608C69.1318 71.7608 68.8663 71.8494 68.6892 72.0266C68.5122 72.2037 68.4237 72.4695 68.4237 73.0011V74.9501H67.8926V74.8616Z" fill="black"/>
<path d="M74.1777 74.8616V74.4186C73.9122 74.773 73.6466 74.9502 73.204 74.9502C72.9385 74.9502 72.6729 74.8616 72.4074 74.6844C72.1418 74.5072 71.9648 74.33 71.8763 73.9757C71.6992 73.7099 71.6992 73.3555 71.6992 73.0011C71.6992 72.6468 71.7877 72.2924 71.8763 72.0266C71.9648 71.7608 72.1418 71.495 72.4074 71.3179C72.6729 71.1407 72.9385 71.0521 73.204 71.0521C73.3811 71.0521 73.6466 71.1407 73.8237 71.2293C74.0007 71.3179 74.1777 71.4064 74.2662 71.5836V69.8118H74.8859V74.8616H74.1777ZM72.2303 73.0011C72.2303 73.4441 72.3188 73.7985 72.4959 74.0642C72.6729 74.33 72.9385 74.4186 73.204 74.4186C73.4696 74.4186 73.7351 74.33 73.9122 74.0642C74.0892 73.8871 74.1777 73.5327 74.1777 73.0897C74.1777 72.5582 74.0892 72.2038 73.9122 72.0266C73.7351 71.7608 73.4696 71.6722 73.204 71.6722C72.9385 71.6722 72.6729 71.7608 72.4959 72.0266C72.3188 72.2038 72.2303 72.5582 72.2303 73.0011Z" fill="black"/>
<path d="M74.0007 4.87256H5.04492V51.0298H74.0007V4.87256Z" fill="#134094"/>
<path fill-rule="evenodd" clip-rule="evenodd" d="M40.0109 11.6056H41.9583L40.365 12.8459L40.9846 14.7064L39.3913 13.5546L37.7979 14.7064L38.4176 12.8459L36.8242 11.6056H38.8601L39.3913 9.74512L40.0109 11.6056Z" fill="#FFED00"/>
<path fill-rule="evenodd" clip-rule="evenodd" d="M40.0988 42.4362H42.0462L40.4528 43.5879L41.0725 45.5369L39.4791 44.2966L37.8858 45.5369L38.5054 43.5879L36.9121 42.4362H38.948L39.4791 40.5757L40.0988 42.4362Z" fill="#FFED00"/>
<path fill-rule="evenodd" clip-rule="evenodd" d="M47.7101 40.3099H49.6575L48.0642 41.5502L48.6838 43.4993L47.0905 42.259L45.4971 43.4993L46.1168 41.5502L44.5234 40.3099H46.5594L47.0905 38.4495L47.7101 40.3099Z" fill="#FFED00"/>
<path fill-rule="evenodd" clip-rule="evenodd" d="M47.7101 13.6432H49.6575L48.0642 14.8835L48.6838 16.744L47.0905 15.5922L45.4971 16.744L46.1168 14.8835L44.5234 13.6432H46.5594L47.0905 11.7827L47.7101 13.6432Z" fill="#FFED00"/>
<path fill-rule="evenodd" clip-rule="evenodd" d="M53.3761 19.3133H55.3235L53.7302 20.4651L54.3498 22.4141L52.7565 21.2624L51.1632 22.4141L51.7828 20.4651L50.1895 19.3133H52.1369L52.7565 17.4529L53.3761 19.3133Z" fill="#FFED00"/>
<path fill-rule="evenodd" clip-rule="evenodd" d="M53.3761 34.7284H55.3235L53.7302 35.9687L54.3498 37.9178L52.7565 36.6775L51.1632 37.9178L51.7828 35.9687L50.1895 34.7284H52.1369L52.7565 32.9565L53.3761 34.7284Z" fill="#FFED00"/>
<path fill-rule="evenodd" clip-rule="evenodd" d="M55.5011 26.9322H57.4485L55.8552 28.084L56.4748 30.033L54.8815 28.8813L53.2882 30.033L53.9078 28.084L52.3145 26.9322H54.2619L54.8815 25.0718L55.5011 26.9322Z" fill="#FFED00"/>
<path fill-rule="evenodd" clip-rule="evenodd" d="M32.2212 13.6432H34.2571L32.6638 14.8835L33.2834 16.744L31.6901 15.5922L30.0967 16.744L30.7164 14.8835L29.123 13.6432H31.0704L31.6901 11.7827L32.2212 13.6432Z" fill="#FFED00"/>
<path fill-rule="evenodd" clip-rule="evenodd" d="M26.7316 19.3133H28.7675L27.1742 20.5537L27.7938 22.4141L26.2005 21.2624L24.6071 22.4141L25.2268 20.5537L23.5449 19.3133H25.5808L26.2005 17.4529L26.7316 19.3133Z" fill="#FFED00"/>
<path fill-rule="evenodd" clip-rule="evenodd" d="M24.6964 26.9322H26.7323L25.139 28.1726L25.7586 30.033L24.1653 28.8813L22.572 30.033L23.1916 28.1726L21.5098 26.9322H23.5457L24.1653 25.0718L24.6964 26.9322Z" fill="#FFED00"/>
<path fill-rule="evenodd" clip-rule="evenodd" d="M26.7316 34.817H28.7675L27.1742 35.9687L27.7938 37.9178L26.2005 36.7661L24.6071 37.9178L25.2268 35.9687L23.5449 34.817H25.5808L26.2005 32.9565L26.7316 34.817Z" fill="#FFED00"/>
<path fill-rule="evenodd" clip-rule="evenodd" d="M32.3097 40.3985H34.3456L32.7523 41.5503L33.3719 43.4993L31.7786 42.3476L30.0967 43.4993L30.8049 41.5503L29.123 40.3985H31.159L31.7786 38.5381L32.3097 40.3985Z" fill="#FFED00"/>
<path fill-rule="evenodd" clip-rule="evenodd" d="M112.419 14.0864C117.819 14.6179 122.776 16.3898 127.024 19.0476C127.024 19.0476 127.113 19.1362 127.29 19.2248C121.89 11.5172 113.127 6.02437 102.859 5.13844C93.9186 4.34109 85.4208 7.08749 78.959 12.2259C83.916 13.2004 88.2534 15.6811 91.5286 19.1362C97.5478 15.3267 104.806 13.3776 112.419 14.0864Z" fill="#0076BE"/>
<path fill-rule="evenodd" clip-rule="evenodd" d="M133.133 35.7032C133.133 35.6146 133.045 35.1716 133.045 35.083C132.514 29.3244 130.478 23.9202 127.291 19.3134C127.114 19.2248 127.025 19.1362 127.025 19.1362C122.777 16.4784 117.819 14.7065 112.42 14.1749C104.807 13.4662 97.5488 15.4152 91.6181 19.1362C95.3359 23.0343 97.7259 28.0841 98.1684 33.6655C98.257 35.083 98.257 36.5005 98.1684 37.918C97.9914 40.1328 97.4603 42.3477 96.6636 44.2967C95.2473 47.9291 92.9459 51.1184 90.1133 53.6877L90.2018 53.5991C101.267 47.2203 114.898 44.4739 128.442 46.5116C127.202 47.6633 125.344 48.6378 123.839 49.4352C125.698 48.9922 132.071 46.423 132.159 46.2458C132.159 46.1572 133.664 41.3732 133.133 35.7032Z" fill="black"/>
<path fill-rule="evenodd" clip-rule="evenodd" d="M132.602 34.9059C128.353 31.9823 124.812 30.299 117.377 29.5903C111.712 29.0587 106.223 30.0332 101.355 32.0709C101.443 33.3998 101.532 34.8173 101.355 36.2348C100.735 43.1451 97.106 48.9923 91.7949 52.6246C105.338 44.8284 117.642 43.7652 128.087 45.3599C128.796 45.4485 130.92 45.8029 131.894 46.0687C133.133 40.0443 132.69 35.969 132.602 34.9059Z" fill="white"/>
<path d="M105.248 60.5979V55.5481H108.789V56.1683H105.868V57.6743H108.612V58.2945H105.868V59.9778H108.966V60.5979H105.248Z" fill="black"/>
<path d="M112.241 59.3578L112.861 59.4463C112.773 59.8007 112.596 60.0665 112.33 60.3323C112.064 60.5095 111.71 60.5981 111.268 60.5981C110.737 60.5981 110.294 60.4209 110.029 60.0665C109.674 59.7121 109.586 59.2692 109.586 58.649C109.586 58.0289 109.763 57.5859 110.029 57.2315C110.383 56.8771 110.737 56.7 111.268 56.7C111.71 56.7 112.153 56.8771 112.419 57.2315C112.684 57.5859 112.861 58.0289 112.861 58.649C112.861 58.649 112.861 58.7376 112.861 58.8262H110.117C110.117 59.2692 110.294 59.5349 110.471 59.7121C110.648 59.8893 110.914 60.0665 111.268 60.0665C111.533 60.0665 111.71 59.9779 111.887 59.8893C112.064 59.8007 112.153 59.6235 112.241 59.3578ZM110.206 58.3832H112.241C112.241 58.1174 112.153 57.8517 111.976 57.6745C111.799 57.4087 111.533 57.3201 111.179 57.3201C110.914 57.3201 110.648 57.4087 110.471 57.5859C110.383 57.8517 110.294 58.1174 110.206 58.3832Z" fill="black"/>
<path d="M113.393 59.4464L114.012 59.3578C114.012 59.6236 114.101 59.8008 114.278 59.8894C114.455 59.9779 114.632 60.0665 114.897 60.0665C115.163 60.0665 115.428 59.9779 115.517 59.8894C115.694 59.8008 115.694 59.6236 115.694 59.4464C115.694 59.2692 115.606 59.1806 115.517 59.092C115.428 59.0034 115.251 59.0034 114.897 58.9148C114.455 58.8262 114.101 58.7376 113.924 58.649C113.747 58.5604 113.658 58.4719 113.57 58.2947C113.481 58.1175 113.393 58.0289 113.393 57.8517C113.393 57.6745 113.393 57.4973 113.481 57.4087C113.57 57.2315 113.658 57.143 113.747 57.0544C113.835 56.9658 114.012 56.9658 114.101 56.8772C114.278 56.7886 114.455 56.7886 114.632 56.7886C114.897 56.7886 115.163 56.7886 115.34 56.8772C115.517 56.9658 115.694 57.0544 115.783 57.2315C115.871 57.4087 115.96 57.5859 115.96 57.7631L115.34 57.8517C115.34 57.6745 115.251 57.4973 115.074 57.4087C114.986 57.3201 114.72 57.2315 114.543 57.2315C114.278 57.2315 114.101 57.3201 113.924 57.4087C113.835 57.4973 113.747 57.5859 113.747 57.7631C113.747 57.8517 113.747 57.9403 113.835 57.9403C113.924 58.0289 113.924 58.0289 114.101 58.1175C114.189 58.1175 114.366 58.2061 114.632 58.2947C115.074 58.3833 115.34 58.4719 115.517 58.5604C115.694 58.649 115.783 58.7376 115.96 58.9148C116.048 59.092 116.137 59.2692 116.137 59.4464C116.137 59.6236 116.048 59.8008 115.96 60.0665C115.871 60.2437 115.694 60.4209 115.428 60.5095C115.163 60.5981 114.986 60.6867 114.632 60.6867C114.189 60.6867 113.835 60.5981 113.57 60.4209C113.658 60.1551 113.481 59.8894 113.393 59.4464Z" fill="black"/>
<path d="M118.526 59.9778L118.614 60.5094C118.437 60.5094 118.26 60.598 118.172 60.598C117.906 60.598 117.817 60.598 117.64 60.5094C117.552 60.4208 117.463 60.3322 117.375 60.2436C117.286 60.155 117.286 59.8892 117.286 59.5349V57.4086H116.844V56.9657H117.286V56.0797L117.906 55.7253V56.9657H118.526V57.4086H117.906V59.5349C117.906 59.7121 117.906 59.8006 117.906 59.8892C117.906 59.9778 117.994 59.9778 117.994 59.9778C118.083 59.9778 118.083 59.9778 118.172 59.9778C118.349 60.0664 118.437 60.0664 118.526 59.9778Z" fill="black"/>
<path d="M119.146 56.2568V55.5481H119.766V56.2568H119.146ZM119.146 60.5979V56.9656H119.766V60.5979H119.146Z" fill="black"/>
<path d="M92.0588 67.1539L92.1473 67.6854C91.9703 67.6854 91.7932 67.774 91.7047 67.774C91.4392 67.774 91.3507 67.774 91.1736 67.6854C91.0851 67.5968 90.9966 67.5082 90.9081 67.4196C90.8195 67.331 90.8195 67.0653 90.8195 66.7109V64.5846H90.377V64.1417H90.8195V63.2557L91.4392 62.9014V64.1417H92.0588V64.5846H91.4392V66.7109C91.4392 66.8881 91.4392 66.9767 91.4392 67.0653C91.4392 67.1539 91.5277 67.1539 91.5277 67.1539C91.6162 67.1539 91.6162 67.1539 91.7047 67.1539C91.8818 67.1539 91.9703 67.1539 92.0588 67.1539Z" fill="black"/>
<path d="M95.0677 67.6854V67.1538C94.8022 67.5968 94.3596 67.774 93.917 67.774C93.74 67.774 93.4744 67.774 93.2974 67.6854C93.1203 67.5968 92.9433 67.5082 92.8548 67.4196C92.7663 67.331 92.6777 67.1538 92.6777 66.9766C92.6777 66.888 92.6777 66.6222 92.6777 66.4451V64.2302H93.2974V66.2679C93.2974 66.6223 93.2974 66.7994 93.2974 66.888C93.2974 67.0652 93.3859 67.1538 93.5629 67.2424C93.6514 67.331 93.8285 67.4196 94.0055 67.4196C94.1825 67.4196 94.3596 67.331 94.5366 67.2424C94.7137 67.1538 94.8022 66.9766 94.8907 66.888C94.9792 66.7108 94.9792 66.4451 94.9792 66.1793V64.2302H95.5988V67.8626H95.0677V67.6854Z" fill="black"/>
<path d="M97.1934 62.6357H96.5742V67.6856H97.1934V62.6357Z" fill="black"/>
<path d="M100.556 66.5338L101.176 66.6224C101.087 66.9768 100.91 67.2425 100.644 67.5083C100.379 67.6855 100.025 67.7741 99.5822 67.7741C99.0511 67.7741 98.6085 67.5969 98.343 67.2425C97.9889 66.8882 97.9004 66.4452 97.9004 65.825C97.9004 65.2049 98.0774 64.7619 98.343 64.4075C98.6971 64.0532 99.0511 63.876 99.5822 63.876C100.025 63.876 100.467 64.0532 100.733 64.4075C100.999 64.7619 101.176 65.2049 101.176 65.825C101.176 65.825 101.176 65.9136 101.176 66.0022H98.4315C98.4315 66.4452 98.6085 66.711 98.7856 66.8882C98.9626 67.0654 99.2282 67.2425 99.5822 67.2425C99.8478 67.2425 100.025 67.1539 100.202 67.0653C100.379 66.9768 100.467 66.7996 100.556 66.5338ZM98.6085 65.4707H100.644C100.644 65.2049 100.556 64.9391 100.379 64.7619C100.202 64.4961 99.9363 64.4075 99.5822 64.4075C99.3167 64.4075 99.0511 64.4961 98.8741 64.6733C98.6971 64.9391 98.6085 65.2049 98.6085 65.4707Z" fill="black"/>
<path d="M103.035 67.6856L101.619 64.0532H102.239L103.035 66.2681C103.124 66.5338 103.212 66.711 103.301 66.9768C103.39 66.7996 103.39 66.5338 103.567 66.2681L104.363 64.0532H104.983L103.567 67.6856H103.035Z" fill="black"/>
<path d="M105.514 63.3445V62.6357H106.133V63.3445H105.514ZM105.514 67.6856V64.0532H106.133V67.6856H105.514Z" fill="black"/>
<path d="M107.018 67.6856V62.6357H107.637V65.5593L109.142 64.0532H109.939L108.522 65.3821L110.027 67.6856H109.319L108.08 65.8251L107.637 66.2681V67.6856H107.018Z" fill="black"/>
<path d="M112.949 67.6854V67.1538C112.683 67.5968 112.24 67.774 111.798 67.774C111.621 67.774 111.355 67.774 111.178 67.6854C111.001 67.5968 110.824 67.5082 110.736 67.4196C110.647 67.331 110.559 67.1538 110.559 66.9766C110.559 66.888 110.559 66.6222 110.559 66.4451V64.2302H111.178V66.2679C111.178 66.6223 111.178 66.7994 111.178 66.888C111.178 67.0652 111.267 67.1538 111.444 67.2424C111.532 67.331 111.709 67.4196 111.886 67.4196C112.063 67.4196 112.24 67.331 112.417 67.2424C112.595 67.1538 112.683 66.9766 112.772 66.888C112.86 66.7108 112.86 66.4451 112.86 66.1793V64.2302H113.48V67.8626H112.949V67.6854Z" fill="black"/>
<path d="M116.402 67.6856V62.6357H117.022V64.4076C117.288 64.0532 117.642 63.8761 118.084 63.8761C118.35 63.8761 118.615 63.9647 118.792 64.0532C118.969 64.1418 119.146 64.319 119.235 64.4962C119.323 64.6734 119.323 64.9392 119.323 65.2936V67.597H118.704V65.2936C118.704 65.0278 118.615 64.762 118.527 64.5848C118.35 64.4076 118.173 64.4076 117.996 64.4076C117.819 64.4076 117.642 64.4962 117.465 64.5848C117.288 64.6734 117.199 64.8506 117.11 64.9392C117.022 65.1164 117.022 65.2936 117.022 65.6479V67.597H116.402V67.6856Z" fill="black"/>
<path d="M122.775 66.5338L123.394 66.6224C123.306 66.9768 123.129 67.2425 122.863 67.5083C122.598 67.6855 122.244 67.7741 121.801 67.7741C121.27 67.7741 120.827 67.5969 120.562 67.2425C120.208 66.8882 120.119 66.4452 120.119 65.825C120.119 65.2049 120.296 64.7619 120.562 64.4075C120.916 64.0532 121.27 63.876 121.801 63.876C122.244 63.876 122.686 64.0532 122.952 64.4075C123.217 64.7619 123.394 65.2049 123.394 65.825C123.394 65.825 123.394 65.9136 123.394 66.0022H120.65C120.65 66.4452 120.827 66.711 121.004 66.8882C121.181 67.0654 121.447 67.2425 121.801 67.2425C122.067 67.2425 122.244 67.1539 122.421 67.0653C122.509 66.9768 122.686 66.7996 122.775 66.5338ZM120.739 65.4707H122.775C122.775 65.2049 122.686 64.9391 122.509 64.7619C122.332 64.4961 122.067 64.4075 121.712 64.4075C121.447 64.4075 121.181 64.4961 121.004 64.6733C120.916 64.9391 120.739 65.2049 120.739 65.4707Z" fill="black"/>
<path d="M126.581 67.2424C126.315 67.4196 126.138 67.5967 125.961 67.6853C125.784 67.7739 125.518 67.7739 125.253 67.7739C124.81 67.7739 124.545 67.6853 124.368 67.5082C124.191 67.331 124.014 67.0652 124.014 66.7994C124.014 66.6222 124.014 66.445 124.102 66.2678C124.191 66.0907 124.279 66.0021 124.456 65.9135C124.545 65.8249 124.722 65.7363 124.899 65.7363C124.987 65.7363 125.164 65.6477 125.43 65.6477C125.961 65.5591 126.315 65.5591 126.492 65.4705C126.492 65.3819 126.492 65.2933 126.492 65.2933C126.492 65.0275 126.404 64.8503 126.315 64.7618C126.138 64.5846 125.961 64.5846 125.607 64.5846C125.341 64.5846 125.076 64.6732 124.987 64.7618C124.81 64.8503 124.722 65.0275 124.722 65.2933L124.102 65.2047C124.191 64.9389 124.279 64.7618 124.368 64.5846C124.456 64.4074 124.633 64.3188 124.899 64.2302C125.164 64.1416 125.43 64.1416 125.696 64.1416C126.05 64.1416 126.227 64.1416 126.492 64.2302C126.669 64.3188 126.846 64.4074 126.935 64.496C127.023 64.5846 127.112 64.7618 127.112 64.9389C127.112 65.0275 127.112 65.2047 127.112 65.4705V66.2678C127.112 66.7994 127.112 67.2424 127.112 67.331C127.112 67.5082 127.2 67.5967 127.289 67.7739H126.669C126.581 67.5967 126.581 67.4196 126.581 67.2424ZM126.492 65.8249C126.227 65.9135 125.961 66.0021 125.518 66.0907C125.253 66.0907 125.076 66.1792 124.987 66.1792C124.899 66.2678 124.81 66.2678 124.722 66.3564C124.633 66.445 124.633 66.5336 124.633 66.6222C124.633 66.7994 124.722 66.888 124.81 67.0652C124.899 67.1538 125.076 67.2424 125.341 67.2424C125.607 67.2424 125.784 67.1538 125.961 67.0652C126.138 66.9766 126.315 66.7994 126.404 66.6222C126.492 66.445 126.492 66.2678 126.492 66.0021V65.8249Z" fill="black"/>
<path d="M128.086 67.6856V62.6357H128.706V65.5593L130.122 64.0532H130.919L129.591 65.3821L131.096 67.6856H130.299L129.148 65.8251L128.706 66.2681V67.6856H128.086Z" fill="black"/>
<path d="M131.361 66.6224L131.981 66.5338C131.981 66.7996 132.069 66.9768 132.247 67.0654C132.424 67.154 132.601 67.2426 132.866 67.2426C133.132 67.2426 133.397 67.154 133.486 67.0654C133.663 66.9768 133.663 66.7996 133.663 66.6224C133.663 66.4452 133.574 66.3566 133.486 66.268C133.397 66.1794 133.22 66.1794 132.866 66.0908C132.424 66.0023 132.069 65.9137 131.892 65.8251C131.715 65.7365 131.627 65.6479 131.538 65.4707C131.45 65.2935 131.361 65.2049 131.361 65.0277C131.361 64.8505 131.361 64.6734 131.45 64.5848C131.538 64.4076 131.627 64.319 131.715 64.2304C131.804 64.1418 131.981 64.1418 132.069 64.0532C132.247 63.9646 132.424 63.9646 132.601 63.9646C132.866 63.9646 133.132 63.9646 133.309 64.0532C133.486 64.1418 133.663 64.2304 133.751 64.4076C133.84 64.5848 133.928 64.7619 133.928 64.9391L133.309 65.0277C133.309 64.8505 133.22 64.6734 133.043 64.5848C132.955 64.4962 132.689 64.4076 132.512 64.4076C132.247 64.4076 132.069 64.4962 131.892 64.5848C131.804 64.6734 131.715 64.7619 131.715 64.9391C131.715 65.0277 131.715 65.1163 131.804 65.1163C131.892 65.2049 131.892 65.2049 132.069 65.2935C132.158 65.2935 132.335 65.3821 132.601 65.4707C133.043 65.5593 133.309 65.6479 133.486 65.7365C133.663 65.8251 133.751 65.9137 133.928 66.0908C134.017 66.268 134.105 66.4452 134.105 66.6224C134.105 66.7996 134.017 66.9768 133.928 67.2426C133.84 67.4198 133.663 67.5969 133.397 67.6855C133.132 67.7741 132.955 67.8627 132.601 67.8627C132.158 67.8627 131.804 67.7741 131.538 67.5969C131.538 67.2426 131.361 66.9768 131.361 66.6224Z" fill="black"/>
</svg>
