<svg width="92" height="50" viewBox="0 0 92 50" fill="none" xmlns="http://www.w3.org/2000/svg">
<g clip-path="url(#clip0)">
<path d="M12.0391 38.0026V34.4651H14.5911V34.8825H12.5061V35.966H14.4587V36.381H12.5061V37.5851H14.6729V38.0026H12.0391Z" fill="#1A1919"/>
<path d="M16.9384 38.0026V37.6262C16.7394 37.9157 16.469 38.0605 16.1271 38.0605C15.9762 38.0605 15.835 38.0315 15.7034 37.9736C15.5734 37.9157 15.4762 37.8433 15.412 37.7565C15.3494 37.668 15.3053 37.5602 15.2796 37.4331C15.262 37.3478 15.2531 37.2127 15.2531 37.0277V35.44H15.6865V36.8612C15.6865 37.088 15.6953 37.2409 15.713 37.3197C15.7403 37.4339 15.7981 37.524 15.8863 37.59C15.9746 37.6543 16.0838 37.6865 16.2138 37.6865C16.3438 37.6865 16.4658 37.6535 16.5797 37.5875C16.6937 37.52 16.7739 37.4291 16.8205 37.3149C16.8686 37.199 16.8927 37.0317 16.8927 36.813V35.44H17.326V38.0026H16.9384Z" fill="#1A1919"/>
<path d="M18.0026 38.0026V35.44H18.3926V35.8284C18.4921 35.6467 18.5836 35.5268 18.6671 35.4689C18.7521 35.411 18.8452 35.382 18.9463 35.382C19.0924 35.382 19.2409 35.4287 19.3917 35.522L19.2425 35.925C19.1365 35.8622 19.0306 35.8309 18.9247 35.8309C18.83 35.8309 18.7449 35.8598 18.6695 35.9177C18.594 35.974 18.5403 36.0529 18.5082 36.1542C18.46 36.3086 18.4359 36.4776 18.4359 36.6609V38.0026H18.0026Z" fill="#1A1919"/>
<path d="M19.488 36.7213C19.488 36.2467 19.6196 35.8952 19.8829 35.6668C20.1028 35.4769 20.3708 35.382 20.687 35.382C21.0385 35.382 21.3258 35.4979 21.5489 35.7295C21.772 35.9596 21.8835 36.2781 21.8835 36.6851C21.8835 37.0149 21.8338 37.2747 21.7343 37.4645C21.6364 37.6527 21.4927 37.7991 21.3033 37.9036C21.1155 38.0082 20.9101 38.0605 20.687 38.0605C20.3291 38.0605 20.0394 37.9455 19.8179 37.7154C19.598 37.4854 19.488 37.154 19.488 36.7213ZM19.9334 36.7213C19.9334 37.0494 20.0049 37.2956 20.1477 37.4597C20.2905 37.6221 20.4703 37.7034 20.687 37.7034C20.9021 37.7034 21.081 37.6213 21.2239 37.4572C21.3667 37.2932 21.4381 37.043 21.4381 36.7068C21.4381 36.3899 21.3659 36.1502 21.2215 35.9877C21.0786 35.8236 20.9005 35.7416 20.687 35.7416C20.4703 35.7416 20.2905 35.8228 20.1477 35.9853C20.0049 36.1478 19.9334 36.3931 19.9334 36.7213Z" fill="#1A1919"/>
<path d="M22.2326 36.7213C22.2326 36.2467 22.3643 35.8952 22.6275 35.6668C22.8474 35.4769 23.1154 35.382 23.4316 35.382C23.7831 35.382 24.0704 35.4979 24.2935 35.7295C24.5166 35.9596 24.6282 36.2781 24.6282 36.6851C24.6282 37.0149 24.5784 37.2747 24.4789 37.4645C24.381 37.6527 24.2373 37.7991 24.0479 37.9036C23.8601 38.0082 23.6547 38.0605 23.4316 38.0605C23.0737 38.0605 22.784 37.9455 22.5625 37.7154C22.3426 37.4854 22.2326 37.154 22.2326 36.7213ZM22.678 36.7213C22.678 37.0494 22.7495 37.2956 22.8923 37.4597C23.0352 37.6221 23.2149 37.7034 23.4316 37.7034C23.6467 37.7034 23.8256 37.6213 23.9685 37.4572C24.1113 37.2932 24.1828 37.043 24.1828 36.7068C24.1828 36.3899 24.1105 36.1502 23.9661 35.9877C23.8232 35.8236 23.6451 35.7416 23.4316 35.7416C23.2149 35.7416 23.0352 35.8228 22.8923 35.9853C22.7495 36.1478 22.678 36.3931 22.678 36.7213Z" fill="#1A1919"/>
<path d="M25.1386 38.9847V35.44H25.5334V35.7729C25.6265 35.6426 25.7316 35.5453 25.8488 35.481C25.966 35.415 26.108 35.382 26.2749 35.382C26.4932 35.382 26.6858 35.4383 26.8527 35.5509C27.0197 35.6636 27.1457 35.8228 27.2307 36.0287C27.3158 36.233 27.3583 36.4574 27.3583 36.702C27.3583 36.9642 27.311 37.2007 27.2163 37.4114C27.1232 37.6205 26.9868 37.7814 26.807 37.894C26.6288 38.005 26.441 38.0605 26.2436 38.0605C26.0992 38.0605 25.9692 38.0299 25.8536 37.9688C25.7396 37.9077 25.6457 37.8305 25.5719 37.7372V38.9847H25.1386ZM25.531 36.7357C25.531 37.0655 25.5976 37.3092 25.7308 37.4669C25.864 37.6245 26.0253 37.7034 26.2147 37.7034C26.4073 37.7034 26.5719 37.6221 26.7083 37.4597C26.8463 37.2956 26.9153 37.0422 26.9153 36.6995C26.9153 36.373 26.8479 36.1285 26.7131 35.966C26.5799 35.8035 26.4202 35.7223 26.234 35.7223C26.0494 35.7223 25.8857 35.8091 25.7429 35.9829C25.6016 36.155 25.531 36.406 25.531 36.7357Z" fill="#1A1919"/>
<path d="M29.5516 37.6865C29.3911 37.8232 29.2362 37.9197 29.0869 37.976C28.9393 38.0323 28.7804 38.0605 28.6103 38.0605C28.3294 38.0605 28.1135 37.9921 27.9626 37.8554C27.8117 37.717 27.7363 37.5409 27.7363 37.3269C27.7363 37.2015 27.7644 37.0872 27.8206 36.9843C27.8784 36.8797 27.953 36.7961 28.0445 36.7333C28.1376 36.6706 28.2419 36.6231 28.3575 36.591C28.4425 36.5684 28.5709 36.5467 28.7427 36.5258C29.0926 36.484 29.3502 36.4341 29.5155 36.3762C29.5171 36.3167 29.5179 36.2789 29.5179 36.2628C29.5179 36.0858 29.477 35.9612 29.3951 35.8888C29.2844 35.7906 29.1198 35.7416 28.9016 35.7416C28.6977 35.7416 28.5469 35.7778 28.4489 35.8502C28.3526 35.9209 28.2812 36.0472 28.2347 36.229L27.8109 36.1711C27.8495 35.9893 27.9129 35.8429 28.0011 35.7319C28.0894 35.6193 28.217 35.5333 28.3839 35.4737C28.5509 35.4126 28.7443 35.382 28.9642 35.382C29.1824 35.382 29.3598 35.4078 29.4962 35.4593C29.6327 35.5107 29.733 35.5759 29.7972 35.6547C29.8614 35.7319 29.9063 35.8301 29.932 35.9491C29.9464 36.0231 29.9537 36.1566 29.9537 36.3497V36.9288C29.9537 37.3326 29.9625 37.5883 29.9801 37.6961C29.9994 37.8023 30.0363 37.9045 30.0909 38.0026H29.6383C29.5933 37.9125 29.5644 37.8071 29.5516 37.6865ZM29.5155 36.7164C29.3582 36.7808 29.1223 36.8355 28.8077 36.8805C28.6295 36.9063 28.5035 36.9352 28.4297 36.9674C28.3559 36.9996 28.2989 37.047 28.2587 37.1098C28.2186 37.1709 28.1986 37.2393 28.1986 37.3149C28.1986 37.4307 28.2419 37.5272 28.3286 37.6044C28.4168 37.6817 28.5452 37.7203 28.7138 37.7203C28.8807 37.7203 29.0292 37.6841 29.1592 37.6117C29.2892 37.5377 29.3847 37.4371 29.4457 37.31C29.4922 37.2119 29.5155 37.0671 29.5155 36.8757V36.7164Z" fill="#1A1919"/>
<path d="M32.0362 38.0026V34.4651H32.5033V37.5851H34.2415V38.0026H32.0362Z" fill="#1A1919"/>
<path d="M34.7471 34.9646V34.4651H35.1805V34.9646H34.7471ZM34.7471 38.0026V35.44H35.1805V38.0026H34.7471Z" fill="#1A1919"/>
<path d="M35.8449 34.9646V34.4651H36.2783V34.9646H35.8449ZM35.8449 38.0026V35.44H36.2783V38.0026H35.8449Z" fill="#1A1919"/>
<path d="M37.8866 37.6141L37.9491 37.9978C37.8272 38.0235 37.718 38.0364 37.6217 38.0364C37.4644 38.0364 37.3424 38.0114 37.2558 37.9616C37.1691 37.9117 37.1081 37.8465 37.0728 37.7661C37.0375 37.6841 37.0198 37.5127 37.0198 37.2521V35.7778H36.702V35.44H37.0198V34.8053L37.4508 34.5447V35.44H37.8866V35.7778H37.4508V37.2763C37.4508 37.4001 37.458 37.4798 37.4725 37.5152C37.4885 37.5505 37.5134 37.5787 37.5471 37.5996C37.5824 37.6205 37.6322 37.631 37.6964 37.631C37.7445 37.631 37.8079 37.6253 37.8866 37.6141Z" fill="#1A1919"/>
<path d="M4.23047 43.0465V39.509H6.78248V39.9265H4.69753V41.0099H6.65006V41.425H4.69753V42.6291H6.86433V43.0465H4.23047Z" fill="#1A1919"/>
<path d="M9.12984 43.0465V42.6701C8.93082 42.9597 8.66037 43.1044 8.31849 43.1044C8.16762 43.1044 8.02638 43.0755 7.89476 43.0176C7.76476 42.9597 7.66765 42.8873 7.60345 42.8004C7.54085 42.7119 7.49672 42.6041 7.47104 42.4771C7.45338 42.3918 7.44455 42.2567 7.44455 42.0717V40.4839H7.87791V41.9052C7.87791 42.132 7.88674 42.2848 7.90439 42.3636C7.93168 42.4779 7.98946 42.5679 8.07774 42.6339C8.16602 42.6982 8.27516 42.7304 8.40517 42.7304C8.53517 42.7304 8.65716 42.6974 8.77111 42.6315C8.88507 42.5639 8.96532 42.473 9.01187 42.3588C9.06002 42.243 9.0841 42.0757 9.0841 41.8569V40.4839H9.51746V43.0465H9.12984Z" fill="#1A1919"/>
<path d="M10.194 43.0465V40.4839H10.584V40.8724C10.6835 40.6906 10.775 40.5708 10.8585 40.5129C10.9435 40.4549 11.0366 40.426 11.1377 40.426C11.2838 40.426 11.4323 40.4726 11.5831 40.5659L11.4339 40.9689C11.3279 40.9062 11.222 40.8748 11.1161 40.8748C11.0214 40.8748 10.9363 40.9038 10.8609 40.9617C10.7854 41.018 10.7317 41.0968 10.6996 41.1982C10.6514 41.3526 10.6273 41.5215 10.6273 41.7049V43.0465H10.194Z" fill="#1A1919"/>
<path d="M11.6794 41.7652C11.6794 41.2907 11.8111 40.9392 12.0743 40.7107C12.2942 40.5209 12.5622 40.426 12.8784 40.426C13.2299 40.426 13.5172 40.5418 13.7403 40.7735C13.9634 41.0035 14.075 41.322 14.075 41.729C14.075 42.0588 14.0252 42.3186 13.9257 42.5084C13.8278 42.6966 13.6841 42.843 13.4947 42.9476C13.3069 43.0522 13.1015 43.1044 12.8784 43.1044C12.5205 43.1044 12.2308 42.9894 12.0093 42.7594C11.7894 42.5293 11.6794 42.1979 11.6794 41.7652ZM12.1248 41.7652C12.1248 42.0934 12.1963 42.3395 12.3391 42.5036C12.482 42.6661 12.6617 42.7473 12.8784 42.7473C13.0935 42.7473 13.2724 42.6653 13.4153 42.5012C13.5581 42.3371 13.6296 42.0869 13.6296 41.7507C13.6296 41.4338 13.5573 41.1941 13.4129 41.0317C13.27 40.8676 13.0919 40.7855 12.8784 40.7855C12.6617 40.7855 12.482 40.8668 12.3391 41.0292C12.1963 41.1917 12.1248 41.437 12.1248 41.7652Z" fill="#1A1919"/>
<path d="M14.424 41.7652C14.424 41.2907 14.5557 40.9392 14.8189 40.7107C15.0388 40.5209 15.3068 40.426 15.623 40.426C15.9745 40.426 16.2618 40.5418 16.4849 40.7735C16.708 41.0035 16.8196 41.322 16.8196 41.729C16.8196 42.0588 16.7698 42.3186 16.6703 42.5084C16.5724 42.6966 16.4287 42.843 16.2393 42.9476C16.0516 43.0522 15.8461 43.1044 15.623 43.1044C15.2651 43.1044 14.9754 42.9894 14.7539 42.7594C14.534 42.5293 14.424 42.1979 14.424 41.7652ZM14.8694 41.7652C14.8694 42.0934 14.9409 42.3395 15.0837 42.5036C15.2266 42.6661 15.4063 42.7473 15.623 42.7473C15.8381 42.7473 16.017 42.6653 16.1599 42.5012C16.3027 42.3371 16.3742 42.0869 16.3742 41.7507C16.3742 41.4338 16.3019 41.1941 16.1575 41.0317C16.0146 40.8676 15.8365 40.7855 15.623 40.7855C15.4063 40.7855 15.2266 40.8668 15.0837 41.0292C14.9409 41.1917 14.8694 41.437 14.8694 41.7652Z" fill="#1A1919"/>
<path d="M17.33 44.0286V40.4839H17.7248V40.8169C17.8179 40.6866 17.923 40.5893 18.0402 40.5249C18.1574 40.459 18.2994 40.426 18.4663 40.426C18.6846 40.426 18.8772 40.4823 19.0441 40.5949C19.2111 40.7075 19.3371 40.8668 19.4221 41.0727C19.5072 41.277 19.5497 41.5014 19.5497 41.7459C19.5497 42.0081 19.5024 42.2446 19.4077 42.4553C19.3146 42.6645 19.1782 42.8253 18.9984 42.9379C18.8202 43.0489 18.6325 43.1044 18.435 43.1044C18.2906 43.1044 18.1606 43.0739 18.045 43.0127C17.9311 42.9516 17.8372 42.8744 17.7633 42.7811V44.0286H17.33ZM17.7224 41.7797C17.7224 42.1095 17.789 42.3532 17.9222 42.5108C18.0554 42.6685 18.2167 42.7473 18.4061 42.7473C18.5987 42.7473 18.7633 42.6661 18.8997 42.5036C19.0377 42.3395 19.1067 42.0861 19.1067 41.7435C19.1067 41.4169 19.0393 41.1724 18.9045 41.0099C18.7713 40.8475 18.6116 40.7662 18.4254 40.7662C18.2408 40.7662 18.0771 40.8531 17.9343 41.0268C17.793 41.199 17.7224 41.4499 17.7224 41.7797Z" fill="#1A1919"/>
<path d="M21.743 42.7304C21.5825 42.8672 21.4276 42.9637 21.2784 43.02C21.1307 43.0763 20.9718 43.1044 20.8017 43.1044C20.5208 43.1044 20.3049 43.0361 20.154 42.8993C20.0032 42.761 19.9277 42.5848 19.9277 42.3709C19.9277 42.2454 19.9558 42.1312 20.012 42.0282C20.0698 41.9237 20.1444 41.84 20.2359 41.7773C20.329 41.7145 20.4333 41.6671 20.5489 41.6349C20.6339 41.6124 20.7623 41.5907 20.9341 41.5698C21.284 41.5279 21.5416 41.4781 21.7069 41.4201C21.7085 41.3606 21.7093 41.3228 21.7093 41.3067C21.7093 41.1298 21.6684 41.0051 21.5865 40.9327C21.4758 40.8346 21.3113 40.7855 21.093 40.7855C20.8891 40.7855 20.7383 40.8217 20.6404 40.8941C20.544 40.9649 20.4726 41.0912 20.4261 41.273L20.0023 41.215C20.0409 41.0333 20.1043 40.8869 20.1925 40.7759C20.2808 40.6633 20.4084 40.5772 20.5753 40.5177C20.7423 40.4565 20.9357 40.426 21.1556 40.426C21.3739 40.426 21.5512 40.4517 21.6876 40.5032C21.8241 40.5547 21.9244 40.6198 21.9886 40.6987C22.0528 40.7759 22.0977 40.874 22.1234 40.993C22.1378 41.067 22.1451 41.2006 22.1451 41.3936V41.9727C22.1451 42.3765 22.1539 42.6323 22.1716 42.7401C22.1908 42.8462 22.2277 42.9484 22.2823 43.0465H21.8297C21.7847 42.9564 21.7558 42.8511 21.743 42.7304ZM21.7069 41.7604C21.5496 41.8247 21.3137 41.8794 20.9991 41.9245C20.8209 41.9502 20.6949 41.9792 20.6211 42.0113C20.5473 42.0435 20.4903 42.091 20.4502 42.1537C20.41 42.2148 20.39 42.2832 20.39 42.3588C20.39 42.4746 20.4333 42.5712 20.52 42.6484C20.6082 42.7256 20.7367 42.7642 20.9052 42.7642C21.0721 42.7642 21.2206 42.728 21.3506 42.6556C21.4806 42.5816 21.5761 42.4811 21.6371 42.354C21.6836 42.2559 21.7069 42.1111 21.7069 41.9196V41.7604Z" fill="#1A1919"/>
<path d="M24.0181 42.2816L24.4467 42.214C24.4708 42.3862 24.5374 42.5181 24.6465 42.6098C24.7573 42.7015 24.9114 42.7473 25.1088 42.7473C25.3078 42.7473 25.4555 42.7071 25.5518 42.6267C25.6481 42.5446 25.6962 42.4489 25.6962 42.3395C25.6962 42.2414 25.6537 42.1642 25.5686 42.1079C25.5092 42.0693 25.3616 42.0202 25.1256 41.9607C24.8078 41.8802 24.5871 41.8111 24.4635 41.7531C24.3416 41.6936 24.2485 41.6124 24.1843 41.5094C24.1217 41.4049 24.0904 41.2898 24.0904 41.1644C24.0904 41.0502 24.1161 40.9448 24.1674 40.8483C24.2204 40.7501 24.2918 40.6689 24.3817 40.6045C24.4491 40.5547 24.5406 40.5129 24.6561 40.4791C24.7733 40.4437 24.8985 40.426 25.0317 40.426C25.2324 40.426 25.4081 40.4549 25.559 40.5129C25.7115 40.5708 25.8238 40.6496 25.896 40.7493C25.9683 40.8475 26.018 40.9794 26.0453 41.1451L25.6216 41.203C25.6023 41.0711 25.5461 40.9681 25.453 40.8941C25.3616 40.8201 25.2316 40.7831 25.063 40.7831C24.864 40.7831 24.722 40.8161 24.6369 40.882C24.5518 40.948 24.5093 41.0252 24.5093 41.1137C24.5093 41.17 24.5269 41.2207 24.5623 41.2657C24.5976 41.3124 24.6529 41.351 24.7284 41.3815C24.7717 41.3976 24.8993 41.4346 25.1112 41.4925C25.4177 41.5746 25.6312 41.6421 25.7516 41.6952C25.8736 41.7467 25.9691 41.8223 26.0381 41.9221C26.1071 42.0218 26.1416 42.1457 26.1416 42.2937C26.1416 42.4384 26.0991 42.5752 26.014 42.7039C25.9305 42.831 25.8094 42.9299 25.6505 43.0007C25.4916 43.0699 25.3118 43.1044 25.1112 43.1044C24.7789 43.1044 24.5253 43.0353 24.3504 42.8969C24.177 42.7586 24.0663 42.5535 24.0181 42.2816Z" fill="#1A1919"/>
<path d="M27.603 42.658L27.6656 43.0417C27.5436 43.0674 27.4345 43.0803 27.3382 43.0803C27.1809 43.0803 27.0589 43.0554 26.9722 43.0055C26.8855 42.9556 26.8246 42.8905 26.7892 42.8101C26.7539 42.728 26.7363 42.5567 26.7363 42.2961V40.8217H26.4185V40.4839H26.7363V39.8493L27.1672 39.5887V40.4839H27.603V40.8217H27.1672V42.3202C27.1672 42.4441 27.1744 42.5237 27.1889 42.5591C27.2049 42.5945 27.2298 42.6226 27.2635 42.6436C27.2988 42.6645 27.3486 42.6749 27.4128 42.6749C27.4609 42.6749 27.5243 42.6693 27.603 42.658Z" fill="#1A1919"/>
<path d="M28.0243 43.0465V40.4839H28.4143V40.8724C28.5138 40.6906 28.6053 40.5708 28.6888 40.5129C28.7739 40.4549 28.867 40.426 28.9681 40.426C29.1141 40.426 29.2626 40.4726 29.4135 40.5659L29.2642 40.9689C29.1583 40.9062 29.0523 40.8748 28.9464 40.8748C28.8517 40.8748 28.7666 40.9038 28.6912 40.9617C28.6158 41.018 28.562 41.0968 28.5299 41.1982C28.4818 41.3526 28.4577 41.5215 28.4577 41.7049V43.0465H28.0243Z" fill="#1A1919"/>
<path d="M31.3467 43.0465V42.6701C31.1477 42.9597 30.8773 43.1044 30.5354 43.1044C30.3845 43.1044 30.2433 43.0755 30.1117 43.0176C29.9817 42.9597 29.8846 42.8873 29.8203 42.8004C29.7578 42.7119 29.7136 42.6041 29.6879 42.4771C29.6703 42.3918 29.6615 42.2567 29.6615 42.0717V40.4839H30.0948V41.9052C30.0948 42.132 30.1036 42.2848 30.1213 42.3636C30.1486 42.4779 30.2064 42.5679 30.2946 42.6339C30.3829 42.6982 30.4921 42.7304 30.6221 42.7304C30.7521 42.7304 30.8741 42.6974 30.988 42.6315C31.102 42.5639 31.1822 42.473 31.2288 42.3588C31.2769 42.243 31.301 42.0757 31.301 41.8569V40.4839H31.7344V43.0465H31.3467Z" fill="#1A1919"/>
<path d="M32.4181 43.0465V39.509H32.8515V41.5263L33.8771 40.4839H34.438L33.4606 41.4346L34.5367 43.0465H34.0023L33.1572 41.7363L32.8515 42.0306V43.0465H32.4181Z" fill="#1A1919"/>
<path d="M35.8272 42.658L35.8898 43.0417C35.7678 43.0674 35.6587 43.0803 35.5624 43.0803C35.4051 43.0803 35.2831 43.0554 35.1964 43.0055C35.1097 42.9556 35.0488 42.8905 35.0134 42.8101C34.9781 42.728 34.9605 42.5567 34.9605 42.2961V40.8217H34.6427V40.4839H34.9605V39.8493L35.3914 39.5887V40.4839H35.8272V40.8217H35.3914V42.3202C35.3914 42.4441 35.3986 42.5237 35.4131 42.5591C35.4291 42.5945 35.454 42.6226 35.4877 42.6436C35.523 42.6645 35.5728 42.6749 35.637 42.6749C35.6851 42.6749 35.7485 42.6693 35.8272 42.658Z" fill="#1A1919"/>
<path d="M37.929 43.0465V42.6701C37.73 42.9597 37.4595 43.1044 37.1176 43.1044C36.9668 43.1044 36.8255 43.0755 36.6939 43.0176C36.5639 42.9597 36.4668 42.8873 36.4026 42.8004C36.34 42.7119 36.2959 42.6041 36.2702 42.4771C36.2525 42.3918 36.2437 42.2567 36.2437 42.0717V40.4839H36.6771V41.9052C36.6771 42.132 36.6859 42.2848 36.7035 42.3636C36.7308 42.4779 36.7886 42.5679 36.8769 42.6339C36.9652 42.6982 37.0743 42.7304 37.2043 42.7304C37.3343 42.7304 37.4563 42.6974 37.5703 42.6315C37.6842 42.5639 37.7645 42.473 37.811 42.3588C37.8592 42.243 37.8832 42.0757 37.8832 41.8569V40.4839H38.3166V43.0465H37.929Z" fill="#1A1919"/>
<path d="M40.6736 43.0465V42.6701C40.4746 42.9597 40.2041 43.1044 39.8623 43.1044C39.7114 43.1044 39.5701 43.0755 39.4385 43.0176C39.3085 42.9597 39.2114 42.8873 39.1472 42.8004C39.0846 42.7119 39.0405 42.6041 39.0148 42.4771C38.9971 42.3918 38.9883 42.2567 38.9883 42.0717V40.4839H39.4217V41.9052C39.4217 42.132 39.4305 42.2848 39.4482 42.3636C39.4754 42.4779 39.5332 42.5679 39.6215 42.6339C39.7098 42.6982 39.8189 42.7304 39.9489 42.7304C40.0789 42.7304 40.2009 42.6974 40.3149 42.6315C40.4288 42.5639 40.5091 42.473 40.5556 42.3588C40.6038 42.243 40.6279 42.0757 40.6279 41.8569V40.4839H41.0612V43.0465H40.6736Z" fill="#1A1919"/>
<path d="M41.7377 43.0465V40.4839H42.1278V40.8724C42.2273 40.6906 42.3188 40.5708 42.4022 40.5129C42.4873 40.4549 42.5804 40.426 42.6815 40.426C42.8276 40.426 42.976 40.4726 43.1269 40.5659L42.9776 40.9689C42.8717 40.9062 42.7658 40.8748 42.6598 40.8748C42.5651 40.8748 42.4801 40.9038 42.4046 40.9617C42.3292 41.018 42.2754 41.0968 42.2433 41.1982C42.1952 41.3526 42.1711 41.5215 42.1711 41.7049V43.0465H41.7377Z" fill="#1A1919"/>
<path d="M43.3869 40.0085V39.509H43.8203V40.0085H43.3869ZM43.3869 43.0465V40.4839H43.8203V43.0465H43.3869Z" fill="#1A1919"/>
<path d="M44.3138 41.9848V41.548H45.6452V41.9848H44.3138Z" fill="#1A1919"/>
<path d="M1.42392 45.0576V44.5532H1.85728V45.0576H1.42392ZM0.875 49.0849L0.956857 48.7157C1.04353 48.7382 1.11174 48.7495 1.1615 48.7495C1.24978 48.7495 1.31558 48.7197 1.35892 48.6602C1.40225 48.6023 1.42392 48.4559 1.42392 48.221V45.5281H1.85728V48.2307C1.85728 48.546 1.81635 48.7656 1.7345 48.8895C1.63017 49.0503 1.45683 49.1308 1.21446 49.1308C1.0973 49.1308 0.984142 49.1155 0.875 49.0849Z" fill="#1A1919"/>
<path d="M4.19261 47.7746C4.0321 47.9114 3.87722 48.0079 3.72795 48.0642C3.58029 48.1205 3.42139 48.1487 3.25126 48.1487C2.97037 48.1487 2.7545 48.0803 2.60362 47.9435C2.45275 47.8052 2.37731 47.629 2.37731 47.4151C2.37731 47.2896 2.4054 47.1754 2.46158 47.0724C2.51936 46.9679 2.59399 46.8842 2.68548 46.8215C2.77857 46.7587 2.8829 46.7113 2.99846 46.6791C3.08353 46.6566 3.21193 46.6349 3.38367 46.614C3.73357 46.5721 3.99118 46.5223 4.1565 46.4644C4.1581 46.4048 4.1589 46.367 4.1589 46.3509C4.1589 46.174 4.11797 46.0493 4.03612 45.9769C3.92537 45.8788 3.76085 45.8297 3.54257 45.8297C3.33873 45.8297 3.18786 45.8659 3.08995 45.9383C2.99365 46.0091 2.92222 46.1354 2.87568 46.3172L2.45195 46.2593C2.49047 46.0775 2.55387 45.9311 2.64214 45.8201C2.73042 45.7075 2.85802 45.6214 3.02495 45.5619C3.19187 45.5008 3.38528 45.4702 3.60517 45.4702C3.82345 45.4702 4.00081 45.4959 4.13723 45.5474C4.27366 45.5989 4.37398 45.664 4.43818 45.7429C4.50238 45.8201 4.54732 45.9182 4.573 46.0373C4.58745 46.1113 4.59467 46.2448 4.59467 46.4378V47.0169C4.59467 47.4207 4.6035 47.6765 4.62115 47.7843C4.64041 47.8905 4.67733 47.9926 4.7319 48.0907H4.27928C4.23434 48.0007 4.20545 47.8953 4.19261 47.7746ZM4.1565 46.8046C3.9992 46.8689 3.76326 46.9236 3.44867 46.9687C3.27052 46.9944 3.14452 47.0234 3.07069 47.0556C2.99686 47.0877 2.93988 47.1352 2.89975 47.1979C2.85963 47.2591 2.83956 47.3274 2.83956 47.403C2.83956 47.5189 2.8829 47.6154 2.96957 47.6926C3.05785 47.7698 3.18625 47.8084 3.35478 47.8084C3.5217 47.8084 3.67017 47.7722 3.80018 47.6998C3.93019 47.6258 4.02568 47.5253 4.08668 47.3982C4.13322 47.3001 4.1565 47.1553 4.1565 46.9639V46.8046Z" fill="#1A1919"/>
<path d="M6.6435 45.0527V44.5532H7.07686V45.0527H6.6435ZM6.6435 48.0907V45.5281H7.07686V48.0907H6.6435Z" fill="#1A1919"/>
<path d="M7.73893 48.0907V45.5281H8.12896V45.8925C8.31675 45.611 8.588 45.4702 8.94271 45.4702C9.09679 45.4702 9.23804 45.4983 9.36644 45.5547C9.49645 45.6093 9.59355 45.6817 9.65775 45.7718C9.72196 45.8619 9.7669 45.9689 9.79258 46.0928C9.80863 46.1732 9.81665 46.3139 9.81665 46.515V48.0907H9.38329V46.5319C9.38329 46.355 9.36644 46.2231 9.33273 46.1362C9.29903 46.0477 9.23884 45.9777 9.15217 45.9263C9.0671 45.8732 8.96679 45.8466 8.85122 45.8466C8.66664 45.8466 8.50694 45.9053 8.37212 46.0228C8.2389 46.1402 8.17229 46.363 8.17229 46.6912V48.0907H7.73893Z" fill="#1A1919"/>
<path d="M11.1938 48.0907L10.2211 45.5281H10.6786L11.2275 47.0628C11.2869 47.2285 11.3414 47.4006 11.3912 47.5792C11.4297 47.444 11.4835 47.2816 11.5525 47.0917L12.1207 45.5281H12.5661L11.5982 48.0907H11.1938Z" fill="#1A1919"/>
<path d="M14.6992 47.2655L15.147 47.321C15.0764 47.5832 14.9455 47.7867 14.7545 47.9315C14.5635 48.0763 14.3196 48.1487 14.0226 48.1487C13.6487 48.1487 13.3517 48.0336 13.1319 47.8036C12.9136 47.5719 12.8044 47.2478 12.8044 46.8311C12.8044 46.4 12.9152 46.0654 13.1367 45.8273C13.3582 45.5892 13.6455 45.4702 13.9986 45.4702C14.3404 45.4702 14.6197 45.5868 14.8364 45.8201C15.0531 46.0533 15.1614 46.3815 15.1614 46.8046C15.1614 46.8303 15.1606 46.8689 15.159 46.9204H13.2522C13.2683 47.2019 13.3477 47.4175 13.4906 47.5671C13.6334 47.7167 13.8116 47.7915 14.0251 47.7915C14.184 47.7915 14.3196 47.7497 14.4319 47.666C14.5443 47.5824 14.6334 47.4489 14.6992 47.2655ZM13.2763 46.5633H14.704C14.6847 46.3477 14.6302 46.1861 14.5403 46.0783C14.4022 45.911 14.2233 45.8273 14.0034 45.8273C13.8044 45.8273 13.6366 45.8941 13.5002 46.0276C13.3654 46.1611 13.2908 46.3397 13.2763 46.5633Z" fill="#1A1919"/>
<path d="M15.5201 47.3258L15.9487 47.2582C15.9728 47.4304 16.0394 47.5623 16.1485 47.654C16.2593 47.7457 16.4133 47.7915 16.6108 47.7915C16.8098 47.7915 16.9575 47.7513 17.0538 47.6709C17.1501 47.5888 17.1982 47.4931 17.1982 47.3837C17.1982 47.2856 17.1557 47.2084 17.0706 47.1521C17.0112 47.1135 16.8636 47.0644 16.6276 47.0049C16.3098 46.9244 16.0891 46.8553 15.9655 46.7974C15.8436 46.7378 15.7505 46.6566 15.6863 46.5536C15.6237 46.4491 15.5924 46.3341 15.5924 46.2086C15.5924 46.0944 15.6181 45.989 15.6694 45.8925C15.7224 45.7943 15.7938 45.7131 15.8837 45.6488C15.9511 45.5989 16.0426 45.5571 16.1581 45.5233C16.2753 45.4879 16.4005 45.4702 16.5337 45.4702C16.7344 45.4702 16.9101 45.4992 17.061 45.5571C17.2135 45.615 17.3258 45.6938 17.398 45.7935C17.4703 45.8917 17.52 46.0236 17.5473 46.1893L17.1236 46.2472C17.1043 46.1153 17.0481 46.0123 16.955 45.9383C16.8636 45.8643 16.7336 45.8273 16.565 45.8273C16.366 45.8273 16.224 45.8603 16.1389 45.9263C16.0538 45.9922 16.0113 46.0694 16.0113 46.1579C16.0113 46.2142 16.0289 46.2649 16.0643 46.3099C16.0996 46.3566 16.1549 46.3952 16.2304 46.4258C16.2737 46.4418 16.4013 46.4788 16.6132 46.5368C16.9197 46.6188 17.1332 46.6864 17.2536 46.7394C17.3756 46.7909 17.4711 46.8665 17.5401 46.9663C17.6091 47.066 17.6436 47.1899 17.6436 47.3379C17.6436 47.4827 17.6011 47.6194 17.516 47.7481C17.4325 47.8752 17.3114 47.9741 17.1525 48.0449C16.9936 48.1141 16.8138 48.1487 16.6132 48.1487C16.2809 48.1487 16.0273 48.0795 15.8524 47.9411C15.679 47.8028 15.5683 47.5977 15.5201 47.3258Z" fill="#1A1919"/>
<path d="M19.105 47.7022L19.1676 48.0859C19.0456 48.1117 18.9365 48.1245 18.8402 48.1245C18.6829 48.1245 18.5609 48.0996 18.4742 48.0497C18.3875 47.9998 18.3266 47.9347 18.2912 47.8543C18.2559 47.7722 18.2383 47.6009 18.2383 47.3403V45.8659H17.9205V45.5281H18.2383V44.8935L18.6692 44.6329V45.5281H19.105V45.8659H18.6692V47.3644C18.6692 47.4883 18.6764 47.5679 18.6909 47.6033C18.7069 47.6387 18.7318 47.6669 18.7655 47.6878C18.8008 47.7087 18.8506 47.7191 18.9148 47.7191C18.9629 47.7191 19.0263 47.7135 19.105 47.7022Z" fill="#1A1919"/>
<path d="M21.2814 47.2655L21.7292 47.321C21.6586 47.5832 21.5278 47.7867 21.3368 47.9315C21.1458 48.0763 20.9018 48.1487 20.6049 48.1487C20.2309 48.1487 19.934 48.0336 19.7141 47.8036C19.4958 47.5719 19.3867 47.2478 19.3867 46.8311C19.3867 46.4 19.4974 46.0654 19.7189 45.8273C19.9404 45.5892 20.2277 45.4702 20.5808 45.4702C20.9227 45.4702 21.202 45.5868 21.4187 45.8201C21.6353 46.0533 21.7437 46.3815 21.7437 46.8046C21.7437 46.8303 21.7429 46.8689 21.7413 46.9204H19.8345C19.8505 47.2019 19.93 47.4175 20.0728 47.5671C20.2157 47.7167 20.3938 47.7915 20.6073 47.7915C20.7662 47.7915 20.9018 47.7497 21.0142 47.666C21.1265 47.5824 21.2156 47.4489 21.2814 47.2655ZM19.8586 46.5633H21.2862C21.267 46.3477 21.2124 46.1861 21.1225 46.0783C20.9845 45.911 20.8055 45.8273 20.5856 45.8273C20.3866 45.8273 20.2189 45.8941 20.0825 46.0276C19.9476 46.1611 19.873 46.3397 19.8586 46.5633Z" fill="#1A1919"/>
<path d="M24.026 47.2655L24.4738 47.321C24.4032 47.5832 24.2724 47.7867 24.0814 47.9315C23.8904 48.0763 23.6464 48.1487 23.3495 48.1487C22.9755 48.1487 22.6786 48.0336 22.4587 47.8036C22.2404 47.5719 22.1313 47.2478 22.1313 46.8311C22.1313 46.4 22.242 46.0654 22.4635 45.8273C22.685 45.5892 22.9723 45.4702 23.3254 45.4702C23.6673 45.4702 23.9466 45.5868 24.1633 45.8201C24.3799 46.0533 24.4883 46.3815 24.4883 46.8046C24.4883 46.8303 24.4875 46.8689 24.4859 46.9204H22.5791C22.5951 47.2019 22.6746 47.4175 22.8174 47.5671C22.9603 47.7167 23.1384 47.7915 23.3519 47.7915C23.5108 47.7915 23.6464 47.7497 23.7588 47.666C23.8711 47.5824 23.9602 47.4489 24.026 47.2655ZM22.6032 46.5633H24.0308C24.0116 46.3477 23.957 46.1861 23.8671 46.0783C23.7291 45.911 23.5501 45.8273 23.3302 45.8273C23.1312 45.8273 22.9635 45.8941 22.8271 46.0276C22.6922 46.1611 22.6176 46.3397 22.6032 46.5633Z" fill="#1A1919"/>
<path d="M25.0155 48.0907V45.5281H25.4056V45.9166C25.5051 45.7348 25.5966 45.615 25.68 45.5571C25.7651 45.4992 25.8582 45.4702 25.9593 45.4702C26.1054 45.4702 26.2538 45.5168 26.4047 45.6102L26.2554 46.0131C26.1495 45.9504 26.0436 45.919 25.9376 45.919C25.8429 45.919 25.7579 45.948 25.6824 46.0059C25.607 46.0622 25.5532 46.141 25.5211 46.2424C25.473 46.3968 25.4489 46.5657 25.4489 46.7491V48.0907H25.0155Z" fill="#1A1919"/>
<path d="M26.6647 45.0527V44.5532H27.0981V45.0527H26.6647ZM26.6647 48.0907V45.5281H27.0981V48.0907H26.6647Z" fill="#1A1919"/>
<path d="M27.7601 48.0907V45.5281H28.1478V45.8876C28.228 45.7622 28.3347 45.6616 28.468 45.586C28.6012 45.5088 28.7529 45.4702 28.923 45.4702C29.1124 45.4702 29.2673 45.5096 29.3877 45.5884C29.5096 45.6673 29.5955 45.7775 29.6453 45.919C29.8475 45.6198 30.1107 45.4702 30.4349 45.4702C30.6885 45.4702 30.8835 45.541 31.02 45.6825C31.1564 45.8225 31.2246 46.0389 31.2246 46.3316V48.0907H30.7937V46.4764C30.7937 46.3027 30.7792 46.178 30.7503 46.1024C30.723 46.0252 30.6725 45.9633 30.5987 45.9166C30.5248 45.87 30.4381 45.8466 30.3386 45.8466C30.1589 45.8466 30.0096 45.907 29.8908 46.0276C29.7721 46.1466 29.7127 46.3381 29.7127 46.6019V48.0907H29.2793V46.4258C29.2793 46.2327 29.244 46.0879 29.1734 45.9914C29.1028 45.8949 28.9872 45.8466 28.8267 45.8466C28.7047 45.8466 28.5916 45.8788 28.4872 45.9431C28.3845 46.0075 28.3099 46.1016 28.2633 46.2255C28.2168 46.3493 28.1935 46.5279 28.1935 46.7612V48.0907H27.7601Z" fill="#1A1919"/>
<path d="M31.8698 45.0527V44.5532H32.3032V45.0527H31.8698ZM31.8698 48.0907V45.5281H32.3032V48.0907H31.8698Z" fill="#1A1919"/>
<path d="M32.7919 47.3258L33.2205 47.2582C33.2446 47.4304 33.3112 47.5623 33.4203 47.654C33.5311 47.7457 33.6851 47.7915 33.8826 47.7915C34.0816 47.7915 34.2292 47.7513 34.3255 47.6709C34.4218 47.5888 34.47 47.4931 34.47 47.3837C34.47 47.2856 34.4275 47.2084 34.3424 47.1521C34.283 47.1135 34.1353 47.0644 33.8994 47.0049C33.5816 46.9244 33.3609 46.8553 33.2373 46.7974C33.1153 46.7378 33.0223 46.6566 32.9581 46.5536C32.8955 46.4491 32.8642 46.3341 32.8642 46.2086C32.8642 46.0944 32.8898 45.989 32.9412 45.8925C32.9942 45.7943 33.0656 45.7131 33.1555 45.6488C33.2229 45.5989 33.3144 45.5571 33.4299 45.5233C33.5471 45.4879 33.6723 45.4702 33.8055 45.4702C34.0061 45.4702 34.1819 45.4992 34.3328 45.5571C34.4852 45.615 34.5976 45.6938 34.6698 45.7935C34.7421 45.8917 34.7918 46.0236 34.8191 46.1893L34.3954 46.2472C34.3761 46.1153 34.3199 46.0123 34.2268 45.9383C34.1353 45.8643 34.0053 45.8273 33.8368 45.8273C33.6378 45.8273 33.4957 45.8603 33.4107 45.9263C33.3256 45.9922 33.2831 46.0694 33.2831 46.1579C33.2831 46.2142 33.3007 46.2649 33.336 46.3099C33.3714 46.3566 33.4267 46.3952 33.5022 46.4258C33.5455 46.4418 33.6731 46.4788 33.885 46.5368C34.1915 46.6188 34.405 46.6864 34.5254 46.7394C34.6474 46.7909 34.7429 46.8665 34.8119 46.9663C34.8809 47.066 34.9154 47.1899 34.9154 47.3379C34.9154 47.4827 34.8729 47.6194 34.7878 47.7481C34.7043 47.8752 34.5832 47.9741 34.4243 48.0449C34.2654 48.1141 34.0856 48.1487 33.885 48.1487C33.5527 48.1487 33.2991 48.0795 33.1242 47.9411C32.9508 47.8028 32.8401 47.5977 32.7919 47.3258Z" fill="#1A1919"/>
<path d="M35.5341 48.0907V45.8659H35.1513V45.5281H35.5341V45.2554C35.5341 45.0833 35.5494 44.9554 35.5799 44.8718C35.6216 44.7592 35.6946 44.6683 35.799 44.5991C35.9049 44.5283 36.0526 44.4929 36.242 44.4929C36.3639 44.4929 36.4988 44.5074 36.6464 44.5364L36.5814 44.9152C36.4915 44.8991 36.4065 44.8911 36.3262 44.8911C36.1946 44.8911 36.1015 44.9192 36.0469 44.9755C35.9924 45.0318 35.9651 45.1372 35.9651 45.2916V45.5281H36.4635V45.8659H35.9651V48.0907H35.5341Z" fill="#1A1919"/>
<path d="M36.6416 46.8094C36.6416 46.3349 36.7732 45.9834 37.0364 45.7549C37.2563 45.5651 37.5244 45.4702 37.8406 45.4702C38.1921 45.4702 38.4794 45.586 38.7025 45.8177C38.9256 46.0477 39.0371 46.3662 39.0371 46.7732C39.0371 47.103 38.9874 47.3628 38.8879 47.5526C38.79 47.7409 38.6463 47.8872 38.4569 47.9918C38.2691 48.0964 38.0637 48.1487 37.8406 48.1487C37.4827 48.1487 37.1929 48.0336 36.9714 47.8036C36.7516 47.5735 36.6416 47.2422 36.6416 46.8094ZM37.087 46.8094C37.087 47.1376 37.1584 47.3837 37.3013 47.5478C37.4441 47.7103 37.6239 47.7915 37.8406 47.7915C38.0556 47.7915 38.2346 47.7095 38.3775 47.5454C38.5203 47.3813 38.5917 47.1312 38.5917 46.7949C38.5917 46.478 38.5195 46.2383 38.375 46.0759C38.2322 45.9118 38.054 45.8297 37.8406 45.8297C37.6239 45.8297 37.4441 45.911 37.3013 46.0735C37.1584 46.2359 37.087 46.4813 37.087 46.8094Z" fill="#1A1919"/>
<path d="M39.5475 48.0907V45.5281H39.9376V45.8925C40.1253 45.611 40.3966 45.4702 40.7513 45.4702C40.9054 45.4702 41.0466 45.4983 41.175 45.5547C41.305 45.6093 41.4021 45.6817 41.4664 45.7718C41.5306 45.8619 41.5755 45.9689 41.6012 46.0928C41.6172 46.1732 41.6252 46.3139 41.6252 46.515V48.0907H41.1919V46.5319C41.1919 46.355 41.175 46.2231 41.1413 46.1362C41.1076 46.0477 41.0474 45.9777 40.9608 45.9263C40.8757 45.8732 40.7754 45.8466 40.6598 45.8466C40.4752 45.8466 40.3155 45.9053 40.1807 46.0228C40.0475 46.1402 39.9809 46.363 39.9809 46.6912V48.0907H39.5475Z" fill="#1A1919"/>
<path d="M43.9509 48.0907V47.7674C43.7888 48.0216 43.5505 48.1487 43.2359 48.1487C43.0321 48.1487 42.8443 48.0923 42.6725 47.9797C42.5024 47.8671 42.37 47.7103 42.2753 47.5092C42.1822 47.3065 42.1357 47.0741 42.1357 46.8118C42.1357 46.5561 42.1782 46.3244 42.2633 46.1169C42.3483 45.9078 42.4759 45.7477 42.6461 45.6367C42.8162 45.5257 43.0064 45.4702 43.2166 45.4702C43.3707 45.4702 43.508 45.5032 43.6283 45.5691C43.7487 45.6335 43.8466 45.7179 43.9221 45.8225V44.5532H44.353V48.0907H43.9509ZM42.581 46.8118C42.581 47.14 42.6501 47.3853 42.7881 47.5478C42.9261 47.7103 43.089 47.7915 43.2768 47.7915C43.4662 47.7915 43.6267 47.7143 43.7583 47.5599C43.8916 47.4038 43.9582 47.1666 43.9582 46.848C43.9582 46.4973 43.8908 46.2399 43.7559 46.0759C43.6211 45.9118 43.455 45.8297 43.2576 45.8297C43.065 45.8297 42.9037 45.9086 42.7737 46.0662C42.6452 46.2239 42.581 46.4724 42.581 46.8118Z" fill="#1A1919"/>
<path d="M45.0392 45.0527V44.5532H45.4725V45.0527H45.0392ZM45.0392 48.0907V45.5281H45.4725V48.0907H45.0392Z" fill="#1A1919"/>
<path d="M47.7934 48.0907V47.7674C47.6313 48.0216 47.3929 48.1487 47.0784 48.1487C46.8745 48.1487 46.6867 48.0923 46.515 47.9797C46.3449 47.8671 46.2124 47.7103 46.1177 47.5092C46.0247 47.3065 45.9781 47.0741 45.9781 46.8118C45.9781 46.5561 46.0206 46.3244 46.1057 46.1169C46.1908 45.9078 46.3184 45.7477 46.4885 45.6367C46.6586 45.5257 46.8488 45.4702 47.0591 45.4702C47.2132 45.4702 47.3504 45.5032 47.4708 45.5691C47.5912 45.6335 47.6891 45.7179 47.7645 45.8225V44.5532H48.1955V48.0907H47.7934ZM46.4235 46.8118C46.4235 47.14 46.4925 47.3853 46.6306 47.5478C46.7686 47.7103 46.9315 47.7915 47.1193 47.7915C47.3087 47.7915 47.4692 47.7143 47.6008 47.5599C47.734 47.4038 47.8006 47.1666 47.8006 46.848C47.8006 46.4973 47.7332 46.2399 47.5984 46.0759C47.4636 45.9118 47.2974 45.8297 47.1 45.8297C46.9074 45.8297 46.7461 45.9086 46.6161 46.0662C46.4877 46.2239 46.4235 46.4724 46.4235 46.8118Z" fill="#1A1919"/>
<path fill-rule="evenodd" clip-rule="evenodd" d="M0.414062 0.458008H49.0097V33.0396H0.414062V0.458008Z" fill="#174489"/>
<path fill-rule="evenodd" clip-rule="evenodd" d="M25.0677 5.20286H26.4677L25.3389 6.05255L25.7758 7.39793L24.6518 6.57199L23.5279 7.39793L23.9706 6.05255L22.832 5.20286H24.2309L24.6518 3.89111L25.0677 5.20286Z" fill="#FFF101"/>
<path fill-rule="evenodd" clip-rule="evenodd" d="M25.1275 26.9139H26.5283L25.4023 27.7616L25.8372 29.1091L24.7152 28.2789L23.5892 29.1091L24.0343 27.7616L22.8945 26.9139H24.2904L24.7152 25.6023L25.1275 26.9139Z" fill="#FFF101"/>
<path fill-rule="evenodd" clip-rule="evenodd" d="M30.4928 25.4749H31.8945L30.7649 26.3226L31.2034 27.666L30.0799 26.8382L28.9518 27.666L29.3965 26.3226L28.2578 25.4749H29.6567L30.0799 24.1594L30.4928 25.4749Z" fill="#FFF101"/>
<path fill-rule="evenodd" clip-rule="evenodd" d="M30.4928 6.63358H31.8945L30.7649 7.48346L31.2034 8.82477L30.0799 7.99883L28.9518 8.82477L29.3965 7.48346L28.2578 6.63358H29.6567L30.0799 5.32202L30.4928 6.63358Z" fill="#FFF101"/>
<path fill-rule="evenodd" clip-rule="evenodd" d="M34.4743 10.6202H35.8721L34.7464 11.4679L35.1851 12.8174L34.0614 11.9875L32.9354 12.8174L33.3773 11.4679L32.2383 10.6202H33.6363L34.0614 9.31055L34.4743 10.6202Z" fill="#FFF101"/>
<path fill-rule="evenodd" clip-rule="evenodd" d="M34.4743 21.5382H35.8721L34.7464 22.3859L35.1851 23.7316L34.0614 22.9055L32.9354 23.7316L33.3773 22.3859L32.2383 21.5382H33.6363L34.0614 20.2268L34.4743 21.5382Z" fill="#FFF101"/>
<path fill-rule="evenodd" clip-rule="evenodd" d="M35.9653 15.9975H37.3662L36.2384 16.8452L36.6743 18.1926L35.5524 17.3648L34.4275 18.1926L34.8714 16.8452L33.7344 15.9975H35.1283L35.5524 14.6838L35.9653 15.9975Z" fill="#FFF101"/>
<path fill-rule="evenodd" clip-rule="evenodd" d="M19.5979 6.64773H20.9997L19.87 7.49742L20.3089 8.84085L19.185 8.01104L18.0602 8.84085L18.5038 7.49742L17.3672 6.64773H18.7622L19.185 5.33423L19.5979 6.64773Z" fill="#FFF101"/>
<path fill-rule="evenodd" clip-rule="evenodd" d="M15.729 10.636H17.1311L16.001 11.4838L16.4399 12.8292L15.3161 12.0014L14.192 12.8292L14.635 11.4838L13.4961 10.636H14.8929L15.3161 9.32642L15.729 10.636Z" fill="#FFF101"/>
<path fill-rule="evenodd" clip-rule="evenodd" d="M14.2925 16.0113H15.6903L14.5655 16.8594L15.0024 18.2045L13.8793 17.3767L12.7558 18.2045L13.1963 16.8594L12.0586 16.0113H13.4545L13.8793 14.7L14.2925 16.0113Z" fill="#FFF101"/>
<path fill-rule="evenodd" clip-rule="evenodd" d="M15.729 21.5523H17.1311L16.001 22.4L16.4399 23.7456L15.3161 22.9173L14.192 23.7456L14.635 22.4L13.4961 21.5523H14.8929L15.3161 20.2407L15.729 21.5523Z" fill="#FFF101"/>
<path fill-rule="evenodd" clip-rule="evenodd" d="M19.6547 25.4868H21.0556L19.9267 26.3367L20.3638 27.6799L19.2418 26.8518L18.1158 27.6799L18.5605 26.3367L17.4219 25.4868H18.8186L19.2418 24.1731L19.6547 25.4868Z" fill="#FFF101"/>
<path fill-rule="evenodd" clip-rule="evenodd" d="M76.0754 6.94996C79.867 7.30214 83.3623 8.54533 86.3828 10.4491C86.3863 10.4531 86.4663 10.5083 86.5914 10.5882C82.7733 5.12821 76.6168 1.30496 69.4003 0.634894C63.0842 0.0522062 57.1331 1.98864 52.5586 5.60402C56.0311 6.29496 59.0838 8.04271 61.4069 10.4722C65.626 7.80477 70.7244 6.45496 76.0754 6.94996Z" fill="#0072AD"/>
<path fill-rule="evenodd" clip-rule="evenodd" d="M90.6918 22.185C90.6859 22.1106 90.6594 21.7851 90.6537 21.7185C90.2983 17.6403 88.8586 13.8249 86.5921 10.5881C86.467 10.5082 86.387 10.4529 86.3835 10.449C83.3629 8.54518 79.8676 7.30199 76.0761 6.9498C70.7251 6.4548 65.6267 7.80461 61.4075 10.4721C64.0178 13.2023 65.7103 16.7892 66.0408 20.7187C66.1223 21.6976 66.1243 22.6989 66.0312 23.7155C65.8832 25.3054 65.5222 26.8247 64.973 28.241C63.9816 30.8266 62.3744 33.0847 60.3516 34.8612L60.3874 34.8286C68.1664 30.3126 77.8104 28.3687 87.3161 29.8139C86.4535 30.6308 85.158 31.3256 84.1038 31.874C85.388 31.5387 89.9032 29.7319 89.9677 29.5947C89.9677 29.5947 89.9716 29.5928 89.9716 29.5912H89.9677C89.9677 29.5912 91.022 26.1717 90.6918 22.185Z" fill="#1A1919"/>
<path fill-rule="evenodd" clip-rule="evenodd" d="M90.275 21.6483C87.2661 19.6069 84.785 18.3731 79.5461 17.8858C75.5626 17.5166 71.7179 18.1696 68.2776 19.6261C68.3649 20.5895 68.3727 21.5758 68.2796 22.5752C67.8313 27.4208 65.2594 31.5502 61.5703 34.1394C71.1101 28.6409 79.7835 27.9063 87.1293 29.0295C87.6173 29.1055 89.1276 29.3666 89.8247 29.5532C90.6794 25.2426 90.3811 22.3906 90.275 21.6483Z" fill="#FFFFFE"/>
<path d="M70.9961 38.017V34.4795H73.5481V34.8969H71.4632V35.9804H73.4157V36.3954H71.4632V37.5995H73.63V38.017H70.9961Z" fill="#1A1919"/>
<path d="M75.9701 37.1917L76.4179 37.2472C76.3473 37.5094 76.2165 37.7129 76.0255 37.8577C75.8345 38.0025 75.5905 38.0749 75.2936 38.0749C74.9196 38.0749 74.6227 37.9599 74.4028 37.7298C74.1845 37.4982 74.0754 37.174 74.0754 36.7574C74.0754 36.3263 74.1861 35.9917 74.4076 35.7536C74.6291 35.5155 74.9164 35.3964 75.2695 35.3964C75.6114 35.3964 75.8907 35.5131 76.1073 35.7463C76.324 35.9796 76.4324 36.3078 76.4324 36.7308C76.4324 36.7566 76.4315 36.7952 76.4299 36.8467H74.5232C74.5392 37.1282 74.6187 37.3438 74.7615 37.4934C74.9044 37.643 75.0825 37.7178 75.296 37.7178C75.4549 37.7178 75.5905 37.6759 75.7029 37.5923C75.8152 37.5086 75.9043 37.3751 75.9701 37.1917ZM74.5472 36.4895H75.9749C75.9557 36.274 75.9011 36.1123 75.8112 36.0045C75.6732 35.8372 75.4942 35.7536 75.2743 35.7536C75.0753 35.7536 74.9076 35.8203 74.7711 35.9539C74.6363 36.0874 74.5617 36.2659 74.5472 36.4895Z" fill="#1A1919"/>
<path d="M76.7911 37.2521L77.2196 37.1845C77.2437 37.3566 77.3103 37.4885 77.4194 37.5802C77.5302 37.6719 77.6843 37.7178 77.8817 37.7178C78.0807 37.7178 78.2284 37.6776 78.3247 37.5971C78.421 37.5151 78.4691 37.4194 78.4691 37.31C78.4691 37.2118 78.4266 37.1346 78.3415 37.0783C78.2822 37.0397 78.1345 36.9906 77.8986 36.9311C77.5808 36.8507 77.3601 36.7815 77.2365 36.7236C77.1145 36.6641 77.0214 36.5828 76.9572 36.4799C76.8946 36.3753 76.8633 36.2603 76.8633 36.1348C76.8633 36.0206 76.889 35.9152 76.9403 35.8187C76.9933 35.7206 77.0647 35.6394 77.1546 35.575C77.222 35.5251 77.3135 35.4833 77.4291 35.4495C77.5462 35.4141 77.6714 35.3964 77.8047 35.3964C78.0053 35.3964 78.181 35.4254 78.3319 35.4833C78.4844 35.5412 78.5967 35.62 78.669 35.7198C78.7412 35.8179 78.791 35.9498 78.8182 36.1155L78.3945 36.1734C78.3752 36.0415 78.3191 35.9386 78.226 35.8646C78.1345 35.7906 78.0045 35.7536 77.836 35.7536C77.6369 35.7536 77.4949 35.7865 77.4098 35.8525C77.3248 35.9185 77.2822 35.9957 77.2822 36.0842C77.2822 36.1405 77.2999 36.1911 77.3352 36.2362C77.3705 36.2828 77.4259 36.3214 77.5013 36.352C77.5446 36.3681 77.6722 36.4051 77.8841 36.463C78.1907 36.545 78.4041 36.6126 78.5245 36.6657C78.6465 36.7172 78.742 36.7928 78.811 36.8925C78.88 36.9923 78.9145 37.1161 78.9145 37.2641C78.9145 37.4089 78.872 37.5456 78.7869 37.6743C78.7035 37.8014 78.5823 37.9004 78.4234 37.9711C78.2645 38.0403 78.0847 38.0749 77.8841 38.0749C77.5519 38.0749 77.2983 38.0057 77.1233 37.8674C76.95 37.729 76.8392 37.5239 76.7911 37.2521Z" fill="#1A1919"/>
<path d="M80.3759 37.6285L80.4385 38.0122C80.3165 38.0379 80.2074 38.0508 80.1111 38.0508C79.9538 38.0508 79.8318 38.0258 79.7451 37.976C79.6585 37.9261 79.5975 37.8609 79.5622 37.7805C79.5269 37.6985 79.5092 37.5271 79.5092 37.2665V35.7922H79.1914V35.4544H79.5092V34.8197L79.9402 34.5591V35.4544H80.3759V35.7922H79.9402V37.2907C79.9402 37.4145 79.9474 37.4942 79.9618 37.5296C79.9779 37.5649 80.0028 37.5931 80.0365 37.614C80.0718 37.6349 80.1215 37.6454 80.1857 37.6454C80.2339 37.6454 80.2973 37.6398 80.3759 37.6285Z" fill="#1A1919"/>
<path d="M80.8045 34.979V34.4795H81.2378V34.979H80.8045ZM80.8045 38.017V35.4544H81.2378V38.017H80.8045Z" fill="#1A1919"/>
<path d="M61.7353 42.6519L61.7979 43.0356C61.6759 43.0613 61.5668 43.0742 61.4705 43.0742C61.3132 43.0742 61.1912 43.0493 61.1045 42.9994C61.0178 42.9495 60.9569 42.8844 60.9215 42.8039C60.8862 42.7219 60.8686 42.5506 60.8686 42.29V40.8156H60.5508V40.4778H60.8686V39.8432L61.2995 39.5826V40.4778H61.7353V40.8156H61.2995V42.3141C61.2995 42.438 61.3068 42.5176 61.3212 42.553C61.3372 42.5884 61.3621 42.6165 61.3958 42.6374C61.4311 42.6584 61.4809 42.6688 61.5451 42.6688C61.5933 42.6688 61.6567 42.6632 61.7353 42.6519Z" fill="#1A1919"/>
<path d="M63.8371 43.0404V42.664C63.6381 42.9536 63.3676 43.0983 63.0257 43.0983C62.8749 43.0983 62.7336 43.0694 62.602 43.0115C62.472 42.9536 62.3749 42.8812 62.3107 42.7943C62.2481 42.7058 62.204 42.598 62.1783 42.4709C62.1606 42.3857 62.1518 42.2506 62.1518 42.0656V40.4778H62.5852V41.8991C62.5852 42.1259 62.594 42.2787 62.6116 42.3575C62.6389 42.4718 62.6967 42.5618 62.785 42.6278C62.8733 42.6921 62.9824 42.7243 63.1124 42.7243C63.2424 42.7243 63.3644 42.6913 63.4784 42.6254C63.5923 42.5578 63.6726 42.4669 63.7191 42.3527C63.7673 42.2369 63.7913 42.0696 63.7913 41.8508V40.4778H64.2247V43.0404H63.8371Z" fill="#1A1919"/>
<path d="M64.8964 43.0404V39.5029H65.3298V43.0404H64.8964Z" fill="#1A1919"/>
<path d="M67.7542 42.2152L68.202 42.2707C68.1314 42.5329 68.0006 42.7364 67.8096 42.8812C67.6186 43.0259 67.3746 43.0983 67.0777 43.0983C66.7037 43.0983 66.4068 42.9833 66.1869 42.7533C65.9686 42.5216 65.8594 42.1975 65.8594 41.7808C65.8594 41.3497 65.9702 41.0151 66.1917 40.777C66.4132 40.5389 66.7005 40.4199 67.0536 40.4199C67.3955 40.4199 67.6747 40.5365 67.8914 40.7698C68.1081 41.003 68.2164 41.3312 68.2164 41.7543C68.2164 41.78 68.2156 41.8186 68.214 41.8701H66.3072C66.3233 42.1516 66.4027 42.3672 66.5456 42.5168C66.6884 42.6664 66.8666 42.7412 67.0801 42.7412C67.239 42.7412 67.3746 42.6994 67.4869 42.6157C67.5993 42.5321 67.6884 42.3986 67.7542 42.2152ZM66.3313 41.513H67.759C67.7397 41.2974 67.6852 41.1357 67.5953 41.028C67.4572 40.8607 67.2783 40.777 67.0584 40.777C66.8594 40.777 66.6916 40.8438 66.5552 40.9773C66.4204 41.1108 66.3458 41.2894 66.3313 41.513Z" fill="#1A1919"/>
<path d="M69.4587 43.0404L68.4861 40.4778H68.9435L69.4924 42.0125C69.5518 42.1782 69.6064 42.3503 69.6561 42.5289C69.6947 42.3937 69.7484 42.2313 69.8175 42.0414L70.3856 40.4778H70.831L69.8632 43.0404H69.4587Z" fill="#1A1919"/>
<path d="M71.2162 40.0024V39.5029H71.6496V40.0024H71.2162ZM71.2162 43.0404V40.4778H71.6496V43.0404H71.2162Z" fill="#1A1919"/>
<path d="M72.3141 43.0404V39.5029H72.7474V41.5202L73.7731 40.4778H74.334L73.3566 41.4285L74.4327 43.0404H73.8983L73.0532 41.7302L72.7474 42.0245V43.0404H72.3141Z" fill="#1A1919"/>
<path d="M76.4527 43.0404V42.664C76.2536 42.9536 75.9832 43.0983 75.6413 43.0983C75.4904 43.0983 75.3492 43.0694 75.2176 43.0115C75.0876 42.9536 74.9905 42.8812 74.9263 42.7943C74.8637 42.7058 74.8195 42.598 74.7939 42.4709C74.7762 42.3857 74.7674 42.2506 74.7674 42.0656V40.4778H75.2007V41.8991C75.2007 42.1259 75.2096 42.2787 75.2272 42.3575C75.2545 42.4718 75.3123 42.5618 75.4006 42.6278C75.4888 42.6921 75.598 42.7243 75.728 42.7243C75.858 42.7243 75.98 42.6913 76.0939 42.6254C76.2079 42.5578 76.2881 42.4669 76.3347 42.3527C76.3828 42.2369 76.4069 42.0696 76.4069 41.8508V40.4778H76.8403V43.0404H76.4527Z" fill="#1A1919"/>
<path d="M78.8939 43.0404V39.5029H79.3273V40.7722C79.5295 40.5373 79.7847 40.4199 80.0929 40.4199C80.2823 40.4199 80.4468 40.4577 80.5864 40.5333C80.7261 40.6073 80.8256 40.7102 80.885 40.8422C80.946 40.9741 80.9765 41.1655 80.9765 41.4165V43.0404H80.5431V41.4165C80.5431 41.1993 80.4957 41.0416 80.4011 40.9435C80.308 40.8438 80.1755 40.7939 80.0038 40.7939C79.8754 40.7939 79.7542 40.8277 79.6403 40.8952C79.5279 40.9612 79.4477 41.0513 79.3995 41.1655C79.3514 41.2797 79.3273 41.4374 79.3273 41.6385V43.0404H78.8939Z" fill="#1A1919"/>
<path d="M83.3888 42.2152L83.8366 42.2707C83.766 42.5329 83.6352 42.7364 83.4442 42.8812C83.2532 43.0259 83.0092 43.0983 82.7123 43.0983C82.3383 43.0983 82.0414 42.9833 81.8215 42.7533C81.6032 42.5216 81.4941 42.1975 81.4941 41.7808C81.4941 41.3497 81.6048 41.0151 81.8263 40.777C82.0478 40.5389 82.3351 40.4199 82.6882 40.4199C83.0301 40.4199 83.3094 40.5365 83.5261 40.7698C83.7427 41.003 83.8511 41.3312 83.8511 41.7543C83.8511 41.78 83.8503 41.8186 83.8487 41.8701H81.9419C81.9579 42.1516 82.0374 42.3672 82.1802 42.5168C82.3231 42.6664 82.5012 42.7412 82.7147 42.7412C82.8736 42.7412 83.0092 42.6994 83.1216 42.6157C83.2339 42.5321 83.323 42.3986 83.3888 42.2152ZM81.966 41.513H83.3936C83.3744 41.2974 83.3198 41.1357 83.2299 41.028C83.0919 40.8607 82.9129 40.777 82.693 40.777C82.494 40.777 82.3263 40.8438 82.1899 40.9773C82.055 41.1108 81.9804 41.2894 81.966 41.513Z" fill="#1A1919"/>
<path d="M86.0516 42.7243C85.8911 42.8611 85.7362 42.9576 85.5869 43.0139C85.4393 43.0702 85.2804 43.0983 85.1102 43.0983C84.8293 43.0983 84.6135 43.03 84.4626 42.8932C84.3117 42.7549 84.2363 42.5787 84.2363 42.3648C84.2363 42.2393 84.2644 42.1251 84.3205 42.0221C84.3783 41.9176 84.453 41.8339 84.5445 41.7712C84.6375 41.7084 84.7419 41.661 84.8574 41.6288C84.9425 41.6063 85.0709 41.5846 85.2426 41.5637C85.5925 41.5218 85.8501 41.472 86.0155 41.414C86.0171 41.3545 86.0179 41.3167 86.0179 41.3006C86.0179 41.1237 85.9769 40.999 85.8951 40.9266C85.7843 40.8285 85.6198 40.7794 85.4015 40.7794C85.1977 40.7794 85.0468 40.8156 84.9489 40.888C84.8526 40.9588 84.7812 41.0851 84.7346 41.2669L84.3109 41.2089C84.3494 41.0272 84.4128 40.8808 84.5011 40.7698C84.5894 40.6572 84.717 40.5711 84.8839 40.5116C85.0508 40.4504 85.2442 40.4199 85.4641 40.4199C85.6824 40.4199 85.8598 40.4456 85.9962 40.4971C86.1326 40.5486 86.2329 40.6137 86.2971 40.6926C86.3614 40.7698 86.4063 40.8679 86.432 40.9869C86.4464 41.0609 86.4536 41.1945 86.4536 41.3875V41.9666C86.4536 42.3704 86.4625 42.6262 86.4801 42.734C86.4994 42.8401 86.5363 42.9423 86.5909 43.0404H86.1383C86.0933 42.9503 86.0644 42.845 86.0516 42.7243ZM86.0155 41.7543C85.8582 41.8186 85.6222 41.8733 85.3076 41.9184C85.1295 41.9441 85.0035 41.9731 84.9297 42.0052C84.8558 42.0374 84.7988 42.0849 84.7587 42.1476C84.7186 42.2087 84.6985 42.2771 84.6985 42.3527C84.6985 42.4685 84.7419 42.5651 84.8285 42.6423C84.9168 42.7195 85.0452 42.7581 85.2138 42.7581C85.3807 42.7581 85.5291 42.7219 85.6591 42.6495C85.7892 42.5755 85.8847 42.475 85.9456 42.3479C85.9922 42.2498 86.0155 42.105 86.0155 41.9135V41.7543Z" fill="#1A1919"/>
<path d="M87.1302 43.0404V39.5029H87.5635V41.5202L88.5891 40.4778H89.1501L88.1726 41.4285L89.2488 43.0404H88.7143L87.8693 41.7302L87.5635 42.0245V43.0404H87.1302Z" fill="#1A1919"/>
<path d="M89.4197 42.2755L89.8483 42.2079C89.8724 42.3801 89.939 42.512 90.0481 42.6037C90.1589 42.6954 90.313 42.7412 90.5104 42.7412C90.7094 42.7412 90.8571 42.701 90.9534 42.6206C91.0497 42.5385 91.0978 42.4428 91.0978 42.3334C91.0978 42.2353 91.0553 42.1581 90.9702 42.1018C90.9108 42.0631 90.7632 42.0141 90.5272 41.9546C90.2094 41.8741 89.9887 41.805 89.8651 41.747C89.7432 41.6875 89.6501 41.6063 89.5859 41.5033C89.5233 41.3988 89.492 41.2837 89.492 41.1583C89.492 41.044 89.5177 40.9387 89.569 40.8422C89.622 40.744 89.6934 40.6628 89.7833 40.5984C89.8507 40.5486 89.9422 40.5067 90.0577 40.473C90.1749 40.4376 90.3001 40.4199 90.4333 40.4199C90.634 40.4199 90.8097 40.4488 90.9606 40.5067C91.1131 40.5647 91.2254 40.6435 91.2976 40.7432C91.3699 40.8414 91.4196 40.9733 91.4469 41.139L91.0232 41.1969C91.0039 41.065 90.9477 40.962 90.8546 40.888C90.7632 40.814 90.6332 40.777 90.4646 40.777C90.2656 40.777 90.1236 40.81 90.0385 40.8759C89.9534 40.9419 89.9109 41.0191 89.9109 41.1076C89.9109 41.1639 89.9285 41.2146 89.9639 41.2596C89.9992 41.3063 90.0545 41.3449 90.13 41.3754C90.1733 41.3915 90.3009 41.4285 90.5128 41.4864C90.8193 41.5685 91.0328 41.636 91.1532 41.6891C91.2752 41.7406 91.3707 41.8162 91.4397 41.916C91.5087 42.0157 91.5432 42.1396 91.5432 42.2876C91.5432 42.4323 91.5007 42.5691 91.4156 42.6978C91.3321 42.8249 91.211 42.9238 91.0521 42.9946C90.8932 43.0637 90.7134 43.0983 90.5128 43.0983C90.1805 43.0983 89.9269 43.0292 89.752 42.8908C89.5786 42.7525 89.4679 42.5474 89.4197 42.2755Z" fill="#1A1919"/>
</g>
<defs>
<clipPath id="clip0">
<rect width="91.6667" height="50" fill="white"/>
</clipPath>
</defs>
</svg>
