<svg width="166" height="60" viewBox="0 0 166 60" fill="none" xmlns="http://www.w3.org/2000/svg">
<path d="M166 27.1665H161.612V28.015H163.233V33.588H164.345V28.015H166V27.1665ZM160.369 29.823H158.009V28.015H160.77V27.1665H156.898V33.588H160.77V32.7396H158.009V30.6723H160.369V29.823ZM150.862 27.1665H149.46V33.588H150.571V29.3494L150.604 29.3441L151.984 33.588H152.738L154.113 29.3714L154.146 29.3767V33.588H155.262V27.1665H153.866L152.375 32.2157H152.342L150.862 27.1665ZM145.559 28.732H145.592L146.4 31.2896H144.756L145.559 28.732ZM147.126 33.588H148.293L146.158 27.1665H145.009L142.864 33.588H144.036L144.492 32.1381H146.664L147.126 33.588ZM141.921 29.823H139.562V28.015H142.323V27.1665H138.45V33.588H142.323V32.7396H139.562V30.6723H141.921V29.823ZM137.419 27.1665H133.03V28.015H134.653V33.588H135.764V28.015H137.419V27.1665ZM129.003 28.015H130.03C130.353 28.015 130.595 28.1129 130.756 28.3078C130.918 28.5018 130.998 28.7646 130.998 29.0953C130.998 29.4296 130.919 29.6871 130.759 29.8671C130.6 30.047 130.357 30.1369 130.03 30.1369H129.003V28.015ZM130.125 30.9863C130.418 30.9863 130.643 31.0797 130.8 31.2676C130.958 31.4546 131.037 31.7174 131.037 32.0561V32.6346C131.037 32.8251 131.042 33.013 131.051 33.1964C131.06 33.3807 131.083 33.5113 131.12 33.588H132.269V33.4945C132.222 33.4169 132.189 33.2961 132.173 33.1303C132.157 32.9653 132.149 32.8013 132.149 32.6399V32.0499C132.149 31.6645 132.071 31.3399 131.917 31.0771C131.763 30.8143 131.514 30.6299 131.169 30.5232C131.477 30.3804 131.712 30.1837 131.873 29.9332C132.034 29.6836 132.115 29.3882 132.115 29.046C132.115 28.4542 131.931 27.9929 131.563 27.6622C131.194 27.3314 130.683 27.1665 130.03 27.1665H127.891V33.588H129.003V30.9863H130.125ZM125.336 31.0401C125.336 31.601 125.226 32.0402 125.004 32.3568C124.782 32.6743 124.477 32.8331 124.088 32.8331C123.688 32.8331 123.378 32.6743 123.156 32.3568C122.934 32.0402 122.823 31.601 122.823 31.0401V29.6977C122.823 29.1483 122.933 28.7152 123.153 28.4004C123.373 28.0846 123.681 27.9268 124.077 27.9268C124.47 27.9268 124.778 28.0846 125.001 28.4004C125.225 28.7152 125.336 29.1483 125.336 29.6977V31.0401ZM126.448 29.7074C126.448 28.9251 126.228 28.291 125.788 27.8059C125.348 27.3209 124.778 27.0783 124.077 27.0783C123.373 27.0783 122.803 27.3209 122.366 27.8059C121.93 28.291 121.712 28.9251 121.712 29.7074V31.0471C121.712 31.8373 121.931 32.4741 122.369 32.9565C122.807 33.4398 123.38 33.6815 124.088 33.6815C124.788 33.6815 125.357 33.4398 125.793 32.9565C126.23 32.4741 126.448 31.8373 126.448 31.0471V29.7074ZM119.329 31.0401C119.329 31.601 119.219 32.0402 118.997 32.3568C118.775 32.6743 118.47 32.8331 118.082 32.8331C117.681 32.8331 117.371 32.6743 117.149 32.3568C116.927 32.0402 116.816 31.601 116.816 31.0401V29.6977C116.816 29.1483 116.926 28.7152 117.146 28.4004C117.366 28.0846 117.674 27.9268 118.07 27.9268C118.463 27.9268 118.771 28.0846 118.994 28.4004C119.218 28.7152 119.329 29.1483 119.329 29.6977V31.0401ZM120.441 29.7074C120.441 28.9251 120.221 28.291 119.781 27.8059C119.341 27.3209 118.771 27.0783 118.07 27.0783C117.366 27.0783 116.796 27.3209 116.359 27.8059C115.923 28.291 115.706 28.9251 115.706 29.7074V31.0471C115.706 31.8373 115.925 32.4741 116.363 32.9565C116.8 33.4398 117.373 33.6815 118.082 33.6815C118.781 33.6815 119.35 33.4398 119.786 32.9565C120.223 32.4741 120.441 31.8373 120.441 31.0471V29.7074ZM114.278 25.5623H113.167V31.5048L113.134 31.5154L110.098 25.5623H108.981V33.588H110.098V27.6295L110.131 27.6181L113.167 33.588H114.278V25.5623ZM102.393 28.732H102.425L103.234 31.2896H101.589L102.393 28.732ZM103.96 33.588H105.126L102.992 27.1665H101.843L99.6981 33.588H100.869L101.325 32.1381H103.498L103.96 33.588ZM97.6459 31.6001C97.6459 31.9749 97.5659 32.2739 97.4066 32.497C97.2464 32.721 97.044 32.8331 96.7985 32.8331C96.5125 32.8331 96.2863 32.7396 96.1191 32.5517C95.9528 32.3647 95.8692 32.0816 95.8692 31.7033H94.7965L94.7859 31.7359C94.7674 32.3718 94.9408 32.8551 95.3051 33.1858C95.6703 33.5166 96.1675 33.6815 96.7985 33.6815C97.3705 33.6815 97.8396 33.4945 98.2065 33.1197C98.5735 32.7449 98.7565 32.2413 98.7565 31.6089V27.1665H97.6459V31.6001ZM91.1611 29.7462H88.7085V30.5947H91.1611V29.7462ZM86.351 32.5746C86.1635 32.7466 85.8872 32.8331 85.5202 32.8331C85.1788 32.8331 84.8998 32.7431 84.6816 32.5649C84.4633 32.3859 84.3542 32.094 84.3542 31.6892H83.2868L83.2709 31.7218C83.2524 32.3806 83.4522 32.8719 83.8702 33.1955C84.2882 33.5201 84.8382 33.6815 85.5202 33.6815C86.1987 33.6815 86.7382 33.5227 87.1403 33.2061C87.5416 32.8886 87.7423 32.4529 87.7423 31.9C87.7423 31.3611 87.583 30.9492 87.2635 30.6652C86.945 30.3812 86.4495 30.1413 85.779 29.9455C85.28 29.793 84.9509 29.6395 84.7916 29.4852C84.6323 29.3299 84.5522 29.1165 84.5522 28.844C84.5522 28.5785 84.6341 28.3589 84.7969 28.1861C84.9597 28.0132 85.2105 27.9268 85.5475 27.9268C85.881 27.9268 86.1336 28.03 86.3043 28.2372C86.4742 28.4436 86.5595 28.717 86.5595 29.0574H87.627L87.6376 29.0248C87.6525 28.4145 87.4739 27.9373 87.1016 27.5934C86.7294 27.2503 86.211 27.0783 85.5475 27.0783C84.9025 27.0783 84.3903 27.2415 84.0101 27.5678C83.6308 27.895 83.4408 28.3245 83.4408 28.8563C83.4408 29.4031 83.6 29.815 83.9168 30.0902C84.2337 30.3654 84.7414 30.6 85.4375 30.7949C85.8925 30.9448 86.2049 31.1018 86.3756 31.2641C86.5463 31.4272 86.6308 31.6407 86.6308 31.9044C86.6308 32.1795 86.5375 32.4027 86.351 32.5746ZM80.8817 27.1665V31.369C80.8817 31.832 80.769 32.191 80.5438 32.4476C80.3185 32.7043 80.0113 32.8331 79.6224 32.8331C79.2369 32.8331 78.9307 32.7043 78.7036 32.4476C78.4766 32.191 78.3631 31.832 78.3631 31.369V27.1665H77.2516V31.3778C77.2516 32.1019 77.4699 32.6664 77.9064 33.0729C78.3428 33.4786 78.9149 33.6815 79.6224 33.6815C80.3299 33.6815 80.9019 33.4786 81.3384 33.0729C81.7749 32.6664 81.9931 32.1019 81.9931 31.3778V27.1665H80.8817ZM73.5142 28.015C73.8732 28.015 74.1716 28.1852 74.4101 28.5238C74.6485 28.8634 74.7682 29.2859 74.7682 29.7912V30.9519C74.7682 31.4687 74.6485 31.8955 74.4101 32.2333C74.1716 32.5702 73.8732 32.7396 73.5142 32.7396H72.5902V28.015H73.5142ZM73.5142 33.588C74.1883 33.588 74.7515 33.3428 75.2021 32.8525C75.6535 32.3612 75.8788 31.7306 75.8788 30.9589V29.8009C75.8788 29.0292 75.6535 28.3977 75.2021 27.9047C74.7515 27.4126 74.1883 27.1665 73.5142 27.1665H71.4787V33.588H73.5142ZM69.8551 27.1665H68.7445V33.588H69.8551V27.1665ZM64.0629 28.015H65.0916C65.4137 28.015 65.6557 28.1129 65.8176 28.3078C65.9786 28.5018 66.0596 28.7646 66.0596 29.0953C66.0596 29.4296 65.9795 29.6871 65.8202 29.8671C65.661 30.047 65.4181 30.1369 65.0916 30.1369H64.0629V28.015ZM65.1849 30.9863C65.4779 30.9863 65.7041 31.0797 65.8616 31.2676C66.0191 31.4546 66.0983 31.7174 66.0983 32.0561V32.6346C66.0983 32.8251 66.1027 33.013 66.1115 33.1964C66.1212 33.3807 66.1441 33.5113 66.1802 33.588H67.3303V33.4945C67.2819 33.4169 67.2503 33.2961 67.2335 33.1303C67.2168 32.9653 67.2089 32.8013 67.2089 32.6399V32.0499C67.2089 31.6645 67.1323 31.3399 66.9783 31.0771C66.8243 30.8143 66.5744 30.6299 66.2303 30.5232C66.5383 30.3804 66.7724 30.1837 66.9343 29.9332C67.0954 29.6836 67.1763 29.3882 67.1763 29.046C67.1763 28.4542 66.9915 27.9929 66.6228 27.6622C66.255 27.3314 65.7437 27.1665 65.0916 27.1665H62.9523V33.588H64.0629V30.9863H65.1849ZM59.0512 28.732H59.0837L59.8925 31.2896H58.2477L59.0512 28.732ZM60.6185 33.588H61.7845L59.6505 27.1665H58.5012L56.3557 33.588H57.5279L57.9837 32.1381H60.1565L60.6185 33.588ZM55.1545 25.5623H54.043V29.195H50.9744V25.5623H49.8577V33.588H50.9744V30.0434H54.043V33.588H55.1545V25.5623Z" fill="white"/>
<path d="M13.0964 48.9024C13.0964 49.0206 13.1289 49.1326 13.1853 49.2296C13.4009 49.01 13.6745 48.846 13.9808 48.7631C14.1093 48.3089 14.5264 47.9764 15.021 47.9764C15.0632 47.9764 15.1046 47.9781 15.145 47.9834C14.7332 48.1016 14.4005 48.4094 14.2465 48.8063C13.9905 48.8918 13.8057 49.1335 13.8057 49.4192C13.8057 49.5524 13.8461 49.6759 13.9148 49.7782C14.1374 49.5286 14.4296 49.3434 14.7614 49.2525C14.8564 48.7745 15.2533 48.4059 15.7443 48.3547C15.3158 48.5346 15.0148 48.9589 15.0148 49.4545C15.0148 49.6291 15.0526 49.7949 15.1204 49.9449C15.1961 49.6732 15.4451 49.4721 15.7408 49.4721C15.8156 49.4721 15.8869 49.4854 15.952 49.5083C16.0444 49.5418 16.1439 49.5603 16.2459 49.5603C16.722 49.5603 17.1084 49.1723 17.1084 48.6943C17.1084 48.5999 17.0934 48.5073 17.0652 48.4217C17.2914 48.4879 17.4568 48.6969 17.4568 48.9456C17.4568 49.0594 17.4225 49.1643 17.3636 49.2517C17.4269 49.264 17.492 49.2702 17.5589 49.2702C18.1195 49.2702 18.5824 48.8468 18.6466 48.3027C18.9282 48.1492 19.1755 47.9437 19.3885 47.6862L19.5381 48.4173C19.5486 48.4667 19.5451 48.5179 19.5319 48.5646C19.5187 48.6114 19.4941 48.6546 19.458 48.6916L20.0766 48.0557C20.1127 48.0187 20.1374 47.9746 20.1497 47.927C20.1638 47.8802 20.1664 47.8308 20.1558 47.7788L19.9737 46.8871C19.9631 46.8378 19.9658 46.7857 19.9798 46.7399C19.993 46.694 20.0177 46.6499 20.0538 46.6129L20.5404 46.1146C20.5043 46.1516 20.4797 46.1957 20.4665 46.2424C20.4533 46.2901 20.4506 46.3395 20.4612 46.3897L20.6434 47.284C20.6539 47.3343 20.6513 47.3855 20.6381 47.4322C20.6249 47.4772 20.6011 47.5204 20.5659 47.5574L21.1177 46.9833C21.1529 46.9462 21.1775 46.9013 21.1907 46.8545C21.2048 46.8095 21.2075 46.7584 21.196 46.7072L21.0147 45.8173C21.0042 45.7671 21.0068 45.715 21.0209 45.6701C21.0341 45.6233 21.0587 45.5783 21.0948 45.5413L21.5815 45.0448C21.5454 45.0818 21.5207 45.125 21.5075 45.1718C21.4943 45.2185 21.4917 45.2688 21.5023 45.319L21.6853 46.2133C21.6959 46.2627 21.6923 46.3139 21.6791 46.3606C21.6659 46.4065 21.6422 46.4488 21.607 46.4859L22.1588 45.9117C22.1948 45.8747 22.2186 45.8297 22.2318 45.7838C22.2459 45.738 22.2485 45.6868 22.238 45.6365L22.1491 45.2C22.0558 44.7079 22.5636 44.1399 22.9666 44.0834C23.015 43.9891 23.0414 43.8876 23.0414 43.7836C23.0414 43.2835 22.4474 42.8778 21.7135 42.8778C21.3553 42.8778 21.0297 42.9748 20.7903 43.1327C20.8863 43.4176 20.9065 43.706 19.9658 43.84C19.2195 43.9458 18.563 44.0922 18.0641 44.5156C17.2949 45.1691 17.3574 46.0431 16.92 46.3739C17.1145 46.4215 17.3618 46.4215 17.6267 46.365C17.7939 46.3289 17.9488 46.2724 18.0852 46.2036C18.0033 46.3624 17.8159 46.5114 17.5695 46.6173C17.4885 46.9251 17.2148 47.2196 16.8452 47.3581C16.612 47.4437 16.3806 47.4525 16.1887 47.3978L15.2885 47.1367C15.1776 47.105 15.0623 47.0873 14.9418 47.0873C14.2782 47.0873 13.7309 47.5998 13.6499 48.2621C13.3366 48.3071 13.0964 48.5761 13.0964 48.9024ZM21.9968 13.2204C22.5152 12.7116 23.1145 12.2873 23.7736 11.9681C23.7542 11.8905 23.7437 11.8111 23.7437 11.7299V11.7247C20.9927 12.178 18.5173 13.5926 16.282 13.5812C15.6554 13.5785 15.1644 13.3377 15.0852 12.94C15.0694 12.8615 15.0711 12.7812 15.0878 12.7001C15.1213 12.5449 15.2586 12.4276 15.424 12.4276C15.6141 12.4276 15.7672 12.5819 15.7672 12.7724C15.7672 12.8633 15.732 12.9462 15.6748 13.0079C15.7391 13.0141 15.8051 13.0176 15.8737 13.0176C16.0506 13.0176 16.2187 12.9964 16.3665 12.9559C16.6085 12.8915 16.7863 12.6701 16.7863 12.4064C16.7863 12.0924 16.5319 11.8384 16.2187 11.8384C16.2019 11.8384 16.1843 11.8393 16.1676 11.8402C16.2459 11.8067 16.3339 11.789 16.4255 11.789C16.7889 11.789 17.0846 12.0845 17.0846 12.4496C17.0846 12.4681 17.0837 12.4875 17.082 12.5052C18.064 12.484 19.1711 11.5853 19.4131 11.2431C19.1051 11.3137 18.7716 11.3525 18.4231 11.3525C18.028 11.3525 17.6504 11.304 17.309 11.2131C16.8259 11.0861 16.3507 11.0147 15.9855 11.0147C14.7798 11.0147 13.8039 11.8014 13.8039 12.7733C13.8039 13.5759 14.4657 14.277 15.3826 14.4649C17.4692 14.8926 19.9235 13.65 21.9968 13.2204ZM10.2328 16.0806C10.2882 15.786 10.3111 15.5012 10.3006 15.2251L10.0374 15.5347C9.98552 15.4112 9.9512 15.3354 9.916 15.2754C9.88696 15.2242 9.86232 15.1898 9.828 15.1837C9.8104 15.1934 9.784 15.2084 9.75496 15.2137C9.72152 15.2216 9.67576 15.2189 9.64672 15.2189C9.62032 15.2189 9.57455 15.2216 9.54023 15.2137C9.51207 15.2084 9.48567 15.1934 9.46807 15.1837C9.43287 15.1898 9.40911 15.2242 9.38007 15.2754C9.34487 15.3354 9.31055 15.4112 9.25863 15.5347L8.99462 15.2251C8.98494 15.5012 9.00694 15.786 9.06238 16.0806C9.25687 16.0383 9.45751 16.0224 9.64672 16.0224C9.83768 16.0224 10.0383 16.0383 10.2328 16.0806ZM10.3507 16.8735C10.3798 16.5392 10.0014 16.421 9.64672 16.421C9.29383 16.421 8.91542 16.5392 8.94446 16.8735C8.98054 17.2809 9.36071 17.0869 9.64672 17.0887C9.93448 17.0869 10.3146 17.2809 10.3507 16.8735ZM11.361 14.4675C11.2915 14.4852 11.2536 14.5257 11.2457 14.5989C11.2043 14.9923 11.0451 15.151 10.7907 15.241C10.7872 15.637 10.7327 15.9377 10.6253 16.3099C10.9271 16.9414 10.6957 17.3833 10.451 17.4794C10.2178 17.5685 9.91688 17.4476 9.65024 17.4476C9.38359 17.4476 9.07823 17.5685 8.84502 17.4794C8.5995 17.3833 8.36893 16.9414 8.6699 16.3099C8.56342 15.9377 8.50798 15.637 8.50534 15.241C8.25101 15.151 8.09085 14.9923 8.04949 14.5989C8.04157 14.5257 8.00373 14.4852 7.93509 14.4675C6.93187 14.1906 6.83683 12.9417 7.3446 12.5881C7.29884 13.1481 7.25132 13.9366 8.39182 14.0415C8.37333 14.6977 8.65582 14.8741 8.94798 14.8741C9.18647 14.875 9.32287 14.7983 9.38271 14.7665C9.59479 14.6536 9.44871 14.4799 9.39415 14.4296C9.24807 14.292 9.17415 14.0997 9.20935 13.9048C9.21551 13.8704 9.22871 13.8519 9.26127 13.8519H9.64672H10.0339C10.0665 13.8519 10.0806 13.8704 10.0858 13.9048C10.121 14.0997 10.0471 14.292 9.90192 14.4296C9.84736 14.4799 9.70128 14.6536 9.91336 14.7665C9.97232 14.7983 10.1096 14.875 10.3481 14.8741C10.6394 14.8741 10.9227 14.6977 10.9043 14.0415C12.0448 13.9366 11.9964 13.1481 11.9515 12.5881C12.4592 12.9417 12.3633 14.1906 11.361 14.4675ZM11.6699 12.2873C11.6699 12.574 11.4604 12.8941 11.2219 12.8941H11.0028C11.0583 12.9603 11.0917 13.0449 11.0917 13.1375C11.0917 13.3492 10.9201 13.5212 10.7089 13.5212C10.4968 13.5212 10.3252 13.3492 10.3252 13.1375C10.3252 13.0449 10.3586 12.9603 10.4132 12.8941H10.1844C10.1061 12.8941 10.0454 12.9268 9.99696 13.0176C9.98112 12.8941 9.96528 12.7662 9.99344 12.6816C10.0322 12.5652 10.1219 12.4964 10.2117 12.4964H11.2167C11.4023 12.4964 11.5405 12.4329 11.6699 12.2873ZM11.537 11.8102H11.1859C11.0116 11.8102 10.8911 11.7388 10.789 11.6206L10.3886 11.0967C10.3226 11.0147 10.2698 10.9556 10.1844 10.9177H10.5804C10.6992 10.9177 10.8048 10.9688 10.8875 11.0747L11.3047 11.6074C11.3979 11.7194 11.427 11.7952 11.537 11.8102ZM9.70568 10.9459L10.2178 11.6664C10.2988 11.7855 10.3754 11.8508 10.4854 11.8966H10.0163C9.83592 11.8966 9.72768 11.8128 9.64847 11.6823L9.24543 11.0632C9.09143 10.8321 9.0307 10.7739 8.85382 10.7104H9.28943C9.46103 10.7104 9.62119 10.8224 9.70568 10.9459ZM8.54494 11.0747L8.96206 11.6074C9.05535 11.7194 9.08439 11.7952 9.19439 11.8102H8.84414C8.66902 11.8102 8.54846 11.7388 8.44638 11.6206L8.04597 11.0967C7.97997 11.0147 7.92805 10.9556 7.84181 10.9177H8.23781C8.35662 10.9177 8.46222 10.9688 8.54494 11.0747ZM8.29237 12.8941H8.07325C7.83565 12.8941 7.62532 12.574 7.62532 12.2873C7.75556 12.4329 7.89285 12.4964 8.07941 12.4964H9.08439C9.17415 12.4964 9.26391 12.5652 9.30263 12.6816C9.33079 12.7662 9.31495 12.8941 9.29911 13.0176C9.25071 12.9268 9.18999 12.8941 9.11167 12.8941H8.88286C8.93742 12.9603 8.96998 13.0449 8.96998 13.1375C8.96998 13.3492 8.79838 13.5212 8.58718 13.5212C8.37597 13.5212 8.20437 13.3492 8.20437 13.1375C8.20437 13.0449 8.23693 12.9603 8.29237 12.8941ZM7.05331 17.6928L7.17476 17.4538C7.19852 17.4088 7.2082 17.3586 7.20732 17.31C7.20644 17.2633 7.19412 17.213 7.16948 17.1689L7.503 17.7704C7.52764 17.8163 7.53996 17.8648 7.54084 17.9124C7.5426 17.9618 7.53204 18.0112 7.50828 18.0571L7.47836 18.1162C7.27332 18.5157 7.08235 19.2618 7.29444 19.6948C6.79987 19.5105 6.63707 19.0766 6.68987 18.7159C5.75881 17.8322 5.52473 16.9361 6.18914 16.1838L6.52971 15.7843C6.56491 15.7455 6.58691 15.6996 6.59659 15.6529C6.60803 15.607 6.60803 15.5558 6.59483 15.5065L6.77259 16.1706C6.78491 16.2208 6.78579 16.272 6.77523 16.3187C6.76467 16.3655 6.74267 16.4113 6.70923 16.451L6.60539 16.5719C6.25778 16.9776 6.35106 17.527 6.89491 18.02C6.95211 17.8816 6.98907 17.811 7.05331 17.6928ZM29.8774 20.1861C29.9134 20.097 29.9337 19.9991 29.9337 19.8968C29.9337 19.4796 29.5966 19.141 29.1804 19.141H28.4183C28.3664 19.141 28.318 19.1277 28.2749 19.1048C28.2326 19.0828 28.1939 19.0493 28.1649 19.0069L27.7829 18.4425C27.812 18.4848 27.8498 18.5174 27.8929 18.5395C27.9352 18.5624 27.9844 18.5756 28.0364 18.5748L29.0405 18.5756C29.0924 18.5756 29.1417 18.5889 29.1839 18.6109C29.2261 18.633 29.2649 18.6665 29.2939 18.7088L28.8328 18.0332C28.8037 17.9891 28.765 17.9574 28.7219 17.9345C28.6797 17.9115 28.6304 17.8983 28.5793 17.8983L27.5832 17.8992C27.5321 17.8992 27.4828 17.8877 27.4406 17.8639C27.3975 17.841 27.3588 17.8084 27.3297 17.766L26.8968 17.1266C26.9258 17.1698 26.9645 17.2025 27.0068 17.2254C27.0499 17.2474 27.0983 17.2615 27.1502 17.2615L28.1499 17.2607C28.2018 17.2607 28.2511 17.2721 28.2933 17.2959C28.3365 17.3171 28.3743 17.3506 28.4033 17.393L27.9422 16.7156C27.9132 16.6742 27.8744 16.6415 27.8313 16.6177C27.7891 16.5957 27.7398 16.5824 27.6888 16.5824H26.8941C26.8422 16.5824 26.7938 16.5692 26.7507 16.5472C26.7084 16.5251 26.6697 16.4925 26.6407 16.4484L26.1065 15.6634C27.1863 15.5347 28.0575 14.9482 28.2309 14.1403C28.4553 13.0917 27.416 12.0748 25.9111 11.8534C25.6577 11.8164 25.4641 11.5985 25.4641 11.3348C25.4641 11.1108 25.6049 10.9186 25.8029 10.8445C25.6427 10.7748 25.4632 10.736 25.2731 10.736C24.607 10.736 24.0675 11.214 24.0675 11.804C24.0675 11.9099 24.086 12.0131 24.1185 12.1101C23.3723 12.4329 22.6929 13.0052 22.1728 13.6244C22.729 13.4762 23.3133 13.396 23.9161 13.396C23.9135 13.3686 23.9117 13.3395 23.9117 13.3104C23.9117 12.8588 24.2761 12.492 24.7284 12.492H24.7398C24.4318 12.6287 24.2822 12.925 24.2822 13.1199C24.2822 13.3536 24.4714 13.5432 24.7038 13.5432C24.7944 13.5432 24.8789 13.515 24.9475 13.4656C24.9317 13.4127 24.9229 13.3563 24.9229 13.2981C24.9229 12.9735 25.1842 12.7116 25.5081 12.7116C25.5362 12.7116 25.5653 12.7133 25.5926 12.7177C25.3699 12.8218 25.215 13.0493 25.215 13.3122C25.215 13.6746 25.5081 13.9683 25.8698 13.9683C25.9085 13.9683 25.9455 13.9657 25.9824 13.9595C25.9719 13.9216 25.9666 13.8819 25.9666 13.8396C25.9666 13.5794 26.1769 13.3704 26.4356 13.3704C26.6952 13.3704 26.9056 13.5794 26.9056 13.8396C26.9056 14.4049 26.279 14.4569 25.8223 14.3264C24.5216 13.9498 23.3037 13.7814 22.1253 13.9472C20.6134 14.1597 18.1371 15.1837 15.5085 15.099C14.9206 15.0796 14.2791 14.9826 13.6332 14.8053C13.7124 14.8917 13.7634 14.9517 13.7969 15.0029C14.0529 15.4024 14.1409 15.8213 13.9148 16.3461C13.9209 15.7587 13.4369 15.2754 13.0312 14.9782C12.8676 14.8591 12.8016 14.7453 12.8288 14.5928L12.9485 13.9163C12.9397 13.9657 12.9441 14.016 12.9591 14.0627C12.974 14.1077 12.9996 14.1509 13.0365 14.1871L13.2891 14.4358C13.385 13.7496 13.2301 13.1111 12.8227 12.5193C13.0031 12.0466 13.0277 11.5245 12.9072 11.035C12.8596 11.4054 12.6784 11.565 12.5059 11.6717C12.1864 11.8728 12.1336 12.2106 12.2991 12.4373C12.0289 12.3006 11.6567 11.7979 11.8723 11.5042C12.1046 11.1875 12.7408 11.3366 12.8192 10.7942C12.4064 10.6619 11.9814 10.7554 11.852 10.7898C11.6074 10.5084 11.2827 10.3691 10.8787 10.3717C10.5593 10.0816 10.1492 9.96075 9.64672 10.011C9.14687 9.96075 8.73678 10.0816 8.41733 10.3717C8.01341 10.3691 7.68868 10.5084 7.44404 10.7898C7.3138 10.7554 6.88963 10.6619 6.47602 10.7942C6.55435 11.3366 7.18972 11.1875 7.42292 11.5042C7.63852 11.7979 7.26628 12.3006 6.99611 12.4373C7.16243 12.2106 7.10875 11.8728 6.78843 11.6717C6.61771 11.565 6.43554 11.4054 6.38802 11.035C6.26746 11.5245 6.29298 12.0466 6.4725 12.5193C6.06506 13.1111 5.91017 13.7496 6.0061 14.4358L6.25954 14.1871C6.2965 14.1509 6.32202 14.1077 6.33698 14.0627C6.35194 14.016 6.35546 13.9657 6.34578 13.9163L6.46634 14.5928C6.49274 14.7453 6.4285 14.8591 6.26482 14.9782C5.85825 15.2754 5.37425 15.7587 5.38041 16.3461C5.15512 15.8213 5.24576 15.3856 5.49921 15.0029C4.72832 14.5857 4.14135 13.9004 4.0331 13.7761C3.7999 13.5035 3.8307 13.1569 4.04191 12.8544C4.44935 12.2697 4.54615 11.647 4.03486 11.2211C4.03838 11.1902 4.04015 11.1593 4.04015 11.1276C4.04015 10.7395 3.76558 10.4167 3.40037 10.3444C3.46814 10.4494 3.50774 10.5764 3.50774 10.7104C3.50774 10.8656 3.4567 11.0067 3.36957 11.1223C3.44174 11.2158 3.48486 11.3348 3.48486 11.4636C3.48486 11.6373 3.40741 11.7917 3.28509 11.8949C3.29741 11.8349 3.30269 11.7732 3.30269 11.7105C3.30269 11.3119 3.05717 10.9785 2.72364 10.8859C2.66996 10.5966 2.41652 10.377 2.11203 10.377C1.93515 10.377 1.77675 10.4502 1.66323 10.5684C1.89907 10.5869 2.08915 10.7721 2.11467 11.0067C2.00203 11.0923 1.91139 11.2087 1.85243 11.3463H1.86739C2.27484 11.3463 2.60484 11.677 2.60484 12.0854C2.60484 12.1304 2.60044 12.1762 2.59252 12.2203C2.56172 12.0527 2.48604 11.8984 2.36372 11.7785C2.13491 11.5544 1.80227 11.5077 1.49778 11.6241C1.38338 11.4804 1.20738 11.3877 1.01026 11.3877C0.786733 11.3877 0.591369 11.505 0.481368 11.6814C0.706651 11.6911 0.904655 11.8049 1.02874 11.9769C0.708412 12.3879 0.704892 12.9559 1.03226 13.276C1.25402 13.493 1.57171 13.5432 1.86827 13.4418C1.88763 13.4348 1.90875 13.4312 1.93075 13.4312C2.03987 13.4312 2.12787 13.5194 2.12787 13.6288C2.12787 13.7373 2.03987 13.8246 1.93075 13.8246C1.88323 13.8246 1.83923 13.8087 1.80579 13.7796C1.73099 13.717 1.63419 13.6799 1.52946 13.6799C1.29186 13.6799 1.09826 13.8731 1.09826 14.1121C1.09826 14.1306 1.09914 14.1483 1.10178 14.1659C1.0613 14.1791 1.01818 14.1853 0.973296 14.1853C0.857134 14.1853 0.751532 14.1386 0.674091 14.0627C0.66177 14.1086 0.65561 14.158 0.65561 14.21C0.65561 14.5134 0.889695 14.7639 1.18802 14.7859C1.32178 15.1193 1.64827 15.3548 2.02843 15.3548C2.2238 15.3548 2.4042 15.2921 2.55204 15.1881C2.61716 15.1431 2.6946 15.1158 2.77908 15.1158C2.99821 15.1158 3.17597 15.2939 3.17597 15.5135C3.17597 15.7031 3.04397 15.861 2.86709 15.9025L2.5582 15.9695C2.50804 15.9809 2.457 15.9792 2.41036 15.9651C2.36372 15.9527 2.31972 15.9289 2.28276 15.8936L2.98941 16.5666C3.02725 16.6018 3.07125 16.6257 3.11789 16.6389C3.16453 16.6512 3.21469 16.6539 3.26485 16.6424L3.8439 16.5136C3.89406 16.5022 3.9451 16.5048 3.99086 16.5181C4.03662 16.5313 4.08239 16.5551 4.11935 16.5904L4.60423 17.0525C4.56639 17.0172 4.52239 16.9925 4.47487 16.9802C4.42911 16.9678 4.37895 16.9652 4.32879 16.9758L3.75062 17.1037C3.70046 17.116 3.64942 17.1134 3.60366 17.0993C3.55702 17.0869 3.51214 17.0631 3.47518 17.0278L4.12287 17.6434C4.15983 17.6787 4.20471 17.7034 4.25047 17.7157C4.29711 17.729 4.34815 17.7307 4.39831 17.7193L4.97736 17.5932C5.0284 17.5817 5.07856 17.5835 5.1252 17.5976C5.17184 17.609 5.21584 17.6346 5.25368 17.6699L5.73857 18.1311C5.70073 18.0959 5.65673 18.0729 5.61009 18.0588C5.56345 18.0456 5.51329 18.0438 5.46225 18.0544L4.88496 18.1832C4.83392 18.1938 4.78376 18.1911 4.73712 18.1788C4.69048 18.1655 4.64647 18.1426 4.60863 18.1064L5.25632 18.7212C5.29417 18.7573 5.33817 18.7811 5.38481 18.7935C5.43145 18.8076 5.48161 18.8102 5.53265 18.7979L6.23226 18.6444C5.55289 19.0299 4.82952 19.4655 4.06303 19.9506C3.60982 20.2381 3.11437 20.291 2.545 20.0723C2.23876 19.955 1.90699 19.9356 1.69755 19.9718C1.42474 20.0194 1.1933 20.1843 1.05866 20.4145C1.16426 20.3722 1.27954 20.3492 1.40098 20.3492C1.65531 20.3492 1.88499 20.4516 2.05219 20.6174C1.78731 20.5062 1.45818 20.4957 1.13874 20.6121C0.56673 20.8202 0.233204 21.3608 0.363446 21.845C0.149602 21.9279 0 22.1343 0 22.376C0 22.5356 0.0651213 22.6802 0.170723 22.7834C0.227044 22.5294 0.448808 22.338 0.717212 22.3283C0.828974 22.4024 0.959216 22.4545 1.09914 22.4836C1.14138 22.4104 1.19506 22.3442 1.25666 22.2878C1.24962 22.2419 1.24698 22.1952 1.24698 22.1484C1.24698 21.6245 1.66939 21.2003 2.19124 21.2003C2.23436 21.2003 2.2766 21.203 2.31884 21.2092C1.90435 21.3097 1.59547 21.6828 1.59547 22.1299C1.59547 22.1872 1.60075 22.2419 1.61043 22.2966C1.3869 22.3821 1.22938 22.5982 1.22938 22.8531C1.22938 22.9986 1.2813 23.1309 1.36842 23.235C1.52858 22.9219 1.84099 22.6996 2.20796 22.6644C2.34612 22.7049 2.4922 22.7261 2.64268 22.7261C2.73772 22.7261 2.83013 22.7173 2.91989 22.7023C2.83893 22.5832 2.7914 22.4404 2.7914 22.2851C2.7914 21.8786 3.11965 21.5496 3.52622 21.5496C3.56142 21.5496 3.59486 21.5513 3.63006 21.5566C3.24197 21.7216 3.00437 22.0594 3.08621 22.368C3.14429 22.585 3.34933 22.7367 3.61422 22.7861C3.6107 22.9492 3.56582 23.1036 3.48926 23.2359C3.82982 23.2121 4.12111 23.0057 4.26631 22.7138C4.6676 22.5532 4.91488 22.2075 4.83216 21.8953C4.80224 21.7833 4.73272 21.6881 4.63856 21.6166C4.63768 21.606 4.63679 21.5954 4.63679 21.584C4.63679 21.3688 4.81192 21.1942 5.02576 21.1942C5.24224 21.1942 5.41649 21.3688 5.41649 21.584C5.41649 21.6863 5.37777 21.7798 5.31353 21.8486H6.1293C6.18034 21.8486 6.22962 21.8353 6.27186 21.8124C6.31498 21.7904 6.35282 21.7568 6.38186 21.7136L6.90547 20.9366C6.92483 20.9066 6.95123 20.8846 6.98027 20.8687C7.00931 20.8537 7.04187 20.844 7.07795 20.844H7.7186C7.6834 20.844 7.64996 20.8537 7.62092 20.8687C7.59188 20.8846 7.56548 20.9066 7.54612 20.9366L7.02075 21.7136C6.99171 21.7568 6.95387 21.7904 6.91075 21.8124C6.86851 21.8353 6.82011 21.8486 6.76819 21.8486H7.74325C7.79517 21.8486 7.84357 21.8353 7.88493 21.8124C7.92893 21.7904 7.96765 21.7568 7.99493 21.7136L8.58278 20.8449C8.17797 20.6227 8.01165 20.2337 8.01165 19.6993C8.01165 19.3668 8.19821 18.9884 8.22637 18.7432L8.23781 18.6462C8.24397 18.595 8.23693 18.5457 8.21933 18.4998C8.20525 18.4628 8.17709 18.4098 8.14629 18.3737L8.6479 18.8887C8.6875 18.9223 8.71566 18.9646 8.73238 19.0096C8.75086 19.0545 8.7579 19.1048 8.75174 19.156L8.73678 19.2742C8.71302 19.4788 8.45606 19.9197 8.93302 20.3237C8.95678 20.344 9.01575 20.3872 9.07207 20.4225L9.41087 20.635V19.3817H9.8852V20.7761C9.88608 20.829 9.90104 20.8767 9.9248 20.919C9.94856 20.9604 9.982 20.9984 10.026 21.0257L10.4889 21.3212C10.5338 21.3494 10.5822 21.3644 10.6297 21.3679C10.6781 21.3714 10.7283 21.3644 10.7749 21.345L11.6294 20.9728C11.5819 20.9931 11.5317 21.0001 11.4842 20.9957C11.4358 20.9922 11.3874 20.9781 11.3443 20.9499L10.363 20.3237C10.84 19.9197 10.5822 19.4788 10.5584 19.2742L10.5443 19.156C10.5382 19.1048 10.5452 19.0545 10.5619 19.0096C10.5804 18.9646 10.6086 18.9223 10.6473 18.8887L11.1489 18.3737C11.1181 18.4098 11.0908 18.4628 11.0759 18.4998C11.0591 18.5457 11.0521 18.595 11.0583 18.6462L11.0688 18.7432C11.1093 19.0916 11.4613 19.7239 11.1683 20.075L12.065 20.6465C12.109 20.6729 12.1574 20.6888 12.2049 20.6923C12.2533 20.6959 12.3035 20.6888 12.351 20.6676L13.2442 20.2796C13.1967 20.299 13.1474 20.306 13.0999 20.3025C13.0515 20.299 13.0031 20.284 12.9591 20.2558L11.9893 19.6375C12.2005 19.2045 12.0228 18.5157 11.8177 18.1162L11.7869 18.0571C11.764 18.0112 11.7535 17.9618 11.7552 17.9124C11.7552 17.8648 11.7675 17.8163 11.7931 17.7704L12.1257 17.1689C12.1011 17.213 12.0888 17.2633 12.0888 17.31C12.087 17.3586 12.0976 17.4088 12.1204 17.4538L12.2428 17.6928C12.307 17.811 12.3431 17.8816 12.3994 18.02C12.945 17.527 13.0665 17.0516 12.7188 16.6468L12.615 16.5251C12.5816 16.4854 12.5596 16.4396 12.549 16.3928C12.5376 16.3461 12.5376 16.2949 12.5516 16.2446L12.7294 15.5805C12.7162 15.6299 12.7162 15.6811 12.7259 15.7269C12.7373 15.7737 12.7593 15.8196 12.7936 15.8592L13.1351 16.2579C13.7986 17.0102 13.3973 17.9777 12.6053 18.7159C12.6493 18.8579 12.6872 19.1233 12.6555 19.2671L13.7071 19.9356C13.7511 19.9638 13.7995 19.9797 13.8479 19.9832C13.8954 19.9868 13.9456 19.9797 13.9931 19.9585L14.7534 19.6269C14.7103 19.6455 14.6619 19.656 14.6126 19.656C14.4164 19.656 14.258 19.4973 14.258 19.3015C14.258 19.1427 14.361 19.006 14.5053 18.9628C17.4084 18.0782 20.081 15.794 21.8358 15.7993C22.6885 15.8019 23.3802 16.3187 23.3802 16.9599C23.3802 17.0631 23.3617 17.1636 23.3283 17.2607C22.9543 18.3128 23.499 19.3191 24.937 19.7063C25.1666 19.768 25.3356 19.9788 25.3356 20.2267C25.3356 20.276 25.3286 20.3228 25.3171 20.3669C25.3497 20.3704 25.3831 20.3713 25.4174 20.3713C25.8135 20.3713 26.1637 20.1746 26.3758 19.873C26.6222 19.8712 26.8924 19.8554 27.1687 19.8263C27.2021 19.8933 27.2285 19.97 27.2444 20.0538C27.3033 20.3563 27.1986 20.6297 27.0129 20.6897C26.6829 20.7973 26.2781 20.6685 25.9657 20.672C25.3743 20.6782 24.8965 21.1598 24.8965 21.7533C24.8965 21.7992 24.8991 21.845 24.9053 21.8918C24.7196 22.0073 24.5964 22.2128 24.5964 22.4483C24.5964 22.5647 24.6272 22.675 24.68 22.7711C24.8622 22.5585 25.0998 22.3927 25.3699 22.2984C25.3928 21.7771 25.8205 21.3626 26.345 21.3626C26.4251 21.3626 26.5043 21.3723 26.5782 21.3908C26.0467 21.4579 25.6348 21.913 25.6348 22.4642C25.6348 22.5039 25.6375 22.5435 25.6419 22.5832C25.5759 22.6644 25.5362 22.7658 25.5362 22.8778C25.5362 23.0189 25.5996 23.1468 25.6991 23.2315C25.7994 23.011 26.0414 22.8046 26.3547 22.6988C26.565 22.6282 26.7718 22.6132 26.9443 22.6485C26.9161 22.5656 26.9029 22.4783 26.9029 22.3866C26.9029 21.9156 27.2822 21.5346 27.7521 21.5346C27.7952 21.5346 27.8384 21.5381 27.8797 21.5443C27.5524 21.5884 27.3007 21.8697 27.3007 22.2093C27.3007 22.4351 27.4116 22.6344 27.5814 22.757C27.5814 22.7684 27.5805 22.7808 27.5805 22.7931C27.5805 22.9783 27.665 23.1433 27.797 23.2517C27.8568 22.9422 28.1261 22.7094 28.4526 22.7094C28.7307 22.7094 28.9604 22.6741 29.132 22.6176C29.4224 22.5224 29.6345 22.2534 29.6345 21.9324C29.6345 21.7092 29.5333 21.509 29.3731 21.3785C29.4523 21.016 29.4382 20.4233 29.3159 19.9286C29.3406 19.925 29.3661 19.9233 29.3925 19.9233C29.5949 19.9233 29.7735 20.0282 29.8774 20.1861ZM15.0852 26.3148C15.0694 26.2363 15.0711 26.156 15.0878 26.0749C15.1213 25.9197 15.2586 25.8024 15.424 25.8024C15.6141 25.8024 15.7672 25.9567 15.7672 26.1472C15.7672 26.238 15.732 26.3209 15.6748 26.3827C15.7391 26.3888 15.8051 26.3924 15.8737 26.3924C16.0506 26.3924 16.2187 26.3703 16.3665 26.3306C16.6085 26.2663 16.7863 26.0449 16.7863 25.7812C16.7863 25.4672 16.5319 25.2132 16.2187 25.2132C16.2019 25.2132 16.1843 25.2141 16.1676 25.215C16.2459 25.1815 16.3339 25.1638 16.4255 25.1638C16.7889 25.1638 17.0846 25.4593 17.0846 25.8244C17.0846 25.842 17.0837 25.8623 17.082 25.88C18.064 25.8588 19.1711 24.9601 19.4131 24.6179C19.1051 24.6893 18.7716 24.7273 18.4231 24.7273C18.028 24.7273 17.6504 24.6787 17.309 24.5879C16.8259 24.46 16.3507 24.3895 15.9855 24.3895C14.7798 24.3895 13.8039 25.1762 13.8039 26.1481C13.8039 26.9507 14.4657 27.6518 15.3826 27.8397C17.4692 28.2674 19.9235 27.0247 21.9968 26.5952C22.5152 26.0863 23.1145 25.6621 23.7736 25.342C23.7542 25.2652 23.7437 25.1859 23.7437 25.1047V25.0994C20.9927 25.5528 18.5173 26.9683 16.282 26.9559C15.6554 26.9533 15.1644 26.7125 15.0852 26.3148ZM15.021 21.2259C15.0632 21.2259 15.1046 21.2294 15.145 21.2338C14.7332 21.352 14.4005 21.6598 14.2465 22.0567C13.9905 22.1414 13.8057 22.3839 13.8057 22.6688C13.8057 22.802 13.8461 22.9263 13.9148 23.0286C14.1374 22.779 14.4296 22.5938 14.7614 22.503C14.8564 22.025 15.2533 21.6563 15.7443 21.6043C15.3158 21.7851 15.0148 22.2093 15.0148 22.7049C15.0148 22.8796 15.0526 23.0454 15.1204 23.1953C15.1961 22.9237 15.4451 22.7226 15.7408 22.7226C15.8156 22.7226 15.8869 22.7358 15.952 22.7587C16.0444 22.7923 16.1439 22.8117 16.2459 22.8117C16.722 22.8117 17.1084 22.4227 17.1084 21.9447C17.1084 21.8494 17.0934 21.7577 17.0652 21.6731C17.2914 21.7374 17.4568 21.9473 17.4568 22.1961C17.4568 22.3098 17.4225 22.4148 17.3636 22.503C17.4269 22.5153 17.492 22.5206 17.5589 22.5206C18.1195 22.5206 18.5824 22.0973 18.6466 21.5522C18.9282 21.3997 19.1755 21.1942 19.3885 20.9366L19.5381 21.6669C19.5486 21.718 19.5451 21.7683 19.5319 21.8159C19.5187 21.8609 19.4941 21.905 19.458 21.9429L20.0766 21.3062C20.1127 21.2691 20.1374 21.2241 20.1497 21.1774C20.1638 21.1307 20.1664 21.0813 20.1558 21.0301L19.9737 20.1376C19.9631 20.0873 19.9658 20.0362 19.9798 19.9903C19.993 19.9444 20.0177 19.8995 20.0538 19.8624L20.5404 19.365C20.5043 19.4029 20.4797 19.447 20.4665 19.4929C20.4533 19.5405 20.4506 19.5899 20.4612 19.641L20.6434 20.5353C20.6539 20.5847 20.6513 20.635 20.6381 20.6826C20.6249 20.7276 20.6011 20.7708 20.5659 20.8079L21.1177 20.2328C21.1529 20.1958 21.1775 20.1517 21.1907 20.1049C21.2048 20.06 21.2075 20.0079 21.196 19.9577L21.0147 19.0678C21.0042 19.0166 21.0068 18.9655 21.0209 18.9205C21.0341 18.8729 21.0587 18.8288 21.0948 18.7917L21.5815 18.2952C21.5454 18.3322 21.5207 18.3754 21.5075 18.4222C21.4943 18.4689 21.4917 18.5192 21.5023 18.5695L21.6853 19.4638C21.6959 19.5132 21.6923 19.5643 21.6791 19.6111C21.6659 19.656 21.6422 19.6993 21.607 19.7363L22.1588 19.1621C22.1948 19.1251 22.2186 19.081 22.2318 19.0343C22.2459 18.9884 22.2485 18.9372 22.238 18.8861L22.1491 18.4504C22.0558 17.9583 22.5636 17.3903 22.9666 17.3339C23.015 17.2395 23.0414 17.1381 23.0414 17.0331C23.0414 16.533 22.4474 16.1282 21.7135 16.1282C21.3553 16.1282 21.0297 16.2244 20.7903 16.3831C20.8863 16.6671 20.9065 16.9564 19.9658 17.0904C19.2195 17.1972 18.563 17.3418 18.0641 17.766C17.2949 18.4195 17.3574 19.2936 16.92 19.6243C17.1145 19.6719 17.3618 19.6719 17.6267 19.6155C17.7939 19.5793 17.9488 19.5229 18.0852 19.455C18.0033 19.6128 17.8159 19.7619 17.5695 19.8668C17.4885 20.1755 17.2148 20.4701 16.8452 20.6085C16.612 20.6941 16.3806 20.7029 16.1887 20.6482L15.2885 20.3872C15.1776 20.3545 15.0623 20.3378 14.9418 20.3378C14.2782 20.3378 13.7309 20.8502 13.6499 21.5125C13.3366 21.5566 13.0964 21.8265 13.0964 22.1528C13.0964 22.2719 13.1289 22.3839 13.1853 22.48C13.4009 22.2604 13.6745 22.0964 13.9808 22.0135C14.1093 21.5602 14.5264 21.2259 15.021 21.2259ZM10.2328 29.4554C10.2882 29.1608 10.3111 28.8759 10.3006 28.5999L10.0374 28.9095C9.98552 28.786 9.9512 28.7101 9.916 28.6493C9.88696 28.599 9.86232 28.5646 9.828 28.5584C9.8104 28.5682 9.784 28.5831 9.75496 28.5884C9.72152 28.5964 9.67576 28.5937 9.64672 28.5937C9.62032 28.5937 9.57455 28.5964 9.54023 28.5884C9.51207 28.5831 9.48567 28.5682 9.46807 28.5584C9.43287 28.5646 9.40911 28.599 9.38007 28.6493C9.34487 28.7101 9.31055 28.786 9.25863 28.9095L8.99462 28.5999C8.98494 28.8759 9.00694 29.1608 9.06238 29.4554C9.25687 29.4131 9.45751 29.3972 9.64672 29.3972C9.83768 29.3972 10.0383 29.4131 10.2328 29.4554ZM10.3507 30.2483C10.3798 29.914 10.0014 29.7958 9.64672 29.7958C9.29383 29.7958 8.91542 29.914 8.94446 30.2483C8.98054 30.6557 9.36071 30.4617 9.64672 30.4635C9.93448 30.4617 10.3146 30.6557 10.3507 30.2483ZM11.361 27.8423C11.2915 27.8599 11.2536 27.9005 11.2457 27.9737C11.2043 28.3671 11.0451 28.5258 10.7907 28.6158C10.7872 29.0118 10.7327 29.3125 10.6253 29.6847C10.9271 30.3162 10.6957 30.758 10.451 30.8533C10.2178 30.9432 9.91688 30.8224 9.65024 30.8224C9.38359 30.8224 9.07823 30.9432 8.84502 30.8533C8.5995 30.758 8.36893 30.3162 8.6699 29.6847C8.56342 29.3125 8.50798 29.0118 8.50534 28.6158C8.25101 28.5258 8.09085 28.3671 8.04949 27.9737C8.04157 27.9005 8.00373 27.8599 7.93509 27.8423C6.93187 27.5654 6.83683 26.3165 7.3446 25.9629C7.29884 26.5229 7.25132 27.3114 8.39182 27.4163C8.37333 28.0725 8.65582 28.2489 8.94798 28.2489C9.18647 28.2498 9.32287 28.173 9.38271 28.1413C9.59479 28.0284 9.44871 27.8547 9.39415 27.8035C9.24807 27.6668 9.17415 27.4728 9.20935 27.2796C9.21551 27.2443 9.22871 27.2267 9.26127 27.2267H9.64672H10.0339C10.0665 27.2267 10.0806 27.2443 10.0858 27.2796C10.121 27.4728 10.0471 27.6668 9.90192 27.8035C9.84736 27.8547 9.70128 28.0284 9.91336 28.1413C9.97232 28.173 10.1096 28.2498 10.3481 28.2489C10.6394 28.2489 10.9227 28.0725 10.9043 27.4163C12.0448 27.3114 11.9964 26.5229 11.9515 25.9629C12.4592 26.3165 12.3633 27.5654 11.361 27.8423ZM11.6699 25.6621C11.6699 25.9488 11.4604 26.2689 11.2219 26.2689H11.0028C11.0583 26.3342 11.0917 26.4188 11.0917 26.5123C11.0917 26.724 10.9201 26.896 10.7089 26.896C10.4968 26.896 10.3252 26.724 10.3252 26.5123C10.3252 26.4188 10.3586 26.3342 10.4132 26.2689H10.1844C10.1061 26.2689 10.0454 26.3015 9.99696 26.3924C9.98112 26.2689 9.96528 26.141 9.99344 26.0555C10.0322 25.9399 10.1219 25.8703 10.2117 25.8703H11.2167C11.4023 25.8703 11.5405 25.8076 11.6699 25.6621ZM11.537 25.185H11.1859C11.0116 25.185 10.8911 25.1135 10.789 24.9954L10.3886 24.4715C10.3226 24.3895 10.2698 24.3304 10.1844 24.2925H10.5804C10.6992 24.2925 10.8048 24.3436 10.8875 24.4494L11.3047 24.9821C11.3979 25.0941 11.427 25.17 11.537 25.185ZM9.70568 24.3207L10.2178 25.0412C10.2988 25.1603 10.3754 25.2256 10.4854 25.2714H10.0163C9.83592 25.2714 9.72768 25.1876 9.64847 25.058L9.24543 24.438C9.09143 24.2069 9.0307 24.1487 8.85382 24.0852H9.28943C9.46103 24.0852 9.62119 24.1972 9.70568 24.3207ZM8.54494 24.4494L8.96206 24.9821C9.05535 25.0941 9.08439 25.17 9.19439 25.185H8.84414C8.66902 25.185 8.54846 25.1135 8.44638 24.9954L8.04597 24.4715C7.97997 24.3895 7.92805 24.3304 7.84181 24.2925H8.23781C8.35662 24.2925 8.46222 24.3436 8.54494 24.4494ZM8.29237 26.2689H8.07325C7.83565 26.2689 7.62532 25.9488 7.62532 25.6621C7.75556 25.8076 7.89285 25.8703 8.07941 25.8703H9.08439C9.17415 25.8703 9.26391 25.9399 9.30263 26.0555C9.33079 26.141 9.31495 26.2689 9.29911 26.3924C9.25071 26.3015 9.18999 26.2689 9.11167 26.2689H8.88286C8.93742 26.3342 8.96998 26.4188 8.96998 26.5123C8.96998 26.724 8.79838 26.896 8.58718 26.896C8.37597 26.896 8.20437 26.724 8.20437 26.5123C8.20437 26.4188 8.23693 26.3342 8.29237 26.2689ZM7.05331 31.0685L7.17476 30.8286C7.19852 30.7836 7.2082 30.7333 7.20732 30.6848C7.20644 30.6381 7.19412 30.5878 7.16948 30.5437L7.503 31.1461C7.52764 31.1911 7.53996 31.2387 7.54084 31.2881C7.5426 31.3366 7.53204 31.386 7.50828 31.4318L7.47836 31.4909C7.27332 31.8905 7.08235 32.6366 7.29444 33.0696C6.79987 32.8853 6.63707 32.4514 6.68987 32.0915C5.75881 31.2069 5.52473 30.3109 6.18914 29.5586L6.52971 29.1591C6.56491 29.1203 6.58691 29.0744 6.59659 29.0276C6.60803 28.9818 6.60803 28.9306 6.59483 28.8812L6.77259 29.5454C6.78491 29.5956 6.78579 29.6468 6.77523 29.6935C6.76467 29.7403 6.74267 29.7861 6.70923 29.8249L6.60539 29.9466C6.25778 30.3523 6.35106 30.9018 6.89491 31.3948C6.95211 31.2572 6.98907 31.1858 7.05331 31.0685ZM29.8774 33.5609C29.9134 33.4727 29.9337 33.3739 29.9337 33.2725C29.9337 32.8544 29.5966 32.5158 29.1804 32.5158H28.4183C28.3664 32.5166 28.318 32.5034 28.2749 32.4805C28.2326 32.4576 28.1939 32.424 28.1649 32.3817L27.7829 31.8173C27.812 31.8587 27.8498 31.8931 27.8929 31.9152C27.9352 31.9372 27.9844 31.9513 28.0364 31.9504L29.0405 31.9513C29.0924 31.9513 29.1417 31.9637 29.1839 31.9866C29.2261 32.0078 29.2649 32.0413 29.2939 32.0836L28.8328 31.408C28.8037 31.3648 28.765 31.3322 28.7219 31.3093C28.6797 31.2863 28.6304 31.2731 28.5793 31.2731L27.5832 31.274C27.5321 31.274 27.4828 31.2625 27.4406 31.2387C27.3975 31.2175 27.3588 31.184 27.3297 31.1417L26.8968 30.5014C26.9258 30.5446 26.9645 30.5772 27.0068 30.6002C27.0499 30.6222 27.0983 30.6363 27.1502 30.6363L28.1499 30.6354C28.2018 30.6354 28.2511 30.6469 28.2933 30.6707C28.3365 30.6919 28.3743 30.7245 28.4033 30.7677L27.9422 30.0922C27.9132 30.0489 27.8744 30.0163 27.8313 29.9925C27.7891 29.9696 27.7398 29.9572 27.6888 29.9572H26.8941C26.8422 29.9572 26.7938 29.9449 26.7507 29.9219C26.7084 29.899 26.6697 29.8673 26.6407 29.8232L26.1065 29.0373C27.1863 28.9095 28.0575 28.323 28.2309 27.5151C28.4553 26.4665 27.416 25.4496 25.9111 25.2282C25.6577 25.1912 25.4641 24.9733 25.4641 24.7096C25.4641 24.4856 25.6049 24.2933 25.8029 24.2192C25.6427 24.1496 25.4632 24.1108 25.2731 24.1108C24.607 24.1108 24.0675 24.5888 24.0675 25.1788C24.0675 25.2846 24.086 25.3887 24.1185 25.4848C23.3723 25.8076 22.6929 26.3809 22.1728 26.9992C22.729 26.851 23.3133 26.7707 23.9161 26.7707C23.9135 26.7434 23.9117 26.7143 23.9117 26.6852C23.9117 26.2336 24.2761 25.8667 24.7284 25.8667H24.7398C24.4318 26.0026 24.2822 26.2998 24.2822 26.4947C24.2822 26.7284 24.4714 26.918 24.7038 26.918C24.7944 26.918 24.8789 26.8898 24.9475 26.8404C24.9317 26.7875 24.9229 26.731 24.9229 26.6728C24.9229 26.3483 25.1842 26.0863 25.5081 26.0863C25.5362 26.0863 25.5653 26.0881 25.5926 26.0925C25.3699 26.1966 25.215 26.4241 25.215 26.6869C25.215 27.0494 25.5081 27.3431 25.8698 27.3431C25.9085 27.3431 25.9455 27.3405 25.9824 27.3352C25.9719 27.2964 25.9666 27.2567 25.9666 27.2144C25.9666 26.9542 26.1769 26.7443 26.4356 26.7443C26.6952 26.7443 26.9056 26.9542 26.9056 27.2144C26.9056 27.7797 26.279 27.8317 25.8223 27.7012C24.5216 27.3246 23.3037 27.1561 22.1253 27.3211C20.6134 27.5345 18.1371 28.5584 15.5085 28.4738C14.9206 28.4544 14.2791 28.3574 13.6332 28.1801C13.7124 28.2665 13.7634 28.3274 13.7969 28.3776C14.0529 28.7772 14.1409 29.1961 13.9148 29.7209C13.9209 29.1335 13.4369 28.6493 13.0312 28.353C12.8676 28.2339 12.8016 28.1201 12.8288 27.9675L12.9485 27.2911C12.9397 27.3405 12.9441 27.3907 12.9591 27.4357C12.974 27.4833 12.9996 27.5257 13.0365 27.5618L13.2891 27.8106C13.385 27.1235 13.2301 26.4859 12.8227 25.8932C13.0031 25.4214 13.0277 24.8992 12.9072 24.4097C12.8596 24.7802 12.6784 24.9398 12.5059 25.0465C12.1864 25.2467 12.1336 25.5854 12.2991 25.8121C12.0289 25.6754 11.6567 25.1718 11.8723 24.879C12.1046 24.5623 12.7408 24.7114 12.8192 24.169C12.4064 24.0367 11.9814 24.1293 11.852 24.1646C11.6074 23.8832 11.2827 23.7439 10.8787 23.7465C10.5593 23.4564 10.1492 23.3355 9.64672 23.3858C9.14687 23.3355 8.73678 23.4564 8.41733 23.7465C8.01341 23.7439 7.68868 23.8832 7.44404 24.1646C7.3138 24.1293 6.88963 24.0367 6.47602 24.169C6.55435 24.7114 7.18972 24.5623 7.42292 24.879C7.63852 25.1718 7.26628 25.6754 6.99611 25.8121C7.16243 25.5854 7.10875 25.2467 6.78843 25.0465C6.61771 24.9398 6.43554 24.7802 6.38802 24.4097C6.26746 24.8992 6.29298 25.4214 6.4725 25.8932C6.06506 26.4859 5.91017 27.1235 6.0061 27.8106L6.25954 27.5618C6.2965 27.5257 6.32202 27.4833 6.33698 27.4357C6.35194 27.3907 6.35546 27.3405 6.34578 27.2911L6.46634 27.9675C6.49274 28.1201 6.4285 28.2339 6.26482 28.353C5.85825 28.6493 5.37425 29.1335 5.38041 29.7209C5.15512 29.1961 5.24576 28.7595 5.49921 28.3776C4.72832 27.9605 4.14135 27.2752 4.0331 27.1509C3.7999 26.8783 3.8307 26.5317 4.04191 26.2292C4.44935 25.6454 4.54615 25.0218 4.03486 24.5958C4.03838 24.565 4.04015 24.5332 4.04015 24.5024C4.04015 24.1143 3.76558 23.7915 3.40037 23.7183C3.46814 23.8241 3.50774 23.9511 3.50774 24.0852C3.50774 24.2395 3.4567 24.3815 3.36957 24.4962C3.44174 24.5905 3.48486 24.7096 3.48486 24.8384C3.48486 25.0112 3.40741 25.1665 3.28509 25.2688C3.29741 25.2097 3.30269 25.1479 3.30269 25.0844C3.30269 24.6867 3.05717 24.3533 2.72364 24.2607C2.66996 23.9714 2.41652 23.7518 2.11203 23.7518C1.93515 23.7518 1.77675 23.825 1.66323 23.9432C1.89907 23.9608 2.08915 24.1469 2.11467 24.3815C2.00203 24.4671 1.91139 24.5826 1.85243 24.7211H1.86739C2.27484 24.7211 2.60484 25.0518 2.60484 25.4602C2.60484 25.5051 2.60044 25.551 2.59252 25.5951C2.56172 25.4275 2.48604 25.2732 2.36372 25.1532C2.13491 24.9292 1.80227 24.8825 1.49778 24.9989C1.38338 24.8551 1.20738 24.7634 1.01026 24.7634C0.786733 24.7634 0.591369 24.8798 0.481368 25.0571C0.706651 25.0659 0.904655 25.1797 1.02874 25.3517C0.708412 25.7627 0.704892 26.3306 1.03226 26.6508C1.25402 26.8677 1.57171 26.918 1.86827 26.8166C1.88763 26.8095 1.90875 26.806 1.93075 26.806C2.03987 26.806 2.12787 26.8951 2.12787 27.0036C2.12787 27.112 2.03987 27.1994 1.93075 27.1994C1.88323 27.1994 1.83923 27.1835 1.80579 27.1544C1.73099 27.0918 1.63419 27.0547 1.52946 27.0547C1.29186 27.0547 1.09826 27.2479 1.09826 27.4869C1.09826 27.5054 1.09914 27.523 1.10178 27.5398C1.0613 27.5539 1.01818 27.5601 0.973296 27.5601C0.857134 27.5601 0.751532 27.5133 0.674091 27.4366C0.66177 27.4834 0.65561 27.5327 0.65561 27.5839C0.65561 27.8882 0.889695 28.1386 1.18802 28.1607C1.32178 28.4941 1.64827 28.7295 2.02843 28.7295C2.2238 28.7295 2.4042 28.6669 2.55204 28.5629C2.61716 28.5179 2.6946 28.4905 2.77908 28.4905C2.99821 28.4905 3.17597 28.6687 3.17597 28.8883C3.17597 29.0779 3.04397 29.2358 2.86709 29.2772L2.5582 29.3443C2.50804 29.3566 2.457 29.354 2.41036 29.3399C2.36372 29.3275 2.31972 29.3037 2.28276 29.2684L2.98941 29.9413C3.02725 29.9766 3.07125 30.0004 3.11789 30.0137C3.16453 30.026 3.21469 30.0287 3.26485 30.0181L3.8439 29.8884C3.89406 29.877 3.9451 29.8796 3.99086 29.8928C4.03662 29.9061 4.08239 29.9299 4.11935 29.9652L4.60423 30.4273C4.56639 30.392 4.52239 30.3673 4.47487 30.355C4.42911 30.3426 4.37895 30.34 4.32879 30.3506L3.75062 30.4793C3.70046 30.4908 3.64942 30.4882 3.60366 30.474C3.55702 30.4617 3.51214 30.4379 3.47518 30.4026L4.12287 31.0173C4.15983 31.0535 4.20471 31.0782 4.25047 31.0905C4.29711 31.1046 4.34815 31.1064 4.39831 31.0941L4.97736 30.9679C5.0284 30.9556 5.07856 30.9591 5.1252 30.9723C5.17184 30.9838 5.21584 31.0094 5.25368 31.0447L5.73857 31.5059C5.70073 31.4715 5.65673 31.4468 5.61009 31.4345C5.56345 31.4204 5.51329 31.4186 5.46225 31.4292L4.88496 31.558C4.83392 31.5685 4.78376 31.5659 4.73712 31.5536C4.69048 31.5403 4.64647 31.5174 4.60863 31.4821L5.25632 32.0968C5.29417 32.133 5.33817 32.1559 5.38481 32.1683C5.43145 32.1824 5.48161 32.185 5.53265 32.1736L6.23226 32.0192C5.55289 32.4046 4.82952 32.8403 4.06303 33.3263C3.60982 33.6129 3.11437 33.6658 2.545 33.4471C2.23876 33.3298 1.90699 33.3122 1.69755 33.3474C1.42474 33.3942 1.1933 33.5591 1.05866 33.7902C1.16426 33.747 1.27954 33.724 1.40098 33.724C1.65531 33.724 1.88499 33.8272 2.05219 33.9921C1.78731 33.881 1.45818 33.8704 1.13874 33.9877C0.56673 34.1959 0.233204 34.7356 0.363446 35.2207C0.149602 35.3027 0 35.5091 0 35.7516C0 35.9104 0.0651213 36.055 0.170723 36.1582C0.227044 35.9042 0.448808 35.7137 0.717212 35.704C0.828974 35.7781 0.959216 35.8293 1.09914 35.8584C1.14138 35.7852 1.19506 35.7181 1.25666 35.6634C1.24962 35.6167 1.24698 35.57 1.24698 35.5232C1.24698 35.0002 1.66939 34.5751 2.19124 34.5751C2.23436 34.5751 2.2766 34.5778 2.31884 34.5839C1.90435 34.6845 1.59547 35.0575 1.59547 35.5047C1.59547 35.562 1.60075 35.6167 1.61043 35.6714C1.3869 35.7569 1.22938 35.973 1.22938 36.2279C1.22938 36.3734 1.2813 36.5066 1.36842 36.6098C1.52858 36.2967 1.84099 36.0744 2.20796 36.0392C2.34612 36.0797 2.4922 36.1018 2.64268 36.1018C2.73772 36.1018 2.83013 36.0921 2.91989 36.0771C2.83893 35.958 2.7914 35.8151 2.7914 35.6608C2.7914 35.2533 3.11965 34.9244 3.52622 34.9244C3.56142 34.9244 3.59486 34.9279 3.63006 34.9323C3.24197 35.0963 3.00437 35.4341 3.08621 35.7428C3.14429 35.9607 3.34933 36.1115 3.61422 36.1609C3.6107 36.3249 3.56582 36.4784 3.48926 36.6107C3.82982 36.5868 4.12111 36.3805 4.26631 36.0885C4.6676 35.928 4.91488 35.5823 4.83216 35.2701C4.80224 35.1581 4.73272 35.0628 4.63856 34.9914C4.63768 34.9808 4.63679 34.9702 4.63679 34.9588C4.63679 34.7445 4.81192 34.5689 5.02576 34.5689C5.24224 34.5689 5.41649 34.7445 5.41649 34.9588C5.41649 35.0611 5.37777 35.1546 5.31353 35.2242H6.1293C6.18034 35.2242 6.22962 35.2101 6.27186 35.1881C6.31498 35.1651 6.35282 35.1316 6.38186 35.0893L6.90547 34.3114C6.92483 34.2814 6.95123 34.2594 6.98027 34.2444C7.00931 34.2294 7.04187 34.2188 7.07795 34.2188H7.7186C7.6834 34.2188 7.64996 34.2294 7.62092 34.2444C7.59188 34.2594 7.56548 34.2814 7.54612 34.3114L7.02075 35.0902C6.99171 35.1316 6.95387 35.1651 6.91075 35.1881C6.86851 35.2101 6.82011 35.2242 6.76819 35.2242H7.74325C7.79517 35.2242 7.84357 35.2101 7.88493 35.1881C7.92893 35.1651 7.96765 35.1316 7.99493 35.0893L8.58278 34.2197C8.17797 33.9974 8.01165 33.6094 8.01165 33.074C8.01165 32.7415 8.19821 32.3632 8.22637 32.118L8.23781 32.021C8.24397 31.969 8.23693 31.9204 8.21933 31.8755C8.20525 31.8375 8.17709 31.7846 8.14629 31.7485L8.6479 32.2635C8.6875 32.297 8.71566 32.3394 8.73238 32.3843C8.75086 32.4302 8.7579 32.4805 8.75174 32.5316L8.73678 32.6498C8.71302 32.8535 8.45606 33.2945 8.93302 33.6985C8.95678 33.7196 9.01575 33.762 9.07207 33.7972L9.41087 34.0107V32.7574H9.8852V34.1509C9.88608 34.2038 9.90104 34.2514 9.9248 34.2938C9.94856 34.3352 9.982 34.3731 10.026 34.4005L10.4889 34.6959C10.5338 34.7233 10.5822 34.7392 10.6297 34.7436C10.6781 34.7471 10.7283 34.7392 10.7749 34.7198L11.6294 34.3476C11.5819 34.3679 11.5317 34.3758 11.4842 34.3705C11.4358 34.367 11.3874 34.3529 11.3443 34.3246L10.363 33.6985C10.84 33.2945 10.5822 32.8535 10.5584 32.6498L10.5443 32.5316C10.5382 32.4805 10.5452 32.4302 10.5619 32.3843C10.5804 32.3394 10.6086 32.297 10.6473 32.2635L11.1489 31.7485C11.1181 31.7846 11.0908 31.8375 11.0759 31.8755C11.0591 31.9204 11.0521 31.969 11.0583 32.021L11.0688 32.118C11.1093 32.4673 11.4613 33.0987 11.1683 33.4506L12.065 34.0213C12.109 34.0486 12.1574 34.0636 12.2049 34.0671C12.2533 34.0706 12.3035 34.0636 12.351 34.0424L13.2442 33.6544C13.1967 33.6738 13.1474 33.6817 13.0999 33.6782C13.0515 33.6738 13.0031 33.6588 12.9591 33.6305L11.9893 33.0123C12.2005 32.5801 12.0228 31.8905 11.8177 31.4909L11.7869 31.4318C11.764 31.386 11.7535 31.3366 11.7552 31.2881C11.7552 31.2387 11.7675 31.1911 11.7931 31.1461L12.1257 30.5437C12.1011 30.5878 12.0888 30.6381 12.0888 30.6848C12.087 30.7333 12.0976 30.7836 12.1204 30.8286L12.2428 31.0685C12.307 31.1858 12.3431 31.2572 12.3994 31.3948C12.945 30.9018 13.0665 30.4264 12.7188 30.0216L12.615 29.899C12.5816 29.8602 12.5596 29.8143 12.549 29.7676C12.5376 29.7209 12.5376 29.6697 12.5516 29.6194L12.7294 28.9553C12.7162 29.0047 12.7162 29.0559 12.7259 29.1017C12.7373 29.1485 12.7593 29.1943 12.7936 29.2331L13.1351 29.6327C13.7986 30.385 13.3973 31.3525 12.6053 32.0915C12.6493 32.2327 12.6872 32.4981 12.6555 32.6419L13.7071 33.3113C13.7511 33.3386 13.7995 33.3545 13.8479 33.358C13.8954 33.3624 13.9456 33.3545 13.9931 33.3333L14.7534 33.0017C14.7103 33.0211 14.6619 33.0317 14.6126 33.0317C14.4164 33.0317 14.258 32.873 14.258 32.6763C14.258 32.5175 14.361 32.3808 14.5053 32.3376C17.4084 31.4521 20.081 29.1688 21.8358 29.1732C22.6885 29.1767 23.3802 29.6935 23.3802 30.3356C23.3802 30.4379 23.3617 30.5384 23.3283 30.6354C22.9543 31.6876 23.499 32.6939 24.937 33.0811C25.1666 33.1428 25.3356 33.3536 25.3356 33.6014C25.3356 33.6508 25.3286 33.6976 25.3171 33.7417C25.3497 33.7452 25.3831 33.7461 25.4174 33.7461C25.8135 33.7461 26.1637 33.5485 26.3758 33.2478C26.6222 33.246 26.8924 33.2301 27.1687 33.2019C27.2021 33.2681 27.2285 33.3457 27.2444 33.4286C27.3033 33.7311 27.1986 34.0045 27.0129 34.0645C26.6829 34.1721 26.2781 34.0442 25.9657 34.0468C25.3743 34.053 24.8965 34.5345 24.8965 35.1272C24.8965 35.174 24.8991 35.2207 24.9053 35.2666C24.7196 35.3821 24.5964 35.5885 24.5964 35.8231C24.5964 35.9395 24.6272 36.0497 24.68 36.1459C24.8622 35.9333 25.0998 35.7675 25.3699 35.6731C25.3928 35.1528 25.8205 34.7374 26.345 34.7374C26.4251 34.7374 26.5043 34.748 26.5782 34.7656C26.0467 34.8326 25.6348 35.2877 25.6348 35.839C25.6348 35.8786 25.6375 35.9192 25.6419 35.9589C25.5759 36.0383 25.5362 36.1415 25.5362 36.2526C25.5362 36.3937 25.5996 36.5216 25.6991 36.6063C25.7994 36.3858 26.0414 36.1794 26.3547 36.0736C26.565 36.003 26.7718 35.988 26.9443 36.0233C26.9161 35.9404 26.9029 35.8531 26.9029 35.7613C26.9029 35.2904 27.2822 34.9094 27.7521 34.9094C27.7952 34.9094 27.8384 34.9129 27.8797 34.9191C27.5524 34.9649 27.3007 35.2445 27.3007 35.5841C27.3007 35.8107 27.4116 36.0092 27.5814 36.1318C27.5814 36.1441 27.5805 36.1556 27.5805 36.1679C27.5805 36.3531 27.665 36.5181 27.797 36.6265C27.8568 36.317 28.1261 36.0841 28.4526 36.0841C28.7307 36.0841 28.9604 36.0489 29.132 35.9933C29.4224 35.898 29.6345 35.629 29.6345 35.3071C29.6345 35.084 29.5333 34.8838 29.3731 34.7533C29.4523 34.3917 29.4382 33.7981 29.3159 33.3033C29.3406 33.2998 29.3661 33.2981 29.3925 33.2981C29.5949 33.2981 29.7735 33.4021 29.8774 33.5609ZM15.0852 39.6895C15.0694 39.6102 15.0711 39.5308 15.0878 39.4497C15.1213 39.2936 15.2586 39.1771 15.424 39.1771C15.6141 39.1771 15.7672 39.3315 15.7672 39.5229C15.7672 39.6128 15.732 39.6957 15.6748 39.7575C15.7391 39.7636 15.8051 39.7672 15.8737 39.7672C16.0506 39.7672 16.2187 39.746 16.3665 39.7063C16.6085 39.641 16.7863 39.4197 16.7863 39.1568C16.7863 38.842 16.5319 38.588 16.2187 38.588C16.2019 38.588 16.1843 38.588 16.1676 38.5898C16.2459 38.5562 16.3339 38.5386 16.4255 38.5386C16.7889 38.5386 17.0846 38.8341 17.0846 39.1992C17.0846 39.2168 17.0837 39.2371 17.082 39.2539C18.064 39.2336 19.1711 38.3349 19.4131 37.9927C19.1051 38.0641 18.7716 38.1029 18.4231 38.1029C18.028 38.1029 17.6504 38.0544 17.309 37.9627C16.8259 37.8357 16.3507 37.7643 15.9855 37.7643C14.7798 37.7643 13.8039 38.5509 13.8039 39.5237C13.8039 40.3254 14.4657 41.0275 15.3826 41.2153C17.4692 41.6413 19.9235 40.3995 21.9968 39.97C22.5152 39.462 23.1145 39.0369 23.7736 38.7168C23.7542 38.6409 23.7437 38.5607 23.7437 38.4795V38.4742C20.9927 38.9275 18.5173 40.3431 16.282 40.3316C15.6554 40.329 15.1644 40.0873 15.0852 39.6895ZM15.021 34.6016C15.0632 34.6016 15.1046 34.6042 15.145 34.6086C14.7332 34.7268 14.4005 35.0346 14.2465 35.4315C13.9905 35.517 13.8057 35.7587 13.8057 36.0444C13.8057 36.1776 13.8461 36.3011 13.9148 36.4034C14.1374 36.1547 14.4296 35.9686 14.7614 35.8778C14.8564 35.3997 15.2533 35.0311 15.7443 34.9799C15.3158 35.1599 15.0148 35.5841 15.0148 36.0797C15.0148 36.2552 15.0526 36.4202 15.1204 36.5701C15.1961 36.2985 15.4451 36.0974 15.7408 36.0974C15.8156 36.0974 15.8869 36.1106 15.952 36.1335C16.0444 36.167 16.1439 36.1856 16.2459 36.1856C16.722 36.1856 17.1084 35.7975 17.1084 35.3195C17.1084 35.2251 17.0934 35.1325 17.0652 35.047C17.2914 35.1131 17.4568 35.3221 17.4568 35.5708C17.4568 35.6846 17.4225 35.7896 17.3636 35.8778C17.4269 35.8901 17.492 35.8954 17.5589 35.8954C18.1195 35.8954 18.5824 35.4721 18.6466 34.9288C18.9282 34.7744 19.1755 34.5689 19.3885 34.3114L19.5381 35.0425C19.5486 35.0928 19.5451 35.1431 19.5319 35.1907C19.5187 35.2366 19.4941 35.2807 19.458 35.3168L20.0766 34.681C20.1127 34.6439 20.1374 34.5998 20.1497 34.5522C20.1638 34.5054 20.1664 34.4561 20.1558 34.4049L19.9737 33.5124C19.9631 33.463 19.9658 33.4109 19.9798 33.3651C19.993 33.3192 20.0177 33.2751 20.0538 33.2381L20.5404 32.7398C20.5043 32.7768 20.4797 32.8209 20.4665 32.8685C20.4533 32.9153 20.4506 32.9647 20.4612 33.0167L20.6434 33.9101C20.6539 33.9595 20.6513 34.0107 20.6381 34.0574C20.6249 34.1024 20.6011 34.1456 20.5659 34.1826L21.1177 33.6085C21.1529 33.5715 21.1775 33.5265 21.1907 33.4806C21.2048 33.4348 21.2075 33.3836 21.196 33.3324L21.0147 32.4426C21.0042 32.3923 21.0068 32.3403 21.0209 32.2953C21.0341 32.2485 21.0587 32.2036 21.0948 32.1665L21.5815 31.67C21.5454 31.707 21.5207 31.7502 21.5075 31.797C21.4943 31.8446 21.4917 31.894 21.5023 31.9443L21.6853 32.8386C21.6959 32.8879 21.6923 32.9391 21.6791 32.9858C21.6659 33.0317 21.6422 33.074 21.607 33.1111L22.1588 32.5378C22.1948 32.5008 22.2186 32.4558 22.2318 32.409C22.2459 32.3632 22.2485 32.312 22.238 32.2609L22.1491 31.8252C22.0558 31.3331 22.5636 30.7651 22.9666 30.7086C23.015 30.6143 23.0414 30.5129 23.0414 30.4088C23.0414 29.9087 22.4474 29.503 21.7135 29.503C21.3553 29.503 21.0297 29.5992 20.7903 29.7579C20.8863 30.0419 20.9065 30.3321 19.9658 30.4652C19.2195 30.5711 18.563 30.7166 18.0641 31.1417C17.2949 31.7943 17.3574 32.6683 16.92 32.9991C17.1145 33.0467 17.3618 33.0467 17.6267 32.9902C17.7939 32.9541 17.9488 32.8976 18.0852 32.8297C18.0033 32.9876 17.8159 33.1367 17.5695 33.2425C17.4885 33.5503 17.2148 33.8449 16.8452 33.9833C16.612 34.0689 16.3806 34.0777 16.1887 34.023L15.2885 33.762C15.1776 33.7302 15.0623 33.7134 14.9418 33.7134C14.2782 33.7134 13.7309 34.225 13.6499 34.8873C13.3366 34.9323 13.0964 35.2013 13.0964 35.5276C13.0964 35.6467 13.1289 35.7578 13.1853 35.8548C13.4009 35.6352 13.6745 35.4712 13.9808 35.3883C14.1093 34.935 14.5264 34.6016 15.021 34.6016ZM10.2328 42.8311C10.2882 42.5365 10.3111 42.2507 10.3006 41.9747L10.0374 42.2842C9.98552 42.1599 9.9512 42.0849 9.916 42.025C9.88696 41.9738 9.86232 41.9394 9.828 41.9332C9.8104 41.9421 9.784 41.957 9.75496 41.9632C9.72152 41.9712 9.67576 41.9685 9.64672 41.9685C9.62032 41.9685 9.57455 41.9712 9.54023 41.9632C9.51207 41.957 9.48567 41.9421 9.46807 41.9332C9.43287 41.9394 9.40911 41.9738 9.38007 42.025C9.34487 42.0849 9.31055 42.1599 9.25863 42.2842L8.99462 41.9747C8.98494 42.2507 9.00694 42.5365 9.06238 42.8311C9.25687 42.787 9.45751 42.772 9.64672 42.772C9.83768 42.772 10.0383 42.787 10.2328 42.8311ZM10.3507 43.623C10.3798 43.2888 10.0014 43.1706 9.64672 43.1706C9.29383 43.1706 8.91542 43.2888 8.94446 43.623C8.98054 44.0305 9.36071 43.8365 9.64672 43.8382C9.93448 43.8365 10.3146 44.0305 10.3507 43.623ZM11.361 41.2162C11.2915 41.2347 11.2536 41.2753 11.2457 41.3485C11.2043 41.7418 11.0451 41.9006 10.7907 41.9906C10.7872 42.3874 10.7327 42.6873 10.6253 43.0595C10.9271 43.691 10.6957 44.1328 10.451 44.2281C10.2178 44.318 9.91688 44.1972 9.65024 44.1972C9.38359 44.1972 9.07823 44.318 8.84502 44.2281C8.5995 44.1328 8.36893 43.691 8.6699 43.0595C8.56342 42.6873 8.50798 42.3874 8.50534 41.9906C8.25101 41.9006 8.09085 41.7418 8.04949 41.3485C8.04157 41.2753 8.00373 41.2347 7.93509 41.2162C6.93187 40.9402 6.83683 39.6913 7.3446 39.3385C7.29884 39.8977 7.25132 40.6862 8.39182 40.7911C8.37333 41.4473 8.65582 41.6237 8.94798 41.6237C9.18647 41.6237 9.32287 41.5469 9.38271 41.5152C9.59479 41.4023 9.44871 41.2294 9.39415 41.1792C9.24807 41.0425 9.17415 40.8484 9.20935 40.6544C9.21551 40.6191 9.22871 40.6024 9.26127 40.6024H9.64672H10.0339C10.0665 40.6024 10.0806 40.6191 10.0858 40.6544C10.121 40.8484 10.0471 41.0425 9.90192 41.1792C9.84736 41.2294 9.70128 41.4023 9.91336 41.5152C9.97232 41.5469 10.1096 41.6237 10.3481 41.6237C10.6394 41.6237 10.9227 41.4473 10.9043 40.7911C12.0448 40.6862 11.9964 39.8977 11.9515 39.3385C12.4592 39.6913 12.3633 40.9402 11.361 41.2162ZM11.6699 39.036C11.6699 39.3235 11.4604 39.6437 11.2219 39.6437H11.0028C11.0583 39.7098 11.0917 39.7936 11.0917 39.888C11.0917 40.0988 10.9201 40.2716 10.7089 40.2716C10.4968 40.2716 10.3252 40.0988 10.3252 39.888C10.3252 39.7936 10.3586 39.7098 10.4132 39.6437H10.1844C10.1061 39.6437 10.0454 39.6754 9.99696 39.7663C9.98112 39.6437 9.96528 39.5158 9.99344 39.4303C10.0322 39.3156 10.1219 39.245 10.2117 39.245H11.2167C11.4023 39.245 11.5405 39.1824 11.6699 39.036ZM11.537 38.5598H11.1859C11.0116 38.5598 10.8911 38.4883 10.789 38.3702L10.3886 37.8463C10.3226 37.7643 10.2698 37.7052 10.1844 37.6664H10.5804C10.6992 37.6664 10.8048 37.7193 10.8875 37.8242L11.3047 38.3569C11.3979 38.4698 11.427 38.5439 11.537 38.5598ZM9.70568 37.6955L10.2178 38.4169C10.2988 38.5351 10.3754 38.6012 10.4854 38.6462H10.0163C9.83592 38.6462 9.72768 38.5624 9.64847 38.4328L9.24543 37.8128C9.09143 37.5817 9.0307 37.5226 8.85382 37.46H9.28943C9.46103 37.46 9.62119 37.5729 9.70568 37.6955ZM8.54494 37.8242L8.96206 38.3569C9.05535 38.4698 9.08439 38.5439 9.19439 38.5598H8.84414C8.66902 38.5598 8.54846 38.4883 8.44638 38.3702L8.04597 37.8463C7.97997 37.7643 7.92805 37.7052 7.84181 37.6664H8.23781C8.35662 37.6664 8.46222 37.7193 8.54494 37.8242ZM8.29237 39.6437H8.07325C7.83565 39.6437 7.62532 39.3235 7.62532 39.036C7.75556 39.1824 7.89285 39.245 8.07941 39.245H9.08439C9.17415 39.245 9.26391 39.3156 9.30263 39.4303C9.33079 39.5158 9.31495 39.6437 9.29911 39.7663C9.25071 39.6754 9.18999 39.6437 9.11167 39.6437H8.88286C8.93742 39.7098 8.96998 39.7936 8.96998 39.888C8.96998 40.0988 8.79838 40.2716 8.58718 40.2716C8.37597 40.2716 8.20437 40.0988 8.20437 39.888C8.20437 39.7936 8.23693 39.7098 8.29237 39.6437ZM7.05331 44.4433L7.17476 44.2034C7.19852 44.1584 7.2082 44.1081 7.20732 44.0596C7.20644 44.0129 7.19412 43.9626 7.16948 43.9176L7.503 44.52C7.52764 44.5659 7.53996 44.6135 7.54084 44.662C7.5426 44.7114 7.53204 44.7599 7.50828 44.8066L7.47836 44.8657C7.27332 45.2652 7.08235 46.0114 7.29444 46.4453C6.79987 46.261 6.63707 45.8262 6.68987 45.4654C5.75881 44.5808 5.52473 43.6857 6.18914 42.9334L6.52971 42.5347C6.56491 42.4959 6.58691 42.4492 6.59659 42.4024C6.60803 42.3566 6.60803 42.3054 6.59483 42.256L6.77259 42.9201C6.78491 42.9704 6.78579 43.0216 6.77523 43.0674C6.76467 43.115 6.74267 43.1618 6.70923 43.2006L6.60539 43.3214C6.25778 43.7271 6.35106 44.2766 6.89491 44.7696C6.95211 44.632 6.98907 44.5606 7.05331 44.4433ZM29.8774 46.9357C29.9134 46.8475 29.9337 46.7487 29.9337 46.6464C29.9337 46.2292 29.5966 45.8905 29.1804 45.8905H28.4183C28.3664 45.8905 28.318 45.8782 28.2749 45.8553C28.2326 45.8323 28.1939 45.7988 28.1649 45.7565L27.7829 45.192C27.812 45.2335 27.8498 45.2679 27.8929 45.2899C27.9352 45.312 27.9844 45.3261 28.0364 45.3252L29.0405 45.3261C29.0924 45.3261 29.1417 45.3384 29.1839 45.3605C29.2261 45.3825 29.2649 45.4161 29.2939 45.4584L28.8328 44.7819C28.8037 44.7396 28.765 44.707 28.7219 44.6832C28.6797 44.6611 28.6304 44.6479 28.5793 44.6479L27.5832 44.6488C27.5321 44.6488 27.4828 44.6364 27.4406 44.6135C27.3975 44.5914 27.3588 44.5588 27.3297 44.5147L26.8968 43.8762C26.9258 43.9194 26.9645 43.952 27.0068 43.9749C27.0499 43.997 27.0983 44.0111 27.1502 44.0102H28.1499C28.2018 44.0093 28.2511 44.0217 28.2933 44.0455C28.3365 44.0667 28.3743 44.0993 28.4033 44.1425L27.9422 43.4661C27.9132 43.4237 27.8744 43.3902 27.8313 43.3673C27.7891 43.3452 27.7398 43.332 27.6888 43.332H26.8941C26.8422 43.332 26.7938 43.3197 26.7507 43.2958C26.7084 43.2747 26.6697 43.242 26.6407 43.1988L26.1065 42.4121C27.1863 42.2842 28.0575 41.6978 28.2309 40.8899C28.4553 39.8404 27.416 38.8252 25.9111 38.6039C25.6577 38.5668 25.4641 38.349 25.4641 38.0844C25.4641 37.8595 25.6049 37.6681 25.8029 37.5932C25.6427 37.5244 25.4632 37.4856 25.2731 37.4856C24.607 37.4856 24.0675 37.9636 24.0675 38.5536C24.0675 38.6594 24.086 38.7635 24.1185 38.8605C23.3723 39.1824 22.6929 39.7557 22.1728 40.3739C22.729 40.2258 23.3133 40.1464 23.9161 40.1464C23.9135 40.1182 23.9117 40.0891 23.9117 40.06C23.9117 39.6084 24.2761 39.2424 24.7284 39.2424H24.7398C24.4318 39.3782 24.2822 39.6746 24.2822 39.8695C24.2822 40.1032 24.4714 40.2928 24.7038 40.2928C24.7944 40.2928 24.8789 40.2646 24.9475 40.2152C24.9317 40.1614 24.9229 40.1058 24.9229 40.0476C24.9229 39.7231 25.1842 39.462 25.5081 39.462C25.5362 39.462 25.5653 39.4629 25.5926 39.4673C25.3699 39.5723 25.215 39.7989 25.215 40.0617C25.215 40.4242 25.5081 40.7179 25.8698 40.7179C25.9085 40.7179 25.9455 40.7153 25.9824 40.7091C25.9719 40.6712 25.9666 40.6315 25.9666 40.59C25.9666 40.3298 26.1769 40.1191 26.4356 40.1191C26.6952 40.1191 26.9056 40.3298 26.9056 40.59C26.9056 41.1545 26.279 41.2065 25.8223 41.076C24.5216 40.7003 23.3037 40.5309 22.1253 40.6967C20.6134 40.9084 18.1371 41.9332 15.5085 41.8486C14.9206 41.8292 14.2791 41.7321 13.6332 41.5549C13.7124 41.6404 13.7634 41.7022 13.7969 41.7524C14.0529 42.152 14.1409 42.5718 13.9148 43.0956C13.9209 42.5083 13.4369 42.025 13.0312 41.7286C12.8676 41.6087 12.8016 41.4949 12.8288 41.3423L12.9485 40.6659C12.9397 40.7153 12.9441 40.7655 12.9591 40.8114C12.974 40.8581 12.9996 40.9005 13.0365 40.9366L13.2891 41.1853C13.385 40.4983 13.2301 39.8606 12.8227 39.2689C13.0031 38.7961 13.0277 38.2749 12.9072 37.7845C12.8596 38.155 12.6784 38.3146 12.5059 38.4222C12.1864 38.6215 12.1336 38.9602 12.2991 39.1868C12.0289 39.0493 11.6567 38.5465 11.8723 38.2537C12.1046 37.9371 12.7408 38.087 12.8192 37.5438C12.4064 37.4115 11.9814 37.505 11.852 37.5402C11.6074 37.258 11.2827 37.1187 10.8787 37.1213C10.5593 36.8303 10.1492 36.7103 9.64672 36.7606C9.14687 36.7103 8.73678 36.8303 8.41733 37.1213C8.01341 37.1187 7.68868 37.258 7.44404 37.5402C7.3138 37.505 6.88963 37.4115 6.47602 37.5438C6.55435 38.087 7.18972 37.9371 7.42292 38.2537C7.63852 38.5465 7.26628 39.0493 6.99611 39.1868C7.16243 38.9602 7.10875 38.6215 6.78843 38.4222C6.61771 38.3146 6.43554 38.155 6.38802 37.7845C6.26746 38.2749 6.29298 38.7961 6.4725 39.2689C6.06506 39.8606 5.91017 40.4983 6.0061 41.1853L6.25954 40.9366C6.2965 40.9005 6.32202 40.8581 6.33698 40.8114C6.35194 40.7655 6.35546 40.7153 6.34578 40.6659L6.46634 41.3423C6.49274 41.4949 6.4285 41.6087 6.26482 41.7286C5.85825 42.025 5.37425 42.5083 5.38041 43.0956C5.15512 42.5718 5.24576 42.1352 5.49921 41.7524C4.72832 41.3362 4.14135 40.65 4.0331 40.5256C3.7999 40.254 3.8307 39.9065 4.04191 39.604C4.44935 39.0193 4.54615 38.3975 4.03486 37.9706C4.03838 37.9406 4.04015 37.9089 4.04015 37.8771C4.04015 37.4891 3.76558 37.1672 3.40037 37.094C3.46814 37.1989 3.50774 37.3259 3.50774 37.46C3.50774 37.6152 3.4567 37.7572 3.36957 37.871C3.44174 37.9653 3.48486 38.0844 3.48486 38.2132C3.48486 38.3869 3.40741 38.5412 3.28509 38.6444C3.29741 38.5845 3.30269 38.5218 3.30269 38.4601C3.30269 38.0615 3.05717 37.7281 2.72364 37.6355C2.66996 37.3462 2.41652 37.1266 2.11203 37.1266C1.93515 37.1266 1.77675 37.1998 1.66323 37.3189C1.89907 37.3356 2.08915 37.5217 2.11467 37.7572C2.00203 37.8419 1.91139 37.9574 1.85243 38.0959H1.86739C2.27484 38.0959 2.60484 38.4266 2.60484 38.8349C2.60484 38.8799 2.60044 38.9258 2.59252 38.9708C2.56172 38.8014 2.48604 38.648 2.36372 38.528C2.13491 38.304 1.80227 38.2573 1.49778 38.3737C1.38338 38.2299 1.20738 38.1382 1.01026 38.1382C0.786733 38.1382 0.591369 38.2546 0.481368 38.4319C0.706651 38.4407 0.904655 38.5545 1.02874 38.7273C0.708412 39.1374 0.704892 39.7063 1.03226 40.0256C1.25402 40.2425 1.57171 40.2937 1.86827 40.1914C1.88763 40.1843 1.90875 40.1808 1.93075 40.1808C2.03987 40.1808 2.12787 40.269 2.12787 40.3784C2.12787 40.4868 2.03987 40.5741 1.93075 40.5741C1.88323 40.5741 1.83923 40.5583 1.80579 40.5292C1.73099 40.4665 1.63419 40.4295 1.52946 40.4295C1.29186 40.4295 1.09826 40.6235 1.09826 40.8617C1.09826 40.8802 1.09914 40.8978 1.10178 40.9155C1.0613 40.9287 1.01818 40.9349 0.973296 40.9349C0.857134 40.9349 0.751532 40.8881 0.674091 40.8123C0.66177 40.859 0.65561 40.9075 0.65561 40.9596C0.65561 41.2638 0.889695 41.5134 1.18802 41.5355C1.32178 41.8688 1.64827 42.1043 2.02843 42.1043C2.2238 42.1043 2.4042 42.0417 2.55204 41.9376C2.61716 41.8918 2.6946 41.8653 2.77908 41.8653C2.99821 41.8653 3.17597 42.0435 3.17597 42.2631C3.17597 42.4527 3.04397 42.6115 2.86709 42.6511L2.5582 42.7199C2.50804 42.7314 2.457 42.7288 2.41036 42.7146C2.36372 42.7023 2.31972 42.6794 2.28276 42.6432L2.98941 43.3161C3.02725 43.3514 3.07125 43.3752 3.11789 43.3885C3.16453 43.4008 3.21469 43.4034 3.26485 43.3929L3.8439 43.2632C3.89406 43.2518 3.9451 43.2544 3.99086 43.2685C4.03662 43.2808 4.08239 43.3047 4.11935 43.3408L4.60423 43.8021C4.56639 43.7659 4.52239 43.7421 4.47487 43.7298C4.42911 43.7174 4.37895 43.7148 4.32879 43.7254L3.75062 43.8532C3.70046 43.8656 3.64942 43.8629 3.60366 43.8488C3.55702 43.8365 3.51214 43.8127 3.47518 43.7774L4.12287 44.3921C4.15983 44.4283 4.20471 44.453 4.25047 44.4644C4.29711 44.4777 4.34815 44.4812 4.39831 44.4688L4.97736 44.3427C5.0284 44.3304 5.07856 44.3339 5.1252 44.3471C5.17184 44.3586 5.21584 44.3842 5.25368 44.4194L5.73857 44.8807C5.70073 44.8454 5.65673 44.8216 5.61009 44.8084C5.56345 44.7952 5.51329 44.7925 5.46225 44.804L4.88496 44.9327C4.83392 44.9433 4.78376 44.9407 4.73712 44.9283C4.69048 44.9151 4.64647 44.8922 4.60863 44.856L5.25632 45.4707C5.29417 45.5069 5.33817 45.5307 5.38481 45.5431C5.43145 45.5572 5.48161 45.5598 5.53265 45.5483L6.23226 45.394C5.55289 45.7794 4.82952 46.2151 4.06303 46.7011C3.60982 46.9877 3.11437 47.0406 2.545 46.8219C2.23876 46.7046 1.90699 46.6861 1.69755 46.7222C1.42474 46.769 1.1933 46.9339 1.05866 47.165C1.16426 47.1209 1.27954 47.0988 1.40098 47.0988C1.65531 47.0988 1.88499 47.202 2.05219 47.3669C1.78731 47.2558 1.45818 47.2452 1.13874 47.3616C0.56673 47.5707 0.233204 48.1104 0.363446 48.5937C0.149602 48.6775 0 48.883 0 49.1264C0 49.2852 0.0651213 49.4289 0.170723 49.533C0.227044 49.279 0.448808 49.0885 0.717212 49.0788C0.828974 49.1529 0.959216 49.204 1.09914 49.2331C1.14138 49.1599 1.19506 49.0929 1.25666 49.0382C1.24962 48.9915 1.24698 48.9447 1.24698 48.898C1.24698 48.3741 1.66939 47.9508 2.19124 47.9508C2.23436 47.9508 2.2766 47.9525 2.31884 47.9587C1.90435 48.0593 1.59547 48.4323 1.59547 48.8795C1.59547 48.9368 1.60075 48.9915 1.61043 49.0462C1.3869 49.1308 1.22938 49.3478 1.22938 49.6027C1.22938 49.7482 1.2813 49.8805 1.36842 49.9846C1.52858 49.6715 1.84099 49.4492 2.20796 49.4139C2.34612 49.4545 2.4922 49.4757 2.64268 49.4757C2.73772 49.4757 2.83013 49.4669 2.91989 49.4519C2.83893 49.3328 2.7914 49.1899 2.7914 49.0347C2.7914 48.6281 3.11965 48.2983 3.52622 48.2983C3.56142 48.2983 3.59486 48.3018 3.63006 48.3071C3.24197 48.4711 3.00437 48.8089 3.08621 49.1167C3.14429 49.3354 3.34933 49.4863 3.61422 49.5348C3.6107 49.6997 3.56582 49.8531 3.48926 49.9854C3.82982 49.9616 4.12111 49.7544 4.26631 49.4633C4.6676 49.3028 4.91488 48.9571 4.83216 48.6449C4.80224 48.5329 4.73272 48.4376 4.63856 48.3653C4.63768 48.3556 4.63679 48.345 4.63679 48.3335C4.63679 48.1192 4.81192 47.9437 5.02576 47.9437C5.24224 47.9437 5.41649 48.1192 5.41649 48.3335C5.41649 48.4359 5.37777 48.5293 5.31353 48.599H6.1293C6.18034 48.599 6.22962 48.5849 6.27186 48.5629C6.31498 48.5399 6.35282 48.5064 6.38186 48.4641L6.90547 47.6862C6.92483 47.6571 6.95123 47.6342 6.98027 47.6192C7.00931 47.6024 7.04187 47.5936 7.07795 47.5936H7.7186C7.6834 47.5936 7.64996 47.6024 7.62092 47.6192C7.59188 47.6342 7.56548 47.6571 7.54612 47.6862L7.02075 48.4641C6.99171 48.5064 6.95387 48.5399 6.91075 48.5629C6.86851 48.5849 6.82011 48.599 6.76819 48.599H7.74325C7.79517 48.599 7.84357 48.5849 7.88493 48.5629C7.92893 48.5399 7.96765 48.5064 7.99493 48.4641L8.58278 47.5945C8.17797 47.3722 8.01165 46.9842 8.01165 46.4488C8.01165 46.1163 8.19821 45.738 8.22637 45.4928L8.23781 45.3958C8.24397 45.3437 8.23693 45.2943 8.21933 45.2485C8.20525 45.2123 8.17709 45.1594 8.14629 45.1232L8.6479 45.6383C8.6875 45.6727 8.71566 45.7142 8.73238 45.7591C8.75086 45.805 8.7579 45.8553 8.75174 45.9055L8.73678 46.0246C8.71302 46.2283 8.45606 46.6693 8.93302 47.0732C8.95678 47.0944 9.01575 47.1359 9.07207 47.172L9.41087 47.3855V46.1313H9.8852V47.5257C9.88608 47.5786 9.90104 47.6262 9.9248 47.6677C9.94856 47.71 9.982 47.7479 10.026 47.7753L10.4889 48.0707C10.5338 48.099 10.5822 48.1139 10.6297 48.1184C10.6781 48.1219 10.7283 48.1139 10.7749 48.0937L11.6294 47.7224C11.5819 47.7418 11.5317 47.7506 11.4842 47.7453C11.4358 47.7418 11.3874 47.7276 11.3443 47.6985L10.363 47.0732C10.84 46.6693 10.5822 46.2283 10.5584 46.0246L10.5443 45.9055C10.5382 45.8553 10.5452 45.805 10.5619 45.7591C10.5804 45.7142 10.6086 45.6727 10.6473 45.6383L11.1489 45.1232C11.1181 45.1594 11.0908 45.2123 11.0759 45.2485C11.0591 45.2943 11.0521 45.3437 11.0583 45.3958L11.0688 45.4928C11.1093 45.842 11.4613 46.4735 11.1683 46.8245L12.065 47.396C12.109 47.4234 12.1574 47.4375 12.2049 47.441C12.2533 47.4454 12.3035 47.4384 12.351 47.4172L13.2442 47.0291C13.1967 47.0485 13.1474 47.0565 13.0999 47.053C13.0515 47.0485 13.0031 47.0327 12.9591 47.0053L11.9893 46.3871C12.2005 45.954 12.0228 45.2652 11.8177 44.8657L11.7869 44.8066C11.764 44.7599 11.7535 44.7114 11.7552 44.662C11.7552 44.6135 11.7675 44.5659 11.7931 44.52L12.1257 43.9176C12.1011 43.9626 12.0888 44.0129 12.0888 44.0596C12.087 44.1081 12.0976 44.1584 12.1204 44.2034L12.2428 44.4433C12.307 44.5606 12.3431 44.632 12.3994 44.7696C12.945 44.2766 13.0665 43.8012 12.7188 43.3955L12.615 43.2747C12.5816 43.2359 12.5596 43.1891 12.549 43.1415C12.5376 43.0956 12.5376 43.0445 12.5516 42.9942L12.7294 42.3301C12.7162 42.3795 12.7162 42.4307 12.7259 42.4765C12.7373 42.5233 12.7593 42.57 12.7936 42.6088L13.1351 43.0075C13.7986 43.7598 13.3973 44.7273 12.6053 45.4654C12.6493 45.6074 12.6872 45.8729 12.6555 46.0167L13.7071 46.6861C13.7511 46.7134 13.7995 46.7293 13.8479 46.7328C13.8954 46.7372 13.9456 46.7293 13.9931 46.7081L14.7534 46.3765C14.7103 46.3959 14.6619 46.4065 14.6126 46.4065C14.4164 46.4065 14.258 46.2477 14.258 46.0511C14.258 45.8932 14.361 45.7556 14.5053 45.7124C17.4084 44.8278 20.081 42.5435 21.8358 42.5488C22.6885 42.5506 23.3802 43.0683 23.3802 43.7104C23.3802 43.8127 23.3617 43.9132 23.3283 44.0102C22.9543 45.0624 23.499 46.0687 24.937 46.455C25.1666 46.5185 25.3356 46.7284 25.3356 46.9762C25.3356 47.0256 25.3286 47.0724 25.3171 47.1165C25.3497 47.12 25.3831 47.1209 25.4174 47.1209C25.8135 47.1209 26.1637 46.9233 26.3758 46.6226C26.6222 46.6208 26.8924 46.6049 27.1687 46.5767C27.2021 46.6428 27.2285 46.7196 27.2444 46.8034C27.3033 47.1059 27.1986 47.3793 27.0129 47.4393C26.6829 47.5477 26.2781 47.4181 25.9657 47.4216C25.3743 47.4278 24.8965 47.9093 24.8965 48.5029C24.8965 48.5487 24.8991 48.5946 24.9053 48.6405C24.7196 48.7569 24.5964 48.9633 24.5964 49.1979C24.5964 49.3143 24.6272 49.4245 24.68 49.5207C24.8622 49.3072 25.0998 49.1423 25.3699 49.0479C25.3928 48.5276 25.8205 48.1122 26.345 48.1122C26.4251 48.1122 26.5043 48.1228 26.5782 48.1404C26.0467 48.2083 25.6348 48.6625 25.6348 49.2137C25.6348 49.2534 25.6375 49.294 25.6419 49.3337C25.5759 49.4131 25.5362 49.5162 25.5362 49.6274C25.5362 49.7685 25.5996 49.8964 25.6991 49.9802C25.7994 49.7605 26.0414 49.5542 26.3547 49.4483C26.565 49.3778 26.7718 49.3628 26.9443 49.3981C26.9161 49.3152 26.9029 49.2278 26.9029 49.1352C26.9029 48.6652 27.2822 48.2842 27.7521 48.2842C27.7952 48.2842 27.8384 48.2877 27.8797 48.2939C27.5524 48.3388 27.3007 48.6193 27.3007 48.9589C27.3007 49.1855 27.4116 49.3848 27.5814 49.5057C27.5814 49.5189 27.5805 49.5312 27.5805 49.5427C27.5805 49.727 27.665 49.8928 27.797 50.0013C27.8568 49.6917 28.1261 49.4589 28.4526 49.4589C28.7307 49.4589 28.9604 49.4236 29.132 49.3681C29.4224 49.2728 29.6345 49.0038 29.6345 48.6819C29.6345 48.4588 29.5333 48.2586 29.3731 48.1281C29.4523 47.7665 29.4382 47.1729 29.3159 46.6781C29.3406 46.6746 29.3661 46.6728 29.3925 46.6728C29.5949 46.6728 29.7735 46.7769 29.8774 46.9357ZM40.4102 0H39.4123V60H40.4102V0Z" fill="white"/>
</svg>
