<svg width="1280" height="647" viewBox="0 0 1280 647" fill="none" xmlns="http://www.w3.org/2000/svg">
<path d="M0.000244141 0H1280V614H0.000244141V0Z" fill="url(#paint0_linear)"/>
<path d="M180.833 371.115C202.857 374.041 222.748 385.311 242.639 395.191C273.578 410.562 305.932 423.056 339.147 432.456C364.598 439.65 391.152 445.07 417.394 441.713C478.817 433.871 524.399 380.443 552.75 325.361C581.101 270.279 599.243 209.105 637.851 160.642C676.459 112.178 745.551 79.3971 800.91 107.19C841.412 127.525 861.734 172.608 882.2 213.062C902.667 253.517 931.688 296.417 976.383 303.875C1009.72 309.438 1042.31 293.491 1073.97 281.717C1105.65 269.943 1144.07 262.989 1170.96 283.492C1198.88 304.81 1201.25 344.881 1210.74 378.717C1220.13 412.121 1266.5 455.5 1280 457V543.5V628C1262.5 635 1231 649 1159 639.62C1087 630.241 822.947 609.82 648.001 615C502.22 619.292 351.638 647.102 206.001 639.62C116.373 635.016 43.8921 647.585 0.000402689 646.396L0 558.5L0.000402689 438C34.9657 395.483 128.637 364.209 180.833 371.115Z" fill="#CFDEFB"/>
<defs>
<linearGradient id="paint0_linear" x1="640" y1="0" x2="640" y2="614" gradientUnits="userSpaceOnUse">
<stop stop-color="#CFDEFB"/>
<stop offset="1" stop-color="#CFDEFB" stop-opacity="0.5"/>
</linearGradient>
</defs>
</svg>
