<svg width="460" height="184" viewBox="0 0 460 184" fill="none" xmlns="http://www.w3.org/2000/svg">
<path d="M0 20C0 8.9543 8.95431 0 20 0H440C451.046 0 460 8.95431 460 20V184H0V20Z" fill="#2E3374"/>
<path d="M177.394 155.062C193.601 155.138 209.807 153.618 226.014 152.554C248.999 151.033 271.439 153.086 294.269 153.466C300.995 153.465 307.712 153.923 314.372 154.834C315.852 155.062 319.826 154.758 320.995 156.583C325.28 163.729 314.605 162.665 312.579 162.817C289.828 165.173 266.998 163.881 244.09 164.337C220.171 164.869 196.172 166.466 172.251 165.858C162.979 165.63 150.045 167.454 141.396 162.437C129.397 155.443 152.772 153.466 156.356 153.846C163.333 154.706 170.361 155.113 177.394 155.062Z" fill="#89C5CC"/>
<path d="M199 23.7614L203.899 87H264.79L270 20L199 23.7614Z" fill="#89C5CC"/>
<path d="M253 69.4458V65.5542L250.5 65.1727C250.339 64.7912 250.177 64.4096 250.016 64.1044L251.468 62.1968L248.565 59.4498L246.548 60.8233C246.145 60.6707 245.823 60.5181 245.419 60.3655L245.016 58H240.984L240.581 60.3655C240.177 60.5181 239.774 60.6707 239.452 60.8233L237.435 59.4498L234.532 62.1968L235.984 64.1044C235.823 64.4859 235.661 64.7912 235.5 65.1727L233 65.5542V69.4458L235.5 69.8273C235.661 70.2088 235.823 70.5904 235.984 70.8956L234.532 72.8032L237.435 75.5502L239.452 74.1767C239.855 74.3293 240.177 74.4819 240.581 74.6345L240.984 77H245.016L245.419 74.6345C245.823 74.4819 246.226 74.3293 246.548 74.1767L248.565 75.5502L251.468 72.8032L250.016 70.8956C250.177 70.5141 250.339 70.2088 250.5 69.8273L253 69.4458ZM242.919 71.1245C242.17 71.1245 241.437 70.9139 240.814 70.5202C240.19 70.1257 239.705 69.5656 239.418 68.9109C239.131 68.2554 239.056 67.5343 239.202 66.8384C239.348 66.1425 239.709 65.5039 240.24 65.0025C240.769 64.5004 241.445 64.1594 242.18 64.0205C242.915 63.8824 243.677 63.9533 244.37 64.225C245.063 64.4959 245.655 64.956 246.071 65.5458C246.488 66.1357 246.71 66.8285 246.71 67.5382C246.724 68.0128 246.635 68.4851 246.45 68.9261C246.265 69.368 245.986 69.7686 245.631 70.1043C245.277 70.44 244.853 70.7033 244.386 70.8788C243.92 71.0543 243.421 71.1382 242.919 71.1245Z" fill="#FFBE55"/>
<path d="M242 48.6634V42.3368L238.25 41.7041C238.02 41.0715 237.791 40.5179 237.561 39.9643L239.781 36.8011L235.418 32.2934L232.357 34.5868C231.824 34.2825 231.259 34.0437 230.673 33.875L230.061 30H223.938L223.326 33.875C222.714 34.1123 222.178 34.3495 221.642 34.5868L218.581 32.2934L214.219 36.8011L216.438 39.9643C216.144 40.5146 215.913 41.0984 215.75 41.7041L212 42.3368V48.6634L215.75 49.296C215.98 49.9287 216.209 50.4822 216.438 51.0358L214.219 54.1991L218.581 58.7066L221.642 56.4132C222.175 56.7177 222.74 56.9565 223.326 57.125L223.938 61H230.061L230.673 57.125C231.285 56.8877 231.821 56.6505 232.357 56.4132L235.418 58.7066L239.781 54.1991L237.561 51.0358C237.856 50.4856 238.087 49.9017 238.25 49.296L242 48.6634ZM226.923 51.4312C225.788 51.4312 224.678 51.0833 223.734 50.4316C222.79 49.7799 222.055 48.8536 221.62 47.7698C221.185 46.6861 221.072 45.4935 221.293 44.3429C221.515 43.1925 222.062 42.1356 222.865 41.3061C223.667 40.4766 224.69 39.9117 225.803 39.6829C226.917 39.454 228.071 39.5715 229.12 40.0204C230.169 40.4694 231.065 41.2295 231.696 42.2049C232.326 43.1803 232.663 44.327 232.663 45.5001C232.652 47.0696 232.044 48.5717 230.97 49.6815C229.896 50.7914 228.442 51.4199 226.923 51.4312Z" fill="#69A1AC"/>
<path d="M203.682 79.3249C202.685 79.0317 201.703 78.6904 200.74 78.3003C196.048 76.2509 190.72 71.7582 188.493 67.2654C186.664 63.482 185.392 54.4962 180.223 54.0232C179.009 53.9141 177.792 54.1915 176.748 54.8152C175.704 55.4392 174.888 56.3763 174.418 57.4917C173.544 59.6986 174.18 62.1421 175.054 64.2702C176.254 66.8989 177.664 69.429 179.269 71.837C181.575 75.4627 183.961 79.1673 187.619 81.3743C190.959 83.4236 195.014 83.8965 198.911 84.3694C200.581 84.6059 202.33 84.7635 204 85L203.682 79.3249Z" fill="#C5CFD6"/>
<path d="M187.493 155.79C188.411 157.146 190.63 157.066 192.084 157.465C192.773 157.624 194.073 157.944 193.997 158.981C193.92 159.539 193.538 159.699 193.079 159.858C192.084 160.177 191.013 159.858 190.018 159.858H184.892C184.583 159.9 184.269 159.864 183.976 159.753C183.683 159.642 183.42 159.459 183.209 159.22C182.673 158.502 183.285 156.508 183.744 155.949C184.211 155.405 184.86 155.069 185.558 155.009C186.255 154.95 186.948 155.172 187.493 155.63C187.483 155.64 187.475 155.652 187.469 155.667C187.464 155.68 187.461 155.695 187.461 155.71C187.461 155.725 187.464 155.739 187.469 155.753C187.475 155.767 187.483 155.779 187.493 155.79Z" fill="#69A1AC"/>
<path d="M188 151.514C187.778 152.542 187.259 154.451 187.037 155.479C186.599 155.791 186.079 155.971 185.54 155.997C185.002 156.023 184.467 155.894 184 155.626C184.296 153.79 184.444 152.101 184.741 151C185.778 151.22 186.963 151.367 188 151.514Z" fill="#FFE3CA"/>
<path d="M162.616 154.766C162.927 156.907 164.95 157.304 166.663 157.621C167.285 157.7 169.075 157.938 168.998 158.89C168.92 160 165.884 159.841 165.106 159.921C164.795 159.921 164.483 160 164.094 160C162.071 159.921 160.047 158.097 158.257 157.145C157.712 156.828 157.09 156.432 157.012 155.797C156.856 154.925 158.257 153.498 158.958 153.18C159.62 152.927 160.352 152.941 161.004 153.222C161.656 153.502 162.177 154.026 162.46 154.687C162.616 154.608 162.616 154.687 162.616 154.766Z" fill="#69A1AC"/>
<path d="M165 151.283C164.27 152.249 162.811 154.004 162 154.97C161.421 155.055 160.831 154.959 160.3 154.695C159.769 154.43 159.318 154.009 159 153.478C160.216 151.634 161.27 149.966 162.081 149C162.973 149.79 164.027 150.58 165 151.283Z" fill="#FFE3CA"/>
<path d="M207.21 85.7815C207.743 85.7112 208.352 85.8519 208.885 85.7815C210.027 85.7112 212.158 84.4449 213.148 85.2891C213.214 85.3419 213.269 85.4066 213.308 85.479C213.347 85.5515 213.37 85.6303 213.376 85.7112C213.3 86.0629 211.625 86.485 211.245 86.6961C211.549 86.5554 212.843 87.1182 213.148 87.1885C213.938 87.4347 214.794 87.4347 215.584 87.1885C215.802 87.1083 216.034 87.0605 216.269 87.0478C216.424 87.0563 216.573 87.1076 216.696 87.1956C216.818 87.2828 216.911 87.4024 216.96 87.5382C217.009 87.6746 217.013 87.821 216.971 87.9595C216.93 88.0974 216.844 88.2212 216.726 88.3141C216.147 88.6996 215.459 88.9191 214.746 88.9472C214.165 89.0176 213.576 89.0176 212.995 88.9472C211.245 88.8769 207.895 89.0176 206.449 87.892C205.535 87.1885 206.144 86.1333 207.134 85.7815C207.134 85.8519 207.21 85.8519 207.21 85.7815Z" fill="#FFE3CA"/>
<path d="M186 99C185.08 117.41 178.254 139.86 165.139 151.978C164.2 152.055 163.257 151.93 162.371 151.608C161.484 151.286 160.676 150.777 160 150.113C162.608 145.53 166.519 138.461 167.286 136.209C168.513 132.48 168.437 128.363 168.283 124.324C167.976 117.099 166.136 106.224 165.062 99C171.504 99 180.324 99 186 99Z" fill="#69A1AC"/>
<path d="M188.859 152.979C187.154 153.077 185.447 152.836 183.836 152.269C184.15 142.646 184.699 131.841 179.755 123.638C177.165 119.379 173.398 115.988 170.18 112.202C166.962 108.416 163.509 103.526 164.058 98.0047C169.866 97.9258 174.81 98.8723 178.656 98.8723C186.661 104.867 188.231 112.596 190.507 122.376C192.783 132.156 192.626 143.672 188.859 152.979Z" fill="#89C5CC"/>
<path d="M176.05 48.8692C171.468 51.1189 168.128 58.4889 167.119 62.678C164.312 74.3634 162.93 86.3458 163.003 98.3624C170.458 102.086 179.079 101.465 187 98.983C182.573 79.357 190.417 54.6875 184.593 50.0329C181.331 47.4728 178.457 47.628 176.05 48.8692Z" fill="#F2F2F2"/>
<path d="M183.39 35.873C186.747 36.1124 191.402 35.1549 193.233 31.8038C194.072 30.2878 194.454 27.6548 193.156 26.2984C192.012 25.0218 189.876 24.942 188.273 25.0218C186.048 25.1415 183.844 25.5434 181.712 26.2186C181.001 26.4504 180.331 26.8007 179.728 27.2559C179.423 27.4952 179.117 28.3729 178.66 28.3729C177.973 28.2931 177.363 27.8144 176.752 27.8144C176.29 27.8067 175.836 27.938 175.444 28.1926C175.052 28.4473 174.738 28.8145 174.54 29.2506C174.173 30.1309 173.991 31.0831 174.005 32.0432C173.929 36.1124 174.616 41.3784 178.889 42.8944C180.033 43.2933 181.178 42.4954 182.017 41.6178C182.659 40.8391 183.118 39.9138 183.357 38.9161C183.595 37.9185 183.607 36.8762 183.39 35.873Z" fill="#FFBE55"/>
<path d="M184.086 49.7397L184.772 45.5701L191.781 45.3427L191.324 39.7327L193 39.2778L191.476 32C188.276 34.7292 183.553 33.2888 183.553 33.2888L182.41 37.0035C181.725 35.7147 180.582 33.7436 179.21 35.3357C177.839 36.9277 179.972 39.5811 179.972 39.5811L177.001 48.9058C176.925 48.9058 180.886 52.9996 184.086 49.7397Z" fill="#FFE3CA"/>
<path d="M178.08 57.0235C176.894 56.9135 175.704 57.1921 174.685 57.8189C173.665 58.445 172.867 59.3861 172.409 60.5061C171.554 62.7223 172.176 65.1759 173.03 67.313C174.202 69.9534 175.579 72.4941 177.148 74.9113C179.401 78.5522 181.731 82.2723 185.305 84.4885C188.568 86.5464 192.53 87.0213 196.337 87.4962C200.454 87.9711 204.572 88.5251 208.612 89C208.689 87.5753 208.845 86.2298 209 84.4093C205.737 84.0136 198.823 81.7182 197.968 81.3225C193.385 79.2646 188.179 74.753 186.004 70.2415C184.295 66.5215 183.052 57.4192 178.08 57.0235Z" fill="#F2F2F2"/>
<path d="M254 87C254 87.3077 254.075 87.6154 254.075 88C256.717 87.6923 259.358 87.3846 262 87H254Z" fill="#69A1AC"/>
<path d="M290.57 59.4188C290.096 58.3316 289.284 57.4182 288.25 56.8086C287.216 56.1981 286.012 55.9223 284.809 56.0189C279.758 56.4825 278.495 65.2914 276.601 69.0004C274.549 73.0958 269.893 77.1138 265.552 79.3547L265 86C265.395 85.9227 265.789 85.9227 266.184 85.8455C270.051 85.3818 274.076 84.9182 277.39 82.9092C281.021 80.7456 283.467 77.1138 285.677 73.5594C287.284 71.2072 288.683 68.7261 289.86 66.1414C290.886 63.9778 291.438 61.5824 290.57 59.4188Z" fill="#69A1AC"/>
<path d="M269.94 154.551C268.526 155.1 266.664 153.845 265.399 153.374C264.729 153.139 263.537 152.59 263.091 153.531C262.867 154.002 263.091 154.394 263.389 154.786C264.146 155.476 264.97 156.08 265.845 156.59C267.26 157.532 268.6 158.551 270.015 159.493C270.251 159.698 270.526 159.847 270.822 159.929C271.117 160.01 271.426 160.022 271.727 159.963C272.546 159.65 273.067 157.689 272.993 156.983C272.888 156.273 272.528 155.633 271.988 155.195C271.447 154.756 270.768 154.555 270.089 154.629C270.015 154.472 270.015 154.472 269.94 154.551Z" fill="#69A1AC"/>
<path d="M271.61 151C271.186 151.921 270.424 153.566 270 154.421C270.219 154.866 270.599 155.253 271.096 155.534C271.592 155.814 272.184 155.976 272.797 156C273.729 154.487 274.576 153.105 275 152.184C273.825 151.872 272.691 151.476 271.61 151Z" fill="#FFE3CA"/>
<path d="M299 97.9293C298.205 101.569 298.444 104.048 297.332 107.61C292.644 123.254 282.871 139.982 274.926 154C273.117 154.009 271.366 153.376 270 152.219C274.211 134.484 278.66 114.735 283.11 97C288.115 97.1549 294.233 96.6902 299 97.9293Z" fill="#C5CFD6"/>
<path d="M298.507 155.789C297.589 157.145 295.37 157.066 293.916 157.465C293.227 157.624 291.927 157.943 292.003 158.981C292.08 159.539 292.462 159.699 292.921 159.858C293.916 160.177 294.987 159.858 295.982 159.858H301.108C301.417 159.9 301.732 159.865 302.025 159.753C302.318 159.642 302.581 159.459 302.791 159.22C303.327 158.502 302.715 156.507 302.256 155.949C301.789 155.405 301.14 155.069 300.443 155.01C299.745 154.95 299.052 155.172 298.507 155.63C298.583 155.709 298.583 155.789 298.507 155.789Z" fill="#69A1AC"/>
<path d="M297 151.514C297.278 152.542 297.926 154.451 298.204 155.479C298.752 155.791 299.401 155.971 300.075 155.997C300.748 156.023 301.417 155.894 302 155.626C301.63 153.79 301.444 152.101 301.074 151C299.743 151.284 298.377 151.457 297 151.514Z" fill="#FFE3CA"/>
<path d="M299.071 98C299.42 116.368 300.731 134.706 303 152.943C300.998 153.94 298.707 154.243 296.505 153.804C291.613 136.898 286 118.114 286 100.583C290.17 99.9566 294.981 98.6261 299.071 98Z" fill="#F2F2F2"/>
<path d="M258.68 85.7815C258.099 85.7112 257.434 85.8519 256.853 85.7815C255.607 85.7112 253.282 84.4449 252.202 85.2891C252.13 85.3419 252.07 85.4066 252.028 85.479C251.985 85.5515 251.96 85.6303 251.953 85.7112C252.036 86.0629 253.863 86.485 254.278 86.6961C253.946 86.5554 252.534 87.1182 252.202 87.1885C251.34 87.4347 250.407 87.4347 249.545 87.1885C249.306 87.1083 249.054 87.0605 248.797 87.0478C248.629 87.0563 248.467 87.1076 248.332 87.1956C248.198 87.2828 248.097 87.4024 248.044 87.5382C247.99 87.6746 247.986 87.821 248.031 87.9595C248.077 88.0974 248.17 88.2212 248.299 88.3141C248.93 88.6996 249.681 88.9191 250.458 88.9472C251.093 89.0176 251.735 89.0176 252.368 88.9472C254.278 88.8769 257.933 89.0176 259.51 87.892C260.507 87.1885 259.843 86.1333 258.763 85.7815C258.763 85.8519 258.763 85.8519 258.68 85.7815Z" fill="#FFE3CA"/>
<path d="M288.95 48.8692C293.532 51.1189 296.872 58.4889 297.881 62.678C300.688 74.3634 302.07 86.3458 301.997 98.3624C294.542 102.086 285.921 101.465 278 98.983C282.427 79.357 274.583 54.6875 280.407 50.0329C283.669 47.4728 286.543 47.628 288.95 48.8692Z" fill="#89C5CC"/>
<path d="M281.575 35.9688C281.497 36.205 266.707 34.6307 270.677 27.3101C271.099 26.5367 271.739 25.907 272.515 25.5008C273.29 25.0944 274.167 24.9298 275.036 25.0274C276.982 25.2635 278.461 26.7591 280.174 27.7824C283.443 29.6716 290.994 26.3655 290.994 32.1905C291.072 36.205 290.372 41.4002 286.012 42.8958C284.845 43.2894 283.677 42.5022 282.821 41.6363C282.237 40.83 281.825 39.91 281.611 38.9346C281.396 37.9591 281.384 36.9493 281.575 35.9688Z" fill="#69A1AC"/>
<path d="M280.914 49.7397L280.228 45.5701L273.219 45.3427L273.676 39.7327L272 39.2778L273.524 32C276.723 34.7292 281.447 33.2888 281.447 33.2888L282.59 37.0035C283.275 35.7147 284.418 33.7436 285.79 35.3357C287.161 36.9277 285.028 39.5811 285.028 39.5811L287.999 48.9058C288.075 48.9058 284.113 52.9996 280.914 49.7397Z" fill="#FFE3CA"/>
<path d="M287.92 57.0235C289.106 56.9135 290.296 57.1921 291.316 57.8189C292.335 58.445 293.133 59.3861 293.591 60.5061C294.446 62.7223 293.824 65.1759 292.97 67.313C291.798 69.9534 290.421 72.4941 288.852 74.9113C286.599 78.5522 284.269 82.2723 280.695 84.4885C277.432 86.5464 273.47 87.0213 269.663 87.4962C265.546 87.9711 261.428 88.5251 257.388 89C257.311 87.5753 257.155 86.2298 257 84.4093C260.263 84.0136 267.177 81.7182 268.032 81.3225C272.615 79.2646 277.821 74.753 279.996 70.2415C281.627 66.5215 282.87 57.4192 287.92 57.0235Z" fill="#89C5CC"/>
<path d="M273.688 39.5786C274.129 39.3944 274.607 39.3124 275.086 39.339C275.564 39.3655 276.03 39.4999 276.446 39.7316C276.918 40.0376 277.234 40.4201 277.706 40.7261C278.337 41.0154 279.052 41.082 279.728 40.9145C280.404 40.7469 280.998 40.3556 281.409 39.8081C282.276 38.7372 281.96 34.3004 281.724 33H283.93C284.088 34.4534 283.93 38.6607 283.93 40.1906C284.048 41.5703 283.747 42.9534 283.063 44.1684C281.96 45.9278 279.676 46.6927 277.47 46.9222C276.052 47.0752 274.476 47.0752 273.373 46.2337C272.88 45.8591 272.496 45.3651 272.261 44.8012C272.026 44.2374 271.948 43.6234 272.034 43.0209C272.113 41.797 272.507 40.1141 273.688 39.5786Z" fill="#69A1AC"/>
</svg>
