<?xml version="1.0" encoding="UTF-8"?>
<svg viewBox="0 0 363 479" xmlns="http://www.w3.org/2000/svg">
<path d="m181.3 476.7c73.785 0 133.6-3.224 133.6-7.2s-59.814-7.2-133.6-7.2-133.6 3.224-133.6 7.2 59.815 7.2 133.6 7.2z" fill="#D9EDEF"/>
<path d="m286.9 180.1v-34.3h-211.2v34.3c-20.05 0-39.28 7.965-53.457 22.143-14.178 14.178-22.143 33.407-22.143 53.457 0 20.051 7.965 39.28 22.143 53.457 14.178 14.178 33.407 22.143 53.457 22.143 3.6475-0.014 7.2896-0.281 10.9-0.8 7.5264 14.964 18.492 27.932 31.998 37.84s29.168 16.474 45.702 19.16v53.5h-29.5c-3.625-1e-3 -7.215 0.712-10.564 2.098-3.349 1.387-6.392 3.42-8.955 5.983-2.564 2.563-4.597 5.606-5.983 8.955-1.387 3.35-2.1 6.939-2.098 10.564h148c1e-3 -3.625-0.712-7.214-2.099-10.564-1.386-3.349-3.419-6.392-5.982-8.955s-5.607-4.596-8.956-5.983c-3.349-1.386-6.939-2.099-10.563-2.098h-29.5v-53.4c16.547-2.686 32.219-9.264 45.728-19.191 13.508-9.927 24.466-22.919 31.972-37.909 3.711 0.519 7.453 0.786 11.2 0.8 9.928-7e-3 19.757-1.968 28.927-5.774 9.169-3.805 17.5-9.379 24.515-16.404 7.016-7.025 12.579-15.363 16.372-24.537 3.793-9.175 5.742-19.007 5.736-28.935-7e-3 -9.928-1.969-19.757-5.774-28.927-3.806-9.17-9.38-17.5-16.404-24.515-7.025-7.016-15.363-12.579-24.538-16.372-9.174-3.793-19.006-5.742-28.934-5.736zm-211.2 128.3c-13.977 0-27.381-5.552-37.264-15.435-9.8831-9.884-15.436-23.288-15.436-37.265s5.5524-27.381 15.436-37.264c9.8832-9.884 23.288-15.436 37.264-15.436v71.7c-0.2 2.8-0.4 5.5-0.4 8.3 0.0245 8.488 1.0311 16.944 3 25.2-0.8621 0.117-1.7302 0.183-2.6 0.2zm211.2 0c-1 0-2 0-3-0.1 2.017-8.247 3.025-16.709 3-25.2v-80c13.963 0 27.355 5.547 37.229 15.421s15.421 23.265 15.421 37.229-5.547 27.355-15.421 37.229-23.266 15.421-37.229 15.421z" fill="#EEF8F9"/>
<path d="m109.1 213.1c-0.011-23.56 6.014-46.73 17.5-67.3h-51v34.3c-20.05 0-39.28 7.965-53.457 22.143-14.178 14.178-22.143 33.407-22.143 53.457 0 20.051 7.965 39.28 22.143 53.457 14.178 14.178 33.407 22.143 53.457 22.143 3.6474-0.014 7.2896-0.281 10.9-0.8 7.5264 14.964 18.492 27.932 31.998 37.84s29.168 16.474 45.702 19.16v53.5h-29.5c-3.625-1e-3 -7.214 0.712-10.564 2.098-3.349 1.387-6.392 3.42-8.955 5.983s-4.596 5.606-5.983 8.955c-1.386 3.35-2.099 6.939-2.098 10.564h148c1e-3 -3.625-0.712-7.214-2.098-10.564-1.387-3.349-3.42-6.392-5.983-8.955s-5.606-4.596-8.955-5.983c-3.35-1.386-6.939-2.099-10.564-2.098h-29.5v-53.4c25.568-4.15 48.729-17.527 65.1-37.6-5.379 0.604-10.787 0.905-16.2 0.9-36.546-3e-3 -71.594-14.522-97.436-40.364s-40.361-60.89-40.364-97.436zm-33.4 95.3c-13.977 0-27.381-5.552-37.264-15.435-9.8832-9.884-15.436-23.288-15.436-37.265s5.5523-27.381 15.436-37.264c9.8832-9.884 23.288-15.436 37.264-15.436v71.7c-0.2 2.8-0.4 5.5-0.4 8.3 0.0244 8.488 1.0311 16.944 3 25.2-0.8621 0.117-1.7302 0.183-2.6 0.2z" fill="#15ADC2"/>
<path d="m278.3 139.7 0.7 6.8c1.1 0 13-0.5 13.1-1.2s-9.1-2.1-9.1-2.1c0.061-1.101 0.028-2.205-0.1-3.3-0.1-0.3-4.6-0.2-4.6-0.2z" fill="#2E3374" stroke="#2E3374" stroke-miterlimit="10" stroke-width="1.7"/>
<path d="m254.2 196.3-1.4 6.7c1 0.4 12.5 3.4 12.9 2.8s-8.1-4.7-8.1-4.7c0.399-1.002 0.701-2.04 0.9-3.1 0-0.5-4.3-1.7-4.3-1.7z" fill="#2E3374" stroke="#2E3374" stroke-miterlimit="10" stroke-width="1.7"/>
<path d="m233 112.1s17.6-34.3 37.9-31.9 14.3 60.2 14.3 60.2h-8s-1.7-42.4-8.7-42.3-30.1 32.5-30.1 32.5 30.2-2.6 34.2 18c4.9 25-12.3 50.8-12.3 50.8l-9.7-0.4s18.6-43.7 8.1-50.1c-16.1-9.8-47.1 7.8-59.4-15.3l33.7-21.5z" fill="#fff" stroke="#2E3374" stroke-miterlimit="10" stroke-width="1.7"/>
<path d="m210.4 66.2s22 8.2 33.2 3.5 23.9-28 31.1-28.3 7.5-2.8 7.5-2.8-0.6 6.3999-5.2 6.6999-10.2 26.9-28.2 34.1-36.7 1.3999-36.7 1.3999-4.2-11.6-1.7-14.6z" fill="#fff" stroke="#2E3374" stroke-miterlimit="10" stroke-width="1.7"/>
<path d="m203.7 33.4c0.2-0.5 6.7-10.5 17.3-4 4.4 2.8 4.5 8 10 9.3s13.4-3.9001 16.2 5.0999-0.4 11.5 4.5 12.5 8.6 0.4001 7.4 7.4001c-1.7 10-17 10.3-18.9 4.5999-4.8-14.4-12.9 2.6-17-10.2-2-6.3-29.4 3.7001-19.5-24.7z" fill="#fff" stroke="#2E3374" stroke-miterlimit="10" stroke-width="1.7"/>
<path d="m220.2 65.3s9.6 5.7 11.1 5.7 0 10 0 10-13.5-6.6-11.1-15.7z" fill="#D5401A" stroke="#2E3374" stroke-miterlimit="10" stroke-width="1.7"/>
<path d="m220.2 65.3s-38-14-20.8 68.3c0 0 39.5-12.6 33.6-21.5-4.1-6.2-5.7-2-6.5-12-0.8-9.9998 21.7-11.3-6.3-34.8z" fill="#D5401A" stroke="#2E3374" stroke-miterlimit="10" stroke-width="1.7"/>
<path d="m220.6 44.2c-1.1-0.2-2.3 0.8999-3 1.8999-0.5-2.9-0.8-5.7-1-8-0.3-3.9-11.4-4.6001-13.7 3.3999 0 0-2.8 12.6 4 14.5 2.6 0.7 4 0.1002 4.8-0.7998l-1.5 9.5s3.5 4.3998 10 0.5998c0.6-0.4-0.6-7.3999-1.8-14.9 0.463 0.204 0.982 0.2459 1.472 0.1189s0.922-0.4155 1.228-0.8188c0.9-1.4 1.5-5.1-0.5-5.5z" fill="#fff" stroke="#2E3374" stroke-miterlimit="10" stroke-width="1.7"/>
<path d="m214.5 80s20.9 10.7 32.6 7.3 27-25.1 34.1-24.5 7.7-2 7.7-2-1.3 6.3-6 6-13.2 25.6-31.9 30.6c-18.7 4.9999-36.6-2.8-36.6-2.8s-2.8-11.9 0.1-14.6z" fill="#fff" stroke="#2E3374" stroke-miterlimit="10" stroke-width="1.7"/>
<path d="m211.6 76.3s12.7 4.9 13.6 6.7-1.4 16.9-4.8 16-14.9-2.8998-15.1-10.3 2-14.2 6.3-12.4z" fill="#D5401A" stroke="#2E3374" stroke-miterlimit="10" stroke-width="1.5"/>
<path d="m282.2 64.4c6.369 0 12.594-1.8885 17.889-5.4267 5.296-3.5382 9.423-8.5672 11.86-14.451 2.437-5.8838 3.075-12.358 1.832-18.604-1.242-6.2462-4.309-11.984-8.812-16.487s-10.241-7.5698-16.487-8.8123-12.721-0.60487-18.604 1.8323c-5.884 2.4371-10.913 6.5644-14.451 11.86-3.539 5.2953-5.427 11.521-5.427 17.889-3e-3 4.2293 0.828 8.4176 2.446 12.325 1.617 3.9079 3.989 7.4587 6.979 10.449 2.991 2.9905 6.542 5.3622 10.45 6.9794 3.907 1.6173 8.096 2.4485 12.325 2.4458z" fill="#FD8208"/>
<path d="m272.3 32.2v1.3999h9.2v-1.3999h-9.2z" fill="#fff"/>
<path d="m282.9 32.2v1.3999h9.2v-1.3999h-9.2z" fill="#fff"/>
<path d="m314.3 33.6v-1.3999h-20.8v1.3999h20.8z" fill="#fff"/>
<path d="m250 32.2v1.3999h20.9v-1.3999h-20.9z" fill="#fff"/>
<path d="m282.9 0h-1.4v64.4h1.4v-64.4z" fill="#fff"/>
<path d="m293.5 34v-1.7998c0.4-10.1 3.9-19.1 9.1-24.8-0.4-0.3-0.7-0.60015-1.1-0.90015-5.5 6-9.1 15.2-9.5 25.7v1.7998c0 9.9 2.9 18.9 7.7 25.2 0.4-0.3 0.8-0.5001 1.2-0.8001-4.6-6.1-7.4-14.8-7.4-24.4z" fill="#fff"/>
<path d="m262.8 6.5c-0.4 0.3-0.7 0.60015-1.1 0.90015 5.3 5.7 8.8 14.7 9.1 24.8v1.7998c0 9.6-2.8 18.3-7.4 24.4 0.4 0.3 0.8 0.5001 1.2 0.8001 4.7-6.3 7.7-15.3 7.7-25.2v-1.7998c-0.4-10.5-4-19.7-9.5-25.7z" fill="#fff"/>
<path d="m47.202 471-0.1001 6.8c-1.1 0.1-13 0.7-13.2 0s8.9-2.9 8.9-2.9c-0.1791-1.09-0.2462-2.196-0.2001-3.3 0.1-0.3 4.6001-0.6 4.6001-0.6z" fill="#2E3374" stroke="#2E3374" stroke-miterlimit="10" stroke-width="1.7"/>
<path d="m64.101 471-0.3 6.8c-1.1 0.1-13 0.3-13.2-0.4s8.9-2.6 8.9-2.6c-0.1403-1.094-0.1738-2.199-0.0999-3.3 0.2-0.3 4.6999-0.5 4.6999-0.5z" fill="#2E3374" stroke="#2E3374" stroke-miterlimit="10" stroke-width="1.7"/>
<path d="m72.2 386.7s8.5-60.7 0-69.3c-13.2-13.5-36.3-3.4-37.2-1.8-3.8 6.3-4.1 69.6-4.1 69.6l41.3 1.5z" fill="#fff" stroke="#2E3374" stroke-miterlimit="10" stroke-width="1.7"/>
<path d="m30.801 385.2s-19.8 25.4-16.5 38.2 25.8 49.4 25.8 49.4h9.6s-20.5-45.3-18.9-50 20.7-23.5 20.7-23.5 1.1 50.2 7 73.5h6.7s7.1-56.2 7-88.6l-41.4 1z" fill="#F8B243" stroke="#2E3374" stroke-miterlimit="10" stroke-width="1.7"/>
<path d="m56.902 289.1c-0.7-0.1-1.1 0.3-1.5 0.9-0.3-2.4-0.5001-4.7-0.7001-6.6-0.3-3.9-10.1 0-12.6 4.6 0 0-3.9 11.3 2.9 13.3 2.8 0.8 4.2001 0 4.9001-1-0.5 4.3-1.2001 11.5-1.2001 11.5s3 2.6 9.5-1.2c0 0-1.1-7.4-2.2-15 0.4809 0.276 1.0424 0.377 1.5893 0.286s1.0454-0.369 1.4107-0.786c1.2-1.6-0.1999-5.6-2.0999-6z" fill="#fff" stroke="#2E3374" stroke-miterlimit="10" stroke-width="1.7"/>
<path d="m76.3 386.7s-5.9-4.2 1.8-12.4c6.5-6.9 22.3-23.9 16.8-30.2s-18.7-11.1-18.7-11.1l-2.7-17.6s29.1 11.3 35 27.5c5.6 15.3-26.4 33.5-29.1 35.8-3.5 3-3.1 8-3.1 8z" fill="#fff" stroke="#2E3374" stroke-miterlimit="10" stroke-width="1.7"/>
<path d="m34.9 315.5s-30.8 9.7-32.2 31.3 28.2 29.6 26.3 33.2c-1.6 3-6.5 3.9-5.1 3.7s9.3 2.8 7-7.4-24.5-17.7-14.5-31c5.3-7.1 16-10.9 16-10.9s1.1-14.2 2.5-18.9z" fill="#fff" stroke="#2E3374" stroke-miterlimit="10" stroke-width="1.7"/>
<path d="m97.001 328.7c-0.6-0.4-14.4-12.4-29.3-15.8-1.1865-0.298-2.3883-0.532-3.6-0.7l-1.3 110.8h10.9s2.2-58.3 2.5-87.8l12.6 4.6c0.1-0.2 8.8-10.7 8.2-11.1z" fill="#fff" stroke="#2E3374" stroke-miterlimit="10" stroke-width="1.7"/>
<path d="m42.7 312.1c-1.1566 0.101-2.2976 0.336-3.4001 0.7-18.7 5.9-28.4 17-28.7 17.3s10.8 12 10.8 12c2.7-2.5 7.1-4.6 10.5-6-1.4 20-1.2 45.5-1.2 45.5s-10 15.7-15.5 27.7l6.3999 4.9s19-27 18.5-30.2 2.6001-71.9 2.6001-71.9z" fill="#fff" stroke="#2E3374" stroke-miterlimit="10" stroke-width="1.7"/>
<path d="m62.802 288.9c-0.3-3.3-3.8-1.6-2.8-3.9s-1.2001-7.5-5.9001-5c0 0-1.4999-5.3-4.7999-4.1s-2.8001 3-5.2001 2-4.8 2.7-3.5 5.1c1.7 3.1 1.6001 4.1 6.1001 3s6.8999-2.6 7.8999-0.8c0.8 1.4-0.0999 4.6 0.1001 6.2l-0.3 0.2c0.3 5-6.7 7.4-9.2 5.6-0.6762-0.512-1.5015-0.79-2.3501-0.79-0.8485 0-1.6737 0.278-2.3499 0.79-1.1 0.6 0.2 7.7 7.2 6.8 5.7-0.7 7.9-9.3 8.5-12.4 0.4-0.8 0.6-1.8 1.2-1 1 1.3 2.6 4.8-0.1 4.4s-0.7001 3.2 0.2999 3.1 5.7001-4 5.2001-9.2z" fill="#2E3374" stroke="#2E3374" stroke-miterlimit="10" stroke-width="1.7"/>
</svg>
