<svg width="320" height="259" viewBox="0 0 320 259" fill="none" xmlns="http://www.w3.org/2000/svg">
<path d="M320 239C320 250.046 311.046 259 300 259L0 259V0L300 0C311.046 0 320 8.9543 320 20V239Z" fill="#2E3374"/>
<path d="M56.625 135.454C56.8553 135.222 57.431 135.222 57.6612 135.106C58.6975 134.874 59.7337 134.757 60.885 134.641C64.1088 134.525 67.5628 134.641 70.7866 135.106C72.859 135.338 75.392 136.498 77.3493 135.686C80.8033 134.409 84.4876 134.293 87.8265 135.802C90.9352 137.194 93.4681 139.979 94.9649 142.996C95.1952 143.46 96.1162 145.084 96.3465 146.245C96.4616 146.477 96.5768 146.709 96.6919 146.941C96.9222 147.637 97.2676 148.333 97.4979 149.03C97.613 149.378 97.8433 149.958 97.613 150.074C98.0735 150.886 98.5341 151.698 98.8795 152.511C99.9157 154.947 100.952 157.616 101.412 160.169C101.528 161.097 101.643 162.141 101.528 163.07C101.528 163.534 101.528 164.462 101.297 164.926C100.606 165.738 100.261 164.694 100.261 164.114C100.722 160.169 99.34 156.456 97.9584 152.859C97.0373 150.538 95.5406 148.333 93.8135 146.477C92.4319 144.968 91.0503 143.692 89.2082 142.764C87.0206 141.603 84.7179 140.559 82.4152 139.631C80.9185 139.051 79.4217 138.355 77.8098 137.89C77.4644 137.774 76.8887 137.426 76.5433 137.426C75.7374 137.426 74.586 138.122 73.8952 138.355C71.3623 139.167 68.8293 140.327 66.2963 140.791C64.5693 141.139 63.0726 140.907 61.4607 140.443C61.3456 140.443 61.0001 140.211 60.6547 140.095C59.5034 139.631 58.3521 139.167 57.3158 138.355C56.7402 137.89 56.1645 137.31 55.704 136.73C55.5888 136.614 55.4737 136.382 55.4737 136.15C55.3585 136.15 55.2434 136.034 55.2434 135.918C54.898 135.454 55.9342 135.454 56.625 135.454Z" fill="#89C5CC"/>
<path d="M43.4427 152.321C44.3693 151.159 45.6432 150.113 46.9172 149.184C53.287 144.071 61.8573 141.98 69.7327 143.374C76.45 144.536 81.5459 148.835 86.2943 153.367C86.7575 153.831 87.2208 154.296 87.6841 154.761C87.7999 154.877 87.9157 154.993 87.9157 154.993C88.379 154.993 88.7264 155.226 88.8422 155.574C90.4636 156.388 92.085 157.317 93.5906 158.247C98.1074 161.152 102.74 164.173 105.288 168.936C103.203 166.845 100.887 164.754 98.5707 162.894C98.4549 162.778 98.339 162.662 98.2232 162.546C97.5283 161.965 96.7176 161.5 95.9069 161.035C95.7911 160.919 95.6753 160.919 95.5595 160.919C95.3279 160.803 95.0962 160.687 94.8646 160.571C94.7488 160.571 94.7488 160.454 94.633 160.454C93.4748 159.873 92.5483 158.944 91.3901 158.247C91.1585 158.131 90.9269 157.898 90.5794 157.782C89.8846 157.433 89.1897 157.085 88.379 156.736C88.1473 156.736 87.7999 156.504 87.4524 156.388C87.3366 156.388 86.8734 156.155 86.6417 156.039C86.1785 155.807 85.831 155.691 85.3678 155.458C84.9045 155.342 84.5571 155.11 84.0938 154.993C83.978 154.993 83.8622 154.877 83.8622 154.877C83.7464 154.877 83.5147 154.761 83.3989 154.761C82.0091 154.18 80.6194 153.715 79.2296 153.367C78.7663 153.251 77.8398 153.134 77.3765 152.902C74.597 152.205 71.5858 151.74 68.6904 151.856C69.1537 151.856 70.196 152.321 70.4276 152.437C71.2383 152.553 71.9332 152.67 72.7439 152.786C74.1337 153.018 75.5235 153.251 76.9133 153.599C79.4612 154.296 81.8933 155.11 84.2096 156.155C85.1361 156.388 86.1785 156.969 87.105 157.317C85.252 157.782 83.3989 158.712 81.5459 159.292C79.6928 159.873 77.8398 160.338 75.8709 160.803C73.323 161.268 70.6593 161.733 67.9955 161.849C65.1001 162.197 62.2048 161.965 59.4252 161.384C56.1824 160.803 52.9396 159.99 50.0442 158.363C48.6544 157.55 47.2646 156.62 45.9907 155.574C45.9907 155.574 45.8749 155.458 45.759 155.458C45.18 155.226 44.6009 154.877 44.1376 154.645C43.7902 153.831 42.5162 153.483 43.4427 152.321Z" fill="#C1DEE2"/>
<path d="M176.852 54.137C176.634 54.0295 176.087 54.137 175.868 54.137C174.885 54.2446 173.901 54.4598 172.918 54.7825C169.967 55.7508 167.016 57.0418 164.284 58.4403C162.535 59.4086 160.677 61.1299 158.601 61.2375C155.104 61.2375 151.825 62.4209 149.311 64.7877C147.016 67.0469 145.705 70.2743 145.377 73.3942C145.377 73.8246 145.049 75.6534 145.268 76.7293C145.268 76.9444 145.268 77.1596 145.268 77.4823C145.268 78.1278 145.268 78.8809 145.268 79.5264C145.268 79.8491 145.268 80.4946 145.595 80.4946C145.486 81.3553 145.377 82.1084 145.377 82.969C145.268 85.4434 145.158 88.133 145.705 90.4998C145.923 91.3604 146.142 92.2211 146.579 93.0817C146.798 93.5121 147.016 94.3727 147.453 94.5879C148.328 95.0182 148.328 94.05 148.109 93.6196C146.36 90.2846 146.36 86.7344 146.36 83.0766C146.47 80.7098 147.016 78.343 147.89 76.1914C148.546 74.3625 149.421 72.8563 150.732 71.4577C152.262 69.6289 154.011 68.1227 155.759 66.509C156.852 65.4332 158.054 64.4649 159.257 63.3891C159.475 63.1739 159.912 62.7436 160.24 62.636C161.005 62.4209 162.207 62.636 162.972 62.5284C165.486 62.4209 168.109 62.5284 170.513 62.0981C172.153 61.7754 173.464 61.1299 174.666 60.1616C174.776 60.0541 174.994 59.8389 175.213 59.5161C176.087 58.7631 176.961 57.9024 177.617 56.9342C177.945 56.3963 178.273 55.6432 178.491 54.9977C178.601 54.7825 178.601 54.5674 178.491 54.4598C178.601 54.3522 178.601 54.3522 178.601 54.2446C178.382 53.5991 177.399 53.9219 176.852 54.137Z" fill="#C1DEE2"/>
<path d="M193.819 64.2489C192.628 63.4708 191.112 63.0262 189.812 62.5816C182.556 60.1361 174.325 61.2477 167.935 65.1382C162.412 68.4728 159.488 74.0307 156.672 79.6996C156.347 80.2554 156.131 80.8112 155.914 81.367C155.914 81.4781 155.806 81.5893 155.806 81.7004C155.373 81.9227 155.156 82.1451 155.156 82.5897C153.965 83.8124 152.882 85.1463 151.907 86.5913C148.983 90.7041 145.95 95.0392 145.192 100.263C146.275 97.5957 147.683 95.0392 148.983 92.5937C149.091 92.4826 149.199 92.2603 149.199 92.1491C149.633 91.371 150.174 90.7041 150.716 90.0371C150.824 89.926 150.824 89.8148 150.932 89.8148C151.041 89.5925 151.257 89.4814 151.366 89.259C151.474 89.1479 151.474 89.1479 151.474 89.0367C152.232 88.1475 152.882 86.9248 153.64 86.0355C153.856 85.8132 153.965 85.5909 154.181 85.3686C154.723 84.8128 155.156 84.257 155.698 83.7012C155.914 83.5901 156.131 83.3678 156.347 83.0343C156.347 83.0343 156.781 82.7008 156.889 82.4785C157.214 82.1451 157.539 81.8116 157.864 81.5893C158.188 81.2558 158.513 81.0335 158.73 80.7C158.838 80.5889 158.838 80.5889 158.947 80.4777C159.055 80.3666 159.163 80.2554 159.271 80.1442C160.246 79.255 161.329 78.3657 162.412 77.4765C162.737 77.143 163.603 76.8096 163.82 76.3649C165.986 74.6976 168.477 73.3637 171.076 72.4745C170.751 72.6968 169.885 73.4749 169.668 73.586C169.018 74.0307 168.369 74.3641 167.719 74.6976C166.528 75.3645 165.445 76.0315 164.362 76.9207C162.412 78.3657 160.571 80.0331 158.838 81.7004C158.08 82.2562 157.322 83.1455 156.672 83.8124C158.513 83.5901 160.354 83.7012 162.196 83.5901C164.037 83.4789 165.769 83.2566 167.611 82.9231C169.993 82.4785 172.484 81.9227 174.867 81.1446C177.466 80.4777 179.957 79.255 182.231 77.81C184.939 76.1426 187.43 74.3641 189.379 71.9187C190.354 70.696 191.22 69.3621 191.978 68.0282C191.978 67.9171 192.086 67.9171 192.086 67.8059C192.52 67.3613 192.953 66.9167 193.278 66.472C194.036 65.6939 195.011 65.027 193.819 64.2489Z" fill="#69A1AC"/>
<path d="M270.867 176.325C270.867 176.325 273.557 182.691 274.037 183.797C274.513 184.626 275.356 185.171 276.106 185.717C276.387 185.899 276.671 186.266 276.862 186.634C277.051 186.91 277.057 187.281 276.968 187.561C275.005 193.065 268.912 195.379 268.721 195.011C268.432 194.272 269.339 192.774 270.628 192.014C271.916 191.253 272.637 189.757 272.709 188.271C272.692 187.065 272.489 185.861 271.917 184.849L269.344 180.152L270.867 176.325Z" fill="#FFE3CA"/>
<path d="M262.167 184.431L260.688 191.32C260.254 193.461 260.563 195.591 261.612 197.525C262.183 198.538 261.739 199.937 260.538 200.325C256.938 201.676 249.828 204.283 249.546 204.009C247.949 202.64 252.185 200.352 255.306 197.894C257.417 196.286 258.146 188.851 258.25 183.095L261.602 183.882C261.882 183.971 262.07 184.154 262.167 184.431Z" fill="#FFE3CA"/>
<path d="M255.982 199.834C254.504 200.32 252.837 200.529 251.262 200.737C251.076 200.74 250.892 200.835 250.8 200.929C249.332 202.064 248.605 203.188 249.544 203.917C249.919 204.19 258.228 201.102 261.46 199.942C262.105 199.654 262.466 198.906 262.085 198.262L261.418 197.065C259.765 198.295 257.922 199.157 255.982 199.834Z" fill="#FFBE55"/>
<path d="M258.199 108.199C262.197 108.699 265.696 113.29 265.121 118.495C264.792 121.47 262.161 132.181 259.22 140.668C258.06 143.933 258.668 147.544 260.841 150.205C261.219 150.663 261.502 151.031 261.787 151.49C263.12 153.792 268.143 167.549 271.152 176.787C270.983 177.996 270.264 179.584 269.342 180.061C264.22 172.338 255.756 158.073 254.328 155.588C253.566 154.207 252.708 152.641 252.131 151.164C248.82 146.85 249.124 122.622 249.706 117.88C250.281 112.675 254.108 107.701 258.199 108.199Z" fill="#C5CFD6"/>
<path d="M256.519 68.5923C256.519 68.5923 253.025 70.8697 253.531 73.8324C253.531 73.8324 251.657 72.5599 251.128 68.0197C250.803 64.776 256.519 68.5923 256.519 68.5923Z" fill="#89C5CC"/>
<path d="M255.664 86.6101C255.579 87.1682 255.587 87.725 255.502 88.283C255.324 88.8424 255.24 89.4005 255.062 89.9599C254.614 91.0801 253.98 92.2028 253.156 92.9571C251.509 94.6512 249.573 95.5142 247.724 96.0047C245.874 96.4952 244.113 96.6132 242.348 96.5456C240.584 96.478 238.91 96.2235 237.327 95.8749C235.744 95.5263 234.157 94.8993 232.571 94.2723C231.075 93.5512 229.579 92.7373 228.264 91.6424C226.949 90.5474 225.724 89.2656 224.956 87.5132C224.19 85.8535 224.07 83.9063 224.602 82.228C224.78 81.6686 225.333 81.3823 225.892 81.5599C226.359 81.7389 226.644 82.1989 226.558 82.6641C226.225 85.3604 228.017 87.3766 230.357 88.7353C232.697 90.094 235.398 90.7979 238.187 91.1293C240.882 91.3692 243.757 91.2353 245.88 90.3696C246.988 89.9825 247.814 89.3211 248.177 88.759C248.54 88.197 248.718 87.6375 248.613 86.8038L248.612 86.711C248.491 84.7637 249.952 83.0722 251.806 82.9529C253.753 82.8322 255.445 84.293 255.564 86.1475C255.66 86.3318 255.662 86.5174 255.664 86.6101Z" fill="#FFE3CA"/>
<path d="M253.099 102.053C251.648 97.8973 248.737 89.0291 248.88 86.0572C249.039 84.1987 250.502 82.6928 252.451 82.6649L264.607 82.4912C266.648 82.462 268.248 84.0169 268.37 86.057C268.513 89.5817 267.05 97.5843 266.182 101.773L253.099 102.053Z" fill="#69A1AC"/>
<path d="M258.27 184.58C258.083 184.49 257.986 184.213 257.984 184.027C258.135 175.115 258.528 163.694 258.682 161.465C258.678 161.186 258.768 160.999 258.764 160.721C256.664 150.171 256.061 127.441 255.82 123.546C255.467 118.354 258.537 112.37 262.617 112.126C266.697 111.882 271.118 115.995 272.486 120.802C273.367 123.945 270.266 140.788 266.915 153.087C266.21 155.695 266.156 158.388 266.564 160.981C266.869 162.832 266.988 164.687 266.824 166.174C266.669 168.311 264.381 177.068 262.261 184.616C262.171 184.803 261.988 184.991 261.804 185.087C260.6 185.289 259.393 185.214 258.27 184.58Z" fill="#F2F2F2"/>
<path d="M267.558 107.137C266.883 105.383 266.671 103.53 266.923 101.67C267.511 97.3923 268.415 89.2121 268.273 85.7801C268.154 83.9256 266.648 82.4622 264.792 82.4887L263.029 82.5139C262.402 84.1007 260.935 85.3282 258.708 85.36C256.481 85.3918 254.979 84.2068 254.307 82.6386L252.637 82.6625C254.548 86.5332 253.973 91.7388 250.862 94.846C251.448 96.8795 252.035 99.0057 252.43 100.671C252.927 102.984 252.776 105.399 251.879 107.547C250.354 111.281 249.234 117.329 249.639 119.644C262.495 123.08 271.219 116.551 271.219 116.551L267.558 107.137Z" fill="#69A1AC"/>
<path d="M256.732 83.4388L262.199 82.8038L260.349 76.7975L256.83 77.3119L256.732 83.4388Z" fill="#FFE3CA"/>
<path d="M256.779 80.1891C257.985 80.1718 259.275 79.5037 261.108 77.8998C262.115 76.9572 262.835 75.3692 262.821 74.3485L262.736 68.4098L253.642 68.5398C253.642 68.5398 253.038 71.704 253.731 74.7568C254.23 77.1628 255.758 80.2037 256.779 80.1891Z" fill="#FFE3CA"/>
<path d="M261.227 73.2582C261.243 74.3717 261.813 75.2917 262.462 75.2824C263.112 75.2731 263.833 73.7778 263.816 72.5715C263.8 71.458 263.052 71.0975 262.403 71.1068C261.754 71.2089 261.211 72.1447 261.227 73.2582Z" fill="#FFE3CA"/>
<path d="M263.86 69.2299C263.833 67.374 262.327 65.9106 260.471 65.9371L257.409 65.9809C256.574 65.9928 255.644 65.8205 254.895 65.3672C253.772 64.7335 252.477 65.0305 251.748 65.969C250.928 67.0945 250.67 68.4903 252.639 69.8543C253.669 70.4893 255.143 69.7257 256.076 70.0836C256.169 70.0823 256.169 70.0823 256.261 70.081L258.952 70.0425C259.88 70.0292 260.633 70.7609 260.646 71.6889C260.654 72.2456 261.126 72.7957 261.776 72.7864L261.869 72.7851L262.313 71.3866L263.827 73.4068L263.86 69.2299Z" fill="#89C5CC"/>
<path d="M247.187 110.491C247.187 110.491 250.334 109.889 250.811 110.811C251.288 111.732 251.483 112.379 250.195 113.14C248.906 113.901 246.777 114.302 245.478 114.321C244.179 114.339 241.937 113.35 241.749 113.168C241.086 112.249 243.503 112.493 244.711 112.568C245.918 112.644 247.217 112.625 247.115 111.977C247.014 111.422 244.695 111.455 244.407 110.809C243.935 110.259 247.187 110.491 247.187 110.491Z" fill="#FFE3CA"/>
<path d="M268.716 84.2888C269.472 85.2061 269.948 86.0346 270.61 86.9533C271.18 87.8732 271.749 88.7004 272.226 89.6217C273.181 91.4642 274.137 93.3996 274.817 95.5245C275.495 97.5566 275.992 99.8698 276.027 102.282C275.951 103.49 275.877 104.79 275.43 106.003L275.073 106.937C274.984 107.216 274.802 107.497 274.622 107.871C274.44 108.152 274.351 108.432 274.17 108.713L273.531 109.464C272.71 110.497 271.702 111.347 270.689 111.918C269.676 112.489 268.571 113.062 267.461 113.356L266.63 113.647C266.353 113.744 266.075 113.747 265.797 113.844C265.242 113.945 264.687 114.046 264.224 114.145L262.648 114.261L261.907 114.364L261.165 114.375C256.99 114.527 253.084 113.933 249.175 113.154C248.616 113.069 248.237 112.518 248.415 111.958C248.501 111.493 248.96 111.115 249.425 111.201C253.324 111.238 257.127 111.091 260.83 110.481L261.479 110.379L262.126 110.184L263.421 109.887L264.622 109.499C264.806 109.404 265.084 109.4 265.269 109.304L265.821 109.018C267.297 108.347 268.582 107.401 269.216 106.278C269.85 105.155 270.111 103.945 269.997 102.461C269.883 100.978 269.396 99.4072 268.724 97.839C268.052 96.2709 267.287 94.704 266.337 93.1398C265.862 92.4041 265.386 91.5756 264.912 90.8399C264.437 90.1042 263.868 89.2771 263.397 88.727L263.302 88.6355C262.166 87.074 262.414 84.9358 263.976 83.7997C265.349 82.4808 267.489 82.8214 268.716 84.2888Z" fill="#FFE3CA"/>
<path d="M255.13 68.7988C255.13 68.7988 255.009 73.3483 251.05 75.5395C251.05 75.5395 252.764 72.081 252.639 69.8553C252.514 67.6297 255.386 67.2174 255.13 68.7988Z" fill="#89C5CC"/>
<path d="M278.567 189.116C278.842 188.834 278.835 188.37 278.553 188.095C278.363 187.82 277.797 187.178 277.325 186.628C277.137 186.445 276.766 186.45 276.677 186.73C275.327 189.719 272.948 192.074 269.891 192.489C268.88 193.153 268.253 194.739 268.539 195.292C268.633 195.384 269.934 195.458 271.406 194.602C277.664 190.892 278.567 189.116 278.567 189.116Z" fill="#FFBE55"/>
<path d="M245.43 84.9C245.486 88.7973 243.576 91.5161 240.072 93.144C237.767 94.1978 237.685 94.9415 239.474 96.7721C241.923 99.243 244.371 101.714 246.912 104.183C248.23 105.464 248.059 106.487 246.777 107.712C244.122 110.256 241.468 112.893 238.906 115.435C237.167 117.131 237.263 117.408 239.414 118.491C243.808 120.748 245.54 125.085 243.746 129.38C241.862 133.955 237.07 136.344 232.501 134.831C230.076 134.031 228.291 132.478 227.328 130.079C226.464 128.05 225.999 127.963 224.444 129.563C221.697 132.201 218.951 134.839 216.298 137.569C215.018 138.886 214.088 138.807 212.769 137.434C210.318 134.777 207.684 132.309 205.14 129.654C203.069 127.549 203.335 126.71 206.104 125.649C210.074 124.2 212.884 119.52 211.996 115.82C211.007 111.565 207.158 108.464 202.986 108.802C199.186 109.135 196.525 111.308 195.091 114.855C194.015 117.469 193.366 117.571 191.389 115.558C188.658 112.812 186.02 110.066 183.383 107.412C182.254 106.314 182.426 105.384 183.432 104.348C186.27 101.616 189.016 98.8856 191.761 96.1549C193.407 94.4607 193.405 94.2751 191.254 93.1922C187.235 91.2078 185.324 87.3371 186.47 83.1442C187.527 79.1383 191.38 76.0204 195.467 76.2404C199.09 76.4671 201.713 78.193 203.154 81.6064C203.922 83.3588 204.481 83.5364 205.854 82.2174C208.51 79.6736 211.071 77.0383 213.724 74.4017C215.555 72.6121 216.019 72.6055 217.809 74.4361C220.257 76.907 222.707 79.4706 225.155 81.9415C226.755 83.4964 227.403 83.3943 228.395 81.3383C229.657 78.7216 231.58 76.9307 234.353 76.1486C240.089 74.8601 245.438 78.9601 245.43 84.9Z" fill="#89C5CC"/>
<path d="M223.523 84.6553C223.523 84.6553 226.671 84.1462 226.842 83.1228C227.013 82.0995 226.909 81.3585 225.514 81.1C224.025 80.8429 221.893 81.0589 220.601 81.5415C219.307 81.9312 217.568 83.6267 217.479 83.9064C217.217 85.0238 219.429 83.9713 220.443 83.4928C221.55 83.0129 222.844 82.6231 222.853 83.2727C222.954 83.8281 220.736 84.5095 220.654 85.2531C220.478 85.9053 223.523 84.6553 223.523 84.6553Z" fill="#FFE3CA"/>
<path d="M156.315 155.225C156.281 152.812 156.433 150.49 156.306 148.079C156.187 146.224 157.014 145.655 158.684 145.632C163.047 145.662 167.409 145.693 171.772 145.723C174.556 145.683 175.012 145.12 174.138 142.441C172.397 137.547 173.81 132.515 177.761 129.674C181.527 126.929 186.91 126.944 190.664 129.861C194.511 132.776 195.79 137.862 193.91 142.715C193.016 145.048 193.583 145.782 195.997 145.841C200.267 145.872 204.628 145.81 208.898 145.842C211.59 145.896 212.153 146.352 212.099 149.044C212.073 153.685 212.045 158.233 212.018 162.874C212.05 165.101 212.427 165.467 214.642 164.6C218.887 162.962 222.888 163.647 225.993 166.573C229.097 169.498 229.897 173.478 228.657 177.672C227.418 181.866 224.484 184.414 220.227 185.217C218.283 185.616 216.421 185.179 214.647 184.462C212.501 183.657 212.041 183.942 211.981 186.263C211.863 190.998 211.84 195.825 211.814 200.558C211.845 202.693 211.02 203.447 208.978 203.383C204.336 203.264 199.789 203.329 195.148 203.302C192.27 203.251 191.7 202.331 192.962 199.714C196.386 192.519 192.283 184.689 184.755 183.961C177.134 183.235 171.493 191.111 174.29 198.496C174.577 199.142 174.956 199.693 175.151 200.34C175.731 201.909 175.19 203.031 173.519 203.055C168.323 203.129 163.033 203.112 157.835 203.093C156.536 203.112 156.06 202.283 156.042 200.984C156.155 195.971 155.991 190.962 156.106 186.041C156.171 184.091 155.421 183.545 153.665 184.034C152.185 184.426 150.606 184.356 149.119 184.192C143.355 183.532 140.047 179.31 140.609 173.176C141.09 167.879 145.401 164.291 150.973 164.582C156.268 164.878 156.268 164.878 156.282 159.402C156.261 157.917 156.243 156.618 156.315 155.225C156.223 155.226 156.223 155.226 156.315 155.225Z" fill="#F2F2F2"/>
<path d="M99.3624 99.0528C99.3305 96.8258 99.3915 94.5975 99.3597 92.3705C99.4127 89.5854 99.8687 89.022 102.747 89.0737C106.831 89.1081 110.915 89.1425 114.906 89.1783C117.97 89.2273 118.517 88.5698 117.455 85.7079C115.907 81.2751 116.685 77.2731 119.98 74.0705C123.092 70.9632 126.979 70.258 131.084 71.6843C135.282 73.202 137.555 76.4179 138.083 80.8653C138.294 82.6257 137.948 84.394 137.322 86.0735C136.431 88.685 136.906 89.4207 139.689 89.3809C143.866 89.414 148.135 89.3529 152.312 89.386C155.004 89.4404 155.38 89.8062 155.419 92.4972C155.392 97.1381 155.365 101.686 155.338 106.327C155.371 108.647 155.841 109.011 157.87 108.147C159.9 107.283 162.032 107.159 164.173 107.593C170.131 108.807 173.651 114.882 171.976 121.032C170.3 127.181 164.128 130.425 158.251 128.282C155.451 127.208 155.177 127.49 155.128 130.554C155.095 134.731 155.06 138.815 155.12 142.99C155.145 144.753 154.967 145.313 152.831 145.158C148.37 144.757 143.919 145.007 139.465 145.07C137.609 145.097 136.955 144.828 137.761 142.774C139.732 137.827 138.075 132.282 133.947 129.186C130.188 125.898 124.526 125.886 120.486 128.914C116.354 132.036 114.761 137.442 116.69 142.519C117.366 144.365 117 144.742 115.144 144.768C110.226 144.839 105.3 144.352 100.39 144.979C99.0009 145.185 99.2661 144.253 99.3482 143.509C99.3774 139.054 99.4065 134.599 99.3428 130.145C99.3878 126.803 99.2023 126.805 96.1534 127.777C92.459 129.036 89.0177 128.529 86.0113 125.973C82.8166 123.234 81.6527 119.724 82.3366 115.631C83.5402 108.931 89.7996 105.315 96.1426 107.545C99.1278 108.616 99.3121 108.52 99.2683 105.458C99.3319 103.415 99.3929 101.187 99.3624 99.0528Z" fill="#F2F2F2"/>
<path d="M100.268 155.841C100.235 153.521 100.387 151.199 100.262 148.973C100.139 146.84 100.968 146.364 102.918 146.429C107.096 146.555 111.364 146.494 115.634 146.526C118.603 146.484 119.696 144.983 118.542 142.215C116.906 138.155 117.596 134.433 120.521 131.328C123.263 128.319 126.871 127.525 130.694 128.77C134.704 130.104 136.695 133.046 137.403 137.119C137.705 138.786 137.356 140.368 136.728 141.862C135.478 145.314 136.423 146.507 140.136 146.547C144.313 146.58 148.397 146.614 152.573 146.555C154.243 146.531 154.808 147.08 154.833 148.843C154.706 152.928 154.671 157.012 154.823 161.094C154.844 162.578 154.292 162.958 152.992 162.883C151.32 162.814 149.646 162.56 147.981 162.955C142.525 164.332 138.521 169.865 139.246 175.145C140.088 182.094 144.225 185.84 150.814 185.839C154.804 185.782 154.804 185.782 154.861 189.772C154.819 193.299 154.777 196.826 154.827 200.353C154.847 201.744 154.298 202.309 152.905 202.236C148.264 202.21 143.53 202.185 138.889 202.158C136.941 202.186 136.745 201.446 137.556 199.764C140.707 192.944 137.817 185.56 131.291 183.519C126.816 182.098 122.559 182.994 119.453 186.473C116.256 190.045 115.669 194.416 117.404 198.939C118.656 202.076 118.748 202.075 115.408 202.123C111.324 202.088 107.24 202.054 103.158 202.205C101.117 202.234 100.274 201.689 100.335 199.461C100.454 194.819 100.389 190.272 100.322 185.632C100.287 183.127 99.1599 182.215 96.8534 183.176C92.6089 184.907 88.8866 184.218 85.6826 180.83C82.761 177.716 82.3248 173.175 84.3993 168.969C86.2935 165.136 91.2791 163.302 95.6615 164.724C96.2209 164.902 96.783 165.265 97.341 165.35C99.1107 165.788 100.214 165.03 100.187 163.174C100.245 160.76 100.211 158.348 100.268 155.841Z" fill="#89C5CC"/>
<path d="M254.29 68.5312C254.589 69.9191 254.134 70.5753 258.619 72.6458C263.103 74.7163 264.482 73.7685 265.813 75.9769C265.813 75.9769 265.203 72.2732 262.679 71.01C260.248 69.7454 255.967 68.9713 254.626 66.0205C254.626 66.0205 254.092 67.6059 254.29 68.5312Z" fill="#69A1AC"/>
</svg>
