<svg width="131" height="95" viewBox="0 0 131 95" fill="none" xmlns="http://www.w3.org/2000/svg">
<g clip-path="url(#clip0)">
<path fill-rule="evenodd" clip-rule="evenodd" d="M36.7779 0.359008C37.5443 0.120132 38.3458 0.0161968 39.1474 0.0490194C41.5833 -0.0768007 44.0253 0.0399065 46.4382 0.395485C53.8656 1.48228 61.1841 3.21458 68.3107 5.57416C72.7945 7.03294 77.971 10.5523 82.7647 9.73169C86.7787 8.91113 90.9148 8.8929 94.9356 9.68247C98.9565 10.4702 102.781 12.0493 106.187 14.3269C112.492 18.9384 117.001 25.596 118.946 33.1634C119.814 35.7272 120.424 38.3731 120.769 41.0591C120.933 41.6061 121.06 42.1714 121.188 42.7549C121.534 44.3596 121.808 46.0007 122.045 47.6236C122.154 48.3348 122.446 49.8665 121.808 50.0671C122.508 51.989 123.075 53.9566 123.503 55.9569C125.021 61.8832 125.86 67.9645 126 74.0823C125.965 76.2869 125.666 78.4787 125.107 80.6103C124.833 81.6497 124.578 83.8197 123.74 84.5308C121.917 86.0443 121.553 83.5097 121.917 82.3791C124.469 73.7723 123.12 65.1655 121.316 56.4675C120.012 50.8439 117.796 45.4719 114.754 40.5667C112.525 36.6645 109.596 33.209 106.114 30.3735C101.636 26.8615 96.9698 23.5974 92.1341 20.5996C88.9984 18.5756 85.8633 16.588 82.6007 14.7645C81.7896 14.1354 80.8857 13.6376 79.9213 13.2875C77.7758 13.3659 75.6469 13.6959 73.5783 14.2722C67.5984 15.4246 61.5437 16.1503 55.4606 16.4421C51.7135 16.3874 48.0404 15.3899 44.7795 13.5428C44.2176 13.1963 43.6925 12.7915 43.212 12.3393C40.6976 10.9862 38.4347 9.20836 36.5227 7.08765C35.4453 5.75469 34.4818 4.33237 33.6428 2.83894C33.4066 2.45054 33.3102 1.99466 33.3694 1.54426C33.2788 1.49138 33.1997 1.42028 33.1372 1.33458C33.0745 1.2507 33.0295 1.15405 33.0049 1.05194C32.8773 -0.242732 35.2833 0.0307813 36.7779 0.359008Z" fill="#C1BEE8"/>
<path fill-rule="evenodd" clip-rule="evenodd" d="M1.04959 32.9891C3.78117 30.807 6.74997 28.9394 9.90033 27.4208C17.9851 23.203 26.8671 20.7207 35.9734 20.135C45.0795 19.5492 54.2077 20.8744 62.769 24.022C77.1152 29.4456 86.5281 40.7812 95.4157 52.6591C96.2863 53.8342 97.048 55.0455 97.8642 56.2749C98.0201 56.528 98.1834 56.763 98.3538 56.9799C99.3695 57.1969 100.168 57.7031 100.168 58.7878C103.439 61.2014 106.561 63.8156 109.508 66.616C118.25 74.8962 127.137 83.3571 131 95C127.228 89.4172 123.121 84.0676 118.703 78.982L117.942 78.1143C116.563 76.5938 115.08 75.1728 113.498 73.8657L112.863 73.3595C112.428 73.016 111.993 72.6544 111.539 72.329L111.068 71.9674C108.837 70.1595 106.987 67.7911 104.811 65.8748C104.303 65.4409 103.795 65.007 103.269 64.5912C103.238 64.5984 103.207 64.5984 103.178 64.5912C101.764 63.4703 100.294 62.4036 98.8073 61.3731C98.2632 61.3731 97.6646 60.7042 96.9936 60.2522C96.4404 59.9431 95.9126 59.5923 95.4157 59.2036L92.8403 57.5042L90.3006 55.9133L89.7565 55.5517L88.8678 55.0093C86.0929 53.2014 83.2454 51.6828 80.3798 50.128C79.0366 49.6923 77.7563 49.0848 76.5711 48.3201V48.2297C70.6909 45.3317 64.395 43.361 57.9083 42.3902C58.797 42.6795 61.1004 44.0535 61.6445 44.2885C63.2768 44.9936 64.9635 45.554 66.6503 46.0964C69.6871 47.1413 72.6657 48.349 75.5735 49.7122C80.6901 52.151 85.6563 54.8918 90.4457 57.92H90.5545C92.6444 59.0192 94.6231 60.3155 96.4676 61.7889C92.1148 62.1144 87.6889 63.1991 83.3361 63.7414C79.0186 64.3091 74.6689 64.5984 70.3139 64.6093C64.3422 64.6617 58.3735 64.311 52.4492 63.5607C46.0293 63.0852 39.7279 61.5828 33.7864 59.1132C26.7684 56.7087 20.194 53.1725 14.3257 48.6455C11.4681 46.2898 8.85547 43.6557 6.5269 40.7812L6.18229 40.3834C5.01592 39.606 3.90123 38.7545 2.84513 37.8343C1.12214 36.388 -1.47142 35.2671 1.04959 32.9891Z" fill="#9B97CD"/>
</g>
<defs>
<clipPath id="clip0">
<rect width="131" height="95" fill="white"/>
</clipPath>
</defs>
</svg>
