<svg id="Layer_1" data-name="Layer 1" xmlns="http://www.w3.org/2000/svg" viewBox="0 0 460 184"><defs><style>.cls-1{fill:#2e3374;}.cls-2{fill:#89c5cc;}.cls-3{fill:#dde3e8;}.cls-4{fill:#c1dee2;}.cls-5{fill:#f2f2f2;}.cls-6{fill:#afb9c5;}.cls-7{fill:#c5cfd6;}.cls-8{fill:#4f8995;}.cls-9{fill:#fcd2b1;}.cls-10{fill:#69a1ac;}.cls-11{fill:#fff;}.cls-12{fill:#68a1ac;}</style></defs><path class="cls-1" d="M0,20A20,20,0,0,1,20,0H440a20,20,0,0,1,20,20V184H0Z"/><path class="cls-2" d="M379.46,69c-.21-.41-1-.75-1.42-.95a19.63,19.63,0,0,0-4.5-2.09,89.34,89.34,0,0,0-15-3.88c-3.17-.56-7.51-.1-10.15-2.12-4.65-3.59-9.92-5.4-15.71-4.7-5.33.58-10.28,3.59-13.93,7.35a29.56,29.56,0,0,0-3.63,4.28,5.4,5.4,0,0,0-.81,1l-2.11,2.69c-.3.43-.9,1.27-.64,1.52-1.07,1-2,2-3,3-2.67,3.12-5.54,6.61-7.27,10.28a19.63,19.63,0,0,0-1.56,4.24c-.14.73-.73,2.09-.46,2.86.56,1.55,1.61.07,1.85-.71,1.21-6.15,4.73-10.9,8.66-15.6a36,36,0,0,1,9.1-7.56,24.08,24.08,0,0,1,8.52-3.45c3.82-.71,7.8-1.1,11.68-1.45,2.64-.21,5.12-.47,7.71-.52.52,0,1.55-.29,2.07,0,1.16.45,2.59,1.92,3.59,2.57,3.37,2.42,6.65,5.16,10.32,7.16a16.16,16.16,0,0,0,7.45,1.71c.26,0,.72-.12,1.35-.19a18.28,18.28,0,0,0,5.72-1c1.08-.44,2.15-1.14,3.08-1.63a1.07,1.07,0,0,0,.55-.68c.26,0,.36-.06.41-.22C382,69.84,380.46,69.36,379.46,69Z"/><path class="cls-3" d="M390.87,100.74a38.64,38.64,0,0,0-3.62-6.36,45.13,45.13,0,0,0-31.33-19.16c-10.5-1.28-19.94,2.66-29.22,7.16L324,83.79l-.51.27c-.73-.14-1.35-.08-1.6.45a64.63,64.63,0,0,0-8.2,1.83c-8.08,2.3-16.26,4.65-22.35,10.49a113.14,113.14,0,0,1,12.72-5.92c.2-.11.56-.17.77-.28l.1,0a26.31,26.31,0,0,1,4.12-1.13c.2-.11.36-.06.57-.17s.72-.12,1.18-.23c.11,0,.26,0,.36-.06,1.91-.35,3.81-1.22,5.77-1.73l1.39-.34.1-.06c1.19-.23,2.53-.41,3.77-.54a5.64,5.64,0,0,0,1.5-.14c.11-.05.88-.07,1.24-.13.73-.12,1.4-.08,2.12-.2s1.4-.08,2-.15a1.53,1.53,0,0,0,.52,0h.78c2.27-.15,4.45-.25,6.78-.3.78,0,2.13.32,2.9,0l.1,0a44,44,0,0,1,13.33,2.41c-.57-.09-2.49,0-2.91,0-1.24-.13-2.49-.26-3.63-.44a66.75,66.75,0,0,0-6.65-.69,119.92,119.92,0,0,0-12.12.36l-.11,0a30.76,30.76,0,0,0-4.86.47c2.58,1.66,5,3.68,7.44,5.4a65,65,0,0,0,7.72,4.71,102.71,102.71,0,0,0,11.37,5.16,40.46,40.46,0,0,0,12.88,3.31c5.14.56,10.18.92,15.33-.23a41.25,41.25,0,0,0,7.31-2.28l.31-.16a26.79,26.79,0,0,0,2.89-.48C389.73,102.79,391.75,102.9,390.87,100.74Z"/><path class="cls-2" d="M102,51.22a6.09,6.09,0,0,1,1.35,0,23.36,23.36,0,0,1,3.93.65,74.13,74.13,0,0,1,11.68,4c2.35,1.08,5,3.23,7.63,3a17.39,17.39,0,0,1,12.57,3.77,18.33,18.33,0,0,1,5.95,10.67,26.83,26.83,0,0,1,.57,4.31c0,.33.11.65.11,1,.11.86.11,1.72.22,2.58,0,.33.11,1.19-.33,1.3.22,1.07.44,2.15.56,3.23a40.4,40.4,0,0,1,.22,9.7,11.16,11.16,0,0,1-.9,3.34c-.22.54-.45,1.62-1,1.94-1,.65-1.12-.64-.9-1.29,1.91-4.42,1.69-9.06,1.24-13.69A29.34,29.34,0,0,0,142.33,77a19.61,19.61,0,0,0-4.16-5.93,70.92,70.92,0,0,0-7.07-5.93c-1.57-1.29-3.26-2.48-4.83-3.66-.33-.22-.89-.87-1.34-1a19.7,19.7,0,0,0-3.6.1,77.65,77.65,0,0,1-10,.11,12.21,12.21,0,0,1-5.72-2.16,2.34,2.34,0,0,1-.79-.75,15.21,15.21,0,0,1-3.37-3.13,24.56,24.56,0,0,1-1.34-2.37,1.22,1.22,0,0,1-.12-.64c-.11-.11-.22-.22-.11-.33C100,50.69,101.24,51,102,51.22Z"/><path class="cls-4" d="M79.59,66.26a29.86,29.86,0,0,1,5.3-2.48,38.24,38.24,0,0,1,29.6,1.29c7.68,3.66,12.2,10.33,16.27,17.1a18.85,18.85,0,0,1,1.13,2c.11.11.11.33.22.43.57.22.91.54.91,1a49.22,49.22,0,0,1,4.74,4.73c4.3,5,8.81,9.89,10.17,16.34a94.05,94.05,0,0,0-5.87-9.24c-.12-.22-.23-.32-.34-.54a15.83,15.83,0,0,0-2.26-2.47l-.34-.32-.68-.65-.22-.22c-1.13-1.07-2-2.47-3.06-3.65l-.79-.75c-.67-.65-1.46-1.29-2.26-1.94-.33-.11-.56-.43-.9-.75-.11-.11-.56-.43-.79-.65-.45-.32-.9-.75-1.36-1.07l-1.35-1c-.11-.11-.23-.11-.34-.21s-.34-.22-.45-.33c-1.47-1.07-2.94-2-4.41-3.12a12.25,12.25,0,0,1-2-1.18v-.11a37.44,37.44,0,0,0-10.06-4.19c.46.22,1.7,1.08,1.92,1.18l2.72,1.29c1.58.76,3.27,1.51,4.74,2.37a77,77,0,0,1,7.91,5.38h.11a20.59,20.59,0,0,1,3.05,2.36c-2.48-.11-5,.22-7.45.22a54.79,54.79,0,0,1-7.35-.33,78.31,78.31,0,0,1-9.83-1.61,36.79,36.79,0,0,1-10-3.44A37.15,37.15,0,0,1,86,75.07a30,30,0,0,1-3.84-4.62c0-.11-.11-.11-.11-.22-.56-.53-1.13-1-1.69-1.5C79.47,68.08,78,67.33,79.59,66.26Z"/><path class="cls-2" d="M157.77,111.79a24.42,24.42,0,0,0,.22,2.54c1.78,12.64,11.87,25,25.22,32.81,10.69,6.26,22.82,8.78,34.28,8.84s21.91-2.59,33.79-.84c16.75,2.49,34.69,6.76,50.8,2.61,18.3-4.71,31.42-19,32.19-36C335,105.07,317.54,91,305.2,77.54,283,53.26,248.52,27.49,213.69,26.36,172,25,161.25,62.81,160.35,92.24,160.15,99,157.56,105,157.77,111.79Z"/><path class="cls-5" d="M266.26,128.56h-164v23.56h164Z"/><path class="cls-6" d="M103.61,128.71v22.62H274.74V153a3.93,3.93,0,0,1-4.05,3.8H104.35c-5.3,0-9.59-4-9.59-8.93V132.78c0-4.94,4.29-8.93,9.59-8.93H270.69a3.93,3.93,0,0,1,4.05,3.8v1.09H103.61Z"/><path class="cls-5" d="M257.78,99.35H122.08v19.79h135.7Z"/><path class="cls-7" d="M123.61,99.75v19.39H262.49v1.46a3.27,3.27,0,0,1-3.3,3.25h-135a7.71,7.71,0,0,1-7.77-7.65v-13a7.71,7.71,0,0,1,7.77-7.65h135a3.29,3.29,0,0,1,3.3,3.25v.94H123.61Z"/><path class="cls-5" d="M257.1,108.79H123.93v10.83H257.1Z"/><path class="cls-8" d="M140,126.68l-5.19-2.82-5.18,2.82V108.77H140Z"/><path class="cls-5" d="M244.59,68.32c-4.38,1.16-12.47,5.27-14.19,12.31-2.55,10.59,2.55,26.08-5.5,41.3-2.59,4.82,44.53,11.34,44.53,11.34l9.08-53.44s-11.36-11.59-13.67-12.4C260,65.82,253.36,66,244.59,68.32Z"/><path class="cls-7" d="M278.28,80.61c1.53,4.23,5.4,29.36,1.08,35.3-.48.68,2.23,1.75,1.75,4.86-.07.52-.89,3-.89,3l-3.5,1-7.63-9.44s3.09-5.14,7.15-24.62C277.43,85,278,79.66,278.28,80.61Z"/><path class="cls-9" d="M246.8,110.2s4,11.22,13.54,14.23c1.64.52,2.68,2.5,1.88,3.14-1,.82-2.4,1-4.81,1-5,0-11.81-1.72-16.49-6.79-7-7.49-9.17-10.93-8.45-14.67S246.8,110.2,246.8,110.2Z"/><path class="cls-7" d="M230.83,77.44c-2.07,3.43-3.24,9-3.2,16.85,0,6.11,5.18,16.14,6,19.21.12.52.44,2.72.44,2.72l5.71,5.75,11.46-8-3.48-5.47-1.06.12a19.72,19.72,0,0,1-.48-4.2c.16-1.15-3.16-16.93-4.82-27C240.42,71.57,232.85,74.05,230.83,77.44Z"/><path class="cls-9" d="M258.58,123.64l7-1.67s2,2.32,1.6,2.89,0,4,0,4l-3.4,2.53-2.76-.82s-.19-1.06.73-1.14-.63-.69-1.12-.94S256.11,126.41,258.58,123.64Z"/><path class="cls-9" d="M265.62,74.07a2.45,2.45,0,0,1-3,1.63L252,72.88A2.37,2.37,0,0,1,250.33,70l4.32-15.07a2.46,2.46,0,0,1,3-1.64l10.59,2.79A2.38,2.38,0,0,1,270,59Z"/><path class="cls-10" d="M270.55,57.39a4.09,4.09,0,0,1-.41-3.15c.69-2.74-1.53-3.85-3.19-3.89-1,0-4.24,1.41-6,1.89s-1.57-.15-4.72-.67c-2.1-.37-2.59.71-3.31,2.19s-.81,7.3-.81,7.3c.28.37.72.67,1,.37s1.41-4.93,2.34-6.3S260,56,262,57s3.68,1.26,6.79.67a2.47,2.47,0,0,1,.69,1,31.1,31.1,0,0,1-.89,3,8.76,8.76,0,0,0,2.22-1.78A2.86,2.86,0,0,0,270.55,57.39Z"/><path class="cls-9" d="M254.56,65.92a1,1,0,0,1-1.1.43l-2.55-.46c-.49-.09-.77-.42-.63-.73l1.3-3.06a1,1,0,0,1,1.1-.42l2.55.45c.49.09.77.43.63.73Z"/><path class="cls-10" d="M252.63,63.54S251,69.13,250.44,71c-.49,1.69-.86,5.59,9.26,8.22,6,1.54,7-2.67,7.4-4a12.06,12.06,0,0,0-.5-5.21s-.66,2.32-.66,2.32a4.7,4.7,0,0,0-3.43-3.3c-4.59-1.2-6.41,1.09-8.39.49C252.55,69,252.1,66.32,252.63,63.54Z"/><path class="cls-8" d="M308.23,135.77c-1.4,4-25.92,18.82-34.17,17.94L249.26,155c-21.06-2.67-31.06-36.64-31.06-36.64.84-8.53,21.62,3.83,29,7.66,11.7,6.06,19.15,6.38,19.15,6.38,7.84.83,16.92-5.47,26.84-5.67C304.09,126.4,310.46,129.43,308.23,135.77Z"/><path class="cls-1" d="M253.44,131.3h0v-1.13l42.94-.8v1.12l-.12.2c-.52,1-1.52,1.13-2.64,1.17l-37.38.72a2.71,2.71,0,0,1-2.68-1Z"/><path class="cls-1" d="M263.78,131.26h0l-.12.2a1.6,1.6,0,0,1-.6.56l-6.54.12a2.86,2.86,0,0,1-2.6-.84l-.12-.16,0,0v-.52l9.94-.2Z"/><path class="cls-1" d="M269.6,130.85l21.45-.4v-.76l-21.49.44Z"/><path class="cls-1" d="M264,129.93l5.18-22a1.45,1.45,0,0,1,1.24-1.08l30.16-.57a.79.79,0,0,1,.76,1l-5.18,22Z"/><path class="cls-9" d="M245.31,160.55c2.86.54,5.06-3.17,5.06-3.17l7.41-6.5-1.58-4.41-14.44,7.25S242.42,160,245.31,160.55Z"/><path class="cls-5" d="M250.29,156.47a9.08,9.08,0,0,1-.59,2.05c-.58,1.68-1.33,2.25-2.08,2.5-3,.9-5.14.45-12.32,1.85s-9.35.32-11.44-3,.08-6,3.59-6.27c5.05-.37,7.89.2,10.52-.21s2.92-1.06,4.55-2.09,2.93,4.72,1.51,6C242.73,158.44,249.24,158.6,250.29,156.47Z"/><path class="cls-5" d="M248,159.78c-2.87.89-5,.44-12,1.81s-9.08.32-11.11-3a4,4,0,0,1-.44-4c-1.54,1.09-2.07,3-.69,5.23,2,3.3,4.13,4.34,11.11,3s9.08-.93,12-1.81a2.66,2.66,0,0,0,1.62-1.49A2.3,2.3,0,0,1,248,159.78Z"/><path class="cls-10" d="M244.59,150.82s53.78-22.22,56.84-22.26c10.38-.08,8,10.46,2.74,15.45-6.21,5.86-53.41,16.59-53.41,16.59Z"/><path class="cls-9" d="M265.48,154l-14.29-14.37,6.11-6.37,15.56,17.37Z"/><path class="cls-10" d="M269.09,142.36s-36.94-34.61-39.4-35.65c-8.44-3.51-13.64,6-13.36,9.32.4,4.26,37.9,38.92,37.9,38.92Z"/><path class="cls-5" d="M290.73,155.12c.84.8,1,3.25,1,3.25s-12.23,4.81-16.52,4.89a20.21,20.21,0,0,1-5-1c-.32-.08-1.08-1-1.4-1-.6-.16-.73.4-1.21.24a15.22,15.22,0,0,1-2.28-.88c-2.61-5.69-1.73-8.5-1.73-8.5s5.62,1.68,4.66.36c-2.05-2.81,3.84-5.65,5.13-4.17C278.62,154.24,288.24,152.75,290.73,155.12Z"/><path class="cls-5" d="M291.41,156.32c-3.77,1.56-11.67,4.73-13.23,4.85-6.46.48-10.95-1.88-13.95-3.29.28.81.6,1.73,1,2.69a13.33,13.33,0,0,0,2.28.88c.53.16.89.35,1.45.55l1.16.26a22.22,22.22,0,0,0,5,1c4.29-.08,16.52-4.89,16.52-4.89A7.29,7.29,0,0,0,291.41,156.32Z"/><path class="cls-11" d="M221.13,23.25c1,4.25-1.24,10.47-5.49,11.44s-8.92-3.72-9.88-8a7.88,7.88,0,0,1,15.37-3.47Z"/><path class="cls-12" d="M216.63,38.07c-.82.18-1.61-.19-2.53-1.15-.62-.65-.86-3.11-1-5.67-.08-.69-.06-1.32-.12-1.93-.91-1.6-1.09-2.74-.93-3.09a.29.29,0,0,1,.26-.21c.26.1.51.51.68,1.26a18.76,18.76,0,0,1,.27,1.9c.11.13.12.2.23.33.72,1.1,1.12.77,1.23.59a2.9,2.9,0,0,0,.64-1.71,7.06,7.06,0,0,1-.45-3,.58.58,0,0,1,.17-.27c.15,0,.35.15.36.23a5.43,5.43,0,0,1,.29,3,24.2,24.2,0,0,0,3.12,6.52L219,35l-.06.09C218.85,35.37,218.18,37.64,216.63,38.07Zm-3.3-8c0,.46,0,.85.06,1.32.19,2.23.37,4.78.88,5.29a2.62,2.62,0,0,0,2.28,1.06c1.19-.27,1.83-2,2-2.41a27.16,27.16,0,0,1-3-6,3,3,0,0,1-.65,1.32C214.68,30.82,214.12,31.11,213.33,30Zm-1-3.46a3.4,3.4,0,0,0,.51,1.93,5.37,5.37,0,0,0-.16-1.07A1.76,1.76,0,0,0,212.31,26.57Zm2.88-.8a7.54,7.54,0,0,0,.25,1.82A3.18,3.18,0,0,0,215.19,25.77Z"/><path class="cls-10" d="M216.65,39.16a3.08,3.08,0,0,1-3.6-2l-1-2.84.88.11a7,7,0,0,0,5-1.2l.6-.45.36,3A3,3,0,0,1,216.65,39.16Z"/><path class="cls-11" d="M248.47,32.44c-.41,2.37-2.87,5-5.16,4.62s-3.68-3.8-3.26-6.09a4.27,4.27,0,1,1,8.42,1.47Z"/><path class="cls-12" d="M243.05,39a1.48,1.48,0,0,1-1-1.1c-.19-.5.25-1.7.72-3.06a5.42,5.42,0,0,0,.32-1,2.34,2.34,0,0,1,.23-1.77.13.13,0,0,1,.22,0c.09,0,.16.35,0,.78a9.28,9.28,0,0,1-.24,1l.05.23c.15.67.37.62.52.58a3.28,3.28,0,0,0,.7-.7,5.75,5.75,0,0,1,.41-1.67.22.22,0,0,1,.14-.1.27.27,0,0,1,.12.2,2.66,2.66,0,0,1-.5,1.61,12.53,12.53,0,0,0,.19,3.95l0,.08-.06.09C244.72,38.07,243.93,39.11,243.05,39Zm0-4.79c-.1.26-.14.43-.24.68-.36,1.18-.85,2.47-.69,2.83.21.58.53,1,.92,1,.65.09,1.35-.62,1.54-.82a12.27,12.27,0,0,1-.19-3.65,1.26,1.26,0,0,1-.59.53C243.62,35,243.23,35,243.06,34.21Zm.27-1.94a1.72,1.72,0,0,0-.16,1c0-.24.14-.42.11-.57A.73.73,0,0,0,243.33,32.27Zm1.61.18a5.16,5.16,0,0,0-.25,1A2,2,0,0,0,244.94,32.45Z"/><path class="cls-10" d="M242.85,39.52a1.65,1.65,0,0,1-1.35-1.82l.17-1.68.44.21a3.63,3.63,0,0,0,2.77.47l.37-.08-.42,1.59A1.84,1.84,0,0,1,242.85,39.52Z"/><path class="cls-11" d="M221.36,51.35c.54,1.69-.13,4.27-1.81,4.81s-3.73-1.2-4.26-2.88a3.17,3.17,0,0,1,2.07-4A3.22,3.22,0,0,1,221.36,51.35Z"/><path class="cls-12" d="M220.09,57.53a1.23,1.23,0,0,1-1.1-.38,5,5,0,0,1-.58-2.22,2.47,2.47,0,0,1-.1-.77,1.88,1.88,0,0,1-.51-1.22c.06-.09.06-.09.13-.1a1.2,1.2,0,0,1,.35.47c.05.22.1.45.16.74,0,.08.09.06.11.14.33.39.46.29.52.19a1.17,1.17,0,0,0,.22-.75,11.44,11.44,0,0,1-.35-1.18.08.08,0,0,1,.06-.09.15.15,0,0,1,.18.11,1.69,1.69,0,0,1,.2,1.22,10.8,10.8,0,0,0,1.52,2.55l0,.08v.07C220.86,56.41,220.69,57.39,220.09,57.53Zm-1.65-3.16.11.52a5,5,0,0,0,.57,2.15c.38.31.73.46.94.34a1.54,1.54,0,0,0,.69-1.1,10.74,10.74,0,0,1-1.47-2.34,3,3,0,0,1-.18.59C219.06,54.7,218.78,54.84,218.44,54.37Zm-.53-1.29c-.06.09,0,.39.26.8,0-.15-.07-.3-.1-.45S218,53.06,217.91,53.08Zm1.14-.5c0,.08.09.38.17.75A1.26,1.26,0,0,0,219.05,52.58Z"/><path class="cls-10" d="M220.12,58a1.19,1.19,0,0,1-1.49-.68l-.49-1.15h.31a2.47,2.47,0,0,0,2-.68l.26-.22.27,1.2A1.32,1.32,0,0,1,220.12,58Z"/></svg>