<svg width="460" height="184" viewBox="0 0 460 184" fill="none" xmlns="http://www.w3.org/2000/svg">
<path d="M0 0H460V184H0V0Z" fill="#2E3374"/>
<path fill-rule="evenodd" clip-rule="evenodd" d="M124.286 110.886C120.828 107.325 117.358 103.808 113.494 100.672C111.218 98.8245 108.818 97.1441 106.468 95.392C106.739 95.6295 107.005 95.874 107.264 96.1243C106.531 95.6263 105.571 95.3449 104.793 94.8839C103.925 94.3699 103.096 93.7817 102.283 93.1889C100.695 92.032 99.1312 90.8532 97.4992 89.7566C95.6809 88.535 93.7965 87.4062 91.9472 86.2306C90.3778 85.2329 88.7891 84.1409 87.1101 83.3253C86.195 82.8808 85.2778 82.3538 84.3589 81.8902C84.0514 81.735 80.931 79.7647 80.9389 79.7588C81.1114 79.6288 82.6816 80.3666 82.9244 80.4658C83.6338 80.7556 84.3122 81.1021 84.9942 81.4476C84.6198 80.7093 84.3235 79.9335 84.1622 79.117C84.1124 78.8649 83.7132 77.0301 83.9174 76.8761C84.0195 76.7992 85.015 80.082 85.066 80.3977C85.1074 80.654 85.1013 81.0232 85.1853 81.266C85.3207 81.658 85.3139 81.5397 85.6124 81.7605C86.1595 82.1653 86.8856 82.4183 87.4777 82.7567C87.797 82.935 88.7855 83.6417 89.3809 83.8432C91.1825 84.7182 93.0086 86.0644 94.7203 87.1821C94.2711 86.3378 93.9292 85.4549 93.6799 84.5297C93.6206 84.3101 92.9808 82.3397 93.136 82.2227C93.3107 82.0911 94.5298 85.1005 94.602 85.3854C94.7361 85.9145 94.7639 86.5036 94.9319 87.0185C95.1163 87.5836 95.6915 87.784 96.21 88.1134C98.1175 89.3254 99.9595 90.6132 101.771 91.9601C103.747 88.4451 101.468 84.2004 99.5478 81.2512C98.1634 79.1256 96.2997 77.3033 94.3318 75.7124C91.7056 73.5891 88.7008 71.8929 85.6997 70.3414C82.2029 68.5335 78.4234 67.4134 74.4942 66.8959C72.4391 66.6252 70.3366 66.6328 68.2608 66.7196C67.2468 66.7619 66.2735 66.8962 65.3017 67.2269C64.8637 67.3762 64.4404 67.5642 64.0279 67.7748C63.7145 67.9348 62.9563 68.1037 62.7761 68.3421C61.2927 70.2729 60.5338 72.1968 60.6497 74.623C60.7593 76.9196 61.4846 79.2175 62.469 81.2661C63.5652 83.5472 64.9752 85.6176 66.8191 87.3553C68.226 88.6811 69.7988 89.8349 71.3613 90.9736C76.9187 95.0237 83.9644 98.5462 91.1621 97.6413C93.492 97.3484 95.708 96.5336 97.7789 95.4264C98.2669 95.1655 98.7519 94.9016 99.2125 94.5935C99.5231 94.3859 100.353 93.4501 100.666 93.4161C101.094 93.3695 102.016 94.2404 102.418 94.5055C105.471 96.5208 108.444 98.6451 111.354 100.855C114.451 103.207 117.396 105.719 120.254 108.349C121.469 109.467 122.677 110.588 123.857 111.744C124.132 112.013 124.804 113.004 125.302 113.049C125.617 113.077 125.83 112.808 125.785 112.516C125.707 112.009 124.64 111.251 124.286 110.886Z" fill="#C1DEE2"/>
<path fill-rule="evenodd" clip-rule="evenodd" d="M96.1899 103.336C95.6591 102.807 95.0629 102.33 94.363 101.989C94.1861 101.903 92.868 101.326 92.7821 101.453C92.5821 101.748 96.0304 103.167 96.1899 103.336ZM102.439 99.8012C102.435 99.8235 102.892 100.538 103.017 100.757C103.281 101.224 103.526 101.7 103.756 102.177C103.415 101.335 103.065 100.554 102.439 99.8012ZM70.4775 105.614C70.0374 105.745 69.5081 105.23 70.0791 105.104C70.5411 105.002 70.5184 104.978 70.7259 104.635C70.8943 104.357 70.9981 104.017 71.1459 103.726C71.4594 103.106 71.8151 102.515 72.2517 101.962C73.1873 100.776 74.3272 99.7532 75.6058 98.8917C77.8371 97.3883 80.339 96.0142 82.993 95.3239C87.2127 94.2262 92.0154 94.1583 96.2418 94.9194C98.8594 95.3907 101.251 96.21 102.99 98.1507C103.858 99.1205 104.54 100.257 104.838 101.508C104.916 101.835 104.902 102.199 104.999 102.519C105.149 103.011 105.083 102.88 105.708 102.976C106.391 103.08 107.073 103.187 107.755 103.296C109.54 103.58 111.336 103.882 113.076 104.344C113.649 104.495 114.209 104.681 114.756 104.897C115.17 105.06 116.818 105.571 117.018 106.066C117.351 106.89 116.234 106.516 115.888 106.337C115.584 106.18 115.272 106.033 114.955 105.898C114.158 105.559 113.327 105.296 112.478 105.087C111.56 104.861 110.623 104.692 109.69 104.523C108.82 104.366 107.947 104.222 107.073 104.085C106.587 104.009 106.101 103.935 105.614 103.861C105.448 103.836 105.155 103.704 105.178 103.902C104.155 103.721 103.05 103.747 102.009 103.697C100.734 103.636 99.4536 103.586 98.174 103.622C97.2512 103.649 96.3275 103.705 95.4094 103.819C94.8729 103.886 94.3449 103.983 93.8185 104.107C93.5294 104.175 92.3892 104.319 92.2317 104.551C92.2994 104.451 93.5577 104.548 93.7179 104.542C94.3585 104.52 94.9941 104.462 95.6324 104.396C96.8169 104.274 98.0018 104.211 99.1899 104.22C99.1854 104.412 98.3738 104.754 98.1757 104.881C97.7315 105.167 97.3061 105.478 96.9091 105.82C96.2099 106.421 95.3727 107.166 94.889 107.879C95.0316 107.669 95.7347 107.396 95.9843 107.235C96.384 106.978 96.7756 106.704 97.1462 106.41C97.4883 106.14 97.8075 105.847 98.1214 105.548C98.4353 105.249 98.8613 104.628 99.2737 104.429C99.2986 104.417 99.4784 104.548 99.5805 104.503C99.6835 104.458 99.8118 104.234 99.8379 104.225C100.222 104.089 100.951 104.259 101.355 104.276C102.401 104.32 103.447 104.378 104.493 104.431C104.817 104.448 105.093 104.38 105.215 104.6C105.345 104.835 105.106 105.452 105.038 105.707C104.786 106.657 104.338 107.508 103.633 108.244C102.313 109.622 100.684 110.541 98.8448 111.155C91.799 113.509 84.3031 114.452 77.2594 112.003C74.3433 110.99 69.9517 109.178 70.4775 105.614Z" fill="#89C5CC"/>
<path fill-rule="evenodd" clip-rule="evenodd" d="M383.084 63.2231C382.909 63.0504 382.452 62.9334 382.242 62.8594C381.371 62.5521 380.457 62.3429 379.542 62.2134C376.72 61.8187 373.813 61.6954 370.97 61.7915C369.164 61.8525 366.887 62.595 365.215 61.7803C362.302 60.3609 359.21 59.973 356.114 60.9733C353.284 61.888 350.927 64.0522 349.38 66.532C349.146 66.9064 348.22 68.2748 347.877 69.2369C347.761 69.4272 347.649 69.6194 347.544 69.8158C347.248 70.3735 346.971 70.9446 346.709 71.5187C346.596 71.7637 346.325 72.3011 346.537 72.4424C346.078 73.0738 345.656 73.7318 345.286 74.4203C344.208 76.4225 343.028 78.6193 342.437 80.8195C342.218 81.6342 342.097 82.4676 342.073 83.3116C342.062 83.7287 341.926 84.5516 342.155 84.9024C342.641 85.6468 343.069 84.7616 343.067 84.3106C343.044 80.8737 344.454 77.8487 346.044 74.8458C347.072 72.904 348.549 71.2036 350.148 69.7004C351.442 68.4837 352.775 67.5699 354.411 66.8733C356.412 66.0215 358.511 65.4008 360.591 64.7748C361.96 64.3628 363.328 63.967 364.72 63.6423C365.03 63.57 365.533 63.3436 365.859 63.3885C366.548 63.4833 367.45 64.1391 368.088 64.4258C370.185 65.369 372.286 66.4937 374.501 67.1371C375.921 67.55 377.313 67.5083 378.738 67.2077C378.884 67.1772 379.134 67.0807 379.445 66.9363C380.508 66.684 381.53 66.3219 382.461 65.7226C382.997 65.3772 383.506 64.9049 383.97 64.4724C384.109 64.3432 384.185 64.1831 384.209 64.0243C384.306 63.9893 384.373 63.942 384.396 63.8788C384.562 63.412 383.664 63.2759 383.084 63.2231Z" fill="#89C5CC"/>
<path fill-rule="evenodd" clip-rule="evenodd" d="M392.815 79.1423C392.103 78.034 391.083 77.0431 390.14 76.1312C385.102 71.2207 377.885 68.6665 370.974 69.2143C365.091 69.6806 360.394 72.8827 355.865 76.3374C355.415 76.6805 354.998 77.0514 354.571 77.4184C354.479 77.4971 354.393 77.5635 354.311 77.6248C353.915 77.6007 353.587 77.7075 353.472 78.0706C352.004 78.6116 350.581 79.2494 349.181 79.9753C345.061 82.1118 340.864 84.2908 338.191 88.1992C340.148 86.5348 342.305 84.9895 344.452 83.5745C344.575 83.4933 344.699 83.4146 344.824 83.3372C344.837 83.329 344.85 83.3206 344.863 83.3124C345.537 82.8965 346.234 82.5357 346.959 82.2194C346.967 82.2158 346.975 82.2123 346.983 82.2089C347.078 82.1674 347.175 82.1279 347.271 82.088C347.471 82.0055 347.672 81.9247 347.876 81.8484C347.945 81.8222 348.014 81.7948 348.082 81.7661C349.101 81.3421 350.04 80.6551 351.053 80.1752C351.286 80.0692 351.522 79.9667 351.76 79.8683C351.774 79.8626 351.788 79.8569 351.802 79.8513C352.443 79.5874 353.099 79.3487 353.762 79.1267C353.97 79.1573 354.256 79.0003 354.56 78.9027C354.621 78.8845 355.052 78.7875 355.253 78.6851C355.632 78.5664 356.01 78.4471 356.388 78.3297C356.383 78.3272 356.378 78.3247 356.372 78.3223C356.741 78.2148 357.11 78.1088 357.476 78.0027C357.556 77.9794 357.637 77.9564 357.718 77.9332C357.848 77.897 357.977 77.861 358.107 77.825C359.316 77.4884 360.536 77.1934 361.764 76.9257C362.202 76.8302 362.994 76.8569 363.373 76.6357C363.387 76.6274 363.398 76.6178 363.41 76.6088C365.902 76.2016 368.438 76.0645 370.934 76.4438C370.574 76.456 369.573 76.718 369.35 76.7454C368.668 76.8292 367.987 76.861 367.3 76.8959C366.071 76.9586 364.834 77.0556 363.623 77.2544C361.407 77.618 359.251 78.1763 357.111 78.8055C357.096 78.8065 357.08 78.8063 357.065 78.8078C356.222 78.8916 355.283 79.3528 354.479 79.6095C356.055 80.1946 357.572 81.0669 359.121 81.736C360.665 82.4034 362.229 82.9908 363.841 83.4559C365.984 84.0741 368.277 84.6453 370.555 84.9755C372.968 85.5523 375.489 85.5445 377.925 85.327C380.807 85.0696 383.594 84.6888 386.245 83.5267C387.548 82.9555 388.813 82.2663 389.972 81.4488C390.023 81.4132 390.079 81.376 390.138 81.3378C390.654 81.1709 391.159 80.9779 391.647 80.7518C392.421 80.3934 393.534 80.2612 392.815 79.1423Z" fill="#69A1AC"/>
<path fill-rule="evenodd" clip-rule="evenodd" d="M166.007 111.986C166.003 111.996 165.999 112.006 165.993 112.018C165.999 112.008 166.007 111.968 166.007 111.986Z" fill="#C5CFD6"/>
<path fill-rule="evenodd" clip-rule="evenodd" d="M165.998 112.001C165.998 112.003 165.996 112.007 165.996 112.011C165.996 112.001 166.014 111.971 165.998 112.001Z" fill="#C5CFD6"/>
<path fill-rule="evenodd" clip-rule="evenodd" d="M166.067 111.832C166.053 111.872 166.035 111.91 166.019 111.95C166.027 111.93 166.035 111.914 166.043 111.894C165.835 112.414 165.967 112.076 166.067 111.832Z" fill="#C5CFD6"/>
<path fill-rule="evenodd" clip-rule="evenodd" d="M166.022 111.953C166.014 111.971 166.006 111.991 165.998 112.009C165.94 112.121 166.022 111.953 166.022 111.953Z" fill="#C5CFD6"/>
<path fill-rule="evenodd" clip-rule="evenodd" d="M165.999 112.002C165.999 112 165.999 112 166.001 111.998C165.999 112 165.999 112 165.999 112.002Z" fill="#C5CFD6"/>
<path fill-rule="evenodd" clip-rule="evenodd" d="M165.99 112.016C165.978 112.04 166.046 111.924 165.99 112.016V112.016Z" fill="#C5CFD6"/>
<path fill-rule="evenodd" clip-rule="evenodd" d="M165.998 112.002L166.002 111.998C166 112 166 112.002 165.998 112.002Z" fill="#C5CFD6"/>
<rect x="118" y="60" width="95" height="63" rx="4" fill="#DDE3E9"/>
<path fill-rule="evenodd" clip-rule="evenodd" d="M192 90C196.971 90 201 85.9706 201 81C201 76.0294 196.971 72 192 72C187.029 72 183 76.0294 183 81C183 85.9706 187.029 90 192 90Z" fill="white"/>
<path fill-rule="evenodd" clip-rule="evenodd" d="M171.301 88.5L149.651 75L128 88.5H134V123H166V88.5H171.301Z" fill="#AFB9C5"/>
<path fill-rule="evenodd" clip-rule="evenodd" d="M189 100.6L173 91L157 100.6H161.215V123H184.863V100.6H189Z" fill="#C5CFD6"/>
<path fill-rule="evenodd" clip-rule="evenodd" d="M150 103C153.314 103 156 100.314 156 97C156 93.6863 153.314 91 150 91C146.686 91 144 93.6863 144 97C144 100.314 146.686 103 150 103Z" fill="#C5CFD6"/>
<path fill-rule="evenodd" clip-rule="evenodd" d="M173 107C174.657 107 176 105.657 176 104C176 102.343 174.657 101 173 101C171.343 101 170 102.343 170 104C170 105.657 171.343 107 173 107Z" fill="#DDE3E9"/>
<path fill-rule="evenodd" clip-rule="evenodd" d="M298.007 111.986C298.003 111.996 297.999 112.006 297.993 112.018C297.999 112.008 298.007 111.968 298.007 111.986Z" fill="#C5CFD6"/>
<path fill-rule="evenodd" clip-rule="evenodd" d="M297.998 112.001C297.998 112.003 297.996 112.007 297.996 112.011C297.996 112.001 298.014 111.971 297.998 112.001Z" fill="#C5CFD6"/>
<path fill-rule="evenodd" clip-rule="evenodd" d="M298.067 111.832C298.053 111.872 298.035 111.91 298.019 111.95C298.027 111.93 298.035 111.914 298.043 111.894C297.835 112.414 297.967 112.076 298.067 111.832Z" fill="#C5CFD6"/>
<path fill-rule="evenodd" clip-rule="evenodd" d="M298.022 111.953C298.014 111.971 298.006 111.991 297.998 112.009C297.94 112.121 298.022 111.953 298.022 111.953Z" fill="#C5CFD6"/>
<path fill-rule="evenodd" clip-rule="evenodd" d="M297.999 112.002C297.999 112 297.999 112 298.001 111.998C297.999 112 297.999 112 297.999 112.002Z" fill="#C5CFD6"/>
<path fill-rule="evenodd" clip-rule="evenodd" d="M297.99 112.016C297.978 112.04 298.046 111.924 297.99 112.016V112.016Z" fill="#C5CFD6"/>
<path fill-rule="evenodd" clip-rule="evenodd" d="M297.998 112.002L298.002 111.998C298 112 298 112.002 297.998 112.002Z" fill="#C5CFD6"/>
<rect x="250" y="60" width="95" height="63" rx="4" fill="#DDE3E9"/>
<path fill-rule="evenodd" clip-rule="evenodd" d="M324 90C328.971 90 333 85.9706 333 81C333 76.0294 328.971 72 324 72C319.029 72 315 76.0294 315 81C315 85.9706 319.029 90 324 90Z" fill="white"/>
<path fill-rule="evenodd" clip-rule="evenodd" d="M303.301 88.5L281.651 75L260 88.5H266V123H298V88.5H303.301Z" fill="#AFB9C5"/>
<path fill-rule="evenodd" clip-rule="evenodd" d="M321 100.6L305 91L289 100.6H293.215V123H316.863V100.6H321Z" fill="#C5CFD6"/>
<path fill-rule="evenodd" clip-rule="evenodd" d="M282 103C285.314 103 288 100.314 288 97C288 93.6863 285.314 91 282 91C278.686 91 276 93.6863 276 97C276 100.314 278.686 103 282 103Z" fill="#C5CFD6"/>
<path fill-rule="evenodd" clip-rule="evenodd" d="M305 107C306.657 107 308 105.657 308 104C308 102.343 306.657 101 305 101C303.343 101 302 102.343 302 104C302 105.657 303.343 107 305 107Z" fill="#DDE3E9"/>
<g clip-path="url(#clip0)">
<path d="M228.2 113.3L236.2 105.3C236.5 105.1 236.6 104.7 236.6 104.4C236.6 104 236.5 103.7 236.2 103.4L228.2 95.4C228 95.2 227.6 95 227.3 95C227 95 226.6 95.1 226.4 95.4C226.1 95.7 226 96 226 96.4C226 96.8 226.1 97.1 226.4 97.3L233.5 104.4L226.4 111.5C226.1 111.8 226 112.1 226 112.5C226 112.9 226.1 113.2 226.4 113.4C226.6 113.7 227 113.8 227.3 113.8C227.6 113.8 228 113.6 228.2 113.3Z" fill="#AFB9C5"/>
<path d="M234.4 87.3L226.4 79.3C226.1 79.1 226 78.7 226 78.4C226 78 226.1 77.7 226.4 77.4L234.4 69.4C234.6 69.2 235 69 235.3 69C235.6 69 236 69.1 236.2 69.4C236.5 69.7 236.6 70 236.6 70.4C236.6 70.8 236.5 71.1 236.2 71.3L229.1 78.4L236.2 85.5C236.5 85.8 236.6 86.1 236.6 86.5C236.6 86.9 236.5 87.2 236.2 87.4C236 87.7 235.6 87.8 235.3 87.8C235 87.8 234.6 87.6 234.4 87.3Z" fill="#AFB9C5"/>
</g>
<defs>
<clipPath id="clip0">
<rect x="226" y="69" width="10.6" height="44.8" fill="white"/>
</clipPath>
</defs>
</svg>
