<svg width="461" height="315" viewBox="0 0 461 315" fill="none" xmlns="http://www.w3.org/2000/svg">
<path d="M461 301.496C461 308.881 357.829 314.894 230.5 314.894C103.171 314.894 0 308.881 0 301.496C0 294.112 103.171 288.099 230.5 288.099C357.829 288.099 461 294.112 461 301.496Z" fill="#D9EDEF"/>
<path d="M45.6782 280.925C44.8443 282.044 44.0696 283.206 43.3574 284.406L45.6782 280.925Z" fill="#2E3374"/>
<path d="M45.6782 280.925C44.8443 282.044 44.0696 283.206 43.3574 284.406" stroke="#2E3374" stroke-width="1.5" stroke-miterlimit="10"/>
<path d="M95.0483 57.8097L101.694 57.2822C102.443 57.3405 103.146 57.663 103.679 58.192C104.211 58.721 104.539 59.4221 104.602 60.1702C104.665 60.9182 104.461 61.6644 104.025 62.2755C103.589 62.8866 102.95 63.3228 102.222 63.5062L95.1538 64.0337L95.0483 57.8097Z" fill="#FF808C"/>
<path d="M373.547 14.558H244.003V114.037H373.547V14.558Z" fill="#D9EDEF"/>
<path d="M286.833 25.9511H251.282V57.1768H286.833V25.9511Z" fill="white"/>
<path d="M280.82 36.7113H257.4V38.5046H280.82V36.7113Z" fill="#AFDADD"/>
<path d="M280.82 42.3024H257.4V44.0958H280.82V42.3024Z" fill="#AFDADD"/>
<path d="M326.498 25.9511H290.947V57.1768H326.498V25.9511Z" fill="white"/>
<path d="M320.485 36.7113H297.065V38.5046H320.485V36.7113Z" fill="#AFDADD"/>
<path d="M320.485 42.3024H297.065V44.0958H320.485V42.3024Z" fill="#AFDADD"/>
<path d="M366.163 25.9511H330.612V57.1768H366.163V25.9511Z" fill="white"/>
<path d="M360.15 36.7113H336.73V38.5046H360.15V36.7113Z" fill="#AFDADD"/>
<path d="M360.15 42.3024H336.73V44.0958H360.15V42.3024Z" fill="#AFDADD"/>
<path d="M286.833 66.249H251.282V101.272H286.833V66.249Z" fill="white"/>
<path d="M280.82 77.0092H257.4V78.8025H280.82V77.0092Z" fill="#AFDADD"/>
<path d="M280.82 82.6H257.4V84.3934H280.82V82.6Z" fill="#AFDADD"/>
<path d="M326.498 66.249H290.947V101.272H326.498V66.249Z" fill="white"/>
<path d="M320.485 77.0092H297.065V78.8025H320.485V77.0092Z" fill="#AFDADD"/>
<path d="M320.485 82.6H297.065V84.3934H320.485V82.6Z" fill="#AFDADD"/>
<path d="M366.163 66.249H330.612V101.272H366.163V66.249Z" fill="white"/>
<path d="M360.15 77.0092H336.73V78.8025H360.15V77.0092Z" fill="#AFDADD"/>
<path d="M360.15 82.6H336.73V84.3934H360.15V82.6Z" fill="#AFDADD"/>
<path d="M217.63 173.113C218.194 172.955 218.729 172.705 219.212 172.374C219.852 171.961 220.404 171.425 220.835 170.797C221.266 170.169 221.569 169.462 221.726 168.717C221.883 167.972 221.891 167.203 221.749 166.454C221.607 165.706 221.319 164.993 220.9 164.357C206.975 142.836 212.039 113.615 221.85 89.8793C223.01 86.9256 214.043 84.8157 211.09 83.6553C210.39 83.3713 209.641 83.2278 208.886 83.2332C208.131 83.2385 207.385 83.3925 206.689 83.6864C205.994 83.9803 205.363 84.4083 204.833 84.9459C204.303 85.4836 203.884 86.1205 203.6 86.8201C198.108 100.383 195.942 115.064 197.282 129.635C198.621 144.207 203.428 158.246 211.301 170.581C211.928 171.643 212.889 172.467 214.034 172.925C215.179 173.383 216.444 173.449 217.63 173.113Z" fill="white" stroke="#2E3374" stroke-width="1.7" stroke-miterlimit="10"/>
<path d="M196.215 111.716C197.059 103.066 199.485 89.9847 206.659 81.1234C208.557 78.8026 211.933 76.9037 214.992 77.4312C218.896 78.1696 221.111 83.8662 222.06 87.2419C223.643 93.044 219.74 99.69 217.841 105.176C217.524 106.23 214.887 117.94 214.887 117.94C208.663 115.936 202.439 113.826 196.215 111.716Z" fill="white" stroke="#2E3374" stroke-width="1.7" stroke-miterlimit="10"/>
<path d="M233.137 78.4859C234.31 78.4231 235.41 77.9006 236.2 77.0317C236.99 76.1628 237.406 75.0176 237.357 73.8443L236.935 63.7171L227.335 61.3962L228.495 74.2663C228.574 75.4331 229.101 76.5241 229.966 77.3108C230.832 78.0974 231.968 78.5186 233.137 78.4859Z" fill="white" stroke="#2E3374" stroke-width="1.7" stroke-miterlimit="10"/>
<path d="M236.829 70.2578C239.168 70.0871 241.347 69.0103 242.904 67.2567C244.46 65.5032 245.271 63.2113 245.163 60.869L244.53 50.1088C244.359 47.7703 243.283 45.5907 241.529 44.0341C239.775 42.4776 237.484 41.667 235.141 41.7749C232.803 41.9456 230.623 43.0224 229.067 44.776C227.51 46.5295 226.699 48.8214 226.807 51.1637L227.44 61.9239C227.508 63.0883 227.804 64.2279 228.313 65.2775C228.821 66.3271 229.532 67.2659 230.404 68.0402C231.277 68.8144 232.293 69.4089 233.396 69.7894C234.498 70.17 235.665 70.3291 236.829 70.2578Z" fill="white" stroke="#2E3374" stroke-width="1.7" stroke-miterlimit="10"/>
<path d="M239.716 269.531L238.076 292.95L248.098 293.652L249.737 270.233L239.716 269.531Z" fill="white" stroke="#2E3374" stroke-width="1.7" stroke-miterlimit="10"/>
<path d="M235.564 290.103C239.098 289.47 247.811 290.746 247.811 290.746C247.811 290.746 258.687 293.626 260.639 296.749C261.884 298.7 258.719 300.346 256.789 300.304L235.247 299.439L235.564 290.103Z" fill="white" stroke="#2E3374" stroke-width="1.7" stroke-miterlimit="10"/>
<path d="M207.925 293.373L212.461 272.064L202.123 269.11L198.009 291.263L207.925 293.373Z" fill="white" stroke="#2E3374" stroke-width="1.7" stroke-miterlimit="10"/>
<path d="M197.576 289.333C201.141 288.964 209.707 290.852 209.707 290.852C209.707 290.852 220.383 294.639 221.987 297.867C223.041 299.882 219.792 301.275 217.862 301.032L196.373 298.352L197.576 289.333Z" fill="white" stroke="#2E3374" stroke-width="1.7" stroke-miterlimit="10"/>
<path d="M302.973 68.8863C299.808 67.7259 295.694 68.7808 295.166 72.7895C289.997 107.813 263.519 87.8748 247.484 76.1652C245.479 74.6883 239.994 82.4947 238.939 85.0266C237.884 87.5584 237.357 91.1451 240.205 93.2549C266.261 112.454 305.188 115.303 306.77 74.2664C306.785 73.0838 306.425 71.9269 305.743 70.9607C305.061 69.9946 304.092 69.2685 302.973 68.8863Z" fill="white" stroke="#2E3374" stroke-width="1.7" stroke-miterlimit="10"/>
<path d="M248.434 283.563C248.539 282.297 260.038 190.835 254.13 114.143L227.656 127.773C230.927 203.938 236.091 282.086 236.091 282.719L248.434 283.563Z" fill="#2E3374" stroke="#2E3374" stroke-width="1.7" stroke-miterlimit="10"/>
<path d="M204.444 162.247C200.119 145.684 208.769 125.852 219.846 121.316C225.437 126.063 227.808 120.81 233.399 125.557C239.412 171.657 225.964 241.366 210.668 285.461L198.431 282.613C206.343 245.269 206.132 203.178 204.444 162.247Z" fill="#2E3374" stroke="#2E3374" stroke-width="1.7" stroke-miterlimit="10"/>
<path d="M273.33 87.7694C266.77 85.9337 260.565 83.0096 254.974 79.119C249.634 75.4172 243.325 73.3632 236.829 73.2115C223.115 72.895 202.65 74.1609 202.65 92.411L209.401 127.012H256.978C256.978 127.012 258.455 114.353 259.51 104.332C261.922 105.285 264.388 106.095 266.895 106.758C270.059 101.061 271.114 94.7318 273.33 87.7694Z" fill="white" stroke="#2E3374" stroke-width="1.7" stroke-miterlimit="10"/>
<path d="M245.902 36.1837C240.733 32.175 230.289 34.2848 221.744 39.5594C221.192 39.9115 220.664 40.2991 220.162 40.7198C216.048 44.623 216.47 50.9526 216.47 56.1217C216.47 62.9786 209.929 70.3631 213.832 77.1146C214.783 78.6721 216.233 79.8619 217.946 80.4903C224.276 82.9166 229.445 78.486 232.504 73.4223C235.76 68.3645 237.65 62.5493 237.99 56.5436C241.26 55.8052 244.108 53.2734 246.429 50.5306C249.911 46.4164 250.122 39.4539 245.902 36.1837Z" fill="#15ADC2" stroke="#2E3374" stroke-width="1.7" stroke-miterlimit="10"/>
<path d="M124.27 234.403C122.898 252.443 165.095 255.607 166.466 237.568C167.838 219.529 161.297 179.759 149.588 178.809C137.878 177.86 125.641 216.364 124.27 234.403Z" fill="#D9EDEF"/>
<path d="M144.946 275.967C144.694 275.967 144.453 275.867 144.275 275.689C144.097 275.511 143.997 275.269 143.997 275.018V211.3C143.997 211.049 144.097 210.807 144.275 210.629C144.453 210.451 144.694 210.351 144.946 210.351C145.198 210.351 145.439 210.451 145.617 210.629C145.795 210.807 145.895 211.049 145.895 211.3V275.018C145.895 275.269 145.795 275.511 145.617 275.689C145.439 275.867 145.198 275.967 144.946 275.967Z" fill="white"/>
<path d="M145.895 249.7H143.997V275.018H145.895V249.7Z" fill="#AFDADD"/>
<path d="M130.282 294.639H159.925L166.36 259.616H123.742L130.282 294.639Z" fill="#AFDADD"/>
<path d="M379.311 272.668L369.536 273.506L371.482 296.209L381.257 295.371L379.311 272.668Z" fill="white" stroke="#2E3374" stroke-width="1.7" stroke-miterlimit="10"/>
<path d="M381.881 294.523C378.431 294.038 369.823 294.143 369.823 294.143C369.823 294.143 359.369 297.551 357.639 300.642C356.584 302.646 359.748 303.954 361.521 303.944L382.44 301.908L381.881 294.523Z" fill="#2E3374" stroke="#2E3374" stroke-width="1.7" stroke-miterlimit="10"/>
<path d="M367.323 287.888C361.099 249.489 359.306 177.016 366.479 138.828C375.552 139.988 387.578 140.41 396.65 141.254C389.477 179.125 379.666 249.594 383.147 287.255L367.323 287.888Z" fill="white" stroke="#2E3374" stroke-width="1.7" stroke-miterlimit="10"/>
<path d="M307.931 111.4C308.246 110.398 308.823 109.499 309.602 108.794C310.381 108.089 311.333 107.605 312.361 107.391C316.581 106.442 328.607 114.987 333.249 115.62C335.861 115.99 338.522 115.815 341.064 115.107C343.605 114.399 345.973 113.173 348.018 111.505C357.196 104.121 361.837 91.6728 366.479 81.3346C367.85 78.2753 375.868 82.6005 377.977 84.3939C380.087 86.1872 382.514 87.5586 380.931 91.5673C376.29 103.277 369.749 115.725 358.883 122.793C349.284 129.017 337.891 128.912 327.236 125.536C324.322 124.584 321.468 123.457 318.691 122.16C316.476 121.105 314.26 120.156 312.045 118.995C308.986 117.096 306.665 114.776 307.931 111.4Z" fill="white" stroke="#2E3374" stroke-width="1.7" stroke-miterlimit="10"/>
<path d="M384.729 82.8112C385.046 76.0597 376.396 71.1016 369.644 75.9543C358.04 84.3936 357.301 125.852 325.654 112.56C323.861 116.991 322.173 121.738 320.907 125.535C361.416 143.469 383.463 111.716 384.729 82.8112Z" fill="#D5401A" stroke="#2E3374" stroke-width="1.7" stroke-miterlimit="10"/>
<path d="M423.854 270.653L414.194 272.37L418.293 295.428L427.953 293.711L423.854 270.653Z" fill="white" stroke="#2E3374" stroke-width="1.7" stroke-miterlimit="10"/>
<path d="M428.91 293.869C425.46 293.415 416.873 293.384 416.873 293.384C416.873 293.384 406.324 296.728 404.689 299.713C403.57 301.654 406.725 303.121 408.56 303.036L429.532 301.274L428.91 293.869Z" fill="#2E3374" stroke="#2E3374" stroke-width="1.7" stroke-miterlimit="10"/>
<path d="M413.528 289.47C404.772 246.218 389.957 198.666 388.797 155.625C398.819 154.676 407.84 141.254 417.862 140.199C419.339 186.404 423.233 241.577 429.141 286.833C429.352 286.938 417.326 289.048 413.528 289.47Z" fill="white" stroke="#2E3374" stroke-width="1.7" stroke-miterlimit="10"/>
<path d="M420.385 87.4528C419.752 69.5192 399.603 68.9917 386.1 69.8357C374.496 70.5741 362.681 76.0597 363.103 89.5627C363.103 89.5627 361.415 116.78 360.255 143.575C359.833 152.119 359.938 158.752 359.938 158.752C359.938 158.752 373.441 163.394 423.867 158.014L420.385 87.4528Z" fill="#D5401A" stroke="#2E3374" stroke-width="1.7" stroke-miterlimit="10"/>
<path d="M388.421 74.3719C387.858 74.386 387.298 74.2872 386.774 74.0815C386.25 73.8757 385.772 73.5671 385.369 73.1739C384.966 72.7807 384.646 72.3107 384.427 71.7918C384.209 71.2728 384.096 70.7153 384.096 70.1522L383.991 60.236L393.169 57.4932L392.747 70.0467C392.752 70.6163 392.644 71.1812 392.429 71.7085C392.213 72.2358 391.895 72.7149 391.492 73.1176C391.09 73.5204 390.611 73.8388 390.083 74.0541C389.556 74.2695 388.991 74.3775 388.421 74.3719Z" fill="white" stroke="#2E3374" stroke-width="1.7" stroke-miterlimit="10"/>
<path d="M386.628 50.4252L380.299 48.6319C379.911 48.521 379.505 48.4877 379.104 48.5338C378.703 48.5798 378.316 48.7043 377.963 48.9003C377.61 49.0962 377.3 49.3596 377.049 49.6756C376.798 49.9915 376.612 50.3538 376.501 50.7417C376.39 51.1296 376.357 51.5355 376.403 51.9363C376.449 52.3371 376.573 52.7249 376.769 53.0775C376.965 53.4302 377.229 53.7408 377.545 53.9916C377.861 54.2425 378.223 54.4286 378.611 54.5394L385.257 56.4383L386.628 50.4252Z" fill="white" stroke="#2E3374" stroke-width="1.7" stroke-miterlimit="10"/>
<path d="M389.793 56.3326L396.122 58.126C396.51 58.2368 396.916 58.2702 397.317 58.2241C397.718 58.1781 398.106 58.0535 398.458 57.8576C398.811 57.6617 399.122 57.3982 399.372 57.0823C399.623 56.7663 399.809 56.404 399.92 56.0161C400.031 55.6282 400.064 55.2223 400.018 54.8215C399.972 54.4208 399.848 54.033 399.652 53.6803C399.456 53.3277 399.192 53.0171 398.876 52.7662C398.561 52.5154 398.198 52.3293 397.81 52.2184L391.164 50.3196L389.793 56.3326Z" fill="white" stroke="#2E3374" stroke-width="1.7" stroke-miterlimit="10"/>
<path d="M384.276 65.0571C381.891 64.3606 379.879 62.7506 378.675 60.5773C377.472 58.404 377.176 55.8435 377.852 53.4529L381.016 42.4396C381.717 40.0586 383.329 38.05 385.501 36.8493C387.673 35.6486 390.231 35.3527 392.62 36.0257C395.003 36.7245 397.014 38.335 398.217 40.5075C399.42 42.6801 399.717 45.2393 399.045 47.6298L395.827 58.6432C395.502 59.8302 394.943 60.9402 394.183 61.9082C393.423 62.8761 392.477 63.6825 391.401 64.28C390.325 64.8774 389.14 65.2539 387.917 65.3874C386.693 65.5208 385.455 65.4085 384.276 65.0571Z" fill="white" stroke="#2E3374" stroke-width="1.7" stroke-miterlimit="10"/>
<path d="M395.279 54.8559C396.882 56.9657 398.834 51.5329 399.066 50.6362C399.697 48.6352 399.849 46.514 399.51 44.4435C399.171 42.3729 398.35 40.411 397.114 38.7156C395.004 36.0783 387.367 27.2486 380.837 32.1751C376.712 35.2766 376.712 42.2707 380.489 44.5599C383.474 46.5115 389.656 46.1633 392.188 48.7795C394.013 50.383 393.791 52.9043 395.279 54.8559Z" fill="#2E3374" stroke="#2E3374" stroke-width="1.7" stroke-miterlimit="10"/>
<path d="M416.271 169.631C415.688 169.591 415.117 169.448 414.584 169.209C411.841 167.627 410.575 164.884 411.841 161.824C421.863 137.139 424.711 120.155 412.474 97.8964C410.997 95.1536 411.735 90.8284 414.267 89.668C416.799 88.5076 416.271 81.4396 417.854 84.2879C432.412 109.817 433.572 139.566 422.074 166.361C421.529 167.411 420.69 168.279 419.659 168.86C418.629 169.441 417.452 169.708 416.271 169.631Z" fill="white" stroke="#2E3374" stroke-width="1.7" stroke-miterlimit="10"/>
<path d="M404.878 100.217C409.098 110.45 418.17 113.826 415.005 151.275L427.348 154.546C438.53 118.046 422.495 78.697 413.95 74.3718" fill="#D5401A"/>
<path d="M404.878 100.217C409.098 110.45 418.17 113.826 415.005 151.275L427.348 154.546C438.53 118.046 422.495 78.697 413.95 74.3718" stroke="#2E3374" stroke-width="1.7" stroke-miterlimit="10"/>
<path d="M390.953 76.4816L389.371 74.5827C388.385 74.5652 387.399 74.6004 386.417 74.6882L384.94 76.4816C385.362 77.853 385.679 78.8024 386.101 80.1738C385.58 98.0453 383.995 115.87 381.354 133.553C382.303 138.089 383.252 142.731 384.202 147.372C386.206 143.047 388.21 138.827 390.109 134.397C391.129 116.301 391.094 98.1604 390.004 80.0683C390.32 79.0134 390.637 77.7475 390.953 76.4816Z" fill="white" stroke="#2E3374" stroke-width="1.7" stroke-miterlimit="10"/>
<path d="M132.287 12.6591H147.056C148.595 12.6549 150.119 12.9549 151.542 13.5419C152.964 14.1289 154.257 14.9913 155.345 16.0794C156.433 17.1676 157.295 18.4601 157.882 19.8827C158.469 21.3052 158.769 22.8298 158.765 24.3687V29.4323C158.769 30.9712 158.469 32.4957 157.882 33.9183C157.295 35.3409 156.433 36.6334 155.345 37.7216C154.257 38.8097 152.964 39.6721 151.542 40.2591C150.119 40.8461 148.595 41.1461 147.056 41.1419C144.005 43.5085 141.878 46.867 141.043 50.6362C141.043 43.6737 132.287 41.1419 132.287 41.1419C130.748 41.1461 129.223 40.8461 127.801 40.2591C126.378 39.6721 125.086 38.8097 123.998 37.7216C122.909 36.6334 122.047 35.3409 121.46 33.9183C120.873 32.4957 120.573 30.9712 120.577 29.4323V24.3687C120.588 21.2665 121.826 18.2946 124.019 16.101C126.213 13.9074 129.185 12.6702 132.287 12.6591Z" fill="#AFDADD"/>
<path d="M178.915 28.4829H193.684C194.143 28.5003 194.603 28.4649 195.055 28.3774C195.899 30.2762 197.903 34.074 202.65 34.8124C199.908 32.9135 199.697 29.1158 199.802 26.795C201.543 25.7656 202.984 24.2994 203.983 22.5415C204.982 20.7837 205.505 18.7952 205.499 16.7733V11.7097C205.503 10.1708 205.203 8.6462 204.616 7.22364C204.029 5.80108 203.167 4.50857 202.078 3.4204C200.99 2.33223 199.698 1.46986 198.275 0.882878C196.853 0.295894 195.328 -0.00413314 193.789 4.30035e-05H179.02C177.481 -0.00413314 175.957 0.295894 174.534 0.882878C173.112 1.46986 171.819 2.33223 170.731 3.4204C169.643 4.50857 168.78 5.80108 168.193 7.22364C167.607 8.6462 167.306 10.1708 167.311 11.7097V16.7733C167.304 18.3041 167.598 19.8213 168.178 21.2382C168.757 22.6551 169.61 23.9441 170.688 25.0314C171.765 26.1187 173.046 26.9832 174.458 27.5754C175.87 28.1676 177.384 28.476 178.915 28.4829Z" fill="#AFDADD"/>
<path d="M65.4048 75.8489C67.4091 73.2116 71.4178 72.5786 72.5782 69.5194C73.6332 66.9875 72.4727 65.2997 70.2574 63.2953C68.0421 61.291 62.029 56.2274 67.7256 53.5901C70.4684 52.3242 75.4265 54.1175 75.6375 49.3704C75.8485 44.6232 75.8485 37.5553 82.0725 39.6651C86.9252 41.353 87.9801 41.9859 91.7778 37.8718C94.5206 34.8125 98.3183 33.5466 101.483 37.7663C102.164 38.9911 102.763 40.2598 103.276 41.564C104.507 43.7525 106.44 45.4621 108.762 46.4166C110.661 47.366 112.56 47.8935 113.72 49.7923C114.306 50.6566 114.601 51.6847 114.563 52.7278C114.525 53.771 114.156 54.775 113.509 55.5944C110.977 58.9702 107.918 60.7635 109.922 65.2997C111.083 67.937 113.826 69.2029 114.775 72.1567C115.191 73.837 115.081 75.6048 114.459 77.2203C113.895 78.4428 113.022 79.4972 111.927 80.2795C110.555 81.4399 108.762 82.1784 107.496 83.5498C106.189 85.0269 105.121 86.7 104.331 88.5079C101.905 94.099 101.483 100.956 100.323 106.547C99.0567 112.666 96.6304 117.835 90.3009 118.468C83.9714 119.101 81.2286 114.986 78.0638 109.923C76.165 106.969 75.743 101.272 74.6881 98.0022C72.9593 92.5027 70.0828 87.4328 66.2487 83.1278C65.3193 82.0469 64.6996 80.7346 64.4554 79.3301C64.4442 78.1043 64.7728 76.8993 65.4048 75.8489Z" fill="#F8B243" stroke="#2E3374" stroke-width="1.7" stroke-miterlimit="10"/>
<path d="M43.3573 284.406C45.1823 285.029 48.3154 286.516 50.8261 287.698C53.5439 289.002 55.9669 290.847 57.9468 293.12C60.1833 295.694 60.6474 296.949 60.7635 298.964C60.8689 301.285 57.2822 301.074 55.6998 300.23L39.5596 290.947L43.3573 284.406Z" fill="#2E3374" stroke="#2E3374" stroke-width="1.7" stroke-miterlimit="10"/>
<path d="M103.804 294.85C103.91 293.584 118.573 195.477 112.771 119.1L92.5166 142.625C95.6814 218.474 95.6814 293.057 95.6814 293.69L103.804 294.85Z" fill="white" stroke="#2E3374" stroke-width="1.7" stroke-miterlimit="10"/>
<path d="M67.8315 166.572C63.9283 154.124 65.5107 138.406 80.1741 126.169L95.8924 127.856C104.332 196.321 52.4297 285.145 51.0583 288.099L43.6738 283.879C43.8848 283.246 67.1985 221.744 67.8315 166.572Z" fill="white" stroke="#2E3374" stroke-width="1.7" stroke-miterlimit="10"/>
<path d="M119.206 215.204C119.733 184.611 118.784 162.88 114.669 131.654C114.669 131.654 97.3687 131.126 96.9467 129.122H74.7934C58.7586 142.309 57.0708 186.299 57.1763 215.098H119.206V215.204Z" fill="#2E3374" stroke="#2E3374" stroke-width="1.7" stroke-miterlimit="10"/>
<path d="M181.235 130.282C181.378 129.696 181.414 129.088 181.34 128.489C181.24 126.965 180.54 125.543 179.393 124.535C178.246 123.526 176.746 123.014 175.222 123.109C149.798 124.797 126.696 106.23 110.872 86.2923C108.867 83.7605 102.749 90.6175 100.217 92.6218C99.0301 93.5605 98.2636 94.9315 98.0856 96.4343C97.9076 97.9371 98.3327 99.4492 99.2677 100.639C108.428 111.987 120.167 120.98 133.508 126.871C146.848 132.761 161.404 135.377 175.96 134.502C177.186 134.495 178.374 134.075 179.331 133.309C180.289 132.544 180.959 131.477 181.235 130.282Z" fill="white" stroke="#2E3374" stroke-width="1.7" stroke-miterlimit="10"/>
<path d="M119.522 121.738C112.454 116.78 100.112 105.809 95.8921 95.2594C94.7317 92.5166 94.7317 88.6134 96.7361 86.1871C99.2679 83.1278 106.758 84.6047 110.134 85.4486C116.041 86.9255 119.944 97.5802 131.865 106.02C127.434 111.716 124.375 117.307 119.522 121.738Z" fill="white" stroke="#2E3374" stroke-width="1.7" stroke-miterlimit="10"/>
<path d="M69.6244 151.803C70.4593 151.341 71.0971 150.591 71.4178 149.693C72.7892 146.001 68.5695 142.519 66.3542 140.199C63.0113 136.809 60.2014 132.932 58.0203 128.7C55.172 123.003 54.3281 116.041 58.6532 110.872C63.6114 104.753 71.5233 101.799 78.3802 98.4238C79.6461 97.7908 80.8066 97.2633 82.0725 96.6304C84.8153 95.259 79.9626 87.2416 78.1693 85.0263C76.3759 82.8109 73.8441 80.5956 70.2574 82.389C60.7631 87.3471 49.8974 93.0437 43.6734 102.01C37.4493 110.977 40.0866 122.159 45.2558 131.021C49.2644 137.878 55.594 147.794 62.8729 151.486C64.3286 152.26 65.9789 152.59 67.6201 152.436C68.329 152.387 69.016 152.17 69.6244 151.803Z" fill="white" stroke="#2E3374" stroke-width="1.7" stroke-miterlimit="10"/>
<path d="M96.6309 78.0639C89.9849 77.642 81.7565 78.1694 75.005 80.4903C64.7595 83.3858 55.3788 88.7462 47.6826 96.1031C51.1639 101.589 56.5439 108.235 60.0252 113.72C60.0252 113.72 61.7131 112.349 63.8229 110.766C63.9636 110.678 64.1232 110.625 64.2887 110.61C64.4541 110.595 64.6207 110.619 64.7749 110.681C64.9291 110.743 65.0666 110.84 65.1761 110.965C65.2857 111.09 65.3642 111.238 65.4053 111.399L71.5238 131.654C85.8314 133.724 100.362 133.724 114.67 131.654L120.683 97.2635C120.683 91.2504 106.336 78.6969 96.6309 78.0639Z" fill="white" stroke="#2E3374" stroke-width="1.7" stroke-miterlimit="10"/>
<path d="M92.8331 64.2447L86.1871 64.7721C85.7421 64.8842 85.2781 64.8983 84.8272 64.8132C84.3763 64.7282 83.9492 64.5461 83.5757 64.2796C83.2022 64.0131 82.8911 63.6685 82.6639 63.2698C82.4368 62.8711 82.2991 62.4278 82.2603 61.9705C82.2216 61.5133 82.2827 61.0531 82.4395 60.6219C82.5963 60.1906 82.845 59.7986 83.1684 59.4731C83.4917 59.1475 83.882 58.8962 84.3122 58.7364C84.7424 58.5767 85.2021 58.5124 85.6596 58.5481L92.7276 58.0206L92.8331 64.2447Z" fill="white" stroke="#2E3374" stroke-width="1.7" stroke-miterlimit="10"/>
<path d="M92.8334 81.7563C93.4091 81.7241 93.9728 81.5781 94.4918 81.3269C95.0109 81.0757 95.4751 80.7242 95.8576 80.2926C96.2401 79.8611 96.5333 79.3581 96.7204 78.8127C96.9075 78.2672 96.9847 77.6901 96.9476 77.1146L96.3146 66.9874L86.7148 64.8776L88.1917 77.7476C88.2835 78.8916 88.8219 79.9536 89.6905 80.7038C90.5591 81.4539 91.6882 81.832 92.8334 81.7563Z" fill="white" stroke="#2E3374" stroke-width="1.7" stroke-miterlimit="10"/>
<path d="M96.2089 73.5279C97.3597 73.4335 98.4805 73.1128 99.507 72.584C100.534 72.0553 101.445 71.3289 102.19 70.4467C102.935 69.5645 103.499 68.5438 103.848 67.4433C104.197 66.3427 104.326 65.184 104.226 64.0336L103.382 53.2734C103.288 52.1226 102.967 51.0018 102.438 49.9753C101.91 48.9488 101.183 48.0368 100.301 47.2919C99.4189 46.5469 98.3982 45.9835 97.2977 45.6342C96.1971 45.2848 95.0384 45.1563 93.888 45.256C92.7372 45.3504 91.6164 45.6711 90.5899 46.1999C89.5634 46.7287 88.6515 47.455 87.9065 48.3372C87.1615 49.2194 86.5982 50.2401 86.2488 51.3407C85.8994 52.4412 85.7709 53.5999 85.8707 54.7503L86.7146 65.5105C86.9576 67.8134 88.0811 69.9333 89.8504 71.4274C91.6196 72.9214 93.8978 73.674 96.2089 73.5279Z" fill="white" stroke="#2E3374" stroke-width="1.7" stroke-miterlimit="10"/>
<path d="M102.011 57.8096C101.483 56.9657 101.378 55.9108 100.64 55.3833C100.189 55.1158 99.6709 54.9835 99.1472 55.0022C98.6234 55.0209 98.1161 55.1898 97.6858 55.4888C96.8158 56.0782 96.0343 56.7886 95.3649 57.5986C93.6372 59.2836 91.342 60.2619 88.9299 60.3414C87.7446 60.364 86.5744 60.0735 85.5372 59.4993C84.5 58.9252 83.6325 58.0876 83.0224 57.0712C81.862 54.7504 82.6004 52.0076 84.0773 49.8977C85.1569 48.2723 86.5548 46.8827 88.1867 45.8129C89.8186 44.7431 91.6505 44.0154 93.5716 43.6737C95.5123 43.3358 97.505 43.4555 99.3913 44.0232C101.278 44.5909 103.005 45.591 104.437 46.944C107.075 49.5813 107.602 52.957 107.497 56.4382C107.391 59.2865 103.804 60.8689 102.011 57.8096Z" fill="#F8B243" stroke="#2E3374" stroke-width="1.7" stroke-miterlimit="10"/>
<path d="M94.3416 294.08C96.3249 293.7 99.9643 293.363 102.781 293.141C105.505 292.914 108.246 293.241 110.841 294.101C113.508 294.829 115.841 296.458 117.444 298.711C118.721 300.642 115.567 302.319 113.752 302.287L94.2783 301.707L94.3416 294.08Z" fill="#2E3374" stroke="#2E3374" stroke-width="1.7" stroke-miterlimit="10"/>
</svg>
