<svg width="460" height="184" viewBox="0 0 460 184" fill="none" xmlns="http://www.w3.org/2000/svg">
<path d="M0 20C0 8.9543 8.95431 0 20 0H440C451.046 0 460 8.95431 460 20V184H0V20Z" fill="#2E3374"/>
<path d="M115 151C115 158.684 166.245 165 229.5 165C292.755 165 344 158.684 344 151C344 143.316 292.755 137 229.5 137C166.245 137 115 143.316 115 151Z" fill="#89C5CC"/>
<path d="M188.768 145.232C188.768 145.232 188.487 146.849 188.346 148.817C188.331 149.016 188.355 149.215 188.418 149.405C188.48 149.594 188.58 149.769 188.711 149.92C188.841 150.07 189.001 150.193 189.18 150.281C189.359 150.37 189.553 150.421 189.752 150.434C192.634 150.715 199.101 151.207 203.248 150.644C203.381 150.63 203.506 150.577 203.609 150.492C203.711 150.406 203.786 150.292 203.824 150.164C203.861 150.036 203.86 149.9 203.82 149.773C203.78 149.646 203.704 149.533 203.6 149.45C201.913 147.833 197.765 144.74 190.947 144.107L188.768 145.232Z" fill="#69A1AC"/>
<path d="M187.363 141.577L188.839 145.092C188.933 145.324 189.101 145.519 189.317 145.646C189.533 145.773 189.785 145.826 190.034 145.795C190.437 145.752 190.836 145.682 191.229 145.584C191.615 145.464 191.941 145.2 192.137 144.846C192.333 144.493 192.386 144.077 192.283 143.686L191.229 140.031L187.363 141.577Z" fill="#FFE3CA"/>
<path d="M162.691 148.044C164.43 149.54 165.8 151.416 166.697 153.527C166.763 153.727 166.779 153.94 166.747 154.149C166.714 154.357 166.633 154.554 166.51 154.726C166.387 154.897 166.225 155.037 166.038 155.134C165.851 155.231 165.643 155.282 165.432 155.284H159.457C159.255 155.283 159.054 155.239 158.87 155.155C158.685 155.07 158.521 154.947 158.388 154.795C158.255 154.641 158.156 154.462 158.098 154.268C158.04 154.073 158.024 153.868 158.052 153.667C158.544 151.558 159.598 148.044 162.691 148.044Z" fill="#69A1AC"/>
<path d="M159.107 144.881C159.107 144.881 159.669 147.481 160.161 149.168C160.18 149.24 160.214 149.307 160.261 149.365C160.308 149.422 160.367 149.469 160.433 149.502C160.5 149.536 160.572 149.554 160.647 149.557C160.721 149.561 160.795 149.548 160.864 149.52C161.546 149.208 162.293 149.063 163.043 149.098C163.164 149.106 163.283 149.066 163.375 148.987C163.466 148.908 163.524 148.797 163.535 148.676L163.605 144.389L159.107 144.881Z" fill="#FFE3CA"/>
<path d="M174.5 86.8207L192.072 140.382C192.072 140.382 188.698 142.561 187.082 142.491L166.205 99.4028C166.205 99.4028 162.55 125.903 164.307 144.951L158.333 145.373C158.333 145.373 148.633 96.7317 155.943 80.0024L174.5 86.8207Z" fill="#F2F2F2"/>
<path d="M176.346 98.9807C176.206 98.9807 176.136 98.9104 176.206 98.7698L176.909 93.3574C176.909 93.2871 176.979 93.2168 177.12 93.2168C177.19 93.2168 177.26 93.2871 177.26 93.4277L176.557 98.8401C176.487 98.9104 176.417 98.9807 176.346 98.9807Z" fill="#F2F2F2"/>
<path d="M177.804 39.6558C177.804 39.6558 163.605 40.921 165.573 51.0429C160.405 61.2768 156.533 72.115 154.045 83.3067C154.016 83.441 154.015 83.5802 154.043 83.7144C154.07 83.8494 154.125 83.9773 154.204 84.0898C154.284 84.2022 154.386 84.2964 154.503 84.3674C154.621 84.4384 154.753 84.4841 154.889 84.5017L178.577 88.5786C178.892 88.6334 179.217 88.5701 179.489 88.4021C179.761 88.2334 179.962 87.9713 180.053 87.6648L185.747 65.8043L187.926 75.9965L194.955 74.1689L189.05 44.295C188.98 44.2247 188.137 39.8666 177.804 39.6558Z" fill="#89C5CC"/>
<path d="M184.34 91.7408C183.584 91.3465 182.716 91.2228 181.88 91.3894L180.263 91.8111C180.184 91.8343 180.101 91.8393 180.02 91.8259C179.939 91.8125 179.861 91.7809 179.794 91.7338C179.727 91.686 179.671 91.6249 179.63 91.5532C179.59 91.4815 179.566 91.4013 179.56 91.3191L177.873 76.1362C175.765 77.1203 172.672 77.05 171.618 76.9797L175.554 94.9039H189.261L184.34 91.7408Z" fill="#FFE3CA"/>
<path d="M220.892 58.8442L220.47 57.4386C220.344 57.0461 220.134 56.6857 219.855 56.3823C219.576 56.0789 219.234 55.8397 218.853 55.6813L211.332 52.6588C211.332 52.6588 211.192 51.6748 212.949 51.0422C214.636 50.4096 214.284 48.5117 214.284 48.5117C214.284 48.5117 211.965 49.566 208.591 51.253C206.974 52.1068 205.705 53.4993 205.006 55.1894L187.996 75.925L189.964 77.3308C190.583 77.7589 191.286 78.0499 192.026 78.1862C192.766 78.3226 193.526 78.3001 194.256 78.1208C194.987 77.9409 195.672 77.6091 196.265 77.1459C196.857 76.6827 197.345 76.0986 197.696 75.4329L206.904 57.7196C211.436 59.0769 216.202 59.46 220.892 58.8442Z" fill="#FFE3CA"/>
<path d="M182.373 29.9547L178.015 42.1854C178.015 42.1854 181.881 45.2079 184.693 44.2238L186.872 37.1947C186.942 37.1947 185.255 28.6192 182.373 29.9547Z" fill="#FFE3CA"/>
<path d="M195.446 25.5969C195.446 25.8078 191.229 37.5464 191.229 37.5464L184.551 35.0159L186.871 23.2773C186.941 23.207 195.446 22.4338 195.446 25.5969Z" fill="#FFE3CA"/>
<path d="M188.066 26.0889L186.379 32.134V32.3448C186.379 32.8369 186.519 34.5239 188.206 34.313C189.753 34.1021 191.229 33.9615 192.142 34.3833C192.246 34.4267 192.34 34.491 192.418 34.572C192.496 34.653 192.557 34.7492 192.596 34.8546C192.636 34.9599 192.653 35.0722 192.648 35.1845C192.643 35.2969 192.614 35.4069 192.565 35.5079C191.927 37.3784 191.127 39.1894 190.174 40.9203C190.125 41.0186 190.056 41.1059 189.973 41.1771C189.889 41.2483 189.792 41.3019 189.687 41.3347C189.582 41.3675 189.471 41.3788 189.362 41.368C189.252 41.3572 189.146 41.3245 189.05 41.2718C187.015 40.3957 185.102 39.2617 183.356 37.8978C183.232 37.8002 183.139 37.6683 183.089 37.5183C183.039 37.3683 183.034 37.207 183.075 37.0543C183.356 35.5079 184.27 30.7984 184.27 29.3926C184.34 28.1274 182.864 27.1433 182.231 26.7918C182.033 26.656 181.885 26.4582 181.81 26.2295C181.599 25.386 181.458 23.5584 183.778 23.1367C183.896 23.1203 184.01 23.079 184.112 23.0153C184.213 22.9517 184.3 22.8673 184.367 22.7677C184.433 22.668 184.478 22.5554 184.497 22.4372C184.517 22.3191 184.511 22.1981 184.481 22.0823C184.381 21.773 184.348 21.4459 184.385 21.1229C184.421 20.8 184.526 20.4885 184.692 20.2092C184.859 19.9299 185.083 19.6892 185.349 19.5031C185.615 19.3171 185.919 19.1899 186.238 19.1301C186.924 18.9271 187.659 18.9625 188.323 19.2305C188.987 19.4986 189.54 19.9834 189.893 20.6062C190.012 20.7846 190.193 20.9123 190.401 20.9642C190.609 21.0162 190.829 20.9888 191.018 20.8874C191.148 20.8442 191.287 20.8345 191.422 20.8591C191.557 20.8836 191.684 20.9416 191.791 21.028C191.885 21.1061 191.994 21.1631 192.111 21.195C192.229 21.227 192.352 21.2332 192.472 21.2132C192.592 21.1931 192.707 21.1474 192.808 21.079C192.908 21.0107 192.993 20.9213 193.057 20.8171C193.374 20.2776 193.878 19.8727 194.474 19.6786C195.069 19.4844 195.715 19.5144 196.29 19.7627C199.313 20.7468 199.172 24.1911 198.047 26.0889C196.923 27.9868 193.76 26.7215 192.213 25.4563C191.088 24.4722 189.331 25.1048 188.558 25.386C188.333 25.5714 188.163 25.8144 188.066 26.0889Z" fill="#69A1AC"/>
<path d="M183.637 31.7117C183.637 31.7117 185.395 28.3378 184.27 27.2834C183.145 26.229 181.107 26.3696 181.177 29.0407C181.177 32.2741 183.637 31.7117 183.637 31.7117Z" fill="#FFE3CA"/>
<path d="M179.702 157.393C179.558 157.404 179.413 157.38 179.28 157.322C179.025 157.185 178.828 156.96 178.724 156.689C178.621 156.418 178.619 156.119 178.718 155.846L200.086 101.582C200.129 101.451 200.198 101.331 200.291 101.229C200.384 101.127 200.498 101.047 200.625 100.994C200.751 100.94 200.888 100.915 201.026 100.919C201.163 100.924 201.298 100.958 201.422 101.019C201.677 101.157 201.874 101.382 201.977 101.653C202.081 101.924 202.083 102.223 201.984 102.495L180.616 156.76C180.535 156.939 180.407 157.091 180.246 157.203C180.085 157.314 179.897 157.38 179.702 157.393Z" fill="#F2F2F2"/>
<path d="M203.812 157.392C203.604 157.388 203.403 157.318 203.239 157.191C203.074 157.065 202.955 156.889 202.898 156.69L181.529 102.425C181.421 102.153 181.418 101.851 181.522 101.577C181.626 101.304 181.83 101.079 182.092 100.949C182.216 100.895 182.35 100.867 182.485 100.867C182.62 100.866 182.754 100.893 182.879 100.946C183.004 100.999 183.117 101.075 183.211 101.172C183.305 101.27 183.379 101.385 183.427 101.511L204.796 155.776C204.905 156.048 204.907 156.35 204.803 156.623C204.699 156.897 204.496 157.121 204.234 157.252C204.097 157.31 203.956 157.357 203.812 157.392Z" fill="#F2F2F2"/>
<path d="M280.728 157.393C280.584 157.404 280.439 157.38 280.307 157.322C280.051 157.185 279.855 156.96 279.751 156.689C279.648 156.418 279.646 156.119 279.744 155.846L301.113 101.582C301.155 101.451 301.225 101.331 301.318 101.229C301.411 101.127 301.525 101.047 301.651 100.994C301.778 100.94 301.915 100.915 302.052 100.919C302.19 100.924 302.325 100.958 302.448 101.019C302.703 101.157 302.901 101.382 303.004 101.653C303.107 101.924 303.11 102.223 303.011 102.495L281.642 156.76C281.57 156.944 281.444 157.102 281.281 157.215C281.118 157.327 280.927 157.39 280.728 157.393Z" fill="#F2F2F2"/>
<path d="M304.838 157.393C304.631 157.388 304.43 157.318 304.266 157.192C304.101 157.065 303.982 156.889 303.924 156.69L282.556 102.425C282.448 102.153 282.445 101.851 282.549 101.577C282.653 101.304 282.857 101.08 283.118 100.949C283.243 100.895 283.376 100.867 283.512 100.867C283.647 100.867 283.781 100.893 283.905 100.946C284.031 100.999 284.143 101.075 284.237 101.172C284.331 101.27 284.405 101.385 284.454 101.511L305.822 155.776C305.931 156.048 305.934 156.35 305.829 156.624C305.725 156.897 305.522 157.121 305.26 157.252C305.132 157.33 304.988 157.378 304.838 157.393Z" fill="#F2F2F2"/>
<path d="M268.919 120.771H266.388V148.114H268.919V120.771Z" fill="#F2F2F2"/>
<path d="M278.761 148.676H256.619V148.536C256.623 148.127 256.787 147.735 257.076 147.446C257.366 147.157 257.756 146.993 258.166 146.99H277.144C277.574 147.022 277.977 147.212 278.275 147.524C278.574 147.835 278.747 148.246 278.761 148.676Z" fill="#F2F2F2"/>
<path d="M282.064 119.857C282.064 120.584 281.775 121.281 281.26 121.794C280.747 122.308 280.05 122.598 279.323 122.599H256.9C256.173 122.598 255.477 122.308 254.963 121.794C254.449 121.281 254.16 120.584 254.159 119.857V117.397C254.16 116.67 254.449 115.974 254.963 115.46C255.477 114.946 256.173 114.656 256.9 114.656H279.323C280.05 114.656 280.747 114.946 281.26 115.46C281.774 115.974 282.064 116.67 282.064 117.397V119.857Z" fill="#F2F2F2"/>
<path d="M249.026 102.566C246.16 103.153 243.437 104.3 241.013 105.94C240.681 106.155 240.418 106.462 240.256 106.824C240.094 107.186 240.04 107.586 240.099 107.978C241.486 118.34 244.674 128.378 249.518 137.641C249.885 138.305 249.986 139.085 249.799 139.82L248.604 145.373L246.425 147.411H252.119L255.915 137.149L254.298 136.657C253.686 136.463 253.151 136.08 252.771 135.562C252.392 135.043 252.189 134.417 252.189 133.775L251.978 122.739C252.004 119.7 250.931 116.755 248.956 114.445L258.023 114.023L249.026 102.566Z" fill="#FFE3CA"/>
<path d="M244.178 148.466C243.686 149.169 249.731 150.012 252.823 148.536C252.823 148.536 257.111 141.085 257.111 137.289C257.111 137.289 256.76 136.516 254.229 136.657C254.229 136.657 252.823 145.443 251.277 146.427C249.731 147.411 247.06 146.498 247.06 146.498C247.06 146.498 244.951 147.411 244.178 148.466Z" fill="#69A1AC"/>
<path d="M256.9 114.656C256.829 114.585 247.129 113.461 247.129 113.461C247.294 115.827 247.056 118.203 246.426 120.49C245.372 124.567 231.103 142.21 231.103 142.21L232.579 146.99C228.188 148.592 223.426 148.885 218.872 147.833L228.151 142.28C228.151 142.28 236.867 112.617 242.209 107.345L251.979 103.971L256.9 114.656Z" fill="#FFE3CA"/>
<path d="M278.76 97.4343C278.76 97.4343 284.383 105.799 284.805 109.595C285.297 113.39 283.259 114.937 277.354 115.218C271.45 115.499 255.705 115.499 255.705 115.499L242.279 104.042C242.279 104.042 252.049 100.527 254.58 99.5431C257.251 98.4887 278.76 97.4343 278.76 97.4343Z" fill="#69A1AC"/>
<path d="M232.087 145.443C232.087 145.443 233.704 146.99 232.579 148.747C232.579 148.747 219.786 150.996 216.342 150.012C216.342 150.012 217.045 148.395 220.981 146.497L220.7 146.708C220.624 146.77 220.57 146.852 220.542 146.945C220.515 147.037 220.517 147.136 220.548 147.228C220.578 147.32 220.636 147.4 220.714 147.458C220.791 147.516 220.885 147.548 220.981 147.552C223.582 147.341 228.853 146.919 232.087 145.443Z" fill="#69A1AC"/>
<path d="M267.443 50.4798C268.287 50.7609 271.38 51.8153 270.958 53.7834C270.944 53.8416 270.944 53.9027 270.961 53.9604C270.977 54.0182 271.007 54.0709 271.05 54.1133C271.092 54.1557 271.145 54.1864 271.202 54.2025C271.26 54.2186 271.321 54.2195 271.38 54.2052C272.715 53.8537 275.597 53.432 277.425 55.6813C279.041 57.6495 277.846 59.5474 276.862 60.6018C276.81 60.6552 276.775 60.7227 276.762 60.7965C276.748 60.8696 276.757 60.9455 276.788 61.0137C276.818 61.0818 276.868 61.1395 276.932 61.1788C276.995 61.2182 277.069 61.2372 277.143 61.2344C279.533 60.9532 284.805 60.8829 285.719 65.8033C286.492 70.3722 283.329 71.7077 281.431 72.0592C281.359 72.0648 281.291 72.0943 281.236 72.1414C281.182 72.1892 281.144 72.2532 281.128 72.3235C281.113 72.3945 281.12 72.4683 281.149 72.5344C281.178 72.6004 281.228 72.656 281.291 72.6918C282.204 73.3244 283.329 74.5194 282.907 76.9796C282.204 80.8456 274.683 80.4941 273.84 80.4238C273.769 80.4238 273.699 80.4238 273.699 80.3535L261.609 73.465C261.523 73.3849 261.451 73.2893 261.398 73.1839L258.938 59.1256C258.938 58.9851 258.938 58.9148 259.008 58.8445L267.022 50.6203C267.077 50.567 267.144 50.5267 267.216 50.5023C267.289 50.478 267.367 50.4703 267.443 50.4798Z" fill="#FFBE55"/>
<path d="M263.577 96.3096C263.577 96.3096 257.039 90.0537 253.806 85.9776C252.938 84.8845 252.35 83.5961 252.092 82.224C251.835 80.8519 251.917 79.4377 252.33 78.105C253.806 73.1846 256.407 68.0533 256.618 67.2098C256.969 66.0149 264.279 66.0149 264.279 66.0149C264.279 66.0149 278.689 75.3636 284.383 91.2487L277.986 93.2168C277.986 93.2168 274.191 86.8913 270.465 82.8848C270.465 82.8848 276.932 91.3893 277.143 94.9038L263.577 96.3096Z" fill="#F2F2F2"/>
<path d="M255.775 60.3908C255.845 60.672 257.743 66.9982 257.884 67.1388C258.024 67.2793 262.101 67.4902 263.999 66.1547L260.766 59.4067L255.775 60.3908Z" fill="#FFE3CA"/>
<path d="M258.938 47.0357C258.938 47.0357 255.494 48.5118 253.104 53.5025C250.784 58.4931 252.542 60.8127 254.721 61.0939C256.9 61.4453 260.203 61.375 263.718 58.1416C267.162 54.9083 263.366 45.3487 258.938 47.0357Z" fill="#FFE3CA"/>
<path d="M260.765 56.6657C260.765 56.6657 262.1 52.87 263.858 54.4164C265.615 55.8925 262.452 57.8604 261.187 58.5633L260.765 56.6657Z" fill="#FFE3CA"/>
<path d="M250.221 96.7315L255.001 92.0923L261.679 94.9039C261.679 94.9039 268.286 95.9583 272.082 94.9039L275.877 93.8495L284.453 91.1785L285.788 94.9742C285.961 95.4395 285.972 95.9491 285.819 96.4215C285.665 96.8931 285.358 97.2994 284.945 97.575C284.254 98.0754 283.526 98.5218 282.766 98.9105C281.641 99.4025 255.001 98.559 255.001 98.559L250.221 96.7315Z" fill="#FFE3CA"/>
<path d="M268.427 98.9104H240.522C240.187 98.9104 239.865 98.7768 239.627 98.5399C239.39 98.3024 239.257 97.9804 239.257 97.6451C239.257 97.3098 239.39 96.9879 239.627 96.7503C239.865 96.5134 240.187 96.3799 240.522 96.3799H268.357C268.524 96.3792 268.688 96.4115 268.842 96.4748C268.996 96.538 269.136 96.6315 269.253 96.7489C269.371 96.8663 269.464 97.0062 269.527 97.1601C269.591 97.3141 269.623 97.4785 269.622 97.6451C269.627 97.9699 269.506 98.2841 269.282 98.521C269.059 98.7571 268.752 98.897 268.427 98.9104Z" fill="#89C5CC"/>
<path d="M215.428 73.6759H238.624C239.463 73.6745 240.285 73.9121 240.994 74.3598C241.703 74.8083 242.271 75.4486 242.63 76.2064L253.385 98.9807H224.566C224.025 98.9765 223.499 98.8141 223.049 98.5147C222.6 98.2145 222.247 97.7907 222.035 97.2937L213.741 76.2767C213.621 75.9948 213.571 75.6883 213.597 75.3833C213.623 75.0775 213.724 74.7837 213.891 74.5264C214.058 74.2699 214.285 74.0576 214.553 73.9093C214.821 73.761 215.121 73.6808 215.428 73.6759Z" fill="#89C5CC"/>
<path d="M231.806 85.2746C232.298 86.821 231.946 88.3674 230.962 88.6486C229.978 88.9297 228.783 87.9457 228.291 86.3993C227.799 84.8529 228.15 83.3065 229.135 83.0253C230.119 82.7441 231.314 83.7282 231.806 85.2746Z" fill="#F2F2F2"/>
<path d="M202.546 98.067H175.132V95.2554H202.546C201.984 95.2554 201.984 98.067 202.546 98.067Z" fill="#FFBE55"/>
<path d="M175.483 98.0668C175.436 98.0696 175.39 98.0626 175.346 98.0457C175.302 98.0288 175.262 98.0035 175.229 97.9698C175.195 97.9368 175.169 97.8967 175.153 97.8531C175.136 97.8088 175.129 97.7624 175.132 97.7153V95.6066C175.129 95.5595 175.136 95.5124 175.153 95.4688C175.169 95.4246 175.195 95.3852 175.229 95.3515C175.262 95.3184 175.302 95.2924 175.346 95.2762C175.39 95.2594 175.436 95.2523 175.483 95.2552H203.037C203.131 95.2552 203.22 95.2179 203.286 95.1518C203.352 95.0865 203.389 94.9965 203.389 94.9037C203.389 94.8102 203.352 94.7209 203.286 94.6549C203.22 94.5895 203.131 94.5522 203.037 94.5522H173.585C173.271 94.5614 172.973 94.69 172.751 94.9121C172.529 95.1343 172.4 95.433 172.391 95.7472V97.5748C172.389 97.7231 172.416 97.87 172.472 98.007C172.528 98.1448 172.611 98.2692 172.716 98.374C172.82 98.4787 172.945 98.5616 173.083 98.6179C173.22 98.6734 173.367 98.7015 173.515 98.6994H203.037C203.131 98.6994 203.22 98.6622 203.286 98.5961C203.352 98.5307 203.389 98.4407 203.389 98.348C203.389 98.2545 203.352 98.1652 203.286 98.0991C203.22 98.0338 203.131 97.9965 203.037 97.9965H175.483V98.0668Z" fill="#FFBE55"/>
<path d="M306.975 99.2681C307.014 99.1129 307.007 98.9517 306.955 98.7999C306.903 98.648 306.808 98.5108 306.679 98.4022C306.554 98.267 306.394 98.1597 306.214 98.0905C306.034 98.0212 305.838 97.9906 305.643 98.0025H173.493C173.252 97.9992 173.013 98.0452 172.795 98.1378C172.577 98.2304 172.385 98.3662 172.234 98.5354C172.096 98.6953 172.015 98.8891 172.002 99.091C171.989 99.2935 172.044 99.4946 172.16 99.6678L173.567 102.066C173.755 102.356 174.025 102.595 174.351 102.759C174.676 102.923 175.045 103.006 175.418 102.998H304.828C305.156 103.013 305.478 102.93 305.747 102.761C306.015 102.592 306.213 102.348 306.309 102.066L306.975 99.2681Z" fill="#F2F2F2"/>
<path d="M261.328 55.4705C261.328 55.4705 263.929 48.1602 257.462 48.0899L255.916 49.1443C255.916 49.1443 253.526 45.0674 257.462 43.1695C261.328 41.2717 265.897 42.8181 267.584 48.0899C269.271 53.3617 269.552 56.8763 266.74 59.4068C263.999 61.9373 262.874 59.0554 262.874 59.0554C262.874 59.0554 264.35 56.7357 263.788 55.4705C263.155 54.2052 261.75 55.7516 261.75 55.7516L261.328 55.4705Z" fill="#FFBE55"/>
</svg>
