<svg width="363" height="479" viewBox="0 0 363 479" fill="none" xmlns="http://www.w3.org/2000/svg">
<path d="M181.3 476.566C255.085 476.566 314.899 473.343 314.899 469.368C314.899 465.393 255.085 462.17 181.3 462.17C107.515 462.17 47.7002 465.393 47.7002 469.368C47.7002 473.343 107.515 476.566 181.3 476.566Z" fill="#C1BEE8"/>
<path d="M286.9 180.049V145.759H75.6996V180.049C55.6493 180.049 36.4201 188.012 22.2424 202.186C8.06462 216.36 0.0996094 235.583 0.0996094 255.628C0.0996094 275.673 8.06462 294.896 22.2424 309.07C36.4201 323.244 55.6493 331.207 75.6996 331.207C79.3471 331.193 82.9892 330.925 86.5996 330.407C94.126 345.367 105.092 358.331 118.598 368.236C132.104 378.141 147.766 384.706 164.3 387.391V440.876H134.8C131.175 440.874 127.585 441.587 124.236 442.973C120.887 444.36 117.844 446.392 115.281 448.954C112.717 451.517 110.684 454.559 109.298 457.907C107.911 461.255 107.198 464.844 107.2 468.468H255.2C255.201 464.844 254.488 461.255 253.101 457.907C251.715 454.559 249.682 451.517 247.119 448.954C244.556 446.392 241.512 444.36 238.163 442.973C234.814 441.587 231.224 440.874 227.6 440.876H198.1V387.491C214.647 384.805 230.319 378.23 243.828 368.305C257.336 358.381 268.294 345.392 275.8 330.407C279.511 330.925 283.253 331.193 287 331.207C296.928 331.2 306.757 329.239 315.927 325.435C325.096 321.63 333.427 316.058 340.442 309.035C347.458 302.012 353.021 293.677 356.814 284.504C360.607 275.332 362.556 265.503 362.55 255.578C362.543 245.653 360.581 235.826 356.776 226.659C352.97 217.492 347.396 209.164 340.372 202.15C333.347 195.137 325.009 189.575 315.834 185.783C306.66 181.991 296.828 180.043 286.9 180.049ZM75.6996 308.313C61.7227 308.313 48.3183 302.762 38.4351 292.882C28.552 283.002 22.9996 269.601 22.9996 255.628C22.9996 241.655 28.552 228.254 38.4351 218.374C48.3183 208.493 61.7227 202.943 75.6996 202.943V274.623C75.4996 277.422 75.2996 280.121 75.2996 282.92C75.3241 291.405 76.3307 299.859 78.2996 308.113C77.4375 308.23 76.5694 308.296 75.6996 308.313ZM286.9 308.313C285.9 308.313 284.9 308.313 283.9 308.213C285.917 299.968 286.925 291.508 286.9 283.02V203.043C300.863 203.043 314.255 208.588 324.129 218.459C334.003 228.33 339.55 241.718 339.55 255.678C339.55 269.638 334.003 283.026 324.129 292.897C314.255 302.768 300.863 308.313 286.9 308.313Z" fill="#DEDCF8"/>
<path d="M109.1 213.04C109.089 189.487 115.114 166.323 126.6 145.759H75.6V180.049C55.5496 180.049 36.3204 188.012 22.1427 202.186C7.96495 216.36 0 235.583 0 255.628C0 275.673 7.96495 294.896 22.1427 309.07C36.3204 323.244 55.5496 331.207 75.6 331.207C79.2474 331.193 82.8896 330.925 86.5 330.407C94.0264 345.367 104.992 358.331 118.498 368.236C132.004 378.141 147.666 384.706 164.2 387.391V440.876H134.7C131.075 440.874 127.486 441.587 124.136 442.973C120.787 444.36 117.744 446.392 115.181 448.954C112.618 451.517 110.585 454.559 109.198 457.907C107.812 461.255 107.099 464.844 107.1 468.468H255.1C255.101 464.844 254.388 461.255 253.002 457.907C251.615 454.559 249.582 451.517 247.019 448.954C244.456 446.392 241.413 444.36 238.064 442.973C234.714 441.587 231.125 440.874 227.5 440.876H198V387.491C223.568 383.342 246.729 369.969 263.1 349.901C257.721 350.505 252.313 350.806 246.9 350.801C210.354 350.798 175.306 336.283 149.464 310.449C123.622 284.614 109.103 249.576 109.1 213.04ZM75.7 308.313C61.7231 308.313 48.3187 302.762 38.4355 292.882C28.5523 283.002 23 269.601 23 255.628C23 241.655 28.5523 228.254 38.4355 218.374C48.3187 208.493 61.7231 202.943 75.7 202.943V274.623C75.5 277.422 75.3 280.121 75.3 282.92C75.3244 291.405 76.3311 299.859 78.3 308.113C77.4379 308.23 76.5698 308.296 75.7 308.313Z" fill="#A5A1D7"/>
<path d="M278.3 139.661L279 146.458C280.1 146.458 292 145.959 292.1 145.259C292.2 144.559 283 143.16 283 143.16C283.061 142.059 283.028 140.955 282.9 139.86C282.8 139.561 278.3 139.661 278.3 139.661Z" fill="#2E3374" stroke="#2E3374" stroke-width="1.7" stroke-miterlimit="10"/>
<path d="M254.2 196.244L252.8 202.942C253.8 203.342 265.3 206.341 265.7 205.741C266.1 205.142 257.6 201.043 257.6 201.043C257.999 200.041 258.301 199.003 258.5 197.944C258.5 197.444 254.2 196.244 254.2 196.244Z" fill="#2E3374" stroke="#2E3374" stroke-width="1.7" stroke-miterlimit="10"/>
<path d="M233 112.068C233 112.068 250.6 77.7776 270.9 80.1769C291.2 82.5763 285.2 140.36 285.2 140.36H277.2C277.2 140.36 275.5 97.9718 268.5 98.0718C261.5 98.1718 238.4 130.563 238.4 130.563C238.4 130.563 268.6 127.963 272.6 148.558C277.5 173.551 260.3 199.343 260.3 199.343L250.6 198.943C250.6 198.943 269.2 155.256 258.7 148.858C242.6 139.06 211.6 156.655 199.3 133.562L233 112.068Z" fill="white" stroke="#2E3374" stroke-width="1.7" stroke-miterlimit="10"/>
<path d="M210.4 66.1812C210.4 66.1812 232.4 74.3789 243.6 69.6802C254.8 64.9815 267.5 41.688 274.7 41.3881C281.9 41.0882 282.2 38.5889 282.2 38.5889C282.2 38.5889 281.6 44.987 277 45.2869C272.4 45.5868 266.8 72.1795 248.8 79.3774C230.8 86.5754 212.1 80.7769 212.1 80.7769C212.1 80.7769 207.9 69.1804 210.4 66.1812Z" fill="white" stroke="#2E3374" stroke-width="1.7" stroke-miterlimit="10"/>
<path d="M203.7 33.39C203.9 32.8902 210.4 22.893 221 29.3912C225.4 32.1904 225.5 37.389 231 38.6886C236.5 39.9882 244.4 34.7896 247.2 43.787C250 52.7845 246.8 55.2838 251.7 56.2835C256.6 57.2832 260.3 56.6835 259.1 63.6816C257.4 73.6788 242.1 73.9785 240.2 68.2801C235.4 53.8842 227.3 70.8794 223.2 58.083C221.2 51.7848 193.8 61.7821 203.7 33.39Z" fill="white" stroke="#2E3374" stroke-width="1.7" stroke-miterlimit="10"/>
<path d="M220.2 65.2812C220.2 65.2812 229.8 70.9796 231.3 70.9796C232.8 70.9796 231.3 80.9768 231.3 80.9768C231.3 80.9768 217.8 74.3787 220.2 65.2812Z" fill="#D5401A" stroke="#2E3374" stroke-width="1.7" stroke-miterlimit="10"/>
<path d="M220.2 65.2808C220.2 65.2808 182.2 51.2848 199.4 133.562C199.4 133.562 238.9 120.965 233 112.068C228.9 105.869 227.3 110.068 226.5 100.071C225.7 90.0739 248.2 88.7742 220.2 65.2808Z" fill="#D5401A" stroke="#2E3374" stroke-width="1.7" stroke-miterlimit="10"/>
<path d="M220.6 44.1872C219.5 43.9872 218.3 45.0868 217.6 46.0865C217.1 43.1873 216.8 40.3881 216.6 38.0888C216.3 34.1899 205.2 33.49 202.9 41.4877C202.9 41.4877 200.1 54.0842 206.9 55.9836C209.5 56.6834 210.9 56.0838 211.7 55.1841L210.2 64.6814C210.2 64.6814 213.7 69.08 220.2 65.2811C220.8 64.8812 219.6 57.8833 218.4 50.3854C218.863 50.5893 219.382 50.6312 219.872 50.5042C220.362 50.3772 220.794 50.0888 221.1 49.6856C222 48.286 222.6 44.587 220.6 44.1872Z" fill="white" stroke="#2E3374" stroke-width="1.7" stroke-miterlimit="10"/>
<path d="M214.5 79.9768C214.5 79.9768 235.4 90.6738 247.1 87.2748C258.8 83.8757 274.1 62.1818 281.2 62.7817C288.3 63.3815 288.9 60.7822 288.9 60.7822C288.9 60.7822 287.6 67.0805 282.9 66.7805C278.2 66.4806 269.7 92.3734 251 97.372C232.3 102.371 214.4 94.5728 214.4 94.5728C214.4 94.5728 211.6 82.676 214.5 79.9768Z" fill="white" stroke="#2E3374" stroke-width="1.7" stroke-miterlimit="10"/>
<path d="M211.6 76.2787C211.6 76.2787 224.3 81.1773 225.2 82.9768C226.1 84.7763 223.8 99.872 220.4 98.9723C217 98.0725 205.5 96.0733 205.3 88.6754C205.1 81.2774 207.3 74.4792 211.6 76.2787Z" fill="#D5401A" stroke="#2E3374" stroke-width="1.5" stroke-miterlimit="10"/>
<path d="M282.2 64.3819C288.569 64.3819 294.794 62.4938 300.089 58.9566C305.385 55.4195 309.512 50.3919 311.949 44.5098C314.386 38.6277 315.024 32.1552 313.781 25.9108C312.539 19.6663 309.472 13.9303 304.969 9.42835C300.466 4.92637 294.728 1.86067 288.482 0.618578C282.236 -0.623517 275.761 0.0138814 269.878 2.45034C263.994 4.88679 258.965 9.01285 255.427 14.3066C251.888 19.6004 250 25.8242 250 32.191C249.997 36.4191 250.828 40.6062 252.446 44.513C254.063 48.4197 256.435 51.9695 259.425 54.9592C262.416 57.949 265.967 60.32 269.875 61.9368C273.782 63.5536 277.971 64.3845 282.2 64.3819Z" fill="#FD8208"/>
<path d="M272.3 32.1914V33.5913H281.5V32.1914H272.3Z" fill="white"/>
<path d="M282.899 32.1914V33.5913H292.099V32.1914H282.899Z" fill="white"/>
<path d="M314.3 33.5913V32.1914H293.5V33.5913H314.3Z" fill="white"/>
<path d="M250 32.1914V33.5913H270.9V32.1914H250Z" fill="white"/>
<path d="M282.9 0H281.5V64.382H282.9V0Z" fill="white"/>
<path d="M293.5 33.9903V32.191C293.9 22.0939 297.4 13.0963 302.6 7.39794C302.2 7.09802 301.9 6.79796 301.5 6.49805C296 12.4964 292.4 21.694 292 32.191V33.9903C292 43.8875 294.9 52.8852 299.7 59.1834C300.1 58.8835 300.5 58.6835 300.9 58.3836C296.3 52.2853 293.5 43.5876 293.5 33.9903Z" fill="white"/>
<path d="M262.8 6.49805C262.4 6.79796 262.1 7.09802 261.7 7.39794C267 13.0963 270.5 22.0939 270.8 32.191V33.9903C270.8 43.5876 268 52.2853 263.4 58.3836C263.8 58.6835 264.2 58.8835 264.6 59.1834C269.3 52.8852 272.3 43.8875 272.3 33.9903V32.191C271.9 21.694 268.3 12.4964 262.8 6.49805Z" fill="white"/>
<path d="M47.1997 470.867L47.0997 477.665C45.9997 477.765 34.0997 478.365 33.8997 477.665C33.6997 476.966 42.7997 474.766 42.7997 474.766C42.6206 473.676 42.5536 472.571 42.5997 471.467C42.6997 471.167 47.1997 470.867 47.1997 470.867Z" fill="#2E3374" stroke="#2E3374" stroke-width="1.7" stroke-miterlimit="10"/>
<path d="M64.0999 470.867L63.7999 477.665C62.6999 477.765 50.7999 477.965 50.5999 477.266C50.3999 476.566 59.5 474.666 59.5 474.666C59.3596 473.572 59.3262 472.467 59.4 471.367C59.6 471.067 64.0999 470.867 64.0999 470.867Z" fill="#2E3374" stroke="#2E3374" stroke-width="1.7" stroke-miterlimit="10"/>
<path d="M72.1994 386.591C72.1994 386.591 80.6994 325.908 72.1994 317.31C58.9994 303.814 35.8994 313.911 34.9994 315.511C31.1994 321.809 30.8994 385.091 30.8994 385.091L72.1994 386.591Z" fill="white" stroke="#2E3374" stroke-width="1.7" stroke-miterlimit="10"/>
<path d="M30.7997 385.092C30.7997 385.092 10.9997 410.484 14.2997 423.281C17.5997 436.077 40.0997 472.667 40.0997 472.667H49.6997C49.6997 472.667 29.1997 427.379 30.7997 422.681C32.3997 417.982 51.4997 399.187 51.4997 399.187C51.4997 399.187 52.5997 449.373 58.4997 472.667H65.1997C65.1997 472.667 72.2997 416.483 72.1997 384.092L30.7997 385.092Z" fill="#F8B243" stroke="#2E3374" stroke-width="1.7" stroke-miterlimit="10"/>
<path d="M56.8995 289.019C56.1995 288.919 55.7995 289.319 55.3995 289.919C55.0995 287.519 54.8995 285.22 54.6995 283.321C54.3995 279.422 44.5995 283.32 42.0995 287.919C42.0995 287.919 38.1995 299.216 44.9995 301.215C47.7995 302.015 49.1995 301.215 49.8995 300.216C49.3995 304.514 48.6995 311.712 48.6995 311.712C48.6995 311.712 51.6995 314.312 58.1995 310.513C58.1995 310.513 57.0995 303.115 55.9995 295.517C56.4803 295.793 57.0419 295.894 57.5888 295.803C58.1357 295.712 58.6341 295.434 58.9995 295.017C60.1995 293.418 58.7995 289.419 56.8995 289.019Z" fill="white" stroke="#2E3374" stroke-width="1.7" stroke-miterlimit="10"/>
<path d="M76.3 386.591C76.3 386.591 70.4 382.393 78.1 374.195C84.6 367.297 100.4 350.302 94.9 344.003C89.4 337.705 76.2 332.906 76.2 332.906L73.5 315.312C73.5 315.312 102.6 326.608 108.5 342.804C114.1 358.099 82.1 376.294 79.4 378.594C75.9 381.593 76.3 386.591 76.3 386.591Z" fill="white" stroke="#2E3374" stroke-width="1.7" stroke-miterlimit="10"/>
<path d="M34.8995 315.411C34.8995 315.411 4.09953 325.108 2.69953 346.702C1.29953 368.296 30.8995 376.294 28.9995 379.893C27.3995 382.892 22.4995 383.792 23.8995 383.592C25.2995 383.392 33.1995 386.391 30.8995 376.194C28.5995 365.997 6.39954 358.499 16.3995 345.203C21.6995 338.105 32.3995 334.306 32.3995 334.306C32.3995 334.306 33.4995 320.11 34.8995 315.411Z" fill="white" stroke="#2E3374" stroke-width="1.7" stroke-miterlimit="10"/>
<path d="M96.9998 328.608C96.3998 328.208 82.5998 316.211 67.6998 312.812C66.5134 312.514 65.3116 312.28 64.0998 312.112L62.7998 422.881H73.6998C73.6998 422.881 75.8998 364.598 76.1998 335.106L88.7998 339.704C88.8998 339.504 97.5998 329.008 96.9998 328.608Z" fill="white" stroke="#2E3374" stroke-width="1.7" stroke-miterlimit="10"/>
<path d="M42.6998 312.013C41.5432 312.114 40.4022 312.348 39.2997 312.712C20.5997 318.611 10.8997 329.708 10.5997 330.008C10.2997 330.308 21.3998 342.004 21.3998 342.004C24.0998 339.505 28.4998 337.406 31.8998 336.006C30.4998 356 30.6998 381.493 30.6998 381.493C30.6998 381.493 20.6998 397.189 15.1998 409.185L21.5997 414.084C21.5997 414.084 40.5997 387.091 40.0997 383.892C39.5997 380.693 42.6998 312.013 42.6998 312.013Z" fill="white" stroke="#2E3374" stroke-width="1.7" stroke-miterlimit="10"/>
<path d="M62.7999 288.82C62.4999 285.521 58.9999 287.22 59.9999 284.921C60.9999 282.621 58.7999 277.423 54.0999 279.922C54.0999 279.922 52.5999 274.624 49.2999 275.823C45.9999 277.023 46.4999 278.822 44.0999 277.823C41.6999 276.823 39.2999 280.522 40.5999 282.921C42.2999 286.02 42.1999 287.02 46.6999 285.92C51.1999 284.821 53.5999 283.321 54.5999 285.121C55.3999 286.52 54.4999 289.719 54.6999 291.319L54.3999 291.519C54.6999 296.517 47.6999 298.917 45.1999 297.117C44.5237 296.605 43.6984 296.327 42.8499 296.327C42.0013 296.327 41.1761 296.605 40.4999 297.117C39.3999 297.717 40.6999 304.815 47.6999 303.915C53.3999 303.215 55.5999 294.618 56.1999 291.519C56.5999 290.719 56.7999 289.719 57.3999 290.519C58.3999 291.819 59.9999 295.318 57.2999 294.918C54.5999 294.518 56.5999 298.117 57.5999 298.017C58.5999 297.917 63.2999 294.018 62.7999 288.82Z" fill="#2E3374" stroke="#2E3374" stroke-width="1.7" stroke-miterlimit="10"/>
</svg>
