<svg width="185" height="90" viewBox="0 0 185 90" fill="none" xmlns="http://www.w3.org/2000/svg">
<path d="M47.4212 22.3949C33.658 22.3949 22.5 33.5265 22.5 47.2897C22.5 61.0267 33.658 72.1846 47.4212 72.1846C61.1844 72.1846 72.3424 61.053 72.3424 47.2897C72.3687 33.5265 61.1844 22.3949 47.4212 22.3949ZM47.3686 61.3161C39.6054 61.3161 33.2632 55.0003 33.2632 47.2371C33.2632 39.4739 39.579 33.1581 47.3686 33.1581C55.1318 33.1581 61.4739 39.4739 61.4739 47.2371C61.4739 55.0003 55.1581 61.3161 47.3686 61.3161ZM26.2895 19.1317C32.1579 14.7369 39.4475 12.1316 47.3422 12.1316C55.2897 12.1316 62.6318 14.7896 68.5266 19.2633C68.816 19.4738 69.3687 19.9212 69.3687 19.9212L69.6582 5.55266C69.6582 5.55266 68.8687 5.13161 68.4739 4.9474C62.1318 1.76317 54.9739 0 47.4212 0C39.6843 0 32.3948 1.84212 25.9474 5.10529C25.6053 5.2895 25.5 5.63161 25.5 5.63161L25.579 19.6317C25.6053 19.658 26.0527 19.3159 26.2895 19.1317Z" fill="white"/>
<path d="M6.02635 69.4243L5.97372 69.398C5.92109 69.3717 5.4474 69.2401 5.18424 68.7401C1.73685 62.0295 0 54.74 0 47.1347C0 39.6873 1.6579 32.5557 4.97371 25.924C5.18424 25.5293 5.57898 24.7398 5.57898 24.7398L5.68424 24.5293L21.158 24.8451L20.658 25.4767C20.658 25.4767 20.2106 26.0293 20.0001 26.2925C15.3685 32.3714 12.9211 39.6083 12.9211 47.2399C12.9211 54.7926 15.3159 62.0032 19.8948 68.0295C20.0791 68.2664 20.4212 68.7138 20.4212 68.7138L20.9212 69.3453L6.02635 69.4243ZM6.15793 25.3188C6.02635 25.5819 5.78951 26.0293 5.65793 26.2925C2.42107 32.7925 0.789478 39.8189 0.789478 47.1347C0.789478 54.6347 2.50001 61.7927 5.89477 68.4243C5.97372 68.5559 6.07898 68.6348 6.15793 68.6611L19.3422 68.5822C19.3159 68.5559 19.3159 68.5295 19.2896 68.5295C14.6317 62.3453 12.158 55.0032 12.158 47.2663C12.158 39.4767 14.658 32.0557 19.3948 25.8451C19.4475 25.7925 19.5001 25.7135 19.5527 25.6346L6.15793 25.3188Z" fill="white"/>
<path d="M89.7892 69.896L74.3154 69.5802L74.8154 68.9486C74.8154 68.9486 75.2628 68.3959 75.4733 68.1328C80.1049 62.0538 82.5523 54.8169 82.5523 47.2116C82.5523 39.6589 80.1576 32.4747 75.6049 26.422C75.4207 26.1852 75.0786 25.7378 75.0786 25.7378L74.5786 25.1062L89.4997 25.001L89.5524 25.0273C89.605 25.0536 90.0787 25.1852 90.3155 25.6852C93.7629 32.4221 95.4998 39.6853 95.4998 47.2906C95.4998 54.738 93.8419 61.8433 90.526 68.4749C90.3155 68.8696 89.9208 69.6591 89.9208 69.6591L89.7892 69.896ZM75.9207 68.817L89.3155 69.0802C89.4471 68.817 89.6839 68.3696 89.8155 68.1065C93.0524 61.6064 94.684 54.6064 94.684 47.2906C94.684 39.8168 92.9734 32.6589 89.5787 26.0273C89.526 25.8957 89.3945 25.8168 89.3155 25.7905L76.1312 25.8694C76.1575 25.8957 76.1575 25.8957 76.1839 25.922C80.8418 32.1063 83.2892 39.4484 83.2892 47.1853C83.2892 54.9748 80.7892 62.3696 76.0523 68.5802C76.026 68.6591 75.9733 68.7381 75.9207 68.817Z" fill="white"/>
<path d="M25.2222 79.8693L25.538 79.343C25.7486 79.0009 26.0907 78.7904 26.5117 78.7114C26.9328 78.6325 27.3538 78.7114 27.7223 78.9483C28.0907 79.1851 28.3275 79.5009 28.4328 79.922C28.5381 80.343 28.4854 80.7378 28.2749 81.0799L27.9591 81.6062C27.7486 81.9483 27.4065 82.1588 26.9854 82.2378C26.538 82.3167 26.1433 82.2641 25.7749 82.0272C25.4065 81.7904 25.1696 81.4746 25.0644 81.0272C24.9591 80.6062 25.0117 80.2114 25.2222 79.8693ZM26.038 80.3956C25.9328 80.5535 25.9065 80.7114 25.9591 80.8956C25.9854 81.0799 26.0907 81.2114 26.2486 81.3167C26.4065 81.422 26.5644 81.422 26.7486 81.3956C26.9328 81.343 27.0644 81.2641 27.1696 81.1062L27.4854 80.6062C27.5644 80.4746 27.5907 80.2904 27.5644 80.1062C27.538 79.922 27.4328 79.7904 27.3012 79.6851C27.1433 79.5798 26.9854 79.5535 26.8012 79.6062C26.617 79.6588 26.4854 79.7377 26.3801 79.8956L26.038 80.3956ZM27.2749 77.3167C27.3538 77.2114 27.4328 77.1325 27.5644 77.1062C27.6959 77.0798 27.7749 77.0798 27.8538 77.1325C27.9328 77.1588 28.0117 77.1851 28.0907 77.2377C28.2223 77.3167 28.3538 77.4483 28.4854 77.6062C28.617 77.7904 28.7486 77.8956 28.8802 77.9746C28.9854 78.0272 29.0907 78.0798 29.2223 78.1062C29.3538 78.1325 29.4328 78.1325 29.4854 78.1588C29.5644 78.2114 29.5907 78.2641 29.5907 78.343C29.5907 78.422 29.5644 78.5009 29.5381 78.5535C29.4854 78.6588 29.4065 78.7114 29.3275 78.7377C29.2486 78.7641 29.1696 78.7904 29.0907 78.7641C29.0117 78.7377 28.9328 78.7377 28.8802 78.7114C28.8275 78.6851 28.7749 78.6588 28.7223 78.6325C28.5644 78.5272 28.4328 78.3956 28.3012 78.2377C28.1696 78.0535 28.0381 77.9483 27.9591 77.8956C27.8538 77.843 27.7486 77.7904 27.5907 77.7641C27.4591 77.7377 27.3802 77.7377 27.3275 77.7114C27.2486 77.6588 27.2223 77.6062 27.2223 77.5272C27.2223 77.4219 27.2486 77.3693 27.2749 77.3167Z" fill="white"/>
<path d="M28.9102 85.29L30.8049 81.1058C30.8313 81.0268 30.9102 80.9742 31.0155 80.9742C31.1207 80.9479 31.226 80.9742 31.3576 81.0268C31.4628 81.0795 31.5681 81.1584 31.6207 81.2374C31.6734 81.3163 31.6734 81.3952 31.6471 81.5005L31.5418 81.711C31.6997 81.6058 31.8839 81.5268 32.0681 81.5005C32.2786 81.4742 32.4892 81.5005 32.6734 81.6058C33.0155 81.7637 33.2523 82.0268 33.3576 82.3953C33.4629 82.7637 33.4365 83.1584 33.2786 83.5268L33.0155 84.0795C32.8576 84.4479 32.5944 84.7111 32.226 84.8953C31.8576 85.0795 31.5155 85.0795 31.1997 84.9479C31.0155 84.8689 30.8576 84.7374 30.726 84.5532C30.6207 84.3689 30.5418 84.1847 30.5418 84.0268L29.7786 85.7374C29.7523 85.8163 29.6734 85.8426 29.5681 85.8689C29.4628 85.8953 29.3312 85.869 29.226 85.8163C29.0944 85.7637 29.0155 85.6847 28.9628 85.6058C28.8839 85.4479 28.8576 85.369 28.9102 85.29ZM30.8839 83.2637C30.8313 83.3426 30.8576 83.4742 30.9365 83.6584C31.0155 83.8426 31.1207 83.9479 31.2786 84.0268C31.4365 84.1058 31.5944 84.1058 31.7786 84.0268C31.9628 83.9479 32.0944 83.8426 32.1471 83.6847L32.4102 83.1321C32.4892 82.9742 32.4892 82.8163 32.4102 82.6321C32.3313 82.4479 32.226 82.3163 32.0681 82.2374C31.9102 82.1584 31.7523 82.1584 31.5944 82.211C31.4365 82.2637 31.3049 82.3952 31.226 82.5795L30.8839 83.2637Z" fill="white"/>
<path d="M35.142 84.8718L35.3262 84.2665C35.4315 83.8718 35.6946 83.5823 36.0894 83.3981C36.4841 83.2139 36.8788 83.1612 37.3262 83.2928C37.7209 83.4244 38.0367 83.6349 38.2473 83.977C38.4578 84.3191 38.5104 84.6876 38.4052 85.0823C38.3525 85.2139 38.2999 85.3455 38.2473 85.4244C38.1946 85.5034 38.1157 85.556 38.0367 85.5823C37.9578 85.6086 37.8788 85.6086 37.7999 85.5823C37.7473 85.5823 37.642 85.556 37.563 85.5297L36.1157 85.1086L36.0894 85.2139C36.0367 85.4244 36.063 85.6086 36.1683 85.7665C36.2736 85.9507 36.4578 86.056 36.7209 86.1349C36.9051 86.1876 37.0894 86.1876 37.2999 86.1613C37.5104 86.1349 37.642 86.1086 37.6946 86.1349C37.7999 86.1613 37.8525 86.2402 37.9052 86.3455C37.9315 86.4507 37.9578 86.556 37.9315 86.6349C37.9052 86.7665 37.7209 86.8718 37.4578 86.9244C37.1683 86.977 36.8525 86.9507 36.5104 86.8455C36.0104 86.6876 35.6157 86.4507 35.3788 86.0823C35.142 85.7139 35.0104 85.2928 35.142 84.8718ZM36.2473 84.5297L37.2999 84.8455C37.3788 84.8718 37.4315 84.8718 37.4841 84.8455C37.5104 84.8191 37.563 84.7928 37.563 84.7139C37.6157 84.556 37.5894 84.4244 37.4841 84.2665C37.3788 84.1349 37.2473 84.0297 37.0894 83.977C36.9315 83.9244 36.7736 83.9244 36.6157 84.0034C36.4578 84.056 36.3525 84.1612 36.3262 84.3191L36.2473 84.5297Z" fill="white"/>
<path d="M40.3704 86.5012L40.9493 82.9749C40.9756 82.8959 41.0283 82.8433 41.1335 82.7907C41.2388 82.738 41.3441 82.738 41.4756 82.7644C41.6072 82.7907 41.7125 82.8433 41.7914 82.8959C41.8704 82.9749 41.923 83.0538 41.8967 83.1328L41.6862 84.3433L42.5546 84.4749C42.6335 84.4749 42.6862 84.5275 42.7125 84.6065C42.7388 84.6854 42.7651 84.7907 42.7388 84.8696C42.7125 84.9749 42.6862 85.0538 42.6335 85.1328C42.5809 85.2117 42.502 85.238 42.4493 85.2117L41.5809 85.0802L41.3177 86.6065C41.2914 86.7381 41.3177 86.8433 41.3704 86.896C41.423 86.9749 41.5283 87.0012 41.6862 87.0275L41.9756 87.0802C42.1072 87.1065 42.1862 87.1591 42.2651 87.2644C42.3178 87.3696 42.3441 87.4486 42.3178 87.5802C42.2914 87.6854 42.2388 87.7907 42.1599 87.8696C42.0809 87.9486 41.9756 87.9749 41.8441 87.9486L41.5546 87.896C40.6335 87.7381 40.2388 87.2644 40.3704 86.5012Z" fill="white"/>
<path d="M44.4415 87.2889C44.4678 86.8941 44.6257 86.631 44.9152 86.4731C45.231 86.3152 45.652 86.2626 46.2047 86.2889L46.5205 86.3152V86.2099C46.5205 86.0257 46.4942 85.8415 46.3889 85.7099C46.2836 85.552 46.1257 85.4994 45.9152 85.4731C45.7047 85.4731 45.4942 85.4994 45.3363 85.5783C45.1784 85.6573 45.0731 85.6836 45.0468 85.6836C44.9415 85.6836 44.8626 85.631 44.8099 85.5257C44.7573 85.4204 44.731 85.3152 44.731 85.1836C44.731 85.052 44.8626 84.9204 45.1257 84.8152C45.3889 84.7099 45.652 84.6836 45.9415 84.6836C46.4942 84.7099 46.8889 84.8678 47.1257 85.1573C47.3889 85.4468 47.4942 85.7889 47.4678 86.2099L47.3889 88.0257C47.3889 88.1047 47.3363 88.1836 47.2573 88.2362C47.1784 88.2889 47.0468 88.3152 46.9152 88.3152C46.7836 88.3152 46.6784 88.2626 46.5994 88.2099C46.5205 88.131 46.4942 88.052 46.4942 87.9731V87.7362C46.1257 88.131 45.7573 88.3415 45.3363 88.3152C45.0468 88.3152 44.8363 88.2099 44.652 88.0257C44.4941 87.8941 44.4152 87.631 44.4415 87.2889ZM45.4152 87.2099C45.4152 87.3415 45.4415 87.4468 45.5205 87.4994C45.5994 87.5783 45.6784 87.6047 45.8099 87.6047C45.9678 87.6047 46.1257 87.552 46.2836 87.4205C46.4415 87.2889 46.5205 87.131 46.5205 86.9731V86.8152H46.4152C46.0994 86.7889 45.8626 86.8152 45.7047 86.8678C45.4941 86.9205 45.4152 87.052 45.4152 87.2099Z" fill="white"/>
<path d="M49.3936 89.5792C49.3936 89.4476 49.4199 89.3424 49.4725 89.2634C49.5251 89.1845 49.6304 89.1318 49.7357 89.1318C49.8672 89.1318 49.9462 89.0792 49.9725 88.9739C49.9988 88.8687 50.0251 88.7371 49.9988 88.5266L49.7883 85.0792C49.7883 85.0002 49.8146 84.9213 49.9199 84.8686C49.9988 84.816 50.1041 84.7634 50.262 84.7634C50.3936 84.7634 50.5251 84.7634 50.6041 84.816C50.7094 84.8686 50.762 84.9213 50.762 85.0265L50.9725 88.5002C50.9988 88.9213 50.9199 89.2634 50.7357 89.5529C50.5515 89.816 50.2883 89.9739 49.9199 90.0002C49.5778 90.0002 49.4199 89.8687 49.3936 89.5792ZM49.5778 83.5792C49.5778 83.4739 49.6304 83.3686 49.7093 83.2634C49.8146 83.1844 49.9462 83.1318 50.1041 83.1055C50.2357 83.1055 50.3672 83.1318 50.4725 83.2107C50.5778 83.2897 50.6304 83.3949 50.6567 83.5002C50.6567 83.6055 50.6304 83.7107 50.5251 83.816C50.4199 83.895 50.3146 83.9476 50.1567 83.9739C49.9988 83.9739 49.8672 83.9476 49.7357 83.8686C49.6041 83.7897 49.5778 83.6844 49.5778 83.5792Z" fill="white"/>
<path d="M53.1579 87.0822C53.079 86.6875 53.1843 86.398 53.4474 86.1875C53.7106 85.9769 54.1316 85.819 54.6843 85.7401L54.9737 85.6875L54.9474 85.5822C54.9211 85.398 54.8422 85.2401 54.7106 85.1348C54.579 85.0032 54.3948 84.9769 54.1843 85.0032C53.9737 85.0296 53.7895 85.1085 53.6316 85.2138C53.5 85.319 53.3948 85.3717 53.3948 85.398C53.2895 85.4243 53.2106 85.3717 53.1316 85.2927C53.0527 85.2138 53 85.1085 53 84.9769C52.9737 84.8453 53.079 84.6875 53.3158 84.5296C53.5527 84.3717 53.8158 84.2927 54.079 84.2401C54.6053 84.1348 55.0264 84.2138 55.3422 84.4506C55.658 84.6875 55.8422 85.0032 55.9211 85.398L56.2369 87.1875C56.2632 87.2664 56.2106 87.3454 56.1316 87.4243C56.0527 87.5033 55.9474 87.5559 55.8158 87.5822C55.6843 87.6085 55.579 87.5822 55.5001 87.5296C55.4211 87.4769 55.3422 87.4243 55.3422 87.319L55.2895 87.0822C55.0264 87.5559 54.6843 87.819 54.2895 87.898C54 87.9506 53.7632 87.898 53.5527 87.7664C53.3421 87.6612 53.2106 87.4243 53.1579 87.0822ZM54.079 86.819C54.1053 86.9506 54.1579 87.0296 54.2369 87.0822C54.3158 87.1348 54.4211 87.1348 54.5264 87.1348C54.6843 87.1085 54.8158 87.0033 54.9474 86.8454C55.079 86.6875 55.1053 86.5033 55.079 86.3454L55.0527 86.1875L54.9474 86.2138C54.6579 86.2664 54.4211 86.3454 54.2632 86.4243C54.1053 86.5032 54.0527 86.6348 54.079 86.819Z" fill="white"/>
<path d="M58.7089 86.7893C58.6036 86.7103 58.5247 86.6051 58.472 86.4735C58.4194 86.3419 58.4457 86.2103 58.4984 86.0788C58.551 85.9472 58.6563 85.8682 58.7878 85.8419C58.9194 85.8156 59.0247 85.8156 59.1563 85.8945C59.2878 85.9735 59.3668 86.0524 59.3931 86.2103C59.4194 86.3419 59.4194 86.4735 59.3405 86.5788C59.2878 86.7103 59.1826 86.7893 59.051 86.8156C58.9457 86.8682 58.8142 86.8682 58.7089 86.7893Z" fill="white"/>
<path d="M61.2097 84.6059L60.9728 84.0269C60.8149 83.6585 60.8412 83.2638 61.0254 82.869C61.2097 82.4743 61.4991 82.1848 61.9202 82.0269C62.3149 81.869 62.7097 81.8427 63.0781 82.0006C63.4465 82.1322 63.736 82.3954 63.8676 82.7638C63.9202 82.8954 63.9465 83.0269 63.9465 83.1322C63.9465 83.2375 63.9202 83.3164 63.8676 83.3954C63.8149 83.448 63.7623 83.5006 63.7097 83.5533C63.657 83.5796 63.5781 83.6322 63.4728 83.6585L62.0781 84.2375L62.1307 84.3427C62.2097 84.5533 62.3412 84.6585 62.5518 84.7375C62.736 84.7901 62.9728 84.7901 63.2097 84.6848C63.3939 84.6059 63.5518 84.5006 63.6834 84.3427C63.8149 84.1848 63.9202 84.1059 63.9728 84.0796C64.0781 84.0533 64.157 84.0533 64.2623 84.1059C64.3676 84.1585 64.4202 84.2375 64.4728 84.3164C64.5255 84.448 64.4728 84.6322 64.2886 84.8427C64.1044 85.0533 63.8413 85.2375 63.4991 85.3954C62.9991 85.6059 62.5518 85.6322 62.1307 85.5006C61.6834 85.3164 61.3939 85.0269 61.2097 84.6059ZM61.8676 83.6585L62.8676 83.2375C62.9465 83.2111 62.9991 83.1848 62.9991 83.1322C63.0255 83.1059 63.0255 83.0532 62.9991 82.9743C62.9465 82.8164 62.8412 82.7375 62.6834 82.6848C62.5255 82.6322 62.3676 82.6585 62.1834 82.7111C62.0255 82.7638 61.8939 82.869 61.8149 83.0269C61.736 83.1585 61.7097 83.3164 61.7886 83.4743L61.8676 83.6585Z" fill="white"/>
<path d="M66.2109 82.4223L65.3161 80.8697C65.2898 80.817 65.2898 80.7118 65.3424 80.6065C65.3951 80.5012 65.474 80.4223 65.5793 80.3433C65.6845 80.2907 65.7898 80.2644 65.9214 80.2644C66.0266 80.2644 66.1056 80.317 66.1582 80.3697L67.053 81.9223C67.1319 82.0802 67.2635 82.1855 67.4477 82.2381C67.6319 82.2907 67.7898 82.2644 67.9477 82.1855C68.1056 82.1065 68.2109 81.9486 68.2372 81.7907C68.2898 81.6065 68.2635 81.4486 68.1582 81.2907L67.2635 79.7381C67.2109 79.6591 67.2372 79.5802 67.2898 79.4749C67.3424 79.3697 67.4214 79.2907 67.5267 79.2381C67.6582 79.1591 67.7635 79.1328 67.8688 79.1328C67.974 79.1328 68.053 79.1854 68.0793 79.2381L68.974 80.7907C69.1846 81.1328 69.2109 81.5276 69.1056 81.9486C68.974 82.3697 68.7372 82.6855 68.3425 82.9223C67.974 83.1328 67.553 83.2118 67.1319 83.1065C66.7372 83.0012 66.4214 82.7644 66.2109 82.4223Z" fill="white"/>
<path d="M107.152 42.9752V39.6067C107.152 38.6594 107.416 37.9488 107.916 37.5015C108.416 37.0541 109.126 36.8436 109.968 36.8436C110.837 36.8436 111.521 37.0541 112.047 37.5015C112.573 37.9488 112.81 38.633 112.81 39.6067V42.9752C112.81 43.9225 112.547 44.6331 112.047 45.0804C111.521 45.5278 110.837 45.7383 109.968 45.7383C109.1 45.7383 108.416 45.5278 107.916 45.0804C107.416 44.6331 107.152 43.9489 107.152 42.9752ZM107.916 35.0541C107.916 34.8435 107.994 34.6593 108.126 34.5278C108.284 34.3962 108.416 34.3172 108.547 34.2909C108.679 34.2646 108.81 34.2383 108.942 34.2383C109.179 34.2383 109.468 34.2909 109.81 34.4225C110.152 34.5278 110.442 34.6067 110.652 34.6067C110.837 34.6067 111.047 34.5541 111.231 34.4751C111.442 34.3699 111.547 34.3435 111.626 34.3435C111.758 34.3435 111.863 34.3962 111.916 34.5278C111.968 34.6593 112.021 34.7646 112.021 34.8435C112.021 35.0278 111.994 35.1593 111.916 35.2909C111.837 35.3962 111.731 35.5014 111.626 35.5541C111.494 35.6067 111.389 35.633 111.284 35.6593C111.179 35.6857 111.1 35.6857 110.994 35.6857C110.705 35.6857 110.389 35.633 110.073 35.5014C109.731 35.3962 109.468 35.3172 109.284 35.3172C109.1 35.3172 108.889 35.3699 108.679 35.4751C108.468 35.5804 108.337 35.633 108.284 35.633C108.152 35.633 108.047 35.5804 107.994 35.4488C107.942 35.2646 107.916 35.1593 107.916 35.0541ZM108.731 42.9752C108.731 43.8962 109.152 44.3699 109.994 44.3699C110.837 44.3699 111.258 43.8962 111.258 42.9752V39.6067C111.258 38.6857 110.837 38.212 109.994 38.212C109.152 38.212 108.731 38.6857 108.731 39.6067V42.9752Z" fill="white"/>
<path d="M113.972 47.8672V40.4198C113.972 40.2619 114.051 40.1567 114.182 40.0777C114.314 39.9988 114.498 39.9461 114.709 39.9461C114.919 39.9461 115.103 39.9988 115.235 40.0777C115.366 40.1567 115.445 40.2882 115.445 40.4198V40.7882C115.603 40.5251 115.814 40.3146 116.103 40.1303C116.393 39.9461 116.709 39.8672 117.077 39.8672C117.682 39.8672 118.182 40.104 118.603 40.5777C119.024 41.0514 119.235 41.6304 119.235 42.3146V43.3146C119.235 43.9725 119.024 44.5514 118.603 45.0514C118.182 45.5514 117.682 45.7883 117.13 45.7883C116.787 45.7883 116.472 45.683 116.156 45.4988C115.866 45.3146 115.656 45.0777 115.524 44.8146V47.8409C115.524 47.9725 115.445 48.0778 115.287 48.183C115.13 48.2883 114.945 48.3409 114.735 48.3409C114.524 48.3409 114.34 48.2883 114.182 48.183C114.051 48.1041 113.972 47.9725 113.972 47.8672ZM115.524 43.5251C115.524 43.683 115.63 43.8672 115.84 44.0777C116.051 44.2883 116.314 44.3935 116.577 44.3935C116.866 44.3935 117.103 44.2883 117.314 44.0514C117.524 43.8146 117.63 43.5777 117.63 43.2883V42.3146C117.63 42.0251 117.524 41.7883 117.314 41.5777C117.103 41.3672 116.84 41.2356 116.551 41.2356C116.287 41.2356 116.024 41.3409 115.814 41.5251C115.603 41.7356 115.498 41.9725 115.498 42.3146V43.5251H115.524Z" fill="white"/>
<path d="M120.028 43.3146V42.2883C120.028 41.6304 120.291 41.0514 120.791 40.5777C121.318 40.104 121.923 39.8672 122.66 39.8672C123.344 39.8672 123.923 40.0777 124.423 40.5251C124.923 40.9461 125.16 41.4988 125.16 42.1567C125.16 42.3935 125.134 42.604 125.081 42.7619C125.028 42.9198 124.923 43.0251 124.792 43.104C124.66 43.1567 124.555 43.2093 124.449 43.2356C124.344 43.2619 124.213 43.2619 124.028 43.2619H121.581V43.4462C121.581 43.7883 121.713 44.0777 121.976 44.2883C122.239 44.4988 122.581 44.6041 123.002 44.6041C123.318 44.6041 123.607 44.5251 123.897 44.3672C124.186 44.2093 124.397 44.1304 124.476 44.1304C124.634 44.1304 124.792 44.2093 124.897 44.3672C125.002 44.5251 125.055 44.683 125.055 44.8146C125.055 45.0514 124.844 45.262 124.449 45.4725C124.055 45.683 123.528 45.8146 122.923 45.8146C122.055 45.8146 121.344 45.5777 120.818 45.1304C120.291 44.6567 120.028 44.0514 120.028 43.3146ZM121.581 42.2883H123.344C123.476 42.2883 123.555 42.2619 123.607 42.2356C123.66 42.183 123.686 42.104 123.686 41.9988C123.686 41.7356 123.581 41.5251 123.37 41.3672C123.16 41.2093 122.923 41.1304 122.607 41.1304C122.318 41.1304 122.081 41.2093 121.87 41.3672C121.66 41.5251 121.555 41.7356 121.555 41.9988V42.2883H121.581Z" fill="white"/>
<path d="M126.074 43.7446V37.9551C126.074 37.8236 126.153 37.7183 126.311 37.613C126.469 37.5341 126.653 37.4814 126.837 37.4814C127.048 37.4814 127.232 37.5341 127.39 37.613C127.548 37.692 127.627 37.8236 127.627 37.9551V39.9551H129.048C129.179 39.9551 129.258 40.0078 129.337 40.1394C129.416 40.2709 129.443 40.4025 129.443 40.5604C129.443 40.7183 129.416 40.8762 129.337 40.9815C129.258 41.113 129.179 41.1657 129.048 41.1657H127.627V43.692C127.627 43.9025 127.679 44.0604 127.785 44.1657C127.89 44.271 128.048 44.2973 128.311 44.2973H128.785C128.995 44.2973 129.153 44.3762 129.285 44.5078C129.39 44.6394 129.469 44.7973 129.469 44.9815C129.469 45.1657 129.416 45.3499 129.285 45.4815C129.179 45.6131 128.995 45.692 128.785 45.692H128.311C126.811 45.692 126.074 45.0341 126.074 43.7446Z" fill="white"/>
<path d="M129.949 44.1275C129.949 43.4959 130.186 43.0485 130.686 42.7854C131.16 42.5222 131.87 42.3906 132.765 42.3906H133.265V42.2327C133.265 41.9169 133.186 41.6538 133.002 41.4433C132.818 41.2064 132.554 41.1012 132.186 41.1012C131.818 41.1012 131.502 41.1801 131.265 41.3117C131.002 41.4433 130.87 41.5222 130.818 41.5222C130.66 41.5222 130.528 41.4433 130.423 41.2854C130.318 41.1275 130.265 40.9433 130.265 40.759C130.265 40.5222 130.476 40.3117 130.897 40.1538C131.318 39.9696 131.739 39.8906 132.212 39.8906C133.081 39.8906 133.739 40.1012 134.16 40.5485C134.581 40.9959 134.791 41.5485 134.791 42.2327V45.2064C134.791 45.338 134.712 45.4696 134.581 45.5486C134.449 45.6275 134.265 45.7064 134.028 45.7064C133.818 45.7064 133.66 45.6538 133.528 45.5486C133.397 45.4433 133.318 45.3117 133.318 45.1801V44.8117C132.765 45.4959 132.16 45.838 131.476 45.838C131.028 45.838 130.633 45.7064 130.344 45.417C130.081 45.0749 129.949 44.6801 129.949 44.1275ZM131.502 43.9433C131.502 44.1538 131.554 44.3117 131.686 44.417C131.791 44.5222 131.949 44.5749 132.16 44.5749C132.423 44.5749 132.66 44.4696 132.897 44.2328C133.133 43.9959 133.265 43.7591 133.265 43.4696V43.2327H133.081C132.581 43.2327 132.212 43.2854 131.923 43.3643C131.633 43.4433 131.502 43.6538 131.502 43.9433Z" fill="white"/>
<path d="M134.926 47.6867C134.926 47.4762 134.978 47.292 135.084 47.1867C135.189 47.0551 135.347 47.0025 135.505 47.0025C135.715 47.0025 135.847 46.9236 135.899 46.7657C135.952 46.6078 135.978 46.3709 135.978 46.0551V40.4498C135.978 40.3183 136.057 40.1867 136.189 40.1077C136.347 40.0288 136.505 39.9762 136.742 39.9762C136.978 39.9762 137.163 40.0288 137.321 40.1077C137.478 40.1867 137.557 40.3183 137.557 40.4498V46.1078C137.557 46.792 137.399 47.3446 137.084 47.7657C136.768 48.1867 136.321 48.3973 135.742 48.3973C135.189 48.3446 134.926 48.1341 134.926 47.6867ZM135.847 37.9762C135.847 37.7919 135.926 37.634 136.11 37.4761C136.294 37.3446 136.505 37.2656 136.768 37.2656C137.005 37.2656 137.189 37.3446 137.373 37.4761C137.531 37.6077 137.61 37.7656 137.61 37.9762C137.61 38.1604 137.531 38.3183 137.373 38.4498C137.215 38.5814 137.005 38.6604 136.768 38.6604C136.505 38.6604 136.294 38.5814 136.11 38.4498C135.926 38.3183 135.847 38.1604 135.847 37.9762Z" fill="white"/>
<path d="M138.414 44.1275C138.414 43.4959 138.651 43.0485 139.151 42.7854C139.625 42.5222 140.335 42.3906 141.23 42.3906H141.73V42.2327C141.73 41.9169 141.651 41.6538 141.467 41.4433C141.282 41.2064 141.019 41.1012 140.651 41.1012C140.282 41.1012 139.967 41.1801 139.73 41.3117C139.467 41.4433 139.335 41.5222 139.282 41.5222C139.125 41.5222 138.993 41.4433 138.888 41.2854C138.782 41.1275 138.73 40.9433 138.73 40.759C138.73 40.5222 138.94 40.3117 139.361 40.1538C139.782 39.9696 140.204 39.8906 140.677 39.8906C141.546 39.8906 142.204 40.1012 142.625 40.5485C143.046 40.9959 143.256 41.5485 143.256 42.2327V45.2064C143.256 45.338 143.177 45.4696 143.046 45.5486C142.914 45.6275 142.73 45.7064 142.493 45.7064C142.283 45.7064 142.125 45.6538 141.993 45.5486C141.861 45.4433 141.783 45.3117 141.783 45.1801V44.8117C141.23 45.4959 140.625 45.838 139.94 45.838C139.493 45.838 139.098 45.7064 138.809 45.417C138.572 45.0749 138.414 44.6801 138.414 44.1275ZM139.993 43.9433C139.993 44.1538 140.046 44.3117 140.177 44.417C140.282 44.5222 140.44 44.5749 140.651 44.5749C140.914 44.5749 141.151 44.4696 141.388 44.2328C141.625 43.9959 141.756 43.7591 141.756 43.4696V43.2327H141.572C141.072 43.2327 140.704 43.2854 140.414 43.3643C140.125 43.4433 139.993 43.6538 139.993 43.9433Z" fill="white"/>
<path d="M144.267 43.3277V42.3277C144.267 41.6698 144.477 41.0908 144.898 40.5908C145.319 40.1172 145.819 39.854 146.425 39.854C146.767 39.854 147.082 39.9329 147.372 40.1172C147.635 40.3014 147.846 40.5119 148.003 40.7751V37.0645C148.003 36.9066 148.082 36.8013 148.214 36.7224C148.372 36.6435 148.556 36.5908 148.767 36.5908C149.003 36.5908 149.188 36.6435 149.319 36.7224C149.477 36.8013 149.53 36.9329 149.53 37.0645V45.1698C149.53 45.3014 149.451 45.4067 149.319 45.5119C149.161 45.6172 148.977 45.6698 148.767 45.6698C148.582 45.6698 148.425 45.6172 148.267 45.5119C148.135 45.4067 148.056 45.3014 148.056 45.1698V44.8277C147.925 45.0909 147.714 45.3014 147.398 45.5119C147.082 45.6961 146.74 45.8014 146.372 45.8014C145.819 45.8014 145.319 45.5646 144.898 45.0646C144.477 44.5645 144.267 43.9856 144.267 43.3277ZM145.819 43.3277C145.819 43.6172 145.924 43.854 146.135 44.0909C146.346 44.3277 146.582 44.433 146.872 44.433C147.161 44.433 147.398 44.3277 147.635 44.0909C147.872 43.8803 147.977 43.6961 147.977 43.5382V42.3277C147.977 42.0119 147.872 41.7487 147.635 41.5382C147.425 41.3277 147.161 41.2487 146.872 41.2487C146.582 41.2487 146.319 41.354 146.135 41.5908C145.924 41.8014 145.819 42.0645 145.819 42.3277V43.3277Z" fill="white"/>
<path d="M153.287 45.1874V37.0821C153.287 36.9242 153.366 36.8189 153.498 36.74C153.629 36.661 153.813 36.6084 154.05 36.6084C154.261 36.6084 154.445 36.661 154.603 36.74C154.761 36.8189 154.84 36.9505 154.84 37.0821V45.1874C154.84 45.319 154.761 45.4242 154.603 45.5295C154.445 45.6348 154.261 45.6874 154.05 45.6874C153.84 45.6874 153.656 45.6348 153.498 45.5295C153.34 45.4242 153.287 45.319 153.287 45.1874Z" fill="white"/>
<path d="M155.947 43.3146V42.3146C155.947 41.6567 156.21 41.0777 156.71 40.604C157.237 40.104 157.842 39.8672 158.553 39.8672C159.263 39.8672 159.868 40.104 160.395 40.604C160.921 41.0777 161.184 41.6567 161.184 42.3409V43.3409C161.184 43.9988 160.921 44.5777 160.395 45.0777C159.868 45.5777 159.263 45.8146 158.553 45.8146C157.842 45.8146 157.237 45.5777 156.71 45.0777C156.21 44.5514 155.947 43.9725 155.947 43.3146ZM157.5 43.3146C157.5 43.6041 157.605 43.8672 157.816 44.0777C158.026 44.3146 158.263 44.4198 158.553 44.4198C158.842 44.4198 159.079 44.3146 159.289 44.0777C159.5 43.8409 159.605 43.6041 159.605 43.3146V42.3409C159.605 42.0777 159.5 41.8146 159.289 41.604C159.079 41.3672 158.816 41.2619 158.553 41.2619C158.263 41.2619 158 41.3672 157.816 41.604C157.605 41.8146 157.5 42.0777 157.5 42.3409V43.3146Z" fill="white"/>
<path d="M161.948 43.3146V42.3146C161.948 41.6567 162.211 41.0777 162.711 40.604C163.238 40.104 163.843 39.8672 164.554 39.8672C165.264 39.8672 165.869 40.104 166.396 40.604C166.922 41.0777 167.185 41.6567 167.185 42.3409V43.3409C167.185 43.9988 166.922 44.5777 166.396 45.0777C165.869 45.5777 165.264 45.8146 164.554 45.8146C163.843 45.8146 163.238 45.5777 162.711 45.0777C162.211 44.5514 161.948 43.9725 161.948 43.3146ZM163.527 43.3146C163.527 43.6041 163.632 43.8672 163.843 44.0777C164.054 44.3146 164.29 44.4198 164.58 44.4198C164.869 44.4198 165.106 44.3146 165.317 44.0777C165.527 43.8409 165.632 43.6041 165.632 43.3146V42.3409C165.632 42.0777 165.527 41.8146 165.317 41.604C165.106 41.3672 164.843 41.2619 164.58 41.2619C164.29 41.2619 164.027 41.3672 163.843 41.604C163.632 41.8146 163.527 42.0777 163.527 42.3409V43.3146Z" fill="white"/>
<path d="M167.604 40.5251C167.604 40.3672 167.735 40.2093 167.972 40.0777C168.209 39.9461 168.446 39.8672 168.656 39.8672C168.893 39.8672 169.051 39.9461 169.104 40.1303L170.446 43.6304L171.788 40.1567C171.867 39.9725 171.998 39.8672 172.235 39.8672C172.419 39.8672 172.656 39.9461 172.893 40.0777C173.13 40.2093 173.261 40.3672 173.261 40.5514C173.261 40.6304 173.235 40.683 173.209 40.7619L171.13 45.5514C171.051 45.7356 170.814 45.8409 170.419 45.8409C170.025 45.8409 169.788 45.7356 169.709 45.5514L167.63 40.7619C167.63 40.683 167.604 40.604 167.604 40.5251Z" fill="white"/>
<path d="M173.631 44.1275C173.631 43.4959 173.868 43.0485 174.368 42.7854C174.841 42.5222 175.552 42.3906 176.447 42.3906H176.947V42.2327C176.947 41.9169 176.868 41.6538 176.684 41.4433C176.499 41.2064 176.236 41.1012 175.868 41.1012C175.499 41.1012 175.184 41.1801 174.947 41.3117C174.683 41.4433 174.552 41.5222 174.499 41.5222C174.341 41.5222 174.21 41.4433 174.105 41.2854C173.999 41.1275 173.947 40.9433 173.947 40.759C173.947 40.5222 174.157 40.3117 174.578 40.1538C174.999 39.9696 175.42 39.8906 175.894 39.8906C176.762 39.8906 177.42 40.1012 177.841 40.5485C178.262 40.9959 178.473 41.5485 178.473 42.2327V45.2064C178.473 45.338 178.394 45.4696 178.262 45.5486C178.131 45.6275 177.947 45.7064 177.71 45.7064C177.499 45.7064 177.341 45.6538 177.21 45.5486C177.078 45.4433 176.999 45.3117 176.999 45.1801V44.8117C176.447 45.4959 175.841 45.838 175.157 45.838C174.71 45.838 174.315 45.7064 174.026 45.417C173.762 45.0749 173.631 44.6801 173.631 44.1275ZM175.184 43.9433C175.184 44.1538 175.236 44.3117 175.368 44.417C175.473 44.5222 175.631 44.5749 175.841 44.5749C176.105 44.5749 176.341 44.4696 176.578 44.2328C176.815 43.9959 176.947 43.7591 176.947 43.4696V43.2327H176.762C176.262 43.2327 175.894 43.2854 175.605 43.3643C175.315 43.4433 175.184 43.6538 175.184 43.9433Z" fill="white"/>
<path d="M179.449 43.3277V42.3277C179.449 41.6698 179.66 41.0908 180.081 40.5908C180.502 40.1172 181.002 39.854 181.607 39.854C181.949 39.854 182.265 39.9329 182.554 40.1172C182.818 40.3014 183.028 40.5119 183.186 40.7751V37.0645C183.186 36.9066 183.265 36.8013 183.397 36.7224C183.555 36.6435 183.739 36.5908 183.949 36.5908C184.186 36.5908 184.37 36.6435 184.502 36.7224C184.66 36.8013 184.712 36.9329 184.712 37.0645V45.1698C184.712 45.3014 184.633 45.4067 184.502 45.5119C184.344 45.6172 184.16 45.6698 183.949 45.6698C183.765 45.6698 183.607 45.6172 183.449 45.5119C183.318 45.4067 183.239 45.3014 183.239 45.1698V44.8277C183.107 45.0909 182.897 45.3014 182.581 45.5119C182.265 45.6961 181.923 45.8014 181.554 45.8014C181.002 45.8014 180.502 45.5646 180.081 45.0646C179.66 44.5645 179.449 43.9856 179.449 43.3277ZM181.028 43.3277C181.028 43.6172 181.133 43.854 181.344 44.0909C181.554 44.3277 181.791 44.433 182.081 44.433C182.37 44.433 182.607 44.3277 182.844 44.0909C183.081 43.8803 183.186 43.6961 183.186 43.5382V42.3277C183.186 42.0119 183.081 41.7487 182.844 41.5382C182.633 41.3277 182.37 41.2487 182.081 41.2487C181.791 41.2487 181.528 41.354 181.344 41.5908C181.133 41.8014 181.028 42.0645 181.028 42.3277V43.3277Z" fill="white"/>
<path d="M107.104 58.8163V50.711C107.104 50.5531 107.182 50.4478 107.314 50.3689C107.446 50.2899 107.63 50.2373 107.867 50.2373C108.077 50.2373 108.261 50.2899 108.419 50.3689C108.577 50.4478 108.656 50.5794 108.656 50.711V54.4215C108.788 54.1584 108.972 53.9479 109.235 53.7636C109.498 53.5794 109.814 53.5005 110.182 53.5005C110.735 53.5005 111.235 53.7373 111.63 54.2373C112.051 54.711 112.261 55.29 112.261 55.9742V58.8426C112.261 59.0005 112.182 59.1058 112.025 59.211C111.867 59.29 111.682 59.3426 111.472 59.3426C111.261 59.3426 111.104 59.29 110.946 59.211C110.788 59.1321 110.709 59.0005 110.709 58.8426V55.9742C110.709 55.711 110.604 55.4479 110.393 55.2373C110.182 55.0005 109.946 54.8952 109.656 54.8952C109.393 54.8952 109.156 55.0005 108.972 55.1847C108.761 55.3952 108.682 55.6584 108.682 55.9742V58.8426C108.682 58.9742 108.604 59.0795 108.446 59.1847C108.288 59.29 108.104 59.3426 107.893 59.3426C107.682 59.3426 107.498 59.29 107.34 59.1847C107.182 59.0795 107.104 58.9479 107.104 58.8163Z" fill="white"/>
<path d="M113.203 56.9464V55.9464C113.203 55.2885 113.466 54.7096 113.966 54.2359C114.493 53.7359 115.098 53.499 115.808 53.499C116.519 53.499 117.124 53.7359 117.651 54.2359C118.177 54.7096 118.44 55.2885 118.44 55.9727V56.9727C118.44 57.6306 118.177 58.2096 117.651 58.7096C117.124 59.2096 116.519 59.4464 115.808 59.4464C115.098 59.4464 114.493 59.2096 113.966 58.7096C113.466 58.1833 113.203 57.6043 113.203 56.9464ZM114.782 56.9464C114.782 57.2359 114.887 57.499 115.098 57.7096C115.308 57.9464 115.545 58.0517 115.835 58.0517C116.124 58.0517 116.361 57.9464 116.572 57.7096C116.782 57.4727 116.887 57.2359 116.887 56.9464V55.9727C116.887 55.7096 116.782 55.4464 116.572 55.2359C116.361 54.999 116.098 54.8938 115.835 54.8938C115.545 54.8938 115.282 54.999 115.098 55.2359C114.887 55.4464 114.782 55.7096 114.782 55.9727V56.9464Z" fill="white"/>
<path d="M119.441 58.8148V54.0517C119.441 53.8938 119.52 53.7885 119.652 53.7096C119.784 53.6306 119.968 53.578 120.205 53.578C120.389 53.578 120.573 53.6306 120.705 53.7096C120.836 53.7885 120.915 53.9201 120.915 54.0517V54.4201C121.257 53.8148 121.784 53.499 122.52 53.499C122.862 53.499 123.152 53.6043 123.441 53.8411C123.705 54.0517 123.915 54.3674 124.047 54.7359C124.257 54.3411 124.52 54.0253 124.836 53.8148C125.152 53.6043 125.494 53.499 125.862 53.499C126.441 53.499 126.941 53.7096 127.363 54.1569C127.784 54.6043 127.994 55.2096 127.994 55.9464V58.8148C127.994 58.9464 127.915 59.0517 127.757 59.1569C127.599 59.2622 127.415 59.3148 127.205 59.3148C126.994 59.3148 126.836 59.2622 126.678 59.1569C126.52 59.0517 126.441 58.9464 126.441 58.8148V55.9464C126.441 55.6043 126.336 55.3411 126.152 55.1569C125.968 54.9727 125.731 54.8675 125.468 54.8675C125.205 54.8675 124.994 54.9727 124.784 55.1569C124.599 55.3411 124.494 55.6043 124.494 55.9464V58.8412C124.494 58.9991 124.415 59.1306 124.257 59.2096C124.099 59.2885 123.915 59.3412 123.705 59.3412C123.494 59.3412 123.336 59.2885 123.178 59.2096C123.02 59.1306 122.941 58.9991 122.941 58.8412V55.9727C122.941 55.6569 122.836 55.3938 122.652 55.1832C122.441 54.9727 122.231 54.8938 121.968 54.8938C121.705 54.8938 121.494 54.999 121.31 55.1832C121.126 55.3675 121.02 55.6306 121.02 55.9727V58.8412C121.02 58.9727 120.941 59.078 120.784 59.1833C120.626 59.2885 120.441 59.3412 120.231 59.3412C120.02 59.3412 119.836 59.2885 119.678 59.1833C119.52 59.078 119.441 58.9464 119.441 58.8148Z" fill="white"/>
<path d="M128.811 58.3938C128.811 58.2359 128.863 58.1043 128.968 57.9464C129.074 57.7885 129.205 57.7096 129.337 57.7096C129.416 57.7096 129.547 57.7622 129.679 57.8412C129.811 57.9201 129.995 57.999 130.205 58.078C130.416 58.1569 130.679 58.2096 130.995 58.2096C131.6 58.2096 131.89 58.0517 131.89 57.7096C131.89 57.5254 131.784 57.3675 131.6 57.2622C131.39 57.1569 131.153 57.0517 130.89 56.999C130.6 56.9201 130.337 56.8411 130.047 56.7359C129.758 56.6306 129.521 56.4727 129.337 56.2359C129.126 55.999 129.047 55.7096 129.047 55.3411C129.047 54.8411 129.232 54.4201 129.574 54.0517C129.916 53.6832 130.468 53.499 131.205 53.499C131.705 53.499 132.153 53.578 132.547 53.7359C132.942 53.8938 133.126 54.078 133.126 54.2885C133.126 54.4201 133.074 54.578 132.968 54.7622C132.863 54.9464 132.732 55.0253 132.574 55.0253C132.521 55.0253 132.337 54.9727 132.047 54.8675C131.758 54.7622 131.495 54.7096 131.232 54.7096C130.968 54.7096 130.758 54.7622 130.6 54.8675C130.442 54.9727 130.39 55.1043 130.39 55.2359C130.39 55.3675 130.468 55.4727 130.6 55.578C130.758 55.6569 130.916 55.7359 131.126 55.7885C131.337 55.8411 131.574 55.8938 131.811 55.9727C132.047 56.0517 132.284 56.1569 132.495 56.2622C132.705 56.3675 132.89 56.5517 133.021 56.7622C133.153 56.999 133.232 57.2622 133.232 57.6043C133.232 58.1569 133.047 58.6043 132.653 58.9201C132.258 59.2359 131.705 59.3938 131.021 59.3938C130.416 59.3938 129.89 59.2885 129.468 59.078C129.021 58.8938 128.811 58.6569 128.811 58.3938Z" fill="white"/>
<path d="M133.943 56.9464V55.9201C133.943 55.2622 134.207 54.6832 134.707 54.2096C135.233 53.7359 135.838 53.499 136.575 53.499C137.259 53.499 137.838 53.7096 138.338 54.1569C138.838 54.578 139.075 55.1306 139.075 55.7885C139.075 56.0254 139.049 56.2359 138.996 56.3938C138.943 56.5517 138.838 56.6569 138.707 56.7359C138.575 56.7885 138.47 56.8411 138.364 56.8675C138.259 56.8938 138.128 56.8938 137.943 56.8938H135.522V57.078C135.522 57.4201 135.654 57.7096 135.917 57.9201C136.18 58.1306 136.522 58.2359 136.943 58.2359C137.259 58.2359 137.549 58.1569 137.838 57.999C138.128 57.8411 138.338 57.7622 138.417 57.7622C138.575 57.7622 138.733 57.8411 138.838 57.999C138.943 58.1569 138.996 58.3148 138.996 58.4464C138.996 58.6833 138.785 58.8938 138.391 59.1043C137.996 59.3148 137.47 59.4464 136.864 59.4464C135.996 59.4464 135.285 59.2096 134.759 58.7622C134.233 58.2885 133.943 57.6833 133.943 56.9464ZM135.522 55.9201H137.285C137.417 55.9201 137.496 55.8938 137.549 55.8675C137.601 55.8148 137.628 55.7359 137.628 55.6306C137.628 55.3675 137.522 55.1569 137.312 54.999C137.101 54.8411 136.864 54.7622 136.549 54.7622C136.259 54.7622 136.022 54.8411 135.812 54.999C135.601 55.1569 135.496 55.3675 135.496 55.6306V55.9201H135.522Z" fill="white"/>
<path d="M142.542 58.8216V50.9795C142.542 50.8216 142.621 50.7163 142.753 50.6111C142.884 50.5321 143.042 50.4795 143.226 50.4795H147.542C147.7 50.4795 147.831 50.5584 147.91 50.69C147.989 50.8216 148.042 50.9795 148.042 51.1637C148.042 51.3479 147.989 51.5321 147.91 51.6637C147.831 51.7953 147.7 51.8742 147.542 51.8742H144.121V54.2953H145.963C146.121 54.2953 146.226 54.3479 146.331 54.4795C146.41 54.6111 146.463 54.7427 146.463 54.9269C146.463 55.0848 146.41 55.2164 146.331 55.3479C146.253 55.4795 146.121 55.5322 145.963 55.5322H144.121V57.9532H147.542C147.7 57.9532 147.805 58.0322 147.91 58.1637C147.989 58.2953 148.042 58.4532 148.042 58.6637C148.042 58.848 147.989 59.0059 147.91 59.1374C147.831 59.269 147.7 59.348 147.542 59.348H143.226C143.042 59.348 142.884 59.2953 142.753 59.2164C142.621 59.1111 142.542 58.9795 142.542 58.8216Z" fill="white"/>
<path d="M148.471 56.9464V55.9201C148.471 55.2622 148.734 54.6832 149.234 54.2096C149.76 53.7359 150.365 53.499 151.102 53.499C151.787 53.499 152.365 53.7096 152.865 54.1569C153.365 54.578 153.602 55.1306 153.602 55.7885C153.602 56.0254 153.576 56.2359 153.523 56.3938C153.471 56.5517 153.365 56.6569 153.234 56.7359C153.102 56.7885 152.997 56.8411 152.892 56.8675C152.787 56.8938 152.655 56.8938 152.471 56.8938H150.023V57.078C150.023 57.4201 150.155 57.7096 150.418 57.9201C150.681 58.1306 151.023 58.2359 151.444 58.2359C151.76 58.2359 152.05 58.1569 152.339 57.999C152.629 57.8411 152.839 57.7622 152.918 57.7622C153.076 57.7622 153.234 57.8411 153.339 57.999C153.444 58.1569 153.497 58.3148 153.497 58.4464C153.497 58.6833 153.287 58.8938 152.892 59.1043C152.497 59.3148 151.971 59.4464 151.365 59.4464C150.497 59.4464 149.813 59.2096 149.26 58.7622C148.734 58.2885 148.471 57.6833 148.471 56.9464ZM150.023 55.9201H151.787C151.918 55.9201 151.997 55.8938 152.05 55.8675C152.102 55.8148 152.129 55.7359 152.129 55.6306C152.129 55.3675 152.023 55.1569 151.813 54.999C151.602 54.8411 151.365 54.7622 151.05 54.7622C150.76 54.7622 150.523 54.8411 150.313 54.999C150.102 55.1569 149.997 55.3675 149.997 55.6306V55.9201H150.023Z" fill="white"/>
<path d="M154.18 58.3938C154.18 58.2359 154.232 58.1043 154.338 57.9464C154.443 57.7885 154.574 57.7096 154.706 57.7096C154.785 57.7096 154.917 57.7622 155.048 57.8412C155.18 57.9201 155.364 57.999 155.574 58.078C155.785 58.1569 156.048 58.2096 156.364 58.2096C156.969 58.2096 157.259 58.0517 157.259 57.7096C157.259 57.5254 157.153 57.3675 156.969 57.2622C156.759 57.1569 156.522 57.0517 156.259 56.999C155.969 56.9201 155.706 56.8411 155.417 56.7359C155.127 56.6306 154.89 56.4727 154.706 56.2359C154.495 55.999 154.417 55.7096 154.417 55.3411C154.417 54.8411 154.601 54.4201 154.943 54.0517C155.285 53.6832 155.838 53.499 156.574 53.499C157.074 53.499 157.522 53.578 157.917 53.7359C158.311 53.8938 158.495 54.078 158.495 54.2885C158.495 54.4201 158.443 54.578 158.338 54.7622C158.232 54.9464 158.101 55.0253 157.943 55.0253C157.89 55.0253 157.706 54.9727 157.417 54.8675C157.127 54.7622 156.864 54.7096 156.601 54.7096C156.338 54.7096 156.127 54.7622 155.969 54.8675C155.811 54.9727 155.759 55.1043 155.759 55.2359C155.759 55.3675 155.838 55.4727 155.969 55.578C156.127 55.6569 156.285 55.7359 156.495 55.7885C156.706 55.8411 156.943 55.8938 157.18 55.9727C157.417 56.0517 157.653 56.1569 157.864 56.2622C158.074 56.3675 158.259 56.5517 158.39 56.7622C158.522 56.999 158.601 57.2622 158.601 57.6043C158.601 58.1569 158.417 58.6043 158.022 58.9201C157.627 59.2359 157.074 59.3938 156.39 59.3938C155.785 59.3938 155.259 59.2885 154.838 59.078C154.39 58.8938 154.18 58.6569 154.18 58.3938Z" fill="white"/>
<path d="M159.551 57.3931V51.6036C159.551 51.472 159.63 51.3667 159.788 51.2615C159.946 51.1825 160.13 51.1299 160.314 51.1299C160.524 51.1299 160.709 51.1825 160.867 51.2615C161.024 51.3404 161.103 51.472 161.103 51.6036V53.6036H162.524C162.656 53.6036 162.735 53.6562 162.814 53.7878C162.893 53.9194 162.919 54.051 162.919 54.2088C162.919 54.3667 162.893 54.5246 162.814 54.6299C162.735 54.7615 162.656 54.8141 162.524 54.8141H161.103V57.3404C161.103 57.551 161.156 57.7089 161.261 57.8141C161.367 57.9194 161.524 57.9457 161.788 57.9457H162.261C162.472 57.9457 162.63 58.0247 162.761 58.1562C162.867 58.2878 162.946 58.4457 162.946 58.6299C162.946 58.8141 162.893 58.9983 162.761 59.1299C162.656 59.2615 162.472 59.3405 162.261 59.3405H161.788C160.288 59.3141 159.551 58.6826 159.551 57.3931Z" fill="white"/>
<path d="M163.647 51.6119C163.647 51.4277 163.726 51.2698 163.911 51.1119C164.095 50.954 164.305 50.9014 164.542 50.9014C164.779 50.9014 164.963 50.9803 165.121 51.1119C165.279 51.2435 165.358 51.4014 165.358 51.6119C165.358 51.7961 165.279 51.954 165.121 52.0856C164.963 52.2172 164.779 52.2961 164.542 52.2961C164.279 52.2961 164.069 52.2172 163.911 52.0856C163.726 51.954 163.647 51.7961 163.647 51.6119ZM163.805 58.8225V54.0593C163.805 53.9014 163.884 53.7961 164.016 53.7172C164.147 53.6382 164.332 53.5856 164.542 53.5856C164.753 53.5856 164.937 53.6382 165.095 53.7172C165.226 53.7961 165.305 53.9277 165.305 54.0593V58.8225C165.305 58.954 165.226 59.0593 165.069 59.1646C164.911 59.2698 164.753 59.3225 164.542 59.3225C164.332 59.3225 164.147 59.2698 164.016 59.1646C163.858 59.0856 163.805 58.954 163.805 58.8225Z" fill="white"/>
</svg>
