<svg width="214" height="293" viewBox="0 0 214 293" fill="none" xmlns="http://www.w3.org/2000/svg">
<g clip-path="url(#clip0)">
<path d="M214 269.4C214 279.1 166.2 286.9 107 286.9C47.9 286.9 0 279 0 269.4C0 259.7 47.8 251.9 107 251.9C166.1 251.8 214 259.7 214 269.4Z" fill="#CFDEFB"/>
<path d="M164.2 218.2C164.2 220 164.1 221.7 164 223.4C161.1 254.9 133.3 278 101.8 275.2C72.6 272.5 50.1 248.2 49.8 218.8C49.8 218.6 49.8 218.4 49.8 218.2C49.5 186.6 74.9 160.7 106.4 160.4C138 160.1 163.9 185.5 164.2 217C164.3 217.5 164.3 217.9 164.2 218.2Z" fill="#AABFE2"/>
<path d="M164.2 218.2C164.2 220 164.1 221.7 164 223.4C150.8 232.4 131.5 238 109.8 238C84.7 238 62.6 230.3 49.8 218.8C49.8 218.6 49.8 218.4 49.8 218.2C49.5 186.6 74.9 160.7 106.4 160.4C138 160.1 163.9 185.5 164.2 217C164.3 217.4 164.3 217.8 164.2 218.2Z" fill="#CFDEFB"/>
<path d="M132.8 179.1C140 181.5 147.5 182.6 154.5 185.6C155 185.8 155.3 186.1 155.5 186.5C155.6 186.8 155.5 187.2 155.3 187.5C149.5 204.8 146.2 222.9 145.5 241.1C149.6 241.8 153.9 242 157.9 241.4C158.4 241.4 158.8 241.2 159.2 241C159.6 240.7 159.9 240.2 160.1 239.7C166.8 224.7 172.8 209.5 178.1 193.9C179 191.1 180 188.3 179.6 185.4C179 181.2 175.9 177.9 172.9 174.9L149.5 151.6C148.9 150.9 148.2 150.4 147.4 150C146.5 149.7 145.4 149.7 144.5 149.8C135.3 150.9 122.7 151.3 105.7 150.6C103.5 150.5 114.4 163 115.2 165.4C115.9 167.3 118.2 169.7 119.6 171.2C123.3 175 128 177.5 132.8 179.1Z" fill="white" stroke="#2E3374" stroke-width="1.7" stroke-miterlimit="10"/>
<path d="M144.4 251.4C143.8 252.3 143.5 253.3 143.3 254.3C142.9 256.1 142.6 258 142.4 259.8C142.2 261.2 142.2 262.8 143 264C143.9 265.2 145.2 265.7 146.5 266.1C149.7 267.4 152.8 268.9 155.9 270.7C157.9 271.8 160.1 273 162.4 273.1C164.7 273.2 167.3 271.9 167.8 269.6C168 268.5 167.9 267.4 167.6 266.4C166.3 261.9 163.8 257.8 160.4 254.6C159.8 254 159.1 253.5 158.4 253.1C157.7 252.7 157 252.5 156.2 252.2C154.1 251.4 151.9 250.8 149.7 250.3C147.7 250.1 145.8 249.6 144.4 251.4Z" fill="#2E2E3F"/>
<path d="M144.4 251.4C143.8 252.3 143.5 253.3 143.3 254.3C142.9 256.1 142.6 258 142.4 259.8C142.2 261.2 142.2 262.8 143 264C143.9 265.2 145.2 265.7 146.5 266.1C149.7 267.4 152.8 268.9 155.9 270.7C157.9 271.8 160.1 273 162.4 273.1C164.7 273.2 167.3 271.9 167.8 269.6C168 268.5 167.9 267.4 167.6 266.4C166.3 261.9 163.8 257.8 160.4 254.6C159.8 254 159.1 253.5 158.4 253.1C157.7 252.7 157 252.5 156.2 252.2C154.1 251.4 151.9 250.8 149.7 250.3C147.7 250.1 145.8 249.6 144.4 251.4Z" fill="#2E3374" stroke="#2E3374" stroke-width="1.7" stroke-miterlimit="10"/>
<path d="M146.8 241.7C146.2 244.9 145.9 248 145.9 251.2C145.9 252.6 146 254.1 147 255.1C147.9 255.9 149.1 256.2 150.4 256C151.8 255.9 153.3 255.7 154.7 255.1C155 255 155.3 254.9 155.5 254.6C155.7 254.4 155.7 254.1 155.8 253.8C157 249.3 157.6 244.7 157.7 240C157.8 239.3 157.6 238.5 157.2 237.9C156.5 236.9 154.9 236.9 153.7 237.1C152.1 237.4 150.5 238 149 238.5C147.3 239.2 147.1 240.2 146.8 241.7Z" fill="white" stroke="#2E3374" stroke-width="1.7" stroke-miterlimit="10"/>
<path d="M162.3 256.5C162.9 257.9 163.3 259.3 163.7 260.8C163.9 262 164.1 263.2 164.8 264.1C165.7 265.2 167.3 265.5 168.8 265.5C170 265.6 171.2 265.3 172.3 264.9C172.9 264.7 173.4 264.3 173.7 263.7C173.9 263.1 174 262.6 173.9 262C173.8 258 172.8 254 171 250.5C170 248.7 168.8 246.9 167.5 245.2C167.1 244.4 166.4 243.9 165.6 243.6C164.7 243.6 163.9 243.9 163.3 244.5C162 245.4 159.1 247.1 159.4 249C159.9 251.5 161.5 254.2 162.3 256.5Z" fill="white" stroke="#2E3374" stroke-width="1.7" stroke-miterlimit="10"/>
<path d="M171.9 259.4C171 259.9 170.2 260.4 169.3 261.1C168 261.8 166.5 262 165 262.4C164.6 262.5 164.3 262.6 164 263C163.8 263.2 163.7 263.6 163.7 263.9C163.5 266 163.5 268.2 163.9 270.4C164.6 275 165.5 279.5 166.4 284.1C166.8 286 167.3 288 168.7 289.3C170.1 290.6 172.2 291.1 174.1 291.2C175.9 291.3 177.7 291 179.4 290.3C182.1 288.9 184 286.3 184.4 283.4C185 280.5 184.6 277.4 183.4 274.7C182.6 272.8 181.7 271 180.6 269.3C179.2 266.9 177.8 264.4 176.3 262C175.2 259.7 174.3 258.3 171.9 259.4Z" fill="#2E2E3F"/>
<path d="M171.9 259.4C171 259.9 170.2 260.4 169.3 261.1C168 261.8 166.5 262 165 262.4C164.6 262.5 164.3 262.6 164 263C163.8 263.2 163.7 263.6 163.7 263.9C163.5 266 163.5 268.2 163.9 270.4C164.6 275 165.5 279.5 166.4 284.1C166.8 286 167.3 288 168.7 289.3C170.1 290.6 172.2 291.1 174.1 291.2C175.9 291.3 177.7 291 179.4 290.3C182.1 288.9 184 286.3 184.4 283.4C185 280.5 184.6 277.4 183.4 274.7C182.6 272.8 181.7 271 180.6 269.3C179.2 266.9 177.8 264.4 176.3 262C175.2 259.7 174.3 258.3 171.9 259.4Z" fill="#2E3374" stroke="#2E3374" stroke-width="1.7" stroke-miterlimit="10"/>
<path d="M94.8 174.7C95.7 177.9 97.2 181 99.4 183.6C101.8 186.4 105 188.3 108.1 190.2L121.1 198.2C123 199.3 124.8 200.6 126.5 201.9C130.8 205.4 133.6 210.3 136.3 215.1L155.3 248.2C156.2 249.9 157.6 251.8 159.6 251.7C160.6 251.5 161.6 251.1 162.4 250.4C164.8 248.7 167.4 246.8 168.2 243.9C168.7 241.9 168.2 239.8 167.6 237.8C164.7 228 160.1 218.7 155.5 209.4C148.3 194.8 140.8 180.2 133.4 165.7C131.4 161.8 129 155.9 125.7 153C125.7 153 95.1 151.1 94.3 154.2C92.5 160.9 92.7 168 94.8 174.7Z" fill="white" stroke="#2E3374" stroke-width="1.7" stroke-miterlimit="10"/>
<path d="M149.7 128.3C150.3 131.7 150.9 135.1 152.6 138C153.4 139.5 154.7 141 156.5 141.3C157.5 141.4 158.4 141.2 159.3 140.9C161.2 140.3 162.9 139.4 164.5 138.2C166 137 167.5 135.8 168.8 134.4C170.8 132.5 172.6 130.5 174.2 128.4C175 127.4 175.6 126.3 176.5 125.3C179.9 121.2 185.5 119.4 189.4 115.7C190.4 114.7 192.6 110.3 192.4 108.8C191 108 188 111.3 186.5 111.8C184.9 112.3 183.4 113 181.8 113.5C179.9 114.1 177.9 114.1 175.9 113.6C175.3 113.5 174.5 103.2 173.8 103.5C173.5 103.6 173.2 103.8 173 104.1C171.7 105.5 170.9 117.3 169.8 118.8C168.3 120.9 166.1 122.5 164.1 124C163.9 124.1 163.7 124.3 163.5 124.1C163.4 124 163.3 123.8 163.2 123.7C162.6 121.7 162 119.7 161.4 117.7C160.9 116.3 160.3 114.8 158.9 114.4C157.7 114.1 156.3 114.7 155.3 115.4C153.9 116.3 152.5 117.1 151 118C150.2 118.5 149.3 119 148.9 119.9C148.4 120.9 148.8 122.5 149 123.6C149.2 125 149.5 126.7 149.7 128.3Z" fill="white" stroke="#2E3374" stroke-width="1.4876" stroke-miterlimit="10"/>
<path d="M173.6 106.8C172.3 107.6 171.8 109.4 172.6 110.8C173.6 112.5 174.9 114.1 176.6 115.3C177.6 116.3 179.7 116.5 181.6 115.4C183.5 114.3 192.7 109.3 197.3 106C198.7 105 199 103.2 198.1 101.8C198 101.7 198 101.7 198 101.7L194.2 96.9C193.2 95.7 191.6 95.5 190.3 96.2L173.6 106.8Z" fill="#2E3374" stroke="#2E3374" stroke-width="1.4876" stroke-miterlimit="10"/>
<path d="M195.8 103.9L181.8 112.8C181.3 113.1 180.7 112.9 180.3 112.5L175.8 107.5C175.5 107.2 175.5 106.7 175.7 106.3C175.8 106.2 175.8 106.2 175.8 106.2L189.9 97.4001C190.4 97.1001 191 97.3001 191.4 97.7001L195.9 102.7C196.2 103 196.2 103.5 195.8 103.9C195.9 103.8 195.8 103.8 195.8 103.9Z" fill="white"/>
<path d="M195.8 103.9L181.8 112.8C181.3 113.1 180.7 112.9 180.3 112.5L175.8 107.5C175.5 107.2 175.5 106.7 175.7 106.3C175.8 106.2 175.8 106.2 175.8 106.2L189.9 97.4001C190.4 97.1001 191 97.3001 191.4 97.7001L195.9 102.7C196.2 103 196.2 103.5 195.8 103.9ZM195.8 103.9C195.9 103.8 195.8 103.8 195.8 103.9Z" stroke="#2E3374" stroke-width="1.4876" stroke-miterlimit="10"/>
<path d="M164.3 116.4C164.1 116.9 163.7 117.3 163.4 117.7C160.4 120.9 156.5 123.1 152.2 124C150.7 124.3 149.1 124.6 147.6 124.6C146.7 118.8 145.8 112.9 145.1 107C144.5 102.4 144.2 97.9001 143.9 93.2001C143.7 90.3001 137.5 80.3001 138.8 77.6001C140.2 74.6001 150.4 84.8001 151.5 86.7001C157.8 97.3001 160.1 105.5 164.5 114.7C164.7 115.2 164.6 115.9 164.3 116.4Z" fill="#D5401A" stroke="#2E3374" stroke-width="1.5" stroke-miterlimit="10"/>
<path d="M77.3999 114.1C76.7999 115.6 76.3999 117.1 76.2999 118.7C75.5999 122.7 75.1999 126.8 75.0999 130.9C74.7999 138.7 75.2999 146.5 74.9999 154.3C74.7999 162.4 73.7999 170.8 76.6999 178.4C77.1999 179.8 77.8999 181.1 78.9999 182.1C80.0999 183.1 81.5999 183.6 82.9999 183.2C84.2999 182.7 85.2999 181.6 85.6999 180.3C86.0999 179 86.1999 177.6 86.1999 176.3L86.2999 168.9C86.2999 168.8 86.2999 168.6 86.3999 168.5C86.4999 168.4 86.6999 168.5 86.7999 168.6C87.3999 169.1 87.8999 169.6 88.3999 170.2C88.9999 170.7 89.8999 170.9 90.4999 170.3C90.7999 169.9 90.8999 169.4 90.7999 168.9C90.4999 165.7 87.6999 163.4 85.9999 160.6C83.5999 156.6 83.5999 151.6 84.1999 147C84.8999 141.2 86.4999 135.5 88.0999 129.9L89.3999 125.1C90.3999 121.4 91.3999 117.5 89.8999 114.1C88.6999 111.4 86.2999 109.5 83.3999 108.8C80.5999 108.2 78.3999 111.9 77.3999 114.1Z" fill="white" stroke="#2E3374" stroke-width="1.4324" stroke-miterlimit="10"/>
<path d="M149.6 151C148.6 153.8 142.8 150.5 139.6 152.2C135.4 153.3 126.5 152.7 119.5 152.8C112.1 153 106.7 159.6 99.3 160.6C98.7 160.7 98.2 160.7 97.6 160.6C96.6 160.3 95.9 159.3 95.6 158.3C95 156.8 94.5 155.3 94.3 153.7C93.4 148.5 94.3 142.8 95.2 137.5C96 133 96.9 128.5 97.6 123.9C98.5 118.6 99.5 113.3 100.4 108.1C101 104.6 101.7 101.1 102.8 97.6999C103 97.0999 103.2 96.5 103.4 96C105.2 91.4 107.4 86.9 110 82.7C111.6 79.9 113.2 77.2 115.6 75.1C118.3 72.8 121.8 71.6 125.4 71.1C128.6 70.5 131.9 70.7 134.9 71.7C136.6 72.3 137.3 74.1 138.7 75.3C140.4 76.6 142 78.1 143.4 79.9C144.7 82 145.8 84.3 146.2 86.8C151.2 106 144 126.7 148.7 146C149.3 148.3 150.3 148.8 149.6 151Z" fill="#D5401A" stroke="#2E3374" stroke-width="1.5" stroke-miterlimit="10"/>
<path d="M159.3 63.4001C159.4 64.3001 159.4 65.4001 159.2 66.3001C159 67.3001 158.2 68.0001 157.2 68.1001C154.8 67.9001 152.9 70.3001 151 71.8001C147.8 74.2001 143.7 74.6001 140.2 72.8001C139.5 72.6001 138.7 72.9001 138.4 73.6001C138.2 74.3001 138.1 75.0001 138.2 75.8001L139.1 84.4001C139.3 86.1001 139.3 88.1001 137.8 89.0001C136.4 89.9001 134.7 89.1001 133.5 88.1001C131.7 86.4001 130.3 84.1001 129.6 81.6001C126.4 71.5001 128.9 60.5001 136 52.6001C137.3 51.1001 138.8 49.9001 140.6 48.9001C142.4 48.0001 144.3 47.3001 146.3 47.0001C148 46.6001 149.9 46.4001 151.7 46.7001C154.1 47.2001 156.3 48.4001 157.9 50.2001C159.1 51.5001 160.3 55.4001 161.5 56.0001C160.8 58.6001 159.4 60.7001 159.3 63.4001Z" fill="white" stroke="#2E3374" stroke-width="1.7" stroke-miterlimit="10"/>
<path d="M140.6 29.6001C139.4 29.4001 138.2 29.4001 137.1 29.7001C134.9 30.5001 133.6 32.9001 132.8 35.1001C132 37.3001 131.3 39.7001 129.6 41.3001C128.1 42.6001 126 43.2001 124.6 44.7001C123 46.4001 122.9 49.0001 123 51.4001C123 53.1001 123.5 54.9001 124.4 56.4001C125.3 57.5001 126.5 58.3001 127.2 59.6001C127.9 61.0001 128.2 63.2001 129.8 63.3001C130.4 63.3001 131.1 63.0001 131.5 62.5001C133.1 61.1001 134.3 59.3001 135 57.3001C135.4 56.2001 135.6 54.9001 136.5 54.1001C137.4 53.3001 139.1 53.2001 139.5 54.4001C139.6 55.1001 139.5 55.8001 139.2 56.5001C139 57.2001 139.1 58.2001 139.8 58.4001C141.1 56.4001 141.8 54.1001 143.3 52.3001C146.4 48.7001 151.9 48.2001 155.5 51.4001C156.1 51.9001 156.5 52.4001 157 53.0001C157.8 54.1001 158.3 55.4001 159.4 56.3001C160.4 56.9001 161.6 57.2001 162.9 57.3001C165.6 57.5001 168.5 57.7001 170.9 56.4001C173.3 55.2001 175.2 52.3001 174.2 49.7001C173.5 47.7001 171.4 46.5001 169.3 45.9001C167.3 45.3001 165 45.0001 163.2 43.8001C160.8 42.2001 159.4 39.4001 158 36.9001C156.6 34.4001 154.6 31.8001 151.8 31.1001C150.6 30.9001 149.4 30.9001 148.3 31.1001C147.2 31.3001 146 31.4001 144.8 31.3001C143.4 30.8001 142.1 29.9001 140.6 29.6001Z" fill="#15ADC2" stroke="#2E3374" stroke-width="1.5" stroke-miterlimit="10"/>
<path d="M140.6 94.3001C142.4 103.4 143 112.7 142.2 122C141.6 129.7 140.1 137.4 140.2 145.1C140.3 147.3 140.3 149.4 140 151.6C139.7 153.7 125.3 152.9 123.2 152.9L120.2 152.8C116 149.2 115.4 146.1 114.9 140.6C114.2 132.7 115.8 124.9 117.5 117.2C118.7 111.8 120 106.6 122.1 101.5C124.8 95.4001 129 87.5001 130.5 80.9001C130.7 80.0001 127.3 76.4001 128.8 76.5001C129.7 76.5001 129.3 78.0001 129.4 78.7001C129.7 79.8001 130.3 80.8001 131.1 81.6001C132.2 82.9001 133.7 83.8001 135.4 84.1001C136.4 84.3001 137.7 84.3001 138.5 85.0001C139.4 85.9001 139.3 87.7001 139.5 88.9001C139.8 90.7001 140.2 92.5001 140.6 94.3001Z" fill="white" stroke="#2E3374" stroke-width="1.7" stroke-miterlimit="10"/>
<path d="M108.7 70.9001C104.9 72.6001 101.6 75.4001 98.4999 78.2001C95.8999 80.5001 93.4999 83.0001 91.2999 85.6001C89.2999 88.0001 87.3999 90.4001 85.3999 92.6001C82.4999 95.7001 78.8999 98.6001 78.1999 102.8C77.9999 105 78.3999 107.2 79.2999 109.2C80.0999 111.2 81.1999 113.1 82.5999 114.8C84.3999 116.8 86.7999 118.2 89.3999 118.7C90.1999 118.9 91.0999 118.9 91.8999 118.8C93.0999 118.5 94.1999 117.9 95.0999 117.1C97.0999 115.5 99.0999 113.9 100.9 112.1C102.8 110.1 104.4 108 106.2 106C107.8 104.3 109.4 102.8 111 101.1C112.9 99.1001 114.5 96.9001 116.2 94.7001C118.6 91.7001 120.8 88.6001 122.7 85.4001C124.4 82.6001 125.6 79.5001 126.6 76.3001C127.2 74.3001 128.2 71.7001 126 70.2001C121.6 67.0001 113.1 68.8001 108.7 70.9001Z" fill="#D5401A" stroke="#2E3374" stroke-width="1.5" stroke-miterlimit="10"/>
<path d="M129.1 66.5L124.8 68.3L122.2 82.9L131 82.5L129.1 66.5Z" fill="#D5401A" stroke="#2E3374" stroke-width="1.5" stroke-miterlimit="10"/>
<path d="M138.4 82.2C138.4 82.8 138.4 83.5 138.4 84.2C138.4 84.5 138.4 84.8 138.5 85.1C138.6 85.4 138.6 85.7 138.7 86L139.8 90.3L140.8 86.3L144.2 85C144.1 84 143.8 83 143.4 82C142.6 80 141.9 78 141 76C140.8 75.4 140.5 75 140.1 74.6C139.7 74.1 139.2 74 138.6 74C137.8 74.3 138.3 77.3 138.3 77.9L138.4 82.2Z" fill="#D5401A" stroke="#2E3374" stroke-width="1.5" stroke-miterlimit="10"/>
<path d="M46.6001 42.5H68.6001C69.3001 42.5 70.0001 42.5 70.7001 42.4C71.9001 45.3 75.0001 50.8 82.0001 52C77.9001 49.1 77.5001 43.6 77.7001 40C80.3001 38.4 82.4001 36.2 83.8001 33.6C85.3001 31 86.0001 28.1 86.1001 25.1V17.4C86.1001 12.8 84.3001 8.3 81.0001 5.1C77.7001 1.8 73.3001 0 68.6001 0H46.6001C42.0001 0 37.5001 1.8 34.2001 5.1C30.9001 8.4 29.1001 12.8 29.1001 17.4V25.1C29.1001 29.7 30.9001 34.2 34.2001 37.4C37.5001 40.7 42.0001 42.5 46.6001 42.5Z" fill="#CFDEFB"/>
</g>
<defs>
<clipPath id="clip0">
<rect width="214" height="292.1" fill="white"/>
</clipPath>
</defs>
</svg>
