<?xml version="1.0" encoding="utf-8"?>
<!-- Generator: Adobe Illustrator 22.0.1, SVG Export Plug-In . SVG Version: 6.00 Build 0)  -->
<svg version="1.1" id="Layer_1" xmlns="http://www.w3.org/2000/svg" xmlns:xlink="http://www.w3.org/1999/xlink" x="0px" y="0px"
	 viewBox="0 0 528 315" style="enable-background:new 0 0 528 315;" xml:space="preserve">
<style type="text/css">
	.st0{fill:#DBD8F4;}
	.st1{fill:#2E3374;}
	.st2{fill:none;stroke:#2E3374;stroke-width:1.5;stroke-miterlimit:10;}
	.st3{fill:#FF808C;}
	.st4{fill:#A5A1D7;}
	.st5{fill:#FFFFFF;}
	.st6{fill:#FFFFFF;stroke:#2E3374;stroke-width:1.7;stroke-miterlimit:10;}
	.st7{fill:#2E3374;stroke:#2E3374;stroke-width:1.7;stroke-miterlimit:10;}
	.st8{fill:#15ADC2;stroke:#2E3374;stroke-width:1.7;stroke-miterlimit:10;}
	.st9{fill:#D5401A;stroke:#2E3374;stroke-width:1.7;stroke-miterlimit:10;}
	.st10{fill:#D5401A;}
	.st11{fill:none;stroke:#2E3374;stroke-width:1.7;stroke-miterlimit:10;}
	.st12{fill:#F8B243;stroke:#2E3374;stroke-width:1.7;stroke-miterlimit:10;}
</style>
<path class="st0" d="M494.5,301.5c0,7.4-103.2,13.4-230.5,13.4s-230.5-6-230.5-13.4c0-7.4,103.2-13.4,230.5-13.4
	S494.5,294.1,494.5,301.5z"/>
<path class="st1" d="M79.2,280.9c-0.8,1.1-1.6,2.3-2.3,3.5L79.2,280.9z"/>
<path class="st2" d="M79.2,280.9c-0.8,1.1-1.6,2.3-2.3,3.5"/>
<path class="st3" d="M128.5,57.8l6.6-0.5c0.7,0.1,1.5,0.4,2,0.9c0.5,0.5,0.9,1.2,0.9,2c0.1,0.7-0.1,1.5-0.6,2.1
	c-0.4,0.6-1.1,1-1.8,1.2l-7.1,0.5L128.5,57.8z"/>
<path class="st4" d="M407,14.6H277.5V114H407V14.6z"/>
<path class="st5" d="M320.3,26h-35.6v31.2h35.6V26z"/>
<path class="st5" d="M360,26h-35.6v31.2H360V26z"/>
<path class="st5" d="M399.7,26h-35.6v31.2h35.6V26z"/>
<path class="st5" d="M320.3,66.2h-35.6v35h35.6V66.2z"/>
<path class="st5" d="M360,66.2h-35.6v35H360V66.2z"/>
<path class="st5" d="M399.7,66.2h-35.6v35h35.6V66.2z"/>
<path class="st4" d="M314.3,36.7h-23.4v1.8h23.4V36.7z"/>
<path class="st4" d="M314.3,42.3h-23.4v1.8h23.4V42.3z"/>
<path class="st4" d="M354,36.7h-23.4v1.8H354V36.7z"/>
<path class="st4" d="M354,42.3h-23.4v1.8H354V42.3z"/>
<path class="st4" d="M393.6,36.7h-23.4v1.8h23.4V36.7z"/>
<path class="st4" d="M393.6,42.3h-23.4v1.8h23.4V42.3z"/>
<path class="st4" d="M314.3,77h-23.4v1.8h23.4V77z"/>
<path class="st4" d="M314.3,82.6h-23.4v1.8h23.4V82.6z"/>
<path class="st4" d="M354,77h-23.4v1.8H354V77z"/>
<path class="st4" d="M354,82.6h-23.4v1.8H354V82.6z"/>
<path class="st4" d="M393.6,77h-23.4v1.8h23.4V77z"/>
<path class="st4" d="M393.6,82.6h-23.4v1.8h23.4V82.6z"/>
<path class="st6" d="M251.1,173.1c0.6-0.2,1.1-0.4,1.6-0.7c0.6-0.4,1.2-0.9,1.6-1.6c0.4-0.6,0.7-1.3,0.9-2.1c0.2-0.7,0.2-1.5,0-2.3
	c-0.1-0.7-0.4-1.5-0.8-2.1c-13.9-21.5-8.9-50.7,1-74.5c1.2-3-7.8-5.1-10.8-6.2c-0.7-0.3-1.4-0.4-2.2-0.4c-0.8,0-1.5,0.2-2.2,0.5
	c-0.7,0.3-1.3,0.7-1.9,1.3c-0.5,0.5-0.9,1.2-1.2,1.9c-5.5,13.6-7.7,28.2-6.3,42.8c1.3,14.6,6.1,28.6,14,40.9
	c0.6,1.1,1.6,1.9,2.7,2.3C248.7,173.4,249.9,173.4,251.1,173.1z"/>
<path class="st6" d="M229.7,111.7c0.8-8.7,3.3-21.7,10.4-30.6c1.9-2.3,5.3-4.2,8.3-3.7c3.9,0.7,6.1,6.4,7.1,9.8
	c1.6,5.8-2.3,12.4-4.2,17.9c-0.3,1.1-3,12.8-3,12.8C242.2,115.9,235.9,113.8,229.7,111.7z"/>
<path class="st6" d="M266.6,78.5c1.2-0.1,2.3-0.6,3.1-1.5c0.8-0.9,1.2-2,1.2-3.2l-0.4-10.1l-9.6-2.3l1.2,12.9c0.1,1.2,0.6,2.3,1.5,3
	C264.3,78.1,265.5,78.5,266.6,78.5z"/>
<path class="st6" d="M270.3,70.3c2.3-0.2,4.5-1.2,6.1-3c1.6-1.8,2.4-4,2.3-6.4L278,50.1c-0.2-2.3-1.2-4.5-3-6.1
	c-1.8-1.6-4-2.4-6.4-2.3c-2.3,0.2-4.5,1.2-6.1,3c-1.6,1.8-2.4,4-2.3,6.4l0.6,10.8c0.1,1.2,0.4,2.3,0.9,3.4c0.5,1,1.2,2,2.1,2.8
	c0.9,0.8,1.9,1.4,3,1.7C268,70.2,269.2,70.3,270.3,70.3z"/>
<path class="st6" d="M273.2,269.5l-1.6,23.4l10,0.7l1.6-23.4L273.2,269.5z"/>
<path class="st6" d="M269.1,290.1c3.5-0.6,12.2,0.6,12.2,0.6s10.9,2.9,12.8,6c1.2,2-1.9,3.6-3.9,3.6l-21.5-0.9L269.1,290.1z"/>
<path class="st6" d="M241.4,293.4l4.5-21.3l-10.3-3l-4.1,22.2L241.4,293.4z"/>
<path class="st6" d="M231.1,289.3c3.6-0.4,12.1,1.5,12.1,1.5s10.7,3.8,12.3,7c1.1,2-2.2,3.4-4.1,3.2l-21.5-2.7L231.1,289.3z"/>
<path class="st6" d="M336.5,68.9c-3.2-1.2-7.3-0.1-7.8,3.9c-5.2,35-31.6,15.1-47.7,3.4c-2-1.5-7.5,6.3-8.5,8.9
	c-1.1,2.5-1.6,6.1,1.3,8.2c26.1,19.2,65,22,66.6-19c0-1.2-0.3-2.3-1-3.3C338.6,70,337.6,69.3,336.5,68.9z"/>
<path class="st7" d="M281.9,283.6c0.1-1.3,11.6-92.7,5.7-169.4l-26.5,13.6c3.3,76.2,8.4,154.3,8.4,154.9L281.9,283.6z"/>
<path class="st7" d="M237.9,162.2c-4.3-16.6,4.3-36.4,15.4-40.9c5.6,4.7,8-0.5,13.6,4.2c6,46.1-7.4,115.8-22.7,159.9l-12.2-2.8
	C239.8,245.3,239.6,203.2,237.9,162.2z"/>
<path class="st6" d="M306.8,87.8c-6.6-1.8-12.8-4.8-18.4-8.7c-5.3-3.7-11.6-5.8-18.1-5.9c-13.7-0.3-34.2,0.9-34.2,19.2l6.8,34.6
	h47.6c0,0,1.5-12.7,2.5-22.7c2.4,1,4.9,1.8,7.4,2.4C303.6,101.1,304.6,94.7,306.8,87.8z"/>
<path class="st8" d="M279.4,36.2c-5.2-4-15.6-1.9-24.2,3.4c-0.6,0.4-1.1,0.7-1.6,1.2c-4.1,3.9-3.7,10.2-3.7,15.4
	c0,6.9-6.5,14.2-2.6,21c1,1.6,2.4,2.7,4.1,3.4c6.3,2.4,11.5-2,14.6-7.1c3.3-5.1,5.1-10.9,5.5-16.9c3.3-0.7,6.1-3.3,8.4-6
	C283.4,46.4,283.6,39.5,279.4,36.2z"/>
<path class="st4" d="M157.8,234.4c-1.4,18,40.8,21.2,42.2,3.2c1.4-18-5.2-57.8-16.9-58.8C171.4,177.9,159.1,216.4,157.8,234.4z"/>
<path class="st5" d="M178.4,276c-0.3,0-0.5-0.1-0.7-0.3c-0.2-0.2-0.3-0.4-0.3-0.7v-63.7c0-0.3,0.1-0.5,0.3-0.7
	c0.2-0.2,0.4-0.3,0.7-0.3c0.3,0,0.5,0.1,0.7,0.3c0.2,0.2,0.3,0.4,0.3,0.7V275c0,0.3-0.1,0.5-0.3,0.7
	C178.9,275.9,178.7,276,178.4,276z"/>
<path class="st4" d="M179.4,249.7h-1.9V275h1.9V249.7z"/>
<path class="st4" d="M163.8,294.6h29.6l6.4-35h-42.6L163.8,294.6z"/>
<path class="st6" d="M412.8,272.7l-9.8,0.8l1.9,22.7l9.8-0.8L412.8,272.7z"/>
<path class="st7" d="M415.4,294.5c-3.4-0.5-12.1-0.4-12.1-0.4s-10.5,3.4-12.2,6.5c-1.1,2,2.1,3.3,3.9,3.3l20.9-2L415.4,294.5z"/>
<path class="st6" d="M400.8,287.9c-6.2-38.4-8-110.9-0.8-149.1c9.1,1.2,21.1,1.6,30.2,2.4c-7.2,37.9-17,108.3-13.5,146L400.8,287.9z
	"/>
<path class="st6" d="M341.4,111.4c0.3-1,0.9-1.9,1.7-2.6c0.8-0.7,1.7-1.2,2.8-1.4c4.2-0.9,16.2,7.6,20.9,8.2
	c2.6,0.4,5.3,0.2,7.8-0.5c2.5-0.7,4.9-1.9,7-3.6c9.2-7.4,13.8-19.8,18.5-30.2c1.4-3.1,9.4,1.3,11.5,3.1c2.1,1.8,4.5,3.2,3,7.2
	c-4.6,11.7-11.2,24.2-22,31.2c-9.6,6.2-21,6.1-31.6,2.7c-2.9-1-5.8-2.1-8.5-3.4c-2.2-1.1-4.4-2-6.6-3.2
	C342.5,117.1,340.2,114.8,341.4,111.4z"/>
<path class="st9" d="M418.2,82.8c0.3-6.8-8.3-11.7-15.1-6.9c-11.6,8.4-12.3,49.9-44,36.6c-1.8,4.4-3.5,9.2-4.7,13
	C394.9,143.5,417,111.7,418.2,82.8z"/>
<path class="st6" d="M457.4,270.7l-9.7,1.7l4.1,23.1l9.7-1.7L457.4,270.7z"/>
<path class="st7" d="M462.4,293.9c-3.5-0.5-12-0.5-12-0.5s-10.5,3.3-12.2,6.3c-1.1,1.9,2,3.4,3.9,3.3l21-1.8L462.4,293.9z"/>
<path class="st6" d="M447,289.5c-8.8-43.3-23.6-90.8-24.7-133.8c10-1,19-14.4,29.1-15.4c1.5,46.2,5.4,101.4,11.3,146.6
	C462.9,286.9,450.8,289,447,289.5z"/>
<path class="st9" d="M453.9,87.5c-0.6-17.9-20.8-18.5-34.3-17.6c-11.6,0.7-23.4,6.2-23,19.7c0,0-1.7,27.2-2.8,54
	c-0.4,8.5-0.3,15.2-0.3,15.2s13.5,4.6,63.9-0.7L453.9,87.5z"/>
<path class="st6" d="M421.9,74.4c-0.6,0-1.1-0.1-1.6-0.3c-0.5-0.2-1-0.5-1.4-0.9c-0.4-0.4-0.7-0.9-0.9-1.4c-0.2-0.5-0.3-1.1-0.3-1.6
	l-0.1-9.9l9.2-2.7L426.2,70c0,0.6-0.1,1.1-0.3,1.7c-0.2,0.5-0.5,1-0.9,1.4c-0.4,0.4-0.9,0.7-1.4,0.9
	C423.1,74.3,422.5,74.4,421.9,74.4z"/>
<path class="st6" d="M420.1,50.4l-6.3-1.8c-0.4-0.1-0.8-0.1-1.2-0.1c-0.4,0-0.8,0.2-1.1,0.4c-0.4,0.2-0.7,0.5-0.9,0.8
	c-0.3,0.3-0.4,0.7-0.5,1.1c-0.1,0.4-0.1,0.8-0.1,1.2c0,0.4,0.2,0.8,0.4,1.1c0.2,0.4,0.5,0.7,0.8,0.9c0.3,0.3,0.7,0.4,1.1,0.5
	l6.6,1.9L420.1,50.4z"/>
<path class="st6" d="M423.3,56.3l6.3,1.8c0.4,0.1,0.8,0.1,1.2,0.1c0.4,0,0.8-0.2,1.1-0.4c0.4-0.2,0.7-0.5,0.9-0.8
	c0.3-0.3,0.4-0.7,0.5-1.1c0.1-0.4,0.1-0.8,0.1-1.2c0-0.4-0.2-0.8-0.4-1.1c-0.2-0.4-0.5-0.7-0.8-0.9c-0.3-0.3-0.7-0.4-1.1-0.5
	l-6.6-1.9L423.3,56.3z"/>
<path class="st6" d="M417.8,65.1c-2.4-0.7-4.4-2.3-5.6-4.5c-1.2-2.2-1.5-4.7-0.8-7.1l3.2-11c0.7-2.4,2.3-4.4,4.5-5.6
	c2.2-1.2,4.7-1.5,7.1-0.8c2.4,0.7,4.4,2.3,5.6,4.5c1.2,2.2,1.5,4.7,0.8,7.1l-3.2,11c-0.3,1.2-0.9,2.3-1.6,3.3
	c-0.8,1-1.7,1.8-2.8,2.4c-1.1,0.6-2.3,1-3.5,1.1C420.2,65.5,419,65.4,417.8,65.1z"/>
<path class="st7" d="M428.8,54.9c1.6,2.1,3.6-3.3,3.8-4.2c0.6-2,0.8-4.1,0.4-6.2c-0.3-2.1-1.2-4-2.4-5.7c-2.1-2.6-9.7-11.5-16.3-6.5
	c-4.1,3.1-4.1,10.1-0.3,12.4c3,2,9.2,1.6,11.7,4.2C427.5,50.4,427.3,52.9,428.8,54.9z"/>
<path class="st6" d="M449.8,169.6c-0.6,0-1.2-0.2-1.7-0.4c-2.7-1.6-4-4.3-2.7-7.4c10-24.7,12.9-41.7,0.6-63.9
	c-1.5-2.7-0.7-7.1,1.8-8.2c2.5-1.2,2-8.2,3.6-5.4c14.6,25.5,15.7,55.3,4.2,82.1c-0.5,1.1-1.4,1.9-2.4,2.5S451,169.7,449.8,169.6z"/>
<path class="st10" d="M438.4,100.2c4.2,10.2,13.3,13.6,10.1,51.1l12.3,3.3C472,118,456,78.7,447.5,74.4"/>
<path class="st11" d="M438.4,100.2c4.2,10.2,13.3,13.6,10.1,51.1l12.3,3.3C472,118,456,78.7,447.5,74.4"/>
<path class="st6" d="M424.5,76.5l-1.6-1.9c-1,0-2,0-3,0.1l-1.5,1.8c0.4,1.4,0.7,2.3,1.2,3.7c-0.5,17.9-2.1,35.7-4.7,53.4
	c0.9,4.5,1.9,9.2,2.8,13.8c2-4.3,4-8.5,5.9-13c1-18.1,1-36.2-0.1-54.3C423.8,79,424.1,77.7,424.5,76.5z"/>
<path class="st0" d="M165.8,12.7h14.8c1.5,0,3.1,0.3,4.5,0.9c1.4,0.6,2.7,1.4,3.8,2.5c1.1,1.1,1.9,2.4,2.5,3.8
	c0.6,1.4,0.9,2.9,0.9,4.5v5.1c0,1.5-0.3,3.1-0.9,4.5c-0.6,1.4-1.4,2.7-2.5,3.8s-2.4,2-3.8,2.5c-1.4,0.6-2.9,0.9-4.5,0.9
	c-3.1,2.4-5.2,5.7-6,9.5c0-7-8.8-9.5-8.8-9.5c-1.5,0-3.1-0.3-4.5-0.9c-1.4-0.6-2.7-1.4-3.8-2.5c-1.1-1.1-2-2.4-2.5-3.8
	c-0.6-1.4-0.9-2.9-0.9-4.5v-5.1c0-3.1,1.2-6.1,3.4-8.3C159.7,13.9,162.7,12.7,165.8,12.7z"/>
<path class="st0" d="M212.4,28.5h14.8c0.5,0,0.9,0,1.4-0.1c0.8,1.9,2.8,5.7,7.6,6.4c-2.7-1.9-3-5.7-2.8-8c1.7-1,3.2-2.5,4.2-4.3
	c1-1.8,1.5-3.7,1.5-5.8v-5.1c0-1.5-0.3-3.1-0.9-4.5c-0.6-1.4-1.4-2.7-2.5-3.8c-1.1-1.1-2.4-2-3.8-2.5c-1.4-0.6-2.9-0.9-4.5-0.9
	h-14.8c-1.5,0-3.1,0.3-4.5,0.9c-1.4,0.6-2.7,1.4-3.8,2.5s-2,2.4-2.5,3.8c-0.6,1.4-0.9,2.9-0.9,4.5v5.1c0,1.5,0.3,3,0.9,4.5
	c0.6,1.4,1.4,2.7,2.5,3.8c1.1,1.1,2.4,2,3.8,2.5C209.4,28.2,210.9,28.5,212.4,28.5z"/>
<path class="st12" d="M98.9,75.8c2-2.6,6-3.3,7.2-6.3c1.1-2.5-0.1-4.2-2.3-6.2s-8.2-7.1-2.5-9.7c2.7-1.3,7.7,0.5,7.9-4.2
	c0.2-4.7,0.2-11.8,6.4-9.7c4.9,1.7,5.9,2.3,9.7-1.8c2.7-3.1,6.5-4.3,9.7-0.1c0.7,1.2,1.3,2.5,1.8,3.8c1.2,2.2,3.2,3.9,5.5,4.9
	c1.9,0.9,3.8,1.5,5,3.4c0.6,0.9,0.9,1.9,0.8,2.9c0,1-0.4,2-1.1,2.9c-2.5,3.4-5.6,5.2-3.6,9.7c1.2,2.6,3.9,3.9,4.9,6.9
	c0.4,1.7,0.3,3.4-0.3,5.1c-0.6,1.2-1.4,2.3-2.5,3.1c-1.4,1.2-3.2,1.9-4.4,3.3c-1.3,1.5-2.4,3.2-3.2,5c-2.4,5.6-2.8,12.4-4,18
	c-1.3,6.1-3.7,11.3-10,11.9c-6.3,0.6-9.1-3.5-12.2-8.5c-1.9-3-2.3-8.7-3.4-11.9c-1.7-5.5-4.6-10.6-8.4-14.9
	c-0.9-1.1-1.5-2.4-1.8-3.8C97.9,78.1,98.3,76.9,98.9,75.8z"/>
<path class="st7" d="M76.9,284.4c1.8,0.6,5,2.1,7.5,3.3c2.7,1.3,5.1,3.1,7.1,5.4c2.2,2.6,2.7,3.8,2.8,5.8c0.1,2.3-3.5,2.1-5.1,1.3
	l-16.1-9.3L76.9,284.4z"/>
<path class="st6" d="M137.3,294.9c0.1-1.3,14.8-99.4,9-175.7L126,142.6c3.2,75.8,3.2,150.4,3.2,151.1L137.3,294.9z"/>
<path class="st6" d="M101.3,166.6c-3.9-12.4-2.3-28.2,12.3-40.4l15.7,1.7c8.4,68.5-43.5,157.3-44.8,160.2l-7.4-4.2
	C77.4,283.2,100.7,221.7,101.3,166.6z"/>
<path class="st7" d="M152.7,215.2c0.5-30.6-0.4-52.3-4.5-83.5c0,0-17.3-0.5-17.7-2.5h-22.2c-16,13.2-17.7,57.2-17.6,86h62V215.2z"/>
<path class="st6" d="M214.7,130.3c0.1-0.6,0.2-1.2,0.1-1.8c-0.1-1.5-0.8-2.9-1.9-4c-1.1-1-2.6-1.5-4.2-1.4
	c-25.4,1.7-48.5-16.9-64.3-36.8c-2-2.5-8.1,4.3-10.7,6.3c-1.2,0.9-2,2.3-2.1,3.8c-0.2,1.5,0.2,3,1.2,4.2
	c9.2,11.3,20.9,20.3,34.2,26.2c13.3,5.9,27.9,8.5,42.5,7.6c1.2,0,2.4-0.4,3.4-1.2C213.8,132.5,214.5,131.5,214.7,130.3z"/>
<path class="st6" d="M153,121.7c-7.1-5-19.4-15.9-23.6-26.5c-1.2-2.7-1.2-6.6,0.8-9.1c2.5-3.1,10-1.6,13.4-0.7
	c5.9,1.5,9.8,12.1,21.7,20.6C160.9,111.7,157.9,117.3,153,121.7z"/>
<path class="st6" d="M103.1,151.8c0.8-0.5,1.5-1.2,1.8-2.1c1.4-3.7-2.8-7.2-5.1-9.5c-3.3-3.4-6.2-7.3-8.3-11.5
	c-2.8-5.7-3.7-12.7,0.6-17.8c5-6.1,12.9-9.1,19.7-12.4c1.3-0.6,2.4-1.2,3.7-1.8c2.7-1.4-2.1-9.4-3.9-11.6c-1.8-2.2-4.3-4.4-7.9-2.6
	c-9.5,5-20.4,10.7-26.6,19.6c-6.2,9-3.6,20.1,1.6,29c4,6.9,10.3,16.8,17.6,20.5c1.5,0.8,3.1,1.1,4.7,1
	C101.8,152.4,102.5,152.2,103.1,151.8z"/>
<path class="st6" d="M130.1,78.1c-6.6-0.4-14.9,0.1-21.6,2.4c-10.2,2.9-19.6,8.3-27.3,15.6c3.5,5.5,8.9,12.1,12.3,17.6
	c0,0,1.7-1.4,3.8-3c0.1-0.1,0.3-0.1,0.5-0.2c0.2,0,0.3,0,0.5,0.1c0.2,0.1,0.3,0.2,0.4,0.3c0.1,0.1,0.2,0.3,0.2,0.4l6.1,20.3
	c14.3,2.1,28.8,2.1,43.1,0l6-34.4C154.2,91.3,139.8,78.7,130.1,78.1z"/>
<path class="st6" d="M126.3,64.2l-6.6,0.5c-0.4,0.1-0.9,0.1-1.4,0c-0.5-0.1-0.9-0.3-1.3-0.5c-0.4-0.3-0.7-0.6-0.9-1
	c-0.2-0.4-0.4-0.8-0.4-1.3c0-0.5,0-0.9,0.2-1.3c0.2-0.4,0.4-0.8,0.7-1.1c0.3-0.3,0.7-0.6,1.1-0.7c0.4-0.2,0.9-0.2,1.3-0.2l7.1-0.5
	L126.3,64.2z"/>
<path class="st6" d="M126.3,81.8c0.6,0,1.1-0.2,1.7-0.4c0.5-0.3,1-0.6,1.4-1c0.4-0.4,0.7-0.9,0.9-1.5c0.2-0.5,0.3-1.1,0.2-1.7
	L129.8,67l-9.6-2.1l1.5,12.9c0.1,1.1,0.6,2.2,1.5,3C124.1,81.5,125.2,81.8,126.3,81.8z"/>
<path class="st6" d="M129.7,73.5c1.2-0.1,2.3-0.4,3.3-0.9c1-0.5,1.9-1.3,2.7-2.1c0.7-0.9,1.3-1.9,1.7-3c0.3-1.1,0.5-2.3,0.4-3.4
	l-0.8-10.8c-0.1-1.2-0.4-2.3-0.9-3.3c-0.5-1-1.3-1.9-2.1-2.7c-0.9-0.7-1.9-1.3-3-1.7c-1.1-0.3-2.3-0.5-3.4-0.4
	c-1.2,0.1-2.3,0.4-3.3,0.9c-1,0.5-1.9,1.3-2.7,2.1c-0.7,0.9-1.3,1.9-1.7,3c-0.3,1.1-0.5,2.3-0.4,3.4l0.8,10.8
	c0.2,2.3,1.4,4.4,3.1,5.9C125.1,72.9,127.4,73.7,129.7,73.5z"/>
<path class="st12" d="M135.5,57.8c-0.5-0.8-0.6-1.9-1.4-2.4c-0.5-0.3-1-0.4-1.5-0.4c-0.5,0-1,0.2-1.5,0.5c-0.9,0.6-1.7,1.3-2.3,2.1
	c-1.7,1.7-4,2.7-6.4,2.7c-1.2,0-2.4-0.3-3.4-0.8c-1-0.6-1.9-1.4-2.5-2.4c-1.2-2.3-0.4-5.1,1.1-7.2c1.1-1.6,2.5-3,4.1-4.1
	c1.6-1.1,3.5-1.8,5.4-2.1c1.9-0.3,3.9-0.2,5.8,0.3c1.9,0.6,3.6,1.6,5,2.9c2.6,2.6,3.2,6,3.1,9.5C140.9,59.3,137.3,60.9,135.5,57.8z"
	/>
<path class="st7" d="M127.8,294.1c2-0.4,5.6-0.7,8.4-0.9c2.7-0.2,5.5,0.1,8.1,1c2.7,0.7,5,2.4,6.6,4.6c1.3,1.9-1.9,3.6-3.7,3.6
	l-19.5-0.6L127.8,294.1z"/>
</svg>
