<svg width="360" height="294" viewBox="0 0 360 294" fill="none" xmlns="http://www.w3.org/2000/svg">
<g clip-path="url(#clip0)">
<path d="M352.404 214.439C352.229 214.264 351.88 214.176 351.705 214.089C350.919 213.826 350.221 213.564 349.435 213.389C347.077 212.951 344.72 212.688 342.362 212.688C340.878 212.688 338.957 213.213 337.647 212.426C335.29 211.113 332.758 210.675 330.051 211.463C327.606 212.163 325.685 213.826 324.201 215.752C323.939 216.102 323.24 217.152 322.891 217.94C322.804 218.115 322.716 218.29 322.542 218.465C322.28 218.903 322.018 219.34 321.756 219.865C321.669 220.04 321.407 220.566 321.581 220.653C321.145 221.178 320.795 221.616 320.534 222.229C319.573 223.804 318.438 225.642 317.914 227.48C317.652 228.18 317.565 228.793 317.478 229.581C317.478 229.931 317.303 230.544 317.478 230.894C317.914 231.594 318.263 230.806 318.263 230.456C318.351 227.655 319.66 225.117 321.057 222.666C321.931 221.091 323.328 219.778 324.637 218.553C325.772 217.59 326.908 216.89 328.305 216.364C329.964 215.664 331.797 215.314 333.543 214.876C334.679 214.614 335.901 214.264 337.036 214.089C337.298 214.001 337.735 213.826 337.909 213.914C338.52 214.001 339.219 214.614 339.743 214.789C341.489 215.664 343.148 216.714 344.982 217.327C346.117 217.765 347.339 217.765 348.474 217.59C348.562 217.59 348.824 217.502 349.086 217.415C349.959 217.24 350.832 216.977 351.705 216.539C352.229 216.277 352.578 215.839 353.015 215.577C353.102 215.489 353.189 215.314 353.277 215.227C353.364 215.227 353.451 215.139 353.451 215.139C353.626 214.701 352.927 214.526 352.404 214.439Z" fill="#CFDEFB"/>
<path d="M359.825 228.18C359.214 227.305 358.516 226.342 357.73 225.555C353.713 221.266 347.863 218.903 342.1 219.078C337.211 219.253 333.194 221.703 329.265 224.417C328.829 224.679 328.479 225.029 328.217 225.292C328.13 225.38 328.043 225.38 327.955 225.467C327.606 225.467 327.344 225.467 327.17 225.817C325.947 226.255 324.725 226.692 323.502 227.218C320.01 228.793 316.43 230.456 314.072 233.607C315.731 232.294 317.652 231.069 319.486 230.018C319.573 229.931 319.748 229.931 319.835 229.843C320.446 229.493 320.97 229.231 321.581 228.968C321.669 228.968 321.756 228.881 321.843 228.881C322.018 228.793 322.193 228.793 322.367 228.706C322.455 228.706 322.454 228.706 322.542 228.618C323.415 228.268 324.201 227.743 325.074 227.48C325.249 227.393 325.511 227.305 325.685 227.218C326.296 227.043 326.733 226.868 327.344 226.692C327.519 226.692 327.781 226.605 328.043 226.517C328.13 226.517 328.479 226.43 328.654 226.342C329.003 226.255 329.352 226.167 329.527 226.08C329.876 225.992 330.138 225.905 330.4 225.817C330.487 225.817 330.575 225.817 330.575 225.73C330.662 225.73 330.837 225.642 330.924 225.642C331.885 225.38 333.02 225.205 333.98 225.029C334.329 224.942 334.941 225.029 335.29 224.854C337.385 224.592 339.481 224.592 341.489 225.029C341.14 225.029 340.354 225.205 340.179 225.205C339.568 225.292 339.044 225.292 338.433 225.292C337.473 225.292 336.338 225.292 335.377 225.467C333.544 225.73 331.71 226.08 329.876 226.43C329.178 226.43 328.392 226.868 327.693 227.043C328.916 227.655 330.226 228.355 331.448 228.968C332.67 229.581 333.98 230.106 335.29 230.544C337.036 231.156 338.957 231.681 340.791 232.032C342.799 232.644 344.894 232.732 346.815 232.644C349.26 232.557 351.53 232.294 353.801 231.506C354.848 231.069 355.983 230.631 356.944 229.931C357.031 229.931 357.031 229.843 357.119 229.843C357.555 229.756 357.992 229.581 358.341 229.406C359.476 229.143 360.349 229.143 359.825 228.18Z" fill="#AABFE2"/>
<path d="M82.3383 57.8547C98.2297 57.8547 111.152 44.9008 111.152 28.9711C111.152 13.0413 98.2297 0.0874939 82.3383 0.0874939C66.447 0.0874939 53.5244 13.0413 53.5244 28.9711C53.4371 44.9008 66.3597 57.8547 82.3383 57.8547Z" fill="#AABFE2"/>
<path d="M82.3383 86.0381C81.989 86.0381 81.7271 85.7755 81.7271 85.4254V28.8836C81.7271 28.5335 81.989 28.2709 82.3383 28.2709C82.6875 28.2709 82.9495 28.5335 82.9495 28.8836V85.3379C82.9495 85.7755 82.6875 86.0381 82.3383 86.0381Z" fill="#CFDEFB"/>
<path d="M82.3383 44.5507C82.1637 44.5507 81.989 44.4632 81.9017 44.3757L73.7814 36.2358C73.5195 35.9732 73.5195 35.5356 73.7814 35.273C74.0434 35.0104 74.4799 35.0104 74.7419 35.273L82.8622 43.4129C83.1241 43.6755 83.1241 44.1131 82.8622 44.3757C82.6002 44.4632 82.5129 44.5507 82.3383 44.5507Z" fill="#CFDEFB"/>
<path d="M82.3383 52.078C82.1637 52.078 81.989 51.9905 81.9017 51.9029L73.7814 43.763C73.5195 43.5004 73.5195 43.0628 73.7814 42.8002C74.0434 42.5377 74.4799 42.5377 74.7419 42.8002L82.8622 50.9402C83.1241 51.2027 83.1241 51.6404 82.8622 51.9029C82.6002 51.9905 82.5129 52.078 82.3383 52.078Z" fill="#CFDEFB"/>
<path d="M228.058 28C227.374 27.23 226.69 26.46 225.908 25.7862C225.125 25.1125 224.343 24.535 223.463 24.0537L222.779 23.6687L222.095 23.38C221.899 23.2837 221.606 23.1875 221.41 23.0912L221.019 22.995C220.921 22.995 220.824 22.8987 220.628 22.8987C220.433 22.8025 220.139 22.8025 219.944 22.7062L219.259 22.61L218.575 22.5137C218.38 22.5137 218.086 22.5137 217.891 22.5137C217.695 22.5137 217.402 22.5137 217.206 22.5137H216.815C216.718 22.5137 216.62 22.5137 216.424 22.5137C215.935 22.5137 215.447 22.61 214.958 22.7062C213.98 22.8025 213.002 23.0912 212.025 23.38C211.047 23.6687 210.167 23.9575 209.19 24.4387C208.701 24.6312 208.31 24.8238 207.821 25.1125C207.43 25.305 206.941 25.5937 206.55 25.7862L205.865 26.2675L205.474 25.4975C205.377 25.305 205.279 25.1125 205.181 24.92C205.083 24.7275 204.986 24.535 204.79 24.3425C204.497 23.9575 204.301 23.5725 204.008 23.2837C203.421 22.61 202.737 21.9362 201.955 21.3587C201.173 20.8775 200.391 20.3962 199.511 20.1075C198.631 19.8187 197.653 19.7225 196.773 19.6262C196.284 19.6262 195.796 19.6262 195.404 19.7225C194.916 19.8187 194.427 19.8187 194.036 19.915C193.058 20.1075 192.178 20.3963 191.298 20.7812C189.441 21.455 187.779 22.4175 186.117 23.4762C187.583 22.225 189.245 20.9737 191.005 20.1075C191.885 19.7225 192.863 19.2412 193.84 18.9525C194.329 18.76 194.818 18.6637 195.307 18.5675C195.796 18.4712 196.284 18.4712 196.871 18.375C197.946 18.375 199.022 18.4712 200 18.76C200.977 19.0487 202.053 19.53 202.835 20.1075C203.715 20.685 204.497 21.3587 205.181 22.225C205.572 22.61 205.865 22.995 206.159 23.4762C206.257 23.6687 206.452 23.8612 206.55 24.15C206.648 24.3425 206.843 24.6312 206.941 24.8237L205.865 24.535C206.354 24.2462 206.745 24.0537 207.234 23.765C207.723 23.5725 208.212 23.2837 208.701 23.0912C209.678 22.7062 210.656 22.3212 211.731 22.0325C212.709 21.7437 213.785 21.5512 214.86 21.455C215.349 21.3587 215.935 21.3587 216.424 21.3587C216.522 21.3587 216.718 21.3587 216.815 21.3587H217.206C217.5 21.3587 217.695 21.3587 217.988 21.455C220.139 21.6475 222.192 22.3212 223.952 23.4762C224.832 24.0537 225.614 24.7275 226.299 25.4975C226.69 25.8825 226.983 26.2675 227.276 26.6525C227.472 26.845 227.57 27.0375 227.667 27.3262L228.058 28Z" fill="#AABFE2"/>
<path d="M217.327 275.094C217.327 275.094 99.9756 299.339 93.6016 292.95C87.2276 286.56 22.7891 208.75 25.1466 202.973C27.4168 197.196 201.785 180.479 220.82 179.341C239.767 178.203 334.155 226.43 337.036 239.209C339.917 251.987 217.327 275.094 217.327 275.094Z" fill="#CFDEFB"/>
<path d="M156.294 186.255L158.913 192.732L160.398 196.408L177.424 187.743L178.559 201.835C178.559 201.835 198.38 195.708 205.19 186.868C206.937 184.592 207.81 182.142 207.286 179.603C204.666 167 200.126 161.923 200.126 161.923C200.126 161.923 192.006 153.346 186.33 158.422C180.829 163.499 156.294 186.255 156.294 186.255Z" fill="white" stroke="#2E3374" stroke-width="1.4" stroke-miterlimit="10"/>
<path d="M250.333 147.131L250.856 148.094L250.944 158.247C250.944 158.247 270.066 208.487 276.527 219.865C282.901 231.244 282.028 233.082 283.949 236.408C285.87 239.821 291.982 245.773 295.3 247.699C298.705 249.624 304.293 250.5 305.428 247.174C305.69 246.386 305.603 245.248 305.341 244.11C304.468 240.609 301.586 236.408 301.586 236.408C301.586 236.408 305.079 237.021 304.206 234.57C303.333 232.119 297.046 233.782 295.125 230.456C293.204 227.13 269.804 181.442 268.232 170.676C266.66 159.998 264.565 142.755 264.565 142.755L253.039 146.344L250.333 147.131Z" fill="white" stroke="#2E3374" stroke-width="1.4" stroke-miterlimit="10"/>
<path d="M242.648 208.224C242.648 208.224 249.983 212.251 249.721 220.916C249.459 229.581 238.283 246.911 220.034 246.211C201.785 245.511 177.686 247.611 174.63 224.417C171.661 201.31 175.328 202.273 173.233 199.297C171.137 196.321 193.403 184.155 193.403 184.155C193.403 184.155 214.271 219.428 242.648 208.224Z" fill="#2E3374" stroke="#2E3374" stroke-width="1.4" stroke-miterlimit="10"/>
<path d="M217.327 109.145C218.113 110.37 218.986 112.821 219.685 114.922C219.685 115.009 219.772 115.184 219.772 115.359C220.034 116.322 220.296 117.197 220.471 117.81C220.645 118.423 220.733 118.685 220.733 118.685L236.799 116.41L236.013 115.447L231.56 109.758L228.678 106.082C228.678 105.994 215.668 106.694 217.327 109.145Z" fill="white" stroke="#2E3374" stroke-width="1.4" stroke-miterlimit="10"/>
<path d="M51.8652 217.24C54.31 224.417 67.5819 230.806 72.8208 229.668C76.5753 228.881 75.6149 225.73 74.3924 223.016C73.9559 221.966 73.432 221.003 73.0827 220.303C72.2969 218.465 71.5984 206.824 71.1618 199.647C70.9872 196.321 70.8998 193.958 70.8998 193.958L85.2195 201.397C95.9593 202.535 92.6413 179.253 92.6413 179.253L82.2508 158.772L68.1931 156.234L56.4929 158.685C56.4929 158.685 58.6757 197.984 58.5884 202.623C58.5884 203.761 58.6757 204.811 58.7631 205.599C59.1123 208.049 59.7235 208.75 57.8899 206.211C57.7153 206.036 57.628 205.861 57.4533 205.774C54.9212 203.936 49.5077 210.413 51.8652 217.24Z" fill="white" stroke="#2E3374" stroke-width="1.4" stroke-miterlimit="10"/>
<path d="M99.1024 174.614C99.1024 174.614 72.0347 177.415 70.9869 193.958C69.8518 210.588 89.2358 239.034 90.5455 243.147C91.9425 247.261 102.42 259.777 114.033 263.103C125.646 266.429 164.763 269.755 164.501 255.051C164.501 255.051 167.295 246.211 159.262 240.084C151.229 234.132 99.1024 174.614 99.1024 174.614Z" fill="#2E3374" stroke="#2E3374" stroke-width="1.4" stroke-miterlimit="10"/>
<path d="M69.2411 145.993L70.9001 162.273L59.6364 164.199C57.8901 164.549 56.5804 166.037 56.5804 167.875V169.976C56.5804 169.976 39.4666 162.536 47.2377 155.359C54.9214 148.182 67.9313 143.455 67.9313 143.455L69.2411 145.993Z" fill="white" stroke="#2E3374" stroke-width="1.4" stroke-miterlimit="10"/>
<path d="M165.025 160.785C165.025 160.785 168.343 227.743 167.47 236.846C166.597 245.948 166.248 243.235 166.248 243.235C166.248 243.235 138.831 270.893 117.002 257.064C95.1734 243.235 95.1734 238.859 95.1734 238.859C95.1734 238.859 91.0695 228.881 97.6182 217.59C104.254 206.299 103.381 197.721 100.936 191.595C98.4913 185.468 89.5852 167 89.5852 163.936C89.5852 160.873 72.2095 165.862 70.8124 163.411C69.4154 160.96 57.8898 145.468 65.5735 139.604C73.2573 133.827 86.7911 126.563 96.4831 126.563C106.175 126.563 108.358 122.712 108.358 122.712C108.358 122.712 132.632 112.996 137.085 121.311L137.608 123.237C137.608 123.237 165.2 129.363 167.558 142.58C170.002 155.796 165.025 160.785 165.025 160.785Z" fill="#F8B243" stroke="#2E3374" stroke-width="1.4" stroke-miterlimit="10"/>
<path d="M132.806 109.057C132.806 109.057 134.116 121.486 129.401 122.099C124.773 122.712 104.778 124.725 104.865 118.423C104.953 112.121 101.984 109.057 101.984 109.057H132.806Z" fill="white" stroke="#2E3374" stroke-width="1.4" stroke-miterlimit="10"/>
<path d="M138.394 106.432C138.394 106.432 135.775 120.086 132.981 122.887C130.187 125.687 119.971 128.663 117.526 125.775C115.081 122.887 103.817 109.233 103.817 109.233L138.394 106.432Z" fill="#2E3374" stroke="#2E3374" stroke-width="1.4" stroke-miterlimit="10"/>
<path d="M128.877 90.0643C128.877 90.0643 146.078 88.2263 148.523 90.0643C150.968 91.9024 145.729 116.147 127.48 115.447C109.231 114.747 92.6412 110.983 88.1881 103.193C83.735 95.4034 79.5439 90.5895 84.6955 90.0643C89.8471 89.5392 128.877 90.0643 128.877 90.0643Z" fill="#D5401A" stroke="#2E3374" stroke-width="1.4" stroke-miterlimit="10"/>
<path d="M135.076 97.8541C138.045 96.1036 137.521 78.5109 128.528 77.4606C119.534 76.4103 102.682 75.9726 100.238 89.8893C99.4517 94.4406 101.635 97.8541 101.635 97.8541C101.635 97.8541 114.383 109.933 135.076 97.8541Z" fill="#D5401A" stroke="#2E3374" stroke-width="1.4" stroke-miterlimit="10"/>
<path d="M71.1615 199.472C68.8913 193.258 68.1928 188.006 67.145 180.479L71.1615 199.472Z" fill="white"/>
<path d="M71.1615 199.472C68.8913 193.258 68.1928 188.006 67.145 180.479" stroke="#2E3374" stroke-width="1.4" stroke-miterlimit="10"/>
<path d="M192.617 231.244C196.983 237.371 212.612 243.41 225.273 237.458C241.252 229.931 255.833 216.102 249.284 208.137C242.823 200.172 240.204 184.417 245.967 174.527C251.729 164.637 262.12 152.12 262.12 152.12C262.12 152.12 269.629 121.836 264.652 116.06C259.762 110.283 258.453 107.482 246.578 112.383C234.79 117.372 222.915 117.985 222.915 117.985C222.915 117.985 199.428 119.473 195.76 136.366C192.093 153.258 192.355 164.286 192.355 164.286L193.665 164.899L208.858 172.339L209.207 172.514C209.207 172.514 209.12 172.776 208.945 173.302C208.945 173.302 208.945 173.302 208.945 173.389C206.937 180.041 194.8 220.303 191.744 226.605C191.133 228.005 191.482 229.581 192.617 231.244Z" fill="#15ADC2" stroke="#2E3374" stroke-width="1.4" stroke-miterlimit="10"/>
<path d="M164.327 266.342C164.327 266.779 164.414 267.217 164.589 267.567C166.073 270.806 171.574 269.318 174.717 267.042C177.861 264.766 183.274 258.114 184.759 254.526C186.33 250.937 185.195 249.274 190.347 237.283C190.958 235.795 191.744 233.695 192.53 231.244C198.38 213.739 208.421 175.402 208.945 173.389C208.945 173.302 208.945 173.302 208.945 173.302L208.858 172.251L204.23 169.976L193.665 164.812C193.577 170.851 193.403 180.479 193.141 187.481C192.792 198.247 174.455 246.298 172.884 249.799C171.312 253.388 164.938 252.338 164.327 254.876C163.716 257.414 167.121 256.451 167.121 256.451C167.121 256.451 163.978 262.753 164.327 266.342Z" fill="white" stroke="#2E3374" stroke-width="1.4" stroke-miterlimit="10"/>
<path d="M211.39 90.677C211.39 90.677 203.357 94.2656 206.151 97.5916C208.945 100.83 211.39 90.677 211.39 90.677Z" fill="white" stroke="#2E3374" stroke-width="1.4" stroke-miterlimit="10"/>
<path d="M207.286 104.506C207.286 104.681 207.373 104.944 207.373 105.119C207.461 105.469 207.548 105.819 207.635 106.257C207.81 106.957 208.072 107.657 208.334 108.27C208.421 108.532 208.509 108.707 208.683 108.97C209.644 110.983 211.128 112.559 212.962 113.784C214.708 114.834 216.629 115.359 218.637 115.447C219.074 115.447 219.423 115.447 219.86 115.447C223.789 115.184 227.98 113.259 231.56 109.933C233.393 108.27 235.14 106.169 236.537 103.806C242.561 93.9155 241.776 82.4495 234.703 78.1608C227.718 73.872 217.153 78.3358 211.128 88.2263C207.81 93.5654 206.588 99.5171 207.286 104.506Z" fill="white" stroke="#2E3374" stroke-width="1.4" stroke-miterlimit="10"/>
<path d="M210.604 85.1628C210.691 85.688 210.779 86.1256 210.866 86.4757C212.525 91.9024 219.772 87.6136 219.772 87.6136C226.495 86.3007 224.574 92.8651 225.971 96.4537C227.368 100.042 229.464 90.9396 231.298 88.4013C233.131 85.8631 237.846 92.2525 233.481 98.4668C232.782 99.4296 232.258 100.305 231.909 101.18C229.813 105.731 231.56 108.532 231.56 108.532C231.647 108.532 232.345 108.532 233.219 108.795C235.576 109.32 239.593 111.596 236.537 119.998C232.345 131.552 249.372 159.56 261.247 161.748C268.057 162.974 282.028 154.046 288.489 147.306C290.585 145.118 291.982 143.28 291.982 141.967C292.942 124.462 261.072 124.199 258.453 99.8672C254.611 64.4192 232.957 69.7583 222.304 69.1456C211.739 68.6204 209.731 77.8107 210.604 85.1628Z" fill="#2E3374" stroke="#2E3374" stroke-width="1.4" stroke-miterlimit="10"/>
<path d="M32.9178 83.1498C51.0793 83.1498 65.8356 68.3579 65.8356 50.1524C65.8356 31.947 51.0793 17.1551 32.9178 17.1551C14.7562 17.1551 0 31.947 0 50.1524C0 68.3579 14.7562 83.1498 32.9178 83.1498Z" fill="#CFDEFB"/>
<path d="M32.9178 115.359C32.4812 115.359 32.2192 115.009 32.2192 114.659V50.1524C32.2192 49.7148 32.5685 49.4522 32.9178 49.4522C33.267 49.4522 33.6163 49.8023 33.6163 50.1524V114.572C33.6163 115.009 33.267 115.359 32.9178 115.359Z" fill="#AABFE2"/>
<path d="M32.9176 68.0077C32.743 68.0077 32.5684 67.9202 32.3937 67.7452L23.1384 58.5549C22.8764 58.2924 22.8764 57.7672 23.1384 57.5046C23.4003 57.242 23.9242 57.242 24.1861 57.5046L33.4415 66.7824C33.7035 67.045 33.7035 67.5701 33.4415 67.8327C33.2669 67.9202 33.0923 68.0077 32.9176 68.0077Z" fill="#AABFE2"/>
<path d="M32.9176 76.5853C32.743 76.5853 32.5684 76.4978 32.3937 76.3227L23.1384 67.1325C22.8764 66.8699 22.8764 66.3448 23.1384 66.0822C23.4003 65.8196 23.9242 65.8196 24.1861 66.0822L33.4415 75.2724C33.7035 75.535 33.7035 76.0601 33.4415 76.3227C33.2669 76.4978 33.0923 76.5853 32.9176 76.5853Z" fill="#AABFE2"/>
</g>
<defs>
<clipPath id="clip0">
<rect width="360" height="294" fill="white"/>
</clipPath>
</defs>
</svg>
