<svg width="102" height="187" viewBox="0 0 102 187" fill="none" xmlns="http://www.w3.org/2000/svg">
<g filter="url(#filter0_d)">
<path d="M20 25C20 22.2386 22.2386 20 25 20H102V167H25C22.2386 167 20 164.761 20 162V25Z" fill="white"/>
</g>
<path d="M48.1954 142.204H45.4268V140.667H47.917V140.131H45.4268V138.746H48.084V138.21H44.8301V142.741H48.1954V142.204Z" fill="#1A1A18"/>
<path d="M49.1346 142.428C49.2356 142.549 49.3637 142.645 49.5085 142.708C49.6794 142.782 49.8635 142.82 50.0495 142.82C50.2552 142.824 50.4583 142.774 50.6394 142.676C50.8205 142.578 50.9735 142.434 51.0838 142.26V142.74H51.5771V139.458H51.0281V141.219C51.0385 141.437 51.006 141.654 50.9326 141.859C50.873 142.01 50.7633 142.134 50.6224 142.212C50.4821 142.294 50.3231 142.338 50.1609 142.34C50.01 142.346 49.8614 142.301 49.7393 142.212C49.6276 142.126 49.5488 142.005 49.5165 141.867C49.5028 141.673 49.5028 141.478 49.5165 141.283V139.458H48.9675V141.491C48.9509 141.664 48.9509 141.838 48.9675 142.012C48.9922 142.161 49.0493 142.303 49.1346 142.428Z" fill="#1A1A18"/>
<path d="M52.9925 141.028C52.9908 140.809 53.0203 140.59 53.08 140.379C53.1129 140.257 53.1858 140.15 53.2868 140.075C53.3786 140 53.4944 139.96 53.613 139.963C53.7566 139.966 53.8968 140.007 54.0188 140.083L54.2097 139.563C54.0417 139.452 53.8459 139.391 53.6448 139.387C53.5168 139.386 53.3916 139.425 53.2868 139.499C53.137 139.622 53.0172 139.778 52.9368 139.955V139.459H52.4355V142.773H52.9925V141.028Z" fill="#1A1A18"/>
<path d="M55.8637 142.821C56.1424 142.823 56.4168 142.751 56.6593 142.613C56.8943 142.486 57.0857 142.291 57.2082 142.052C57.3502 141.739 57.4157 141.396 57.3992 141.052C57.4119 140.829 57.3804 140.606 57.3067 140.396C57.2329 140.186 57.1183 139.992 56.9696 139.827C56.827 139.681 56.6558 139.566 56.4667 139.49C56.2777 139.415 56.075 139.379 55.8717 139.387C55.4956 139.374 55.1289 139.506 54.8454 139.755C54.6668 139.927 54.5286 140.137 54.4405 140.37C54.3525 140.602 54.3168 140.852 54.3362 141.1C54.3197 141.33 54.3492 141.561 54.423 141.78C54.4968 141.998 54.6134 142.2 54.7658 142.372C54.907 142.521 55.0779 142.638 55.2671 142.715C55.4563 142.792 55.6596 142.828 55.8637 142.821ZM55.1715 140.163C55.2574 140.065 55.3632 139.986 55.4819 139.931C55.6006 139.877 55.7294 139.849 55.8597 139.849C55.99 139.849 56.1188 139.877 56.2375 139.931C56.3562 139.986 56.462 140.065 56.5479 140.163C56.7476 140.426 56.8439 140.754 56.8184 141.084C56.8471 141.426 56.7509 141.768 56.5479 142.044C56.462 142.143 56.3562 142.222 56.2375 142.276C56.1188 142.33 55.99 142.358 55.8597 142.358C55.7294 142.358 55.6006 142.33 55.4819 142.276C55.3632 142.222 55.2574 142.143 55.1715 142.044C54.9948 141.763 54.901 141.437 54.901 141.104C54.901 140.771 54.9948 140.445 55.1715 140.163Z" fill="#1A1A18"/>
<path d="M59.3567 142.821C59.6355 142.823 59.9098 142.751 60.1523 142.613C60.3873 142.486 60.5787 142.291 60.7013 142.052C60.8366 141.737 60.8992 141.395 60.8843 141.052C60.898 140.83 60.8679 140.607 60.7955 140.397C60.7231 140.187 60.61 139.993 60.4626 139.827C60.3189 139.68 60.1463 139.565 59.9558 139.49C59.7654 139.414 59.5614 139.379 59.3567 139.387C58.9833 139.376 58.6195 139.507 58.3384 139.755C58.1585 139.926 58.0193 140.136 57.9311 140.369C57.843 140.602 57.8081 140.852 57.8292 141.1C57.7965 141.564 57.9482 142.021 58.2509 142.373C58.3939 142.521 58.5662 142.637 58.7567 142.714C58.9471 142.792 59.1515 142.828 59.3567 142.821ZM58.6725 140.163C58.7568 140.064 58.8617 139.984 58.98 139.93C59.0983 139.876 59.2269 139.849 59.3567 139.851C59.4868 139.848 59.6158 139.875 59.7342 139.929C59.8526 139.983 59.9575 140.063 60.0409 140.163C60.2434 140.425 60.3426 140.753 60.3194 141.084C60.3438 141.426 60.2481 141.766 60.0489 142.044C59.963 142.143 59.8572 142.222 59.7385 142.276C59.6198 142.33 59.491 142.358 59.3607 142.358C59.2304 142.358 59.1016 142.33 58.9829 142.276C58.8642 142.222 58.7584 142.143 58.6725 142.044C58.4958 141.763 58.402 141.437 58.402 141.104C58.402 140.771 58.4958 140.445 58.6725 140.163Z" fill="#1A1A18"/>
<path d="M62.094 142.405C62.194 142.529 62.3187 142.63 62.46 142.701C62.6115 142.783 62.7813 142.825 62.9533 142.821C63.2101 142.82 63.4614 142.745 63.6772 142.605C63.9056 142.455 64.0854 142.241 64.1944 141.989C64.3182 141.701 64.3805 141.39 64.3774 141.076C64.3803 140.78 64.3235 140.486 64.2103 140.212C64.1184 139.964 63.9514 139.751 63.7329 139.604C63.5135 139.458 63.2557 139.383 62.993 139.387C62.8045 139.38 62.6177 139.425 62.452 139.515C62.2894 139.607 62.1505 139.736 62.0463 139.892V139.459H61.5371V143.998H62.094V142.405ZM62.3168 140.156C62.3884 140.055 62.4825 139.971 62.5916 139.913C62.7007 139.855 62.8218 139.823 62.9453 139.82C63.0641 139.822 63.1808 139.852 63.2868 139.906C63.3928 139.96 63.4854 140.037 63.5579 140.132C63.7456 140.409 63.8352 140.742 63.8125 141.076C63.8404 141.42 63.7475 141.763 63.5499 142.045C63.475 142.143 63.3786 142.222 63.2681 142.276C63.1577 142.33 63.0363 142.358 62.9135 142.357C62.796 142.356 62.6801 142.329 62.5742 142.278C62.4682 142.227 62.3749 142.153 62.3009 142.061C62.1096 141.788 62.0195 141.457 62.0463 141.124C62.0197 140.781 62.1125 140.438 62.3088 140.156H62.3168Z" fill="#1A1A18"/>
<path d="M66.1269 140.852C65.9638 140.869 65.8018 140.896 65.6416 140.932C65.5009 140.973 65.3669 141.035 65.2438 141.116C65.1211 141.2 65.0207 141.314 64.9513 141.446C64.882 141.579 64.8459 141.726 64.8461 141.876C64.8425 142.004 64.8662 142.13 64.9156 142.248C64.965 142.365 65.039 142.471 65.1325 142.557C65.3576 142.738 65.6399 142.832 65.9281 142.821C66.1373 142.821 66.3448 142.783 66.5407 142.709C66.7565 142.621 66.9557 142.496 67.1294 142.341C67.1426 142.48 67.1803 142.615 67.2408 142.741H67.8215C67.7506 142.62 67.7021 142.487 67.6783 142.349C67.6585 142.021 67.6585 141.692 67.6783 141.364V140.627C67.6916 140.457 67.6916 140.286 67.6783 140.115C67.6522 139.976 67.5951 139.845 67.5113 139.731C67.401 139.62 67.2679 139.536 67.1214 139.483C66.9032 139.412 66.6744 139.379 66.4452 139.387C66.1942 139.384 65.9443 139.422 65.7053 139.499C65.5151 139.562 65.3469 139.679 65.22 139.835C65.0928 139.998 65.008 140.191 64.9733 140.395L65.5143 140.475C65.5433 140.285 65.6393 140.112 65.7848 139.987C65.9592 139.881 66.1626 139.833 66.3656 139.851C66.5905 139.832 66.8144 139.898 66.9941 140.035C67.0521 140.1 67.0962 140.176 67.1235 140.259C67.1509 140.341 67.161 140.429 67.1533 140.515C67.1559 140.563 67.1559 140.612 67.1533 140.66C66.8184 140.758 66.4746 140.822 66.1269 140.852ZM67.1135 141.3C67.1267 141.488 67.0968 141.677 67.026 141.852C66.9481 142.018 66.82 142.156 66.66 142.244C66.4858 142.336 66.2917 142.383 66.0951 142.381C65.919 142.393 65.7442 142.342 65.6019 142.236C65.5484 142.19 65.5058 142.132 65.4769 142.067C65.4481 142.002 65.4337 141.931 65.4348 141.86C65.433 141.766 65.4609 141.673 65.5143 141.596C65.5647 141.515 65.6402 141.453 65.7292 141.42C65.8859 141.363 66.0488 141.326 66.2145 141.308C66.5221 141.275 66.8242 141.202 67.1135 141.092V141.3Z" fill="#1A1A18"/>
<path d="M73.1365 142.204H70.9248V138.21H70.3281V142.741H73.1365V142.204Z" fill="#1A1A18"/>
<path d="M74.3382 138.21H73.7812V138.85H74.3382V138.21Z" fill="#1A1A18"/>
<path d="M74.3382 139.458H73.7812V142.74H74.3382V139.458Z" fill="#1A1A18"/>
<path d="M75.7376 138.21H75.1807V138.85H75.7376V138.21Z" fill="#1A1A18"/>
<path d="M75.7376 139.458H75.1807V142.74H75.7376V139.458Z" fill="#1A1A18"/>
<path d="M76.6765 141.781C76.6646 142.002 76.6861 142.223 76.7402 142.437C76.7909 142.546 76.8744 142.636 76.9789 142.694C77.1219 142.765 77.2808 142.798 77.4403 142.79C77.5821 142.788 77.7233 142.772 77.862 142.742L77.7824 142.245H77.5358C77.4724 142.248 77.4093 142.234 77.3528 142.205C77.3089 142.18 77.2751 142.141 77.2573 142.093C77.238 141.993 77.238 141.89 77.2573 141.789V139.868H77.8142V139.436H77.2096V138.291L76.6606 138.627V139.428H76.2549V139.86H76.6606L76.6765 141.781Z" fill="#1A1A18"/>
<path d="M38.2345 148.672H35.4658V147.127H37.956V146.599H35.4658V145.206H38.131V144.67H34.8691V149.201H38.2345V148.672Z" fill="#1A1A18"/>
<path d="M40.0876 149.28C40.2935 149.285 40.4972 149.236 40.6786 149.138C40.8599 149.04 41.0127 148.895 41.1219 148.72V149.2H41.6151V145.918H41.0662V147.679C41.0765 147.897 41.0441 148.114 40.9707 148.319C40.9135 148.471 40.8031 148.596 40.6604 148.672C40.5202 148.754 40.3612 148.798 40.199 148.8C40.0481 148.806 39.8995 148.761 39.7773 148.672C39.6657 148.586 39.5869 148.465 39.5546 148.327C39.5409 148.133 39.5409 147.938 39.5546 147.743V145.918H39.0056V147.951C38.989 148.124 38.989 148.298 39.0056 148.471C39.0303 148.621 39.0873 148.763 39.1727 148.888C39.2715 149.012 39.4002 149.108 39.5466 149.168C39.7175 149.242 39.9016 149.28 40.0876 149.28Z" fill="#1A1A18"/>
<path d="M42.9993 147.488C42.9977 147.268 43.0271 147.05 43.0868 146.839C43.1197 146.717 43.1926 146.61 43.2937 146.535C43.3855 146.46 43.5013 146.42 43.6199 146.423C43.7634 146.426 43.9036 146.467 44.0256 146.543L44.2165 146.023C44.047 145.915 43.8521 145.854 43.6517 145.847C43.5236 145.845 43.3984 145.885 43.2937 145.959C43.1438 146.082 43.0241 146.238 42.9436 146.415V145.919H42.4424V149.177H42.9993V147.488Z" fill="#1A1A18"/>
<path d="M45.9042 149.281C46.1816 149.28 46.4547 149.212 46.6998 149.081C46.9333 148.948 47.1239 148.751 47.2487 148.512C47.3907 148.199 47.4562 147.856 47.4397 147.512C47.4489 147.288 47.4127 147.065 47.3334 146.856C47.2541 146.646 47.1332 146.456 46.9782 146.295C46.8373 146.146 46.6665 146.029 46.4772 145.952C46.2879 145.875 46.0845 145.839 45.8803 145.847C45.5043 145.835 45.1375 145.966 44.854 146.215C44.6741 146.386 44.5349 146.596 44.4468 146.829C44.3586 147.062 44.3238 147.312 44.3448 147.56C44.3121 148.024 44.4638 148.481 44.7665 148.833C44.9135 148.984 45.091 149.103 45.2872 149.18C45.4834 149.258 45.6938 149.292 45.9042 149.281ZM45.212 146.623C45.2979 146.525 45.4037 146.446 45.5224 146.391C45.6411 146.337 45.7699 146.309 45.9002 146.309C46.0305 146.309 46.1593 146.337 46.278 146.391C46.3967 146.446 46.5025 146.525 46.5884 146.623C46.788 146.886 46.8844 147.214 46.8589 147.544C46.8876 147.886 46.7914 148.228 46.5884 148.504C46.5033 148.604 46.3977 148.684 46.2789 148.739C46.1601 148.794 46.0309 148.823 45.9002 148.823C45.7695 148.823 45.6403 148.794 45.5215 148.739C45.4028 148.684 45.2972 148.604 45.212 148.504C45.0353 148.223 44.9415 147.897 44.9415 147.564C44.9415 147.231 45.0353 146.905 45.212 146.623Z" fill="#1A1A18"/>
<path d="M48.2898 148.833C48.4329 148.981 48.6052 149.097 48.7956 149.175C48.9861 149.252 49.1905 149.288 49.3957 149.281C49.6734 149.283 49.947 149.214 50.1913 149.081C50.4289 148.951 50.6228 148.753 50.7482 148.513C50.8835 148.197 50.9461 147.855 50.9312 147.512C50.9439 147.291 50.9132 147.07 50.8408 146.861C50.7684 146.653 50.6559 146.46 50.5095 146.295C50.3674 146.146 50.1952 146.029 50.0045 145.951C49.8139 145.874 49.609 145.838 49.4036 145.847C49.028 145.838 48.6624 145.969 48.3773 146.215C48.1998 146.388 48.0627 146.598 47.976 146.831C47.8893 147.063 47.8552 147.312 47.8761 147.56C47.8412 148.023 47.9899 148.48 48.2898 148.833ZM48.7115 146.623C48.7957 146.524 48.9007 146.444 49.0189 146.39C49.1372 146.336 49.2658 146.309 49.3957 146.311C49.5257 146.308 49.6547 146.335 49.7731 146.389C49.8916 146.443 49.9964 146.523 50.0799 146.623C50.2824 146.885 50.3815 147.213 50.3583 147.544C50.3827 147.886 50.287 148.226 50.0878 148.505C50.0027 148.604 49.8971 148.684 49.7783 148.739C49.6595 148.794 49.5304 148.823 49.3997 148.823C49.2689 148.823 49.1398 148.794 49.021 148.739C48.9022 148.684 48.7966 148.604 48.7115 148.505C48.5347 148.223 48.4409 147.897 48.4409 147.564C48.4409 147.231 48.5347 146.905 48.7115 146.623Z" fill="#1A1A18"/>
<path d="M54.4085 147.576C54.4114 147.28 54.3546 146.985 54.2414 146.712C54.145 146.468 53.9763 146.261 53.7585 146.118C53.5407 145.975 53.2842 145.902 53.0241 145.911C52.8355 145.903 52.6483 145.947 52.4831 146.039C52.3205 146.131 52.1816 146.26 52.0774 146.415V145.983H51.5762V150.522H52.1251V148.921C52.2251 149.044 52.3498 149.145 52.4911 149.217C52.6426 149.299 52.8124 149.34 52.9844 149.337C53.2413 149.336 53.4925 149.261 53.7083 149.121C53.9367 148.971 54.1165 148.756 54.2255 148.505C54.3515 148.212 54.4139 147.895 54.4085 147.576ZM53.6129 148.545C53.5388 148.644 53.4427 148.725 53.3322 148.78C53.2217 148.836 53.0999 148.865 52.9764 148.865C52.8583 148.863 52.742 148.835 52.636 148.782C52.53 148.73 52.4371 148.654 52.3638 148.561C52.1726 148.288 52.0825 147.957 52.1092 147.624C52.085 147.279 52.1806 146.937 52.3797 146.656C52.4513 146.554 52.5454 146.471 52.6545 146.413C52.7636 146.354 52.8847 146.322 53.0082 146.319C53.1257 146.323 53.2408 146.353 53.3453 146.407C53.4499 146.461 53.5413 146.538 53.6129 146.632C53.7846 146.921 53.8752 147.251 53.8752 147.588C53.8752 147.925 53.7846 148.256 53.6129 148.545Z" fill="#1A1A18"/>
<path d="M57.751 148.808C57.7312 148.483 57.7312 148.157 57.751 147.832V147.087C57.7642 146.917 57.7642 146.746 57.751 146.575C57.7266 146.438 57.6692 146.309 57.5839 146.199C57.4763 146.083 57.3426 145.995 57.1941 145.943C56.9758 145.872 56.7471 145.839 56.5178 145.847C56.2496 145.839 55.9823 145.882 55.7302 145.975C55.5381 146.035 55.367 146.149 55.2369 146.303C55.1155 146.469 55.0339 146.661 54.9983 146.863L55.5393 146.943C55.5682 146.753 55.6642 146.58 55.8098 146.455C55.9842 146.349 56.1875 146.301 56.3905 146.319C56.6154 146.3 56.8393 146.366 57.019 146.503C57.077 146.568 57.1211 146.644 57.1485 146.727C57.1758 146.809 57.186 146.897 57.1782 146.983C57.181 147.031 57.181 147.079 57.1782 147.127C56.856 147.222 56.5257 147.287 56.1916 147.32C56.0285 147.337 55.8665 147.364 55.7063 147.4C55.565 147.44 55.4308 147.502 55.3085 147.584C55.1894 147.666 55.0913 147.776 55.0221 147.904C54.9435 148.037 54.9048 148.19 54.9107 148.344C54.9072 148.472 54.9309 148.598 54.9803 148.716C55.0297 148.833 55.1037 148.939 55.1972 149.025C55.4223 149.206 55.7046 149.3 55.9927 149.289C56.202 149.289 56.4095 149.251 56.6053 149.177C56.8212 149.089 57.0204 148.964 57.1941 148.808C57.2073 148.947 57.245 149.083 57.3055 149.209H57.8862C57.8172 149.085 57.7713 148.949 57.751 148.808ZM57.1543 147.76C57.1666 147.951 57.1367 148.142 57.0668 148.32C56.9863 148.483 56.8586 148.617 56.7008 148.704C56.5263 148.795 56.3324 148.842 56.1359 148.84C55.9598 148.853 55.785 148.802 55.6427 148.696C55.5893 148.65 55.5466 148.592 55.5178 148.527C55.4889 148.462 55.4745 148.391 55.4756 148.32C55.4739 148.226 55.5017 148.133 55.5552 148.056C55.6055 147.975 55.681 147.913 55.77 147.88C55.9268 147.823 56.0897 147.786 56.2553 147.768C56.5618 147.733 56.8634 147.663 57.1543 147.56V147.76Z" fill="#1A1A18"/>
<path d="M60.2876 146.391C60.2236 146.514 60.1908 146.652 60.1921 146.791C60.1886 146.946 60.2301 147.099 60.3115 147.231C60.3965 147.37 60.5214 147.478 60.6695 147.544C60.9411 147.662 61.2236 147.753 61.5128 147.816C61.708 147.853 61.8977 147.915 62.0777 148C62.1283 148.03 62.1699 148.074 62.1979 148.126C62.2259 148.178 62.2393 148.237 62.2368 148.296C62.2378 148.368 62.2216 148.438 62.1898 148.502C62.158 148.567 62.1113 148.622 62.0538 148.664C61.8903 148.783 61.6902 148.84 61.489 148.824C61.2785 148.835 61.0707 148.773 60.9002 148.648C60.7555 148.515 60.6648 148.332 60.6456 148.136L60.0967 148.224C60.1348 148.536 60.2881 148.821 60.5263 149.024C60.8085 149.226 61.1518 149.322 61.4969 149.297C61.7319 149.299 61.9649 149.253 62.1811 149.16C62.3712 149.081 62.5342 148.947 62.6505 148.776C62.7531 148.622 62.8085 148.441 62.8096 148.256C62.8166 148.085 62.7692 147.917 62.6744 147.776C62.5836 147.645 62.4562 147.545 62.3084 147.487C62.0486 147.386 61.7829 147.3 61.5128 147.231L61.0196 147.087C60.9356 147.057 60.8614 147.004 60.8048 146.935C60.7639 146.879 60.7417 146.812 60.7411 146.743C60.7435 146.685 60.7591 146.628 60.7867 146.576C60.8143 146.525 60.8531 146.481 60.9002 146.447C61.0648 146.346 61.2573 146.301 61.4492 146.319C61.6253 146.307 61.8001 146.358 61.9424 146.463C62.0021 146.511 62.0518 146.57 62.0887 146.637C62.1255 146.705 62.1488 146.779 62.1572 146.855L62.6982 146.783C62.6767 146.602 62.6111 146.429 62.5073 146.279C62.4037 146.137 62.2593 146.031 62.0936 145.975C61.8793 145.897 61.653 145.859 61.4253 145.863C61.264 145.862 61.1034 145.883 60.948 145.927C60.8223 145.961 60.7038 146.018 60.5979 146.095C60.4717 146.166 60.3651 146.268 60.2876 146.391Z" fill="#1A1A18"/>
<path d="M64.4335 148.728C64.3675 148.731 64.3017 148.718 64.2426 148.688C64.2201 148.676 64.2001 148.661 64.1837 148.641C64.1673 148.622 64.1549 148.6 64.1471 148.576C64.1278 148.475 64.1278 148.372 64.1471 148.272V146.35H64.704V145.918H64.1471V144.773L63.5981 145.11V145.91H63.1924V146.342H63.5981V148.232C63.5832 148.453 63.6074 148.675 63.6697 148.888C63.7148 148.998 63.7964 149.088 63.9005 149.144C64.046 149.216 64.2078 149.249 64.3698 149.24C64.509 149.238 64.6476 149.222 64.7836 149.192L64.704 148.696L64.4335 148.728Z" fill="#1A1A18"/>
<path d="M65.2051 145.918V149.176H65.762V147.463C65.7604 147.244 65.7898 147.026 65.8495 146.815C65.8855 146.694 65.9578 146.588 66.0564 146.511C66.1482 146.435 66.264 146.395 66.3825 146.399C66.5261 146.401 66.6663 146.443 66.7883 146.519L66.9792 145.998C66.8097 145.891 66.6148 145.83 66.4144 145.822C66.2874 145.836 66.1678 145.889 66.0723 145.974C65.9224 146.098 65.8027 146.254 65.7222 146.431V145.934L65.2051 145.918Z" fill="#1A1A18"/>
<path d="M69.3904 147.679C69.4008 147.897 69.3683 148.114 69.2949 148.319C69.2379 148.469 69.131 148.593 68.9926 148.672C68.8492 148.753 68.6879 148.797 68.5232 148.8C68.3725 148.805 68.2242 148.76 68.1016 148.672C67.9899 148.586 67.9111 148.465 67.8788 148.327C67.8651 148.133 67.8651 147.938 67.8788 147.743V145.918H67.3298V147.951C67.3132 148.124 67.3132 148.298 67.3298 148.471C67.3535 148.623 67.4136 148.765 67.5049 148.888C67.5987 149.013 67.7254 149.11 67.8708 149.168C68.0417 149.242 68.2258 149.28 68.4118 149.28C68.6178 149.285 68.8214 149.236 69.0028 149.138C69.1842 149.04 69.3369 148.895 69.4461 148.72V149.2H69.9394V145.918H69.3904V147.679Z" fill="#1A1A18"/>
<path d="M71.3626 147.904L71.7524 147.528L72.8265 149.201H73.5107L72.1422 147.143L73.3834 145.919H72.6753L71.3626 147.255V144.67H70.8057V149.201H71.3626V147.904Z" fill="#1A1A18"/>
<path d="M74.8224 149.248C74.9616 149.246 75.1002 149.23 75.2361 149.2L75.1565 148.704H74.9179C74.8519 148.707 74.7861 148.694 74.7269 148.664C74.7045 148.652 74.6845 148.637 74.6681 148.617C74.6517 148.598 74.6392 148.576 74.6315 148.552C74.6162 148.451 74.6162 148.348 74.6315 148.248V146.326H75.1884V145.894H74.6315V144.773L74.0825 145.11V145.91H73.6768V146.342H74.0268V148.232C74.0119 148.453 74.0361 148.675 74.0984 148.888C74.1435 148.998 74.2251 149.088 74.3291 149.144C74.4811 149.223 74.6516 149.259 74.8224 149.248Z" fill="#1A1A18"/>
<path d="M75.6902 145.918V147.951C75.6736 148.124 75.6736 148.298 75.6902 148.471C75.7149 148.621 75.7719 148.763 75.8573 148.888C75.9544 149.013 76.0837 149.11 76.2312 149.168C76.4021 149.242 76.5862 149.28 76.7722 149.28C76.9781 149.285 77.1818 149.236 77.3632 149.138C77.5445 149.04 77.6973 148.895 77.8065 148.72V149.2H78.2997V145.918H77.7508V147.679C77.7611 147.897 77.7287 148.114 77.6553 148.319C77.598 148.471 77.4877 148.596 77.345 148.672C77.2048 148.754 77.0458 148.798 76.8836 148.8C76.7327 148.806 76.584 148.761 76.4619 148.672C76.3502 148.586 76.2715 148.465 76.2392 148.327C76.2255 148.133 76.2255 147.938 76.2392 147.743V145.918H75.6902Z" fill="#1A1A18"/>
<path d="M81.3396 148.72V149.2H81.8328V145.918H81.2759V147.679C81.2842 147.896 81.2546 148.113 81.1884 148.319C81.1261 148.468 81.0171 148.592 80.8781 148.672C80.7351 148.754 80.5735 148.798 80.4087 148.8C80.2604 148.805 80.1147 148.76 79.995 148.672C79.8834 148.586 79.8046 148.465 79.7723 148.327C79.7546 148.133 79.7546 147.937 79.7723 147.743V145.918H79.2154V147.951C79.1977 148.124 79.1977 148.299 79.2154 148.471C79.24 148.621 79.2971 148.763 79.3824 148.888C79.4796 149.013 79.6088 149.11 79.7564 149.168C79.9244 149.242 80.1059 149.28 80.2894 149.28C80.4978 149.287 80.7045 149.239 80.8888 149.141C81.073 149.042 81.2285 148.897 81.3396 148.72Z" fill="#1A1A18"/>
<path d="M83.2408 147.488C83.2377 147.268 83.2699 147.049 83.3362 146.839C83.3691 146.717 83.442 146.61 83.5431 146.535C83.6341 146.458 83.7505 146.418 83.8693 146.423C84.0128 146.425 84.153 146.467 84.275 146.543L84.466 146.023C84.2936 145.915 84.0961 145.854 83.8931 145.847C83.7771 145.858 83.6667 145.902 83.5749 145.975C83.4224 146.097 83.2999 146.253 83.2169 146.431V145.935H82.7236V149.177H83.2726L83.2408 147.488Z" fill="#1A1A18"/>
<path d="M85.3489 144.67H84.792V145.31H85.3489V144.67Z" fill="#1A1A18"/>
<path d="M85.3489 145.918H84.792V149.2H85.3489V145.918Z" fill="#1A1A18"/>
<path d="M87.6791 147.287H85.9766V147.847H87.6791V147.287Z" fill="#1A1A18"/>
<path d="M31.29 155.828C31.309 156.022 31.2789 156.217 31.2024 156.396C31.1732 156.433 31.1356 156.463 31.0927 156.483C31.0498 156.502 31.0028 156.511 30.9558 156.508C30.8666 156.504 30.7783 156.488 30.6933 156.46L30.5898 156.941C30.7304 156.976 30.8746 156.995 31.0195 156.997C31.1483 157.008 31.2777 156.985 31.395 156.93C31.5122 156.875 31.6132 156.791 31.6878 156.685C31.8042 156.435 31.8562 156.159 31.8389 155.884V152.378H31.29V155.828Z" fill="#1A1A18"/>
<path d="M31.837 151.13H31.2881V151.778H31.837V151.13Z" fill="#1A1A18"/>
<path d="M35.3308 154.291V153.546C35.3428 153.376 35.3428 153.205 35.3308 153.034C35.3002 152.897 35.2405 152.769 35.1558 152.658C35.0515 152.542 34.9203 152.454 34.7739 152.402C34.5528 152.331 34.3215 152.299 34.0897 152.306C33.8379 152.301 33.5874 152.342 33.3498 152.426C33.159 152.484 32.9899 152.598 32.8645 152.754C32.7435 152.921 32.6594 153.112 32.6178 153.314L33.1588 153.394C33.1931 153.204 33.2914 153.032 33.4373 152.906C33.6088 152.8 33.8096 152.752 34.0101 152.77C34.2352 152.75 34.4596 152.815 34.6386 152.954C34.6983 153.018 34.7435 153.094 34.771 153.176C34.7984 153.259 34.8076 153.347 34.7977 153.434V153.578C34.4754 153.673 34.1452 153.737 33.8112 153.771C33.6446 153.786 33.4796 153.815 33.318 153.859C33.1764 153.894 33.0419 153.954 32.9202 154.035C32.7917 154.123 32.6877 154.243 32.6181 154.383C32.5485 154.523 32.5155 154.679 32.5224 154.835C32.5203 154.963 32.5455 155.09 32.5963 155.207C32.6471 155.325 32.7222 155.43 32.8167 155.516C33.0404 155.699 33.3238 155.794 33.6123 155.78C33.8216 155.78 34.0293 155.742 34.2249 155.668C34.4433 155.58 34.6451 155.456 34.8216 155.299C34.8285 155.439 34.8637 155.575 34.925 155.7H35.5058C35.4349 155.579 35.3864 155.446 35.3626 155.307C35.3306 154.97 35.32 154.63 35.3308 154.291ZM34.7739 154.219C34.7842 154.41 34.7515 154.602 34.6784 154.779C34.6013 154.941 34.4762 155.075 34.3204 155.163C34.1434 155.255 33.9467 155.302 33.7476 155.299C33.5737 155.313 33.4009 155.262 33.2623 155.155C33.2078 155.109 33.164 155.051 33.1337 154.987C33.1035 154.922 33.0877 154.851 33.0872 154.779C33.0892 154.685 33.1168 154.594 33.1668 154.515C33.2223 154.436 33.2998 154.374 33.3896 154.339C33.5435 154.282 33.7038 154.244 33.8669 154.227C34.176 154.192 34.4802 154.122 34.7739 154.019V154.219Z" fill="#1A1A18"/>
<path d="M38.4964 152.378H37.9395V155.66H38.4964V152.378Z" fill="#1A1A18"/>
<path d="M38.4964 151.13H37.9395V151.77H38.4964V151.13Z" fill="#1A1A18"/>
<path d="M41.7824 152.691C41.6877 152.555 41.5586 152.447 41.4085 152.378C41.2362 152.31 41.0527 152.275 40.8675 152.274C40.6628 152.266 40.4596 152.312 40.2781 152.407C40.0966 152.503 39.9432 152.645 39.8333 152.819V152.378H39.332V155.66H39.8889V153.875C39.8682 153.723 39.8802 153.567 39.9241 153.419C39.968 153.272 40.0428 153.135 40.1435 153.019C40.3086 152.867 40.5247 152.784 40.7482 152.787C40.8848 152.787 41.0191 152.823 41.138 152.891C41.2619 152.948 41.3589 153.051 41.4085 153.179C41.4561 153.345 41.4775 153.518 41.4722 153.691V155.684H42.0211V153.667C42.0382 153.489 42.0382 153.309 42.0211 153.131C41.9751 152.968 41.8936 152.818 41.7824 152.691Z" fill="#1A1A18"/>
<path d="M44.1936 154.387C44.1061 154.627 44.0425 154.835 43.9868 155.011C43.9231 154.779 43.8595 154.555 43.7799 154.347L43.0798 152.378H42.499L43.7401 155.66H44.2573L45.4904 152.378H44.9176L44.1936 154.387Z" fill="#1A1A18"/>
<path d="M47.3117 152.305C47.107 152.299 46.9033 152.336 46.7141 152.415C46.5248 152.494 46.3543 152.612 46.2138 152.762C45.9153 153.122 45.7645 153.582 45.7921 154.05C45.7766 154.275 45.806 154.501 45.8784 154.714C45.9508 154.927 46.0648 155.123 46.2138 155.291C46.3598 155.442 46.5361 155.56 46.7308 155.637C46.9256 155.715 47.1344 155.749 47.3435 155.739C47.6785 155.752 48.0084 155.654 48.2823 155.459C48.5328 155.256 48.709 154.974 48.7835 154.659L48.2107 154.587C48.1503 154.788 48.0311 154.967 47.8686 155.099C47.7212 155.214 47.5381 155.274 47.3514 155.267C47.2236 155.271 47.0964 155.247 46.9784 155.197C46.8604 155.148 46.7544 155.073 46.6672 154.979C46.4759 154.756 46.3688 154.473 46.3649 154.178H48.7994V154.034C48.8305 153.575 48.6821 153.121 48.3857 152.77C48.2498 152.62 48.0837 152.501 47.8985 152.421C47.7133 152.341 47.5132 152.301 47.3117 152.305ZM46.3967 153.706C46.4012 153.448 46.5037 153.202 46.6832 153.018C46.7722 152.931 46.878 152.864 46.9939 152.82C47.1099 152.776 47.2335 152.756 47.3573 152.762C47.481 152.768 47.6022 152.8 47.7134 152.855C47.8246 152.91 47.9235 152.987 48.0038 153.082C48.1366 153.263 48.2115 153.481 48.2186 153.706H46.3967Z" fill="#1A1A18"/>
<path d="M51.4642 153.931C51.2046 153.829 50.9389 153.743 50.6686 153.675C50.3981 153.603 50.239 153.555 50.1833 153.531C50.1016 153.5 50.0281 153.451 49.9685 153.387C49.9284 153.327 49.9063 153.258 49.9049 153.186C49.9073 153.128 49.9229 153.071 49.9505 153.02C49.978 152.969 50.0169 152.924 50.064 152.89C50.2302 152.793 50.4214 152.749 50.613 152.762C50.7891 152.75 50.9639 152.801 51.1062 152.906C51.1659 152.954 51.2156 153.014 51.2524 153.081C51.2893 153.148 51.3126 153.222 51.321 153.298L51.862 153.226C51.8405 153.045 51.7749 152.872 51.6711 152.722C51.5633 152.578 51.413 152.471 51.2415 152.418C51.0272 152.34 50.8008 152.302 50.5732 152.306C50.4119 152.305 50.2513 152.327 50.0958 152.37C49.9684 152.407 49.8476 152.463 49.7378 152.538C49.6256 152.62 49.5332 152.727 49.4673 152.85C49.4033 152.974 49.3705 153.111 49.3718 153.25C49.3683 153.406 49.4098 153.559 49.4912 153.691C49.5762 153.829 49.7011 153.938 49.8492 154.003C50.1208 154.121 50.4033 154.212 50.6925 154.275C50.8873 154.314 51.077 154.376 51.2574 154.459C51.3064 154.491 51.3466 154.535 51.3744 154.587C51.4022 154.639 51.4167 154.697 51.4165 154.755C51.4156 154.827 51.3987 154.897 51.367 154.961C51.3353 155.024 51.2897 155.08 51.2335 155.124C51.07 155.243 50.8698 155.299 50.6686 155.284C50.4582 155.294 50.2504 155.232 50.0799 155.108C49.9352 154.974 49.8445 154.792 49.8253 154.595L49.2764 154.683C49.3144 154.995 49.4678 155.281 49.706 155.484C49.9852 155.685 50.326 155.782 50.6686 155.756C50.9062 155.759 51.1418 155.712 51.3608 155.62C51.5499 155.542 51.7109 155.408 51.8222 155.236C51.9304 155.084 51.9888 154.902 51.9893 154.715C51.9946 154.547 51.9473 154.382 51.8541 154.243C51.7607 154.1 51.624 153.99 51.4642 153.931Z" fill="#1A1A18"/>
<path d="M53.5808 155.188C53.5208 155.203 53.4578 155.203 53.3978 155.188C53.3754 155.176 53.3554 155.161 53.339 155.141C53.3226 155.122 53.3101 155.1 53.3024 155.076C53.283 154.975 53.283 154.872 53.3024 154.772V152.85H53.8593V152.378H53.3024V151.233L52.7534 151.57V152.37H52.3477V152.802H52.7534V154.691C52.7384 154.913 52.7627 155.135 52.825 155.348C52.8701 155.458 52.9516 155.548 53.0557 155.604C53.2013 155.676 53.363 155.709 53.5251 155.7C53.6643 155.698 53.8029 155.682 53.9388 155.652L53.8593 155.156L53.5808 155.188Z" fill="#1A1A18"/>
<path d="M55.7294 152.305C55.5247 152.299 55.321 152.336 55.1318 152.415C54.9425 152.494 54.772 152.612 54.6315 152.762C54.333 153.122 54.1822 153.582 54.2098 154.05C54.18 154.503 54.3286 154.949 54.6235 155.291C54.7717 155.441 54.9494 155.559 55.1453 155.636C55.3413 155.713 55.551 155.748 55.7612 155.739C56.0939 155.753 56.4217 155.655 56.692 155.459C56.9479 155.26 57.1254 154.977 57.1933 154.659L56.6284 154.587C56.568 154.788 56.4488 154.967 56.2863 155.099C56.1368 155.216 55.9506 155.276 55.7612 155.267C55.6347 155.27 55.509 155.245 55.3925 155.196C55.276 155.146 55.1712 155.072 55.085 154.979C54.8936 154.756 54.7865 154.473 54.7826 154.178H57.1694C57.1726 154.131 57.1726 154.082 57.1694 154.034C57.1963 153.575 57.0484 153.123 56.7557 152.77C56.6252 152.626 56.4669 152.51 56.2903 152.431C56.1138 152.351 55.9229 152.308 55.7294 152.305ZM54.8065 153.706C54.817 153.448 54.9218 153.203 55.1009 153.018C55.1899 152.931 55.2957 152.864 55.4116 152.82C55.5276 152.776 55.6512 152.756 55.775 152.762C55.8987 152.768 56.0199 152.8 56.1311 152.855C56.2423 152.91 56.3412 152.987 56.4215 153.082C56.5481 153.266 56.6199 153.483 56.6284 153.706H54.8065Z" fill="#1A1A18"/>
<path d="M59.2063 152.305C59.0015 152.297 58.7973 152.333 58.6079 152.412C58.4184 152.491 58.248 152.61 58.1084 152.761C57.8063 153.119 57.655 153.581 57.6868 154.05C57.6569 154.502 57.8056 154.948 58.1005 155.291C58.3773 155.547 58.7312 155.702 59.106 155.733C59.4808 155.763 59.8549 155.667 60.169 155.459C60.4248 155.26 60.6024 154.976 60.6702 154.658L60.0974 154.586C60.043 154.79 59.9227 154.971 59.7553 155.098C59.6079 155.214 59.4248 155.273 59.2382 155.267C59.1116 155.269 58.986 155.245 58.8695 155.195C58.7529 155.145 58.6481 155.072 58.5619 154.978C58.3705 154.755 58.261 154.473 58.2516 154.178H60.6861C60.6861 154.114 60.6861 154.066 60.6861 154.034C60.7142 153.573 60.5629 153.12 60.2645 152.769C60.1317 152.62 59.9684 152.501 59.7858 152.421C59.6032 152.341 59.4055 152.301 59.2063 152.305ZM58.2835 153.706C58.2947 153.449 58.3962 153.205 58.5699 153.017C58.6551 152.934 58.756 152.868 58.8666 152.824C58.9772 152.78 59.0954 152.759 59.2143 152.761C59.345 152.759 59.4744 152.787 59.5928 152.842C59.7113 152.898 59.8158 152.979 59.8985 153.081C60.0251 153.265 60.0968 153.482 60.1054 153.706H58.2835Z" fill="#1A1A18"/>
<path d="M62.2056 152.418C62.0601 152.546 61.9411 152.701 61.8556 152.875V152.378H61.3623V155.66H61.9113V153.979C61.9082 153.759 61.9404 153.54 62.0067 153.331C62.0392 153.213 62.1087 153.109 62.2047 153.034C62.3007 152.959 62.4182 152.917 62.5398 152.915C62.681 152.916 62.8189 152.958 62.9376 153.035L63.1285 152.514C62.9589 152.407 62.7641 152.346 62.5636 152.338C62.4391 152.33 62.3149 152.358 62.2056 152.418Z" fill="#1A1A18"/>
<path d="M64.0188 151.13H63.4619V151.77H64.0188V151.13Z" fill="#1A1A18"/>
<path d="M64.0188 152.378H63.4619V155.66H64.0188V152.378Z" fill="#1A1A18"/>
<path d="M68.2666 152.306C68.064 152.305 67.865 152.359 67.6891 152.46C67.5133 152.561 67.3668 152.706 67.2641 152.882C67.2071 152.707 67.0919 152.557 66.9379 152.458C66.7581 152.35 66.5506 152.297 66.3413 152.306C66.1373 152.301 65.9361 152.353 65.7605 152.458C65.5949 152.549 65.4552 152.681 65.3547 152.842V152.378H64.8535V155.66H65.4104V153.979C65.4023 153.746 65.4318 153.513 65.4979 153.29C65.5521 153.142 65.6526 153.016 65.7843 152.93C65.9124 152.847 66.0615 152.802 66.214 152.802C66.2974 152.795 66.3814 152.808 66.4589 152.84C66.5365 152.872 66.6052 152.922 66.6595 152.986C66.7596 153.155 66.8067 153.35 66.7947 153.546V155.676H67.3437V153.771C67.3213 153.504 67.4042 153.239 67.5744 153.034C67.6497 152.959 67.7392 152.9 67.8375 152.86C67.9359 152.82 68.0412 152.8 68.1472 152.802C68.2645 152.801 68.3799 152.831 68.4814 152.89C68.5683 152.948 68.6351 153.032 68.6723 153.13C68.7187 153.286 68.7376 153.448 68.728 153.61V155.676H69.2531V153.426C69.27 153.136 69.1761 152.849 68.9906 152.626C68.8987 152.525 68.7868 152.444 68.6621 152.389C68.5375 152.334 68.4028 152.305 68.2666 152.306Z" fill="#1A1A18"/>
<path d="M70.6536 151.13H70.0967V151.77H70.6536V151.13Z" fill="#1A1A18"/>
<path d="M70.6536 152.378H70.0967V155.66H70.6536V152.378Z" fill="#1A1A18"/>
<path d="M73.4867 153.931C73.2267 153.83 72.961 153.744 72.6911 153.675C72.4206 153.603 72.2615 153.554 72.2058 153.53C72.1241 153.5 72.0506 153.45 71.991 153.386C71.9509 153.327 71.9288 153.258 71.9273 153.186C71.9298 153.128 71.9454 153.071 71.9729 153.02C72.0005 152.968 72.0393 152.924 72.0865 152.89C72.2527 152.793 72.4438 152.749 72.6354 152.762C72.8111 152.754 72.9846 152.805 73.1287 152.906C73.1884 152.954 73.238 153.013 73.2749 153.081C73.3118 153.148 73.3351 153.222 73.3435 153.298L73.8845 153.226C73.8629 153.045 73.7974 152.872 73.6935 152.722C73.5858 152.578 73.4354 152.471 73.2639 152.418C72.8927 152.287 72.4911 152.27 72.1103 152.37C71.986 152.408 71.868 152.465 71.7603 152.538C71.6461 152.618 71.5532 152.725 71.4898 152.85C71.4258 152.974 71.393 153.111 71.3943 153.25C71.3908 153.406 71.4322 153.559 71.5136 153.691C71.5987 153.829 71.7236 153.938 71.8717 154.003C72.1433 154.121 72.4257 154.212 72.715 154.275C72.9098 154.314 73.0994 154.376 73.2798 154.459C73.3288 154.491 73.3691 154.535 73.3968 154.587C73.4246 154.638 73.4391 154.696 73.439 154.755C73.4381 154.827 73.4211 154.897 73.3894 154.96C73.3577 155.024 73.3121 155.08 73.256 155.123C73.0919 155.241 72.8922 155.298 72.6911 155.284C72.4806 155.294 72.2729 155.232 72.1024 155.107C71.9576 154.974 71.8669 154.792 71.8478 154.595L71.2988 154.683C71.3341 154.994 71.4847 155.28 71.7205 155.484C72.0033 155.684 72.3461 155.78 72.6911 155.756C72.9286 155.758 73.164 155.712 73.3833 155.62C73.5724 155.542 73.7334 155.408 73.8447 155.236C73.9529 155.084 74.0113 154.902 74.0118 154.715C74.017 154.547 73.9697 154.382 73.8765 154.243C73.7832 154.1 73.6465 153.99 73.4867 153.931Z" fill="#1A1A18"/>
<path d="M75.427 151.674C75.5271 151.591 75.6557 151.551 75.785 151.562C75.8937 151.555 76.0026 151.555 76.1112 151.562L76.1908 151.082C76.0208 151.045 75.8475 151.026 75.6737 151.026C75.476 151.012 75.2789 151.06 75.1088 151.162C74.9642 151.259 74.8618 151.408 74.8224 151.578C74.7781 151.74 74.7593 151.907 74.7667 152.074V152.379H74.2734V152.811H74.7667V155.661H75.3157V152.811H75.9521V152.379H75.3157V152.082C75.3008 151.937 75.3405 151.791 75.427 151.674Z" fill="#1A1A18"/>
<path d="M77.7103 152.305C77.3342 152.293 76.9675 152.424 76.684 152.673C76.5064 152.846 76.3693 153.056 76.2826 153.289C76.1959 153.521 76.1618 153.77 76.1827 154.018C76.15 154.482 76.3017 154.94 76.6044 155.291C76.7472 155.439 76.9194 155.556 77.1099 155.633C77.3005 155.71 77.505 155.747 77.7103 155.739C77.988 155.741 78.2615 155.672 78.5059 155.539C78.7411 155.409 78.9323 155.211 79.0548 154.971C79.1961 154.66 79.2616 154.319 79.2457 153.978C79.2598 153.755 79.229 153.532 79.1552 153.321C79.0814 153.111 78.966 152.918 78.8161 152.753C78.674 152.604 78.5019 152.487 78.3112 152.409C78.1205 152.332 77.9157 152.296 77.7103 152.305ZM78.3945 154.963C78.3114 155.064 78.2068 155.145 78.0884 155.201C77.97 155.256 77.8408 155.284 77.7103 155.283C77.5795 155.285 77.4499 155.258 77.3314 155.202C77.2128 155.147 77.1084 155.065 77.0261 154.963C76.8446 154.683 76.748 154.356 76.748 154.022C76.748 153.688 76.8446 153.361 77.0261 153.081C77.1112 152.983 77.2163 152.904 77.3344 152.85C77.4524 152.796 77.5806 152.768 77.7103 152.768C77.84 152.768 77.9681 152.796 78.0862 152.85C78.2042 152.904 78.3093 152.983 78.3945 153.081C78.597 153.343 78.6961 153.671 78.6729 154.002C78.6993 154.346 78.6003 154.687 78.3945 154.963Z" fill="#1A1A18"/>
<path d="M82.3338 152.69C82.2468 152.556 82.1259 152.448 81.9837 152.378C81.8112 152.31 81.6278 152.275 81.4427 152.274C81.2368 152.265 81.0322 152.31 80.8493 152.406C80.6665 152.501 80.5117 152.643 80.4005 152.818V152.378H79.9072V155.66H80.4562V153.875C80.4374 153.722 80.4504 153.567 80.4942 153.419C80.538 153.272 80.6118 153.135 80.7108 153.018C80.8787 152.866 81.0974 152.783 81.3234 152.786C81.4577 152.785 81.5897 152.821 81.7053 152.89C81.8116 152.947 81.8937 153.041 81.936 153.154C81.9875 153.32 82.0091 153.493 81.9996 153.666V155.66H82.5565V153.642C82.5695 153.464 82.5695 153.285 82.5565 153.106C82.5155 152.952 82.4393 152.809 82.3338 152.69Z" fill="#1A1A18"/>
<path d="M85.4682 152.755C85.3686 152.622 85.2409 152.512 85.0943 152.435C84.9331 152.347 84.7522 152.303 84.5692 152.307C84.3092 152.303 84.0542 152.378 83.8372 152.523C83.6147 152.668 83.4445 152.881 83.3519 153.131C83.2378 153.416 83.1811 153.721 83.1848 154.028C83.1799 154.334 83.2424 154.637 83.3678 154.916C83.474 155.165 83.6512 155.377 83.877 155.524C84.0886 155.667 84.3382 155.743 84.593 155.741C84.7737 155.748 84.9529 155.706 85.1123 155.62C85.2717 155.534 85.4055 155.407 85.5 155.252V155.661H86.0171V151.13H85.4682V152.755ZM85.2613 154.98C85.1868 155.074 85.0923 155.149 84.9849 155.201C84.8775 155.253 84.7599 155.28 84.6408 155.28C84.5216 155.28 84.404 155.253 84.2966 155.201C84.1892 155.149 84.0948 155.074 84.0202 154.98C83.8262 154.706 83.7334 154.372 83.7577 154.036C83.729 153.697 83.816 153.358 84.0043 153.075C84.0759 152.98 84.1687 152.904 84.2752 152.853C84.3817 152.801 84.4988 152.776 84.6169 152.779C84.7397 152.778 84.8611 152.806 84.9715 152.86C85.082 152.914 85.1784 152.993 85.2534 153.091C85.4498 153.382 85.5398 153.733 85.508 154.084C85.533 154.402 85.4457 154.72 85.2613 154.98Z" fill="#1A1A18"/>
<path d="M87.4417 151.13H86.8848V151.77H87.4417V151.13Z" fill="#1A1A18"/>
<path d="M87.4417 152.378H86.8848V155.66H87.4417V152.378Z" fill="#1A1A18"/>
<path d="M90.361 151.129V152.73C90.2613 152.597 90.1336 152.488 89.987 152.41C89.8265 152.321 89.6452 152.277 89.4619 152.282C89.2021 152.28 88.9474 152.355 88.73 152.498C88.5097 152.646 88.3401 152.858 88.2447 153.107C88.1334 153.392 88.0793 153.697 88.0856 154.003C88.0781 154.309 88.1379 154.612 88.2606 154.892C88.3695 155.139 88.5461 155.35 88.7698 155.5C88.9814 155.643 89.2309 155.718 89.4858 155.716C89.6677 155.724 89.8482 155.682 90.009 155.597C90.1698 155.511 90.305 155.384 90.4007 155.228V155.636H90.9099V151.105L90.361 151.129ZM90.1541 154.98C90.0809 155.073 89.9879 155.149 89.8819 155.201C89.7759 155.254 89.6597 155.282 89.5415 155.284C89.42 155.284 89.3002 155.255 89.1912 155.201C89.0823 155.147 88.9871 155.069 88.913 154.972C88.719 154.697 88.6262 154.363 88.6504 154.027C88.6217 153.688 88.7087 153.349 88.8971 153.067C88.972 152.974 89.0666 152.899 89.174 152.848C89.2813 152.796 89.3988 152.77 89.5176 152.77C89.6405 152.77 89.7619 152.797 89.8723 152.851C89.9827 152.906 90.0792 152.985 90.1541 153.083C90.3448 153.376 90.4342 153.725 90.4087 154.075C90.434 154.398 90.3437 154.719 90.1541 154.98Z" fill="#1A1A18"/>
<path d="M92 92.4639H30V134.193H92V92.4639Z" fill="#134094"/>
<path fill-rule="evenodd" clip-rule="evenodd" d="M59.4926 101.348L60.9247 100.291L62.3647 101.348L61.7998 99.6271L63.2398 98.5384H61.4577L60.9247 96.8574L60.3916 98.5384H58.6016L60.0575 99.6271L59.4926 101.348Z" fill="#FFED00"/>
<path fill-rule="evenodd" clip-rule="evenodd" d="M61.5368 126.346L61.0038 124.665L60.4628 126.346H58.6807L60.1366 127.435L59.5717 129.156L61.0038 128.091L62.4358 129.156L61.8869 127.435L63.3189 126.346H61.5368Z" fill="#FFED00"/>
<path fill-rule="evenodd" clip-rule="evenodd" d="M68.3707 124.506L67.8456 122.817L67.3046 124.506H65.5225L66.9784 125.587L66.4056 127.308L67.8456 126.251L69.2776 127.308L68.7207 125.587L70.1607 124.506H68.3707Z" fill="#FFED00"/>
<path fill-rule="evenodd" clip-rule="evenodd" d="M67.8456 98.6895L67.3046 100.37H65.5225L66.9784 101.459L66.4056 103.18L67.8456 102.124L69.2776 103.18L68.7207 101.459L70.1607 100.37H68.3707L67.8456 98.6895Z" fill="#FFED00"/>
<path fill-rule="evenodd" clip-rule="evenodd" d="M71.4897 108.296L72.9297 107.231L74.3618 108.296L73.8048 106.567L75.2369 105.478H73.4548L72.9297 103.797L72.3887 105.478H70.5986L72.0546 106.567L71.4897 108.296Z" fill="#FFED00"/>
<path fill-rule="evenodd" clip-rule="evenodd" d="M73.4548 119.462L72.9297 117.781L72.3887 119.462H70.5986L72.0546 120.551L71.4897 122.272L72.9297 121.215L74.3618 122.272L73.8048 120.551L75.2369 119.462H73.4548Z" fill="#FFED00"/>
<path fill-rule="evenodd" clip-rule="evenodd" d="M77.1461 112.371H75.356L74.8309 110.682L74.2899 112.371H72.5078L73.9637 113.451L73.3909 115.18L74.8309 114.116L76.263 115.18L75.7061 113.451L77.1461 112.371Z" fill="#FFED00"/>
<path fill-rule="evenodd" clip-rule="evenodd" d="M52.5149 103.197L53.9549 102.14L55.387 103.197L54.8221 101.476L56.2701 100.395H54.48L53.9549 98.7061L53.4139 100.395H51.6318L53.0798 101.476L52.5149 103.197Z" fill="#FFED00"/>
<path fill-rule="evenodd" clip-rule="evenodd" d="M49.0135 103.82L48.4725 105.501H46.6904L48.1464 106.582L47.5815 108.303L49.0135 107.246L50.4456 108.303L49.8887 106.582L51.3287 105.501H49.5386L49.0135 103.82Z" fill="#FFED00"/>
<path fill-rule="evenodd" clip-rule="evenodd" d="M47.1844 114.131L48.6165 115.196L48.0596 113.467L49.4916 112.386H47.7095L47.1844 110.705L46.6434 112.386H44.8613L46.3093 113.467L45.7444 115.196L47.1844 114.131Z" fill="#FFED00"/>
<path fill-rule="evenodd" clip-rule="evenodd" d="M49.5386 119.478L49.0135 117.797L48.4725 119.478H46.6904L48.1464 120.567L47.5815 122.288L49.0135 121.231L50.4456 122.288L49.8887 120.567L51.3287 119.478H49.5386Z" fill="#FFED00"/>
<path fill-rule="evenodd" clip-rule="evenodd" d="M54.5523 124.521L54.0193 122.84L53.4862 124.521H51.7041L53.1521 125.609L52.5872 127.331L54.0193 126.266L55.4513 127.331L54.8944 125.609L56.3344 124.521H54.5523Z" fill="#FFED00"/>
<path fill-rule="evenodd" clip-rule="evenodd" d="M61.4968 38.2547C66.1664 38.6755 70.6704 40.2034 74.6399 42.7134L74.9104 42.8895C72.5417 39.5173 69.5167 36.6645 66.019 34.5042C62.5214 32.3439 58.6239 30.9211 54.5632 30.3223C50.5024 29.7234 46.3631 29.9609 42.3964 31.0204C38.4296 32.0799 34.7182 33.9393 31.4873 36.4857C35.7993 37.3437 39.7423 39.5217 42.7767 42.7214C48.3553 39.1934 54.9377 37.6228 61.4968 38.2547Z" fill="#0076BE"/>
<path fill-rule="evenodd" clip-rule="evenodd" d="M80.1373 57.77C80.1373 57.6739 80.0975 57.2576 80.0896 57.1696C79.639 52.0419 77.8525 47.1244 74.9103 42.9131L74.6398 42.713C69.8694 39.6894 64.3463 38.085 58.7082 38.085C53.0701 38.085 47.547 39.6894 42.7766 42.713C46.185 46.2741 48.2722 50.9066 48.6878 55.8328C48.7992 57.1111 48.7992 58.3968 48.6878 59.6751C48.5048 61.6604 48.0497 63.6107 47.3353 65.4705C46.0801 68.7583 44.0454 71.6877 41.4082 74.0036L41.4559 73.9636C51.8643 67.9994 63.9682 65.7431 75.8093 67.5598C74.5629 68.615 73.1857 69.5029 71.7121 70.2014C74.2629 69.3851 76.7606 68.4092 79.1906 67.2796C80.0452 64.1877 80.3654 60.971 80.1373 57.77Z" fill="black"/>
<path fill-rule="evenodd" clip-rule="evenodd" d="M79.5969 57.1212C75.7543 54.5037 72.5878 52.9267 65.9049 52.3184C61.0037 51.8545 56.0646 52.619 51.5287 54.5437C51.644 55.8005 51.644 57.0652 51.5287 58.322C51.2562 61.2564 50.3522 64.096 48.8794 66.6436C47.4066 69.1911 45.4004 71.3857 43 73.0748C55.1725 66.0386 66.2391 65.07 75.619 66.5349C76.2396 66.6309 78.1728 66.9671 79.056 67.2073C79.7741 63.8964 79.9567 60.4907 79.5969 57.1212Z" fill="white"/>
<path d="M58.378 79.7034H55.6094V78.1584H58.0996V77.6301H55.6094V76.2453H58.2666V75.709H55.0127V80.2397H58.378V79.7034Z" fill="#1A1A18"/>
<path d="M60.5025 80.3356C60.8375 80.3484 61.1674 80.25 61.4413 80.0555C61.6932 79.853 61.8698 79.571 61.9425 79.255L61.3697 79.1829C61.3072 79.3833 61.1884 79.5612 61.0276 79.6952C60.8766 79.8027 60.6954 79.8588 60.5105 79.8553C60.3826 79.859 60.2554 79.8353 60.1374 79.7856C60.0195 79.7359 59.9134 79.6614 59.8263 79.5672C59.633 79.3456 59.5257 79.0614 59.5239 78.7667H61.9584V78.6146C61.9878 78.1551 61.8396 77.702 61.5447 77.3498C61.4135 77.2022 61.2529 77.0839 61.0734 77.0025C60.8939 76.9212 60.6994 76.8786 60.5025 76.8776C60.296 76.8716 60.0906 76.9099 59.8999 76.9899C59.7092 77.07 59.5377 77.1899 59.3966 77.3418C59.0979 77.6985 58.947 78.1571 58.975 78.6226C58.9478 79.0783 59.0992 79.5266 59.3966 79.8713C59.5383 80.0224 59.71 80.1419 59.9005 80.2218C60.091 80.3018 60.2961 80.3406 60.5025 80.3356ZM59.8422 77.622C59.9248 77.5373 60.0241 77.4707 60.1336 77.4266C60.2432 77.3825 60.3607 77.3618 60.4786 77.3659C60.6096 77.3621 60.7396 77.3891 60.8583 77.4447C60.9771 77.5002 61.0813 77.5829 61.1628 77.686C61.2969 77.8638 61.372 78.0794 61.3777 78.3024H59.5478C59.5467 78.1717 59.5715 78.0422 59.6206 77.9212C59.6698 77.8003 59.7424 77.6904 59.8342 77.598L59.8422 77.622Z" fill="#1A1A18"/>
<path d="M64.9816 78.7983C64.8896 78.667 64.7628 78.5644 64.6156 78.5021C64.356 78.4001 64.0903 78.3145 63.82 78.246C63.5495 78.1739 63.3904 78.1259 63.3347 78.1019C63.253 78.0712 63.1795 78.0219 63.1199 77.9578C63.0791 77.9021 63.0568 77.8349 63.0562 77.7657C63.0575 77.706 63.0725 77.6475 63.1001 77.5947C63.1277 77.5419 63.1672 77.4963 63.2154 77.4615C63.3826 77.3679 63.5736 77.3261 63.7643 77.3414C63.9391 77.3309 64.1125 77.3788 64.2576 77.4775C64.3786 77.5774 64.4557 77.7212 64.4724 77.8778L65.0134 77.8057C64.9934 77.6215 64.9278 77.4454 64.8224 77.2934C64.7122 77.1516 64.5627 77.0458 64.3928 76.9892C64.1786 76.9117 63.9522 76.8738 63.7245 76.8772C63.5626 76.8752 63.4014 76.8995 63.2472 76.9492C63.1174 76.9873 62.9959 77.0498 62.8892 77.1333C62.777 77.2158 62.6846 77.3224 62.6187 77.4455C62.5546 77.5719 62.5219 77.7119 62.5232 77.8537C62.5223 78.0087 62.5636 78.161 62.6425 78.294C62.7308 78.4295 62.8547 78.5376 63.0006 78.6062C63.2742 78.7169 63.5562 78.8052 63.8439 78.8703C64.0398 78.909 64.2297 78.9736 64.4087 79.0625C64.4583 79.094 64.4989 79.1378 64.5268 79.1896C64.5546 79.2415 64.5688 79.2997 64.5679 79.3586C64.5676 79.4289 64.5508 79.4981 64.5191 79.5607C64.4873 79.6233 64.4413 79.6774 64.3849 79.7189C64.2214 79.8379 64.0212 79.8946 63.82 79.8789C63.6091 79.893 63.4003 79.8305 63.2313 79.7028C63.0882 79.5715 62.9977 79.3922 62.9767 79.1985L62.4277 79.2786C62.4658 79.5903 62.6192 79.8761 62.8574 80.0791C63.1398 80.2731 63.4788 80.3661 63.82 80.3432C64.0496 80.3358 64.2749 80.2785 64.4803 80.1751C64.6674 80.0978 64.8278 79.967 64.9418 79.7989C65.0501 79.6443 65.1085 79.4598 65.1089 79.2706C65.1165 79.1036 65.072 78.9385 64.9816 78.7983Z" fill="#1A1A18"/>
<path d="M65.8729 79.2786C65.8587 79.4999 65.8829 79.722 65.9446 79.935C65.99 80.0424 66.0717 80.1303 66.1753 80.1831C66.3209 80.2554 66.4826 80.2885 66.6447 80.2792C66.7838 80.2773 66.9224 80.2612 67.0584 80.2311L66.9788 79.7428H66.7322C66.6727 79.7624 66.6086 79.7624 66.5492 79.7428C66.5058 79.721 66.4719 79.684 66.4537 79.6388C66.4355 79.5382 66.4355 79.4352 66.4537 79.3346V77.4135H67.0106V76.9812H66.4537V75.8125L65.9048 76.1407V76.9412H65.499V77.3734H65.9048L65.8729 79.2786Z" fill="#1A1A18"/>
<path d="M68.0764 76.957H67.5195V80.239H68.0764V76.957Z" fill="#1A1A18"/>
<path d="M68.0764 75.709H67.5195V76.3491H68.0764V75.709Z" fill="#1A1A18"/>
<path d="M43.0009 86.1956C42.9383 86.2118 42.8726 86.2118 42.8099 86.1956C42.7666 86.1737 42.7326 86.1367 42.7145 86.0915C42.6958 85.9883 42.6958 85.8825 42.7145 85.7793V83.8262H43.2714V83.3939H42.7145V82.2412L42.1655 82.5774V83.3779H41.7598V83.8101H42.1655V85.6993C42.1503 85.918 42.1746 86.1376 42.2371 86.3477C42.2798 86.4589 42.362 86.5502 42.4678 86.6038C42.6134 86.6761 42.7751 86.7092 42.9372 86.6999C43.0764 86.698 43.215 86.6819 43.3509 86.6518L43.2714 86.1555L43.0009 86.1956Z" fill="#1A1A18"/>
<path d="M45.8159 85.1378C45.8282 85.355 45.7985 85.5724 45.7284 85.7782C45.6682 85.9279 45.5586 86.0523 45.4181 86.1304C45.2791 86.2154 45.1193 86.2598 44.9567 86.2585C44.8058 86.265 44.6571 86.2198 44.535 86.1304C44.4218 86.0466 44.3427 85.9243 44.3122 85.7862C44.2941 85.5918 44.2941 85.3962 44.3122 85.2019V83.3928H43.7553V85.426C43.7522 85.5976 43.7655 85.7692 43.7951 85.9383C43.8214 86.0848 43.8783 86.2239 43.9622 86.3465C44.0594 86.4722 44.1886 86.569 44.3361 86.6267C44.5068 86.7013 44.691 86.7395 44.8771 86.7388C45.0829 86.743 45.2863 86.6937 45.4675 86.5955C45.6487 86.4973 45.8016 86.3536 45.9114 86.1784V86.6667H46.4046V83.3848H45.8477L45.8159 85.1378Z" fill="#1A1A18"/>
<path d="M47.7736 82.1445H47.2246V86.6752H47.7736V82.1445Z" fill="#1A1A18"/>
<path d="M49.9772 83.3136C49.7724 83.3056 49.5682 83.3423 49.3787 83.421C49.1892 83.4998 49.0189 83.6188 48.8793 83.7698C48.5758 84.1273 48.4218 84.5893 48.4497 85.0586C48.4356 85.2831 48.4655 85.5083 48.5379 85.7212C48.6102 85.9341 48.7235 86.1305 48.8714 86.2993C49.019 86.4504 49.1966 86.5684 49.3926 86.6457C49.5887 86.7229 49.7987 86.7577 50.009 86.7476C50.3468 86.7628 50.68 86.6642 50.9558 86.4674C51.2116 86.2686 51.3892 85.985 51.457 85.667L50.8842 85.6029C50.8225 85.8037 50.7035 85.9819 50.5421 86.1152C50.3911 86.2227 50.2099 86.2788 50.025 86.2753C49.8972 86.278 49.7704 86.2538 49.6525 86.2041C49.5347 86.1545 49.4285 86.0806 49.3408 85.9872C49.1522 85.7628 49.0456 85.4804 49.0384 85.1867H51.4729V85.0426C51.5023 84.5831 51.3541 84.13 51.0592 83.7778C50.9231 83.6261 50.7559 83.506 50.569 83.4258C50.3822 83.3457 50.1802 83.3074 49.9772 83.3136ZM49.0543 84.7144C49.0588 84.4565 49.1613 84.2102 49.3408 84.026C49.426 83.9425 49.5268 83.8769 49.6375 83.8329C49.7481 83.789 49.8663 83.7675 49.9852 83.7698C50.1167 83.7676 50.2469 83.7961 50.3656 83.8531C50.4843 83.91 50.5883 83.9939 50.6694 84.098C50.7974 84.2784 50.8694 84.4929 50.8762 84.7144H49.0543Z" fill="#1A1A18"/>
<path d="M53.5014 85.3947C53.4139 85.6349 53.3423 85.843 53.2945 86.0191C53.2309 85.787 53.1593 85.5708 53.0877 85.3547L52.3876 83.3936H51.7988L53.0399 86.6755H53.5571L54.7902 83.3936H54.2254L53.5014 85.3947Z" fill="#1A1A18"/>
<path d="M55.8411 83.3936H55.2842V86.6755H55.8411V83.3936Z" fill="#1A1A18"/>
<path d="M55.8411 82.1445H55.2842V82.7847H55.8411V82.1445Z" fill="#1A1A18"/>
<path d="M59.2613 83.3933H58.5453L57.2325 84.7221V82.1445H56.6836V86.6752H57.2325V85.3705L57.6224 84.9942L58.7044 86.6752H59.3806L58.0122 84.61L59.2613 83.3933Z" fill="#1A1A18"/>
<path d="M61.9035 85.1386C61.9117 85.3556 61.8821 85.5723 61.816 85.779C61.7536 85.9274 61.6446 86.0511 61.5057 86.1312C61.3637 86.2161 61.2014 86.2604 61.0363 86.2593C60.8878 86.2658 60.7417 86.2206 60.6226 86.1312C60.5642 86.092 60.5143 86.0413 60.476 85.9821C60.4377 85.923 60.4118 85.8566 60.3998 85.787C60.3817 85.5926 60.3817 85.397 60.3998 85.2026V83.3936H59.8429V85.4268C59.831 85.6 59.831 85.7738 59.8429 85.9471C59.8681 86.0952 59.9281 86.2352 60.0179 86.3553C60.1118 86.481 60.2385 86.578 60.3839 86.6355C60.5548 86.7095 60.7389 86.7476 60.9249 86.7476C61.1308 86.7526 61.3345 86.7036 61.5159 86.6053C61.6972 86.5071 61.85 86.363 61.9592 86.1872V86.6755H62.4524V83.3936H61.9035V85.1386Z" fill="#1A1A18"/>
<path d="M67.2263 83.4577C67.0324 83.3569 66.8161 83.3073 66.5978 83.3136C66.4122 83.3102 66.2282 83.3495 66.06 83.4285C65.8917 83.5076 65.7437 83.6244 65.6272 83.7699V82.1689H65.0703V86.6996H65.6272V84.8746C65.6162 84.6706 65.646 84.4664 65.7147 84.2742C65.7771 84.1258 65.8861 84.0021 66.025 83.922C66.1637 83.8362 66.3237 83.7918 66.4865 83.7939C66.58 83.7877 66.6738 83.8017 66.7616 83.8348C66.8494 83.8679 66.9292 83.9195 66.9956 83.986C67.1284 84.1592 67.1909 84.3766 67.1707 84.5944V86.6756H67.7276V84.5944C67.7379 84.344 67.7001 84.0939 67.6162 83.858C67.534 83.6847 67.3969 83.5439 67.2263 83.4577Z" fill="#1A1A18"/>
<path d="M69.9063 83.3136C69.7015 83.3056 69.4973 83.3423 69.3079 83.421C69.1184 83.4998 68.948 83.6188 68.8084 83.7698C68.5078 84.1285 68.3567 84.5903 68.3868 85.0586C68.356 85.511 68.5048 85.9571 68.8005 86.2993C69.0773 86.5553 69.4312 86.7109 69.806 86.7414C70.1808 86.7718 70.5549 86.6754 70.869 86.4674C71.1248 86.2686 71.3024 85.985 71.3702 85.667L70.7974 85.6029C70.7383 85.803 70.6221 85.9811 70.4633 86.1152C70.3098 86.2238 70.1257 86.28 69.9382 86.2753C69.8116 86.2779 69.686 86.2535 69.5695 86.2039C69.4529 86.1542 69.3481 86.0804 69.2619 85.9872C69.0705 85.7639 68.961 85.4814 68.9516 85.1867H71.3861C71.3861 85.1226 71.3861 85.0746 71.3861 85.0426C71.4133 84.582 71.2622 84.1288 70.9645 83.7778C70.8317 83.6284 70.6684 83.5096 70.4858 83.4294C70.3032 83.3493 70.1055 83.3098 69.9063 83.3136ZM68.9835 84.7144C68.9947 84.458 69.0962 84.214 69.2699 84.026C69.3551 83.9425 69.456 83.8769 69.5666 83.8329C69.6772 83.789 69.7954 83.7675 69.9143 83.7698C70.0458 83.7676 70.176 83.7961 70.2947 83.8531C70.4134 83.91 70.5174 83.9939 70.5985 84.098C70.7265 84.2784 70.7985 84.4929 70.8054 84.7144H68.9835Z" fill="#1A1A18"/>
<path d="M74.7128 85.299V84.5546C74.726 84.3841 74.726 84.2128 74.7128 84.0423C74.6883 83.9051 74.631 83.7759 74.5457 83.6661C74.4396 83.5504 74.3052 83.4648 74.1559 83.4179C73.9391 83.3402 73.7096 83.3049 73.4796 83.3139C73.2278 83.3095 72.9773 83.3501 72.7397 83.4339C72.5476 83.4939 72.3765 83.6078 72.2464 83.7621C72.1265 83.9288 72.045 84.1202 72.0078 84.3225L72.5488 84.4025C72.5777 84.2123 72.6737 84.039 72.8193 83.9142C72.9952 83.812 73.1973 83.7647 73.4 83.7781C73.6246 83.7631 73.8472 83.8283 74.0286 83.9623C74.0865 84.027 74.1306 84.103 74.158 84.1857C74.1854 84.2683 74.1955 84.3558 74.1877 84.4425C74.1905 84.4905 74.1905 84.5386 74.1877 84.5866C73.8675 84.6894 73.5363 84.7539 73.2011 84.7787C73.0377 84.798 72.8756 84.8274 72.7158 84.8668C72.5721 84.9 72.4367 84.9627 72.318 85.0509C72.1991 85.1304 72.1009 85.2374 72.0316 85.3631C71.9576 85.5007 71.9192 85.6549 71.9203 85.8114C71.9168 85.9376 71.9406 86.0631 71.99 86.1792C72.0395 86.2953 72.1134 86.3992 72.2067 86.4838C72.4318 86.665 72.7141 86.7588 73.0023 86.7479C73.2115 86.7479 73.419 86.7099 73.6149 86.6358C73.8307 86.5481 74.0299 86.4236 74.2036 86.2676C74.2178 86.409 74.2555 86.547 74.315 86.6759H74.8957C74.8259 86.5515 74.7775 86.4162 74.7525 86.2756C74.7195 85.9512 74.7062 85.6251 74.7128 85.299ZM74.1479 85.227C74.1602 85.418 74.1303 85.6093 74.0604 85.7873C73.9799 85.9497 73.8522 86.0837 73.6944 86.1716C73.5217 86.2671 73.3266 86.3141 73.1295 86.3076C72.9534 86.3197 72.7786 86.2687 72.6363 86.1636C72.5831 86.1185 72.5404 86.0621 72.5116 85.9984C72.4827 85.9347 72.4682 85.8653 72.4692 85.7953C72.4651 85.7008 72.4932 85.6076 72.5488 85.5312C72.5987 85.448 72.674 85.3834 72.7636 85.3471C72.9204 85.2905 73.0833 85.2529 73.2489 85.235C73.5554 85.1999 73.857 85.1301 74.1479 85.0269V85.227Z" fill="#1A1A18"/>
<path d="M78.149 83.3933H77.433L76.1202 84.7221V82.1445H75.5713V86.6752H76.1202V85.3705L76.5101 84.9942L77.5921 86.6752H78.2763L76.8999 84.61L78.149 83.3933Z" fill="#1A1A18"/>
<path d="M81.0692 85.2349C80.9772 85.1036 80.8504 85.001 80.7032 84.9387C80.4432 84.8378 80.1776 84.7523 79.9076 84.6826C79.6371 84.6105 79.478 84.5625 79.4223 84.5385C79.3406 84.5078 79.2671 84.4585 79.2075 84.3944C79.1674 84.3353 79.1453 84.2658 79.1439 84.1943C79.1444 84.1356 79.1592 84.078 79.1869 84.0263C79.2147 83.9747 79.2545 83.9307 79.303 83.8981C79.4665 83.8019 79.655 83.7573 79.844 83.77C80.0224 83.7601 80.199 83.8108 80.3452 83.9141C80.4662 84.014 80.5434 84.1578 80.56 84.3144L81.101 84.2343C81.0795 84.053 81.0139 83.8798 80.9101 83.73C80.8005 83.5875 80.6508 83.4815 80.4805 83.4258C80.2636 83.3477 80.0345 83.3098 79.8042 83.3138C79.6424 83.3132 79.4814 83.3375 79.3269 83.3858C79.2018 83.4182 79.0833 83.4724 78.9768 83.5459C78.864 83.6275 78.7715 83.7343 78.7067 83.8579C78.6418 83.9815 78.6063 84.1186 78.6029 84.2583C78.6017 84.4144 78.646 84.5675 78.7302 84.6986C78.8152 84.8368 78.9401 84.9457 79.0882 85.0108C79.3446 85.1256 79.6109 85.2167 79.8838 85.2829C80.0794 85.3188 80.2693 85.3807 80.4486 85.467C80.5008 85.4983 80.5438 85.5429 80.5731 85.5964C80.6025 85.6498 80.6172 85.7102 80.6157 85.7712C80.6136 85.8412 80.5961 85.9097 80.5645 85.972C80.5329 86.0343 80.4878 86.0888 80.4327 86.1314C80.2687 86.2492 80.0689 86.3058 79.8679 86.2915C79.6573 86.3028 79.4493 86.2406 79.2791 86.1154C79.2048 86.0515 79.144 85.9732 79.1003 85.8852C79.0566 85.7972 79.0308 85.7013 79.0245 85.6031L78.4756 85.6912C78.5123 86.0015 78.6627 86.2869 78.8973 86.4917C79.1839 86.683 79.5244 86.7756 79.8679 86.7558C80.1053 86.7579 80.3408 86.7117 80.56 86.6197C80.7471 86.5424 80.9075 86.4116 81.0215 86.2435C81.1265 86.0877 81.182 85.9035 81.1806 85.7152C81.1946 85.5473 81.1556 85.3792 81.0692 85.2349Z" fill="#1A1A18"/>
<defs>
<filter id="filter0_d" x="0" y="0" width="122" height="187" filterUnits="userSpaceOnUse" color-interpolation-filters="sRGB">
<feFlood flood-opacity="0" result="BackgroundImageFix"/>
<feColorMatrix in="SourceAlpha" type="matrix" values="0 0 0 0 0 0 0 0 0 0 0 0 0 0 0 0 0 0 127 0"/>
<feOffset/>
<feGaussianBlur stdDeviation="10"/>
<feColorMatrix type="matrix" values="0 0 0 0 0.554167 0 0 0 0 0.554167 0 0 0 0 0.554167 0 0 0 0.25 0"/>
<feBlend mode="normal" in2="BackgroundImageFix" result="effect1_dropShadow"/>
<feBlend mode="normal" in="SourceGraphic" in2="effect1_dropShadow" result="shape"/>
</filter>
</defs>
</svg>
