<?xml version="1.0" encoding="utf-8"?>
<!-- Generator: Adobe Illustrator 22.0.1, SVG Export Plug-In . SVG Version: 6.00 Build 0)  -->
<svg version="1.1" id="Layer_1" xmlns="http://www.w3.org/2000/svg" xmlns:xlink="http://www.w3.org/1999/xlink" x="0px" y="0px"
	 viewBox="0 0 461 292" style="enable-background:new 0 0 461 292;" xml:space="preserve">
<style type="text/css">
	.st0{fill:#D9EDEF;}
	.st1{fill:#AFDADD;}
	.st2{fill:#FFFFFF;stroke:#2E3374;stroke-width:1.7;stroke-miterlimit:10;}
	.st3{fill:#F8B243;stroke:#2E3374;stroke-width:1.7;stroke-miterlimit:10;}
	.st4{fill:#2E3374;stroke:#2E3374;stroke-width:1.7;stroke-miterlimit:10;}
	.st5{fill:#D5401A;stroke:#2E3374;stroke-width:1.7;stroke-miterlimit:10;}
</style>
<path class="st0" d="M6.1,187.3c11.4-44.1,126.9-19,202.6-32.6c75.7-13.6,165.3-77.2,224.5-46c59.2,31.2-3.8,106.3-139.7,123.3
	S-5.3,231.4,6.1,187.3z"/>
<path class="st1" d="M104.2,7c-0.7,0.7-0.4,3.2-0.4,4.2c0,1.5,0.1,2.9,0.2,4.3c0.1,1,0.5,10.2,1.8,9.5c0.7-0.4,0.3-3.1,0.3-3.9
	c0-1.9-0.1-3.8-0.2-5.6c-0.1-1.7-0.2-3.5-0.1-5.2C105.7,9.8,106.1,5.1,104.2,7z"/>
<path class="st1" d="M135.1,5.8c-6.1,0-12.2,0.3-18.3,0.5c-2.9,0.1-5.9,0.2-8.8,0.4c-1,0.1-3.1-0.3-4,0.3c-1.8,1.2,1.1,1.5,1.9,1.4
	c12.1-0.4,24.1-1,36.2-1c5.9,0,11.8,0.2,17.8,0.1c2.3,0,4.8-1,5.3,1.6c0.6,3-0.1,6.3-0.3,9.3c-0.1,2-0.1,3.9,0,5.9
	c0.1,1.3-0.1,2.7,0.1,4c0.2,1.3,1.1,1.9,1.9,0.6c0.5-0.8,0.2-2.8,0.3-3.7v-3.8c0-3.1,0.4-6.1,0.4-9.2c0-2-0.1-5.6-2.6-6.1
	c-2.8-0.5-6.1,0-9,0C149,6,142,5.8,135.1,5.8z"/>
<path class="st1" d="M118.3,25.1c-2.3,0-4.6,0-6.9,0.1c-2,0-5.1-0.4-6.9,0.3c-1.3,0.5-1.6,1.9,0,2.3c1.6,0.4,4.3-0.3,6.2-0.3
	c9.1-0.2,18.3-0.4,27.4,0.2c8.5,0.5,17.2,1.1,25.7,0.5c0.7,0,4.4-0.2,2.7-1.6c-1-0.8-4.9-0.3-6.2-0.3L146.9,26
	c-4.4-0.2-8.8-0.7-13.2-0.8C128.5,25,123.4,25.1,118.3,25.1z"/>
<path class="st1" d="M116,12c3.6,0.2,7.1,5.4,3.5,7.9c-3.4,2.4-9.8-0.2-7.9-4.8c-0.3,0.7,0.3-0.7,0.4-0.7c0.4-0.4,0.9-0.8,1.4-1.2
	c0.5-0.4,1-0.8,1.6-1C115.4,12,115.4,12.5,116,12z M114.2,10.1c-1.4,0.6-2.7,1.5-3.6,2.7c-0.8,0.9-1.8,1.4-1.8,2.7
	c0,0.3,0.4,0.6,0.4,0.8c0.1,0.4,0,0.8,0.1,1.2c0.7,4,5.5,5.4,9,4.6c1.5-0.3,2.9-1.2,3.8-2.4c0.9-1.3,1.2-2.8,0.9-4.4
	C122.3,12.2,117.5,8.8,114.2,10.1z"/>
<path class="st1" d="M112.7,15.8c0,0.3,0.1,0.6,0.3,0.8c0.2,0.2,0.5,0.3,0.8,0.3s0.6-0.1,0.8-0.3c0.2-0.2,0.3-0.5,0.3-0.8
	c0-0.3-0.1-0.6-0.3-0.8c-0.2-0.2-0.5-0.3-0.8-0.3s-0.6,0.1-0.8,0.3C112.8,15.2,112.7,15.5,112.7,15.8z"/>
<path class="st1" d="M115.6,15.5c0,0.1,0,0.2,0.1,0.3c0,0.1,0.1,0.2,0.2,0.3c0.1,0.1,0.2,0.1,0.3,0.2s0.2,0.1,0.3,0.1
	c0.1,0,0.2,0,0.3-0.1c0.1,0,0.2-0.1,0.3-0.2c0.1-0.1,0.2-0.2,0.2-0.3c0-0.1,0.1-0.2,0.1-0.3c0-0.1,0-0.2-0.1-0.3
	c0-0.1-0.1-0.2-0.2-0.3c-0.1-0.1-0.2-0.1-0.3-0.2c-0.1,0-0.2-0.1-0.3-0.1c-0.1,0-0.2,0-0.3,0.1c-0.1,0-0.2,0.1-0.3,0.2
	s-0.2,0.2-0.2,0.3C115.6,15.2,115.6,15.4,115.6,15.5z"/>
<path class="st1" d="M116.2,17.8c-0.6,0.2-1.3-0.2-1.8,0.1c-0.8,0.5,0,1,0.5,1.3C116.9,20.1,117.2,17.4,116.2,17.8z"/>
<path class="st1" d="M138.5,13.3c-1.5,0.3-2.8,1.8-4.5,1.6c-1.3-0.1-2.1-1.4-3.4-1.6c-1.6-0.2-6,3.4-3.7,4.1
	c1.3,0.4,2.1-2.1,3.3-2.2c0.9-0.1,2.2,1,3.2,1.2c1.8,0.3,3.1-0.7,4.7-1.3c1.6-0.6,2.7-0.1,4.2,0.7c1.1,0.7,2.4,0.9,3.7,0.8
	c1.3-0.2,2.9-1.6,4.2-1.4s2.2,1.4,3.5,1.6c0.5,0.1,1.3,0.2,1.2-0.6c-0.1-0.8-0.8-0.5-1.3-0.8c-1.2-0.6-2.3-1.7-3.7-1.6
	c-1.1,0.2-2.1,0.6-3,1.2C143.6,16.1,141.7,12.6,138.5,13.3z"/>
<path class="st1" d="M141.2,34.2c-6.3,0.1-12.6,0.2-18.8,0.7c-1.5,0.1-16.6,1.5-16.6,1.6c0.6,0.2,1.3,0.4,2,0.5
	c-0.1-0.3-0.4-0.5-0.9-0.4c14.3,0,28.6-1.3,43-1.1c3.6,0.1,7.2,0,10.8,0.1c0.9,0,3.1,0.7,3.8,0.3c1.9-1.1-1.5-1.2-2.1-1.2
	C155.5,34.2,148.3,34.2,141.2,34.2z"/>
<path class="st1" d="M104,37.3c-0.9,0.9-0.1,4.3,0,5.6c0.1,1.8,0,3.7,0.2,5.5c0.2,2.1,0.5,4.2,1,6.3c0.3,1.1,1.4,2.9,1.8,0.9
	c0.3-1.5-0.2-3.4-0.3-4.9c-0.2-2-0.3-3.9-0.3-5.9c0-1.7,0-3.5-0.2-5.2C106.1,38.7,105.6,35.6,104,37.3z"/>
<path class="st1" d="M127.6,54.5c-4.4,0.1-8.9,0.2-13.3,0.5c-1.8,0.1-3.6,0.3-5.5,0.5c-0.4,0-4.5,0.2-2.6,1.7
	c0.8,0.7,4.2-0.3,5.3-0.4c1.9-0.2,3.8-0.3,5.7-0.4c4.4-0.2,8.8-0.4,13.2-0.3c8,0.1,16,0.2,24,0c1.1,0,10.1,0.2,10.4-1
	c0.2-1-2.9-0.5-3.5-0.5c-2.1,0.1-4.3,0-6.4,0C145.7,54.7,136.6,54.3,127.6,54.5z"/>
<path class="st1" d="M163.2,35.7c0.1,4,0.8,7.9,1,11.9l0.3,5.4c0,0.6-0.2,2,0.5,2.3c1,0.5,1.1-0.5,1.3-1.1c0.5-1.8,0.2-4.2,0.1-6.1
	c0-1.8,0-3.6-0.2-5.4c-0.1-1.8-0.5-3.7-0.7-5.5c-0.1-0.8,0.2-2.1-0.6-2.6c-0.2-0.1-0.4-0.1-0.6-0.1c-0.2,0-0.4,0.1-0.6,0.2
	c-0.2,0.1-0.3,0.3-0.4,0.4C163.2,35.3,163.2,35.5,163.2,35.7z"/>
<path class="st1" d="M115.7,41.1c1.4,0.4,2.6,0.3,3.9,1.3c1.2,0.9,2.1,2.1,2.6,3.5c0.9,3.2-2,4.9-4.8,5c-2.8,0.1-6.9-0.6-6.8-4.2
	C110.8,43.9,112.8,41.2,115.7,41.1z M115.8,39.3c-3.7,0.2-6.6,4.3-6.6,7.7c0,4.2,4.8,5.3,8.2,5.3c3.8,0,7.6-2.6,6.6-6.9
	c-0.5-1.8-1.6-3.3-3.1-4.4C119.4,39.9,117.6,39.3,115.8,39.3z"/>
<path class="st1" d="M112.1,44.9c0,0.2,0.1,0.5,0.3,0.6s0.4,0.3,0.6,0.3c0.2,0,0.5-0.1,0.6-0.3c0.2-0.2,0.3-0.4,0.3-0.6
	C114,43.8,112.1,43.7,112.1,44.9z"/>
<path class="st1" d="M116,44.4c0.1,0.2,0.2,0.4,0.4,0.5c0.2,0.1,0.4,0.2,0.6,0.2c0.2,0,0.4-0.1,0.6-0.2c0.2-0.1,0.3-0.3,0.4-0.5
	C117.8,43.3,116,43.2,116,44.4z"/>
<path class="st1" d="M113.9,47.1c-1.2,1.2,3,3.3,4,1.6c0.8-1.4-1-0.9-1.6-1C115.7,47.6,114.4,46.5,113.9,47.1z"/>
<path class="st1" d="M131.7,42.5c-1.2,0.2-5.2,1.6-5.3,3c-0.1,2.6,3.8-0.1,4.7-0.4c2.3-0.9,3.5,1,5.8,1.1c2,0.1,3.9-1.6,5.8-1.4
	s2.9,2.3,5.2,1.2c1.2-0.6,1.2-1.5-0.2-1.6c-0.8-0.1-1.4,0.3-2.2-0.1c-1.3-0.6-1.9-1.5-3.5-1.3c-1.2,0.3-2.4,0.6-3.5,1.1
	C135.8,44.6,134.3,42,131.7,42.5z"/>
<path class="st1" d="M155.8,43.6c0.3,0.2,2.4,1.6,0.9,2C155.9,45.8,155.2,44.2,155.8,43.6z M155.1,42c-3.5,1.6,0.3,7.3,3,5
	c0.3-0.2,0.5-0.5,0.7-0.9c0.2-0.3,0.2-0.7,0.3-1c0-0.4,0-0.7-0.2-1.1c-0.1-0.3-0.3-0.7-0.6-0.9C157.6,42.4,156,41.6,155.1,42z"/>
<path class="st1" d="M122.5,64.4c-4.3,0-8.7-0.1-13.1,0.2c-0.7,0-3.5-0.1-3.9,0.7c-0.7,1.4,2.2,0.7,2.6,0.7
	c8.6-0.9,17.7-0.4,26.3-0.1c7.1,0.2,14.1,0.3,21.2,0.7l5.6,0.3c0.6,0,2.1,0.4,2.3-0.5c0.2-0.9-1.8-0.7-2.3-0.7l-11.3-0.6
	C140.8,64.4,131.6,64.4,122.5,64.4z"/>
<path class="st1" d="M105.4,65.9c-0.8,0.8-0.4,3.9-0.5,4.9c0,1.8-0.1,3.6-0.2,5.3c0,1.9,0,3.7,0.1,5.6c0,0.8,0.7,4.5,1.7,2.4
	c0.5-1,0-3.6,0-4.7c0-2,0.1-4,0.2-5.9c0.1-1.7,0.1-3.4,0.2-5.1C107,67.8,107,64.3,105.4,65.9z"/>
<path class="st1" d="M164.2,81.8c-4.2,0.4-8.5,0.2-12.8,0.5c-3.7,0.3-7.3,0.4-11,0.5c-8.3,0.2-16.6,0.3-24.9,1
	c-1.9,0.2-3.8,0.3-5.7,0.4c-0.9,0-4.9-0.4-5.2,0.6c-0.5,1.7,3.7,1,4.7,1c2-0.1,4-0.2,6-0.4c8.4-0.6,16.9-0.8,25.4-1.1
	c4.6-0.1,9.2-0.5,13.8-0.8c2.3-0.2,4.6-0.2,6.9-0.3c0.6,0,2.7,0,3.1-0.4C164.8,82.6,164.9,81.8,164.2,81.8z"/>
<path class="st1" d="M162.8,66.2c0.1,4.1,0.4,8.1,0.5,12.2c0,1.2-0.3,3.4,0.4,4.5c1.1,1.7,1.9-0.1,2.1-1.2c0.6-3.4,0-7.2-0.2-10.6
	c-0.1-1.3,0.3-4.2-0.3-5.4C164.7,64.5,162.7,64.7,162.8,66.2z"/>
<path class="st1" d="M155.7,72c1.6,0.4,1.9,4,0,4.2C153,76.6,154.2,72.7,155.7,72z M155.2,70.6c-0.5,0-1.6-0.2-1.9,0.3
	c-0.3,0.3,0,1,0,1.4c-0.1,1.1-1,1.8-0.6,3.2c0.1,0.5,0.4,0.9,0.8,1.3c0.3,0.4,0.8,0.6,1.2,0.8C159.5,79.1,159.4,69.7,155.2,70.6z"/>
<path class="st1" d="M115.1,69.2c0-0.2,0-0.3-0.1-0.5c2.6,1.2,4.7,3.6,3.9,6.7c-0.7,2.4-3.1,3.2-5.3,2.6c-0.6-0.1-1.1-0.3-1.6-0.7
	c-0.5-0.3-0.9-0.8-1.1-1.3c-0.3-0.5-0.5-1-0.5-1.6c-0.1-0.6,0-1.1,0.2-1.7c0.2-0.7,0.5-1.3,0.9-1.8c0.4-0.5,1-1,1.6-1.3
	C113.6,69.5,114.9,69.9,115.1,69.2z M113.6,68.2c-0.7,0-1.4,0.3-1.9,0.7C112.2,68.4,112.9,68.2,113.6,68.2z M113.6,66.7
	c-0.7,0.1-1.5,0.3-2.1,0.7c-0.6,0.4-1.2,0.9-1.6,1.5c-0.3,0.4-1.3,1.4-1.2,1.9s0.4,1,0.9,0.5c-2.9,5.8,4.6,10.8,9.3,6.8
	C123.2,74.3,118.9,66.5,113.6,66.7z"/>
<path class="st1" d="M112.1,72.1c0,0.2,0.1,0.3,0.2,0.4c0.1,0.1,0.3,0.2,0.4,0.2c0.2,0,0.3-0.1,0.4-0.2c0.1-0.1,0.2-0.3,0.2-0.4
	c0-0.2-0.1-0.3-0.2-0.4c-0.1-0.1-0.3-0.2-0.4-0.2c-0.2,0-0.3,0.1-0.4,0.2C112.1,71.8,112.1,71.9,112.1,72.1z"/>
<path class="st1" d="M114.1,72.2c0,0.2,0.1,0.3,0.2,0.4c0.1,0.1,0.3,0.2,0.4,0.2c0.2,0,0.3-0.1,0.4-0.2c0.1-0.1,0.2-0.3,0.2-0.4
	C115.4,71.4,114.1,71.4,114.1,72.2z"/>
<path class="st1" d="M115.1,75c-0.6,0-2.7-0.1-3,0.4c-0.6,0.8,0.4,0.9,0.9,1c0.5,0.1,2.3,0,2.6-0.4C115.7,75.6,115.7,75,115.1,75z"
	/>
<path class="st1" d="M132.5,72.2c-1.2,0.3-2.4,0.6-3.6,1.1c-1.3,0.3-1.9-0.3-3.1-0.6c-0.5-0.2-1.1-0.2-1.6-0.1
	c-0.5,0.1-1.1,0.4-1.5,0.7c-0.6,0.5-1.8,1.6-1.5,2.5c0.8,2,2.7-1.2,3.5-1.4c1.4-0.2,2.6,0.9,4.1,0.6c1.5-0.3,2.7-1.3,4.1-1.3
	c1.2,0,2.4,0.7,3.6,0.8c1.9,0.2,3.1-0.4,4.8-0.9c1.5-0.4,2.5,0.1,3.9,0.6c0.6,0.2,2.8,1,2.4-0.4c-0.1-0.4-2.9-1.1-3.4-1.3
	c-0.7-0.2-1.3-0.3-2-0.3c-0.7,0.1-1.4,0.2-2,0.6c-1.1,0.5-2.4,0.7-3.6,0.4C135.3,73,134,72.1,132.5,72.2z"/>
<path class="st1" d="M191.5,39.4c0.2-4.5,0.5-9,0.6-13.5c0.1-2.2,0.1-4.5,0.2-6.7v-1.5c0-1.7-0.2-1.8,1.5-2
	c7.6-0.7,15.2-0.9,22.7-1.5c9.1-0.7,18.3-1.2,27.5-1.5c4.1-0.1,8.2-0.3,12.2-0.2c0.9,0,2.7-0.2,3,0.5c0.2,0.3-0.2,1.3-0.2,1.7
	l-0.3,3.3c-0.5,6.5-0.1,13.1,1.1,19.5c-2.9-1.7-6.7-3.1-10.1-2.8s-6.1,2.3-8.9,4.2c-1.6,1.1-2.1,1.3-3.7,0.3
	c-1.4-0.9-2.6-1.9-3.9-2.9c-2-1.5-3.8-3.2-5.8-4.8c-3.5-2.9-8.4-7.1-13.3-5.9c-3.5,1.1-6.7,2.6-9.7,4.7
	C200,33.2,196,36.6,191.5,39.4z M252,10.7c-17.4,0-34.6,1.7-51.9,2.6c-1.8,0.1-3.6,0.2-5.4,0.4c-1.2,0.1-4.1-0.4-4.9,0.7
	c-0.5,0.7-0.1,0.8,0,1.4c0,0.9,0,1.8,0,2.7c-0.1,2.1-0.1,4.2-0.2,6.3c-0.2,7.9-0.3,15.8,0,23.7c0.1,1.7,0.7,4.1,0.4,5.8
	c-0.2,1.2-1.1,1.9,0.8,2.2c2,0,4.1-0.1,6.1-0.5c1.9-0.2,3.8-0.4,5.7-0.5c8.3-0.7,16.6-0.6,24.9-0.8s16.7-0.2,25.1-0.2
	c3.5,0,7.5,0.2,10.9-0.8c1.2-0.3,1.4-0.5,1.1-1.7c-0.1-0.2-0.4-0.3-0.5-0.7c-0.1-0.6-0.1-1.2-0.1-1.8c-0.1-1.9-0.1-3.8-0.2-5.7
	c-0.1-3.2-0.7-6.2-1.1-9.4c-0.4-3.6-0.5-7.3-0.5-10.9c0-2,0-4,0.2-6c0.1-1.3,0.7-3.2,0.4-4.4c-0.2-0.6-0.4-1.1-1-1.3
	c-0.4-0.2-0.7,0-1.1-0.1c-0.4,0-0.9-0.1-1.3-0.2C257,10.6,254.4,10.7,252,10.7z"/>
<path class="st1" d="M242.4,19.2c0,1.3-0.2,3.1,0.4,4.3c0.7,1.5,1.7,1,1.9-0.4c0.1-1.3,0.1-2.6-0.1-3.9
	C244.2,18.2,242.4,17.5,242.4,19.2z"/>
<path class="st1" d="M244.5,19.7c-1.2,0-4.6-0.2-5.4,0.7c-1.4,1.6,1,1.9,2,1.8c1.2-0.1,4.8,0.2,5.6-0.8
	C248.1,19.9,245.4,19.7,244.5,19.7z"/>
<path class="st1" d="M198.7,61.8c5.2,0.9,3.6,8.8-1.3,7c-1.7-0.6-4.2-2.5-3.3-4.7C194.8,62.5,197.1,61.6,198.7,61.8z M196.5,59.3
	c-0.8,0.1-1.6,0.4-2.3,0.9c-0.7,0.5-1.3,1.1-1.7,1.8c-0.4,0.7-0.7,1.5-0.8,2.3c-0.1,0.8,0,1.6,0.2,2.4c1.1,3.1,5.4,5.3,8.5,4.2
	c3.1-1.1,4.5-5,3.5-7.9S199.5,58.8,196.5,59.3z"/>
<path class="st1" d="M228.1,62.7c-1.3,0.1-2.4,1-3.7,1.2c-1.2,0-2.3-0.2-3.4-0.6c-1.3-0.5-2.7-0.5-4-0.2c-1.1,0.5-2.2,0.8-3.3,1.1
	c-2.2,0.2-4.8-2.3-6.5,0.5c-0.8,1.4,0.4,2.2,1.6,1.6c1.2-0.6,0.7-0.9,2.2-0.5c1.2,0.4,2.5,0.4,3.7,0c1.2-0.4,2.3-1.2,3.6-1.3
	c1.3-0.1,2.4,0.5,3.6,0.8c1.4,0.3,2.9,0.1,4.3-0.4c1.4-0.4,1.9-0.7,3.3-0.3c0.9,0.3,2.8,1.1,3.6,0.4c1.5-1.1-0.5-1.3-1.3-1.4
	C230.7,63.3,229.4,62.6,228.1,62.7z"/>
<path class="st1" d="M256.4,61.7c1.9,0.1,3.9,3.6,1.4,3.7C256.1,65.4,254.1,62.4,256.4,61.7z M256.2,58.8c-6,1.7-3.2,10.1,2.5,9.1
	c2.6-0.4,3.5-3.5,2.6-5.7c-0.4-1-1.1-1.8-2-2.3C258.7,59.5,256.9,58.6,256.2,58.8z"/>
<path class="st1" d="M228.3,76.4c5.3-0.2,10.5-0.4,15.8-0.4c2.8,0,5.7,0,8.5,0.2c1.3,0.1,2.5,0.1,3.8,0.2h0.9c0.7-0.1,1.5,0,2.2,0.2
	c2.5,1.3-2.6,1.5-3.2,1.5c-1.4,0-2.8-0.1-4.2-0.2c-1.2-0.1-2.4-0.1-3.6-0.2c-7.8-0.2-15.7,0.2-23.5,0.5c-1.8,0.1-3.6,0.2-5.4,0.2
	c-1.8,0-3.8,0.1-5.7,0.2c-2.7,0.1-5.4,0.1-8.1,0.3c-1,0.1-2.1,0.1-3.1,0.2l-4.5,0.3c-1.2,0.1-2.3,0.1-3.5,0.2c-0.3,0-0.5,0-0.8,0.1
	c-0.7,0.2-1.4,0.2-2.1,0c-0.6-0.2-1-0.6-0.7-1.2c0.3-0.6,1.2-0.5,1.9-0.5h0.5c2.2,0,4.4-0.2,6.7-0.3c0.8,0,1.6-0.1,2.4-0.2
	c4.2-0.3,8.4-0.5,12.7-0.6C219.6,76.8,224,76.6,228.3,76.4z M255.8,111h1.5c0.2,0,0.3,0.1,0.5,0.2s0.2,0.2,0.3,0.4
	c0.1,0.2,0.1,0.3,0,0.5c0,0.2-0.1,0.3-0.2,0.4c-0.4,0.5-1.9,0.5-2.8,0.5h-0.6c-2.5,0.2-5,0.3-7.5,0.3c-5.3,0-10.6,0.3-15.9,0.6
	c-5.3,0.3-10.8,0.4-16.3,0.5l-12,0.3c-2.3,0.1-4.6,0.2-6.9,0.2c-0.3,0-0.6,0-0.9,0.1c-1.4,0.2-3.5,0.4-4-0.8c-0.4-1,0.2-1.5,1-1.7
	c-0.1-0.6-0.1-1.3-0.1-1.9v-0.3c0-0.6,0-1.2-0.1-1.8c0-0.7,0-1.4-0.1-2.1c0-0.6,0-1.3-0.1-1.9c-0.1-2.5-0.2-4.9-0.4-7.4
	c-0.1-1.1-0.2-2.3-0.4-3.4c-0.2-1.8-0.4-3.6-0.5-5.4v-1.2c-0.1-2.4-0.2-6.1,1.2-7.3c2.6-1.5,2.1,2.9,1.9,4.8c0,0.2-0.1,0.5-0.1,0.7
	c-0.1,3.2,0.1,6.4,0.4,9.6c0.1,2.2,0.1,4.3,0,6.5c0,0.8-0.1,1.6-0.1,2.3v1.2c0,1.2-0.1,2.4-0.2,3.5v0.7c0,1.1,0,2.1-0.2,3.2h1.6
	c0.6,0,1.3,0,1.9-0.1c1.8-0.1,3.7-0.1,5.5-0.2c4.3-0.2,8.6-0.2,13-0.3c5.1-0.1,10.2-0.1,15.3-0.4L255.8,111z M257.3,79.3
	c0,5.6,0.4,11,0.9,16.5c0.3,3.4,0.6,6.9,0.8,10.3v0.8c0,1.9,0,6,1.8,5c1.4-0.7,0.9-5,0.6-7.4c-0.1-0.4-0.1-0.8-0.1-1.2
	c0-0.6-0.1-1.2-0.1-1.8c-0.2-2.7-0.4-5.5-0.6-8.2l-0.1-0.6c-0.3-3.2-0.6-6.3-0.6-9.5v-1c0.1-1.2,0.2-2.8-0.3-3.4
	c-0.1-0.2-0.3-0.4-0.6-0.6c-0.2-0.1-0.5-0.2-0.8-0.1s-0.5,0.2-0.7,0.4C257.4,78.7,257.3,79,257.3,79.3z"/>
<path class="st1" d="M228.6,92.9c6.7-3.2,13.5-5.9,20.5-8.3c0.5-0.2,0.8,0.4,0.7,0.8c-0.1,0.4-1.2,0.8-1.9,1.1
	c-0.2,0.1-0.4,0.1-0.5,0.2c-1,0.4-2,0.9-2.9,1.3c-0.9,0.4-2,0.9-3,1.3c-2.1,0.9-4.2,1.8-6.2,2.8c-2.2,1-4.4,2-6.7,3
	c-0.1,0-0.2,0.1-0.3,0.1l9,3.3c1,0.4,2,0.8,3.1,1.2c0.6,0.2,1.2,0.5,1.7,0.7c0.3,0.1,0.6,0.2,0.9,0.3c1.3,0.4,3.3,1,3.4,1.6
	c0.2,1-2.5,0-3.5-0.3c-0.1,0-0.2-0.1-0.3-0.1c-1.5-0.5-3-1-4.5-1.6l-0.2-0.1c-1.2-0.4-2.4-0.9-3.6-1.3c-2.3-0.8-4.6-1.7-7-2.5
	l-1-0.3c-3.7,1.7-7.5,3.4-11.2,5.1c-2,0.9-4,1.9-6,2.8c-0.6,0.3-1.1,0.6-1.6,0.9c-1.4,0.8-3.1,1.8-4.2,1.8c-0.6,0-1-0.1-1.1-0.9
	c-0.1-0.8,0.9-1.2,1.6-1.5c0.2-0.1,0.3-0.1,0.4-0.2c2.1-1.1,4.3-2.1,6.4-3.1c4.2-2,8.5-4,12.8-5.9h0.1l-7.2-2.4
	c-0.2-0.1-0.7-0.2-1.4-0.4c-3-0.8-9.5-2.6-9.3-3.7c0.2-1.1,6.4,1,9.1,2c0.5,0.2,0.9,0.3,1.1,0.4c3.2,1,6.4,2.1,9.6,3.2
	C226.6,93.8,227.6,93.3,228.6,92.9z"/>
<path class="st1" d="M199.8,119.3c1,0.2,1.8,0.7,2.4,1.5s0.8,1.8,0.7,2.7c-0.3,2.7-2.9,3.9-5.4,3.5c-2.8-0.4-3.4-2.7-2-5
	c0.3-0.6,0.7-1.1,1.2-1.4c0.4-0.2,0.8,0,1.1-0.2C198.9,120,198.3,119.2,199.8,119.3z M198.9,117.6c-2.4,0.3-6.8,3.1-6.6,5.9
	c0.1,0.2,0.2,0.3,0.4,0.4c0.2,0.1,0.3,0.1,0.5,0c-0.1,0.6-0.1,1.2,0.1,1.8c0.2,0.8,0.7,1.4,1.3,1.9c1.3,0.9,2.9,1.3,4.5,1.1
	c1.4-0.1,2.7-0.7,3.7-1.7c1-1,1.6-2.3,1.7-3.7C204.7,120.3,202.1,117.2,198.9,117.6z"/>
<path class="st1" d="M210.5,121.2c-1.1,0.6-2.8,1.4-3.4,2.5s0,2.4,1.4,1.9c1.1-0.4,1.8-1.8,3-2.2c0.4-0.2,0.9-0.2,1.3-0.2
	c0.5,0,0.9,0.2,1.3,0.4c1.1,0.5,2.2,0.7,3.4,0.7c1.6-0.1,2.9-1,4.4-1.2c1.3-0.2,2.3,0.3,3.6,0.5c1.3,0.2,2.3-0.3,3.7-0.6
	c0.9-0.2,2.5,0.6,3.2,0.3c1.5-0.7-0.1-1.4-0.9-1.7c-1.2-0.3-2.4-0.2-3.5,0.3c-1.4,0.4-2,0.1-3.4-0.3c-2.8-0.7-4.9,1.1-7.5,0.7
	C214.5,121.9,213.1,119.8,210.5,121.2z"/>
<path class="st1" d="M255.7,119.8c2.7,2.5-0.3,6-3.3,4c-0.2-0.2-0.4-0.4-0.5-0.6c-0.1-0.2-0.2-0.5-0.2-0.8c0-0.3,0-0.5,0.1-0.8
	s0.3-0.5,0.5-0.7C252.9,120.1,254.5,119.8,255.7,119.8z M254.7,117.8c-2.5,0.5-4.8,1.6-5.1,4.5c-0.3,2.9,2.6,4.1,5.1,3.9
	C260.1,125.8,259.7,116.9,254.7,117.8z"/>
<path class="st1" d="M105.3,94.3c-3.8,0-7.6,0.2-11.4,0.4c-3.6,0.2-7.5,0.1-11.1,0.8c-1,0.2-2.4,1.1-1,2.1c0.9,0.7,4.4-0.1,5.5-0.2
	c4.1-0.3,8.3-0.6,12.4-0.7c3.9-0.1,7.9-0.2,11.8-0.2c0.7-0.1,1.5-0.1,2.2,0c0.9,0.3,0.7,0.3,0.7,1.4c0.1,2,0.1,3.9,0,5.9
	c0,1.9-0.1,3.8-0.1,5.7c0,1.4-0.4,4.1,0.3,5.3c1,1.7,2-0.1,2.1-1.3c0.1-2.2,0.1-4.4,0.1-6.5s0-4.1-0.1-6.1c-0.1-1.5,0.2-4-0.6-5.4
	c-0.8-1.4-2.7-1.1-4.2-1.1C109.7,94.2,107.5,94.2,105.3,94.3z"/>
<path class="st1" d="M81.2,96.7c0,3.8-0.4,7.6-0.6,11.5c-0.2,1.8-0.1,3.6,0.3,5.4c0.4,1.7,1.9,2.1,2,0.2c0.3-3.9,0.3-8,0.5-12
	c0.1-1.4,0.7-4,0.1-5.3C83.1,95.3,81.2,95.1,81.2,96.7z"/>
<path class="st1" d="M116.8,113.6c-6.6,0.9-13.5,0.6-20.1,0.7c-3.2,0.1-6.4,0.1-9.6,0.1c-1.1,0-3.9-0.4-4.9,0.2
	c-1.5,1,0.1,1.8,1.1,1.8c6.3,0.1,12.7-0.2,19-0.4c2.8-0.1,5.7-0.1,8.5-0.4c1.8-0.1,3.6-0.3,5.3-0.8c0.4-0.1,1.1-0.1,1.2-0.6
	C117.3,114,117.3,113.5,116.8,113.6z"/>
<path class="st1" d="M89.3,119.2c-1.8,0-7.4-0.8-8.1,0.9c-1,2.4,2.9,1.8,4,1.8c2.4-0.1,4.8-0.1,7.2-0.1c2.4,0,4.7,0,7.1-0.1
	c0.7,0,2.3,0.3,2.7-0.6c0.1-0.1,0.1-0.3,0.1-0.4c0-0.1,0-0.3-0.1-0.4c0-0.1-0.1-0.3-0.2-0.4c-0.1-0.1-0.2-0.2-0.4-0.3
	c-1.3-0.8-4.8-0.3-6.3-0.4C93.4,119.3,91.4,119.2,89.3,119.2z"/>
<path class="st1" d="M111.7,119.6c-1,0.1-3.2-0.4-4.1,0.1c-1.1,0.5-0.7,1.4,0.2,1.8c1.3,0.2,2.6,0.2,3.9-0.2
	C112.3,121,113,119.5,111.7,119.6z"/>
<path class="st1" d="M123.2,97.1c-1.1,0.3-0.8,6.7-0.8,7.7c-0.1,2.8-0.4,6.2,0.5,8.9c0.6,1.7,1.7,1.5,1.5-0.3
	c-0.2-1.6-0.5-3.1-0.6-4.7c-0.4-3.6-0.6-7.3-0.4-10.9c0.1,0.2,1.2,2.1,1.4,2C124.8,99.7,123.6,97,123.2,97.1z"/>
<path class="st1" d="M135.8,94.8c-2.3,0-4.5,0.1-6.8,0.1c-1.8,0.1-4.6-0.2-6.3,0.5c-2,0.9-1,2.9,0.8,3c1.6,0,3.4-0.3,5-0.4
	c4.5-0.2,8.9-0.2,13.4-0.2c4,0,8.2,0.4,12.2-0.2c0.6,5.3-1,10.5-0.5,15.9c0.1,0.8,0,2,1.1,2.2c1.3,0.2,1.4-1.1,1.4-2
	c0.1-2.7,0.1-5.4,0.3-8.1c0.3-2.5,0.4-5,0.2-7.5c-0.4-3.1-1.8-2.8-4.5-3C146.7,94.7,141.3,94.7,135.8,94.8z"/>
<path class="st1" d="M128.2,113.4c-1.2,0-3.1-0.3-3.8,0.8c-0.7,1.1,0.1,2.2,1.3,2.4s3.1-0.1,4.4-0.1h4.3c6.1,0,12.3,0.1,18.4-0.1
	c0.9,0,3.3,0.3,3.9-0.6c0.1-0.1,0.2-0.3,0.2-0.5c0-0.2,0-0.4,0-0.5c0-0.2-0.1-0.3-0.3-0.5c-0.1-0.1-0.3-0.2-0.4-0.3
	c-1.1-0.6-3.5-0.4-4.7-0.4c-1.6-0.1-3.1-0.1-4.7-0.1C140.5,113.4,134.3,113.3,128.2,113.4z"/>
<path class="st1" d="M133.3,118.8c-2.3-0.1-4.7,0-7,0.3c-2,0.3-2.2,2.2-0.1,2.5c2.1,0.1,4.3-0.1,6.4-0.3c0.7,0,1.5,0,1.9-0.8
	c0.1-0.2,0.1-0.4,0-0.6s-0.1-0.4-0.2-0.6c-0.1-0.2-0.3-0.3-0.4-0.4C133.7,118.8,133.5,118.8,133.3,118.8z"/>
<path class="st1" d="M150.7,119c-1.2,0-4.8-0.5-5.4,0.9c-1,2.3,3.8,1.4,4.8,1.4c1.2,0,5.7,0.6,5.7-1.2S151.8,118.9,150.7,119z"/>
<path class="st1" d="M81,130.6c0,4.2-0.3,8.5,0.1,12.8c0.2,1.8,0.1,5.1,1.1,6.6c0.7,1.1,1.7,1,2.1-0.3c0.3-0.8-0.2-2.5-0.2-3.4
	c0-0.9-0.1-1.7-0.1-2.6c-0.1-2.2-0.1-4.5-0.1-6.7c0-1.9,0.5-4.5,0.1-6.3C83.6,128.9,81,128.4,81,130.6z"/>
<path class="st1" d="M123.6,126.8c-7.4,0.2-14.7,0-22.1,0.4c-3.6,0.2-7.2,0.6-10.8,1l-5.3,0.6c-0.5,0.1-5,0.2-3.3,1.9
	c0.7,0.7,3,0,4-0.1l5.3-0.6c3.4-0.4,6.8-0.7,10.2-0.9c8-0.4,16-0.3,24.1-0.6c2.2-0.1,4.3-0.1,6.5-0.1c0.6,0,4.8,0.2,2.9-1.3
	c-0.9-0.7-4.1-0.4-5.2-0.4C127.8,126.7,125.7,126.8,123.6,126.8z"/>
<path class="st1" d="M133.6,134c0-2-0.1-3.9-0.2-5.9s2.7-2.4,3.5-0.7c0.6,1.2,0.5,3.2,0.4,5c0,0.7-0.1,1.4-0.1,1.9
	c0,1.2,0.1,2.5,0.2,3.8c0.2,3.2,0.5,6.6-0.1,9.7c-0.3,1.5-1.5,2.3-2.4,1.5c-0.3,0.5-1.3,0.5-2,0.5h-0.5c-2,0.1-3.9,0.4-5.9,0.7
	c-3.9,0.6-7.8,0.9-11.7,1c-2.7,0.1-5.4,0.1-8,0.1c-5.1,0-10.3,0.1-15.4,0.4c-1.7,0.1-3.4,0.3-5.1,0.6c-0.2,0-0.3,0.1-0.5,0.1
	c-1.3,0.3-3.1,0.7-3.2-1.1c-0.1-2.1,4.4-2.4,6.7-2.5c0.3,0,0.6,0,0.9-0.1c7.1-0.6,14.3-0.7,21.4-0.5h2.7c3,0.1,6.1,0.1,9.1-0.1
	c1.4-0.1,2.8-0.1,4.2-0.2c2.2-0.1,4.5-0.1,6.7-0.4c-0.3-1.4-0.4-2.8-0.4-4.2c0-0.5,0-1.1-0.1-1.6C133.7,139.4,133.7,136.7,133.6,134
	z"/>
<path class="st1" d="M139.6,129.6c-0.2,0-0.5,0.1-0.7,0.2c-0.2,0.1-0.4,0.3-0.5,0.5c-0.1,0.2-0.2,0.4-0.3,0.7c0,0.2,0,0.5,0.1,0.7
	c0.6,1.4,2.2,0.8,3.3,0.7c3.5-0.3,7.1,0.3,10.6-0.1c0.9-0.1,2.3-0.6,1.5-1.9c-0.6-1-3-0.8-3.9-0.9
	C146.3,129.2,142.9,129.2,139.6,129.6z"/>
<path class="st1" d="M145.5,135.5c-1.4,0.1-4.5,0-5.1,1.6c-1,2.8,3,1.8,4.2,1.6c1.4-0.2,4.8,0.3,5.5-1.1
	C151.5,135.2,146.7,135.5,145.5,135.5z"/>
<path class="st1" d="M142,141.6c-0.3,0.3-0.5,0.8-0.5,1.2c0,0.4,0.2,0.9,0.5,1.2c0.8,0.8,2.5,0.6,3.5,0.7c1.4,0.1,5.6,0.8,6.3-0.9
	c1-2.3-2.8-2.2-4-2.4C146.4,141.3,143.2,140.4,142,141.6z"/>
<path class="st1" d="M91.3,102.3c0,2.5,3.9,2.5,3.9,0C95.2,99.8,91.3,99.8,91.3,102.3z"/>
<path class="st1" d="M98.6,102.3c0,2.8,4.4,2.8,4.4,0C103,99.5,98.6,99.5,98.6,102.3z"/>
<path class="st1" d="M94.2,106.1c-2.1,0.6-0.2,2.4,0.8,2.8c1.6,0.7,3.7,1.1,5.3,0.2c0.6-0.4,1.1-0.9,0.7-1.7
	c-0.4-0.8-1.2-0.5-1.9-0.4c-0.9,0.1-1.8,0.1-2.6-0.2C95.8,106.6,94.9,105.9,94.2,106.1z"/>
<path class="st1" d="M132.9,102.5c0,0.3,0.1,0.7,0.4,0.9c0.2,0.2,0.6,0.4,0.9,0.4s0.7-0.1,0.9-0.4c0.2-0.2,0.4-0.6,0.4-0.9
	c0-0.3-0.1-0.7-0.4-0.9c-0.2-0.2-0.6-0.4-0.9-0.4s-0.7,0.1-0.9,0.4C133,101.8,132.9,102.1,132.9,102.5z"/>
<path class="st1" d="M138.7,102.7c0,0.4,0.2,0.8,0.4,1s0.6,0.4,1,0.4c0.4,0,0.8-0.2,1-0.4c0.3-0.3,0.4-0.6,0.4-1
	c0-0.4-0.2-0.8-0.4-1c-0.3-0.3-0.6-0.4-1-0.4c-0.4,0-0.8,0.2-1,0.4C138.8,101.9,138.7,102.3,138.7,102.7z"/>
<path class="st1" d="M138.5,106.7c-1.5,0.2-5.9,0.6-6.1,2.5c-0.4,2.9,4.4,0.5,5.5,0.3c1.3-0.2,2.7-0.3,4-0.2c0.8,0,1.8,0.2,1.7-1
	C143.4,106.5,139.8,106.6,138.5,106.7z"/>
<path class="st1" d="M100.4,133.3c-1.1,0.3-2.5,2.2-1.8,3.3c1.2,1.9,1.8-1,2.3-1.3c0.9-0.5,1.7,1.4,2.7,0.4
	C105.2,134.2,101.4,133,100.4,133.3z"/>
<path class="st1" d="M113,131.9c-1.3,0-4,1.9-4.2,3.2c0,0.2,0,0.4,0,0.6c0,0.2,0.1,0.4,0.3,0.5c0.1,0.2,0.3,0.3,0.5,0.4
	s0.4,0.1,0.6,0.1c1.2,0,1.6-1.5,2.6-1.9c1-0.4,0.9,0.5,1.9,0.9c0.7,0.3,1.6,0.2,1.8-0.7C116.8,133.4,114.3,131.8,113,131.9z"/>
<path class="st1" d="M103,139.7c-2.1,1.2,1.3,3.8,2.5,4.2c1.8,0.5,5.4-0.4,5.8-2.6c0.2-0.9-0.4-1.7-1.3-1.5c-0.9,0.2-1.3,1.1-2,1.5
	c-0.4,0.3-0.9,0.4-1.4,0.3c-0.5-0.1-0.9-0.3-1.3-0.6C104.6,140.3,104.2,138.9,103,139.7z"/>
<path class="st1" d="M104.5,157.7c-1.9,0.4-3.7,0.1-5.6,0.5c-1.9,0.4-3,1.1-4.8,0.4c-0.1,0-0.1,0-0.2-0.1c-0.6-0.4-1.4-0.5-2.1-0.5
	c-0.7,0-1.5,0.3-2.1,0.7c-0.8,0.6-3.4,2.5-3.1,3.7c0.7,2.5,3.6-1.4,4.3-1.8c1.4-0.7,2.4,0.2,3.8,0.5c1.7,0.3,3.1-0.6,4.8-1
	c1.9-0.4,4.1-0.6,6-0.8c0.8-0.1,3.7,0.5,3.9-0.4C109.8,157.1,105.3,157.5,104.5,157.7z"/>
<path class="st1" d="M117.9,162.8C118.1,162.9,118,162.8,117.9,162.8L117.9,162.8z M123.1,157.6c1.6-0.2,6.7-1.3,7.7,0.3
	c0.7,1.1-0.4,5-1.4,5.5c-0.8,0.4-2.7,0-3.6-0.1c-1.7-0.1-3.4-0.1-5-0.2c-0.6,0-2.4,0.1-2.8-0.4c-0.4-0.5-0.5-3.7-0.6-4.5
	C118.8,158.7,121.6,157.7,123.1,157.6z M126.5,156c-2,0.1-4.1,0.2-6.1,0.5c-1.1,0.2-2.3,0.6-3.3,0.8c-0.3,0.1-0.9-0.1-1.3,0.1
	c-1.2,0.6-0.1,4.5,0.1,5.6c0.4,1.6,1.6,1.9,3.1,2c2.1,0.2,4.2,0.1,6.3,0.1s4.7,0.4,5.8-1.6c0.7-1.3,1.5-4.3,0.9-5.8
	C131.3,155.7,128.2,155.9,126.5,156z"/>
<path class="st1" d="M149.8,163.3C149.8,163.4,149.6,163.6,149.8,163.3L149.8,163.3z M145,163.2c0.9-0.2,1.8-0.3,2.7-0.5
	c-0.9,1.2-1.7,0.7-3.2,0.6C144.6,163.2,144.8,163.1,145,163.2z M140.7,162.8c0.2-0.1,0.5-0.2,0.7-0.2c0,0.2,0,0.3,0.1,0.5
	c-0.4,0-0.8-0.1-1.2-0.1C140.4,162.8,140.5,162.8,140.7,162.8z M138.7,161.3c0-0.3,0.5-0.1,0.7-0.1
	C138.9,161.6,138.6,161.7,138.7,161.3z M145.8,157.8C145.8,157.7,145.8,157.7,145.8,157.8c0.1-0.1,0.1-0.1,0.1-0.1s0.1,0,0.1,0
	c0,0,0,0,0.1,0.1C145.9,157.8,145.5,158,145.8,157.8z M149.7,157C150.6,157.2,150.6,158.3,149.7,157L149.7,157z M138.6,157
	C138.4,157.1,138.5,157,138.6,157L138.6,157z M142.2,154.6c-1.6,0.1-4.5,0-5.9,0.9c-1.7,1.1-0.8,4.9-0.7,6.6
	c0.2,2.5,1.4,3.2,3.7,3.4c2.8,0.3,5.7,0.4,8.5,0.3c2.5-0.1,4-0.9,4.4-3.6c0.1-0.8,0.5-2.1,0.5-2.8c0-0.5-0.3-0.8-0.4-1.2
	c-0.6-2.6-1.5-2.9-4.2-3C146.1,154.8,144.1,154.6,142.2,154.6z"/>
<path class="st1" d="M276.4,134.4c-2.1,0.3-7.1,2-7,3.9c0.1,2.9,4.3-0.3,5.2-0.7c5-2.3,11.6,0.7,16.8,1.3c2.4,0.3,7.1,0.8,9.2-0.4
	c3.8-2.2-5-1.6-6.1-1.7C288.5,136.4,282.5,133.6,276.4,134.4z"/>
<path class="st1" d="M322.8,110.9c-0.1,2.6,0,5.1,0.3,7.7c0.1,0.8,0.3,2.2,1.1,2.6c0.2,0.1,0.4,0.2,0.6,0.2c0.2,0,0.4,0,0.6-0.1
	c0.2-0.1,0.3-0.2,0.4-0.4c0.1-0.2,0.2-0.4,0.2-0.5c0.2-1-0.3-2.4-0.3-3.4c-0.1-1.4-0.1-2.8-0.1-4.2c0-1,0.3-2.6-0.9-3.1
	c-0.2-0.1-0.4-0.1-0.6,0c-0.2,0-0.4,0.1-0.6,0.2s-0.3,0.3-0.4,0.5C322.9,110.4,322.8,110.7,322.8,110.9z"/>
<path class="st1" d="M363.3,106.9c-8.5,0.9-17.1,1-25.6,1.5c-3.9,0.2-8.7-0.1-12.4,1.5c-0.7,0.3-3.2,1.9-1.2,2.5
	c0.6,0.2,1.3-0.5,1.8-0.7c0.9-0.4,1.8-0.6,2.8-0.6c7.7-1.2,15.8-1,23.7-1.6c2-0.1,4-0.3,6-0.5c1.4-0.1,4.4-1.2,5.7-0.6
	c2.3,0.9,2.2,6.7,2.2,8.8c0,1-1,4.8,1,4.4c1.6-0.3,1-4.2,0.9-5.2C367.9,113.4,367.3,106.5,363.3,106.9z"/>
<path class="st1" d="M366.4,121.2c-7.4,0.7-14.9,0-22.3,0.3c-3.9,0.1-7.8,0.4-11.6,0.5c-1.7,0.1-3.4,0.1-5,0.1
	c-0.8,0-4.5,0.5-2.2,2.1c1,0.7,4.2,0.1,5.3,0.1c1.7,0,3.4-0.1,5.2-0.2c4-0.2,8-0.4,12-0.5c3.8-0.1,7.6-0.1,11.5-0.2
	c1.9,0,3.8-0.2,5.7-0.4c0.4-0.1,1.8-0.1,2.1-0.6c0.1-0.1,0.1-0.3,0.1-0.4c0-0.1,0-0.3-0.1-0.4c-0.1-0.1-0.2-0.2-0.3-0.3
	C366.6,121.2,366.5,121.2,366.4,121.2z"/>
<path class="st1" d="M333.2,114.7c1.7,1.8-0.9,3.8-2.5,2.1C329.1,115.1,332.1,114.7,333.2,114.7z M331.4,112.1
	c-5.9,1.1-3.8,9,1.7,7.8c0.6-0.1,1.1-0.3,1.6-0.7c0.5-0.3,0.9-0.8,1.1-1.3c0.3-0.5,0.5-1.1,0.5-1.6c0-0.6,0-1.2-0.2-1.7
	c-0.1-0.5-0.4-1-0.7-1.3c-0.3-0.4-0.8-0.7-1.3-0.9c-0.5-0.1-0.9,0.1-1.4,0C332.2,112.3,332,112,331.4,112.1z"/>
<path class="st1" d="M354.1,114.3c-3.6,0-7.1,0.2-10.7,0.2c-1.1,0-3.9-0.5-3.9,1.3c0,1.8,3.1,1.2,4.2,1.1c3.5-0.1,7.1-0.2,10.6-0.6
	c0.9-0.1,4,0.1,4-1.2S354.8,114.3,354.1,114.3z"/>
<path class="st1" d="M362.6,126.3c-8.8,0.2-17.7,0.3-26.5,0.8c-3.3,0.2-6.6,0.3-9.9,0.3c-0.6,0-1.9-0.2-2.5,0.2
	c-1.6,1.1,0.2,2,1.3,2.1c7.3,0.4,14.6-0.6,21.9-0.8c4.2-0.1,8.5-0.2,12.7-0.4c1.2-0.1,2.3-0.1,3.5-0.2c0.7-0.1,2.4,0.1,3-0.3
	C368.4,126.2,363.4,126.3,362.6,126.3z"/>
<path class="st1" d="M322.1,130.7c-0.1,2.3-0.1,4.5,0.2,6.8c0.1,0.9,0.2,1.9,1.2,2.1s1.4-0.5,1.6-1.3c0.5-2,0.1-4.8,0.1-6.8
	c0-1,0-2.1-1.2-2.4c-0.2,0-0.5,0-0.7,0c-0.2,0.1-0.4,0.2-0.6,0.3c-0.2,0.2-0.3,0.3-0.4,0.6C322.1,130.2,322.1,130.4,322.1,130.7z"/>
<path class="st1" d="M372,136.2c-14.3,0.8-28.6,1.4-42.9,2c-1.1,0-9.8,0-6.8,3c0.9,0.9,3.3,0.3,4.6,0.2c1.8-0.1,3.6-0.2,5.5-0.2
	c7.2-0.4,14.5-0.5,21.7-0.9c4-0.2,7.9-0.6,11.9-1c1.9-0.2,4.2-0.2,6-0.9C372.8,137.9,373.7,136.1,372,136.2z"/>
<path class="st1" d="M363.8,124.6c-1.1,1.1-0.5,3.2-0.4,4.6c0.1,1.8,0.2,3.7,0.5,5.5c0,1.4,0.2,2.8,0.7,4.1c0.2,0.3,0.4,0.5,0.7,0.6
	c0.3,0.1,0.6,0.2,0.9,0.2c0.3,0,0.6-0.1,0.9-0.3s0.5-0.4,0.6-0.7c0.6-1,0.3-3.2,0.3-4.3c0-1.6-0.1-3.2-0.2-4.7
	c-0.1-1.3,0.2-3.4-0.5-4.5C366.4,123.9,364.8,123.5,363.8,124.6z"/>
<path class="st1" d="M333.6,132.6c2.4,0.5-1.5,3.2-2.7,1.3c-0.2-0.3-0.3-0.7,0-0.9c0.3-0.2,0.5,0.2,0.7,0.1
	C332.2,132.8,332.9,132.6,333.6,132.6z M333.3,130.4c-1.6,0.1-3.8,0.2-4.6,1.9c-1.1,2.2,0.8,4.3,2.9,4.6c2.1,0.3,5.1-0.8,5.3-3.2
	c0-0.5-0.1-0.9-0.3-1.3c-0.2-0.4-0.5-0.8-0.8-1.1c-0.3-0.3-0.7-0.5-1.2-0.7C334.2,130.4,333.7,130.3,333.3,130.4z"/>
<path class="st1" d="M346.8,131.5c-1.7,0-5-0.5-6.4,0.3s-0.8,2.2,0.5,2.6c1.1,0.1,2.1,0,3.2-0.2c1.2,0,2.4-0.1,3.6-0.1h6
	c2.1,0,4.1,0.1,6.2-0.1c2.6-0.2,2.5-2.1,0-2.4C355.6,131.3,351.1,131.5,346.8,131.5z"/>
<path class="st1" d="M342.5,153.2c0,0.9,0.8,0,0.8,0S342.5,152.3,342.5,153.2z"/>
<path class="st1" d="M324,145.8c0.1,2.7,0.1,5.4,0.2,8c0,0.8-0.2,2.5,0.8,2.9c1,0.4,1.5-0.7,1.6-1.5c0.4-2.6,0-5.5,0-8.1
	c0-0.9,0.2-2.1-0.8-2.5c-0.2-0.1-0.4-0.1-0.6-0.1c-0.2,0-0.4,0.1-0.6,0.2c-0.2,0.1-0.3,0.3-0.4,0.5C324,145.4,324,145.6,324,145.8z"
	/>
<path class="st1" d="M368.2,145.8C368.2,145.9,368.5,146,368.2,145.8L368.2,145.8z M346.5,143.7c-4.1,0.1-8.2,0.1-12.3,0.3
	c-1.8,0.1-3.5,0.1-5.3,0.3c-1.2,0.1-4.3,0.2-5.1,1.2c-1.7,2.1,1.9,1.5,2.6,1.3c1.4-0.3,2.8-0.4,4.2-0.5c3.1-0.2,6.1-0.2,9.2-0.3
	c8.3-0.2,16.6-0.1,24.9-0.2c0.8,0,2.3-0.3,3,0c0.7,0.3,0.7,1.1,0.8,2.1c0.1,1.2-0.7,3.6-0.1,4.6c1,1.6,2.4,0.2,2.6-0.9
	c0.2-1.7-0.1-3.5-0.6-5.1c-0.6-2.2-1.5-2.3-3.7-2.4c-2.5-0.2-4.9-0.3-7.4-0.3C355,143.6,350.8,143.6,346.5,143.7z"/>
<path class="st1" d="M362.8,154.7c-8.9,1-18.1,0.4-27.1,0.5c-2.2,0-4.4,0-6.5,0.1c-1.2,0.1-3.9-0.3-4.7,0.6
	c-1.7,1.9,1.3,2.1,2.4,2.1c2.2-0.2,4.4-0.2,6.6-0.2c7.8-0.1,15.6,0.3,23.4-0.1c3.3-0.2,6.5-0.7,9.7-1.3c0.7-0.1,5.6-1.1,2.8-2.2
	C367.9,153.5,364.5,154.5,362.8,154.7z"/>
<path class="st1" d="M336.7,151.3C336.7,151.4,336.6,151.5,336.7,151.3L336.7,151.3z M336.1,150.6
	C336.2,150.6,336.2,150.7,336.1,150.6L336.1,150.6z M336.1,150.6c0.2,0.2,0.4,0.6,0.4,0.9C334.7,151.9,334,150.4,336.1,150.6z
	 M333,148.3c-1.2,1.5-2.2,3.2-0.7,4.9c0.7,0.7,1.7,1.2,2.7,1.3c1,0.1,2.1-0.1,3-0.6c1.7-1,1.6-3.2,0.4-4.7c-0.8-0.9-1.4-0.9-2.6-1.1
	C335,148.1,333.6,147.5,333,148.3z"/>
<path class="st1" d="M345.3,151c0,2,8.6,1.1,10.1,1.1c1.3,0,9,0.7,8.4-1.3c-0.5-1.7-8.1-0.8-9.7-0.8C352.8,150,345.3,149,345.3,151z
	"/>
<path class="st1" d="M233.5,169.6c4.3,0.6,8.7,2.6,8.7,7.6c0,4.2-3.6,8.7-8.1,8.4c-4.1-0.2-7.9-4.7-8.4-8.5c-0.3-2,0.2-4.1,1.4-5.7
	C228.7,169.3,231.1,169.3,233.5,169.6z M231.5,166.9c-1.4-0.1-2.8,0.2-4.1,0.8c-1.3,0.6-2.4,1.5-3.2,2.7c-0.8,0.8-1.4,1.7-2,2.7
	c-0.5,0.9-0.4,3.2,1.3,2.1c-0.4,4.4,2.2,8.7,5.9,11c1.8,1.2,4.1,1.8,6.3,1.5s4.2-1.3,5.7-3c3.1-3.2,4.2-8.5,1.9-12.4
	C241,168.4,235.8,166.9,231.5,166.9z"/>
<path class="st1" d="M240.8,165.7c-2,1.5-3.8,3.3-5.3,5.3c-1.5,1.9-2.4,4.3-4.2,5.9c-0.9-1-1.9-3.6-3.7-2.6
	c-1.5,0.9-0.5,2.4,0.2,3.3c1.9,2.5,3.9,3.5,6.3,1c2.2-2.3,3.4-5.3,5.4-7.7c1.1-1,2.1-2.1,3-3.2C243.1,166.8,242.3,164.6,240.8,165.7
	z"/>
<path class="st1" d="M315.9,7.9v0.6c0.1,3.8,0,7.6-0.3,11.4c-0.1,1.3-1,2.9-2.1,1.1c-0.5-0.8-0.4-2.4-0.4-3.6v-0.8
	c0-1.3,0.1-2.7,0.1-4c0.2-2.6,0.2-5.2-0.1-7.8V4.7c-0.2-1.1-0.2-1.2-1.4-1.2h-4.6c-1.6,0-3.2,0.1-4.7,0.1c-0.3,0-0.8,0.1-1.4,0.1
	c-1.5,0.2-3,0.4-4.5,0.4c0,0.9-0.2,1.7-0.4,2.6c-0.2,0.7-0.4,1.5-0.4,2.3c-0.1,1.7-0.1,3.4-0.1,5.2c0,2.1,0,4.2-0.2,6.3v0.3h0.2
	c1.1-0.1,2.1-0.1,3.2-0.1h5c2.4,0.1,4.7,0,7.1-0.3c0.7-0.1,0.9,0.8,0.6,1.2c-0.2,0.2-0.5,0.3-0.7,0.4c-0.3,0.1-0.6,0.1-0.9,0.1h-0.4
	c-1.5,0.2-3,0.3-4.5,0.4s-3.2,0.1-4.8,0.2c-0.4,0-0.9,0.1-1.4,0.1c-1.5,0.1-3.3,0.3-4.3-0.1c-1-0.4-1-0.9-0.6-1.3
	c-0.2-0.4-0.2-0.9-0.2-1.4v-0.4c-0.2-1.8-0.4-3.5-0.4-5.3c0-3.5,0-7.2,1-10.6c-0.4-0.2-0.6-0.4-0.6-0.8c0-1.8,5.7-1.7,8.4-1.7h1.1
	c2-0.1,3.9-0.1,5.9,0c0.5,0,0.9,0,1.4-0.1c1-0.1,2-0.1,3,0.1C315.8,2,315.8,5.7,315.9,7.9z"/>
<path class="st1" d="M330.3,1.9c2.1-0.1,4.3-0.1,6.4-0.1c2.3,0,4.6,0,6.8,0.1h0.1c1,0,6.6,0.2,4,1.6c-0.2,0.1-0.3,0.1-0.5,0.2
	c0.1,0.5,0.1,1.1,0.1,1.6c-0.1,1.2-0.1,2.4-0.2,3.7c0,0.8-0.1,1.7-0.1,2.5l-0.3,6.9v1.1c0.1,1.4,0.1,3.2-0.6,3.8
	c-0.7,0.6-1.1,0.5-1.4,0.1c-1.8,0.5-5.6,0.4-7.5,0.3h-1c-0.6,0-1.1,0-1.7,0.1c-3.3,0.2-9.3,0.6-9.4-1c0-0.2,0-0.3,0.1-0.4
	c-0.3-0.3-0.5-0.7-0.6-1.1c-0.5-1.8-0.7-3.6-0.6-5.4c-0.1-2.5-0.1-5.1-0.1-7.6V4.4c-0.1-0.2-0.2-0.5-0.1-0.8
	c0.1-0.3,0.2-0.5,0.4-0.6c0.9-0.8,3.2-0.8,4.9-0.8C329.4,2,329.8,1.9,330.3,1.9z M326.8,21.4c2.5-0.3,4.9-0.4,7.4-0.2h1.1
	c1.9,0,3.8,0,5.7,0.1h3.2V21c-0.1-1.7,0-3.4,0-5.1v-1.1c0-1.3,0.1-2.5,0.2-3.8c0-0.8,0.1-1.6,0.1-2.4V7.2c-0.1-1.2,0-2.3,0.1-3.5
	c-0.7,0-1.4-0.1-2.1-0.1c-0.7,0-1.2-0.1-1.7-0.1h-7c-2.2,0-4.5,0.1-6.7,0.4c-0.2,0-0.3,0.1-0.5,0.1c0.2,1.2,0.2,2.5,0,3.7
	c0,0.6-0.1,1.2-0.1,1.6c0,2.8,0.1,5.6,0.1,8.4c0,1.1,0.1,2.1,0.1,3.2C326.7,21,326.8,21.2,326.8,21.4z"/>
<path class="st1" d="M303.3,22.9c-1.4,0.8-0.6,4.1-0.2,5.3c0.9,1.9,2.4,3.4,4.2,4.3c3.6,2,8.7,1.4,11.4,4.9c0,0,1,1,1.2-0.2
	c0.2-1-1.6-2.5-2.2-3c-1.9-1.4-4.4-1.8-6.6-2.5c-2.4-0.7-4.9-2.1-5.9-4.5C304.7,26.2,305.4,21.6,303.3,22.9z"/>
<path class="st1" d="M335.5,24.5c-1.3,0.4-0.4,2.1-0.4,3c0,1.1-0.4,2.3-1,3.2c-1.7,2.2-5.1,2.6-7.7,3.2c-1.9,0.5-6.3,1.5-6.5,4
	c-0.2,2.8,3.7-0.6,4-0.7c3.7-1.3,8.4-1.6,11.2-4.6c1.2-1.2,1.9-2.8,2-4.5C337.2,27.1,337.2,24,335.5,24.5z"/>
<path class="st1" d="M308.8,49.3c0-5.2,4.9-8.3,9.4-9.5c1.2-0.3,2.5-0.4,3.8-0.1c1.3,0.2,2.5,0.7,3.5,1.5c1,0.7,1.9,1.7,2.6,2.8
	c0.6,1.1,1,2.4,1.1,3.6c0.7,5.7-3.6,10.3-9.3,10.6C314.9,58.4,308.8,54.8,308.8,49.3z M320.8,42.3c0.3,0.4,0.6,1,0,1.4
	s-0.8-0.1-1.1-0.5c-0.1-0.2-0.4-0.5-0.6-0.6c-0.7-0.2-1.7,0.5-2.2,0.9l-0.9,0.9c-1.2,1.3-2.9,3.2-3.8,1.6c-3.8,6.5,5.6,11.4,11,8.9
	C328.9,52.2,327.8,42.3,320.8,42.3z"/>
<path class="st1" d="M315.9,47.5c0.1,0.2,0.2,0.4,0.4,0.5c0.2,0.1,0.4,0.2,0.6,0.2c0.2,0,0.4-0.1,0.6-0.2c0.2-0.1,0.3-0.3,0.4-0.5
	C317.8,46.4,315.9,46.3,315.9,47.5z"/>
<path class="st1" d="M319.2,47.3c0,0.3,0.1,0.6,0.3,0.8c0.2,0.2,0.5,0.3,0.8,0.3c0.3,0,0.6-0.1,0.8-0.3c0.2-0.2,0.3-0.5,0.3-0.8
	s-0.1-0.6-0.3-0.8c-0.2-0.2-0.5-0.3-0.8-0.3c-0.3,0-0.6,0.1-0.8,0.3C319.3,46.7,319.2,47,319.2,47.3z"/>
<path class="st1" d="M316.8,50.7c-1.9,1.1,3.5,3.3,3.7,1.1c0.1-1-0.8-0.7-1.5-0.8C318.5,50.9,317.4,50.4,316.8,50.7z"/>
<path class="st1" d="M316,58.6c0,2.8,0.2,5.6,0.6,8.4c0.1,0.5,0.2,2.4,0.6,2.8c1,1,1-0.9,1.1-1.6c0.1-2.5-0.1-5.2-0.2-7.7
	c0.1-0.7,0-1.5-0.1-2.2C317.6,57.5,316,57.2,316,58.6z"/>
<path class="st1" d="M314,56.3c-4.1,4.6-9.8,4.3-15.5,4.7c-3,0.2-6.1,0.7-8.5,2.6c-1.1,0.9-2.1,2-2.8,3.3c-0.3,0.6-1.6,3.8,0.4,3.1
	c0.7-0.3,1.4-2.4,1.9-3.1c0.9-1.2,2.1-2.2,3.4-2.9c2.6-1.3,5.8-1.2,8.6-1.4c3-0.2,6.2-0.3,8.9-1.6c1.3-0.6,2.5-1.4,3.5-2.4
	c0.4-0.4,1.2-0.9,1.2-1.5C315.4,56.5,314.8,55.4,314,56.3z"/>
<path class="st1" d="M293.2,70.5c-3.9,0.1-7.7,0.3-11.6,0.5c-0.8,0.1-3.4-0.1-2.8,1.5c0.5,1.3,3.8,0.4,4.8,0.4
	c4-0.2,8.1-0.3,12.1-0.7c0.9-0.1,5,0,3.3-1.6C298.3,69.8,294.3,70.4,293.2,70.5z"/>
<path class="st1" d="M276.4,72.3c-1.2,1.6-0.7,5.5-0.6,7.4s-0.3,5.3,2.2,5.6c-0.8-0.1,0.6,0,0.8,0.1h4.9c2.6-0.1,5.2-0.1,7.8-0.3
	c1.1-0.1,7,0,7.2-1.1c0.3-1.4-5.4-0.6-6.4-0.6c-2.5,0.1-4.9,0.1-7.4,0.2h-3.7c-0.5,0-2.5,0.2-2.8-0.1c-0.3-0.3-0.1-2.9-0.1-3.3v-4
	c0-0.9,0.5-2.6,0.1-3.4c-0.1-0.2-0.2-0.4-0.3-0.5c-0.2-0.1-0.3-0.2-0.5-0.3c-0.2-0.1-0.4,0-0.6,0C276.7,72,276.5,72.1,276.4,72.3z"
	/>
<path class="st1" d="M296.3,72.4c0,3,0.2,5.9,0.8,8.8c0.2,1,0.6,2.9,1.5,3.4c0.2,0.1,0.4,0.2,0.7,0.2c0.2,0,0.5-0.1,0.7-0.2
	c0.2-0.1,0.4-0.3,0.5-0.5c0.1-0.2,0.1-0.4,0.1-0.7c0.1-1.3-0.6-2.9-0.7-4.2c-0.2-1.5-0.3-3-0.3-4.5c0-1.1,0.3-2.8-0.8-3.6
	c-0.2-0.1-0.5-0.2-0.8-0.2c-0.3,0-0.5,0.1-0.8,0.2c-0.2,0.1-0.4,0.3-0.6,0.6C296.4,71.8,296.3,72.1,296.3,72.4z"/>
<path class="st1" d="M304,71.7c-1.2,1.2-0.7,5-0.5,6.5c0.1,1.1,1.3,6.7,3.2,3.8c0.8-1.3-0.2-4.7-0.2-6.2c0-1,0.3-2.2,0.2-3.1
	c0-0.3-0.1-0.6-0.3-0.8c-0.2-0.2-0.4-0.4-0.7-0.5s-0.6-0.1-0.9-0.1C304.5,71.3,304.2,71.5,304,71.7z"/>
<path class="st1" d="M312.4,70.7c3.6-0.4,7.3-0.7,10.9-0.7h0.5c2.5,0,6.2-0.1,7.9,1.8c0.8,1.2,1.4,2.6,1.7,4
	c0.1,0.2,0.1,0.5,0.2,0.7c0.1,0.2,0.1,0.5,0.2,0.7c0.4,1.2,0.9,2.8,0.4,3.8c-0.3,0.5-0.7,1-1.4,0.8c-0.1,0-0.2,0-0.2-0.1
	s-0.1-0.1-0.2-0.1c0.2,0.1,0.3,0.3,0.3,0.5c0,0.2,0,0.4-0.1,0.6c-0.3,0.8-1.4,0.8-2.2,0.8h-0.6c-2.8,0.2-5.5,0.4-8.3,0.4h-8.1
	c-1,0-2,0.1-3,0.2c-1.3,0.1-2.5,0.2-3.8,0.2c-0.9,0-1.9-0.3-1.7-1.5c0.2-1,1.1-1.1,1.9-1.1h0.2c2.6-0.3,5.3-0.4,7.9-0.4h16.5
	c0.2,0,0.4,0.1,0.6,0.2c-0.2-0.3-0.2-0.6-0.2-0.9v-0.5c0-0.3-0.1-0.6-0.1-0.9c-0.1-1-0.2-2.1-0.4-3.1c0-0.2-0.1-0.3-0.1-0.5
	c-0.2-1.1-0.4-2.5-1.3-3.1c-0.9-0.6-2.6-0.6-3.9-0.5h-1c-3.5,0-7.1,0.1-10.6,0.5c-0.3,0-0.5,0-0.8,0.1c-1.3,0.1-2.7,0.2-4,0.5
	c-0.3,0.1-0.7,0.2-1,0.3c-1.1,0.4-2.6,0.9-3.2,0.3C303.9,71.6,311.4,70.8,312.4,70.7z"/>
<path class="st1" d="M326.4,54.4c-2.2,1.3,1.9,5.1,2.9,5.7c2.3,1.3,5.5,1.5,8.1,1.9c3.3,0.5,6.9,0.6,10,1.7c1.2,0.5,2.3,1.3,3.1,2.3
	c0.4,0.6,1.5,3,2.5,2.4c2-1.1-3.3-6-4.5-6.5c-2.7-1.2-5.8-1.5-8.7-2c-2.7-0.3-5.3-0.8-7.9-1.5c-1.3-0.4-2.5-1.2-3.3-2.3
	C328.1,55.2,327.7,53.6,326.4,54.4z"/>
<path class="st1" d="M360,69.2c-2.5,0.1-5.1,0.3-7.6,0.4l-4.3,0.3c-0.4,0-0.9,0.1-1.3,0.1c-1.2,0.1-2.5,0.1-3.7,0.3
	c-0.2,0-0.4,0-0.6,0.1c-1.2,0-2.3,0.2-3.4,0.6c-0.2-0.1-0.4-0.2-0.7-0.3c-0.2,0-0.5,0-0.7,0.1c-0.2,0.1-0.4,0.3-0.6,0.5
	c-0.1,0.2-0.2,0.4-0.3,0.7c0,2.1,0,4.1,0.2,6.2c0.2,1.4,0.5,2.8,1,4.2c-0.2,1.2,0.8,1.5,1.7,1.6c3.8,0.3,7.5,0.2,11.3-0.2
	c1.9-0.1,3.8-0.3,5.7-0.3h1.9c2.1,0.1,4.2-0.1,6.2-0.4h0.3c0.8-0.1,1.9-0.3,2-1.2c0-0.2,0-0.5-0.1-0.7c-0.1-0.2-0.3-0.4-0.6-0.4
	c0-0.4,0-0.9-0.1-1.3v-0.2c-0.1-1.2-0.4-2.4-0.7-3.6c-0.1-0.3-0.1-0.5-0.2-0.8c-0.1-0.3-0.1-0.6-0.2-1c-0.3-1.3-0.6-3-1.4-3.8
	c-1-0.7-2.3-0.9-3.5-0.7C360.2,69.2,360.1,69.2,360,69.2z M364.5,80.7c-0.3-0.9-0.5-1.9-0.5-2.9c-0.1-0.6-0.1-1.2-0.2-1.8
	c-0.1-0.4-0.1-0.8-0.2-1.2c-0.1-1-0.4-2-0.7-2.9c-0.5-1.2-0.9-1.1-2-1c-0.2,0-0.5,0-0.7,0.1l-3.2,0.3c-0.5,0-1,0.1-1.5,0.1
	c-2.2,0.2-4.4,0.3-6.6,0.5l-3.9,0.3c-1,0.1-2,0.3-3,0.5c-0.8,0.2-1.5,0.3-2.3,0.4c0,0.3,0,0.5-0.1,0.8c0,0.3-0.1,0.7-0.1,0.9
	c0,1.2,0.1,2.4,0.2,3.5v0.5c0,0.2,0.1,0.5,0.1,0.8c0.1,0.5,0.2,1,0.2,1.5h0.7c2.8,0,5.6-0.1,8.3-0.2h1.1c2.5-0.1,5-0.2,7.4-0.2
	c1,0,2,0,3,0.1C361.9,80.7,363.2,80.7,364.5,80.7z"/>
<path class="st1" d="M103.7,288.5c28.3,0,51.2-21.9,51.2-48.9s-22.9-48.9-51.2-48.9c-28.3,0-51.2,21.9-51.2,48.9
	S75.4,288.5,103.7,288.5z"/>
<path class="st2" d="M118.2,97.8c4.3,2.6,8.5,3.8,10.5,3.3c5-1.3,5.4-19.5,1.6-26.7c-3.8-7.2-23.6-10.3-24.6,3.9
	c-0.3,4.9,1.7,9.3,4.8,12.9l-5.5,25.6h15.9L118.2,97.8z"/>
<path class="st3" d="M124,66.7c-2.2-0.6-4.4-0.9-6.7-0.7c0.8-1.8,1.1-3.8,0.8-5.8c-0.3-1.8-1-3.6-1.9-5.2c-0.3-0.8-0.8-1.5-1.4-2.2
	c-0.6-0.6-1.4-1-2.3-1.2c-0.9-0.2-1.7-0.2-2.6,0c-0.4,0.1-0.7,0.2-1.1,0.3c-0.4,0.1-0.6-0.1-0.8-0.4c-0.7-0.6-1.6-0.9-2.5-1
	c-0.9-0.1-1.9,0-2.8,0.3c-0.9,0.3-1.7,0.8-2.3,1.5c-0.3,0.3-0.5,0.7-0.7,1.1c-0.1,0.2-0.1,0.3-0.2,0.3c-0.2,0.1-0.3,0.1-0.5,0.1
	c-0.8,0.3-1.5,0.7-2.1,1.2c-0.6,0.5-1.1,1.2-1.4,2c-0.5,1.3-0.6,2.7-0.5,4.1c0.1,1.7,1.6,6.2,3.1,7.8c1.3,1.4,3.1,2.4,5,2.8
	c-1.2,1.4-2.1,3.1-2.6,4.9c-0.7,1.9-1.1,4-1.2,6c-0.2,2-0.1,4,0.3,5.9c0.2,0.9,0.5,1.7,1,2.4c0.5,0.7,1.1,1.3,1.8,1.8
	c0.7,0.4,1.4,0.7,2.2,1c0.7,0.3,1.5,0.6,2.3,0.7c1.5,0.3,3.2,0.3,4.3-0.9c0.5-0.5,0.9-1,1.2-1.5c0.1-0.2,0.2-0.3,0-0.5l-0.6-0.6
	c-1.1-1-1.8-2.3-2-3.8c-0.2-1.6,0.2-3.6,1.8-4.2c1.9-0.8,3.9,0.1,5.6,1c0.3-1.2,0.8-2.4,1.6-3.4c0.8-1,1.7-1.9,2.8-2.5
	c2.5-1.3,5.4-1.4,8-2.5c0.7-0.2,1.4-0.7,1.9-1.2c0.3-0.2,0.4-0.6,0.5-0.9c0.1-0.4-0.2-0.8-0.4-1.1C130.4,70.8,126.2,67.3,124,66.7z"
	/>
<path class="st2" d="M183.2,237c2.5,8.7,8.6,25.1,17.1,43.9l8.1-2.4c-7.1-43.4-13-72.1-16.3-80.9c-2.2-5.8-19.1-5.1-17.2,6.5
	C175.8,209.1,179,222.2,183.2,237z M150,206.3c-13.2,2.7-40.5,12.4-48.4,15.5c-4.9,1.9-1.7,8.5,2.4,8c0.7-0.1,3.2-0.4,7-0.8
	c12-1.3,36.8-4.1,55.6-6.8c9.9-1.4,4.6-20-5.7-18C157.4,204.8,153.8,205.5,150,206.3z"/>
<path class="st2" d="M192.6,192.8c-1.3-4.4-62.7-20-62.7-20h-5v4.7l42.2,21.5c-0.1,0.7,0,1.5,0.1,2.2c-0.3,16,6.5,27.9,13.3,39.7
	c4.4,7.7,8.8,15.4,11.2,24.1l15.5-2.3c-0.5-1.2-1.2-6.4-2.1-13.5c-2.5-18-6.6-48.2-12.4-56.1C192.7,193,192.7,193,192.6,192.8z"/>
<path class="st2" d="M128.4,211.8c-3.9-0.8-7.4-1.5-10.5-2c-19.7-3.5-25.4-14-22-37h36.3c5.9,1.7,36.7,14.6,52.7,21.5
	c10.6,4.5,7.2,20.9,1.3,25.2c0,0.1,0,0.2-0.1,0.3c-0.1,0.1-0.1,0.2-0.2,0.2c-22.7,9.4-42,8.7-54.5,8.3c-5.2-0.2-9.2-0.3-11.7,0.3
	l-3.9-12.4L128.4,211.8z"/>
<path class="st2" d="M105.8,221.9c0-0.6-0.3-1.1-0.7-1.5c-0.4-0.4-1-0.6-1.5-0.5c-1.3,0.1-2.6,0.4-3.8,0.9c-1.5,0.9-3,1.8-4.5,2.8
	c0.9,1.9,16.4,33.7,16.4,33.7s5-0.8,3.9-3.8s-1.7-5-1.7-5l-0.6-18.7c0-0.1,0-0.3-0.1-0.4c-0.1-0.1-0.1-0.2-0.2-0.3
	c-0.1-0.1-0.2-0.2-0.4-0.2c-0.1,0-0.3-0.1-0.4,0l-2.6,0.2c-1.3-1-2.4-2.3-3.3-3.7C106,224.2,105.8,223,105.8,221.9z"/>
<path class="st2" d="M199,277c-0.2-0.1-0.5-0.2-0.8-0.2c-0.3,0-0.5,0-0.8,0.1c-0.3,0.1-0.5,0.3-0.7,0.5s-0.3,0.4-0.4,0.7
	c-0.5,1.2-0.8,2.5-0.9,3.8c0.1,1.7,0.3,3.5,0.6,5.2h37.5c0,0,1.5-4.8-1.7-5.2c-3.2-0.4-5.2-0.7-5.2-0.7l-17.1-7.6
	c-0.2-0.1-0.5-0.1-0.8,0c-0.2,0.1-0.4,0.3-0.5,0.5l-1,2.4c-1.5,0.7-3.1,1.2-4.7,1.4C201.3,277.8,200.1,277.5,199,277z"/>
<path class="st2" d="M181.2,179.2L160,163.6l-4.7,11.6l21,8.7c5.9,7,9.3,9.9,10,8.7c0.6-1,0.1-1.9-0.3-2.7c-0.4-0.8-0.6-1.3-0.4-1.8
	c0.5-1.3,4.5-1.2,8.3-0.9c3.8,0.3,2.7-1.4,1.8-2.2C191.1,182.4,186.2,180.5,181.2,179.2z M70.1,206.7c1.9-4,8.6-42.5,8.6-42.5
	l13.9,0.1c0,0-12.9,41.5-13.9,44.1c-1.3,3.3,0.9,8.1,2.5,11.4c0.2,0.5,0.4,0.9,0.6,1.4c-2.1,1-3.1-0.2-4.2-1.4
	c-1.2-1.4-2.5-2.8-5.5-1.4c-1.2,0.5-2.3,1.1-3.4,1.8c-3.7,2.2-7.2,4.2-11.9,1.3c-0.7-0.5-1.6-2.2,0.4-3.5
	C62.1,214.5,69.1,208.6,70.1,206.7z"/>
<path class="st4" d="M118.1,105.9l5.7-1c21.3,18.4,30.1,53.8,56.2,72.6l-6.3,7.8C128.4,179.7,117.2,136.5,118.1,105.9z"/>
<path class="st2" d="M93,178.1h50.8c2.3,0,1.9-3.4,1.5-5c-3.9-19.5-19-40.6-19-68.4l-14.7-2.3C99.6,121.9,95.4,145.9,93,178.1z"/>
<path class="st4" d="M95,121.3c-1.4,0-2.7-0.4-3.9-1.1c-1.2-0.7-2.1-1.7-2.7-3c-5.4-9.7-3.4-15,2.3-16.8c3.1-1,6.1-0.3,9.7,0.5
	c3.4,0.8,6.8,1.3,10.3,1.4c0.4,0,0.7,0,1.1,0.1l4.9,0.3c0,0,19.8,67,10.9,89.4H87.4c-1.9,4.8-4.1,9.5-6.6,14H69.9
	C68.6,168.1,83,138.9,95,121.3z"/>
<path class="st2" d="M305.5,55.9c-4.3,2.6-8.5,3.9-10.5,3.3c-5-1.3-5.4-19.5-1.6-26.7s23.7-10.3,24.7,3.9c0.2,4.8-1.6,9.5-4.8,13
	l5.5,25.6h-16L305.5,55.9z"/>
<path class="st4" d="M302.5,24.2c2.1-0.3,7.8-0.6,8.8-0.6c0.7,0,1.4,0.2,1.8-0.5c0.2-0.6,0.3-1.3,0.3-1.9c0.1-0.7,0.3-1.3,0.4-2
	c0.5-1.9,1.2-3.7,2.1-5.4c1.8-3.2,4.5-5.7,7.9-7.1c3.8-1.5,7.9-2.1,11.9-1.6c4.3,0.3,8.2,1.8,12.2,3.1c3.8,1.4,7.9,1.7,11.9,1.1
	c4.1-0.6,7.1-2.8,10.6-4.9c3.5-2.2,7.6-3.4,11.7-3.2c3.8,0.4,7.5,1.8,10.6,4c3,1.8,5.5,4.6,6.9,7.8c1.5,3.6,1.5,7.6-1,10.8
	c-3.6,4.7-10.2,5.9-15.7,5.7c-3.2-0.1-6.3-0.7-9.3-1.7c-4-1.4-7.5-3.8-11.3-5.8c-1.8-0.9-3.6-1.7-5.5-2.2c-1.9-0.5-3.7-0.8-5.4,0.4
	c-1.7,1.3-3.5,2.3-5.4,3.1c-2,0.7-4,1.1-6.1,1.1c-4,0-8-1.3-12-2.1c-3.2-0.7-6.6-1.4-9.9-0.7c-1.4,0.3-3.4,0.8-3.8,2.3
	c8.3,1.5,11.5,11.8,9.2,19.3c-1.3,4.1-8.8,8.8-11.8,6.7c-1.9-1.4-0.7-3.1,0-4.3c1.4-2.2,1.9-5.1-0.7-6.7c-2.2-1.3-4.6,1.9-4.6,1.8
	c-0.6,0-5.9-3.1-9.6-7.5c-3.6,0.2-4.2-2.2-3.3-4.1S299.6,24.7,302.5,24.2z"/>
<path class="st5" d="M329.4,131.2l-25,81.9l-12.1,69.6h-9.5l12.8-151.5H329.4z"/>
<path class="st5" d="M338.4,131.2c-1.7,45,0.3,68.2,0.7,72.2c0.4,4,5.6,30.6,17.9,80.7l-10.1-3.5c-19.5-45.9-26.1-69.8-28.3-75.9
	c-2.2-6.1-8.2-30.6-17.8-73.6h37.6V131.2z"/>
<path class="st4" d="M354.4,280.1c0.2-0.1,0.5-0.2,0.8-0.2c0.3,0,0.5,0,0.8,0.1c0.3,0.1,0.5,0.3,0.7,0.5c0.2,0.2,0.3,0.4,0.4,0.7
	c0.5,1.2,0.8,2.5,0.9,3.8c-0.1,1.8-0.3,3.5-0.6,5.3h-37.5c0,0-1.5-4.8,1.7-5.2c3.2-0.4,5.2-0.7,5.2-0.7l17.1-7.6
	c0.2-0.1,0.5-0.1,0.8,0c0.2,0.1,0.4,0.3,0.5,0.5l1,2.4c1.5,0.7,3.1,1.2,4.7,1.4C352.1,280.9,353.2,280.6,354.4,280.1z"/>
<path class="st4" d="M291.9,280.1c0.2-0.1,0.5-0.2,0.8-0.2c0.3,0,0.5,0,0.8,0.1c0.3,0.1,0.5,0.3,0.7,0.5c0.2,0.2,0.3,0.4,0.4,0.7
	c0.5,1.2,0.8,2.5,0.9,3.8c-0.1,1.8-0.3,3.5-0.6,5.3h-37.5c0,0-1.5-4.8,1.7-5.2c3.2-0.4,5.2-0.7,5.2-0.7l17.1-7.6
	c0.2-0.1,0.5-0.1,0.8,0c0.2,0.1,0.4,0.3,0.5,0.5l1,2.4c1.5,0.7,3.1,1.2,4.7,1.4C289.6,280.9,290.8,280.6,291.9,280.1z"/>
<path class="st2" d="M374.9,152.2c-2.5-3.6-19.2-52.6-19.2-52.6l-14.4,2.1c0,0,24,51,25.3,53.4c1.8,3.1,0.2,8.1-0.9,11.6
	c-0.2,0.5-0.3,1-0.4,1.5c2.2,0.6,3.1-0.6,4-2c0.9-1.4,2.1-3.1,5.3-2.2c1.2,0.4,2.4,0.9,3.6,1.3c4,1.6,7.7,3.1,11.9-0.4
	c0.7-0.6,1.2-2.4-0.9-3.4C383.9,158.8,376.1,154,374.9,152.2z M250.6,149.7l16.1-20.8l7.7,9.8l-17.8,14.2c-3.8,8.3-6.2,12-7.2,11.1
	c-0.8-0.8-0.6-1.8-0.5-2.7c0.1-0.7,0.3-1.4-0.1-1.9c-0.9-1.1-4.7,0.1-8.2,1.5c-3.5,1.4-3-0.6-2.3-1.6
	C241.9,155.5,246,152.2,250.6,149.7z"/>
<path class="st2" d="M306,64.9l-5.8-0.2c-4.5,32.9-47.6,61-48.8,73.2c-0.4,4.5,3,6.2,1.6,7.8l8.2,4.4c1-1.6,4.1,0.7,9.4-2
	C275.9,145.4,311.2,102.4,306,64.9z"/>
<path class="st2" d="M313.9,57.2c0.5-0.1,1-0.1,1.6,0c0.5,0.1,1,0.3,1.5,0.6c0.4,0.3,0.8,0.7,1.1,1.1s0.5,0.9,0.6,1.5l0.5,2.5
	c11.9,6.7,41.9,27.6,55.3,72.5c1,3.2,0.9,6.6-0.3,9.7c-0.5,1.5-1,2.8-0.5,4.2l-9.3,4c-0.2-1.1-1.5-1.7-3.2-2.6
	c-2.5-1.2-5.8-2.9-7.5-6.8c-1.6-3.7-3.9-8.4-6.5-13.5c0.8,7.2,0.4,14-1.8,19.8c-5.5,14.7-50.3,5.7-56.8-7.5
	c-3.4-7.1-0.9-13.8,2.4-22.6c4.2-11.2,9.7-26,6.1-49.4l-1.1-5.4c-0.1-0.5-0.1-1,0-1.6c0.1-0.5,0.3-1,0.6-1.5
	c0.3-0.4,0.7-0.8,1.1-1.1c0.4-0.3,0.9-0.5,1.5-0.6L313.9,57.2z"/>
</svg>
