<svg width="920" height="408" viewBox="0 0 920 408" fill="none" xmlns="http://www.w3.org/2000/svg">
<path d="M688.603 56.3362C687.383 54.3641 686.036 52.3925 684.561 50.5054C662.633 22.3672 618.286 4.7443 571.06 1.72644C533.278 -0.654178 496.558 7.60192 465.026 20.9695C433.557 34.2948 408.361 52.9798 373.369 62.7855C324.037 76.5569 269.015 87.4898 230.395 116.404C186.494 149.249 169.709 198.857 190.604 240.584C210.92 281.304 277.9 294.257 329.968 312.019C423.562 344.007 553.101 365.009 650.257 326.663C766.655 280.758 745.082 177.629 707.869 106.144C699.385 89.858 698.297 72.2817 688.603 56.3362Z" fill="#BEE8C7"/>
<path d="M8.95016 389.897C4.91723 390.035 -0.728874 391.974 0.077712 395.99C0.615436 398.76 3.97621 399.867 6.79926 400.283C74.2836 411.223 143.381 410.115 211 399.591C210.193 395.159 193.793 396.959 186.802 395.852C178.199 394.328 169.595 392.805 160.992 391.005C146.473 387.82 131.686 386.573 116.764 387.127L8.95016 389.897Z" fill="#BEE8C7"/>
<path d="M53.1724 139.576C51.5727 143.511 49.9729 147.592 50.7001 151.819C51.2818 154.442 52.2998 156.92 53.8996 159.106C58.2626 166.248 63.3528 173.098 68.8792 179.365C70.3336 181.405 72.3696 182.863 74.6966 183.592C76.8781 168.142 77.3144 152.547 76.2963 136.952C76.2963 135.495 76.0055 134.183 75.4237 132.871C74.4057 131.414 72.9514 130.394 71.2062 129.811C67.4249 128.062 63.4982 125.875 59.5715 124.418C58.2626 126.021 54.3359 139.576 53.1724 139.576Z" fill="white" stroke="#2E3374" stroke-width="1.5" stroke-miterlimit="10"/>
<path d="M214.118 92.859L198.296 90.4438C198.296 90.4438 196.728 87.2234 199.151 86.2842L224.096 90.3096L214.118 92.859Z" fill="#2E3374"/>
<path d="M165.337 122.594C167.817 122.887 170.297 123.033 172.777 122.74C173.652 122.302 201.368 100.37 211.871 94.96C216.83 91.8895 222.374 90.2812 228.063 90.2812C230.688 90.1349 233.898 90.1349 235.356 92.4743C236.232 94.0827 236.086 96.1297 235.065 97.5918C234.044 99.0539 232.585 100.224 230.98 100.955C227.625 102.709 223.978 103.733 220.04 104.025C219.019 104.025 217.997 104.171 217.122 104.464C215.955 105.049 214.788 105.926 214.059 107.096C206.182 116.453 198.013 125.372 189.406 133.999C184.884 138.531 179.633 143.356 173.214 144.088C170.88 144.234 168.546 144.088 166.358 143.649C161.982 142.772 157.606 141.309 153.667 139.262C152.792 138.824 152.063 138.239 151.333 137.508C150.75 136.484 150.458 135.315 150.458 133.999C150.604 129.905 152.063 126.103 154.542 123.033C158.189 118.793 160.961 121.717 165.337 122.594Z" fill="white" stroke="#2E3374" stroke-width="1.5" stroke-miterlimit="10"/>
<path d="M126.64 68.2997C126.937 71.7169 126.788 75.1341 126.194 78.5514C125.6 81.9686 123.522 85.6829 120.255 86.5744C118.324 87.1687 115.949 86.5744 114.315 87.9116C113.127 88.9516 112.682 90.5859 111.939 91.9231C110.306 94.1517 107.633 95.4889 104.96 95.4889C102.139 95.4889 99.4664 94.8946 96.9421 93.8546C96.1996 93.706 95.6057 93.4088 95.1602 92.9631C94.4178 92.0717 94.1208 91.0316 94.2693 89.843C93.9723 81.3743 93.8238 72.9055 93.9723 64.4367C93.8238 62.0595 94.2693 59.5338 95.1602 57.3051C96.6451 54.6308 99.1694 52.4022 101.991 51.2136C106 49.1335 110.455 47.6478 114.909 47.0535C119.067 46.4592 125.897 46.7563 126.64 52.105C126.64 54.0365 126.64 55.968 126.343 57.8994C126.194 61.3167 126.491 64.8825 126.64 68.2997Z" fill="white" stroke="#2E3374" stroke-width="1.5" stroke-miterlimit="10"/>
<path d="M128.153 41.1837C129.465 43.1971 129.757 45.6418 129.028 47.7989C128.153 49.956 126.841 51.9693 124.946 53.4074C123.779 54.1265 122.905 55.1331 122.03 56.1398C120.28 58.7283 121.155 62.1797 120.572 65.3435C120.572 65.6311 120.426 65.9187 120.135 65.9187C119.843 65.9187 119.697 65.7749 119.551 65.4873C118.239 64.0492 116.052 63.9054 114.594 65.1997C113.72 65.9187 113.282 67.0692 113.428 68.2196C113.574 70.0891 115.323 71.671 115.323 73.5405C115.178 74.5472 114.74 75.5538 114.011 76.4167C113.428 77.2795 112.699 77.8548 111.824 78.2862C111.095 78.43 110.221 78.43 109.492 78.2862L93.7459 76.5605C92.8711 76.5605 91.9964 76.2729 91.1216 75.9853C88.9347 74.9786 87.1852 73.1091 86.602 70.8082C86.0188 68.5073 85.7272 66.0625 85.873 63.7616C85.873 59.4474 85.7272 54.8455 83.8319 50.9627C83.5403 50.3874 83.3945 49.8122 83.3945 49.0932C83.5403 48.6618 83.6861 48.2303 83.9777 47.9427C86.4562 44.7789 90.2468 42.6218 91.9964 38.8828C92.288 38.1638 92.5795 37.5885 93.0169 36.8695C94.3291 35.1438 96.8076 35.1438 98.9945 35.2876L108.763 35.8628C110.95 36.0067 112.699 35.1438 114.886 35C116.49 35 118.093 35.2876 119.406 36.0067C122.176 37.0133 126.258 38.5952 128.153 41.1837Z" fill="#F8B243" stroke="#2E3374" stroke-width="1.5" stroke-miterlimit="10"/>
<path d="M93.2207 90.2285C99.1188 91.2547 105.312 90.9615 111.357 91.2547C120.499 91.5479 129.936 93.1604 137.604 98.1447C140.7 100.344 143.65 102.689 146.304 105.328L159.574 117.495C160.607 118.228 161.196 119.548 160.902 120.72C160.164 127.171 157.068 133.181 152.202 137.432C151.907 137.725 151.465 138.019 151.17 138.019C150.727 138.019 150.432 137.872 149.99 137.725L135.245 130.982C134.802 133.914 134.802 136.846 135.245 139.631C139.079 160.741 135.245 182.877 133.328 204.28C133.328 205.306 133.033 206.186 132.738 207.065C132.148 207.945 131.264 208.678 130.231 209.117C121.974 213.662 111.947 213.955 102.363 213.808C93.5156 213.808 84.0786 213.369 77.0009 208.238C76.1161 207.651 75.3789 206.918 74.9365 206.039C74.3467 204.866 74.1993 203.547 74.1993 202.227L73.3145 146.375C73.3145 145.055 73.1671 143.736 72.7247 142.416C71.3977 139.191 59.1591 134.061 57.0947 124.092C58.8642 114.124 84.8159 91.8411 93.2207 90.2285Z" fill="#15ADC2" stroke="#2E3374" stroke-width="1.5" stroke-miterlimit="10"/>
<path d="M131.92 206.833C131.92 206.833 143.883 271.844 143.883 280.561C143.883 289.278 128.273 372.906 128.273 372.906C128.273 372.906 114.559 373.645 111.058 368.916L117.769 288.835L106.681 254.409L100.992 299.473L64.5195 370.837L46.5752 359.756L81.8803 282.925C81.8803 282.925 64.2277 245.1 75.0235 205.946L131.92 206.833Z" fill="#2E3374" stroke="#2E3374" stroke-width="1.5" stroke-miterlimit="10"/>
<path d="M112.323 395.116C112.323 395.264 112.323 395.561 112.469 395.709C112.615 396.005 112.908 396.153 113.2 396.153C115.83 397.043 118.606 397.339 121.236 397.339C130.148 397.636 138.915 397.784 147.827 397.932C147.827 393.633 144.175 390.224 140.23 388.593C136.285 386.963 132.048 386.666 127.957 385.629C127.08 385.481 126.35 385.036 125.765 384.443C125.473 383.85 125.327 383.109 125.327 382.368L125.035 373.918C125.181 372.881 124.742 371.843 124.158 371.102C123.72 370.805 123.281 370.657 122.843 370.509C121.236 370.064 117.145 368.285 115.538 369.323C113.93 370.361 113.93 374.659 113.784 376.438C112.762 382.516 112.323 388.89 112.323 395.116Z" fill="white" stroke="#2E3374" stroke-width="1.5" stroke-miterlimit="10"/>
<path d="M40.3647 378.332C39.7736 379.059 39.9214 380.077 40.6603 380.658C40.6603 380.658 40.6603 380.658 40.808 380.658L53.8119 395.2C54.1074 395.636 54.5507 396.072 54.994 396.218C55.5851 396.508 56.1762 396.508 56.7673 396.508C62.087 396.654 67.5545 396.654 72.8743 396.508C72.1354 393.019 69.9189 389.965 66.6679 388.365C64.5991 387.347 62.2348 386.911 60.4615 385.457C58.9838 384.003 57.8017 382.403 56.915 380.513C55.4373 378.477 55.5851 375.86 57.2106 373.969L59.8705 369.607C60.6093 368.589 60.9049 367.426 60.6093 366.263C60.166 365.681 59.7227 365.099 58.9838 364.808C57.0628 363.791 54.5507 361.609 52.4819 361.173C50.4131 360.737 49.5265 362.773 48.4921 364.518C45.8322 369.171 42.4335 373.679 40.3647 378.332Z" fill="white" stroke="#2E3374" stroke-width="1.5" stroke-miterlimit="10"/>
<path d="M866.255 397.231C873.616 397.638 881.646 398.316 887 403.336C822.756 410.392 757.976 409.442 694 400.487C698.015 392.889 708.187 391.804 716.619 391.668C740.711 391.125 768.951 384.206 792.775 388.276C817.268 392.482 841.36 397.231 866.255 397.231Z" fill="#BEE8C7"/>
<path d="M781.037 260.059C776.22 264.721 789.262 311.168 798.038 325.43C803.294 333.987 812.053 339.519 822.406 338.502C834.713 337.296 846.643 326.731 845.32 314.684C842.754 291.262 806.482 266.238 793.396 260.516C789.875 258.982 784.304 256.897 781.037 260.059Z" fill="#A7E7B5"/>
<path d="M836.262 333.693C826.44 313.35 812.749 295.022 795.921 279.687C795.833 279.607 795.73 279.545 795.618 279.505C795.506 279.464 795.387 279.445 795.268 279.45C795.148 279.454 795.031 279.482 794.923 279.53C794.814 279.579 794.716 279.648 794.635 279.734C794.554 279.82 794.491 279.92 794.449 280.03C794.408 280.139 794.389 280.256 794.393 280.373C794.398 280.489 794.426 280.604 794.476 280.71C794.525 280.817 794.596 280.912 794.684 280.992C811.407 296.229 825.001 314.451 834.733 334.678C835.196 334.285 835.71 333.954 836.262 333.693Z" fill="white"/>
<path d="M918.965 241.636C923.778 246.299 910.739 292.754 901.978 307.027C896.728 315.577 887.976 321.11 877.623 320.093C865.284 318.895 853.329 308.32 854.686 296.254C857.25 272.819 893.49 247.799 906.564 242.076C910.091 240.559 915.648 238.508 918.965 241.636Z" fill="#8AC096"/>
<path d="M905.334 261.339C905.255 261.249 905.158 261.177 905.049 261.125C904.941 261.074 904.822 261.045 904.701 261.04C904.581 261.035 904.46 261.054 904.347 261.097C904.235 261.14 904.132 261.204 904.046 261.287C887.229 276.605 873.55 294.913 863.739 315.233L865.257 316.268C874.99 296.04 888.594 277.819 905.334 262.589C905.421 262.509 905.49 262.412 905.537 262.304C905.584 262.197 905.608 262.081 905.608 261.964C905.608 261.847 905.584 261.731 905.537 261.624C905.49 261.516 905.421 261.42 905.334 261.339Z" fill="white"/>
<path d="M836.364 333.363C835.902 333.724 835.432 334.068 834.953 334.404C843.185 352.455 848.37 371.85 850.281 391.737C850.295 391.955 850.389 392.158 850.542 392.307C850.695 392.455 850.896 392.538 851.106 392.537H851.188C851.301 392.53 851.412 392.498 851.512 392.445C851.613 392.391 851.703 392.316 851.775 392.225C851.846 392.134 851.9 392.028 851.931 391.915C851.962 391.801 851.97 391.683 851.955 391.566C850.021 371.372 844.746 351.681 836.364 333.363Z" fill="#A7E7B5"/>
<path d="M863.674 314.953C855.271 333.268 849.982 352.961 848.043 373.155C848.028 373.272 848.037 373.39 848.067 373.503C848.098 373.616 848.15 373.721 848.222 373.812C848.293 373.903 848.381 373.978 848.481 374.032C848.581 374.086 848.691 374.118 848.803 374.127H848.87C849.08 374.127 849.283 374.044 849.437 373.894C849.59 373.743 849.683 373.538 849.696 373.319C851.613 353.435 856.805 334.044 865.046 315.993C864.566 315.667 864.129 315.314 863.674 314.953Z" fill="#8AC096"/>
<path d="M862.786 400.427H834.599L828.412 366.237H868.973L862.786 400.427Z" fill="#8AC096"/>
<path d="M751.375 294.89C750.781 297.244 750.781 299.745 751.672 302.099C755.983 320.49 759.847 339.175 759.996 358.008C759.996 363.158 759.698 368.454 757.618 373.162C755.685 377.282 752.713 380.96 749.146 383.756C747.808 384.933 746.173 386.404 746.619 388.022C746.916 388.758 747.362 389.346 747.957 389.641C750.335 391.406 753.605 391.848 756.131 390.376C757.618 389.494 758.807 388.464 759.847 387.14L769.805 376.399C770.4 375.811 770.846 375.222 771.143 374.634C771.44 373.162 771.292 371.691 770.697 370.367C766.684 357.714 772.035 344.178 772.778 330.936C773.373 318.577 769.805 306.513 766.387 294.743C766.09 293.418 765.495 292.241 764.752 291.064C763.266 289.446 761.185 288.563 758.955 288.71C756.726 288.857 754.645 289.446 752.713 290.181" fill="white"/>
<path d="M751.375 294.89C750.781 297.244 750.781 299.745 751.672 302.099C755.983 320.49 759.847 339.175 759.996 358.008C759.996 363.158 759.698 368.454 757.618 373.162C755.685 377.282 752.713 380.96 749.146 383.756C747.808 384.933 746.173 386.404 746.619 388.022C746.916 388.758 747.362 389.346 747.957 389.641C750.335 391.406 753.605 391.848 756.131 390.376C757.618 389.494 758.807 388.464 759.847 387.14L769.805 376.399C770.4 375.811 770.846 375.222 771.143 374.634C771.44 373.162 771.292 371.691 770.697 370.367C766.684 357.714 772.035 344.178 772.778 330.936C773.373 318.577 769.805 306.513 766.387 294.743C766.09 293.418 765.495 292.241 764.752 291.064C763.266 289.446 761.185 288.563 758.955 288.71C756.726 288.857 754.645 289.446 752.713 290.181" stroke="#2E3374" stroke-width="1.5" stroke-miterlimit="10"/>
<path d="M771.721 296.98C773.47 311.084 775.22 325.334 776.823 339.585C778.427 354.423 779.885 369.849 776.094 384.246C775.365 387.184 774.345 390.71 776.24 393.208C778.135 395.411 781.342 395.852 783.821 394.236C786.153 392.62 787.611 389.976 788.049 387.184C788.34 384.393 788.34 381.602 788.049 378.81C787.028 360.887 791.11 342.964 792.276 325.041C792.859 318.283 792.568 311.525 791.402 304.767C790.09 298.009 786.737 288.312 780.468 284.493C772.012 279.792 770.992 291.985 771.721 296.98Z" fill="white" stroke="#2E3374" stroke-width="1.5" stroke-miterlimit="10"/>
<path d="M742.337 390.495C741.896 390.935 741.601 391.376 741.307 391.963C741.16 392.992 741.748 394.02 742.631 394.607C743.662 395.048 744.692 395.195 745.723 395.195C749.697 395.342 753.671 394.167 756.91 391.816C761.178 388.438 763.239 382.71 767.949 379.919C768.096 379.772 768.244 379.772 768.391 379.772C769.716 379.625 769.274 382.122 770.304 382.71C771.335 383.297 772.365 381.829 772.512 380.653C772.954 378.597 772.954 376.541 772.512 374.484C772.365 373.75 772.071 373.016 771.335 372.869C770.599 372.722 769.716 373.603 769.274 374.338C767.949 376.835 766.183 379.038 763.975 380.653C759.706 383.297 755.585 381.975 751.022 383.004C747.342 383.738 744.839 387.851 742.337 390.495Z" fill="#2E3374" stroke="#2E3374" stroke-width="1.5" stroke-miterlimit="10"/>
<path d="M774.213 395.07C774.066 396.875 774.214 398.68 774.656 400.335C775.098 402.14 776.278 403.493 777.9 404.245C779.964 404.696 782.029 404.245 783.651 402.741C786.452 400.485 788.369 397.326 789.106 393.867C789.991 390.408 790.139 386.798 789.696 383.188C789.549 381.684 789.254 380.029 787.927 379.428C787.337 383.038 784.683 385.895 781.144 386.798C778.932 387.399 776.573 386.196 775.688 383.94C774.066 386.647 774.361 391.611 774.213 395.07Z" fill="#2E3374" stroke="#2E3374" stroke-width="1.5" stroke-miterlimit="10"/>
<path d="M744.16 233.009C743.723 242.115 743.868 251.074 744.598 260.18L746.057 282.357L747.662 306.59C747.662 308.793 748.1 310.996 749.267 313.052C750.726 315.108 753.207 315.549 755.542 315.696C768.528 317.018 781.66 317.752 794.793 317.605C796.544 317.605 798.441 317.458 799.608 315.989C800.338 314.668 800.775 313.346 800.775 311.877C801.505 304.093 801.651 296.309 802.38 288.672C803.694 276.041 806.466 263.704 807.779 251.074C809.093 238.443 808.363 224.931 803.11 213.769C802.526 212.447 801.797 211.272 800.629 210.244C799.462 209.51 798.149 209.069 796.836 209.069C784.579 207.747 772.322 207.16 759.919 207.454C757.73 207.454 753.353 206.573 751.456 207.894C749.851 208.922 748.538 213.475 747.808 215.385C745.911 220.966 744.598 226.84 744.16 233.009Z" fill="#D5401A" stroke="#2E3374" stroke-width="1.5" stroke-miterlimit="10"/>
<path d="M747.346 89.2417C745.441 94.7981 744.415 100.793 746.027 106.203C746.174 106.642 746.32 106.934 746.614 107.227C746.907 107.373 747.2 107.519 747.493 107.666L749.691 108.397C750.717 108.835 751.743 108.982 752.769 108.835C753.795 108.689 754.674 107.812 754.674 106.642L755.554 109.859L767.718 108.689C768.158 108.689 768.451 108.543 768.89 108.397C769.33 107.958 769.477 107.519 769.477 106.934C770.209 99.4772 770.063 92.0199 770.209 84.5627C770.209 80.4685 770.356 76.3743 768.744 72.5725C767.132 68.7708 763.175 65.8464 759.218 66.5775C755.261 67.3086 753.209 70.5254 752.622 74.181C751.597 79.4449 749.105 84.2702 747.346 89.2417Z" fill="#2E3374" stroke="#2E3374" stroke-width="1.5" stroke-miterlimit="10"/>
<path d="M806.86 126.231C809.639 131.774 809.931 138.192 810.224 144.465C810.809 156.863 814.903 170.429 809.639 181.807C802.473 197.268 817.097 205.437 806.567 217.981C804.959 219.878 749.971 223.67 745.584 213.897C743.975 210.396 748.363 197.706 748.07 193.768C746.315 173.2 744.56 151.904 751.434 132.358C752.75 127.982 755.09 123.898 758.307 120.397C773.663 105.227 797.208 105.81 806.86 126.231Z" fill="white" stroke="#2E3374" stroke-width="1.5" stroke-miterlimit="10"/>
<path d="M753.457 90.1722C753.005 93.2206 753.005 96.4143 753.457 99.4627C754.06 102.511 755.869 105.269 758.733 107.011C760.542 107.737 762.501 108.318 764.461 108.753C765.064 108.898 765.516 109.044 765.968 109.479C766.27 109.769 766.421 110.205 766.571 110.64C766.873 112.673 767.024 114.705 766.873 116.737C766.722 118.77 767.626 120.947 769.285 122.254C770.792 123.125 772.45 123.27 773.957 122.544C775.465 121.963 776.821 120.947 778.027 119.786C778.781 119.06 779.384 118.334 779.987 117.463C781.494 114.705 782.097 111.657 781.796 108.608C781.796 104.543 781.343 100.479 781.343 96.5594C781.343 89.4464 784.961 85.0914 784.66 77.9784C784.66 76.6719 781.946 72.6073 781.343 71.446C780.74 70.575 780.138 69.704 779.233 68.9782C778.479 68.1072 777.424 67.3814 776.369 66.9459C774.711 66.3652 773.053 66.3652 771.395 66.6555C767.777 67.2362 764.31 68.1072 760.994 69.4137C759.637 69.8492 758.432 70.575 757.376 71.446C756.472 72.317 756.02 73.6234 756.02 74.9299C755.869 76.5267 755.568 78.1235 755.115 79.7204C754.512 83.3495 753.91 86.6882 753.457 90.1722Z" fill="white" stroke="#2E3374" stroke-width="1.5" stroke-miterlimit="10"/>
<path d="M754.585 56.779C750.936 60.3055 748.601 65.1544 748.017 70.1503C747.726 71.7666 747.872 73.3829 748.163 74.9992C748.455 76.1747 749.039 77.2033 750.061 78.0849C751.228 78.8196 752.541 79.1135 753.709 78.9665C755.168 78.9665 756.482 78.5257 757.649 77.6441C758.817 76.7625 759.401 75.2931 759.109 73.9707L759.546 77.6441C759.546 77.938 759.692 78.0849 759.692 78.3788C759.984 78.6727 760.422 78.6727 760.714 78.6727L768.74 78.2319C769.762 78.3788 770.638 77.791 770.929 76.7625L772.389 72.9421C772.389 74.4115 772.827 76.0278 773.556 77.2033C774.724 78.6727 776.913 78.9666 778.518 78.0849C778.518 88.3705 778.372 98.95 773.848 108.354C775.308 110.264 777.643 111.293 780.123 111.146C781.875 111.293 783.48 110.852 784.939 109.97C786.399 109.089 787.42 107.472 787.42 105.856L787.274 108.501C787.274 108.795 787.274 108.942 787.42 109.236C787.566 109.383 787.858 109.53 788.15 109.383L796.322 108.795C797.344 108.942 798.219 108.207 798.365 107.325C800.7 103.064 802.598 98.5092 804.057 93.9542C806.1 86.4604 805.954 78.5257 805.224 70.885C805.079 68.6809 804.641 66.4769 803.911 64.2728C801.576 57.9545 794.863 54.2811 788.296 53.1056C781.729 51.9301 775.308 52.8117 768.74 52.2239C763.779 51.3423 758.379 53.1056 754.585 56.779Z" fill="#2E3374" stroke="#2E3374" stroke-width="1.5" stroke-miterlimit="10"/>
<path d="M757.064 201.228L706.218 208.481L690 136.836L740.846 129.583L757.064 201.228Z" fill="white" stroke="#2E3374" stroke-width="1.5" stroke-miterlimit="10"/>
<path d="M820.182 181.884C820.182 184.062 820.182 186.53 818.736 188.272C817.291 190.015 814.689 190.595 812.375 190.886C795.461 192.773 778.547 189.289 763.657 181.013C762.5 180.432 761.488 179.561 760.621 178.544C760.042 177.383 759.609 175.931 759.753 174.624C759.609 171.865 759.753 169.107 759.898 166.348C759.898 165.186 760.332 163.88 761.199 163.154C762.066 162.718 762.934 162.573 763.946 162.718L786.787 163.88C787.51 164.025 788.377 163.88 788.956 163.444C789.534 162.863 789.823 162.282 789.823 161.557C791.124 154.152 789.823 146.602 790.546 139.197C791.124 133.824 793.582 124.677 799.798 123.225C807.027 121.483 809.34 130.63 811.219 135.712C816.712 150.377 819.748 165.912 820.182 181.884Z" fill="white" stroke="#2E3374" stroke-width="1.5" stroke-miterlimit="10"/>
<path d="M749.354 161.138C748.476 160.701 747.452 160.265 746.428 160.119C745.55 159.974 744.526 159.828 743.648 159.828C741.6 159.828 739.698 159.828 737.65 159.828C735.894 159.828 734.139 159.974 732.383 160.41C731.944 160.556 731.359 160.701 731.066 161.138C730.774 161.429 730.774 161.865 730.774 162.302C730.628 165.358 732.237 168.123 734.87 169.578C735.455 169.869 736.041 170.16 736.333 170.743C736.479 171.034 736.479 171.47 736.626 171.761C736.918 172.343 737.504 172.78 738.089 172.925C741.307 174.381 744.672 175.254 748.037 175.399C748.476 175.399 748.915 175.545 749.5 175.69C749.793 175.836 750.085 176.127 750.378 176.273C751.694 177 753.304 177.146 754.62 176.564C755.937 176.127 757.4 175.69 758.863 175.399C760.033 175.254 761.496 175.254 762.082 174.235C762.374 173.653 762.374 172.925 762.228 172.198C762.082 170.451 761.935 168.851 761.496 167.25C761.057 166.086 760.18 165.795 759.009 165.358L754.181 163.175C752.719 162.739 750.378 162.157 749.354 161.138Z" fill="white" stroke="#2E3374" stroke-width="1.5" stroke-miterlimit="10"/>
</svg>
