<?xml version="1.0" encoding="UTF-8"?>
<svg viewBox="0 0 296 297" xmlns="http://www.w3.org/2000/svg">
<path d="M0 0H296V297H0V0Z" fill="#2E3374"/>
<path d="m42.155 190.97c-0.8391 0.679-1.662 1.374-2.4648 2.096-0.6119 0.55-1.6947 1.209-1.9144 2.043-0.2283 0.866 0.4926 1.677 1.062 2.201 3.0114 2.77 6.4023 4.644 10.575 4.955 6.4251 0.48 12.017-1.161 17.592-4.389 3.9158-2.268 6.5097-5.623 7.0762-10.152 4.6635 1.938 9.1739 4.609 13.007 7.888 1.8912 1.618 3.52 3.41 5.0267 5.397 0.9649 1.273 1.8983 2.566 2.7645 3.909 0.3766 0.583 0.7593 1.618 1.3809 1.954 0.7298 0.395 1.6118-0.224 1.5757-1.035-0.0301-0.675-0.7594-1.459-1.1002-2.011-0.5665-0.916-1.1412-1.827-1.7465-2.719-0.9795-1.443-1.9918-2.866-3.0959-4.217-2.4812-3.035-5.6383-5.542-8.911-7.68-6.2784-4.101-13.169-6.685-20.808-6.904-4.6974-0.135-8.649 1.47-12.666 3.867-2.5009 1.492-5.0827 2.959-7.3521 4.797z" clip-rule="evenodd" fill="#DDE3E9" fill-rule="evenodd"/>
<path d="m157.96 88.195c3.963-4.0814 7.94-8.112 12.367-11.706 2.61-2.1177 5.36-4.0435 8.053-6.0514-0.311 0.2721-0.615 0.5523-0.913 0.8392 0.841-0.5707 1.941-0.8932 2.833-1.4215 0.994-0.5892 1.944-1.2632 2.876-1.9426 1.82-1.3259 3.612-2.6769 5.483-3.9336 2.083-1.4 4.243-2.6937 6.362-4.041 1.799-1.1434 3.62-2.3949 5.544-3.3296 1.049-0.5094 2.1-1.1134 3.153-1.6447 0.352-0.1778 3.929-2.4359 3.92-2.4427-0.198-0.149-1.998 0.6966-2.276 0.8103-0.813 0.3321-1.59 0.7293-2.372 1.1252 0.429-0.8462 0.769-1.7352 0.953-2.671 0.058-0.2889 0.515-2.3917 0.281-2.5681-0.117-0.0881-1.258 3.6741-1.316 4.0358-0.048 0.2938-0.041 0.7169-0.137 0.9951-0.155 0.4494-0.147 0.3137-0.49 0.5668-0.626 0.4639-1.459 0.7538-2.137 1.1417-0.366 0.2043-1.499 1.0143-2.181 1.2452-2.065 1.0028-4.158 2.5456-6.12 3.8265 0.515-0.9677 0.907-1.9794 1.193-3.0397 0.068-0.2517 0.801-2.51 0.623-2.644-0.2-0.1509-1.597 3.298-1.68 3.6246-0.154 0.6064-0.186 1.2814-0.378 1.8716-0.211 0.6477-0.871 0.8772-1.465 1.2548-2.186 1.389-4.297 2.8649-6.373 4.4085-2.265-4.0284 0.347-8.893 2.548-12.273 1.586-2.4359 3.722-4.5244 5.978-6.3476 3.009-2.4334 6.453-4.3773 9.892-6.1555 4.008-2.0719 8.339-3.3556 12.842-3.9487 2.356-0.3102 4.765-0.3015 7.144-0.202 1.162 0.0485 2.278 0.2024 3.392 0.5814 0.501 0.1711 0.987 0.3866 1.459 0.6279 0.36 0.1834 1.228 0.377 1.435 0.6502 1.7 2.2127 2.57 4.4176 2.437 7.1981-0.126 2.6321-0.957 5.2656-2.085 7.6133-1.256 2.6144-2.872 4.9871-4.986 6.9786-1.612 1.5194-3.414 2.8417-5.205 4.1467-6.369 4.6417-14.444 8.6786-22.693 7.6415-2.67-0.3356-5.21-1.2694-7.583-2.5384-0.559-0.299-1.115-0.6014-1.643-0.9545-0.356-0.2379-1.307-1.3104-1.665-1.3494-0.491-0.0534-1.548 0.9447-2.009 1.2486-3.498 2.3095-6.905 4.7442-10.241 7.2773-3.549 2.6952-6.924 5.5736-10.199 8.5874-1.393 1.2819-2.777 2.5667-4.13 3.8917-0.315 0.3082-1.085 1.4434-1.656 1.4948-0.361 0.0325-0.605-0.2758-0.553-0.6099 0.089-0.581 1.312-1.4502 1.718-1.8681z" clip-rule="evenodd" fill="#C1DEE2" fill-rule="evenodd"/>
<path d="m222.14 77.464c0.608-0.6065 1.291-1.1537 2.093-1.544 0.203-0.0986 1.714-0.7595 1.812-0.6144 0.229 0.3377-3.723 1.9648-3.905 2.1584zm-7.163-4.0514c5e-3 0.0256-0.518 0.844-0.661 1.0957-0.304 0.535-0.584 1.0804-0.847 1.6268 0.39-0.9651 0.791-1.8603 1.508-2.7225zm36.63 6.662c0.505 0.1496 1.111-0.4401 0.457-0.5853-0.53-0.1166-0.504-0.1441-0.741-0.5368-0.193-0.3189-0.312-0.7078-0.482-1.0425-0.359-0.7098-0.767-1.3867-1.267-2.021-1.072-1.3597-2.379-2.5314-3.844-3.5188-2.557-1.7229-5.425-3.2977-8.466-4.0888-4.836-1.258-10.34-1.3359-15.184-0.4635-3 0.5401-5.741 1.4791-7.733 3.7032-0.996 1.1114-1.777 2.4136-2.119 3.8474-0.089 0.3748-0.072 0.7916-0.184 1.1585-0.171 0.5642-0.096 0.414-0.812 0.5238-0.783 0.1197-1.565 0.2421-2.346 0.3665-2.047 0.326-4.105 0.672-6.099 1.2011-0.656 0.1739-1.298 0.3866-1.925 0.6338-0.474 0.1867-2.363 0.7731-2.592 1.3404-0.382 0.9439 0.898 0.516 1.295 0.3104 0.349-0.1801 0.706-0.3481 1.069-0.5027 0.914-0.3893 1.866-0.6904 2.839-0.9301 1.052-0.2591 2.125-0.4525 3.194-0.6462 0.997-0.1804 1.998-0.3447 3-0.5015 0.557-0.0873 1.114-0.172 1.672-0.2568 0.19-0.029 0.526-0.1807 0.5 0.0472 1.172-0.2079 2.439-0.1779 3.632-0.2353 1.461-0.0702 2.928-0.1277 4.395-0.0856 1.057 0.0304 2.116 0.0942 3.168 0.2251 0.615 0.0765 1.22 0.1884 1.823 0.33 0.332 0.0779 1.638 0.2429 1.819 0.5089-0.078-0.1143-1.52-0.0035-1.703-0.01-0.735-0.0253-1.463-0.0922-2.195-0.1675-1.357-0.1396-2.715-0.2126-4.077-0.2019 6e-3 0.22 0.936 0.6121 1.163 0.7579 0.509 0.3272 0.996 0.6841 1.451 1.0755 0.802 0.6894 1.761 1.5434 2.315 2.3602-0.163-0.2407-0.969-0.554-1.255-0.7378-0.458-0.2948-0.907-0.6092-1.331-0.9453-0.392-0.3104-0.758-0.6456-1.118-0.9879-0.36-0.3426-0.848-1.0549-1.321-1.283-0.028-0.0138-0.234 0.1361-0.351 0.0851-0.118-0.0513-0.265-0.308-0.295-0.3185-0.44-0.1563-1.276 0.0381-1.738 0.0579-1.2 0.0508-2.399 0.1174-3.597 0.1782-0.372 0.0188-0.687-0.059-0.828 0.1932-0.149 0.2691 0.125 0.9762 0.203 1.2693 0.289 1.0883 0.802 2.0641 1.61 2.9072 1.514 1.5794 3.38 2.6322 5.488 3.3365 8.075 2.6975 16.665 3.7778 24.738 0.9718 3.342-1.1619 8.375-3.2378 7.772-7.3223z" clip-rule="evenodd" fill="#89C5CC" fill-rule="evenodd"/>
<path d="m82.522 69.39c0-2.464 1.9924-4.4616 4.4502-4.4616h79.547c2.457 0 4.45 1.9975 4.45 4.4616v159.5c0 2.465-1.993 4.462-4.45 4.462h-79.547c-2.4578 0-4.4502-1.997-4.4502-4.462v-159.5z" fill="#F2F2F2"/>
<path d="m126.75 222.06c4.677 0 8.468-3.581 8.468-7.998s-3.791-7.998-8.468-7.998-8.469 3.581-8.469 7.998 3.792 7.998 8.469 7.998z" clip-rule="evenodd" fill="#fff" fill-rule="evenodd"/>
<path d="m119.22 76.22c0.52 0 0.941-0.4212 0.941-0.9409 0-0.5196-0.421-0.9409-0.941-0.9409-0.519 0-0.941 0.4213-0.941 0.9409 0 0.5197 0.422 0.9409 0.941 0.9409z" clip-rule="evenodd" fill="#fff" fill-rule="evenodd"/>
<path d="m122.98 75.279c0-0.5196 0.522-0.9409 1.165-0.9409h9.903c0.643 0 1.165 0.4213 1.165 0.9409 0 0.5197-0.522 0.9409-1.165 0.9409h-9.903c-0.643 0-1.165-0.4212-1.165-0.9409z" fill="#fff"/>
<path d="m90.049 83.155c0-1.2318 1.0034-2.2303 2.241-2.2303h68.91c1.238 0 2.241 0.9985 2.241 2.2303v25.649c0 1.232-1.003 2.23-2.241 2.23h-68.91c-1.2376 0-2.241-0.998-2.241-2.23v-25.649z" fill="#fff"/>
<path d="m111.69 91.135c0-0.9624 0.762-1.7425 1.702-1.7425h37.998c0.94 0 1.701 0.7801 1.701 1.7425v1.2197c0 0.9623-0.761 1.7425-1.701 1.7425h-37.998c-0.94 0-1.702-0.7802-1.702-1.7425v-1.2197z" fill="#DDE3E9"/>
<path d="m111.69 98.663c0-0.9623 0.748-1.7424 1.671-1.7424h23.946c0.922 0 1.67 0.7801 1.67 1.7424v1.2198c0 0.9626-0.748 1.7426-1.67 1.7426h-23.946c-0.923 0-1.671-0.78-1.671-1.7426v-1.2198z" fill="#DDE3E9"/>
<path d="m102.28 102.57c3.637 0 6.586-2.949 6.586-6.5867 0-3.6376-2.949-6.5865-6.586-6.5865-3.6378 0-6.5866 2.9489-6.5866 6.5865 0 3.6377 2.9488 6.5867 6.5866 6.5867z" clip-rule="evenodd" fill="#C5CFD6" fill-rule="evenodd"/>
<path d="m90.049 117.04c0-1.237 1.0034-2.24 2.241-2.24h68.91c1.238 0 2.241 1.003 2.241 2.24v19.043c0 1.237-1.003 2.24-2.241 2.24h-68.91c-1.2376 0-2.241-1.003-2.241-2.24v-19.043z" fill="#fff"/>
<path d="m111.69 123.67c0-0.743 0.762-1.345 1.702-1.345h37.998c0.94 0 1.701 0.602 1.701 1.345v0.134c0 0.742-0.761 1.344-1.701 1.344h-37.998c-0.94 0-1.702-0.602-1.702-1.344v-0.134z" fill="#DDE3E9"/>
<path d="m111.69 129.76c0-0.99 0.748-1.792 1.671-1.792h23.946c0.922 0 1.67 0.802 1.67 1.792v0.179c0 0.99-0.748 1.793-1.67 1.793h-23.946c-0.923 0-1.671-0.803-1.671-1.793v-0.179z" fill="#DDE3E9"/>
<path d="m102.28 133.62c3.637 0 6.586-2.949 6.586-6.586 0-3.638-2.949-6.587-6.586-6.587-3.6378 0-6.5866 2.949-6.5866 6.587 0 3.637 2.9488 6.586 6.5866 6.586z" clip-rule="evenodd" fill="#C5CFD6" fill-rule="evenodd"/>
<path d="m90.049 145.27c0-1.237 1.0034-2.24 2.241-2.24h68.91c1.238 0 2.241 1.003 2.241 2.24v19.043c0 1.237-1.003 2.24-2.241 2.24h-68.91c-1.2376 0-2.241-1.003-2.241-2.24v-19.043z" fill="#fff"/>
<path d="m111.69 151.4c0-0.99 0.762-1.793 1.702-1.793h37.998c0.94 0 1.701 0.803 1.701 1.793v0.179c0 0.99-0.761 1.792-1.701 1.792h-37.998c-0.94 0-1.702-0.802-1.702-1.792v-0.179z" fill="#DDE3E9"/>
<path d="m111.69 157.05c0-0.99 0.748-1.792 1.671-1.792h23.946c0.922 0 1.67 0.802 1.67 1.792v0.179c0 0.99-0.748 1.793-1.67 1.793h-23.946c-0.923 0-1.671-0.803-1.671-1.793v-0.179z" fill="#DDE3E9"/>
<path d="m102.28 160.9c3.637 0 6.586-2.948 6.586-6.586s-2.949-6.587-6.586-6.587c-3.6378 0-6.5866 2.949-6.5866 6.587s2.9488 6.586 6.5866 6.586z" clip-rule="evenodd" fill="#AFB9C5" fill-rule="evenodd"/>
<path d="m90.049 172.55c0-1.237 1.0034-2.24 2.241-2.24h68.91c1.238 0 2.241 1.003 2.241 2.24v19.043c0 1.237-1.003 2.24-2.241 2.24h-68.91c-1.2376 0-2.241-1.003-2.241-2.24v-19.043z" fill="#fff"/>
<path d="m111.69 179.63c0-0.99 0.762-1.793 1.702-1.793h37.998c0.94 0 1.701 0.803 1.701 1.793v0.179c0 0.99-0.761 1.792-1.701 1.792h-37.998c-0.94 0-1.702-0.802-1.702-1.792v-0.179z" fill="#DDE3E9"/>
<path d="m111.69 185.28c0-0.99 0.748-1.792 1.671-1.792h23.946c0.922 0 1.67 0.802 1.67 1.792v0.179c0 0.99-0.748 1.793-1.67 1.793h-23.946c-0.923 0-1.671-0.803-1.671-1.793v-0.179z" fill="#DDE3E9"/>
<path d="m102.28 189.13c3.637 0 6.586-2.949 6.586-6.587s-2.949-6.587-6.586-6.587c-3.6378 0-6.5866 2.949-6.5866 6.587s2.9488 6.587 6.5866 6.587z" clip-rule="evenodd" fill="#C5CFD6" fill-rule="evenodd"/>
<path d="m99.259 200.42c-0.7333 0-1.4643 0.015-2.1966 0.054-0.5583 0.03-1.4114-0.089-1.8837 0.268-0.4908 0.371-0.457 1.13-0.3803 1.666 0.4053 2.834 1.3944 5.347 3.4638 7.355 3.1866 3.092 6.8386 4.663 11.162 5.363 3.036 0.491 5.839-0.191 8.074-2.406 1.633 3.109 2.872 6.55 3.493 10.023 0.307 1.713 0.401 3.406 0.347 5.151-0.035 1.118-0.095 2.233-0.212 3.345-0.05 0.483-0.291 1.215-0.106 1.672 0.216 0.536 0.946 0.588 1.274 0.131 0.273-0.381 0.223-1.128 0.279-1.579 0.093-0.748 0.179-1.497 0.24-2.249 0.1-1.217 0.174-2.437 0.169-3.659-0.013-2.744-0.608-5.499-1.421-8.104-1.561-4.998-4.094-9.44-8.033-12.925-2.421-2.143-5.193-3.011-8.338-3.477-1.958-0.29-3.947-0.629-5.9308-0.629z" clip-rule="evenodd" fill="#89C5CC" fill-rule="evenodd"/>
<path d="m111.03 220.18c-7.972 0-13.342 6.506-15.881 13.268-0.9571 2.549-1.1814 5.348-1.5502 8.024-0.1185 0.859-0.0746 2.168-0.4189 2.933-0.125 0.277-0.4114 0.377-0.2745 0.755 0.0829 0.229 0.2456 0.369 0.4899 0.415 0.5015 0.093 1.2107-0.46 1.6406-0.678 3.5664-1.811 5.9092-4.611 7.8212-8.037 1.185-2.124 2.387-4.328 3.091-6.659 0.43-1.424 0.68-2.924 0.827-4.401 0.058-0.582 0.114-1.178 0.111-1.763-4e-3 -0.581-0.271-0.888-0.462-1.393 2.66-1.02 5.663-1.298 8.358-0.241 2.492 0.977 4.562 2.866 5.722 5.238 0.301 0.617 0.533 1.267 0.702 1.931 0.111 0.435 0.116 0.998 0.322 1.391 0.497 0.953 1.545 0.316 1.444-0.571-0.28-2.473-1.678-4.957-3.464-6.676-2.253-2.169-5.307-3.536-8.478-3.536z" clip-rule="evenodd" fill="#89C5CC" fill-rule="evenodd"/>
<path d="m119.22 83.504c0-2.4641 1.992-4.4617 4.45-4.4617h79.547c2.458 0 4.45 1.9976 4.45 4.4616v159.5c0 2.465-1.992 4.462-4.45 4.462h-79.547c-2.458 0-4.45-1.997-4.45-4.462v-159.5z" fill="#DDE3E9"/>
<path d="m163.44 237.12c4.677 0 8.468-3.792 8.468-8.469 0-4.676-3.791-8.468-8.468-8.468s-8.468 3.792-8.468 8.468c0 4.677 3.791 8.469 8.468 8.469z" clip-rule="evenodd" fill="#fff" fill-rule="evenodd"/>
<path d="m155.91 90.334c0.519 0 0.941-0.4213 0.941-0.941 0-0.5196-0.422-0.9409-0.941-0.9409-0.52 0-0.941 0.4213-0.941 0.9409 0 0.5197 0.421 0.941 0.941 0.941z" clip-rule="evenodd" fill="#fff" fill-rule="evenodd"/>
<path d="m159.68 89.393c0-0.5196 0.521-0.9409 1.165-0.9409h9.902c0.643 0 1.165 0.4213 1.165 0.9409 0 0.5197-0.522 0.941-1.165 0.941h-9.902c-0.644 0-1.165-0.4213-1.165-0.941z" fill="#fff"/>
<path d="m126.74 97.269c0-1.2318 1.003-2.2304 2.241-2.2304h68.911c1.237 0 2.241 0.9986 2.241 2.2304v25.649c0 1.232-1.004 2.23-2.241 2.23h-68.911c-1.238 0-2.241-0.998-2.241-2.23v-25.649z" fill="#fff"/>
<path d="m132.39 105.84c0-0.77 0.744-1.394 1.662-1.394h37.135c0.918 0 1.663 0.624 1.663 1.394v0.976c0 0.769-0.745 1.393-1.663 1.393h-37.135c-0.918 0-1.662-0.624-1.662-1.393v-0.976z" fill="#DDE3E9"/>
<path d="m132.39 113.37c0-0.77 0.748-1.394 1.67-1.394h23.946c0.923 0 1.671 0.624 1.671 1.394v0.976c0 0.77-0.748 1.394-1.671 1.394h-23.946c-0.922 0-1.67-0.624-1.67-1.394v-0.976z" fill="#DDE3E9"/>
<path d="m192.14 113.86c2.339 0 4.235-1.685 4.235-3.764 0-2.078-1.896-3.763-4.235-3.763-2.338 0-4.234 1.685-4.234 3.763 0 2.079 1.896 3.764 4.234 3.764z" clip-rule="evenodd" fill="#DDE3E9" fill-rule="evenodd"/>
<path d="m192.14 111.98c0.779 0 1.411-0.842 1.411-1.882 0-1.039-0.632-1.882-1.411-1.882-0.78 0-1.411 0.843-1.411 1.882 0 1.04 0.631 1.882 1.411 1.882z" clip-rule="evenodd" fill="#F2F2F2" fill-rule="evenodd"/>
<path d="m126.74 132c0-1.187 1.003-2.15 2.241-2.15h68.911c1.237 0 2.241 0.963 2.241 2.15v18.281c0 1.188-1.004 2.151-2.241 2.151h-68.911c-1.238 0-2.241-0.963-2.241-2.151v-18.281z" fill="#fff"/>
<path d="m148.39 138.23c0-0.989 0.761-1.792 1.701-1.792h37.998c0.94 0 1.702 0.803 1.702 1.792v0.18c0 0.99-0.762 1.792-1.702 1.792h-37.998c-0.94 0-1.701-0.802-1.701-1.792v-0.18z" fill="#DDE3E9"/>
<path d="m148.39 143.88c0-0.99 0.748-1.792 1.67-1.792h23.946c0.923 0 1.671 0.802 1.671 1.792v0.179c0 0.99-0.748 1.793-1.671 1.793h-23.946c-0.922 0-1.67-0.803-1.67-1.793v-0.179z" fill="#DDE3E9"/>
<path d="m138.98 147.73c3.638 0 6.587-2.948 6.587-6.586s-2.949-6.587-6.587-6.587c-3.637 0-6.586 2.949-6.586 6.587s2.949 6.586 6.586 6.586z" clip-rule="evenodd" fill="#C5CFD6" fill-rule="evenodd"/>
<path d="m126.74 159.38c0-1.237 1.003-2.24 2.241-2.24h68.911c1.237 0 2.241 1.003 2.241 2.24v19.043c0 1.237-1.004 2.24-2.241 2.24h-68.911c-1.238 0-2.241-1.003-2.241-2.24v-19.043z" fill="#fff"/>
<path d="m132.39 166.01c0-0.742 0.744-1.344 1.662-1.344h37.135c0.918 0 1.663 0.602 1.663 1.344v0.135c0 0.742-0.745 1.344-1.663 1.344h-37.135c-0.918 0-1.662-0.602-1.662-1.344v-0.135z" fill="#DDE3E9"/>
<path d="m132.39 172.1c0-0.99 0.748-1.792 1.67-1.792h23.946c0.923 0 1.671 0.802 1.671 1.792v0.179c0 0.99-0.748 1.792-1.671 1.792h-23.946c-0.922 0-1.67-0.802-1.67-1.792v-0.179z" fill="#AFB9C5"/>
<path d="m192.14 173.14c2.339 0 4.235-1.896 4.235-4.235 0-2.338-1.896-4.234-4.235-4.234-2.338 0-4.234 1.896-4.234 4.234 0 2.339 1.896 4.235 4.234 4.235z" clip-rule="evenodd" fill="#DDE3E9" fill-rule="evenodd"/>
<path d="m192.14 170.31c0.779 0 1.411-0.632 1.411-1.412 0-0.779-0.632-1.411-1.411-1.411-0.78 0-1.411 0.632-1.411 1.411 0 0.78 0.631 1.412 1.411 1.412z" clip-rule="evenodd" fill="#F2F2F2" fill-rule="evenodd"/>
<path d="m126.74 187.61c0-1.237 1.003-2.24 2.241-2.24h68.911c1.237 0 2.241 1.003 2.241 2.24v19.043c0 1.237-1.004 2.24-2.241 2.24h-68.911c-1.238 0-2.241-1.003-2.241-2.24v-19.043z" fill="#fff"/>
<path d="m148.39 193.75c0-0.989 0.761-1.792 1.701-1.792h37.998c0.94 0 1.702 0.803 1.702 1.792v0.18c0 0.989-0.762 1.792-1.702 1.792h-37.998c-0.94 0-1.701-0.803-1.701-1.792v-0.18z" fill="#DDE3E9"/>
<path d="m148.39 199.39c0-0.99 0.748-1.792 1.67-1.792h23.946c0.923 0 1.671 0.802 1.671 1.792v0.179c0 0.99-0.748 1.793-1.671 1.793h-23.946c-0.922 0-1.67-0.803-1.67-1.793v-0.179z" fill="#DDE3E9"/>
<path d="m138.98 203.24c3.638 0 6.587-2.949 6.587-6.586 0-3.638-2.949-6.587-6.587-6.587-3.637 0-6.586 2.949-6.586 6.587 0 3.637 2.949 6.586 6.586 6.586z" clip-rule="evenodd" fill="#C5CFD6" fill-rule="evenodd"/>
</svg>
