<svg width="377" height="351" viewBox="0 0 377 351" fill="none" xmlns="http://www.w3.org/2000/svg">
<path d="M339 311.9C339 324.2 277.9 334.3 202.4 334.3C126.9 334.3 65.7002 324.2 65.7002 311.9C65.7002 299.6 126.8 289.5 202.3 289.5C277.8 289.4 339 299.4 339 311.9Z" fill="#AFDADD"/>
<path d="M204.7 308.3C261.9 308.3 308.3 261.9 308.3 204.7C308.3 147.5 261.9 101.1 204.7 101.1C147.5 101.1 101.1 147.5 101.1 204.7C101.1 261.9 147.4 308.3 204.7 308.3Z" fill="white"/>
<path d="M227.7 160.9C234.1 160.6 243.9 161.8 245 166.9C246.2 172.5 242.1 174 245.7 176.8C249 179.4 258.3 173.9 266.9 174.5C273.9 175.1 281.7 179.7 283.4 187.8C285.1 195.8 285.1 197.2 288.6 198.7C292.1 200.2 292.5 204.9 292.3 208C291.9 212.5 295.6 216.9 295.3 223.1C295 233.7 288.5 240 278.4 246.7C268.5 253.2 268.1 255.3 268 262C267.8 266.4 267.3 273.8 257.9 277.1C248.5 280.4 240.4 281.5 236.4 284.5C231.1 288.5 234 294.6 231.2 295.9C228.3 297.2 223.5 293.5 223.6 285.7C223.7 279.2 231 278.1 230.5 271.7C230 264.5 219.3 266.8 219.8 258.4C220.2 252.4 227.3 248.2 231.4 245.4C238.6 240.5 239.4 229.1 231.6 228.9C221.7 228.7 207.7 233.5 194.1 230.6C180.5 227.8 174.9 216.6 175.6 206C176.2 196.9 182.6 190.3 188.5 186.4C194.8 182.2 199.6 182.6 203.1 178.7C207 174.2 206 169.3 210.6 165.6C213.6 163 219.2 161.3 227.7 160.9Z" fill="#BEE3E8"/>
<path d="M126.6 148.4C137.8 141.5 158.1 145.4 161 138.1C162.3 135 157 130.5 155.5 128.6C150.6 122.1 155.3 118.8 163.8 118.3C177.4 117.6 192.7 121.6 206.7 118.5C215.3 116.6 218 108.2 223.5 109.1C229.5 110.1 226.3 116.9 231.5 118.6C236.7 120.3 242.6 115.7 246.5 118.4C250.8 121.3 261.4 133.9 270.9 132.5C273 132.2 274.2 129.7 273.2 126.9C254.9 110.8 231 101.1 204.7 101.1C159.1 101.1 120.4 130.6 106.5 171.5C108.9 165.1 114.9 155.5 126.6 148.4Z" fill="#BEE3E8"/>
<path d="M276.7 142.3C270.3 144.8 262.5 142.9 260.5 138.2C258.5 133.5 254.9 128.6 249.4 129.3C245.9 129.8 244.5 132 243.9 133.7C242.9 136.6 243.6 139.3 235.1 139.1C225.8 138.9 220.9 137.7 212.8 142.4C205.6 146.5 205 153.1 206.6 156.1C208.9 160.4 214.6 161.5 221.3 158.6C228 155.7 233.4 148.7 240.1 147.8C245.3 147.1 250.7 149.2 247.7 154.5C246 157.7 244.9 160 246.3 162.4C248.2 165.5 257.6 164.5 265.5 162.4C273.4 160.3 283.3 159.5 286 164.9C288.6 170.2 285.4 182.8 288.6 189.5C291.9 196.3 298.3 197.4 301.6 197.9C303.9 198.3 306.4 198.7 308.1 200.8C307.1 175.4 297 152.4 281 134.9C281.2 137.7 280.4 140.9 276.7 142.3Z" fill="#BEE3E8"/>
<path d="M139.2 275.7C137.3 272 134.6 268.1 135.9 262.7C137.8 254.9 150.5 250.4 149.8 233.7C149.2 216.9 132.8 212.8 124.6 203.2C119 196.7 117.4 183.4 112.1 183.3C107.6 183.2 103.6 190.2 101.4 196.2C101.2 199.1 101.1 201.8 101.1 204.8C101.1 237.2 116 266 139.2 285C141.3 282.8 140.7 278.6 139.2 275.7Z" fill="#BEE3E8"/>
<path d="M216.1 38.5C214.5 33.8 213.1 28.5 213.3 24C213.4 22.1 213.4 20.5 213.5 19.4C214 13.9 210 11.8 208.6 11.7C207.2 11.6 205.9 10.5 201.2 10.7C196.7 10.9 193.6 14.1 192.7 18.6C192 22.2 192.4 24.4 193.1 27.5C193.2 28.4 193.2 32.1 191.7 34.7C190 37.7 187.6 38.2 187.5 45.2C187.4 52.2 216.1 47.7 216.1 47.7C216.1 47.7 217.7 43.2 216.1 38.5Z" fill="#2E3374" stroke="#2E3374" stroke-width="1.4" stroke-miterlimit="10"/>
<path d="M185.8 133.2C184.4 134.2 182.2 135.2 180.6 134.6C180.3 134.5 179.9 134.3 179.8 134C179.7 133.8 179.7 133.5 179.7 133.2C179.6 130.9 180 128.6 180.7 126.3C181.1 125 181.8 123.6 183.2 123.3C184.6 123 186.4 123.3 187.5 124C189.6 125.3 194.7 124.4 194.9 124.5C195.5 124.8 195.6 128 195.4 128.6C194.7 130.3 192.7 130.9 191.1 131.1C189 131.6 187.5 132 185.8 133.2Z" fill="#15ADC2" stroke="#2E3374" stroke-width="1.4" stroke-miterlimit="10"/>
<path d="M196 42.3C202.2 42.1 208.4 42 214.6 42.9C216.7 43.2 218.8 43.7 220.5 44.9C223.7 47.1 224.7 51.4 225.3 55.3C225.7 58 226 60.8 226.3 63.4C226.5 64.7 226.6 66.1 226.3 67.5C225.9 69.2 224.9 70.7 223.7 72C220.2 76.2 216.1 80.1 211.1 82.4C206.1 84.7 200.1 85.2 195.1 83C193.4 82.2 191.8 81.1 190.2 80C188.3 78.7 186.4 77.3 185 75.3C184.1 73.9 183.6 72.3 183 70.7C181.4 65.2 180.9 59.3 182 53.7C182.7 50.2 182.2 46.7 185.6 45C188.4 43.4 192.8 42.3 196 42.3Z" fill="#D5401A" stroke="#2E3374" stroke-width="1.4" stroke-miterlimit="10"/>
<path d="M199.3 36.3L198.4 45.1C198.4 45.1 203.5 47.6 208.3 45.1L207.4 34.5L199.3 36.3Z" fill="white" stroke="#2E3374" stroke-width="1.4" stroke-miterlimit="10"/>
<path d="M228.5 50.3C226.6 47.2 222.3 45.2 218.1 43.9C218.4 44.2 218.6 44.6 218.5 45L217.2 65.1C219.7 69.3 222 73.8 221.7 75.7C221.4 77.5 218.5 82.1 215.8 85.8C213.7 88.9 211.7 91.5 211.7 91.5C215 94 216.3 97.5 216.3 97.5C216.3 97.5 218.5 96.3 221.5 94.4C224.9 92.2 229.3 89.1 232.5 85.8C238.9 79.8 232.8 57.4 228.5 50.3Z" fill="#D5401A" stroke="#2E3374" stroke-width="1.4" stroke-miterlimit="10"/>
<path d="M193.1 92.1C193.1 92.1 190.5 89.6 189.2 88.4L188.1 87.4C187.4 86.7 186.7 86.1 186 85.4C184.1 83.6 182.4 81.9 181.2 80.7C181.2 80.7 180.5 79.4 181.8 76.9C182.6 75.5 184.2 73 186.1 70.9C186.7 57.9 185 48.3 185.4 45C180.6 47.3 179.5 49.1 178.5 50.3C177.3 51.8 164.6 76.8 168.9 84.2C171.4 88.4 174.3 92.6 179.2 96.2C182.9 98.9 183.4 99.2 183.4 99.2C183.4 99.2 198.2 99 200.7 98.4C204.5 97.3 196.8 95.6 198.9 95.3C199.1 95.4 196.4 95.4 193.1 92.1Z" fill="#D5401A" stroke="#2E3374" stroke-width="1.4" stroke-miterlimit="10"/>
<path d="M196.9 43.8C196.8 44 196.8 44.1 196.8 44.3C196.9 44.5 197 44.6 197.1 44.7C200 46.6 203.7 46.5 207.2 46.4C207.7 46.4 208.3 46.3 208.6 45.8C208.8 45.6 208.8 45.2 208.8 45C208.9 43.4 208.9 41.8 209 40.2C209 39.9 209 39.5 208.8 39.2C208.5 38.7 207.7 38.7 207.2 38.9C206.6 39.2 206.3 39.6 205.8 40C205 40.6 204 40.8 203.2 40.3C202.7 40 202.4 39.5 202 39.1C201.2 38.6 200.4 38.9 199.6 38.8C199 38.7 198.3 38.2 197.9 38.5C197 38.9 197.2 42.9 196.9 43.8Z" fill="#D5401A" stroke="#2E3374" stroke-width="1.4" stroke-miterlimit="10"/>
<path d="M228.2 70.2L222.7 65.1C222.7 65.1 209.8 65 202.3 70.9C202.3 70.9 197.6 66 189.9 66C182.2 66 182.2 66 182.2 66L177.4 69.3L177.7 73.7L226.6 77.7L228.2 70.2Z" fill="white" stroke="#2E3374" stroke-width="1.4" stroke-miterlimit="10"/>
<path d="M200.5 97.9L200.1 97.8L176.7 97L176.2 90.3L175.6 82.4L174.7 70.5L177.4 70.6L195.2 71.2L198.9 71.3C199 71.3 199 71.3 199 71.4L199.2 75.5L200.5 97.9Z" fill="#15ADC2" stroke="#2E3374" stroke-width="1.4" stroke-miterlimit="10"/>
<path d="M184.6 91.6C182.8 93 178.1 97.3 176.5 95.2C176.1 94.7 175.8 94.4 175.4 94.2C174.8 93.9 174.5 93.3 174.4 92.6C174.3 91.4 174.1 89.4 174.1 87.9C174 87 174.8 86.3 175.7 86.4C176 86.4 176.3 86.4 176.6 86.3C178.4 86 179.6 85.2 181.8 86.4C183.9 87.6 186.4 90.2 184.6 91.6Z" fill="white" stroke="#2E3374" stroke-width="1.4" stroke-miterlimit="10"/>
<path d="M248.6 104.4C248.1 103.2 247.5 101.9 246.6 101.1C244.5 99 241.1 99 238.1 99.3C234.1 99.6 230.2 100.2 226.4 101C225 101.3 223.5 101.6 222.1 101.4C221.2 101.3 221 97.4 221 97.4L183.6 99.2C183.6 99.2 183.9 100.5 183.6 100.8C181.3 102.8 177.6 99.7 174.6 99.2C172.5 98.9 170.4 98.5 168.2 98.8C166.1 99.1 164 100 162.7 101.7C161.4 103.4 161 106.4 161.4 108.5C162.4 113.9 168.9 119.1 174 121C211.6 135.1 224.4 113 233.3 112.5C237.7 112.2 242.3 112.1 246.2 110C247.4 109.4 248.7 108.5 248.9 107.2C249.2 106.2 249 105.3 248.6 104.4Z" fill="#2E3374" stroke="#2E3374" stroke-width="1.4" stroke-miterlimit="10"/>
<path d="M246.6 101.2C243.1 98 235.1 100.9 230.8 102.9C226.7 104.8 222.8 107 218.9 109.2L191.4 123C191.4 123 192.6 132.2 194.4 133.3C196.2 134.3 242.6 118.1 242.6 118.1C242.6 118.1 257.5 111.4 246.6 101.2Z" fill="#2E3374" stroke="#2E3374" stroke-width="1.4" stroke-miterlimit="10"/>
<path d="M220.5 122.5C220.1 122.3 219.6 122.3 219.1 122.3C217.5 122.4 216.2 123.5 215.3 124.8C214.5 126 214 127.5 214.1 129C214.4 132.6 217.7 133.1 220.9 133.1C221.3 131.8 221.6 130.4 221.7 129C221.9 126.8 221.5 124.5 220.5 122.5Z" fill="white" stroke="#2E3374" stroke-width="1.4" stroke-miterlimit="10"/>
<path d="M242.2 128.6C241.2 126.6 239.1 125.3 237 124.7C234.8 124.1 232.5 124.2 230.3 124.4C228.3 124.6 226.3 125 224.4 124.3C223.1 123.9 221.8 122.9 220.5 122.5C221.5 124.5 221.9 126.7 221.7 129C221.6 130.4 221.3 131.8 220.9 133.1C222.2 133.1 223.6 133 224.7 133C229.3 133.1 233.9 134.8 238.5 134.2C240.1 134 241.9 133.3 242.5 131.9C242.9 130.9 242.8 129.6 242.2 128.6Z" fill="#15ADC2" stroke="#2E3374" stroke-width="1.4" stroke-miterlimit="10"/>
<path d="M164.9 100.4C168.4 97.2 176.4 100.1 180.7 102.1C184.8 104 188.7 106.2 192.6 108.4L218.8 121.4C218.8 121.4 217.4 131.3 215.6 132.3C213.8 133.3 169.1 117.4 169.1 117.4C169.1 117.4 154 110.6 164.9 100.4Z" fill="#2E3374" stroke="#2E3374" stroke-width="1.4" stroke-miterlimit="10"/>
<path d="M199.1 71.3C202.5 74 205.9 73.5 205.9 73.5L206.7 99.5C201.9 100 200.1 97.9001 200.1 97.9001L199.1 71.3C199 71.3 199 71.3 199.1 71.3Z" fill="#15ADC2"/>
<path d="M199.1 71.3C202.5 74 205.9 73.5 205.9 73.5L206.7 99.5C201.9 100 200.1 97.9001 200.1 97.9001L199.1 71.3ZM199.1 71.3C199 71.3 199 71.3 199.1 71.3Z" stroke="#2E3374" stroke-width="1.4" stroke-miterlimit="10"/>
<path d="M230.2 96.2L206.7 99.5L205.9 75.9L205.8 73.5L228.2 70.2L229.3 70L229.6 77.6L229.8 85.3L230.2 96.2Z" fill="#15ADC2" stroke="#2E3374" stroke-width="1.4" stroke-miterlimit="10"/>
<path d="M232.3 87.7C232.3 88.4 232 89 231.5 89.5C231.2 89.7 231 89.9 230.7 90.3C229.1 92.4 224.3 88.1 222.6 86.7C220.8 85.3 223.4 82.7 225.6 81.5C225.9 81.3 226.2 81.2 226.4 81.1C227.5 80.7 228.3 80.8 229.1 81C229.6 81.1 230.2 81.3 230.7 81.4C230.8 81.4 230.8 81.4 230.8 81.4C231.5 81.5 232.1 82.1 232.1 82.9L232.3 87.7Z" fill="white" stroke="#2E3374" stroke-width="1.4" stroke-miterlimit="10"/>
<path d="M196.8 25.7001C196.8 25.7001 194.3 23.1001 191.7 24.8001C189 26.4001 191.9 30.9001 196.8 31.5001C201.8 32.2001 196.8 25.7001 196.8 25.7001Z" fill="white" stroke="#2E3374" stroke-width="1.4" stroke-miterlimit="10"/>
<path d="M209.8 25.7001C209.8 25.7001 212.3 23.1001 214.9 24.8001C217.6 26.4001 214.7 30.9001 209.8 31.5001C204.9 32.2001 209.8 25.7001 209.8 25.7001Z" fill="white" stroke="#2E3374" stroke-width="1.4" stroke-miterlimit="10"/>
<path d="M203.1 37.5C198.8 37.5 195.3 34 195.3 29.7V21.7C195.3 17.4 198.8 13.9 203.1 13.9C207.4 13.9 210.9 17.4 210.9 21.7V29.7C210.9 34 207.4 37.5 203.1 37.5Z" fill="white" stroke="#2E3374" stroke-width="1.4" stroke-miterlimit="10"/>
<path d="M194.8 20.6001C194.9 20.6001 200.2 21.0001 203.5 18.3001C204.3 17.6001 205.6 17.9001 206.1 18.8001C207.3 20.8001 209.3 23.3001 211.3 22.9001C214.5 22.2001 209.5 10.8001 200.7 13.3001C191.9 15.8001 194.8 20.6001 194.8 20.6001Z" fill="#2E3374" stroke="#2E3374" stroke-width="1.4" stroke-miterlimit="10"/>
<path d="M104.7 58.6H126.7C127.4 58.6 128.1 58.6 128.8 58.5C130 61.4 133.1 66.9 140.1 68.1C136 65.2 135.6 59.7 135.8 56.1C138.4 54.5 140.5 52.3 141.9 49.7C143.4 47.1 144.1 44.2 144.2 41.2V33.5C144.2 28.9 142.4 24.4 139.1 21.2C135.8 17.9 131.4 16.1 126.7 16.1H104.7C100.1 16.1 95.6002 17.9 92.3002 21.2C89.0002 24.5 87.2002 28.9 87.2002 33.5V41.2C87.2002 45.8 89.0002 50.3 92.3002 53.5C95.6002 56.7 100 58.6 104.7 58.6Z" fill="white"/>
<path d="M362.7 233.8H344.8C344.2 233.8 343.7 233.8 343.1 233.7C342.1 236.1 339.6 240.5 333.9 241.5C337.2 239.1 337.6 234.7 337.4 231.7C335.3 230.4 333.6 228.6 332.4 226.5C331.2 224.4 330.6 222 330.5 219.6V213.3C330.5 209.6 332 205.9 334.6 203.3C337.3 200.6 340.9 199.2 344.7 199.2H362.6C366.3 199.2 370 200.7 372.7 203.3C375.4 206 376.8 209.6 376.8 213.3V219.6C376.8 223.3 375.3 227 372.7 229.6C370.1 232.3 366.5 233.8 362.7 233.8Z" fill="white"/>
<path d="M225.7 299.8L217.5 293.9C223.8 286.3 230.1 279.4 230.8 277.9C232.5 274.5 230.9 265.6 232.2 265.1C233.5 264.7 239.4 284.8 239.4 284.8C239.4 284.8 235.5 286 232.9 287.4C231.4 288.3 228.5 294.1 225.7 299.8Z" fill="white" stroke="#2E3374" stroke-width="1.4" stroke-miterlimit="10"/>
<path d="M231.3 285C231.3 286.4 232.5 287.5 233.9 287.2C236.9 286.7 241.2 286 241.4 285.5C241.6 284.8 233.6 261.4 231.8 260.4C230 259.3 227.3 275.3 228.7 277.7C230 279.8 231.5 278.8 231.3 285Z" fill="white" stroke="#2E3374" stroke-width="1.4" stroke-miterlimit="10"/>
<path d="M222.4 295.7L214.2 289.8C220.5 282.2 226.8 275.3 227.5 273.8C229.2 270.4 227.6 261.5 228.9 261C230.2 260.6 236.1 280.7 236.1 280.7C236.1 280.7 232.2 281.9 229.6 283.3C228.2 284.1 225.2 289.9 222.4 295.7Z" fill="white" stroke="#2E3374" stroke-width="1.4" stroke-miterlimit="10"/>
<path d="M228 280.8C228 282.2 229.2 283.3 230.6 283C233.6 282.5 237.9 281.8 238.1 281.3C238.3 280.6 230.3 257.2 228.5 256.2C226.7 255.1 224 271.1 225.4 273.5C226.7 275.6 228.2 274.6 228 280.8Z" fill="white" stroke="#2E3374" stroke-width="1.4" stroke-miterlimit="10"/>
<path d="M221.7 289.4C221.7 289.4 232.9 289.4 231.5 291.9C231.1 292.7 222.9 310.7 222.9 312.1C222.9 313.5 242.8 313.6 242.8 313.6C242.8 313.6 216.4 326.9 209.4 321.8C202.4 316.7 221.7 289.4 221.7 289.4Z" fill="white" stroke="#2E3374" stroke-width="1.4" stroke-miterlimit="10"/>
<path d="M217.4 284C217.4 284 192 316.6 194.4 326.2C196.8 335.8 249.7 330.3 249.7 330.3L255 307.3C255 307.3 252.7 304 245.1 304C237.5 304 214.9 316.9 213.3 315.3C211.7 313.7 226.4 289.5 226.4 289.5C226.4 289.5 220.8 283.3 217.4 284Z" fill="white" stroke="#2E3374" stroke-width="1.4" stroke-miterlimit="10"/>
<path d="M323.6 326.7L312.7 330.7L344.4 331L347.3 326.7H323.6Z" fill="#F8B243" stroke="#2E3374" stroke-width="1.4" stroke-miterlimit="10"/>
<path d="M294.3 259.2C296.1 260.5 298 261.6 300.1 262C302.5 262.5 305.2 264.1 305.8 269C306.8 278.2 302.1 279.6 304.7 284.1C307.2 288.5 310.1 285.2 310.7 297.8C311.3 310.4 279.8 317.6 274.8 308.1C269.8 298.7 265 302.9 260.8 301.1C253.4 297.9 254.8 281.7 264.7 282.6C274.6 283.5 279.3 284 278.1 276.5C276.9 269 280.3 262.7 284.8 260C288.1 258.1 292 257.6 294.3 259.2Z" fill="#D5401A" stroke="#2E3374" stroke-width="1.4" stroke-miterlimit="10"/>
<path d="M301.9 301.3C301.9 301.3 304.6 318.9 308.4 319.9C312.2 321 324.8 322.4 324.8 322.4L323.8 327.1C323.8 327.1 301.5 327.7 296.7 326.1C291.9 324.5 291.6 306.1 291.6 306.1L301.9 301.3Z" fill="#15ADC2" stroke="#2E3374" stroke-width="1.4" stroke-miterlimit="10"/>
<path d="M312.7 330.7V330.8C312.7 332.3 313.9 333.6 315.5 333.6L344.4 333.9V331L312.7 330.7Z" fill="#F8B243" stroke="#2E3374" stroke-width="1.4" stroke-miterlimit="10"/>
<path d="M359.7 326.7C359.7 328.1 358.8 329.4 357.4 329.8L344.3 333.9V331L359.7 326.7Z" fill="#F8B243" stroke="#2E3374" stroke-width="1.4" stroke-miterlimit="10"/>
<path d="M297.3 292.5C297.3 292.5 294.1 290.8 288.9 291.2C288.3 291.3 287 289.5 286.3 289.7C280.2 291.4 272 307.1 268.6 308.4C265.2 309.8 255.4 306 255.4 306C255.4 306 248.1 309 245.7 316.5C243.3 323.9 248.3 331 248.3 331C248.3 331 270.3 332 281.6 328.3C292.9 324.6 302.1 316.2 302.7 313.9C303.3 311.5 303.8 304.9 302.1 300.1C300.4 295.3 297.3 292.5 297.3 292.5Z" fill="#15ADC2" stroke="#2E3374" stroke-width="1.4" stroke-miterlimit="10"/>
<path d="M326.8 322.8C326.8 322.8 330.6 320.8 333.7 321.2C336.8 321.7 342.3 325.6 341.2 327.2C340.1 328.8 329.6 326.9 329.6 326.9L326.8 322.8Z" fill="white" stroke="#2E3374" stroke-width="1.4" stroke-miterlimit="10"/>
<path d="M296.9 282.2C296.9 282.2 296.4 289.5 296.9 291.2C297.4 292.9 304.5 305 298.8 306.2C293.6 307.3 288.5 291.3 288.5 291.3C289.8 290 289.5 277.9 289.5 277.9L296.9 282.2Z" fill="white" stroke="#2E3374" stroke-width="1.4" stroke-miterlimit="10"/>
<path d="M302.7 270.9C301.4 265.7 297.8 264.4 293.9 265.9C289.9 267.4 288.6 272.6 288.6 272.6C288.6 272.7 288.6 272.8 288.6 272.9C288 272.3 287.2 272 286.6 272.9C285.3 274.7 286.3 278.9 288.6 279.2C289.1 279.3 289.4 279.1 289.6 278.8C291.9 285.9 297.4 288.7 299.4 286.7C301.8 284.2 304 276.1 302.7 270.9Z" fill="white" stroke="#2E3374" stroke-width="1.4" stroke-miterlimit="10"/>
<path d="M313.2 325L314.7 324.2C314.7 324.2 319.8 324.4 320.5 324.2C321.2 324 325.4 321.8 327.1 321.8C328.8 321.8 336.6 327.4 336.2 328.6C335.7 329.8 328.2 329.7 326.4 329C324.6 328.2 313.4 330.5 313.4 330.5L313.2 325Z" fill="white" stroke="#2E3374" stroke-width="1.4" stroke-miterlimit="10"/>
<path d="M281 292.2C279.6 294 279.1 295.9 279.2 298.8C279.6 305.7 283.9 332.5 288.2 332.5C292.5 332.5 315.8 331.3 315.8 331.3C315.8 331.3 317.6 325.9 315 324C315 324 297.8 325.7 296.3 323.4C294.8 321.1 292.7 295.9 290.8 293C288 288.3 283.6 288.8 281 292.2Z" fill="#15ADC2" stroke="#2E3374" stroke-width="1.4" stroke-miterlimit="10"/>
<path d="M353.6 302.8L344.4 331.2L359.7 326.7L368.5 300.3C369.1 298.6 367.7 297 365.9 297.3L358.8 298.4C356.4 298.8 354.4 300.5 353.6 302.8Z" fill="#F8B243" stroke="#2E3374" stroke-width="1.4" stroke-miterlimit="10"/>
<path d="M92.1001 150.1C91.8001 149.7 90.8001 151.2 90.5001 151C90.3001 150.9 90.6001 150.6 90.8001 149.8C91.1001 148.8 91.3001 147.2 91.0001 146.9C90.7001 146.6 90.3001 147 90.2001 147.2C90.4001 146.7 91.0001 144.3 90.3001 144.2C89.6001 144.2 88.3001 147 87.6001 148C87.0001 149 84.8001 151.3 84.6001 151.3C84.4001 151.3 84.3001 149.4 84.3001 148.5C84.3001 147.7 83.6001 146.6 83.0001 146.7C82.3001 146.8 82.4001 148.6 82.3001 150.6C82.1001 152.5 81.8001 154.9 81.5001 156C81.4001 156.7 80.1001 158.9 79.1001 160.8C80.4001 161.2 82.8001 161.5 84.0001 163.5C84.9001 161.1 85.5001 159.4 85.6001 159C86.2001 157.8 88.1001 156.8 89.5001 155.1C90.7001 153.7 92.6001 150.9 92.1001 150.1Z" fill="white" stroke="#2E3374" stroke-width="1.4" stroke-miterlimit="10"/>
<path d="M46.3002 181.9C46.3002 181.9 49.1002 178.9 52.6002 178.4C63.3002 176.9 74.1002 165.3 77.6002 160.5C77.6002 160.5 79.3002 157.8 80.3002 157.1L87.2002 159.5C82.3002 175.2 63.6002 188.1 48.9002 192.2C43.3002 194.5 46.3002 181.9 46.3002 181.9Z" fill="white" stroke="#2E3374" stroke-width="1.4" stroke-miterlimit="10"/>
<path d="M87.3001 148.8L86.9001 151.1C86.8001 151.8 87.2001 152.5 87.8001 152.7L93.1001 153.7C93.8001 153.8 94.4001 153.3 94.5001 152.6L94.9001 150.3L87.3001 148.8Z" fill="white" stroke="#2E3374" stroke-width="1.4" stroke-miterlimit="10"/>
<path d="M109.8 121.8C111.4 113.9 106.9 106.4 99.7998 105C92.6998 103.6 85.6998 108.9 84.1998 116.8C83.6998 119.6 83.8998 122.4 84.6998 124.8C86.9998 132.2 86.6998 137.9 86.6998 137.9L93.0998 139.2L99.4998 140.5C99.4998 140.5 101.4 135.1 106.3 129.1C108 127.1 109.3 124.6 109.8 121.8Z" fill="#2E3374" stroke="#2E3374" stroke-width="1.4" stroke-miterlimit="10"/>
<path d="M86.4997 138L84.5997 147.6C84.4997 148 84.6997 148.4 85.0997 148.4L96.9997 150.7C97.2997 150.8 97.6997 150.5 97.7997 150.1L99.6997 140.5L86.4997 138Z" fill="white" stroke="#2E3374" stroke-width="1.4" stroke-miterlimit="10"/>
<path d="M90.6 138.7L92.6 120.1L94.4 122.5L96.9 119.5L98.2 123.1L100.7 121.6L95.6 139.7L96.3 139.8L101.9 120.1L98.6 122.1L97.2 118.2L94.5 121.4L92.2 118.2L90 138.6L90.6 138.7Z" fill="#F6F7F7"/>
<path d="M65.9999 159.4C66.5999 158.9 67.2999 157.9 67.3999 157.1C67.4999 155.8 63.6999 155.2 62.1999 154.2C62.1999 154.2 59.1999 151.4 58.1999 151.1C58.1999 151.1 55.7999 149.6 53.2999 151.5C50.7999 153.4 49.4999 157.8 49.9999 162.4C50.1999 164.2 51.6999 165.9 53.4999 167.3C52.6999 167.6 52.0999 168.3 51.5999 169.7C50.2999 173.9 46.8999 178.2 46.8999 178.5C46.8999 178.8 47.5999 180.5 50.3999 181C54.2999 181.8 57.4999 180.3 58.1999 179.3C58.8999 178.3 60.0999 173.5 60.4999 170.6C62.4999 170 66.6999 168.5 67.3999 165.5C67.8999 163.9 67.1999 161.6 65.9999 159.4Z" fill="white" stroke="#2E3374" stroke-width="1.4" stroke-miterlimit="10"/>
<path d="M51.3001 170.9C51.7001 170.8 52.4001 170 53.4001 169.6C54.7001 169.2 58.1001 169 58.1001 167C58.1001 165.8 57.1001 166 56.0001 165.8C54.6001 165.5 54.5001 163.7 55.7001 163C57.0001 162.2 58.9001 162 59.3001 159C59.7001 156.1 57.7001 154.9 58.0001 153.1C58.3001 151.2 60.6001 150.7 61.6001 148.1C62.4001 145.9 62.4001 142.2 60.8001 142.2C59.2001 142.2 58.1001 144.9 57.3001 145.2C56.5001 145.5 56.5001 144 55.3001 144.1C54.5001 144.2 53.4001 145 52.4001 146.5C51.7001 147.7 51.8001 148.9 51.1001 149.5C50.3001 150.1 43.3001 154.6 43.7001 160.5C44.1001 166.3 48.5001 166.6 49.7001 167.4C51.3001 169 50.8001 171 51.3001 170.9Z" fill="#15ADC2" stroke="#2E3374" stroke-width="1.4" stroke-miterlimit="10"/>
<path d="M8.4 300.5C9.2 300.7 10.5 300.3 11.8 300.2C11.2 299 10.9 297.7 10.9 296.2C10.9 293.8 14.8 288.5 15.8 287.4C15.8 287.4 14.5 285.2 12.8 284C11.2 282.8 9.5 282.9 9.5 282.9C9.5 282.9 5.9 292.7 5.5 293.8C5.2 294.3 4.7 295.1 4 295.8C5.1 297.4 7.3 300.3 8.4 300.5Z" fill="white" stroke="#2E3374" stroke-width="1.4" stroke-miterlimit="10"/>
<path d="M7.90002 305.3C12.9 309 17.7 310.4 18 310.4C18.3 310.3 18.9 309.9 18.8 308.5C18.7 307.4 16.9 306.3 15.4 304.4C14.5 303.1 13.5 301.8 12.9 300.3C11.4 300.4 9.90002 300.8 8.90002 300.6C7.60002 300.3 4.90002 296.6 3.40002 295C2.30002 296.3 1.00002 297.7 0.800018 298.3C0.700018 298.6 1.90002 300.9 7.90002 305.3Z" fill="#2E3374" stroke="#2E3374" stroke-width="1.4" stroke-miterlimit="10"/>
<path d="M46.0998 220.2C45.0998 226.1 41.6998 248 35.6998 258.4C29.6998 268.8 24.1998 276.4 21.7998 279.4C19.3998 282.4 14.6998 289 14.6998 289C14.6998 289 10.5998 289 7.8998 286.4C5.1998 283.8 4.0998 282.4 4.2998 281.4C4.4998 280.4 8.8998 271.8 11.3998 268.9C13.7998 265.9 17.0998 262.2 20.0998 255.7C22.9998 249.2 23.0998 241.7 23.8998 235.6C24.6998 229.5 25.7998 222.9 26.8998 219.1C28.0998 215.2 46.0998 220.2 46.0998 220.2Z" fill="#F8B243" stroke="#2E3374" stroke-width="1.4" stroke-miterlimit="10"/>
<path d="M73.7001 313.3C73.2001 313 72.7001 312.7 72.4001 312.5C70.5001 311 69.2001 305 68.9001 303.6C68.9001 303.6 66.3001 303.3 64.4001 303.8C62.5001 304.3 61.1001 305.7 61.1001 305.7C61.1001 305.7 66.3001 313.7 66.8001 314.8C67.1001 315.3 67.1001 316.3 67.1001 317.4C68.6001 317.4 71.1001 317.1 71.6001 316.7C71.9001 316.1 72.6001 314.3 73.7001 313.3Z" fill="white" stroke="#2E3374" stroke-width="1.4" stroke-miterlimit="10"/>
<path d="M66.5998 321.1C66.7998 321.4 71.7998 321.5 77.7998 320.8C83.9998 320 88.8998 317.3 89.0998 316.9C89.2998 316.6 89.3998 315.7 88.3998 314.9C87.5998 314.2 84.5998 314.6 82.2998 314.3C80.3998 314.1 76.6998 313.2 74.1998 311.9C72.8998 313.1 72.0998 315.3 71.5998 315.8C71.0998 316.4 68.0998 316.6 66.2998 316.6C66.3998 318.5 66.2998 320.5 66.5998 321.1Z" fill="#2E3374" stroke="#2E3374" stroke-width="1.4" stroke-miterlimit="10"/>
<path d="M52.1001 227.4C53.5001 230.2 62.2001 253.7 63.1001 262.8C64.0001 271.9 66.2001 282.4 67.1001 287.9C68.0001 293.4 70.8001 302 70.6001 303C70.3001 304 67.5001 305.6 63.7001 306.4C59.9001 307.2 55.7001 307 55.5001 306.7C55.3001 306.4 55.5001 305 54.7001 302.3C53.9001 299.6 51.6001 293.6 50.9001 288.9C50.2001 284.2 49.0001 273.5 48.0001 270.5C47.1001 267.6 42.5001 256.9 40.9001 252.5C39.3001 248.1 39.0001 245.7 37.7001 244.3C36.4001 242.8 30.6001 239 31.6001 230.9C32.4001 222.7 52.1001 227.4 52.1001 227.4Z" fill="#F8B243" stroke="#2E3374" stroke-width="1.4" stroke-miterlimit="10"/>
<path d="M103.1 146.3C102.8 145.9 101.8 147.3 101.5 147.1C101.3 147 101.6 146.7 101.8 145.9C102.1 144.9 102.4 143.4 102.1 143C101.8 142.7 101.4 143.1 101.3 143.3C101.6 142.8 102.2 140.4 101.6 140.4C100.9 140.3 99.3999 143.1 98.6999 144C97.9999 145 95.7999 147.1 95.4999 147.1C95.1999 147.1 95.2999 145.2 95.2999 144.3C95.2999 143.5 94.6999 142.4 94.0999 142.4C93.3999 142.5 93.3999 144.3 93.1999 146.3C92.8999 148.2 92.3999 150.6 92.0999 151.7C91.8999 152.4 90.5999 154.6 89.3999 156.4C90.6999 156.9 92.9999 157.2 94.1999 159.3C95.1999 156.9 95.8999 155.3 96.0999 154.9C96.7999 153.7 98.6999 152.9 100.2 151.2C101.5 149.8 103.6 147 103.1 146.3Z" fill="white" stroke="#2E3374" stroke-width="1.4" stroke-miterlimit="10"/>
<path d="M89.0998 155.9C85.5998 161.5 79.4998 170.6 75.6998 173.4C70.1998 177.4 58.3998 179.5 58.3998 179.5C58.3998 179.5 48.0998 178.6 47.2998 178.7C46.3998 178.8 44.0998 179.5 42.3998 181C39.5998 183.4 35.1998 191.8 30.9998 207.3C27.7998 219.4 24.7998 231.5 24.7998 232.4C24.7998 233.1 28.9998 233.9 35.8998 233.9C43.8998 233.9 54.0998 230.3 55.6998 228.3C58.0998 225.1 58.0998 200.9 61.3998 195.6C61.4998 195.8 76.5998 186.3 83.9998 178.1C88.1998 173.4 92.7998 164.9 94.9998 159.7C93.9998 157.4 90.2998 156.3 89.0998 155.9Z" fill="white" stroke="#2E3374" stroke-width="1.4" stroke-miterlimit="10"/>
</svg>