<?xml version="1.0" encoding="utf-8"?>
<!-- Generator: Adobe Illustrator 22.0.1, SVG Export Plug-In . SVG Version: 6.00 Build 0)  -->
<svg version="1.1" id="Layer_1" xmlns="http://www.w3.org/2000/svg" xmlns:xlink="http://www.w3.org/1999/xlink" x="0px" y="0px"
	 viewBox="0 0 528 262" style="enable-background:new 0 0 528 262;" xml:space="preserve">
<style type="text/css">
	.st0{fill:#E1FCE7;}
	.st1{fill:#D8F5DE;}
	.st2{fill:#AEDEB9;}
	.st3{fill:#15ADC2;stroke:#2E3374;stroke-width:1.5;stroke-miterlimit:10;}
	.st4{fill:#F8B243;stroke:#2E3374;stroke-width:1.5;stroke-miterlimit:10;}
	.st5{fill:#2E3374;stroke:#2E3374;stroke-width:1.5;stroke-miterlimit:10;}
	.st6{fill:#FFFFFF;stroke:#2E3374;stroke-width:1.5;stroke-miterlimit:10;}
	.st7{clip-path:url(#SVGID_2_);}
</style>
<path class="st0" d="M98.6,83.3c-16.5,7.4-33.3,15.6-45,29.5c-3.9,4.7-7.3,10.3-6.9,16.2c0.6,11.2,13.6,17.9,24.8,18
	c11.2,0,22.2-4.2,33.4-4.2c5.8,0,13.1,2.8,13,8.6c0,3.5-2.8,6.2-5.4,8.5c-19.9,17.7-39.8,35.5-59.6,53.2c-6.7,6-13.4,12.1-17,20.3
	c-3.4,8.2-2.5,18.9,4.7,24.3c4.7,3.5,10.9,4,16.8,4.1c26.5,0.5,53-3.6,79.2-8.4c92.4-17,183.1-43.3,270.4-78.2
	c16-6.4,33.1-14.2,40.7-29.7c8.8-17.9-0.6-42.1-19.1-49.5c-11-4.4-23.4-3.2-35.1-5.3c-11.7-2.1-24.2-10.2-24.3-22.1
	c-0.2-19.6,31.6-27.1,32.5-46.7c0.5-10.4-9-19.1-19.2-21.4c-10.2-2.2-20.7,0.5-30.6,3.6C352,4.2,171.8,50.4,98.6,83.3z"/>
<path class="st1" d="M333,30.5c-19.9-18.3-44.2-23.5-74.2-22.1c-4.9,0.2-10.4,1-13.3,4.3c-2.8,3.3,0.2,9.3,5,8.4
	C216.7,5.5,176.3-0.3,138,4.8c-4.2,0.6-8.8,1.5-11.4,4.3c-2.6,2.8-0.8,8,3.4,8.1C98.5,4.5,41.7,29,47.4,31L333,30.5z"/>
<path class="st2" d="M494,71.5C479.4,57.8,461.5,54,439.4,55c-3.6,0.1-7.6,0.8-9.7,3.2c-2.1,2.4,0.1,6.9,3.7,6.2
	c-24.8-11.7-54.6-15.9-82.7-12.1c-3.2,0.5-6.6,1-8.3,3.2c-1.9,2.1-0.6,6,2.6,6c-23.2-9.5-64.9,8.8-60.7,10.4L494,71.5z"/>
<path class="st2" d="M384,235.5c-13.6-12.4-29.9-15.8-50.3-14.9c-3.3,0.1-7,0.7-9,2.9c-1.9,2.3,0.1,6.3,3.4,5.7
	c-22.9-10.5-50.4-14.5-76.4-11c-2.9,0.3-6,1-7.7,2.9c-1.8,1.9-0.6,5.4,2.3,5.4c-21.4-8.6-59.9,8-56,9.4L384,235.5z"/>
<path class="st3" d="M259.7,45.9c0,0-12.1,44.4,31.8,50.4c-2.2,4.8-2.6,6.7-2.6,6.7s-44.7-11.2-42.4-39.5
	C254.3,45.7,259.7,45.9,259.7,45.9z"/>
<path class="st4" d="M162.6,126.5l-46.1-21.6L64,166.6l44.1-9.4L162.6,126.5z"/>
<path class="st4" d="M181,209l-32.9,38.7l-74-34.7l44.2-9.5L181,209z"/>
<path class="st5" d="M124.8,195.8l-18.8,2.1l-7-30.7l18.1-5.2L124.8,195.8z"/>
<path class="st6" d="M414,115c0,0-46.9,50.9-107.7,77.8c-1.2,0.5-2.2,0.9-3.4,1.4c-1.2,0.5-2.2,0.9-3.4,1.4
	c-10.1,4.1-20.6,7.4-31.2,9.8c-51.4,11.2-112.8,8-150-0.9L108.2,158c30-23.7,84.3-53.1,135.7-64.4c10.6-2.4,21.5-3.7,32.5-4.1
	c1.3-0.1,2.5-0.1,3.8-0.1c1.3,0,2.5-0.1,3.8-0.1C350.3,88.3,414,115,414,115z"/>
<path class="st4" d="M414,115c0,0-47,50.9-107.8,77.8c-1.2,0.5-2.2,0.9-3.4,1.4c-14.7-13.7-24.6-30.5-28.6-48.6
	c-4-18.2-2-37.7,5.8-56.2c1.3,0,2.5-0.1,3.8-0.1C350.2,88.3,414,115,414,115z"/>
<path class="st5" d="M284.2,89.2c-1.3,0-2.4,0-3.7,0.1c-1.2,0-2.4,0.1-3.7,0.1c-3.5,8.7-5.7,17.5-6.7,26.4
	c-1.2,10.1-0.7,20.4,1.4,30.1c2.1,9.9,5.8,19.3,11.1,28c4.5,7.6,10.2,14.7,16.9,21.2c1.2-0.5,2.2-0.9,3.4-1.4
	c1.2-0.5,2.2-0.9,3.4-1.4c-14.3-12.9-24.3-29.2-28.3-47.8C274.1,126.1,276.5,107.1,284.2,89.2z"/>
<path class="st4" d="M172.7,174.3l-82.4,18.1l-21.7-1.7l19-10.6L170,162L172.7,174.3z"/>
<path class="st5" d="M252.6,174l12.2,15.6l-17-10.1v2.2l-4.1-2.7l3.9-7L252.6,174z"/>
<path class="st5" d="M264.9,133.6c1.1-1.4,0.4-3.4-1.4-3.7c-15-2.8-48.7-11.3-53.8-16.8c-5.7-6.1,2.1-14.1,7.8-18.3l18,7.6
	l46.3,21.5c1.3,0.6,1.8,2.1,1.1,3.4l-28.6,47.7c0,0-5.1-0.6-8.6-1.3C245.7,173.3,258.9,139.3,264.9,133.6z"/>
<path class="st6" d="M271.2,99.5l8.5-0.1l-0.2,1.4l3.7,3.5l-3.9,4.4l-8-5.2v-3.9H271.2z"/>
<path class="st3" d="M260.2,45.3l-4.5,26.2l-19.6,30.6l-21.1-5.7l19.6-56.8l22-4.7L260.2,45.3z"/>
<path class="st6" d="M265.7,38.2l-6.6,7.7L256.5,35l3.2-2L265.7,38.2z"/>
<path class="st5" d="M258.5,12.8c-3.4,1.3-5.1,9.6-4.6,11.4c0.5,1.8,5.6,8.9,5.6,8.9l9-18.8L258.5,12.8z"/>
<path class="st6" d="M270.7,18.9l-0.3-1.5c0,0-9-2.2-10.8,0.1c-0.9,1-0.9,4.7-0.7,8.6c-0.2,0-0.3,0-0.6,0c-0.8,0.2-1.1,1.4-0.8,2.4
	c0.3,1,1,1.6,1.8,1.6c0.3,3.2,0.9,6,1.2,6.9c0.8,2.3,7.9,3.8,10.7,2.4C274.9,36.7,270.7,18.9,270.7,18.9z"/>
<path class="st3" d="M234.1,40.4c0,0-31.5,60.1,38,65.4c-0.4-3.4-0.4-6-0.4-6s-36-4.7-30.6-35.9c0.6-3.3,1.7-6.5,3-9.6
	C250.4,40.3,234.1,40.4,234.1,40.4z"/>
<g>
	<defs>
		<rect id="SVGID_1_" x="254.7" y="6.3" width="24.9" height="15.7"/>
	</defs>
	<clipPath id="SVGID_2_">
		<use xlink:href="#SVGID_1_"  style="overflow:visible;"/>
	</clipPath>
	<g class="st7">
		<path class="st5" d="M257.1,20.4c-1.3-1-1.8-2.9-1.3-4.6c0.6-2.2,2.9-3.5,5.3-3.9c2.2-0.3,4.5,0,6.8-0.4c2.3-0.4,4.6-1.4,5.5-3.7
			c1.2,1,1.9,2.7,1.8,4.4c0.8-0.7,1.5-1.4,2.3-2.1c-1.2,3.4-2.3,7-5.3,9c-2.8,2-6.5,1.7-10,1.4C262.2,20.8,258.2,21.6,257.1,20.4z"
			/>
	</g>
</g>
</svg>
