<?xml version="1.0" encoding="UTF-8"?>
<svg fill="none" viewBox="0 0 460 184" xmlns="http://www.w3.org/2000/svg">
<path d="M0 0H460V184H0V0Z" fill="#2E3374"/>
<path d="m124.29 110.89c-3.458-3.561-6.928-7.078-10.792-10.214-2.276-1.8475-4.676-3.5279-7.026-5.28 0.271 0.2375 0.537 0.482 0.796 0.7323-0.733-0.498-1.693-0.7794-2.471-1.2404-0.868-0.514-1.697-1.1022-2.51-1.695-1.588-1.1569-3.1518-2.3357-4.7838-3.4323-1.8183-1.2216-3.7027-2.3504-5.552-3.526-1.5694-0.9977-3.1581-2.0897-4.8371-2.9053-0.9151-0.4445-1.8323-0.9715-2.7512-1.4351-0.3075-0.1552-3.4279-2.1255-3.42-2.1314 0.1725-0.13 1.7427 0.6078 1.9855 0.707 0.7094 0.2898 1.3878 0.6363 2.0698 0.9818-0.3744-0.7383-0.6707-1.5141-0.832-2.3306-0.0498-0.2521-0.449-2.0869-0.2448-2.2409 0.1021-0.0769 1.0976 3.2059 1.1486 3.5216 0.0414 0.2563 0.0353 0.6255 0.1193 0.8683 0.1354 0.392 0.1286 0.2737 0.4271 0.4945 0.5471 0.4048 1.2732 0.6578 1.8653 0.9962 0.3193 0.1783 1.3078 0.885 1.9032 1.0865 1.8016 0.875 3.6277 2.2212 5.3394 3.3389-0.4492-0.8443-0.7911-1.7272-1.0404-2.6524-0.0593-0.2196-0.6991-2.19-0.5439-2.307 0.1747-0.1316 1.3938 2.8778 1.466 3.1627 0.1341 0.5291 0.1619 1.1182 0.3299 1.6331 0.1844 0.5651 0.7596 0.7655 1.2781 1.0949 1.9075 1.212 3.7495 2.4998 5.561 3.8467 1.976-3.515-0.303-7.7597-2.2232-10.709-1.3844-2.1256-3.2481-3.9479-5.216-5.5388-2.6262-2.1233-5.631-3.8195-8.6321-5.371-3.4968-1.8079-7.2763-2.928-11.206-3.4455-2.0551-0.2707-4.1576-0.2631-6.2334-0.1763-1.014 0.0423-1.9873 0.1766-2.9591 0.5073-0.438 0.1493-0.8613 0.3373-1.2738 0.5479-0.3134 0.16-1.0716 0.3289-1.2518 0.5673-1.4834 1.9308-2.2423 3.8547-2.1264 6.2809 0.1096 2.2966 0.8349 4.5945 1.8193 6.6431 1.0962 2.2811 2.5062 4.3515 4.3501 6.0892 1.4069 1.3258 2.9797 2.4796 4.5422 3.6183 5.5574 4.0501 12.603 7.5726 19.801 6.6677 2.3299-0.2929 4.5459-1.1077 6.6168-2.2149 0.488-0.2609 0.973-0.5248 1.4336-0.8329 0.3106-0.2076 1.1405-1.1434 1.4535-1.1774 0.428-0.0466 1.35 0.8243 1.752 1.0894 3.053 2.0153 6.026 4.1396 8.936 6.3495 3.097 2.352 6.042 4.864 8.9 7.494 1.215 1.118 2.423 2.239 3.603 3.395 0.275 0.269 0.947 1.26 1.445 1.305 0.315 0.028 0.528-0.241 0.483-0.533-0.078-0.507-1.145-1.265-1.499-1.63z" clip-rule="evenodd" fill="#C1DEE2" fill-rule="evenodd"/>
<path d="m96.19 103.34c-0.5308-0.529-1.127-1.006-1.8269-1.347-0.1769-0.086-1.495-0.663-1.5809-0.536-0.2 0.295 3.2483 1.714 3.4078 1.883zm6.2491-3.5348c-4e-3 0.0223 0.453 0.7368 0.578 0.9558 0.264 0.467 0.509 0.943 0.739 1.42-0.341-0.842-0.691-1.623-1.317-2.3758zm-31.962 5.8128c-0.4401 0.131-0.9694-0.384-0.3984-0.51 0.462-0.102 0.4393-0.126 0.6468-0.469 0.1684-0.278 0.2722-0.618 0.42-0.909 0.3135-0.62 0.6692-1.211 1.1058-1.764 0.9356-1.186 2.0755-2.2088 3.3541-3.0703 2.2313-1.5034 4.7332-2.8775 7.3872-3.5678 4.2197-1.0977 9.0224-1.1656 13.249-0.4045 2.6176 0.4713 5.0092 1.2906 6.7482 3.2313 0.868 0.9698 1.55 2.1063 1.848 3.3573 0.078 0.327 0.064 0.691 0.161 1.011 0.15 0.492 0.084 0.361 0.709 0.457 0.683 0.104 1.365 0.211 2.047 0.32 1.785 0.284 3.581 0.586 5.321 1.048 0.573 0.151 1.133 0.337 1.68 0.553 0.414 0.163 2.062 0.674 2.262 1.169 0.333 0.824-0.784 0.45-1.13 0.271-0.304-0.157-0.616-0.304-0.933-0.439-0.797-0.339-1.628-0.602-2.477-0.811-0.918-0.226-1.855-0.395-2.788-0.564-0.87-0.157-1.743-0.301-2.617-0.438-0.486-0.076-0.972-0.15-1.459-0.224-0.166-0.025-0.459-0.157-0.436 0.041-1.023-0.181-2.128-0.155-3.169-0.205-1.275-0.061-2.5554-0.111-3.835-0.075-0.9228 0.027-1.8465 0.083-2.7646 0.197-0.5365 0.067-1.0645 0.164-1.5909 0.288-0.2891 0.068-1.4293 0.212-1.5868 0.444 0.0677-0.1 1.326-3e-3 1.4862-9e-3 0.6406-0.022 1.2762-0.08 1.9145-0.146 1.1845-0.122 2.3694-0.185 3.5575-0.176-0.0045 0.192-0.8161 0.534-1.0142 0.661-0.4442 0.286-0.8696 0.597-1.2666 0.939-0.6992 0.601-1.5364 1.346-2.0201 2.059 0.1426-0.21 0.8457-0.483 1.0953-0.644 0.3997-0.257 0.7913-0.531 1.1619-0.825 0.3421-0.27 0.6613-0.563 0.9752-0.862s0.7399-0.92 1.1523-1.119c0.0249-0.012 0.2047 0.119 0.3068 0.074 0.103-0.045 0.2313-0.269 0.2574-0.278 0.3841-0.136 1.1131 0.034 1.5171 0.051 1.046 0.044 2.092 0.102 3.138 0.155 0.324 0.017 0.6-0.051 0.722 0.169 0.13 0.235-0.109 0.852-0.177 1.107-0.252 0.95-0.7 1.801-1.405 2.537-1.32 1.378-2.949 2.297-4.7882 2.911-7.0458 2.354-14.542 3.297-21.585 0.848-2.9161-1.013-7.3077-2.825-6.7819-6.389z" clip-rule="evenodd" fill="#89C5CC" fill-rule="evenodd"/>
<path d="m383.08 63.223c-0.175-0.1727-0.632-0.2897-0.842-0.3637-0.871-0.3073-1.785-0.5165-2.7-0.646-2.822-0.3947-5.729-0.518-8.572-0.4219-1.806 0.061-4.083 0.8035-5.755-0.0112-2.913-1.4194-6.005-1.8073-9.101-0.807-2.83 0.9147-5.187 3.0789-6.734 5.5587-0.234 0.3744-1.16 1.7428-1.503 2.7049-0.116 0.1903-0.228 0.3825-0.333 0.5789-0.296 0.5577-0.573 1.1288-0.835 1.7029-0.113 0.245-0.384 0.7824-0.172 0.9237-0.459 0.6314-0.881 1.2894-1.251 1.9779-1.078 2.0022-2.258 4.199-2.849 6.3992-0.219 0.8147-0.34 1.6481-0.364 2.4921-0.011 0.4171-0.147 1.24 0.082 1.5908 0.486 0.7444 0.914-0.1408 0.912-0.5918-0.023-3.4369 1.387-6.4619 2.977-9.4648 1.028-1.9418 2.505-3.6422 4.104-5.1454 1.294-1.2167 2.627-2.1305 4.263-2.8271 2.001-0.8518 4.1-1.4725 6.18-2.0985 1.369-0.412 2.737-0.8078 4.129-1.1325 0.31-0.0723 0.813-0.2987 1.139-0.2538 0.689 0.0948 1.591 0.7506 2.229 1.0373 2.097 0.9432 4.198 2.0679 6.413 2.7113 1.42 0.4129 2.812 0.3712 4.237 0.0706 0.146-0.0305 0.396-0.127 0.707-0.2714 1.063-0.2523 2.085-0.6144 3.016-1.2137 0.536-0.3454 1.045-0.8177 1.509-1.2502 0.139-0.1292 0.215-0.2893 0.239-0.4481 0.097-0.035 0.164-0.0823 0.187-0.1455 0.166-0.4668-0.732-0.6029-1.312-0.6557z" clip-rule="evenodd" fill="#89C5CC" fill-rule="evenodd"/>
<path d="m392.82 79.142c-0.712-1.1083-1.732-2.0992-2.675-3.0111-5.038-4.9105-12.255-7.4647-19.166-6.9169-5.883 0.4663-10.58 3.6684-15.109 7.1231-0.45 0.3431-0.867 0.714-1.294 1.081-0.092 0.0787-0.178 0.1451-0.26 0.2064-0.396-0.0241-0.724 0.0827-0.839 0.4458-1.468 0.541-2.891 1.1788-4.291 1.9047-4.12 2.1365-8.317 4.3155-10.99 8.2239 1.957-1.6644 4.114-3.2097 6.261-4.6247 0.123-0.0812 0.247-0.1599 0.372-0.2373 0.013-0.0082 0.026-0.0166 0.039-0.0248 0.674-0.4159 1.371-0.7767 2.096-1.093 8e-3 -0.0036 0.016-0.0071 0.024-0.0105 0.095-0.0415 0.192-0.081 0.288-0.1209 0.2-0.0825 0.401-0.1633 0.605-0.2396 0.069-0.0262 0.138-0.0536 0.206-0.0823 1.019-0.424 1.958-1.111 2.971-1.5909 0.233-0.106 0.469-0.2085 0.707-0.3069 0.014-0.0057 0.028-0.0114 0.042-0.017 0.641-0.2639 1.297-0.5026 1.96-0.7246 0.208 0.0306 0.494-0.1264 0.798-0.224 0.061-0.0182 0.492-0.1152 0.693-0.2176 0.379-0.1187 0.757-0.238 1.135-0.3554-5e-3 -0.0025-0.01-5e-3 -0.016-0.0074 0.369-0.1075 0.738-0.2135 1.104-0.3196 0.08-0.0233 0.161-0.0463 0.242-0.0695 0.13-0.0362 0.259-0.0722 0.389-0.1082 1.209-0.3366 2.429-0.6316 3.657-0.8993 0.438-0.0955 1.23-0.0688 1.609-0.29 0.014-0.0083 0.025-0.0179 0.037-0.0269 2.492-0.4072 5.028-0.5443 7.524-0.165-0.36 0.0122-1.361 0.2742-1.584 0.3016-0.682 0.0838-1.363 0.1156-2.05 0.1505-1.229 0.0627-2.466 0.1597-3.677 0.3585-2.216 0.3636-4.372 0.9219-6.512 1.5511-0.015 1e-3 -0.031 8e-4 -0.046 0.0023-0.843 0.0838-1.782 0.545-2.586 0.8017 1.576 0.5851 3.093 1.4574 4.642 2.1265 1.544 0.6674 3.108 1.2548 4.72 1.7199 2.143 0.6182 4.436 1.1894 6.714 1.5196 2.413 0.5768 4.934 0.569 7.37 0.3515 2.882-0.2574 5.669-0.6382 8.32-1.8003 1.303-0.5712 2.568-1.2604 3.727-2.0779 0.051-0.0356 0.107-0.0728 0.166-0.111 0.516-0.1669 1.021-0.3599 1.509-0.586 0.774-0.3584 1.887-0.4906 1.168-1.6095z" clip-rule="evenodd" fill="#69A1AC" fill-rule="evenodd"/>
<path d="m166.01 111.99c-4e-3 0.01-8e-3 0.02-0.014 0.032 6e-3 -0.01 0.014-0.05 0.014-0.032z" clip-rule="evenodd" fill="#C5CFD6" fill-rule="evenodd"/>
<path d="m166 112c0 2e-3 -2e-3 6e-3 -2e-3 0.01 0-0.01 0.018-0.04 2e-3 -0.01z" clip-rule="evenodd" fill="#C5CFD6" fill-rule="evenodd"/>
<path d="m166.07 111.83c-0.014 0.04-0.032 0.078-0.048 0.118 8e-3 -0.02 0.016-0.036 0.024-0.056-0.208 0.52-0.076 0.182 0.024-0.062z" clip-rule="evenodd" fill="#C5CFD6" fill-rule="evenodd"/>
<path d="m166.02 111.95c-8e-3 0.018-0.016 0.038-0.024 0.056-0.058 0.112 0.024-0.056 0.024-0.056z" clip-rule="evenodd" fill="#C5CFD6" fill-rule="evenodd"/>
<path d="m166 112c0-2e-3 0-2e-3 2e-3 -4e-3 -2e-3 2e-3 -2e-3 2e-3 -2e-3 4e-3z" clip-rule="evenodd" fill="#C5CFD6" fill-rule="evenodd"/>
<path d="m165.99 112.02c-0.012 0.024 0.056-0.092 0 0z" clip-rule="evenodd" fill="#C5CFD6" fill-rule="evenodd"/>
<path d="m166 112 4e-3 -4e-3c-2e-3 2e-3 -2e-3 4e-3 -4e-3 4e-3z" clip-rule="evenodd" fill="#C5CFD6" fill-rule="evenodd"/>
<rect x="118" y="60" width="95" height="63" rx="4" fill="#DDE3E9"/>
<path d="m192 90c4.971 0 9-4.0294 9-9s-4.029-9-9-9-9 4.0294-9 9 4.029 9 9 9z" clip-rule="evenodd" fill="#fff" fill-rule="evenodd"/>
<path d="m171.3 88.5-21.65-13.5-21.651 13.5h6v34.5h32v-34.5h5.301z" clip-rule="evenodd" fill="#AFB9C5" fill-rule="evenodd"/>
<path d="m189 100.6-16-9.6-16 9.6h4.215v22.4h23.648v-22.4h4.137z" clip-rule="evenodd" fill="#C5CFD6" fill-rule="evenodd"/>
<path d="m150 103c3.314 0 6-2.686 6-6 0-3.3137-2.686-6-6-6s-6 2.6863-6 6c0 3.314 2.686 6 6 6z" clip-rule="evenodd" fill="#C5CFD6" fill-rule="evenodd"/>
<path d="m173 107c1.657 0 3-1.343 3-3s-1.343-3-3-3-3 1.343-3 3 1.343 3 3 3z" clip-rule="evenodd" fill="#DDE3E9" fill-rule="evenodd"/>
<path d="m298.01 111.99c-4e-3 0.01-8e-3 0.02-0.014 0.032 6e-3 -0.01 0.014-0.05 0.014-0.032z" clip-rule="evenodd" fill="#C5CFD6" fill-rule="evenodd"/>
<path d="m298 112c0 2e-3 -2e-3 6e-3 -2e-3 0.01 0-0.01 0.018-0.04 2e-3 -0.01z" clip-rule="evenodd" fill="#C5CFD6" fill-rule="evenodd"/>
<path d="m298.07 111.83c-0.014 0.04-0.032 0.078-0.048 0.118 8e-3 -0.02 0.016-0.036 0.024-0.056-0.208 0.52-0.076 0.182 0.024-0.062z" clip-rule="evenodd" fill="#C5CFD6" fill-rule="evenodd"/>
<path d="m298.02 111.95c-8e-3 0.018-0.016 0.038-0.024 0.056-0.058 0.112 0.024-0.056 0.024-0.056z" clip-rule="evenodd" fill="#C5CFD6" fill-rule="evenodd"/>
<path d="m298 112c0-2e-3 0-2e-3 2e-3 -4e-3 -2e-3 2e-3 -2e-3 2e-3 -2e-3 4e-3z" clip-rule="evenodd" fill="#C5CFD6" fill-rule="evenodd"/>
<path d="m297.99 112.02c-0.012 0.024 0.056-0.092 0 0z" clip-rule="evenodd" fill="#C5CFD6" fill-rule="evenodd"/>
<path d="m298 112 4e-3 -4e-3c-2e-3 2e-3 -2e-3 4e-3 -4e-3 4e-3z" clip-rule="evenodd" fill="#C5CFD6" fill-rule="evenodd"/>
<rect x="250" y="60" width="95" height="63" rx="4" fill="#DDE3E9"/>
<path d="m324 90c4.971 0 9-4.0294 9-9s-4.029-9-9-9-9 4.0294-9 9 4.029 9 9 9z" clip-rule="evenodd" fill="#fff" fill-rule="evenodd"/>
<path d="m303.3 88.5-21.65-13.5-21.651 13.5h6v34.5h32v-34.5h5.301z" clip-rule="evenodd" fill="#AFB9C5" fill-rule="evenodd"/>
<path d="m321 100.6-16-9.6-16 9.6h4.215v22.4h23.648v-22.4h4.137z" clip-rule="evenodd" fill="#C5CFD6" fill-rule="evenodd"/>
<path d="m282 103c3.314 0 6-2.686 6-6 0-3.3137-2.686-6-6-6s-6 2.6863-6 6c0 3.314 2.686 6 6 6z" clip-rule="evenodd" fill="#C5CFD6" fill-rule="evenodd"/>
<path d="m305 107c1.657 0 3-1.343 3-3s-1.343-3-3-3-3 1.343-3 3 1.343 3 3 3z" clip-rule="evenodd" fill="#DDE3E9" fill-rule="evenodd"/>
<g clip-path="url(#a)" fill="#AFB9C5">
<path d="m228.2 113.3 8-8c0.3-0.2 0.4-0.6 0.4-0.9 0-0.4-0.1-0.7-0.4-1l-8-8c-0.2-0.2-0.6-0.4-0.9-0.4s-0.7 0.1-0.9 0.4c-0.3 0.3-0.4 0.6-0.4 1s0.1 0.7 0.4 0.9l7.1 7.1-7.1 7.1c-0.3 0.3-0.4 0.6-0.4 1s0.1 0.7 0.4 0.9c0.2 0.3 0.6 0.4 0.9 0.4s0.7-0.2 0.9-0.5z"/>
<path d="m234.4 87.3-8-8c-0.3-0.2-0.4-0.6-0.4-0.9 0-0.4 0.1-0.7 0.4-1l8-8c0.2-0.2 0.6-0.4 0.9-0.4s0.7 0.1 0.9 0.4c0.3 0.3 0.4 0.6 0.4 1s-0.1 0.7-0.4 0.9l-7.1 7.1 7.1 7.1c0.3 0.3 0.4 0.6 0.4 1s-0.1 0.7-0.4 0.9c-0.2 0.3-0.6 0.4-0.9 0.4s-0.7-0.2-0.9-0.5z"/>
</g>
<defs>
<clipPath id="a">
<rect x="226" y="69" width="10.6" height="44.8" fill="#fff"/>
</clipPath>
</defs>
</svg>
