<svg width="83" height="56" viewBox="0 0 83 56" fill="none" xmlns="http://www.w3.org/2000/svg">
<path fill-rule="evenodd" clip-rule="evenodd" d="M81.8085 47.5692L70.371 27.758V20.3545C70.371 15.2328 66.2049 11.0661 61.0839 11.0661H51.5054L59.7519 2.81979C60.3323 2.23927 60.3323 1.29883 59.7519 0.718311C59.1714 0.137788 58.2311 0.137788 57.6507 0.718311L46.8694 11.4997C46.7498 11.6187 46.6597 11.7641 46.586 11.9184V1.48604C46.586 0.664608 45.9214 0 45.1001 0C44.2787 0 43.6142 0.664608 43.6142 1.48604V11.0661H36.5343C31.4133 11.0661 27.2472 15.2328 27.2472 20.3545C27.2472 25.4761 31.4133 29.6427 36.5343 29.6427C40.0168 29.6427 42.8494 32.4758 42.8494 35.9588C42.8494 39.4419 40.0168 42.275 36.5343 42.275H28.9821L31.6397 39.6161C32.2201 39.0356 32.2201 38.0952 31.6397 37.5147C31.0592 36.9341 30.1189 36.9341 29.5385 37.5147L24.3469 42.7084C24.334 42.7212 24.328 42.7396 24.3156 42.753C23.8007 36.6161 18.6502 31.7762 12.3836 31.7762C5.77676 31.7762 0.400391 37.1532 0.400391 43.7611C0.400391 50.3689 5.77676 55.7459 12.3836 55.7459C18.6502 55.7459 23.8007 50.906 24.3156 44.7691C24.328 44.7825 24.334 44.8009 24.3469 44.8136L29.5385 50.0059C29.8288 50.2963 30.2089 50.4414 30.5891 50.4414C30.9692 50.4414 31.3495 50.2963 31.6397 50.0059C32.2201 49.4255 32.2201 48.485 31.6397 47.9044L28.9827 45.2472H36.5343C41.6552 45.2472 45.8212 41.0805 45.8212 35.9588C45.8212 30.8372 41.6552 26.6705 36.5343 26.6705C33.0516 26.6705 30.2191 23.8376 30.2191 20.3545C30.2191 16.8714 33.0516 14.0385 36.5343 14.0385H43.6142V23.6184C43.6142 24.4398 44.2787 25.1046 45.1001 25.1046C45.9214 25.1046 46.586 24.4398 46.586 23.6184V13.186C46.6597 13.3402 46.7498 13.4858 46.8694 13.6049L57.6507 24.3861C57.9408 24.6765 58.3211 24.8216 58.7013 24.8216C59.0814 24.8216 59.4616 24.6765 59.7519 24.3861C60.3323 23.8056 60.3323 22.8652 59.7519 22.2847L51.5054 14.0385H61.0839C64.5666 14.0385 67.3991 16.8714 67.3991 20.3545V27.758L55.963 47.5692C55.6975 48.0293 55.6975 48.5953 55.963 49.0554C56.2285 49.5154 56.7191 49.7984 57.2502 49.7984H80.5215C81.0525 49.7984 81.543 49.5154 81.8085 49.0554C82.0741 48.5953 82.0741 48.0293 81.8085 47.5692ZM12.3836 52.7737C7.41499 52.7737 3.37217 48.7303 3.37217 43.7611C3.37217 38.7918 7.41499 34.7484 12.3836 34.7484C17.3521 34.7484 21.3949 38.7918 21.3949 43.7611C21.3949 48.7303 17.3521 52.7737 12.3836 52.7737ZM59.8243 46.8262L68.885 31.1289L77.9471 46.8262H59.8243Z" fill="white"/>
</svg>
