<svg width="320" height="259" viewBox="0 0 320 259" fill="none" xmlns="http://www.w3.org/2000/svg">
<path d="M0 20C0 8.95431 8.95431 0 20 0H320V259H20C8.95431 259 0 250.046 0 239V20Z" fill="#2E3374"/>
<path d="M69.7677 79.2362C70.0409 79.1434 70.5872 79.2362 70.8603 79.2362C71.953 79.3291 73.0456 79.5147 74.0472 79.7933C77.234 80.6288 80.5119 81.8357 83.5166 83.2282C85.4287 84.1566 87.614 86.0133 89.7082 85.8276C93.5324 85.5491 96.9924 86.5703 99.9061 89.0769C102.547 91.3978 104.094 94.8328 104.732 98.2677C104.823 98.8247 105.187 100.681 105.187 101.981C105.187 102.26 105.278 102.538 105.278 102.817C105.369 103.559 105.369 104.302 105.46 105.045C105.46 105.323 105.551 106.066 105.187 106.159C105.369 107.087 105.551 108.016 105.642 108.944C105.916 111.636 106.189 114.607 105.824 117.299C105.733 118.32 105.46 119.249 105.096 120.177C104.914 120.641 104.732 121.57 104.277 121.848C103.457 122.405 103.366 121.291 103.548 120.734C105.096 116.928 104.914 112.936 104.55 108.944C104.277 106.344 103.457 103.745 102.456 101.424C101.636 99.4746 100.543 97.8964 99.0866 96.3182C97.2655 94.4614 95.3534 92.7904 93.3503 91.2121C92.0756 90.0981 90.7098 89.0769 89.435 88.0557C89.1619 87.87 88.7066 87.313 88.3424 87.2202C87.5229 87.0345 86.2482 87.313 85.4287 87.313C82.6972 87.4058 79.9656 87.6844 77.3251 87.4059C75.5951 87.2202 74.1382 86.5703 72.6814 85.5491C72.4993 85.4563 72.3172 85.2706 72.044 84.8993C71.0424 84.1566 70.0409 83.2282 69.3124 82.207C68.8572 81.5571 68.584 80.8145 68.2198 80.1646C68.1288 79.9789 68.1288 79.7933 68.1288 79.6076C68.0377 79.5147 67.9467 79.4219 68.0377 79.3291C68.1288 78.7721 69.1303 79.0506 69.7677 79.2362Z" fill="#89C5CC"/>
<path d="M51.5675 92.1818C52.8503 91.2558 54.4079 90.7002 55.8739 90.052C63.5703 86.9035 72.5494 87.4591 79.8793 91.1632C86.1097 94.3116 89.7747 100.053 93.0732 105.887C93.4397 106.442 93.7145 107.091 93.9894 107.646C94.081 107.739 94.081 107.924 94.1727 108.017C94.6308 108.202 94.9056 108.48 94.9056 108.85C96.28 110.147 97.5627 111.443 98.7538 112.925C102.236 117.184 105.901 121.444 107 127C105.626 124.315 103.976 121.629 102.236 119.036C102.144 118.851 102.052 118.758 101.961 118.573C101.411 117.832 100.861 117.092 100.128 116.443C100.037 116.351 99.945 116.258 99.8533 116.166C99.6701 115.98 99.4868 115.795 99.3036 115.61C99.212 115.517 99.212 115.517 99.1203 115.425C98.2041 114.499 97.4711 113.295 96.6465 112.276C96.4633 112.091 96.1884 111.813 96.0051 111.628C95.4554 111.073 94.814 110.517 94.1727 109.961C93.8978 109.869 93.7145 109.591 93.4397 109.313C93.348 109.22 92.9815 108.943 92.7983 108.757C92.4318 108.48 92.0653 108.109 91.6988 107.831C91.3323 107.554 90.9658 107.276 90.5993 106.998C90.5077 106.905 90.4161 106.905 90.3245 106.813C90.2328 106.72 90.0496 106.628 89.958 106.535C88.7668 105.609 87.5757 104.776 86.3846 103.85C85.9265 103.572 85.1019 103.201 84.7354 102.831C84.7354 102.831 84.7354 102.831 84.7354 102.738C82.1699 101.164 79.5128 99.8677 76.5809 99.1269C76.9474 99.3121 77.9552 100.053 78.1385 100.146C78.8715 100.516 79.6045 100.886 80.3374 101.257C81.6202 101.905 82.9945 102.553 84.1856 103.294C86.4762 104.683 88.492 106.257 90.5993 107.924C90.5993 107.924 90.5993 107.924 90.6909 107.924C91.6072 108.387 92.3402 109.313 93.1648 109.961C91.1491 109.869 89.1333 110.147 87.1176 110.147C85.1019 110.147 83.1778 110.147 81.1621 109.869C78.5966 109.591 75.7562 109.128 73.1908 108.48C70.3504 108.017 67.6017 106.813 65.0363 105.516C62.0127 103.942 59.1723 102.275 56.7901 99.7751C55.599 98.5713 54.5911 97.1823 53.6749 95.7933C53.6749 95.7007 53.5833 95.7007 53.5833 95.6081C53.1251 95.1451 52.667 94.7747 52.2089 94.3116C51.4759 93.756 50.2848 93.1078 51.5675 92.1818Z" fill="#C1DEE2"/>
<path d="M269.078 179.459C269.078 179.111 268.643 178.589 268.469 178.327C267.859 177.283 267.076 176.238 266.205 175.368C263.594 172.495 260.634 169.884 257.588 167.533C255.672 166.054 252.626 164.835 251.581 162.572C249.753 158.567 246.881 155.521 242.789 153.954C239.046 152.474 234.694 152.735 230.951 153.954C230.341 154.128 228.252 154.824 227.033 155.521C226.772 155.608 226.424 155.695 226.163 155.869C225.379 156.217 224.596 156.565 223.813 156.913C223.464 157.088 222.768 157.436 222.855 157.697C221.81 157.958 220.853 158.306 219.808 158.654C216.936 159.786 213.802 161.092 211.365 162.92C210.407 163.616 209.624 164.313 208.84 165.183C208.492 165.618 207.622 166.315 207.534 166.924C207.36 168.143 208.579 167.533 209.014 167.098C211.974 163.442 215.978 161.527 220.244 159.786C223.029 158.654 225.989 158.132 228.948 157.958C231.386 157.784 233.562 157.958 235.825 158.654C238.611 159.525 241.396 160.657 244.095 161.788C245.923 162.572 247.664 163.268 249.405 164.138C249.753 164.313 250.537 164.487 250.798 164.835C251.407 165.531 251.842 167.011 252.278 167.795C253.67 170.58 254.889 173.54 256.63 176.151C257.762 177.805 259.241 178.937 260.982 179.894C261.157 179.981 261.505 180.068 261.94 180.243C263.246 180.852 264.639 181.374 266.118 181.548C266.989 181.635 267.946 181.548 268.73 181.548C268.991 181.548 269.165 181.461 269.339 181.287C269.513 181.374 269.6 181.374 269.687 181.287C270.471 180.939 269.6 180.068 269.078 179.459Z" fill="#89C5CC"/>
<path d="M265.509 204.529C265.684 202.788 265.509 200.873 265.335 199.045C264.291 189.557 258.894 180.678 251.233 175.368C244.705 170.841 237.044 170.145 229.297 169.883C228.514 169.883 227.817 169.883 227.034 169.883C226.86 169.883 226.686 169.883 226.599 169.883C226.163 169.535 225.728 169.361 225.38 169.622C223.378 168.926 221.376 168.404 219.287 167.968C213.106 166.663 206.839 165.357 200.745 167.098C204.227 167.011 207.796 167.272 211.278 167.62C211.452 167.62 211.713 167.707 211.887 167.707C211.887 167.707 211.887 167.707 211.974 167.707C213.019 167.881 214.064 168.055 215.108 168.404C215.282 168.404 215.369 168.491 215.543 168.491C215.805 168.578 216.066 168.665 216.414 168.752C216.501 168.752 216.588 168.839 216.675 168.839C218.068 169.274 219.635 169.361 221.115 169.709C221.463 169.796 221.811 169.883 222.159 169.971C222.159 169.971 222.159 169.971 222.246 169.971C223.117 170.232 224.074 170.58 224.945 170.928C225.119 171.102 225.554 171.189 225.989 171.363C226.076 171.363 226.599 171.624 226.86 171.711C227.382 171.886 227.817 172.147 228.34 172.321C228.775 172.495 229.297 172.756 229.732 172.93C229.819 173.017 229.906 173.017 230.081 173.104C230.255 173.191 230.429 173.278 230.603 173.365C232.17 174.062 233.65 174.758 235.216 175.542C235.739 175.803 236.522 176.499 237.132 176.586C237.132 176.586 237.132 176.586 237.219 176.586C240.178 178.327 242.964 180.329 245.227 182.854C244.879 182.593 243.573 181.983 243.312 181.809C242.529 181.287 241.745 180.765 241.049 180.242C239.743 179.285 238.35 178.327 236.87 177.457C234.259 175.977 231.473 174.671 228.688 173.452C228.688 173.452 228.688 173.452 228.601 173.452C227.643 172.843 226.25 172.495 225.206 172.06C226.337 174.062 227.208 176.238 228.253 178.24C229.297 180.242 230.429 182.244 231.735 184.072C233.475 186.597 235.391 189.121 237.48 191.472C239.482 194.17 242.18 196.346 244.879 198.174C248.1 200.351 251.321 202.353 255.151 203.397C256.979 203.92 258.894 204.268 260.809 204.442C260.896 204.442 260.983 204.442 261.07 204.442C261.766 204.703 262.463 204.964 263.159 205.138C264.03 205.486 265.335 206.27 265.509 204.529Z" fill="#DDE3E8"/>
<path d="M156.5 208C191.522 208 220 179.614 220 144.5C220 109.478 191.614 81 156.5 81C121.386 81 93 109.386 93 144.5C93 179.614 121.386 208 156.5 208Z" fill="#89C5CC"/>
<path d="M135.632 90.1457C135.632 90.1457 134.153 77.9589 137.896 72.4748C142.857 65.2497 156.959 63.2476 163.662 67.2519C171.061 71.6913 176.981 83.0077 174.456 92.9313C185.511 96.1521 188.123 108.687 180.376 111.908L186.991 126.184C191.17 135.063 186.904 145.596 177.416 150.209L160.441 158.392C160.441 158.392 129.104 163.354 122.836 148.817C116.656 134.279 128.756 123.66 128.756 123.66C128.756 123.66 118.832 112.604 123.533 101.897C128.32 91.0162 135.632 90.1457 135.632 90.1457Z" fill="white"/>
<path d="M183.857 131.756C183.857 131.756 212.409 136.283 220.07 135.934C226.163 136.283 236.087 103.117 236.957 101.115C241.832 98.0681 242.963 93.8898 242.963 91.6265C242.876 89.3632 236.696 87.3611 236.087 88.5798C237.131 85.5331 237.305 84.5756 237.653 83.531C238.263 81.3548 236.609 79.7008 234.171 87.8834C231.821 95.8919 232.082 94.5862 231.473 97.4588C227.643 104.771 217.806 121.92 217.11 124.444C204.314 124.096 182.726 119.134 182.726 119.134L183.857 131.756Z" fill="#FFE3CA"/>
<path d="M126.753 124.009C126.753 124.009 113.261 149.34 110.649 156.478C108.038 161.788 135.197 185.988 136.677 187.816C137.635 193.561 140.159 195.563 142.248 196.608C144.337 197.652 148.516 193.039 147.645 191.907C150.083 194.257 150.866 194.954 151.649 195.65C153.39 197.217 155.567 196.52 148.951 190.514C142.509 184.595 143.641 185.465 141.204 183.55C135.981 176.673 124.055 159.699 121.966 157.871C127.102 146.554 139.898 129.58 139.898 129.58L126.753 124.009Z" fill="#FFE3CA"/>
<path d="M157.742 208.447L165.664 174.236L179.069 182.245C179.069 182.245 180.107 190.204 181.5 203C178.406 204.122 169.233 209.317 157.742 208.447Z" fill="#C5CFD6"/>
<path d="M172 207C174.176 194.03 175.152 183.985 175.152 183.985C175.152 183.985 138.418 178.849 138.244 188.947C138.157 191.993 138.63 199.21 139.5 206C157 211.5 172 207 172 207Z" fill="#F2F2F2"/>
<path d="M171.584 141.245C170.452 143.769 178.722 178.85 180.114 186.945C180.114 186.945 179.94 186.945 179.592 186.858C176.023 186.336 154.087 183.463 136.329 190.862L134.675 141.332L134.588 139.504C134.588 139.504 134.588 137.589 134.762 134.803C135.197 128.884 136.416 118.96 140.159 112.606C142.161 109.298 144.686 106.947 148.255 106.599C159.31 105.468 159.223 109.994 169.494 112.519L186.121 116.61C186.121 116.61 184.293 129.493 186.121 133.323H174.63C174.63 133.236 172.628 138.72 171.584 141.245Z" fill="#69A1AC"/>
<path d="M165.228 73.3467C165.228 73.3467 175.326 88.4932 170.016 95.8923C166.012 101.463 159.396 104.336 159.396 104.336V112.345C159.396 112.345 158.613 113.041 157.22 113.128C154.782 113.302 148.341 109.385 148.341 109.385V77.9603L165.228 73.3467Z" fill="#FFE3CA"/>
<path d="M134.674 143.333C134.674 143.333 149.908 125.662 147.47 117.131C145.033 108.601 133.542 111.56 127.101 121.31C120.659 131.146 118.135 134.541 118.135 134.541C118.135 134.541 124.75 143.507 134.674 143.333Z" fill="#69A1AC"/>
<path d="M165.228 71.9531C165.228 71.9531 166.011 87.709 158.438 91.5391C150.865 95.3693 156.61 104.771 149.298 111.821C147.122 113.911 143.988 113.562 141.464 112.866C137.982 111.822 133.89 112.605 131.453 115.129C131.192 115.391 131.018 115.652 130.844 115.913C121.442 109.732 145.294 75.1739 145.294 75.1739L165.228 71.9531Z" fill="white"/>
<path d="M231.124 60.6369C231.124 65.5987 227.12 71.9533 222.158 71.9533C217.197 71.9533 213.192 65.5987 213.192 60.6369C213.192 55.6751 217.197 51.6709 222.158 51.6709C227.12 51.6709 231.124 55.6751 231.124 60.6369Z" fill="white"/>
<path d="M222.419 75.9585C221.462 75.9585 220.679 75.3491 219.895 74.0434C219.373 73.1729 219.721 70.3873 220.243 67.5147C220.33 66.7313 220.504 66.0349 220.591 65.3385C219.982 63.3364 220.069 62.0306 220.33 61.6824C220.417 61.5084 220.591 61.5084 220.679 61.5084C220.94 61.6824 221.114 62.2047 221.114 63.0752C221.114 63.6846 221.027 64.381 220.94 65.2515C221.027 65.4256 221.027 65.5126 221.114 65.6867C221.636 67.0795 222.158 66.8183 222.332 66.6442C222.768 66.3831 223.203 65.6867 223.464 64.9033C223.377 63.0752 223.464 61.7695 223.725 61.4213C223.812 61.2472 223.986 61.1602 223.986 61.1602C224.16 61.1602 224.335 61.4213 224.335 61.5084C224.596 62.2047 224.335 63.6846 223.899 64.9033C224.073 66.9924 224.509 69.865 225.727 72.9118L225.814 73.0859L225.727 73.1729C225.553 73.5211 224.248 75.8714 222.419 75.9585ZM220.766 66.209C220.679 66.7313 220.591 67.1665 220.504 67.6888C220.156 70.2132 219.721 73.0858 220.156 73.7822C220.853 74.9139 221.636 75.5232 222.419 75.5232C223.812 75.5232 224.944 73.7822 225.205 73.347C224.16 70.6485 223.638 68.037 223.377 65.9478C223.029 66.5572 222.681 67.0795 222.332 67.2536C222.071 67.4277 221.375 67.6018 220.766 66.209ZM220.504 62.1177C220.417 62.2918 220.243 63.0752 220.591 64.381C220.679 63.9457 220.679 63.5105 220.679 63.1623C220.679 62.5529 220.591 62.2047 220.504 62.1177ZM223.899 61.9436C223.812 62.2047 223.725 62.9882 223.725 64.0328C223.986 63.1623 224.073 62.3788 223.899 61.9436Z" fill="#68A1AC"/>
<path d="M222.159 77.1763C220.331 77.1763 218.851 75.7835 218.677 74.0425L218.329 70.6476L219.287 70.9958C221.202 71.6922 223.204 71.6922 225.119 70.9087L225.902 70.5605L225.554 73.9555C225.38 75.8705 223.9 77.1763 222.159 77.1763Z" fill="#69A1AC"/>
<path d="M259.154 77.6983C258.109 80.2227 254.715 82.573 252.277 81.5284C249.753 80.4838 249.143 76.3925 250.188 73.9552C251.233 71.4308 254.105 70.2991 256.63 71.3437C258.98 72.3883 260.199 75.1739 259.154 77.6983Z" fill="white"/>
<path d="M251.493 83.6182C251.058 83.4441 250.71 82.9218 250.623 82.1383C250.536 81.529 251.319 80.3103 252.19 78.9175C252.451 78.5693 252.625 78.2211 252.799 77.8729C252.886 76.7413 253.234 76.132 253.495 75.9579C253.583 75.8708 253.67 75.8708 253.757 75.9579C253.844 76.0449 253.844 76.3931 253.582 76.8284C253.495 77.0895 253.234 77.5247 253.06 77.8729C253.06 77.96 253.06 78.047 253.06 78.1341C253.06 78.9175 253.321 78.9175 253.495 78.9175C253.757 78.8305 254.105 78.5693 254.453 78.3082C254.801 77.3506 255.149 76.7413 255.323 76.5672C255.411 76.4802 255.498 76.4802 255.498 76.4802C255.585 76.5672 255.585 76.6543 255.585 76.7413C255.585 77.1765 255.149 77.8729 254.627 78.3952C254.279 79.5269 253.844 81.0067 253.844 82.8347V82.9218L253.757 83.0088C253.582 83.0088 252.451 83.9664 251.493 83.6182ZM252.712 78.3082C252.538 78.5693 252.451 78.7434 252.277 79.0046C251.58 80.2233 250.71 81.529 250.797 81.9642C250.884 82.6606 251.145 83.1829 251.58 83.27C252.277 83.5311 253.234 82.9218 253.495 82.7477C253.495 81.1808 253.844 79.788 254.192 78.6564C253.931 78.9175 253.582 79.0916 253.408 79.0916C253.147 79.2657 252.712 79.1787 252.712 78.3082ZM253.495 76.219C253.408 76.3061 253.147 76.6543 253.06 77.3506C253.147 77.0895 253.321 76.9154 253.321 76.7413C253.495 76.4802 253.495 76.3061 253.495 76.219ZM255.236 76.8284C255.149 77.0025 254.888 77.3506 254.714 77.8729C254.975 77.5247 255.236 77.0895 255.236 76.8284Z" fill="#68A1AC"/>
<path d="M251.146 84.1403C250.275 83.7921 249.753 82.7475 250.101 81.7899L250.711 79.9619L251.146 80.3101C251.929 81.0936 252.974 81.5288 254.106 81.5288H254.541L253.67 83.1827C253.061 84.1403 252.016 84.4885 251.146 84.1403Z" fill="#69A1AC"/>
<path d="M224.336 91.8872C224.51 93.8893 223.117 96.5878 221.115 96.7619C219.113 96.936 217.285 94.4987 217.111 92.4965C216.936 90.4944 218.416 88.7534 220.418 88.5793C222.334 88.4052 224.162 89.8851 224.336 91.8872Z" fill="white"/>
<path d="M221.375 98.4156C221.027 98.4156 220.591 98.2415 220.243 97.7192C219.982 97.371 220.069 96.2393 220.156 95.1077C220.156 94.7595 220.156 94.4984 220.243 94.2372C219.895 93.4538 219.895 92.9315 219.982 92.7574C220.069 92.6703 220.069 92.6703 220.156 92.6703C220.243 92.7574 220.33 92.9315 220.417 93.2797C220.417 93.5408 220.417 93.802 220.417 94.1502C220.417 94.2372 220.504 94.2372 220.504 94.3243C220.765 94.8465 220.939 94.7595 221.027 94.6725C221.201 94.5854 221.375 94.2372 221.462 93.889C221.375 93.1926 221.375 92.6703 221.375 92.4962C221.375 92.4092 221.462 92.4092 221.462 92.4092C221.549 92.4092 221.636 92.4962 221.636 92.5833C221.81 92.8444 221.723 93.4538 221.549 93.9761C221.723 94.8465 221.984 95.9782 222.593 97.1969V97.2839V97.371C222.506 97.371 222.071 98.4156 221.375 98.4156ZM220.33 94.4984C220.33 94.6725 220.33 94.9336 220.33 95.1077C220.243 96.1523 220.156 97.2839 220.417 97.6321C220.765 98.0674 221.114 98.3285 221.375 98.2415C221.897 98.1544 222.332 97.458 222.419 97.1969C221.897 96.1523 221.549 95.1077 221.375 94.2372C221.288 94.4984 221.114 94.6724 221.027 94.8465C220.939 95.0206 220.591 95.1077 220.33 94.4984ZM220.069 92.9315C219.982 93.0185 219.982 93.3667 220.156 93.889C220.156 93.7149 220.156 93.5408 220.156 93.3667C220.156 93.0185 220.156 92.9315 220.069 92.9315ZM221.462 92.6703C221.462 92.7574 221.462 93.1056 221.462 93.5408C221.549 93.1926 221.549 92.8444 221.462 92.6703Z" fill="#68A1AC"/>
<path d="M221.288 98.939C220.591 99.0261 219.895 98.5038 219.808 97.8074L219.547 96.4146L219.895 96.5017C220.679 96.7628 221.549 96.6757 222.245 96.2405L222.594 96.0664V97.4592C222.594 98.2426 221.984 98.852 221.288 98.939Z" fill="#69A1AC"/>
</svg>
