<svg id="Layer_1" data-name="Layer 1" xmlns="http://www.w3.org/2000/svg" viewBox="0 0 450 291.9"><defs><style>.cls-1{fill:#f9ffe7;}.cls-2{fill:#c9dc93;}.cls-3{fill:#fff;}.cls-3,.cls-4,.cls-5,.cls-6{stroke:#2e3374;stroke-miterlimit:10;stroke-width:1.7px;}.cls-4{fill:#f8b243;}.cls-5{fill:#2e3374;}.cls-6{fill:#d5401a;}</style></defs><path class="cls-1" d="M.57,186.79c11.4-44.06,126.91-19,202.63-32.57s165.32-77.13,224.53-45.95S423.93,214.47,288,231.45-10.84,230.85.57,186.79Z"/><path class="cls-2" d="M98.68,6.66c-.7.7-.4,3.2-.4,4.2,0,1.49.1,2.89.2,4.29.1,1,.5,10.19,1.8,9.49.7-.4.3-3.09.3-3.89,0-1.9-.1-3.8-.2-5.6a45,45,0,0,1-.1-5.19C100.18,9.46,100.58,4.76,98.68,6.66Z"/><path class="cls-2" d="M129.58,5.46c-6.1,0-12.2.3-18.3.5-2.9.1-5.9.2-8.8.4-1,.1-3.1-.3-4,.3-1.8,1.2,1.1,1.5,1.9,1.4,12.1-.4,24.1-1,36.21-1,5.9,0,11.8.2,17.8.1,2.3,0,4.8-1,5.3,1.6.6,3-.1,6.29-.3,9.29a57.86,57.86,0,0,0,0,5.89c.1,1.3-.1,2.7.1,4s1.1,1.9,1.9.6c.5-.8.2-2.8.3-3.7V21.05c0-3.1.4-6.1.4-9.2,0-2-.1-5.59-2.6-6.09-2.8-.5-6.1,0-9,0C143.49,5.66,136.48,5.46,129.58,5.46Z"/><path class="cls-2" d="M112.78,24.74c-2.3,0-4.6,0-6.9.1-2,0-5.1-.4-6.9.3-1.3.5-1.6,1.9,0,2.3s4.3-.3,6.2-.3c9.1-.2,18.3-.4,27.4.2,8.51.5,17.21,1.1,25.71.5.7,0,4.4-.2,2.7-1.6-1-.8-4.9-.3-6.2-.3l-13.41-.3c-4.4-.2-8.8-.7-13.2-.8C123,24.64,117.88,24.74,112.78,24.74Z"/><path class="cls-2" d="M110.48,11.66c3.6.2,7.1,5.39,3.5,7.89-3.4,2.4-9.8-.2-7.9-4.8-.3.7.3-.7.4-.7a16.09,16.09,0,0,1,1.4-1.2,5.29,5.29,0,0,1,1.6-1C109.88,11.66,109.88,12.16,110.48,11.66Zm-1.8-1.9a8.86,8.86,0,0,0-3.6,2.69c-.8.9-1.8,1.4-1.8,2.7,0,.3.4.6.4.8.1.4,0,.8.1,1.2.7,4,5.5,5.4,9,4.6a5.9,5.9,0,0,0,3.76-2.43,5.83,5.83,0,0,0,.94-4.37C116.78,11.86,112,8.46,108.68,9.76Z"/><path class="cls-2" d="M107.18,15.45a1.11,1.11,0,0,0,.34.81,1.13,1.13,0,0,0,.81.34,1.16,1.16,0,0,0,1.15-1.15,1.14,1.14,0,0,0-.34-.81,1.11,1.11,0,0,0-.81-.34,1.13,1.13,0,0,0-.81.34A1.14,1.14,0,0,0,107.18,15.45Z"/><path class="cls-2" d="M110.08,15.15a.84.84,0,0,0,.07.35,1.08,1.08,0,0,0,.2.29.81.81,0,0,0,.29.19.8.8,0,0,0,.34.07.84.84,0,0,0,.35-.07.91.91,0,0,0,.29-.19,1,1,0,0,0,.19-.29.84.84,0,0,0,.07-.35.8.8,0,0,0-.07-.34.81.81,0,0,0-.19-.29.94.94,0,0,0-.29-.2,1,1,0,0,0-.35-.07,1,1,0,0,0-.34.07,1,1,0,0,0-.49.49A.8.8,0,0,0,110.08,15.15Z"/><path class="cls-2" d="M110.68,17.45c-.6.2-1.3-.2-1.8.1-.8.5,0,1,.5,1.3C111.38,19.75,111.68,17.05,110.68,17.45Z"/><path class="cls-2" d="M133,13c-1.5.3-2.8,1.8-4.5,1.6-1.31-.1-2.11-1.4-3.41-1.6-1.6-.2-6,3.4-3.7,4.1,1.3.4,2.1-2.1,3.3-2.2.9-.1,2.2,1,3.2,1.2,1.81.3,3.11-.7,4.71-1.3s2.7-.1,4.2.7a6,6,0,0,0,3.7.8c1.3-.2,2.9-1.6,4.2-1.4s2.2,1.4,3.5,1.6c.5.1,1.3.2,1.2-.6s-.8-.5-1.3-.8c-1.2-.6-2.3-1.7-3.7-1.6a10,10,0,0,0-3,1.2C138.09,15.75,136.19,12.25,133,13Z"/><path class="cls-2" d="M135.69,33.83c-6.31.1-12.61.2-18.81.7-1.5.1-16.6,1.5-16.6,1.6a8.15,8.15,0,0,0,2,.5c-.1-.3-.4-.5-.9-.4,14.3,0,28.61-1.3,43-1.1,3.6.1,7.2,0,10.8.1.9,0,3.1.7,3.8.3,1.9-1.1-1.5-1.2-2.1-1.2C150,33.83,142.79,33.83,135.69,33.83Z"/><path class="cls-2" d="M98.48,36.93c-.9.9-.1,4.3,0,5.6.1,1.79,0,3.69.2,5.49a43.47,43.47,0,0,0,1,6.3c.3,1.09,1.4,2.89,1.8.89.3-1.49-.2-3.39-.3-4.89a58.13,58.13,0,0,1-.3-5.9,45,45,0,0,0-.2-5.19C100.58,38.33,100.08,35.23,98.48,36.93Z"/><path class="cls-2" d="M122.08,54.12c-4.4.1-8.9.2-13.3.5-1.8.1-3.6.29-5.5.49-.4,0-4.5.2-2.6,1.7.8.7,4.2-.3,5.3-.4,1.9-.2,3.8-.3,5.7-.4,4.4-.2,8.8-.4,13.2-.3,8,.1,16,.2,24,0,1.1,0,10.1.2,10.4-1,.2-1-2.9-.5-3.5-.5-2.1.1-4.3,0-6.4,0C140.19,54.32,131.09,53.92,122.08,54.12Z"/><path class="cls-2" d="M157.69,35.33c.1,4,.8,7.9,1,11.89l.3,5.4c0,.6-.2,2,.5,2.3,1,.49,1.1-.5,1.3-1.1.5-1.8.2-4.2.1-6.1a48.47,48.47,0,0,0-.2-5.39c-.1-1.8-.5-3.7-.7-5.5-.1-.8.2-2.1-.6-2.6a1.32,1.32,0,0,0-.59-.11,1.29,1.29,0,0,0-.57.19,1.13,1.13,0,0,0-.4.44A1.08,1.08,0,0,0,157.69,35.33Z"/><path class="cls-2" d="M110.18,40.73c1.4.4,2.6.3,3.9,1.3a6.86,6.86,0,0,1,2.6,3.49c.9,3.2-2,4.9-4.8,5s-6.9-.6-6.8-4.2C105.28,43.53,107.28,40.83,110.18,40.73Zm.1-1.8c-3.7.2-6.6,4.3-6.6,7.69,0,4.2,4.8,5.3,8.2,5.3,3.8,0,7.6-2.6,6.6-6.9a8.65,8.65,0,0,0-8.2-6.09Z"/><path class="cls-2" d="M106.58,44.52a.91.91,0,0,0,.27.64.86.86,0,0,0,.63.26.89.89,0,0,0,.9-.9C108.48,43.43,106.58,43.33,106.58,44.52Z"/><path class="cls-2" d="M110.48,44a1,1,0,0,0,.36.49,1,1,0,0,0,1.18,0,1,1,0,0,0,.36-.49C112.28,42.93,110.48,42.83,110.48,44Z"/><path class="cls-2" d="M108.38,46.72c-1.2,1.2,3,3.3,4,1.6.8-1.4-1-.9-1.6-1S108.88,46.12,108.38,46.72Z"/><path class="cls-2" d="M126.18,42.13c-1.2.2-5.2,1.6-5.3,3-.1,2.6,3.8-.1,4.7-.4,2.3-.89,3.5,1,5.8,1.1,2,.1,3.9-1.59,5.8-1.4s2.91,2.3,5.21,1.2c1.2-.6,1.2-1.49-.2-1.59-.8-.1-1.4.29-2.2-.1-1.31-.6-1.9-1.5-3.51-1.3a22.9,22.9,0,0,0-3.5,1.1C130.28,44.23,128.78,41.63,126.18,42.13Z"/><path class="cls-2" d="M150.29,43.23c.3.2,2.4,1.59.9,2C150.39,45.42,149.69,43.82,150.29,43.23Zm-.7-1.6c-3.5,1.6.3,7.29,3,5a2.61,2.61,0,0,0,.65-.86,2.67,2.67,0,0,0,.27-1,2.73,2.73,0,0,0-.72-2C152.09,42,150.49,41.23,149.59,41.63Z"/><path class="cls-2" d="M117,64c-4.3,0-8.7-.1-13.1.2-.7,0-3.5-.1-3.9.7-.7,1.39,2.2.7,2.6.7,8.6-.9,17.7-.4,26.31-.1,7.1.19,14.1.29,21.2.69l5.6.3c.6,0,2.1.4,2.3-.5s-1.8-.69-2.3-.69l-11.3-.6C135.29,64,126.08,64,117,64Z"/><path class="cls-2" d="M99.88,65.51c-.8.8-.4,3.89-.5,4.89,0,1.8-.1,3.6-.2,5.3,0,1.89,0,3.69.1,5.59,0,.8.7,4.5,1.7,2.4.5-1,0-3.6,0-4.7,0-2,.1-4,.2-5.89.1-1.7.1-3.4.2-5.1C101.48,67.4,101.48,63.91,99.88,65.51Z"/><path class="cls-2" d="M158.69,81.39c-4.2.4-8.5.2-12.8.5-3.7.3-7.3.4-11,.5-8.3.2-16.6.3-24.9,1-1.9.2-3.8.3-5.7.4-.9,0-4.9-.4-5.2.6-.5,1.7,3.7,1,4.7,1,2-.1,4-.2,6-.4,8.4-.6,16.9-.8,25.41-1.1,4.6-.1,9.2-.5,13.8-.8,2.3-.2,4.6-.2,6.9-.3.6,0,2.7,0,3.1-.4C159.29,82.19,159.39,81.39,158.69,81.39Z"/><path class="cls-2" d="M157.29,65.81c.1,4.09.4,8.09.5,12.18,0,1.2-.3,3.4.4,4.5,1.1,1.7,1.9-.1,2.1-1.2.6-3.4,0-7.19-.2-10.59-.1-1.3.3-4.2-.3-5.39S157.19,64.31,157.29,65.81Z"/><path class="cls-2" d="M150.19,71.6c1.6.4,1.9,4,0,4.2C147.49,76.2,148.69,72.3,150.19,71.6Zm-.5-1.4c-.5,0-1.6-.2-1.9.3-.3.3,0,1,0,1.4-.1,1.1-1,1.8-.6,3.2a3.08,3.08,0,0,0,.75,1.28,3,3,0,0,0,1.25.81C154,78.69,153.89,69.3,149.69,70.2Z"/><path class="cls-2" d="M109.58,68.8a.89.89,0,0,0-.1-.5c2.6,1.2,4.7,3.6,3.9,6.7-.7,2.39-3.1,3.19-5.3,2.59a3.9,3.9,0,0,1-1.56-.65,3.94,3.94,0,0,1-1.65-2.86,3.84,3.84,0,0,1,.21-1.68,4.65,4.65,0,0,1,2.5-3.1C108.08,69.1,109.38,69.5,109.58,68.8Zm-1.5-1a3.45,3.45,0,0,0-1.9.7A3.21,3.21,0,0,1,108.08,67.8Zm0-1.5A5.18,5.18,0,0,0,106,67a5.24,5.24,0,0,0-1.61,1.5c-.3.4-1.3,1.4-1.2,1.9s.4,1,.9.5c-2.9,5.8,4.6,10.79,9.3,6.79C117.68,73.9,113.38,66.11,108.08,66.3Z"/><path class="cls-2" d="M106.58,71.7a.62.62,0,0,0,.6.6.6.6,0,0,0,.43-.18.6.6,0,0,0,0-.84.6.6,0,0,0-.43-.18.62.62,0,0,0-.6.6Z"/><path class="cls-2" d="M108.58,71.8a.62.62,0,0,0,.6.6.6.6,0,0,0,.43-.18.59.59,0,0,0,.17-.42C109.88,71,108.58,71,108.58,71.8Z"/><path class="cls-2" d="M109.58,74.6c-.6,0-2.7-.1-3,.4-.6.8.4.9.9,1s2.3,0,2.6-.4C110.18,75.2,110.18,74.6,109.58,74.6Z"/><path class="cls-2" d="M127,71.8a21.78,21.78,0,0,0-3.61,1.1c-1.3.3-1.9-.3-3.1-.6a3,3,0,0,0-3.1.6c-.6.5-1.8,1.6-1.5,2.5.8,2,2.7-1.2,3.5-1.4,1.4-.2,2.6.9,4.1.6s2.71-1.3,4.11-1.3c1.2,0,2.4.7,3.6.8,1.9.2,3.1-.4,4.8-.9,1.5-.4,2.5.1,3.9.6.6.2,2.8,1,2.4-.4-.1-.4-2.9-1.1-3.4-1.3a5.21,5.21,0,0,0-2-.26,5,5,0,0,0-2,.56,5.59,5.59,0,0,1-3.6.4C129.79,72.6,128.49,71.7,127,71.8Z"/><path class="cls-2" d="M186,39c.2-4.5.5-9,.6-13.49.1-2.2.1-4.49.2-6.69v-1.5c0-1.7-.2-1.8,1.5-2,7.61-.7,15.21-.9,22.71-1.5,9.1-.7,18.3-1.2,27.5-1.5,4.1-.1,8.2-.3,12.2-.2.9,0,2.7-.2,3,.5.2.3-.2,1.3-.2,1.7l-.3,3.3a75.3,75.3,0,0,0,1.1,19.48c-2.9-1.7-6.7-3.1-10.1-2.8s-6.1,2.3-8.9,4.2c-1.6,1.1-2.1,1.3-3.7.3-1.4-.9-2.6-1.9-3.9-2.9-2-1.5-3.8-3.19-5.8-4.79-3.5-2.9-8.4-7.1-13.3-5.9a35,35,0,0,0-9.7,4.7C194.49,32.84,190.49,36.23,186,39ZM246.5,10.36c-17.4,0-34.6,1.69-51.91,2.59-1.8.1-3.6.2-5.4.4-1.2.1-4.1-.4-4.9.7-.5.7-.1.8,0,1.4a24.32,24.32,0,0,1,0,2.7c-.1,2.1-.1,4.2-.2,6.29-.2,7.9-.3,15.79,0,23.68.1,1.7.7,4.1.4,5.8-.2,1.19-1.1,1.89.8,2.19a30.55,30.55,0,0,0,6.11-.5c1.89-.2,3.8-.4,5.7-.5,8.3-.69,16.6-.59,24.9-.79s16.7-.2,25.1-.2c3.5,0,7.5.2,10.91-.8,1.19-.3,1.39-.5,1.1-1.7-.1-.2-.41-.3-.5-.7a9.88,9.88,0,0,1-.1-1.8c-.11-1.9-.11-3.8-.21-5.69-.1-3.2-.7-6.2-1.1-9.4a101.4,101.4,0,0,1-.5-10.89c0-2,0-4,.2-6,.1-1.3.7-3.2.4-4.4-.2-.6-.4-1.1-1-1.29-.4-.2-.7,0-1.1-.1a6.39,6.39,0,0,1-1.3-.2C251.5,10.26,248.9,10.36,246.5,10.36Z"/><path class="cls-2" d="M236.9,18.85c0,1.3-.2,3.1.4,4.29.7,1.5,1.7,1,1.9-.39a16.42,16.42,0,0,0-.1-3.9C238.7,17.85,236.9,17.15,236.9,18.85Z"/><path class="cls-2" d="M239,19.35c-1.2,0-4.6-.2-5.4.7-1.4,1.6,1,1.89,2,1.8,1.2-.1,4.8.19,5.6-.8C242.6,19.55,239.9,19.35,239,19.35Z"/><path class="cls-2" d="M193.2,61.41c5.2.9,3.59,8.79-1.3,7-1.71-.6-4.21-2.49-3.31-4.69C189.29,62.11,191.59,61.21,193.2,61.41ZM191,58.91a5.76,5.76,0,0,0-3.94,2.67,5.58,5.58,0,0,0-.79,2.3,5.66,5.66,0,0,0,.23,2.42c1.1,3.1,5.41,5.3,8.5,4.2s4.51-5,3.51-7.89S194,58.41,191,58.91Z"/><path class="cls-2" d="M222.6,62.31c-1.3.1-2.4,1-3.7,1.2a10.36,10.36,0,0,1-3.4-.6,6.75,6.75,0,0,0-4-.2,18.53,18.53,0,0,1-3.3,1.1c-2.21.2-4.8-2.3-6.5.5-.81,1.39.39,2.19,1.59,1.59s.7-.89,2.2-.5a5.89,5.89,0,0,0,3.71,0c1.2-.39,2.3-1.19,3.6-1.29s2.4.5,3.6.8a8.09,8.09,0,0,0,4.3-.4c1.4-.4,1.9-.7,3.3-.3.9.3,2.8,1.1,3.6.4,1.5-1.1-.5-1.3-1.3-1.4C225.2,62.91,223.9,62.21,222.6,62.31Z"/><path class="cls-2" d="M250.9,61.31c1.9.1,3.9,3.6,1.4,3.7C250.6,65,248.6,62,250.9,61.31Zm-.2-2.9c-6,1.7-3.2,10.09,2.5,9.09,2.61-.4,3.51-3.49,2.61-5.69a4.52,4.52,0,0,0-2-2.3C253.2,59.11,251.4,58.21,250.7,58.41Z"/><path class="cls-2" d="M222.8,76c5.3-.2,10.5-.4,15.8-.4,2.8,0,5.7,0,8.5.2,1.3.1,2.5.1,3.8.2h.9a5,5,0,0,1,2.2.2c2.5,1.29-2.6,1.49-3.2,1.49-1.4,0-2.8-.1-4.2-.2-1.2-.1-2.4-.1-3.6-.2-7.8-.2-15.7.2-23.5.5-1.8.1-3.6.2-5.4.2s-3.8.1-5.7.2c-2.7.1-5.4.1-8.1.3-1,.1-2.1.1-3.1.2l-4.5.3c-1.21.1-2.3.1-3.51.2a2.7,2.7,0,0,0-.8.1,5,5,0,0,1-2.1,0c-.6-.2-1-.6-.7-1.2s1.2-.5,1.9-.5h.5c2.21,0,4.41-.2,6.71-.3a17.66,17.66,0,0,0,2.4-.2c4.2-.3,8.4-.49,12.7-.59S218.5,76.2,222.8,76Zm27.5,34.56h1.5a.87.87,0,0,1,.47.17.85.85,0,0,1,.31.39.87.87,0,0,1-.18.94c-.4.5-1.9.5-2.8.5H249q-3.75.3-7.5.3c-5.3,0-10.6.3-15.9.6s-10.8.4-16.3.5l-12,.3c-2.31.1-4.6.2-6.9.2a3.1,3.1,0,0,0-.91.1c-1.4.2-3.5.4-4-.8-.4-1,.2-1.5,1-1.7a13.36,13.36,0,0,1-.1-1.9v-.3a9.73,9.73,0,0,0-.1-1.79,13.31,13.31,0,0,0-.1-2.1,12,12,0,0,0-.1-1.9c-.1-2.5-.2-4.9-.4-7.39-.1-1.1-.2-2.3-.4-3.4-.2-1.8-.4-3.6-.5-5.4V86.69c-.1-2.4-.2-6.1,1.2-7.3,2.6-1.5,2.1,2.9,1.9,4.8a4.22,4.22,0,0,1-.1.7,78.8,78.8,0,0,0,.4,9.59,46.86,46.86,0,0,1,0,6.49c0,.8-.1,1.6-.1,2.3v1.2c0,1.2-.1,2.4-.2,3.5v.7a16.24,16.24,0,0,1-.2,3.19h1.6a12.23,12.23,0,0,0,1.91-.1c1.79-.1,3.7-.1,5.5-.2,4.3-.2,8.6-.2,13-.3,5.1-.1,10.2-.1,15.3-.4Zm1.5-31.67c0,5.6.4,11,.9,16.49.3,3.39.6,6.89.8,10.29v.8c0,1.9,0,6,1.8,5,1.4-.7.9-5,.6-7.39a6.08,6.08,0,0,1-.1-1.2c0-.6-.1-1.2-.1-1.8-.2-2.7-.4-5.49-.6-8.19l-.1-.6c-.3-3.2-.6-6.29-.6-9.49v-1c.1-1.2.2-2.8-.3-3.4a1.2,1.2,0,0,0-1.34-.65,1.15,1.15,0,0,0-.68.41A1.25,1.25,0,0,0,251.8,78.89Z"/><path class="cls-2" d="M223.1,92.48a189.33,189.33,0,0,1,20.5-8.29c.5-.2.8.4.7.8s-1.2.8-1.9,1.1c-.2.1-.4.1-.5.2-1,.4-2,.9-2.9,1.3s-2,.89-3,1.29c-2.1.9-4.2,1.8-6.2,2.8-2.2,1-4.4,2-6.7,3-.1,0-.2.1-.3.1l9,3.3c1,.4,2,.79,3.1,1.19.6.2,1.2.5,1.7.7a4.76,4.76,0,0,0,.9.3c1.3.4,3.3,1,3.4,1.6.2,1-2.5,0-3.5-.3-.1,0-.2-.1-.3-.1-1.5-.5-3-1-4.5-1.6l-.2-.1c-1.2-.4-2.4-.9-3.6-1.29-2.3-.8-4.6-1.7-7-2.5l-1-.3c-3.7,1.7-7.5,3.39-11.2,5.09-2,.9-4,1.9-6,2.8a15.64,15.64,0,0,0-1.6.9c-1.4.8-3.1,1.8-4.2,1.8-.6,0-1-.1-1.1-.9s.9-1.2,1.6-1.5c.2-.1.3-.1.4-.2,2.1-1.1,4.3-2.1,6.4-3.1,4.2-2,8.5-4,12.8-5.89h.1l-7.2-2.4c-.2-.1-.7-.2-1.4-.4-3-.8-9.5-2.6-9.3-3.7s6.4,1,9.1,2c.5.2.9.3,1.1.4,3.2,1,6.4,2.1,9.6,3.2C221.1,93.38,222.1,92.88,223.1,92.48Z"/><path class="cls-2" d="M194.29,118.86a3.69,3.69,0,0,1,2.39,1.48,3.81,3.81,0,0,1,.72,2.71c-.31,2.7-2.91,3.9-5.41,3.5-2.8-.4-3.4-2.7-2-5a3.33,3.33,0,0,1,1.2-1.4c.4-.2.8,0,1.1-.2C193.4,119.55,192.79,118.76,194.29,118.86Zm-.89-1.7c-2.41.3-6.81,3.09-6.61,5.89a.78.78,0,0,0,.39.35.75.75,0,0,0,.51,0,3.78,3.78,0,0,0,.1,1.8,3.71,3.71,0,0,0,1.3,1.9,6.17,6.17,0,0,0,4.5,1.1,5.73,5.73,0,0,0,5.41-5.4C199.2,119.85,196.59,116.76,193.4,117.16Z"/><path class="cls-2" d="M205,120.75c-1.1.6-2.8,1.4-3.4,2.5s0,2.4,1.4,1.9c1.1-.4,1.8-1.8,3-2.2a3.12,3.12,0,0,1,1.32-.2,3,3,0,0,1,1.28.4,7.66,7.66,0,0,0,3.4.7c1.6-.1,2.9-1,4.4-1.2,1.3-.2,2.3.3,3.6.5s2.3-.3,3.7-.6c.9-.2,2.5.6,3.2.3,1.5-.7-.1-1.4-.9-1.7a5.34,5.34,0,0,0-3.5.3c-1.4.4-2,.1-3.4-.3-2.8-.7-4.9,1.1-7.5.7S207.6,119.35,205,120.75Z"/><path class="cls-2" d="M250.2,119.36c2.7,2.49-.3,6-3.3,4a1.73,1.73,0,0,1-.78-1.35,1.77,1.77,0,0,1,.12-.79,1.88,1.88,0,0,1,.46-.66C247.4,119.65,249,119.36,250.2,119.36Zm-1-2c-2.5.5-4.8,1.6-5.1,4.49s2.6,4.1,5.1,3.9C254.6,125.35,254.2,116.46,249.2,117.36Z"/><path class="cls-2" d="M99.78,93.88c-3.8,0-7.6.2-11.4.4-3.6.2-7.5.1-11.1.8-1,.2-2.4,1.1-1,2.1.9.69,4.4-.1,5.5-.2,4.1-.3,8.3-.6,12.4-.7,3.9-.1,7.9-.2,11.8-.2a8.1,8.1,0,0,1,2.2,0c.9.3.7.3.7,1.4a57.86,57.86,0,0,1,0,5.89c0,1.9-.1,3.8-.1,5.69,0,1.4-.4,4.1.3,5.3,1,1.7,2-.1,2.1-1.3.1-2.2.1-4.4.1-6.49s0-4.1-.1-6.1c-.1-1.5.2-4-.6-5.39s-2.7-1.1-4.2-1.1A46.89,46.89,0,0,0,99.78,93.88Z"/><path class="cls-2" d="M75.68,96.28c0,3.79-.4,7.59-.6,11.49a16.28,16.28,0,0,0,.3,5.39c.4,1.7,1.9,2.1,2,.2.3-3.9.3-8,.5-12,.1-1.4.7-4,.1-5.29C77.58,94.88,75.68,94.68,75.68,96.28Z"/><path class="cls-2" d="M111.28,113.16c-6.6.9-13.5.6-20.1.7-3.2.1-6.4.1-9.6.1-1.1,0-3.9-.4-4.9.2-1.5,1,.1,1.8,1.1,1.8,6.3.1,12.7-.2,19-.4,2.8-.1,5.7-.1,8.5-.4a24.34,24.34,0,0,0,5.3-.8c.4-.1,1.1-.1,1.2-.6C111.78,113.56,111.78,113.06,111.28,113.16Z"/><path class="cls-2" d="M83.78,118.76c-1.8,0-7.4-.8-8.1.89-1,2.4,2.9,1.8,4,1.8,2.4-.1,4.8-.1,7.2-.1s4.7,0,7.1-.1c.7,0,2.3.3,2.7-.6a1,1,0,0,0,.13-.42,1.27,1.27,0,0,0,0-.43,1.11,1.11,0,0,0-.22-.38,1,1,0,0,0-.36-.26c-1.3-.8-4.8-.3-6.3-.4C87.88,118.86,85.88,118.76,83.78,118.76Z"/><path class="cls-2" d="M106.18,119.15c-1,.1-3.2-.4-4.1.1-1.1.5-.7,1.4.2,1.8a8.44,8.44,0,0,0,3.9-.2C106.78,120.55,107.48,119.05,106.18,119.15Z"/><path class="cls-2" d="M117.68,96.68c-1.1.3-.8,6.69-.8,7.69-.1,2.8-.4,6.19.5,8.89.6,1.7,1.7,1.5,1.5-.3-.2-1.6-.5-3.1-.6-4.69a67.21,67.21,0,0,1-.4-10.89c.1.2,1.2,2.09,1.4,2C119.28,99.27,118.08,96.58,117.68,96.68Z"/><path class="cls-2" d="M130.29,94.38c-2.31,0-4.51.1-6.81.1-1.8.1-4.6-.2-6.3.5-2,.9-1,2.89.8,3,1.6,0,3.4-.29,5-.39,4.5-.2,8.91-.2,13.41-.2,4,0,8.2.4,12.2-.2.6,5.29-1,10.49-.5,15.88.1.8,0,2,1.1,2.2,1.3.2,1.4-1.1,1.4-2,.1-2.7.1-5.39.3-8.09a38.3,38.3,0,0,0,.2-7.49c-.4-3.1-1.8-2.8-4.5-3C141.19,94.28,135.79,94.28,130.29,94.38Z"/><path class="cls-2" d="M122.68,113c-1.2,0-3.1-.3-3.8.8s.1,2.2,1.3,2.4a32.69,32.69,0,0,0,4.4-.1h4.31c6.1,0,12.3.1,18.4-.1.9,0,3.3.3,3.9-.6a1.28,1.28,0,0,0,.22-.49,1.23,1.23,0,0,0,0-.54,1.17,1.17,0,0,0-.26-.46,1.14,1.14,0,0,0-.44-.31c-1.1-.6-3.5-.4-4.7-.4-1.6-.1-3.1-.1-4.7-.1C135,113,128.79,112.86,122.68,113Z"/><path class="cls-2" d="M127.78,118.36a41,41,0,0,0-7,.3c-2,.3-2.2,2.19-.1,2.49a45.58,45.58,0,0,0,6.4-.3c.7,0,1.5,0,1.9-.8a1.18,1.18,0,0,0,0-.59,1.39,1.39,0,0,0-.22-.55,1.36,1.36,0,0,0-.44-.39A1.33,1.33,0,0,0,127.78,118.36Z"/><path class="cls-2" d="M145.19,118.56c-1.2,0-4.8-.5-5.4.89-1,2.3,3.8,1.4,4.8,1.4,1.2,0,5.7.6,5.7-1.2S146.29,118.46,145.19,118.56Z"/><path class="cls-2" d="M75.48,130.14c0,4.2-.3,8.5.1,12.79.2,1.8.1,5.1,1.1,6.6.7,1.1,1.7,1,2.1-.3.3-.8-.2-2.5-.2-3.4s-.1-1.7-.1-2.6c-.1-2.2-.1-4.49-.1-6.69,0-1.9.5-4.5.1-6.3S75.48,128,75.48,130.14Z"/><path class="cls-2" d="M118.08,126.35c-7.4.2-14.7,0-22.1.4-3.6.2-7.2.6-10.8,1l-5.3.6c-.5.1-5,.2-3.3,1.89.7.7,3,0,4-.09l5.3-.6q5.1-.6,10.2-.9c8-.4,16-.3,24.1-.6,2.2-.1,4.3-.1,6.5-.1.6,0,4.8.2,2.91-1.3-.91-.7-4.11-.4-5.21-.4C122.28,126.25,120.18,126.35,118.08,126.35Z"/><path class="cls-2" d="M128.09,133.54c0-2-.11-3.89-.21-5.89s2.71-2.4,3.51-.7c.6,1.2.5,3.2.4,5,0,.7-.1,1.4-.1,1.9,0,1.2.1,2.5.2,3.8.2,3.2.5,6.59-.1,9.69-.3,1.5-1.5,2.3-2.4,1.5-.3.5-1.3.5-2,.5h-.5a58.93,58.93,0,0,0-5.9.7,93.42,93.42,0,0,1-11.7,1c-2.7.1-5.4.1-8,.1-5.1,0-10.3.1-15.4.4a46,46,0,0,0-5.1.59,3,3,0,0,1-.5.1c-1.3.3-3.1.7-3.2-1.09-.1-2.1,4.4-2.4,6.7-2.5a2.29,2.29,0,0,0,.9-.1,191,191,0,0,1,21.4-.5h2.7c3,.1,6.1.1,9.1-.1,1.4-.1,2.8-.1,4.2-.2,2.2-.1,4.5-.1,6.7-.4a20.41,20.41,0,0,1-.4-4.2,7.82,7.82,0,0,0-.1-1.6C128.18,138.94,128.18,136.24,128.09,133.54Z"/><path class="cls-2" d="M134.09,129.15a1.55,1.55,0,0,0-1.49,1.37,1.47,1.47,0,0,0,.09.72c.6,1.4,2.2.8,3.3.7,3.5-.3,7.1.3,10.6-.1.9-.1,2.3-.6,1.5-1.89-.6-1-3-.8-3.9-.9A55.85,55.85,0,0,0,134.09,129.15Z"/><path class="cls-2" d="M140,135c-1.4.1-4.5,0-5.11,1.6-1,2.8,3,1.8,4.21,1.6,1.4-.2,4.8.3,5.5-1.1C146,134.74,141.19,135,140,135Z"/><path class="cls-2" d="M136.49,141.14a1.78,1.78,0,0,0,0,2.39c.8.8,2.5.6,3.5.7,1.4.1,5.6.8,6.3-.9,1-2.29-2.8-2.2-4-2.39C140.89,140.84,137.69,139.94,136.49,141.14Z"/><path class="cls-2" d="M85.78,101.87c0,2.5,3.9,2.5,3.9,0S85.78,99.37,85.78,101.87Z"/><path class="cls-2" d="M93.08,101.87c0,2.8,4.4,2.8,4.4,0S93.08,99.07,93.08,101.87Z"/><path class="cls-2" d="M88.68,105.67c-2.1.6-.2,2.4.8,2.79,1.6.7,3.7,1.1,5.3.2.6-.39,1.1-.89.7-1.69s-1.2-.5-1.9-.4a5.87,5.87,0,0,1-2.6-.2C90.28,106.17,89.38,105.47,88.68,105.67Z"/><path class="cls-2" d="M127.39,102.07a1.26,1.26,0,0,0,.38.92,1.3,1.3,0,0,0,.92.38,1.34,1.34,0,0,0,.92-.38,1.3,1.3,0,0,0,.38-.92,1.3,1.3,0,0,0-1.3-1.3,1.3,1.3,0,0,0-1.3,1.3Z"/><path class="cls-2" d="M133.19,102.27a1.47,1.47,0,0,0,.42,1,1.46,1.46,0,0,0,2,0,1.48,1.48,0,0,0,.43-1,1.45,1.45,0,0,0-2.9,0Z"/><path class="cls-2" d="M133,106.27c-1.5.2-5.9.6-6.1,2.5-.4,2.89,4.4.49,5.5.3a17.27,17.27,0,0,1,4-.2c.8,0,1.8.2,1.7-1C137.89,106.07,134.29,106.17,133,106.27Z"/><path class="cls-2" d="M94.88,132.84c-1.1.3-2.5,2.2-1.8,3.3,1.2,1.9,1.8-1,2.3-1.3.9-.5,1.7,1.4,2.7.4C99.68,133.74,95.88,132.54,94.88,132.84Z"/><path class="cls-2" d="M107.48,131.44c-1.3,0-4,1.9-4.2,3.2a1.26,1.26,0,0,0,0,.58,1.41,1.41,0,0,0,.26.52,1.25,1.25,0,0,0,.46.36,1.32,1.32,0,0,0,.56.14c1.2,0,1.6-1.5,2.6-1.9s.9.5,1.9.9c.7.3,1.6.2,1.8-.7C111.28,132.94,108.78,131.34,107.48,131.44Z"/><path class="cls-2" d="M97.48,139.24c-2.1,1.19,1.3,3.79,2.5,4.19,1.8.5,5.4-.4,5.8-2.6.2-.89-.4-1.69-1.3-1.49s-1.3,1.09-2,1.49a2.22,2.22,0,0,1-1.4.31,2.28,2.28,0,0,1-1.3-.61C99.08,139.84,98.68,138.44,97.48,139.24Z"/><path class="cls-2" d="M99,157.22c-1.9.4-3.7.1-5.6.5s-3,1.1-4.8.4a.35.35,0,0,1-.2-.1,4,4,0,0,0-4.2.2c-.8.6-3.4,2.5-3.1,3.69.7,2.5,3.6-1.39,4.3-1.79,1.4-.7,2.4.2,3.8.5,1.7.3,3.1-.6,4.8-1,1.9-.4,4.1-.6,6-.8.8-.1,3.7.5,3.9-.4C104.28,156.62,99.78,157,99,157.22Z"/><path class="cls-2" d="M112.38,162.32c.2.1.1,0,0,0Zm5.2-5.2c1.6-.2,6.7-1.3,7.7.3.7,1.1-.4,5-1.4,5.49-.8.4-2.7,0-3.6-.09-1.7-.1-3.4-.1-5-.2-.6,0-2.4.1-2.8-.4s-.5-3.7-.6-4.5C113.28,158.22,116.08,157.22,117.58,157.12Zm3.4-1.6c-2,.1-4.1.2-6.1.5-1.1.2-2.3.6-3.3.8-.3.1-.9-.1-1.3.1-1.2.6-.1,4.5.1,5.6.4,1.59,1.6,1.89,3.1,2,2.1.2,4.2.1,6.3.1s4.7.4,5.8-1.6c.7-1.29,1.5-4.29.9-5.79C125.78,155.22,122.68,155.42,121,155.52Z"/><path class="cls-2" d="M144.29,162.81c0,.1-.2.3,0,0Zm-4.8-.1c.9-.2,1.8-.3,2.7-.5-.9,1.2-1.7.7-3.2.6A.78.78,0,0,1,139.49,162.71Zm-4.3-.4a1.83,1.83,0,0,1,.7-.2.78.78,0,0,0,.1.5c-.4,0-.8-.1-1.2-.1C134.89,162.31,135,162.31,135.19,162.31Zm-2-1.49c0-.3.5-.1.7-.1C133.38,161.12,133.09,161.22,133.18,160.82Zm7.11-3.5a.15.15,0,0,1,.06,0,.15.15,0,0,1,.09,0,.13.13,0,0,1,.08,0,.18.18,0,0,1,.07,0C140.39,157.32,140,157.52,140.29,157.32Zm3.9-.8c.9.2.9,1.3,0,0Zm-11.1,0c-.21.1-.11,0,0,0Zm3.6-2.4c-1.6.1-4.51,0-5.91.9-1.69,1.1-.8,4.9-.69,6.6.19,2.49,1.39,3.19,3.69,3.39a60.48,60.48,0,0,0,8.51.3c2.5-.1,4-.9,4.4-3.59.1-.8.5-2.1.5-2.8,0-.5-.3-.8-.4-1.2-.6-2.6-1.5-2.9-4.2-3A39.07,39.07,0,0,0,136.69,154.12Z"/><path class="cls-2" d="M270.91,133.94c-2.1.3-7.1,2-7,3.9.1,2.89,4.3-.3,5.2-.7,5-2.3,11.6.7,16.8,1.3,2.4.3,7.1.8,9.2-.4,3.8-2.2-5-1.6-6.1-1.7C283,135.94,277,133.14,270.91,133.94Z"/><path class="cls-2" d="M317.31,110.46a49.55,49.55,0,0,0,.3,7.7c.1.8.3,2.19,1.1,2.59a1.17,1.17,0,0,0,.57.16,1.24,1.24,0,0,0,.57-.12,1.3,1.3,0,0,0,.45-.39,1.19,1.19,0,0,0,.21-.55c.2-1-.3-2.39-.3-3.39-.1-1.4-.1-2.8-.1-4.2,0-1,.3-2.6-.9-3.1a1.58,1.58,0,0,0-.65,0,1.43,1.43,0,0,0-.6.24,1.5,1.5,0,0,0-.65,1.09Z"/><path class="cls-2" d="M357.82,106.47c-8.5.9-17.11,1-25.61,1.5-3.9.2-8.7-.1-12.4,1.49-.7.3-3.2,1.9-1.2,2.5.6.2,1.3-.5,1.8-.7a9,9,0,0,1,2.8-.6c7.7-1.2,15.81-1,23.71-1.6,2-.1,4-.3,6-.49,1.4-.1,4.4-1.2,5.7-.6,2.3.89,2.2,6.69,2.2,8.79,0,1-1,4.79,1,4.39,1.6-.3,1-4.19.9-5.19C362.42,113,361.82,106.07,357.82,106.47Z"/><path class="cls-2" d="M360.92,120.75c-7.4.7-14.9,0-22.3.3-3.9.1-7.81.4-11.6.5-1.71.1-3.41.1-5,.1-.8,0-4.5.5-2.2,2.1,1,.7,4.2.1,5.3.1,1.7,0,3.41-.1,5.2-.2,4-.2,8-.4,12-.5,3.8-.1,7.6-.1,11.5-.2a54.4,54.4,0,0,0,5.7-.4c.4-.1,1.8-.1,2.1-.6a.85.85,0,0,0,0-.78.81.81,0,0,0-.29-.29A.82.82,0,0,0,360.92,120.75Z"/><path class="cls-2" d="M327.71,114.26c1.7,1.8-.9,3.8-2.5,2.1S326.61,114.26,327.71,114.26Zm-1.8-2.6c-5.9,1.1-3.8,9,1.7,7.79a4,4,0,0,0,1.58-.67,4.14,4.14,0,0,0,1.15-1.28,4,4,0,0,0,.27-3.34,3.24,3.24,0,0,0-.74-1.33,3.44,3.44,0,0,0-1.26-.87c-.5-.1-.9.1-1.4,0S326.51,111.56,325.91,111.66Z"/><path class="cls-2" d="M348.62,113.86c-3.6,0-7.1.2-10.71.2-1.1,0-3.9-.5-3.9,1.3s3.1,1.2,4.2,1.1c3.5-.1,7.1-.2,10.61-.6.9-.1,4,.1,4-1.2S349.32,113.86,348.62,113.86Z"/><path class="cls-2" d="M357.12,125.85c-8.8.2-17.7.3-26.51.8q-5,.3-9.9.3c-.6,0-1.9-.2-2.5.2-1.6,1.1.2,2,1.3,2.1,7.3.4,14.6-.6,21.91-.8,4.2-.1,8.5-.2,12.7-.4,1.2-.1,2.3-.1,3.5-.2.7-.1,2.4.1,3-.3C362.92,125.75,357.92,125.85,357.12,125.85Z"/><path class="cls-2" d="M316.61,130.25a39.53,39.53,0,0,0,.2,6.79c.1.9.2,1.9,1.2,2.1s1.4-.5,1.6-1.3c.5-2,.1-4.8.1-6.8,0-1,0-2.09-1.2-2.39a1.6,1.6,0,0,0-.69,0,1.76,1.76,0,0,0-.62.33,1.62,1.62,0,0,0-.42.55A1.59,1.59,0,0,0,316.61,130.25Z"/><path class="cls-2" d="M366.52,135.74c-14.3.8-28.6,1.4-42.91,2-1.1,0-9.8,0-6.8,3,.9.9,3.3.3,4.6.2,1.8-.1,3.61-.2,5.51-.2,7.2-.39,14.5-.49,21.7-.89,4-.2,7.9-.6,11.9-1,1.9-.2,4.2-.2,6-.9C367.32,137.44,368.22,135.64,366.52,135.74Z"/><path class="cls-2" d="M358.32,124.15c-1.1,1.1-.5,3.2-.4,4.6a50.44,50.44,0,0,0,.5,5.49,11.45,11.45,0,0,0,.7,4.1,1.8,1.8,0,0,0,.68.63,1.73,1.73,0,0,0,.9.21,1.72,1.72,0,0,0,.88-.27,1.79,1.79,0,0,0,.64-.67c.6-1,.3-3.2.3-4.3,0-1.6-.1-3.2-.2-4.69-.1-1.3.2-3.4-.5-4.5C360.92,123.45,359.32,123.05,358.32,124.15Z"/><path class="cls-2" d="M328.11,132.14c2.4.5-1.5,3.2-2.7,1.3-.2-.3-.3-.7,0-.9s.5.2.7.1A7.34,7.34,0,0,1,328.11,132.14Zm-.3-2.2c-1.6.1-3.8.2-4.6,1.9-1.1,2.2.8,4.3,2.9,4.6s5.1-.8,5.3-3.2a3.25,3.25,0,0,0-1.08-2.43,3.23,3.23,0,0,0-1.17-.7A3.61,3.61,0,0,0,327.81,129.94Z"/><path class="cls-2" d="M341.32,131c-1.71,0-5-.5-6.4.3s-.81,2.2.5,2.6a11.38,11.38,0,0,0,3.19-.2c1.2,0,2.41-.1,3.61-.1h6c2.1,0,4.1.1,6.2-.1,2.6-.2,2.5-2.1,0-2.4C350.12,130.84,345.62,131,341.32,131Z"/><path class="cls-2" d="M337,152.72c0,.9.8,0,.8,0S337,151.82,337,152.72Z"/><path class="cls-2" d="M318.51,145.33c.1,2.7.1,5.4.2,8,0,.8-.2,2.5.8,2.9s1.5-.7,1.6-1.5c.4-2.6,0-5.49,0-8.09,0-.9.2-2.1-.8-2.5a1.45,1.45,0,0,0-.62-.07,1.37,1.37,0,0,0-.58.22,1.39,1.39,0,0,0-.42.45A1.31,1.31,0,0,0,318.51,145.33Z"/><path class="cls-2" d="M362.72,145.33c0,.1.3.2,0,0Zm-21.7-2.1c-4.1.1-8.21.1-12.31.3-1.8.1-3.5.1-5.3.3-1.2.1-4.3.2-5.1,1.2-1.7,2.1,1.9,1.5,2.6,1.3a31.25,31.25,0,0,1,4.2-.5c3.1-.2,6.1-.2,9.2-.3,8.31-.2,16.61-.1,24.91-.2.8,0,2.3-.3,3,0s.7,1.1.8,2.1c.1,1.2-.7,3.6-.1,4.59,1,1.6,2.4.2,2.6-.89a12.59,12.59,0,0,0-.6-5.1c-.6-2.2-1.5-2.3-3.7-2.4-2.5-.2-4.9-.3-7.4-.3C349.52,143.13,345.32,143.13,341,143.23Z"/><path class="cls-2" d="M357.32,154.22c-8.9,1-18.1.4-27.1.5-2.2,0-4.41,0-6.51.1-1.19.1-3.9-.3-4.7.6-1.7,1.9,1.3,2.1,2.41,2.1,2.19-.2,4.39-.2,6.6-.2,7.8-.1,15.6.3,23.4-.1a77.13,77.13,0,0,0,9.7-1.3c.7-.1,5.6-1.1,2.8-2.2C362.42,153,359,154,357.32,154.22Z"/><path class="cls-2" d="M331.22,150.83c0,.1-.1.19,0,0Zm-.6-.7c.1,0,.1.1,0,0Zm0,0a1.49,1.49,0,0,1,.4.9C329.22,151.42,328.52,149.93,330.62,150.13Zm-3.1-2.3c-1.2,1.5-2.2,3.19-.7,4.89a4.69,4.69,0,0,0,2.73,1.29,4.8,4.8,0,0,0,3-.59c1.7-1,1.6-3.19.4-4.69-.8-.9-1.4-.9-2.6-1.1C329.52,147.63,328.12,147,327.52,147.83Z"/><path class="cls-2" d="M339.82,150.53c0,2,8.6,1.1,10.1,1.1,1.3,0,9,.69,8.4-1.3-.5-1.7-8.1-.8-9.7-.8C347.32,149.53,339.82,148.53,339.82,150.53Z"/><path class="cls-2" d="M310.41,7.56v.6a108.23,108.23,0,0,1-.3,11.39c-.1,1.3-1,2.9-2.1,1.1-.5-.8-.4-2.4-.4-3.6v-.8c0-1.3.1-2.7.1-4a40.56,40.56,0,0,0-.1-7.79v-.1c-.2-1.1-.2-1.2-1.4-1.2h-4.6c-1.6,0-3.2.1-4.7.1-.3,0-.8.1-1.4.1a29.51,29.51,0,0,1-4.5.4,12.68,12.68,0,0,1-.4,2.6,9,9,0,0,0-.4,2.3c-.1,1.7-.1,3.39-.1,5.19,0,2.1,0,4.2-.2,6.3v.3h.2c1.1-.1,2.1-.1,3.2-.1h5a56.14,56.14,0,0,0,7.1-.3c.7-.1.9.8.6,1.2a2.13,2.13,0,0,1-.75.42,2.2,2.2,0,0,1-.85.08H304c-1.5.2-3,.3-4.5.4s-3.2.1-4.8.2c-.4,0-.9.1-1.4.1-1.5.1-3.3.29-4.3-.1s-1-.9-.6-1.3a3.36,3.36,0,0,1-.2-1.4v-.4a47.08,47.08,0,0,1-.4-5.3c0-3.49,0-7.19,1-10.59-.4-.2-.6-.4-.6-.8,0-1.79,5.7-1.69,8.4-1.69h1.1a58.05,58.05,0,0,1,5.9,0,8.17,8.17,0,0,0,1.4-.1,9.74,9.74,0,0,1,3,.1C310.31,1.66,310.31,5.36,310.41,7.56Z"/><path class="cls-2" d="M324.81,1.57c2.1-.1,4.3-.1,6.4-.1,2.31,0,4.61,0,6.81.1h.1c1,0,6.6.19,4,1.59-.2.1-.3.1-.5.2a10.74,10.74,0,0,1,.1,1.6c-.1,1.2-.1,2.4-.2,3.7,0,.8-.1,1.7-.1,2.5l-.3,6.89v1.1c.1,1.4.1,3.2-.6,3.8s-1.1.49-1.4.1c-1.8.49-5.6.39-7.51.29h-1a13.69,13.69,0,0,0-1.69.1c-3.31.2-9.31.6-9.41-1,0-.2,0-.3.1-.4A2.48,2.48,0,0,1,319,21a19.63,19.63,0,0,1-.6-5.4c-.1-2.5-.1-5.09-.1-7.59V4.06a1.15,1.15,0,0,1-.11-.75,1.13,1.13,0,0,1,.41-.65c.9-.8,3.2-.8,4.9-.8A2.56,2.56,0,0,1,324.81,1.57Zm-3.5,19.48a36.64,36.64,0,0,1,7.4-.2h1.1c1.9,0,3.8,0,5.71.1h3.2v-.3c-.1-1.7,0-3.4,0-5.1v-1.1c0-1.3.1-2.49.2-3.79,0-.8.1-1.6.1-2.4V6.86a19.48,19.48,0,0,1,.1-3.5c-.7,0-1.4-.1-2.1-.1s-1.2-.1-1.7-.1h-7a51.82,51.82,0,0,0-6.7.4,2.77,2.77,0,0,1-.5.1,15.27,15.27,0,0,1,0,3.7c0,.6-.1,1.2-.1,1.6,0,2.8.1,5.59.1,8.39,0,1.1.1,2.1.1,3.2A1.24,1.24,0,0,1,321.31,21.05Z"/><path class="cls-2" d="M297.81,22.54c-1.4.8-.6,4.1-.2,5.3a9.26,9.26,0,0,0,4.2,4.3c3.6,2,8.7,1.39,11.4,4.89,0,0,1,1,1.2-.2.2-1-1.6-2.5-2.2-3-1.9-1.4-4.4-1.79-6.6-2.49-2.4-.7-4.9-2.1-5.9-4.5C299.21,25.84,299.91,21.25,297.81,22.54Z"/><path class="cls-2" d="M330,24.14c-1.3.4-.4,2.1-.4,3a6.07,6.07,0,0,1-1,3.2c-1.7,2.2-5.1,2.6-7.7,3.19-1.91.5-6.31,1.5-6.51,4-.2,2.8,3.7-.6,4-.7,3.7-1.3,8.4-1.6,11.21-4.59a7,7,0,0,0,2-4.5C331.72,26.74,331.72,23.64,330,24.14Z"/><path class="cls-2" d="M303.31,48.92c0-5.2,4.9-8.29,9.4-9.49a8.82,8.82,0,0,1,11,7.79c.7,5.7-3.6,10.29-9.3,10.59C309.41,58,303.31,54.41,303.31,48.92Zm12-7c.3.4.6,1,0,1.4s-.8-.1-1.1-.5a1.57,1.57,0,0,0-.6-.6c-.7-.2-1.7.5-2.2.9l-.9.89c-1.2,1.3-2.9,3.2-3.8,1.6-3.8,6.5,5.6,11.39,11,8.89C323.41,51.82,322.31,41.93,315.31,41.93Z"/><path class="cls-2" d="M310.41,47.12a1,1,0,0,0,.37.5,1,1,0,0,0,.58.19,1,1,0,0,0,.59-.19,1,1,0,0,0,.36-.5C312.31,46,310.41,45.92,310.41,47.12Z"/><path class="cls-2" d="M313.71,46.92a1.15,1.15,0,0,0,.34.82,1.15,1.15,0,0,0,1.63-1.63,1.16,1.16,0,0,0-2,.81Z"/><path class="cls-2" d="M311.31,50.32c-1.9,1.1,3.5,3.3,3.7,1.1.1-1-.8-.7-1.5-.8C313,50.52,311.91,50,311.31,50.32Z"/><path class="cls-2" d="M310.51,58.21a47.11,47.11,0,0,0,.6,8.39c.1.5.2,2.4.6,2.8,1,1,1-.9,1.1-1.6.1-2.49-.1-5.19-.2-7.69a8.13,8.13,0,0,0-.1-2.2C312.11,57.11,310.51,56.81,310.51,58.21Z"/><path class="cls-2" d="M308.51,55.91c-4.1,4.6-9.8,4.3-15.5,4.7-3,.2-6.1.7-8.5,2.6a11.07,11.07,0,0,0-2.8,3.29c-.3.6-1.6,3.8.4,3.1.7-.3,1.4-2.4,1.9-3.1a9.41,9.41,0,0,1,3.4-2.89c2.6-1.3,5.8-1.2,8.6-1.4,3-.2,6.2-.3,8.9-1.6a12.18,12.18,0,0,0,3.5-2.4c.4-.4,1.2-.9,1.2-1.5C309.91,56.11,309.31,55,308.51,55.91Z"/><path class="cls-2" d="M287.71,70.1c-3.9.1-7.7.3-11.6.5-.8.1-3.4-.1-2.8,1.5.5,1.3,3.8.4,4.8.4,4-.2,8.1-.3,12.1-.7.9-.1,5,0,3.3-1.6C292.81,69.4,288.81,70,287.71,70.1Z"/><path class="cls-2" d="M270.91,71.9c-1.21,1.6-.71,5.49-.61,7.39s-.29,5.3,2.21,5.6c-.8-.1.6,0,.8.1h4.9c2.6-.1,5.2-.1,7.8-.3,1.1-.1,7,0,7.2-1.1.3-1.4-5.4-.6-6.4-.6-2.5.1-4.9.1-7.4.2h-3.7c-.5,0-2.5.2-2.8-.1s-.1-2.9-.1-3.3v-4c0-.9.5-2.6.1-3.4a1.2,1.2,0,0,0-.86-.83,1.19,1.19,0,0,0-.62,0A1.17,1.17,0,0,0,270.91,71.9Z"/><path class="cls-2" d="M290.81,72a43.9,43.9,0,0,0,.8,8.79c.2,1,.6,2.9,1.5,3.4a1.38,1.38,0,0,0,.66.17,1.34,1.34,0,0,0,.65-.2A1.25,1.25,0,0,0,295,83c.1-1.3-.6-2.9-.7-4.2a33.75,33.75,0,0,1-.3-4.49c0-1.1.3-2.8-.8-3.6a1.68,1.68,0,0,0-.78-.23,1.54,1.54,0,0,0-.79.19,1.62,1.62,0,0,0-.6.56A1.65,1.65,0,0,0,290.81,72Z"/><path class="cls-2" d="M298.51,71.3c-1.2,1.2-.7,5-.5,6.49.1,1.1,1.3,6.7,3.2,3.8.8-1.3-.2-4.7-.2-6.19,0-1,.3-2.2.2-3.1a1.58,1.58,0,0,0-1-1.33,1.56,1.56,0,0,0-.88-.07A1.67,1.67,0,0,0,298.51,71.3Z"/><path class="cls-2" d="M306.91,70.3a99.38,99.38,0,0,1,10.9-.7h.5c2.5,0,6.2-.1,7.9,1.8a10.32,10.32,0,0,1,1.71,4,5.41,5.41,0,0,0,.19.69,4.6,4.6,0,0,1,.2.7c.4,1.2.9,2.8.4,3.8-.29.5-.69,1-1.4.8a.59.59,0,0,1-.22,0,.5.5,0,0,1-.17-.15.86.86,0,0,1,.28.52.85.85,0,0,1-.09.58c-.3.8-1.4.8-2.2.8h-.6c-2.8.2-5.5.4-8.3.4h-8.1c-1,0-2,.1-3,.2-1.3.1-2.5.2-3.8.2-.9,0-1.9-.3-1.7-1.5.2-1,1.1-1.1,1.9-1.1h.2a67.31,67.31,0,0,1,7.9-.4h16.51a1.47,1.47,0,0,1,.6.2,1.32,1.32,0,0,1-.21-.9v-.5c0-.3-.1-.6-.1-.9-.1-1-.2-2.1-.4-3.09,0-.2-.1-.3-.1-.5-.2-1.1-.4-2.5-1.3-3.1s-2.6-.6-3.9-.5h-1a93.8,93.8,0,0,0-10.6.5,2.18,2.18,0,0,0-.8.1,27,27,0,0,0-4,.5,8.83,8.83,0,0,0-1,.3c-1.1.4-2.6.9-3.2.3C298.41,71.2,305.91,70.4,306.91,70.3Z"/><path class="cls-2" d="M320.91,54c-2.2,1.29,1.9,5.09,2.9,5.69,2.3,1.3,5.5,1.5,8.11,1.9,3.29.5,6.9.6,10,1.7A7,7,0,0,1,345,65.6c.4.6,1.5,3,2.5,2.4,2-1.1-3.3-6-4.5-6.49-2.7-1.2-5.8-1.5-8.71-2a50.71,50.71,0,0,1-7.9-1.5,5.9,5.9,0,0,1-3.3-2.3C322.61,54.81,322.21,53.22,320.91,54Z"/><path class="cls-2" d="M354.52,68.8c-2.5.1-5.1.3-7.6.4l-4.3.3c-.4,0-.9.1-1.3.1-1.2.1-2.5.1-3.7.3a1.36,1.36,0,0,0-.6.1,12.2,12.2,0,0,0-3.4.6,1.41,1.41,0,0,0-.68-.25,1.44,1.44,0,0,0-.71.12,1.39,1.39,0,0,0-.56.46,1.34,1.34,0,0,0-.25.67c0,2.1,0,4.1.2,6.19a19.61,19.61,0,0,0,1,4.2c-.2,1.2.8,1.5,1.7,1.6a61.84,61.84,0,0,0,11.3-.2c1.9-.1,3.8-.3,5.7-.3h1.9a32.2,32.2,0,0,0,6.2-.4h.3c.8-.1,1.9-.3,2-1.2a1,1,0,0,0-.15-.68,1,1,0,0,0-.55-.42,5.7,5.7,0,0,0-.1-1.3v-.2a23,23,0,0,0-.7-3.59c-.1-.3-.1-.5-.2-.8s-.1-.6-.2-1c-.3-1.3-.6-3-1.4-3.8a4.75,4.75,0,0,0-3.5-.7C354.72,68.8,354.62,68.8,354.52,68.8ZM359,80.29a11.37,11.37,0,0,1-.5-2.9c-.1-.6-.1-1.19-.2-1.79-.1-.4-.1-.8-.2-1.2a13.78,13.78,0,0,0-.7-2.9c-.5-1.2-.9-1.1-2-1a2.08,2.08,0,0,0-.7.1l-3.2.3c-.5,0-1,.1-1.5.1-2.2.2-4.4.3-6.6.5l-3.9.3c-1,.1-2,.3-3,.5a22.57,22.57,0,0,1-2.3.4,2.41,2.41,0,0,1-.1.8c0,.3-.1.7-.1.9,0,1.2.1,2.39.2,3.49v.5c0,.2.1.5.1.8a8.45,8.45,0,0,1,.2,1.5h.7c2.8,0,5.6-.1,8.3-.2h1.1c2.5-.1,5-.2,7.4-.2,1,0,2,0,3,.1C356.42,80.29,357.72,80.29,359,80.29Z"/><path class="cls-2" d="M98.18,291.9c28.3,0,51.21-21.88,51.21-48.86s-22.91-48.85-51.21-48.85S47,216.07,47,243,69.88,291.9,98.18,291.9Z"/><path class="cls-3" d="M112.68,101.38c4.3,2.59,8.5,3.79,10.5,3.29,5-1.3,5.4-19.48,1.6-26.67s-23.6-10.29-24.6,3.89A18,18,0,0,0,105,94.78l-5.5,25.58h15.9Z"/><path class="cls-4" d="M118.48,70.3a18.94,18.94,0,0,0-6.7-.7,10.36,10.36,0,0,0,.8-5.79,16.19,16.19,0,0,0-1.9-5.2,8.25,8.25,0,0,0-1.4-2.19,4.61,4.61,0,0,0-2.3-1.2,5.71,5.71,0,0,0-2.6,0,5.11,5.11,0,0,1-1.1.3c-.4.1-.6-.1-.8-.4a4.49,4.49,0,0,0-2.5-1,6.65,6.65,0,0,0-2.8.3,5.13,5.13,0,0,0-2.3,1.5,4,4,0,0,0-.7,1.1c-.1.2-.1.3-.2.3a1,1,0,0,1-.5.1,6,6,0,0,0-2.07,1.24,6.11,6.11,0,0,0-1.43,2,9.53,9.53,0,0,0-.5,4.1c.1,1.7,1.6,6.19,3.1,7.79a9.31,9.31,0,0,0,5,2.8A14.33,14.33,0,0,0,95,80.19a19.88,19.88,0,0,0-1.2,6,19.4,19.4,0,0,0,.3,5.89,6.29,6.29,0,0,0,1,2.38,6.57,6.57,0,0,0,1.82,1.82,15,15,0,0,0,2.2,1,8.86,8.86,0,0,0,2.3.7c1.5.3,3.2.3,4.3-.9a8.59,8.59,0,0,0,1.2-1.5c.1-.2.2-.3,0-.5l-.6-.6a6.14,6.14,0,0,1-2-3.8c-.2-1.59.2-3.59,1.8-4.19,1.9-.8,3.9.1,5.6,1a9.47,9.47,0,0,1,1.61-3.39,9.3,9.3,0,0,1,2.79-2.51c2.5-1.3,5.4-1.4,8-2.49a4.85,4.85,0,0,0,1.9-1.2,1.62,1.62,0,0,0,.5-.9c.1-.4-.2-.8-.4-1.1C124.88,74.4,120.68,70.9,118.48,70.3Z"/><path class="cls-3" d="M177.69,240.45c2.5,8.69,8.6,25.07,17.1,43.85l8.11-2.39c-7.11-43.36-13-72-16.31-80.83-2.2-5.79-19.1-5.09-17.2,6.5C170.29,212.57,173.49,225.66,177.69,240.45Zm-33.2-30.68c-13.2,2.7-40.51,12.39-48.41,15.49-4.9,1.9-1.7,8.49,2.4,8,.7-.1,3.2-.4,7-.8,12-1.3,36.81-4.09,55.61-6.79,9.9-1.4,4.6-20-5.7-18C151.89,208.27,148.29,209,144.49,209.77Z"/><path class="cls-3" d="M187.09,196.29c-1.3-4.4-62.7-20-62.7-20h-5V181l42.21,21.48a8.53,8.53,0,0,0,.1,2.2c-.3,16,6.5,27.87,13.3,39.66,4.4,7.7,8.8,15.39,11.21,24.08l15.5-2.3c-.5-1.2-1.2-6.39-2.1-13.49-2.5-18-6.6-48.15-12.4-56C187.2,196.49,187.2,196.49,187.09,196.29Z"/><path class="cls-3" d="M122.88,215.27c-3.9-.8-7.4-1.5-10.5-2-19.7-3.5-25.4-14-22-37h36.3c5.91,1.69,36.71,14.58,52.71,21.48,10.6,4.49,7.2,20.88,1.3,25.17a.43.43,0,0,1-.06.31.41.41,0,0,1-.24.19c-22.7,9.39-42,8.69-54.51,8.29-5.2-.2-9.2-.3-11.7.3l-3.9-12.38Z"/><path class="cls-3" d="M100.28,225.36a2.12,2.12,0,0,0-2.2-2,13.5,13.5,0,0,0-3.8.9,52,52,0,0,0-4.5,2.8c.9,1.9,16.4,33.67,16.4,33.67s5-.8,3.9-3.8-1.7-5-1.7-5l-.6-18.69a1.06,1.06,0,0,0-.08-.4.94.94,0,0,0-.25-.34.82.82,0,0,0-.36-.21,1,1,0,0,0-.41-.05l-2.6.2a14.34,14.34,0,0,1-3.3-3.69A15.6,15.6,0,0,1,100.28,225.36Z"/><path class="cls-3" d="M193.49,280.41a1.91,1.91,0,0,0-.79-.18,1.94,1.94,0,0,0-.79.14,2,2,0,0,0-.68.46,2,2,0,0,0-.44.68,16,16,0,0,0-.89,3.79,39.41,39.41,0,0,0,.59,5.2H228s1.5-4.8-1.7-5.2-5.2-.7-5.2-.7L204,277a1,1,0,0,0-.76,0,1,1,0,0,0-.54.51l-1,2.4a14.66,14.66,0,0,1-4.7,1.4A9.11,9.11,0,0,1,193.49,280.41Z"/><path class="cls-3" d="M175.69,182.7l-21.2-15.59-4.7,11.59,21,8.69c5.9,7,9.3,9.9,10,8.7.6-1,.1-1.9-.3-2.7s-.6-1.3-.4-1.8c.5-1.3,4.5-1.2,8.3-.9s2.7-1.4,1.81-2.2A63.64,63.64,0,0,0,175.69,182.7ZM64.58,210.17c1.9-4,8.6-42.46,8.6-42.46l13.9.1s-12.9,41.46-13.9,44.06c-1.3,3.3.9,8.09,2.5,11.39.22.46.42.92.6,1.4-2.1,1-3.1-.2-4.2-1.4-1.2-1.4-2.5-2.8-5.5-1.4a35.57,35.57,0,0,0-3.4,1.8c-3.7,2.2-7.21,4.2-11.91,1.3-.7-.5-1.6-2.2.4-3.5C56.57,218,63.58,212.07,64.58,210.17Z"/><path class="cls-5" d="M112.58,109.47l5.7-1c21.31,18.38,30.11,53.75,56.21,72.53l-6.3,7.79C122.88,183.2,111.68,140,112.58,109.47Z"/><path class="cls-3" d="M87.48,181.6h50.81c2.3,0,1.9-3.4,1.5-5-3.9-19.49-19-40.57-19-68.34l-14.7-2.3C94.08,125.45,89.88,149.43,87.48,181.6Z"/><path class="cls-5" d="M89.48,124.85a7.53,7.53,0,0,1-3.86-1.14,7.62,7.62,0,0,1-2.74-2.95c-5.4-9.69-3.4-15,2.3-16.79,3.1-1,6.1-.3,9.7.5a47.74,47.74,0,0,0,10.3,1.4,3.7,3.7,0,0,1,1.1.1l4.9.3s19.81,66.94,10.91,89.32H81.88a136.06,136.06,0,0,1-6.6,14H64.38C63.08,171.61,77.48,142.44,89.48,124.85Z"/><path class="cls-3" d="M300,55.52c-4.3,2.59-8.5,3.89-10.5,3.29-5-1.3-5.4-19.48-1.6-26.67s23.7-10.29,24.7,3.89a18.22,18.22,0,0,1-4.8,13l5.5,25.58h-16Z"/><path class="cls-5" d="M297,23.84c2.1-.3,7.8-.59,8.8-.59.7,0,1.4.19,1.8-.5a6.18,6.18,0,0,0,.3-1.9c.1-.7.3-1.3.4-2a25.72,25.72,0,0,1,2.1-5.4,16.09,16.09,0,0,1,7.9-7.09,24.35,24.35,0,0,1,11.91-1.6c4.3.3,8.2,1.8,12.2,3.1A24.19,24.19,0,0,0,354.32,9c4.1-.6,7.1-2.8,10.6-4.9A20.11,20.11,0,0,1,376.62.87a22.51,22.51,0,0,1,10.61,4,17.44,17.44,0,0,1,6.9,7.79c1.5,3.6,1.5,7.6-1,10.79-3.6,4.7-10.21,5.9-15.71,5.7a32.42,32.42,0,0,1-9.3-1.7c-4-1.4-7.5-3.8-11.3-5.79a28.45,28.45,0,0,0-5.5-2.2c-1.9-.5-3.7-.8-5.4.4a24.56,24.56,0,0,1-5.4,3.1,18.16,18.16,0,0,1-6.1,1.09c-4,0-8-1.29-12-2.09-3.21-.7-6.61-1.4-9.91-.7-1.4.3-3.4.8-3.8,2.29,8.31,1.5,11.51,11.79,9.21,19.29-1.31,4.09-8.81,8.79-11.81,6.69-1.9-1.4-.7-3.1,0-4.3,1.4-2.19,1.9-5.09-.7-6.69-2.2-1.3-4.6,1.9-4.6,1.8-.6,0-5.9-3.1-9.6-7.49-3.6.2-4.2-2.2-3.3-4.1S294.11,24.34,297,23.84Z"/><path class="cls-6" d="M323.92,130.74l-25,81.83-12.1,69.53h-9.5l12.8-151.36Z"/><path class="cls-6" d="M332.92,130.74c-1.71,45,.29,68.14.69,72.14s5.61,30.57,17.91,80.62L341.42,280c-19.51-45.86-26.11-69.74-28.31-75.83s-8.2-30.58-17.8-73.54h37.61Z"/><path class="cls-5" d="M348.92,279.51a2,2,0,0,1,.79-.19,2,2,0,0,1,1.47.6,2.08,2.08,0,0,1,.44.69,15.4,15.4,0,0,1,.9,3.79,42.76,42.76,0,0,1-.6,5.3h-37.5s-1.51-4.8,1.69-5.2,5.21-.7,5.21-.7l17.1-7.59a1,1,0,0,1,1.3.5l1,2.4a14.84,14.84,0,0,0,4.7,1.4A13.74,13.74,0,0,0,348.92,279.51Z"/><path class="cls-5" d="M286.41,279.51a2,2,0,0,1,.79-.19,2.22,2.22,0,0,1,.8.15,2.19,2.19,0,0,1,.67.45,2.08,2.08,0,0,1,.44.69,15.4,15.4,0,0,1,.9,3.79,42.76,42.76,0,0,1-.6,5.3H251.9s-1.5-4.8,1.7-5.2,5.21-.7,5.21-.7l17.1-7.59a1,1,0,0,1,1.3.5l1,2.4a14.84,14.84,0,0,0,4.7,1.4A12.53,12.53,0,0,0,286.41,279.51Z"/><path class="cls-3" d="M369.42,151.73c-2.5-3.6-19.2-52.56-19.2-52.56l-14.4,2.1s24,51,25.3,53.35c1.8,3.1.2,8.09-.9,11.59a8.74,8.74,0,0,0-.4,1.5c2.2.6,3.1-.6,4-2s2.1-3.09,5.3-2.2c1.2.4,2.4.9,3.6,1.3,4,1.6,7.7,3.1,11.9-.4.7-.6,1.2-2.39-.9-3.39C378.42,158.32,370.62,153.52,369.42,151.73Zm-124.32-2.5,16.1-20.78,7.71,9.79L251.1,152.42q-5.7,12.45-7.2,11.09c-.8-.8-.6-1.79-.5-2.69.1-.7.3-1.4-.1-1.9-.9-1.1-4.7.1-8.2,1.5s-3-.6-2.3-1.6A52.73,52.73,0,0,1,245.1,149.23Z"/><path class="cls-3" d="M300.51,64.51l-5.8-.2c-4.5,32.87-47.61,60.94-48.81,73.13-.4,4.49,3,6.19,1.6,7.79l8.2,4.4c1-1.6,4.1.7,9.41-2S305.71,102,300.51,64.51Z"/><path class="cls-3" d="M308.41,56.81a4,4,0,0,1,1.57,0,3.81,3.81,0,0,1,1.45.58,3.77,3.77,0,0,1,1.68,2.56l.5,2.5c11.91,6.69,41.91,27.57,55.31,72.43a14.34,14.34,0,0,1-.3,9.69c-.5,1.5-1,2.8-.5,4.2l-9.3,4c-.2-1.09-1.5-1.69-3.2-2.59-2.5-1.2-5.8-2.9-7.5-6.8-1.6-3.69-3.9-8.39-6.5-13.48.8,7.19.4,14-1.8,19.78-5.5,14.68-50.31,5.69-56.81-7.5-3.4-7.09-.9-13.78,2.4-22.57,4.2-11.19,9.7-26,6.1-49.36l-1.1-5.39a4,4,0,0,1-.05-1.57,3.81,3.81,0,0,1,.58-1.45,3.91,3.91,0,0,1,1.11-1.11,3.84,3.84,0,0,1,1.46-.57Z"/></svg>