<svg width="221" height="294" viewBox="0 0 221 294" fill="none" xmlns="http://www.w3.org/2000/svg">
<path d="M63.5 294C98.5986 294 127 266.233 127 232C127 197.767 98.5986 170 63.5 170C28.4013 170 0 197.767 0 232C0 266.233 28.4013 294 63.5 294Z" fill="#DEDCF8"/>
<path d="M80.9768 58.2873C86.1458 61.4128 91.1946 62.8553 93.5987 62.2543C99.6091 60.6916 100.09 38.8136 95.5221 30.1586C90.9542 21.5036 67.1529 17.7771 65.9508 34.8467C65.5902 40.7369 67.9944 46.0261 71.7208 50.3536L65.1094 81.1269H84.2225L80.9768 58.2873Z" fill="white" stroke="#2E3374" stroke-width="1.7" stroke-miterlimit="10"/>
<path d="M87.9505 20.9025C85.3395 20.1341 82.61 19.849 79.8966 20.061C80.8756 17.8763 81.2092 15.4571 80.8582 13.0889C80.4593 10.8902 79.6868 8.77603 78.5742 6.83809C78.1568 5.87302 77.5888 4.98035 76.8913 4.19349C76.1256 3.45957 75.1666 2.95923 74.1266 2.75105C73.0986 2.5107 72.029 2.5107 71.0011 2.75105C70.5774 2.92671 70.1331 3.04788 69.6788 3.11166C69.198 3.23187 68.9576 2.99142 68.7172 2.6308C67.8581 1.93869 66.8113 1.51997 65.712 1.42871C64.5771 1.30986 63.43 1.43275 62.3461 1.78932C61.2778 2.12797 60.3219 2.75134 59.5813 3.59245C59.2326 3.98588 58.9485 4.43225 58.7398 4.91479C58.6196 5.1552 58.6197 5.2754 58.4995 5.2754C58.3149 5.37257 58.1062 5.41429 57.8984 5.39558C56.9762 5.724 56.1288 6.23348 55.4063 6.89407C54.6838 7.55467 54.1007 8.35305 53.6911 9.24226C53.1329 10.8214 52.9277 12.5038 53.0901 14.1709C53.2103 16.2144 55.0134 21.6238 56.8165 23.5471C58.4168 25.2724 60.5197 26.45 62.8269 26.9129C61.414 28.6557 60.3526 30.6561 59.7015 32.8032C58.8536 35.1191 58.3671 37.5518 58.259 40.0157C58.0189 42.3844 58.1405 44.7758 58.6196 47.1079C58.8157 48.1314 59.2144 49.1054 59.7925 49.9724C60.3705 50.8395 61.1161 51.5821 61.9855 52.1567C62.8326 52.6292 63.7171 53.0312 64.6301 53.3588C65.5087 53.7647 66.439 54.0479 67.3948 54.2003C69.198 54.5609 71.2415 54.5609 72.5638 53.1184C73.1091 52.5719 73.5929 51.9672 74.0063 51.3152C74.1265 51.0748 74.2467 50.9546 74.0063 50.7142L73.2851 49.993C71.9617 48.808 71.1085 47.1868 70.8809 45.4251C70.6405 43.5017 71.1213 41.0975 73.0447 40.3763C75.3286 39.4146 77.7328 40.4965 79.7763 41.5784C80.1412 40.1036 80.7971 38.7165 81.7053 37.4986C82.6136 36.2807 83.756 35.2564 85.0655 34.486C88.0707 32.9233 91.5568 32.8031 94.6822 31.4808C95.5481 31.19 96.3315 30.6953 96.9662 30.0383C97.2788 29.7526 97.4898 29.3729 97.5672 28.9565C97.6874 28.4756 97.3268 27.9948 97.0863 27.6341C95.6438 25.831 90.5951 21.6237 87.9505 20.9025Z" fill="#F8B243" stroke="#2E3374" stroke-width="1.7" stroke-miterlimit="10"/>
<path d="M159.114 225.617C162.119 236.076 169.452 255.79 179.669 278.389L189.406 275.504C180.871 223.333 173.779 188.834 169.812 178.255C167.168 171.283 146.852 172.125 149.136 186.069C150.218 192.079 154.065 207.827 159.114 225.617ZM119.204 188.713C103.337 191.959 70.5199 203.619 61.0235 207.346C55.1333 209.63 58.98 217.563 63.9085 216.962C64.75 216.842 67.7552 216.482 72.3231 216.001C86.7481 214.438 116.56 211.072 139.159 207.826C151.06 206.144 144.689 183.785 132.307 186.189C128.1 186.91 123.772 187.752 119.204 188.713Z" fill="white" stroke="#2E3374" stroke-width="1.7" stroke-miterlimit="10"/>
<path d="M170.413 172.486C168.851 167.197 95.0426 148.444 95.0426 148.444H89.0322V154.094L139.76 179.939C139.683 180.822 139.723 181.711 139.88 182.584C139.52 201.817 147.694 216.122 155.868 230.306C161.157 239.562 166.446 248.818 169.331 259.277L187.964 256.512C187.363 255.069 186.521 248.818 185.439 240.284C182.434 218.646 177.506 182.343 170.534 172.847C170.534 172.727 170.534 172.726 170.413 172.486Z" fill="white" stroke="#2E3374" stroke-width="1.7" stroke-miterlimit="10"/>
<path d="M93.2388 195.326C88.5507 194.364 84.3434 193.523 80.6169 192.921C56.9358 188.714 50.084 176.092 54.171 148.444H97.8067C104.899 150.488 141.923 165.995 161.157 174.289C173.899 179.699 169.812 199.413 162.719 204.582C162.738 204.708 162.712 204.837 162.646 204.947C162.581 205.056 162.479 205.14 162.359 205.183C135.071 216.482 111.871 215.641 96.845 215.16C90.5942 214.92 85.7859 214.799 82.7806 215.521L78.0926 200.615L93.2388 195.326Z" fill="white" stroke="#2E3374" stroke-width="1.7" stroke-miterlimit="10"/>
<path d="M66.0721 207.466C66.0378 206.798 65.7405 206.17 65.2451 205.719C64.7497 205.269 64.0964 205.033 63.4275 205.062C61.8598 205.195 60.3205 205.56 58.8596 206.144C57.0013 207.175 55.1959 208.298 53.4502 209.51C54.5321 211.794 73.1643 250.02 73.1643 250.02C73.1643 250.02 79.1748 249.058 77.8525 245.452C76.5302 241.846 75.8089 239.442 75.8089 239.442L75.0877 216.963C75.0886 216.794 75.054 216.627 74.9862 216.473C74.9184 216.319 74.8189 216.181 74.6942 216.067C74.5696 215.954 74.4224 215.868 74.2624 215.815C74.1024 215.762 73.933 215.744 73.7654 215.761L70.64 216.001C69.069 214.761 67.7266 213.255 66.6731 211.553C66.3201 210.218 66.1185 208.847 66.0721 207.466Z" fill="white" stroke="#2E3374" stroke-width="1.7" stroke-miterlimit="10"/>
<path d="M178.106 273.701C177.807 273.564 177.484 273.49 177.156 273.483C176.827 273.476 176.501 273.536 176.197 273.66C175.893 273.784 175.617 273.969 175.387 274.203C175.158 274.438 174.978 274.717 174.86 275.023C174.313 276.496 173.949 278.03 173.778 279.591C173.887 281.688 174.128 283.776 174.5 285.842H219.578C219.578 285.842 221.381 280.072 217.534 279.591C213.688 279.11 211.283 278.75 211.283 278.75L190.728 269.614C190.44 269.491 190.116 269.485 189.825 269.598C189.533 269.71 189.296 269.931 189.165 270.215L187.963 273.1C186.188 273.975 184.278 274.544 182.313 274.783C180.852 274.708 179.422 274.34 178.106 273.701Z" fill="white" stroke="#2E3374" stroke-width="1.7" stroke-miterlimit="10"/>
<path d="M156.709 156.137L131.225 137.385L125.575 151.329L150.819 161.787C157.911 170.202 161.998 173.688 162.839 172.245C163.561 171.043 162.96 169.961 162.479 169C161.998 168.038 161.758 167.437 161.998 166.836C162.599 165.273 167.407 165.393 171.975 165.754C176.543 166.115 175.221 164.071 174.139 163.109C168.638 160.076 162.784 157.735 156.709 156.137ZM23.1571 189.195C25.4411 184.386 33.495 138.106 33.495 138.106L50.204 138.226C50.204 138.226 34.6971 188.113 33.495 191.238C31.9323 195.205 34.5769 200.975 36.5002 204.942C36.7696 205.49 37.0104 206.052 37.2215 206.625C34.6972 207.827 33.4951 206.384 32.1728 204.942C30.7303 203.259 29.1676 201.576 25.5613 203.259C24.1619 203.908 22.7976 204.63 21.4742 205.423C17.0265 208.067 12.8192 210.472 7.16943 206.985C6.32797 206.384 5.24605 204.341 7.65022 202.778C13.5404 198.571 21.9551 191.479 23.1571 189.195Z" fill="white" stroke="#2E3374" stroke-width="1.7" stroke-miterlimit="10"/>
<path d="M80.8579 68.0244L87.7098 66.8223C113.314 88.9406 123.893 131.494 155.267 154.094L147.694 163.47C93.2393 156.738 79.776 104.808 80.8579 68.0244Z" fill="#2E3374" stroke="#2E3374" stroke-width="1.7" stroke-miterlimit="10"/>
<path d="M50.6836 154.815H111.749C114.514 154.815 114.033 150.728 113.553 148.805C108.864 125.364 90.713 100 90.713 66.5822L73.0423 63.8174C58.6173 87.258 53.5686 116.108 50.6836 154.815Z" fill="white" stroke="#2E3374" stroke-width="1.7" stroke-miterlimit="10"/>
<path d="M53.0884 86.5365C51.4452 86.5035 49.8412 86.0284 48.4451 85.1612C47.049 84.2939 45.9123 83.0665 45.1546 81.608C38.6633 69.9478 41.0675 63.5768 47.9194 61.413C51.6458 60.2109 55.2521 61.0524 59.5796 62.0141C63.6327 63.0266 67.7848 63.5909 71.9611 63.6969C72.4054 63.6715 72.851 63.7121 73.2834 63.8172L79.1736 64.1778C79.1736 64.1778 102.975 144.717 92.2763 171.644H43.9525C41.6312 177.401 38.9824 183.02 36.0188 188.473H22.916C21.3533 142.794 38.6634 107.693 53.0884 86.5365Z" fill="#2E3374" stroke="#2E3374" stroke-width="1.7" stroke-miterlimit="10"/>
</svg>
