<svg width="296" height="297" viewBox="0 0 296 297" fill="none" xmlns="http://www.w3.org/2000/svg">
<path d="M0 0H296V297H0V0Z" fill="#2E3374"/>
<path fill-rule="evenodd" clip-rule="evenodd" d="M258.392 110.873C258.172 110.762 257.701 110.791 257.479 110.785C256.555 110.761 255.621 110.842 254.711 111C251.904 111.491 249.1 112.266 246.423 113.231C244.723 113.843 242.784 115.249 240.943 114.987C237.735 114.531 234.673 115.111 232.034 117.014C229.621 118.754 228.043 121.537 227.332 124.372C227.225 124.8 226.764 126.387 226.732 127.408C226.681 127.624 226.633 127.842 226.594 128.061C226.482 128.683 226.395 129.311 226.321 129.938C226.29 130.206 226.197 130.8 226.441 130.87C226.198 131.612 225.999 132.367 225.858 133.136C225.447 135.373 224.998 137.826 225.112 140.101C225.154 140.944 225.294 141.774 225.531 142.585C225.648 142.985 225.772 143.81 226.097 144.074C226.788 144.633 226.924 143.659 226.783 143.23C225.706 139.966 226.12 136.654 226.71 133.309C227.092 131.145 227.976 129.073 229.036 127.151C229.894 125.596 230.882 124.317 232.225 123.152C233.868 121.727 235.674 120.492 237.462 119.257C238.638 118.445 239.818 117.648 241.044 116.911C241.317 116.747 241.726 116.377 242.05 116.32C242.734 116.199 243.794 116.546 244.489 116.623C246.775 116.876 249.119 117.302 251.425 117.234C252.903 117.191 254.215 116.724 255.479 116C255.608 115.926 255.817 115.757 256.069 115.524C257.002 114.958 257.864 114.299 258.566 113.443C258.97 112.95 259.309 112.344 259.619 111.79C259.711 111.624 259.734 111.449 259.709 111.29C259.79 111.227 259.839 111.161 259.841 111.094C259.857 110.599 258.96 110.745 258.392 110.873Z" fill="#89C5CC"/>
<path fill-rule="evenodd" clip-rule="evenodd" d="M272.54 123.035C271.521 122.199 270.247 121.569 269.069 120.991C262.767 117.865 255.114 117.65 248.705 120.294C243.249 122.544 239.763 127.034 236.513 131.713C236.191 132.177 235.908 132.658 235.614 133.139C235.551 133.242 235.49 133.331 235.43 133.415C235.046 133.514 234.766 133.716 234.769 134.097C233.537 135.062 232.379 136.106 231.27 137.227C228.005 140.526 224.68 143.888 223.336 148.429C224.687 146.244 226.266 144.111 227.874 142.105C227.966 141.99 228.06 141.877 228.155 141.765C228.165 141.753 228.175 141.741 228.185 141.729C228.699 141.126 229.252 140.569 229.844 140.045C229.851 140.039 229.857 140.034 229.863 140.028C229.942 139.959 230.021 139.892 230.101 139.824C230.266 139.684 230.432 139.546 230.603 139.411C230.66 139.364 230.718 139.317 230.774 139.269C231.613 138.553 232.296 137.61 233.113 136.843C233.302 136.67 233.495 136.5 233.691 136.333C233.703 136.324 233.714 136.314 233.726 136.304C234.255 135.856 234.806 135.428 235.368 135.013C235.577 134.978 235.8 134.741 236.059 134.555C236.112 134.519 236.492 134.294 236.653 134.135C236.976 133.905 237.299 133.676 237.623 133.448C237.618 133.447 237.612 133.446 237.606 133.446C237.924 133.23 238.242 133.016 238.558 132.803C238.628 132.756 238.698 132.709 238.767 132.662C238.88 132.588 238.992 132.514 239.104 132.44C240.151 131.748 241.222 131.093 242.308 130.461C242.696 130.235 243.458 130.018 243.75 129.691C243.761 129.679 243.769 129.666 243.778 129.654C246.024 128.501 248.395 127.592 250.887 127.186C250.549 127.308 249.676 127.865 249.472 127.96C248.849 128.249 248.211 128.488 247.568 128.732C246.417 129.17 245.27 129.642 244.178 130.203C242.181 131.229 240.301 132.423 238.457 133.679C238.443 133.684 238.428 133.689 238.414 133.695C237.638 134.034 236.885 134.761 236.2 135.252C237.879 135.325 239.591 135.689 241.27 135.85C242.944 136.011 244.613 136.09 246.29 136.038C248.519 135.968 250.877 135.808 253.147 135.422C255.62 135.23 258.017 134.449 260.268 133.494C262.932 132.363 265.467 131.145 267.633 129.225C268.698 128.282 269.69 127.237 270.542 126.103C270.58 126.054 270.622 126.001 270.666 125.947C271.106 125.629 271.527 125.291 271.922 124.926C272.549 124.347 273.568 123.879 272.54 123.035Z" fill="#69A1AC"/>
<path fill-rule="evenodd" clip-rule="evenodd" d="M28.9403 182.873C29.16 182.762 29.6307 182.791 29.8531 182.785C30.7772 182.761 31.7108 182.842 32.6213 183C35.4281 183.491 38.2325 184.266 40.9092 185.231C42.6086 185.843 44.5477 187.249 46.3892 186.987C49.5974 186.531 52.6593 187.111 55.2983 189.014C57.7111 190.754 59.2892 193.537 60.0002 196.372C60.1075 196.8 60.5685 198.387 60.5999 199.408C60.6514 199.624 60.6993 199.842 60.7385 200.061C60.8497 200.683 60.9371 201.311 61.0109 201.938C61.0425 202.206 61.1354 202.8 60.8906 202.87C61.134 203.612 61.3328 204.367 61.4742 205.136C61.8853 207.373 62.3336 209.826 62.2199 212.101C62.1779 212.944 62.0379 213.774 61.8009 214.585C61.6837 214.985 61.5605 215.81 61.2349 216.074C60.5439 216.633 60.4077 215.659 60.5489 215.23C61.626 211.966 61.2125 208.654 60.622 205.309C60.2402 203.145 59.3558 201.073 58.2958 199.151C57.438 197.596 56.4503 196.317 55.1069 195.152C53.4641 193.727 51.6577 192.492 49.8698 191.257C48.6939 190.445 47.5138 189.648 46.2881 188.911C46.0155 188.747 45.6062 188.377 45.2824 188.32C44.5978 188.199 43.5376 188.546 42.8427 188.623C40.5569 188.876 38.2126 189.302 35.9073 189.234C34.4287 189.191 33.1173 188.724 31.8528 188C31.7236 187.926 31.5147 187.757 31.2634 187.524C30.3297 186.958 29.4677 186.299 28.7661 185.443C28.3619 184.95 28.0226 184.344 27.7134 183.79C27.6209 183.624 27.5977 183.449 27.6233 183.29C27.5424 183.227 27.4929 183.161 27.4908 183.094C27.4755 182.599 28.3722 182.745 28.9403 182.873Z" fill="#89C5CC"/>
<path fill-rule="evenodd" clip-rule="evenodd" d="M14.7923 195.035C15.8107 194.199 17.0854 193.569 18.2629 192.991C24.5648 189.865 32.2182 189.65 38.6269 192.294C44.0828 194.544 47.5687 199.034 50.8187 203.713C51.1413 204.177 51.4242 204.658 51.7182 205.139C51.7814 205.242 51.8425 205.331 51.9016 205.415C52.2865 205.514 52.5656 205.716 52.5631 206.097C53.7948 207.062 54.9532 208.106 56.0624 209.227C59.3274 212.526 62.6522 215.888 63.996 220.429C62.6449 218.244 61.0662 216.111 59.458 214.105C59.3656 213.99 59.2717 213.877 59.1768 213.765C59.1669 213.753 59.1572 213.741 59.1473 213.729C58.6329 213.126 58.0804 212.569 57.4876 212.045C57.4813 212.039 57.4751 212.034 57.4686 212.028C57.3905 211.959 57.3105 211.892 57.231 211.824C57.0664 211.684 56.9 211.546 56.7295 211.411C56.6716 211.364 56.6145 211.317 56.5582 211.269C55.7188 210.553 55.0362 209.61 54.2195 208.843C54.0299 208.67 53.837 208.5 53.6407 208.333C53.6292 208.324 53.6176 208.314 53.6059 208.304C53.0766 207.856 52.5261 207.428 51.9636 207.013C51.7555 206.978 51.5324 206.741 51.2729 206.555C51.2205 206.519 50.8402 206.294 50.6795 206.135C50.356 205.905 50.033 205.676 49.7085 205.448C49.7144 205.447 49.7203 205.446 49.7261 205.446C49.408 205.23 49.09 205.016 48.7739 204.803C48.7044 204.756 48.6345 204.709 48.5647 204.662C48.4524 204.588 48.3403 204.514 48.2283 204.44C47.181 203.748 46.1105 203.093 45.0238 202.461C44.6359 202.235 43.874 202.018 43.5818 201.691C43.5709 201.679 43.5634 201.666 43.5543 201.654C41.3084 200.501 38.937 199.592 36.4446 199.186C36.7834 199.308 37.656 199.865 37.8596 199.96C38.4829 200.249 39.1212 200.488 39.7639 200.732C40.915 201.17 42.062 201.642 43.1539 202.203C45.1507 203.229 47.0315 204.423 48.8748 205.679C48.8891 205.684 48.9039 205.689 48.9179 205.695C49.6941 206.034 50.4466 206.761 51.1324 207.252C49.453 207.325 47.7415 207.689 46.0623 207.85C44.3878 208.011 42.7189 208.09 41.0418 208.038C38.8128 207.968 36.4553 207.808 34.1852 207.422C31.7119 207.23 29.3154 206.449 27.0638 205.494C24.4 204.363 21.865 203.145 19.6987 201.225C18.6343 200.282 17.6421 199.237 16.7896 198.103C16.7524 198.054 16.7103 198.001 16.6659 197.947C16.2263 197.629 15.805 197.291 15.4099 196.926C14.7831 196.347 13.7641 195.879 14.7923 195.035Z" fill="#69A1AC"/>
<path d="M61 71.9631C61 69.7743 62.7763 68 64.9675 68H223.173C225.364 68 227.14 69.7743 227.14 71.9631V235.44C227.14 237.628 225.364 239.403 223.173 239.403H64.9675C62.7763 239.403 61 237.628 61 235.44V71.9631Z" fill="#F2F2F2"/>
<path d="M184.289 93.059C184.289 90.8446 186.058 89.0496 188.241 89.0496H214.918C217.101 89.0496 218.87 90.8446 218.87 93.059V125.636C218.87 127.85 217.101 129.645 214.918 129.645H188.241C186.058 129.645 184.289 127.85 184.289 125.636V93.059Z" fill="white"/>
<path fill-rule="evenodd" clip-rule="evenodd" d="M201.956 112.354C206.316 112.354 209.85 108.82 209.85 104.461C209.85 100.101 206.316 96.5671 201.956 96.5671C197.597 96.5671 194.062 100.101 194.062 104.461C194.062 108.82 197.597 112.354 201.956 112.354Z" fill="#DDE3E9"/>
<path d="M189.553 116.113C189.553 115.283 190.219 114.61 191.041 114.61H212.873C213.695 114.61 214.361 115.283 214.361 116.113C214.361 116.944 213.695 117.617 212.873 117.617H191.041C190.219 117.617 189.553 116.944 189.553 116.113Z" fill="#DDE3E9"/>
<path d="M193.311 120.999C193.311 120.377 193.964 119.872 194.77 119.872H208.39C209.196 119.872 209.849 120.377 209.849 120.999C209.849 121.622 209.196 122.127 208.39 122.127H194.77C193.964 122.127 193.311 121.622 193.311 120.999Z" fill="#DDE3E9"/>
<path d="M61 72.0094C61 69.7951 62.7763 68 64.9675 68H223.173C225.364 68 227.14 69.7951 227.14 72.0094V81.5318H61V72.0094Z" fill="#C5CFD6"/>
<path fill-rule="evenodd" clip-rule="evenodd" d="M67.3892 77.0213C68.4272 77.0213 69.2686 76.1798 69.2686 75.1419C69.2686 74.1039 68.4272 73.2625 67.3892 73.2625C66.3512 73.2625 65.5098 74.1039 65.5098 75.1419C65.5098 76.1798 66.3512 77.0213 67.3892 77.0213Z" fill="#F2F2F2"/>
<path fill-rule="evenodd" clip-rule="evenodd" d="M73.4048 77.0213C74.4428 77.0213 75.2842 76.1798 75.2842 75.1419C75.2842 74.1039 74.4428 73.2625 73.4048 73.2625C72.3668 73.2625 71.5254 74.1039 71.5254 75.1419C71.5254 76.1798 72.3668 77.0213 73.4048 77.0213Z" fill="#F2F2F2"/>
<path fill-rule="evenodd" clip-rule="evenodd" d="M79.4185 77.0213C80.4565 77.0213 81.2979 76.1798 81.2979 75.1419C81.2979 74.1039 80.4565 73.2625 79.4185 73.2625C78.3805 73.2625 77.5391 74.1039 77.5391 75.1419C77.5391 76.1798 78.3805 77.0213 79.4185 77.0213Z" fill="#F2F2F2"/>
<path d="M184.289 137.372C184.289 135.18 186.058 133.404 188.241 133.404H214.918C217.101 133.404 218.87 135.18 218.87 137.372V225.662C218.87 227.853 217.101 229.63 214.918 229.63H188.241C186.058 229.63 184.289 227.853 184.289 225.662V137.372Z" fill="white"/>
<path d="M193.311 144.391C193.311 143.305 194.182 142.425 195.256 142.425H207.904C208.978 142.425 209.849 143.305 209.849 144.391V153.239C209.849 154.325 208.978 155.205 207.904 155.205H195.256C194.182 155.205 193.311 154.325 193.311 153.239V144.391Z" fill="#DDE3E9"/>
<path d="M193.311 161.009C193.311 159.879 194.182 158.964 195.256 158.964H207.904C208.978 158.964 209.849 159.879 209.849 161.009V169.699C209.849 170.828 208.978 171.744 207.904 171.744H195.256C194.182 171.744 193.311 170.828 193.311 169.699V161.009Z" fill="#AFB9C5"/>
<path d="M193.311 177.427C193.311 176.364 194.182 175.502 195.256 175.502H207.904C208.978 175.502 209.849 176.364 209.849 177.427V185.606C209.849 186.669 208.978 187.531 207.904 187.531H195.256C194.182 187.531 193.311 186.669 193.311 185.606V177.427Z" fill="#DDE3E9"/>
<path d="M193.311 209.873C193.311 208.744 194.182 207.829 195.256 207.829H207.904C208.978 207.829 209.849 208.744 209.849 209.873V218.564C209.849 219.693 208.978 220.609 207.904 220.609H195.256C194.182 220.609 193.311 219.693 193.311 218.564V209.873Z" fill="#DDE3E9"/>
<path d="M193.311 193.966C193.311 192.903 194.182 192.042 195.256 192.042H207.904C208.978 192.042 209.849 192.903 209.849 193.966V202.145C209.849 203.208 208.978 204.07 207.904 204.07H195.256C194.182 204.07 193.311 203.208 193.311 202.145V193.966Z" fill="#C5CFD6"/>
<path d="M69.2695 91.7844C69.2695 90.689 70.1551 89.801 71.2475 89.801H178.553C179.645 89.801 180.531 90.689 180.531 91.7844V111.122C180.531 112.218 179.645 113.106 178.553 113.106H71.2475C70.1551 113.106 69.2695 112.218 69.2695 111.122V91.7844Z" fill="white"/>
<path d="M73.7793 98.1666C73.7793 97.2833 74.4444 96.5671 75.2648 96.5671H154.988C155.808 96.5671 156.474 97.2833 156.474 98.1666V98.7265C156.474 99.6098 155.808 100.326 154.988 100.326H75.2648C74.4444 100.326 73.7793 99.6098 73.7793 98.7265V98.1666Z" fill="#DDE3E9"/>
<path d="M73.7793 104.181C73.7793 103.297 74.4369 102.581 75.248 102.581H127.19C128.001 102.581 128.658 103.297 128.658 104.181V104.741C128.658 105.624 128.001 106.34 127.19 106.34H75.248C74.4369 106.34 73.7793 105.624 73.7793 104.741V104.181Z" fill="#DDE3E9"/>
<path fill-rule="evenodd" clip-rule="evenodd" d="M168.503 104.836C170.579 104.836 172.262 103.322 172.262 101.454C172.262 99.5852 170.579 98.0706 168.503 98.0706C166.427 98.0706 164.744 99.5852 164.744 101.454C164.744 103.322 166.427 104.836 168.503 104.836Z" fill="#DDE3E9"/>
<path fill-rule="evenodd" clip-rule="evenodd" d="M168.504 102.581C169.334 102.581 170.007 102.076 170.007 101.454C170.007 100.831 169.334 100.326 168.504 100.326C167.673 100.326 167 100.831 167 101.454C167 102.076 167.673 102.581 168.504 102.581Z" fill="#F2F2F2"/>
<path d="M69.2695 118.869C69.2695 117.762 70.1551 116.865 71.2475 116.865H178.553C179.645 116.865 180.531 117.762 180.531 118.869V134.406C180.531 135.513 179.645 136.411 178.553 136.411H71.2475C70.1551 136.411 69.2695 135.513 69.2695 134.406V118.869Z" fill="white"/>
<path d="M73.7793 124.382C73.7793 123.552 74.4278 122.879 75.2277 122.879H155.025C155.825 122.879 156.474 123.552 156.474 124.382C156.474 125.213 155.825 125.886 155.025 125.886H75.2277C74.4278 125.886 73.7793 125.213 73.7793 124.382Z" fill="#DDE3E9"/>
<path d="M73.7793 128.893C73.7793 128.063 74.4204 127.39 75.2113 127.39H127.226C128.017 127.39 128.658 128.063 128.658 128.893C128.658 129.724 128.017 130.397 127.226 130.397H75.2113C74.4204 130.397 73.7793 129.724 73.7793 128.893Z" fill="#DDE3E9"/>
<path fill-rule="evenodd" clip-rule="evenodd" d="M168.503 130.397C170.579 130.397 172.262 128.714 172.262 126.638C172.262 124.562 170.579 122.879 168.503 122.879C166.427 122.879 164.744 124.562 164.744 126.638C164.744 128.714 166.427 130.397 168.503 130.397Z" fill="#DDE3E9"/>
<path fill-rule="evenodd" clip-rule="evenodd" d="M168.504 128.141C169.334 128.141 170.007 127.468 170.007 126.638C170.007 125.807 169.334 125.134 168.504 125.134C167.673 125.134 167 125.807 167 126.638C167 127.468 167.673 128.141 168.504 128.141Z" fill="#F2F2F2"/>
<path d="M69.2695 142.174C69.2695 141.067 70.1551 140.169 71.2475 140.169H178.553C179.645 140.169 180.531 141.067 180.531 142.174V157.711C180.531 158.818 179.645 159.715 178.553 159.715H71.2475C70.1551 159.715 69.2695 158.818 69.2695 157.711V142.174Z" fill="white"/>
<path d="M73.7793 147.687C73.7793 146.857 74.4278 146.184 75.2277 146.184H155.025C155.825 146.184 156.474 146.857 156.474 147.687C156.474 148.518 155.825 149.191 155.025 149.191H75.2277C74.4278 149.191 73.7793 148.518 73.7793 147.687Z" fill="#DDE3E9"/>
<path d="M73.7793 152.198C73.7793 151.367 74.4204 150.694 75.2113 150.694H127.226C128.017 150.694 128.658 151.367 128.658 152.198C128.658 153.028 128.017 153.701 127.226 153.701H75.2113C74.4204 153.701 73.7793 153.028 73.7793 152.198Z" fill="#DDE3E9"/>
<path fill-rule="evenodd" clip-rule="evenodd" d="M168.503 153.701C170.579 153.701 172.262 152.018 172.262 149.942C172.262 147.866 170.579 146.184 168.503 146.184C166.427 146.184 164.744 147.866 164.744 149.942C164.744 152.018 166.427 153.701 168.503 153.701Z" fill="#DDE3E9"/>
<path fill-rule="evenodd" clip-rule="evenodd" d="M168.504 151.446C169.334 151.446 170.007 150.773 170.007 149.942C170.007 149.112 169.334 148.439 168.504 148.439C167.673 148.439 167 149.112 167 149.942C167 150.773 167.673 151.446 168.504 151.446Z" fill="#AFB9C5"/>
<path d="M69.2695 212.089C69.2695 210.982 70.1551 210.084 71.2475 210.084H178.553C179.645 210.084 180.531 210.982 180.531 212.089V227.625C180.531 228.732 179.645 229.63 178.553 229.63H71.2475C70.1551 229.63 69.2695 228.732 69.2695 227.625V212.089Z" fill="white"/>
<path d="M73.7793 217.602C73.7793 216.771 74.4278 216.098 75.2277 216.098H155.025C155.825 216.098 156.474 216.771 156.474 217.602C156.474 218.432 155.825 219.105 155.025 219.105H75.2277C74.4278 219.105 73.7793 218.432 73.7793 217.602Z" fill="#DDE3E9"/>
<path d="M73.7793 222.112C73.7793 221.282 74.4204 220.608 75.2113 220.608H127.226C128.017 220.608 128.658 221.282 128.658 222.112C128.658 222.942 128.017 223.615 127.226 223.615H75.2113C74.4204 223.615 73.7793 222.942 73.7793 222.112Z" fill="#DDE3E9"/>
<path fill-rule="evenodd" clip-rule="evenodd" d="M168.503 223.616C170.579 223.616 172.262 221.933 172.262 219.857C172.262 217.781 170.579 216.098 168.503 216.098C166.427 216.098 164.744 217.781 164.744 219.857C164.744 221.933 166.427 223.616 168.503 223.616Z" fill="#DDE3E9"/>
<path fill-rule="evenodd" clip-rule="evenodd" d="M168.504 221.36C169.334 221.36 170.007 220.687 170.007 219.857C170.007 219.026 169.334 218.353 168.504 218.353C167.673 218.353 167 219.026 167 219.857C167 220.687 167.673 221.36 168.504 221.36Z" fill="#F2F2F2"/>
<path d="M69.2695 188.784C69.2695 187.677 70.1551 186.779 71.2475 186.779H178.553C179.645 186.779 180.531 187.677 180.531 188.784V204.32C180.531 205.427 179.645 206.325 178.553 206.325H71.2475C70.1551 206.325 69.2695 205.427 69.2695 204.32V188.784Z" fill="white"/>
<path d="M73.7793 194.297C73.7793 193.466 74.4278 192.793 75.2277 192.793H155.025C155.825 192.793 156.474 193.466 156.474 194.297C156.474 195.127 155.825 195.8 155.025 195.8H75.2277C74.4278 195.8 73.7793 195.127 73.7793 194.297Z" fill="#DDE3E9"/>
<path d="M73.7793 198.807C73.7793 197.977 74.4204 197.304 75.2113 197.304H127.226C128.017 197.304 128.658 197.977 128.658 198.807C128.658 199.638 128.017 200.311 127.226 200.311H75.2113C74.4204 200.311 73.7793 199.638 73.7793 198.807Z" fill="#DDE3E9"/>
<path fill-rule="evenodd" clip-rule="evenodd" d="M168.503 200.311C170.579 200.311 172.262 198.628 172.262 196.552C172.262 194.476 170.579 192.793 168.503 192.793C166.427 192.793 164.744 194.476 164.744 196.552C164.744 198.628 166.427 200.311 168.503 200.311Z" fill="#DDE3E9"/>
<path fill-rule="evenodd" clip-rule="evenodd" d="M168.504 198.056C169.334 198.056 170.007 197.382 170.007 196.552C170.007 195.722 169.334 195.049 168.504 195.049C167.673 195.049 167 195.722 167 196.552C167 197.382 167.673 198.056 168.504 198.056Z" fill="#F2F2F2"/>
<path d="M69.2695 165.479C69.2695 164.372 70.1551 163.474 71.2475 163.474H178.553C179.645 163.474 180.531 164.372 180.531 165.479V181.016C180.531 182.123 179.645 183.02 178.553 183.02H71.2475C70.1551 183.02 69.2695 182.123 69.2695 181.016V165.479Z" fill="white"/>
<path d="M73.7793 170.992C73.7793 170.162 74.4278 169.489 75.2277 169.489H155.025C155.825 169.489 156.474 170.162 156.474 170.992C156.474 171.822 155.825 172.496 155.025 172.496H75.2277C74.4278 172.496 73.7793 171.822 73.7793 170.992Z" fill="#DDE3E9"/>
<path d="M73.7793 175.503C73.7793 174.672 74.4204 173.999 75.2113 173.999H127.226C128.017 173.999 128.658 174.672 128.658 175.503C128.658 176.333 128.017 177.006 127.226 177.006H75.2113C74.4204 177.006 73.7793 176.333 73.7793 175.503Z" fill="#DDE3E9"/>
<path fill-rule="evenodd" clip-rule="evenodd" d="M168.503 177.006C170.579 177.006 172.262 175.323 172.262 173.247C172.262 171.171 170.579 169.489 168.503 169.489C166.427 169.489 164.744 171.171 164.744 173.247C164.744 175.323 166.427 177.006 168.503 177.006Z" fill="#DDE3E9"/>
<path fill-rule="evenodd" clip-rule="evenodd" d="M168.504 174.751C169.334 174.751 170.007 174.078 170.007 173.247C170.007 172.417 169.334 171.744 168.504 171.744C167.673 171.744 167 172.417 167 173.247C167 174.078 167.673 174.751 168.504 174.751Z" fill="#F2F2F2"/>
</svg>
