<svg id="Layer_1" data-name="Layer 1" xmlns="http://www.w3.org/2000/svg" xmlns:xlink="http://www.w3.org/1999/xlink" viewBox="0 0 315.75 280.75"><defs><style>.cls-1{fill:#c9dc93;}.cls-2{fill:#ebf5cf;}.cls-3{fill:#fff;}.cls-3,.cls-8,.cls-9{stroke:#2e3374;stroke-miterlimit:10;stroke-width:1.5px;}.cls-4{fill:#68e1fd;}.cls-5{fill:#e4f1c0;}.cls-6{fill:#222a72;}.cls-7{fill:url(#linear-gradient);}.cls-8{fill:#15adc2;}.cls-9{fill:#2e3374;}</style><linearGradient id="linear-gradient" x1="5903.49" y1="-2584.1" x2="4313.33" y2="-3407.03" gradientTransform="matrix(1, 0, 0, -1, 262.04, -5632.46)" gradientUnits="userSpaceOnUse"><stop offset="0"/><stop offset="0.98" stop-opacity="0"/></linearGradient></defs><path class="cls-1" d="M31.1,238.45c-2.39.64-4.88,1.29-6.77,3.34-3.49,4-2.79,11.66.3,16.14s7.66,6.67,12.14,8.34c37,14.35,76.25,14.48,115,14.48,11.84,0,23.89-.13,34.94-5.51,7.66-3.72,14.43-10,22-14.1,28.27-15.51,61.42.64,91.28-8.46,3.48-1,7.37-3,8.66-7.31,2.49-8.84-7.47-14.22-14.83-14.61a684.6,684.6,0,0,0-95.86.64c-25.48,1.93-48.67-7.81-74.25-6.53A482,482,0,0,0,31.1,238.45Z"/><path class="cls-2" d="M90.05,56.78C70.21,68.85,45.24,71.63,27.57,86.57a69,69,0,0,0-15.32,19,93.77,93.77,0,0,0,46,133.33c11.83,4.78,24.45,7.21,37.07,8.86a352.32,352.32,0,0,0,70.31,2.09c14.8-1,30.46-3.39,41.86-12.86,7.57-6.34,12.53-15.28,16.36-24.41a143.21,143.21,0,0,0,9.22-78.43c-2.61-16.07-8.09-31.71-17.05-45.26-15.14-22.76-38.9-37.79-63.27-49.08-9.57-4.43-21.75-12.25-32.46-7.73C109.11,36.8,100.75,50.35,90.05,56.78Z"/><path class="cls-3" d="M194,235.75h-7.45A9.68,9.68,0,0,1,179.8,233a9.32,9.32,0,0,1-2.8-6.7v-216A9.53,9.53,0,0,1,186.55.75H194a10.5,10.5,0,0,0-3.68.7,12.44,12.44,0,0,0-3.16,2.08,10,10,0,0,0-2.1,3.13,10.38,10.38,0,0,0-.7,3.65V226.19a10.38,10.38,0,0,0,.7,3.65,10.56,10.56,0,0,0,2.1,3.13,9.93,9.93,0,0,0,3.16,2.08A10.5,10.5,0,0,0,194,235.75Z"/><path class="cls-4" d="M123.54,75.75s-20.5,27.19-18.39,39.4a140,140,0,0,0,7.12,24.6l13.73-60Z"/><path class="cls-3" d="M305.46.75H193.54A9.52,9.52,0,0,0,184,10.31V226.19a9.52,9.52,0,0,0,9.54,9.56H305.46a9.52,9.52,0,0,0,9.54-9.56v-216A9.5,9.5,0,0,0,305.46.75Z"/><path class="cls-5" d="M250.71,27.75H194.29a3.28,3.28,0,0,1-2.34-1,3.74,3.74,0,0,1,0-5,3.28,3.28,0,0,1,2.34-1h56.42a3.28,3.28,0,0,1,2.34,1,3.74,3.74,0,0,1,0,5A3.28,3.28,0,0,1,250.71,27.75Z"/><path class="cls-5" d="M250.71,61.75H194.29a3.28,3.28,0,0,1-2.34-1,3.74,3.74,0,0,1,0-5,3.28,3.28,0,0,1,2.34-1h56.42a3.28,3.28,0,0,1,2.34,1,3.74,3.74,0,0,1,0,5A3.28,3.28,0,0,1,250.71,61.75Z"/><path class="cls-5" d="M250.71,95.75H194.29a3.56,3.56,0,0,1-2.34-.87,2.86,2.86,0,0,1,0-4.26,3.56,3.56,0,0,1,2.34-.87h56.42a3.56,3.56,0,0,1,2.34.87,2.86,2.86,0,0,1,0,4.26A4,4,0,0,1,250.71,95.75Z"/><path class="cls-5" d="M250.71,129.75H194.29a3.56,3.56,0,0,1-2.34-.87,2.86,2.86,0,0,1,0-4.26,3.56,3.56,0,0,1,2.34-.87h56.42a3.56,3.56,0,0,1,2.34.87,2.86,2.86,0,0,1,0,4.26A3.56,3.56,0,0,1,250.71,129.75Z"/><path class="cls-5" d="M250.62,163.75H194.29a3.53,3.53,0,0,1-2.34-.86,2.86,2.86,0,0,1-.95-2.1,2.91,2.91,0,0,1,.26-1.17,4.2,4.2,0,0,1,.69-1,3.07,3.07,0,0,1,1.13-.63,3.9,3.9,0,0,1,1.29-.23h56.34a3.53,3.53,0,0,1,2.34.86,2.86,2.86,0,0,1,.95,2.1,2.9,2.9,0,0,1-.95,2.11A3.63,3.63,0,0,1,250.62,163.75Z"/><path class="cls-5" d="M250.79,198.75H194.38a3.21,3.21,0,0,1-1.3-.28,5.09,5.09,0,0,1-1.13-.73,3.69,3.69,0,0,1-.95-2.49,3.73,3.73,0,0,1,.95-2.49,3.28,3.28,0,0,1,2.34-1h56.42a3.28,3.28,0,0,1,2.34,1,3.74,3.74,0,0,1,0,5A3.09,3.09,0,0,1,250.79,198.75Z"/><path class="cls-6" d="M205,78.87s-2.39-7.14-2-7.92,2.73-2.61,3.84-1.57S210.21,77,210.21,77l23.46-8.19s2.64-.43,2.3,2.53-25.5,13.15-25.5,13.15S208.42,86.71,205,78.87Z"/><path class="cls-4" d="M126.83,73.92s-.94-4.33,2.16-5.8,12-2.16,13.19,0,2.59,7.18,3.89,7.27,6.72,8.73,6.72,8.73,1.12,24,1.21,33.38c.09,14.88-8.8,38-21,36.15s-21.13-5.28-21-11.67,10.52-54.31,9.83-59.67A8.2,8.2,0,0,1,126.83,73.92Z"/><path class="cls-4" d="M137.6,81.25s4.8-9.37,11.54-3.65,15.13,26.73,20.9,26.82,29.55-18.92,31.65-17.18,5.68,6,3.76,9.72-28.5,26.82-40,24.65S129.55,103.82,137.6,81.25Z"/><path class="cls-5" d="M289.42,11.75H270.57A2.59,2.59,0,0,0,268,14.44V31.06a2.59,2.59,0,0,0,2.57,2.69h18.85A2.59,2.59,0,0,0,292,31.06V14.44A2.55,2.55,0,0,0,289.42,11.75Z"/><path class="cls-5" d="M289.42,49.75H270.57A2.52,2.52,0,0,0,268,52.32V68.18a2.52,2.52,0,0,0,2.57,2.57h18.85A2.53,2.53,0,0,0,292,68.18V52.32A2.53,2.53,0,0,0,289.42,49.75Z"/><path class="cls-5" d="M289.42,82.75H270.57A2.52,2.52,0,0,0,268,85.32v15.86a2.52,2.52,0,0,0,2.57,2.57h18.85a2.53,2.53,0,0,0,2.58-2.57V85.32A2.48,2.48,0,0,0,289.42,82.75Z"/><path class="cls-5" d="M289.42,149.75H270.57a2.52,2.52,0,0,0-2.57,2.57v15.86a2.52,2.52,0,0,0,2.57,2.57h18.85a2.53,2.53,0,0,0,2.58-2.57V152.32A2.53,2.53,0,0,0,289.42,149.75Z"/><path class="cls-5" d="M289.42,115.75H270.57a2.59,2.59,0,0,0-2.57,2.69v16.62a2.59,2.59,0,0,0,2.57,2.69h18.85a2.59,2.59,0,0,0,2.58-2.69V118.44A2.55,2.55,0,0,0,289.42,115.75Z"/><path class="cls-5" d="M289.42,183.75H270.57a2.58,2.58,0,0,0-2.57,2.68v16.64a2.58,2.58,0,0,0,2.57,2.68h18.85a2.58,2.58,0,0,0,2.58-2.68V186.52A2.61,2.61,0,0,0,289.42,183.75Z"/><path class="cls-6" d="M270.36,19.94l4.24,7.64c1.35,2.34,3.64,2.88,5.33,1.17L294.42,14s1.36-2.07-.08-3.59-2.63.27-2.63.27l-12.79,13c-.85.81-1.95.54-2.54-.63L273,17c-.68-1.17-1.87-1.26-2.54-.27a3.46,3.46,0,0,0-.43,1.62A2.89,2.89,0,0,0,270.36,19.94Z"/><path class="cls-6" d="M270.36,56.43l4.24,7.26c1.35,2.22,3.64,2.73,5.33,1.11l14.49-14s1.36-2-.08-3.42a1.6,1.6,0,0,0-2.63.26L278.92,60a1.56,1.56,0,0,1-2.54-.6L273,53.61a1.45,1.45,0,0,0-2.54-.26,3.18,3.18,0,0,0-.43,1.54A2.37,2.37,0,0,0,270.36,56.43Z"/><path class="cls-6" d="M270.36,125.43l4.24,7.26c1.35,2.22,3.64,2.73,5.33,1.11l14.49-14s1.36-2-.08-3.42a1.59,1.59,0,0,0-2.63.26L278.92,129a1.55,1.55,0,0,1-2.54-.6L273,122.61a1.45,1.45,0,0,0-2.54-.26,3.18,3.18,0,0,0-.43,1.54A2.63,2.63,0,0,0,270.36,125.43Z"/><path class="cls-6" d="M270.36,158.94l4.24,7.64c1.35,2.34,3.64,2.88,5.33,1.17L294.42,153s1.36-2.07-.08-3.59-2.63.27-2.63.27l-12.79,13c-.85.81-1.95.54-2.54-.62L273,156c-.68-1.17-1.87-1.26-2.54-.27a3.46,3.46,0,0,0-.43,1.62A2.6,2.6,0,0,0,270.36,158.94Z"/><path class="cls-6" d="M270.36,191.94l4.24,7.64c1.35,2.34,3.64,2.88,5.33,1.17L294.42,186s1.36-2.07-.08-3.59-2.63.27-2.63.27l-12.79,13c-.85.81-1.95.54-2.54-.62L273,189c-.68-1.17-1.87-1.26-2.54-.27a3.46,3.46,0,0,0-.43,1.62A2.74,2.74,0,0,0,270.36,191.94Z"/><path class="cls-7" d="M146,74.75c-11.73-3.48-19.86-1.29-19.86-1.29s-1-4,2.26-5.42,12.55-2,13.81,0C143.38,69.9,144.65,74.1,146,74.75Z"/><path class="cls-8" d="M123.54,75.75s-20.5,27.19-18.39,39.4a140,140,0,0,0,7.12,24.6l13.73-60Z"/><path class="cls-3" d="M111.28,147.46c4.36-8.78,19.61-.43,22.32,8.95s-8.79,52.75-17.87,62.92-25.85,19.29-36.59,22.42c0,0-3.75-5.3-3-7.39s23-19,25-29.28S106.91,156.24,111.28,147.46Z"/><path class="cls-3" d="M145,38.56s8.13,3.38,5.51,18.93c-2.33,13.76-6.16,3.13-8.35,10.08-.88,2.43.27,4.08,0,6.6,0,0-4,3.21-11.18-5.47a18.5,18.5,0,0,0-1.16-10.51C127.66,52.89,128.91,33.6,145,38.56Z"/><path class="cls-3" d="M199,90.3s4.87-8.76,5.22-10.38,1.57.77,1.57.77S209,78.25,210,77.25c.42-.34,2.14-2.69,4.84-2.35.52,0,.87.68,1,1.45a3,3,0,0,1-.18,2.12,14.33,14.33,0,0,0-.87,2.56c-1.13,5.27-2.26,9.78-7.22,12s-5.31,2.72-5.31,2.72S201.26,91.15,199,90.3Z"/><path class="cls-3" d="M112.07,145.79s-1.56,6.83,10.39,21.18c9.08,12.11,12.58,34.56,12.58,59,0,11.5,3.55,33.81,3.55,33.81h7.1s11-41.33,9.09-58.8-10.13-52.74-10.13-52.74S129.29,137.75,112.07,145.79Z"/><path class="cls-3" d="M139,259.75v10l12.5-.5s-4.87-1.89-5.21-4.45-.42-5-.42-5H139Z"/><path class="cls-3" d="M140.13,266.46c-.88-.18-2-.45-2.56.36a3.16,3.16,0,0,0-.36,1,10.59,10.59,0,0,0-.17,2.86,2.08,2.08,0,0,0,.79,1.88,1.81,1.81,0,0,0,1.15.17l20.63-.35a2.29,2.29,0,0,0,2.12-.81,2.42,2.42,0,0,0,.27-1.16,4.53,4.53,0,0,0-.44-1.52,3.4,3.4,0,0,0-1.07-1.16,8.38,8.38,0,0,0-2.83-1.34c-2.48-.8-6.64-2.32-9.21-1.25C145.71,266.28,143.23,267.09,140.13,266.46Z"/><path class="cls-3" d="M75.81,235.75,68,240l9.4,17.74s-3.86-11.74-2-13.3S79,241.66,79,241.66Z"/><path class="cls-3" d="M71.09,239.93c-.26-.87-.61-2-1.57-2.18a1.81,1.81,0,0,0-1,.18,8.86,8.86,0,0,0-2.44,1.22A2.24,2.24,0,0,0,65,240.8a1.8,1.8,0,0,0,.44,1.14c3.48,6.11,7,12.13,10.44,18.24.43.7.87,1.48,1.65,1.57a1.7,1.7,0,0,0,1-.35,2.63,2.63,0,0,0,1-1.22A3,3,0,0,0,80,258.7a9.68,9.68,0,0,0-.26-3.15c-.61-2.7-1.4-7.15-3.48-8.81C74,244.82,72.05,243,71.09,239.93Z"/><path class="cls-8" d="M154,117.5c.09,14.88-8.8,38-21,36.15s-21.13-5.28-21-11.67,10.52-54.31,9.83-59.67c-.77-5.8,4.11-8.82,4.11-8.82s-.14-3.9,3-5.37,12-2.16,13.2,0,2.41,6.49,3.62,7.18a.31.31,0,0,0,.26.09c1.29.08,6.73,8.73,6.73,8.73S153.91,108.16,154,117.5Z"/><path class="cls-8" d="M137.6,81.25s4.8-9.37,11.54-3.65,15.13,26.73,20.9,26.82,29.55-18.92,31.65-17.18,5.68,6,3.76,9.72-28.5,26.82-40,24.65S129.55,103.82,137.6,81.25Z"/><path class="cls-9" d="M130.66,34.3c-12.09,8.29-12.34,1.65-20.32,2.3-6,.48-9.57,5-9.3,15.56S93.38,56.23,87.18,65C76.08,80.65,91.06,85.44,103,86.81S117.23,66.53,126.13,67s10.5,2.07,15.78-8.49c3.11-6.23,2.1-9.33,5.25-11.13,4-2.25,6.3-8.26,2.93-11.41C146.28,32.49,138.31,29,130.66,34.3Z"/></svg>