<svg width="529" height="255" viewBox="0 0 529 255" fill="none" xmlns="http://www.w3.org/2000/svg">
<path opacity="0.56" d="M277.323 254.457C416.32 254.457 529 250.549 529 245.729C529 240.908 416.32 237 277.323 237C138.325 237 25.6455 240.908 25.6455 245.729C25.6455 250.549 138.325 254.457 277.323 254.457Z" fill="#AFDADD"/>
<path d="M442.569 2.99932e-05H456.432C457.882 -0.00335541 459.319 0.279881 460.66 0.833455C462.001 1.38703 463.219 2.20003 464.245 3.22579C465.271 4.25155 466.084 5.46986 466.638 6.81072C467.191 8.15159 467.474 9.5886 467.471 11.0392V15.8315C467.474 17.2821 467.191 18.7191 466.638 20.06C466.084 21.4009 465.271 22.6192 464.245 23.6449C463.219 24.6707 462.001 25.4837 460.66 26.0373C459.319 26.5909 457.882 26.8741 456.432 26.8707C456.432 26.8707 451.725 30.2081 450.784 35.7705C450.784 29.1812 442.569 26.8707 442.569 26.8707C441.118 26.8741 439.681 26.5909 438.34 26.0373C436.999 25.4837 435.781 24.6707 434.755 23.6449C433.729 22.6192 432.916 21.4009 432.363 20.06C431.809 18.7191 431.526 17.2821 431.529 15.8315V11.0392C431.552 8.11838 432.722 5.32352 434.787 3.2581C436.853 1.19268 439.648 0.0224131 442.569 2.99932e-05Z" fill="#EEF8F9"/>
<path d="M404.146 45.954H418.009C418.439 45.9711 418.869 45.9424 419.293 45.8684C420.063 47.6655 421.945 51.1741 426.395 51.9443C423.828 50.1472 423.571 46.6386 423.742 44.4136C425.367 43.439 426.71 42.0589 427.64 40.4087C428.57 38.7584 429.056 36.8947 429.048 35.0004V30.2082C429.052 28.7575 428.768 27.3205 428.215 25.9796C427.661 24.6387 426.848 23.4204 425.822 22.3947C424.797 21.3689 423.578 20.5559 422.237 20.0023C420.897 19.4488 419.46 19.1655 418.009 19.1689H404.146C402.695 19.1655 401.258 19.4488 399.917 20.0023C398.576 20.5559 397.358 21.3689 396.332 22.3947C395.306 23.4204 394.493 24.6387 393.94 25.9796C393.386 27.3205 393.103 28.7575 393.106 30.2082V35.0004C393.151 37.9063 394.331 40.6794 396.394 42.7265C398.457 44.7736 401.239 45.932 404.146 45.954Z" fill="#EEF8F9"/>
<path d="M130.646 151.297C138.177 152.324 145.108 156.175 151.954 159.598C162.646 164.882 173.786 169.206 185.243 172.52C194.143 175.002 203.214 176.97 212.371 175.686C233.593 173.033 249.425 154.464 259.095 135.466C268.936 116.383 275.183 95.2454 288.533 78.5582C301.882 61.8711 325.844 50.4895 345.012 60.074C359.047 67.1767 365.978 82.5803 373.081 96.7002C380.184 110.649 390.196 125.539 405.685 128.106C417.152 130.075 428.448 124.512 439.488 120.405C450.527 116.297 463.705 113.901 473.033 121.004C482.618 128.449 483.473 142.226 486.811 153.95C490.099 165.567 496.489 176.069 505.295 184.329C511.97 190.576 520.271 195.968 523.523 204.44C528.4 217.019 519.586 231.738 507.606 238.156C495.625 244.403 481.334 244.489 467.728 244.232C407.226 243.12 346.638 239.44 286.137 241.151C235.647 242.606 185.329 247.912 134.925 245.345C115.499 244.318 95.2179 241.836 79.5576 230.369C64.6675 219.586 52.3447 192.972 65.78 176.628C78.0173 161.909 112.675 148.987 130.646 151.297Z" fill="#D9EDEF"/>
<path d="M88.0293 130.759C69.4594 110.991 47.98 94.3896 26.415 77.8736C33.0043 107.312 39.7648 136.921 52.6867 164.219C61.2442 182.276 95.2176 241.922 121.66 223.181C150.927 202.3 102.919 146.676 88.0293 130.759Z" fill="#AFDADD"/>
<path d="M39.166 98.6685L82.5527 158.999C89.741 169.011 97.1005 179.109 104.203 189.207C111.306 199.305 118.409 209.489 125.255 219.758L125.169 219.843C117.724 210.002 110.45 199.904 103.176 189.892C95.9025 179.879 88.7997 169.61 81.7825 159.513L39.166 98.6685Z" fill="#AFDADD"/>
<path d="M72.3702 115.356L72.1991 122.202L71.9423 129.048C71.8567 131.358 71.8568 133.669 71.6 135.894C71.3433 138.119 71.0866 140.515 70.6587 142.74H70.5731C70.4168 140.461 70.3882 138.176 70.4876 135.894C70.5731 133.583 70.8298 131.273 71.0866 129.048L71.6856 122.202L72.3702 115.356Z" fill="#AFDADD"/>
<path d="M36.4287 118.693L42.5901 121.004L48.7516 123.4C50.8054 124.17 52.8592 124.94 54.8274 125.881C56.7956 126.823 58.7639 127.85 60.7321 128.962L60.6466 129.048C58.5239 128.492 56.4376 127.806 54.3995 126.994C52.3457 126.224 50.2919 125.197 48.4093 124.341L42.419 121.603L36.4287 118.779V118.693Z" fill="#AFDADD"/>
<path d="M44.6428 144.879L53.2004 147.019L61.7579 149.243C64.5819 149.928 67.4915 150.613 70.3155 151.468C71.6847 151.896 73.1394 152.324 74.5086 152.752C75.9098 153.176 77.2819 153.69 78.6163 154.292V154.378C77.0759 154.207 75.7067 153.865 74.2519 153.608C72.7971 153.351 71.3424 153.009 69.8876 152.666C67.0636 151.982 64.2396 150.955 61.4156 150.185L52.9437 147.618L44.4717 145.05V144.965H44.6428V144.879Z" fill="#AFDADD"/>
<path d="M95.7322 139.402L94.3629 146.847L92.8226 154.292C92.3091 156.774 91.9668 159.17 91.2822 161.737C90.722 164.186 89.9782 166.589 89.0573 168.926H88.9717C89.2041 166.425 89.5755 163.94 90.0842 161.481C90.5518 159.025 91.1517 156.597 91.8813 154.207L93.6783 146.933L95.6466 139.659L95.7322 139.402Z" fill="#AFDADD"/>
<path d="M1 128.962C5.44992 161.566 18.9708 193.743 43.1031 216.163C60.9028 232.594 115.842 263.059 127.395 224.892C137.749 190.833 83.3235 163.278 59.3624 150.784C54.0567 148.045 1.17115 130.246 1 128.962Z" fill="#2E3374" stroke="#2E3374" stroke-width="0.89" stroke-miterlimit="10"/>
<path d="M14.1787 146.505C22.5651 154.549 31.3794 162.422 40.0225 170.038C48.8367 177.826 57.7366 185.271 66.722 192.63C75.8785 199.904 85.1207 207.007 94.7907 213.511C99.6685 216.762 104.461 219.929 109.595 222.753C112.126 224.195 114.757 225.454 117.468 226.518C118.828 227.105 120.23 227.591 121.661 227.973C123.055 228.387 124.49 228.645 125.94 228.743V228.829C124.474 228.719 123.017 228.519 121.576 228.229C120.149 227.904 118.747 227.475 117.383 226.946C114.644 225.919 111.991 224.721 109.339 223.437C104.153 220.728 99.1245 217.728 94.2773 214.452C84.6072 208.034 75.3651 200.674 66.2941 193.315C57.2231 185.955 48.4944 178.339 39.7657 170.466C31.0371 162.593 22.4795 154.806 14.1787 146.505Z" fill="#2E3374"/>
<path d="M29.7532 143.339L30.6089 148.388L31.4647 153.437C31.7214 155.148 32.0637 156.774 32.2349 158.486C32.4349 160.19 32.4636 161.91 32.3205 163.62H32.2349C31.7214 161.909 31.3791 160.368 31.0368 158.657C30.7811 156.983 30.6098 155.298 30.5234 153.608L30.0099 148.559L29.582 143.51L29.7532 143.339Z" fill="#2E3374"/>
<path d="M17.6875 175.344L24.6191 175.087L31.5507 174.916C33.7757 174.83 36.1718 174.745 38.4823 174.83C40.8004 174.877 43.1143 175.048 45.4139 175.344V175.43C43.1149 175.731 40.8007 175.903 38.4823 175.943C36.2573 176.029 33.8613 175.857 31.5507 175.857L24.6191 175.686L17.6875 175.344Z" fill="#2E3374"/>
<path d="M54.9121 151.383L55.4256 159.598L55.939 167.813C56.1102 170.552 56.3669 173.29 56.3669 176.029V180.136C56.3669 181.42 56.2813 182.875 56.1957 184.244H56.1102C55.8534 182.96 55.7679 181.505 55.5967 180.136C55.4256 178.767 55.34 177.398 55.2544 176.029C55.0833 173.29 55.0833 170.466 55.0833 167.813L54.9121 159.598V151.383Z" fill="#2E3374"/>
<path d="M29.668 196.909L38.4822 195.369L47.2965 193.828C50.2916 193.315 53.1156 192.801 56.1108 192.373C57.5655 192.202 59.1059 192.031 60.4751 191.86C62.0155 191.689 63.4702 191.603 64.925 191.518V191.603C63.4702 192.031 62.0155 192.288 60.6463 192.63C59.2058 192.962 57.7491 193.22 56.2819 193.4C53.2868 193.914 50.3772 194.171 47.4676 194.598L38.6534 195.625L29.7535 196.652L29.668 196.909Z" fill="#2E3374"/>
<path d="M81.5263 164.561L81.783 174.659L81.9542 184.757C82.0398 188.095 82.1254 191.432 82.0398 194.855C82.0398 196.567 81.9542 198.193 81.8686 199.904C81.783 201.616 81.6975 203.242 81.5263 204.953H81.4407C81.2696 203.242 81.184 201.616 81.0984 199.904C81.0129 198.193 80.9273 196.567 80.9273 194.855C80.8417 191.518 81.0129 188.18 81.0129 184.757L81.184 174.659L81.5263 164.561Z" fill="#2E3374"/>
<path d="M96.1594 173.632L96.5017 184.158L96.844 194.684C96.9296 198.193 97.1007 201.616 97.1007 205.21C97.1007 206.921 97.1007 208.718 97.0151 210.43C96.9296 212.141 96.844 213.938 96.7584 215.65H96.6728C96.5017 213.938 96.3305 212.141 96.2449 210.43C96.1594 208.718 96.0738 206.921 95.9882 205.21C95.9027 201.701 95.9882 198.278 95.9882 194.684L96.0738 184.158L96.1594 173.632Z" fill="#2E3374"/>
<path d="M53.7994 222.325L62.6993 219.159L71.5991 216.163C74.5943 215.137 77.5038 214.024 80.4989 213.168C82.0393 212.74 83.4941 212.227 85.12 211.885C86.6389 211.452 88.1819 211.109 89.7411 210.858V210.943C88.2863 211.628 86.746 212.141 85.3768 212.655C84.0075 213.168 82.3816 213.682 80.9268 214.281C77.9317 215.308 74.9365 216.163 71.8558 217.019L62.7849 219.672L53.7139 222.325H53.7994Z" fill="#2E3374"/>
<path d="M71.8564 234.134L80.7563 230.968L89.6561 227.802C92.6513 226.775 95.5608 225.577 98.556 224.635C100.096 224.208 101.551 223.694 103.006 223.352C104.461 223.009 106.001 222.582 107.627 222.154V222.239C106.172 222.924 104.717 223.523 103.348 224.122C101.979 224.721 100.353 225.149 98.9838 225.833C95.9887 226.86 93.0792 227.802 90.084 228.743L81.1842 231.481L72.2843 234.22L71.8564 234.134Z" fill="#2E3374"/>
<path d="M165.048 27.3841C160.598 39.1079 88.8862 202.3 161.625 172.092C184.474 162.593 180.452 129.561 178.997 109.451C177.97 94.9886 176.515 80.0129 173.691 65.8074C171.98 56.7364 170.439 41.4185 165.048 27.3841Z" fill="#2E3374" stroke="#2E3374" stroke-width="0.89" stroke-miterlimit="10"/>
<path d="M165.305 41.6753C164.364 52.9712 163.166 64.2672 161.882 75.4776C160.599 86.6879 159.144 97.8983 157.518 109.194C155.892 120.49 154.095 131.615 151.699 142.74C150.415 148.302 149.132 153.865 147.591 159.256C146.821 161.994 145.88 164.733 145.024 167.385C144.585 168.726 144.071 170.04 143.484 171.322C142.97 172.606 142.371 173.975 141.772 175.173L141.687 175.087C142.2 173.804 142.713 172.434 143.227 171.151C143.74 169.867 144.168 168.498 144.511 167.043C145.366 164.305 146.051 161.566 146.821 158.828C148.19 153.351 149.474 147.789 150.501 142.312C152.726 131.187 154.694 120.148 156.577 108.938C158.459 97.7272 159.914 86.6023 161.369 75.3064C162.738 64.1816 164.107 53.0568 165.305 41.6753Z" fill="#2E3374" stroke="#2E3374" stroke-width="0.89" stroke-miterlimit="10"/>
<path d="M176.173 80.0986L171.723 86.859L167.273 93.6195C165.732 95.93 164.363 98.2406 162.652 100.38C161.882 101.407 160.94 102.605 160.17 103.632C159.4 104.659 158.459 105.771 157.517 106.798L157.432 106.713C158.014 105.486 158.701 104.312 159.485 103.204C160.166 102.025 160.909 100.882 161.71 99.7809C163.251 97.4704 164.877 95.4166 166.503 93.1916L171.38 86.6023L176.173 80.0986Z" fill="#2E3374" stroke="#2E3374" stroke-width="0.89" stroke-miterlimit="10"/>
<path d="M157.944 185.955C156.404 173.033 154.864 159.855 157.003 147.019C159.228 133.412 165.389 120.918 171.551 108.681C179.509 92.7638 187.81 76.8468 196.025 60.9297C201.93 85.3187 207.92 110.478 204.497 135.38C202.221 150.622 196.926 165.256 188.923 178.425C184.045 186.726 171.38 209.574 161.196 209.232C159.142 201.872 158.8 193.828 157.944 185.955Z" fill="#9BD1D3"/>
<path d="M192.261 80.0986C190.977 91.2234 189.522 102.177 187.896 113.216C186.099 124.255 184.217 135.124 181.906 146.077C180.794 151.554 179.51 157.031 178.312 162.336C177.028 167.813 175.488 173.119 173.948 178.51C172.236 183.816 170.525 189.036 168.385 194.256C167.358 196.823 166.246 199.476 165.048 201.958L163.251 205.723L161.197 209.403L161.111 209.317L162.908 205.552L164.62 201.787C165.647 199.219 166.759 196.652 167.615 194.085C169.412 188.865 171.209 183.559 172.75 178.254C173.52 175.601 174.29 172.862 175.06 170.295C175.83 167.728 176.429 164.904 177.2 162.336C178.569 156.945 179.852 151.554 181.05 146.163C183.447 135.38 185.5 124.427 187.383 113.387C189.18 102.006 190.806 91.1378 192.261 80.0986Z" fill="#9BD1D3"/>
<path d="M178.055 96.0156L180.708 100.123L183.275 104.231C184.2 105.556 185.057 106.927 185.843 108.338C186.527 109.708 187.212 111.248 187.811 112.703L187.725 112.788C186.698 111.505 185.672 110.221 184.816 108.938C183.96 107.654 183.275 106.114 182.505 104.744L180.195 100.551L177.97 96.3579L178.055 96.0156Z" fill="#9BD1D3"/>
<path d="M204.755 106.798L200.134 111.59L195.513 116.383C193.973 117.923 192.432 119.549 190.721 121.004C189.057 122.494 187.315 123.894 185.501 125.197L185.415 125.111C186.784 123.314 188.325 121.688 189.779 120.062C191.234 118.436 193.031 117.067 194.657 115.612L199.535 111.162L204.755 106.798Z" fill="#9BD1D3"/>
<path d="M169.669 112.532L173.006 119.977L176.258 127.422C177.285 129.903 178.569 132.3 179.51 134.867C179.938 136.15 180.451 137.434 180.879 138.718C181.307 140.001 181.735 141.285 182.163 142.654L182.077 142.74C181.393 141.456 180.794 140.344 180.109 139.146C179.424 137.948 178.997 136.664 178.312 135.466C177.199 132.984 176.258 130.331 175.317 127.85L172.322 120.148L169.412 112.446L169.669 112.532Z" fill="#9BD1D3"/>
<path d="M160.17 134.353L164.534 142.226L168.899 150.099C170.268 152.752 171.808 155.319 173.092 157.972C173.691 159.256 174.375 160.625 175.06 162.08C175.659 163.363 176.344 164.818 176.857 166.187L176.772 166.273C175.916 164.989 175.231 163.706 174.375 162.508C173.552 161.273 172.809 159.987 172.15 158.657L168.043 150.698L164.106 142.74L160.255 134.781L160.17 134.353Z" fill="#9BD1D3"/>
<path d="M204.497 135.551L198.421 140.429L192.345 145.307C190.292 146.847 188.238 148.559 186.184 150.099C184.13 151.64 181.82 153.009 179.68 154.292L179.595 154.207C181.464 152.384 183.435 150.67 185.499 149.072C187.553 147.361 189.693 145.992 191.746 144.451L198.079 140.001L204.497 135.551Z" fill="#9BD1D3"/>
<path d="M132.015 70.1718L136.208 77.0179L140.402 83.8639C141.856 86.1744 143.311 88.3994 144.509 90.7955C145.707 93.1916 146.991 95.5877 148.018 98.0694L147.932 98.155C146.306 96.0156 144.766 93.705 143.311 91.4801C141.856 89.2551 140.744 86.7734 139.375 84.3773L135.524 77.2746L131.673 70.0862L132.015 70.1718Z" fill="white" stroke="#393939" stroke-width="1.34" stroke-miterlimit="10"/>
<path d="M122.089 99.5242L127.309 106.113L132.529 112.703C134.361 114.803 136.075 117.003 137.664 119.292C139.304 121.575 140.818 123.946 142.199 126.395L142.113 126.48C140.147 124.501 138.29 122.416 136.551 120.233C134.754 118.094 133.299 115.698 131.673 113.473L126.881 106.712L122.089 99.8665V99.5242Z" fill="white" stroke="#393939" stroke-width="1.34" stroke-miterlimit="10"/>
<path d="M148.36 139.402L152.554 148.73L156.747 158.058C158.202 161.138 159.656 164.219 160.854 167.385C161.453 169.011 162.052 170.552 162.651 172.178C163.25 173.804 163.764 175.344 164.277 177.055L164.192 177.141C163.336 175.601 162.566 174.146 161.796 172.606C161.026 171.065 160.341 169.525 159.656 167.984C158.202 164.904 157.089 161.737 155.72 158.486L151.869 148.901L148.36 139.402Z" fill="white" stroke="#393939" stroke-width="1.34" stroke-miterlimit="10"/>
<path d="M141.685 36.883L131.93 41.0762L106.086 40.9906L115.842 36.7974L141.685 36.883Z" fill="white" stroke="#2E3374" stroke-width="1.34" stroke-miterlimit="10"/>
<path d="M116.954 41.6752L107.198 45.8684L106.086 41.0762L115.842 36.883L116.954 41.6752Z" fill="white" stroke="#2E3374" stroke-width="1.34" stroke-miterlimit="10"/>
<path d="M116.013 44.5848L106.258 48.778C106.331 48.7659 106.401 48.7363 106.46 48.6916C106.52 48.6469 106.568 48.5885 106.6 48.5213L116.356 44.3281C116.27 44.4136 116.099 44.4136 116.013 44.5848Z" fill="white" stroke="#2E3374" stroke-width="1.34" stroke-miterlimit="10"/>
<path d="M116.356 44.3281L106.601 48.5213C106.704 48.4821 106.793 48.4115 106.854 48.3194C106.915 48.2274 106.946 48.1184 106.943 48.0078L116.698 43.8146C116.613 43.9858 116.527 44.2425 116.356 44.3281Z" fill="white" stroke="#2E3374" stroke-width="1.34" stroke-miterlimit="10"/>
<path d="M116.698 43.8147L106.942 48.0079C107.071 47.7287 107.186 47.4431 107.285 47.1521L117.04 42.9589C116.955 43.3012 116.955 43.6435 116.698 43.8147Z" fill="white" stroke="#2E3374" stroke-width="1.34" stroke-miterlimit="10"/>
<path d="M117.039 43.0444L107.284 47.2376C107.295 46.808 107.267 46.3783 107.198 45.954L116.954 41.7608C117.028 42.1844 117.057 42.6147 117.039 43.0444Z" fill="white" stroke="#2E3374" stroke-width="1.34" stroke-miterlimit="10"/>
<path d="M116.013 44.5848L106.258 48.778C106.094 48.8415 105.919 48.8707 105.744 48.8636L115.5 44.6704C115.661 44.6007 115.838 44.5713 116.013 44.5848Z" fill="white" stroke="#2E3374" stroke-width="1.34" stroke-miterlimit="10"/>
<path d="M113.361 42.531L103.605 46.7242C103.691 46.7242 103.691 46.6386 103.862 46.6386L113.618 42.4454C113.447 42.4454 113.447 42.4454 113.361 42.531Z" fill="white" stroke="#2E3374" stroke-width="1.34" stroke-miterlimit="10"/>
<path d="M113.531 42.4454L103.775 46.6386L104.118 46.2963L113.873 42.1031C113.702 42.2743 113.617 42.4454 113.531 42.4454Z" fill="white" stroke="#2E3374" stroke-width="1.34" stroke-miterlimit="10"/>
<path d="M113.874 42.1031L104.118 46.2963C104.15 46.1033 104.24 45.9244 104.375 45.7828L114.13 41.5897C114.055 41.6537 113.994 41.7321 113.95 41.8203C113.906 41.9085 113.88 42.0047 113.874 42.1031Z" fill="white" stroke="#2E3374" stroke-width="1.34" stroke-miterlimit="10"/>
<path d="M113.96 41.5897L104.204 45.7829C104.218 45.495 104.19 45.2066 104.119 44.9271C104.119 44.8416 104.033 44.6704 104.033 44.5849L113.789 40.3917C113.789 40.4772 113.874 40.6484 113.874 40.734C113.992 41.0032 114.022 41.3025 113.96 41.5897Z" fill="white" stroke="#2E3374" stroke-width="1.34" stroke-miterlimit="10"/>
<path d="M113.873 40.306L104.118 44.5848C104.042 44.3653 103.926 44.162 103.775 43.9857L113.531 39.7925C113.635 39.9703 113.749 40.1417 113.873 40.306Z" fill="white" stroke="#2E3374" stroke-width="1.34" stroke-miterlimit="10"/>
<path d="M113.53 39.707L103.775 43.9002C103.689 43.6435 103.518 43.5579 103.433 43.5579L113.188 39.3647C113.274 39.4503 113.445 39.5358 113.53 39.707Z" fill="white" stroke="#2E3374" stroke-width="1.34" stroke-miterlimit="10"/>
<path d="M113.103 39.2791L103.348 43.4723C103.219 43.3227 103.062 43.2002 102.886 43.112C102.71 43.0238 102.518 42.9718 102.321 42.9589C102.235 42.9589 101.979 42.9589 101.979 43.0445L111.734 38.8512C111.82 38.8512 111.991 38.7657 112.076 38.7657C112.468 38.8135 112.83 38.9948 113.103 39.2791Z" fill="white" stroke="#2E3374" stroke-width="1.34" stroke-miterlimit="10"/>
<path d="M113.36 42.531L103.605 46.7242C103.519 46.7242 103.348 46.8098 103.262 46.8098C102.876 46.746 102.518 46.567 102.235 46.2963L111.991 42.1031C112.119 42.2528 112.276 42.3753 112.453 42.4635C112.629 42.5516 112.821 42.6037 113.018 42.6166C113.118 42.5485 113.24 42.5182 113.36 42.531Z" fill="white" stroke="#2E3374" stroke-width="1.34" stroke-miterlimit="10"/>
<path d="M111.991 42.1887L102.236 46.3819L101.894 46.0396L111.649 41.8464C111.789 41.9316 111.906 42.0489 111.991 42.1887Z" fill="white" stroke="#2E3374" stroke-width="1.34" stroke-miterlimit="10"/>
<path d="M111.564 41.6752L101.808 45.8684C101.723 45.6117 101.551 45.5261 101.466 45.2694L111.221 41.0762C111.367 41.2561 111.483 41.4584 111.564 41.6752Z" fill="white" stroke="#2E3374" stroke-width="1.34" stroke-miterlimit="10"/>
<path d="M111.306 40.9906L101.55 45.1838C101.55 45.0982 101.464 44.9271 101.464 44.8415C101.398 44.5614 101.369 44.2735 101.379 43.9857L111.135 39.7925C111.12 40.0805 111.149 40.3689 111.22 40.6483C111.22 40.8194 111.22 40.9906 111.306 40.9906Z" fill="white" stroke="#2E3374" stroke-width="1.34" stroke-miterlimit="10"/>
<path d="M111.05 39.7926L101.294 43.9858C101.291 43.8856 101.313 43.7864 101.358 43.6968C101.403 43.6072 101.469 43.5301 101.551 43.4723L111.306 39.2791C111.221 39.4503 111.221 39.6214 111.05 39.7926Z" fill="white" stroke="#2E3374" stroke-width="1.34" stroke-miterlimit="10"/>
<path d="M111.306 39.2791L101.551 43.4723L101.893 43.13L111.649 38.9368C111.478 38.9368 111.392 39.1079 111.306 39.2791Z" fill="white" stroke="#2E3374" stroke-width="1.34" stroke-miterlimit="10"/>
<path d="M111.563 38.9368L101.808 43.13C101.893 43.13 101.893 43.0445 102.064 43.0445L111.82 38.8513C111.741 38.8972 111.654 38.9264 111.563 38.9368Z" fill="white" stroke="#2E3374" stroke-width="1.34" stroke-miterlimit="10"/>
<path d="M113.103 39.2791L103.348 43.4723C103.219 43.3227 103.062 43.2002 102.886 43.112C102.71 43.0238 102.518 42.9718 102.321 42.9589C102.235 42.9589 101.979 42.9589 101.979 43.0445L111.734 38.8512C111.82 38.8512 111.991 38.7657 112.076 38.7657C112.468 38.8135 112.83 38.9948 113.103 39.2791Z" fill="white" stroke="#2E3374" stroke-width="1.34" stroke-miterlimit="10"/>
<path d="M112.162 38.8513C112.847 38.8513 113.703 39.707 113.959 40.8195C114.216 41.932 113.703 42.7877 113.018 42.7877C112.334 42.7877 111.478 41.932 111.221 40.8195C110.964 39.707 111.307 38.8513 112.162 38.8513Z" fill="#565656" stroke="#2E3374" stroke-width="1.34" stroke-miterlimit="10"/>
<path d="M115.757 36.7974L106.001 40.9906L77.8467 40.9051L87.6023 36.7119L115.757 36.7974Z" fill="white" stroke="#2E3374" stroke-width="1.34" stroke-miterlimit="10"/>
<path d="M109.68 42.531L99.9248 46.7242C100.01 46.7242 100.01 46.6386 100.182 46.6386L109.937 42.4454C109.891 42.4399 109.844 42.4446 109.799 42.4594C109.755 42.4742 109.714 42.4987 109.68 42.531Z" fill="white" stroke="#2E3374" stroke-width="1.34" stroke-miterlimit="10"/>
<path d="M109.851 42.4454L100.096 46.6386L100.438 46.2963L110.194 42.1031C110.022 42.2743 110.022 42.4454 109.851 42.4454Z" fill="white" stroke="#2E3374" stroke-width="1.34" stroke-miterlimit="10"/>
<path d="M110.108 42.1031L100.353 46.2963C100.401 46.0827 100.488 45.8798 100.609 45.6972L110.365 41.504C110.279 41.7608 110.279 41.9319 110.108 42.1031Z" fill="white" stroke="#2E3374" stroke-width="1.34" stroke-miterlimit="10"/>
<path d="M110.279 41.5897L100.524 45.7829C100.538 45.495 100.509 45.2066 100.438 44.9271C100.438 44.8416 100.353 44.6704 100.353 44.5849L110.108 40.3917C110.108 40.4772 110.194 40.6484 110.194 40.734C110.272 40.8608 110.32 41.0038 110.335 41.152C110.35 41.3002 110.331 41.4499 110.279 41.5897Z" fill="white" stroke="#2E3374" stroke-width="1.34" stroke-miterlimit="10"/>
<path d="M110.108 40.306L100.352 44.4992C100.266 44.2425 100.095 44.1569 100.01 43.9002L109.765 39.707C110.022 39.8781 110.022 40.1349 110.108 40.306Z" fill="white" stroke="#2E3374" stroke-width="1.34" stroke-miterlimit="10"/>
<path d="M109.852 39.707L100.096 43.9002C100.011 43.6435 99.8395 43.5579 99.7539 43.3867L109.509 39.1935C109.634 39.3578 109.748 39.5293 109.852 39.707Z" fill="white" stroke="#2E3374" stroke-width="1.34" stroke-miterlimit="10"/>
<path d="M109.424 39.1936L99.6685 43.3868C99.5401 43.2371 99.3832 43.1146 99.2068 43.0264C99.0305 42.9382 98.8383 42.8862 98.6416 42.8733L108.397 38.6801C108.654 38.8513 109.167 38.9368 109.424 39.1936Z" fill="white" stroke="#2E3374" stroke-width="1.34" stroke-miterlimit="10"/>
<path d="M109.68 42.531L99.9243 46.7242C99.8388 46.7242 99.6676 46.8098 99.582 46.8098L109.338 42.6166C109.423 42.531 109.509 42.531 109.68 42.531Z" fill="white" stroke="#2E3374" stroke-width="1.34" stroke-miterlimit="10"/>
<path d="M109.338 42.531L99.5822 46.7242L83.2373 46.6386L92.9929 42.4454L109.338 42.531Z" fill="white" stroke="#2E3374" stroke-width="1.34" stroke-miterlimit="10"/>
<path d="M108.396 38.8512C109.081 38.8512 109.937 39.707 110.194 40.8195C110.45 41.932 109.937 42.7877 109.252 42.7877L92.9073 42.7021C92.2227 42.7021 91.367 41.8464 91.1102 40.7339C90.8535 39.6214 91.367 38.7657 92.0516 38.7657L108.396 38.8512Z" fill="#565656" stroke="#2E3374" stroke-width="1.34" stroke-miterlimit="10"/>
<path d="M115.5 44.5848L105.744 48.778L81.7832 48.6924L91.5388 44.4992L115.5 44.5848Z" fill="white" stroke="#2E3374" stroke-width="1.34" stroke-miterlimit="10"/>
<path d="M60.9876 36.5407L60.0462 36.883L59.5328 34.8292L57.4362 35.7791C57.4362 35.7791 57.3592 35.2485 57.3506 35.103C57.3506 34.7607 57.2993 34.4612 57.3078 34.2473C57.3164 34.0333 57.3763 33.5455 57.3934 33.3059C57.4337 33.0363 57.5206 32.7757 57.6501 32.5358C57.7518 32.3015 57.866 32.073 57.9924 31.8511C58.2989 31.4748 58.643 31.1307 59.0193 30.8243C59.2017 30.6822 59.4034 30.5669 59.6184 30.4819L49.8628 34.6751C49.6471 34.7586 49.4452 34.874 49.2637 35.0174C48.9172 35.3282 48.6019 35.6721 48.3224 36.0443C48.0468 36.5249 47.8449 37.0442 47.7234 37.5847C47.6677 38.1538 47.6677 38.7271 47.7234 39.2962C47.7234 39.6214 47.9801 40.4943 47.9801 40.4943L92.9928 235.931C93.0783 236.274 93.7201 238.079 93.7629 238.156C93.8057 238.233 94.0881 238.764 94.2764 239.098C94.4534 239.398 94.6537 239.684 94.8754 239.953C95.1709 240.312 95.4851 240.655 95.8167 240.98C96.2276 241.264 96.6564 241.522 97.1004 241.75C97.1774 241.75 98.2385 242.127 98.5723 242.195C98.6578 242.195 99.0686 242.255 99.2398 242.264C119.033 243.12 178.483 242.606 178.483 242.606C178.869 242.613 179.251 242.524 179.595 242.349L188.281 238.456C188.281 238.456 188.666 238.327 188.238 238.327L108.995 237.985H108.567C108.447 237.998 108.326 237.968 108.225 237.9C108.14 237.9 108.14 237.9 107.968 237.814C107.797 237.728 107.712 237.728 107.626 237.728C107.541 237.728 107.541 237.728 107.369 237.643C107.28 237.628 107.193 237.599 107.113 237.557C107.027 237.557 107.027 237.472 106.856 237.472C106.766 237.457 106.68 237.428 106.599 237.386C106.514 237.386 106.514 237.3 106.343 237.3C106.171 237.3 106.086 237.215 106.086 237.044C106 237.044 106 236.958 105.829 236.958C105.658 236.958 105.572 236.873 105.572 236.701C105.487 236.701 105.487 236.616 105.316 236.445L105.23 236.359C105.035 236.181 104.862 235.98 104.717 235.76C104.46 235.503 104.374 235.247 104.203 235.076L104.118 234.99C103.897 234.737 103.724 234.447 103.604 234.134L105.572 233.278L105.23 232.08L106.171 231.738L61.9289 40.905L60.9876 36.5407Z" fill="#15ADC2" stroke="#2E3374" stroke-width="1.8" stroke-miterlimit="10"/>
<path d="M141.685 36.8831L186.612 232.08L105.914 231.738L60.9873 36.5408L87.5157 36.6264L88.6281 41.5041C88.9704 43.1301 90.2541 44.4993 91.3666 44.4993L115.328 44.5849C116.44 44.5849 117.125 43.3012 116.782 41.5897L115.67 36.7119L141.685 36.8831Z" fill="url(#paint0_linear)" stroke="#2E3374" stroke-width="1.8" stroke-miterlimit="10"/>
<path d="M190.207 232.337L145.109 36.7975C144.253 33.3745 141.6 30.4649 139.119 30.4649L60.646 30.1226C58.0787 30.1226 56.7095 32.861 57.5652 36.3696L102.663 231.995C103.519 235.332 106.172 238.242 108.654 238.242L187.126 238.584C189.608 238.584 191.063 235.846 190.207 232.337ZM105.915 231.738L60.9883 36.5408L87.5166 36.652L88.7917 41.5897C89.134 43.2156 90.4176 44.5849 91.5301 44.5849L115.491 44.6704C116.604 44.5849 117.288 43.3012 116.946 41.6753L115.679 36.7718L141.677 36.8831L186.604 232.166L105.915 231.738Z" fill="#15ADC2" stroke="#2E3374" stroke-width="1.8" stroke-miterlimit="10"/>
<path d="M112.795 41.6752L93.3434 41.5896C92.8327 41.5085 92.3572 41.2785 91.9767 40.9284C91.5961 40.5782 91.3273 40.1236 91.204 39.6214C91.1194 39.4196 91.0822 39.201 91.0954 38.9825C91.1086 38.764 91.1718 38.5515 91.2801 38.3613C91.3884 38.1712 91.539 38.0084 91.7201 37.8856C91.9013 37.7628 92.1083 37.6833 92.325 37.6531L111.819 37.7387C112.33 37.8198 112.805 38.0498 113.186 38.4C113.566 38.7501 113.835 39.2047 113.958 39.7069C114.121 40.905 113.608 41.6752 112.795 41.6752Z" fill="#15ADC2" stroke="#2E3374" stroke-width="1.8" stroke-miterlimit="10"/>
<path d="M190.292 118.436C184.302 113.986 181.82 107.312 178.568 100.979C178.055 99.9521 172.578 95.8445 175.316 95.6733C181.05 95.331 183.36 102.776 184.815 107.397C185.842 110.563 188.752 112.96 190.463 114.842C193.202 117.666 192.431 117.067 190.292 118.436Z" fill="white" stroke="#2E3374" stroke-width="1.8" stroke-miterlimit="10"/>
<path d="M211.686 101.065C209.204 121.175 192.774 114.5 187.896 105.942C183.617 98.4117 176.857 98.0694 178.312 104.145C182.847 124.769 203.214 127.764 219.816 118.265C227.518 113.986 215.623 103.803 211.686 101.065Z" fill="white" stroke="#2E3374" stroke-width="1.8" stroke-miterlimit="10"/>
<path d="M178.569 245.43C182.505 248.939 187.298 249.538 192.09 249.11C193.202 247.912 194.229 246.714 195.342 245.516C195.855 246.799 196.369 248.083 196.882 249.452C197.6 249.496 198.314 249.581 199.022 249.709C199.364 245.43 199.963 241.237 200.562 236.958C198.423 236.873 196.369 236.616 194.229 236.616C194.486 238.755 192.09 241.665 190.378 242.007C187.897 242.521 176.173 243.376 178.569 245.43Z" fill="#D5401A" stroke="#2E3374" stroke-width="1.8" stroke-miterlimit="10"/>
<path d="M220.158 248.597C224.865 250.736 229.742 250.051 234.192 248.254C234.877 246.714 235.647 245.345 236.332 243.975C237.187 245.088 238.129 246.115 238.985 247.227C239.66 247.065 240.347 246.95 241.038 246.885C240.183 242.692 239.498 238.499 238.728 234.305C236.674 234.819 234.62 235.247 232.566 235.76C233.422 237.814 231.967 241.323 230.513 242.093C228.202 243.12 217.248 247.313 220.158 248.597Z" fill="#D5401A" stroke="#2E3374" stroke-width="1.8" stroke-miterlimit="10"/>
<path d="M229.572 234.477C234.449 238.071 237.616 237.386 241.895 233.193C238.643 196.995 232.995 171.065 234.621 146.505C230.171 143.51 220.586 144.366 216.051 141.37C218.704 173.119 223.068 201.787 229.572 234.477Z" fill="white" stroke="#2E3374" stroke-width="1.8" stroke-miterlimit="10"/>
<path d="M191.748 234.648C195.428 239.44 198.508 239.697 203.814 237.044C211.259 201.444 213.399 175.087 222.127 152.067C218.79 147.96 209.291 145.906 205.954 141.713C199.193 172.777 195.085 201.53 191.748 234.648Z" fill="white" stroke="#2E3374" stroke-width="1.8" stroke-miterlimit="10"/>
<path d="M204.926 75.7342L212.115 89.683L203.899 98.3261C203.899 98.3261 199.107 85.7465 197.225 84.9763C195.342 84.2062 204.926 75.7342 204.926 75.7342Z" fill="white" stroke="#2E3374" stroke-width="1.8" stroke-miterlimit="10"/>
<path d="M209.717 84.8908C207.454 86.6827 205.57 88.9068 204.174 91.4337C202.778 93.9606 201.899 96.7399 201.588 99.6098C200.989 106.884 205.524 122.972 205.867 131.872C206.209 138.119 199.705 157.373 199.705 157.373C199.705 157.373 228.715 160.283 234.277 148.73C236.417 144.195 227.089 130.16 223.153 103.033C221.356 91.8224 215.109 85.4898 209.717 84.8908Z" fill="white" stroke="#2E3374" stroke-width="1.8" stroke-miterlimit="10"/>
<path d="M184.302 125.881C177.199 127.165 170.182 122.715 162.48 122.373C161.282 122.373 154.607 123.828 155.805 122.031C158.373 118.094 165.39 119.549 171.466 120.576C175.659 121.26 177.969 119.977 181.221 119.977C186.698 119.977 184.901 124.427 184.302 125.881Z" fill="white" stroke="#2E3374" stroke-width="1.8" stroke-miterlimit="10"/>
<path d="M201.673 98.9252C201.331 113.986 177.455 118.18 170.01 118.18C163.25 118.265 159.485 123.742 163.935 125.111C178.825 129.903 203.214 126.395 209.118 117.581" fill="white"/>
<path d="M201.673 98.9252C201.331 113.986 177.455 118.18 170.01 118.18C163.25 118.265 159.485 123.742 163.935 125.111C178.825 129.903 203.214 126.395 209.118 117.581" stroke="#2E3374" stroke-width="1.8" stroke-miterlimit="10"/>
<path d="M191.149 73.3381C190.806 79.2428 189.951 85.9177 194.486 86.26C199.022 86.6023 207.665 80.1842 207.921 74.365C208.178 68.5459 204.755 63.5825 200.134 63.3258C195.513 63.0691 191.491 67.519 191.149 73.3381Z" fill="white" stroke="#2E3374" stroke-width="1.8" stroke-miterlimit="10"/>
<path d="M189.608 67.6045C188.753 69.4016 189.951 71.541 191.748 72.3968C193.374 73.3381 195.428 73.5092 197.31 74.0227C199.193 74.5361 201.161 75.563 201.76 77.3601C202.044 78.4223 202.073 79.5364 201.846 80.612C201.589 83.5216 201.846 86.5167 203.386 88.9128C204.926 91.3089 216.137 112.532 218.019 114.671C222.127 119.292 226.491 114.158 227.347 113.045C230.513 109.109 216.565 89.1695 215.966 84.035C215.709 82.2379 213.655 70.0862 212.971 68.4603C211.516 65.2084 211.173 63.8392 207.922 62.2989C205.183 61.0152 201.931 59.9883 198.936 60.5018C195.855 61.3575 191.406 63.6681 189.608 67.6045Z" fill="#2E3374" stroke="#2E3374" stroke-width="1.8" stroke-miterlimit="10"/>
<path d="M102.065 155.234L101.38 165.588L100.524 175.943C100.182 179.452 100.182 182.875 99.6685 186.298C99.4118 188.095 99.3262 189.806 98.9839 191.432C98.6416 193.229 98.4705 194.941 98.0426 196.567H97.957C97.957 194.77 97.957 193.058 98.0426 191.347C98.1282 189.635 98.2993 187.838 98.3849 186.126C98.6416 182.618 99.0695 179.28 99.4974 175.772L100.695 165.417L101.979 155.063V155.234H102.065Z" fill="white" stroke="#393939" stroke-width="1.5" stroke-miterlimit="10"/>
<path d="M154.095 122.287C155.207 121.774 161.968 120.832 160.256 119.549C157.774 117.752 154.351 118.693 150.757 120.576C148.789 121.517 151.014 122.715 151.014 122.715L154.095 122.287Z" fill="white" stroke="#2E3374" stroke-width="1.8" stroke-miterlimit="10"/>
<path d="M133.899 104.402C133.642 103.204 130.989 96.9569 133.043 97.727C135.952 98.8395 137.322 102.263 137.664 106.37C137.75 108.338 134.926 112.104 133.899 104.402Z" fill="white" stroke="#2E3374" stroke-width="1.8" stroke-miterlimit="10"/>
<path d="M156.233 246.714L132.871 249.794L131.245 239.953L137.321 239.098L141.6 243.633C144.937 243.975 151.355 242.777 153.923 244.831L156.233 246.714Z" fill="white" stroke="#2E3374" stroke-width="1.8" stroke-miterlimit="10"/>
<path d="M137.236 239.183L131.16 240.039C127.224 212.655 120.463 182.276 96.502 151.468C107.028 156.09 120.72 155.063 120.72 155.063C145.965 188.608 138.519 199.134 137.236 239.183Z" fill="#F8B243" stroke="#2E3374" stroke-width="1.8" stroke-miterlimit="10"/>
<path d="M130.475 77.8735L133.984 93.1915L122.603 91.9079L130.475 77.8735Z" fill="#15ADC2" stroke="#2E3374" stroke-width="1.8" stroke-miterlimit="10"/>
<path d="M115.5 146.762L112.334 155.234L97.5294 195.197L90.8545 166.187L94.5342 149.243L97.2321 136.921L115.5 146.762Z" fill="#F8B243" stroke="#2E3374" stroke-width="1.8" stroke-miterlimit="10"/>
<path d="M116.869 79.9274L115.072 99.5241L122.86 106.028C122.86 106.028 124.657 91.3089 126.539 90.7099C128.422 89.8541 116.869 79.9274 116.869 79.9274Z" fill="white" stroke="#2E3374" stroke-width="1.8" stroke-miterlimit="10"/>
<path d="M109.339 129.903C131.503 145.221 140.147 115.527 139.89 111.761C139.548 102.177 131.418 103.289 131.418 106.969C131.418 117.837 123.288 118.436 114.046 119.549C104.975 120.576 106.43 127.764 109.339 129.903Z" fill="white" stroke="#2E3374" stroke-width="1.8" stroke-miterlimit="10"/>
<path d="M131.502 81.6389C130.646 87.5436 130.218 94.4752 125.512 93.705C120.805 93.106 113.788 84.9763 114.472 79.1572C115.157 73.3381 119.778 69.0593 124.399 69.6583C129.191 70.5997 132.443 75.8198 131.502 81.6389Z" fill="white" stroke="#2E3374" stroke-width="1.8" stroke-miterlimit="10"/>
<path d="M113.104 72.3967C111.136 74.4505 108.654 84.9763 109.253 87.8859C109.852 90.6243 117.126 92.7637 119.779 93.9617C119.18 92.5069 119.522 80.7831 120.72 79.8418C121.918 78.9005 129.706 78.7293 132.615 82.2379C132.758 80.0356 132.643 77.8242 132.273 75.6486C132.113 74.6501 131.73 73.7006 131.152 72.8709C130.574 72.0411 129.817 71.3525 128.935 70.8564C122.346 66.7488 118.666 70.1718 118.666 70.1718C118.666 70.1718 116.356 69.316 113.104 72.3967Z" fill="#15ADC2" stroke="#2E3374" stroke-width="1.8" stroke-miterlimit="10"/>
<path d="M115.5 94.9031C115.5 94.9031 122.945 104.145 123.887 98.8395C124.4 95.8444 130.476 109.879 130.647 114.158C130.904 117.837 125.855 125.197 125.855 125.197L122.346 154.806C122.346 154.806 95.219 158.314 93.0796 145.82C92.0527 139.488 104.119 133.07 104.461 105.771C104.461 101.92 110.023 95.5021 115.5 94.9031Z" fill="white" stroke="#2E3374" stroke-width="1.8" stroke-miterlimit="10"/>
<path d="M112.761 104.402C117.639 118.351 138.52 123.656 145.622 121.089C151.955 118.693 157.517 122.544 153.838 125.368C141.6 135.209 122.089 131.444 113.275 125.111C112.297 124.422 111.407 123.618 110.622 122.715" fill="white"/>
<path d="M112.761 104.402C117.639 118.351 138.52 123.656 145.622 121.089C151.955 118.693 157.517 122.544 153.838 125.368C141.6 135.209 122.089 131.444 113.275 125.111C112.297 124.422 111.407 123.618 110.622 122.715" stroke="#2E3374" stroke-width="1.8" stroke-miterlimit="10"/>
<path d="M453.437 53.1424C455.063 52.1155 456.775 51.1741 458.657 51.1741C461.054 51.2597 463.107 53.1424 463.963 55.2817C464.802 57.4924 465.181 59.8512 465.076 62.2134C464.974 64.5554 465.264 66.8979 465.931 69.145C466.873 71.7978 468.67 74.0227 469.611 76.6756C470.084 78.1693 470.222 79.7489 470.014 81.3019C469.807 82.855 469.261 84.3433 468.413 85.661C467.864 86.5812 467.062 87.3239 466.103 87.8004C465.414 88.0615 464.695 88.2341 463.963 88.3138C461.808 88.6007 459.633 88.7151 457.459 88.6561C456.087 88.609 454.743 88.2583 453.523 87.6292C452.494 86.9706 451.688 86.016 451.212 84.8908C449.586 81.8101 449.159 78.2159 449.073 74.7074C448.9 69.2654 449.741 63.8387 451.555 58.7048L453.437 53.1424Z" fill="#D5401A" stroke="#2E3374" stroke-width="1.8" stroke-miterlimit="10"/>
<path d="M490.491 245.43L466.273 248.425L464.818 236.958L471.065 236.274L475.515 241.494C479.024 241.836 485.613 240.809 488.095 243.291L490.491 245.43Z" fill="white" stroke="#2E3374" stroke-width="1.8" stroke-miterlimit="10"/>
<path d="M471.065 236.188L464.818 236.873C461.481 205.21 464.476 185.271 440.601 149.158C444.708 145.906 448.816 142.654 453.009 139.402C477.911 178.853 473.633 190.149 471.065 236.188Z" fill="white" stroke="#2E3374" stroke-width="1.8" stroke-miterlimit="10"/>
<path d="M401.235 241.323C396.015 234.99 390.795 228.486 385.575 222.068C388.57 219.415 391.822 217.276 395.074 214.794C396.529 216.335 397.812 217.96 399.267 219.501C398.411 221.811 397.128 223.78 396.358 226.176C398.411 230.112 401.663 233.45 401.663 238.071C401.663 239.183 401.321 240.21 401.235 241.323Z" fill="white" stroke="#2E3374" stroke-width="1.8" stroke-miterlimit="10"/>
<path d="M399.267 219.501C397.813 217.961 396.529 216.335 395.074 214.794C430.588 180.821 429.561 175.515 424.598 139.317C431.786 139.83 439.06 140.173 446.163 141.114C448.559 177.74 436.322 193.572 399.267 219.501Z" fill="white" stroke="#2E3374" stroke-width="1.8" stroke-miterlimit="10"/>
<path d="M448.559 65.2085L446.248 84.9764L454.035 91.6513C454.035 91.6513 456.089 76.7612 457.972 76.1621C459.855 75.5631 448.559 65.2085 448.559 65.2085Z" fill="white" stroke="#2E3374" stroke-width="1.8" stroke-miterlimit="10"/>
<path d="M463.364 66.4065C462.422 72.3968 461.823 79.3284 457.117 78.6438C455.135 78.096 453.334 77.0331 451.896 75.5631C451.896 75.5631 452.239 71.0276 453.18 68.9738C454.121 66.92 458.914 64.2672 460.026 61.4432C460.965 63.2079 462.084 64.8711 463.364 66.4065Z" fill="white" stroke="#2E3374" stroke-width="1.8" stroke-miterlimit="10"/>
<path d="M419.035 111.077C412.36 113.559 399.267 117.324 392.25 116.211C391.052 115.955 387.03 119.463 387.971 117.409C389.769 113.131 396.615 111.847 402.69 111.761C405.99 111.774 409.284 111.487 412.532 110.906C418.094 110.136 419.463 109.537 419.035 111.077Z" fill="white" stroke="#2E3374" stroke-width="1.8" stroke-miterlimit="10"/>
<path d="M470.039 112.189C476.714 114.671 489.807 118.436 496.824 117.324C498.022 117.067 502.044 120.576 501.103 118.522C499.306 114.243 492.459 112.959 486.384 112.874C483.056 112.882 479.734 112.595 476.457 112.018C470.98 111.248 469.611 110.649 470.039 112.189Z" fill="white" stroke="#2E3374" stroke-width="1.8" stroke-miterlimit="10"/>
<path d="M453.437 89.1696C453.437 89.1696 480.736 109.451 488.181 110.735C494.855 111.933 497.679 119.207 492.887 119.977C477.398 122.287 450.014 108.082 445.564 98.2406C441.371 88.2283 446.762 90.1109 453.437 89.1696Z" fill="white" stroke="#2E3374" stroke-width="1.8" stroke-miterlimit="10"/>
<path d="M446.762 80.4409C446.762 80.4409 454.207 90.0253 455.148 84.5485C455.661 81.5534 461.481 95.8444 461.737 100.209C461.823 104.06 459.17 110.991 459.17 110.991L477.74 184.244C477.74 184.244 410.392 187.838 407.482 175.344C403.204 156.517 434.439 118.779 435.294 91.2234C435.466 87.2869 441.37 80.8687 446.762 80.4409Z" fill="white" stroke="#2E3374" stroke-width="1.8" stroke-miterlimit="10"/>
<path d="M436.664 87.3725C433.326 92.1647 408.253 108.338 400.808 109.793C394.133 110.991 391.309 118.265 396.101 119.035C406.199 120.49 421.859 115.698 432.385 108.852C435.63 106.822 438.618 104.409 441.285 101.664" fill="white"/>
<path d="M436.664 87.3725C433.326 92.1647 408.253 108.338 400.808 109.793C394.133 110.991 391.309 118.265 396.101 119.035C406.199 120.49 421.859 115.698 432.385 108.852C435.63 106.822 438.618 104.409 441.285 101.664" stroke="#2E3374" stroke-width="1.8" stroke-miterlimit="10"/>
<path d="M458.742 56.1375C458.056 54.6621 457.064 53.3494 455.832 52.2866C455.223 51.7631 454.516 51.3651 453.753 51.1154C452.989 50.8658 452.184 50.7694 451.383 50.8318C450.012 51.1561 448.764 51.8693 447.788 52.8856C445.735 55.025 444.622 57.7634 443.167 60.3307C441.713 62.8979 439.83 65.4652 437.006 66.3209C434.866 66.92 432.385 66.6633 430.759 68.118C430.08 68.8148 429.58 69.6666 429.304 70.5997C428.619 72.7391 428.277 75.3919 429.646 77.3602C430.175 78.1614 430.877 78.834 431.7 79.3284C434.182 81.1255 436.578 82.9226 439.145 84.5485C440.686 85.5754 442.397 86.6879 444.28 86.3456C445.425 86.035 446.462 85.4129 447.275 84.5485C449.827 81.8803 451.448 78.4581 451.896 74.7929C452.153 73.3381 452.153 71.7978 452.752 70.5141C453.693 68.4603 455.661 67.1767 457.373 65.7219C459.084 64.2672 460.625 62.2133 460.282 59.9884C459.837 58.6785 459.323 57.3931 458.742 56.1375Z" fill="#D5401A" stroke="#2E3374" stroke-width="1.8" stroke-miterlimit="10"/>
<path d="M360.587 243.034C356.393 246.115 351.601 246.372 346.723 245.516C345.696 244.232 344.755 242.949 343.728 241.665C343.139 242.926 342.482 244.155 341.76 245.345H339.621C339.535 241.066 339.364 236.873 339.278 232.508C341.418 232.594 343.472 232.508 345.611 232.594C345.269 234.733 347.408 237.814 348.863 238.327C351.601 239.354 363.154 241.151 360.587 243.034Z" fill="#2E3374" stroke="#2E3374" stroke-width="1.8" stroke-miterlimit="10"/>
<path d="M349.634 231.139C345.526 235.675 342.446 235.589 337.311 232.337C347.58 192.117 344.414 180.051 326.614 145.906C330.465 142.055 334.059 138.375 337.91 134.525C359.39 167.985 361.871 192.801 349.634 231.139Z" fill="white" stroke="#2E3374" stroke-width="1.8" stroke-miterlimit="10"/>
<path d="M294.352 250.137C289.303 248.34 286.65 244.489 284.596 239.953C285.11 238.413 285.538 236.958 286.051 235.418C284.768 235.503 283.313 235.76 281.944 235.76C281.523 235.193 281.151 234.592 280.831 233.963C284.168 231.567 287.677 229.256 291.1 226.86C292.213 228.657 293.496 230.198 294.609 232.08C292.64 232.936 291.357 236.274 291.87 237.814C292.555 240.467 297.347 251.164 294.352 250.137Z" fill="#2E3374" stroke="#2E3374" stroke-width="1.8" stroke-miterlimit="10"/>
<path d="M293.924 233.878C290.929 232.423 287.934 231.139 285.024 229.77C299.059 197.85 311.039 168.327 321.993 135.209C327.384 139.916 332.861 144.708 338.338 149.329C325.074 179.195 309.841 205.723 293.924 233.878Z" fill="white" stroke="#2E3374" stroke-width="1.8" stroke-miterlimit="10"/>
<path d="M346.125 71.1132L338.937 85.0619L347.152 93.705C347.152 93.705 351.944 81.1255 353.827 80.3553C355.795 79.7563 346.125 71.1132 346.125 71.1132Z" fill="white" stroke="#2E3374" stroke-width="1.8" stroke-miterlimit="10"/>
<path d="M313.008 100.038C307.446 105.258 304.964 111.162 300.429 118.094C299.744 119.206 294.267 124.084 296.578 124.17C301.456 124.427 304.707 117.495 307.617 111.59C309.671 107.654 312.238 106.456 314.292 103.546C317.629 98.6684 314.634 100.465 313.008 100.038Z" fill="white" stroke="#2E3374" stroke-width="1.8" stroke-miterlimit="10"/>
<path d="M344.327 98.6685C331.149 89.5119 313.349 107.825 308.643 114.243C304.364 119.977 297.347 119.891 298.887 115.184C304.021 99.2675 325.415 86.5168 337.396 81.8957C343.044 79.5852 346.638 91.8224 344.327 98.6685Z" fill="#15ADC2" stroke="#2E3374" stroke-width="1.8" stroke-miterlimit="10"/>
<path d="M359.987 68.8026C360.33 74.7073 361.185 81.3822 356.65 81.7245C352.115 82.0668 343.471 75.6486 343.215 69.8295C342.958 64.0104 346.381 59.047 351.002 58.7903C355.538 58.7047 359.56 63.0691 359.987 68.8026Z" fill="white" stroke="#2E3374" stroke-width="1.8" stroke-miterlimit="10"/>
<path d="M363.583 61.9566C363.967 59.9791 363.789 57.9334 363.069 56.0519C362.47 54.5971 360.759 53.3135 359.475 53.9981C358.512 52.7155 357.111 51.8321 355.538 51.5164C354.758 51.3848 353.957 51.5045 353.249 51.8583C352.542 52.2121 351.965 52.7816 351.602 53.4846C350.95 53.0243 350.193 52.7359 349.4 52.6462C348.607 52.5564 347.805 52.6682 347.067 52.9712C346.366 53.2998 345.762 53.803 345.313 54.4325C344.863 55.0619 344.583 55.7964 344.499 56.5654C341.59 56.0519 341.333 58.5336 341.932 60.8441C339.279 62.2989 337.995 66.5777 341.675 67.1767C341.347 68.4361 341.317 69.7549 341.59 71.0276C341.675 71.3699 341.846 71.6266 341.932 71.9689C342.123 72.204 342.388 72.3663 342.684 72.4286C342.98 72.4909 343.289 72.4495 343.558 72.3112C344.158 72.1681 344.697 71.8386 345.098 71.3699C345.778 70.7727 346.331 70.0452 346.724 69.2305C347.253 68.313 347.575 67.2906 347.666 66.2354C348.483 66.2129 349.287 66.0184 350.024 65.6645C350.761 65.3107 351.415 64.8053 351.944 64.1816C352.971 65.4652 353.913 67.0911 355.538 67.7757C355.881 68.0325 360.245 68.2892 359.732 67.2623C360.245 68.2892 361.7 68.4603 362.727 67.9469C363.201 67.6299 363.584 67.1949 363.839 66.6847C364.095 66.1746 364.212 65.6068 364.182 65.0373C364.524 64.0104 364.01 63.0691 363.583 61.9566Z" fill="#2E3374" stroke="#2E3374" stroke-width="1.8" stroke-miterlimit="10"/>
<path d="M341.419 80.3553C343.682 82.1472 345.566 84.3713 346.962 86.8982C348.357 89.4251 349.237 92.2044 349.548 95.0743C350.147 102.348 345.612 118.436 345.269 127.336C344.927 133.583 348.179 152.752 348.179 152.752C348.179 152.752 314.206 148.559 308.729 137.092C306.589 132.556 324.047 125.71 328.154 98.5829C329.695 87.2869 335.942 80.9543 341.419 80.3553Z" fill="#15ADC2" stroke="#2E3374" stroke-width="1.8" stroke-miterlimit="10"/>
<path d="M366.834 121.431C373.937 122.715 380.954 118.265 388.656 117.923C389.854 117.923 396.529 119.378 395.331 117.581C392.763 113.644 385.746 115.099 379.67 116.126C375.477 116.81 373.167 115.527 369.915 115.527C364.352 115.441 366.235 119.977 366.834 121.431Z" fill="white" stroke="#2E3374" stroke-width="1.8" stroke-miterlimit="10"/>
<path d="M349.548 95.0743C349.89 110.136 373.68 113.644 381.211 113.73C387.971 113.815 391.737 119.292 387.287 120.661C372.396 125.454 348.949 119.463 338.937 107.483" fill="#15ADC2"/>
<path d="M349.548 95.0743C349.89 110.136 373.68 113.644 381.211 113.73C387.971 113.815 391.737 119.292 387.287 120.661C372.396 125.454 348.949 119.463 338.937 107.483" stroke="#2E3374" stroke-width="1.8" stroke-miterlimit="10"/>
<defs>
<linearGradient id="paint0_linear" x1="83.5795" y1="36.7974" x2="178.996" y2="231.909" gradientUnits="userSpaceOnUse">
<stop stop-color="#98DFE9"/>
<stop offset="1" stop-color="#EBFDFF"/>
</linearGradient>
</defs>
</svg>
