<?xml version="1.0" encoding="UTF-8"?>
<svg viewBox="0 0 296 297" xmlns="http://www.w3.org/2000/svg">
<path d="M0 0H296V297H0V0Z" fill="#2E3374"/>
<rect x="121" y="188.58" width="10.421" height="43.421" rx="3.5" fill="#DDE3E9"/>
<rect x="145.32" y="160.79" width="10.421" height="71.21" rx="3.5" fill="#DDE3E9"/>
<rect x="169.63" y="146.9" width="10.421" height="85.105" rx="3.5" fill="#C5CFD6"/>
<rect x="193.95" y="160.79" width="10.421" height="71.21" rx="3.5" fill="#C5CFD6"/>
<rect x="218.26" y="133" width="10.421" height="99" rx="3.5" fill="#AFB9C5"/>
<path d="m62.94 50.873c0.2197-0.1105 0.6904-0.0816 0.9128-0.0876 0.9241-0.0247 1.8577 0.0567 2.7682 0.2145 2.8068 0.4908 5.6112 1.2662 8.2879 2.2309 1.6994 0.6124 3.6385 2.0183 5.48 1.7565 3.2082-0.4563 6.2701 0.1241 8.9091 2.0267 2.4128 1.7397 3.9909 4.523 4.7019 7.3581 0.1073 0.428 0.5683 2.0146 0.5997 3.0357 0.0515 0.2166 0.0994 0.434 0.1386 0.6531 0.1112 0.6218 0.1986 1.2501 0.2724 1.8772 0.0316 0.2675 0.1245 0.8623-0.1203 0.9318 0.2434 0.7419 0.4422 1.4975 0.5836 2.2665 0.4111 2.2366 0.8594 4.6895 0.7457 6.9648-0.042 0.8425-0.182 1.673-0.419 2.4834-0.1172 0.4005-0.2404 1.2254-0.566 1.4889-0.691 0.5593-0.8272-0.4149-0.686-0.8431 1.0771-3.2639 0.6636-6.5759 0.0731-9.9218-0.3818-2.1636-1.2662-4.2357-2.3262-6.1572-0.8578-1.5553-1.8455-2.8342-3.1889-3.9997-1.6428-1.4251-3.4492-2.6602-5.2371-3.8948-1.1759-0.8123-2.356-1.609-3.5817-2.3457-0.2726-0.164-0.6819-0.534-1.0057-0.5912-0.6846-0.1213-1.7448 0.2257-2.4397 0.3027-2.2858 0.2535-4.6301 0.6789-6.9354 0.6111-1.4786-0.0432-2.79-0.5103-4.0545-1.2341-0.1292-0.0738-0.3381-0.2425-0.5894-0.4753-0.9337-0.5664-1.7957-1.225-2.4973-2.0812-0.4042-0.4933-0.7435-1.0991-1.0527-1.6533-0.0925-0.1657-0.1157-0.3413-0.0901-0.4999-0.0809-0.0629-0.1304-0.1286-0.1325-0.1957-0.0153-0.4954 0.8814-0.3491 1.4495-0.2213z" clip-rule="evenodd" fill="#89C5CC" fill-rule="evenodd"/>
<path d="m48.79 63.035c1.0183-0.836 2.2931-1.4659 3.4706-2.0441 6.3019-3.1264 13.955-3.3407 20.364-0.6972 5.4558 2.2504 8.9417 6.7399 12.192 11.419 0.3226 0.4646 0.6054 0.9455 0.8995 1.4261 0.0631 0.1031 0.1243 0.1926 0.1834 0.276 0.3849 0.0989 0.6639 0.3012 0.6615 0.6819 1.2316 0.9659 2.39 2.0099 3.4993 3.1305 3.2649 3.2985 6.5897 6.6609 7.9335 11.201-1.3511-2.1849-2.9297-4.318-4.5379-6.3237-0.0924-0.1151-0.1864-0.2282-0.2813-0.3401-0.0099-0.0119-0.0196-0.0239-0.0295-0.0356-0.5144-0.603-1.0669-1.1605-1.6596-1.6841-0.0064-0.0057-0.0126-0.0115-0.019-0.0171-0.0781-0.0688-0.1581-0.1361-0.2376-0.2037-0.1646-0.1399-0.331-0.2784-0.5016-0.4136-0.0578-0.0462-0.115-0.0935-0.1713-0.1418-0.8394-0.7163-1.522-1.6585-2.3386-2.4263-0.1897-0.1726-0.3826-0.3425-0.5789-0.5092-0.0115-0.0097-0.0231-0.0194-0.0347-0.0291-0.5293-0.4481-1.0799-0.8765-1.6424-1.2913-0.208-0.035-0.4312-0.2719-0.6907-0.4583-0.0524-0.036-0.4327-0.2607-0.5934-0.42-0.3235-0.2292-0.6465-0.4588-0.9709-0.6868 0.0059-7e-4 0.0117-0.0014 0.0176-0.0021-0.3182-0.2156-0.6362-0.4297-0.9523-0.6431-0.0694-0.0469-0.1393-0.0936-0.2092-0.1406-0.1122-0.0742-0.2244-0.1482-0.3363-0.2221-1.0474-0.6917-2.1178-1.347-3.2046-1.979-0.3878-0.2255-1.1497-0.4433-1.442-0.77-0.0108-0.0123-0.0183-0.0248-0.0275-0.0372-2.2459-1.1525-4.6172-2.0618-7.1097-2.4675 0.3388 0.1222 1.2115 0.6791 1.4151 0.7735 0.6232 0.2892 1.2616 0.5286 1.9043 0.7727 1.1511 0.4373 2.298 0.9093 3.39 1.4705 1.9968 1.0264 3.8775 2.2199 5.7209 3.4759 0.0143 0.0056 0.0291 0.0102 0.043 0.0163 0.7763 0.3384 1.5288 1.0659 2.2145 1.5568-1.6794 0.073-3.3908 0.4373-5.0701 0.5986-1.6745 0.1609-3.3433 0.2397-5.0204 0.1872-2.2291-0.0697-4.5865-0.2301-6.8567-0.6156-2.4733-0.1921-4.8698-0.9735-7.1213-1.9286-2.6639-1.13-5.1988-2.3481-7.3652-4.2682-1.0643-0.9437-2.0566-1.988-2.909-3.1221-0.0372-0.0494-0.0794-0.1021-0.1237-0.1565-0.4396-0.3172-0.861-0.656-1.256-1.0211-0.6268-0.5788-1.6459-1.0465-0.6176-1.8904z" clip-rule="evenodd" fill="#69A1AC" fill-rule="evenodd"/>
<path d="m184.2 110.83c-0.167-0.18-0.618-0.319-0.824-0.403-0.857-0.347-1.759-0.599-2.667-0.771-2.801-0.527-5.699-0.787-8.544-0.824-1.806-0.024-4.115 0.611-5.747-0.281-2.844-1.555-5.914-2.087-9.053-1.234-2.871 0.781-5.326 2.833-6.988 5.237-0.251 0.363-1.24 1.686-1.628 2.631-0.125 0.185-0.246 0.372-0.36 0.563-0.322 0.543-0.625 1.101-0.914 1.662-0.124 0.239-0.42 0.763-0.215 0.914-0.489 0.61-0.94 1.247-1.343 1.917-1.171 1.95-2.452 4.089-3.145 6.259-0.257 0.804-0.418 1.63-0.481 2.472-0.031 0.416-0.205 1.232 7e-3 1.593 0.45 0.767 0.92-0.098 0.938-0.548 0.139-3.434 1.69-6.39 3.418-9.315 1.118-1.891 2.674-3.521 4.342-4.947 1.35-1.155 2.724-2.005 4.391-2.624 2.039-0.757 4.164-1.278 6.272-1.806 1.386-0.347 2.771-0.679 4.177-0.938 0.313-0.057 0.826-0.26 1.15-0.2 0.683 0.127 1.554 0.825 2.177 1.141 2.051 1.041 4.097 2.263 6.279 3.009 1.399 0.479 2.791 0.503 4.229 0.27 0.147-0.024 0.402-0.109 0.719-0.238 1.073-0.203 2.112-0.516 3.069-1.071 0.552-0.32 1.083-0.768 1.567-1.178 0.145-0.123 0.228-0.279 0.26-0.437 0.098-0.03 0.167-0.074 0.193-0.136 0.188-0.459-0.703-0.637-1.279-0.717z" clip-rule="evenodd" fill="#89C5CC" fill-rule="evenodd"/>
<path d="m193.17 127.18c-0.66-1.141-1.632-2.178-2.531-3.134-4.802-5.141-11.892-8.031-18.82-7.808-5.899 0.19-10.74 3.168-15.427 6.406-0.466 0.322-0.899 0.673-1.344 1.019-0.095 0.075-0.184 0.137-0.268 0.194-0.395-0.043-0.728 0.049-0.859 0.406-1.493 0.472-2.944 1.042-4.376 1.701-4.216 1.941-8.51 3.921-11.364 7.7 2.033-1.571 4.26-3.014 6.471-4.326 0.127-0.076 0.254-0.148 0.382-0.22 0.014-7e-3 0.027-0.015 0.041-0.023 0.693-0.384 1.406-0.711 2.145-0.993 8e-3 -3e-3 0.016-7e-3 0.024-0.01 0.097-0.037 0.196-0.072 0.294-0.107 0.203-0.073 0.408-0.144 0.615-0.211 0.07-0.023 0.14-0.047 0.21-0.072 1.038-0.376 2.008-1.018 3.042-1.45 0.238-0.095 0.479-0.186 0.721-0.273 0.014-6e-3 0.029-0.011 0.043-0.016 0.653-0.233 1.319-0.441 1.991-0.631 0.207 0.04 0.499-0.103 0.808-0.187 0.062-0.015 0.497-0.092 0.703-0.184 0.383-0.101 0.767-0.203 1.15-0.302-5e-3 -3e-3 -0.01-6e-3 -0.015-8e-3 0.373-0.09 0.746-0.179 1.117-0.268 0.082-0.019 0.164-0.039 0.245-0.058 0.132-0.03 0.263-0.06 0.393-0.09 1.224-0.279 2.456-0.517 3.696-0.726 0.442-0.075 1.232-0.011 1.621-0.215 0.014-7e-3 0.026-0.016 0.038-0.025 2.508-0.29 5.048-0.308 7.524 0.188-0.36-4e-3 -1.373 0.211-1.597 0.227-0.685 0.052-1.367 0.052-2.054 0.055-1.232 5e-3 -2.471 0.043-3.691 0.185-2.23 0.259-4.41 0.716-6.577 1.244-0.016 0-0.031-1e-3 -0.046 0-0.846 0.044-1.806 0.461-2.621 0.68 1.547 0.658 3.021 1.6 4.537 2.342 1.511 0.739 3.046 1.399 4.634 1.939 2.112 0.718 4.375 1.396 6.636 1.833 2.383 0.689 4.901 0.8 7.345 0.697 2.891-0.122 5.692-0.372 8.395-1.408 1.328-0.509 2.624-1.138 3.821-1.901 0.052-0.033 0.11-0.067 0.171-0.103 0.523-0.142 1.036-0.311 1.534-0.514 0.791-0.322 1.909-0.402 1.243-1.553z" clip-rule="evenodd" fill="#69A1AC" fill-rule="evenodd"/>
<path d="m118.46 121.61c-2.567 2.716-6.204 4.422-10.249 4.422-7.772 0-14.073-6.26-14.073-13.981 0-7.722 6.3007-13.982 14.073-13.982v-25.966c-22.11 0-40.208 17.98-40.208 39.948 0 21.967 18.098 39.947 40.208 39.947 11.614 0 22.111-4.882 29.266-12.647l-19.017-17.741z" clip-rule="evenodd" fill="#F2F2F2" fill-rule="evenodd"/>
<path d="m107.95 72.105v25.966c7.722 0 13.982 6.26 13.982 13.982h25.966c0-21.968-17.981-39.948-39.948-39.948z" clip-rule="evenodd" fill="#AFB9C5" fill-rule="evenodd"/>
<path d="m121.97 112.05c0 4.439-2.09 8.383-5.337 10.931l15.972 20.333c9.298-7.28 15.291-18.564 15.291-31.264h-25.926z" clip-rule="evenodd" fill="#C5CFD6" fill-rule="evenodd"/>
</svg>
