<?xml version="1.0" encoding="UTF-8"?>
<svg fill="none" viewBox="0 0 460 184" xmlns="http://www.w3.org/2000/svg">
<path d="M0 0H460V184H0V0Z" fill="#2E3374"/>
<path d="m344.71 88.298c3.458-3.5613 6.928-7.0782 10.792-10.214 2.276-1.8478 4.676-3.5281 7.026-5.2802-0.271 0.2375-0.537 0.4819-0.796 0.7322 0.733-0.4979 1.693-0.7793 2.471-1.2403 0.868-0.5141 1.697-1.1022 2.51-1.6951 1.588-1.1568 3.152-2.3357 4.784-3.4323 1.818-1.2216 3.703-2.3504 5.552-3.526 1.569-0.9977 3.158-2.0897 4.837-2.9052 0.915-0.4446 1.832-0.9716 2.751-1.4352 0.308-0.1551 3.428-2.1255 3.42-2.1314-0.172-0.13-1.743 0.6078-1.985 0.7071-0.71 0.2897-1.388 0.6363-2.07 0.9818 0.374-0.7384 0.67-1.5142 0.832-2.3307 0.05-0.2521 0.449-2.0869 0.245-2.2408-0.102-0.0769-1.098 3.2059-1.149 3.5215-0.041 0.2563-0.035 0.6255-0.119 0.8683-0.136 0.3921-0.129 0.2737-0.427 0.4945-0.547 0.4049-1.274 0.6578-1.866 0.9962-0.319 0.1783-1.308 0.8851-1.903 1.0866-1.802 0.875-3.628 2.2212-5.339 3.3388 0.449-0.8443 0.791-1.7272 1.04-2.6523 0.059-0.2197 0.699-2.1901 0.544-2.3071-0.175-0.1316-1.394 2.8778-1.466 3.1627-0.134 0.5292-0.162 1.1182-0.33 1.6331-0.184 0.5651-0.759 0.7655-1.278 1.0949-1.907 1.212-3.75 2.4998-5.561 3.8467-1.976-3.515 0.303-7.7597 2.223-10.709 1.385-2.1255 3.248-3.9479 5.216-5.5388 2.626-2.1232 5.631-3.8195 8.632-5.371 3.497-1.8079 7.277-2.928 11.206-3.4455 2.055-0.2707 4.157-0.2631 6.233-0.1763 1.014 0.0423 1.988 0.1766 2.959 0.5073 0.438 0.1493 0.862 0.3374 1.274 0.5479 0.314 0.1601 1.072 0.329 1.252 0.5674 1.483 1.9307 2.242 3.8546 2.126 6.2808-0.109 2.2966-0.835 4.5945-1.819 6.6431-1.096 2.2812-2.506 4.3516-4.35 6.0892-1.407 1.3258-2.98 2.4796-4.542 3.6183-5.558 4.0502-12.603 7.5726-19.801 6.6677-2.33-0.2928-4.546-1.1077-6.617-2.2149-0.488-0.2609-0.973-0.5248-1.434-0.8329-0.31-0.2076-1.14-1.1434-1.453-1.1774-0.428-0.0466-1.35 0.8243-1.752 1.0894-3.053 2.0153-6.026 4.1397-8.936 6.35-3.097 2.3517-6.042 4.8633-8.9 7.4931-1.215 1.1185-2.423 2.2396-3.603 3.3957-0.275 0.2689-0.947 1.2595-1.445 1.3043-0.315 0.0284-0.528-0.2407-0.483-0.5322 0.078-0.5069 1.145-1.2654 1.499-1.63z" clip-rule="evenodd" fill="#C1DEE2" fill-rule="evenodd"/>
<path d="m372.81 80.747c0.531-0.5292 1.127-1.0066 1.827-1.3472 0.177-0.086 1.495-0.6627 1.581-0.5361 0.2 0.2946-3.248 1.7144-3.408 1.8833zm-6.249-3.5351c4e-3 0.0224-0.453 0.7365-0.578 0.9561-0.264 0.4668-0.509 0.9427-0.739 1.4195 0.341-0.8422 0.691-1.6232 1.317-2.3756zm31.961 5.813c0.441 0.1306 0.97-0.3839 0.399-0.5107-0.462-0.1017-0.439-0.1257-0.647-0.4683-0.168-0.2783-0.272-0.6177-0.42-0.9097-0.313-0.6193-0.669-1.21-1.106-1.7634-0.935-1.1865-2.075-2.2089-3.354-3.0704-2.231-1.5034-4.733-2.8775-7.387-3.5678-4.22-1.0977-9.022-1.1656-13.249-0.4044-2.617 0.4712-5.009 1.2906-6.748 3.2313-0.868 0.9698-1.55 2.106-1.848 3.3571-0.078 0.327-0.064 0.6907-0.161 1.0108-0.15 0.4923-0.084 0.3613-0.709 0.4571-0.683 0.1045-1.365 0.2112-2.047 0.3198-1.785 0.2844-3.581 0.5864-5.321 1.048-0.573 0.1518-1.133 0.3374-1.68 0.5531-0.414 0.1629-2.062 0.6745-2.262 1.1695-0.333 0.8236 0.784 0.4503 1.13 0.2709 0.304-0.1571 0.616-0.3037 0.933-0.4386 0.797-0.3398 1.628-0.6025 2.477-0.8116 0.918-0.2261 1.855-0.3949 2.788-0.5639 0.87-0.1574 1.743-0.3007 2.617-0.4376 0.486-0.0762 0.972-0.1501 1.459-0.224 0.166-0.0253 0.459-0.1577 0.436 0.0411 1.023-0.1814 2.128-0.1552 3.169-0.2053 1.275-0.0612 2.555-0.1114 3.835-0.0747 0.923 0.0265 1.846 0.0822 2.765 0.1964 0.536 0.0668 1.064 0.1644 1.59 0.288 0.29 0.0679 1.43 0.2119 1.587 0.4441-0.067-0.0998-1.326-0.0031-1.486-0.0087-0.641-0.0222-1.276-0.0806-1.914-0.1462-1.185-0.1219-2.37-0.1855-3.558-0.1762 5e-3 0.192 0.816 0.5341 1.014 0.6613 0.444 0.2855 0.87 0.597 1.267 0.9385 0.699 0.6015 1.536 1.3467 2.02 2.0594-0.143-0.2101-0.846-0.4834-1.095-0.6438-0.4-0.2572-0.792-0.5315-1.162-0.8248-0.342-0.2709-0.661-0.5633-0.975-0.862-0.314-0.299-0.74-0.9205-1.153-1.1195-0.025-0.0121-0.204 0.1187-0.307 0.0742-0.102-0.0447-0.231-0.2687-0.257-0.2779-0.384-0.1364-1.113 0.0333-1.517 0.0505-1.046 0.0443-2.092 0.1025-3.138 0.1555-0.324 0.0164-0.6-0.0514-0.722 0.1686-0.13 0.2348 0.109 0.8518 0.177 1.1075 0.252 0.9496 0.7 1.8011 1.405 2.5368 1.32 1.3781 2.949 2.2967 4.788 2.9112 7.046 2.3538 14.542 3.2965 21.586 0.848 2.916-1.0138 7.307-2.8252 6.781-6.3892z" clip-rule="evenodd" fill="#89C5CC" fill-rule="evenodd"/>
<path d="m61.94 72.878c0.2197-0.1106 0.6904-0.0817 0.9128-0.0877 0.9241-0.0246 1.8577 0.0567 2.7682 0.2145 2.8068 0.4909 5.6112 1.2663 8.2879 2.2309 1.6994 0.6125 3.6385 2.0183 5.48 1.7565 3.2082-0.4562 6.2701 0.1242 8.9091 2.0267 2.4128 1.7397 3.9909 4.523 4.7019 7.3581 0.1073 0.428 0.5683 2.0146 0.5997 3.0358 0.0515 0.2166 0.0994 0.434 0.1386 0.653 0.1112 0.6218 0.1986 1.2501 0.2724 1.8772 0.0316 0.2676 0.1245 0.8623-0.1203 0.9318 0.2434 0.7419 0.4422 1.4976 0.5836 2.2666 0.4111 2.2366 0.8594 4.6895 0.7457 6.9649-0.042 0.842-0.182 1.673-0.419 2.483-0.1172 0.401-0.2404 1.226-0.566 1.489-0.691 0.559-0.8272-0.415-0.686-0.843 1.0771-3.264 0.6636-6.5759 0.0731-9.9218-0.3818-2.1636-1.2662-4.2357-2.3262-6.1572-0.8578-1.5553-1.8455-2.8342-3.1889-3.9996-1.6428-1.4252-3.4492-2.6602-5.2371-3.8949-1.1759-0.8123-2.356-1.609-3.5817-2.3457-0.2726-0.1639-0.6819-0.5339-1.0057-0.5912-0.6846-0.1213-1.7448 0.2258-2.4397 0.3027-2.2858 0.2535-4.6301 0.679-6.9354 0.6112-1.4786-0.0433-2.79-0.5103-4.0545-1.2341-0.1292-0.0738-0.3381-0.2426-0.5894-0.4754-0.9337-0.5664-1.7957-1.225-2.4973-2.0811-0.4042-0.4933-0.7435-1.0991-1.0527-1.6534-0.0925-0.1656-0.1157-0.3413-0.0901-0.4998-0.0809-0.063-0.1304-0.1287-0.1325-0.1958-0.0153-0.4954 0.8814-0.349 1.4495-0.2212z" clip-rule="evenodd" fill="#89C5CC" fill-rule="evenodd"/>
<path d="m47.79 85.04c1.0183-0.836 2.2931-1.466 3.4706-2.0442 6.3019-3.1263 13.955-3.3406 20.364-0.6972 5.4558 2.2505 8.9417 6.74 12.192 11.419 0.3226 0.4646 0.6054 0.9455 0.8995 1.4261 0.0631 0.1031 0.1243 0.1926 0.1834 0.276 0.3849 0.0989 0.6639 0.3011 0.6615 0.6819 1.2316 0.9659 2.39 2.0099 3.4993 3.1305 3.2649 3.299 6.5897 6.661 7.9335 11.201-1.3511-2.184-2.9297-4.318-4.5379-6.323-0.0924-0.115-0.1864-0.228-0.2813-0.34-0.0099-0.012-0.0196-0.024-0.0295-0.036-0.5144-0.603-1.0669-1.16-1.6596-1.684-0.0064-6e-3 -0.0126-0.012-0.019-0.017-0.0781-0.069-0.1581-0.136-0.2376-0.204-0.1646-0.14-0.331-0.278-0.5016-0.414-0.0578-0.046-0.115-0.093-0.1713-0.141-0.8394-0.717-1.522-1.6588-2.3386-2.4266-0.1897-0.1726-0.3826-0.3425-0.5789-0.5092-0.0115-0.0097-0.0231-0.0194-0.0347-0.0291-0.5293-0.4481-1.0799-0.8765-1.6424-1.2913-0.208-0.035-0.4312-0.272-0.6907-0.4583-0.0524-0.036-0.4327-0.2607-0.5934-0.4201-0.3235-0.2291-0.6465-0.4587-0.9709-0.6868 0.0059-7e-4 0.0117-0.0014 0.0176-0.0021-0.3182-0.2155-0.6362-0.4296-0.9523-0.643-0.0694-0.0469-0.1393-0.0936-0.2092-0.1406-0.1122-0.0742-0.2244-0.1482-0.3363-0.2222-1.0474-0.6917-2.1178-1.3469-3.2046-1.9789-0.3878-0.2255-1.1497-0.4433-1.442-0.77-0.0108-0.0123-0.0183-0.0248-0.0275-0.0372-2.2459-1.1525-4.6172-2.0618-7.1097-2.4675 0.3388 0.1222 1.2115 0.6791 1.4151 0.7735 0.6232 0.2892 1.2616 0.5286 1.9043 0.7727 1.1511 0.4373 2.298 0.9093 3.39 1.4705 1.9968 1.0264 3.8775 2.2198 5.7209 3.4758 0.0143 0.0056 0.0291 0.0103 0.043 0.0163 0.7763 0.3385 1.5288 1.0659 2.2145 1.5569-1.6794 0.073-3.3908 0.4373-5.0701 0.5985-1.6745 0.161-3.3433 0.2398-5.0204 0.1873-2.2291-0.0697-4.5865-0.2301-6.8567-0.6156-2.4733-0.1921-4.8698-0.9735-7.1213-1.9286-2.6639-1.13-5.1988-2.3481-7.3652-4.2683-1.0643-0.9436-2.0566-1.9879-2.909-3.122-0.0372-0.0494-0.0794-0.1021-0.1237-0.1565-0.4396-0.3172-0.861-0.656-1.256-1.0211-0.6268-0.5788-1.6459-1.0465-0.6176-1.8904z" clip-rule="evenodd" fill="#69A1AC" fill-rule="evenodd"/>
<path d="m94 42.005c0-1.1046 0.8886-2 1.9847-2h61.03c1.096 0 1.985 0.8954 1.985 2v23c0 1.1046-0.889 2-1.985 2h-61.03c-1.0961 0-1.9847-0.8954-1.9847-2v-23z" fill="#fff"/>
<path d="m113 49.486c0-0.8182 0.681-1.4815 1.521-1.4815h33.958c0.84 0 1.521 0.6633 1.521 1.4815v1.037c0 0.8182-0.681 1.4815-1.521 1.4815h-33.958c-0.84 0-1.521-0.6633-1.521-1.4815v-1.037z" fill="#DDE3E9"/>
<path d="m113 56.486c0-0.8182 0.685-1.4815 1.531-1.4815h21.938c0.846 0 1.531 0.6633 1.531 1.4815v1.037c0 0.8182-0.685 1.4815-1.531 1.4815h-21.938c-0.846 0-1.531-0.6633-1.531-1.4815v-1.037z" fill="#DDE3E9"/>
<path d="m104 59.005c3.314 0 6-2.6863 6-6s-2.686-6-6-6-6 2.6863-6 6 2.686 6 6 6z" clip-rule="evenodd" fill="#C5CFD6" fill-rule="evenodd"/>
<path d="m94 73.005c0-1.1046 0.8886-2 1.9847-2h61.03c1.096 0 1.985 0.8954 1.985 2v17c0 1.1046-0.889 2-1.985 2h-61.03c-1.0961 0-1.9847-0.8954-1.9847-2v-17z" fill="#fff"/>
<path d="m113 78.434c0-0.789 0.681-1.4286 1.521-1.4286h33.958c0.84 0 1.521 0.6396 1.521 1.4286v0.1428c0 0.789-0.681 1.4286-1.521 1.4286h-33.958c-0.84 0-1.521-0.6396-1.521-1.4286v-0.1428z" fill="#DDE3E9"/>
<path d="m113 83.434c0-0.789 0.685-1.4286 1.531-1.4286h21.938c0.846 0 1.531 0.6396 1.531 1.4286v0.1428c0 0.789-0.685 1.4286-1.531 1.4286h-21.938c-0.846 0-1.531-0.6396-1.531-1.4286v-0.1428z" fill="#DDE3E9"/>
<path d="m104 87.005c3.314 0 6-2.6863 6-6s-2.686-6-6-6-6 2.6863-6 6 2.686 6 6 6z" clip-rule="evenodd" fill="#C5CFD6" fill-rule="evenodd"/>
<path d="m94 98.005c0-1.1046 0.8886-2 1.9847-2h61.03c1.096 0 1.985 0.8954 1.985 2v17c0 1.104-0.889 2-1.985 2h-61.03c-1.0961 0-1.9847-0.896-1.9847-2v-17z" fill="#fff"/>
<path d="m113 103.43c0-0.789 0.681-1.428 1.521-1.428h33.958c0.84 0 1.521 0.639 1.521 1.428v0.143c0 0.789-0.681 1.429-1.521 1.429h-33.958c-0.84 0-1.521-0.64-1.521-1.429v-0.143z" fill="#DDE3E9"/>
<path d="m113 108.43c0-0.789 0.685-1.428 1.531-1.428h21.938c0.846 0 1.531 0.639 1.531 1.428v0.143c0 0.789-0.685 1.429-1.531 1.429h-21.938c-0.846 0-1.531-0.64-1.531-1.429v-0.143z" fill="#DDE3E9"/>
<path d="m104 112c3.314 0 6-2.686 6-6s-2.686-6-6-6-6 2.686-6 6 2.686 6 6 6z" clip-rule="evenodd" fill="#AFB9C5" fill-rule="evenodd"/>
<path d="m94 123c0-1.105 0.8886-2 1.9847-2h61.03c1.096 0 1.985 0.895 1.985 2v17c0 1.104-0.889 2-1.985 2h-61.03c-1.0961 0-1.9847-0.896-1.9847-2v-17z" fill="#fff"/>
<path d="m113 128.43c0-0.789 0.681-1.429 1.521-1.429h33.958c0.84 0 1.521 0.64 1.521 1.429v0.143c0 0.789-0.681 1.428-1.521 1.428h-33.958c-0.84 0-1.521-0.639-1.521-1.428v-0.143z" fill="#DDE3E9"/>
<path d="m113 133.43c0-0.789 0.685-1.429 1.531-1.429h21.938c0.846 0 1.531 0.64 1.531 1.429v0.143c0 0.789-0.685 1.428-1.531 1.428h-21.938c-0.846 0-1.531-0.639-1.531-1.428v-0.143z" fill="#DDE3E9"/>
<path d="m104 137c3.314 0 6-2.686 6-6 0-3.313-2.686-6-6-6s-6 2.687-6 6c0 3.314 2.686 6 6 6z" clip-rule="evenodd" fill="#C5CFD6" fill-rule="evenodd"/>
<path d="m195 42.005c0-1.1046 0.889-2 1.985-2h61.03c1.096 0 1.985 0.8954 1.985 2v23c0 1.1046-0.889 2-1.985 2h-61.03c-1.096 0-1.985-0.8954-1.985-2v-23z" fill="#fff"/>
<path d="m214 49.486c0-0.8182 0.681-1.4815 1.521-1.4815h33.958c0.84 0 1.521 0.6633 1.521 1.4815v1.037c0 0.8182-0.681 1.4815-1.521 1.4815h-33.958c-0.84 0-1.521-0.6633-1.521-1.4815v-1.037z" fill="#DDE3E9"/>
<path d="m214 56.486c0-0.8182 0.685-1.4815 1.531-1.4815h21.938c0.846 0 1.531 0.6633 1.531 1.4815v1.037c0 0.8182-0.685 1.4815-1.531 1.4815h-21.938c-0.846 0-1.531-0.6633-1.531-1.4815v-1.037z" fill="#DDE3E9"/>
<path d="m205 59.005c3.314 0 6-2.6863 6-6s-2.686-6-6-6-6 2.6863-6 6 2.686 6 6 6z" clip-rule="evenodd" fill="#C5CFD6" fill-rule="evenodd"/>
<path d="m195 73.005c0-1.1046 0.889-2 1.985-2h61.03c1.096 0 1.985 0.8954 1.985 2v17c0 1.1046-0.889 2-1.985 2h-61.03c-1.096 0-1.985-0.8954-1.985-2v-17z" fill="#fff"/>
<path d="m214 78.434c0-0.789 0.681-1.4286 1.521-1.4286h33.958c0.84 0 1.521 0.6396 1.521 1.4286v0.1428c0 0.789-0.681 1.4286-1.521 1.4286h-33.958c-0.84 0-1.521-0.6396-1.521-1.4286v-0.1428z" fill="#DDE3E9"/>
<path d="m214 83.434c0-0.789 0.685-1.4286 1.531-1.4286h21.938c0.846 0 1.531 0.6396 1.531 1.4286v0.1428c0 0.789-0.685 1.4286-1.531 1.4286h-21.938c-0.846 0-1.531-0.6396-1.531-1.4286v-0.1428z" fill="#DDE3E9"/>
<path d="m205 87.005c3.314 0 6-2.6863 6-6s-2.686-6-6-6-6 2.6863-6 6 2.686 6 6 6z" clip-rule="evenodd" fill="#C5CFD6" fill-rule="evenodd"/>
<path d="m195 98.005c0-1.1046 0.889-2 1.985-2h61.03c1.096 0 1.985 0.8954 1.985 2v17c0 1.104-0.889 2-1.985 2h-61.03c-1.096 0-1.985-0.896-1.985-2v-17z" fill="#fff"/>
<path d="m214 103.43c0-0.789 0.681-1.428 1.521-1.428h33.958c0.84 0 1.521 0.639 1.521 1.428v0.143c0 0.789-0.681 1.429-1.521 1.429h-33.958c-0.84 0-1.521-0.64-1.521-1.429v-0.143z" fill="#DDE3E9"/>
<path d="m214 108.43c0-0.789 0.685-1.428 1.531-1.428h21.938c0.846 0 1.531 0.639 1.531 1.428v0.143c0 0.789-0.685 1.429-1.531 1.429h-21.938c-0.846 0-1.531-0.64-1.531-1.429v-0.143z" fill="#DDE3E9"/>
<path d="m205 112c3.314 0 6-2.686 6-6s-2.686-6-6-6-6 2.686-6 6 2.686 6 6 6z" clip-rule="evenodd" fill="#AFB9C5" fill-rule="evenodd"/>
<path d="m195 123c0-1.105 0.889-2 1.985-2h61.03c1.096 0 1.985 0.895 1.985 2v17c0 1.104-0.889 2-1.985 2h-61.03c-1.096 0-1.985-0.896-1.985-2v-17z" fill="#fff"/>
<path d="m214 128.43c0-0.789 0.681-1.429 1.521-1.429h33.958c0.84 0 1.521 0.64 1.521 1.429v0.143c0 0.789-0.681 1.428-1.521 1.428h-33.958c-0.84 0-1.521-0.639-1.521-1.428v-0.143z" fill="#DDE3E9"/>
<path d="m214 133.43c0-0.789 0.685-1.429 1.531-1.429h21.938c0.846 0 1.531 0.64 1.531 1.429v0.143c0 0.789-0.685 1.428-1.531 1.428h-21.938c-0.846 0-1.531-0.639-1.531-1.428v-0.143z" fill="#DDE3E9"/>
<path d="m205 137c3.314 0 6-2.686 6-6 0-3.313-2.686-6-6-6s-6 2.687-6 6c0 3.314 2.686 6 6 6z" clip-rule="evenodd" fill="#C5CFD6" fill-rule="evenodd"/>
<path d="m296 42.005c0-1.1046 0.889-2 1.985-2h61.03c1.096 0 1.985 0.8954 1.985 2v23c0 1.1046-0.889 2-1.985 2h-61.03c-1.096 0-1.985-0.8954-1.985-2v-23z" fill="#fff"/>
<path d="m315 49.486c0-0.8182 0.681-1.4815 1.521-1.4815h33.958c0.84 0 1.521 0.6633 1.521 1.4815v1.037c0 0.8182-0.681 1.4815-1.521 1.4815h-33.958c-0.84 0-1.521-0.6633-1.521-1.4815v-1.037z" fill="#DDE3E9"/>
<path d="m315 56.486c0-0.8182 0.685-1.4815 1.531-1.4815h21.938c0.846 0 1.531 0.6633 1.531 1.4815v1.037c0 0.8182-0.685 1.4815-1.531 1.4815h-21.938c-0.846 0-1.531-0.6633-1.531-1.4815v-1.037z" fill="#DDE3E9"/>
<path d="m306 59.005c3.314 0 6-2.6863 6-6s-2.686-6-6-6-6 2.6863-6 6 2.686 6 6 6z" clip-rule="evenodd" fill="#C5CFD6" fill-rule="evenodd"/>
<path d="m296 73.005c0-1.1046 0.889-2 1.985-2h61.03c1.096 0 1.985 0.8954 1.985 2v17c0 1.1046-0.889 2-1.985 2h-61.03c-1.096 0-1.985-0.8954-1.985-2v-17z" fill="#fff"/>
<path d="m315 78.434c0-0.789 0.681-1.4286 1.521-1.4286h33.958c0.84 0 1.521 0.6396 1.521 1.4286v0.1428c0 0.789-0.681 1.4286-1.521 1.4286h-33.958c-0.84 0-1.521-0.6396-1.521-1.4286v-0.1428z" fill="#DDE3E9"/>
<path d="m315 83.434c0-0.789 0.685-1.4286 1.531-1.4286h21.938c0.846 0 1.531 0.6396 1.531 1.4286v0.1428c0 0.789-0.685 1.4286-1.531 1.4286h-21.938c-0.846 0-1.531-0.6396-1.531-1.4286v-0.1428z" fill="#DDE3E9"/>
<path d="m306 87.005c3.314 0 6-2.6863 6-6s-2.686-6-6-6-6 2.6863-6 6 2.686 6 6 6z" clip-rule="evenodd" fill="#C5CFD6" fill-rule="evenodd"/>
<path d="m296 98.005c0-1.1046 0.889-2 1.985-2h61.03c1.096 0 1.985 0.8954 1.985 2v17c0 1.104-0.889 2-1.985 2h-61.03c-1.096 0-1.985-0.896-1.985-2v-17z" fill="#fff"/>
<path d="m315 103.43c0-0.789 0.681-1.428 1.521-1.428h33.958c0.84 0 1.521 0.639 1.521 1.428v0.143c0 0.789-0.681 1.429-1.521 1.429h-33.958c-0.84 0-1.521-0.64-1.521-1.429v-0.143z" fill="#DDE3E9"/>
<path d="m315 108.43c0-0.789 0.685-1.428 1.531-1.428h21.938c0.846 0 1.531 0.639 1.531 1.428v0.143c0 0.789-0.685 1.429-1.531 1.429h-21.938c-0.846 0-1.531-0.64-1.531-1.429v-0.143z" fill="#DDE3E9"/>
<path d="m306 112c3.314 0 6-2.686 6-6s-2.686-6-6-6-6 2.686-6 6 2.686 6 6 6z" clip-rule="evenodd" fill="#AFB9C5" fill-rule="evenodd"/>
<path d="m296 123c0-1.105 0.889-2 1.985-2h61.03c1.096 0 1.985 0.895 1.985 2v17c0 1.104-0.889 2-1.985 2h-61.03c-1.096 0-1.985-0.896-1.985-2v-17z" fill="#fff"/>
<path d="m315 128.43c0-0.789 0.681-1.429 1.521-1.429h33.958c0.84 0 1.521 0.64 1.521 1.429v0.143c0 0.789-0.681 1.428-1.521 1.428h-33.958c-0.84 0-1.521-0.639-1.521-1.428v-0.143z" fill="#DDE3E9"/>
<path d="m315 133.43c0-0.789 0.685-1.429 1.531-1.429h21.938c0.846 0 1.531 0.64 1.531 1.429v0.143c0 0.789-0.685 1.428-1.531 1.428h-21.938c-0.846 0-1.531-0.639-1.531-1.428v-0.143z" fill="#DDE3E9"/>
<path d="m306 137c3.314 0 6-2.686 6-6 0-3.313-2.686-6-6-6s-6 2.687-6 6c0 3.314 2.686 6 6 6z" clip-rule="evenodd" fill="#C5CFD6" fill-rule="evenodd"/>
<g clip-path="url(#b)" fill="#AFB9C5">
<path d="m173.2 113.3 8-8c0.3-0.2 0.4-0.6 0.4-0.9 0-0.4-0.1-0.7-0.4-1l-8-8c-0.2-0.2-0.6-0.4-0.9-0.4s-0.7 0.1-0.9 0.4c-0.3 0.3-0.4 0.6-0.4 1s0.1 0.7 0.4 0.9l7.1 7.1-7.1 7.1c-0.3 0.3-0.4 0.6-0.4 1s0.1 0.7 0.4 0.9c0.2 0.3 0.6 0.4 0.9 0.4s0.7-0.2 0.9-0.5z"/>
<path d="m179.4 87.3-8-8c-0.3-0.2-0.4-0.6-0.4-0.9 0-0.4 0.1-0.7 0.4-1l8-8c0.2-0.2 0.6-0.4 0.9-0.4s0.7 0.1 0.9 0.4c0.3 0.3 0.4 0.6 0.4 1s-0.1 0.7-0.4 0.9l-7.1 7.1 7.1 7.1c0.3 0.3 0.4 0.6 0.4 1s-0.1 0.7-0.4 0.9c-0.2 0.3-0.6 0.4-0.9 0.4s-0.7-0.2-0.9-0.5z"/>
</g>
<g clip-path="url(#a)" fill="#AFB9C5">
<path d="m275.2 115.3 8-8c0.3-0.2 0.4-0.6 0.4-0.9 0-0.4-0.1-0.7-0.4-1l-8-8c-0.2-0.2-0.6-0.4-0.9-0.4s-0.7 0.1-0.9 0.4c-0.3 0.3-0.4 0.6-0.4 1s0.1 0.7 0.4 0.9l7.1 7.1-7.1 7.1c-0.3 0.3-0.4 0.6-0.4 1s0.1 0.7 0.4 0.9c0.2 0.3 0.6 0.4 0.9 0.4s0.7-0.2 0.9-0.5z"/>
<path d="m281.4 89.3-8-8c-0.3-0.2-0.4-0.6-0.4-0.9 0-0.4 0.1-0.7 0.4-1l8-8c0.2-0.2 0.6-0.4 0.9-0.4s0.7 0.1 0.9 0.4c0.3 0.3 0.4 0.6 0.4 1s-0.1 0.7-0.4 0.9l-7.1 7.1 7.1 7.1c0.3 0.3 0.4 0.6 0.4 1s-0.1 0.7-0.4 0.9c-0.2 0.3-0.6 0.4-0.9 0.4s-0.7-0.2-0.9-0.5z"/>
</g>
<defs>
<clipPath id="b">
<rect x="171" y="69" width="10.6" height="44.8" fill="#fff"/>
</clipPath>
<clipPath id="a">
<rect x="273" y="71" width="10.6" height="44.8" fill="#fff"/>
</clipPath>
</defs>
</svg>
