<svg width="183" height="50" viewBox="0 0 183 50" fill="none" xmlns="http://www.w3.org/2000/svg">
<path d="M76.1874 37.0274V22.4418C76.1874 20.2889 75.7569 18.7281 74.9499 17.7055C74.1428 16.7367 72.7977 16.1985 70.9145 16.1985C70.0536 16.1985 69.139 16.4676 68.1705 16.952C67.202 17.4364 66.4487 18.0284 65.8569 18.7819V37.0274H59.9922V11.7852H64.2427L65.3188 14.1533C66.933 12.2696 69.3004 11.3008 72.421 11.3008C75.4341 11.3008 77.8015 12.2157 79.5233 13.9918C81.245 15.768 82.1059 18.2976 82.1059 21.5268V37.0274H76.1874Z" fill="white"/>
<path d="M102.284 37.0274V22.4418C102.284 20.2889 101.854 18.7281 101.047 17.7055C100.239 16.7367 98.8944 16.1985 97.0112 16.1985C96.1503 16.1985 95.2356 16.4676 94.2672 16.952C93.2987 17.4364 92.5454 18.0284 91.9536 18.7819V37.0274H86.0889V11.7852H90.3394L91.4155 14.1533C93.0297 12.2696 95.3971 11.3008 98.5177 11.3008C101.531 11.3008 103.898 12.2157 105.62 13.9918C107.342 15.768 108.203 18.2976 108.203 21.5268V37.0274H102.284Z" fill="white"/>
<path d="M110.461 24.3255C110.461 20.5042 111.591 17.3288 113.797 14.9068C116.003 12.4849 118.962 11.3008 122.567 11.3008C126.387 11.3008 129.4 12.4849 131.499 14.7992C133.597 17.1135 134.673 20.2889 134.673 24.3255C134.673 28.3621 133.597 31.5376 131.445 33.9057C129.293 36.2739 126.333 37.4579 122.567 37.4579C118.747 37.4579 115.734 36.2739 113.635 33.8519C111.537 31.4838 110.461 28.3083 110.461 24.3255ZM116.595 24.3255C116.595 29.8691 118.585 32.6678 122.621 32.6678C124.45 32.6678 125.903 31.9682 126.979 30.515C128.055 29.0618 128.593 27.0166 128.593 24.3255C128.593 18.8358 126.602 16.0909 122.621 16.0909C120.791 16.0909 119.339 16.7906 118.263 18.2437C117.133 19.7507 116.595 21.7421 116.595 24.3255Z" fill="white"/>
<path d="M147.426 37.5127H145.327L133.921 11.7861H140.377L146.404 27.179L152.86 11.7861H159.101L147.426 37.5127Z" fill="white"/>
<path d="M182.506 26.2121H164.481C164.589 28.2035 165.288 29.7643 166.58 30.8946C167.871 32.0248 169.539 32.563 171.691 32.563C174.381 32.563 176.426 31.8633 177.825 30.464L180.085 34.985C177.986 36.6534 174.919 37.5146 170.83 37.5146C166.956 37.5146 163.943 36.3843 161.684 34.1238C159.424 31.8633 158.348 28.7417 158.348 24.7051C158.348 20.7223 159.585 17.4931 162.006 15.0711C164.481 12.5953 167.387 11.3574 170.83 11.3574C174.489 11.3574 177.448 12.4338 179.654 14.6405C181.86 16.8472 182.99 19.5921 182.99 22.9828C183.044 23.6825 182.883 24.7589 182.506 26.2121ZM164.75 21.7988H177.125C176.695 18.0851 174.65 16.2552 170.992 16.2552C167.602 16.2552 165.557 18.0851 164.75 21.7988Z" fill="white"/>
<path d="M39.8149 0L31.1523 12.4865L31.3676 31.5931L39.8149 50V0Z" fill="white"/>
<path d="M0 0V50L21.6832 30.8934L21.737 12.4865L0 0Z" fill="white"/>
<path d="M55.5249 15.2307V11.7861H49.6064V17.5988L55.5249 15.2307Z" fill="white"/>
<path d="M49.6064 19.1074V37.0299H55.5249V16.7393L49.6064 19.1074Z" fill="white"/>
</svg>
