<svg width="461" height="316" viewBox="0 0 461 316" fill="none" xmlns="http://www.w3.org/2000/svg">
<path d="M461 302.299C461 309.684 357.829 315.697 230.5 315.697C103.171 315.697 0 309.684 0 302.299C0 294.915 103.171 288.902 230.5 288.902C357.829 288.902 461 294.915 461 302.299Z" fill="#D9EDEF"/>
<path d="M45.6782 281.728C44.8443 282.847 44.0696 284.009 43.3574 285.21L45.6782 281.728Z" fill="#2E3374"/>
<path d="M45.6782 281.728C44.8443 282.847 44.0696 284.009 43.3574 285.21" stroke="#2E3374" stroke-width="1.5" stroke-miterlimit="10"/>
<path d="M95.0488 58.6129L101.695 58.0854C102.443 58.1438 103.147 58.4662 103.679 58.9952C104.212 59.5243 104.539 60.2254 104.602 60.9734C104.666 61.7214 104.461 62.4676 104.025 63.0787C103.589 63.6898 102.95 64.126 102.222 64.3095L95.1543 64.8369L95.0488 58.6129Z" fill="#FF808C"/>
<path d="M373.547 15.3612H244.003V114.84H373.547V15.3612Z" fill="#D9EDEF"/>
<path d="M286.833 26.7544H251.282V57.98H286.833V26.7544Z" fill="white"/>
<path d="M280.82 37.5145H257.4V39.3079H280.82V37.5145Z" fill="#AFDADD"/>
<path d="M280.82 43.1056H257.4V44.899H280.82V43.1056Z" fill="#AFDADD"/>
<path d="M326.497 26.7544H290.946V57.98H326.497V26.7544Z" fill="white"/>
<path d="M320.485 37.5145H297.065V39.3079H320.485V37.5145Z" fill="#AFDADD"/>
<path d="M320.485 43.1056H297.065V44.899H320.485V43.1056Z" fill="#AFDADD"/>
<path d="M366.162 26.7544H330.611V57.98H366.162V26.7544Z" fill="white"/>
<path d="M360.15 37.5145H336.73V39.3079H360.15V37.5145Z" fill="#AFDADD"/>
<path d="M360.15 43.1056H336.73V44.899H360.15V43.1056Z" fill="#AFDADD"/>
<path d="M286.833 67.0522H251.282V102.076H286.833V67.0522Z" fill="white"/>
<path d="M280.82 77.8124H257.4V79.6057H280.82V77.8124Z" fill="#AFDADD"/>
<path d="M280.82 83.4032H257.4V85.1966H280.82V83.4032Z" fill="#AFDADD"/>
<path d="M326.497 67.0522H290.946V102.076H326.497V67.0522Z" fill="white"/>
<path d="M320.485 77.8124H297.065V79.6057H320.485V77.8124Z" fill="#AFDADD"/>
<path d="M320.485 83.4032H297.065V85.1966H320.485V83.4032Z" fill="#AFDADD"/>
<path d="M366.162 67.0522H330.611V102.076H366.162V67.0522Z" fill="white"/>
<path d="M360.15 77.8124H336.73V79.6057H360.15V77.8124Z" fill="#AFDADD"/>
<path d="M360.15 83.4032H336.73V85.1966H360.15V83.4032Z" fill="#AFDADD"/>
<path d="M217.63 173.916C218.194 173.758 218.729 173.508 219.212 173.177C219.852 172.764 220.404 172.228 220.835 171.6C221.266 170.972 221.569 170.265 221.726 169.52C221.883 168.775 221.891 168.006 221.749 167.257C221.607 166.509 221.319 165.796 220.9 165.16C206.975 143.64 212.039 114.418 221.85 90.6826C223.01 87.7288 214.043 85.619 211.09 84.4585C210.39 84.1745 209.641 84.0311 208.886 84.0364C208.131 84.0417 207.385 84.1957 206.689 84.4896C205.994 84.7835 205.363 85.2115 204.833 85.7492C204.303 86.2869 203.884 86.9237 203.6 87.6233C198.108 101.187 195.942 115.867 197.282 130.438C198.621 145.01 203.428 159.049 211.301 171.384C211.928 172.446 212.889 173.271 214.034 173.729C215.179 174.187 216.444 174.253 217.63 173.916Z" fill="white" stroke="#2E3374" stroke-width="1.7" stroke-miterlimit="10"/>
<path d="M196.215 112.519C197.059 103.869 199.485 90.7879 206.659 81.9266C208.557 79.6058 211.933 77.7069 214.992 78.2344C218.896 78.9728 221.111 84.6694 222.06 88.0451C223.643 93.8472 219.74 100.493 217.841 105.979C217.524 107.034 214.887 118.743 214.887 118.743C208.663 116.739 202.439 114.629 196.215 112.519Z" fill="white" stroke="#2E3374" stroke-width="1.7" stroke-miterlimit="10"/>
<path d="M233.137 79.2892C234.31 79.2263 235.41 78.7038 236.2 77.8349C236.99 76.966 237.406 75.8208 237.357 74.6475L236.935 64.5203L227.335 62.1995L228.495 75.0695C228.574 76.2363 229.101 77.3273 229.966 78.114C230.832 78.9006 231.968 79.3218 233.137 79.2892Z" fill="white" stroke="#2E3374" stroke-width="1.7" stroke-miterlimit="10"/>
<path d="M236.829 71.061C239.168 70.8903 241.347 69.8135 242.904 68.06C244.46 66.3064 245.271 64.0145 245.163 61.6722L244.53 50.912C244.359 48.5735 243.283 46.3939 241.529 44.8374C239.775 43.2808 237.484 42.4702 235.141 42.5782C232.803 42.7488 230.623 43.8256 229.067 45.5792C227.51 47.3328 226.699 49.6247 226.807 51.9669L227.44 62.7271C227.508 63.8915 227.804 65.0312 228.313 66.0807C228.821 67.1303 229.532 68.0692 230.404 68.8434C231.277 69.6177 232.293 70.2121 233.396 70.5927C234.498 70.9732 235.665 71.1324 236.829 71.061Z" fill="white" stroke="#2E3374" stroke-width="1.7" stroke-miterlimit="10"/>
<path d="M239.716 270.334L238.076 293.754L248.098 294.455L249.737 271.036L239.716 270.334Z" fill="white" stroke="#2E3374" stroke-width="1.7" stroke-miterlimit="10"/>
<path d="M235.564 290.906C239.098 290.273 247.811 291.55 247.811 291.55C247.811 291.55 258.687 294.43 260.639 297.552C261.884 299.504 258.719 301.149 256.789 301.107L235.247 300.242L235.564 290.906Z" fill="white" stroke="#2E3374" stroke-width="1.7" stroke-miterlimit="10"/>
<path d="M207.925 294.176L212.461 272.867L202.123 269.913L198.009 292.067L207.925 294.176Z" fill="white" stroke="#2E3374" stroke-width="1.7" stroke-miterlimit="10"/>
<path d="M197.576 290.136C201.141 289.767 209.707 291.655 209.707 291.655C209.707 291.655 220.383 295.442 221.987 298.67C223.041 300.685 219.792 302.078 217.862 301.835L196.373 299.156L197.576 290.136Z" fill="white" stroke="#2E3374" stroke-width="1.7" stroke-miterlimit="10"/>
<path d="M302.973 69.6895C299.808 68.5291 295.694 69.584 295.166 73.5927C289.997 108.616 263.519 88.6781 247.484 76.9684C245.479 75.4916 239.994 83.298 238.939 85.8298C237.884 88.3616 237.357 91.9483 240.205 94.0582C266.261 113.258 305.188 116.106 306.77 75.0696C306.785 73.8871 306.425 72.7301 305.743 71.764C305.061 70.7978 304.092 70.0718 302.973 69.6895Z" fill="white" stroke="#2E3374" stroke-width="1.7" stroke-miterlimit="10"/>
<path d="M248.434 284.366C248.539 283.1 260.038 191.638 254.13 114.946L227.656 128.576C230.927 204.741 236.091 282.889 236.091 283.522L248.434 284.366Z" fill="#2E3374" stroke="#2E3374" stroke-width="1.7" stroke-miterlimit="10"/>
<path d="M204.444 163.05C200.119 146.488 208.769 126.655 219.846 122.119C225.437 126.866 227.808 121.613 233.399 126.36C239.412 172.46 225.964 242.169 210.668 286.265L198.431 283.416C206.343 246.072 206.132 203.981 204.444 163.05Z" fill="#2E3374" stroke="#2E3374" stroke-width="1.7" stroke-miterlimit="10"/>
<path d="M273.33 88.5726C266.77 86.7369 260.566 83.8128 254.974 79.9223C249.634 76.2204 243.326 74.1664 236.83 74.0147C223.116 73.6982 202.65 74.9641 202.65 93.2142L209.402 127.816H256.979C256.979 127.816 258.456 115.157 259.511 105.135C261.922 106.088 264.388 106.898 266.895 107.561C270.06 101.865 271.115 95.5351 273.33 88.5726Z" fill="white" stroke="#2E3374" stroke-width="1.7" stroke-miterlimit="10"/>
<path d="M245.902 36.9869C240.733 32.9782 230.289 35.088 221.744 40.3626C221.192 40.7147 220.664 41.1023 220.162 41.5231C216.048 45.4263 216.47 51.7558 216.47 56.9249C216.47 63.7819 209.929 71.1663 213.832 77.9178C214.783 79.4753 216.233 80.6651 217.946 81.2935C224.276 83.7199 229.445 79.2892 232.504 74.2256C235.76 69.1678 237.65 63.3525 237.99 57.3469C241.26 56.6084 244.108 54.0766 246.429 51.3338C249.911 47.2196 250.122 40.2572 245.902 36.9869Z" fill="#15ADC2" stroke="#2E3374" stroke-width="1.7" stroke-miterlimit="10"/>
<path d="M124.27 235.207C122.899 253.246 165.095 256.41 166.467 238.371C167.838 220.332 161.298 180.562 149.588 179.612C137.878 178.663 125.641 217.167 124.27 235.207Z" fill="#D9EDEF"/>
<path d="M144.946 276.77C144.694 276.77 144.452 276.67 144.274 276.492C144.096 276.314 143.996 276.073 143.996 275.821V212.104C143.996 211.852 144.096 211.61 144.274 211.432C144.452 211.254 144.694 211.154 144.946 211.154C145.197 211.154 145.439 211.254 145.617 211.432C145.795 211.61 145.895 211.852 145.895 212.104V275.821C145.895 276.073 145.795 276.314 145.617 276.492C145.439 276.67 145.197 276.77 144.946 276.77Z" fill="white"/>
<path d="M145.895 250.503H143.996V275.821H145.895V250.503Z" fill="#AFDADD"/>
<path d="M130.283 295.443H159.926L166.361 260.419H123.742L130.283 295.443Z" fill="#AFDADD"/>
<path d="M379.31 273.471L369.535 274.309L371.481 297.012L381.256 296.174L379.31 273.471Z" fill="white" stroke="#2E3374" stroke-width="1.7" stroke-miterlimit="10"/>
<path d="M381.88 295.326C378.431 294.841 369.822 294.947 369.822 294.947C369.822 294.947 359.368 298.354 357.638 301.445C356.583 303.449 359.748 304.757 361.52 304.747L382.439 302.711L381.88 295.326Z" fill="#2E3374" stroke="#2E3374" stroke-width="1.7" stroke-miterlimit="10"/>
<path d="M367.323 288.691C361.099 250.292 359.306 177.819 366.479 139.631C375.552 140.791 387.578 141.213 396.65 142.057C389.477 179.929 379.666 250.397 383.147 288.058L367.323 288.691Z" fill="white" stroke="#2E3374" stroke-width="1.7" stroke-miterlimit="10"/>
<path d="M307.931 112.203C308.246 111.201 308.823 110.302 309.602 109.597C310.381 108.893 311.333 108.408 312.361 108.194C316.581 107.245 328.607 115.79 333.249 116.423C335.861 116.793 338.522 116.618 341.064 115.91C343.605 115.202 345.973 113.976 348.018 112.309C357.196 104.924 361.837 92.4761 366.479 82.1378C367.85 79.0786 375.868 83.4037 377.977 85.1971C380.087 86.9905 382.514 88.3619 380.931 92.3706C376.29 104.08 369.749 116.528 358.883 123.596C349.284 129.82 337.891 129.715 327.236 126.339C324.322 125.388 321.468 124.26 318.691 122.963C316.476 121.908 314.26 120.959 312.045 119.798C308.986 117.9 306.665 115.579 307.931 112.203Z" fill="white" stroke="#2E3374" stroke-width="1.7" stroke-miterlimit="10"/>
<path d="M384.729 83.6145C385.045 76.863 376.395 71.9048 369.644 76.7575C358.039 85.1968 357.301 126.655 325.653 113.363C323.86 117.794 322.172 122.541 320.906 126.339C361.415 144.272 383.463 112.519 384.729 83.6145Z" fill="#D5401A" stroke="#2E3374" stroke-width="1.7" stroke-miterlimit="10"/>
<path d="M423.854 271.456L414.194 273.173L418.293 296.231L427.953 294.514L423.854 271.456Z" fill="white" stroke="#2E3374" stroke-width="1.7" stroke-miterlimit="10"/>
<path d="M428.91 294.672C425.46 294.219 416.873 294.187 416.873 294.187C416.873 294.187 406.324 297.531 404.689 300.516C403.571 302.457 406.725 303.924 408.561 303.839L429.532 302.078L428.91 294.672Z" fill="#2E3374" stroke="#2E3374" stroke-width="1.7" stroke-miterlimit="10"/>
<path d="M413.528 290.273C404.772 247.021 389.957 199.469 388.797 156.428C398.819 155.479 407.84 142.057 417.862 141.002C419.339 187.207 423.233 242.38 429.141 287.636C429.352 287.741 417.326 289.851 413.528 290.273Z" fill="white" stroke="#2E3374" stroke-width="1.7" stroke-miterlimit="10"/>
<path d="M420.385 88.256C419.752 70.3224 399.603 69.7949 386.1 70.6389C374.496 71.3773 362.681 76.8629 363.103 90.3659C363.103 90.3659 361.415 117.583 360.255 144.378C359.833 152.923 359.938 159.556 359.938 159.556C359.938 159.556 373.441 164.197 423.867 158.817L420.385 88.256Z" fill="#D5401A" stroke="#2E3374" stroke-width="1.7" stroke-miterlimit="10"/>
<path d="M388.421 75.1751C387.858 75.1892 387.298 75.0904 386.774 74.8847C386.249 74.6789 385.772 74.3704 385.369 73.9771C384.966 73.5839 384.645 73.1139 384.427 72.595C384.208 72.076 384.096 71.5186 384.096 70.9554L383.99 61.0392L393.168 58.2964L392.746 70.8499C392.752 71.4195 392.644 71.9845 392.428 72.5118C392.213 73.0391 391.895 73.5181 391.492 73.9209C391.089 74.3236 390.61 74.642 390.083 74.8574C389.555 75.0727 388.99 75.1807 388.421 75.1751Z" fill="white" stroke="#2E3374" stroke-width="1.7" stroke-miterlimit="10"/>
<path d="M386.628 51.2285L380.299 49.4351C379.911 49.3243 379.505 49.2909 379.104 49.337C378.703 49.383 378.316 49.5076 377.963 49.7035C377.61 49.8994 377.3 50.1629 377.049 50.4788C376.798 50.7948 376.612 51.157 376.501 51.5449C376.39 51.9328 376.357 52.3388 376.403 52.7395C376.449 53.1403 376.573 53.5281 376.769 53.8807C376.965 54.2334 377.229 54.544 377.545 54.7948C377.861 55.0457 378.223 55.2318 378.611 55.3426L385.257 57.2415L386.628 51.2285Z" fill="white" stroke="#2E3374" stroke-width="1.7" stroke-miterlimit="10"/>
<path d="M389.793 57.1358L396.122 58.9292C396.51 59.04 396.916 59.0734 397.317 59.0273C397.718 58.9813 398.106 58.8567 398.458 58.6608C398.811 58.4649 399.122 58.2014 399.372 57.8855C399.623 57.5695 399.809 57.2073 399.92 56.8194C400.031 56.4315 400.064 56.0255 400.018 55.6248C399.972 55.224 399.848 54.8362 399.652 54.4836C399.456 54.1309 399.192 53.8203 398.876 53.5695C398.561 53.3186 398.198 53.1325 397.81 53.0217L391.164 51.1228L389.793 57.1358Z" fill="white" stroke="#2E3374" stroke-width="1.7" stroke-miterlimit="10"/>
<path d="M384.275 65.8603C381.891 65.1639 379.878 63.5538 378.675 61.3805C377.472 59.2073 377.176 56.6467 377.851 54.2562L381.016 43.2428C381.717 40.8618 383.328 38.8532 385.501 37.6525C387.673 36.4518 390.231 36.1559 392.62 36.8289C395.003 37.5277 397.014 39.1382 398.217 41.3108C399.42 43.4833 399.717 46.0426 399.044 48.433L395.827 59.4464C395.502 60.6334 394.942 61.7434 394.182 62.7114C393.422 63.6794 392.476 64.4857 391.4 65.0832C390.324 65.6807 389.14 66.0572 387.916 66.1906C386.693 66.324 385.455 66.2117 384.275 65.8603Z" fill="white" stroke="#2E3374" stroke-width="1.7" stroke-miterlimit="10"/>
<path d="M395.279 55.6591C396.882 57.7689 398.834 52.3361 399.066 51.4394C399.697 49.4384 399.849 47.3172 399.51 45.2467C399.171 43.1762 398.35 41.2142 397.114 39.5188C395.004 36.8815 387.367 28.0518 380.837 32.9783C376.712 36.0798 376.712 43.0739 380.489 45.3631C383.474 47.3147 389.656 46.9666 392.188 49.5828C394.013 51.1862 393.791 53.7075 395.279 55.6591Z" fill="#2E3374" stroke="#2E3374" stroke-width="1.7" stroke-miterlimit="10"/>
<path d="M416.271 170.434C415.688 170.394 415.117 170.251 414.583 170.012C411.84 168.43 410.574 165.687 411.84 162.628C421.862 137.943 424.71 120.958 412.473 98.6996C410.996 95.9568 411.735 91.6316 414.267 90.4712C416.798 89.3108 416.271 82.2428 417.853 85.0911C432.411 110.62 433.572 140.369 422.073 167.164C421.528 168.214 420.689 169.082 419.659 169.663C418.629 170.244 417.451 170.512 416.271 170.434Z" fill="white" stroke="#2E3374" stroke-width="1.7" stroke-miterlimit="10"/>
<path d="M404.878 101.021C409.098 111.253 418.17 114.629 415.005 152.079L427.348 155.349C438.53 118.849 422.495 79.5002 413.95 75.175" fill="#D5401A"/>
<path d="M404.878 101.021C409.098 111.253 418.17 114.629 415.005 152.079L427.348 155.349C438.53 118.849 422.495 79.5002 413.95 75.175" stroke="#2E3374" stroke-width="1.7" stroke-miterlimit="10"/>
<path d="M390.953 77.2848L389.371 75.386C388.385 75.3684 387.399 75.4036 386.417 75.4915L384.94 77.2848C385.362 78.6562 385.679 79.6057 386.101 80.977C385.58 98.8485 383.995 116.673 381.354 134.356C382.303 138.892 383.252 143.534 384.202 148.175C386.206 143.85 388.21 139.631 390.109 135.2C391.129 117.104 391.094 98.9636 390.004 80.8716C390.32 79.8166 390.637 78.5507 390.953 77.2848Z" fill="white" stroke="#2E3374" stroke-width="1.7" stroke-miterlimit="10"/>
<path d="M132.287 13.4623H147.056C148.595 13.4581 150.119 13.7582 151.542 14.3452C152.964 14.9321 154.257 15.7945 155.345 16.8827C156.433 17.9708 157.295 19.2634 157.882 20.6859C158.469 22.1085 158.769 23.633 158.765 25.1719V30.2355C158.769 31.7745 158.469 33.299 157.882 34.7216C157.295 36.1441 156.433 37.4366 155.345 38.5248C154.257 39.613 152.964 40.4753 151.542 41.0623C150.119 41.6493 148.595 41.9493 147.056 41.9452C144.005 44.3118 141.878 47.6703 141.043 51.4394C141.043 44.477 132.287 41.9452 132.287 41.9452C130.748 41.9493 129.223 41.6493 127.801 41.0623C126.378 40.4753 125.086 39.613 123.998 38.5248C122.909 37.4366 122.047 36.1441 121.46 34.7216C120.873 33.299 120.573 31.7745 120.577 30.2355V25.1719C120.588 22.0698 121.826 19.0978 124.019 16.9043C126.213 14.7107 129.185 13.4734 132.287 13.4623Z" fill="#AFDADD"/>
<path d="M178.915 29.2861H193.684C194.143 29.3035 194.603 29.2681 195.055 29.1806C195.899 31.0795 197.903 34.8772 202.65 35.6156C199.908 33.7168 199.697 29.9191 199.802 27.5982C201.543 26.5689 202.984 25.1026 203.983 23.3448C204.982 21.5869 205.505 19.5985 205.499 17.5765V12.5129C205.503 10.974 205.203 9.44943 204.616 8.02687C204.029 6.6043 203.167 5.31179 202.078 4.22362C200.99 3.13545 199.698 2.27308 198.275 1.6861C196.853 1.09912 195.328 0.79909 193.789 0.803266H179.02C177.481 0.79909 175.957 1.09912 174.534 1.6861C173.112 2.27308 171.819 3.13545 170.731 4.22362C169.643 5.31179 168.78 6.6043 168.193 8.02687C167.607 9.44943 167.306 10.974 167.311 12.5129V17.5765C167.304 19.1073 167.598 20.6245 168.178 22.0414C168.757 23.4583 169.61 24.7473 170.688 25.8346C171.765 26.922 173.046 27.7864 174.458 28.3786C175.87 28.9708 177.384 29.2792 178.915 29.2861Z" fill="#AFDADD"/>
<path d="M65.4048 76.6521C67.4091 74.0148 71.4178 73.3818 72.5782 70.3226C73.6332 67.7908 72.4727 66.1029 70.2574 64.0985C68.0421 62.0942 62.029 57.0306 67.7256 54.3933C70.4684 53.1274 75.4265 54.9207 75.6375 50.1736C75.8485 45.4265 75.8485 38.3585 82.0725 40.4683C86.9252 42.1562 87.9801 42.7892 91.7778 38.675C94.5206 35.6157 98.3183 34.3498 101.483 38.5695C102.164 39.7944 102.763 41.0631 103.276 42.3672C104.507 44.5557 106.44 46.2653 108.762 47.2198C110.661 48.1693 112.56 48.6967 113.72 50.5956C114.306 51.4598 114.601 52.4879 114.563 53.5311C114.525 54.5742 114.156 55.5782 113.509 56.3976C110.977 59.7734 107.918 61.5667 109.922 66.1029C111.083 68.7402 113.826 70.0061 114.775 72.9599C115.191 74.6403 115.081 76.408 114.459 78.0235C113.895 79.246 113.022 80.3004 111.927 81.0828C110.555 82.2432 108.762 82.9816 107.496 84.353C106.189 85.8301 105.121 87.5032 104.331 89.3111C101.905 94.9022 101.483 101.759 100.323 107.35C99.0567 113.469 96.6304 118.638 90.3009 119.271C83.9714 119.904 81.2286 115.79 78.0638 110.726C76.165 107.772 75.743 102.076 74.6881 98.8054C72.9593 93.3059 70.0828 88.2361 66.2487 83.931C65.3193 82.8501 64.6996 81.5378 64.4554 80.1333C64.4442 78.9075 64.7728 77.7025 65.4048 76.6521Z" fill="#F8B243" stroke="#2E3374" stroke-width="1.7" stroke-miterlimit="10"/>
<path d="M43.3573 285.21C45.1823 285.832 48.3154 287.32 50.8261 288.501C53.5439 289.805 55.9669 291.65 57.9468 293.923C60.1833 296.497 60.6474 297.753 60.7635 299.768C60.8689 302.088 57.2822 301.877 55.6998 301.034L39.5596 291.75L43.3573 285.21Z" fill="#2E3374" stroke="#2E3374" stroke-width="1.7" stroke-miterlimit="10"/>
<path d="M103.804 295.653C103.91 294.387 118.573 196.28 112.771 119.904L92.5166 143.428C95.6814 219.277 95.6814 293.86 95.6814 294.493L103.804 295.653Z" fill="white" stroke="#2E3374" stroke-width="1.7" stroke-miterlimit="10"/>
<path d="M67.8315 167.375C63.9283 154.927 65.5107 139.209 80.1741 126.972L95.8924 128.66C104.332 197.124 52.4297 285.948 51.0583 288.902L43.6738 284.682C43.8848 284.049 67.1985 222.548 67.8315 167.375Z" fill="white" stroke="#2E3374" stroke-width="1.7" stroke-miterlimit="10"/>
<path d="M119.206 216.007C119.733 185.414 118.784 163.683 114.669 132.457C114.669 132.457 97.3687 131.93 96.9467 129.925H74.7934C58.7586 143.112 57.0708 187.102 57.1763 215.901H119.206V216.007Z" fill="#2E3374" stroke="#2E3374" stroke-width="1.7" stroke-miterlimit="10"/>
<path d="M181.235 131.086C181.378 130.499 181.414 129.892 181.34 129.292C181.24 127.768 180.54 126.346 179.393 125.338C178.246 124.329 176.746 123.817 175.222 123.912C149.798 125.6 126.696 107.034 110.872 87.0955C108.867 84.5637 102.749 91.4207 100.217 93.425C99.0301 94.3637 98.2636 95.7347 98.0856 97.2375C97.9076 98.7404 98.3327 100.252 99.2677 101.442C108.428 112.79 120.167 121.783 133.508 127.674C146.848 133.564 161.404 136.181 175.96 135.305C177.186 135.299 178.374 134.878 179.331 134.113C180.289 133.347 180.959 132.28 181.235 131.086Z" fill="white" stroke="#2E3374" stroke-width="1.7" stroke-miterlimit="10"/>
<path d="M119.522 122.541C112.454 117.583 100.111 106.612 95.8916 96.0626C94.7312 93.3198 94.7312 89.4166 96.7356 86.9903C99.2674 83.931 106.757 85.4079 110.133 86.2519C116.041 87.7287 119.944 98.3834 131.864 106.823C127.434 112.519 124.374 118.11 119.522 122.541Z" fill="white" stroke="#2E3374" stroke-width="1.7" stroke-miterlimit="10"/>
<path d="M69.6249 152.606C70.4598 152.145 71.0975 151.394 71.4183 150.496C72.7896 146.804 68.57 143.323 66.3546 141.002C63.0118 137.612 60.2019 133.735 58.0208 129.503C55.1725 123.807 54.3285 116.844 58.6537 111.675C63.6118 105.556 71.5238 102.603 78.3807 99.227C79.6466 98.594 80.807 98.0666 82.0729 97.4336C84.8157 96.0622 79.9631 88.0448 78.1697 85.8295C76.3764 83.6142 73.8446 81.3988 70.2578 83.1922C60.7636 88.1503 49.8979 93.8469 43.6739 102.814C37.4498 111.781 40.0871 122.963 45.2562 131.824C49.2649 138.681 55.5945 148.597 62.8734 152.289C64.3291 153.063 65.9794 153.393 67.6205 153.239C68.3294 153.19 69.0165 152.973 69.6249 152.606Z" fill="white" stroke="#2E3374" stroke-width="1.7" stroke-miterlimit="10"/>
<path d="M96.6309 78.8672C89.9849 78.4452 81.7565 78.9727 75.005 81.2935C64.7595 84.1891 55.3788 89.5494 47.6826 96.9063C51.1639 102.392 56.5439 109.038 60.0252 114.523C60.0252 114.523 61.7131 113.152 63.8229 111.57C63.9636 111.481 64.1232 111.428 64.2887 111.413C64.4541 111.398 64.6207 111.422 64.7749 111.484C64.9291 111.546 65.0666 111.643 65.1761 111.768C65.2857 111.893 65.3642 112.042 65.4053 112.203L71.5238 132.457C85.8314 134.527 100.362 134.527 114.67 132.457L120.683 98.0667C120.683 92.0537 106.336 79.5001 96.6309 78.8672Z" fill="white" stroke="#2E3374" stroke-width="1.7" stroke-miterlimit="10"/>
<path d="M92.8331 65.0479L86.1871 65.5753C85.7421 65.6875 85.2781 65.7015 84.8272 65.6164C84.3763 65.5314 83.9492 65.3493 83.5757 65.0828C83.2022 64.8163 82.8911 64.4717 82.6639 64.073C82.4368 63.6743 82.2991 63.231 82.2603 62.7737C82.2216 62.3165 82.2827 61.8563 82.4395 61.4251C82.5963 60.9938 82.845 60.6019 83.1684 60.2763C83.4917 59.9507 83.882 59.6994 84.3122 59.5397C84.7424 59.3799 85.2021 59.3157 85.6596 59.3513L92.7276 58.8239L92.8331 65.0479Z" fill="white" stroke="#2E3374" stroke-width="1.7" stroke-miterlimit="10"/>
<path d="M92.8334 82.5595C93.4091 82.5273 93.9728 82.3813 94.4918 82.1301C95.0109 81.8789 95.4751 81.5274 95.8576 81.0959C96.2401 80.6643 96.5333 80.1613 96.7204 79.6159C96.9075 79.0704 96.9847 78.4933 96.9476 77.9179L96.3146 67.7906L86.7148 65.6808L88.1917 78.5508C88.2835 79.6949 88.8219 80.7568 89.6905 81.507C90.5591 82.2572 91.6882 82.6353 92.8334 82.5595Z" fill="white" stroke="#2E3374" stroke-width="1.7" stroke-miterlimit="10"/>
<path d="M96.2089 74.3311C97.3597 74.2368 98.4805 73.916 99.507 73.3872C100.534 72.8585 101.445 72.1321 102.19 71.2499C102.935 70.3677 103.499 69.347 103.848 68.2465C104.197 67.1459 104.326 65.9872 104.226 64.8368L103.382 54.0766C103.288 52.9258 102.967 51.805 102.438 50.7785C101.91 49.752 101.183 48.8401 100.301 48.0951C99.4189 47.3501 98.3982 46.7868 97.2977 46.4374C96.1971 46.088 95.0384 45.9595 93.888 46.0593C92.7372 46.1536 91.6164 46.4744 90.5899 47.0031C89.5634 47.5319 88.6515 48.2582 87.9065 49.1404C87.1615 50.0226 86.5982 51.0433 86.2488 52.1439C85.8994 53.2444 85.7709 54.4032 85.8707 55.5535L86.7146 66.3137C86.9576 68.6166 88.0811 70.7366 89.8504 72.2306C91.6196 73.7247 93.8978 74.4772 96.2089 74.3311Z" fill="white" stroke="#2E3374" stroke-width="1.7" stroke-miterlimit="10"/>
<path d="M102.01 58.6129C101.483 57.7689 101.377 56.714 100.639 56.1865C100.188 55.919 99.6704 55.7867 99.1467 55.8054C98.6229 55.8241 98.1157 55.993 97.6853 56.292C96.8153 56.8814 96.0339 57.5919 95.3644 58.4019C93.6367 60.0868 91.3415 61.0651 88.9294 61.1447C87.7441 61.1672 86.5739 60.8767 85.5367 60.3025C84.4995 59.7284 83.632 58.8908 83.0219 57.8744C81.8615 55.5536 82.5999 52.8108 84.0768 50.701C85.1564 49.0755 86.5543 47.6859 88.1862 46.6161C89.8181 45.5464 91.65 44.8186 93.5711 44.4769C95.5118 44.139 97.5045 44.2587 99.3909 44.8264C101.277 45.3942 103.005 46.3943 104.437 47.7472C107.074 50.3845 107.602 53.7602 107.496 57.2415C107.391 60.0897 103.804 61.6721 102.01 58.6129Z" fill="#F8B243" stroke="#2E3374" stroke-width="1.7" stroke-miterlimit="10"/>
<path d="M94.3416 294.883C96.3249 294.503 99.9643 294.166 102.781 293.944C105.505 293.717 108.246 294.044 110.841 294.904C113.508 295.632 115.841 297.261 117.444 299.514C118.721 301.445 115.567 303.122 113.752 303.09L94.2783 302.51L94.3416 294.883Z" fill="#2E3374" stroke="#2E3374" stroke-width="1.7" stroke-miterlimit="10"/>
</svg>
