<svg width="201" height="46" viewBox="0 0 201 46" fill="none" xmlns="http://www.w3.org/2000/svg">
<path fill-rule="evenodd" clip-rule="evenodd" d="M65.9983 29.683C65.9344 29.683 65.4555 29.6785 64.5661 29.6739C63.6767 29.6648 62.5729 29.6648 61.2593 29.6648C60.347 29.6648 59.5124 29.6693 58.7506 29.6739C57.9981 29.683 57.3595 29.683 56.835 29.683C56.8486 29.268 56.8578 28.3649 56.8669 26.9783C56.8806 25.5917 56.8897 24.1595 56.8897 22.6817C56.8897 21.8698 56.8851 20.7979 56.8806 19.4615C56.8715 18.1251 56.8578 16.7431 56.835 15.3154C57.3458 15.3154 57.9798 15.32 58.7415 15.3246C59.5078 15.3337 60.3014 15.3337 61.1088 15.3337C62.4817 15.3337 63.5946 15.3291 64.4566 15.3246C65.3187 15.3154 65.7839 15.3154 65.8569 15.3154V16.8115C65.7839 16.8115 65.3324 16.8069 64.5022 16.8024C63.6767 16.7887 62.6459 16.7796 61.4098 16.7796C60.8716 16.7796 60.3425 16.7841 59.8271 16.7887C59.3117 16.7887 58.9012 16.7887 58.6001 16.7887C58.6001 17.6006 58.591 18.4124 58.5773 19.2243C58.5636 20.0271 58.5545 20.7888 58.5545 21.5095C58.8784 21.5095 59.2569 21.514 59.6948 21.5186C60.1372 21.5186 60.5341 21.5186 60.8807 21.5186C62.1441 21.5186 63.2707 21.514 64.2605 21.5095C65.2594 21.4958 65.7885 21.4867 65.8523 21.4867V22.9736C65.793 22.9736 65.2047 22.969 64.0735 22.9645C62.9469 22.9508 61.9161 22.9417 60.981 22.9417C60.6344 22.9417 60.2239 22.9462 59.745 22.9508C59.2706 22.9508 58.8738 22.9508 58.55 22.9508C58.55 24.3054 58.5545 25.3819 58.5591 26.1801C58.5682 26.9783 58.5728 27.6442 58.5819 28.1824C59.0061 28.1915 59.5169 28.1961 60.1235 28.2052C60.7256 28.2052 61.3779 28.2052 62.0712 28.2052C63.1385 28.2052 64.037 28.2007 64.7622 28.1961C65.4966 28.187 65.9025 28.187 65.9892 28.187V29.683H65.9983Z" fill="white"/>
<path fill-rule="evenodd" clip-rule="evenodd" d="M76.9139 23.859H69.128C69.1371 24.6207 69.2968 25.3186 69.6115 25.9571C69.9262 26.5911 70.4097 27.1111 71.0665 27.5307C71.4816 27.7953 71.9559 27.996 72.4896 28.1328C73.0187 28.2605 73.6618 28.3244 74.4053 28.3244C74.8158 28.3244 75.1898 28.3152 75.5273 28.2924C75.8739 28.2696 76.0838 28.2559 76.1613 28.2468L75.9652 29.679C75.9059 29.6881 75.7189 29.6973 75.395 29.7109C75.0712 29.7338 74.6926 29.7429 74.2547 29.7429C73.1053 29.7429 72.1064 29.5969 71.2489 29.3004C70.4006 28.9994 69.7073 28.5843 69.1599 28.0598C68.6947 27.6219 68.2933 27.0609 67.9649 26.3813C67.6411 25.6971 67.4814 24.94 67.4814 24.1099C67.4814 23.2934 67.6046 22.55 67.8463 21.8931C68.0926 21.2318 68.4575 20.6206 68.9456 20.0504C69.3698 19.5624 69.8943 19.1838 70.5192 18.9193C71.1532 18.6547 71.8054 18.5225 72.4805 18.5225C73.1464 18.5225 73.7393 18.6228 74.2593 18.8235C74.7747 19.0242 75.2263 19.3298 75.6048 19.7403C76.029 20.201 76.3529 20.7665 76.5718 21.4416C76.7907 22.1121 76.9048 22.9194 76.9139 23.859ZM75.2445 22.6503C75.1305 21.7609 74.8249 21.063 74.3277 20.5613C73.8397 20.0504 73.192 19.795 72.3892 19.795C71.5865 19.795 70.916 20.055 70.3732 20.5704C69.835 21.0813 69.461 21.7746 69.2512 22.6503H75.2445Z" fill="white"/>
<path fill-rule="evenodd" clip-rule="evenodd" d="M84.5757 26.5506C84.5757 27.0796 84.448 27.554 84.188 27.9736C83.928 28.3887 83.5905 28.7262 83.1754 28.9862C82.7375 29.2599 82.2176 29.4697 81.6155 29.6111C81.018 29.7479 80.3566 29.8163 79.636 29.8163C79.2848 29.8163 78.9199 29.7981 78.5367 29.7616C78.1627 29.7342 77.9529 29.716 77.9027 29.7069L77.8389 28.2975C77.9027 28.3066 78.149 28.3248 78.5823 28.3613C79.0202 28.3887 79.4535 28.4024 79.8868 28.4024C80.1377 28.4024 80.4615 28.3796 80.8538 28.3385C81.2506 28.2975 81.5744 28.2154 81.8344 28.1013C82.1948 27.9417 82.4593 27.7501 82.6326 27.5221C82.8059 27.294 82.8926 27.0158 82.8926 26.692C82.8926 26.3955 82.8151 26.1629 82.6646 25.9804C82.514 25.7934 82.3042 25.6155 82.0397 25.4422C81.7523 25.2506 81.3555 25.0454 80.8538 24.8264C80.3566 24.6029 79.9416 24.3931 79.604 24.1924C79.1205 23.9005 78.7511 23.5493 78.4957 23.1479C78.2448 22.7466 78.1171 22.2813 78.1171 21.7477C78.1171 21.2186 78.2585 20.7397 78.5458 20.3155C78.8378 19.8913 79.23 19.5492 79.7181 19.2938C80.1422 19.0657 80.6075 18.9152 81.1183 18.8422C81.6337 18.7647 82.1355 18.7236 82.6144 18.7236C83.0523 18.7236 83.4126 18.7328 83.6908 18.7464C83.969 18.7601 84.1332 18.7692 84.1743 18.7692L84.2929 20.2014C84.2427 20.2014 84.0192 20.1878 83.627 20.1604C83.2393 20.133 82.8105 20.1193 82.3453 20.1148C82.0169 20.1148 81.6976 20.1421 81.3966 20.2014C81.1001 20.2607 80.8492 20.3428 80.644 20.4477C80.3338 20.6074 80.1149 20.7944 79.978 21.0179C79.8503 21.2414 79.7865 21.4558 79.7865 21.6656C79.7865 21.9529 79.8777 22.1992 80.0647 22.409C80.2517 22.6188 80.4707 22.7922 80.7215 22.9381C81.0134 23.1115 81.4194 23.3167 81.9257 23.5493C82.4365 23.7865 82.806 23.9781 83.034 24.1195C83.5357 24.4342 83.9143 24.7854 84.1743 25.1731C84.4434 25.5608 84.5757 26.0169 84.5757 26.5506Z" fill="white"/>
<path fill-rule="evenodd" clip-rule="evenodd" d="M92.4443 28.3699L92.2528 29.7383C92.2026 29.7474 92.0749 29.752 91.8742 29.7611C91.6781 29.7702 91.5093 29.7702 91.3679 29.7702C89.8947 29.7702 88.7817 29.4646 88.0291 28.8534C87.2766 28.2377 86.898 27.2935 86.898 26.0209C86.898 25.2227 86.9025 24.3698 86.9071 23.4576C86.9208 22.5454 86.9299 21.4142 86.9299 20.0641H85.1191V18.8052H87.0257V16.251H88.5856V18.8052H92.4398V20.0641H88.5856C88.5856 20.2146 88.5765 20.6616 88.5628 21.4096C88.5537 22.1577 88.5537 22.7096 88.5537 23.0699C88.5537 23.3709 88.5537 23.7404 88.5537 24.1782C88.5537 24.6161 88.5537 25.1361 88.5537 25.7382C88.5537 26.6732 88.8045 27.3482 89.3063 27.7633C89.808 28.1738 90.5834 28.3791 91.6325 28.3791C91.7602 28.3791 91.9152 28.3791 92.0977 28.3791C92.2801 28.3745 92.3942 28.3699 92.4443 28.3699Z" fill="white"/>
<path fill-rule="evenodd" clip-rule="evenodd" d="M95.9844 16.7161H94.0869V14.8643H95.9844V16.7161ZM95.884 29.7062H94.1827C94.1918 29.5922 94.1964 28.8852 94.2055 27.5853C94.2192 26.2854 94.2283 25.2135 94.2283 24.3651C94.2283 23.6262 94.2238 22.8143 94.2192 21.9295C94.2192 21.04 94.2101 20.0001 94.1873 18.8051H95.8886C95.8749 19.8405 95.8612 20.8074 95.8475 21.7105C95.8384 22.6091 95.8384 23.4073 95.8384 24.1143C95.8384 25.7882 95.8475 27.1292 95.8612 28.1417C95.8749 29.1543 95.884 29.6743 95.884 29.7062Z" fill="white"/>
<path fill-rule="evenodd" clip-rule="evenodd" d="M135.72 24.2553C135.72 25.09 135.57 25.8836 135.269 26.6453C134.972 27.4071 134.548 28.0547 133.987 28.593C133.513 29.0445 132.983 29.3912 132.404 29.6283C131.83 29.8655 131.177 29.9841 130.443 29.9841C129.754 29.9841 129.107 29.8701 128.504 29.642C127.902 29.4048 127.364 29.0628 126.89 28.6066C126.342 28.0821 125.918 27.4344 125.617 26.6682C125.321 25.9019 125.175 25.09 125.175 24.2325C125.175 23.4069 125.303 22.6498 125.553 21.9611C125.813 21.2632 126.21 20.6383 126.748 20.0864C127.227 19.5847 127.788 19.2016 128.427 18.9325C129.065 18.6588 129.741 18.522 130.452 18.522C131.2 18.522 131.875 18.6497 132.477 18.9005C133.088 19.1468 133.631 19.5163 134.106 20.0089C134.653 20.5745 135.059 21.213 135.323 21.9246C135.588 22.6315 135.72 23.4069 135.72 24.2553ZM134.001 24.3328C134.001 23.6578 133.891 23.001 133.668 22.3624C133.453 21.7239 133.116 21.1857 132.655 20.7478C132.377 20.4741 132.039 20.2689 131.652 20.1229C131.273 19.9724 130.872 19.8949 130.457 19.8949C129.959 19.8949 129.531 19.9724 129.166 20.132C128.801 20.2917 128.454 20.538 128.13 20.8755C127.752 21.2632 127.446 21.7604 127.227 22.3624C127.013 22.9645 126.903 23.5894 126.903 24.2371C126.903 24.9714 127.013 25.6465 127.236 26.2622C127.46 26.8734 127.816 27.4025 128.313 27.8449C128.591 28.0958 128.915 28.2919 129.28 28.4288C129.645 28.5565 130.032 28.6203 130.443 28.6203C130.894 28.6203 131.314 28.5428 131.702 28.3831C132.094 28.2235 132.441 27.9954 132.737 27.6944C133.148 27.2793 133.458 26.7776 133.672 26.1892C133.891 25.5963 134.001 24.976 134.001 24.3328ZM133.686 16.7157H131.866V14.8867H133.686V16.7157ZM129.034 16.7157H127.214V14.8867H129.034V16.7157Z" fill="white"/>
<path fill-rule="evenodd" clip-rule="evenodd" d="M143.514 28.3699L143.318 29.7383C143.268 29.7474 143.14 29.752 142.94 29.7611C142.743 29.7702 142.575 29.7702 142.433 29.7702C140.96 29.7702 139.847 29.4646 139.095 28.8534C138.342 28.2377 137.963 27.2935 137.963 26.0209C137.963 25.2227 137.968 24.3698 137.973 23.4576C137.986 22.5454 137.995 21.4142 137.995 20.0641H136.185V18.8052H138.091V16.251H139.651V18.8052H143.505V20.0641H139.651C139.651 20.2146 139.642 20.6616 139.628 21.4096C139.619 22.1577 139.619 22.7096 139.619 23.0699C139.619 23.3709 139.619 23.7404 139.619 24.1782C139.619 24.6161 139.619 25.1361 139.619 25.7382C139.619 26.6732 139.87 27.3482 140.372 27.7633C140.873 28.1738 141.649 28.3791 142.698 28.3791C142.826 28.3791 142.981 28.3791 143.163 28.3791C143.35 28.3745 143.464 28.3699 143.514 28.3699Z" fill="white"/>
<path fill-rule="evenodd" clip-rule="evenodd" d="M154.01 29.7055H152.364V28.4557L152.355 28.4466C151.853 28.775 151.224 29.1171 150.471 29.4683C149.723 29.815 148.989 29.9837 148.263 29.9837C147.274 29.9837 146.498 29.6918 145.937 29.0989C145.376 28.5105 145.098 27.6849 145.098 26.6222C145.098 26.0475 145.103 25.3678 145.107 24.5742C145.121 23.776 145.13 23.2013 145.13 22.841C145.13 22.1887 145.121 21.386 145.098 20.4281C145.084 19.4657 145.075 18.923 145.075 18.7998H146.777C146.777 18.891 146.767 19.411 146.754 20.3506C146.74 21.2902 146.731 22.0428 146.731 22.6038C146.731 23.101 146.735 23.7167 146.74 24.4556C146.749 25.1945 146.749 25.7191 146.749 26.0292C146.763 26.8776 146.909 27.4979 147.192 27.8947C147.47 28.2915 147.926 28.4877 148.546 28.4877C149.185 28.4877 149.887 28.3144 150.644 27.9723C151.411 27.6256 151.976 27.3246 152.337 27.0692C152.337 26.9825 152.341 26.5902 152.346 25.8833C152.355 25.1717 152.355 24.2914 152.355 23.2332C152.355 22.4806 152.346 21.5775 152.323 20.5285C152.309 19.4749 152.3 18.9002 152.3 18.8044H154.001C154.001 18.9275 153.992 19.3335 153.979 20.0222C153.965 20.7064 153.956 21.8695 153.956 23.5206C153.956 24.4465 153.96 25.2629 153.965 25.9654C153.983 26.6632 153.997 27.9084 154.01 29.7055Z" fill="white"/>
<path fill-rule="evenodd" clip-rule="evenodd" d="M158.548 29.706H156.847C156.856 29.5783 156.86 28.6068 156.869 26.8006C156.883 24.9898 156.892 23.138 156.892 21.2451C156.892 20.4332 156.888 19.4115 156.883 18.1755C156.883 16.9394 156.874 15.5209 156.851 13.9199H158.553C158.53 15.1925 158.516 16.6657 158.511 18.3442C158.511 20.0227 158.511 21.0216 158.511 21.3363C158.511 22.0752 158.521 23.626 158.534 25.9887C158.539 28.3423 158.548 29.5829 158.548 29.706ZM166.256 29.4871L165.235 30.4221C163.647 28.8075 162.229 27.3981 160.979 26.2031C159.738 25.0035 159.05 24.3421 158.922 24.219V24.1962C159.095 24.0365 159.848 23.2794 161.184 21.911C162.521 20.5381 163.602 19.4161 164.427 18.5404L165.472 19.6168C164.619 20.4424 163.72 21.3135 162.781 22.2349C161.846 23.1471 161.262 23.7173 161.025 23.9453V23.9544C161.025 23.9544 161.549 24.5063 162.598 25.6147C163.652 26.7276 164.874 28.0184 166.256 29.4871Z" fill="white"/>
<path fill-rule="evenodd" clip-rule="evenodd" d="M174.805 23.5666C174.805 25.3455 174.801 26.7959 174.796 27.9179C174.787 29.04 174.787 29.6421 174.787 29.7287C174.714 29.7378 174.381 29.7606 173.784 29.8063C173.186 29.8564 172.42 29.8792 171.48 29.8838C170.892 29.8838 170.299 29.8291 169.701 29.7242C169.104 29.6147 168.593 29.4642 168.16 29.2635C167.585 28.9989 167.12 28.634 166.76 28.1779C166.408 27.7173 166.23 27.1654 166.23 26.5177C166.23 25.8381 166.44 25.2497 166.855 24.7525C167.28 24.2508 167.863 23.8448 168.611 23.5347C169.077 23.3431 169.697 23.1698 170.472 23.0193C171.257 22.8596 172.146 22.741 173.145 22.6635C173.104 22.1025 172.963 21.6464 172.726 21.286C172.488 20.9257 172.142 20.6566 171.681 20.4696C171.366 20.3419 171.015 20.2507 170.627 20.2005C170.24 20.1412 169.788 20.1138 169.273 20.1138C168.949 20.1138 168.675 20.123 168.443 20.1366C168.219 20.1503 167.914 20.1686 167.526 20.1914L167.699 18.7592C167.809 18.75 168.018 18.7409 168.333 18.7272C168.657 18.7044 169.095 18.6953 169.647 18.6953C170.495 18.6953 171.248 18.7865 171.909 18.9644C172.575 19.1377 173.127 19.4205 173.569 19.8174C173.98 20.1914 174.285 20.652 174.495 21.2085C174.701 21.733 174.805 22.5267 174.805 23.5666ZM173.159 26.1619C173.159 25.9202 173.159 25.61 173.159 25.236C173.159 24.862 173.154 24.4332 173.15 23.9452C172.835 23.9589 172.283 24.0227 171.489 24.1368C170.7 24.2462 170.034 24.4013 169.496 24.6111C169.095 24.7616 168.735 24.9897 168.42 25.2907C168.11 25.5918 167.955 25.9658 167.955 26.4128C167.955 26.9008 168.087 27.2976 168.351 27.5987C168.616 27.8951 168.981 28.1186 169.442 28.2783C169.793 28.4014 170.18 28.4881 170.605 28.5474C171.033 28.5976 171.489 28.6249 171.959 28.6249C172.101 28.6249 172.279 28.6204 172.488 28.6158C172.698 28.6067 172.917 28.6021 173.145 28.593C173.145 28.5428 173.145 28.3056 173.145 27.8815C173.154 27.4527 173.159 26.878 173.159 26.1619Z" fill="white"/>
<path fill-rule="evenodd" clip-rule="evenodd" d="M183.47 26.5506C183.47 27.0796 183.342 27.554 183.083 27.9736C182.823 28.3887 182.485 28.7262 182.07 28.9862C181.632 29.2599 181.112 29.4697 180.51 29.6111C179.913 29.7479 179.256 29.8163 178.53 29.8163C178.179 29.8163 177.814 29.7981 177.431 29.7616C177.057 29.7342 176.847 29.716 176.797 29.7069L176.733 28.2975C176.797 28.3066 177.044 28.3248 177.477 28.3613C177.915 28.3887 178.348 28.4024 178.781 28.4024C179.032 28.4024 179.356 28.3796 179.748 28.3385C180.141 28.2975 180.469 28.2154 180.729 28.1013C181.089 27.9417 181.354 27.7501 181.527 27.5221C181.7 27.294 181.787 27.0158 181.787 26.692C181.787 26.3955 181.71 26.1629 181.559 25.9804C181.409 25.7934 181.199 25.6155 180.934 25.4422C180.647 25.2506 180.25 25.0454 179.748 24.8264C179.251 24.6029 178.836 24.3931 178.499 24.1924C178.015 23.9005 177.65 23.5493 177.39 23.1479C177.139 22.7466 177.012 22.2813 177.012 21.7477C177.012 21.2186 177.153 20.7397 177.44 20.3155C177.732 19.8913 178.125 19.5492 178.613 19.2938C179.037 19.0657 179.502 18.9152 180.013 18.8422C180.528 18.7647 181.03 18.7236 181.509 18.7236C181.947 18.7236 182.307 18.7328 182.585 18.7464C182.864 18.7601 183.028 18.7692 183.069 18.7692L183.187 20.2014C183.137 20.2014 182.914 20.1878 182.521 20.1604C182.134 20.133 181.705 20.1193 181.24 20.1148C180.911 20.1148 180.592 20.1421 180.291 20.2014C179.995 20.2607 179.744 20.3428 179.538 20.4477C179.228 20.6074 179.009 20.7944 178.873 21.0179C178.745 21.2414 178.676 21.4558 178.676 21.6656C178.676 21.9529 178.768 22.1992 178.955 22.409C179.142 22.6188 179.361 22.7922 179.611 22.9381C179.908 23.1115 180.309 23.3167 180.816 23.5493C181.326 23.7865 181.696 23.9781 181.924 24.1195C182.426 24.4342 182.809 24.7854 183.064 25.1731C183.338 25.5608 183.47 26.0169 183.47 26.5506Z" fill="white"/>
<path fill-rule="evenodd" clip-rule="evenodd" d="M191.337 26.5506C191.337 27.0796 191.21 27.554 190.95 27.9736C190.69 28.3887 190.352 28.7262 189.937 28.9862C189.499 29.2599 188.979 29.4697 188.377 29.6111C187.78 29.7479 187.123 29.8163 186.398 29.8163C186.046 29.8163 185.682 29.7981 185.298 29.7616C184.924 29.7342 184.715 29.716 184.664 29.7069L184.601 28.2975C184.664 28.3066 184.911 28.3248 185.344 28.3613C185.782 28.3887 186.215 28.4024 186.649 28.4024C186.899 28.4024 187.223 28.3796 187.615 28.3385C188.008 28.2975 188.336 28.2154 188.596 28.1013C188.956 27.9417 189.221 27.7501 189.394 27.5221C189.568 27.294 189.654 27.0158 189.654 26.692C189.654 26.3955 189.577 26.1629 189.426 25.9804C189.276 25.7934 189.066 25.6155 188.801 25.4422C188.514 25.2506 188.117 25.0454 187.615 24.8264C187.118 24.6029 186.703 24.3931 186.366 24.1924C185.882 23.9005 185.513 23.5493 185.257 23.1479C185.007 22.7466 184.879 22.2813 184.879 21.7477C184.879 21.2186 185.02 20.7397 185.308 20.3155C185.599 19.8913 185.992 19.5492 186.48 19.2938C186.904 19.0657 187.369 18.9152 187.88 18.8422C188.395 18.7647 188.897 18.7236 189.376 18.7236C189.814 18.7236 190.174 18.7328 190.453 18.7464C190.731 18.7601 190.895 18.7692 190.936 18.7692L191.055 20.2014C191.004 20.2014 190.781 20.1878 190.389 20.1604C190.001 20.133 189.572 20.1193 189.107 20.1148C188.779 20.1148 188.459 20.1421 188.158 20.2014C187.862 20.2607 187.611 20.3428 187.406 20.4477C187.096 20.6074 186.877 20.7944 186.74 21.0179C186.612 21.2414 186.544 21.4558 186.544 21.6656C186.544 21.9529 186.635 22.1992 186.822 22.409C187.009 22.6188 187.228 22.7922 187.479 22.9381C187.775 23.1115 188.177 23.3167 188.683 23.5493C189.194 23.7865 189.563 23.9781 189.791 24.1195C190.293 24.4342 190.676 24.7854 190.931 25.1731C191.201 25.5608 191.337 26.0169 191.337 26.5506Z" fill="white"/>
<path fill-rule="evenodd" clip-rule="evenodd" d="M200.766 23.5666C200.766 25.3455 200.761 26.7959 200.757 27.9179C200.747 29.04 200.747 29.6421 200.747 29.7287C200.674 29.7378 200.342 29.7606 199.749 29.8063C199.151 29.8564 198.385 29.8792 197.445 29.8838C196.857 29.8838 196.264 29.8291 195.666 29.7242C195.069 29.6147 194.558 29.4642 194.125 29.2635C193.55 28.9989 193.085 28.634 192.724 28.1779C192.373 27.7173 192.195 27.1654 192.195 26.5177C192.195 25.8381 192.405 25.2497 192.82 24.7525C193.244 24.2508 193.828 23.8448 194.576 23.5347C195.041 23.3431 195.662 23.1698 196.437 23.0193C197.222 22.8596 198.111 22.741 199.11 22.6635C199.069 22.1025 198.928 21.6464 198.69 21.286C198.453 20.9257 198.107 20.6566 197.646 20.4696C197.331 20.3419 196.98 20.2507 196.592 20.2005C196.205 20.1412 195.753 20.1138 195.238 20.1138C194.914 20.1138 194.636 20.123 194.407 20.1366C194.184 20.1503 193.878 20.1686 193.491 20.1914L193.664 18.7592C193.773 18.75 193.983 18.7409 194.298 18.7272C194.622 18.7044 195.06 18.6953 195.612 18.6953C196.46 18.6953 197.213 18.7865 197.874 18.9644C198.54 19.1377 199.092 19.4205 199.534 19.8174C199.945 20.1914 200.25 20.652 200.46 21.2085C200.661 21.733 200.766 22.5267 200.766 23.5666ZM199.119 26.1619C199.119 25.9202 199.119 25.61 199.119 25.236C199.119 24.862 199.115 24.4332 199.11 23.9452C198.795 23.9589 198.239 24.0227 197.45 24.1368C196.661 24.2462 195.995 24.4013 195.457 24.6111C195.055 24.7616 194.695 24.9897 194.38 25.2907C194.07 25.5918 193.915 25.9658 193.915 26.4128C193.915 26.9008 194.047 27.2976 194.312 27.5987C194.576 27.8951 194.941 28.1186 195.402 28.2783C195.753 28.4014 196.141 28.4881 196.565 28.5474C196.994 28.5976 197.45 28.6249 197.92 28.6249C198.061 28.6249 198.239 28.6204 198.449 28.6158C198.658 28.6067 198.877 28.6021 199.105 28.593C199.105 28.5428 199.105 28.3056 199.105 27.8815C199.115 27.4527 199.115 26.878 199.119 26.1619Z" fill="white"/>
<path fill-rule="evenodd" clip-rule="evenodd" d="M114.549 16.8157C114.435 16.8157 113.952 16.8112 113.108 16.8066C112.26 16.7975 110.978 16.7975 109.263 16.7975C109.249 18.2707 109.236 19.3836 109.231 20.1454C109.222 20.9071 109.222 21.9424 109.222 23.2561C109.222 24.5195 109.227 25.8057 109.231 27.1102C109.245 28.4102 109.254 29.2768 109.263 29.7055H107.484C107.498 29.2768 107.507 28.3965 107.516 27.0646C107.53 25.7373 107.539 24.4374 107.539 23.1648C107.539 21.9151 107.539 20.9253 107.539 20.191C107.539 19.4521 107.53 18.3163 107.507 16.7884C105.979 16.7792 104.738 16.7838 103.781 16.7975C102.832 16.8066 102.312 16.8066 102.221 16.8066V15.3105C102.96 15.3105 103.858 15.3151 104.912 15.3197C105.975 15.3288 107.106 15.3288 108.305 15.3288C110.043 15.3288 111.493 15.3242 112.657 15.3197C113.829 15.3105 114.458 15.3105 114.554 15.3105V16.8157H114.549Z" fill="white"/>
<path fill-rule="evenodd" clip-rule="evenodd" d="M122.351 24.3334C122.351 23.6583 122.241 23.0015 122.018 22.3629C121.803 21.7244 121.466 21.1862 121.005 20.7483C120.727 20.4746 120.389 20.2694 120.002 20.1234C119.623 19.9729 119.222 19.8954 118.807 19.8954C118.309 19.8954 117.881 19.9729 117.516 20.1325C117.151 20.2922 116.804 20.5385 116.48 20.876C116.102 21.2637 115.796 21.7609 115.577 22.3629C115.363 22.965 115.253 23.5899 115.253 24.2376C115.253 24.9719 115.363 25.647 115.586 26.2627C115.81 26.8739 116.166 27.403 116.663 27.8454C116.941 28.0963 117.265 28.2924 117.63 28.4293C117.995 28.557 118.382 28.6208 118.793 28.6208C119.244 28.6208 119.664 28.5433 120.052 28.3837C120.449 28.224 120.791 27.996 121.087 27.6949C121.498 27.2799 121.808 26.7781 122.022 26.1897C122.246 25.5968 122.351 24.9765 122.351 24.3334ZM124.075 24.2558C124.075 25.0905 123.924 25.8841 123.623 26.6459C123.327 27.4076 122.902 28.0553 122.341 28.5935C121.867 29.045 121.343 29.3917 120.759 29.6288C120.184 29.866 119.532 29.9846 118.797 29.9846C118.109 29.9846 117.461 29.8706 116.859 29.6425C116.257 29.4053 115.719 29.0633 115.244 28.6071C114.697 28.0826 114.277 27.4349 113.972 26.6687C113.675 25.9024 113.529 25.0905 113.529 24.233C113.529 23.4074 113.657 22.6503 113.908 21.9616C114.168 21.2637 114.565 20.6388 115.103 20.0869C115.582 19.5852 116.143 19.2021 116.781 18.933C117.42 18.6593 118.095 18.5225 118.807 18.5225C119.555 18.5225 120.23 18.6502 120.832 18.901C121.443 19.1473 121.986 19.5168 122.46 20.0094C123.007 20.575 123.413 21.2135 123.678 21.9251C123.942 22.6321 124.075 23.4074 124.075 24.2558Z" fill="white"/>
<path d="M117.591 14.8857H115.771V16.7148H117.591V14.8857Z" fill="white"/>
<path d="M122.243 14.8848H120.423V16.7138H122.243V14.8848Z" fill="white"/>
<path d="M44.2385 26.5698L44.2385 26.5698C44.1152 25.2538 43.4525 23.8651 42.2993 22.4715C41.1481 21.0803 39.5289 19.7103 37.5449 18.4381C33.577 15.8937 28.2028 13.7744 22.3571 12.6604C16.479 11.5413 11.0791 11.6195 7.11067 12.6558C3.10211 13.7026 0.753963 15.658 0.530611 18.1477L44.2385 26.5698ZM44.2385 26.5698C44.4896 29.2456 42.4648 31.4302 38.5271 32.6713M44.2385 26.5698L38.5271 32.6713M38.5271 32.6713C34.6166 33.9039 29.0121 34.1178 22.6287 32.9326M38.5271 32.6713L22.6287 32.9326M22.6287 32.9326C16.2131 31.739 10.5224 29.414 6.51469 26.6715C4.51048 25.3 2.94385 23.8356 1.91434 22.3723C0.884496 20.9085 0.412113 19.4764 0.530592 18.1479L22.6287 32.9326Z" stroke="white"/>
<path fill-rule="evenodd" clip-rule="evenodd" d="M17.7078 45.1367C12.0611 44.6304 9.51594 34.5777 11.7737 22.7187C14.0224 10.919 20.335 0.980282 26.1276 0.437506C32.2031 -0.132637 35.4187 9.76504 33.0286 22.6366C30.6203 35.5765 23.6327 45.6704 17.7078 45.1367Z" fill="white"/>
<path fill-rule="evenodd" clip-rule="evenodd" d="M12.3654 29.3326C10.4588 27.052 13.2411 22.3814 18.4773 18.8237C23.6861 15.2843 29.7114 13.9388 32.0558 15.8818C34.5189 17.9206 32.0422 22.7828 26.3863 26.6689C20.694 30.5778 14.3677 31.7272 12.3654 29.3326Z" fill="#383A45"/>
</svg>
