<?xml version="1.0" encoding="UTF-8"?>
<svg enable-background="new 0 0 461 292" version="1.1" viewBox="0 0 461 292" xml:space="preserve" xmlns="http://www.w3.org/2000/svg">
<style type="text/css">
	.st0{fill:#D9EDEF;}
	.st1{fill:#AFDADD;}
	.st2{fill:#FFFFFF;stroke:#2E3374;stroke-width:1.7;stroke-miterlimit:10;}
	.st3{fill:#F8B243;stroke:#2E3374;stroke-width:1.7;stroke-miterlimit:10;}
	.st4{fill:#2E3374;stroke:#2E3374;stroke-width:1.7;stroke-miterlimit:10;}
	.st5{fill:#D5401A;stroke:#2E3374;stroke-width:1.7;stroke-miterlimit:10;}
</style>
<path class="st0" d="m6.1 187.3c11.4-44.1 126.9-19 202.6-32.6s165.3-77.2 224.5-46-3.8 106.3-139.7 123.3-298.8-0.6-287.4-44.7z"/>
<path class="st1" d="m104.2 7c-0.7 0.7-0.4 3.2-0.4 4.2 0 1.5 0.1 2.9 0.2 4.3 0.1 1 0.5 10.2 1.8 9.5 0.7-0.4 0.3-3.1 0.3-3.9 0-1.9-0.1-3.8-0.2-5.6-0.1-1.7-0.2-3.5-0.1-5.2-0.1-0.5 0.3-5.2-1.6-3.3z"/>
<path class="st1" d="m135.1 5.8c-6.1 0-12.2 0.3-18.3 0.5-2.9 0.1-5.9 0.2-8.8 0.4-1 0.1-3.1-0.3-4 0.3-1.8 1.2 1.1 1.5 1.9 1.4 12.1-0.4 24.1-1 36.2-1 5.9 0 11.8 0.2 17.8 0.1 2.3 0 4.8-1 5.3 1.6 0.6 3-0.1 6.3-0.3 9.3-0.1 2-0.1 3.9 0 5.9 0.1 1.3-0.1 2.7 0.1 4s1.1 1.9 1.9 0.6c0.5-0.8 0.2-2.8 0.3-3.7v-3.8c0-3.1 0.4-6.1 0.4-9.2 0-2-0.1-5.6-2.6-6.1-2.8-0.5-6.1 0-9 0-7-0.1-14-0.3-20.9-0.3z"/>
<path class="st1" d="m118.3 25.1c-2.3 0-4.6 0-6.9 0.1-2 0-5.1-0.4-6.9 0.3-1.3 0.5-1.6 1.9 0 2.3s4.3-0.3 6.2-0.3c9.1-0.2 18.3-0.4 27.4 0.2 8.5 0.5 17.2 1.1 25.7 0.5 0.7 0 4.4-0.2 2.7-1.6-1-0.8-4.9-0.3-6.2-0.3l-13.4-0.3c-4.4-0.2-8.8-0.7-13.2-0.8-5.2-0.2-10.3-0.1-15.4-0.1z"/>
<path class="st1" d="m116 12c3.6 0.2 7.1 5.4 3.5 7.9-3.4 2.4-9.8-0.2-7.9-4.8-0.3 0.7 0.3-0.7 0.4-0.7 0.4-0.4 0.9-0.8 1.4-1.2s1-0.8 1.6-1c0.4-0.2 0.4 0.3 1-0.2zm-1.8-1.9c-1.4 0.6-2.7 1.5-3.6 2.7-0.8 0.9-1.8 1.4-1.8 2.7 0 0.3 0.4 0.6 0.4 0.8 0.1 0.4 0 0.8 0.1 1.2 0.7 4 5.5 5.4 9 4.6 1.5-0.3 2.9-1.2 3.8-2.4 0.9-1.3 1.2-2.8 0.9-4.4-0.7-3.1-5.5-6.5-8.8-5.2z"/>
<path class="st1" d="m112.7 15.8c0 0.3 0.1 0.6 0.3 0.8s0.5 0.3 0.8 0.3 0.6-0.1 0.8-0.3 0.3-0.5 0.3-0.8-0.1-0.6-0.3-0.8-0.5-0.3-0.8-0.3-0.6 0.1-0.8 0.3-0.3 0.5-0.3 0.8z"/>
<path class="st1" d="m115.6 15.5c0 0.1 0 0.2 0.1 0.3 0 0.1 0.1 0.2 0.2 0.3s0.2 0.1 0.3 0.2 0.2 0.1 0.3 0.1 0.2 0 0.3-0.1c0.1 0 0.2-0.1 0.3-0.2s0.2-0.2 0.2-0.3 0.1-0.2 0.1-0.3 0-0.2-0.1-0.3c0-0.1-0.1-0.2-0.2-0.3s-0.2-0.1-0.3-0.2c-0.1 0-0.2-0.1-0.3-0.1s-0.2 0-0.3 0.1c-0.1 0-0.2 0.1-0.3 0.2s-0.2 0.2-0.2 0.3c-0.1 0-0.1 0.2-0.1 0.3z"/>
<path class="st1" d="m116.2 17.8c-0.6 0.2-1.3-0.2-1.8 0.1-0.8 0.5 0 1 0.5 1.3 2 0.9 2.3-1.8 1.3-1.4z"/>
<path class="st1" d="m138.5 13.3c-1.5 0.3-2.8 1.8-4.5 1.6-1.3-0.1-2.1-1.4-3.4-1.6-1.6-0.2-6 3.4-3.7 4.1 1.3 0.4 2.1-2.1 3.3-2.2 0.9-0.1 2.2 1 3.2 1.2 1.8 0.3 3.1-0.7 4.7-1.3s2.7-0.1 4.2 0.7c1.1 0.7 2.4 0.9 3.7 0.8 1.3-0.2 2.9-1.6 4.2-1.4s2.2 1.4 3.5 1.6c0.5 0.1 1.3 0.2 1.2-0.6s-0.8-0.5-1.3-0.8c-1.2-0.6-2.3-1.7-3.7-1.6-1.1 0.2-2.1 0.6-3 1.2-3.3 1.1-5.2-2.4-8.4-1.7z"/>
<path class="st1" d="m141.2 34.2c-6.3 0.1-12.6 0.2-18.8 0.7-1.5 0.1-16.6 1.5-16.6 1.6 0.6 0.2 1.3 0.4 2 0.5-0.1-0.3-0.4-0.5-0.9-0.4 14.3 0 28.6-1.3 43-1.1 3.6 0.1 7.2 0 10.8 0.1 0.9 0 3.1 0.7 3.8 0.3 1.9-1.1-1.5-1.2-2.1-1.2-6.9-0.5-14.1-0.5-21.2-0.5z"/>
<path class="st1" d="m104 37.3c-0.9 0.9-0.1 4.3 0 5.6 0.1 1.8 0 3.7 0.2 5.5 0.2 2.1 0.5 4.2 1 6.3 0.3 1.1 1.4 2.9 1.8 0.9 0.3-1.5-0.2-3.4-0.3-4.9-0.2-2-0.3-3.9-0.3-5.9 0-1.7 0-3.5-0.2-5.2-0.1-0.9-0.6-4-2.2-2.3z"/>
<path class="st1" d="m127.6 54.5c-4.4 0.1-8.9 0.2-13.3 0.5-1.8 0.1-3.6 0.3-5.5 0.5-0.4 0-4.5 0.2-2.6 1.7 0.8 0.7 4.2-0.3 5.3-0.4 1.9-0.2 3.8-0.3 5.7-0.4 4.4-0.2 8.8-0.4 13.2-0.3 8 0.1 16 0.2 24 0 1.1 0 10.1 0.2 10.4-1 0.2-1-2.9-0.5-3.5-0.5-2.1 0.1-4.3 0-6.4 0-9.2 0.1-18.3-0.3-27.3-0.1z"/>
<path class="st1" d="m163.2 35.7c0.1 4 0.8 7.9 1 11.9l0.3 5.4c0 0.6-0.2 2 0.5 2.3 1 0.5 1.1-0.5 1.3-1.1 0.5-1.8 0.2-4.2 0.1-6.1 0-1.8 0-3.6-0.2-5.4-0.1-1.8-0.5-3.7-0.7-5.5-0.1-0.8 0.2-2.1-0.6-2.6-0.2-0.1-0.4-0.1-0.6-0.1s-0.4 0.1-0.6 0.2-0.3 0.3-0.4 0.4c-0.1 0.2-0.1 0.4-0.1 0.6z"/>
<path class="st1" d="m115.7 41.1c1.4 0.4 2.6 0.3 3.9 1.3 1.2 0.9 2.1 2.1 2.6 3.5 0.9 3.2-2 4.9-4.8 5s-6.9-0.6-6.8-4.2c0.2-2.8 2.2-5.5 5.1-5.6zm0.1-1.8c-3.7 0.2-6.6 4.3-6.6 7.7 0 4.2 4.8 5.3 8.2 5.3 3.8 0 7.6-2.6 6.6-6.9-0.5-1.8-1.6-3.3-3.1-4.4s-3.3-1.7-5.1-1.7z"/>
<path class="st1" d="m112.1 44.9c0 0.2 0.1 0.5 0.3 0.6s0.4 0.3 0.6 0.3 0.5-0.1 0.6-0.3c0.2-0.2 0.3-0.4 0.3-0.6 0.1-1.1-1.8-1.2-1.8 0z"/>
<path class="st1" d="m116 44.4c0.1 0.2 0.2 0.4 0.4 0.5s0.4 0.2 0.6 0.2 0.4-0.1 0.6-0.2 0.3-0.3 0.4-0.5c-0.2-1.1-2-1.2-2 0z"/>
<path class="st1" d="m113.9 47.1c-1.2 1.2 3 3.3 4 1.6 0.8-1.4-1-0.9-1.6-1s-1.9-1.2-2.4-0.6z"/>
<path class="st1" d="m131.7 42.5c-1.2 0.2-5.2 1.6-5.3 3-0.1 2.6 3.8-0.1 4.7-0.4 2.3-0.9 3.5 1 5.8 1.1 2 0.1 3.9-1.6 5.8-1.4s2.9 2.3 5.2 1.2c1.2-0.6 1.2-1.5-0.2-1.6-0.8-0.1-1.4 0.3-2.2-0.1-1.3-0.6-1.9-1.5-3.5-1.3-1.2 0.3-2.4 0.6-3.5 1.1-2.7 0.5-4.2-2.1-6.8-1.6z"/>
<path class="st1" d="m155.8 43.6c0.3 0.2 2.4 1.6 0.9 2-0.8 0.2-1.5-1.4-0.9-2zm-0.7-1.6c-3.5 1.6 0.3 7.3 3 5 0.3-0.2 0.5-0.5 0.7-0.9 0.2-0.3 0.2-0.7 0.3-1 0-0.4 0-0.7-0.2-1.1-0.1-0.3-0.3-0.7-0.6-0.9-0.7-0.7-2.3-1.5-3.2-1.1z"/>
<path class="st1" d="m122.5 64.4c-4.3 0-8.7-0.1-13.1 0.2-0.7 0-3.5-0.1-3.9 0.7-0.7 1.4 2.2 0.7 2.6 0.7 8.6-0.9 17.7-0.4 26.3-0.1 7.1 0.2 14.1 0.3 21.2 0.7l5.6 0.3c0.6 0 2.1 0.4 2.3-0.5s-1.8-0.7-2.3-0.7l-11.3-0.6c-9.1-0.7-18.3-0.7-27.4-0.7z"/>
<path class="st1" d="m105.4 65.9c-0.8 0.8-0.4 3.9-0.5 4.9 0 1.8-0.1 3.6-0.2 5.3 0 1.9 0 3.7 0.1 5.6 0 0.8 0.7 4.5 1.7 2.4 0.5-1 0-3.6 0-4.7 0-2 0.1-4 0.2-5.9 0.1-1.7 0.1-3.4 0.2-5.1 0.1-0.6 0.1-4.1-1.5-2.5z"/>
<path class="st1" d="m164.2 81.8c-4.2 0.4-8.5 0.2-12.8 0.5-3.7 0.3-7.3 0.4-11 0.5-8.3 0.2-16.6 0.3-24.9 1-1.9 0.2-3.8 0.3-5.7 0.4-0.9 0-4.9-0.4-5.2 0.6-0.5 1.7 3.7 1 4.7 1 2-0.1 4-0.2 6-0.4 8.4-0.6 16.9-0.8 25.4-1.1 4.6-0.1 9.2-0.5 13.8-0.8 2.3-0.2 4.6-0.2 6.9-0.3 0.6 0 2.7 0 3.1-0.4 0.3-0.2 0.4-1-0.3-1z"/>
<path class="st1" d="m162.8 66.2c0.1 4.1 0.4 8.1 0.5 12.2 0 1.2-0.3 3.4 0.4 4.5 1.1 1.7 1.9-0.1 2.1-1.2 0.6-3.4 0-7.2-0.2-10.6-0.1-1.3 0.3-4.2-0.3-5.4s-2.6-1-2.5 0.5z"/>
<path class="st1" d="m155.7 72c1.6 0.4 1.9 4 0 4.2-2.7 0.4-1.5-3.5 0-4.2zm-0.5-1.4c-0.5 0-1.6-0.2-1.9 0.3-0.3 0.3 0 1 0 1.4-0.1 1.1-1 1.8-0.6 3.2 0.1 0.5 0.4 0.9 0.8 1.3 0.3 0.4 0.8 0.6 1.2 0.8 4.8 1.5 4.7-7.9 0.5-7z"/>
<path class="st1" d="m115.1 69.2c0-0.2 0-0.3-0.1-0.5 2.6 1.2 4.7 3.6 3.9 6.7-0.7 2.4-3.1 3.2-5.3 2.6-0.6-0.1-1.1-0.3-1.6-0.7-0.5-0.3-0.9-0.8-1.1-1.3-0.3-0.5-0.5-1-0.5-1.6-0.1-0.6 0-1.1 0.2-1.7 0.2-0.7 0.5-1.3 0.9-1.8s1-1 1.6-1.3c0.5-0.1 1.8 0.3 2-0.4zm-1.5-1c-0.7 0-1.4 0.3-1.9 0.7 0.5-0.5 1.2-0.7 1.9-0.7zm0-1.5c-0.7 0.1-1.5 0.3-2.1 0.7s-1.2 0.9-1.6 1.5c-0.3 0.4-1.3 1.4-1.2 1.9s0.4 1 0.9 0.5c-2.9 5.8 4.6 10.8 9.3 6.8 4.3-3.8 0-11.6-5.3-11.4z"/>
<path class="st1" d="m112.1 72.1c0 0.2 0.1 0.3 0.2 0.4s0.3 0.2 0.4 0.2c0.2 0 0.3-0.1 0.4-0.2s0.2-0.3 0.2-0.4c0-0.2-0.1-0.3-0.2-0.4s-0.3-0.2-0.4-0.2c-0.2 0-0.3 0.1-0.4 0.2-0.2 0.1-0.2 0.2-0.2 0.4z"/>
<path class="st1" d="m114.1 72.2c0 0.2 0.1 0.3 0.2 0.4s0.3 0.2 0.4 0.2c0.2 0 0.3-0.1 0.4-0.2s0.2-0.3 0.2-0.4c0.1-0.8-1.2-0.8-1.2 0z"/>
<path class="st1" d="m115.1 75c-0.6 0-2.7-0.1-3 0.4-0.6 0.8 0.4 0.9 0.9 1s2.3 0 2.6-0.4c0.1-0.4 0.1-1-0.5-1z"/>
<path class="st1" d="m132.5 72.2c-1.2 0.3-2.4 0.6-3.6 1.1-1.3 0.3-1.9-0.3-3.1-0.6-0.5-0.2-1.1-0.2-1.6-0.1s-1.1 0.4-1.5 0.7c-0.6 0.5-1.8 1.6-1.5 2.5 0.8 2 2.7-1.2 3.5-1.4 1.4-0.2 2.6 0.9 4.1 0.6s2.7-1.3 4.1-1.3c1.2 0 2.4 0.7 3.6 0.8 1.9 0.2 3.1-0.4 4.8-0.9 1.5-0.4 2.5 0.1 3.9 0.6 0.6 0.2 2.8 1 2.4-0.4-0.1-0.4-2.9-1.1-3.4-1.3-0.7-0.2-1.3-0.3-2-0.3-0.7 0.1-1.4 0.2-2 0.6-1.1 0.5-2.4 0.7-3.6 0.4-1.3-0.2-2.6-1.1-4.1-1z"/>
<path class="st1" d="m191.5 39.4c0.2-4.5 0.5-9 0.6-13.5 0.1-2.2 0.1-4.5 0.2-6.7v-1.5c0-1.7-0.2-1.8 1.5-2 7.6-0.7 15.2-0.9 22.7-1.5 9.1-0.7 18.3-1.2 27.5-1.5 4.1-0.1 8.2-0.3 12.2-0.2 0.9 0 2.7-0.2 3 0.5 0.2 0.3-0.2 1.3-0.2 1.7l-0.3 3.3c-0.5 6.5-0.1 13.1 1.1 19.5-2.9-1.7-6.7-3.1-10.1-2.8s-6.1 2.3-8.9 4.2c-1.6 1.1-2.1 1.3-3.7 0.3-1.4-0.9-2.6-1.9-3.9-2.9-2-1.5-3.8-3.2-5.8-4.8-3.5-2.9-8.4-7.1-13.3-5.9-3.5 1.1-6.7 2.6-9.7 4.7-4.4 2.9-8.4 6.3-12.9 9.1zm60.5-28.7c-17.4 0-34.6 1.7-51.9 2.6-1.8 0.1-3.6 0.2-5.4 0.4-1.2 0.1-4.1-0.4-4.9 0.7-0.5 0.7-0.1 0.8 0 1.4v2.7c-0.1 2.1-0.1 4.2-0.2 6.3-0.2 7.9-0.3 15.8 0 23.7 0.1 1.7 0.7 4.1 0.4 5.8-0.2 1.2-1.1 1.9 0.8 2.2 2 0 4.1-0.1 6.1-0.5 1.9-0.2 3.8-0.4 5.7-0.5 8.3-0.7 16.6-0.6 24.9-0.8s16.7-0.2 25.1-0.2c3.5 0 7.5 0.2 10.9-0.8 1.2-0.3 1.4-0.5 1.1-1.7-0.1-0.2-0.4-0.3-0.5-0.7-0.1-0.6-0.1-1.2-0.1-1.8-0.1-1.9-0.1-3.8-0.2-5.7-0.1-3.2-0.7-6.2-1.1-9.4-0.4-3.6-0.5-7.3-0.5-10.9 0-2 0-4 0.2-6 0.1-1.3 0.7-3.2 0.4-4.4-0.2-0.6-0.4-1.1-1-1.3-0.4-0.2-0.7 0-1.1-0.1-0.4 0-0.9-0.1-1.3-0.2-2.4-0.9-5-0.8-7.4-0.8z"/>
<path class="st1" d="m242.4 19.2c0 1.3-0.2 3.1 0.4 4.3 0.7 1.5 1.7 1 1.9-0.4 0.1-1.3 0.1-2.6-0.1-3.9-0.4-1-2.2-1.7-2.2 0z"/>
<path class="st1" d="m244.5 19.7c-1.2 0-4.6-0.2-5.4 0.7-1.4 1.6 1 1.9 2 1.8 1.2-0.1 4.8 0.2 5.6-0.8 1.4-1.5-1.3-1.7-2.2-1.7z"/>
<path class="st1" d="m198.7 61.8c5.2 0.9 3.6 8.8-1.3 7-1.7-0.6-4.2-2.5-3.3-4.7 0.7-1.6 3-2.5 4.6-2.3zm-2.2-2.5c-0.8 0.1-1.6 0.4-2.3 0.9s-1.3 1.1-1.7 1.8-0.7 1.5-0.8 2.3 0 1.6 0.2 2.4c1.1 3.1 5.4 5.3 8.5 4.2s4.5-5 3.5-7.9-4.4-4.2-7.4-3.7z"/>
<path class="st1" d="m228.1 62.7c-1.3 0.1-2.4 1-3.7 1.2-1.2 0-2.3-0.2-3.4-0.6-1.3-0.5-2.7-0.5-4-0.2-1.1 0.5-2.2 0.8-3.3 1.1-2.2 0.2-4.8-2.3-6.5 0.5-0.8 1.4 0.4 2.2 1.6 1.6s0.7-0.9 2.2-0.5c1.2 0.4 2.5 0.4 3.7 0s2.3-1.2 3.6-1.3 2.4 0.5 3.6 0.8c1.4 0.3 2.9 0.1 4.3-0.4 1.4-0.4 1.9-0.7 3.3-0.3 0.9 0.3 2.8 1.1 3.6 0.4 1.5-1.1-0.5-1.3-1.3-1.4-1.1-0.3-2.4-1-3.7-0.9z"/>
<path class="st1" d="m256.4 61.7c1.9 0.1 3.9 3.6 1.4 3.7-1.7 0-3.7-3-1.4-3.7zm-0.2-2.9c-6 1.7-3.2 10.1 2.5 9.1 2.6-0.4 3.5-3.5 2.6-5.7-0.4-1-1.1-1.8-2-2.3-0.6-0.4-2.4-1.3-3.1-1.1z"/>
<path class="st1" d="m228.3 76.4c5.3-0.2 10.5-0.4 15.8-0.4 2.8 0 5.7 0 8.5 0.2 1.3 0.1 2.5 0.1 3.8 0.2h0.9c0.7-0.1 1.5 0 2.2 0.2 2.5 1.3-2.6 1.5-3.2 1.5-1.4 0-2.8-0.1-4.2-0.2-1.2-0.1-2.4-0.1-3.6-0.2-7.8-0.2-15.7 0.2-23.5 0.5-1.8 0.1-3.6 0.2-5.4 0.2s-3.8 0.1-5.7 0.2c-2.7 0.1-5.4 0.1-8.1 0.3-1 0.1-2.1 0.1-3.1 0.2l-4.5 0.3c-1.2 0.1-2.3 0.1-3.5 0.2-0.3 0-0.5 0-0.8 0.1-0.7 0.2-1.4 0.2-2.1 0-0.6-0.2-1-0.6-0.7-1.2s1.2-0.5 1.9-0.5h0.5c2.2 0 4.4-0.2 6.7-0.3 0.8 0 1.6-0.1 2.4-0.2 4.2-0.3 8.4-0.5 12.7-0.6s8.7-0.3 13-0.5zm27.5 34.6h1.5c0.2 0 0.3 0.1 0.5 0.2s0.2 0.2 0.3 0.4 0.1 0.3 0 0.5c0 0.2-0.1 0.3-0.2 0.4-0.4 0.5-1.9 0.5-2.8 0.5h-0.6c-2.5 0.2-5 0.3-7.5 0.3-5.3 0-10.6 0.3-15.9 0.6s-10.8 0.4-16.3 0.5l-12 0.3c-2.3 0.1-4.6 0.2-6.9 0.2-0.3 0-0.6 0-0.9 0.1-1.4 0.2-3.5 0.4-4-0.8-0.4-1 0.2-1.5 1-1.7-0.1-0.6-0.1-1.3-0.1-1.9v-0.3c0-0.6 0-1.2-0.1-1.8 0-0.7 0-1.4-0.1-2.1 0-0.6 0-1.3-0.1-1.9-0.1-2.5-0.2-4.9-0.4-7.4-0.1-1.1-0.2-2.3-0.4-3.4-0.2-1.8-0.4-3.6-0.5-5.4v-1.2c-0.1-2.4-0.2-6.1 1.2-7.3 2.6-1.5 2.1 2.9 1.9 4.8 0 0.2-0.1 0.5-0.1 0.7-0.1 3.2 0.1 6.4 0.4 9.6 0.1 2.2 0.1 4.3 0 6.5 0 0.8-0.1 1.6-0.1 2.3v1.2c0 1.2-0.1 2.4-0.2 3.5v0.7c0 1.1 0 2.1-0.2 3.2h1.6c0.6 0 1.3 0 1.9-0.1 1.8-0.1 3.7-0.1 5.5-0.2 4.3-0.2 8.6-0.2 13-0.3 5.1-0.1 10.2-0.1 15.3-0.4l25.3-0.3zm1.5-31.7c0 5.6 0.4 11 0.9 16.5 0.3 3.4 0.6 6.9 0.8 10.3v0.8c0 1.9 0 6 1.8 5 1.4-0.7 0.9-5 0.6-7.4-0.1-0.4-0.1-0.8-0.1-1.2 0-0.6-0.1-1.2-0.1-1.8-0.2-2.7-0.4-5.5-0.6-8.2l-0.1-0.6c-0.3-3.2-0.6-6.3-0.6-9.5v-1c0.1-1.2 0.2-2.8-0.3-3.4-0.1-0.2-0.3-0.4-0.6-0.6-0.2-0.1-0.5-0.2-0.8-0.1s-0.5 0.2-0.7 0.4c-0.1 0.2-0.2 0.5-0.2 0.8z"/>
<path class="st1" d="m228.6 92.9c6.7-3.2 13.5-5.9 20.5-8.3 0.5-0.2 0.8 0.4 0.7 0.8s-1.2 0.8-1.9 1.1c-0.2 0.1-0.4 0.1-0.5 0.2-1 0.4-2 0.9-2.9 1.3s-2 0.9-3 1.3c-2.1 0.9-4.2 1.8-6.2 2.8-2.2 1-4.4 2-6.7 3-0.1 0-0.2 0.1-0.3 0.1l9 3.3c1 0.4 2 0.8 3.1 1.2 0.6 0.2 1.2 0.5 1.7 0.7 0.3 0.1 0.6 0.2 0.9 0.3 1.3 0.4 3.3 1 3.4 1.6 0.2 1-2.5 0-3.5-0.3-0.1 0-0.2-0.1-0.3-0.1-1.5-0.5-3-1-4.5-1.6l-0.2-0.1c-1.2-0.4-2.4-0.9-3.6-1.3-2.3-0.8-4.6-1.7-7-2.5l-1-0.3c-3.7 1.7-7.5 3.4-11.2 5.1-2 0.9-4 1.9-6 2.8-0.6 0.3-1.1 0.6-1.6 0.9-1.4 0.8-3.1 1.8-4.2 1.8-0.6 0-1-0.1-1.1-0.9s0.9-1.2 1.6-1.5c0.2-0.1 0.3-0.1 0.4-0.2 2.1-1.1 4.3-2.1 6.4-3.1 4.2-2 8.5-4 12.8-5.9h0.1l-7.2-2.4c-0.2-0.1-0.7-0.2-1.4-0.4-3-0.8-9.5-2.6-9.3-3.7s6.4 1 9.1 2c0.5 0.2 0.9 0.3 1.1 0.4 3.2 1 6.4 2.1 9.6 3.2 1.2-0.4 2.2-0.9 3.2-1.3z"/>
<path class="st1" d="m199.8 119.3c1 0.2 1.8 0.7 2.4 1.5s0.8 1.8 0.7 2.7c-0.3 2.7-2.9 3.9-5.4 3.5-2.8-0.4-3.4-2.7-2-5 0.3-0.6 0.7-1.1 1.2-1.4 0.4-0.2 0.8 0 1.1-0.2 1.1-0.4 0.5-1.2 2-1.1zm-0.9-1.7c-2.4 0.3-6.8 3.1-6.6 5.9 0.1 0.2 0.2 0.3 0.4 0.4s0.3 0.1 0.5 0c-0.1 0.6-0.1 1.2 0.1 1.8 0.2 0.8 0.7 1.4 1.3 1.9 1.3 0.9 2.9 1.3 4.5 1.1 1.4-0.1 2.7-0.7 3.7-1.7s1.6-2.3 1.7-3.7c0.2-3-2.4-6.1-5.6-5.7z"/>
<path class="st1" d="m210.5 121.2c-1.1 0.6-2.8 1.4-3.4 2.5s0 2.4 1.4 1.9c1.1-0.4 1.8-1.8 3-2.2 0.4-0.2 0.9-0.2 1.3-0.2 0.5 0 0.9 0.2 1.3 0.4 1.1 0.5 2.2 0.7 3.4 0.7 1.6-0.1 2.9-1 4.4-1.2 1.3-0.2 2.3 0.3 3.6 0.5s2.3-0.3 3.7-0.6c0.9-0.2 2.5 0.6 3.2 0.3 1.5-0.7-0.1-1.4-0.9-1.7-1.2-0.3-2.4-0.2-3.5 0.3-1.4 0.4-2 0.1-3.4-0.3-2.8-0.7-4.9 1.1-7.5 0.7s-4-2.5-6.6-1.1z"/>
<path class="st1" d="m255.7 119.8c2.7 2.5-0.3 6-3.3 4-0.2-0.2-0.4-0.4-0.5-0.6s-0.2-0.5-0.2-0.8 0-0.5 0.1-0.8 0.3-0.5 0.5-0.7c0.6-0.8 2.2-1.1 3.4-1.1zm-1-2c-2.5 0.5-4.8 1.6-5.1 4.5s2.6 4.1 5.1 3.9c5.4-0.4 5-9.3 0-8.4z"/>
<path class="st1" d="m105.3 94.3c-3.8 0-7.6 0.2-11.4 0.4-3.6 0.2-7.5 0.1-11.1 0.8-1 0.2-2.4 1.1-1 2.1 0.9 0.7 4.4-0.1 5.5-0.2 4.1-0.3 8.3-0.6 12.4-0.7 3.9-0.1 7.9-0.2 11.8-0.2 0.7-0.1 1.5-0.1 2.2 0 0.9 0.3 0.7 0.3 0.7 1.4 0.1 2 0.1 3.9 0 5.9 0 1.9-0.1 3.8-0.1 5.7 0 1.4-0.4 4.1 0.3 5.3 1 1.7 2-0.1 2.1-1.3 0.1-2.2 0.1-4.4 0.1-6.5s0-4.1-0.1-6.1c-0.1-1.5 0.2-4-0.6-5.4s-2.7-1.1-4.2-1.1c-2.2-0.2-4.4-0.2-6.6-0.1z"/>
<path class="st1" d="m81.2 96.7c0 3.8-0.4 7.6-0.6 11.5-0.2 1.8-0.1 3.6 0.3 5.4 0.4 1.7 1.9 2.1 2 0.2 0.3-3.9 0.3-8 0.5-12 0.1-1.4 0.7-4 0.1-5.3-0.4-1.2-2.3-1.4-2.3 0.2z"/>
<path class="st1" d="m116.8 113.6c-6.6 0.9-13.5 0.6-20.1 0.7-3.2 0.1-6.4 0.1-9.6 0.1-1.1 0-3.9-0.4-4.9 0.2-1.5 1 0.1 1.8 1.1 1.8 6.3 0.1 12.7-0.2 19-0.4 2.8-0.1 5.7-0.1 8.5-0.4 1.8-0.1 3.6-0.3 5.3-0.8 0.4-0.1 1.1-0.1 1.2-0.6 0-0.2 0-0.7-0.5-0.6z"/>
<path class="st1" d="m89.3 119.2c-1.8 0-7.4-0.8-8.1 0.9-1 2.4 2.9 1.8 4 1.8 2.4-0.1 4.8-0.1 7.2-0.1s4.7 0 7.1-0.1c0.7 0 2.3 0.3 2.7-0.6 0.1-0.1 0.1-0.3 0.1-0.4s0-0.3-0.1-0.4c0-0.1-0.1-0.3-0.2-0.4s-0.2-0.2-0.4-0.3c-1.3-0.8-4.8-0.3-6.3-0.4-1.9 0.1-3.9 0-6 0z"/>
<path class="st1" d="m111.7 119.6c-1 0.1-3.2-0.4-4.1 0.1-1.1 0.5-0.7 1.4 0.2 1.8 1.3 0.2 2.6 0.2 3.9-0.2 0.6-0.3 1.3-1.8 0-1.7z"/>
<path class="st1" d="m123.2 97.1c-1.1 0.3-0.8 6.7-0.8 7.7-0.1 2.8-0.4 6.2 0.5 8.9 0.6 1.7 1.7 1.5 1.5-0.3-0.2-1.6-0.5-3.1-0.6-4.7-0.4-3.6-0.6-7.3-0.4-10.9 0.1 0.2 1.2 2.1 1.4 2 0-0.1-1.2-2.8-1.6-2.7z"/>
<path class="st1" d="m135.8 94.8c-2.3 0-4.5 0.1-6.8 0.1-1.8 0.1-4.6-0.2-6.3 0.5-2 0.9-1 2.9 0.8 3 1.6 0 3.4-0.3 5-0.4 4.5-0.2 8.9-0.2 13.4-0.2 4 0 8.2 0.4 12.2-0.2 0.6 5.3-1 10.5-0.5 15.9 0.1 0.8 0 2 1.1 2.2 1.3 0.2 1.4-1.1 1.4-2 0.1-2.7 0.1-5.4 0.3-8.1 0.3-2.5 0.4-5 0.2-7.5-0.4-3.1-1.8-2.8-4.5-3-5.4-0.4-10.8-0.4-16.3-0.3z"/>
<path class="st1" d="m128.2 113.4c-1.2 0-3.1-0.3-3.8 0.8s0.1 2.2 1.3 2.4 3.1-0.1 4.4-0.1h4.3c6.1 0 12.3 0.1 18.4-0.1 0.9 0 3.3 0.3 3.9-0.6 0.1-0.1 0.2-0.3 0.2-0.5v-0.5c0-0.2-0.1-0.3-0.3-0.5-0.1-0.1-0.3-0.2-0.4-0.3-1.1-0.6-3.5-0.4-4.7-0.4-1.6-0.1-3.1-0.1-4.7-0.1-6.3-0.1-12.5-0.2-18.6-0.1z"/>
<path class="st1" d="m133.3 118.8c-2.3-0.1-4.7 0-7 0.3-2 0.3-2.2 2.2-0.1 2.5 2.1 0.1 4.3-0.1 6.4-0.3 0.7 0 1.5 0 1.9-0.8 0.1-0.2 0.1-0.4 0-0.6s-0.1-0.4-0.2-0.6-0.3-0.3-0.4-0.4c-0.2-0.1-0.4-0.1-0.6-0.1z"/>
<path class="st1" d="m150.7 119c-1.2 0-4.8-0.5-5.4 0.9-1 2.3 3.8 1.4 4.8 1.4 1.2 0 5.7 0.6 5.7-1.2s-4-1.2-5.1-1.1z"/>
<path class="st1" d="m81 130.6c0 4.2-0.3 8.5 0.1 12.8 0.2 1.8 0.1 5.1 1.1 6.6 0.7 1.1 1.7 1 2.1-0.3 0.3-0.8-0.2-2.5-0.2-3.4s-0.1-1.7-0.1-2.6c-0.1-2.2-0.1-4.5-0.1-6.7 0-1.9 0.5-4.5 0.1-6.3s-3-2.3-3-0.1z"/>
<path class="st1" d="m123.6 126.8c-7.4 0.2-14.7 0-22.1 0.4-3.6 0.2-7.2 0.6-10.8 1l-5.3 0.6c-0.5 0.1-5 0.2-3.3 1.9 0.7 0.7 3 0 4-0.1l5.3-0.6c3.4-0.4 6.8-0.7 10.2-0.9 8-0.4 16-0.3 24.1-0.6 2.2-0.1 4.3-0.1 6.5-0.1 0.6 0 4.8 0.2 2.9-1.3-0.9-0.7-4.1-0.4-5.2-0.4-2.1 0-4.2 0.1-6.3 0.1z"/>
<path class="st1" d="m133.6 134c0-2-0.1-3.9-0.2-5.9s2.7-2.4 3.5-0.7c0.6 1.2 0.5 3.2 0.4 5 0 0.7-0.1 1.4-0.1 1.9 0 1.2 0.1 2.5 0.2 3.8 0.2 3.2 0.5 6.6-0.1 9.7-0.3 1.5-1.5 2.3-2.4 1.5-0.3 0.5-1.3 0.5-2 0.5h-0.5c-2 0.1-3.9 0.4-5.9 0.7-3.9 0.6-7.8 0.9-11.7 1-2.7 0.1-5.4 0.1-8 0.1-5.1 0-10.3 0.1-15.4 0.4-1.7 0.1-3.4 0.3-5.1 0.6-0.2 0-0.3 0.1-0.5 0.1-1.3 0.3-3.1 0.7-3.2-1.1-0.1-2.1 4.4-2.4 6.7-2.5 0.3 0 0.6 0 0.9-0.1 7.1-0.6 14.3-0.7 21.4-0.5h2.7c3 0.1 6.1 0.1 9.1-0.1 1.4-0.1 2.8-0.1 4.2-0.2 2.2-0.1 4.5-0.1 6.7-0.4-0.3-1.4-0.4-2.8-0.4-4.2 0-0.5 0-1.1-0.1-1.6-0.1-2.6-0.1-5.3-0.2-8z"/>
<path class="st1" d="m139.6 129.6c-0.2 0-0.5 0.1-0.7 0.2s-0.4 0.3-0.5 0.5-0.2 0.4-0.3 0.7c0 0.2 0 0.5 0.1 0.7 0.6 1.4 2.2 0.8 3.3 0.7 3.5-0.3 7.1 0.3 10.6-0.1 0.9-0.1 2.3-0.6 1.5-1.9-0.6-1-3-0.8-3.9-0.9-3.4-0.3-6.8-0.3-10.1 0.1z"/>
<path class="st1" d="m145.5 135.5c-1.4 0.1-4.5 0-5.1 1.6-1 2.8 3 1.8 4.2 1.6 1.4-0.2 4.8 0.3 5.5-1.1 1.4-2.4-3.4-2.1-4.6-2.1z"/>
<path class="st1" d="m142 141.6c-0.3 0.3-0.5 0.8-0.5 1.2s0.2 0.9 0.5 1.2c0.8 0.8 2.5 0.6 3.5 0.7 1.4 0.1 5.6 0.8 6.3-0.9 1-2.3-2.8-2.2-4-2.4-1.4-0.1-4.6-1-5.8 0.2z"/>
<path class="st1" d="m91.3 102.3c0 2.5 3.9 2.5 3.9 0s-3.9-2.5-3.9 0z"/>
<path class="st1" d="m98.6 102.3c0 2.8 4.4 2.8 4.4 0s-4.4-2.8-4.4 0z"/>
<path class="st1" d="m94.2 106.1c-2.1 0.6-0.2 2.4 0.8 2.8 1.6 0.7 3.7 1.1 5.3 0.2 0.6-0.4 1.1-0.9 0.7-1.7s-1.2-0.5-1.9-0.4c-0.9 0.1-1.8 0.1-2.6-0.2-0.7-0.2-1.6-0.9-2.3-0.7z"/>
<path class="st1" d="m132.9 102.5c0 0.3 0.1 0.7 0.4 0.9 0.2 0.2 0.6 0.4 0.9 0.4s0.7-0.1 0.9-0.4c0.2-0.2 0.4-0.6 0.4-0.9s-0.1-0.7-0.4-0.9c-0.2-0.2-0.6-0.4-0.9-0.4s-0.7 0.1-0.9 0.4c-0.3 0.2-0.4 0.5-0.4 0.9z"/>
<path class="st1" d="m138.7 102.7c0 0.4 0.2 0.8 0.4 1s0.6 0.4 1 0.4 0.8-0.2 1-0.4c0.3-0.3 0.4-0.6 0.4-1s-0.2-0.8-0.4-1c-0.3-0.3-0.6-0.4-1-0.4s-0.8 0.2-1 0.4c-0.3 0.2-0.4 0.6-0.4 1z"/>
<path class="st1" d="m138.5 106.7c-1.5 0.2-5.9 0.6-6.1 2.5-0.4 2.9 4.4 0.5 5.5 0.3 1.3-0.2 2.7-0.3 4-0.2 0.8 0 1.8 0.2 1.7-1-0.2-1.8-3.8-1.7-5.1-1.6z"/>
<path class="st1" d="m100.4 133.3c-1.1 0.3-2.5 2.2-1.8 3.3 1.2 1.9 1.8-1 2.3-1.3 0.9-0.5 1.7 1.4 2.7 0.4 1.6-1.5-2.2-2.7-3.2-2.4z"/>
<path class="st1" d="m113 131.9c-1.3 0-4 1.9-4.2 3.2v0.6c0 0.2 0.1 0.4 0.3 0.5 0.1 0.2 0.3 0.3 0.5 0.4s0.4 0.1 0.6 0.1c1.2 0 1.6-1.5 2.6-1.9s0.9 0.5 1.9 0.9c0.7 0.3 1.6 0.2 1.8-0.7 0.3-1.6-2.2-3.2-3.5-3.1z"/>
<path class="st1" d="m103 139.7c-2.1 1.2 1.3 3.8 2.5 4.2 1.8 0.5 5.4-0.4 5.8-2.6 0.2-0.9-0.4-1.7-1.3-1.5s-1.3 1.1-2 1.5c-0.4 0.3-0.9 0.4-1.4 0.3s-0.9-0.3-1.3-0.6c-0.7-0.7-1.1-2.1-2.3-1.3z"/>
<path class="st1" d="m104.5 157.7c-1.9 0.4-3.7 0.1-5.6 0.5s-3 1.1-4.8 0.4c-0.1 0-0.1 0-0.2-0.1-0.6-0.4-1.4-0.5-2.1-0.5s-1.5 0.3-2.1 0.7c-0.8 0.6-3.4 2.5-3.1 3.7 0.7 2.5 3.6-1.4 4.3-1.8 1.4-0.7 2.4 0.2 3.8 0.5 1.7 0.3 3.1-0.6 4.8-1 1.9-0.4 4.1-0.6 6-0.8 0.8-0.1 3.7 0.5 3.9-0.4 0.4-1.8-4.1-1.4-4.9-1.2z"/>
<path class="st1" d="m117.9 162.8c0.2 0.1 0.1 0 0 0zm5.2-5.2c1.6-0.2 6.7-1.3 7.7 0.3 0.7 1.1-0.4 5-1.4 5.5-0.8 0.4-2.7 0-3.6-0.1-1.7-0.1-3.4-0.1-5-0.2-0.6 0-2.4 0.1-2.8-0.4s-0.5-3.7-0.6-4.5c1.4 0.5 4.2-0.5 5.7-0.6zm3.4-1.6c-2 0.1-4.1 0.2-6.1 0.5-1.1 0.2-2.3 0.6-3.3 0.8-0.3 0.1-0.9-0.1-1.3 0.1-1.2 0.6-0.1 4.5 0.1 5.6 0.4 1.6 1.6 1.9 3.1 2 2.1 0.2 4.2 0.1 6.3 0.1s4.7 0.4 5.8-1.6c0.7-1.3 1.5-4.3 0.9-5.8-0.7-2-3.8-1.8-5.5-1.7z"/>
<path class="st1" d="m149.8 163.3c0 0.1-0.2 0.3 0 0zm-4.8-0.1c0.9-0.2 1.8-0.3 2.7-0.5-0.9 1.2-1.7 0.7-3.2 0.6 0.1-0.1 0.3-0.2 0.5-0.1zm-4.3-0.4c0.2-0.1 0.5-0.2 0.7-0.2 0 0.2 0 0.3 0.1 0.5-0.4 0-0.8-0.1-1.2-0.1 0.1-0.2 0.2-0.2 0.4-0.2zm-2-1.5c0-0.3 0.5-0.1 0.7-0.1-0.5 0.4-0.8 0.5-0.7 0.1zm7.1-3.5v0l0.1-0.1s0.1 0 0.1 0l0.1 0.1c-0.2 0-0.6 0.2-0.3 0zm3.9-0.8c0.9 0.2 0.9 1.3 0 0zm-11.1 0c-0.2 0.1-0.1 0 0 0zm3.6-2.4c-1.6 0.1-4.5 0-5.9 0.9-1.7 1.1-0.8 4.9-0.7 6.6 0.2 2.5 1.4 3.2 3.7 3.4 2.8 0.3 5.7 0.4 8.5 0.3 2.5-0.1 4-0.9 4.4-3.6 0.1-0.8 0.5-2.1 0.5-2.8 0-0.5-0.3-0.8-0.4-1.2-0.6-2.6-1.5-2.9-4.2-3-2-0.4-4-0.6-5.9-0.6z"/>
<path class="st1" d="m276.4 134.4c-2.1 0.3-7.1 2-7 3.9 0.1 2.9 4.3-0.3 5.2-0.7 5-2.3 11.6 0.7 16.8 1.3 2.4 0.3 7.1 0.8 9.2-0.4 3.8-2.2-5-1.6-6.1-1.7-6-0.4-12-3.2-18.1-2.4z"/>
<path class="st1" d="m322.8 110.9c-0.1 2.6 0 5.1 0.3 7.7 0.1 0.8 0.3 2.2 1.1 2.6 0.2 0.1 0.4 0.2 0.6 0.2s0.4 0 0.6-0.1 0.3-0.2 0.4-0.4 0.2-0.4 0.2-0.5c0.2-1-0.3-2.4-0.3-3.4-0.1-1.4-0.1-2.8-0.1-4.2 0-1 0.3-2.6-0.9-3.1-0.2-0.1-0.4-0.1-0.6 0-0.2 0-0.4 0.1-0.6 0.2s-0.3 0.3-0.4 0.5c-0.2 0-0.3 0.3-0.3 0.5z"/>
<path class="st1" d="m363.3 106.9c-8.5 0.9-17.1 1-25.6 1.5-3.9 0.2-8.7-0.1-12.4 1.5-0.7 0.3-3.2 1.9-1.2 2.5 0.6 0.2 1.3-0.5 1.8-0.7 0.9-0.4 1.8-0.6 2.8-0.6 7.7-1.2 15.8-1 23.7-1.6 2-0.1 4-0.3 6-0.5 1.4-0.1 4.4-1.2 5.7-0.6 2.3 0.9 2.2 6.7 2.2 8.8 0 1-1 4.8 1 4.4 1.6-0.3 1-4.2 0.9-5.2-0.3-3-0.9-9.9-4.9-9.5z"/>
<path class="st1" d="m366.4 121.2c-7.4 0.7-14.9 0-22.3 0.3-3.9 0.1-7.8 0.4-11.6 0.5-1.7 0.1-3.4 0.1-5 0.1-0.8 0-4.5 0.5-2.2 2.1 1 0.7 4.2 0.1 5.3 0.1 1.7 0 3.4-0.1 5.2-0.2 4-0.2 8-0.4 12-0.5 3.8-0.1 7.6-0.1 11.5-0.2 1.9 0 3.8-0.2 5.7-0.4 0.4-0.1 1.8-0.1 2.1-0.6 0.1-0.1 0.1-0.3 0.1-0.4s0-0.3-0.1-0.4l-0.3-0.3c-0.2-0.1-0.3-0.1-0.4-0.1z"/>
<path class="st1" d="m333.2 114.7c1.7 1.8-0.9 3.8-2.5 2.1s1.4-2.1 2.5-2.1zm-1.8-2.6c-5.9 1.1-3.8 9 1.7 7.8 0.6-0.1 1.1-0.3 1.6-0.7 0.5-0.3 0.9-0.8 1.1-1.3 0.3-0.5 0.5-1.1 0.5-1.6 0-0.6 0-1.2-0.2-1.7-0.1-0.5-0.4-1-0.7-1.3-0.3-0.4-0.8-0.7-1.3-0.9-0.5-0.1-0.9 0.1-1.4 0s-0.7-0.4-1.3-0.3z"/>
<path class="st1" d="m354.1 114.3c-3.6 0-7.1 0.2-10.7 0.2-1.1 0-3.9-0.5-3.9 1.3s3.1 1.2 4.2 1.1c3.5-0.1 7.1-0.2 10.6-0.6 0.9-0.1 4 0.1 4-1.2s-3.5-0.8-4.2-0.8z"/>
<path class="st1" d="m362.6 126.3c-8.8 0.2-17.7 0.3-26.5 0.8-3.3 0.2-6.6 0.3-9.9 0.3-0.6 0-1.9-0.2-2.5 0.2-1.6 1.1 0.2 2 1.3 2.1 7.3 0.4 14.6-0.6 21.9-0.8 4.2-0.1 8.5-0.2 12.7-0.4 1.2-0.1 2.3-0.1 3.5-0.2 0.7-0.1 2.4 0.1 3-0.3 2.3-1.8-2.7-1.7-3.5-1.7z"/>
<path class="st1" d="m322.1 130.7c-0.1 2.3-0.1 4.5 0.2 6.8 0.1 0.9 0.2 1.9 1.2 2.1s1.4-0.5 1.6-1.3c0.5-2 0.1-4.8 0.1-6.8 0-1 0-2.1-1.2-2.4h-0.7l-0.6 0.3c-0.2 0.2-0.3 0.3-0.4 0.6-0.2 0.2-0.2 0.4-0.2 0.7z"/>
<path class="st1" d="m372 136.2c-14.3 0.8-28.6 1.4-42.9 2-1.1 0-9.8 0-6.8 3 0.9 0.9 3.3 0.3 4.6 0.2 1.8-0.1 3.6-0.2 5.5-0.2 7.2-0.4 14.5-0.5 21.7-0.9 4-0.2 7.9-0.6 11.9-1 1.9-0.2 4.2-0.2 6-0.9 0.8-0.5 1.7-2.3 0-2.2z"/>
<path class="st1" d="m363.8 124.6c-1.1 1.1-0.5 3.2-0.4 4.6 0.1 1.8 0.2 3.7 0.5 5.5 0 1.4 0.2 2.8 0.7 4.1 0.2 0.3 0.4 0.5 0.7 0.6s0.6 0.2 0.9 0.2 0.6-0.1 0.9-0.3 0.5-0.4 0.6-0.7c0.6-1 0.3-3.2 0.3-4.3 0-1.6-0.1-3.2-0.2-4.7-0.1-1.3 0.2-3.4-0.5-4.5-0.9-1.2-2.5-1.6-3.5-0.5z"/>
<path class="st1" d="m333.6 132.6c2.4 0.5-1.5 3.2-2.7 1.3-0.2-0.3-0.3-0.7 0-0.9s0.5 0.2 0.7 0.1c0.6-0.3 1.3-0.5 2-0.5zm-0.3-2.2c-1.6 0.1-3.8 0.2-4.6 1.9-1.1 2.2 0.8 4.3 2.9 4.6s5.1-0.8 5.3-3.2c0-0.5-0.1-0.9-0.3-1.3s-0.5-0.8-0.8-1.1-0.7-0.5-1.2-0.7c-0.4-0.2-0.9-0.3-1.3-0.2z"/>
<path class="st1" d="m346.8 131.5c-1.7 0-5-0.5-6.4 0.3s-0.8 2.2 0.5 2.6c1.1 0.1 2.1 0 3.2-0.2 1.2 0 2.4-0.1 3.6-0.1h6c2.1 0 4.1 0.1 6.2-0.1 2.6-0.2 2.5-2.1 0-2.4-4.3-0.3-8.8-0.1-13.1-0.1z"/>
<path class="st1" d="m342.5 153.2c0 0.9 0.8 0 0.8 0s-0.8-0.9-0.8 0z"/>
<path class="st1" d="m324 145.8c0.1 2.7 0.1 5.4 0.2 8 0 0.8-0.2 2.5 0.8 2.9s1.5-0.7 1.6-1.5c0.4-2.6 0-5.5 0-8.1 0-0.9 0.2-2.1-0.8-2.5-0.2-0.1-0.4-0.1-0.6-0.1s-0.4 0.1-0.6 0.2-0.3 0.3-0.4 0.5c-0.2 0.2-0.2 0.4-0.2 0.6z"/>
<path class="st1" d="m368.2 145.8c0 0.1 0.3 0.2 0 0zm-21.7-2.1c-4.1 0.1-8.2 0.1-12.3 0.3-1.8 0.1-3.5 0.1-5.3 0.3-1.2 0.1-4.3 0.2-5.1 1.2-1.7 2.1 1.9 1.5 2.6 1.3 1.4-0.3 2.8-0.4 4.2-0.5 3.1-0.2 6.1-0.2 9.2-0.3 8.3-0.2 16.6-0.1 24.9-0.2 0.8 0 2.3-0.3 3 0s0.7 1.1 0.8 2.1c0.1 1.2-0.7 3.6-0.1 4.6 1 1.6 2.4 0.2 2.6-0.9 0.2-1.7-0.1-3.5-0.6-5.1-0.6-2.2-1.5-2.3-3.7-2.4-2.5-0.2-4.9-0.3-7.4-0.3-4.3-0.2-8.5-0.2-12.8-0.1z"/>
<path class="st1" d="m362.8 154.7c-8.9 1-18.1 0.4-27.1 0.5-2.2 0-4.4 0-6.5 0.1-1.2 0.1-3.9-0.3-4.7 0.6-1.7 1.9 1.3 2.1 2.4 2.1 2.2-0.2 4.4-0.2 6.6-0.2 7.8-0.1 15.6 0.3 23.4-0.1 3.3-0.2 6.5-0.7 9.7-1.3 0.7-0.1 5.6-1.1 2.8-2.2-1.5-0.7-4.9 0.3-6.6 0.5z"/>
<path class="st1" d="m336.7 151.3c0 0.1-0.1 0.2 0 0zm-0.6-0.7c0.1 0 0.1 0.1 0 0zm0 0c0.2 0.2 0.4 0.6 0.4 0.9-1.8 0.4-2.5-1.1-0.4-0.9zm-3.1-2.3c-1.2 1.5-2.2 3.2-0.7 4.9 0.7 0.7 1.7 1.2 2.7 1.3s2.1-0.1 3-0.6c1.7-1 1.6-3.2 0.4-4.7-0.8-0.9-1.4-0.9-2.6-1.1-0.8 0-2.2-0.6-2.8 0.2z"/>
<path class="st1" d="m345.3 151c0 2 8.6 1.1 10.1 1.1 1.3 0 9 0.7 8.4-1.3-0.5-1.7-8.1-0.8-9.7-0.8-1.3 0-8.8-1-8.8 1z"/>
<path class="st1" d="m233.5 169.6c4.3 0.6 8.7 2.6 8.7 7.6 0 4.2-3.6 8.7-8.1 8.4-4.1-0.2-7.9-4.7-8.4-8.5-0.3-2 0.2-4.1 1.4-5.7 1.6-2.1 4-2.1 6.4-1.8zm-2-2.7c-1.4-0.1-2.8 0.2-4.1 0.8s-2.4 1.5-3.2 2.7c-0.8 0.8-1.4 1.7-2 2.7-0.5 0.9-0.4 3.2 1.3 2.1-0.4 4.4 2.2 8.7 5.9 11 1.8 1.2 4.1 1.8 6.3 1.5s4.2-1.3 5.7-3c3.1-3.2 4.2-8.5 1.9-12.4s-7.5-5.4-11.8-5.4z"/>
<path class="st1" d="m240.8 165.7c-2 1.5-3.8 3.3-5.3 5.3-1.5 1.9-2.4 4.3-4.2 5.9-0.9-1-1.9-3.6-3.7-2.6-1.5 0.9-0.5 2.4 0.2 3.3 1.9 2.5 3.9 3.5 6.3 1 2.2-2.3 3.4-5.3 5.4-7.7 1.1-1 2.1-2.1 3-3.2 0.6-0.9-0.2-3.1-1.7-2z"/>
<path class="st1" d="m315.9 7.9v0.6c0.1 3.8 0 7.6-0.3 11.4-0.1 1.3-1 2.9-2.1 1.1-0.5-0.8-0.4-2.4-0.4-3.6v-0.8c0-1.3 0.1-2.7 0.1-4 0.2-2.6 0.2-5.2-0.1-7.8v-0.1c-0.2-1.1-0.2-1.2-1.4-1.2h-4.6c-1.6 0-3.2 0.1-4.7 0.1-0.3 0-0.8 0.1-1.4 0.1-1.5 0.2-3 0.4-4.5 0.4 0 0.9-0.2 1.7-0.4 2.6-0.2 0.7-0.4 1.5-0.4 2.3-0.1 1.7-0.1 3.4-0.1 5.2 0 2.1 0 4.2-0.2 6.3v0.3h0.2c1.1-0.1 2.1-0.1 3.2-0.1h5c2.4 0.1 4.7 0 7.1-0.3 0.7-0.1 0.9 0.8 0.6 1.2-0.2 0.2-0.5 0.3-0.7 0.4-0.3 0.1-0.6 0.1-0.9 0.1h-0.4c-1.5 0.2-3 0.3-4.5 0.4s-3.2 0.1-4.8 0.2c-0.4 0-0.9 0.1-1.4 0.1-1.5 0.1-3.3 0.3-4.3-0.1s-1-0.9-0.6-1.3c-0.2-0.4-0.2-0.9-0.2-1.4v-0.4c-0.2-1.8-0.4-3.5-0.4-5.3 0-3.5 0-7.2 1-10.6-0.4-0.2-0.6-0.4-0.6-0.8 0-1.8 5.7-1.7 8.4-1.7h1.1c2-0.1 3.9-0.1 5.9 0 0.5 0 0.9 0 1.4-0.1 1-0.1 2-0.1 3 0.1 2.3 0.8 2.3 4.5 2.4 6.7z"/>
<path class="st1" d="m330.3 1.9c2.1-0.1 4.3-0.1 6.4-0.1 2.3 0 4.6 0 6.8 0.1h0.1c1 0 6.6 0.2 4 1.6-0.2 0.1-0.3 0.1-0.5 0.2 0.1 0.5 0.1 1.1 0.1 1.6-0.1 1.2-0.1 2.4-0.2 3.7 0 0.8-0.1 1.7-0.1 2.5l-0.3 6.9v1.1c0.1 1.4 0.1 3.2-0.6 3.8s-1.1 0.5-1.4 0.1c-1.8 0.5-5.6 0.4-7.5 0.3h-1c-0.6 0-1.1 0-1.7 0.1-3.3 0.2-9.3 0.6-9.4-1 0-0.2 0-0.3 0.1-0.4-0.3-0.3-0.5-0.7-0.6-1.1-0.5-1.8-0.7-3.6-0.6-5.4-0.1-2.5-0.1-5.1-0.1-7.6v-3.9c-0.1-0.2-0.2-0.5-0.1-0.8s0.2-0.5 0.4-0.6c0.9-0.8 3.2-0.8 4.9-0.8 0.4-0.2 0.8-0.3 1.3-0.3zm-3.5 19.5c2.5-0.3 4.9-0.4 7.4-0.2h1.1c1.9 0 3.8 0 5.7 0.1h3.2v-0.3c-0.1-1.7 0-3.4 0-5.1v-1.1c0-1.3 0.1-2.5 0.2-3.8 0-0.8 0.1-1.6 0.1-2.4v-1.4c-0.1-1.2 0-2.3 0.1-3.5-0.7 0-1.4-0.1-2.1-0.1s-1.2-0.1-1.7-0.1h-7c-2.2 0-4.5 0.1-6.7 0.4-0.2 0-0.3 0.1-0.5 0.1 0.2 1.2 0.2 2.5 0 3.7 0 0.6-0.1 1.2-0.1 1.6 0 2.8 0.1 5.6 0.1 8.4 0 1.1 0.1 2.1 0.1 3.2 0 0.1 0.1 0.3 0.1 0.5z"/>
<path class="st1" d="m303.3 22.9c-1.4 0.8-0.6 4.1-0.2 5.3 0.9 1.9 2.4 3.4 4.2 4.3 3.6 2 8.7 1.4 11.4 4.9 0 0 1 1 1.2-0.2 0.2-1-1.6-2.5-2.2-3-1.9-1.4-4.4-1.8-6.6-2.5-2.4-0.7-4.9-2.1-5.9-4.5-0.5-1 0.2-5.6-1.9-4.3z"/>
<path class="st1" d="m335.5 24.5c-1.3 0.4-0.4 2.1-0.4 3 0 1.1-0.4 2.3-1 3.2-1.7 2.2-5.1 2.6-7.7 3.2-1.9 0.5-6.3 1.5-6.5 4-0.2 2.8 3.7-0.6 4-0.7 3.7-1.3 8.4-1.6 11.2-4.6 1.2-1.2 1.9-2.8 2-4.5 0.1-1 0.1-4.1-1.6-3.6z"/>
<path class="st1" d="m308.8 49.3c0-5.2 4.9-8.3 9.4-9.5 1.2-0.3 2.5-0.4 3.8-0.1 1.3 0.2 2.5 0.7 3.5 1.5 1 0.7 1.9 1.7 2.6 2.8 0.6 1.1 1 2.4 1.1 3.6 0.7 5.7-3.6 10.3-9.3 10.6-5 0.2-11.1-3.4-11.1-8.9zm12-7c0.3 0.4 0.6 1 0 1.4s-0.8-0.1-1.1-0.5c-0.1-0.2-0.4-0.5-0.6-0.6-0.7-0.2-1.7 0.5-2.2 0.9l-0.9 0.9c-1.2 1.3-2.9 3.2-3.8 1.6-3.8 6.5 5.6 11.4 11 8.9 5.7-2.7 4.6-12.6-2.4-12.6z"/>
<path class="st1" d="m315.9 47.5c0.1 0.2 0.2 0.4 0.4 0.5s0.4 0.2 0.6 0.2 0.4-0.1 0.6-0.2 0.3-0.3 0.4-0.5c-0.1-1.1-2-1.2-2 0z"/>
<path class="st1" d="m319.2 47.3c0 0.3 0.1 0.6 0.3 0.8s0.5 0.3 0.8 0.3 0.6-0.1 0.8-0.3 0.3-0.5 0.3-0.8-0.1-0.6-0.3-0.8-0.5-0.3-0.8-0.3-0.6 0.1-0.8 0.3-0.3 0.5-0.3 0.8z"/>
<path class="st1" d="m316.8 50.7c-1.9 1.1 3.5 3.3 3.7 1.1 0.1-1-0.8-0.7-1.5-0.8-0.5-0.1-1.6-0.6-2.2-0.3z"/>
<path class="st1" d="m316 58.6c0 2.8 0.2 5.6 0.6 8.4 0.1 0.5 0.2 2.4 0.6 2.8 1 1 1-0.9 1.1-1.6 0.1-2.5-0.1-5.2-0.2-7.7 0.1-0.7 0-1.5-0.1-2.2-0.4-0.8-2-1.1-2 0.3z"/>
<path class="st1" d="m314 56.3c-4.1 4.6-9.8 4.3-15.5 4.7-3 0.2-6.1 0.7-8.5 2.6-1.1 0.9-2.1 2-2.8 3.3-0.3 0.6-1.6 3.8 0.4 3.1 0.7-0.3 1.4-2.4 1.9-3.1 0.9-1.2 2.1-2.2 3.4-2.9 2.6-1.3 5.8-1.2 8.6-1.4 3-0.2 6.2-0.3 8.9-1.6 1.3-0.6 2.5-1.4 3.5-2.4 0.4-0.4 1.2-0.9 1.2-1.5 0.3-0.6-0.3-1.7-1.1-0.8z"/>
<path class="st1" d="m293.2 70.5c-3.9 0.1-7.7 0.3-11.6 0.5-0.8 0.1-3.4-0.1-2.8 1.5 0.5 1.3 3.8 0.4 4.8 0.4 4-0.2 8.1-0.3 12.1-0.7 0.9-0.1 5 0 3.3-1.6-0.7-0.8-4.7-0.2-5.8-0.1z"/>
<path class="st1" d="m276.4 72.3c-1.2 1.6-0.7 5.5-0.6 7.4s-0.3 5.3 2.2 5.6c-0.8-0.1 0.6 0 0.8 0.1h4.9c2.6-0.1 5.2-0.1 7.8-0.3 1.1-0.1 7 0 7.2-1.1 0.3-1.4-5.4-0.6-6.4-0.6-2.5 0.1-4.9 0.1-7.4 0.2h-3.7c-0.5 0-2.5 0.2-2.8-0.1s-0.1-2.9-0.1-3.3v-4c0-0.9 0.5-2.6 0.1-3.4-0.1-0.2-0.2-0.4-0.3-0.5-0.2-0.1-0.3-0.2-0.5-0.3s-0.4 0-0.6 0c-0.3 0-0.5 0.1-0.6 0.3z"/>
<path class="st1" d="m296.3 72.4c0 3 0.2 5.9 0.8 8.8 0.2 1 0.6 2.9 1.5 3.4 0.2 0.1 0.4 0.2 0.7 0.2 0.2 0 0.5-0.1 0.7-0.2s0.4-0.3 0.5-0.5 0.1-0.4 0.1-0.7c0.1-1.3-0.6-2.9-0.7-4.2-0.2-1.5-0.3-3-0.3-4.5 0-1.1 0.3-2.8-0.8-3.6-0.2-0.1-0.5-0.2-0.8-0.2s-0.5 0.1-0.8 0.2c-0.2 0.1-0.4 0.3-0.6 0.6-0.2 0.1-0.3 0.4-0.3 0.7z"/>
<path class="st1" d="m304 71.7c-1.2 1.2-0.7 5-0.5 6.5 0.1 1.1 1.3 6.7 3.2 3.8 0.8-1.3-0.2-4.7-0.2-6.2 0-1 0.3-2.2 0.2-3.1 0-0.3-0.1-0.6-0.3-0.8s-0.4-0.4-0.7-0.5-0.6-0.1-0.9-0.1-0.6 0.2-0.8 0.4z"/>
<path class="st1" d="m312.4 70.7c3.6-0.4 7.3-0.7 10.9-0.7h0.5c2.5 0 6.2-0.1 7.9 1.8 0.8 1.2 1.4 2.6 1.7 4 0.1 0.2 0.1 0.5 0.2 0.7s0.1 0.5 0.2 0.7c0.4 1.2 0.9 2.8 0.4 3.8-0.3 0.5-0.7 1-1.4 0.8-0.1 0-0.2 0-0.2-0.1s-0.1-0.1-0.2-0.1c0.2 0.1 0.3 0.3 0.3 0.5s0 0.4-0.1 0.6c-0.3 0.8-1.4 0.8-2.2 0.8h-0.6c-2.8 0.2-5.5 0.4-8.3 0.4h-8.1c-1 0-2 0.1-3 0.2-1.3 0.1-2.5 0.2-3.8 0.2-0.9 0-1.9-0.3-1.7-1.5 0.2-1 1.1-1.1 1.9-1.1h0.2c2.6-0.3 5.3-0.4 7.9-0.4h16.5c0.2 0 0.4 0.1 0.6 0.2-0.2-0.3-0.2-0.6-0.2-0.9v-0.5c0-0.3-0.1-0.6-0.1-0.9-0.1-1-0.2-2.1-0.4-3.1 0-0.2-0.1-0.3-0.1-0.5-0.2-1.1-0.4-2.5-1.3-3.1s-2.6-0.6-3.9-0.5h-1c-3.5 0-7.1 0.1-10.6 0.5-0.3 0-0.5 0-0.8 0.1-1.3 0.1-2.7 0.2-4 0.5-0.3 0.1-0.7 0.2-1 0.3-1.1 0.4-2.6 0.9-3.2 0.3-1.5-2.1 6-2.9 7-3z"/>
<path class="st1" d="m326.4 54.4c-2.2 1.3 1.9 5.1 2.9 5.7 2.3 1.3 5.5 1.5 8.1 1.9 3.3 0.5 6.9 0.6 10 1.7 1.2 0.5 2.3 1.3 3.1 2.3 0.4 0.6 1.5 3 2.5 2.4 2-1.1-3.3-6-4.5-6.5-2.7-1.2-5.8-1.5-8.7-2-2.7-0.3-5.3-0.8-7.9-1.5-1.3-0.4-2.5-1.2-3.3-2.3-0.5-0.9-0.9-2.5-2.2-1.7z"/>
<path class="st1" d="m360 69.2c-2.5 0.1-5.1 0.3-7.6 0.4l-4.3 0.3c-0.4 0-0.9 0.1-1.3 0.1-1.2 0.1-2.5 0.1-3.7 0.3-0.2 0-0.4 0-0.6 0.1-1.2 0-2.3 0.2-3.4 0.6-0.2-0.1-0.4-0.2-0.7-0.3-0.2 0-0.5 0-0.7 0.1s-0.4 0.3-0.6 0.5c-0.1 0.2-0.2 0.4-0.3 0.7 0 2.1 0 4.1 0.2 6.2 0.2 1.4 0.5 2.8 1 4.2-0.2 1.2 0.8 1.5 1.7 1.6 3.8 0.3 7.5 0.2 11.3-0.2 1.9-0.1 3.8-0.3 5.7-0.3h1.9c2.1 0.1 4.2-0.1 6.2-0.4h0.3c0.8-0.1 1.9-0.3 2-1.2 0-0.2 0-0.5-0.1-0.7s-0.3-0.4-0.6-0.4c0-0.4 0-0.9-0.1-1.3v-0.2c-0.1-1.2-0.4-2.4-0.7-3.6-0.1-0.3-0.1-0.5-0.2-0.8s-0.1-0.6-0.2-1c-0.3-1.3-0.6-3-1.4-3.8-1-0.7-2.3-0.9-3.5-0.7-0.1-0.2-0.2-0.2-0.3-0.2zm4.5 11.5c-0.3-0.9-0.5-1.9-0.5-2.9-0.1-0.6-0.1-1.2-0.2-1.8-0.1-0.4-0.1-0.8-0.2-1.2-0.1-1-0.4-2-0.7-2.9-0.5-1.2-0.9-1.1-2-1-0.2 0-0.5 0-0.7 0.1l-3.2 0.3c-0.5 0-1 0.1-1.5 0.1-2.2 0.2-4.4 0.3-6.6 0.5l-3.9 0.3c-1 0.1-2 0.3-3 0.5-0.8 0.2-1.5 0.3-2.3 0.4 0 0.3 0 0.5-0.1 0.8 0 0.3-0.1 0.7-0.1 0.9 0 1.2 0.1 2.4 0.2 3.5v0.5c0 0.2 0.1 0.5 0.1 0.8 0.1 0.5 0.2 1 0.2 1.5h0.7c2.8 0 5.6-0.1 8.3-0.2h1.1c2.5-0.1 5-0.2 7.4-0.2 1 0 2 0 3 0.1 1.4-0.1 2.7-0.1 4-0.1z"/>
<path class="st1" d="m103.7 288.5c28.3 0 51.2-21.9 51.2-48.9s-22.9-48.9-51.2-48.9-51.2 21.9-51.2 48.9 22.9 48.9 51.2 48.9z"/>
<path class="st2" d="m118.2 97.8c4.3 2.6 8.5 3.8 10.5 3.3 5-1.3 5.4-19.5 1.6-26.7s-23.6-10.3-24.6 3.9c-0.3 4.9 1.7 9.3 4.8 12.9l-5.5 25.6h15.9l-2.7-19z"/>
<path class="st3" d="m124 66.7c-2.2-0.6-4.4-0.9-6.7-0.7 0.8-1.8 1.1-3.8 0.8-5.8-0.3-1.8-1-3.6-1.9-5.2-0.3-0.8-0.8-1.5-1.4-2.2-0.6-0.6-1.4-1-2.3-1.2s-1.7-0.2-2.6 0c-0.4 0.1-0.7 0.2-1.1 0.3s-0.6-0.1-0.8-0.4c-0.7-0.6-1.6-0.9-2.5-1s-1.9 0-2.8 0.3-1.7 0.8-2.3 1.5c-0.3 0.3-0.5 0.7-0.7 1.1-0.1 0.2-0.1 0.3-0.2 0.3-0.2 0.1-0.3 0.1-0.5 0.1-0.8 0.3-1.5 0.7-2.1 1.2s-1.1 1.2-1.4 2c-0.5 1.3-0.6 2.7-0.5 4.1 0.1 1.7 1.6 6.2 3.1 7.8 1.3 1.4 3.1 2.4 5 2.8-1.2 1.4-2.1 3.1-2.6 4.9-0.7 1.9-1.1 4-1.2 6-0.2 2-0.1 4 0.3 5.9 0.2 0.9 0.5 1.7 1 2.4s1.1 1.3 1.8 1.8c0.7 0.4 1.4 0.7 2.2 1 0.7 0.3 1.5 0.6 2.3 0.7 1.5 0.3 3.2 0.3 4.3-0.9 0.5-0.5 0.9-1 1.2-1.5 0.1-0.2 0.2-0.3 0-0.5l-0.6-0.6c-1.1-1-1.8-2.3-2-3.8-0.2-1.6 0.2-3.6 1.8-4.2 1.9-0.8 3.9 0.1 5.6 1 0.3-1.2 0.8-2.4 1.6-3.4s1.7-1.9 2.8-2.5c2.5-1.3 5.4-1.4 8-2.5 0.7-0.2 1.4-0.7 1.9-1.2 0.3-0.2 0.4-0.6 0.5-0.9 0.1-0.4-0.2-0.8-0.4-1.1-1.2-1.5-5.4-5-7.6-5.6z"/>
<path class="st2" d="m183.2 237c2.5 8.7 8.6 25.1 17.1 43.9l8.1-2.4c-7.1-43.4-13-72.1-16.3-80.9-2.2-5.8-19.1-5.1-17.2 6.5 0.9 5 4.1 18.1 8.3 32.9zm-33.2-30.7c-13.2 2.7-40.5 12.4-48.4 15.5-4.9 1.9-1.7 8.5 2.4 8 0.7-0.1 3.2-0.4 7-0.8 12-1.3 36.8-4.1 55.6-6.8 9.9-1.4 4.6-20-5.7-18-3.5 0.6-7.1 1.3-10.9 2.1z"/>
<path class="st2" d="m192.6 192.8c-1.3-4.4-62.7-20-62.7-20h-5v4.7l42.2 21.5c-0.1 0.7 0 1.5 0.1 2.2-0.3 16 6.5 27.9 13.3 39.7 4.4 7.7 8.8 15.4 11.2 24.1l15.5-2.3c-0.5-1.2-1.2-6.4-2.1-13.5-2.5-18-6.6-48.2-12.4-56.1 0-0.1 0-0.1-0.1-0.3z"/>
<path class="st2" d="m128.4 211.8c-3.9-0.8-7.4-1.5-10.5-2-19.7-3.5-25.4-14-22-37h36.3c5.9 1.7 36.7 14.6 52.7 21.5 10.6 4.5 7.2 20.9 1.3 25.2 0 0.1 0 0.2-0.1 0.3s-0.1 0.2-0.2 0.2c-22.7 9.4-42 8.7-54.5 8.3-5.2-0.2-9.2-0.3-11.7 0.3l-3.9-12.4 12.6-4.4z"/>
<path class="st2" d="m105.8 221.9c0-0.6-0.3-1.1-0.7-1.5s-1-0.6-1.5-0.5c-1.3 0.1-2.6 0.4-3.8 0.9-1.5 0.9-3 1.8-4.5 2.8 0.9 1.9 16.4 33.7 16.4 33.7s5-0.8 3.9-3.8-1.7-5-1.7-5l-0.6-18.7c0-0.1 0-0.3-0.1-0.4s-0.1-0.2-0.2-0.3-0.2-0.2-0.4-0.2c-0.1 0-0.3-0.1-0.4 0l-2.6 0.2c-1.3-1-2.4-2.3-3.3-3.7-0.3-1.2-0.5-2.4-0.5-3.5z"/>
<path class="st2" d="m199 277c-0.2-0.1-0.5-0.2-0.8-0.2s-0.5 0-0.8 0.1-0.5 0.3-0.7 0.5-0.3 0.4-0.4 0.7c-0.5 1.2-0.8 2.5-0.9 3.8 0.1 1.7 0.3 3.5 0.6 5.2h37.5s1.5-4.8-1.7-5.2-5.2-0.7-5.2-0.7l-17.1-7.6c-0.2-0.1-0.5-0.1-0.8 0-0.2 0.1-0.4 0.3-0.5 0.5l-1 2.4c-1.5 0.7-3.1 1.2-4.7 1.4-1.2-0.1-2.4-0.4-3.5-0.9z"/>
<path class="st2" d="m181.2 179.2-21.2-15.6-4.7 11.6 21 8.7c5.9 7 9.3 9.9 10 8.7 0.6-1 0.1-1.9-0.3-2.7s-0.6-1.3-0.4-1.8c0.5-1.3 4.5-1.2 8.3-0.9s2.7-1.4 1.8-2.2c-4.6-2.6-9.5-4.5-14.5-5.8zm-111.1 27.5c1.9-4 8.6-42.5 8.6-42.5l13.9 0.1s-12.9 41.5-13.9 44.1c-1.3 3.3 0.9 8.1 2.5 11.4 0.2 0.5 0.4 0.9 0.6 1.4-2.1 1-3.1-0.2-4.2-1.4-1.2-1.4-2.5-2.8-5.5-1.4-1.2 0.5-2.3 1.1-3.4 1.8-3.7 2.2-7.2 4.2-11.9 1.3-0.7-0.5-1.6-2.2 0.4-3.5 4.9-3.5 11.9-9.4 12.9-11.3z"/>
<path class="st4" d="m118.1 105.9 5.7-1c21.3 18.4 30.1 53.8 56.2 72.6l-6.3 7.8c-45.3-5.6-56.5-48.8-55.6-79.4z"/>
<path class="st2" d="m93 178.1h50.8c2.3 0 1.9-3.4 1.5-5-3.9-19.5-19-40.6-19-68.4l-14.7-2.3c-12 19.5-16.2 43.5-18.6 75.7z"/>
<path class="st4" d="m95 121.3c-1.4 0-2.7-0.4-3.9-1.1s-2.1-1.7-2.7-3c-5.4-9.7-3.4-15 2.3-16.8 3.1-1 6.1-0.3 9.7 0.5 3.4 0.8 6.8 1.3 10.3 1.4 0.4 0 0.7 0 1.1 0.1l4.9 0.3s19.8 67 10.9 89.4h-40.2c-1.9 4.8-4.1 9.5-6.6 14h-10.9c-1.3-38 13.1-67.2 25.1-84.8z"/>
<path class="st2" d="m305.5 55.9c-4.3 2.6-8.5 3.9-10.5 3.3-5-1.3-5.4-19.5-1.6-26.7s23.7-10.3 24.7 3.9c0.2 4.8-1.6 9.5-4.8 13l5.5 25.6h-16l2.7-19.1z"/>
<path class="st4" d="m302.5 24.2c2.1-0.3 7.8-0.6 8.8-0.6 0.7 0 1.4 0.2 1.8-0.5 0.2-0.6 0.3-1.3 0.3-1.9 0.1-0.7 0.3-1.3 0.4-2 0.5-1.9 1.2-3.7 2.1-5.4 1.8-3.2 4.5-5.7 7.9-7.1 3.8-1.5 7.9-2.1 11.9-1.6 4.3 0.3 8.2 1.8 12.2 3.1 3.8 1.4 7.9 1.7 11.9 1.1 4.1-0.6 7.1-2.8 10.6-4.9 3.5-2.2 7.6-3.4 11.7-3.2 3.8 0.4 7.5 1.8 10.6 4 3 1.8 5.5 4.6 6.9 7.8 1.5 3.6 1.5 7.6-1 10.8-3.6 4.7-10.2 5.9-15.7 5.7-3.2-0.1-6.3-0.7-9.3-1.7-4-1.4-7.5-3.8-11.3-5.8-1.8-0.9-3.6-1.7-5.5-2.2s-3.7-0.8-5.4 0.4c-1.7 1.3-3.5 2.3-5.4 3.1-2 0.7-4 1.1-6.1 1.1-4 0-8-1.3-12-2.1-3.2-0.7-6.6-1.4-9.9-0.7-1.4 0.3-3.4 0.8-3.8 2.3 8.3 1.5 11.5 11.8 9.2 19.3-1.3 4.1-8.8 8.8-11.8 6.7-1.9-1.4-0.7-3.1 0-4.3 1.4-2.2 1.9-5.1-0.7-6.7-2.2-1.3-4.6 1.9-4.6 1.8-0.6 0-5.9-3.1-9.6-7.5-3.6 0.2-4.2-2.2-3.3-4.1s6.2-4.4 9.1-4.9z"/>
<path class="st5" d="m329.4 131.2-25 81.9-12.1 69.6h-9.5l12.8-151.5h33.8z"/>
<path class="st5" d="m338.4 131.2c-1.7 45 0.3 68.2 0.7 72.2s5.6 30.6 17.9 80.7l-10.1-3.5c-19.5-45.9-26.1-69.8-28.3-75.9s-8.2-30.6-17.8-73.6h37.6v0.1z"/>
<path class="st4" d="m354.4 280.1c0.2-0.1 0.5-0.2 0.8-0.2s0.5 0 0.8 0.1 0.5 0.3 0.7 0.5 0.3 0.4 0.4 0.7c0.5 1.2 0.8 2.5 0.9 3.8-0.1 1.8-0.3 3.5-0.6 5.3h-37.5s-1.5-4.8 1.7-5.2 5.2-0.7 5.2-0.7l17.1-7.6c0.2-0.1 0.5-0.1 0.8 0 0.2 0.1 0.4 0.3 0.5 0.5l1 2.4c1.5 0.7 3.1 1.2 4.7 1.4 1.2-0.2 2.3-0.5 3.5-1z"/>
<path class="st4" d="m291.9 280.1c0.2-0.1 0.5-0.2 0.8-0.2s0.5 0 0.8 0.1 0.5 0.3 0.7 0.5 0.3 0.4 0.4 0.7c0.5 1.2 0.8 2.5 0.9 3.8-0.1 1.8-0.3 3.5-0.6 5.3h-37.5s-1.5-4.8 1.7-5.2 5.2-0.7 5.2-0.7l17.1-7.6c0.2-0.1 0.5-0.1 0.8 0 0.2 0.1 0.4 0.3 0.5 0.5l1 2.4c1.5 0.7 3.1 1.2 4.7 1.4 1.2-0.2 2.4-0.5 3.5-1z"/>
<path class="st2" d="m374.9 152.2c-2.5-3.6-19.2-52.6-19.2-52.6l-14.4 2.1s24 51 25.3 53.4c1.8 3.1 0.2 8.1-0.9 11.6-0.2 0.5-0.3 1-0.4 1.5 2.2 0.6 3.1-0.6 4-2s2.1-3.1 5.3-2.2c1.2 0.4 2.4 0.9 3.6 1.3 4 1.6 7.7 3.1 11.9-0.4 0.7-0.6 1.2-2.4-0.9-3.4-5.3-2.7-13.1-7.5-14.3-9.3zm-124.3-2.5 16.1-20.8 7.7 9.8-17.8 14.2c-3.8 8.3-6.2 12-7.2 11.1-0.8-0.8-0.6-1.8-0.5-2.7 0.1-0.7 0.3-1.4-0.1-1.9-0.9-1.1-4.7 0.1-8.2 1.5s-3-0.6-2.3-1.6c3.6-3.8 7.7-7.1 12.3-9.6z"/>
<path class="st2" d="m306 64.9-5.8-0.2c-4.5 32.9-47.6 61-48.8 73.2-0.4 4.5 3 6.2 1.6 7.8l8.2 4.4c1-1.6 4.1 0.7 9.4-2s40.6-45.7 35.4-83.2z"/>
<path class="st2" d="m313.9 57.2c0.5-0.1 1-0.1 1.6 0 0.5 0.1 1 0.3 1.5 0.6 0.4 0.3 0.8 0.7 1.1 1.1s0.5 0.9 0.6 1.5l0.5 2.5c11.9 6.7 41.9 27.6 55.3 72.5 1 3.2 0.9 6.6-0.3 9.7-0.5 1.5-1 2.8-0.5 4.2l-9.3 4c-0.2-1.1-1.5-1.7-3.2-2.6-2.5-1.2-5.8-2.9-7.5-6.8-1.6-3.7-3.9-8.4-6.5-13.5 0.8 7.2 0.4 14-1.8 19.8-5.5 14.7-50.3 5.7-56.8-7.5-3.4-7.1-0.9-13.8 2.4-22.6 4.2-11.2 9.7-26 6.1-49.4l-1.1-5.4c-0.1-0.5-0.1-1 0-1.6 0.1-0.5 0.3-1 0.6-1.5 0.3-0.4 0.7-0.8 1.1-1.1s0.9-0.5 1.5-0.6l14.7-3.3z"/>
</svg>
