<svg width="153" height="56" viewBox="0 0 153 56" fill="none" xmlns="http://www.w3.org/2000/svg">
<path fill-rule="evenodd" clip-rule="evenodd" d="M76.2356 33.0918L76.677 31.6184L77.1274 33.0918H76.2356ZM92.8755 30.9657C92.6283 31.1608 92.4709 31.4548 92.4709 31.8647C92.4709 32.3925 92.8333 32.7412 93.4976 32.8454L94.2392 32.9678C94.5034 33.0136 94.6375 33.1035 94.6375 33.2832C94.6375 33.5935 94.2069 33.6914 93.9713 33.6914C93.5434 33.6914 93.2503 33.5296 92.9393 33.2473L92.257 33.6906C92.7452 34.2182 93.2602 34.4187 93.8643 34.4187C94.5349 34.4187 95.5014 34.2155 95.5014 33.1421C95.5014 32.4608 94.9134 32.2431 94.2033 32.1254L93.8589 32.0705C93.5218 32.0149 93.3681 31.9205 93.3681 31.7272C93.3681 31.5007 93.6657 31.3685 93.8679 31.3685C94.2473 31.3685 94.5934 31.5331 94.8271 31.8198L95.5058 31.3326C95.3764 31.1887 95.2272 31.0638 95.0636 30.9657H92.8755ZM88.8751 30.9657V33.0729C88.8751 34.0492 89.7004 34.4187 90.3808 34.4187C91.0668 34.4187 91.8983 34.0492 91.8983 33.0729V30.9657H91.0011V32.9983C91.0011 33.3984 90.8483 33.6914 90.3808 33.6914C89.9197 33.6914 89.7651 33.3984 89.7651 32.9983V30.9657H88.8751ZM86.6448 34.3161H87.5383V31.4369H88.4688V30.9657H85.7126V31.4369H86.6448V34.3161ZM82.2766 30.9657V33.0729C82.2766 34.0492 83.1073 34.4187 83.7852 34.4187C84.4728 34.4187 85.2999 34.0492 85.2999 33.0729V30.9657H84.409V32.9983C84.409 33.3984 84.2508 33.6914 83.7852 33.6914C83.3231 33.6914 83.1694 33.3984 83.1694 32.9983V30.9657H82.2766ZM79.1286 30.9657C78.8822 31.1608 78.7231 31.4548 78.7231 31.8647C78.7231 32.3925 79.0854 32.7412 79.7471 32.8454L80.4905 32.9678C80.7574 33.0136 80.8896 33.1035 80.8896 33.2832C80.8896 33.5935 80.4608 33.6914 80.2253 33.6914C79.7973 33.6914 79.5034 33.5296 79.1933 33.2473L78.5118 33.6906C78.9964 34.2182 79.5132 34.4187 80.12 34.4187C80.7871 34.4187 81.7553 34.2155 81.7553 33.1421C81.7553 32.4608 81.1665 32.2431 80.4554 32.1254L80.1147 32.0705C79.7749 32.0149 79.6149 31.9205 79.6149 31.7272C79.6149 31.5007 79.9187 31.3685 80.1219 31.3685C80.4995 31.3685 80.8491 31.5331 81.0837 31.8198L81.7588 31.3326C81.6285 31.1887 81.4793 31.0638 81.3176 30.9657H79.1286ZM76.1269 30.9657L74.8917 34.3161H75.8446L76.0253 33.7517H77.3432L77.5221 34.3161H78.4822L77.2129 30.9657H76.1269ZM72.06 30.9657V31.4369H72.994V34.3161H73.8876V31.4369H74.8198V30.9657H72.06ZM68.5415 30.9657V34.3161H69.435V32.8122H70.7637V34.3161H71.6546V30.9657H70.7637V32.0301H69.435V30.9657H68.5415ZM66.9601 34.3161H67.8528V30.9648H66.9601V34.3161ZM63.812 30.9657C63.5648 31.1608 63.4075 31.4548 63.4075 31.8647C63.4075 32.3925 63.7698 32.7412 64.4304 32.8454L65.173 32.9678C65.4382 33.0136 65.5731 33.1035 65.5731 33.2832C65.5731 33.5935 65.1451 33.6914 64.9069 33.6914C64.4808 33.6914 64.1878 33.5296 63.8749 33.2473L63.1943 33.6906C63.6817 34.2182 64.195 34.4187 64.8035 34.4187C65.4697 34.4187 66.4361 34.2155 66.4361 33.1421C66.4361 32.4608 65.849 32.2431 65.137 32.1254L64.7982 32.0705C64.4583 32.0149 64.2993 31.9205 64.2993 31.7272C64.2993 31.5007 64.6022 31.3685 64.8044 31.3685C65.182 31.3685 65.529 31.5331 65.7645 31.8198L66.4423 31.3326C66.311 31.1887 66.1628 31.0638 66.0009 30.9657H63.812Z" fill="white"/>
<path fill-rule="evenodd" clip-rule="evenodd" d="M95.0631 30.9656C94.7251 30.757 94.3314 30.6465 93.9322 30.6465C93.5269 30.6465 93.1457 30.7436 92.8742 30.9647L95.0631 30.9656ZM91.0008 30.9656H91.8979V30.7489H91.0008V30.9656ZM88.8738 30.9656H89.7638V30.7489H88.8738V30.9656ZM85.7121 30.9656H88.4683V30.7489H85.7121V30.9656ZM84.4086 30.9656H85.2995V30.7489H84.4086V30.9656ZM82.2763 30.9656H83.169V30.7489H82.2763V30.9656ZM81.3171 30.9656C80.98 30.757 80.5854 30.6465 80.1844 30.6465C79.7807 30.6465 79.4006 30.7436 79.1273 30.9647L81.3171 30.9656ZM77.2124 30.9656L77.1333 30.7489H76.2074L76.1264 30.9656H77.2124ZM72.0587 30.9656H74.8185V30.7489H72.0587V30.9656ZM70.7624 30.9656H71.6533V30.7489H70.7624V30.9656ZM68.5402 30.9656H69.4337V30.7489H68.5402V30.9656ZM66.9597 30.9656H67.8524V30.7489H66.9597V30.9656ZM66.0005 30.9656C65.6616 30.757 65.2679 30.6465 64.8678 30.6465C64.4634 30.6465 64.0813 30.7436 63.8115 30.9647L66.0005 30.9656Z" fill="white"/>
<path fill-rule="evenodd" clip-rule="evenodd" d="M65.7614 51.9693V44.249L72.473 51.9693H75.3146L68.077 43.9263L74.5901 37.416H71.8303L65.7614 43.7258V37.416H63.7441V51.9693H65.7614Z" fill="white"/>
<path fill-rule="evenodd" clip-rule="evenodd" d="M82.9398 47.0511C82.9398 47.292 82.92 48.4822 82.5559 49.4297C82.1541 50.4797 81.0825 50.8824 80.2969 50.8824C78.4638 50.8824 78.0575 49.5915 78.0575 47.835V41.8506H76.1445V48.6225C76.1445 50.6595 77.3528 52.2713 79.4707 52.2713C80.8811 52.2713 82.1703 51.7464 82.9398 50.4797H82.9775V51.9693H84.8528V41.8506H82.9398V47.0511Z" fill="white"/>
<path fill-rule="evenodd" clip-rule="evenodd" d="M85.8613 41.8071V43.2419L87.5991 43.2194V49.6335C87.5991 50.981 87.697 51.017 88.0413 51.5061C88.3623 51.9466 88.8684 52.1101 89.1704 52.1713C89.6334 52.2513 89.9975 52.2701 90.4586 52.2701C90.9027 52.2701 91.3261 52.1713 91.7719 52.1488V50.6799C91.4673 50.7599 91.0645 50.8022 90.7624 50.8022C90.0775 50.8022 89.5112 50.4579 89.5112 49.7342V43.2194L91.8511 43.2419V41.8071L89.5112 41.8709V39.1084L87.5991 39.709V41.8709L85.8613 41.8071Z" fill="white"/>
<path fill-rule="evenodd" clip-rule="evenodd" d="M92.5101 44.6115C92.5101 48.5615 98.6581 46.867 98.6581 49.1261C98.6581 50.4359 97.5056 50.8818 96.3747 50.8818C95.2069 50.8818 94.3611 50.2157 94.3206 48.9642H92.3078C92.2845 51.3026 94.059 52.2707 96.1742 52.2707C98.2517 52.2707 100.673 51.5065 100.673 49.0255C100.673 46.7484 98.6976 46.5452 96.986 45.9807C96.2587 45.7595 94.5237 45.6768 94.5237 44.5504C94.5237 43.4212 95.3508 42.9376 96.3747 42.9376C97.4885 42.9376 98.4756 43.3601 98.3919 44.6511H100.411C100.553 42.3543 98.3919 41.5479 96.4798 41.5479C94.6442 41.5479 92.5101 42.4971 92.5101 44.6115Z" fill="white"/>
<path fill-rule="evenodd" clip-rule="evenodd" d="M110.742 47.2715V46.324C110.742 43.5247 109.31 41.609 106.284 41.5479C103.078 41.5479 101.588 44.0282 101.588 46.9857C101.588 49.9747 102.88 52.2707 106.126 52.2707C108.542 52.2707 110.319 51.1227 110.619 48.8259H108.602C108.382 50.2974 107.634 50.8818 106.144 50.8818C104.19 50.8818 103.463 49.0461 103.605 47.2715H110.742ZM103.605 45.942C103.605 44.2897 104.551 42.9376 106.144 42.9376C107.998 42.9376 108.762 44.2483 108.726 45.942H103.605Z" fill="white"/>
<path fill-rule="evenodd" clip-rule="evenodd" d="M114.277 51.9693V46.509H114.32L118.331 51.9693H120.81L116.273 46.1432L120.551 41.8506H118.072L114.277 45.9823V37.416H112.364V51.9693H114.277Z" fill="white"/>
<path fill-rule="evenodd" clip-rule="evenodd" d="M126.062 41.5479C122.736 41.5479 121.022 43.7647 121.022 46.9084C121.022 50.0548 122.736 52.2707 126.062 52.2707C129.388 52.2707 131.1 50.0548 131.1 46.9084C131.1 43.7647 129.388 41.5479 126.062 41.5479ZM123.038 46.9084C123.038 44.7518 123.786 42.9376 126.062 42.9376C128.336 42.9376 129.086 44.7518 129.086 46.9084C129.086 49.0668 128.336 50.8818 126.062 50.8818C123.786 50.8818 123.038 49.0668 123.038 46.9084Z" fill="white"/>
<path fill-rule="evenodd" clip-rule="evenodd" d="M134.348 46.8892C134.348 44.9942 134.912 42.8772 137.208 42.8772C139.384 42.8772 140.072 45.0544 140.072 46.8892C140.072 48.7852 139.529 50.9409 137.208 50.9409C135.053 50.9409 134.348 48.7852 134.348 46.8892ZM140.051 43.2206H140.008C139.426 42.0115 138.157 41.5485 136.869 41.5485C133.72 41.5485 132.334 44.168 132.334 46.9082C132.334 49.5097 133.52 52.2705 136.523 52.2705C137.999 52.2705 139.332 51.7661 140.008 50.3548H140.051V50.4563L140.113 51.9683H142.069C142.026 51.3832 141.968 50.779 141.968 50.1767V37.415H140.051V43.2206Z" fill="white"/>
<path fill-rule="evenodd" clip-rule="evenodd" d="M150.318 47.0504C150.356 48.9257 149.937 50.8818 147.677 50.8818C146.548 50.8818 145.684 50.2544 145.684 49.0083C145.684 47.5331 147.232 47.107 148.403 47.0504H150.318ZM148.583 45.7191C146.188 45.7191 143.665 46.5452 143.665 49.3877C143.665 51.3628 145.437 52.2707 147.194 52.2707C148.583 52.2707 149.716 51.7277 150.341 50.4557H150.378C150.402 50.9195 150.437 51.3628 150.476 51.8275C150.501 52.0684 150.842 51.9686 151.025 51.9686H152.318C152.253 51.1227 152.237 50.2741 152.237 49.8336V44.9936C152.237 42.1691 150.176 41.5479 148.101 41.5479C146.107 41.5479 144.371 42.3326 144.271 44.5504H146.283C146.306 43.5004 147.21 42.9376 148.179 42.9376C150.218 42.9376 150.318 43.9652 150.318 45.7191H148.583Z" fill="white"/>
<path fill-rule="evenodd" clip-rule="evenodd" d="M38.3453 9.3663L43.3839 2.67711L41.7901 10.8658C40.6925 10.2742 39.5409 9.77443 38.3453 9.3663ZM28.89 8.22552L30.793 0L32.6845 8.20753C32.0983 8.16259 31.5068 8.14011 30.9099 8.14011C30.2303 8.14011 29.5588 8.16708 28.89 8.22552ZM19.8149 10.9835L18.2022 2.67711L23.2868 9.43013C22.0794 9.85354 20.9197 10.3749 19.8149 10.9835ZM12.6269 17.1585L7.78322 10.2428L15.1799 14.3466C14.2566 15.2105 13.4027 16.1516 12.6269 17.1585ZM8.52757 25.7005L1.34934 21.3909L9.72139 22.1244C9.23056 23.2715 8.83052 24.4662 8.52757 25.7005ZM8.22641 35.2007L0 34.1939L7.87671 31.4843C7.89469 32.7483 8.01245 33.988 8.22641 35.2007ZM11.8034 44.042L3.97881 46.4341L9.99288 40.83C10.5107 41.9537 11.1184 43.027 11.8034 44.042ZM18.6903 50.6997L12.5927 56L15.7669 48.5305C16.6803 49.3279 17.6593 50.0524 18.6903 50.6997ZM46.5492 14.2612L53.7985 10.2437L49.0645 16.9976C48.3031 16.0186 47.4599 15.1053 46.5492 14.2612ZM24.8375 49.0447C23.631 48.6222 22.4795 48.0882 21.3962 47.4518C15.6402 44.0599 11.7809 37.8005 11.7809 30.6421C11.7809 19.876 20.5062 11.1489 31.2704 11.1489C38.1025 11.1489 44.1121 14.6648 47.5929 19.9803C48.295 21.0582 48.9009 22.2125 49.3809 23.4207C49.914 24.7575 50.305 26.1626 50.5307 27.6233H56.2247V55.3419H28.5061V49.9374C27.2395 49.7567 26.0132 49.4546 24.8375 49.0447ZM43.2688 19.9803C40.3293 16.6748 36.044 14.5901 31.2704 14.5901C22.4049 14.5901 15.2194 21.7765 15.2194 30.6421C15.2194 35.7788 17.6359 40.3545 21.3962 43.2958V19.9803H43.2688ZM24.8375 45.35C26.8071 46.2103 28.9816 46.6894 31.2704 46.6894C40.1359 46.6894 47.3224 39.5049 47.3224 30.6421C47.3224 28.0432 46.7029 25.5916 45.6098 23.4207H24.8375V45.35ZM52.7835 51.9025V31.0663H50.759C50.5379 41.408 42.2585 49.7702 31.9465 50.119V51.9025H52.7835Z" fill="white"/>
</svg>
