<?xml version="1.0" encoding="UTF-8"?>
<svg enable-background="new 0 0 461 316" version="1.1" viewBox="0 0 461 316" xml:space="preserve" xmlns="http://www.w3.org/2000/svg">
<style type="text/css">
	.st0{fill:#FFFFFF;stroke:#2E3374;stroke-width:1.7;stroke-miterlimit:10;}
	.st1{fill:#AFDADD;}
	.st2{fill:#FFFFFF;}
	.st3{fill:#8FC9CC;}
	.st4{fill:#2E3374;stroke:#2E3374;stroke-width:1.7;stroke-miterlimit:10;}
	.st5{fill:none;stroke:#2E3374;stroke-width:1.7;stroke-miterlimit:10;}
	.st6{fill:#D5401A;stroke:#2E3374;stroke-width:1.7;stroke-miterlimit:10;}
</style>
<path class="st0" d="m326.7 92.6-26.3-0.5 2.8 12.2 22.2-5c8.9 2.3 13.3 2.7 13.2 1.3-0.1-1.2-1-1.6-1.8-2s-1.2-0.7-1.4-1.2c-0.3-1.4 3-3.6 6.3-5.5s1.4-2.7 0.2-2.8c-5.2 0.5-10.3 1.7-15.2 3.5z"/>
<path class="st1" d="m213.7 315.7c89.1 0 161.2-4.9 161.2-10.9s-72.2-10.9-161.2-10.9c-89.1 0-161.2 4.9-161.2 10.9s72.2 10.9 161.2 10.9z"/>
<path class="st1" d="m232.2 125.8c-6 5.9 10.3 65.1 21.3 83.3 6.6 10.9 17.6 17.9 30.5 16.7 15.4-1.5 30.4-15 28.7-30.3-3.2-29.8-48.7-61.7-65.1-69-4.3-2-11.3-4.7-15.4-0.7z"/>
<path class="st2" d="m301.5 218.8c-12.2-25.8-29.2-49.1-50.1-68.6-0.1-0.1-0.2-0.2-0.4-0.2-0.1-0.1-0.3-0.1-0.4-0.1s-0.3 0-0.4 0.1-0.3 0.2-0.4 0.3-0.2 0.2-0.2 0.4c-0.1 0.1-0.1 0.3-0.1 0.4s0 0.3 0.1 0.4 0.1 0.3 0.3 0.4c20.8 19.4 37.7 42.5 49.8 68.2 0.4-0.6 1.1-1 1.8-1.3z"/>
<path class="st3" d="m407 103.3c6 5.9-10.3 65.1-21.3 83.3-6.6 10.9-17.6 17.9-30.5 16.6-15.5-1.5-30.5-15-28.8-30.4 3.2-29.8 48.7-61.7 65.1-69 4.4-1.9 11.4-4.5 15.5-0.5z"/>
<path class="st2" d="m389.5 127.7c-0.1-0.1-0.2-0.2-0.4-0.3-0.1-0.1-0.3-0.1-0.4-0.1s-0.3 0-0.4 0.1-0.3 0.1-0.4 0.2c-20.9 19.5-37.9 42.8-50.1 68.7l1.9 1.3c12.1-25.7 29-48.9 49.9-68.3 0.1-0.1 0.2-0.2 0.3-0.4 0.1-0.1 0.1-0.3 0.1-0.4s0-0.3-0.1-0.4c-0.3-0.1-0.3-0.3-0.4-0.4z"/>
<path class="st3" d="m301.4 218.7c-0.6 0.5-1.2 0.9-1.9 1.3 11 23 17.9 47.8 20.4 73.2 0 0.3 0.1 0.5 0.3 0.7s0.5 0.3 0.8 0.3h0.1c0.1 0 0.3 0 0.4-0.1s0.3-0.2 0.3-0.3c0.1-0.1 0.2-0.3 0.2-0.4s0.1-0.3 0-0.4c-2.4-25.7-9.4-50.9-20.6-74.3z"/>
<path class="st3" d="m337.8 196.2c-11.2 23.4-18.2 48.5-20.8 74.3v0.4c0 0.1 0.1 0.3 0.2 0.4l0.3 0.3c0.1 0.1 0.3 0.1 0.4 0.1h0.1c0.3 0 0.5-0.1 0.8-0.3s0.3-0.5 0.3-0.7c2.5-25.4 9.4-50.1 20.4-73.2-0.5-0.4-1.1-0.8-1.7-1.3z"/>
<path class="st3" d="m335.4 299.4h-34.2l-7.5-40.4h49.1l-7.4 40.4z"/>
<path class="st0" d="m149.4 154.7-59.9-36.4c-1.2-0.7-2.8-0.3-3.5 0.9l-22.2 36.6c-0.7 1.2-0.3 2.8 0.9 3.5l59.9 36.4c1.2 0.7 2.8 0.3 3.5-0.9l22.2-36.6c0.7-1.2 0.3-2.8-0.9-3.5z"/>
<path class="st0" d="m118.1 153.4c-1.3 0-2.5-0.3-3.6-1l-6.9-4.2c-1.6-1-2.7-2.5-3.2-4.3-0.4-1.8-0.1-3.7 0.8-5.3l6.3-10.4c1-1.6 2.5-2.7 4.3-3.2 1.8-0.4 3.7-0.2 5.3 0.8l6.9 4.2c0.8 0.5 1.5 1.1 2 1.8s0.9 1.6 1.2 2.5c0.2 0.9 0.3 1.8 0.1 2.7-0.1 0.9-0.5 1.8-0.9 2.6l-6.3 10.4c-0.5 0.8-1.1 1.5-1.8 2s-1.6 0.9-2.5 1.2c-0.6 0.2-1.1 0.2-1.7 0.2zm-0.6-24.1c-0.2 0-0.4 0-0.6 0.1-0.7 0.2-1.2 0.6-1.6 1.2l-6.3 10.4c-0.2 0.3-0.3 0.6-0.3 0.9v1c0.1 0.3 0.2 0.6 0.4 0.9s0.4 0.5 0.7 0.7l6.8 4.2c0.6 0.3 1.3 0.5 1.9 0.3 0.7-0.2 1.2-0.6 1.6-1.1l6.4-10.4c0.2-0.3 0.3-0.6 0.3-0.9 0.1-0.3 0-0.7 0-1-0.1-0.3-0.2-0.6-0.4-0.9s-0.4-0.5-0.7-0.7l-6.9-4.2c-0.3-0.4-0.8-0.5-1.3-0.5z"/>
<path class="st0" d="m321.5 271.5-8.7 7 16.2 20.1 8.7-7-16.2-20.1z"/>
<path class="st0" d="m327.3 297.2c2.8-2.8 10.6-8.7 10.6-8.7s11.8-4.1 15.5-2.5c2.3 1 0.4 4.5-1.3 5.6l-20.2 12.6-4.6-7z"/>
<path class="st0" d="m69 220.2-1.5 11 25.6 3.4 1.5-11-25.6-3.4z"/>
<path class="st0" d="m71.2 220c-0.1 4-1.7 13.6-1.7 13.6s-5.7 11.1-9.4 12.5c-2.4 0.9-3.4-2.9-3-4.9l5.9-23 8.2 1.8z"/>
<path class="st4" d="m76.9 237.3c79.3 13.6 112.4-3 136.7-82-11.1-3.6-25.5-8.5-36.6-12.3-13.2 39-13.2 52.7-28.1 65.6-10.5 9.1-37.1 11.8-68.5 10.4-1.2 6.1-2.3 12.2-3.5 18.3z"/>
<path class="st4" d="m331.9 280.8c-28.5-41.2-66.6-98.2-101-132.9-4.9 4.2-17.2-5-22.6-0.8-4.1 3.2-6.6 14.4-3.4 20.7 13.9 27.5 80.1 83.3 112.5 123.8 0 0 11.1-8.1 14.5-10.8z"/>
<path class="st0" d="m234 86.2c-2-2.6 4.5-16.5 8.4-16.9 6.7-0.7 37.5 25.9 78.4 20.1l3.6 14c-41.6 12.3-81.9-5.8-90.4-17.2z"/>
<path class="st0" d="m187.9 78c3.7-20 26.3-17.3 41.3-14.3 12.9 2.7 25.2 10.9 22.6 25.9 0 0-2.5 30.8-5.6 61.1-1 9.7-1.1 10.4-1.1 10.4s-15.9 3.1-71.7-11.2l14.5-71.9z"/>
<path class="st0" d="m125.6 119c2.7-3.5 6.9-16.5 6.9-16.5l8.5 3.5s-5.8 14.1-7.3 16.4c-1.9 3-0.8 8.1 0.1 11.7l0.3 1.5c-2.3 0.6-3-0.8-3.8-2.2-0.9-1.6-1.9-3.2-5.1-2.5-1.2 0.3-2.5 0.6-3.7 1.1-4.1 1.4-7.9 2.7-11.9-1.1-0.6-0.6-1.1-2.5 1.1-3.3 5.5-2.5 13.6-6.9 14.9-8.6z"/>
<path class="st0" d="m225.9 68.6c1.3 0.2 2.6-0.1 3.6-0.9s1.7-1.9 1.9-3.2l1.7-11.1-9.9-4.6-1.4 14.2c-0.2 1.3 0.1 2.6 0.9 3.6 0.8 1.1 1.9 1.8 3.2 2z"/>
<path class="st0" d="m230 39.5 7.3-1.4c0.4-0.1 0.9-0.1 1.3 0s0.9 0.3 1.2 0.5c0.4 0.3 0.7 0.6 0.9 1s0.4 0.8 0.5 1.3c0.1 0.4 0.1 0.9 0 1.4-0.1 0.4-0.3 0.9-0.5 1.2-0.3 0.4-0.6 0.7-1 0.9s-0.8 0.4-1.3 0.5l-7.7 1.4-0.7-6.8z"/>
<path class="st0" d="m227.3 46.7-7.3 1.3c-0.5 0.1-0.9 0.1-1.4 0s-0.9-0.3-1.3-0.5c-0.4-0.3-0.7-0.6-1-1s-0.4-0.8-0.5-1.3-0.1-0.9 0-1.4 0.3-0.9 0.6-1.3 0.6-0.7 1-0.9 0.8-0.4 1.3-0.5l7.7-1.4 0.9 7z"/>
<path class="st0" d="m232 56.6c2.5-0.5 4.8-1.9 6.3-4.1 1.5-2.1 2-4.8 1.6-7.3l-2.2-11.7c-0.5-2.5-2-4.8-4.1-6.2-2.1-1.5-4.7-2-7.3-1.6-2.5 0.5-4.8 1.9-6.3 4.1s-2 4.8-1.6 7.3l2.2 11.7c0.5 2.5 2 4.8 4.1 6.2 2.2 1.5 4.8 2.1 7.3 1.6z"/>
<path class="st4" d="m217.1 37c-0.2-3.9 0-6.9 2.8-9.5 3-2.8 12.7-4.8 17-2.7 2.2 1.1 5.1 2.5 3.6 5.5-2.9 5.8-21.3-2.4-18.7 13.2 0.6 3.5 11.2 0.5 14.5-0.2 5.1-1.1 6.6 5.2 5.9 8.4-1.2 5.8-6.2 7.6-11.6 6.5-10-1.8-13.1-11.9-13.5-21.2z"/>
<path class="st2" d="M199.2,88.4c-4.5,5-32.8,0.4-62,31.5L125,112c22.3-37.1,66.8-49,82.2-50.2"/>
<path class="st5" d="M199.2,88.4c-4.5,5-32.8,0.4-62,31.5L125,112c22.3-37.1,66.8-49,82.2-50.2"/>
<path class="st6" d="m230.2 71.2c-0.5-0.8-1-1.6-1.5-2.3l-3.3-0.4c-0.7 0.6-1.3 1.1-1.9 1.7 0.2 1.4 0.4 2.9 0.7 4.3-4.4 22.4-13.7 35-32.6 47.4l-6 10.5 12-1.8c17.6-15.6 28.5-31.6 30.9-55.5 0.6-1.3 1.2-2.6 1.7-3.9z"/>
<path class="st1" d="m108.5 48.8h25.2c0.8 0 3.6 0 4.4-0.1 1.4 3.3 7.9 7 15.9 8.3-4.7-3.3-8.1-7-7.9-11.1 0.9-0.4 3.3-4.3 5-7.3s2.6-6.4 2.6-9.8v-8.8c0-5.3-2.1-10.4-5.9-14.1-3.7-3.8-8.8-5.9-14.1-5.9h-25.2c-5.3 0-10.4 2.1-14.1 5.9-3.8 3.8-5.9 8.8-5.9 14.1v8.8c0 5.3 2.1 10.4 5.9 14.1 3.7 3.8 8.8 5.9 14.1 5.9z"/>
</svg>
