<?xml version="1.0" encoding="UTF-8"?>
<svg fill="none" viewBox="0 0 461 316" xmlns="http://www.w3.org/2000/svg">
<path d="m461 302.3c0 7.385-103.17 13.398-230.5 13.398s-230.5-6.013-230.5-13.398c0-7.384 103.17-13.397 230.5-13.397s230.5 6.013 230.5 13.397z" fill="#D9EDEF"/>
<path d="m45.678 281.73c-0.8339 1.119-1.6086 2.281-2.3208 3.482l2.3208-3.482z" fill="#2E3374"/>
<path d="m45.678 281.73c-0.8339 1.119-1.6086 2.281-2.3208 3.482" stroke="#2E3374" stroke-miterlimit="10" stroke-width="1.5"/>
<path d="m95.049 58.613 6.6462-0.5275c0.748 0.0584 1.452 0.3808 1.984 0.9098 0.533 0.5291 0.86 1.2302 0.923 1.9782 0.064 0.748-0.141 1.4942-0.577 2.1053s-1.075 1.0473-1.803 1.2308l-7.0677 0.5274-0.1055-6.224z" fill="#FF808C"/>
<path d="m373.55 15.361h-129.54v99.479h129.54v-99.479z" fill="#D9EDEF"/>
<path d="m286.83 26.754h-35.551v31.226h35.551v-31.226z" fill="#fff"/>
<path d="m280.82 37.514h-23.42v1.7934h23.42v-1.7934z" fill="#AFDADD"/>
<path d="m280.82 43.106h-23.42v1.7934h23.42v-1.7934z" fill="#AFDADD"/>
<path d="m326.5 26.754h-35.551v31.226h35.551v-31.226z" fill="#fff"/>
<path d="m320.48 37.514h-23.42v1.7934h23.42v-1.7934z" fill="#AFDADD"/>
<path d="m320.48 43.106h-23.42v1.7934h23.42v-1.7934z" fill="#AFDADD"/>
<path d="m366.16 26.754h-35.551v31.226h35.551v-31.226z" fill="#fff"/>
<path d="m360.15 37.514h-23.42v1.7934h23.42v-1.7934z" fill="#AFDADD"/>
<path d="m360.15 43.106h-23.42v1.7934h23.42v-1.7934z" fill="#AFDADD"/>
<path d="m286.83 67.052h-35.551v35.024h35.551v-35.024z" fill="#fff"/>
<path d="m280.82 77.812h-23.42v1.7933h23.42v-1.7933z" fill="#AFDADD"/>
<path d="m280.82 83.403h-23.42v1.7934h23.42v-1.7934z" fill="#AFDADD"/>
<path d="m326.5 67.052h-35.551v35.024h35.551v-35.024z" fill="#fff"/>
<path d="m320.48 77.812h-23.42v1.7933h23.42v-1.7933z" fill="#AFDADD"/>
<path d="m320.48 83.403h-23.42v1.7934h23.42v-1.7934z" fill="#AFDADD"/>
<path d="m366.16 67.052h-35.551v35.024h35.551v-35.024z" fill="#fff"/>
<path d="m360.15 77.812h-23.42v1.7933h23.42v-1.7933z" fill="#AFDADD"/>
<path d="m360.15 83.403h-23.42v1.7934h23.42v-1.7934z" fill="#AFDADD"/>
<path d="m217.63 173.92c0.564-0.158 1.099-0.408 1.582-0.739 0.64-0.413 1.192-0.949 1.623-1.577s0.734-1.335 0.891-2.08 0.165-1.514 0.023-2.263c-0.142-0.748-0.43-1.461-0.849-2.097-13.925-21.52-8.861-50.742 0.95-74.477 1.16-2.9538-7.807-5.0636-10.76-6.2241-0.7-0.284-1.449-0.4274-2.204-0.4221s-1.501 0.1593-2.197 0.4532c-0.695 0.2939-1.326 0.7219-1.856 1.2596s-0.949 1.1745-1.233 1.8741c-5.492 13.564-7.658 28.244-6.318 42.815 1.339 14.572 6.146 28.611 14.019 40.946 0.627 1.062 1.588 1.887 2.733 2.345s2.41 0.524 3.596 0.187z" fill="#fff" stroke="#2E3374" stroke-miterlimit="10" stroke-width="1.7"/>
<path d="m196.22 112.52c0.844-8.65 3.27-21.731 10.444-30.592 1.898-2.3208 5.274-4.2197 8.333-3.6922 3.904 0.7384 6.119 6.435 7.068 9.8107 1.583 5.8021-2.32 12.448-4.219 17.934-0.317 1.055-2.954 12.764-2.954 12.764-6.224-2.004-12.448-4.114-18.672-6.224z" fill="#fff" stroke="#2E3374" stroke-miterlimit="10" stroke-width="1.7"/>
<path d="m233.14 79.289c1.173-0.0629 2.273-0.5854 3.063-1.4543s1.206-2.0141 1.157-3.1874l-0.422-10.127-9.6-2.3208 1.16 12.87c0.079 1.1668 0.606 2.2578 1.471 3.0445 0.866 0.7866 2.002 1.2078 3.171 1.1752z" fill="#fff" stroke="#2E3374" stroke-miterlimit="10" stroke-width="1.7"/>
<path d="m236.83 71.061c2.339-0.1707 4.518-1.2475 6.075-3.001 1.556-1.7536 2.367-4.0455 2.259-6.3878l-0.633-10.76c-0.171-2.3385-1.247-4.5181-3.001-6.0746-1.754-1.5566-4.045-2.3672-6.388-2.2592-2.338 0.1706-4.518 1.2474-6.074 3.001-1.557 1.7536-2.368 4.0455-2.26 6.3877l0.633 10.76c0.068 1.1644 0.364 2.3041 0.873 3.3536 0.508 1.0496 1.219 1.9885 2.091 2.7627 0.873 0.7743 1.889 1.3687 2.992 1.7493 1.102 0.3805 2.269 0.5397 3.433 0.4683z" fill="#fff" stroke="#2E3374" stroke-miterlimit="10" stroke-width="1.7"/>
<path d="m239.72 270.33-1.64 23.42 10.022 0.701 1.639-23.419-10.021-0.702z" fill="#fff" stroke="#2E3374" stroke-miterlimit="10" stroke-width="1.7"/>
<path d="m235.56 290.91c3.534-0.633 12.247 0.644 12.247 0.644s10.876 2.88 12.828 6.002c1.245 1.952-1.92 3.597-3.85 3.555l-21.542-0.865 0.317-9.336z" fill="#fff" stroke="#2E3374" stroke-miterlimit="10" stroke-width="1.7"/>
<path d="m207.92 294.18 4.536-21.309-10.338-2.954-4.114 22.154 9.916 2.109z" fill="#fff" stroke="#2E3374" stroke-miterlimit="10" stroke-width="1.7"/>
<path d="m197.58 290.14c3.565-0.369 12.131 1.519 12.131 1.519s10.676 3.787 12.28 7.015c1.054 2.015-2.195 3.408-4.125 3.165l-21.489-2.679 1.203-9.02z" fill="#fff" stroke="#2E3374" stroke-miterlimit="10" stroke-width="1.7"/>
<path d="m302.97 69.69c-3.165-1.1604-7.279-0.1055-7.807 3.9032-5.169 35.023-31.647 15.085-47.682 3.3757-2.005-1.4768-7.49 6.3296-8.545 8.8614s-1.582 6.1185 1.266 8.2284c26.056 19.2 64.983 22.048 66.565-18.989 0.015-1.1825-0.345-2.3395-1.027-3.3056-0.682-0.9662-1.651-1.6922-2.77-2.0745z" fill="#fff" stroke="#2E3374" stroke-miterlimit="10" stroke-width="1.7"/>
<path d="m248.43 284.37c0.105-1.266 11.604-92.728 5.696-169.42l-26.474 13.63c3.271 76.165 8.435 154.31 8.435 154.95l12.343 0.844z" fill="#2E3374" stroke="#2E3374" stroke-miterlimit="10" stroke-width="1.7"/>
<path d="m204.44 163.05c-4.325-16.562 4.325-36.395 15.402-40.931 5.591 4.747 7.962-0.506 13.553 4.241 6.013 46.1-7.435 115.81-22.731 159.9l-12.237-2.849c7.912-37.344 7.701-79.435 6.013-120.37z" fill="#2E3374" stroke="#2E3374" stroke-miterlimit="10" stroke-width="1.7"/>
<path d="m273.33 88.573c-6.56-1.8357-12.764-4.7598-18.356-8.6503-5.34-3.7019-11.648-5.7559-18.144-5.9076-13.714-0.3165-34.18 0.9494-34.18 19.2l6.752 34.602h47.577s1.477-12.659 2.532-22.681c2.411 0.953 4.877 1.763 7.384 2.426 3.165-5.696 4.22-12.026 6.435-18.988z" fill="#fff" stroke="#2E3374" stroke-miterlimit="10" stroke-width="1.7"/>
<path d="m245.9 36.987c-5.169-4.0087-15.613-1.8989-24.158 3.3757-0.552 0.3521-1.08 0.7397-1.582 1.1605-4.114 3.9032-3.692 10.233-3.692 15.402 0 6.857-6.541 14.241-2.638 20.993 0.951 1.5575 2.401 2.7473 4.114 3.3757 6.33 2.4264 11.499-2.0043 14.558-7.0679 3.256-5.0578 5.146-10.873 5.486-16.879 3.27-0.7385 6.118-3.2703 8.439-6.0131 3.482-4.1142 3.693-11.077-0.527-14.347z" fill="#15ADC2" stroke="#2E3374" stroke-miterlimit="10" stroke-width="1.7"/>
<path d="m124.27 235.21c-1.371 18.039 40.825 21.203 42.197 3.164 1.371-18.039-5.169-57.809-16.879-58.759-11.71-0.949-23.947 37.555-25.318 55.595z" fill="#D9EDEF"/>
<path d="m144.95 276.77c-0.252 0-0.494-0.1-0.672-0.278s-0.278-0.419-0.278-0.671v-63.717c0-0.252 0.1-0.494 0.278-0.672s0.42-0.278 0.672-0.278c0.251 0 0.493 0.1 0.671 0.278s0.278 0.42 0.278 0.672v63.717c0 0.252-0.1 0.493-0.278 0.671s-0.42 0.278-0.671 0.278z" fill="#fff"/>
<path d="m145.9 250.5h-1.899v25.318h1.899v-25.318z" fill="#AFDADD"/>
<path d="m130.28 295.44h29.643l6.435-35.024h-42.619l6.541 35.024z" fill="#AFDADD"/>
<path d="m379.31 273.47-9.775 0.838 1.946 22.703 9.775-0.838-1.946-22.703z" fill="#fff" stroke="#2E3374" stroke-miterlimit="10" stroke-width="1.7"/>
<path d="m381.88 295.33c-3.449-0.485-12.058-0.379-12.058-0.379s-10.454 3.407-12.184 6.498c-1.055 2.004 2.11 3.312 3.882 3.302l20.919-2.036-0.559-7.385z" fill="#2E3374" stroke="#2E3374" stroke-miterlimit="10" stroke-width="1.7"/>
<path d="m367.32 288.69c-6.224-38.399-8.017-110.87-0.844-149.06 9.073 1.16 21.099 1.582 30.171 2.426-7.173 37.872-16.984 108.34-13.503 146l-15.824 0.633z" fill="#fff" stroke="#2E3374" stroke-miterlimit="10" stroke-width="1.7"/>
<path d="m307.93 112.2c0.315-1.002 0.892-1.901 1.671-2.606 0.779-0.704 1.731-1.189 2.759-1.403 4.22-0.949 16.246 7.596 20.888 8.229 2.612 0.37 5.273 0.195 7.815-0.513 2.541-0.708 4.909-1.934 6.954-3.601 9.178-7.385 13.819-19.833 18.461-30.171 1.371-3.0592 9.389 1.2659 11.498 3.0593 2.11 1.7934 4.537 3.1648 2.954 7.1735-4.641 11.709-11.182 24.157-22.048 31.225-9.599 6.224-20.992 6.119-31.647 2.743-2.914-0.951-5.768-2.079-8.545-3.376-2.215-1.055-4.431-2.004-6.646-3.165-3.059-1.898-5.38-4.219-4.114-7.595z" fill="#fff" stroke="#2E3374" stroke-miterlimit="10" stroke-width="1.7"/>
<path d="m384.73 83.614c0.316-6.7515-8.334-11.71-15.085-6.857-11.605 8.4393-12.343 49.898-43.991 36.606-1.793 4.431-3.481 9.178-4.747 12.976 40.509 17.933 62.557-13.82 63.823-42.724z" fill="#D5401A" stroke="#2E3374" stroke-miterlimit="10" stroke-width="1.7"/>
<path d="m423.85 271.46-9.66 1.717 4.099 23.058 9.66-1.717-4.099-23.058z" fill="#fff" stroke="#2E3374" stroke-miterlimit="10" stroke-width="1.7"/>
<path d="m428.91 294.67c-3.45-0.453-12.037-0.485-12.037-0.485s-10.549 3.344-12.184 6.329c-1.118 1.941 2.036 3.408 3.872 3.323l20.971-1.761-0.622-7.406z" fill="#2E3374" stroke="#2E3374" stroke-miterlimit="10" stroke-width="1.7"/>
<path d="m413.53 290.27c-8.756-43.252-23.571-90.804-24.731-133.84 10.022-0.949 19.043-14.371 29.065-15.426 1.477 46.205 5.371 101.38 11.279 146.63 0.211 0.105-11.815 2.215-15.613 2.637z" fill="#fff" stroke="#2E3374" stroke-miterlimit="10" stroke-width="1.7"/>
<path d="m420.38 88.256c-0.633-17.934-20.782-18.461-34.285-17.617-11.604 0.7384-23.419 6.224-22.997 19.727 0 0-1.688 27.217-2.848 54.012-0.422 8.545-0.317 15.178-0.317 15.178s13.503 4.641 63.929-0.739l-3.482-70.561z" fill="#D5401A" stroke="#2E3374" stroke-miterlimit="10" stroke-width="1.7"/>
<path d="m388.42 75.175c-0.563 0.0141-1.123-0.0847-1.647-0.2904-0.525-0.2058-1.002-0.5143-1.405-0.9076-0.403-0.3932-0.724-0.8632-0.942-1.3821-0.219-0.519-0.331-1.0764-0.331-1.6396l-0.106-9.9162 9.178-2.7428-0.422 12.554c6e-3 0.5696-0.102 1.1346-0.318 1.6619-0.215 0.5273-0.533 1.0063-0.936 1.4091-0.403 0.4027-0.882 0.7211-1.409 0.9365-0.528 0.2153-1.093 0.3233-1.662 0.3177z" fill="#fff" stroke="#2E3374" stroke-miterlimit="10" stroke-width="1.7"/>
<path d="m386.63 51.228-6.329-1.7934c-0.388-0.1108-0.794-0.1442-1.195-0.0981-0.401 0.046-0.788 0.1706-1.141 0.3665s-0.663 0.4594-0.914 0.7753c-0.251 0.316-0.437 0.6782-0.548 1.0661s-0.144 0.7939-0.098 1.1946c0.046 0.4008 0.17 0.7886 0.366 1.1412 0.196 0.3527 0.46 0.6633 0.776 0.9141 0.316 0.2509 0.678 0.437 1.066 0.5478l6.646 1.8989 1.371-6.013z" fill="#fff" stroke="#2E3374" stroke-miterlimit="10" stroke-width="1.7"/>
<path d="m389.79 57.136 6.329 1.7934c0.388 0.1108 0.794 0.1442 1.195 0.0981 0.401-0.046 0.789-0.1706 1.141-0.3665 0.353-0.1959 0.664-0.4594 0.914-0.7753 0.251-0.316 0.437-0.6782 0.548-1.0661s0.144-0.7939 0.098-1.1946c-0.046-0.4008-0.17-0.7886-0.366-1.1412-0.196-0.3527-0.46-0.6633-0.776-0.9141-0.315-0.2509-0.678-0.437-1.066-0.5478l-6.646-1.8989-1.371 6.013z" fill="#fff" stroke="#2E3374" stroke-miterlimit="10" stroke-width="1.7"/>
<path d="m384.28 65.86c-2.384-0.6964-4.397-2.3065-5.6-4.4798-1.203-2.1732-1.499-4.7338-0.824-7.1243l3.165-11.013c0.701-2.381 2.312-4.3896 4.485-5.5903 2.172-1.2007 4.73-1.4966 7.119-0.8236 2.383 0.6988 4.394 2.3093 5.597 4.4819 1.203 2.1725 1.5 4.7318 0.827 7.1222l-3.217 11.013c-0.325 1.187-0.885 2.297-1.645 3.265s-1.706 1.7743-2.782 2.3718-2.26 0.974-3.484 1.1074c-1.223 0.1334-2.461 0.0211-3.641-0.3303z" fill="#fff" stroke="#2E3374" stroke-miterlimit="10" stroke-width="1.7"/>
<path d="m395.28 55.659c1.603 2.1098 3.555-3.323 3.787-4.2197 0.631-2.001 0.783-4.1222 0.444-6.1927s-1.16-4.0325-2.396-5.7279c-2.11-2.6373-9.747-11.467-16.277-6.5405-4.125 3.1015-4.125 10.096-0.348 12.385 2.985 1.9516 9.167 1.6035 11.699 4.2197 1.825 1.6034 1.603 4.1247 3.091 6.0763z" fill="#2E3374" stroke="#2E3374" stroke-miterlimit="10" stroke-width="1.7"/>
<path d="m416.27 170.43c-0.583-0.04-1.154-0.183-1.688-0.422-2.743-1.582-4.009-4.325-2.743-7.384 10.022-24.685 12.87-41.67 0.633-63.928-1.477-2.7428-0.738-7.068 1.794-8.2284 2.531-1.1604 2.004-8.2284 3.586-5.3801 14.558 25.529 15.719 55.278 4.22 82.073-0.545 1.05-1.384 1.918-2.414 2.499s-2.208 0.849-3.388 0.771z" fill="#fff" stroke="#2E3374" stroke-miterlimit="10" stroke-width="1.7"/>
<path d="m404.88 101.02c4.22 10.232 13.292 13.608 10.127 51.058l12.343 3.27c11.182-36.5-4.853-75.849-13.398-80.174" fill="#D5401A"/>
<path d="m404.88 101.02c4.22 10.232 13.292 13.608 10.127 51.058l12.343 3.27c11.182-36.5-4.853-75.849-13.398-80.174" stroke="#2E3374" stroke-miterlimit="10" stroke-width="1.7"/>
<path d="m390.95 77.285-1.582-1.8988c-0.986-0.0176-1.972 0.0176-2.954 0.1055l-1.477 1.7933c0.422 1.3714 0.739 2.3209 1.161 3.6922-0.521 17.872-2.106 35.696-4.747 53.379 0.949 4.536 1.898 9.178 2.848 13.819 2.004-4.325 4.008-8.544 5.907-12.975 1.02-18.096 0.985-36.236-0.105-54.328 0.316-1.055 0.633-2.3209 0.949-3.5868z" fill="#fff" stroke="#2E3374" stroke-miterlimit="10" stroke-width="1.7"/>
<path d="m132.29 13.462h14.769c1.539-0.0042 3.063 0.2959 4.486 0.8829 1.422 0.5869 2.715 1.4493 3.803 2.5375 1.088 1.0881 1.95 2.3807 2.537 3.8032 0.587 1.4226 0.887 2.9471 0.883 4.486v5.0636c4e-3 1.539-0.296 3.0635-0.883 4.4861-0.587 1.4225-1.449 2.715-2.537 3.8032s-2.381 1.9505-3.803 2.5375c-1.423 0.587-2.947 0.887-4.486 0.8829-3.051 2.3666-5.178 5.7251-6.013 9.4942 0-6.9624-8.756-9.4942-8.756-9.4942-1.539 0.0041-3.064-0.2959-4.486-0.8829-1.423-0.587-2.715-1.4493-3.803-2.5375-1.089-1.0882-1.951-2.3807-2.538-3.8032-0.587-1.4226-0.887-2.9471-0.883-4.4861v-5.0636c0.011-3.1021 1.249-6.0741 3.442-8.2676 2.194-2.1936 5.166-3.4309 8.268-3.442z" fill="#AFDADD"/>
<path d="m178.92 29.286h14.769c0.459 0.0174 0.919-0.018 1.371-0.1055 0.844 1.8989 2.848 5.6966 7.595 6.435-2.742-1.8988-2.953-5.6965-2.848-8.0174 1.741-1.0293 3.182-2.4956 4.181-4.2534 0.999-1.7579 1.522-3.7463 1.516-5.7683v-5.0636c4e-3 -1.5389-0.296-3.0635-0.883-4.486-0.587-1.4226-1.449-2.7151-2.538-3.8032-1.088-1.0882-2.38-1.9505-3.803-2.5375-1.422-0.58698-2.947-0.88701-4.486-0.88283h-14.769c-1.539-0.004176-3.063 0.29585-4.486 0.88283-1.422 0.58698-2.715 1.4494-3.803 2.5375s-1.951 2.3807-2.538 3.8032c-0.586 1.4226-0.887 2.9471-0.882 4.486v5.0636c-7e-3 1.5308 0.287 3.048 0.867 4.4649 0.579 1.4169 1.432 2.7059 2.51 3.7932 1.077 1.0874 2.358 1.9518 3.77 2.544s2.926 0.9006 4.457 0.9075z" fill="#AFDADD"/>
<path d="m65.405 76.652c2.0043-2.6373 6.013-3.2703 7.1734-6.3295 1.055-2.5318-0.1055-4.2197-2.3208-6.2241-2.2153-2.0043-8.2284-7.0679-2.5318-9.7052 2.7428-1.2659 7.7009 0.5274 7.9119-4.2197s0.211-11.815 6.435-9.7053c4.8527 1.6879 5.9076 2.3209 9.7053-1.7933 2.7428-3.0593 6.5405-4.3252 9.7052-0.1055 0.681 1.2249 1.28 2.4936 1.793 3.7977 1.231 2.1885 3.164 3.8981 5.486 4.8526 1.899 0.9495 3.798 1.4769 4.958 3.3758 0.586 0.8642 0.881 1.8923 0.843 2.9355-0.038 1.0431-0.407 2.0471-1.054 2.8665-2.532 3.3758-5.591 5.1691-3.587 9.7053 1.161 2.6373 3.904 3.9032 4.853 6.857 0.416 1.6804 0.306 3.4481-0.316 5.0636-0.564 1.2225-1.437 2.2769-2.532 3.0593-1.372 1.1604-3.165 1.8988-4.431 3.2702-1.307 1.4771-2.375 3.1502-3.165 4.9581-2.426 5.5911-2.848 12.448-4.008 18.039-1.2663 6.119-3.6926 11.288-10.022 11.921s-9.0723-3.481-12.237-8.545c-1.8988-2.954-2.3208-8.65-3.3757-11.921-1.7288-5.4995-4.6053-10.569-8.4394-14.874-0.9294-1.0809-1.5491-2.3932-1.7933-3.7977-0.0112-1.2258 0.3174-2.4308 0.9494-3.4812z" fill="#F8B243" stroke="#2E3374" stroke-miterlimit="10" stroke-width="1.7"/>
<path d="m43.357 285.21c1.825 0.622 4.9581 2.11 7.4688 3.291 2.7178 1.304 5.1408 3.149 7.1207 5.422 2.2365 2.574 2.7006 3.83 2.8167 5.845 0.1054 2.32-3.4813 2.109-5.0637 1.266l-16.14-9.284 3.7977-6.54z" fill="#2E3374" stroke="#2E3374" stroke-miterlimit="10" stroke-width="1.7"/>
<path d="m103.8 295.65c0.106-1.266 14.769-99.373 8.967-175.75l-20.254 23.524c3.1648 75.849 3.1648 150.43 3.1648 151.06l8.1226 1.16z" fill="#fff" stroke="#2E3374" stroke-miterlimit="10" stroke-width="1.7"/>
<path d="m67.832 167.38c-3.9032-12.448-2.3208-28.166 12.343-40.403l15.718 1.688c8.4396 68.464-43.463 157.29-44.834 160.24l-7.3845-4.22c0.211-0.633 23.525-62.134 24.158-117.31z" fill="#fff" stroke="#2E3374" stroke-miterlimit="10" stroke-width="1.7"/>
<path d="m119.21 216.01c0.527-30.593-0.422-52.324-4.537-83.55 0 0-17.3-0.527-17.722-2.532h-22.153c-16.035 13.187-17.723 57.177-17.617 85.976h62.03v0.106z" fill="#2E3374" stroke="#2E3374" stroke-miterlimit="10" stroke-width="1.7"/>
<path d="m181.24 131.09c0.143-0.587 0.179-1.194 0.105-1.794-0.1-1.524-0.8-2.946-1.947-3.954-1.147-1.009-2.647-1.521-4.171-1.426-25.424 1.688-48.526-16.878-64.35-36.816-2.005-2.5318-8.123 4.3252-10.655 6.3295-1.1869 0.9387-1.9534 2.3097-2.1314 3.8125-0.178 1.5029 0.2471 3.0145 1.1821 4.2045 9.1603 11.348 20.899 20.341 34.24 26.232 13.34 5.89 27.896 8.507 42.452 7.631 1.226-6e-3 2.414-0.427 3.371-1.192 0.958-0.766 1.628-1.833 1.904-3.027z" fill="#fff" stroke="#2E3374" stroke-miterlimit="10" stroke-width="1.7"/>
<path d="m119.52 122.54c-7.068-4.958-19.411-15.929-23.63-26.478-1.1604-2.7428-1.1604-6.646 0.844-9.0723 2.5318-3.0593 10.021-1.5824 13.397-0.7384 5.908 1.4768 9.811 12.132 21.731 20.571-4.43 5.696-7.49 11.287-12.342 15.718z" fill="#fff" stroke="#2E3374" stroke-miterlimit="10" stroke-width="1.7"/>
<path d="m69.625 152.61c0.8349-0.461 1.4726-1.212 1.7934-2.11 1.3713-3.692-2.8483-7.173-5.0637-9.494-3.3428-3.39-6.1527-7.267-8.3338-11.499-2.8483-5.696-3.6923-12.659 0.6329-17.828 4.9581-6.119 12.87-9.072 19.727-12.448 1.2659-0.633 2.4263-1.1604 3.6922-1.7934 2.7428-1.3714-2.1098-9.3888-3.9032-11.604-1.7933-2.2153-4.3251-4.4307-7.9119-2.6373-9.4942 4.9581-20.36 10.655-26.584 19.622-6.2241 8.967-3.5868 20.149 1.5823 29.01 4.0087 6.857 10.338 16.773 17.617 20.465 1.4557 0.774 3.106 1.104 4.7471 0.95 0.7089-0.049 1.396-0.266 2.0044-0.633z" fill="#fff" stroke="#2E3374" stroke-miterlimit="10" stroke-width="1.7"/>
<path d="m96.631 78.867c-6.646-0.422-14.874 0.1055-21.626 2.4263-10.246 2.8956-19.626 8.2559-27.322 15.613 3.4813 5.4857 8.8613 12.132 12.343 17.617 0 0 1.6879-1.371 3.7977-2.953 0.1407-0.089 0.3003-0.142 0.4658-0.157 0.1654-0.015 0.332 9e-3 0.4862 0.071s0.2917 0.159 0.4012 0.284c0.1096 0.125 0.1881 0.274 0.2292 0.435l6.1185 20.254c14.308 2.07 28.838 2.07 43.146 0l6.013-34.39c0-6.013-14.347-18.567-24.052-19.2z" fill="#fff" stroke="#2E3374" stroke-miterlimit="10" stroke-width="1.7"/>
<path d="m92.833 65.048-6.646 0.5274c-0.445 0.1122-0.909 0.1262-1.3599 0.0411-0.4509-0.085-0.878-0.2671-1.2515-0.5336s-0.6846-0.6111-0.9118-1.0098c-0.2271-0.3987-0.3648-0.842-0.4036-1.2993-0.0387-0.4572 0.0224-0.9174 0.1792-1.3486 0.1568-0.4313 0.4055-0.8232 0.7289-1.1488 0.3233-0.3256 0.7136-0.5769 1.1438-0.7366 0.4302-0.1598 0.8899-0.224 1.3474-0.1884l7.068-0.5274 0.1055 6.224z" fill="#fff" stroke="#2E3374" stroke-miterlimit="10" stroke-width="1.7"/>
<path d="m92.833 82.56c0.5757-0.0322 1.1394-0.1782 1.6584-0.4294 0.5191-0.2512 0.9833-0.6027 1.3658-1.0342 0.3825-0.4316 0.6757-0.9346 0.8628-1.48 0.1871-0.5455 0.2643-1.1226 0.2272-1.698l-0.633-10.127-9.5998-2.1098 1.4769 12.87c0.0918 1.1441 0.6302 2.206 1.4988 2.9562s1.9977 1.1283 3.1429 1.0525z" fill="#fff" stroke="#2E3374" stroke-miterlimit="10" stroke-width="1.7"/>
<path d="m96.209 74.331c1.1508-0.0943 2.2716-0.4151 3.2981-0.9439 1.027-0.5287 1.938-1.2551 2.683-2.1373s1.309-1.9029 1.658-3.0034c0.349-1.1006 0.478-2.2593 0.378-3.4097l-0.844-10.76c-0.094-1.1508-0.415-2.2716-0.944-3.2981-0.528-1.0265-1.255-1.9384-2.137-2.6834-0.8821-0.745-1.9028-1.3083-3.0033-1.6577-1.1006-0.3494-2.2593-0.4779-3.4097-0.3781-1.1508 0.0943-2.2716 0.4151-3.2981 0.9438-1.0265 0.5288-1.9384 1.2551-2.6834 2.1373s-1.3083 1.9029-1.6577 3.0035c-0.3494 1.1005-0.4779 2.2593-0.3781 3.4096l0.8439 10.76c0.243 2.3029 1.3665 4.4229 3.1358 5.9169 1.7692 1.4941 4.0474 2.2466 6.3585 2.1005z" fill="#fff" stroke="#2E3374" stroke-miterlimit="10" stroke-width="1.7"/>
<path d="m102.01 58.613c-0.527-0.844-0.633-1.8989-1.371-2.4264-0.451-0.2675-0.9686-0.3998-1.4923-0.3811-0.5238 0.0187-1.031 0.1876-1.4614 0.4866-0.87 0.5894-1.6514 1.2999-2.3209 2.1099-1.7277 1.6849-4.0229 2.6632-6.435 2.7428-1.1853 0.0225-2.3555-0.268-3.3927-0.8422-1.0372-0.5741-1.9047-1.4117-2.5148-2.4281-1.1604-2.3208-0.422-5.0636 1.0549-7.1734 1.0796-1.6255 2.4775-3.0151 4.1094-4.0849 1.6319-1.0697 3.4638-1.7975 5.3849-2.1392 1.9407-0.3379 3.9334-0.2182 5.8198 0.3495 1.8861 0.5678 3.6141 1.5679 5.0461 2.9208 2.637 2.6373 3.165 6.013 3.059 9.4943-0.105 2.8482-3.692 4.4306-5.486 1.3714z" fill="#F8B243" stroke="#2E3374" stroke-miterlimit="10" stroke-width="1.7"/>
<path d="m94.342 294.88c1.9833-0.38 5.6227-0.717 8.4394-0.939 2.724-0.227 5.465 0.1 8.06 0.96 2.667 0.728 5 2.357 6.603 4.61 1.277 1.931-1.877 3.608-3.692 3.576l-19.474-0.58 0.0633-7.627z" fill="#2E3374" stroke="#2E3374" stroke-miterlimit="10" stroke-width="1.7"/>
</svg>
