<svg id="Layer_1" data-name="Layer 1" xmlns="http://www.w3.org/2000/svg" viewBox="0 0 216.96 254.28"><defs><style>.cls-1{fill:#e4f1c0;}.cls-2{fill:#c9dc93;}.cls-3,.cls-7{fill:#fff;}.cls-4{fill:#b9c697;}.cls-5{fill:#c2d48f;}.cls-6{fill:#2e3374;stroke-width:0.77px;}.cls-6,.cls-7,.cls-8{stroke:#2e3374;stroke-miterlimit:10;}.cls-7,.cls-8{stroke-width:1.5px;}.cls-8{fill:#d5401a;}</style></defs><path class="cls-1" d="M217,236.78c0,9.7-47.8,17.5-107,17.5S3,246.38,3,236.78s47.8-17.5,107-17.5S217,227.08,217,236.78Z"/><path class="cls-2" d="M.86,119.48c-4,3.8,6.8,42.1,14,53.9,4.3,7.1,11.6,11.6,20.1,10.8,10.2-1,20-9.7,18.9-19.6-2.1-19.3-32.1-39.9-42.9-44.6C8.06,118.58,3.46,116.88.86,119.48Z"/><path class="cls-3" d="M46,179.38a144.74,144.74,0,0,0-32.8-44.1.31.31,0,0,0-.2-.1h-.3a.37.37,0,0,0-.3.1.22.22,0,0,0-.2.2.22.22,0,0,1-.2.2v.3a.37.37,0,0,0,.1.3.22.22,0,0,0,.2.2,142.55,142.55,0,0,1,32.5,43.8A3.78,3.78,0,0,1,46,179.38Z"/><path class="cls-4" d="M114.06,104.48c4,3.8-6.8,42.1-14,53.9-4.3,7-11.6,11.6-20.1,10.8-10.2-1-20.1-9.7-18.9-19.6,2.1-19.3,32-39.9,42.8-44.7C106.76,103.58,111.36,101.88,114.06,104.48Z"/><path class="cls-3" d="M102.76,120.38l-.2-.2a.37.37,0,0,0-.3-.1H102a.22.22,0,0,0-.2.2,142.41,142.41,0,0,0-32.7,44l1.2.8a144.17,144.17,0,0,1,32.5-43.8l.2-.2c0-.1.1-.2.1-.3a.37.37,0,0,0-.1-.3C102.86,120.48,102.76,120.48,102.76,120.38Z"/><path class="cls-2" d="M46.16,179.18l-1.2.9a150.38,150.38,0,0,1,12.6,47.6c0,.2.1.3.2.5a.76.76,0,0,0,.5.2h.1a.37.37,0,0,0,.3-.1.22.22,0,0,0,.2-.2.37.37,0,0,0,.1-.3v-.3A152.15,152.15,0,0,0,46.16,179.18Z"/><path class="cls-4" d="M68.86,164.18A151.6,151.6,0,0,0,56,212.48v.3c0,.1.1.2.1.3l.2.2c.1,0,.2.1.3.1h.1c.2,0,.3-.1.5-.2a.76.76,0,0,0,.2-.5A151.76,151.76,0,0,1,70,165.18C69.56,164.78,69.16,164.48,68.86,164.18Z"/><path class="cls-5" d="M68,231.28H45.06l-5-25h33Z"/><path class="cls-6" d="M165.36,35.28s15.5-10.1,10.2-23S151-5.52,144,10.38c0,0-10.8-15-19.1-3.1s.7,14.8,4.1,16.8c10.1,5.8-5.9,16.9-10.2,4.9,0,0-3,7.2,1.9,9.9,7,3.8,20.7,4.8,18.2-5.2-2.9-11.8,8.8-8.1,8.3-14,0,0-1.7,1.1-1.5,4.4C146.26,30.48,150.56,40.38,165.36,35.28Z"/><path class="cls-7" d="M143.86,44.28s8.2-13.7,9.5-18.6l5.8,8.6s-1.3,12.2-3.7,13.5S143.86,44.28,143.86,44.28Z"/><path class="cls-6" d="M139.06,135s9.7,35.7,10.1,39.2-4.2,18.2,2.7,38.3,8,22.3,8,22.3h5.3s-5.8-42.2-3.6-55.3-7.6-65.5-8.9-72.8L109,97.88s-3.2,16.3,4.6,30.1c2.8,4.9,6.9,27,6.8,32.3s-10.8,19.9-10.5,43.3c0,3.4-.9,31.2-.9,31.2h4.6s19.6-60.9,20.2-71S139.06,135,139.06,135Z"/><path class="cls-7" d="M141.56,41.68s17.9-5,22.9,14.1c0,0,3.5,7.2-4,25.7s-6.8,22.5-5.7,32.8c0,0-27.8,16.5-42.6,8.8C97.26,115.18,124,48.88,141.56,41.68Z"/><path class="cls-8" d="M168.46,62.48s-11.3-11.1-29.5,0c-3.7,2.2-10.3,20.6-3.7,34.8,1,2.1,12-4.4,19.1-17.3l.4,2.6s-3.2,10.8-20.5,20.8c0,0-1.7,12.3-31.4,14.8-4.4.3-17.3-12.1-10.1-27,.2-.3.1-.8.1-1.2a25,25,0,0,1,7.9-14.8s6.1-11.3,14-15.3c0,0-.9-10.4,10.7-15.1a10.54,10.54,0,0,1,10.4,1.1,12.86,12.86,0,0,1,1.9-4s2.2-2.5,1.1,6.6c-.3,3,3.1,4.4,16.3,4.4C162,53,171.46,59.18,168.46,62.48Z"/><path class="cls-7" d="M93.26,89.18s-.4,3.4,12.7,2.5v2.8s-8.8,1.6-13.1-1.8C92.86,92.58,91.76,89.68,93.26,89.18Z"/><path class="cls-7" d="M170.56,62.48s10.5,10.8,9.3,26.7-7,14-7,14S161.16,69.58,170.56,62.48Z"/><path class="cls-7" d="M149.56,58.18s-1.3,13.6,5.3,24.6,14.1,19.5,18,20.5,2.5-17.8,2.5-17.8-5.5-18.5-8.5-24.1C164.56,57.18,165,54.18,149.56,58.18Z"/><path class="cls-7" d="M166.46,56.28s2.7.9,5.3,7.5l-2.7,2.8s-3.8-8.5-5.5-9.8C161.86,55.78,166.46,56.28,166.46,56.28Z"/><path class="cls-7" d="M169.66,10.48a21.47,21.47,0,0,1,3.5,15.3c-1.2,9.2-10.3,18.7-21.6,6.2a13.76,13.76,0,0,1-2.5-5.5s-4.1-2.7-2-6.5,4.7-.4,4.5,1.3.6,4,1,1.7,1.8-5.5,6-8.2,4.8,3,7.9.6C169.76,12.68,169.66,10.48,169.66,10.48Z"/><path class="cls-7" d="M164.46,229.08c1.3,2.7,3.1,3.4,6.7,3.6s5.7,1.3,6,2.9a16.25,16.25,0,0,1,0,4h-19.4a10.37,10.37,0,0,1,.9-8.4s3.8,2.8,6.3.6Z"/><path class="cls-7" d="M115.26,229.08c1.3,2.7,2.3,3.4,5.9,3.6s5.7,1.3,6,2.9a16.25,16.25,0,0,1,0,4h-19.4a10.37,10.37,0,0,1,.9-8.4s3.2,2.8,5.7.6Z"/></svg>