<svg width="263" height="260" viewBox="0 0 263 260" fill="none" xmlns="http://www.w3.org/2000/svg">
<path d="M113.5 233C176.184 233 227 225.837 227 217C227 208.163 176.184 201 113.5 201C50.8155 201 0 208.163 0 217C0 225.837 50.8155 233 113.5 233Z" fill="#8AC096"/>
<path d="M150.491 75.0216C157.182 74.6698 165.546 78.628 166.251 85.9289C166.779 91.2067 166.603 96.4845 167.395 101.85C168.069 106.068 169.375 110.16 171.269 113.989C173.03 117.684 176.728 120.85 177.696 124.809C178.242 127.658 178.029 130.6 177.08 133.341C176.023 136.332 176.64 136.068 178.664 138.619C182.802 143.419 186.24 148.779 188.877 154.54C192.575 163.072 194.952 172.924 193.631 182.248C193.455 183.392 193.279 187.702 191.606 187.966C189.758 188.318 190.638 185.855 190.726 185.063C191.342 180.049 191.871 175.739 191.166 170.637C188.261 151.109 174.262 138.179 165.106 121.554C164.578 120.674 163.521 118.651 162.817 117.332C161.673 115.221 160.44 111.174 158.943 109.591C155.95 106.6 158.679 112.582 159.295 113.725C159.987 115.17 160.751 116.579 161.585 117.948C165.018 123.753 168.804 130.174 172.414 136.244C157.094 139.762 146.265 121.29 142.216 109.239C138.694 99.1233 134.644 75.8133 150.491 75.0216Z" fill="#8AC096"/>
<path d="M239.904 56.0616C228.66 56.944 221.458 64.3565 218.12 74.769C216.275 80.3283 216.099 86.1521 215.133 91.8879C213.64 100.536 210.39 107.065 204.065 113.242C202.258 114.985 200.745 117.012 199.586 119.243C197.47 121.363 195.745 123.842 194.491 126.567C192.822 130.273 192.383 134.685 194.315 138.391C195.099 139.886 196.175 141.206 197.478 142.274C192.365 152.946 189.808 164.67 190.011 176.512C190.187 183.571 190.538 190.719 190.977 197.778C191.065 199.719 191.68 202.808 192.646 199.631C193.525 196.719 192.471 192.13 192.295 189.13C191.856 174.306 191.417 160.805 197.478 146.951C198.092 145.539 198.795 144.039 199.498 142.627L199.586 142.539C199.609 142.539 199.631 142.548 199.648 142.564C199.664 142.581 199.673 142.603 199.673 142.627C199.761 142.539 199.761 142.45 199.849 142.362C200.065 142.126 200.243 141.859 200.376 141.568C200.888 140.942 201.275 140.223 201.518 139.45C205.364 133.323 209.528 127.403 213.991 121.714C213.991 121.714 218.735 115.184 218.032 118.802C217.68 120.566 214.167 123.92 212.674 125.773C209.112 130.416 205.798 135.247 202.748 140.244C202.143 140.916 201.667 141.694 201.342 142.539C201.079 142.98 200.903 143.421 200.64 143.862C211.532 147.48 220.052 140.156 225.85 131.685C227.522 129.289 229.468 127.097 231.647 125.155C235.424 122.066 239.465 121.537 243.857 119.949C255.978 115.801 261.161 100.006 262.742 88.3582C264.674 75.0337 255.627 54.738 239.904 56.0616Z" fill="#BEE8C7"/>
<path d="M217.808 19.3182C206.319 31.2696 200.794 47.8785 196.409 63.5208C191.498 81.0085 188.253 98.6718 188.165 116.775C188.078 128.726 187.727 140.678 188.428 152.541C188.692 156.759 189.13 160.977 189.744 165.195C189.832 165.547 191.322 174.862 192.726 172.665C193.515 171.435 191.235 162.998 190.972 161.592C190.065 153.659 189.684 145.674 189.832 137.69C189.919 124.508 189.569 111.502 190.884 98.4082C191.012 96.4298 191.275 94.4626 191.673 92.5205C192.199 90.4993 191.498 91.3781 193.164 90.5872C194.83 89.7963 196.672 89.884 198.251 88.9174C204.653 85.0508 207.898 75.0326 210.529 68.4418C213.311 60.8628 215.366 53.0358 216.667 45.0664C217.705 39.28 218.437 33.4425 218.86 27.5786C219.035 25.7332 219.035 23.7999 219.386 21.9545C219.474 21.4272 220 20.6363 220 20.1969C220 19.3182 219.386 18.703 219.386 18C218.808 18.3725 218.277 18.8153 217.808 19.3182Z" fill="#8AC096"/>
<path d="M215.492 148.037C224.345 147.432 234.25 154.428 238.545 161.77C241.964 167.643 241.438 175.416 239.246 181.721C237.844 185.953 234.688 191.913 229.517 191.999C223.03 192.086 222.679 184.139 222.592 179.562C222.416 173.429 221.628 168.075 216.719 163.929C216.105 163.411 215.492 162.892 214.878 162.461C214.265 162.029 213.739 161.597 213.213 161.165L212.95 160.906C211.197 159.438 209.356 157.969 209.181 155.551C208.83 152.096 210.846 151.492 213.826 152.096C214.072 152.145 214.309 152.233 214.527 152.355C216.105 152.96 219.349 154.169 218.735 152.701C218.19 152.019 217.41 151.559 216.544 151.405C213.739 151.146 210.408 150.801 209.531 150.973C199.275 153.219 195.243 167.211 194.191 176.193C194.104 177.144 194.016 178.094 193.928 179.13H192C192.06 176.784 192.294 174.446 192.701 172.134C194.191 163.324 198.925 150.282 209.356 148.9C210.523 148.805 211.695 148.805 212.862 148.9C213.656 148.409 214.558 148.113 215.492 148.037Z" fill="#8AC096"/>
<path d="M155 179C155 188.548 158.793 197.705 165.544 204.456C172.295 211.207 181.452 215 191 215C200.548 215 209.705 211.207 216.456 204.456C223.207 197.705 227 188.548 227 179" fill="#BEE8C7"/>
<path d="M29.4847 42.5059H51.5153C52.2159 42.5223 52.9167 42.4931 53.6135 42.4188C54.8374 45.2931 57.8972 50.8677 64.8911 52C60.7822 49.1256 60.4325 43.551 60.6074 39.9798C63.1624 38.4135 65.2742 36.2236 66.7428 33.6173C68.2114 31.011 68.9883 28.0744 69 25.0855V17.4204C69 12.8003 67.1579 8.36934 63.8789 5.10237C60.5998 1.8354 56.1526 0 51.5153 0H29.4847C24.8474 0 20.4002 1.8354 17.1211 5.10237C13.8421 8.36934 12 12.8003 12 17.4204V25.0855C12 29.7057 13.8421 34.1366 17.1211 37.4036C20.4002 40.6705 24.8474 42.5059 29.4847 42.5059Z" fill="#BEE8C7"/>
<path d="M66.039 151.961L66.0398 151.962C75.9913 169.594 102.099 181.035 124.713 172.193C133.171 168.88 140.975 162.82 146.438 155.721C151.909 148.612 154.969 140.55 154.105 133.233C153.54 128.461 151.246 123.367 148.591 118.814C145.954 114.291 143.002 110.368 141.148 107.903L141.124 107.871C141.124 107.871 141.124 107.871 141.124 107.871C139.648 105.91 138.25 104.238 136.96 102.705C136.887 102.618 136.814 102.531 136.741 102.445C135.541 101.018 134.429 99.6965 133.458 98.3828C131.382 95.5725 129.922 92.7573 129.464 88.8178C129.18 86.414 129.4 84.699 129.69 82.6648C129.702 82.5748 129.715 82.4841 129.728 82.3926C130.008 80.4331 130.34 78.1076 130.385 74.4751C130.463 68.2502 129.633 63.1801 128.929 59.9034C126.218 55.6289 123.837 54.6802 122.34 54.4923C121.387 54.3784 120.755 54.5556 119.901 54.7952L119.857 54.8077C118.952 55.0615 117.878 55.3492 116.189 55.2807C114.442 55.212 113.257 54.8125 112.158 54.3515C111.924 54.2535 111.699 54.155 111.476 54.0574C110.65 53.6965 109.853 53.348 108.776 53.0857C105.174 52.2146 102.09 53.2101 99.3832 54.108L99.3806 54.1088C95.1678 55.4894 90.7699 59.4185 87.3097 64.8698C83.8605 70.3038 81.4028 77.16 81.0034 84.2634C80.753 88.7971 81.3391 92.8294 81.8464 96.3204C81.9596 97.099 82.0688 97.8506 82.164 98.5748C82.4218 100.537 82.5809 102.336 82.3866 103.882C82.1891 105.453 81.6186 106.821 80.3796 107.84L80.3773 107.841C80.1158 108.055 79.8214 108.564 79.4801 109.425C79.2846 109.919 79.1034 110.443 78.9099 111.003C78.7706 111.406 78.6249 111.828 78.4628 112.27C78.0918 113.282 77.6552 114.338 77.0853 115.217C76.5163 116.095 75.7653 116.873 74.7349 117.212L66.039 151.961ZM66.039 151.961C65.6898 151.345 63.4121 147.189 61.9614 141.466C60.5091 135.737 59.9062 128.52 62.8025 121.72L66.039 151.961Z" fill="#2E3374" stroke="#2E3374" stroke-width="1.5"/>
<path d="M139.364 233.35L150.477 236.525C150.179 238.41 145.813 257.957 144.524 257.957C143.234 257.957 143.73 242.181 143.73 242.181C141.888 241.943 140.064 241.578 138.272 241.089C137.875 240.792 139.364 233.35 139.364 233.35Z" fill="#2E3374" stroke="#2E3374" stroke-width="1.5" stroke-miterlimit="10"/>
<path d="M63.8054 233.524L52.8906 237.295C53.2875 239.081 58.7449 258.43 60.0348 258.331C61.3247 258.231 59.9356 242.554 59.9356 242.554C61.7495 242.206 63.5392 241.742 65.2937 241.165C65.7898 240.867 63.8054 233.524 63.8054 233.524Z" fill="#2E3374" stroke="#2E3374" stroke-width="1.5" stroke-miterlimit="10"/>
<path d="M97.2794 195.307C97.2794 195.307 149.933 171.41 175.214 191.417C208.042 217.444 64.9054 241.063 64.9054 241.063L61.0859 232.449C61.0859 232.449 158.208 194.381 142.931 200.401C127.653 206.422 79.5464 216.796 97.2794 195.307Z" fill="white" stroke="#2E3374" stroke-width="1.5" stroke-miterlimit="10"/>
<path d="M111.515 190.846C111.515 190.846 52.1298 173.058 26.6531 192.589C1.17628 212.119 138.458 243.569 138.458 243.569L143.773 229.907C143.773 229.907 47.5477 194.331 62.7604 200.566C86.8626 210.377 129.385 212.119 111.515 190.846Z" fill="white" stroke="#2E3374" stroke-width="1.5" stroke-miterlimit="10"/>
<path d="M87.3951 125.056C87.3951 125.056 44.5761 147.751 52.2818 165.009C59.9874 182.267 79.2516 192.104 81.7034 195.729C84.1552 199.353 85.3811 204.962 85.3811 204.962C85.3811 204.962 83.4547 202.977 76.8873 200.992C70.32 199.008 38.5342 182.181 38.5342 160.608C38.5342 139.035 66.6078 120.451 73 116.999C79.3922 113.548 87.3951 125.056 87.3951 125.056Z" fill="white" stroke="#2E3374" stroke-width="1.5" stroke-miterlimit="10"/>
<path d="M130.137 124.335C130.137 124.335 166.845 151.527 159.244 168.792C151.643 186.057 136.269 192.1 133.851 195.725C131.432 199.351 130.223 204.962 130.223 204.962C130.223 204.962 132.123 202.976 138.601 200.991C145.079 199.006 173.841 182.863 173.841 161.282C173.841 139.7 141.451 111.041 135.06 107.674C128.668 104.049 130.137 124.335 130.137 124.335Z" fill="white" stroke="#2E3374" stroke-width="1.5" stroke-miterlimit="10"/>
<path d="M134.844 106.141C118.046 96.9976 86.3122 103.358 82 105.5C75.3122 109.358 48.5576 128.544 48.5576 131.104C48.5576 133.665 61.8678 147.472 64.8052 145.003C66.0904 143.906 69.7621 140.797 73.6175 137.596C84.2636 167.375 77.373 196.817 77.373 196.817L132.498 197.443C132.498 197.443 128.113 170.507 137.506 137.596C141.27 140.797 145.034 143.906 146.319 145.003C149.164 147.472 162.566 133.573 162.566 131.104C162.566 128.635 136.956 107.422 134.844 106.141Z" fill="white" stroke="#2E3374" stroke-width="1.5" stroke-miterlimit="10"/>
<path d="M66.6948 168.16C66.6948 168.16 63.9165 218.864 66.6948 219.856C69.4731 220.848 137.442 220.848 139.923 219.856C142.403 218.864 141.709 168.16 141.709 168.16C141.709 168.16 87.1351 165.282 66.6948 168.16Z" fill="#D5401A" stroke="#2E3374" stroke-width="1.5" stroke-miterlimit="10"/>
<path d="M66.6948 216.184C66.6948 216.184 63.9165 222.138 66.6948 222.237C69.4731 222.336 137.442 222.336 139.923 222.237C142.403 222.138 141.709 216.184 141.709 216.184C141.709 216.184 87.1351 215.886 66.6948 216.184Z" fill="#2E3374" stroke="#2E3374" stroke-width="1.5" stroke-miterlimit="10"/>
<path d="M113.33 81.9047C113.33 81.9047 116.704 101.055 115.414 103.139C114.124 105.222 110.75 109.588 107.575 109.588C104.4 109.588 100.927 103.139 100.629 102.047C100.332 100.956 100.629 78.9279 100.629 78.9279C100.629 78.9279 109.758 74.562 113.33 81.9047Z" fill="white" stroke="#2E3374" stroke-width="1.5" stroke-miterlimit="10"/>
<path d="M120.913 70.926C121.44 72.3772 119.859 94.4864 108.478 96.7913C97.0976 99.0961 92.2503 81.7672 93.0933 71.7797C93.9363 61.7921 116.592 58.8044 120.913 70.926Z" fill="white" stroke="#2E3374" stroke-width="1.5" stroke-miterlimit="10"/>
<path d="M115.658 75.0594C114.997 74.0021 114.865 72.6805 113.94 72.0196C113.375 71.6844 112.726 71.5187 112.07 71.5421C111.414 71.5656 110.778 71.7772 110.239 72.1518C109.149 72.8902 108.17 73.7803 107.332 74.7951C105.167 76.9061 102.291 78.1317 99.2696 78.2314C97.7846 78.2596 96.3184 77.8957 95.019 77.1763C93.7195 76.457 92.6328 75.4077 91.8683 74.1343C90.4145 71.2266 91.3397 67.7904 93.19 65.1471C94.5425 63.1107 96.294 61.3697 98.3384 60.0294C100.383 58.6892 102.678 57.7774 105.085 57.3493C107.516 56.926 110.013 57.0759 112.376 57.7872C114.739 58.4985 116.904 59.7514 118.698 61.4464C122.002 64.7506 122.663 68.9798 122.531 73.3413C122.398 76.9097 117.905 78.8922 115.658 75.0594Z" fill="#2E3374" stroke="#2E3374" stroke-width="1.5" stroke-miterlimit="10"/>
</svg>
