<?xml version="1.0" encoding="UTF-8"?>
<svg viewBox="0 0 296 297" xmlns="http://www.w3.org/2000/svg">
<path d="M0 0H296V297H0V0Z" fill="#2E3374"/>
<path d="m258.39 110.87c-0.22-0.111-0.691-0.082-0.913-0.088-0.924-0.024-1.858 0.057-2.768 0.215-2.807 0.491-5.611 1.266-8.288 2.231-1.7 0.612-3.639 2.018-5.48 1.756-3.208-0.456-6.27 0.124-8.909 2.027-2.413 1.74-3.991 4.523-4.702 7.358-0.107 0.428-0.568 2.015-0.6 3.036-0.051 0.216-0.099 0.434-0.138 0.653-0.112 0.622-0.199 1.25-0.273 1.877-0.031 0.268-0.124 0.862 0.12 0.932-0.243 0.742-0.442 1.497-0.583 2.266-0.411 2.237-0.86 4.69-0.746 6.965 0.042 0.843 0.182 1.673 0.419 2.484 0.117 0.4 0.241 1.225 0.566 1.489 0.691 0.559 0.827-0.415 0.686-0.844-1.077-3.264-0.663-6.576-0.073-9.921 0.382-2.164 1.266-4.236 2.326-6.158 0.858-1.555 1.846-2.834 3.189-3.999 1.643-1.425 3.449-2.66 5.237-3.895 1.176-0.812 2.356-1.609 3.582-2.346 0.273-0.164 0.682-0.534 1.006-0.591 0.684-0.121 1.744 0.226 2.439 0.303 2.286 0.253 4.63 0.679 6.936 0.611 1.478-0.043 2.79-0.51 4.054-1.234 0.129-0.074 0.338-0.243 0.59-0.476 0.933-0.566 1.795-1.225 2.497-2.081 0.404-0.493 0.743-1.099 1.053-1.653 0.092-0.166 0.115-0.341 0.09-0.5 0.081-0.063 0.13-0.129 0.132-0.196 0.016-0.495-0.881-0.349-1.449-0.221z" clip-rule="evenodd" fill="#89C5CC" fill-rule="evenodd"/>
<path d="m272.54 123.04c-1.019-0.836-2.293-1.466-3.471-2.044-6.302-3.126-13.955-3.341-20.364-0.697-5.456 2.25-8.942 6.74-12.192 11.419-0.322 0.464-0.605 0.945-0.899 1.426-0.063 0.103-0.124 0.192-0.184 0.276-0.384 0.099-0.664 0.301-0.661 0.682-1.232 0.965-2.39 2.009-3.499 3.13-3.265 3.299-6.59 6.661-7.934 11.202 1.351-2.185 2.93-4.318 4.538-6.324 0.092-0.115 0.186-0.228 0.281-0.34l0.03-0.036c0.514-0.603 1.067-1.16 1.659-1.684 7e-3 -6e-3 0.013-0.011 0.019-0.017 0.079-0.069 0.158-0.136 0.238-0.204 0.165-0.14 0.331-0.278 0.502-0.413 0.057-0.047 0.115-0.094 0.171-0.142 0.839-0.716 1.522-1.659 2.339-2.426 0.189-0.173 0.382-0.343 0.578-0.51 0.012-9e-3 0.023-0.019 0.035-0.029 0.529-0.448 1.08-0.876 1.642-1.291 0.209-0.035 0.432-0.272 0.691-0.458 0.053-0.036 0.433-0.261 0.594-0.42 0.323-0.23 0.646-0.459 0.97-0.687-5e-3 -1e-3 -0.011-2e-3 -0.017-2e-3 0.318-0.216 0.636-0.43 0.952-0.643 0.07-0.047 0.14-0.094 0.209-0.141 0.113-0.074 0.225-0.148 0.337-0.222 1.047-0.692 2.118-1.347 3.204-1.979 0.388-0.226 1.15-0.443 1.442-0.77 0.011-0.012 0.019-0.025 0.028-0.037 2.246-1.153 4.617-2.062 7.109-2.468-0.338 0.122-1.211 0.679-1.415 0.774-0.623 0.289-1.261 0.528-1.904 0.772-1.151 0.438-2.298 0.91-3.39 1.471-1.997 1.026-3.877 2.22-5.721 3.476-0.014 5e-3 -0.029 0.01-0.043 0.016-0.776 0.339-1.529 1.066-2.214 1.557 1.679 0.073 3.391 0.437 5.07 0.598 1.674 0.161 3.343 0.24 5.02 0.188 2.229-0.07 4.587-0.23 6.857-0.616 2.473-0.192 4.87-0.973 7.121-1.928 2.664-1.131 5.199-2.349 7.365-4.269 1.065-0.943 2.057-1.988 2.909-3.122 0.038-0.049 0.08-0.102 0.124-0.156 0.44-0.318 0.861-0.656 1.256-1.021 0.627-0.579 1.646-1.047 0.618-1.891z" clip-rule="evenodd" fill="#69A1AC" fill-rule="evenodd"/>
<path d="m28.94 182.87c0.2197-0.111 0.6904-0.082 0.9128-0.088 0.9241-0.024 1.8577 0.057 2.7682 0.215 2.8068 0.491 5.6112 1.266 8.2879 2.231 1.6994 0.612 3.6385 2.018 5.48 1.756 3.2082-0.456 6.2701 0.124 8.9091 2.027 2.4128 1.74 3.9909 4.523 4.7019 7.358 0.1073 0.428 0.5683 2.015 0.5997 3.036 0.0515 0.216 0.0994 0.434 0.1386 0.653 0.1112 0.622 0.1986 1.25 0.2724 1.877 0.0316 0.268 0.1245 0.862-0.1203 0.932 0.2434 0.742 0.4422 1.497 0.5836 2.266 0.4111 2.237 0.8594 4.69 0.7457 6.965-0.042 0.843-0.182 1.673-0.419 2.484-0.1172 0.4-0.2404 1.225-0.566 1.489-0.691 0.559-0.8272-0.415-0.686-0.844 1.0771-3.264 0.6636-6.576 0.0731-9.921-0.3818-2.164-1.2662-4.236-2.3262-6.158-0.8578-1.555-1.8455-2.834-3.1889-3.999-1.6428-1.425-3.4492-2.66-5.2371-3.895-1.1759-0.812-2.356-1.609-3.5817-2.346-0.2726-0.164-0.6819-0.534-1.0057-0.591-0.6846-0.121-1.7448 0.226-2.4397 0.303-2.2858 0.253-4.6301 0.679-6.9354 0.611-1.4786-0.043-2.79-0.51-4.0545-1.234-0.1292-0.074-0.3381-0.243-0.5894-0.476-0.9337-0.566-1.7957-1.225-2.4973-2.081-0.4042-0.493-0.7435-1.099-1.0527-1.653-0.0925-0.166-0.1157-0.341-0.0901-0.5-0.0809-0.063-0.1304-0.129-0.1325-0.196-0.0153-0.495 0.8814-0.349 1.4495-0.221z" clip-rule="evenodd" fill="#89C5CC" fill-rule="evenodd"/>
<path d="m14.792 195.04c1.0184-0.836 2.2931-1.466 3.4706-2.044 6.3019-3.126 13.955-3.341 20.364-0.697 5.4559 2.25 8.9418 6.74 12.192 11.419 0.3226 0.464 0.6055 0.945 0.8995 1.426 0.0632 0.103 0.1243 0.192 0.1834 0.276 0.3849 0.099 0.664 0.301 0.6615 0.682 1.2317 0.965 2.3901 2.009 3.4993 3.13 3.265 3.299 6.5898 6.661 7.9336 11.202-1.3511-2.185-2.9298-4.318-4.538-6.324-0.0924-0.115-0.1863-0.228-0.2812-0.34-0.0099-0.012-0.0196-0.024-0.0295-0.036-0.5144-0.603-1.0669-1.16-1.6597-1.684-0.0063-6e-3 -0.0125-0.011-0.019-0.017-0.0781-0.069-0.1581-0.136-0.2376-0.204-0.1646-0.14-0.331-0.278-0.5015-0.413-0.0579-0.047-0.115-0.094-0.1713-0.142-0.8394-0.716-1.522-1.659-2.3387-2.426-0.1896-0.173-0.3825-0.343-0.5788-0.51-0.0115-9e-3 -0.0231-0.019-0.0348-0.029-0.5293-0.448-1.0798-0.876-1.6423-1.291-0.2081-0.035-0.4312-0.272-0.6907-0.458-0.0524-0.036-0.4327-0.261-0.5934-0.42-0.3235-0.23-0.6465-0.459-0.971-0.687 0.0059-1e-3 0.0118-2e-3 0.0176-2e-3 -0.3181-0.216-0.6361-0.43-0.9522-0.643-0.0695-0.047-0.1394-0.094-0.2092-0.141-0.1123-0.074-0.2244-0.148-0.3364-0.222-1.0473-0.692-2.1178-1.347-3.2045-1.979-0.3879-0.226-1.1498-0.443-1.442-0.77-0.0109-0.012-0.0184-0.025-0.0275-0.037-2.2459-1.153-4.6173-2.062-7.1097-2.468 0.3388 0.122 1.2114 0.679 1.415 0.774 0.6233 0.289 1.2616 0.528 1.9043 0.772 1.1511 0.438 2.2981 0.91 3.39 1.471 1.9968 1.026 3.8776 2.22 5.7209 3.476 0.0143 5e-3 0.0291 0.01 0.0431 0.016 0.7762 0.339 1.5287 1.066 2.2145 1.557-1.6794 0.073-3.3909 0.437-5.0701 0.598-1.6745 0.161-3.3434 0.24-5.0205 0.188-2.229-0.07-4.5865-0.23-6.8566-0.616-2.4733-0.192-4.8698-0.973-7.1214-1.928-2.6638-1.131-5.1988-2.349-7.3651-4.269-1.0644-0.943-2.0566-1.988-2.9091-3.122-0.0372-0.049-0.0793-0.102-0.1237-0.156-0.4396-0.318-0.8609-0.656-1.256-1.021-0.6268-0.579-1.6458-1.047-0.6176-1.891z" clip-rule="evenodd" fill="#69A1AC" fill-rule="evenodd"/>
<path d="m61 71.963c0-2.1888 1.7763-3.9631 3.9675-3.9631h158.21c2.191 0 3.967 1.7743 3.967 3.9631v163.48c0 2.188-1.776 3.963-3.967 3.963h-158.21c-2.1912 0-3.9675-1.775-3.9675-3.963v-163.48z" fill="#F2F2F2"/>
<path d="m184.29 93.059c0-2.2144 1.769-4.0094 3.952-4.0094h26.677c2.183 0 3.952 1.795 3.952 4.0094v32.577c0 2.214-1.769 4.009-3.952 4.009h-26.677c-2.183 0-3.952-1.795-3.952-4.009v-32.577z" fill="#fff"/>
<path d="m201.96 112.35c4.36 0 7.894-3.534 7.894-7.893 0-4.36-3.534-7.8939-7.894-7.8939-4.359 0-7.894 3.5339-7.894 7.8939 0 4.359 3.535 7.893 7.894 7.893z" clip-rule="evenodd" fill="#DDE3E9" fill-rule="evenodd"/>
<path d="m189.55 116.11c0-0.83 0.666-1.503 1.488-1.503h21.832c0.822 0 1.488 0.673 1.488 1.503 0 0.831-0.666 1.504-1.488 1.504h-21.832c-0.822 0-1.488-0.673-1.488-1.504z" fill="#DDE3E9"/>
<path d="m193.31 121c0-0.622 0.653-1.127 1.459-1.127h13.62c0.806 0 1.459 0.505 1.459 1.127 0 0.623-0.653 1.128-1.459 1.128h-13.62c-0.806 0-1.459-0.505-1.459-1.128z" fill="#DDE3E9"/>
<path d="m61 72.009c0-2.2143 1.7763-4.0094 3.9675-4.0094h158.21c2.191 0 3.967 1.7951 3.967 4.0094v9.5224h-166.14v-9.5224z" fill="#C5CFD6"/>
<path d="m67.389 77.021c1.038 0 1.8794-0.8415 1.8794-1.8794 0-1.038-0.8414-1.8794-1.8794-1.8794s-1.8794 0.8414-1.8794 1.8794c0 1.0379 0.8414 1.8794 1.8794 1.8794z" clip-rule="evenodd" fill="#F2F2F2" fill-rule="evenodd"/>
<path d="m73.405 77.021c1.038 0 1.8794-0.8415 1.8794-1.8794 0-1.038-0.8414-1.8794-1.8794-1.8794s-1.8794 0.8414-1.8794 1.8794c0 1.0379 0.8414 1.8794 1.8794 1.8794z" clip-rule="evenodd" fill="#F2F2F2" fill-rule="evenodd"/>
<path d="m79.418 77.021c1.038 0 1.8794-0.8415 1.8794-1.8794 0-1.038-0.8414-1.8794-1.8794-1.8794s-1.8794 0.8414-1.8794 1.8794c0 1.0379 0.8414 1.8794 1.8794 1.8794z" clip-rule="evenodd" fill="#F2F2F2" fill-rule="evenodd"/>
<path d="m184.29 137.37c0-2.192 1.769-3.968 3.952-3.968h26.677c2.183 0 3.952 1.776 3.952 3.968v88.29c0 2.191-1.769 3.968-3.952 3.968h-26.677c-2.183 0-3.952-1.777-3.952-3.968v-88.29z" fill="#fff"/>
<path d="m193.31 144.39c0-1.086 0.871-1.966 1.945-1.966h12.648c1.074 0 1.945 0.88 1.945 1.966v8.848c0 1.086-0.871 1.966-1.945 1.966h-12.648c-1.074 0-1.945-0.88-1.945-1.966v-8.848z" fill="#DDE3E9"/>
<path d="m193.31 161.01c0-1.13 0.871-2.045 1.945-2.045h12.648c1.074 0 1.945 0.915 1.945 2.045v8.69c0 1.129-0.871 2.045-1.945 2.045h-12.648c-1.074 0-1.945-0.916-1.945-2.045v-8.69z" fill="#AFB9C5"/>
<path d="m193.31 177.43c0-1.063 0.871-1.925 1.945-1.925h12.648c1.074 0 1.945 0.862 1.945 1.925v8.179c0 1.063-0.871 1.925-1.945 1.925h-12.648c-1.074 0-1.945-0.862-1.945-1.925v-8.179z" fill="#DDE3E9"/>
<path d="m193.31 209.87c0-1.129 0.871-2.044 1.945-2.044h12.648c1.074 0 1.945 0.915 1.945 2.044v8.691c0 1.129-0.871 2.045-1.945 2.045h-12.648c-1.074 0-1.945-0.916-1.945-2.045v-8.691z" fill="#DDE3E9"/>
<path d="m193.31 193.97c0-1.063 0.871-1.924 1.945-1.924h12.648c1.074 0 1.945 0.861 1.945 1.924v8.179c0 1.063-0.871 1.925-1.945 1.925h-12.648c-1.074 0-1.945-0.862-1.945-1.925v-8.179z" fill="#C5CFD6"/>
<path d="m69.27 91.784c0-1.0954 0.8856-1.9834 1.978-1.9834h107.31c1.092 0 1.978 0.888 1.978 1.9834v19.338c0 1.096-0.886 1.984-1.978 1.984h-107.31c-1.0924 0-1.978-0.888-1.978-1.984v-19.338z" fill="#fff"/>
<path d="m73.779 98.167c0-0.8833 0.6651-1.5995 1.4855-1.5995h79.723c0.82 0 1.486 0.7162 1.486 1.5995v0.5599c0 0.8833-0.666 1.5995-1.486 1.5995h-79.723c-0.8204 0-1.4855-0.7162-1.4855-1.5995v-0.5599z" fill="#DDE3E9"/>
<path d="m73.779 104.18c0-0.884 0.6576-1.6 1.4687-1.6h51.942c0.811 0 1.468 0.716 1.468 1.6v0.56c0 0.883-0.657 1.599-1.468 1.599h-51.942c-0.8111 0-1.4687-0.716-1.4687-1.599v-0.56z" fill="#DDE3E9"/>
<path d="m168.5 104.84c2.076 0 3.759-1.514 3.759-3.382 0-1.8688-1.683-3.3834-3.759-3.3834s-3.759 1.5146-3.759 3.3834c0 1.868 1.683 3.382 3.759 3.382z" clip-rule="evenodd" fill="#DDE3E9" fill-rule="evenodd"/>
<path d="m168.5 102.58c0.83 0 1.503-0.505 1.503-1.127 0-0.623-0.673-1.128-1.503-1.128-0.831 0-1.504 0.505-1.504 1.128 0 0.622 0.673 1.127 1.504 1.127z" clip-rule="evenodd" fill="#F2F2F2" fill-rule="evenodd"/>
<path d="m69.27 118.87c0-1.107 0.8856-2.004 1.978-2.004h107.31c1.092 0 1.978 0.897 1.978 2.004v15.537c0 1.107-0.886 2.005-1.978 2.005h-107.31c-1.0924 0-1.978-0.898-1.978-2.005v-15.537z" fill="#fff"/>
<path d="m73.779 124.38c0-0.83 0.6485-1.503 1.4484-1.503h79.797c0.8 0 1.449 0.673 1.449 1.503 0 0.831-0.649 1.504-1.449 1.504h-79.797c-0.7999 0-1.4484-0.673-1.4484-1.504z" fill="#DDE3E9"/>
<path d="m73.779 128.89c0-0.83 0.6411-1.503 1.432-1.503h52.015c0.791 0 1.432 0.673 1.432 1.503 0 0.831-0.641 1.504-1.432 1.504h-52.015c-0.7909 0-1.432-0.673-1.432-1.504z" fill="#DDE3E9"/>
<path d="m168.5 130.4c2.076 0 3.759-1.683 3.759-3.759s-1.683-3.759-3.759-3.759-3.759 1.683-3.759 3.759 1.683 3.759 3.759 3.759z" clip-rule="evenodd" fill="#DDE3E9" fill-rule="evenodd"/>
<path d="m168.5 128.14c0.83 0 1.503-0.673 1.503-1.503 0-0.831-0.673-1.504-1.503-1.504-0.831 0-1.504 0.673-1.504 1.504 0 0.83 0.673 1.503 1.504 1.503z" clip-rule="evenodd" fill="#F2F2F2" fill-rule="evenodd"/>
<path d="m69.27 142.17c0-1.107 0.8856-2.005 1.978-2.005h107.31c1.092 0 1.978 0.898 1.978 2.005v15.537c0 1.107-0.886 2.004-1.978 2.004h-107.31c-1.0924 0-1.978-0.897-1.978-2.004v-15.537z" fill="#fff"/>
<path d="m73.779 147.69c0-0.83 0.6485-1.503 1.4484-1.503h79.797c0.8 0 1.449 0.673 1.449 1.503 0 0.831-0.649 1.504-1.449 1.504h-79.797c-0.7999 0-1.4484-0.673-1.4484-1.504z" fill="#DDE3E9"/>
<path d="m73.779 152.2c0-0.831 0.6411-1.504 1.432-1.504h52.015c0.791 0 1.432 0.673 1.432 1.504 0 0.83-0.641 1.503-1.432 1.503h-52.015c-0.7909 0-1.432-0.673-1.432-1.503z" fill="#DDE3E9"/>
<path d="m168.5 153.7c2.076 0 3.759-1.683 3.759-3.759s-1.683-3.758-3.759-3.758-3.759 1.682-3.759 3.758 1.683 3.759 3.759 3.759z" clip-rule="evenodd" fill="#DDE3E9" fill-rule="evenodd"/>
<path d="m168.5 151.45c0.83 0 1.503-0.673 1.503-1.504 0-0.83-0.673-1.503-1.503-1.503-0.831 0-1.504 0.673-1.504 1.503 0 0.831 0.673 1.504 1.504 1.504z" clip-rule="evenodd" fill="#AFB9C5" fill-rule="evenodd"/>
<path d="m69.27 212.09c0-1.107 0.8856-2.005 1.978-2.005h107.31c1.092 0 1.978 0.898 1.978 2.005v15.536c0 1.107-0.886 2.005-1.978 2.005h-107.31c-1.0924 0-1.978-0.898-1.978-2.005v-15.536z" fill="#fff"/>
<path d="m73.779 217.6c0-0.831 0.6485-1.504 1.4484-1.504h79.797c0.8 0 1.449 0.673 1.449 1.504 0 0.83-0.649 1.503-1.449 1.503h-79.797c-0.7999 0-1.4484-0.673-1.4484-1.503z" fill="#DDE3E9"/>
<path d="m73.779 222.11c0-0.83 0.6411-1.504 1.432-1.504h52.015c0.791 0 1.432 0.674 1.432 1.504s-0.641 1.503-1.432 1.503h-52.015c-0.7909 0-1.432-0.673-1.432-1.503z" fill="#DDE3E9"/>
<path d="m168.5 223.62c2.076 0 3.759-1.683 3.759-3.759s-1.683-3.759-3.759-3.759-3.759 1.683-3.759 3.759 1.683 3.759 3.759 3.759z" clip-rule="evenodd" fill="#DDE3E9" fill-rule="evenodd"/>
<path d="m168.5 221.36c0.83 0 1.503-0.673 1.503-1.503 0-0.831-0.673-1.504-1.503-1.504-0.831 0-1.504 0.673-1.504 1.504 0 0.83 0.673 1.503 1.504 1.503z" clip-rule="evenodd" fill="#F2F2F2" fill-rule="evenodd"/>
<path d="m69.27 188.78c0-1.107 0.8856-2.005 1.978-2.005h107.31c1.092 0 1.978 0.898 1.978 2.005v15.536c0 1.107-0.886 2.005-1.978 2.005h-107.31c-1.0924 0-1.978-0.898-1.978-2.005v-15.536z" fill="#fff"/>
<path d="m73.779 194.3c0-0.831 0.6485-1.504 1.4484-1.504h79.797c0.8 0 1.449 0.673 1.449 1.504 0 0.83-0.649 1.503-1.449 1.503h-79.797c-0.7999 0-1.4484-0.673-1.4484-1.503z" fill="#DDE3E9"/>
<path d="m73.779 198.81c0-0.83 0.6411-1.503 1.432-1.503h52.015c0.791 0 1.432 0.673 1.432 1.503 0 0.831-0.641 1.504-1.432 1.504h-52.015c-0.7909 0-1.432-0.673-1.432-1.504z" fill="#DDE3E9"/>
<path d="m168.5 200.31c2.076 0 3.759-1.683 3.759-3.759s-1.683-3.759-3.759-3.759-3.759 1.683-3.759 3.759 1.683 3.759 3.759 3.759z" clip-rule="evenodd" fill="#DDE3E9" fill-rule="evenodd"/>
<path d="m168.5 198.06c0.83 0 1.503-0.674 1.503-1.504s-0.673-1.503-1.503-1.503c-0.831 0-1.504 0.673-1.504 1.503s0.673 1.504 1.504 1.504z" clip-rule="evenodd" fill="#F2F2F2" fill-rule="evenodd"/>
<path d="m69.27 165.48c0-1.107 0.8856-2.005 1.978-2.005h107.31c1.092 0 1.978 0.898 1.978 2.005v15.537c0 1.107-0.886 2.004-1.978 2.004h-107.31c-1.0924 0-1.978-0.897-1.978-2.004v-15.537z" fill="#fff"/>
<path d="m73.779 170.99c0-0.83 0.6485-1.503 1.4484-1.503h79.797c0.8 0 1.449 0.673 1.449 1.503s-0.649 1.504-1.449 1.504h-79.797c-0.7999 0-1.4484-0.674-1.4484-1.504z" fill="#DDE3E9"/>
<path d="m73.779 175.5c0-0.831 0.6411-1.504 1.432-1.504h52.015c0.791 0 1.432 0.673 1.432 1.504 0 0.83-0.641 1.503-1.432 1.503h-52.015c-0.7909 0-1.432-0.673-1.432-1.503z" fill="#DDE3E9"/>
<path d="m168.5 177.01c2.076 0 3.759-1.683 3.759-3.759s-1.683-3.758-3.759-3.758-3.759 1.682-3.759 3.758 1.683 3.759 3.759 3.759z" clip-rule="evenodd" fill="#DDE3E9" fill-rule="evenodd"/>
<path d="m168.5 174.75c0.83 0 1.503-0.673 1.503-1.504 0-0.83-0.673-1.503-1.503-1.503-0.831 0-1.504 0.673-1.504 1.503 0 0.831 0.673 1.504 1.504 1.504z" clip-rule="evenodd" fill="#F2F2F2" fill-rule="evenodd"/>
</svg>
