<svg width="460" height="271" viewBox="0 0 460 271" fill="none" xmlns="http://www.w3.org/2000/svg">
<path d="M66.7135 85.9154C49.6784 93.4964 32.2808 102.04 20.1992 116.36C16.2123 121.173 12.7086 126.949 13.071 133.086C13.6751 144.639 27.0857 151.498 38.6841 151.618C50.2825 151.618 61.6392 147.286 73.2376 147.286C79.2784 147.286 86.769 150.174 86.6482 156.191C86.6482 159.801 83.7486 162.568 81.0906 164.975C60.5518 183.266 40.0131 201.557 19.4743 219.847C12.5878 225.985 5.58043 232.362 1.95594 240.786C-1.54774 249.209 -0.581206 260.28 6.78859 265.815C11.6212 269.425 18.0245 269.907 24.1861 270.027C51.6114 270.508 78.9159 266.297 105.979 261.363C201.424 243.794 295.177 216.719 385.306 180.739C401.858 174.12 419.497 166.058 427.35 150.174C436.411 131.763 426.746 106.733 407.657 99.1521C396.3 94.5794 383.494 95.9031 371.412 93.7371C359.331 91.5711 346.403 83.268 346.282 70.9939C346.041 50.7777 378.903 43.0763 379.869 22.8602C380.353 12.1504 370.566 3.12532 360.055 0.838971C349.544 -1.44738 338.671 1.32031 328.402 4.56934C328.522 4.32867 142.344 51.9811 66.7135 85.9154Z" fill="#D9EDEF"/>
<path d="M308.883 31.4848C288.285 12.5908 263.204 7.30982 232.186 8.71807C227.097 8.95278 221.403 9.77426 218.495 13.1775C215.587 16.5808 218.737 22.8006 223.705 21.8617C188.688 5.66686 147.007 -0.318199 107.387 4.96274C103.025 5.54951 98.2992 6.48834 95.6336 9.4222C92.968 12.356 94.7855 17.637 99.1474 17.7543C66.6753 4.61067 7.91045 29.8418 13.8475 31.9542L308.883 31.4848Z" fill="#AFDADD"/>
<path d="M460 73.7398C444.872 59.5668 426.476 55.6364 403.602 56.7083C399.851 56.8274 395.736 57.542 393.557 60.0432C391.379 62.5443 393.678 67.1893 397.43 66.4746C371.773 54.4454 341.033 50.0387 311.987 53.969C308.719 54.4454 305.209 55.0409 303.394 57.3038C301.457 59.4477 302.789 63.4971 306.056 63.4971C282.093 53.7308 239.009 72.5488 243.365 74.2162L460 73.7398Z" fill="#AFDADD"/>
<path d="M361.568 242.798C347.549 229.977 330.629 226.48 309.601 227.412C306.217 227.529 302.35 228.112 300.295 230.443C298.361 232.774 300.416 236.97 303.8 236.271C280.112 225.431 251.712 221.351 224.882 224.965C221.861 225.314 218.719 226.014 216.906 227.995C215.093 229.977 216.302 233.59 219.323 233.59C197.207 224.732 157.446 241.866 161.434 243.264L361.568 242.798Z" fill="#AFDADD"/>
<path d="M233.164 47.3619C233.164 47.3619 220.668 93.1166 266.012 99.2997C263.751 104.246 263.275 106.225 263.275 106.225C263.275 106.225 217.097 94.7242 219.478 65.5402C227.571 47.1146 233.164 47.3619 233.164 47.3619Z" fill="#15ADC2" stroke="#2E3374" stroke-width="1.5" stroke-miterlimit="10"/>
<path d="M132.801 130.369L85.2003 108.124L30.9912 171.734L76.5121 161.994L132.801 130.369Z" fill="#F8B243" stroke="#2E3374" stroke-width="1.5" stroke-miterlimit="10"/>
<path d="M151.832 215.391L117.861 255.281L41.458 219.501L87.0792 209.71L151.832 215.391Z" fill="#F8B243" stroke="#2E3374" stroke-width="1.5" stroke-miterlimit="10"/>
<path d="M93.7904 201.877L74.3691 204.013L67.1484 172.327L85.8227 166.987L93.7904 201.877Z" fill="#2E3374" stroke="#2E3374" stroke-width="1.5" stroke-miterlimit="10"/>
<path d="M392.56 118.549C392.56 118.549 344.082 171.02 281.267 198.777C280.052 199.264 278.959 199.751 277.744 200.238C276.529 200.725 275.435 201.212 274.22 201.699C263.771 205.96 252.958 209.368 242.023 211.803C188.928 223.369 125.506 220.082 87.112 210.829L76.6631 162.863C107.645 138.393 163.778 108.079 216.873 96.5134C227.808 94.0785 239.107 92.7394 250.407 92.2524C251.743 92.1306 252.958 92.1306 254.295 92.1306C255.631 92.1306 256.846 92.0089 258.182 92.0089C326.708 91.035 392.56 118.549 392.56 118.549Z" fill="white" stroke="#2E3374" stroke-width="1.5" stroke-miterlimit="10"/>
<path d="M392.561 118.543C392.561 118.543 344.045 171.003 281.18 198.755C279.964 199.242 278.87 199.729 277.654 200.216C262.455 186.096 252.241 168.813 248.106 150.068C243.972 131.324 246.039 111.24 254.065 92.1306C255.402 92.1306 256.618 92.0089 257.956 92.0089C326.657 91.0352 392.561 118.543 392.561 118.543Z" fill="#F8B243" stroke="#2E3374" stroke-width="1.5" stroke-miterlimit="10"/>
<path d="M258.449 91.9836C257.13 91.9836 255.931 91.9836 254.612 92.105C253.412 92.105 252.093 92.2263 250.774 92.2263C247.176 101.203 244.898 110.302 243.818 119.4C242.619 129.833 243.099 140.387 245.257 150.456C247.416 160.647 251.254 170.352 256.77 179.329C261.448 187.214 267.324 194.493 274.28 201.165C275.479 200.68 276.559 200.195 277.758 199.709C278.957 199.224 280.036 198.739 281.236 198.254C266.485 184.909 256.171 168.168 251.973 149.001C248.016 129.954 250.534 110.423 258.449 91.9836Z" fill="#2E3374" stroke="#2E3374" stroke-width="1.5" stroke-miterlimit="10"/>
<path d="M143.268 179.642L58.1841 198.317L35.7485 196.597L55.3644 185.662L140.448 166.987L143.268 179.642Z" fill="#F8B243" stroke="#2E3374" stroke-width="1.5" stroke-miterlimit="10"/>
<path d="M225.825 179.38L238.418 195.469L220.813 185.108V187.424L216.534 184.621L220.568 177.43L225.825 179.38Z" fill="#2E3374" stroke="#2E3374" stroke-width="1.5" stroke-miterlimit="10"/>
<path d="M238.503 137.717C239.605 136.274 238.87 134.23 237.035 133.869C221.491 130.984 186.731 122.207 181.468 116.556C175.594 110.304 183.671 102.008 189.546 97.6801L208.15 105.495L256.005 127.617C257.352 128.218 257.841 129.781 257.107 131.104L227.61 180.278C227.61 180.278 222.347 179.677 218.676 178.956C218.676 178.595 232.384 143.608 238.503 137.717Z" fill="#2E3374" stroke="#2E3374" stroke-width="1.5" stroke-miterlimit="10"/>
<path d="M245.078 102.555L253.897 102.427L253.668 103.838L257.448 107.431L253.439 111.921L245.193 106.533V102.555H245.078Z" fill="white" stroke="#2E3374" stroke-width="1.5" stroke-miterlimit="10"/>
<path d="M233.661 46.6876L229.035 73.7281L208.828 105.275L187.038 99.4287L207.245 40.841L230.009 35.9689L233.661 46.6876Z" fill="#15ADC2" stroke="#2E3374" stroke-width="1.5" stroke-miterlimit="10"/>
<path d="M239.369 39.4094L232.573 47.3617L229.854 36.1149L233.139 34.07L239.369 39.4094Z" fill="white" stroke="#2E3374" stroke-width="1.5" stroke-miterlimit="10"/>
<path d="M231.874 13.1831C228.38 14.5267 226.569 23.0769 227.087 24.9091C227.604 26.7413 232.909 34.07 232.909 34.07L242.223 14.6489L231.874 13.1831Z" fill="#2E3374" stroke="#2E3374" stroke-width="1.5" stroke-miterlimit="10"/>
<path d="M244.506 19.4856L244.159 17.9464C244.159 17.9464 234.882 15.6969 233.027 18.0648C232.1 19.1304 232.1 22.919 232.331 26.9445C232.1 26.9445 231.984 26.9445 231.752 26.9445C230.94 27.1813 230.592 28.3653 230.94 29.4308C231.288 30.4964 231.984 31.0884 232.795 31.0884C233.143 34.4034 233.723 37.2449 234.071 38.1921C234.882 40.56 242.224 42.14 245.078 40.7159C248.884 37.8677 244.506 19.4856 244.506 19.4856Z" fill="white" stroke="#2E3374" stroke-width="1.5" stroke-miterlimit="10"/>
<path d="M206.762 41.6653C206.762 41.6653 174.222 103.617 246.03 109.073C245.663 105.557 245.663 102.89 245.663 102.89C245.663 102.89 208.474 98.0403 214.102 65.9126C214.713 62.518 215.814 59.2446 217.16 55.9712C223.521 41.544 206.762 41.6653 206.762 41.6653Z" fill="#15ADC2" stroke="#2E3374" stroke-width="1.5" stroke-miterlimit="10"/>
<g clip-path="url(#clip0)">
<path d="M230.467 21.0622C229.142 19.9863 228.613 18.1033 229.142 16.3548C229.805 14.0683 232.188 12.7233 234.572 12.3198C236.823 12.0508 239.207 12.3198 241.59 11.9163C243.974 11.5128 246.358 10.4368 247.285 8.15036C248.476 9.22635 249.271 10.9748 249.139 12.7233C249.933 12.0508 250.728 11.2438 251.522 10.5713C250.33 14.0683 249.139 17.8343 246.093 19.8518C243.179 21.8692 239.339 21.6002 235.764 21.3312C235.764 21.4657 231.659 22.2727 230.467 21.0622Z" fill="#2E3374" stroke="#2E3374" stroke-width="1.5" stroke-miterlimit="10"/>
</g>
<defs>
<clipPath id="clip0">
<rect width="25.6904" height="16.1399" fill="white" transform="translate(227.951 6.53738)"/>
</clipPath>
</defs>
</svg>
