<svg width="460" height="184" viewBox="0 0 460 184" fill="none" xmlns="http://www.w3.org/2000/svg">
<path d="M0 0H460V184H0V0Z" fill="#2E3374"/>
<path fill-rule="evenodd" clip-rule="evenodd" d="M344.714 88.298C348.172 84.7367 351.642 81.2198 355.506 78.0839C357.782 76.2361 360.182 74.5558 362.532 72.8037C362.261 73.0412 361.995 73.2856 361.736 73.5359C362.469 73.038 363.429 72.7566 364.207 72.2956C365.075 71.7815 365.904 71.1934 366.717 70.6005C368.305 69.4437 369.869 68.2648 371.501 67.1682C373.319 65.9466 375.204 64.8178 377.053 63.6422C378.622 62.6445 380.211 61.5525 381.89 60.737C382.805 60.2924 383.722 59.7654 384.641 59.3018C384.949 59.1467 388.069 57.1763 388.061 57.1704C387.889 57.0404 386.318 57.7782 386.076 57.8775C385.366 58.1672 384.688 58.5138 384.006 58.8593C384.38 58.1209 384.676 57.3451 384.838 56.5286C384.888 56.2765 385.287 54.4417 385.083 54.2878C384.981 54.2109 383.985 57.4937 383.934 57.8093C383.893 58.0656 383.899 58.4348 383.815 58.6776C383.679 59.0697 383.686 58.9513 383.388 59.1721C382.841 59.577 382.114 59.8299 381.522 60.1683C381.203 60.3466 380.214 61.0534 379.619 61.2549C377.817 62.1299 375.991 63.4761 374.28 64.5937C374.729 63.7494 375.071 62.8665 375.32 61.9414C375.379 61.7217 376.019 59.7513 375.864 59.6343C375.689 59.5027 374.47 62.5121 374.398 62.797C374.264 63.3262 374.236 63.9152 374.068 64.4301C373.884 64.9952 373.309 65.1956 372.79 65.525C370.883 66.737 369.04 68.0248 367.229 69.3717C365.253 65.8567 367.532 61.612 369.452 58.6628C370.837 56.5373 372.7 54.7149 374.668 53.124C377.294 51.0008 380.299 49.3045 383.3 47.753C386.797 45.9451 390.577 44.825 394.506 44.3075C396.561 44.0368 398.663 44.0444 400.739 44.1312C401.753 44.1735 402.727 44.3078 403.698 44.6385C404.136 44.7878 404.56 44.9759 404.972 45.1864C405.286 45.3465 406.044 45.5154 406.224 45.7538C407.707 47.6845 408.466 49.6084 408.35 52.0346C408.241 54.3312 407.515 56.6291 406.531 58.6777C405.435 60.9589 404.025 63.0293 402.181 64.7669C400.774 66.0927 399.201 67.2465 397.639 68.3852C392.081 72.4354 385.036 75.9578 377.838 75.0529C375.508 74.7601 373.292 73.9452 371.221 72.838C370.733 72.5771 370.248 72.3132 369.787 72.0051C369.477 71.7975 368.647 70.8617 368.334 70.8277C367.906 70.7811 366.984 71.652 366.582 71.9171C363.529 73.9324 360.556 76.0568 357.646 78.2671C354.549 80.6188 351.604 83.1304 348.746 85.7602C347.531 86.8787 346.323 87.9998 345.143 89.1559C344.868 89.4248 344.196 90.4154 343.698 90.4602C343.383 90.4886 343.17 90.2195 343.215 89.928C343.293 89.4211 344.36 88.6626 344.714 88.298Z" fill="#C1DEE2"/>
<path fill-rule="evenodd" clip-rule="evenodd" d="M372.81 80.7474C373.341 80.2182 373.937 79.7408 374.637 79.4002C374.814 79.3142 376.132 78.7375 376.218 78.8641C376.418 79.1587 372.97 80.5785 372.81 80.7474ZM366.561 77.2123C366.565 77.2347 366.108 77.9488 365.983 78.1684C365.719 78.6352 365.474 79.1111 365.244 79.5879C365.585 78.7457 365.935 77.9647 366.561 77.2123ZM398.522 83.0253C398.963 83.1559 399.492 82.6414 398.921 82.5146C398.459 82.4129 398.482 82.3889 398.274 82.0463C398.106 81.768 398.002 81.4286 397.854 81.1366C397.541 80.5173 397.185 79.9266 396.748 79.3732C395.813 78.1867 394.673 77.1643 393.394 76.3028C391.163 74.7994 388.661 73.4253 386.007 72.735C381.787 71.6373 376.985 71.5694 372.758 72.3306C370.141 72.8018 367.749 73.6212 366.01 75.5619C365.142 76.5317 364.46 77.6679 364.162 78.919C364.084 79.246 364.098 79.6097 364.001 79.9298C363.851 80.4221 363.917 80.2911 363.292 80.3869C362.609 80.4914 361.927 80.5981 361.245 80.7067C359.46 80.9911 357.664 81.2931 355.924 81.7547C355.351 81.9065 354.791 82.0921 354.244 82.3078C353.83 82.4707 352.182 82.9823 351.982 83.4773C351.649 84.3009 352.766 83.9276 353.112 83.7482C353.416 83.5911 353.728 83.4445 354.045 83.3096C354.842 82.9698 355.673 82.7071 356.522 82.498C357.44 82.2719 358.377 82.1031 359.31 81.9341C360.18 81.7767 361.053 81.6334 361.927 81.4965C362.413 81.4203 362.899 81.3464 363.386 81.2725C363.552 81.2472 363.845 81.1148 363.822 81.3136C364.845 81.1322 365.95 81.1584 366.991 81.1083C368.266 81.0471 369.546 80.9969 370.826 81.0336C371.749 81.0601 372.672 81.1158 373.591 81.23C374.127 81.2968 374.655 81.3944 375.181 81.518C375.471 81.5859 376.611 81.7299 376.768 81.9621C376.701 81.8623 375.442 81.959 375.282 81.9534C374.641 81.9312 374.006 81.8728 373.368 81.8072C372.183 81.6853 370.998 81.6217 369.81 81.631C369.815 81.823 370.626 82.1651 370.824 82.2923C371.268 82.5778 371.694 82.8893 372.091 83.2308C372.79 83.8323 373.627 84.5775 374.111 85.2902C373.968 85.0801 373.265 84.8068 373.016 84.6464C372.616 84.3892 372.224 84.1149 371.854 83.8216C371.512 83.5507 371.193 83.2583 370.879 82.9596C370.565 82.6606 370.139 82.0391 369.726 81.8401C369.701 81.828 369.522 81.9588 369.419 81.9143C369.317 81.8696 369.188 81.6456 369.162 81.6364C368.778 81.5 368.049 81.6697 367.645 81.6869C366.599 81.7312 365.553 81.7894 364.507 81.8424C364.183 81.8588 363.907 81.791 363.785 82.011C363.655 82.2458 363.894 82.8628 363.962 83.1185C364.214 84.0681 364.662 84.9196 365.367 85.6553C366.687 87.0334 368.316 87.952 370.155 88.5665C377.201 90.9203 384.697 91.863 391.741 89.4145C394.657 88.4007 399.048 86.5893 398.522 83.0253Z" fill="#89C5CC"/>
<path fill-rule="evenodd" clip-rule="evenodd" d="M61.9403 72.8777C62.16 72.7671 62.6307 72.796 62.8531 72.79C63.7772 72.7654 64.7108 72.8467 65.6213 73.0045C68.4281 73.4954 71.2325 74.2708 73.9092 75.2354C75.6086 75.8479 77.5477 77.2537 79.3892 76.9919C82.5974 76.5357 85.6593 77.1161 88.2983 79.0186C90.7111 80.7583 92.2892 83.5416 93.0002 86.3767C93.1075 86.8047 93.5685 88.3913 93.5999 89.4125C93.6514 89.6291 93.6993 89.8465 93.7385 90.0655C93.8497 90.6873 93.9371 91.3156 94.0109 91.9427C94.0425 92.2103 94.1354 92.805 93.8906 92.8745C94.134 93.6164 94.3328 94.3721 94.4742 95.1411C94.8853 97.3777 95.3336 99.8306 95.2199 102.106C95.1779 102.948 95.0379 103.779 94.8009 104.589C94.6837 104.99 94.5605 105.815 94.2349 106.078C93.5439 106.637 93.4077 105.663 93.5489 105.235C94.626 101.971 94.2125 98.6591 93.622 95.3132C93.2402 93.1496 92.3558 91.0775 91.2958 89.156C90.438 87.6007 89.4503 86.3218 88.1069 85.1564C86.4641 83.7312 84.6577 82.4962 82.8698 81.2615C81.6939 80.4492 80.5138 79.6525 79.2881 78.9158C79.0155 78.7519 78.6062 78.3819 78.2824 78.3246C77.5978 78.2033 76.5376 78.5504 75.8427 78.6273C73.5569 78.8808 71.2126 79.3063 68.9073 79.2385C67.4287 79.1952 66.1173 78.7282 64.8528 78.0044C64.7236 77.9306 64.5147 77.7618 64.2634 77.529C63.3297 76.9626 62.4677 76.304 61.7661 75.4479C61.3619 74.9546 61.0226 74.3488 60.7134 73.7945C60.6209 73.6289 60.5977 73.4532 60.6233 73.2947C60.5424 73.2317 60.4929 73.166 60.4908 73.0989C60.4755 72.6035 61.3722 72.7499 61.9403 72.8777Z" fill="#89C5CC"/>
<path fill-rule="evenodd" clip-rule="evenodd" d="M47.7904 85.0401C48.8087 84.2041 50.0835 83.5741 51.261 82.9959C57.5629 79.8696 65.2163 79.6553 71.625 82.2987C77.0808 84.5492 80.5667 89.0387 83.8168 93.7175C84.1394 94.1821 84.4222 94.663 84.7163 95.1436C84.7794 95.2467 84.8406 95.3362 84.8997 95.4196C85.2846 95.5185 85.5636 95.7207 85.5612 96.1015C86.7928 97.0674 87.9512 98.1114 89.0605 99.232C92.3254 102.531 95.6502 105.893 96.994 110.433C95.6429 108.249 94.0643 106.115 92.4561 104.11C92.3637 103.995 92.2697 103.882 92.1748 103.77C92.1649 103.758 92.1552 103.746 92.1453 103.734C91.6309 103.131 91.0784 102.574 90.4857 102.05C90.4793 102.044 90.4731 102.038 90.4667 102.033C90.3886 101.964 90.3086 101.897 90.2291 101.829C90.0645 101.689 89.8981 101.551 89.7275 101.415C89.6697 101.369 89.6125 101.322 89.5562 101.274C88.7168 100.557 88.0342 99.6152 87.2176 98.8474C87.0279 98.6748 86.835 98.5049 86.6387 98.3382C86.6272 98.3285 86.6156 98.3188 86.604 98.3091C86.0747 97.861 85.5241 97.4326 84.9616 97.0178C84.7536 96.9828 84.5304 96.7458 84.2709 96.5595C84.2185 96.5235 83.8382 96.2988 83.6775 96.1394C83.354 95.9103 83.031 95.6807 82.7066 95.4526C82.7125 95.4519 82.7183 95.4512 82.7242 95.4505C82.406 95.235 82.088 95.0209 81.7719 94.8075C81.7025 94.7606 81.6326 94.7139 81.5627 94.6669C81.4505 94.5927 81.3383 94.5187 81.2264 94.4447C80.179 93.753 79.1086 93.0978 78.0218 92.4658C77.634 92.2403 76.8721 92.0225 76.5798 91.6958C76.569 91.6835 76.5615 91.671 76.5523 91.6586C74.3064 90.5061 71.9351 89.5968 69.4426 89.1911C69.7814 89.3133 70.6541 89.8702 70.8577 89.9646C71.4809 90.2538 72.1193 90.4932 72.762 90.7373C73.9131 91.1746 75.06 91.6466 76.152 92.2078C78.1488 93.2342 80.0295 94.4276 81.8729 95.6836C81.8872 95.6892 81.902 95.6939 81.9159 95.6999C82.6922 96.0384 83.4447 96.7658 84.1304 97.2568C82.451 97.3298 80.7396 97.6941 79.0603 97.8553C77.3858 98.0163 75.717 98.0951 74.0399 98.0426C71.8108 97.9729 69.4534 97.8125 67.1832 97.427C64.7099 97.2349 62.3134 96.4535 60.0619 95.4984C57.398 94.3684 54.8631 93.1503 52.6967 91.2301C51.6324 90.2865 50.6401 89.2422 49.7877 88.1081C49.7505 88.0587 49.7083 88.006 49.664 87.9516C49.2244 87.6344 48.803 87.2956 48.408 86.9305C47.7812 86.3517 46.7621 85.884 47.7904 85.0401Z" fill="#69A1AC"/>
<path d="M94 42.0049C94 40.9003 94.8886 40.0049 95.9847 40.0049H157.015C158.111 40.0049 159 40.9003 159 42.0049V65.0049C159 66.1095 158.111 67.0049 157.015 67.0049H95.9847C94.8886 67.0049 94 66.1095 94 65.0049V42.0049Z" fill="white"/>
<path d="M113 49.4864C113 48.6682 113.681 48.0049 114.521 48.0049H148.479C149.319 48.0049 150 48.6682 150 49.4864V50.5234C150 51.3416 149.319 52.0049 148.479 52.0049H114.521C113.681 52.0049 113 51.3416 113 50.5234V49.4864Z" fill="#DDE3E9"/>
<path d="M113 56.4864C113 55.6682 113.685 55.0049 114.531 55.0049H136.469C137.315 55.0049 138 55.6682 138 56.4864V57.5234C138 58.3416 137.315 59.0049 136.469 59.0049H114.531C113.685 59.0049 113 58.3416 113 57.5234V56.4864Z" fill="#DDE3E9"/>
<path fill-rule="evenodd" clip-rule="evenodd" d="M104 59.0049C107.314 59.0049 110 56.3186 110 53.0049C110 49.6912 107.314 47.0049 104 47.0049C100.686 47.0049 98 49.6912 98 53.0049C98 56.3186 100.686 59.0049 104 59.0049Z" fill="#C5CFD6"/>
<path d="M94 73.0049C94 71.9003 94.8886 71.0049 95.9847 71.0049H157.015C158.111 71.0049 159 71.9003 159 73.0049V90.0049C159 91.1095 158.111 92.0049 157.015 92.0049H95.9847C94.8886 92.0049 94 91.1095 94 90.0049V73.0049Z" fill="white"/>
<path d="M113 78.4335C113 77.6445 113.681 77.0049 114.521 77.0049H148.479C149.319 77.0049 150 77.6445 150 78.4335V78.5763C150 79.3653 149.319 80.0049 148.479 80.0049H114.521C113.681 80.0049 113 79.3653 113 78.5763V78.4335Z" fill="#DDE3E9"/>
<path d="M113 83.4335C113 82.6445 113.685 82.0049 114.531 82.0049H136.469C137.315 82.0049 138 82.6445 138 83.4335V83.5763C138 84.3653 137.315 85.0049 136.469 85.0049H114.531C113.685 85.0049 113 84.3653 113 83.5763V83.4335Z" fill="#DDE3E9"/>
<path fill-rule="evenodd" clip-rule="evenodd" d="M104 87.0049C107.314 87.0049 110 84.3186 110 81.0049C110 77.6912 107.314 75.0049 104 75.0049C100.686 75.0049 98 77.6912 98 81.0049C98 84.3186 100.686 87.0049 104 87.0049Z" fill="#C5CFD6"/>
<path d="M94 98.0049C94 96.9003 94.8886 96.0049 95.9847 96.0049H157.015C158.111 96.0049 159 96.9003 159 98.0049V115.005C159 116.109 158.111 117.005 157.015 117.005H95.9847C94.8886 117.005 94 116.109 94 115.005V98.0049Z" fill="white"/>
<path d="M113 103.433C113 102.644 113.681 102.005 114.521 102.005H148.479C149.319 102.005 150 102.644 150 103.433V103.576C150 104.365 149.319 105.005 148.479 105.005H114.521C113.681 105.005 113 104.365 113 103.576V103.433Z" fill="#DDE3E9"/>
<path d="M113 108.433C113 107.644 113.685 107.005 114.531 107.005H136.469C137.315 107.005 138 107.644 138 108.433V108.576C138 109.365 137.315 110.005 136.469 110.005H114.531C113.685 110.005 113 109.365 113 108.576V108.433Z" fill="#DDE3E9"/>
<path fill-rule="evenodd" clip-rule="evenodd" d="M104 112.005C107.314 112.005 110 109.319 110 106.005C110 102.691 107.314 100.005 104 100.005C100.686 100.005 98 102.691 98 106.005C98 109.319 100.686 112.005 104 112.005Z" fill="#AFB9C5"/>
<path d="M94 123.005C94 121.9 94.8886 121.005 95.9847 121.005H157.015C158.111 121.005 159 121.9 159 123.005V140.005C159 141.109 158.111 142.005 157.015 142.005H95.9847C94.8886 142.005 94 141.109 94 140.005V123.005Z" fill="white"/>
<path d="M113 128.433C113 127.644 113.681 127.004 114.521 127.004H148.479C149.319 127.004 150 127.644 150 128.433V128.576C150 129.365 149.319 130.004 148.479 130.004H114.521C113.681 130.004 113 129.365 113 128.576V128.433Z" fill="#DDE3E9"/>
<path d="M113 133.433C113 132.644 113.685 132.004 114.531 132.004H136.469C137.315 132.004 138 132.644 138 133.433V133.576C138 134.365 137.315 135.004 136.469 135.004H114.531C113.685 135.004 113 134.365 113 133.576V133.433Z" fill="#DDE3E9"/>
<path fill-rule="evenodd" clip-rule="evenodd" d="M104 137.004C107.314 137.004 110 134.318 110 131.004C110 127.691 107.314 125.004 104 125.004C100.686 125.004 98 127.691 98 131.004C98 134.318 100.686 137.004 104 137.004Z" fill="#C5CFD6"/>
<path d="M195 42.0049C195 40.9003 195.889 40.0049 196.985 40.0049H258.015C259.111 40.0049 260 40.9003 260 42.0049V65.0049C260 66.1095 259.111 67.0049 258.015 67.0049H196.985C195.889 67.0049 195 66.1095 195 65.0049V42.0049Z" fill="white"/>
<path d="M214 49.4864C214 48.6682 214.681 48.0049 215.521 48.0049H249.479C250.319 48.0049 251 48.6682 251 49.4864V50.5234C251 51.3416 250.319 52.0049 249.479 52.0049H215.521C214.681 52.0049 214 51.3416 214 50.5234V49.4864Z" fill="#DDE3E9"/>
<path d="M214 56.4864C214 55.6682 214.685 55.0049 215.531 55.0049H237.469C238.315 55.0049 239 55.6682 239 56.4864V57.5234C239 58.3416 238.315 59.0049 237.469 59.0049H215.531C214.685 59.0049 214 58.3416 214 57.5234V56.4864Z" fill="#DDE3E9"/>
<path fill-rule="evenodd" clip-rule="evenodd" d="M205 59.0049C208.314 59.0049 211 56.3186 211 53.0049C211 49.6912 208.314 47.0049 205 47.0049C201.686 47.0049 199 49.6912 199 53.0049C199 56.3186 201.686 59.0049 205 59.0049Z" fill="#C5CFD6"/>
<path d="M195 73.0049C195 71.9003 195.889 71.0049 196.985 71.0049H258.015C259.111 71.0049 260 71.9003 260 73.0049V90.0049C260 91.1095 259.111 92.0049 258.015 92.0049H196.985C195.889 92.0049 195 91.1095 195 90.0049V73.0049Z" fill="white"/>
<path d="M214 78.4335C214 77.6445 214.681 77.0049 215.521 77.0049H249.479C250.319 77.0049 251 77.6445 251 78.4335V78.5763C251 79.3653 250.319 80.0049 249.479 80.0049H215.521C214.681 80.0049 214 79.3653 214 78.5763V78.4335Z" fill="#DDE3E9"/>
<path d="M214 83.4335C214 82.6445 214.685 82.0049 215.531 82.0049H237.469C238.315 82.0049 239 82.6445 239 83.4335V83.5763C239 84.3653 238.315 85.0049 237.469 85.0049H215.531C214.685 85.0049 214 84.3653 214 83.5763V83.4335Z" fill="#DDE3E9"/>
<path fill-rule="evenodd" clip-rule="evenodd" d="M205 87.0049C208.314 87.0049 211 84.3186 211 81.0049C211 77.6912 208.314 75.0049 205 75.0049C201.686 75.0049 199 77.6912 199 81.0049C199 84.3186 201.686 87.0049 205 87.0049Z" fill="#C5CFD6"/>
<path d="M195 98.0049C195 96.9003 195.889 96.0049 196.985 96.0049H258.015C259.111 96.0049 260 96.9003 260 98.0049V115.005C260 116.109 259.111 117.005 258.015 117.005H196.985C195.889 117.005 195 116.109 195 115.005V98.0049Z" fill="white"/>
<path d="M214 103.433C214 102.644 214.681 102.005 215.521 102.005H249.479C250.319 102.005 251 102.644 251 103.433V103.576C251 104.365 250.319 105.005 249.479 105.005H215.521C214.681 105.005 214 104.365 214 103.576V103.433Z" fill="#DDE3E9"/>
<path d="M214 108.433C214 107.644 214.685 107.005 215.531 107.005H237.469C238.315 107.005 239 107.644 239 108.433V108.576C239 109.365 238.315 110.005 237.469 110.005H215.531C214.685 110.005 214 109.365 214 108.576V108.433Z" fill="#DDE3E9"/>
<path fill-rule="evenodd" clip-rule="evenodd" d="M205 112.005C208.314 112.005 211 109.319 211 106.005C211 102.691 208.314 100.005 205 100.005C201.686 100.005 199 102.691 199 106.005C199 109.319 201.686 112.005 205 112.005Z" fill="#AFB9C5"/>
<path d="M195 123.005C195 121.9 195.889 121.005 196.985 121.005H258.015C259.111 121.005 260 121.9 260 123.005V140.005C260 141.109 259.111 142.005 258.015 142.005H196.985C195.889 142.005 195 141.109 195 140.005V123.005Z" fill="white"/>
<path d="M214 128.433C214 127.644 214.681 127.004 215.521 127.004H249.479C250.319 127.004 251 127.644 251 128.433V128.576C251 129.365 250.319 130.004 249.479 130.004H215.521C214.681 130.004 214 129.365 214 128.576V128.433Z" fill="#DDE3E9"/>
<path d="M214 133.433C214 132.644 214.685 132.004 215.531 132.004H237.469C238.315 132.004 239 132.644 239 133.433V133.576C239 134.365 238.315 135.004 237.469 135.004H215.531C214.685 135.004 214 134.365 214 133.576V133.433Z" fill="#DDE3E9"/>
<path fill-rule="evenodd" clip-rule="evenodd" d="M205 137.004C208.314 137.004 211 134.318 211 131.004C211 127.691 208.314 125.004 205 125.004C201.686 125.004 199 127.691 199 131.004C199 134.318 201.686 137.004 205 137.004Z" fill="#C5CFD6"/>
<path d="M296 42.0049C296 40.9003 296.889 40.0049 297.985 40.0049H359.015C360.111 40.0049 361 40.9003 361 42.0049V65.0049C361 66.1095 360.111 67.0049 359.015 67.0049H297.985C296.889 67.0049 296 66.1095 296 65.0049V42.0049Z" fill="white"/>
<path d="M315 49.4864C315 48.6682 315.681 48.0049 316.521 48.0049H350.479C351.319 48.0049 352 48.6682 352 49.4864V50.5234C352 51.3416 351.319 52.0049 350.479 52.0049H316.521C315.681 52.0049 315 51.3416 315 50.5234V49.4864Z" fill="#DDE3E9"/>
<path d="M315 56.4864C315 55.6682 315.685 55.0049 316.531 55.0049H338.469C339.315 55.0049 340 55.6682 340 56.4864V57.5234C340 58.3416 339.315 59.0049 338.469 59.0049H316.531C315.685 59.0049 315 58.3416 315 57.5234V56.4864Z" fill="#DDE3E9"/>
<path fill-rule="evenodd" clip-rule="evenodd" d="M306 59.0049C309.314 59.0049 312 56.3186 312 53.0049C312 49.6912 309.314 47.0049 306 47.0049C302.686 47.0049 300 49.6912 300 53.0049C300 56.3186 302.686 59.0049 306 59.0049Z" fill="#C5CFD6"/>
<path d="M296 73.0049C296 71.9003 296.889 71.0049 297.985 71.0049H359.015C360.111 71.0049 361 71.9003 361 73.0049V90.0049C361 91.1095 360.111 92.0049 359.015 92.0049H297.985C296.889 92.0049 296 91.1095 296 90.0049V73.0049Z" fill="white"/>
<path d="M315 78.4335C315 77.6445 315.681 77.0049 316.521 77.0049H350.479C351.319 77.0049 352 77.6445 352 78.4335V78.5763C352 79.3653 351.319 80.0049 350.479 80.0049H316.521C315.681 80.0049 315 79.3653 315 78.5763V78.4335Z" fill="#DDE3E9"/>
<path d="M315 83.4335C315 82.6445 315.685 82.0049 316.531 82.0049H338.469C339.315 82.0049 340 82.6445 340 83.4335V83.5763C340 84.3653 339.315 85.0049 338.469 85.0049H316.531C315.685 85.0049 315 84.3653 315 83.5763V83.4335Z" fill="#DDE3E9"/>
<path fill-rule="evenodd" clip-rule="evenodd" d="M306 87.0049C309.314 87.0049 312 84.3186 312 81.0049C312 77.6912 309.314 75.0049 306 75.0049C302.686 75.0049 300 77.6912 300 81.0049C300 84.3186 302.686 87.0049 306 87.0049Z" fill="#C5CFD6"/>
<path d="M296 98.0049C296 96.9003 296.889 96.0049 297.985 96.0049H359.015C360.111 96.0049 361 96.9003 361 98.0049V115.005C361 116.109 360.111 117.005 359.015 117.005H297.985C296.889 117.005 296 116.109 296 115.005V98.0049Z" fill="white"/>
<path d="M315 103.433C315 102.644 315.681 102.005 316.521 102.005H350.479C351.319 102.005 352 102.644 352 103.433V103.576C352 104.365 351.319 105.005 350.479 105.005H316.521C315.681 105.005 315 104.365 315 103.576V103.433Z" fill="#DDE3E9"/>
<path d="M315 108.433C315 107.644 315.685 107.005 316.531 107.005H338.469C339.315 107.005 340 107.644 340 108.433V108.576C340 109.365 339.315 110.005 338.469 110.005H316.531C315.685 110.005 315 109.365 315 108.576V108.433Z" fill="#DDE3E9"/>
<path fill-rule="evenodd" clip-rule="evenodd" d="M306 112.005C309.314 112.005 312 109.319 312 106.005C312 102.691 309.314 100.005 306 100.005C302.686 100.005 300 102.691 300 106.005C300 109.319 302.686 112.005 306 112.005Z" fill="#AFB9C5"/>
<path d="M296 123.005C296 121.9 296.889 121.005 297.985 121.005H359.015C360.111 121.005 361 121.9 361 123.005V140.005C361 141.109 360.111 142.005 359.015 142.005H297.985C296.889 142.005 296 141.109 296 140.005V123.005Z" fill="white"/>
<path d="M315 128.433C315 127.644 315.681 127.004 316.521 127.004H350.479C351.319 127.004 352 127.644 352 128.433V128.576C352 129.365 351.319 130.004 350.479 130.004H316.521C315.681 130.004 315 129.365 315 128.576V128.433Z" fill="#DDE3E9"/>
<path d="M315 133.433C315 132.644 315.685 132.004 316.531 132.004H338.469C339.315 132.004 340 132.644 340 133.433V133.576C340 134.365 339.315 135.004 338.469 135.004H316.531C315.685 135.004 315 134.365 315 133.576V133.433Z" fill="#DDE3E9"/>
<path fill-rule="evenodd" clip-rule="evenodd" d="M306 137.004C309.314 137.004 312 134.318 312 131.004C312 127.691 309.314 125.004 306 125.004C302.686 125.004 300 127.691 300 131.004C300 134.318 302.686 137.004 306 137.004Z" fill="#C5CFD6"/>
<g clip-path="url(#clip0)">
<path d="M173.2 113.3L181.2 105.3C181.5 105.1 181.6 104.7 181.6 104.4C181.6 104 181.5 103.7 181.2 103.4L173.2 95.4C173 95.2 172.6 95 172.3 95C172 95 171.6 95.1 171.4 95.4C171.1 95.7 171 96 171 96.4C171 96.8 171.1 97.1 171.4 97.3L178.5 104.4L171.4 111.5C171.1 111.8 171 112.1 171 112.5C171 112.9 171.1 113.2 171.4 113.4C171.6 113.7 172 113.8 172.3 113.8C172.6 113.8 173 113.6 173.2 113.3Z" fill="#AFB9C5"/>
<path d="M179.4 87.3L171.4 79.3C171.1 79.1 171 78.7 171 78.4C171 78 171.1 77.7 171.4 77.4L179.4 69.4C179.6 69.2 180 69 180.3 69C180.6 69 181 69.1 181.2 69.4C181.5 69.7 181.6 70 181.6 70.4C181.6 70.8 181.5 71.1 181.2 71.3L174.1 78.4L181.2 85.5C181.5 85.8 181.6 86.1 181.6 86.5C181.6 86.9 181.5 87.2 181.2 87.4C181 87.7 180.6 87.8 180.3 87.8C180 87.8 179.6 87.6 179.4 87.3Z" fill="#AFB9C5"/>
</g>
<g clip-path="url(#clip1)">
<path d="M275.2 115.3L283.2 107.3C283.5 107.1 283.6 106.7 283.6 106.4C283.6 106 283.5 105.7 283.2 105.4L275.2 97.4C275 97.2 274.6 97 274.3 97C274 97 273.6 97.1 273.4 97.4C273.1 97.7 273 98 273 98.4C273 98.8 273.1 99.1 273.4 99.3L280.5 106.4L273.4 113.5C273.1 113.8 273 114.1 273 114.5C273 114.9 273.1 115.2 273.4 115.4C273.6 115.7 274 115.8 274.3 115.8C274.6 115.8 275 115.6 275.2 115.3Z" fill="#AFB9C5"/>
<path d="M281.4 89.3L273.4 81.3C273.1 81.1 273 80.7 273 80.4C273 80 273.1 79.7 273.4 79.4L281.4 71.4C281.6 71.2 282 71 282.3 71C282.6 71 283 71.1 283.2 71.4C283.5 71.7 283.6 72 283.6 72.4C283.6 72.8 283.5 73.1 283.2 73.3L276.1 80.4L283.2 87.5C283.5 87.8 283.6 88.1 283.6 88.5C283.6 88.9 283.5 89.2 283.2 89.4C283 89.7 282.6 89.8 282.3 89.8C282 89.8 281.6 89.6 281.4 89.3Z" fill="#AFB9C5"/>
</g>
<defs>
<clipPath id="clip0">
<rect x="171" y="69" width="10.6" height="44.8" fill="white"/>
</clipPath>
<clipPath id="clip1">
<rect x="273" y="71" width="10.6" height="44.8" fill="white"/>
</clipPath>
</defs>
</svg>
