<svg width="397" height="336" viewBox="0 0 397 336" fill="none" xmlns="http://www.w3.org/2000/svg">
<path d="M2.65188 253.583C0.511806 227.371 -1.44217 199.764 9.72343 175.876C15.9576 162.862 24.0526 150.872 33.6364 140.182C42.1967 130.701 55.7816 128.284 66.7611 122.521C84.533 113.226 96.443 95.7512 106.213 78.2762C115.983 60.8013 124.636 42.2109 138.779 27.9893C154.504 12.0945 176.184 2.79934 198.329 0.568495C220.474 -1.66235 243.178 2.79934 263.648 11.7227C273.046 15.8126 282.164 20.9249 289.515 28.0822C304.961 43.0475 310.916 64.8912 318.918 84.7829C323.291 95.7512 328.501 106.348 334.456 116.479C339.76 125.496 347.576 133.861 352.042 143.25C356.509 152.638 359.3 161.747 364.976 170.67C370.373 179.129 376.421 187.123 381.259 195.953C392.332 216.217 396.891 239.362 394.286 262.228C392.89 273.94 389.54 285.652 382.283 294.947C374.374 305.079 362.557 311.399 350.74 316.419C302.076 337.147 248.109 341.516 196.654 329.06C178.324 324.506 160.366 317.906 141.571 316.698C122.589 315.489 103.794 319.765 84.9052 321.996C66.575 324.041 39.5914 324.413 23.4013 313.909C6.18766 302.383 4.23368 271.895 2.65188 253.583Z" fill="#D3F0D9"/>
<path d="M166.661 228.23C167.235 236.806 165.704 245.568 166.565 254.144C166.852 256.94 167.427 259.83 166.47 262.533C165.608 264.864 163.886 266.728 161.589 267.753C156.325 270.363 149.529 268.685 145.414 264.491C141.298 260.296 139.671 254.33 140.054 248.644C140.437 242.958 142.447 237.458 144.935 232.238C147.137 227.578 150.869 218.349 156.325 216.392C163.216 213.968 166.374 223.383 166.661 228.23Z" fill="#2E3374" stroke="#2E3374" stroke-width="1.63" stroke-miterlimit="10"/>
<path d="M157.581 213.275C155.426 209.474 149.522 207.806 145.211 209.938C143.899 210.772 142.587 211.421 141.275 212.07C139.682 212.626 137.901 212.441 136.214 212.626C130.779 213.182 125.999 217.354 125.156 222.268C124.687 225.049 125.437 227.83 124.968 230.611C123.938 237.193 116.628 242.106 115.972 248.688C115.784 250.821 116.253 252.953 116.44 255.085C116.815 259.071 116.065 263.15 114.379 266.766C113.16 269.362 111.473 271.865 111.098 274.646C110.255 280.208 114.941 285.585 120.845 287.254C126.749 288.922 133.403 287.624 139.026 285.029C145.211 282.155 150.646 277.427 152.521 271.401C155.426 262.038 149.053 252.119 151.958 242.755C152.708 240.623 153.739 238.491 154.77 236.359C157.394 230.24 161.049 219.486 157.581 213.275Z" fill="#2E3374" stroke="#2E3374" stroke-width="1.63" stroke-miterlimit="10"/>
<path d="M390 296H7C3.68629 296 1 298.686 1 302C1 305.314 3.6863 308 7.00001 308H390C393.314 308 396 305.314 396 302C396 298.686 393.314 296 390 296Z" fill="#2E3374" stroke="#2E3374" stroke-width="1.63" stroke-miterlimit="10"/>
<path d="M167.024 272.376L170 297.283C148.33 298.398 126.659 298.212 105.082 296.725C104.617 292.264 106.198 287.896 107.965 283.714C112.244 273.398 118.289 262.431 128.892 258.992C136.983 256.39 144.145 259.643 152.143 260.387C156.142 260.758 160.42 259.457 163.583 262.617C166.001 265.033 166.652 269.123 167.024 272.376Z" fill="#68E1FD"/>
<path d="M167.024 272.376L170 297.283C148.33 298.398 126.659 298.212 105.082 296.725C104.617 292.264 106.198 287.896 107.965 283.714C112.244 273.398 118.289 262.431 128.892 258.992C136.983 256.39 144.145 259.643 152.143 260.387C156.142 260.758 160.42 259.457 163.583 262.617C166.001 265.033 166.652 269.123 167.024 272.376Z" fill="#D5401A" stroke="#2E3374" stroke-width="1.5" stroke-miterlimit="10"/>
<path d="M72.3276 258.07C74.8642 258.627 77.4947 259.371 79.5616 261.043C81.1587 262.437 82.474 264.016 83.5074 265.874C88.4867 274.144 91.7749 283.435 92.9022 293.098C93.0901 293.841 92.9962 294.677 92.7144 295.42C91.9628 296.814 90.0838 297 88.4867 297L14.3614 296.164L6 296.721C7.87897 288.452 13.328 261.136 25.1655 257.512C29.8629 256.305 34.6543 255.561 39.5396 255.097C44.6128 254.911 49.592 255.004 54.6653 255.283C60.4901 255.747 66.5028 256.676 72.3276 258.07Z" fill="#68E1FD"/>
<path d="M72.3498 258.07C74.8837 258.627 77.5114 259.371 79.5761 261.043C81.1715 262.437 82.4853 264.016 83.5176 265.874C88.4915 274.144 91.7762 283.435 92.9023 293.098C93.09 293.841 92.9962 294.677 92.7147 295.42C91.9639 296.814 90.0869 297 88.4915 297L14.9155 296.907L6 296.721C7.87694 288.452 13.3201 261.136 25.1448 257.512C29.8371 256.305 34.6233 255.561 39.5034 255.097C44.5711 254.911 49.545 255.004 54.6128 255.283C60.5251 255.747 66.5313 256.676 72.3498 258.07Z" fill="white" stroke="#2E3374" stroke-width="1.5" stroke-miterlimit="10"/>
<path d="M60.9581 254.972C60.9581 256.175 60.8622 257.377 60.4788 258.579C59.4243 261.632 55.7816 263.389 52.5223 262.927C49.263 262.279 46.3872 260.244 44.9493 257.285C43.5114 254.417 42.8404 251.18 43.0321 248.035C42.9362 246.555 43.3197 245.168 44.0866 243.873C45.141 242.671 46.7707 242.023 48.4003 242.023C51.2761 241.838 54.1519 242.763 56.3567 244.613C57.4112 245.538 59.5202 246.278 60.1912 247.295C61.0539 248.683 61.0539 253.307 60.9581 254.972Z" fill="white" stroke="#2E3374" stroke-width="1.5" stroke-miterlimit="10"/>
<path d="M79.5521 256L73.7758 259.994C73.3099 260.273 72.9373 260.645 72.5646 261.016C72.0988 261.759 71.7261 262.595 71.6329 263.431C69.7696 272.256 68.9311 281.359 69.0242 290.37C68.9311 291.299 69.1174 292.228 69.3969 293.157C69.9559 294.178 70.7944 295.014 71.9124 295.479C74.0553 296.501 76.4776 296.594 78.9 296.687L88.3098 296.965C89.2415 297.058 90.1732 296.965 91.1049 296.687C93.2477 295.85 94.0862 293.157 93.9931 290.834C93.7136 288.419 92.9682 286.004 91.8502 283.867L85.4217 268.726C83.8378 265.01 82.5335 258.787 79.5521 256Z" fill="white" stroke="#2E3374" stroke-width="1.5" stroke-miterlimit="10"/>
<path d="M140.308 290.496C142.158 290.496 144.008 290.682 145.858 291.146C147.707 291.609 149.187 293.001 149.835 294.763C150.575 297.268 148.725 299.865 146.413 300.978C144.1 302.091 141.418 301.998 138.828 301.998L118.111 301.534C115.706 301.627 113.301 301.349 110.989 300.7C108.677 300.05 106.642 298.473 105.532 296.247C104.052 292.908 105.809 288.734 108.954 286.693C113.671 283.725 118.666 285.209 123.383 286.972C128.747 289.105 134.481 290.218 140.308 290.496Z" fill="#D5401A" stroke="#2E3374" stroke-width="1.5" stroke-miterlimit="10"/>
<path d="M302 296.841C306.168 286.237 314.69 271.261 318.859 260.656C320.804 255.726 322.934 250.424 327.473 247.541C330.53 245.587 334.143 245.122 337.755 244.564L355.448 242.145C360.172 241.494 364.062 243.076 367.953 245.959C371.843 248.843 374.715 252.843 377.216 256.936C383.051 266.517 383.422 276.935 385.645 287.911C386.108 290.33 386.386 293.213 384.719 294.981C383.422 296.283 381.477 296.469 379.717 296.562C353.965 297.957 327.751 295.446 302 296.841Z" fill="#15ADC2" stroke="#2E3374" stroke-width="1.5" stroke-miterlimit="10"/>
<path d="M349.763 247.849C347.881 250.448 344.565 251.562 341.518 250.727C341.07 250.634 340.622 250.355 340.263 250.077C339.905 249.706 339.636 249.241 339.456 248.777C338.112 245.528 338.022 241.908 338.022 238.38C337.933 236.987 338.112 235.502 338.56 234.11C340.263 230.303 348.15 226.497 350.659 231.139C352.81 235.038 352.273 244.321 349.763 247.849Z" fill="white" stroke="#2E3374" stroke-width="1.5" stroke-miterlimit="10"/>
<path d="M85.5854 191.536C83.9904 190.635 82.0202 190.906 80.8006 192.077C79.5809 193.339 79.018 194.961 79.018 196.674C78.9242 197.665 79.2056 198.657 79.6747 199.558C80.1438 200.459 81.1758 201 82.2079 201C82.9584 200.91 83.709 200.549 84.2719 200.009C86.7112 197.575 86.5236 193.7 83.9904 191.356L83.8966 191.266" fill="white"/>
<path d="M100.723 179.927C99.5653 181.677 99.7582 184.399 101.591 185.565C102.459 186.052 103.52 186.246 104.484 186.149C105.642 186.149 106.799 185.954 107.957 185.565C108.343 185.371 108.728 185.371 109.018 185.371C109.307 185.468 109.597 185.76 109.886 185.954C111.719 187.51 114.419 187.315 115.963 185.468C117.506 183.621 117.313 180.899 115.48 179.344C115.287 179.149 114.902 178.955 114.998 178.566C114.998 178.371 115.094 178.274 115.191 178.177C116.348 176.427 115.866 174.094 114.226 172.83C110.754 170.4 110.079 173.899 108.536 175.747C106.606 178.274 102.748 176.913 100.723 179.927Z" fill="white"/>
<path d="M141.471 162.984C142.968 162.894 144.564 162.533 145.362 161.359C145.761 160.727 145.961 160.005 145.961 159.374C146.061 158.2 145.961 157.117 145.761 155.944C145.163 152.153 139.276 150.348 137.081 153.958C134.886 157.568 135.883 163.345 141.471 162.984Z" fill="white"/>
<path d="M175.763 178.284C175.35 178 174.936 178.474 174.73 178.853C173.593 181.221 173.799 183.968 175.246 186.147C175.35 186.432 175.66 186.621 175.867 186.811C176.177 186.905 176.384 187 176.694 187C178.244 186.905 179.588 185.863 179.898 184.442C180.208 183.021 179.795 181.6 178.864 180.463C178.038 179.326 176.797 178.474 175.35 178" fill="white"/>
<path d="M249.976 189.946C251.091 189.946 251.926 188.958 251.926 187.871C252.669 183.522 247.655 176.01 243.384 180.26C239.112 184.51 245.705 190.638 249.976 189.946Z" fill="white"/>
<path d="M291.445 155.747C292.489 154.032 292.015 151.866 290.401 150.603C289.358 149.881 288.029 149.791 286.891 150.422C285.752 151.235 285.657 152.859 285.657 154.213C284.518 153.671 283.19 154.754 283 155.837C283 157.01 283.569 158.184 284.613 158.815C285.657 159.628 286.985 160.079 288.314 159.989C289.642 159.808 290.781 158.906 291.066 157.642C291.161 156.83 290.781 155.928 290.971 155.025" fill="white"/>
<path d="M306.96 170.931C305.863 170.372 304.675 170.279 303.578 170.559C303.121 170.652 302.755 170.838 302.389 171.21C302.115 171.675 301.932 172.234 302.024 172.792C302.024 173.63 302.115 174.468 302.298 175.213C302.389 175.771 302.664 176.237 303.029 176.609C303.852 177.354 305.132 176.888 306.137 176.423C306.96 176.05 307.783 175.585 307.966 174.747C308.057 174.189 307.966 173.63 307.691 173.165C307.234 172.048 306.686 171.024 305.955 170" fill="white"/>
<path d="M330.55 173.913C329.702 175.252 329.872 176.973 330.805 178.217C331.229 178.791 331.824 179.078 332.502 178.982C333.266 178.695 333.86 177.93 333.945 177.069C334.285 174.774 333.012 172.574 331.06 172" fill="white"/>
<path d="M183.076 31.0591C179.355 33.8468 176.379 37.4708 174.518 41.7452C174.146 42.6745 173.588 43.6037 172.844 44.3471C171.169 45.8338 168.658 45.3692 166.425 45.0905C151.82 43.232 138.518 53.4535 136.657 68.0425C136.378 70.1797 136.378 72.4099 136.657 74.5471C128.843 74.8259 122.797 82.2597 120.936 89.8794C118.797 98.1496 120.378 106.884 125.122 113.854C130.053 120.823 137.96 124.911 146.518 124.911C145.96 130.859 148.658 136.527 151.727 141.638C153.774 145.076 156.006 148.514 159.169 151.023C162.332 153.532 166.425 155.111 170.332 154.461C170.89 163.289 179.076 170.444 187.914 171.745C196.751 173.046 205.681 169.236 212.379 163.475C216.007 167.006 221.681 167.563 226.612 166.169C231.542 164.775 235.635 161.616 239.356 158.271C246.426 160.315 253.775 156.784 260.286 153.439C264.472 151.302 268.751 148.979 271.263 144.983C273.775 140.987 273.961 136.155 272.937 131.602C271.914 127.049 269.682 122.96 267.542 118.964C271.263 116.734 275.17 114.504 277.682 110.88C280.193 107.256 281.031 102.145 278.333 98.7071C277.682 97.8708 276.751 97.0345 276.565 95.9194C276.286 94.7114 276.938 93.5034 277.496 92.2954C280.1 86.72 279.263 80.0296 276.658 74.4542C274.054 68.8788 269.682 64.3256 265.123 60.2369C261.682 57.1705 258.054 54.1969 253.775 52.5243C249.495 50.8517 244.472 50.48 240.379 52.5243C239.263 48.9932 238.054 45.2763 235.449 42.4886C232.844 39.7009 228.472 38.3071 225.216 40.1655C226.332 39.5151 218.798 31.9883 217.96 31.4308C214.611 29.1077 210.797 27.6209 206.797 27.1563C200.007 26.6917 188.844 27.0634 183.076 31.0591Z" fill="white"/>
<path d="M233.374 258.701C228.838 263.62 226.246 269.932 223.654 276.058L216.434 293.693C215.971 294.529 215.879 295.457 216.156 296.385C216.712 297.128 217.545 297.499 218.47 297.499C222.173 298.056 225.876 298.427 229.671 298.613C248.556 299.819 267.348 300.191 286.232 299.912C288.454 299.912 290.86 299.819 292.897 298.798C298.081 296.107 298.544 288.867 297.618 283.112C296.507 276.429 294.656 269.839 291.971 263.62C291.046 261.114 289.657 258.887 287.898 256.845C283.547 252.296 276.697 251.554 270.495 251.368C258.553 251.09 242.261 249.048 233.374 258.701Z" fill="white" stroke="#2E3374" stroke-width="1.5" stroke-miterlimit="10"/>
<path d="M219.411 255.163C219.223 254.424 218.751 253.869 218.185 253.406C217.713 253.129 217.147 253.036 216.487 253.036C214.789 252.944 213.091 253.036 211.487 253.221C210.449 253.221 209.412 253.591 208.562 254.331C207.996 255.071 207.619 255.903 207.525 256.828C206.204 264.042 207.713 271.348 208.374 278.561C208.751 283.555 208.846 288.734 211.581 292.989C214.034 296.688 218.374 299 222.902 299C224.789 299 226.958 298.353 227.713 296.595C227.996 295.763 228.091 294.838 227.902 293.913C226.958 280.781 225.072 267.094 219.411 255.163Z" fill="white" stroke="#2E3374" stroke-width="1.5" stroke-miterlimit="10"/>
<path d="M218.331 248.695C219.153 246.835 220.339 245.068 221.435 243.207C221.709 242.742 221.891 242.277 221.983 241.719C222.074 241.161 221.8 240.603 221.252 240.417C220.248 240.045 219.427 241.44 218.331 241.719C217.236 241.998 216.505 241.068 215.775 240.324C212.762 237.254 209.111 234.743 205.185 233.069C204.82 232.789 201.625 233.441 201.259 233.627C200.712 233.906 199.251 235.58 199.068 236.231C198.977 236.51 198.977 237.626 199.068 238.464C199.342 240.417 200.255 242.184 201.351 243.673C203.724 247.021 206.372 250.184 208.289 253.904C208.745 255.114 209.476 256.137 210.206 257.16C211.302 258.369 215.501 260.137 216.596 257.997C217.144 256.974 216.688 254.742 216.87 253.625C217.144 251.858 217.601 250.184 218.331 248.695Z" fill="white" stroke="#2E3374" stroke-width="1.5" stroke-miterlimit="10"/>
<path d="M276.827 276C277.202 277.734 277.015 281.933 275.794 283.393C274.574 284.853 272.414 285.127 270.443 285.218C261.054 285.675 251.384 284.123 242.277 286.222C240.963 286.405 239.743 287.044 238.804 287.956C237.865 289.234 237.959 290.877 238.147 292.429L238.898 299L229.697 297.357C228.758 297.357 227.913 296.536 228.007 295.532V295.44" fill="white"/>
<path d="M276.827 276C277.202 277.734 277.015 281.933 275.794 283.393C274.574 284.853 272.414 285.127 270.443 285.218C261.054 285.675 251.384 284.123 242.277 286.222C240.963 286.405 239.743 287.044 238.804 287.956C237.865 289.234 237.959 290.877 238.147 292.429L238.898 299L229.697 297.357C228.758 297.357 227.913 296.536 228.007 295.532V295.44" stroke="#2E3374" stroke-width="1.5" stroke-miterlimit="10"/>
<path d="M362.3 275.499C361.368 276.993 359.226 277.086 357.457 277.086C349.633 277.086 341.903 278.02 334.266 279.608C331.472 280.075 328.771 281.009 326.257 282.409C323.742 283.81 321.879 286.145 321.134 288.946C320.575 291.748 321.786 295.016 324.301 296.23C325.884 296.884 327.56 297.071 329.33 296.977L380.088 296.417C381.206 296.511 382.417 296.324 383.534 295.95C386.049 294.83 387.166 291.654 386.98 288.946C385.211 255.981 368.726 246.549 366.025 247.016C363.79 247.39 363.417 264.386 362.858 266.814C362.02 269.522 364.069 272.791 362.3 275.499Z" fill="#15ADC2" stroke="#2E3374" stroke-width="1.5" stroke-miterlimit="10"/>
<path d="M318.769 288.161C316.727 287.866 314.591 287.964 312.641 288.556C308.556 289.541 304.842 291.709 301.871 294.862C301.5 295.157 301.221 295.551 301.036 296.044C300.85 297.128 301.407 298.212 302.335 298.606C303.264 299 304.378 299.099 305.306 298.901L314.777 298.212C316.17 298.212 317.562 297.916 318.862 297.423C320.44 296.635 321.74 295.256 323.504 295.157C323.969 295.157 324.526 295.157 324.99 295.059C326.475 294.468 326.104 291.906 325.268 290.92C324.061 289.344 320.626 288.457 318.769 288.161Z" fill="white" stroke="#2E3374" stroke-width="1.5" stroke-miterlimit="10"/>
<path d="M69 229.275C69 236.594 66.4091 244.746 59.8393 247.803C55.1201 250.026 49.2906 249.007 44.9416 245.95C40.6851 242.986 37.8166 238.261 35.9659 233.351C33.9302 227.701 33.2825 221.401 34.9481 215.565C36.6136 209.729 40.9627 204.634 46.6997 202.781C62.8003 197.872 69 217.233 69 229.275Z" fill="white" stroke="#2E3374" stroke-width="1.5" stroke-miterlimit="10"/>
<path d="M44.9406 213.798C45.4976 213.613 46.0545 213.427 46.5187 213.149C47.447 212.593 47.9111 211.481 48.7465 210.74C49.6748 210.091 50.7888 209.72 51.9027 209.628C54.8732 208.979 57.5652 207.682 60.0715 206.013C62.4851 204.345 64.7129 201.472 63.7846 198.785C63.4133 197.765 62.7635 196.931 61.9281 196.283C59.4217 194.244 55.9871 193.502 52.831 194.337C48.5609 195.541 45.5904 199.341 41.9701 201.936C37.7 204.994 32.0375 206.94 30.0882 211.759C29.0671 214.354 29.4384 217.412 28.2316 220.007C27.6746 221.212 26.6535 222.509 27.1177 223.807C27.489 225.011 28.7886 225.753 28.8814 226.958C28.8814 227.514 28.6957 228.07 28.4173 228.626C27.3962 231.221 27.9531 234.371 29.2527 236.874C30.738 239.376 32.5017 241.6 34.6367 243.453C37.0502 245.863 40.2064 248.55 43.5482 247.902C43.7338 247.902 43.9195 247.809 44.1052 247.716C44.755 247.16 44.1052 246.141 43.4554 245.492C41.1347 243.268 39.4638 240.488 38.4427 237.43C38.257 237.059 38.257 236.688 38.3498 236.318C38.6283 235.762 39.2781 235.484 39.9279 235.669C40.4849 235.854 41.0418 236.225 41.506 236.688C42.1558 236.04 42.3414 235.02 41.7845 234.186C40.6705 232.147 38.9068 230.943 37.9785 228.811C37.1431 227.143 36.8646 225.289 37.1431 223.436C37.7929 219.08 40.7634 215.095 44.9406 213.798Z" fill="#F8B243" stroke="#2E3374" stroke-width="1.5" stroke-miterlimit="10"/>
<path d="M70.2861 240.027C67.8152 239.845 65.4358 240.575 63.514 242.125C62.6903 242.763 61.7751 243.675 62.0497 244.678C62.5073 245.498 63.3309 246.045 64.3376 245.954C65.2528 245.863 66.1679 245.954 67.0831 246.137C65.4358 248.325 64.3376 250.878 63.88 253.614C63.514 256.258 63.88 259.358 66.0764 260.908C67.6322 261.82 69.554 262.185 71.3843 261.911C72.8486 261.82 74.3128 261.455 75.5941 260.817C78.4311 259.176 80.1699 256.076 79.9868 252.793C79.8953 249.693 78.3395 247.048 76.2347 244.769C74.4959 242.854 73.3062 240.392 70.2861 240.027Z" fill="white" stroke="#2E3374" stroke-width="1.5" stroke-miterlimit="10"/>
<path d="M246.436 226.73C245.324 228.785 244.583 230.933 244.12 233.175C243.564 237.285 244.954 241.488 248.012 244.291C250.143 246.346 253.108 247.84 254.034 250.736C254.868 253.351 253.756 256.34 254.868 258.862C255.98 261.384 258.945 262.412 261.539 261.851C264.134 261.197 266.358 259.516 267.747 257.181C269.137 254.846 270.249 252.417 271.083 249.895C272.473 246.626 274.048 243.45 275.809 240.367C277.198 238.312 278.31 236.071 279.422 233.829C280.441 231.12 280.997 228.224 280.997 225.329C281.09 218.603 278.681 211.598 273.4 207.675C268.396 204.032 261.539 204.125 256.629 207.862C254.127 209.73 253.293 212.252 251.996 214.961C250.143 218.977 248.29 222.807 246.436 226.73Z" fill="white" stroke="#2E3374" stroke-width="1.5" stroke-miterlimit="10"/>
<path d="M257.583 193.406C256.632 192.575 255.301 191.558 254.256 192.205C253.875 192.482 253.59 192.852 253.4 193.314C252.735 194.977 252.64 196.733 253.115 198.488C252.069 198.026 250.834 197.842 249.693 198.211C247.982 198.95 247.697 201.261 248.267 203.016C248.837 204.772 249.883 206.343 249.883 208.191C249.883 209.115 249.598 210.039 249.598 211.055C249.503 211.979 249.978 212.996 250.834 213.458C251.974 214.012 253.21 213.088 254.351 212.349C259.959 208.653 268.61 210.408 272.317 215.953C276.024 221.497 274.599 228.704 273.173 235.172C273.553 235.727 274.218 234.895 274.694 234.341C275.644 233.324 277.736 234.156 278.021 235.542C278.116 237.02 277.45 238.407 276.215 239.146C275.074 239.977 273.648 240.439 272.412 241.179C272.032 241.363 271.842 241.641 271.652 242.01C271.652 242.287 271.652 242.657 271.842 242.934C272.222 243.766 272.697 244.69 273.173 245.522C273.458 246.261 274.123 246.815 274.884 247C275.454 247 276.024 246.908 276.5 246.63C280.397 244.782 283.059 241.179 285.245 237.482C287.432 233.786 289.143 229.536 287.051 226.025C286.671 225.285 286.101 224.731 285.721 223.992C285.15 222.606 284.77 221.22 284.675 219.741C283.629 212.996 280.207 206.897 275.074 202.277C272.697 200.059 270.036 198.211 266.804 197.657C262.906 196.825 260.34 196.086 257.583 193.406Z" fill="#D5401A" stroke="#2E3374" stroke-width="1.5" stroke-miterlimit="10"/>
<path d="M360.983 226.004C360.61 224.152 358.84 223.689 357.349 224.244C357.349 224.152 357.442 224.059 357.442 223.967C359.119 220.632 360.144 217.112 360.61 213.499C360.89 209.794 359.958 205.904 357.442 203.218C355.858 201.643 353.808 200.439 351.664 199.79C336.196 194.696 327.996 215.445 327.064 227.394C326.785 230.821 327.344 234.804 330.232 236.749C332.282 238.139 334.985 238.046 337.501 237.954C341.042 237.861 344.583 237.676 347.751 236.101C350.453 234.804 352.596 232.581 354.274 230.08C354.367 230.821 354.833 231.377 355.485 231.747C356.044 231.933 356.696 231.84 357.162 231.562C358.374 231.099 359.305 230.265 360.051 229.246C360.796 228.32 361.076 227.116 360.983 226.004Z" fill="white" stroke="#2E3374" stroke-width="1.5" stroke-miterlimit="10"/>
<path d="M326.662 220.634C327.599 220.352 328.443 220.164 329.474 220.07C330.13 219.977 330.692 219.977 331.349 220.07C332.098 220.258 332.848 220.54 333.598 220.916C335.473 221.761 337.535 222.794 338.378 224.672C338.66 225.329 338.847 225.986 339.222 226.55C340.066 227.582 341.097 228.24 342.315 228.615C343.346 228.991 343.44 230.399 344.284 231.057C345.315 231.808 346.721 231.526 347.939 230.963C349.251 230.306 350.376 229.46 351.22 228.334C351.782 227.489 352.438 226.737 353.282 226.174C354.125 225.611 355.344 225.892 355.906 226.737C356.094 227.395 356 228.146 355.625 228.709C354.219 231.526 352.344 233.968 350.095 236.127C349.345 236.879 348.501 237.536 347.658 238.005C346.252 238.663 344.752 239.038 343.252 239.226C340.253 239.696 337.16 239.883 334.161 239.977C332.38 240.071 330.599 239.883 328.912 239.226C328.443 239.038 327.88 238.757 327.506 238.381C326.474 237.348 325.818 235.94 325.631 234.531C324.412 229.367 325.069 225.329 326.662 220.634Z" fill="#2E3374" stroke="#2E3374" stroke-width="1.63" stroke-miterlimit="10"/>
<path d="M336.975 231.21C337.072 231.793 336.878 232.376 336.588 232.96C336.007 233.932 334.554 234.127 333.489 233.932C332.424 233.738 331.359 233.446 330.391 232.96C330.003 232.765 329.713 232.474 329.422 232.182C329.035 231.599 328.938 230.918 329.035 230.237C329.035 229.265 329.132 228.292 329.229 227.417C329.325 226.737 329.422 226.056 329.713 225.375C330.197 224.403 330.875 223.722 331.94 224.111C332.908 224.5 333.683 225.084 334.457 225.764C335.91 227.223 336.781 229.168 336.975 231.21Z" fill="white" stroke="#2E3374" stroke-width="1.5" stroke-miterlimit="10"/>
<path d="M161.478 258.524C162.222 256.02 163.337 253.702 164.825 251.569L169.751 243.686C169.844 243.407 170.123 243.222 170.402 243.036C170.774 242.944 171.052 243.036 171.331 243.222C173.655 244.613 174.213 247.766 173.934 250.456C173.655 253.145 172.726 255.742 173.005 258.431C173.283 259.915 173.562 261.306 173.655 262.79C173.562 265.016 172.54 267.056 170.774 268.447C168.729 270.21 163.988 272.621 162.222 269.468C160.642 266.778 160.827 261.399 161.478 258.524Z" fill="white" stroke="#2E3374" stroke-width="1.5" stroke-miterlimit="10"/>
<path d="M166.699 266.325C164.388 266.975 161.988 268.182 161.01 270.411C160.565 271.525 160.388 272.732 160.388 273.939C160.032 280.254 159.943 286.568 160.032 292.79C159.943 294.09 160.21 295.39 160.832 296.411C161.721 297.619 163.321 297.897 164.744 297.99C167.499 298.083 170.166 297.526 172.744 296.504C173.544 296.226 174.255 295.669 174.7 294.926C174.967 294.276 175.056 293.626 174.967 292.883C174.611 286.661 173.278 280.347 173.189 274.125C173.1 269.761 172.389 264.653 166.699 266.325Z" fill="#D5401A" stroke="#2E3374" stroke-width="1.5" stroke-miterlimit="10"/>
<path d="M147.801 294.226C147.433 294.226 147.066 294.325 146.79 294.522C146.423 294.916 146.239 295.31 146.239 295.802C145.872 297.575 145.78 299.84 147.066 300.923C147.709 301.415 148.536 301.711 149.271 301.809C151.2 302.203 153.13 302.597 155.151 302.893C155.794 303.09 156.437 302.991 157.08 302.794C157.54 302.499 157.999 302.203 158.367 301.809C159.102 301.415 160.021 301.317 160.847 301.514C162.961 301.711 165.074 302.006 167.187 302.499C167.922 302.696 168.657 302.696 169.392 302.597C170.127 302.499 170.77 301.908 170.954 301.218C171.229 300.135 170.219 299.052 169.3 298.461C162.593 293.931 155.335 293.635 147.801 294.226Z" fill="white" stroke="#2E3374" stroke-width="1.5" stroke-miterlimit="10"/>
<path d="M142.525 264.525C143.986 266.199 148.733 267.687 150.65 266.664C151.929 266.013 152.02 262.479 152.568 261.084C153.024 260.062 153.298 258.946 153.572 257.83C154.029 256.249 154.12 254.668 153.846 252.994C153.572 251.32 152.385 250.018 150.742 249.646C149.281 249.367 140.151 248.344 141.064 249.646C144.533 254.947 139.055 260.712 142.525 264.525Z" fill="white" stroke="#2E3374" stroke-width="1.5" stroke-miterlimit="10"/>
<path d="M162.237 229.755C156.422 209.158 139.339 220.057 134.977 229.109C132.615 233.912 134.886 240.47 138.067 246.104C137.521 245.827 136.794 245.735 136.158 245.919C135.977 245.919 135.704 246.012 135.522 246.104C135.431 246.196 135.341 246.289 135.25 246.474C134.886 247.028 134.704 247.674 134.795 248.413C135.068 249.429 135.977 250.168 136.976 250.353C138.067 250.63 139.248 250.63 140.338 250.261C140.429 250.261 140.429 250.168 140.52 250.168C142.519 253.124 144.518 255.525 145.518 256.634C148.698 260.051 156.603 260.236 161.601 254.048C166.599 247.674 162.237 229.755 162.237 229.755Z" fill="white" stroke="#2E3374" stroke-width="1.5" stroke-miterlimit="10"/>
<path d="M219.63 296.604C219.163 297.24 218.696 298.148 219.256 298.693C219.63 298.966 220.097 299.057 220.564 298.966L237.289 297.967C237.569 297.967 237.85 297.876 238.13 297.785C238.971 297.422 239.064 296.332 238.971 295.423C238.877 294.061 238.784 292.608 238.69 291.245C238.597 289.883 238.877 289.247 237.382 289.065C235.327 288.793 232.617 289.429 230.655 289.974C226.451 291.064 222.526 293.425 219.63 296.604Z" fill="white" stroke="#2E3374" stroke-width="1.5" stroke-miterlimit="10"/>
<path d="M187.453 92.6466C181.799 84.0979 181.045 71.7394 188.018 64.1199C191.316 60.6819 195.651 58.3589 200.363 57.5226C208.561 55.85 217.985 58.173 222.979 64.7704C225.995 68.8589 227.314 73.8766 226.937 78.8014C226.466 83.8191 224.864 88.5581 222.225 92.8324C220.718 95.3413 218.927 97.7572 218.268 100.545C217.891 102.403 217.891 104.262 217.514 106.12C216.383 111.417 211.954 115.319 206.488 115.97C201.777 116.341 195.18 113.275 194.238 108.35C193.767 105.655 194.238 103.518 192.918 100.824C191.505 97.8501 189.243 95.3413 187.453 92.6466Z" fill="white" stroke="#2E3374" stroke-width="1.5" stroke-miterlimit="10"/>
<path d="M197.84 109.182C198.862 104.186 197.84 99.0075 197.19 93.92C196.912 92.2848 196.912 90.5587 197.376 88.8326C197.933 87.1973 199.513 85.8346 201.277 86.0163C203.228 86.198 204.529 88.1058 205.179 89.9227C205.922 92.1939 206.201 94.556 205.922 96.918C205.736 98.1898 205.272 99.5526 204.064 100.007C201.742 96.6454 202.392 92.1939 205.551 89.6502C206.201 89.1051 207.037 88.8326 207.873 88.8326C209.266 89.0143 210.102 90.377 210.474 91.6488C210.845 93.1024 210.845 94.7377 210.381 96.1912C210.288 96.6454 210.009 97.0088 209.731 97.2814C209.359 97.5539 208.802 97.5539 208.523 97.1905C208.43 97.0088 208.337 96.7363 208.337 96.4637C208.152 93.6475 208.337 90.4678 210.381 88.4692C210.66 88.1058 211.124 87.8332 211.589 87.7424C211.96 87.7424 212.332 87.8333 212.703 88.0149C214.654 89.1051 215.211 91.558 214.933 93.7383C214.654 95.9187 213.446 97.8265 212.703 99.8251C211.403 103.096 210.845 106.548 211.031 110" stroke="#2E3374" stroke-width="1.5" stroke-miterlimit="10"/>
<path d="M192.112 112.789C191.924 113.151 191.548 113.423 191.36 113.694C190.701 114.781 191.077 116.229 191.454 117.406C192.3 119.759 193.24 122.385 195.308 123.923C196.812 124.919 198.505 125.462 200.291 125.643C203.77 126.187 207.248 126.096 210.727 125.462C212.325 125.191 213.829 124.738 215.145 123.923C216.556 123.109 217.496 121.841 217.872 120.393C217.966 119.94 217.966 119.488 218.154 119.035C218.248 118.673 218.53 118.311 218.718 117.949C219.094 117.044 219.094 116.139 218.718 115.233C218.436 114.69 218.154 114.147 217.966 113.604C217.872 113.061 217.966 112.518 218.06 111.974C218.342 109.892 217.966 107.72 216.744 106C213.923 108.263 210.539 109.802 206.966 110.345C203.582 110.888 200.009 110.164 197.094 108.444C195.872 107.72 194.556 106.272 193.428 107.991C192.488 109.349 193.052 111.341 192.112 112.789Z" fill="#2E3374" stroke="#2E3374" stroke-width="1.63" stroke-miterlimit="10"/>
<path d="M143.585 224.829C143.232 226.959 143.497 229.089 142.792 231.126C141.559 234.553 137.685 236.406 136.452 239.832C136.1 240.666 136.012 241.592 135.659 242.333C135.307 243.166 134.603 243.815 133.81 244C132.93 244 132.137 243.537 131.785 242.703C131.433 241.87 131.168 241.036 131.168 240.11C130.64 234.183 131.257 227.885 134.427 222.884C136.892 218.994 140.855 216.493 145.346 216.03C147.988 215.845 148.868 216.493 147.019 218.531C145.346 220.383 144.025 222.143 143.585 224.829Z" fill="#2E3374" stroke="#2E3374" stroke-width="1.63" stroke-miterlimit="10"/>
<path d="M337.378 194.146C337.473 192.94 337.757 191.642 338.419 190.622C339.176 189.509 340.311 188.767 341.635 188.396C345.608 187.19 349.77 188.952 353.459 190.807L363.108 195.444C366.797 196.65 369.635 199.432 370.865 203.049C371.432 204.162 371.811 205.46 372 206.758C372 208.428 371.622 210.19 370.77 211.673C370.297 212.972 369.351 214.177 368.216 215.012C369.162 215.476 369.541 216.774 369.351 217.794C369.068 219.649 368.216 221.411 366.797 222.802C365.473 224.101 363.959 225.306 362.257 226.326L356.581 227.439C356.014 227.81 355.351 228.181 354.689 227.903C354.216 227.625 353.932 227.161 354.027 226.604C354.122 226.141 354.216 225.584 354.405 225.121C356.014 221.133 359.324 217.794 359.135 213.436C359.135 212.694 358.946 211.952 358.662 211.21C358.284 210.653 357.905 210.097 357.338 209.633L352.797 205.182C351.662 203.976 350.432 202.956 349.014 202.029C346.365 200.545 343.054 200.359 340.216 201.565C339.554 201.843 338.514 202.585 337.757 202.4C336.811 202.121 337.095 201.287 337 200.359C337.095 198.319 337.095 196.186 337.378 194.146Z" fill="#2E3374" stroke="#2E3374" stroke-width="1.63" stroke-miterlimit="10"/>
</svg>
