<svg width="363" height="480" viewBox="0 0 363 480" fill="none" xmlns="http://www.w3.org/2000/svg">
<path d="M181.536 477.122C255.321 477.122 315.136 473.898 315.136 469.922C315.136 465.945 255.321 462.722 181.536 462.722C107.751 462.722 47.9365 465.945 47.9365 469.922C47.9365 473.898 107.751 477.122 181.536 477.122Z" fill="#BEE8C7"/>
<path d="M287.136 180.522V146.222H75.936V180.522C55.8856 180.522 36.6564 188.487 22.4787 202.665C8.30095 216.842 0.335938 236.071 0.335938 256.122C0.335938 276.172 8.30095 295.401 22.4787 309.579C36.6564 323.757 55.8856 331.722 75.936 331.722C79.5834 331.708 83.2255 331.44 86.8359 330.922C94.3624 345.886 105.328 358.854 118.834 368.762C132.34 378.67 148.002 385.236 164.536 387.922V441.422H135.036C131.411 441.42 127.822 442.133 124.472 443.52C121.123 444.907 118.08 446.94 115.517 449.503C112.954 452.066 110.921 455.109 109.534 458.458C108.148 461.807 107.435 465.397 107.436 469.022H255.436C255.437 465.397 254.724 461.807 253.338 458.458C251.951 455.109 249.918 452.066 247.355 449.503C244.792 446.94 241.749 444.907 238.4 443.52C235.05 442.133 231.461 441.42 227.836 441.422H198.336V388.022C214.883 385.335 230.556 378.758 244.064 368.831C257.572 358.904 268.53 345.911 276.036 330.922C279.747 331.44 283.489 331.708 287.236 331.722C297.164 331.715 306.993 329.753 316.163 325.948C325.333 322.143 333.663 316.568 340.679 309.544C347.694 302.519 353.257 294.181 357.05 285.006C360.844 275.832 362.793 266 362.786 256.072C362.779 246.144 360.817 236.314 357.012 227.145C353.207 217.975 347.633 209.645 340.608 202.629C333.583 195.614 325.245 190.051 316.071 186.257C306.896 182.464 297.064 180.515 287.136 180.522ZM75.936 308.822C61.9591 308.822 48.5546 303.269 38.6714 293.386C28.7883 283.503 23.236 270.099 23.236 256.122C23.236 242.145 28.7883 228.74 38.6714 218.857C48.5546 208.974 61.9591 203.422 75.936 203.422V275.122C75.736 277.922 75.5359 280.622 75.5359 283.422C75.5604 291.909 76.5671 300.366 78.5359 308.622C77.6738 308.738 76.8058 308.805 75.936 308.822ZM287.136 308.822C286.136 308.822 285.136 308.822 284.136 308.722C286.154 300.474 287.161 292.012 287.136 283.522V203.522C301.1 203.522 314.491 209.069 324.365 218.943C334.239 228.816 339.786 242.208 339.786 256.172C339.786 270.135 334.239 283.527 324.365 293.401C314.491 303.275 301.1 308.822 287.136 308.822Z" fill="#E7F8EB"/>
<path d="M109.336 213.522C109.326 189.962 115.351 166.792 126.836 146.222H75.8363V180.522C55.7859 180.522 36.5568 188.487 22.379 202.665C8.20128 216.842 0.236328 236.071 0.236328 256.122C0.236328 276.172 8.20128 295.401 22.379 309.579C36.5568 323.757 55.7859 331.722 75.8363 331.722C79.4838 331.708 83.1259 331.44 86.7363 330.922C94.2628 345.886 105.228 358.854 118.735 368.762C132.241 378.67 147.903 385.236 164.436 387.922V441.422H134.936C131.311 441.42 127.722 442.133 124.373 443.52C121.023 444.907 117.98 446.94 115.417 449.503C112.854 452.066 110.821 455.109 109.435 458.458C108.048 461.807 107.335 465.397 107.336 469.022H255.336C255.338 465.397 254.625 461.807 253.238 458.458C251.851 455.109 249.819 452.066 247.255 449.503C244.692 446.94 241.649 444.907 238.3 443.52C234.951 442.133 231.361 441.42 227.736 441.422H198.236V388.022C223.804 383.872 246.965 370.495 263.336 350.422C257.958 351.026 252.549 351.327 247.136 351.322C210.59 351.319 175.542 336.8 149.7 310.958C123.858 285.116 109.339 250.068 109.336 213.522ZM75.9363 308.822C61.9594 308.822 48.555 303.269 38.6718 293.386C28.7886 283.503 23.2363 270.099 23.2363 256.122C23.2363 242.145 28.7886 228.74 38.6718 218.857C48.555 208.974 61.9594 203.422 75.9363 203.422V275.122C75.7363 277.922 75.5363 280.622 75.5363 283.422C75.5607 291.909 76.5674 300.366 78.5363 308.622C77.6742 308.738 76.8061 308.805 75.9363 308.822Z" fill="#8AC096"/>
<path d="M278.536 140.121L279.236 146.921C280.336 146.921 292.236 146.421 292.336 145.721C292.436 145.021 283.236 143.621 283.236 143.621C283.297 142.521 283.264 141.417 283.136 140.321C283.036 140.021 278.536 140.121 278.536 140.121Z" fill="#2E3374" stroke="#2E3374" stroke-width="1.7" stroke-miterlimit="10"/>
<path d="M254.436 196.722L253.036 203.422C254.036 203.822 265.536 206.822 265.936 206.222C266.336 205.622 257.836 201.522 257.836 201.522C258.236 200.52 258.537 199.482 258.736 198.422C258.736 197.922 254.436 196.722 254.436 196.722Z" fill="#2E3374" stroke="#2E3374" stroke-width="1.7" stroke-miterlimit="10"/>
<path d="M233.236 112.521C233.236 112.521 250.836 78.2213 271.136 80.6213C291.436 83.0213 285.436 140.821 285.436 140.821H277.436C277.436 140.821 275.736 98.4212 268.736 98.5212C261.736 98.6212 238.636 131.021 238.636 131.021C238.636 131.021 268.836 128.421 272.836 149.021C277.736 174.021 260.536 199.821 260.536 199.821L250.836 199.421C250.836 199.421 269.436 155.721 258.936 149.321C242.836 139.521 211.836 157.121 199.536 134.021L233.236 112.521Z" fill="white" stroke="#2E3374" stroke-width="1.7" stroke-miterlimit="10"/>
<path d="M210.636 66.6216C210.636 66.6216 232.636 74.8216 243.836 70.1216C255.036 65.4216 267.736 42.1215 274.936 41.8215C282.136 41.5215 282.436 39.0215 282.436 39.0215C282.436 39.0215 281.836 45.4214 277.236 45.7214C272.636 46.0214 267.036 72.6215 249.036 79.8215C231.036 87.0215 212.336 81.2214 212.336 81.2214C212.336 81.2214 208.136 69.6216 210.636 66.6216Z" fill="white" stroke="#2E3374" stroke-width="1.7" stroke-miterlimit="10"/>
<path d="M203.936 33.8215C204.136 33.3215 210.636 23.3215 221.236 29.8215C225.636 32.6215 225.736 37.8215 231.236 39.1215C236.736 40.4215 244.636 35.2214 247.436 44.2214C250.236 53.2214 247.036 55.7214 251.936 56.7214C256.836 57.7214 260.536 57.1215 259.336 64.1215C257.636 74.1215 242.336 74.4214 240.436 68.7214C235.636 54.3214 227.536 71.3214 223.436 58.5214C221.436 52.2214 194.036 62.2215 203.936 33.8215Z" fill="white" stroke="#2E3374" stroke-width="1.7" stroke-miterlimit="10"/>
<path d="M220.436 65.7217C220.436 65.7217 230.036 71.4216 231.536 71.4216C233.036 71.4216 231.536 81.4216 231.536 81.4216C231.536 81.4216 218.036 74.8217 220.436 65.7217Z" fill="#D5401A" stroke="#2E3374" stroke-width="1.7" stroke-miterlimit="10"/>
<path d="M220.436 65.7215C220.436 65.7215 182.436 51.7216 199.636 134.022C199.636 134.022 239.136 121.422 233.236 112.522C229.136 106.322 227.536 110.522 226.736 100.522C225.936 90.5216 248.436 89.2215 220.436 65.7215Z" fill="#D5401A" stroke="#2E3374" stroke-width="1.7" stroke-miterlimit="10"/>
<path d="M220.836 44.6213C219.736 44.4213 218.536 45.5212 217.836 46.5212C217.336 43.6212 217.036 40.8212 216.836 38.5212C216.536 34.6212 205.437 33.9211 203.137 41.9211C203.137 41.9211 200.337 54.5211 207.137 56.4211C209.737 57.1211 211.136 56.5213 211.936 55.6213L210.436 65.1213C210.436 65.1213 213.936 69.5212 220.436 65.7212C221.036 65.3212 219.837 58.3213 218.637 50.8213C219.1 51.0253 219.618 51.0672 220.108 50.9402C220.598 50.8131 221.031 50.5247 221.336 50.1213C222.236 48.7213 222.836 45.0213 220.836 44.6213Z" fill="white" stroke="#2E3374" stroke-width="1.7" stroke-miterlimit="10"/>
<path d="M214.736 80.4216C214.736 80.4216 235.636 91.1217 247.336 87.7217C259.036 84.3217 274.336 62.6217 281.436 63.2217C288.536 63.8217 289.136 61.2217 289.136 61.2217C289.136 61.2217 287.836 67.5217 283.136 67.2217C278.436 66.9217 269.936 92.8218 251.236 97.8218C232.536 102.822 214.636 95.0217 214.636 95.0217C214.636 95.0217 211.836 83.1216 214.736 80.4216Z" fill="white" stroke="#2E3374" stroke-width="1.7" stroke-miterlimit="10"/>
<path d="M211.836 76.7222C211.836 76.7222 224.536 81.6221 225.436 83.4221C226.336 85.2221 224.036 100.322 220.636 99.4221C217.236 98.5221 205.736 96.5223 205.536 89.1223C205.336 81.7223 207.536 74.9222 211.836 76.7222Z" fill="#D5401A" stroke="#2E3374" stroke-width="1.5" stroke-miterlimit="10"/>
<path d="M282.436 64.8219C288.805 64.8219 295.03 62.9333 300.326 59.3951C305.621 55.8569 309.748 50.828 312.185 44.9442C314.622 39.0604 315.26 32.5861 314.018 26.3399C312.775 20.0938 309.708 14.3561 305.205 9.85288C300.702 5.34963 294.964 2.28307 288.718 1.04063C282.472 -0.201817 275.998 0.43576 270.114 2.8729C264.23 5.31004 259.201 9.43726 255.663 14.7325C252.125 20.0278 250.236 26.2534 250.236 32.6219C250.234 36.8512 251.065 41.0395 252.682 44.9474C254.299 48.8552 256.671 52.406 259.662 55.3966C262.652 58.3872 266.203 60.7588 270.111 62.3761C274.019 63.9933 278.207 64.8245 282.436 64.8219Z" fill="#FD8208"/>
<path d="M272.536 32.6221V34.022H281.736V32.6221H272.536Z" fill="white"/>
<path d="M283.136 32.6221V34.022H292.336V32.6221H283.136Z" fill="white"/>
<path d="M314.536 34.022V32.6221H293.736V34.022H314.536Z" fill="white"/>
<path d="M250.236 32.6221V34.022H271.136V32.6221H250.236Z" fill="white"/>
<path d="M283.136 0.421875H281.736V64.822H283.136V0.421875Z" fill="white"/>
<path d="M293.736 34.4219V32.6221C294.136 22.5221 297.636 13.522 302.836 7.82202C302.436 7.52202 302.136 7.22188 301.736 6.92188C296.236 12.9219 292.636 22.1221 292.236 32.6221V34.4219C292.236 44.3219 295.136 53.3221 299.936 59.6221C300.336 59.3221 300.736 59.122 301.136 58.822C296.536 52.722 293.736 44.0219 293.736 34.4219Z" fill="white"/>
<path d="M263.037 6.92188C262.637 7.22188 262.337 7.52202 261.937 7.82202C267.237 13.522 270.737 22.5221 271.037 32.6221V34.4219C271.037 44.0219 268.237 52.722 263.637 58.822C264.037 59.122 264.437 59.3221 264.837 59.6221C269.537 53.3221 272.537 44.3219 272.537 34.4219V32.6221C272.137 22.1221 268.537 12.9219 263.037 6.92188Z" fill="white"/>
<path d="M47.436 471.422L47.336 478.222C46.236 478.322 34.3361 478.922 34.1361 478.222C33.9361 477.522 43.036 475.322 43.036 475.322C42.8569 474.232 42.7899 473.126 42.836 472.022C42.936 471.722 47.436 471.422 47.436 471.422Z" fill="#2E3374" stroke="#2E3374" stroke-width="1.7" stroke-miterlimit="10"/>
<path d="M64.3363 471.422L64.0363 478.222C62.9363 478.322 51.0363 478.522 50.8363 477.822C50.6363 477.122 59.7363 475.222 59.7363 475.222C59.596 474.128 59.5625 473.023 59.6363 471.922C59.8363 471.622 64.3363 471.422 64.3363 471.422Z" fill="#2E3374" stroke="#2E3374" stroke-width="1.7" stroke-miterlimit="10"/>
<path d="M72.4357 387.122C72.4357 387.122 80.9357 326.422 72.4357 317.822C59.2357 304.322 36.1357 314.422 35.2357 316.022C31.4357 322.322 31.1357 385.622 31.1357 385.622L72.4357 387.122Z" fill="white" stroke="#2E3374" stroke-width="1.7" stroke-miterlimit="10"/>
<path d="M31.036 385.622C31.036 385.622 11.236 411.022 14.536 423.822C17.836 436.622 40.336 473.222 40.336 473.222H49.9361C49.9361 473.222 29.436 427.922 31.036 423.222C32.636 418.522 51.7361 399.722 51.7361 399.722C51.7361 399.722 52.8361 449.922 58.7361 473.222H65.4361C65.4361 473.222 72.5361 417.022 72.4361 384.622L31.036 385.622Z" fill="#F8B243" stroke="#2E3374" stroke-width="1.7" stroke-miterlimit="10"/>
<path d="M57.1358 289.522C56.4358 289.422 56.0358 289.822 55.6358 290.422C55.3358 288.022 55.1358 285.722 54.9358 283.822C54.6358 279.922 44.8358 283.822 42.3358 288.422C42.3358 288.422 38.4358 299.722 45.2358 301.722C48.0358 302.522 49.4358 301.722 50.1358 300.722C49.6358 305.022 48.9358 312.222 48.9358 312.222C48.9358 312.222 51.9358 314.822 58.4358 311.022C58.4358 311.022 57.3358 303.622 56.2358 296.022C56.7167 296.298 57.2782 296.399 57.8251 296.308C58.372 296.217 58.8705 295.939 59.2358 295.522C60.4358 293.922 59.0358 289.922 57.1358 289.522Z" fill="white" stroke="#2E3374" stroke-width="1.7" stroke-miterlimit="10"/>
<path d="M76.5363 387.122C76.5363 387.122 70.6363 382.922 78.3363 374.722C84.8363 367.822 100.636 350.822 95.1364 344.522C89.6364 338.222 76.4363 333.422 76.4363 333.422L73.7363 315.822C73.7363 315.822 102.836 327.122 108.736 343.322C114.336 358.622 82.3364 376.822 79.6364 379.122C76.1364 382.122 76.5363 387.122 76.5363 387.122Z" fill="white" stroke="#2E3374" stroke-width="1.7" stroke-miterlimit="10"/>
<path d="M35.1359 315.922C35.1359 315.922 4.33586 325.622 2.93586 347.222C1.53586 368.822 31.1358 376.822 29.2358 380.422C27.6358 383.422 22.7359 384.322 24.1359 384.122C25.5359 383.922 33.4359 386.922 31.1359 376.722C28.8359 366.522 6.63587 359.022 16.6359 345.722C21.9359 338.622 32.6359 334.822 32.6359 334.822C32.6359 334.822 33.7359 320.622 35.1359 315.922Z" fill="white" stroke="#2E3374" stroke-width="1.7" stroke-miterlimit="10"/>
<path d="M97.2361 329.122C96.6361 328.722 82.8362 316.722 67.9362 313.322C66.7497 313.024 65.5479 312.79 64.3361 312.622L63.0361 423.422H73.9362C73.9362 423.422 76.1362 365.122 76.4362 335.622L89.0361 340.222C89.1361 340.022 97.8361 329.522 97.2361 329.122Z" fill="white" stroke="#2E3374" stroke-width="1.7" stroke-miterlimit="10"/>
<path d="M42.9361 312.522C41.7795 312.623 40.6385 312.858 39.5361 313.222C20.8361 319.122 11.1361 330.222 10.8361 330.522C10.5361 330.822 21.6361 342.522 21.6361 342.522C24.3361 340.022 28.7361 337.922 32.1361 336.522C30.7361 356.522 30.9361 382.022 30.9361 382.022C30.9361 382.022 20.9361 397.722 15.4361 409.722L21.8361 414.623C21.8361 414.623 40.8361 387.622 40.3361 384.422C39.8361 381.222 42.9361 312.522 42.9361 312.522Z" fill="white" stroke="#2E3374" stroke-width="1.7" stroke-miterlimit="10"/>
<path d="M63.0362 289.322C62.7362 286.022 59.2362 287.722 60.2362 285.422C61.2362 283.122 59.0362 277.922 54.3362 280.422C54.3362 280.422 52.8362 275.122 49.5362 276.322C46.2362 277.522 46.7362 279.322 44.3362 278.322C41.9362 277.322 39.5362 281.022 40.8362 283.422C42.5362 286.522 42.4363 287.522 46.9363 286.422C51.4363 285.322 53.8362 283.822 54.8362 285.622C55.6362 287.022 54.7363 290.222 54.9363 291.822L54.6363 292.022C54.9363 297.022 47.9363 299.422 45.4363 297.622C44.7601 297.11 43.9348 296.832 43.0862 296.832C42.2377 296.832 41.4124 297.11 40.7362 297.622C39.6362 298.222 40.9363 305.322 47.9363 304.422C53.6363 303.722 55.8363 295.122 56.4363 292.022C56.8363 291.222 57.0363 290.222 57.6363 291.022C58.6363 292.322 60.2362 295.822 57.5362 295.422C54.8362 295.022 56.8362 298.622 57.8362 298.522C58.8362 298.422 63.5362 294.522 63.0362 289.322Z" fill="#2E3374" stroke="#2E3374" stroke-width="1.7" stroke-miterlimit="10"/>
</svg>
