<svg width="377" height="325" viewBox="0 0 377 325" fill="none" xmlns="http://www.w3.org/2000/svg">
<g clip-path="url(#clip0)">
<path d="M339 301.9C339 314.2 277.9 324.3 202.4 324.3C126.9 324.3 65.7002 314.2 65.7002 301.9C65.7002 289.6 126.8 279.5 202.3 279.5C277.8 279.4 339 289.4 339 301.9Z" fill="#AABFE2"/>
<path d="M204.7 298.3C261.9 298.3 308.3 251.9 308.3 194.7C308.3 137.5 261.9 91.1 204.7 91.1C147.5 91.1 101.1 137.5 101.1 194.7C101.1 251.9 147.4 298.3 204.7 298.3Z" fill="white"/>
<path d="M227.7 150.9C234.1 150.6 243.9 151.8 245 156.9C246.2 162.5 242.1 164 245.7 166.8C249 169.4 258.3 163.9 266.9 164.5C273.9 165.1 281.7 169.7 283.4 177.8C285.1 185.8 285.1 187.2 288.6 188.7C292.1 190.2 292.5 194.9 292.3 198C291.9 202.5 295.6 206.9 295.3 213.1C295 223.7 288.5 230 278.4 236.7C268.5 243.2 268.1 245.3 268 252C267.8 256.4 267.3 263.8 257.9 267.1C248.5 270.4 240.4 271.5 236.4 274.5C231.1 278.5 234 284.6 231.2 285.9C228.3 287.2 223.5 283.5 223.6 275.7C223.7 269.2 231 268.1 230.5 261.7C230 254.5 219.3 256.8 219.8 248.4C220.2 242.4 227.3 238.2 231.4 235.4C238.6 230.5 239.4 219.1 231.6 218.9C221.7 218.7 207.7 223.5 194.1 220.6C180.5 217.8 174.9 206.6 175.6 196C176.2 186.9 182.6 180.3 188.5 176.4C194.8 172.2 199.6 172.6 203.1 168.7C207 164.2 206 159.3 210.6 155.6C213.6 153 219.2 151.3 227.7 150.9Z" fill="#AABFE2"/>
<path d="M126.6 138.4C137.8 131.5 158.1 135.4 161 128.1C162.3 125 157 120.5 155.5 118.6C150.6 112.1 155.3 108.8 163.8 108.3C177.4 107.6 192.7 111.6 206.7 108.5C215.3 106.6 218 98.2 223.5 99.1C229.5 100.1 226.3 106.9 231.5 108.6C236.7 110.3 242.6 105.7 246.5 108.4C250.8 111.3 261.4 123.9 270.9 122.5C273 122.2 274.2 119.7 273.2 116.9C254.9 100.8 231 91.1 204.7 91.1C159.1 91.1 120.4 120.6 106.5 161.5C108.9 155.1 114.9 145.5 126.6 138.4Z" fill="#AABFE2"/>
<path d="M276.7 132.3C270.3 134.8 262.5 132.9 260.5 128.2C258.5 123.5 254.9 118.6 249.4 119.3C245.9 119.8 244.5 122 243.9 123.7C242.9 126.6 243.6 129.3 235.1 129.1C225.8 128.9 220.9 127.7 212.8 132.4C205.6 136.5 205 143.1 206.6 146.1C208.9 150.4 214.6 151.5 221.3 148.6C228 145.7 233.4 138.7 240.1 137.8C245.3 137.1 250.7 139.2 247.7 144.5C246 147.7 244.9 150 246.3 152.4C248.2 155.5 257.6 154.5 265.5 152.4C273.4 150.3 283.3 149.5 286 154.9C288.6 160.2 285.4 172.8 288.6 179.5C291.9 186.3 298.3 187.4 301.6 187.9C303.9 188.3 306.4 188.7 308.1 190.8C307.1 165.4 297 142.4 281 124.9C281.2 127.7 280.4 130.9 276.7 132.3Z" fill="#AABFE2"/>
<path d="M139.2 265.7C137.3 262 134.6 258.1 135.9 252.7C137.8 244.9 150.5 240.4 149.8 223.7C149.2 206.9 132.8 202.8 124.6 193.2C119 186.7 117.4 173.4 112.1 173.3C107.6 173.2 103.6 180.2 101.4 186.2C101.2 189.1 101.1 191.8 101.1 194.8C101.1 227.2 116 256 139.2 275C141.3 272.8 140.7 268.6 139.2 265.7Z" fill="#AABFE2"/>
<path d="M216.1 28.5C214.5 23.8 213.1 18.5 213.3 14C213.4 12.1 213.4 10.5 213.5 9.40003C214 3.90003 210 1.80003 208.6 1.70003C207.2 1.60003 205.9 0.500029 201.2 0.700029C196.7 0.900029 193.6 4.10003 192.7 8.60003C192 12.2 192.4 14.4 193.1 17.5C193.2 18.4 193.2 22.1 191.7 24.7C190 27.7 187.6 28.2 187.5 35.2C187.4 42.2 216.1 37.7 216.1 37.7C216.1 37.7 217.7 33.2 216.1 28.5Z" fill="#2E3374" stroke="#2E3374" stroke-width="1.4" stroke-miterlimit="10"/>
<path d="M185.8 123.2C184.4 124.2 182.2 125.2 180.6 124.6C180.3 124.5 179.9 124.3 179.8 124C179.7 123.8 179.7 123.5 179.7 123.2C179.6 120.9 180 118.6 180.7 116.3C181.1 115 181.8 113.6 183.2 113.3C184.6 113 186.4 113.3 187.5 114C189.6 115.3 194.7 114.4 194.9 114.5C195.5 114.8 195.6 118 195.4 118.6C194.7 120.3 192.7 120.9 191.1 121.1C189 121.6 187.5 122 185.8 123.2Z" fill="#15ADC2" stroke="#2E3374" stroke-width="1.4" stroke-miterlimit="10"/>
<path d="M196 32.3C202.2 32.1 208.4 32 214.6 32.9C216.7 33.2 218.8 33.7 220.5 34.9C223.7 37.1 224.7 41.4 225.3 45.3C225.7 48 226 50.8 226.3 53.4C226.5 54.7 226.6 56.1 226.3 57.5C225.9 59.2 224.9 60.7 223.7 62C220.2 66.2 216.1 70.1 211.1 72.4C206.1 74.7 200.1 75.2 195.1 73C193.4 72.2 191.8 71.1 190.2 70C188.3 68.7 186.4 67.3 185 65.3C184.1 63.9 183.6 62.3 183 60.7C181.4 55.2 180.9 49.3 182 43.7C182.7 40.2 182.2 36.7 185.6 35C188.4 33.4 192.8 32.3 196 32.3Z" fill="#D5401A" stroke="#2E3374" stroke-width="1.4" stroke-miterlimit="10"/>
<path d="M199.3 26.3L198.4 35.1C198.4 35.1 203.5 37.6 208.3 35.1L207.4 24.5L199.3 26.3Z" fill="white" stroke="#2E3374" stroke-width="1.4" stroke-miterlimit="10"/>
<path d="M228.5 40.3C226.6 37.2 222.3 35.2 218.1 33.9C218.4 34.2 218.6 34.6 218.5 35L217.2 55.1C219.7 59.3 222 63.8 221.7 65.7C221.4 67.5 218.5 72.1 215.8 75.8C213.7 78.9 211.7 81.5 211.7 81.5C215 84 216.3 87.5 216.3 87.5C216.3 87.5 218.5 86.3 221.5 84.4C224.9 82.2 229.3 79.1 232.5 75.8C238.9 69.8 232.8 47.4 228.5 40.3Z" fill="#D5401A" stroke="#2E3374" stroke-width="1.4" stroke-miterlimit="10"/>
<path d="M193.1 82.1C193.1 82.1 190.5 79.6 189.2 78.4L188.1 77.4C187.4 76.7 186.7 76.1 186 75.4C184.1 73.6 182.4 71.9 181.2 70.7C181.2 70.7 180.5 69.4 181.8 66.9C182.6 65.5 184.2 63 186.1 60.9C186.7 47.9 185 38.3 185.4 35C180.6 37.3 179.5 39.1 178.5 40.3C177.3 41.8 164.6 66.8 168.9 74.2C171.4 78.4 174.3 82.6 179.2 86.2C182.9 88.9 183.4 89.2 183.4 89.2C183.4 89.2 198.2 89 200.7 88.4C204.5 87.3 196.8 85.6 198.9 85.3C199.1 85.4 196.4 85.4 193.1 82.1Z" fill="#D5401A" stroke="#2E3374" stroke-width="1.4" stroke-miterlimit="10"/>
<path d="M196.9 33.8C196.8 34 196.8 34.1 196.8 34.3C196.9 34.5 197 34.6 197.1 34.7C200 36.6 203.7 36.5 207.2 36.4C207.7 36.4 208.3 36.3 208.6 35.8C208.8 35.6 208.8 35.2 208.8 35C208.9 33.4 208.9 31.8 209 30.2C209 29.9 209 29.5 208.8 29.2C208.5 28.7 207.7 28.7 207.2 28.9C206.6 29.2 206.3 29.6 205.8 30C205 30.6 204 30.8 203.2 30.3C202.7 30 202.4 29.5 202 29.1C201.2 28.6 200.4 28.9 199.6 28.8C199 28.7 198.3 28.2 197.9 28.5C197 28.9 197.2 32.9 196.9 33.8Z" fill="#D5401A" stroke="#2E3374" stroke-width="1.4" stroke-miterlimit="10"/>
<path d="M228.2 60.2L222.7 55.1C222.7 55.1 209.8 55 202.3 60.9C202.3 60.9 197.6 56 189.9 56C182.2 56 182.2 56 182.2 56L177.4 59.3L177.7 63.7L226.6 67.7L228.2 60.2Z" fill="white" stroke="#2E3374" stroke-width="1.4" stroke-miterlimit="10"/>
<path d="M200.5 87.9L200.1 87.8L176.7 87L176.2 80.3L175.6 72.4L174.7 60.5L177.4 60.6L195.2 61.2L198.9 61.3C199 61.3 199 61.3 199 61.4L199.2 65.5L200.5 87.9Z" fill="#15ADC2" stroke="#2E3374" stroke-width="1.4" stroke-miterlimit="10"/>
<path d="M184.6 81.6C182.8 83 178.1 87.3 176.5 85.2C176.1 84.7 175.8 84.4 175.4 84.2C174.8 83.9 174.5 83.3 174.4 82.6C174.3 81.4 174.1 79.4 174.1 77.9C174 77 174.8 76.3 175.7 76.4C176 76.4 176.3 76.4 176.6 76.3C178.4 76 179.6 75.2 181.8 76.4C183.9 77.6 186.4 80.2 184.6 81.6Z" fill="white" stroke="#2E3374" stroke-width="1.4" stroke-miterlimit="10"/>
<path d="M248.6 94.4C248.1 93.2 247.5 91.9 246.6 91.1C244.5 89 241.1 89 238.1 89.3C234.1 89.6 230.2 90.2 226.4 91C225 91.3 223.5 91.6 222.1 91.4C221.2 91.3 221 87.4 221 87.4L183.6 89.2C183.6 89.2 183.9 90.5 183.6 90.8C181.3 92.8 177.6 89.7 174.6 89.2C172.5 88.9 170.4 88.5 168.2 88.8C166.1 89.1 164 90 162.7 91.7C161.4 93.4 161 96.4 161.4 98.5C162.4 103.9 168.9 109.1 174 111C211.6 125.1 224.4 103 233.3 102.5C237.7 102.2 242.3 102.1 246.2 100C247.4 99.4 248.7 98.5 248.9 97.2C249.2 96.2 249 95.3 248.6 94.4Z" fill="#2E3374" stroke="#2E3374" stroke-width="1.4" stroke-miterlimit="10"/>
<path d="M246.6 91.2C243.1 88 235.1 90.9 230.8 92.9C226.7 94.8 222.8 97 218.9 99.2L191.4 113C191.4 113 192.6 122.2 194.4 123.3C196.2 124.3 242.6 108.1 242.6 108.1C242.6 108.1 257.5 101.4 246.6 91.2Z" fill="#2E3374" stroke="#2E3374" stroke-width="1.4" stroke-miterlimit="10"/>
<path d="M220.5 112.5C220.1 112.3 219.6 112.3 219.1 112.3C217.5 112.4 216.2 113.5 215.3 114.8C214.5 116 214 117.5 214.1 119C214.4 122.6 217.7 123.1 220.9 123.1C221.3 121.8 221.6 120.4 221.7 119C221.9 116.8 221.5 114.5 220.5 112.5Z" fill="white" stroke="#2E3374" stroke-width="1.4" stroke-miterlimit="10"/>
<path d="M242.2 118.6C241.2 116.6 239.1 115.3 237 114.7C234.8 114.1 232.5 114.2 230.3 114.4C228.3 114.6 226.3 115 224.4 114.3C223.1 113.9 221.8 112.9 220.5 112.5C221.5 114.5 221.9 116.7 221.7 119C221.6 120.4 221.3 121.8 220.9 123.1C222.2 123.1 223.6 123 224.7 123C229.3 123.1 233.9 124.8 238.5 124.2C240.1 124 241.9 123.3 242.5 121.9C242.9 120.9 242.8 119.6 242.2 118.6Z" fill="#15ADC2" stroke="#2E3374" stroke-width="1.4" stroke-miterlimit="10"/>
<path d="M164.9 90.4C168.4 87.2 176.4 90.1 180.7 92.1C184.8 94 188.7 96.2 192.6 98.4L218.8 111.4C218.8 111.4 217.4 121.3 215.6 122.3C213.8 123.3 169.1 107.4 169.1 107.4C169.1 107.4 154 100.6 164.9 90.4Z" fill="#2E3374" stroke="#2E3374" stroke-width="1.4" stroke-miterlimit="10"/>
<path d="M199.1 61.3C202.5 64 205.9 63.5 205.9 63.5L206.7 89.5C201.9 90 200.1 87.9001 200.1 87.9001L199.1 61.3C199 61.3 199 61.3 199.1 61.3Z" fill="#15ADC2"/>
<path d="M199.1 61.3C202.5 64 205.9 63.5 205.9 63.5L206.7 89.5C201.9 90 200.1 87.9001 200.1 87.9001L199.1 61.3ZM199.1 61.3C199 61.3 199 61.3 199.1 61.3Z" stroke="#2E3374" stroke-width="1.4" stroke-miterlimit="10"/>
<path d="M230.2 86.2L206.7 89.5L205.9 65.9L205.8 63.5L228.2 60.2L229.3 60L229.6 67.6L229.8 75.3L230.2 86.2Z" fill="#15ADC2" stroke="#2E3374" stroke-width="1.4" stroke-miterlimit="10"/>
<path d="M232.3 77.7C232.3 78.4 232 79 231.5 79.5C231.2 79.7 231 79.9 230.7 80.3C229.1 82.4 224.3 78.1 222.6 76.7C220.8 75.3 223.4 72.7 225.6 71.5C225.9 71.3 226.2 71.2 226.4 71.1C227.5 70.7 228.3 70.8 229.1 71C229.6 71.1 230.2 71.3 230.7 71.4C230.8 71.4 230.8 71.4 230.8 71.4C231.5 71.5 232.1 72.1 232.1 72.9L232.3 77.7Z" fill="white" stroke="#2E3374" stroke-width="1.4" stroke-miterlimit="10"/>
<path d="M196.8 15.7001C196.8 15.7001 194.3 13.1001 191.7 14.8001C189 16.4001 191.9 20.9001 196.8 21.5001C201.8 22.2001 196.8 15.7001 196.8 15.7001Z" fill="white" stroke="#2E3374" stroke-width="1.4" stroke-miterlimit="10"/>
<path d="M209.8 15.7001C209.8 15.7001 212.3 13.1001 214.9 14.8001C217.6 16.4001 214.7 20.9001 209.8 21.5001C204.9 22.2001 209.8 15.7001 209.8 15.7001Z" fill="white" stroke="#2E3374" stroke-width="1.4" stroke-miterlimit="10"/>
<path d="M203.1 27.5C198.8 27.5 195.3 24 195.3 19.7V11.7C195.3 7.40002 198.8 3.90002 203.1 3.90002C207.4 3.90002 210.9 7.40002 210.9 11.7V19.7C210.9 24 207.4 27.5 203.1 27.5Z" fill="white" stroke="#2E3374" stroke-width="1.4" stroke-miterlimit="10"/>
<path d="M194.8 10.6001C194.9 10.6001 200.2 11.0001 203.5 8.30006C204.3 7.60006 205.6 7.90006 206.1 8.80006C207.3 10.8001 209.3 13.3001 211.3 12.9001C214.5 12.2001 209.5 0.800059 200.7 3.30006C191.9 5.80006 194.8 10.6001 194.8 10.6001Z" fill="#2E3374" stroke="#2E3374" stroke-width="1.4" stroke-miterlimit="10"/>
<path d="M104.7 48.6H126.7C127.4 48.6 128.1 48.6 128.8 48.5C130 51.4 133.1 56.9 140.1 58.1C136 55.2 135.6 49.7 135.8 46.1C138.4 44.5 140.5 42.3 141.9 39.7C143.4 37.1 144.1 34.2 144.2 31.2V23.5C144.2 18.9 142.4 14.4 139.1 11.2C135.8 7.90004 131.4 6.10004 126.7 6.10004H104.7C100.1 6.10004 95.6002 7.90004 92.3002 11.2C89.0002 14.5 87.2002 18.9 87.2002 23.5V31.2C87.2002 35.8 89.0002 40.3 92.3002 43.5C95.6002 46.7 100 48.6 104.7 48.6Z" fill="white"/>
<path d="M362.7 223.8H344.8C344.2 223.8 343.7 223.8 343.1 223.7C342.1 226.1 339.6 230.5 333.9 231.5C337.2 229.1 337.6 224.7 337.4 221.7C335.3 220.4 333.6 218.6 332.4 216.5C331.2 214.4 330.6 212 330.5 209.6V203.3C330.5 199.6 332 195.9 334.6 193.3C337.3 190.6 340.9 189.2 344.7 189.2H362.6C366.3 189.2 370 190.7 372.7 193.3C375.4 196 376.8 199.6 376.8 203.3V209.6C376.8 213.3 375.3 217 372.7 219.6C370.1 222.3 366.5 223.8 362.7 223.8Z" fill="white"/>
<path d="M225.7 289.8L217.5 283.9C223.8 276.3 230.1 269.4 230.8 267.9C232.5 264.5 230.9 255.6 232.2 255.1C233.5 254.7 239.4 274.8 239.4 274.8C239.4 274.8 235.5 276 232.9 277.4C231.4 278.3 228.5 284.1 225.7 289.8Z" fill="white" stroke="#2E3374" stroke-width="1.4" stroke-miterlimit="10"/>
<path d="M231.3 275C231.3 276.4 232.5 277.5 233.9 277.2C236.9 276.7 241.2 276 241.4 275.5C241.6 274.8 233.6 251.4 231.8 250.4C230 249.3 227.3 265.3 228.7 267.7C230 269.8 231.5 268.8 231.3 275Z" fill="white" stroke="#2E3374" stroke-width="1.4" stroke-miterlimit="10"/>
<path d="M222.4 285.7L214.2 279.8C220.5 272.2 226.8 265.3 227.5 263.8C229.2 260.4 227.6 251.5 228.9 251C230.2 250.6 236.1 270.7 236.1 270.7C236.1 270.7 232.2 271.9 229.6 273.3C228.2 274.1 225.2 279.9 222.4 285.7Z" fill="white" stroke="#2E3374" stroke-width="1.4" stroke-miterlimit="10"/>
<path d="M228 270.8C228 272.2 229.2 273.3 230.6 273C233.6 272.5 237.9 271.8 238.1 271.3C238.3 270.6 230.3 247.2 228.5 246.2C226.7 245.1 224 261.1 225.4 263.5C226.7 265.6 228.2 264.6 228 270.8Z" fill="white" stroke="#2E3374" stroke-width="1.4" stroke-miterlimit="10"/>
<path d="M221.7 279.4C221.7 279.4 232.9 279.4 231.5 281.9C231.1 282.7 222.9 300.7 222.9 302.1C222.9 303.5 242.8 303.6 242.8 303.6C242.8 303.6 216.4 316.9 209.4 311.8C202.4 306.7 221.7 279.4 221.7 279.4Z" fill="white" stroke="#2E3374" stroke-width="1.4" stroke-miterlimit="10"/>
<path d="M217.4 274C217.4 274 192 306.6 194.4 316.2C196.8 325.8 249.7 320.3 249.7 320.3L255 297.3C255 297.3 252.7 294 245.1 294C237.5 294 214.9 306.9 213.3 305.3C211.7 303.7 226.4 279.5 226.4 279.5C226.4 279.5 220.8 273.3 217.4 274Z" fill="white" stroke="#2E3374" stroke-width="1.4" stroke-miterlimit="10"/>
<path d="M323.6 316.7L312.7 320.7L344.4 321L347.3 316.7H323.6Z" fill="#F8B243" stroke="#2E3374" stroke-width="1.4" stroke-miterlimit="10"/>
<path d="M294.3 249.2C296.1 250.5 298 251.6 300.1 252C302.5 252.5 305.2 254.1 305.8 259C306.8 268.2 302.1 269.6 304.7 274.1C307.2 278.5 310.1 275.2 310.7 287.8C311.3 300.4 279.8 307.6 274.8 298.1C269.8 288.7 265 292.9 260.8 291.1C253.4 287.9 254.8 271.7 264.7 272.6C274.6 273.5 279.3 274 278.1 266.5C276.9 259 280.3 252.7 284.8 250C288.1 248.1 292 247.6 294.3 249.2Z" fill="#D5401A" stroke="#2E3374" stroke-width="1.4" stroke-miterlimit="10"/>
<path d="M301.9 291.3C301.9 291.3 304.6 308.9 308.4 309.9C312.2 311 324.8 312.4 324.8 312.4L323.8 317.1C323.8 317.1 301.5 317.7 296.7 316.1C291.9 314.5 291.6 296.1 291.6 296.1L301.9 291.3Z" fill="#15ADC2" stroke="#2E3374" stroke-width="1.4" stroke-miterlimit="10"/>
<path d="M312.7 320.7V320.8C312.7 322.3 313.9 323.6 315.5 323.6L344.4 323.9V321L312.7 320.7Z" fill="#F8B243" stroke="#2E3374" stroke-width="1.4" stroke-miterlimit="10"/>
<path d="M359.7 316.7C359.7 318.1 358.8 319.4 357.4 319.8L344.3 323.9V321L359.7 316.7Z" fill="#F8B243" stroke="#2E3374" stroke-width="1.4" stroke-miterlimit="10"/>
<path d="M297.3 282.5C297.3 282.5 294.1 280.8 288.9 281.2C288.3 281.3 287 279.5 286.3 279.7C280.2 281.4 272 297.1 268.6 298.4C265.2 299.8 255.4 296 255.4 296C255.4 296 248.1 299 245.7 306.5C243.3 313.9 248.3 321 248.3 321C248.3 321 270.3 322 281.6 318.3C292.9 314.6 302.1 306.2 302.7 303.9C303.3 301.5 303.8 294.9 302.1 290.1C300.4 285.3 297.3 282.5 297.3 282.5Z" fill="#15ADC2" stroke="#2E3374" stroke-width="1.4" stroke-miterlimit="10"/>
<path d="M326.8 312.8C326.8 312.8 330.6 310.8 333.7 311.2C336.8 311.7 342.3 315.6 341.2 317.2C340.1 318.8 329.6 316.9 329.6 316.9L326.8 312.8Z" fill="white" stroke="#2E3374" stroke-width="1.4" stroke-miterlimit="10"/>
<path d="M296.9 272.2C296.9 272.2 296.4 279.5 296.9 281.2C297.4 282.9 304.5 295 298.8 296.2C293.6 297.3 288.5 281.3 288.5 281.3C289.8 280 289.5 267.9 289.5 267.9L296.9 272.2Z" fill="white" stroke="#2E3374" stroke-width="1.4" stroke-miterlimit="10"/>
<path d="M302.7 260.9C301.4 255.7 297.8 254.4 293.9 255.9C289.9 257.4 288.6 262.6 288.6 262.6C288.6 262.7 288.6 262.8 288.6 262.9C288 262.3 287.2 262 286.6 262.9C285.3 264.7 286.3 268.9 288.6 269.2C289.1 269.3 289.4 269.1 289.6 268.8C291.9 275.9 297.4 278.7 299.4 276.7C301.8 274.2 304 266.1 302.7 260.9Z" fill="white" stroke="#2E3374" stroke-width="1.4" stroke-miterlimit="10"/>
<path d="M313.2 315L314.7 314.2C314.7 314.2 319.8 314.4 320.5 314.2C321.2 314 325.4 311.8 327.1 311.8C328.8 311.8 336.6 317.4 336.2 318.6C335.7 319.8 328.2 319.7 326.4 319C324.6 318.2 313.4 320.5 313.4 320.5L313.2 315Z" fill="white" stroke="#2E3374" stroke-width="1.4" stroke-miterlimit="10"/>
<path d="M281 282.2C279.6 284 279.1 285.9 279.2 288.8C279.6 295.7 283.9 322.5 288.2 322.5C292.5 322.5 315.8 321.3 315.8 321.3C315.8 321.3 317.6 315.9 315 314C315 314 297.8 315.7 296.3 313.4C294.8 311.1 292.7 285.9 290.8 283C288 278.3 283.6 278.8 281 282.2Z" fill="#15ADC2" stroke="#2E3374" stroke-width="1.4" stroke-miterlimit="10"/>
<path d="M353.6 292.8L344.4 321.2L359.7 316.7L368.5 290.3C369.1 288.6 367.7 287 365.9 287.3L358.8 288.4C356.4 288.8 354.4 290.5 353.6 292.8Z" fill="#F8B243" stroke="#2E3374" stroke-width="1.4" stroke-miterlimit="10"/>
<path d="M92.1001 140.1C91.8001 139.7 90.8001 141.2 90.5001 141C90.3001 140.9 90.6001 140.6 90.8001 139.8C91.1001 138.8 91.3001 137.2 91.0001 136.9C90.7001 136.6 90.3001 137 90.2001 137.2C90.4001 136.7 91.0001 134.3 90.3001 134.2C89.6001 134.2 88.3001 137 87.6001 138C87.0001 139 84.8001 141.3 84.6001 141.3C84.4001 141.3 84.3001 139.4 84.3001 138.5C84.3001 137.7 83.6001 136.6 83.0001 136.7C82.3001 136.8 82.4001 138.6 82.3001 140.6C82.1001 142.5 81.8001 144.9 81.5001 146C81.4001 146.7 80.1001 148.9 79.1001 150.8C80.4001 151.2 82.8001 151.5 84.0001 153.5C84.9001 151.1 85.5001 149.4 85.6001 149C86.2001 147.8 88.1001 146.8 89.5001 145.1C90.7001 143.7 92.6001 140.9 92.1001 140.1Z" fill="white" stroke="#2E3374" stroke-width="1.4" stroke-miterlimit="10"/>
<path d="M46.3002 171.9C46.3002 171.9 49.1002 168.9 52.6002 168.4C63.3002 166.9 74.1002 155.3 77.6002 150.5C77.6002 150.5 79.3002 147.8 80.3002 147.1L87.2002 149.5C82.3002 165.2 63.6002 178.1 48.9002 182.2C43.3002 184.5 46.3002 171.9 46.3002 171.9Z" fill="white" stroke="#2E3374" stroke-width="1.4" stroke-miterlimit="10"/>
<path d="M87.3001 138.8L86.9001 141.1C86.8001 141.8 87.2001 142.5 87.8001 142.7L93.1001 143.7C93.8001 143.8 94.4001 143.3 94.5001 142.6L94.9001 140.3L87.3001 138.8Z" fill="white" stroke="#2E3374" stroke-width="1.4" stroke-miterlimit="10"/>
<path d="M109.8 111.8C111.4 103.9 106.9 96.4 99.7998 95C92.6998 93.6 85.6998 98.9 84.1998 106.8C83.6998 109.6 83.8998 112.4 84.6998 114.8C86.9998 122.2 86.6998 127.9 86.6998 127.9L93.0998 129.2L99.4998 130.5C99.4998 130.5 101.4 125.1 106.3 119.1C108 117.1 109.3 114.6 109.8 111.8Z" fill="#2E3374" stroke="#2E3374" stroke-width="1.4" stroke-miterlimit="10"/>
<path d="M86.4997 128L84.5997 137.6C84.4997 138 84.6997 138.4 85.0997 138.4L96.9997 140.7C97.2997 140.8 97.6997 140.5 97.7997 140.1L99.6997 130.5L86.4997 128Z" fill="white" stroke="#2E3374" stroke-width="1.4" stroke-miterlimit="10"/>
<path d="M90.6 128.7L92.6 110.1L94.4 112.5L96.9 109.5L98.2 113.1L100.7 111.6L95.6 129.7L96.3 129.8L101.9 110.1L98.6 112.1L97.2 108.2L94.5 111.4L92.2 108.2L90 128.6L90.6 128.7Z" fill="#F6F7F7"/>
<path d="M65.9999 149.4C66.5999 148.9 67.2999 147.9 67.3999 147.1C67.4999 145.8 63.6999 145.2 62.1999 144.2C62.1999 144.2 59.1999 141.4 58.1999 141.1C58.1999 141.1 55.7999 139.6 53.2999 141.5C50.7999 143.4 49.4999 147.8 49.9999 152.4C50.1999 154.2 51.6999 155.9 53.4999 157.3C52.6999 157.6 52.0999 158.3 51.5999 159.7C50.2999 163.9 46.8999 168.2 46.8999 168.5C46.8999 168.8 47.5999 170.5 50.3999 171C54.2999 171.8 57.4999 170.3 58.1999 169.3C58.8999 168.3 60.0999 163.5 60.4999 160.6C62.4999 160 66.6999 158.5 67.3999 155.5C67.8999 153.9 67.1999 151.6 65.9999 149.4Z" fill="white" stroke="#2E3374" stroke-width="1.4" stroke-miterlimit="10"/>
<path d="M51.3001 160.9C51.7001 160.8 52.4001 160 53.4001 159.6C54.7001 159.2 58.1001 159 58.1001 157C58.1001 155.8 57.1001 156 56.0001 155.8C54.6001 155.5 54.5001 153.7 55.7001 153C57.0001 152.2 58.9001 152 59.3001 149C59.7001 146.1 57.7001 144.9 58.0001 143.1C58.3001 141.2 60.6001 140.7 61.6001 138.1C62.4001 135.9 62.4001 132.2 60.8001 132.2C59.2001 132.2 58.1001 134.9 57.3001 135.2C56.5001 135.5 56.5001 134 55.3001 134.1C54.5001 134.2 53.4001 135 52.4001 136.5C51.7001 137.7 51.8001 138.9 51.1001 139.5C50.3001 140.1 43.3001 144.6 43.7001 150.5C44.1001 156.3 48.5001 156.6 49.7001 157.4C51.3001 159 50.8001 161 51.3001 160.9Z" fill="#15ADC2" stroke="#2E3374" stroke-width="1.4" stroke-miterlimit="10"/>
<path d="M8.4 300.5C9.2 300.7 10.5 300.3 11.8 300.2C11.2 299 10.9 297.7 10.9 296.2C10.9 293.8 14.8 288.5 15.8 287.4C15.8 287.4 14.5 285.2 12.8 284C11.2 282.8 9.5 282.9 9.5 282.9C9.5 282.9 5.9 292.7 5.5 293.8C5.2 294.3 4.7 295.1 4 295.8C5.1 297.4 7.3 300.3 8.4 300.5Z" fill="white" stroke="#2E3374" stroke-width="1.4" stroke-miterlimit="10"/>
<path d="M7.90002 305.3C12.9 309 17.7 310.4 18 310.4C18.3 310.3 18.9 309.9 18.8 308.5C18.7 307.4 16.9 306.3 15.4 304.4C14.5 303.1 13.5 301.8 12.9 300.3C11.4 300.4 9.90002 300.8 8.90002 300.6C7.60002 300.3 4.90002 296.6 3.40002 295C2.30002 296.3 1.00002 297.7 0.800018 298.3C0.700018 298.6 1.90002 300.9 7.90002 305.3Z" fill="#2E3374" stroke="#2E3374" stroke-width="1.4" stroke-miterlimit="10"/>
<path d="M46.0998 220.2C45.0998 226.1 41.6998 248 35.6998 258.4C29.6998 268.8 24.1998 276.4 21.7998 279.4C19.3998 282.4 14.6998 289 14.6998 289C14.6998 289 10.5998 289 7.8998 286.4C5.1998 283.8 4.0998 282.4 4.2998 281.4C4.4998 280.4 8.8998 271.8 11.3998 268.9C13.7998 265.9 17.0998 262.2 20.0998 255.7C22.9998 249.2 23.0998 241.7 23.8998 235.6C24.6998 229.5 25.7998 222.9 26.8998 219.1C28.0998 215.2 46.0998 220.2 46.0998 220.2Z" fill="#F8B243" stroke="#2E3374" stroke-width="1.4" stroke-miterlimit="10"/>
<path d="M73.7001 303.3C73.2001 303 72.7001 302.7 72.4001 302.5C70.5001 301 69.2001 295 68.9001 293.6C68.9001 293.6 66.3001 293.3 64.4001 293.8C62.5001 294.3 61.1001 295.7 61.1001 295.7C61.1001 295.7 66.3001 303.7 66.8001 304.8C67.1001 305.3 67.1001 306.3 67.1001 307.4C68.6001 307.4 71.1001 307.1 71.6001 306.7C71.9001 306.1 72.6001 304.3 73.7001 303.3Z" fill="white" stroke="#2E3374" stroke-width="1.4" stroke-miterlimit="10"/>
<path d="M66.5998 311.1C66.7998 311.4 71.7998 311.5 77.7998 310.8C83.9998 310 88.8998 307.3 89.0998 306.9C89.2998 306.6 89.3998 305.7 88.3998 304.9C87.5998 304.2 84.5998 304.6 82.2998 304.3C80.3998 304.1 76.6998 303.2 74.1998 301.9C72.8998 303.1 72.0998 305.3 71.5998 305.8C71.0998 306.4 68.0998 306.6 66.2998 306.6C66.3998 308.5 66.2998 310.5 66.5998 311.1Z" fill="#2E3374" stroke="#2E3374" stroke-width="1.4" stroke-miterlimit="10"/>
<path d="M52.1001 217.4C53.5001 220.2 62.2001 243.7 63.1001 252.8C64.0001 261.9 66.2001 272.4 67.1001 277.9C68.0001 283.4 70.8001 292 70.6001 293C70.3001 294 67.5001 295.6 63.7001 296.4C59.9001 297.2 55.7001 297 55.5001 296.7C55.3001 296.4 55.5001 295 54.7001 292.3C53.9001 289.6 51.6001 283.6 50.9001 278.9C50.2001 274.2 49.0001 263.5 48.0001 260.5C47.1001 257.6 42.5001 246.9 40.9001 242.5C39.3001 238.1 39.0001 235.7 37.7001 234.3C36.4001 232.8 30.6001 229 31.6001 220.9C32.4001 212.7 52.1001 217.4 52.1001 217.4Z" fill="#F8B243" stroke="#2E3374" stroke-width="1.4" stroke-miterlimit="10"/>
<path d="M103.1 136.3C102.8 135.9 101.8 137.3 101.5 137.1C101.3 137 101.6 136.7 101.8 135.9C102.1 134.9 102.4 133.4 102.1 133C101.8 132.7 101.4 133.1 101.3 133.3C101.6 132.8 102.2 130.4 101.6 130.4C100.9 130.3 99.3999 133.1 98.6999 134C97.9999 135 95.7999 137.1 95.4999 137.1C95.1999 137.1 95.2999 135.2 95.2999 134.3C95.2999 133.5 94.6999 132.4 94.0999 132.4C93.3999 132.5 93.3999 134.3 93.1999 136.3C92.8999 138.2 92.3999 140.6 92.0999 141.7C91.8999 142.4 90.5999 144.6 89.3999 146.4C90.6999 146.9 92.9999 147.2 94.1999 149.3C95.1999 146.9 95.8999 145.3 96.0999 144.9C96.7999 143.7 98.6999 142.9 100.2 141.2C101.5 139.8 103.6 137 103.1 136.3Z" fill="white" stroke="#2E3374" stroke-width="1.4" stroke-miterlimit="10"/>
<path d="M89.0998 145.9C85.5998 151.5 79.4998 160.6 75.6998 163.4C70.1998 167.4 58.3998 169.5 58.3998 169.5C58.3998 169.5 48.0998 168.6 47.2998 168.7C46.3998 168.8 44.0998 169.5 42.3998 171C39.5998 173.4 35.1998 181.8 30.9998 197.3C27.7998 209.4 24.7998 221.5 24.7998 222.4C24.7998 223.1 28.9998 223.9 35.8998 223.9C43.8998 223.9 54.0998 220.3 55.6998 218.3C58.0998 215.1 58.0998 190.9 61.3998 185.6C61.4998 185.8 76.5998 176.3 83.9998 168.1C88.1998 163.4 92.7998 154.9 94.9998 149.7C93.9998 147.4 90.2998 146.3 89.0998 145.9Z" fill="white" stroke="#2E3374" stroke-width="1.4" stroke-miterlimit="10"/>
</g>
<defs>
<clipPath id="clip0">
<rect width="376.9" height="324.9" fill="white"/>
</clipPath>
</defs>
</svg>
