<?xml version="1.0" encoding="utf-8"?>
<!-- Generator: Adobe Illustrator 22.0.1, SVG Export Plug-In . SVG Version: 6.00 Build 0)  -->
<svg version="1.1" id="Layer_1" xmlns="http://www.w3.org/2000/svg" xmlns:xlink="http://www.w3.org/1999/xlink" x="0px" y="0px"
	 viewBox="0 0 1280 647" style="enable-background:new 0 0 1280 647;" xml:space="preserve">
<style type="text/css">
	.st0{fill:url(#SVGID_1_);}
	.st1{fill:#BEE8C7;}
</style>
<linearGradient id="SVGID_1_" gradientUnits="userSpaceOnUse" x1="640" y1="648" x2="640" y2="34" gradientTransform="matrix(1 0 0 -1 0 648)">
	<stop  offset="0" style="stop-color:#BEE8C7"/>
	<stop  offset="1" style="stop-color:#BEE8C7;stop-opacity:0.5"/>
</linearGradient>
<path class="st0" d="M0,0h1280v614H0V0z"/>
<path class="st1" d="M180.8,371.9c22,2.9,41.9,14.2,61.8,24.1c30.9,15.4,63.3,27.8,96.5,37.2c25.5,7.2,52,12.6,78.2,9.2
	c61.4-7.8,107-61.2,135.4-116.3c28.4-55,46.5-116.2,85.1-164.6c38.6-48.4,107.7-81.2,163.1-53.4c40.5,20.3,60.8,65.4,81.3,105.8
	c20.5,40.4,49.5,83.3,94.2,90.7c33.3,5.6,65.9-10.4,97.6-22.1c31.7-11.8,70.1-18.7,97,1.8c27.9,21.3,30.3,61.3,39.8,95.1
	c9.4,33.4,55.8,76.7,69.3,78.2v86.4V647c0,0-1236.1,1.1-1280-0.1l0-87.8l0-120.4C35,396.2,128.6,365,180.8,371.9z"/>
</svg>
