<svg id="Layer_1" data-name="Layer 1" xmlns="http://www.w3.org/2000/svg" viewBox="0 0 362.55 478.85"><defs><style>.cls-1{fill:#e4f1c0;}.cls-2{fill:#f8ffe4;}.cls-3{fill:#c2d58f;}.cls-4{fill:#2e3374;}.cls-10,.cls-4,.cls-5,.cls-6,.cls-7{stroke:#2e3374;stroke-miterlimit:10;}.cls-10,.cls-4,.cls-5,.cls-6{stroke-width:1.7px;}.cls-5,.cls-9{fill:#fff;}.cls-6,.cls-7{fill:#d5401a;}.cls-7{stroke-width:1.5px;}.cls-8{fill:#fd8208;}.cls-10{fill:#f8b243;}</style></defs><path class="cls-1" d="M181.3,476.57c73.78,0,133.6-3.23,133.6-7.2s-59.82-7.2-133.6-7.2-133.6,3.22-133.6,7.2S107.51,476.57,181.3,476.57Z"/><path class="cls-2" d="M286.9,180.05V145.76H75.7v34.29a75.58,75.58,0,1,0,0,151.16,81.08,81.08,0,0,0,10.9-.8,106,106,0,0,0,77.7,57v53.49H134.8a27.59,27.59,0,0,0-27.6,27.59h148a27.57,27.57,0,0,0-27.6-27.59H198.1V387.49a105.9,105.9,0,0,0,77.7-57.08,85.58,85.58,0,0,0,11.2.8,75.58,75.58,0,1,0-.1-151.16ZM75.7,308.31a52.69,52.69,0,1,1,0-105.37v71.68c-.2,2.8-.4,5.5-.4,8.3a109.62,109.62,0,0,0,3,25.19A20.54,20.54,0,0,1,75.7,308.31Zm211.2,0c-1,0-2,0-3-.1a104.76,104.76,0,0,0,3-25.19V203a52.64,52.64,0,1,1,0,105.27Z"/><path class="cls-3" d="M109.1,213a137.8,137.8,0,0,1,17.5-67.28h-51v34.29a75.58,75.58,0,1,0,0,151.16,81.08,81.08,0,0,0,10.9-.8,106,106,0,0,0,77.7,57v53.49H134.7a27.59,27.59,0,0,0-27.6,27.59h148a27.57,27.57,0,0,0-27.6-27.59H198V387.49a105.89,105.89,0,0,0,65.1-37.59,141.49,141.49,0,0,1-16.2.9A137.78,137.78,0,0,1,109.1,213ZM75.7,308.31a52.69,52.69,0,1,1,0-105.37v71.68c-.2,2.8-.4,5.5-.4,8.3a109.62,109.62,0,0,0,3,25.19A20.54,20.54,0,0,1,75.7,308.31Z"/><path class="cls-4" d="M278.3,139.66l.7,6.8c1.1,0,13-.5,13.1-1.2s-9.1-2.1-9.1-2.1a19.17,19.17,0,0,0-.1-3.3C282.8,139.56,278.3,139.66,278.3,139.66Z"/><path class="cls-4" d="M254.2,196.24l-1.4,6.7c1,.4,12.5,3.4,12.9,2.8s-8.1-4.7-8.1-4.7a16.67,16.67,0,0,0,.9-3.1C258.5,197.44,254.2,196.24,254.2,196.24Z"/><path class="cls-5" d="M233,112.07s17.6-34.29,37.9-31.89,14.3,60.18,14.3,60.18h-8S275.5,98,268.5,98.07s-30.1,32.49-30.1,32.49,30.2-2.6,34.2,18c4.9,25-12.3,50.78-12.3,50.78l-9.7-.4s18.6-43.68,8.1-50.08c-16.1-9.8-47.1,7.79-59.4-15.3Z"/><path class="cls-5" d="M210.4,66.18s22,8.2,33.2,3.5,23.9-28,31.1-28.29,7.5-2.8,7.5-2.8-.6,6.4-5.2,6.7-10.2,26.89-28.2,34.09-36.7,1.4-36.7,1.4S207.9,69.18,210.4,66.18Z"/><path class="cls-5" d="M203.7,33.39c.2-.5,6.7-10.5,17.3-4,4.4,2.8,4.5,8,10,9.3s13.4-3.9,16.2,5.1-.4,11.49,4.5,12.49,8.6.4,7.4,7.4c-1.7,10-17,10.3-18.9,4.6-4.8-14.4-12.9,2.6-17-10.2C221.2,51.78,193.8,61.78,203.7,33.39Z"/><path class="cls-6" d="M220.2,65.28s9.6,5.7,11.1,5.7,0,10,0,10S217.8,74.38,220.2,65.28Z"/><path class="cls-6" d="M220.2,65.28s-38-14-20.8,68.28c0,0,39.5-12.6,33.6-21.49-4.1-6.2-5.7-2-6.5-12S248.2,88.77,220.2,65.28Z"/><path class="cls-5" d="M220.6,44.19c-1.1-.2-2.3.9-3,1.9-.5-2.9-.8-5.7-1-8-.3-3.9-11.4-4.6-13.7,3.4,0,0-2.8,12.59,4,14.49,2.6.7,4,.1,4.8-.8l-1.5,9.5s3.5,4.4,10,.6c.6-.4-.6-7.4-1.8-14.89a2.28,2.28,0,0,0,2.7-.7C222,48.29,222.6,44.59,220.6,44.19Z"/><path class="cls-5" d="M214.5,80s20.9,10.69,32.6,7.29,27-25.09,34.1-24.49,7.7-2,7.7-2-1.3,6.3-6,6S269.7,92.37,251,97.37s-36.6-2.8-36.6-2.8S211.6,82.68,214.5,80Z"/><path class="cls-7" d="M211.6,76.28s12.7,4.9,13.6,6.7-1.4,16.89-4.8,16-14.9-2.9-15.1-10.29S207.3,74.48,211.6,76.28Z"/><path class="cls-8" d="M282.2,64.38a32.19,32.19,0,1,0-12.32-2.44A32.27,32.27,0,0,0,282.2,64.38Z"/><path class="cls-9" d="M272.3,32.19v1.4h9.2v-1.4Z"/><path class="cls-9" d="M282.9,32.19v1.4h9.2v-1.4Z"/><path class="cls-9" d="M314.3,33.59v-1.4H293.5v1.4Z"/><path class="cls-9" d="M250,32.19v1.4h20.9v-1.4Z"/><path class="cls-9" d="M282.9,0h-1.4V64.38h1.4Z"/><path class="cls-9" d="M293.5,34v-1.8c.4-10.1,3.9-19.09,9.1-24.79-.4-.3-.7-.6-1.1-.9-5.5,6-9.1,15.19-9.5,25.69V34c0,9.9,2.9,18.9,7.7,25.19.4-.3.8-.5,1.2-.8C296.3,52.29,293.5,43.59,293.5,34Z"/><path class="cls-9" d="M262.8,6.5c-.4.3-.7.6-1.1.9,5.3,5.7,8.8,14.69,9.1,24.79V34c0,9.6-2.8,18.3-7.4,24.39.4.3.8.5,1.2.8,4.7-6.29,7.7-15.29,7.7-25.19v-1.8C271.9,21.69,268.3,12.5,262.8,6.5Z"/><path class="cls-4" d="M47.2,470.87l-.1,6.8c-1.1.1-13,.69-13.2,0s8.9-2.9,8.9-2.9a16.59,16.59,0,0,1-.2-3.3C42.7,471.17,47.2,470.87,47.2,470.87Z"/><path class="cls-4" d="M64.1,470.87l-.3,6.8c-1.1.1-13,.29-13.2-.4s8.9-2.6,8.9-2.6a17.35,17.35,0,0,1-.1-3.3C59.6,471.07,64.1,470.87,64.1,470.87Z"/><path class="cls-5" d="M72.2,386.59s8.5-60.68,0-69.28c-13.2-13.5-36.3-3.4-37.2-1.8-3.8,6.3-4.1,69.58-4.1,69.58Z"/><path class="cls-10" d="M30.8,385.09S11,410.48,14.3,423.28s25.8,49.39,25.8,49.39h9.6s-20.5-45.29-18.9-50,20.7-23.49,20.7-23.49,1.1,50.18,7,73.48h6.7s7.1-56.19,7-88.58Z"/><path class="cls-5" d="M56.9,289c-.7-.1-1.1.3-1.5.9-.3-2.4-.5-4.7-.7-6.6-.3-3.9-10.1,0-12.6,4.6,0,0-3.9,11.3,2.9,13.29,2.8.81,4.2,0,4.9-1-.5,4.29-1.2,11.49-1.2,11.49s3,2.6,9.5-1.2c0,0-1.1-7.4-2.2-15a2.44,2.44,0,0,0,1.59.28A2.4,2.4,0,0,0,59,295C60.2,293.42,58.8,289.42,56.9,289Z"/><path class="cls-5" d="M76.3,386.59s-5.9-4.2,1.8-12.39c6.5-6.9,22.3-23.9,16.8-30.2s-18.7-11.09-18.7-11.09l-2.7-17.6s29.1,11.3,35,27.49c5.6,15.3-26.4,33.49-29.1,35.79C75.9,381.59,76.3,386.59,76.3,386.59Z"/><path class="cls-5" d="M34.9,315.41S4.1,325.11,2.7,346.7,30.9,376.29,29,379.89c-1.6,3-6.5,3.9-5.1,3.7s9.3,2.8,7-7.4-24.5-17.69-14.5-31c5.3-7.09,16-10.89,16-10.89S33.5,320.11,34.9,315.41Z"/><path class="cls-5" d="M97,328.61c-.6-.4-14.4-12.4-29.3-15.8a34.14,34.14,0,0,0-3.6-.7L62.8,422.88H73.7s2.2-58.28,2.5-87.77l12.6,4.59C88.9,339.5,97.6,329,97,328.61Z"/><path class="cls-5" d="M42.7,312a15.11,15.11,0,0,0-3.4.7c-18.7,5.9-28.4,17-28.7,17.3s10.8,12,10.8,12c2.7-2.49,7.1-4.59,10.5-6-1.4,20-1.2,45.48-1.2,45.48s-10,15.7-15.5,27.69l6.4,4.9s19-27,18.5-30.19S42.7,312,42.7,312Z"/><path class="cls-4" d="M62.8,288.82c-.3-3.3-3.8-1.6-2.8-3.9s-1.2-7.5-5.9-5c0,0-1.5-5.3-4.8-4.1s-2.8,3-5.2,2-4.8,2.7-3.5,5.1c1.7,3.1,1.6,4.1,6.1,3s6.9-2.6,7.9-.8c.8,1.4-.1,4.6.1,6.2l-.3.2c.3,5-6.7,7.4-9.2,5.6a3.89,3.89,0,0,0-4.7,0c-1.1.6.2,7.7,7.2,6.8,5.7-.71,7.9-9.3,8.5-12.4.4-.8.6-1.8,1.2-1,1,1.3,2.6,4.8-.1,4.4s-.7,3.2.3,3.1S63.3,294,62.8,288.82Z"/></svg>