<?xml version="1.0" encoding="utf-8"?>
<!-- Generator: Adobe Illustrator 22.0.1, SVG Export Plug-In . SVG Version: 6.00 Build 0)  -->
<svg version="1.1" id="Layer_1" xmlns="http://www.w3.org/2000/svg" xmlns:xlink="http://www.w3.org/1999/xlink" x="0px" y="0px"
	 viewBox="0 0 461 316" style="enable-background:new 0 0 461 316;" xml:space="preserve">
<style type="text/css">
	.st0{fill:#FFFFFF;stroke:#2E3374;stroke-width:1.7;stroke-miterlimit:10;}
	.st1{fill:#AFDADD;}
	.st2{fill:#FFFFFF;}
	.st3{fill:#8FC9CC;}
	.st4{fill:#2E3374;stroke:#2E3374;stroke-width:1.7;stroke-miterlimit:10;}
	.st5{fill:none;stroke:#2E3374;stroke-width:1.7;stroke-miterlimit:10;}
	.st6{fill:#D5401A;stroke:#2E3374;stroke-width:1.7;stroke-miterlimit:10;}
</style>
<path class="st0" d="M326.7,92.6l-26.3-0.5l2.8,12.2l22.2-5c8.9,2.3,13.3,2.7,13.2,1.3c-0.1-1.2-1-1.6-1.8-2
	c-0.8-0.4-1.2-0.7-1.4-1.2c-0.3-1.4,3-3.6,6.3-5.5c3.3-1.9,1.4-2.7,0.2-2.8C336.7,89.6,331.6,90.8,326.7,92.6z"/>
<path class="st1" d="M213.7,315.7c89.1,0,161.2-4.9,161.2-10.9c0-6-72.2-10.9-161.2-10.9c-89.1,0-161.2,4.9-161.2,10.9
	C52.5,310.8,124.7,315.7,213.7,315.7z"/>
<path class="st1" d="M232.2,125.8c-6,5.9,10.3,65.1,21.3,83.3c6.6,10.9,17.6,17.9,30.5,16.7c15.4-1.5,30.4-15,28.7-30.3
	c-3.2-29.8-48.7-61.7-65.1-69C243.3,124.5,236.3,121.8,232.2,125.8z"/>
<path class="st2" d="M301.5,218.8c-12.2-25.8-29.2-49.1-50.1-68.6c-0.1-0.1-0.2-0.2-0.4-0.2c-0.1-0.1-0.3-0.1-0.4-0.1
	c-0.1,0-0.3,0-0.4,0.1s-0.3,0.2-0.4,0.3s-0.2,0.2-0.2,0.4c-0.1,0.1-0.1,0.3-0.1,0.4c0,0.1,0,0.3,0.1,0.4c0.1,0.1,0.1,0.3,0.3,0.4
	c20.8,19.4,37.7,42.5,49.8,68.2C300.1,219.5,300.8,219.1,301.5,218.8z"/>
<path class="st3" d="M407,103.3c6,5.9-10.3,65.1-21.3,83.3c-6.6,10.9-17.6,17.9-30.5,16.6c-15.5-1.5-30.5-15-28.8-30.4
	c3.2-29.8,48.7-61.7,65.1-69C395.9,101.9,402.9,99.3,407,103.3z"/>
<path class="st2" d="M389.5,127.7c-0.1-0.1-0.2-0.2-0.4-0.3c-0.1-0.1-0.3-0.1-0.4-0.1c-0.1,0-0.3,0-0.4,0.1
	c-0.1,0.1-0.3,0.1-0.4,0.2c-20.9,19.5-37.9,42.8-50.1,68.7l1.9,1.3c12.1-25.7,29-48.9,49.9-68.3c0.1-0.1,0.2-0.2,0.3-0.4
	c0.1-0.1,0.1-0.3,0.1-0.4s0-0.3-0.1-0.4C389.6,128,389.6,127.8,389.5,127.7z"/>
<path class="st3" d="M301.4,218.7c-0.6,0.5-1.2,0.9-1.9,1.3c11,23,17.9,47.8,20.4,73.2c0,0.3,0.1,0.5,0.3,0.7
	c0.2,0.2,0.5,0.3,0.8,0.3h0.1c0.1,0,0.3,0,0.4-0.1c0.1-0.1,0.3-0.2,0.3-0.3c0.1-0.1,0.2-0.3,0.2-0.4c0-0.1,0.1-0.3,0-0.4
	C319.6,267.3,312.6,242.1,301.4,218.7z"/>
<path class="st3" d="M337.8,196.2c-11.2,23.4-18.2,48.5-20.8,74.3c0,0.1,0,0.3,0,0.4c0,0.1,0.1,0.3,0.2,0.4c0.1,0.1,0.2,0.2,0.3,0.3
	c0.1,0.1,0.3,0.1,0.4,0.1h0.1c0.3,0,0.5-0.1,0.8-0.3s0.3-0.5,0.3-0.7c2.5-25.4,9.4-50.1,20.4-73.2
	C339,197.1,338.4,196.7,337.8,196.2z"/>
<path class="st3" d="M335.4,299.4h-34.2l-7.5-40.4h49.1L335.4,299.4z"/>
<path class="st0" d="M149.4,154.7l-59.9-36.4c-1.2-0.7-2.8-0.3-3.5,0.9l-22.2,36.6c-0.7,1.2-0.3,2.8,0.9,3.5l59.9,36.4
	c1.2,0.7,2.8,0.3,3.5-0.9l22.2-36.6C151,157,150.6,155.4,149.4,154.7z"/>
<path class="st0" d="M118.1,153.4c-1.3,0-2.5-0.3-3.6-1l-6.9-4.2c-1.6-1-2.7-2.5-3.2-4.3c-0.4-1.8-0.1-3.7,0.8-5.3l6.3-10.4
	c1-1.6,2.5-2.7,4.3-3.2c1.8-0.4,3.7-0.2,5.3,0.8l6.9,4.2c0.8,0.5,1.5,1.1,2,1.8c0.5,0.7,0.9,1.6,1.2,2.5c0.2,0.9,0.3,1.8,0.1,2.7
	c-0.1,0.9-0.5,1.8-0.9,2.6l-6.3,10.4c-0.5,0.8-1.1,1.5-1.8,2c-0.7,0.5-1.6,0.9-2.5,1.2C119.2,153.4,118.7,153.4,118.1,153.4z
	 M117.5,129.3c-0.2,0-0.4,0-0.6,0.1c-0.7,0.2-1.2,0.6-1.6,1.2l-6.3,10.4c-0.2,0.3-0.3,0.6-0.3,0.9c0,0.3,0,0.7,0,1
	c0.1,0.3,0.2,0.6,0.4,0.9c0.2,0.3,0.4,0.5,0.7,0.7l6.8,4.2c0.6,0.3,1.3,0.5,1.9,0.3c0.7-0.2,1.2-0.6,1.6-1.1l6.4-10.4
	c0.2-0.3,0.3-0.6,0.3-0.9c0.1-0.3,0-0.7,0-1c-0.1-0.3-0.2-0.6-0.4-0.9c-0.2-0.3-0.4-0.5-0.7-0.7l-6.9-4.2
	C118.5,129.4,118,129.3,117.5,129.3L117.5,129.3z"/>
<path class="st0" d="M321.5,271.5l-8.7,7l16.2,20.1l8.7-7L321.5,271.5z"/>
<path class="st0" d="M327.3,297.2c2.8-2.8,10.6-8.7,10.6-8.7s11.8-4.1,15.5-2.5c2.3,1,0.4,4.5-1.3,5.6l-20.2,12.6L327.3,297.2z"/>
<path class="st0" d="M69,220.2l-1.5,11l25.6,3.4l1.5-11L69,220.2z"/>
<path class="st0" d="M71.2,220c-0.1,4-1.7,13.6-1.7,13.6s-5.7,11.1-9.4,12.5c-2.4,0.9-3.4-2.9-3-4.9l5.9-23L71.2,220z"/>
<path class="st4" d="M76.9,237.3c79.3,13.6,112.4-3,136.7-82c-11.1-3.6-25.5-8.5-36.6-12.3c-13.2,39-13.2,52.7-28.1,65.6
	c-10.5,9.1-37.1,11.8-68.5,10.4C79.2,225.1,78.1,231.2,76.9,237.3z"/>
<path class="st4" d="M331.9,280.8c-28.5-41.2-66.6-98.2-101-132.9c-4.9,4.2-17.2-5-22.6-0.8c-4.1,3.2-6.6,14.4-3.4,20.7
	c13.9,27.5,80.1,83.3,112.5,123.8C317.4,291.6,328.5,283.5,331.9,280.8z"/>
<path class="st0" d="M234,86.2c-2-2.6,4.5-16.5,8.4-16.9c6.7-0.7,37.5,25.9,78.4,20.1l3.6,14C282.8,115.7,242.5,97.6,234,86.2z"/>
<path class="st0" d="M187.9,78c3.7-20,26.3-17.3,41.3-14.3c12.9,2.7,25.2,10.9,22.6,25.9c0,0-2.5,30.8-5.6,61.1
	c-1,9.7-1.1,10.4-1.1,10.4s-15.9,3.1-71.7-11.2L187.9,78z"/>
<path class="st0" d="M125.6,119c2.7-3.5,6.9-16.5,6.9-16.5l8.5,3.5c0,0-5.8,14.1-7.3,16.4c-1.9,3-0.8,8.1,0.1,11.7
	c0.1,0.5,0.2,1,0.3,1.5c-2.3,0.6-3-0.8-3.8-2.2c-0.9-1.6-1.9-3.2-5.1-2.5c-1.2,0.3-2.5,0.6-3.7,1.1c-4.1,1.4-7.9,2.7-11.9-1.1
	c-0.6-0.6-1.1-2.5,1.1-3.3C116.2,125.1,124.3,120.7,125.6,119z"/>
<path class="st0" d="M225.9,68.6c1.3,0.2,2.6-0.1,3.6-0.9c1-0.8,1.7-1.9,1.9-3.2l1.7-11.1l-9.9-4.6L221.8,63
	c-0.2,1.3,0.1,2.6,0.9,3.6C223.5,67.7,224.6,68.4,225.9,68.6z"/>
<path class="st0" d="M230,39.5l7.3-1.4c0.4-0.1,0.9-0.1,1.3,0c0.4,0.1,0.9,0.3,1.2,0.5c0.4,0.3,0.7,0.6,0.9,1
	c0.2,0.4,0.4,0.8,0.5,1.3c0.1,0.4,0.1,0.9,0,1.4c-0.1,0.4-0.3,0.9-0.5,1.2c-0.3,0.4-0.6,0.7-1,0.9c-0.4,0.2-0.8,0.4-1.3,0.5
	l-7.7,1.4L230,39.5z"/>
<path class="st0" d="M227.3,46.7L220,48c-0.5,0.1-0.9,0.1-1.4,0c-0.5-0.1-0.9-0.3-1.3-0.5c-0.4-0.3-0.7-0.6-1-1
	c-0.3-0.4-0.4-0.8-0.5-1.3c-0.1-0.5-0.1-0.9,0-1.4c0.1-0.5,0.3-0.9,0.6-1.3c0.3-0.4,0.6-0.7,1-0.9c0.4-0.2,0.8-0.4,1.3-0.5l7.7-1.4
	L227.3,46.7z"/>
<path class="st0" d="M232,56.6c2.5-0.5,4.8-1.9,6.3-4.1c1.5-2.1,2-4.8,1.6-7.3l-2.2-11.7c-0.5-2.5-2-4.8-4.1-6.2
	c-2.1-1.5-4.7-2-7.3-1.6c-2.5,0.5-4.8,1.9-6.3,4.1s-2,4.8-1.6,7.3l2.2,11.7c0.5,2.5,2,4.8,4.1,6.2C226.9,56.5,229.5,57.1,232,56.6z"
	/>
<path class="st4" d="M217.1,37c-0.2-3.9,0-6.9,2.8-9.5c3-2.8,12.7-4.8,17-2.7c2.2,1.1,5.1,2.5,3.6,5.5c-2.9,5.8-21.3-2.4-18.7,13.2
	c0.6,3.5,11.2,0.5,14.5-0.2c5.1-1.1,6.6,5.2,5.9,8.4c-1.2,5.8-6.2,7.6-11.6,6.5C220.6,56.4,217.5,46.3,217.1,37z"/>
<path class="st2" d="M199.2,88.4c-4.5,5-32.8,0.4-62,31.5L125,112c22.3-37.1,66.8-49,82.2-50.2"/>
<path class="st5" d="M199.2,88.4c-4.5,5-32.8,0.4-62,31.5L125,112c22.3-37.1,66.8-49,82.2-50.2"/>
<path class="st6" d="M230.2,71.2c-0.5-0.8-1-1.6-1.5-2.3l-3.3-0.4c-0.7,0.6-1.3,1.1-1.9,1.7c0.2,1.4,0.4,2.9,0.7,4.3
	c-4.4,22.4-13.7,35-32.6,47.4l-6,10.5l12-1.8c17.6-15.6,28.5-31.6,30.9-55.5C229.1,73.8,229.7,72.5,230.2,71.2z"/>
<path class="st1" d="M108.5,48.8h25.2c0.8,0,3.6,0,4.4-0.1c1.4,3.3,7.9,7,15.9,8.3c-4.7-3.3-8.1-7-7.9-11.1c0.9-0.4,3.3-4.3,5-7.3
	c1.7-3,2.6-6.4,2.6-9.8V20c0-5.3-2.1-10.4-5.9-14.1C144.1,2.1,139,0,133.7,0h-25.2c-5.3,0-10.4,2.1-14.1,5.9
	c-3.8,3.8-5.9,8.8-5.9,14.1v8.8c0,5.3,2.1,10.4,5.9,14.1C98.1,46.7,103.2,48.8,108.5,48.8z"/>
</svg>
