<svg width="82" height="106" viewBox="0 0 82 106" fill="none" xmlns="http://www.w3.org/2000/svg">
<path fill-rule="evenodd" clip-rule="evenodd" d="M3.66788 7.62029C5.25262 6.34011 6.97497 5.24447 8.80266 4.35354C13.4931 1.87908 18.646 0.422836 23.929 0.0791911C29.2119 -0.264454 34.5077 0.512984 39.4746 2.35955C47.7975 5.54144 53.2585 12.1916 58.4146 19.16C58.9197 19.8494 59.3616 20.56 59.8351 21.2812C59.9256 21.4297 60.0203 21.5676 60.1192 21.6949C60.7084 21.8222 61.1714 22.1191 61.1714 22.7555C63.0696 24.1715 64.8805 25.7051 66.5903 27.3481C71.6619 32.2058 76.8178 37.1695 79.059 44C76.8704 40.7248 74.4882 37.5864 71.925 34.6028L71.4831 34.0937C70.6834 33.2017 69.8227 32.368 68.9052 31.6012L68.5369 31.3042C68.2843 31.1027 68.0318 30.8906 67.7688 30.6997L67.4952 30.4875C66.201 29.4269 65.1277 28.0375 63.8651 26.9132C63.5705 26.6587 63.2758 26.4041 62.9707 26.1601C62.9528 26.1644 62.9349 26.1644 62.9181 26.1601C62.0974 25.5026 61.2451 24.8768 60.3823 24.2722C60.0666 24.2722 59.7194 23.8798 59.33 23.6146C59.0091 23.4333 58.7029 23.2275 58.4146 22.9995L56.9205 22.0025L55.4471 21.0691L55.1314 20.857L54.6158 20.5388C53.006 19.4782 51.354 18.5872 49.6915 17.6751C48.9122 17.4195 48.1695 17.0631 47.4819 16.6145V16.5614C44.0705 14.8612 40.4179 13.7051 36.6546 13.1356C37.1702 13.3053 38.5065 14.1114 38.8222 14.2492C39.7692 14.6629 40.7477 14.9917 41.7263 15.3099C43.4881 15.9229 45.2161 16.6314 46.9032 17.4311C49.8715 18.8619 52.7527 20.4698 55.5313 22.2464H55.5944C56.8069 22.8913 57.9548 23.6518 59.0249 24.5162C56.4996 24.7071 53.9319 25.3435 51.4066 25.6616C48.9018 25.9947 46.3783 26.1644 43.8517 26.1708C40.3872 26.2015 36.9245 25.9958 33.4875 25.5556C29.763 25.2766 26.1072 24.3953 22.6603 22.9464C18.5887 21.5358 14.7746 19.4612 11.3701 16.8054C9.71219 15.4234 8.19649 13.878 6.84556 12.1916L6.64563 11.9583C5.96896 11.5022 5.32227 11.0027 4.70957 10.4628C3.70997 9.61429 2.20531 8.95669 3.66788 7.62029Z" fill="#9996C7"/>
<path fill-rule="evenodd" clip-rule="evenodd" d="M0.429109 94.9991C0.359273 96.7641 0.325856 98.5252 0.349798 100.292C0.368408 101.638 0.00259799 103.681 0.81321 104.851C1.6551 106.068 3.4775 106.059 4.76947 105.925C11.6017 105.218 17.7201 103.075 22.7303 98.2846C30.4451 90.9083 34.5587 82.2649 36.6473 71.9271C38.1144 64.6653 36.7457 57.8538 31.6494 52.2637C39.2579 48.6277 47.6235 45.9719 56.0068 44.8049C60.1435 44.2293 64.2103 44.1644 68.3876 44.4597C71.0632 44.6493 73.73 44.8997 76.3851 45.2863C77.5389 45.454 79.2698 46.1017 80.3821 45.7009C81.6883 45.2307 81.8823 43.4785 80.8172 42.6463C79.9307 41.9537 78.1341 42.0034 77.0596 41.8258C75.2747 41.5314 73.4878 41.2533 71.6917 41.0339C68.7844 40.6779 65.8664 40.3843 62.938 40.2814C56.3584 40.0512 49.6977 41.2216 43.3757 42.933C31.2471 46.2161 20.3588 51.8909 11.63 61.0412C6.26261 66.6674 3.91839 73.2569 2.50223 80.7823C1.62055 85.4675 0.618002 90.225 0.429109 94.9991Z" fill="#C1BEE8"/>
</svg>
