<svg width="329" height="329" viewBox="0 0 329 329" fill="none" xmlns="http://www.w3.org/2000/svg">
<path d="M17 316.5C17 323.375 82.8209 329 164 329C245.179 329 311 323.375 311 316.5C311 309.625 245.179 304 164 304C82.8209 304 17 309.625 17 316.5Z" fill="#85A0D3"/>
<path d="M100.173 16.37C137.773 -10.13 190.573 -4.73001 223.873 34.57C242.073 56.07 249.473 85.67 268.273 106.67C289.473 130.37 314.873 153.37 324.573 185.67C334.773 219.97 325.873 259.37 302.973 285.57C275.173 317.47 234.173 307.87 195.473 307.37C36.9732 305.17 -80.7268 192.27 69.0732 52.97C81.5732 41.27 87.6732 25.07 100.173 16.37Z" fill="#CFDEFB"/>
<path d="M181.9 292.7L179.6 310.9L171.7 313.7L173.8 291.8L181.9 292.7Z" fill="white" stroke="#2E3374" stroke-width="1.5" stroke-miterlimit="10"/>
<path d="M146 292.7L143.7 310.9L135.8 313.7L137.9 291.8L146 292.7Z" fill="white" stroke="#2E3374" stroke-width="1.5" stroke-miterlimit="10"/>
<path d="M156.2 67.2L143.8 83L155.6 89.4L168.9 73L156.2 67.2Z" fill="white" stroke="#2E3374" stroke-width="1.5" stroke-miterlimit="10"/>
<path d="M183.6 69.5999C183.3 67.4999 183 65.2999 182.9 63.1999C182.8 61.4999 182.8 59.7999 182.9 57.9999C183.1 56.2999 183.1 54.5999 183 52.8999C183 52.9999 182.9 52.9999 182.9 53.0999C182.8 51.6999 182.6 50.1999 182.2 48.7999C181.1 45.2999 178.8 41.9999 175.3 40.7999C168.2 38.3999 159.5 45.0999 155.9 55.6999C152.3 66.3999 155.1 76.9999 162.2 79.3999C167.3 81.0999 173.1 78.1999 177.3 72.5999C179 72.4999 180.6 72.3999 182.2 71.9999C182.8 71.7999 183.3 71.5999 183.6 71.0999C183.8 70.6999 183.7 70.0999 183.6 69.5999Z" fill="white" stroke="#2E3374" stroke-width="1.5" stroke-miterlimit="10"/>
<path d="M189.5 52.1C191.8 51.3 193.7 49.4 194.2 47C194.6 44.6 193.3 41.9 191 41.2C189.3 40.6 187.2 41.1 185.7 40.2C184.8 39.6 184.1 38.7 183.5 37.9C179.8 33.2 173.8 30.6 167.9 31C162 31.4 156.4 34.9 153.5 40.1C151 44.4 150.4 49.6 150.8 54.5C151.2 59.4 152.7 64.3 154.2 69C156.6 64.2 159.1 59.3 161.5 54.6C162.1 53.5 162.6 52.4 163.6 51.8C164.6 51.2 166.2 51.2 166.7 52.2C167.1 52.9 167 53.7 167 54.4C167 55.2 167.1 56.1 167.8 56.4C168.5 56.8 169.5 56.3 170.1 55.8C171.5 54.7 172.8 53.5 174 52.1C174.7 51.2 175.4 50.1 176.5 49.7C177.7 49.2 178.7 49.8 179.7 50.4C181.1 51.2 182.6 52 184.3 52.3C186 52.7 187.8 52.7 189.5 52.1Z" fill="#D5401A" stroke="#2E3374" stroke-width="1.5" stroke-miterlimit="10"/>
<path d="M186.3 162.8C188.8 178.5 191.1 205.9 193.5 221.6C197.1 244.7 185.7 279.2 181.5 302.1C178.4 301.7 175.7 300.8 172.6 300.4C173.6 261.5 171.8 211.9 169.3 173C174.9 173.7 180.8 162.1 186.3 162.8Z" fill="white" stroke="#2E3374" stroke-width="1.5" stroke-miterlimit="10"/>
<path d="M148.2 173.7C151.4 173.9 154.5 171 157.8 171.2C161.7 171.5 165.9 172.2 169.6 173.3C173.3 174.4 177.6 171 181.3 169.7C182.1 176 180.7 187.2 179.5 193.4C176.7 208 173.5 222.4 169.8 236.8C167.8 244.7 161.8 252.3 158.7 259.9C157.4 263.1 156.1 266.4 154.9 269.7C152.4 276.5 148 295.6 145.5 302.4C142.4 302.1 139.3 302.1 136.2 301.8C136.5 294.9 139.2 275.2 139.5 268.4C140 257 145.7 245 150.2 234.4C147.9 223.5 147.9 211.6 147.9 200.4C148 190.5 148.1 183.5 148.2 173.7Z" fill="white" stroke="#2E3374" stroke-width="1.5" stroke-miterlimit="10"/>
<path d="M188.5 131.5C189.6 131.7 191 131.6 191.8 130.9C192.2 130.5 192.6 130 192.9 129.5C194 128.2 195.8 127.6 197.4 128C200.7 128.8 202.2 133 205.5 133.7C206 133.8 206.5 133.8 207 134C207.5 134.2 207.9 134.5 208 135C208.1 135.6 207.7 136.1 207.2 136.6C206.6 137.2 206 137.9 205.4 138.5C205.1 138.8 204.8 139.1 204.5 139.2C203.8 139.5 202.9 139.2 202.4 139.6C201.9 140 201.8 140.7 201.2 141.1C200.4 141.6 199.3 140.8 198.3 141.2C197.8 141.4 197.5 141.8 197.1 142.1C196.4 142.5 195.5 142.5 194.6 142.2C193.8 141.9 193.1 141.4 192.4 141C191.5 140.5 190.5 140.1 189.4 139.8C186.6 139.1 183.7 139.3 180.8 139.5C180.7 137.2 180.6 135 180.5 132.7C180.5 132.3 180.5 131.9 180.7 131.5C181.1 130.8 182.1 130.8 182.9 131C183.9 131.3 184.4 131.2 185.4 131C186.4 130.9 187.5 131.3 188.5 131.5Z" fill="white" stroke="#2E3374" stroke-width="1.5" stroke-miterlimit="10"/>
<path d="M195.9 140.1C195.6 139.6 195.7 138.9 196.2 138.6L214.3 126.7C214.8 126.4 215.5 126.5 215.8 127C216.1 127.5 216 128.2 215.5 128.5L197.4 140.4C196.9 140.8 196.2 140.6 195.9 140.1Z" fill="#2E3374" stroke="#2E3374" stroke-width="1.5" stroke-miterlimit="10"/>
<path d="M199.136 312.267C189.974 310.099 185.448 306.676 183.682 305.193C183.24 304.85 182.688 304.964 182.468 305.535L181.143 308.958C180.701 309.985 179.818 310.67 178.714 310.67L173.857 310.556C173.084 310.556 172.201 310.213 171.649 309.643L170.325 308.502C169.773 308.045 169 308.388 169 309.186V315.348V319H203V315.348C201.344 312.724 199.136 312.267 199.136 312.267Z" fill="#F8B243" stroke="#2E3374" stroke-width="1.5" stroke-miterlimit="10"/>
<path d="M159.462 318.978C151.959 314.041 148.759 309.652 147.655 307.787C147.434 307.348 146.772 307.348 146.441 307.677L144.124 310.31C143.462 311.079 142.359 311.408 141.476 310.969L137.062 309.323C136.29 309.104 135.628 308.555 135.297 307.787L134.524 306.361C134.193 305.812 133.421 305.922 133.2 306.47L131.214 311.847L130 315.028L160.786 326L162 322.818C161.338 320.185 159.462 318.978 159.462 318.978Z" fill="#F8B243" stroke="#2E3374" stroke-width="1.5" stroke-miterlimit="10"/>
<path d="M185.1 128.3C187.9 137.5 189.9 152.1 191.3 161.6C191.6 163.9 191.4 172.4 189.9 174C189 175 164.6 177.7 154.5 181C153.1 181.4 146.5 184 145.2 183.5C143.3 182.7 142.3 174.4 142.7 172.4C148.5 147.2 148.5 165.7 140 116.1C138.3 106.2 135 97 138.4 87.5C139.5 84.4 148.1 75.2 148.1 75.2C148.1 75.2 151 78.3 153.9 80C156.4 81.4 159.6 84 161.6 84.5C171.2 86.8 181.8 117.1 185.1 128.3Z" fill="#2E3374" stroke="#2E3374" stroke-width="1.5" stroke-miterlimit="10"/>
<path d="M218.9 46.3C218.9 33.3 233.2 22.7 250.9 22.7C268.6 22.7 282.9 33.3 282.9 46.3C282.9 59.3 268.6 69.9 250.9 69.9C247.6 69.9 244.3 69.5 241.3 68.8L229.7 78.3V64C223.1 59.7 218.9 53.3 218.9 46.3Z" fill="#8CA7D3"/>
<path d="M211.6 39.5999C211.6 28.9999 223.2 20.3999 237.6 20.3999C252 20.3999 263.6 28.9999 263.6 39.5999C263.6 50.1999 252 58.7999 237.6 58.7999C234.9 58.7999 232.2 58.4999 229.8 57.8999L220.4 65.5999V53.9999C215 50.3999 211.6 45.2999 211.6 39.5999Z" fill="white"/>
<path d="M163.2 199.1C163.9 199.1 163 196.7 163.4 196.5C163.6 196.4 163.8 196.9 164.6 197.8C165.6 199 167.2 200.4 167.8 200.3C168.4 200.2 168.2 199.4 168.1 199.1C168.5 199.8 170.9 202.3 171.5 201.6C172.1 200.8 169.9 197 169.2 195.5C168.5 193.9 167.6 189.6 167.8 189.3C168 189 170.3 190.5 171.3 191.2C172.3 191.8 174.1 191.9 174.4 191.1C174.8 190.2 172.7 188.9 170.4 187.1C168.2 185.4 165.8 183 164.7 181.8C164 181.1 162.4 177.9 161 175.1C159.5 176.3 157.3 178.8 153.9 178.7C156 181.7 157.5 183.7 157.8 184.2C158.7 185.9 158.3 188.8 159.2 191.9C160.1 194.5 162 199 163.2 199.1Z" fill="white" stroke="#2E3374" stroke-width="1.5" stroke-miterlimit="10"/>
<path d="M164.6 94.5C163.1 102.9 161.6 111.3 160 119.6C159.1 124.2 158.3 129 158.4 133.7C158.5 137.6 159.2 141.5 160 145.4C162.7 159.3 164.7 169.8 167.5 183.7C162.9 182.8 158.7 186.1 154.2 185.2C152.3 170.5 148.4 143.3 148.1 140.9C144.9 124.2 145.2 107 148.8 90.5L164.6 94.5Z" fill="#2E3374" stroke="#2E3374" stroke-width="1.5" stroke-miterlimit="10"/>
<path d="M25.8199 191.019C31.5378 190.714 38.6851 194.146 39.2869 200.478C39.7384 205.055 39.5879 209.633 40.265 214.286C40.8407 217.944 41.9566 221.493 43.5753 224.814C45.08 228.018 48.2399 230.764 49.0675 234.197C49.534 236.668 49.3524 239.219 48.5409 241.597C47.638 244.19 48.1647 243.962 49.8951 246.174C53.431 250.337 56.3691 254.985 58.6223 259.982C61.7822 267.381 63.8135 275.925 62.685 284.012C62.5345 285.003 62.3841 288.742 60.9546 288.97C59.3747 289.276 60.127 287.14 60.2023 286.453C60.7289 282.105 61.1803 278.367 60.5785 273.942C58.0957 257.006 46.1333 245.792 38.3089 231.374C37.8575 230.611 36.9547 228.857 36.3528 227.713C35.3747 225.882 34.3215 222.372 33.0425 220.999C30.4845 218.406 32.8167 223.593 33.3434 224.585C33.9344 225.838 34.5873 227.06 35.2995 228.247C38.2337 233.281 41.4688 238.85 44.5534 244.114C31.4625 247.166 22.2086 231.145 18.7478 220.694C15.7384 211.921 12.2776 191.705 25.8199 191.019Z" fill="#85A0D3"/>
<path d="M103.068 175.053C93.3644 175.814 87.1483 182.204 84.2677 191.18C82.6757 195.973 82.5241 200.993 81.6903 205.938C80.4016 213.393 77.5967 219.022 72.1387 224.347C70.5791 225.849 69.2733 227.597 68.2725 229.52C66.4469 231.347 64.9583 233.485 63.8758 235.834C62.4355 239.028 62.0564 242.832 63.7242 246.027C64.4007 247.315 65.3289 248.454 66.4532 249.374C62.0412 258.574 59.8346 268.681 60.0097 278.889C60.1613 284.975 60.4645 291.137 60.8435 297.222C60.9193 298.896 61.45 301.558 62.2838 298.82C63.0419 296.31 62.1322 292.354 61.9806 289.767C61.6016 276.988 61.2226 265.349 66.4532 253.406C66.9838 252.189 67.5903 250.895 68.1967 249.678L68.2725 249.602C68.2926 249.602 68.3119 249.61 68.3261 249.624C68.3404 249.639 68.3483 249.658 68.3483 249.678C68.4242 249.602 68.4242 249.526 68.5 249.45C68.6861 249.247 68.8396 249.016 68.9548 248.766C69.3961 248.225 69.7306 247.606 69.9403 246.94C73.2597 241.658 76.8528 236.554 80.7048 231.65C80.7048 231.65 84.7983 226.02 84.1919 229.139C83.8886 230.661 80.8564 233.551 79.5677 235.149C76.4936 239.152 73.6342 243.316 71.0016 247.624C70.4797 248.203 70.0686 248.874 69.7887 249.602C69.5612 249.983 69.4096 250.363 69.1822 250.743C78.5822 253.862 85.9354 247.548 90.9386 240.246C92.3821 238.18 94.0613 236.291 95.9418 234.616C99.2015 231.954 102.689 231.498 106.479 230.128C116.94 226.553 121.413 212.936 122.777 202.895C124.445 191.408 116.637 173.912 103.068 175.053Z" fill="white"/>
<path d="M84.0816 143.14C74.0291 153.472 69.1947 167.83 65.3579 181.353C61.0607 196.472 58.2214 211.742 58.1446 227.392C58.0679 237.724 57.761 248.057 58.3749 258.313C58.6051 261.96 58.9888 265.606 59.5259 269.253C59.6027 269.557 60.9072 277.61 62.135 275.71C62.8256 274.647 60.8304 267.353 60.6002 266.138C59.8069 259.279 59.4736 252.376 59.6027 245.474C59.6794 234.078 59.3724 222.834 60.5235 211.514C60.6353 209.804 60.866 208.103 61.2141 206.424C61.6745 204.677 61.0606 205.437 62.5186 204.753C63.9766 204.069 65.5881 204.145 66.9693 203.309C72.5711 199.966 75.4104 191.306 77.7124 185.608C80.1467 179.056 81.9453 172.289 83.084 165.399C83.9922 160.397 84.6325 155.35 85.0024 150.281C85.1559 148.685 85.1559 147.014 85.4628 145.419C85.5396 144.963 86 144.279 86 143.899C86 143.14 85.4628 142.608 85.4628 142C84.9567 142.322 84.4928 142.705 84.0816 143.14Z" fill="#85A0D3"/>
<path d="M30 281C30 289.222 33.2661 297.107 39.0797 302.92C44.8933 308.734 52.7783 312 61 312C69.2217 312 77.1067 308.734 82.9203 302.92C88.7339 297.107 92 289.222 92 281" fill="#CFDEFB"/>
<path d="M82.1357 254.032C89.7242 253.509 98.2143 259.552 101.896 265.892C104.826 270.964 104.375 277.677 102.497 283.123C101.295 286.778 98.5899 291.925 94.1571 291.999C88.5972 292.074 88.2967 285.211 88.2215 281.258C88.0713 275.962 87.3951 271.337 83.1876 267.757C82.6617 267.309 82.1358 266.862 81.6098 266.489C81.0839 266.116 80.6331 265.743 80.1823 265.37L79.9569 265.146C78.4542 263.878 76.8764 262.61 76.7261 260.521C76.4256 257.538 78.1537 257.015 80.7082 257.538C80.9192 257.58 81.1221 257.656 81.3093 257.761C82.6617 258.283 85.4416 259.328 84.9157 258.06C84.4483 257.471 83.7801 257.073 83.0373 256.941C80.6331 256.717 77.778 256.419 77.0267 256.568C68.2361 258.507 64.7799 270.591 63.8783 278.349C63.8032 279.169 63.7281 279.99 63.6529 280.885H62C62.0513 278.859 62.2522 276.84 62.6011 274.843C63.8783 267.235 67.9355 255.971 76.8764 254.777C77.8765 254.696 78.8817 254.696 79.8817 254.777C80.5621 254.353 81.3351 254.098 82.1357 254.032Z" fill="#85A0D3"/>
</svg>
