<?xml version="1.0" encoding="UTF-8"?>
<svg fill="none" viewBox="0 0 438 224" xmlns="http://www.w3.org/2000/svg">
<path d="m26.362 81.952c2.4259-2.9613 4.1429-6.4377 5.02-10.164s0.891-7.6035 0.0407-11.336c-0.6445-2.7086-0.961-5.4849-0.9426-8.2692 0.251-6.07 2.3451-11.92 6.0034-16.77 3.3068-4.4711 4.982-9.9402 4.7464-15.496v-1.2734c0.3924-5.1495 2.7445-9.9526 6.5719-13.42 3.8273-3.4674 8.8386-5.3352 14.002-5.2187 5.1956 0.18985 10.105 2.4262 13.659 6.2213 3.5535 3.7952 5.4624 8.8413 5.3105 14.038v1.2404c-0.5605 5.4946 0.9038 11.005 4.118 15.496 3.3611 5.0501 5.0238 11.041 4.7465 17.101-0.0843 2.7969-0.5063 5.5735-1.2569 8.2691-1.1354 3.6796-1.3841 7.5756-0.7259 11.37 0.6583 3.7941 2.2048 7.3786 4.5132 10.461 3.1301 4.3954 5.3311 9.3829 6.4685 14.658 1.1374 5.2747 1.1874 10.726 0.1468 16.021-1.7661 10.211-7.3483 19.368-15.615 25.616s-18.6 9.12-28.905 8.032c-10.305-1.087-19.811-6.052-26.592-13.887-6.7808-7.836-10.329-17.957-9.9252-28.311-0.0129-8.8744 3.0297-17.483 8.6164-24.378z" fill="#AFDADD"/>
<path d="m60.845 135.4c-0.2501 9e-3 -0.4994-0.034-0.7323-0.125s-0.4445-0.23-0.6215-0.407c-0.1769-0.177-0.3155-0.388-0.4069-0.621-0.0915-0.233-0.1339-0.483-0.1246-0.733v-84.477c0.0441-0.4717 0.2627-0.91 0.6129-1.229 0.3503-0.319 0.8069-0.4958 1.2807-0.4958 0.4737 0 0.9304 0.1768 1.2807 0.4958 0.3502 0.319 0.5688 0.7573 0.6129 1.229v84.477c-0.0351 0.492-0.2471 0.953-0.5969 1.3s-0.8134 0.555-1.305 0.586z" fill="#fff"/>
<path d="m60.216 100.61c-0.6285 0-0.9427-0.314-1.6538-0.6282l-14.223-14.24c-0.3138-0.4077-0.4839-0.9078-0.4839-1.4223s0.1701-1.0146 0.4839-1.4223c0.4111-0.3061 0.9099-0.4714 1.4223-0.4714 0.5125 0 1.0113 0.1653 1.4223 0.4714l14.24 14.24c0.3061 0.411 0.4714 0.9098 0.4714 1.4223 0 0.5124-0.1653 1.0112-0.4714 1.4223 0.0661 0.3142-0.5788 0.6282-1.2073 0.6282z" fill="#fff"/>
<path d="m60.844 114.22c-0.6285 0-0.9427-0.314-1.5712-0.645-0.3138-0.408-0.4839-0.908-0.4839-1.422 0-0.515 0.1701-1.015 0.4839-1.422l14.223-14.223c0.4114-0.3126 0.9139-0.4818 1.4305-0.4818 0.5167 0 1.0192 0.1692 1.4306 0.4818 0.306 0.411 0.4713 0.9098 0.4713 1.4223 0 0.5124-0.1653 1.0112-0.4713 1.4222l-14.24 14.223c-0.3473 0.342-0.7923 0.568-1.2734 0.645z" fill="#fff"/>
<path d="m60.53 73.717c-0.6285 0-0.9427-0.3142-1.6539-0.6285l-14.223-14.239c-0.3061-0.4111-0.4714-0.9099-0.4714-1.4223 0-0.5125 0.1653-1.0113 0.4714-1.4223 0.411-0.3061 0.9098-0.4714 1.4223-0.4714s1.0113 0.1653 1.4223 0.4714l14.24 14.239c0.306 0.4111 0.4713 0.9099 0.4713 1.4223 0 0.5125-0.1653 1.0113-0.4713 1.4223-0.1452 0.1844-0.3279 0.3359-0.536 0.4442-0.2082 0.1084-0.437 0.1712-0.6713 0.1843z" fill="#fff"/>
<path d="m61.192 87.013c-0.6284 0-0.9427-0.3142-1.5711-0.645-0.3061-0.411-0.4714-0.9098-0.4714-1.4223s0.1653-1.0113 0.4714-1.4223l14.239-14.223c0.4078-0.3138 0.9078-0.484 1.4223-0.484s1.0146 0.1702 1.4223 0.484c0.3061 0.411 0.4714 0.9098 0.4714 1.4223 0 0.5124-0.1653 1.0112-0.4714 1.4223l-14.239 14.223c-0.1218 0.224-0.3089 0.4056-0.5363 0.5208-0.2275 0.1152-0.4846 0.1585-0.7372 0.1242z" fill="#fff"/>
<path d="m17.812 164.51h81.021l17.812-48.077h-116.64l17.812 48.077z" fill="#15ADC2"/>
<path d="m438 223.4h-233.52c-15.381-16.869-17.034-38.534 0-51.268h233.52v6.119h-7.443v38.402h7.443v6.747z" fill="#15ADC2"/>
<path d="m430.56 216.66h-221.78c-10.75-8.435-10.915-30.596 0-38.369h221.78v38.369z" fill="#D9EDEF"/>
<path d="m181.14 172.14h233.52c15.381-16.869 17.034-38.534 0-51.268h-233.52v6.119h7.393v38.402h-7.442v6.78l0.049-0.033z" fill="#AFDADD"/>
<path d="m188.54 165.39h221.78c10.749-8.434 10.915-30.595 0-38.368h-221.78v38.368z" fill="#D9EDEF"/>
<path d="m217.78 68.192s-18.854 0-61.688 60.365c14.719 16.042 30.927 0 30.927 0l30.761-60.365z" fill="#fff" stroke="#2E3374" stroke-miterlimit="10" stroke-width="1.5"/>
<path d="m230.01 20.851s13.396 3.8038 19.019 23.98 24.311 14.884 33.077 38.204c8.765 23.319-15.712 48.953-42.504 41.18s-55.899-27.454-55.899-27.454-5.623-26.461 12.9-38.865c18.523-12.404 2.646-20.673 12.734-30.761" fill="#2E3374"/>
<path d="m230.01 20.851s13.396 3.8038 19.019 23.98 24.311 14.884 33.077 38.204c8.765 23.319-15.712 48.953-42.504 41.18s-55.899-27.454-55.899-27.454-5.623-26.461 12.9-38.865c18.523-12.404 2.646-20.673 12.734-30.761" stroke="#2E3374" stroke-miterlimit="10" stroke-width="1.7"/>
<path d="m217.78 69.002s-28.446 13.065-28.446 42.172c0 29.438-10.75 48.623-10.75 48.623l55.073 38.038s31.588-72.934 27.949-104.19c-3.307-25.304-35.226-24.642-35.226-24.642" fill="#fff"/>
<path d="m217.78 69.002s-28.446 13.065-28.446 42.172c0 29.438-10.75 48.623-10.75 48.623l55.073 38.038s31.588-72.934 27.949-104.19c-3.307-25.304-35.226-24.642-35.226-24.642" stroke="#2E3374" stroke-miterlimit="10" stroke-width="1.7"/>
<path d="m172.3 131.02h-85.172l-17.365-62.019h85.172l17.365 62.019z" fill="#fff" stroke="#2E3374" stroke-miterlimit="10" stroke-width="1.7"/>
<path d="m191.81 126.39h-85.172v4.631h85.172v-4.631z" fill="#fff" stroke="#2E3374" stroke-miterlimit="10" stroke-width="1.7"/>
<path d="m225.22 77.792c0.978 0.0043 1.948-0.1852 2.853-0.5576 0.905-0.3725 1.727-0.9205 2.419-1.6124 0.692-0.692 1.24-1.5142 1.612-2.4191 0.373-0.9049 0.562-1.8746 0.558-2.8532v-14.388h-14.885v14.388c-4e-3 0.9786 0.186 1.9483 0.558 2.8532 0.373 0.9049 0.921 1.7271 1.612 2.4191 0.692 0.6919 1.515 1.2399 2.42 1.6124 0.904 0.3724 1.874 0.5619 2.853 0.5576z" fill="#fff" stroke="#2E3374" stroke-miterlimit="10" stroke-width="1.7"/>
<path d="m170.97 137.8s41.842 21.334 60.696 26.461 40.849-75.415 23.021-85.718c-17.828-10.303-24.476 68.469-24.476 68.469s-56.76-18.854-65.36-18.854-8.765 1.488-8.765 7.111 14.884 2.531 14.884 2.531z" fill="#fff" stroke="#2E3374" stroke-miterlimit="10" stroke-width="1.7"/>
<path d="m15.678 222.97h28.115l6.9461-8.6h-11.742c-20.177 0-23.319 8.6-23.319 8.6z" fill="#fff" stroke="#2E3374" stroke-miterlimit="10" stroke-width="1.7"/>
<path d="m206.2 222.97c8.765-0.166 12.569-9.592 6.946-16.208-23.816-28.115-73.761-82.526-104.52-82.526-41.512 0-69.296 90.134-69.296 90.134h11.742l48.292-59.538 72.107 60.53s7.442 7.773 13.231 7.773h22.823" fill="#D5401A"/>
<path d="m206.2 222.97c8.765-0.166 12.569-9.592 6.946-16.208-23.816-28.115-73.761-82.526-104.52-82.526-41.512 0-69.296 90.134-69.296 90.134h11.742l48.292-59.538 72.107 60.53s7.442 7.773 13.231 7.773h22.823" stroke="#2E3374" stroke-miterlimit="10" stroke-width="1.7"/>
<path d="m42.305 222.97h28.115l6.9461-8.6h-11.742c-20.177 0-23.319 8.6-23.319 8.6z" fill="#fff" stroke="#2E3374" stroke-miterlimit="10" stroke-width="1.7"/>
<path d="m135.08 124.24c-41.512 0-69.296 90.134-69.296 90.134h11.742l48.292-59.538s57.388 68.138 82.857 68.138 25.138-25.138 25.138-25.138-57.222-73.596-98.733-73.596z" fill="#D5401A" stroke="#2E3374" stroke-miterlimit="10" stroke-width="1.7"/>
<path d="m236.3 41.904v-0.9923c0-1.8026-0.355-3.5876-1.045-5.253s-1.701-3.1786-2.975-4.4533c-1.275-1.2746-2.788-2.2857-4.454-2.9756-1.665-0.6898-3.45-1.0448-5.253-1.0448-1.802 0-3.587 0.355-5.253 1.0448-1.665 0.6899-3.178 1.701-4.453 2.9756-1.275 1.2747-2.286 2.7879-2.976 4.4533-0.689 1.6654-1.044 3.4504-1.044 5.253v7.9384c-0.04 3.5248 1.283 6.9288 3.692 9.5019s5.719 4.1166 9.239 4.3086 6.978-0.9824 9.653-3.2782 4.36-5.5356 4.704-9.0438h0.165c0.545-0.017 1.08-0.1422 1.576-0.3684s0.941-0.5489 1.311-0.9492c0.369-0.4003 0.655-0.8702 0.841-1.3822 0.186-0.5121 0.268-1.0561 0.241-1.6002 0.025-0.5356-0.059-1.0705-0.248-1.5724s-0.477-0.9601-0.849-1.3469c-0.371-0.3868-0.817-0.6939-1.311-0.9029-0.494-0.2089-1.025-0.3152-1.561-0.3124z" fill="#fff" stroke="#2E3374" stroke-miterlimit="10" stroke-width="1.7"/>
<path d="m222.57 18.089s-21.5 0.4961-21.5 14.554c0 14.058 31.423 3.6384 31.423 3.6384l3.969 8.2691h2.481c-0.165 0 6.45-26.461-16.373-26.461z" fill="#2E3374" stroke="#2E3374" stroke-miterlimit="10" stroke-width="1.7"/>
</svg>
