<svg width="296" height="297" viewBox="0 0 296 297" fill="none" xmlns="http://www.w3.org/2000/svg">
<path d="M0 0H296V297H0V0Z" fill="#2E3374"/>
<path fill-rule="evenodd" clip-rule="evenodd" d="M42.1552 190.966C41.3161 191.645 40.4932 192.34 39.6904 193.062C39.0785 193.612 37.9957 194.271 37.776 195.105C37.5477 195.971 38.2686 196.782 38.838 197.306C41.8494 200.076 45.2403 201.95 49.4131 202.261C55.8382 202.741 61.4299 201.1 67.0046 197.872C70.9204 195.604 73.5143 192.249 74.0808 187.72C78.7443 189.658 83.2547 192.329 87.0876 195.608C88.9788 197.226 90.6076 199.018 92.1143 201.005C93.0792 202.278 94.0126 203.571 94.8788 204.914C95.2554 205.497 95.6381 206.532 96.2597 206.868C96.9895 207.263 97.8715 206.644 97.8354 205.833C97.8053 205.158 97.076 204.374 96.7352 203.822C96.1687 202.906 95.594 201.995 94.9887 201.103C94.0092 199.66 92.9969 198.237 91.8928 196.886C89.4116 193.851 86.2545 191.344 82.9818 189.206C76.7034 185.105 69.8129 182.521 62.1734 182.302C57.476 182.167 53.5244 183.772 49.5073 186.169C47.0064 187.661 44.4246 189.128 42.1552 190.966Z" fill="#DDE3E9"/>
<path fill-rule="evenodd" clip-rule="evenodd" d="M157.964 88.1949C161.927 84.1135 165.904 80.0829 170.331 76.4891C172.941 74.3714 175.691 72.4456 178.384 70.4377C178.073 70.7098 177.769 70.99 177.471 71.2769C178.312 70.7062 179.412 70.3837 180.304 69.8554C181.298 69.2662 182.248 68.5922 183.18 67.9128C185 66.5869 186.792 65.2359 188.663 63.9792C190.746 62.5792 192.906 61.2855 195.025 59.9382C196.824 58.7948 198.645 57.5433 200.569 56.6086C201.618 56.0992 202.669 55.4952 203.722 54.9639C204.074 54.7861 207.651 52.528 207.642 52.5212C207.444 52.3722 205.644 53.2178 205.366 53.3315C204.553 53.6636 203.776 54.0608 202.994 54.4567C203.423 53.6105 203.763 52.7215 203.947 51.7857C204.005 51.4968 204.462 49.394 204.228 49.2176C204.111 49.1295 202.97 52.8917 202.912 53.2534C202.864 53.5472 202.871 53.9703 202.775 54.2485C202.62 54.6979 202.628 54.5622 202.285 54.8153C201.659 55.2792 200.826 55.5691 200.148 55.957C199.782 56.1613 198.649 56.9713 197.967 57.2022C195.902 58.205 193.809 59.7478 191.847 61.0287C192.362 60.061 192.754 59.0493 193.04 57.989C193.108 57.7373 193.841 55.479 193.663 55.345C193.463 55.1941 192.066 58.643 191.983 58.9696C191.829 59.576 191.797 60.251 191.605 60.8412C191.394 61.4889 190.734 61.7184 190.14 62.096C187.954 63.485 185.843 64.9609 183.767 66.5045C181.502 62.4761 184.114 57.6115 186.315 54.2315C187.901 51.7956 190.037 49.7071 192.293 47.8839C195.302 45.4505 198.746 43.5066 202.185 41.7284C206.193 39.6565 210.524 38.3728 215.027 37.7797C217.383 37.4695 219.792 37.4782 222.171 37.5777C223.333 37.6262 224.449 37.7801 225.563 38.1591C226.064 38.3302 226.55 38.5457 227.022 38.787C227.382 38.9704 228.25 39.164 228.457 39.4372C230.157 41.6499 231.027 43.8548 230.894 46.6353C230.768 49.2674 229.937 51.9009 228.809 54.2486C227.553 56.863 225.937 59.2357 223.823 61.2272C222.211 62.7466 220.409 64.0689 218.618 65.3739C212.249 70.0156 204.174 74.0525 195.925 73.0154C193.255 72.6798 190.715 71.746 188.342 70.477C187.783 70.178 187.227 69.8756 186.699 69.5225C186.343 69.2846 185.392 68.2121 185.034 68.1731C184.543 68.1197 183.486 69.1178 183.025 69.4217C179.527 71.7312 176.12 74.1659 172.784 76.699C169.235 79.3942 165.86 82.2726 162.585 85.2864C161.192 86.5683 159.808 87.8531 158.455 89.1781C158.14 89.4863 157.37 90.6215 156.799 90.6729C156.438 90.7054 156.194 90.3971 156.246 90.063C156.335 89.482 157.558 88.6128 157.964 88.1949Z" fill="#C1DEE2"/>
<path fill-rule="evenodd" clip-rule="evenodd" d="M222.141 77.464C222.749 76.8575 223.432 76.3103 224.234 75.92C224.437 75.8214 225.948 75.1605 226.046 75.3056C226.275 75.6433 222.323 77.2704 222.141 77.464ZM214.978 73.4126C214.983 73.4382 214.46 74.2566 214.317 74.5083C214.013 75.0433 213.733 75.5887 213.47 76.1351C213.86 75.17 214.261 74.2748 214.978 73.4126ZM251.608 80.0746C252.113 80.2242 252.719 79.6345 252.065 79.4893C251.535 79.3727 251.561 79.3452 251.324 78.9525C251.131 78.6336 251.012 78.2447 250.842 77.91C250.483 77.2002 250.075 76.5233 249.575 75.889C248.503 74.5293 247.196 73.3576 245.731 72.3702C243.174 70.6473 240.306 69.0725 237.265 68.2814C232.429 67.0234 226.925 66.9455 222.081 67.8179C219.081 68.358 216.34 69.297 214.348 71.5211C213.352 72.6325 212.571 73.9347 212.229 75.3685C212.14 75.7433 212.157 76.1601 212.045 76.527C211.874 77.0912 211.949 76.941 211.233 77.0508C210.45 77.1705 209.668 77.2929 208.887 77.4173C206.84 77.7433 204.782 78.0893 202.788 78.6184C202.132 78.7923 201.49 79.005 200.863 79.2522C200.389 79.4389 198.5 80.0253 198.271 80.5926C197.889 81.5365 199.169 81.1086 199.566 80.903C199.915 80.7229 200.272 80.5549 200.635 80.4003C201.549 80.011 202.501 79.7099 203.474 79.4702C204.526 79.2111 205.599 79.0177 206.668 78.824C207.665 78.6436 208.666 78.4793 209.668 78.3225C210.225 78.2352 210.782 78.1505 211.34 78.0657C211.53 78.0367 211.866 77.885 211.84 78.1129C213.012 77.905 214.279 77.935 215.472 77.8776C216.933 77.8074 218.4 77.7499 219.867 77.792C220.924 77.8224 221.983 77.8862 223.035 78.0171C223.65 78.0936 224.255 78.2055 224.858 78.3471C225.19 78.425 226.496 78.59 226.677 78.856C226.599 78.7417 225.157 78.8525 224.974 78.846C224.239 78.8207 223.511 78.7538 222.779 78.6785C221.422 78.5389 220.064 78.4659 218.702 78.4766C218.708 78.6966 219.638 79.0887 219.865 79.2345C220.374 79.5617 220.861 79.9186 221.316 80.31C222.118 80.9994 223.077 81.8534 223.631 82.6702C223.468 82.4295 222.662 82.1162 222.376 81.9324C221.918 81.6376 221.469 81.3232 221.045 80.9871C220.653 80.6767 220.287 80.3415 219.927 79.9992C219.567 79.6566 219.079 78.9443 218.606 78.7162C218.578 78.7024 218.372 78.8523 218.255 78.8013C218.137 78.75 217.99 78.4933 217.96 78.4828C217.52 78.3265 216.684 78.5209 216.222 78.5407C215.022 78.5915 213.823 78.6581 212.625 78.7189C212.253 78.7377 211.938 78.6599 211.797 78.9121C211.648 79.1812 211.922 79.8883 212 80.1814C212.289 81.2697 212.802 82.2455 213.61 83.0886C215.124 84.668 216.99 85.7208 219.098 86.4251C227.173 89.1226 235.763 90.2029 243.836 87.3969C247.178 86.235 252.211 84.1591 251.608 80.0746Z" fill="#89C5CC"/>
<path d="M82.5215 69.3903C82.5215 66.9263 84.5139 64.9287 86.9717 64.9287H166.519C168.976 64.9287 170.969 66.9262 170.969 69.3903V228.893C170.969 231.358 168.976 233.355 166.519 233.355H86.9717C84.5139 233.355 82.5215 231.358 82.5215 228.893V69.3903Z" fill="#F2F2F2"/>
<path fill-rule="evenodd" clip-rule="evenodd" d="M126.746 222.064C131.423 222.064 135.214 218.483 135.214 214.066C135.214 209.649 131.423 206.068 126.746 206.068C122.069 206.068 118.277 209.649 118.277 214.066C118.277 218.483 122.069 222.064 126.746 222.064Z" fill="white"/>
<path fill-rule="evenodd" clip-rule="evenodd" d="M119.218 76.2197C119.738 76.2197 120.159 75.7985 120.159 75.2788C120.159 74.7592 119.738 74.3379 119.218 74.3379C118.699 74.3379 118.277 74.7592 118.277 75.2788C118.277 75.7985 118.699 76.2197 119.218 76.2197Z" fill="white"/>
<path d="M122.98 75.2788C122.98 74.7592 123.502 74.3379 124.145 74.3379H134.048C134.691 74.3379 135.213 74.7592 135.213 75.2788C135.213 75.7985 134.691 76.2197 134.048 76.2197H124.145C123.502 76.2197 122.98 75.7985 122.98 75.2788Z" fill="white"/>
<path d="M90.0488 83.1549C90.0488 81.9231 91.0522 80.9246 92.2898 80.9246H161.2C162.438 80.9246 163.441 81.9231 163.441 83.1549V108.804C163.441 110.036 162.438 111.034 161.2 111.034H92.2898C91.0522 111.034 90.0488 110.036 90.0488 108.804V83.1549Z" fill="white"/>
<path d="M111.689 91.1353C111.689 90.1729 112.451 89.3928 113.391 89.3928H151.389C152.329 89.3928 153.09 90.1729 153.09 91.1353V92.355C153.09 93.3173 152.329 94.0975 151.389 94.0975H113.391C112.451 94.0975 111.689 93.3173 111.689 92.355V91.1353Z" fill="#DDE3E9"/>
<path d="M111.689 98.6626C111.689 97.7003 112.437 96.9202 113.36 96.9202H137.306C138.228 96.9202 138.976 97.7003 138.976 98.6626V99.8824C138.976 100.845 138.228 101.625 137.306 101.625H113.36C112.437 101.625 111.689 100.845 111.689 99.8824V98.6626Z" fill="#DDE3E9"/>
<path fill-rule="evenodd" clip-rule="evenodd" d="M102.28 102.566C105.917 102.566 108.866 99.617 108.866 95.9793C108.866 92.3417 105.917 89.3928 102.28 89.3928C98.6422 89.3928 95.6934 92.3417 95.6934 95.9793C95.6934 99.617 98.6422 102.566 102.28 102.566Z" fill="#C5CFD6"/>
<path d="M90.0488 117.038C90.0488 115.801 91.0522 114.798 92.2898 114.798H161.2C162.438 114.798 163.441 115.801 163.441 117.038V136.081C163.441 137.318 162.438 138.321 161.2 138.321H92.2898C91.0522 138.321 90.0488 137.318 90.0488 136.081V117.038Z" fill="white"/>
<path d="M111.689 123.67C111.689 122.927 112.451 122.325 113.391 122.325H151.389C152.329 122.325 153.09 122.927 153.09 123.67V123.804C153.09 124.546 152.329 125.148 151.389 125.148H113.391C112.451 125.148 111.689 124.546 111.689 123.804V123.67Z" fill="#DDE3E9"/>
<path d="M111.689 129.763C111.689 128.773 112.437 127.971 113.36 127.971H137.306C138.228 127.971 138.976 128.773 138.976 129.763V129.942C138.976 130.932 138.228 131.735 137.306 131.735H113.36C112.437 131.735 111.689 130.932 111.689 129.942V129.763Z" fill="#DDE3E9"/>
<path fill-rule="evenodd" clip-rule="evenodd" d="M102.28 133.616C105.917 133.616 108.866 130.667 108.866 127.03C108.866 123.392 105.917 120.443 102.28 120.443C98.6422 120.443 95.6934 123.392 95.6934 127.03C95.6934 130.667 98.6422 133.616 102.28 133.616Z" fill="#C5CFD6"/>
<path d="M90.0488 145.266C90.0488 144.029 91.0522 143.026 92.2898 143.026H161.2C162.438 143.026 163.441 144.029 163.441 145.266V164.309C163.441 165.546 162.438 166.549 161.2 166.549H92.2898C91.0522 166.549 90.0488 165.546 90.0488 164.309V145.266Z" fill="white"/>
<path d="M111.689 151.405C111.689 150.415 112.451 149.612 113.391 149.612H151.389C152.329 149.612 153.09 150.415 153.09 151.405V151.584C153.09 152.574 152.329 153.376 151.389 153.376H113.391C112.451 153.376 111.689 152.574 111.689 151.584V151.405Z" fill="#DDE3E9"/>
<path d="M111.689 157.05C111.689 156.06 112.437 155.258 113.36 155.258H137.306C138.228 155.258 138.976 156.06 138.976 157.05V157.229C138.976 158.219 138.228 159.022 137.306 159.022H113.36C112.437 159.022 111.689 158.219 111.689 157.229V157.05Z" fill="#DDE3E9"/>
<path fill-rule="evenodd" clip-rule="evenodd" d="M102.28 160.903C105.917 160.903 108.866 157.955 108.866 154.317C108.866 150.679 105.917 147.73 102.28 147.73C98.6422 147.73 95.6934 150.679 95.6934 154.317C95.6934 157.955 98.6422 160.903 102.28 160.903Z" fill="#AFB9C5"/>
<path d="M90.0488 172.553C90.0488 171.316 91.0522 170.313 92.2898 170.313H161.2C162.438 170.313 163.441 171.316 163.441 172.553V191.596C163.441 192.833 162.438 193.836 161.2 193.836H92.2898C91.0522 193.836 90.0488 192.833 90.0488 191.596V172.553Z" fill="white"/>
<path d="M111.689 179.633C111.689 178.643 112.451 177.84 113.391 177.84H151.389C152.329 177.84 153.09 178.643 153.09 179.633V179.812C153.09 180.802 152.329 181.604 151.389 181.604H113.391C112.451 181.604 111.689 180.802 111.689 179.812V179.633Z" fill="#DDE3E9"/>
<path d="M111.689 185.278C111.689 184.288 112.437 183.486 113.36 183.486H137.306C138.228 183.486 138.976 184.288 138.976 185.278V185.457C138.976 186.447 138.228 187.25 137.306 187.25H113.36C112.437 187.25 111.689 186.447 111.689 185.457V185.278Z" fill="#DDE3E9"/>
<path fill-rule="evenodd" clip-rule="evenodd" d="M102.28 189.132C105.917 189.132 108.866 186.183 108.866 182.545C108.866 178.907 105.917 175.958 102.28 175.958C98.6422 175.958 95.6934 178.907 95.6934 182.545C95.6934 186.183 98.6422 189.132 102.28 189.132Z" fill="#C5CFD6"/>
<path fill-rule="evenodd" clip-rule="evenodd" d="M99.2592 200.423C98.5259 200.423 97.7949 200.438 97.0626 200.477C96.5043 200.507 95.6512 200.388 95.1789 200.745C94.6881 201.116 94.7219 201.875 94.7986 202.411C95.2039 205.245 96.193 207.758 98.2624 209.766C101.449 212.858 105.101 214.429 109.424 215.129C112.46 215.62 115.263 214.938 117.498 212.723C119.131 215.832 120.37 219.273 120.991 222.746C121.298 224.459 121.392 226.152 121.338 227.897C121.303 229.015 121.243 230.13 121.126 231.242C121.076 231.725 120.835 232.457 121.02 232.914C121.236 233.45 121.966 233.502 122.294 233.045C122.567 232.664 122.517 231.917 122.573 231.466C122.666 230.718 122.752 229.969 122.813 229.217C122.913 228 122.987 226.78 122.982 225.558C122.969 222.814 122.374 220.059 121.561 217.454C120 212.456 117.467 208.014 113.528 204.529C111.107 202.386 108.335 201.518 105.19 201.052C103.232 200.762 101.243 200.423 99.2592 200.423Z" fill="#89C5CC"/>
<path fill-rule="evenodd" clip-rule="evenodd" d="M111.032 220.182C103.06 220.182 97.6898 226.688 95.1509 233.45C94.1938 235.999 93.9695 238.798 93.6007 241.474C93.4822 242.333 93.5261 243.642 93.1818 244.407C93.0568 244.684 92.7704 244.784 92.9073 245.162C92.9902 245.391 93.1529 245.531 93.3972 245.577C93.8987 245.67 94.6079 245.117 95.0378 244.899C98.6042 243.088 100.947 240.288 102.859 236.862C104.044 234.738 105.246 232.534 105.95 230.203C106.38 228.779 106.63 227.279 106.777 225.802C106.835 225.22 106.891 224.624 106.888 224.039C106.884 223.458 106.617 223.151 106.426 222.646C109.086 221.626 112.089 221.348 114.784 222.405C117.276 223.382 119.346 225.271 120.506 227.643C120.807 228.26 121.039 228.91 121.208 229.574C121.319 230.009 121.324 230.572 121.53 230.965C122.027 231.918 123.075 231.281 122.974 230.394C122.694 227.921 121.296 225.437 119.51 223.718C117.257 221.549 114.203 220.182 111.032 220.182Z" fill="#89C5CC"/>
<path d="M119.217 83.5044C119.217 81.0403 121.209 79.0427 123.667 79.0427H203.214C205.672 79.0427 207.664 81.0403 207.664 83.5043V243.007C207.664 245.472 205.672 247.469 203.214 247.469H123.667C121.209 247.469 119.217 245.472 119.217 243.007V83.5044Z" fill="#DDE3E9"/>
<path fill-rule="evenodd" clip-rule="evenodd" d="M163.441 237.119C168.118 237.119 171.909 233.327 171.909 228.65C171.909 223.974 168.118 220.182 163.441 220.182C158.764 220.182 154.973 223.974 154.973 228.65C154.973 233.327 158.764 237.119 163.441 237.119Z" fill="white"/>
<path fill-rule="evenodd" clip-rule="evenodd" d="M155.914 90.3338C156.433 90.3338 156.855 89.9125 156.855 89.3928C156.855 88.8732 156.433 88.4519 155.914 88.4519C155.394 88.4519 154.973 88.8732 154.973 89.3928C154.973 89.9125 155.394 90.3338 155.914 90.3338Z" fill="white"/>
<path d="M159.678 89.3928C159.678 88.8732 160.199 88.4519 160.843 88.4519H170.745C171.388 88.4519 171.91 88.8732 171.91 89.3928C171.91 89.9125 171.388 90.3338 170.745 90.3338H160.843C160.199 90.3338 159.678 89.9125 159.678 89.3928Z" fill="white"/>
<path d="M126.744 97.2687C126.744 96.0369 127.747 95.0383 128.985 95.0383H197.896C199.133 95.0383 200.137 96.0369 200.137 97.2687V122.918C200.137 124.15 199.133 125.148 197.896 125.148H128.985C127.747 125.148 126.744 124.15 126.744 122.918V97.2687Z" fill="white"/>
<path d="M132.391 105.842C132.391 105.072 133.135 104.448 134.053 104.448H171.188C172.106 104.448 172.851 105.072 172.851 105.842V106.818C172.851 107.587 172.106 108.211 171.188 108.211H134.053C133.135 108.211 132.391 107.587 132.391 106.818V105.842Z" fill="#DDE3E9"/>
<path d="M132.391 113.369C132.391 112.599 133.139 111.975 134.061 111.975H158.007C158.93 111.975 159.678 112.599 159.678 113.369V114.345C159.678 115.115 158.93 115.739 158.007 115.739H134.061C133.139 115.739 132.391 115.115 132.391 114.345V113.369Z" fill="#DDE3E9"/>
<path fill-rule="evenodd" clip-rule="evenodd" d="M192.14 113.857C194.479 113.857 196.375 112.172 196.375 110.093C196.375 108.015 194.479 106.33 192.14 106.33C189.802 106.33 187.906 108.015 187.906 110.093C187.906 112.172 189.802 113.857 192.14 113.857Z" fill="#DDE3E9"/>
<path fill-rule="evenodd" clip-rule="evenodd" d="M192.14 111.975C192.919 111.975 193.551 111.133 193.551 110.093C193.551 109.054 192.919 108.211 192.14 108.211C191.36 108.211 190.729 109.054 190.729 110.093C190.729 111.133 191.36 111.975 192.14 111.975Z" fill="#F2F2F2"/>
<path d="M126.744 132.003C126.744 130.816 127.747 129.853 128.985 129.853H197.896C199.133 129.853 200.137 130.816 200.137 132.003V150.284C200.137 151.472 199.133 152.435 197.896 152.435H128.985C127.747 152.435 126.744 151.472 126.744 150.284V132.003Z" fill="white"/>
<path d="M148.387 138.231C148.387 137.242 149.148 136.439 150.088 136.439H188.086C189.026 136.439 189.788 137.242 189.788 138.231V138.411C189.788 139.401 189.026 140.203 188.086 140.203H150.088C149.148 140.203 148.387 139.401 148.387 138.411V138.231Z" fill="#DDE3E9"/>
<path d="M148.387 143.877C148.387 142.887 149.135 142.085 150.057 142.085H174.003C174.926 142.085 175.674 142.887 175.674 143.877V144.056C175.674 145.046 174.926 145.849 174.003 145.849H150.057C149.135 145.849 148.387 145.046 148.387 144.056V143.877Z" fill="#DDE3E9"/>
<path fill-rule="evenodd" clip-rule="evenodd" d="M138.977 147.73C142.615 147.73 145.564 144.782 145.564 141.144C145.564 137.506 142.615 134.557 138.977 134.557C135.34 134.557 132.391 137.506 132.391 141.144C132.391 144.782 135.34 147.73 138.977 147.73Z" fill="#C5CFD6"/>
<path d="M126.744 159.38C126.744 158.143 127.747 157.14 128.985 157.14H197.896C199.133 157.14 200.137 158.143 200.137 159.38V178.423C200.137 179.66 199.133 180.663 197.896 180.663H128.985C127.747 180.663 126.744 179.66 126.744 178.423V159.38Z" fill="white"/>
<path d="M132.391 166.011C132.391 165.269 133.135 164.667 134.053 164.667H171.188C172.106 164.667 172.851 165.269 172.851 166.011V166.146C172.851 166.888 172.106 167.49 171.188 167.49H134.053C133.135 167.49 132.391 166.888 132.391 166.146V166.011Z" fill="#DDE3E9"/>
<path d="M132.391 172.105C132.391 171.115 133.139 170.313 134.061 170.313H158.007C158.93 170.313 159.678 171.115 159.678 172.105V172.284C159.678 173.274 158.93 174.076 158.007 174.076H134.061C133.139 174.076 132.391 173.274 132.391 172.284V172.105Z" fill="#AFB9C5"/>
<path fill-rule="evenodd" clip-rule="evenodd" d="M192.14 173.136C194.479 173.136 196.375 171.24 196.375 168.901C196.375 166.563 194.479 164.667 192.14 164.667C189.802 164.667 187.906 166.563 187.906 168.901C187.906 171.24 189.802 173.136 192.14 173.136Z" fill="#DDE3E9"/>
<path fill-rule="evenodd" clip-rule="evenodd" d="M192.14 170.313C192.919 170.313 193.551 169.681 193.551 168.901C193.551 168.122 192.919 167.49 192.14 167.49C191.36 167.49 190.729 168.122 190.729 168.901C190.729 169.681 191.36 170.313 192.14 170.313Z" fill="#F2F2F2"/>
<path d="M126.744 187.608C126.744 186.371 127.747 185.368 128.985 185.368H197.896C199.133 185.368 200.137 186.371 200.137 187.608V206.651C200.137 207.888 199.133 208.891 197.896 208.891H128.985C127.747 208.891 126.744 207.888 126.744 206.651V187.608Z" fill="white"/>
<path d="M148.387 193.746C148.387 192.757 149.148 191.954 150.088 191.954H188.086C189.026 191.954 189.788 192.757 189.788 193.746V193.926C189.788 194.915 189.026 195.718 188.086 195.718H150.088C149.148 195.718 148.387 194.915 148.387 193.926V193.746Z" fill="#DDE3E9"/>
<path d="M148.387 199.392C148.387 198.402 149.135 197.6 150.057 197.6H174.003C174.926 197.6 175.674 198.402 175.674 199.392V199.571C175.674 200.561 174.926 201.364 174.003 201.364H150.057C149.135 201.364 148.387 200.561 148.387 199.571V199.392Z" fill="#DDE3E9"/>
<path fill-rule="evenodd" clip-rule="evenodd" d="M138.977 203.245C142.615 203.245 145.564 200.296 145.564 196.659C145.564 193.021 142.615 190.072 138.977 190.072C135.34 190.072 132.391 193.021 132.391 196.659C132.391 200.296 135.34 203.245 138.977 203.245Z" fill="#C5CFD6"/>
</svg>
