<svg id="Layer_1" data-name="Layer 1" xmlns="http://www.w3.org/2000/svg" viewBox="0 0 460 184"><defs><style>.cls-1{fill:#2e3374;}.cls-2{fill:#89c5cc;}.cls-3{fill:#dde3e8;}.cls-4{fill:#c1dee2;}.cls-5{fill:#59a1a9;}.cls-6{fill:#69a1ac;}.cls-7{fill:#f7f7f7;}.cls-8{fill:#0b4870;}.cls-9{fill:#2a94f4;}.cls-10{fill:#cce9ff;}.cls-11{fill:#f2f2f2;}.cls-12{fill:#d3d3d3;}.cls-13{fill:#fcd2b1;}.cls-14{fill:#c5cfd6;}.cls-15{fill:#ffe3ca;}.cls-16{fill:#fff;}</style></defs><path class="cls-1" d="M0,20A20,20,0,0,1,20,0H440a20,20,0,0,1,20,20V184H0Z"/><path class="cls-2" d="M385.77,77.37c-.13-.32-.72-.65-1-.83a14.68,14.68,0,0,0-3.17-2,67.67,67.67,0,0,0-10.84-4.2c-2.31-.69-5.58-.73-7.37-2.46a15.8,15.8,0,0,0-11.28-4.87,17.75,17.75,0,0,0-11,4.26,23,23,0,0,0-3.07,2.87,3.45,3.45,0,0,0-.69.64l-1.81,1.82c-.26.29-.78.86-.6,1.07-.88.62-1.65,1.29-2.49,2a36.77,36.77,0,0,0-6.31,7,15.23,15.23,0,0,0-1.53,3c-.17.54-.73,1.5-.59,2.1.28,1.2,1.19.19,1.44-.37,1.43-4.48,4.46-7.7,7.8-10.86a27,27,0,0,1,7.43-4.83A18,18,0,0,1,347.35,70c2.9-.19,5.9-.14,8.82-.06,2,.08,3.85.1,5.78.28.39,0,1.18-.08,1.55.15a18.39,18.39,0,0,1,2.44,2.23A77.33,77.33,0,0,0,373,78.77a12.11,12.11,0,0,0,5.4,1.92c.19,0,.55,0,1,0a13.66,13.66,0,0,0,4.36-.29,23.66,23.66,0,0,0,2.43-.94.77.77,0,0,0,.47-.46c.19,0,.27,0,.32-.12C387.6,78.25,386.47,77.75,385.77,77.37Z"/><path class="cls-3" d="M391.49,102a28.63,28.63,0,0,0-2.14-5A33.78,33.78,0,0,0,367.7,80c-7.7-1.87-15.07.24-22.37,2.78l-2.1.82-.41.15c-.53-.16-1-.17-1.23.2a47.29,47.29,0,0,0-6.26.65c-6.21,1-12.51,2-17.55,5.86a86.36,86.36,0,0,1,10-3.3c.16-.06.44-.08.6-.14l.08,0a20.53,20.53,0,0,1,3.17-.48c.16-.06.27,0,.43-.08a8.2,8.2,0,0,0,.91-.07c.08,0,.19,0,.27,0,1.45-.09,2.94-.58,4.44-.78l1.07-.14.08,0c.9-.07,1.92-.09,2.85-.08a3.93,3.93,0,0,0,1.13,0c.08,0,.66,0,.93,0,.55,0,1,.06,1.6,0s1.05.06,1.51.07c.12,0,.2,0,.39,0l.58.06c1.71.08,3.34.2,5.07.37a8.32,8.32,0,0,0,2.16.28l.08,0a33.15,33.15,0,0,1,9.71,3c-.42-.12-1.85-.22-2.16-.29-.92-.2-1.83-.41-2.67-.64a47.92,47.92,0,0,0-4.89-1.09,87.41,87.41,0,0,0-9.05-.79l-.08,0a23.5,23.5,0,0,0-3.66-.08c1.78,1.46,3.37,3.18,5.06,4.67a49.58,49.58,0,0,0,5.34,4.18,77.12,77.12,0,0,0,8,4.83,29.94,29.94,0,0,0,9.29,3.58,34.39,34.39,0,0,0,11.43,1.17,30.31,30.31,0,0,0,5.64-1.06l.24-.09a19.76,19.76,0,0,0,2.2-.11C390.46,103.44,392,103.7,391.49,102Z"/><path class="cls-2" d="M100.12,68.22a6,6,0,0,1,1.4,0,23.21,23.21,0,0,1,4.07.67A75.85,75.85,0,0,1,117.7,73c2.45,1.11,5.24,3.35,7.92,3.13a18.08,18.08,0,0,1,13,3.91,19.13,19.13,0,0,1,6.17,11.07,28.43,28.43,0,0,1,.58,4.48c0,.33.12.67.12,1,.11.9.11,1.79.23,2.69,0,.33.12,1.23-.35,1.34A32.61,32.61,0,0,1,146,104a41.92,41.92,0,0,1,.24,10.07,12,12,0,0,1-.93,3.46c-.24.56-.47,1.68-1.05,2-1,.67-1.17-.67-.93-1.34,2-4.59,1.74-9.4,1.28-14.21a30.38,30.38,0,0,0-2.68-9.06,20.7,20.7,0,0,0-4.31-6.15,76.36,76.36,0,0,0-7.34-6.15c-1.63-1.34-3.38-2.57-5-3.8-.34-.22-.93-.89-1.39-1a21.15,21.15,0,0,0-3.73.12,81.64,81.64,0,0,1-10.36.11,12.84,12.84,0,0,1-5.94-2.24A2.43,2.43,0,0,1,103,75a15.84,15.84,0,0,1-3.49-3.24,24.73,24.73,0,0,1-1.4-2.46,1.37,1.37,0,0,1-.12-.68c-.11-.11-.23-.22-.11-.33C98,67.66,99.3,68,100.12,68.22Z"/><path class="cls-4" d="M76.84,83.81a30.8,30.8,0,0,1,5.51-2.56,39.6,39.6,0,0,1,30.7,1.33c8,3.8,12.66,10.71,16.88,17.74a18.62,18.62,0,0,1,1.17,2.12c.12.11.12.33.23.45.59.22.94.55.94,1a48.52,48.52,0,0,1,4.92,4.91c4.46,5.13,9.15,10.26,10.55,17a96.25,96.25,0,0,0-6.09-9.59c-.12-.22-.24-.34-.36-.56A16,16,0,0,0,139,113l-.35-.34-.7-.67-.24-.22c-1.17-1.12-2.11-2.57-3.16-3.79l-.82-.78c-.7-.67-1.53-1.34-2.35-2-.35-.11-.58-.45-.93-.78-.12-.12-.59-.45-.82-.67-.47-.34-.94-.78-1.41-1.12l-1.41-1c-.11-.11-.23-.11-.35-.23s-.35-.22-.47-.33c-1.52-1.11-3-2.12-4.57-3.23a14,14,0,0,1-2.11-1.23v-.11a38.45,38.45,0,0,0-10.43-4.35c.47.22,1.76,1.11,2,1.22l2.82,1.34c1.64.78,3.4,1.56,4.92,2.46a80.39,80.39,0,0,1,8.2,5.57h.12a21.66,21.66,0,0,1,3.16,2.46c-2.57-.11-5.15.22-7.73.22a58.88,58.88,0,0,1-7.62-.33,82,82,0,0,1-10.19-1.68,38,38,0,0,1-10.43-3.57A38.51,38.51,0,0,1,83.52,93a32.37,32.37,0,0,1-4-4.8c0-.11-.11-.11-.11-.22-.59-.56-1.17-1-1.76-1.56C76.72,85.71,75.2,84.93,76.84,83.81Z"/><path class="cls-5" d="M235.37,161c49.57,0,89.75-2.13,89.75-4.75s-40.18-4.75-89.75-4.75-89.75,2.13-89.75,4.75S185.81,161,235.37,161Z"/><path class="cls-2" d="M169,151.93s-34.94-2.51-37.89-26.21,33.35-34.84,66.82-29.93c11.41,1.67,23.35-2.83,8.38-9.67-16.22-7.4,6.16-28.81,88.84-19.38,63,7.2,42.39,26.05,20.07,39.81-20.28,12.5,24,8.78,21,30.74C332.73,162.51,169,151.93,169,151.93Z"/><path class="cls-6" d="M226.18,102.68H170.24v3.78h55.94Z"/><path class="cls-6" d="M208.1,116.94H188.3v2.2h19.8Z"/><path class="cls-6" d="M170.24,153.93l24.1-49.72,2.52,1.23L173.34,154Z"/><path class="cls-6" d="M226.17,153.93l-24.1-49.72-2.51,1.23L223.07,154Z"/><path class="cls-7" d="M222.38,102.68H200.46l.42-15.54h21.18Z"/><path class="cls-6" d="M208.8,91.7h-2.39v9.13h2.39Z"/><path class="cls-1" d="M212.89,92.79H210.5v8h2.39Z"/><path class="cls-4" d="M217,90.55h-2.38v10.28H217Z"/><path class="cls-8" d="M204.65,89.54h-.25V101h.25Z"/><path class="cls-8" d="M220.32,100.83H204.4v.2h15.92Z"/><path class="cls-7" d="M223.84,102.68H171.57l1-60.17h50.52Z"/><path class="cls-1" d="M198.06,90.79c10.95,0,19.83-8.62,19.83-19.24S209,52.3,198.06,52.3s-19.82,8.62-19.82,19.25S187.11,90.79,198.06,90.79Z"/><path class="cls-4" d="M198.06,71.66h19.83a18.75,18.75,0,0,1-3.77,11.24,19.72,19.72,0,0,1-9.88,7Z"/><path class="cls-6" d="M198,71.56,184.77,57.22A20.3,20.3,0,0,1,198,52.3c10.9,0,19.86,8.69,19.86,19.26v.1Z"/><path class="cls-8" d="M177.47,92.67h-1.75v1.75h1.75Z"/><path class="cls-8" d="M185.19,93.28h-6.74v.56h6.74Z"/><path class="cls-8" d="M185.19,96.29h-6.74v.56h6.74Z"/><path class="cls-8" d="M185.19,99.32h-6.74v.56h6.74Z"/><path class="cls-9" d="M177.47,95.71h-1.75v1.75h1.75Z"/><path class="cls-10" d="M177.47,98.72h-1.75v1.75h1.75Z"/><path class="cls-4" d="M272.93,49.91,256.88,25.67a29.08,29.08,0,1,1-7.16,41.73,28.82,28.82,0,0,1-4.51-8.74Z"/><path class="cls-4" d="M265.53,47.57l-28.39,9.07a29.74,29.74,0,0,1,11.74-33.79Z"/><path class="cls-11" d="M274,86.43l-3.53-2.61,27.68-37.53a1.69,1.69,0,0,1,2.36-.35l.82.62a1.67,1.67,0,0,1,.35,2.35Z"/><path class="cls-7" d="M275.81,88.12l-3.37-2.81L302.31,49.5a1.66,1.66,0,0,1,2.37-.21l.78.65a1.67,1.67,0,0,1,.21,2.37Z"/><path class="cls-12" d="M301.82,48c.19-.29-.3-1-1.1-1.48s-1.61-.72-1.8-.43.31,1,1.1,1.48S301.63,48.24,301.82,48Z"/><path class="cls-12" d="M305.81,51.4c.19-.29-.3-.95-1.1-1.48s-1.6-.72-1.79-.43.3.95,1.1,1.48S305.62,51.69,305.81,51.4Z"/><path class="cls-13" d="M286.19,148.8l.46,2.87a2.36,2.36,0,0,1-1.59,2.61l-4.93,1.63h11.49l-1.39-7.11Z"/><path class="cls-1" d="M293.05,154.28l-5.68-.29s-7.15,1.11-7.19,2.66h14.17Z"/><path class="cls-13" d="M255.68,148.8l-1.17,3.59a2.62,2.62,0,0,1-1.67,1.67l-5.58,1.85h11.49l1.62-7.11Z"/><path class="cls-1" d="M260.7,154.28l-6.21-.29s-7.16,1.1-7.2,2.66h14.18Z"/><path class="cls-6" d="M284.65,82.45s2.8,1.86,3.61,9-.32,12.31.32,16.48S290.49,150,290.49,150h-6.1L274.21,82.49Z"/><path class="cls-6" d="M271.37,81.68h10.8s1.34,8-1,12.75-3.61,6-4.28,8.69S260,150,260,150h-5.2Z"/><path class="cls-13" d="M287,59s10.85,15.48,9.61,19.66-13.71-.44-13.71-.44V75.62l8.53,1.08L284.9,65.62Z"/><path class="cls-14" d="M268.46,67.1c.65-3.33,4.51-8.31,4.51-8.31h15.29l-4,21c-.26,1.35,3.07,2.75-.53,2.75H271.22a1.1,1.1,0,0,1-1.11-1.11V73.84a5.09,5.09,0,0,0-.85-2.85A5.32,5.32,0,0,1,268.46,67.1Z"/><path class="cls-15" d="M275.43,47.37l-1.37,3.25s-.81,2.4-.34,3.82c.55,1.62,3,1.61,3,1.61L276,60h6.19V47.48Z"/><path class="cls-16" d="M275.78,48.7a2.25,2.25,0,0,1-.46-3.33,7.57,7.57,0,0,1,6.29-3,5.91,5.91,0,0,1,5.84,6.23c0,2.81.74,4.76,2.73,8.28,1.86,3.32-1.12,7.06-.7,10.12s.92,3,1,5.67c.32,10.45-9.76,10.09-14.88,9.72s-6.88-10.73-3.43-14.72,2.3-8.55,2.65-10.42c.84-4.55,3-5.45,2.66-7.73A6.51,6.51,0,0,1,275.78,48.7Z"/><path class="cls-13" d="M245.72,42.76c0-3.16,2.55-1.91,2.69-1.3a2,2,0,0,1,.46,1.14c.12.91.79,2.15.92,1.83.25-.64.56-1.58.78-1.37.7.7.31,2,0,2.83a1.4,1.4,0,0,0,.18,1.38l9.23,11.52h12.84c2.65.52,1.35,6-1.83,5.9-2.78-.11-10-.42-13.14-2.39s-10-15.7-10-15.7A7.36,7.36,0,0,1,245.72,42.76Z"/></svg>