<?xml version="1.0" encoding="UTF-8"?>
<svg fill="none" viewBox="0 0 529 255" xmlns="http://www.w3.org/2000/svg">
<path d="m277.32 254.46c139 0 251.68-3.908 251.68-8.728 0-4.821-112.68-8.729-251.68-8.729-139 0-251.68 3.908-251.68 8.729 0 4.82 112.68 8.728 251.68 8.728z" fill="#AFDADD" opacity=".56"/>
<path d="m442.57 2.9993e-5h13.863c1.45-0.0033854 2.887 0.27985 4.228 0.83343 1.341 0.55358 2.559 1.3666 3.585 2.3923s1.839 2.2441 2.393 3.5849c0.553 1.3409 0.836 2.7779 0.833 4.2285v4.7923c3e-3 1.4506-0.28 2.8876-0.833 4.2285-0.554 1.3409-1.367 2.5592-2.393 3.5849-1.026 1.0258-2.244 1.8388-3.585 2.3924s-2.778 0.8368-4.228 0.8334c0 0-4.707 3.3374-5.648 8.8998 0-6.5893-8.215-8.8998-8.215-8.8998-1.451 0.0034-2.888-0.2798-4.229-0.8334s-2.559-1.3666-3.585-2.3924c-1.026-1.0257-1.839-2.244-2.392-3.5849-0.554-1.3409-0.837-2.7779-0.834-4.2285v-4.7923c0.023-2.9208 1.193-5.7157 3.258-7.7811 2.066-2.0654 4.861-3.2357 7.782-3.2581z" fill="#EEF8F9"/>
<path d="m404.15 45.954h13.863c0.43 0.0171 0.86-0.0116 1.284-0.0856 0.77 1.7971 2.652 5.3057 7.102 6.0759-2.567-1.7971-2.824-5.3057-2.653-7.5307 1.625-0.9746 2.968-2.3547 3.898-4.0049 0.93-1.6503 1.416-3.514 1.408-5.4083v-4.7922c4e-3 -1.4507-0.28-2.8877-0.833-4.2286-0.554-1.3409-1.367-2.5592-2.393-3.5849-1.025-1.0258-2.244-1.8388-3.585-2.3924-1.34-0.5535-2.777-0.8368-4.228-0.8334h-13.863c-1.451-0.0034-2.888 0.2799-4.229 0.8334-1.341 0.5536-2.559 1.3666-3.585 2.3924-1.026 1.0257-1.839 2.244-2.392 3.5849-0.554 1.3409-0.837 2.7779-0.834 4.2286v4.7922c0.045 2.9059 1.225 5.679 3.288 7.7261s4.845 3.2055 7.752 3.2275z" fill="#EEF8F9"/>
<path d="m130.65 151.3c7.531 1.027 14.462 4.878 21.308 8.301 10.692 5.284 21.832 9.608 33.289 12.922 8.9 2.482 17.971 4.45 27.128 3.166 21.222-2.653 37.054-21.222 46.724-40.22 9.841-19.083 16.088-40.221 29.438-56.908 13.349-16.687 37.311-28.069 56.479-18.484 14.035 7.1027 20.966 22.506 28.069 36.626 7.103 13.949 17.115 28.839 32.604 31.406 11.467 1.969 22.763-3.594 33.803-7.701 11.039-4.108 24.217-6.504 33.545 0.599 9.585 7.445 10.44 21.222 13.778 32.946 3.288 11.617 9.678 22.119 18.484 30.379 6.675 6.247 14.976 11.639 18.228 20.111 4.877 12.579-3.937 27.298-15.917 33.716-11.981 6.247-26.272 6.333-39.878 6.076-60.502-1.112-121.09-4.792-181.59-3.081-50.49 1.455-100.81 6.761-151.21 4.194-19.426-1.027-39.707-3.509-55.367-14.976-14.89-10.783-27.213-37.397-13.778-53.741 12.237-14.719 46.895-27.641 64.866-25.331z" fill="#D9EDEF"/>
<path d="m88.029 130.76c-18.57-19.768-40.049-36.369-61.614-52.885 6.5893 29.438 13.35 59.047 26.272 86.345 8.5575 18.057 42.531 77.703 68.973 58.962 29.267-20.881-18.741-76.505-33.631-92.422z" fill="#AFDADD"/>
<path d="m39.166 98.668 43.387 60.33c7.1883 10.012 14.548 20.11 21.65 30.208 7.103 10.098 14.206 20.282 21.052 30.551l-0.086 0.085c-7.445-9.841-14.719-19.939-21.993-29.951-7.2735-10.013-14.376-20.282-21.394-30.379l-42.616-60.844z" fill="#AFDADD"/>
<path d="m72.37 115.36-0.1711 6.846-0.2568 6.846c-0.0856 2.31-0.0855 4.621-0.3423 6.846-0.2567 2.225-0.5134 4.621-0.9413 6.846h-0.0856c-0.1563-2.279-0.1849-4.564-0.0855-6.846 0.0855-2.311 0.3422-4.621 0.599-6.846l0.599-6.846 0.6846-6.846z" fill="#AFDADD"/>
<path d="m36.429 118.69 6.1614 2.311 6.1615 2.396c2.0538 0.77 4.1076 1.54 6.0758 2.481 1.9682 0.942 3.9365 1.969 5.9047 3.081l-0.0855 0.086c-2.1227-0.556-4.209-1.242-6.2471-2.054-2.0538-0.77-4.1076-1.797-5.9902-2.653l-5.9903-2.738-5.9903-2.824v-0.086z" fill="#AFDADD"/>
<path d="m44.643 144.88 8.5576 2.14 8.5575 2.224c2.824 0.685 5.7336 1.37 8.5576 2.225 1.3692 0.428 2.8239 0.856 4.1931 1.284 1.4012 0.424 2.7733 0.938 4.1077 1.54v0.086c-1.5404-0.171-2.9096-0.513-4.3644-0.77s-2.9095-0.599-4.3643-0.942c-2.824-0.684-5.648-1.711-8.472-2.481l-8.4719-2.567-8.472-2.568v-0.085h0.1711v-0.086z" fill="#AFDADD"/>
<path d="m95.732 139.4-1.3693 7.445-1.5403 7.445c-0.5135 2.482-0.8558 4.878-1.5404 7.445-0.5602 2.449-1.304 4.852-2.2249 7.189h-0.0856c0.2324-2.501 0.6038-4.986 1.1125-7.445 0.4676-2.456 1.0675-4.884 1.7971-7.274l1.797-7.274 1.9683-7.274 0.0856-0.257z" fill="#AFDADD"/>
<path d="m1 128.96c4.4499 32.604 17.971 64.781 42.103 87.201 17.8 16.431 72.739 46.896 84.292 8.729 10.354-34.059-44.072-61.614-68.033-74.108-5.3057-2.739-58.191-20.538-58.362-21.822z" fill="#2E3374" stroke="#2E3374" stroke-miterlimit="10" stroke-width=".89"/>
<path d="m14.179 146.5c8.3864 8.044 17.201 15.917 25.844 23.533 8.8142 7.788 17.714 15.233 26.7 22.592 9.1565 7.274 18.399 14.377 28.069 20.881 4.8778 3.251 9.6703 6.418 14.804 9.242 2.531 1.442 5.162 2.701 7.873 3.765 1.36 0.587 2.762 1.073 4.193 1.455 1.394 0.414 2.829 0.672 4.279 0.77v0.086c-1.466-0.11-2.923-0.31-4.364-0.6-1.427-0.325-2.829-0.754-4.193-1.283-2.739-1.027-5.392-2.225-8.044-3.509-5.186-2.709-10.214-5.709-15.062-8.985-9.6701-6.418-18.912-13.778-27.983-21.137-9.071-7.36-17.8-14.976-26.528-22.849-8.7286-7.873-17.286-15.66-25.587-23.961z" fill="#2E3374"/>
<path d="m29.753 143.34 0.8557 5.049 0.8558 5.049c0.2567 1.711 0.599 3.337 0.7702 5.049 0.2 1.704 0.2287 3.424 0.0856 5.134h-0.0856c-0.5135-1.711-0.8558-3.252-1.1981-4.963-0.2557-1.674-0.427-3.359-0.5134-5.049l-0.5135-5.049-0.4279-5.049 0.1712-0.171z" fill="#2E3374"/>
<path d="m17.688 175.34 6.9316-0.257 6.9316-0.171c2.225-0.086 4.6211-0.171 6.9316-0.086 2.3181 0.047 4.632 0.218 6.9316 0.514v0.086c-2.299 0.301-4.6132 0.473-6.9316 0.513-2.225 0.086-4.621-0.086-6.9316-0.086l-6.9316-0.171-6.9316-0.342z" fill="#2E3374"/>
<path d="m54.912 151.38 0.5135 8.215 0.5134 8.215c0.1712 2.739 0.4279 5.477 0.4279 8.216v4.107c0 1.284-0.0856 2.739-0.1712 4.108h-0.0855c-0.2568-1.284-0.3423-2.739-0.5135-4.108-0.1711-1.369-0.2567-2.738-0.3423-4.107-0.1711-2.739-0.1711-5.563-0.1711-8.216l-0.1712-8.215v-8.215z" fill="#2E3374"/>
<path d="m29.668 196.91 8.8142-1.54 8.8143-1.541c2.9951-0.513 5.8191-1.027 8.8143-1.455 1.4547-0.171 2.9951-0.342 4.3643-0.513 1.5404-0.171 2.9951-0.257 4.4499-0.342v0.085c-1.4548 0.428-2.9095 0.685-4.2787 1.027-1.4405 0.332-2.8972 0.59-4.3644 0.77-2.9951 0.514-5.9047 0.771-8.8143 1.198l-8.8142 1.027-8.8999 1.027-0.0855 0.257z" fill="#2E3374"/>
<path d="m81.526 164.56 0.2567 10.098 0.1712 10.098c0.0856 3.338 0.1712 6.675 0.0856 10.098 0 1.712-0.0856 3.338-0.1712 5.049-0.0856 1.712-0.1711 3.338-0.3423 5.049h-0.0856c-0.1711-1.711-0.2567-3.337-0.3423-5.049-0.0855-1.711-0.1711-3.337-0.1711-5.049-0.0856-3.337 0.0856-6.675 0.0856-10.098l0.1711-10.098 0.3423-10.098z" fill="#2E3374"/>
<path d="m96.159 173.63 0.6846 21.052c0.0856 3.509 0.2567 6.932 0.2567 10.526 0 1.711 0 3.508-0.0856 5.22-0.0855 1.711-0.1711 3.508-0.2567 5.22h-0.0856c-0.1711-1.712-0.3423-3.509-0.4279-5.22-0.0855-1.712-0.1711-3.509-0.2567-5.22-0.0855-3.509 0-6.932 0-10.526l0.1712-21.052z" fill="#2E3374"/>
<path d="m53.799 222.32 8.8999-3.166 8.8998-2.996c2.9952-1.026 5.9047-2.139 8.8998-2.995 1.5404-0.428 2.9952-0.941 4.6211-1.283 1.5189-0.433 3.0619-0.776 4.6211-1.027v0.085c-1.4548 0.685-2.9951 1.198-4.3643 1.712-1.3693 0.513-2.9952 1.027-4.45 1.626-2.9951 1.027-5.9903 1.882-9.071 2.738l-18.142 5.306h0.0855z" fill="#2E3374"/>
<path d="m71.856 234.13 17.8-6.332c2.9952-1.027 5.9047-2.225 8.8999-3.167 1.54-0.427 2.995-0.941 4.45-1.283 1.455-0.343 2.995-0.77 4.621-1.198v0.085c-1.455 0.685-2.91 1.284-4.279 1.883s-2.995 1.027-4.3642 1.711c-2.9951 1.027-5.9046 1.969-8.8998 2.91l-8.8998 2.738-8.8999 2.739-0.4279-0.086z" fill="#2E3374"/>
<path d="m165.05 27.384c-4.45 11.724-76.162 174.92-3.423 144.71 22.849-9.499 18.827-42.531 17.372-62.641-1.027-14.462-2.482-29.438-5.306-43.644-1.711-9.071-3.252-24.389-8.643-38.423z" fill="#2E3374" stroke="#2E3374" stroke-miterlimit="10" stroke-width=".89"/>
<path d="m165.3 41.675c-0.941 11.296-2.139 22.592-3.423 33.802-1.283 11.21-2.738 22.421-4.364 33.716-1.626 11.296-3.423 22.421-5.819 33.546-1.284 5.562-2.567 11.125-4.108 16.516-0.77 2.738-1.711 5.477-2.567 8.129-0.439 1.341-0.953 2.655-1.54 3.937-0.514 1.284-1.113 2.653-1.712 3.851l-0.085-0.086c0.513-1.283 1.026-2.653 1.54-3.936 0.513-1.284 0.941-2.653 1.284-4.108 0.855-2.738 1.54-5.477 2.31-8.215 1.369-5.477 2.653-11.039 3.68-16.516 2.225-11.125 4.193-22.164 6.076-33.374 1.882-11.211 3.337-22.336 4.792-33.632 1.369-11.125 2.738-22.25 3.936-33.631z" fill="#2E3374" stroke="#2E3374" stroke-miterlimit="10" stroke-width=".89"/>
<path d="m176.17 80.099-8.9 13.521c-1.541 2.3105-2.91 4.6211-4.621 6.7605-0.77 1.027-1.712 2.225-2.482 3.252s-1.711 2.139-2.653 3.166l-0.085-0.085c0.582-1.227 1.269-2.401 2.053-3.509 0.681-1.179 1.424-2.322 2.225-3.4231 1.541-2.3105 3.167-4.3643 4.793-6.5893l4.877-6.5893 4.793-6.5037z" fill="#2E3374" stroke="#2E3374" stroke-miterlimit="10" stroke-width=".89"/>
<path d="m157.94 185.96c-1.54-12.922-3.08-26.1-0.941-38.936 2.225-13.607 8.386-26.101 14.548-38.338 7.958-15.917 16.259-31.834 24.474-47.751 5.905 24.389 11.895 49.548 8.472 74.45-2.276 15.242-7.571 29.876-15.574 43.045-4.878 8.301-17.543 31.149-27.727 30.807-2.054-7.36-2.396-15.404-3.252-23.277z" fill="#9BD1D3"/>
<path d="m192.26 80.099c-1.284 11.125-2.739 22.078-4.365 33.117-1.797 11.039-3.679 21.908-5.99 32.861-1.112 5.477-2.396 10.954-3.594 16.259-1.284 5.477-2.824 10.783-4.364 16.174-1.712 5.306-3.423 10.526-5.563 15.746-1.027 2.567-2.139 5.22-3.337 7.702l-1.797 3.765-2.054 3.68-0.086-0.086 1.797-3.765 1.712-3.765c1.027-2.568 2.139-5.135 2.995-7.702 1.797-5.22 3.594-10.526 5.135-15.831 0.77-2.653 1.54-5.392 2.31-7.959s1.369-5.391 2.14-7.959c1.369-5.391 2.652-10.782 3.85-16.173 2.397-10.783 4.45-21.736 6.333-32.776 1.797-11.381 3.423-22.249 4.878-33.288z" fill="#9BD1D3"/>
<path d="m178.06 96.016 2.653 4.1074 2.567 4.108c0.925 1.325 1.782 2.696 2.568 4.107 0.684 1.37 1.369 2.91 1.968 4.365l-0.086 0.085c-1.027-1.283-2.053-2.567-2.909-3.85-0.856-1.284-1.541-2.824-2.311-4.194l-2.31-4.193-2.225-4.1931 0.085-0.3423z" fill="#9BD1D3"/>
<path d="m204.76 106.8-4.621 4.792-4.621 4.793c-1.54 1.54-3.081 3.166-4.792 4.621-1.664 1.49-3.406 2.89-5.22 4.193l-0.086-0.086c1.369-1.797 2.91-3.423 4.364-5.049 1.455-1.626 3.252-2.995 4.878-4.45l4.878-4.45 5.22-4.364z" fill="#9BD1D3"/>
<path d="m169.67 112.53 3.337 7.445 3.252 7.445c1.027 2.481 2.311 4.878 3.252 7.445 0.428 1.283 0.941 2.567 1.369 3.851 0.428 1.283 0.856 2.567 1.284 3.936l-0.086 0.086c-0.684-1.284-1.283-2.396-1.968-3.594s-1.112-2.482-1.797-3.68c-1.113-2.482-2.054-5.135-2.995-7.616l-2.995-7.702-2.91-7.702 0.257 0.086z" fill="#9BD1D3"/>
<path d="m160.17 134.35 4.364 7.873 4.365 7.873c1.369 2.653 2.909 5.22 4.193 7.873 0.599 1.284 1.283 2.653 1.968 4.108 0.599 1.283 1.284 2.738 1.797 4.107l-0.085 0.086c-0.856-1.284-1.541-2.567-2.397-3.765-0.823-1.235-1.566-2.521-2.225-3.851l-4.107-7.959-3.937-7.958-3.851-7.959-0.085-0.428z" fill="#9BD1D3"/>
<path d="m204.5 135.55-12.152 9.756c-2.053 1.54-4.107 3.252-6.161 4.792-2.054 1.541-4.364 2.91-6.504 4.193l-0.085-0.085c1.869-1.823 3.84-3.537 5.904-5.135 2.054-1.711 4.194-3.08 6.247-4.621l6.333-4.45 6.418-4.45z" fill="#9BD1D3"/>
<path d="m132.02 70.172 4.193 6.8461 4.194 6.846c1.454 2.3105 2.909 4.5355 4.107 6.9316s2.482 4.7922 3.509 7.2739l-0.086 0.0856c-1.626-2.1394-3.166-4.45-4.621-6.6749-1.455-2.225-2.567-4.7067-3.936-7.1028l-3.851-7.1027-3.851-7.1884 0.342 0.0856z" fill="#fff" stroke="#393939" stroke-miterlimit="10" stroke-width="1.34"/>
<path d="m122.09 99.524 5.22 6.5888 5.22 6.59c1.832 2.1 3.546 4.3 5.135 6.589 1.64 2.283 3.154 4.654 4.535 7.103l-0.086 0.085c-1.966-1.979-3.823-4.064-5.562-6.247-1.797-2.139-3.252-4.535-4.878-6.76l-4.792-6.761-4.792-6.8455v-0.3423z" fill="#fff" stroke="#393939" stroke-miterlimit="10" stroke-width="1.34"/>
<path d="m148.36 139.4 4.194 9.328 4.193 9.328c1.455 3.08 2.909 6.161 4.107 9.327 0.599 1.626 1.198 3.167 1.797 4.793s1.113 3.166 1.626 4.877l-0.085 0.086c-0.856-1.54-1.626-2.995-2.396-4.535-0.77-1.541-1.455-3.081-2.14-4.622-1.454-3.08-2.567-6.247-3.936-9.498l-3.851-9.585-3.509-9.499z" fill="#fff" stroke="#393939" stroke-miterlimit="10" stroke-width="1.34"/>
<path d="m141.68 36.883-9.755 4.1932-25.844-0.0856 9.756-4.1932 25.843 0.0856z" fill="#fff" stroke="#2E3374" stroke-miterlimit="10" stroke-width="1.34"/>
<path d="m116.95 41.675-9.756 4.1932-1.112-4.7922 9.756-4.1932 1.112 4.7922z" fill="#fff" stroke="#2E3374" stroke-miterlimit="10" stroke-width="1.34"/>
<path d="m116.01 44.585-9.755 4.1932c0.073-0.0121 0.143-0.0417 0.202-0.0864 0.06-0.0447 0.108-0.1031 0.14-0.1703l9.756-4.1932c-0.086 0.0855-0.257 0.0855-0.343 0.2567z" fill="#fff" stroke="#2E3374" stroke-miterlimit="10" stroke-width="1.34"/>
<path d="m116.36 44.328-9.755 4.1932c0.103-0.0392 0.192-0.1098 0.253-0.2019 0.061-0.092 0.092-0.201 0.089-0.3116l9.755-4.1932c-0.085 0.1712-0.171 0.4279-0.342 0.5135z" fill="#fff" stroke="#2E3374" stroke-miterlimit="10" stroke-width="1.34"/>
<path d="m116.7 43.815-9.756 4.1932c0.129-0.2792 0.244-0.5648 0.343-0.8558l9.755-4.1932c-0.085 0.3423-0.085 0.6846-0.342 0.8558z" fill="#fff" stroke="#2E3374" stroke-miterlimit="10" stroke-width="1.34"/>
<path d="m117.04 43.044-9.755 4.1932c0.011-0.4296-0.017-0.8593-0.086-1.2836l9.756-4.1932c0.074 0.4236 0.103 0.8539 0.085 1.2836z" fill="#fff" stroke="#2E3374" stroke-miterlimit="10" stroke-width="1.34"/>
<path d="m116.01 44.585-9.755 4.1932c-0.164 0.0635-0.339 0.0927-0.514 0.0856l9.756-4.1932c0.161-0.0697 0.338-0.0991 0.513-0.0856z" fill="#fff" stroke="#2E3374" stroke-miterlimit="10" stroke-width="1.34"/>
<path d="m113.36 42.531-9.756 4.1932c0.086 0 0.086-0.0856 0.257-0.0856l9.756-4.1932c-0.171 0-0.171 0-0.257 0.0856z" fill="#fff" stroke="#2E3374" stroke-miterlimit="10" stroke-width="1.34"/>
<path d="m113.53 42.445-9.756 4.1932 0.343-0.3423 9.755-4.1932c-0.171 0.1712-0.256 0.3423-0.342 0.3423z" fill="#fff" stroke="#2E3374" stroke-miterlimit="10" stroke-width="1.34"/>
<path d="m113.87 42.103-9.756 4.1932c0.032-0.193 0.122-0.3719 0.257-0.5135l9.755-4.1931c-0.075 0.064-0.136 0.1424-0.18 0.2306s-0.07 0.1844-0.076 0.2828z" fill="#fff" stroke="#2E3374" stroke-miterlimit="10" stroke-width="1.34"/>
<path d="m113.96 41.59-9.756 4.1932c0.014-0.2879-0.014-0.5763-0.085-0.8558 0-0.0855-0.086-0.2567-0.086-0.3422l9.756-4.1932c0 0.0855 0.085 0.2567 0.085 0.3423 0.118 0.2692 0.148 0.5685 0.086 0.8557z" fill="#fff" stroke="#2E3374" stroke-miterlimit="10" stroke-width="1.34"/>
<path d="m113.87 40.306-9.755 4.2788c-0.076-0.2195-0.192-0.4228-0.343-0.5991l9.756-4.1932c0.104 0.1778 0.218 0.3492 0.342 0.5135z" fill="#fff" stroke="#2E3374" stroke-miterlimit="10" stroke-width="1.34"/>
<path d="m113.53 39.707-9.755 4.1932c-0.086-0.2567-0.257-0.3423-0.342-0.3423l9.755-4.1932c0.086 0.0856 0.257 0.1711 0.342 0.3423z" fill="#fff" stroke="#2E3374" stroke-miterlimit="10" stroke-width="1.34"/>
<path d="m113.1 39.279-9.755 4.1932c-0.129-0.1496-0.286-0.2721-0.462-0.3603s-0.368-0.1402-0.565-0.1531c-0.086 0-0.342 0-0.342 0.0856l9.755-4.1933c0.086 0 0.257-0.0855 0.342-0.0855 0.392 0.0478 0.754 0.2291 1.027 0.5134z" fill="#fff" stroke="#2E3374" stroke-miterlimit="10" stroke-width="1.34"/>
<path d="m113.36 42.531-9.755 4.1932c-0.086 0-0.257 0.0856-0.343 0.0856-0.386-0.0638-0.744-0.2428-1.027-0.5135l9.756-4.1932c0.128 0.1497 0.285 0.2722 0.462 0.3604 0.176 0.0881 0.368 0.1402 0.565 0.1531 0.1-0.0681 0.222-0.0984 0.342-0.0856z" fill="#fff" stroke="#2E3374" stroke-miterlimit="10" stroke-width="1.34"/>
<path d="m111.99 42.189-9.755 4.1932-0.342-0.3423 9.755-4.1932c0.14 0.0852 0.257 0.2025 0.342 0.3423z" fill="#fff" stroke="#2E3374" stroke-miterlimit="10" stroke-width="1.34"/>
<path d="m111.56 41.675-9.756 4.1932c-0.085-0.2567-0.257-0.3423-0.342-0.599l9.755-4.1932c0.146 0.1799 0.262 0.3822 0.343 0.599z" fill="#fff" stroke="#2E3374" stroke-miterlimit="10" stroke-width="1.34"/>
<path d="m111.31 40.991-9.756 4.1932c0-0.0856-0.086-0.2567-0.086-0.3423-0.066-0.2801-0.095-0.568-0.085-0.8558l9.756-4.1932c-0.015 0.288 0.014 0.5764 0.085 0.8558 0 0.1711 0 0.3423 0.086 0.3423z" fill="#fff" stroke="#2E3374" stroke-miterlimit="10" stroke-width="1.34"/>
<path d="m111.05 39.793-9.756 4.1932c-3e-3 -0.1002 0.019-0.1994 0.064-0.289s0.111-0.1667 0.193-0.2245l9.755-4.1932c-0.085 0.1712-0.085 0.3423-0.256 0.5135z" fill="#fff" stroke="#2E3374" stroke-miterlimit="10" stroke-width="1.34"/>
<path d="m111.31 39.279-9.755 4.1932 0.342-0.3423 9.756-4.1932c-0.171 0-0.257 0.1711-0.343 0.3423z" fill="#fff" stroke="#2E3374" stroke-miterlimit="10" stroke-width="1.34"/>
<path d="m111.56 38.937-9.755 4.1932c0.085 0 0.085-0.0855 0.256-0.0855l9.756-4.1932c-0.079 0.0459-0.166 0.0751-0.257 0.0855z" fill="#fff" stroke="#2E3374" stroke-miterlimit="10" stroke-width="1.34"/>
<path d="m113.1 39.279-9.755 4.1932c-0.129-0.1496-0.286-0.2721-0.462-0.3603s-0.368-0.1402-0.565-0.1531c-0.086 0-0.342 0-0.342 0.0856l9.755-4.1933c0.086 0 0.257-0.0855 0.342-0.0855 0.392 0.0478 0.754 0.2291 1.027 0.5134z" fill="#fff" stroke="#2E3374" stroke-miterlimit="10" stroke-width="1.34"/>
<path d="m112.16 38.851c0.685 0 1.541 0.8557 1.797 1.9682 0.257 1.1125-0.256 1.9682-0.941 1.9682-0.684 0-1.54-0.8557-1.797-1.9682s0.086-1.9682 0.941-1.9682z" fill="#565656" stroke="#2E3374" stroke-miterlimit="10" stroke-width="1.34"/>
<path d="m115.76 36.797-9.756 4.1932-28.154-0.0855 9.7556-4.1932 28.155 0.0855z" fill="#fff" stroke="#2E3374" stroke-miterlimit="10" stroke-width="1.34"/>
<path d="m109.68 42.531-9.7552 4.1932c0.0852 0 0.0852-0.0856 0.2572-0.0856l9.755-4.1932c-0.046-0.0055-0.093-8e-4 -0.138 0.014-0.044 0.0148-0.085 0.0393-0.119 0.0716z" fill="#fff" stroke="#2E3374" stroke-miterlimit="10" stroke-width="1.34"/>
<path d="m109.85 42.445-9.755 4.1932 0.342-0.3423 9.756-4.1932c-0.172 0.1712-0.172 0.3423-0.343 0.3423z" fill="#fff" stroke="#2E3374" stroke-miterlimit="10" stroke-width="1.34"/>
<path d="m110.11 42.103-9.755 4.1932c0.048-0.2136 0.135-0.4165 0.256-0.5991l9.756-4.1932c-0.086 0.2568-0.086 0.4279-0.257 0.5991z" fill="#fff" stroke="#2E3374" stroke-miterlimit="10" stroke-width="1.34"/>
<path d="m110.28 41.59-9.755 4.1932c0.014-0.2879-0.015-0.5763-0.086-0.8558 0-0.0855-0.085-0.2567-0.085-0.3422l9.755-4.1932c0 0.0855 0.086 0.2567 0.086 0.3423 0.078 0.1268 0.126 0.2698 0.141 0.418s-4e-3 0.2979-0.056 0.4377z" fill="#fff" stroke="#2E3374" stroke-miterlimit="10" stroke-width="1.34"/>
<path d="m110.11 40.306-9.756 4.1932c-0.086-0.2567-0.257-0.3423-0.342-0.599l9.755-4.1932c0.257 0.1711 0.257 0.4279 0.343 0.599z" fill="#fff" stroke="#2E3374" stroke-miterlimit="10" stroke-width="1.34"/>
<path d="m109.85 39.707-9.756 4.1932c-0.085-0.2567-0.2565-0.3423-0.3421-0.5135l9.7551-4.1932c0.125 0.1643 0.239 0.3358 0.343 0.5135z" fill="#fff" stroke="#2E3374" stroke-miterlimit="10" stroke-width="1.34"/>
<path d="m109.42 39.194-9.7555 4.1932c-0.1284-0.1497-0.2853-0.2722-0.4617-0.3604-0.1763-0.0882-0.3685-0.1402-0.5652-0.1531l9.7554-4.1932c0.257 0.1712 0.77 0.2567 1.027 0.5135z" fill="#fff" stroke="#2E3374" stroke-miterlimit="10" stroke-width="1.34"/>
<path d="m109.68 42.531-9.7557 4.1932c-0.0855 0-0.2567 0.0856-0.3423 0.0856l9.756-4.1932c0.085-0.0856 0.171-0.0856 0.342-0.0856z" fill="#fff" stroke="#2E3374" stroke-miterlimit="10" stroke-width="1.34"/>
<path d="m109.34 42.531-9.7558 4.1932-16.345-0.0856 9.7556-4.1932 16.345 0.0856z" fill="#fff" stroke="#2E3374" stroke-miterlimit="10" stroke-width="1.34"/>
<path d="m108.4 38.851c0.685 0 1.541 0.8558 1.798 1.9683 0.256 1.1125-0.257 1.9682-0.942 1.9682l-16.345-0.0856c-0.6846 0-1.5403-0.8557-1.7971-1.9682-0.2567-1.1125 0.2568-1.9682 0.9414-1.9682l16.344 0.0855z" fill="#565656" stroke="#2E3374" stroke-miterlimit="10" stroke-width="1.34"/>
<path d="m115.5 44.585-9.756 4.1932-23.961-0.0856 9.7556-4.1932 23.961 0.0856z" fill="#fff" stroke="#2E3374" stroke-miterlimit="10" stroke-width="1.34"/>
<path d="m60.988 36.541-0.9414 0.3423-0.5134-2.0538-2.0966 0.9499s-0.077-0.5306-0.0856-0.6761c0-0.3423-0.0513-0.6418-0.0428-0.8557 0.0086-0.214 0.0685-0.7018 0.0856-0.9414 0.0403-0.2696 0.1272-0.5302 0.2567-0.7701 0.1017-0.2343 0.2159-0.4628 0.3423-0.6847 0.3065-0.3763 0.6506-0.7204 1.0269-1.0268 0.1824-0.1421 0.3841-0.2574 0.5991-0.3424l-9.7556 4.1932c-0.2157 0.0835-0.4176 0.1989-0.5991 0.3423-0.3465 0.3108-0.6618 0.6547-0.9413 1.0269-0.2756 0.4806-0.4775 0.9999-0.599 1.5404-0.0557 0.5691-0.0557 1.1424 0 1.7115 0 0.3252 0.2567 1.1981 0.2567 1.1981l45.013 195.44c0.0855 0.343 0.7273 2.148 0.7701 2.225s0.3252 0.608 0.5135 0.942c0.177 0.3 0.3773 0.586 0.599 0.855 0.2955 0.359 0.6097 0.702 0.9413 1.027 0.4109 0.284 0.8397 0.542 1.2837 0.77 0.077 0 1.1381 0.377 1.4719 0.445 0.0855 0 0.4963 0.06 0.6675 0.069 19.793 0.856 79.243 0.342 79.243 0.342 0.386 7e-3 0.768-0.082 1.112-0.257l8.686-3.893s0.385-0.129-0.043-0.129l-79.243-0.342h-0.428c-0.12 0.013-0.241-0.017-0.342-0.085-0.085 0-0.085 0-0.257-0.086-0.171-0.086-0.256-0.086-0.342-0.086-0.085 0-0.085 0-0.257-0.085-0.089-0.015-0.176-0.044-0.256-0.086-0.086 0-0.086-0.085-0.257-0.085-0.09-0.015-0.176-0.044-0.257-0.086-0.085 0-0.085-0.086-0.256-0.086-0.172 0-0.257-0.085-0.257-0.256-0.086 0-0.086-0.086-0.257-0.086s-0.257-0.085-0.257-0.257c-0.085 0-0.085-0.085-0.256-0.256l-0.086-0.086c-0.195-0.178-0.368-0.379-0.513-0.599-0.257-0.257-0.343-0.513-0.514-0.684l-0.085-0.086c-0.221-0.253-0.394-0.543-0.514-0.856l1.968-0.856-0.342-1.198 0.941-0.342-44.242-190.83-0.9413-4.3643z" fill="#15ADC2" stroke="#2E3374" stroke-miterlimit="10" stroke-width="1.8"/>
<path d="m141.68 36.883 44.927 195.2-80.698-0.342-44.927-195.2 26.528 0.0856 1.1124 4.8777c0.3423 1.626 1.626 2.9952 2.7385 2.9952l23.961 0.0856c1.112 0 1.797-1.2837 1.454-2.9952l-1.112-4.8778 26.015 0.1712z" fill="url(#a)" stroke="#2E3374" stroke-miterlimit="10" stroke-width="1.8"/>
<path d="m190.21 232.34-45.098-195.54c-0.856-3.423-3.509-6.3326-5.99-6.3326l-78.473-0.3423c-2.5673 0-3.9365 2.7384-3.0808 6.247l45.098 195.63c0.856 3.337 3.509 6.247 5.991 6.247l78.472 0.342c2.482 0 3.937-2.738 3.081-6.247zm-84.292-0.599-44.927-195.2 26.528 0.1112 1.2751 4.9377c0.3423 1.6259 1.6259 2.9952 2.7384 2.9952l23.961 0.0855c1.113-0.0855 1.797-1.3692 1.455-2.9951l-1.267-4.9035 25.998 0.1113 44.927 195.28-80.689-0.428z" fill="#15ADC2" stroke="#2E3374" stroke-miterlimit="10" stroke-width="1.8"/>
<path d="m112.8 41.675-19.452-0.0856c-0.5107-0.0811-0.9862-0.3111-1.3667-0.6612-0.3806-0.3502-0.6494-0.8048-0.7727-1.307-0.0846-0.2018-0.1218-0.4204-0.1086-0.6389s0.0764-0.431 0.1847-0.6212c0.1083-0.1901 0.2589-0.3529 0.44-0.4757 0.1812-0.1228 0.3882-0.2023 0.6049-0.2325l19.494 0.0856c0.511 0.0811 0.986 0.3111 1.367 0.6613 0.38 0.3501 0.649 0.8047 0.772 1.3069 0.163 1.1981-0.35 1.9683-1.163 1.9683z" fill="#15ADC2" stroke="#2E3374" stroke-miterlimit="10" stroke-width="1.8"/>
<path d="m190.29 118.44c-5.99-4.45-8.472-11.124-11.724-17.457-0.513-1.0269-5.99-5.1345-3.252-5.3057 5.734-0.3423 8.044 7.1027 9.499 11.724 1.027 3.166 3.937 5.563 5.648 7.445 2.739 2.824 1.968 2.225-0.171 3.594z" fill="#fff" stroke="#2E3374" stroke-miterlimit="10" stroke-width="1.8"/>
<path d="m211.69 101.06c-2.482 20.11-18.912 13.435-23.79 4.877-4.279-7.5303-11.039-7.8726-9.584-1.797 4.535 20.624 24.902 23.619 41.504 14.12 7.702-4.279-4.193-14.462-8.13-17.2z" fill="#fff" stroke="#2E3374" stroke-miterlimit="10" stroke-width="1.8"/>
<path d="m178.57 245.43c3.936 3.509 8.729 4.108 13.521 3.68 1.112-1.198 2.139-2.396 3.252-3.594 0.513 1.283 1.027 2.567 1.54 3.936 0.718 0.044 1.432 0.129 2.14 0.257 0.342-4.279 0.941-8.472 1.54-12.751-2.139-0.085-4.193-0.342-6.333-0.342 0.257 2.139-2.139 5.049-3.851 5.391-2.481 0.514-14.205 1.369-11.809 3.423z" fill="#D5401A" stroke="#2E3374" stroke-miterlimit="10" stroke-width="1.8"/>
<path d="m220.16 248.6c4.707 2.139 9.584 1.454 14.034-0.343 0.685-1.54 1.455-2.909 2.14-4.279 0.855 1.113 1.797 2.14 2.653 3.252 0.675-0.162 1.362-0.277 2.053-0.342-0.855-4.193-1.54-8.386-2.31-12.58-2.054 0.514-4.108 0.942-6.162 1.455 0.856 2.054-0.599 5.563-2.053 6.333-2.311 1.027-13.265 5.22-10.355 6.504z" fill="#D5401A" stroke="#2E3374" stroke-miterlimit="10" stroke-width="1.8"/>
<path d="m229.57 234.48c4.877 3.594 8.044 2.909 12.323-1.284-3.252-36.198-8.9-62.128-7.274-86.688-4.45-2.995-14.035-2.139-18.57-5.135 2.653 31.749 7.017 60.417 13.521 93.107z" fill="#fff" stroke="#2E3374" stroke-miterlimit="10" stroke-width="1.8"/>
<path d="m191.75 234.65c3.68 4.792 6.76 5.049 12.066 2.396 7.445-35.6 9.585-61.957 18.313-84.977-3.337-4.107-12.836-6.161-16.173-10.354-6.761 31.064-10.869 59.817-14.206 92.935z" fill="#fff" stroke="#2E3374" stroke-miterlimit="10" stroke-width="1.8"/>
<path d="m204.93 75.734 7.189 13.949-8.216 8.6431s-4.792-12.58-6.674-13.35c-1.883-0.7701 7.701-9.2421 7.701-9.2421z" fill="#fff" stroke="#2E3374" stroke-miterlimit="10" stroke-width="1.8"/>
<path d="m209.72 84.891c-2.263 1.7919-4.147 4.016-5.543 6.5429s-2.275 5.3062-2.586 8.1761c-0.599 7.2742 3.936 23.362 4.279 32.262 0.342 6.247-6.162 25.501-6.162 25.501s29.01 2.91 34.572-8.643c2.14-4.535-7.188-18.57-11.124-45.697-1.797-11.211-8.044-17.543-13.436-18.142z" fill="#fff" stroke="#2E3374" stroke-miterlimit="10" stroke-width="1.8"/>
<path d="m184.3 125.88c-7.103 1.284-14.12-3.166-21.822-3.508-1.198 0-7.873 1.455-6.675-0.342 2.568-3.937 9.585-2.482 15.661-1.455 4.193 0.684 6.503-0.599 9.755-0.599 5.477 0 3.68 4.45 3.081 5.904z" fill="#fff" stroke="#2E3374" stroke-miterlimit="10" stroke-width="1.8"/>
<path d="m201.67 98.925c-0.342 15.061-24.218 19.255-31.663 19.255-6.76 0.085-10.525 5.562-6.075 6.931 14.89 4.792 39.279 1.284 45.183-7.53" fill="#fff"/>
<path d="m201.67 98.925c-0.342 15.061-24.218 19.255-31.663 19.255-6.76 0.085-10.525 5.562-6.075 6.931 14.89 4.792 39.279 1.284 45.183-7.53" stroke="#2E3374" stroke-miterlimit="10" stroke-width="1.8"/>
<path d="m191.15 73.338c-0.343 5.9047-1.198 12.58 3.337 12.922 4.536 0.3423 13.179-6.0758 13.435-11.895 0.257-5.8191-3.166-10.782-7.787-11.039s-8.643 4.1932-8.985 10.012z" fill="#fff" stroke="#2E3374" stroke-miterlimit="10" stroke-width="1.8"/>
<path d="m189.61 67.604c-0.855 1.7971 0.343 3.9365 2.14 4.7923 1.626 0.9413 3.68 1.1124 5.562 1.6259 1.883 0.5134 3.851 1.5403 4.45 3.3374 0.284 1.0622 0.313 2.1763 0.086 3.2519-0.257 2.9096 0 5.9047 1.54 8.3008s12.751 23.619 14.633 25.758c4.108 4.621 8.472-0.513 9.328-1.626 3.166-3.936-10.782-23.876-11.381-29.01-0.257-1.7971-2.311-13.949-2.995-15.575-1.455-3.2519-1.798-4.6211-5.049-6.1614-2.739-1.2837-5.991-2.3106-8.986-1.7971-3.081 0.8557-7.53 3.1663-9.328 7.1027z" fill="#2E3374" stroke="#2E3374" stroke-miterlimit="10" stroke-width="1.8"/>
<path d="m102.06 155.23-0.685 10.354-0.856 10.355c-0.342 3.509-0.342 6.932-0.8555 10.355-0.2567 1.797-0.3423 3.508-0.6846 5.134-0.3423 1.797-0.5134 3.509-0.9413 5.135h-0.0856c0-1.797 0-3.509 0.0856-5.22 0.0856-1.712 0.2567-3.509 0.3423-5.221 0.2567-3.508 0.6846-6.846 1.1125-10.354l1.1976-10.355 1.284-10.354v0.171h0.086z" fill="#fff" stroke="#393939" stroke-miterlimit="10" stroke-width="1.5"/>
<path d="m154.1 122.29c1.112-0.513 7.873-1.455 6.161-2.738-2.482-1.797-5.905-0.856-9.499 1.027-1.968 0.941 0.257 2.139 0.257 2.139l3.081-0.428z" fill="#fff" stroke="#2E3374" stroke-miterlimit="10" stroke-width="1.8"/>
<path d="m133.9 104.4c-0.257-1.198-2.91-7.4451-0.856-6.675 2.909 1.1125 4.279 4.536 4.621 8.643 0.086 1.968-2.738 5.734-3.765-1.968z" fill="#fff" stroke="#2E3374" stroke-miterlimit="10" stroke-width="1.8"/>
<path d="m156.23 246.71-23.362 3.08-1.626-9.841 6.076-0.855 4.279 4.535c3.337 0.342 9.755-0.856 12.323 1.198l2.31 1.883z" fill="#fff" stroke="#2E3374" stroke-miterlimit="10" stroke-width="1.8"/>
<path d="m137.24 239.18-6.076 0.856c-3.936-27.384-10.697-57.763-34.658-88.571 10.526 4.622 24.218 3.595 24.218 3.595 25.245 33.545 17.799 44.071 16.516 84.12z" fill="#F8B243" stroke="#2E3374" stroke-miterlimit="10" stroke-width="1.8"/>
<path d="m130.48 77.874 3.509 15.318-11.381-1.2836 7.872-14.034z" fill="#15ADC2" stroke="#2E3374" stroke-miterlimit="10" stroke-width="1.8"/>
<path d="m115.5 146.76-3.166 8.472-14.805 39.963-6.6749-29.01 3.6797-16.944 2.6979-12.322 18.268 9.841z" fill="#F8B243" stroke="#2E3374" stroke-miterlimit="10" stroke-width="1.8"/>
<path d="m116.87 79.927-1.797 19.597 7.788 6.5039s1.797-14.719 3.679-15.318c1.883-0.8558-9.67-10.782-9.67-10.782z" fill="#fff" stroke="#2E3374" stroke-miterlimit="10" stroke-width="1.8"/>
<path d="m109.34 129.9c22.164 15.318 30.808-14.376 30.551-18.142-0.342-9.584-8.472-8.472-8.472-4.792 0 10.868-8.13 11.467-17.372 12.58-9.071 1.027-7.616 8.215-4.707 10.354z" fill="#fff" stroke="#2E3374" stroke-miterlimit="10" stroke-width="1.8"/>
<path d="m131.5 81.639c-0.856 5.9047-1.284 12.836-5.99 12.066-4.707-0.599-11.724-8.7287-11.04-14.548 0.685-5.8191 5.306-10.098 9.927-9.4989 4.792 0.9414 8.044 6.1615 7.103 11.981z" fill="#fff" stroke="#2E3374" stroke-miterlimit="10" stroke-width="1.8"/>
<path d="m113.1 72.397c-1.968 2.0538-4.45 12.58-3.851 15.489 0.599 2.7384 7.873 4.8778 10.526 6.0758-0.599-1.4548-0.257-13.179 0.941-14.12s8.986-1.1125 11.895 2.3961c0.143-2.2023 0.028-4.4137-0.342-6.5893-0.16-0.9985-0.543-1.948-1.121-2.7777-0.578-0.8298-1.335-1.5184-2.217-2.0145-6.589-4.1076-10.269-0.6846-10.269-0.6846s-2.31-0.8558-5.562 2.2249z" fill="#15ADC2" stroke="#2E3374" stroke-miterlimit="10" stroke-width="1.8"/>
<path d="m115.5 94.903s7.445 9.2419 8.387 3.9364c0.513-2.9951 6.589 11.04 6.76 15.318 0.257 3.679-4.792 11.039-4.792 11.039l-3.509 29.609s-27.127 3.508-29.266-8.986c-1.0269-6.332 11.039-12.75 11.381-40.049 0-3.851 5.562-10.269 11.039-10.868z" fill="#fff" stroke="#2E3374" stroke-miterlimit="10" stroke-width="1.8"/>
<path d="m112.76 104.4c4.878 13.949 25.759 19.254 32.861 16.687 6.333-2.396 11.895 1.455 8.216 4.279-12.238 9.841-31.749 6.076-40.563-0.257-0.978-0.689-1.868-1.493-2.653-2.396" fill="#fff"/>
<path d="m112.76 104.4c4.878 13.949 25.759 19.254 32.861 16.687 6.333-2.396 11.895 1.455 8.216 4.279-12.238 9.841-31.749 6.076-40.563-0.257-0.978-0.689-1.868-1.493-2.653-2.396" stroke="#2E3374" stroke-miterlimit="10" stroke-width="1.8"/>
<path d="m453.44 53.142c1.626-1.0269 3.338-1.9683 5.22-1.9683 2.397 0.0856 4.45 1.9683 5.306 4.1076 0.839 2.2107 1.218 4.5695 1.113 6.9317-0.102 2.342 0.188 4.6845 0.855 6.9316 0.942 2.6528 2.739 4.8777 3.68 7.5306 0.473 1.4937 0.611 3.0733 0.403 4.6263-0.207 1.5531-0.753 3.0414-1.601 4.3591-0.549 0.9202-1.351 1.6629-2.31 2.1394-0.689 0.2611-1.408 0.4337-2.14 0.5134-2.155 0.2869-4.33 0.4013-6.504 0.3423-1.372-0.0471-2.716-0.3978-3.936-1.0269-1.029-0.6586-1.835-1.6132-2.311-2.7384-1.626-3.0807-2.053-6.6749-2.139-10.183-0.173-5.442 0.668-10.869 2.482-16.003l1.882-5.5624z" fill="#D5401A" stroke="#2E3374" stroke-miterlimit="10" stroke-width="1.8"/>
<path d="m490.49 245.43-24.218 2.995-1.455-11.467 6.247-0.684 4.45 5.22c3.509 0.342 10.098-0.685 12.58 1.797l2.396 2.139z" fill="#fff" stroke="#2E3374" stroke-miterlimit="10" stroke-width="1.8"/>
<path d="m471.06 236.19-6.247 0.685c-3.337-31.663-0.342-51.602-24.217-87.715 4.107-3.252 8.215-6.504 12.408-9.756 24.902 39.451 20.624 50.747 18.056 96.786z" fill="#fff" stroke="#2E3374" stroke-miterlimit="10" stroke-width="1.8"/>
<path d="m401.24 241.32c-5.22-6.333-10.44-12.837-15.66-19.255 2.995-2.653 6.247-4.792 9.499-7.274 1.455 1.541 2.738 3.166 4.193 4.707-0.856 2.31-2.139 4.279-2.909 6.675 2.053 3.936 5.305 7.274 5.305 11.895 0 1.112-0.342 2.139-0.428 3.252z" fill="#fff" stroke="#2E3374" stroke-miterlimit="10" stroke-width="1.8"/>
<path d="m399.27 219.5c-1.454-1.54-2.738-3.166-4.193-4.707 35.514-33.973 34.487-39.279 29.524-75.477 7.188 0.513 14.462 0.856 21.565 1.797 2.396 36.626-9.841 52.458-46.896 78.387z" fill="#fff" stroke="#2E3374" stroke-miterlimit="10" stroke-width="1.8"/>
<path d="m448.56 65.208-2.311 19.768 7.787 6.6749s2.054-14.89 3.937-15.489c1.883-0.599-9.413-10.954-9.413-10.954z" fill="#fff" stroke="#2E3374" stroke-miterlimit="10" stroke-width="1.8"/>
<path d="m463.36 66.406c-0.942 5.9903-1.541 12.922-6.247 12.237-1.982-0.5478-3.783-1.6107-5.221-3.0807 0 0 0.343-4.5355 1.284-6.5893s5.734-4.7066 6.846-7.5306c0.939 1.7647 2.058 3.4279 3.338 4.9633z" fill="#fff" stroke="#2E3374" stroke-miterlimit="10" stroke-width="1.8"/>
<path d="m419.04 111.08c-6.675 2.482-19.768 6.247-26.785 5.134-1.198-0.256-5.22 3.252-4.279 1.198 1.798-4.278 8.644-5.562 14.719-5.648 3.3 0.013 6.594-0.274 9.842-0.855 5.562-0.77 6.931-1.369 6.503 0.171z" fill="#fff" stroke="#2E3374" stroke-miterlimit="10" stroke-width="1.8"/>
<path d="m470.04 112.19c6.675 2.482 19.768 6.247 26.785 5.135 1.198-0.257 5.22 3.252 4.279 1.198-1.797-4.279-8.644-5.563-14.719-5.648-3.328 8e-3 -6.65-0.279-9.927-0.856-5.477-0.77-6.846-1.369-6.418 0.171z" fill="#fff" stroke="#2E3374" stroke-miterlimit="10" stroke-width="1.8"/>
<path d="m453.44 89.17s27.299 20.281 34.744 21.565c6.674 1.198 9.498 8.472 4.706 9.242-15.489 2.31-42.873-11.895-47.323-21.736-4.193-10.012 1.198-8.1297 7.873-9.071z" fill="#fff" stroke="#2E3374" stroke-miterlimit="10" stroke-width="1.8"/>
<path d="m446.76 80.441s7.445 9.5844 8.386 4.1076c0.513-2.9951 6.333 11.296 6.589 15.66 0.086 3.851-2.567 10.782-2.567 10.782l18.57 73.253s-67.348 3.594-70.258-8.9c-4.278-18.827 26.957-56.565 27.812-84.121 0.172-3.9365 6.076-10.355 11.468-10.782z" fill="#fff" stroke="#2E3374" stroke-miterlimit="10" stroke-width="1.8"/>
<path d="m436.66 87.372c-3.338 4.7922-28.411 20.966-35.856 22.42-6.675 1.198-9.499 8.472-4.707 9.242 10.098 1.455 25.758-3.337 36.284-10.183 3.245-2.03 6.233-4.443 8.9-7.188" fill="#fff"/>
<path d="m436.66 87.372c-3.338 4.7922-28.411 20.966-35.856 22.42-6.675 1.198-9.499 8.472-4.707 9.242 10.098 1.455 25.758-3.337 36.284-10.183 3.245-2.03 6.233-4.443 8.9-7.188" stroke="#2E3374" stroke-miterlimit="10" stroke-width="1.8"/>
<path d="m458.74 56.138c-0.686-1.4754-1.678-2.7881-2.91-3.8509-0.609-0.5235-1.316-0.9215-2.079-1.1712-0.764-0.2496-1.569-0.346-2.37-0.2836-1.371 0.3243-2.619 1.0375-3.595 2.0538-2.053 2.1394-3.166 4.8778-4.621 7.4451-1.454 2.5672-3.337 5.1345-6.161 5.9902-2.14 0.5991-4.621 0.3424-6.247 1.7971-0.679 0.6968-1.179 1.5486-1.455 2.4817-0.685 2.1394-1.027 4.7922 0.342 6.7605 0.529 0.8012 1.231 1.4738 2.054 1.9682 2.482 1.7971 4.878 3.5942 7.445 5.2201 1.541 1.0269 3.252 2.1394 5.135 1.7971 1.145-0.3106 2.182-0.9327 2.995-1.7971 2.552-2.6682 4.173-6.0904 4.621-9.7556 0.257-1.4548 0.257-2.9951 0.856-4.2788 0.941-2.0538 2.909-3.3374 4.621-4.7922 1.711-1.4547 3.252-3.5086 2.909-5.7335-0.445-1.3099-0.959-2.5953-1.54-3.8509z" fill="#D5401A" stroke="#2E3374" stroke-miterlimit="10" stroke-width="1.8"/>
<path d="m360.59 243.03c-4.194 3.081-8.986 3.338-13.864 2.482-1.027-1.284-1.968-2.567-2.995-3.851-0.589 1.261-1.246 2.49-1.968 3.68h-2.139c-0.086-4.279-0.257-8.472-0.343-12.837 2.14 0.086 4.194 0 6.333 0.086-0.342 2.139 1.797 5.22 3.252 5.733 2.738 1.027 14.291 2.824 11.724 4.707z" fill="#2E3374" stroke="#2E3374" stroke-miterlimit="10" stroke-width="1.8"/>
<path d="m349.63 231.14c-4.108 4.536-7.188 4.45-12.323 1.198 10.269-40.22 7.103-52.286-10.697-86.431 3.851-3.851 7.445-7.531 11.296-11.381 21.48 33.46 23.961 58.276 11.724 96.614z" fill="#fff" stroke="#2E3374" stroke-miterlimit="10" stroke-width="1.8"/>
<path d="m294.35 250.14c-5.049-1.797-7.702-5.648-9.756-10.184 0.514-1.54 0.942-2.995 1.455-4.535-1.283 0.085-2.738 0.342-4.107 0.342-0.421-0.567-0.793-1.168-1.113-1.797 3.337-2.396 6.846-4.707 10.269-7.103 1.113 1.797 2.396 3.338 3.509 5.22-1.969 0.856-3.252 4.194-2.739 5.734 0.685 2.653 5.477 13.35 2.482 12.323z" fill="#2E3374" stroke="#2E3374" stroke-miterlimit="10" stroke-width="1.8"/>
<path d="m293.92 233.88c-2.995-1.455-5.99-2.739-8.9-4.108 14.035-31.92 26.015-61.443 36.969-94.561 5.391 4.707 10.868 9.499 16.345 14.12-13.264 29.866-28.497 56.394-44.414 84.549z" fill="#fff" stroke="#2E3374" stroke-miterlimit="10" stroke-width="1.8"/>
<path d="m346.12 71.113-7.188 13.949 8.215 8.6431s4.792-12.58 6.675-13.35c1.968-0.599-7.702-9.2421-7.702-9.2421z" fill="#fff" stroke="#2E3374" stroke-miterlimit="10" stroke-width="1.8"/>
<path d="m313.01 100.04c-5.562 5.22-8.044 11.124-12.579 18.056-0.685 1.112-6.162 5.99-3.851 6.076 4.878 0.257 8.129-6.675 11.039-12.58 2.054-3.936 4.621-5.134 6.675-8.044 3.337-4.8776 0.342-3.081-1.284-3.508z" fill="#fff" stroke="#2E3374" stroke-miterlimit="10" stroke-width="1.8"/>
<path d="m344.33 98.668c-13.178-9.1566-30.978 9.1565-35.684 15.574-4.279 5.734-11.296 5.648-9.756 0.941 5.134-15.916 26.528-28.667 38.509-33.288 5.648-2.3105 9.242 9.9267 6.931 16.773z" fill="#15ADC2" stroke="#2E3374" stroke-miterlimit="10" stroke-width="1.8"/>
<path d="m359.99 68.803c0.343 5.9047 1.198 12.58-3.337 12.922s-13.179-6.0759-13.435-11.895c-0.257-5.8191 3.166-10.782 7.787-11.039 4.536-0.0856 8.558 4.2788 8.985 10.012z" fill="#fff" stroke="#2E3374" stroke-miterlimit="10" stroke-width="1.8"/>
<path d="m363.58 61.957c0.384-1.9775 0.206-4.0232-0.514-5.9047-0.599-1.4548-2.31-2.7384-3.594-2.0538-0.963-1.2826-2.364-2.166-3.937-2.4817-0.78-0.1316-1.581-0.0119-2.289 0.3419-0.707 0.3538-1.284 0.9233-1.647 1.6263-0.652-0.4603-1.409-0.7487-2.202-0.8384-0.793-0.0898-1.595 0.022-2.333 0.325-0.701 0.3286-1.305 0.8318-1.754 1.4613-0.45 0.6294-0.73 1.3639-0.814 2.1329-2.909-0.5135-3.166 1.9682-2.567 4.2787-2.653 1.4548-3.937 5.7336-0.257 6.3326-0.328 1.2594-0.358 2.5782-0.085 3.8509 0.085 0.3423 0.256 0.599 0.342 0.9413 0.191 0.2351 0.456 0.3974 0.752 0.4597s0.605 0.0209 0.874-0.1174c0.6-0.1431 1.139-0.4726 1.54-0.9413 0.68-0.5972 1.233-1.3247 1.626-2.1394 0.529-0.9175 0.851-1.9399 0.942-2.9951 0.817-0.0225 1.621-0.217 2.358-0.5709 0.737-0.3538 1.391-0.8592 1.92-1.4829 1.027 1.2836 1.969 2.9095 3.594 3.5941 0.343 0.2568 4.707 0.5135 4.194-0.5134 0.513 1.0269 1.968 1.198 2.995 0.6846 0.474-0.317 0.857-0.752 1.112-1.2622 0.256-0.5101 0.373-1.0779 0.343-1.6474 0.342-1.0269-0.172-1.9682-0.599-3.0807z" fill="#2E3374" stroke="#2E3374" stroke-miterlimit="10" stroke-width="1.8"/>
<path d="m341.42 80.355c2.263 1.7919 4.147 4.016 5.543 6.5429 1.395 2.5269 2.275 5.3062 2.586 8.1761 0.599 7.2737-3.936 23.362-4.279 32.262-0.342 6.247 2.91 25.416 2.91 25.416s-33.973-4.193-39.45-15.66c-2.14-4.536 15.318-11.382 19.425-38.509 1.541-11.296 7.788-17.629 13.265-18.228z" fill="#15ADC2" stroke="#2E3374" stroke-miterlimit="10" stroke-width="1.8"/>
<path d="m366.83 121.43c7.103 1.284 14.12-3.166 21.822-3.508 1.198 0 7.873 1.455 6.675-0.342-2.568-3.937-9.585-2.482-15.661-1.455-4.193 0.684-6.503-0.599-9.755-0.599-5.563-0.086-3.68 4.45-3.081 5.904z" fill="#fff" stroke="#2E3374" stroke-miterlimit="10" stroke-width="1.8"/>
<path d="m349.55 95.074c0.342 15.062 24.132 18.57 31.663 18.656 6.76 0.085 10.526 5.562 6.076 6.931-14.891 4.793-38.338-1.198-48.35-13.178" fill="#15ADC2"/>
<path d="m349.55 95.074c0.342 15.062 24.132 18.57 31.663 18.656 6.76 0.085 10.526 5.562 6.076 6.931-14.891 4.793-38.338-1.198-48.35-13.178" stroke="#2E3374" stroke-miterlimit="10" stroke-width="1.8"/>
<defs>
<linearGradient id="a" x1="83.58" x2="179" y1="36.797" y2="231.91" gradientUnits="userSpaceOnUse">
<stop stop-color="#98DFE9" offset="0"/>
<stop stop-color="#EBFDFF" offset="1"/>
</linearGradient>
</defs>
</svg>
