<svg width="363" height="479" viewBox="0 0 363 479" fill="none" xmlns="http://www.w3.org/2000/svg">
<path d="M181.299 476.566C255.084 476.566 314.898 473.343 314.898 469.368C314.898 465.392 255.084 462.17 181.299 462.17C107.514 462.17 47.6992 465.392 47.6992 469.368C47.6992 473.343 107.514 476.566 181.299 476.566Z" fill="#CFDEFB"/>
<path d="M286.9 180.049V145.759H75.6996V180.049C55.6493 180.049 36.4201 188.012 22.2424 202.186C8.06462 216.36 0.0996094 235.583 0.0996094 255.628C0.0996094 275.673 8.06462 294.896 22.2424 309.07C36.4201 323.244 55.6493 331.207 75.6996 331.207C79.3471 331.193 82.9892 330.925 86.5996 330.407C94.126 345.367 105.092 358.331 118.598 368.236C132.104 378.141 147.766 384.706 164.3 387.391V440.876H134.8C131.175 440.874 127.585 441.587 124.236 442.973C120.887 444.36 117.844 446.392 115.281 448.954C112.717 451.517 110.684 454.559 109.298 457.907C107.911 461.255 107.198 464.844 107.2 468.468H255.2C255.201 464.844 254.488 461.255 253.101 457.907C251.715 454.559 249.682 451.517 247.119 448.954C244.556 446.392 241.512 444.36 238.163 442.973C234.814 441.587 231.224 440.874 227.6 440.876H198.1V387.491C214.647 384.805 230.319 378.23 243.828 368.305C257.336 358.381 268.294 345.392 275.8 330.407C279.511 330.925 283.253 331.193 287 331.207C296.928 331.2 306.757 329.239 315.927 325.435C325.096 321.63 333.427 316.058 340.442 309.035C347.458 302.012 353.021 293.677 356.814 284.504C360.607 275.332 362.556 265.503 362.55 255.578C362.543 245.653 360.581 235.826 356.776 226.659C352.97 217.492 347.396 209.164 340.372 202.15C333.347 195.137 325.009 189.575 315.834 185.783C306.66 181.991 296.828 180.043 286.9 180.049ZM75.6996 308.313C61.7227 308.313 48.3183 302.762 38.4351 292.882C28.552 283.002 22.9996 269.601 22.9996 255.628C22.9996 241.655 28.552 228.254 38.4351 218.374C48.3183 208.493 61.7227 202.943 75.6996 202.943V274.623C75.4996 277.422 75.2996 280.121 75.2996 282.92C75.3241 291.405 76.3307 299.859 78.2996 308.113C77.4375 308.23 76.5694 308.296 75.6996 308.313ZM286.9 308.313C285.9 308.313 284.9 308.313 283.9 308.213C285.917 299.968 286.925 291.508 286.9 283.02V203.043C300.863 203.043 314.255 208.588 324.129 218.459C334.003 228.33 339.55 241.718 339.55 255.678C339.55 269.638 334.003 283.026 324.129 292.897C314.255 302.768 300.863 308.313 286.9 308.313Z" fill="#F1F6FF"/>
<path d="M109.1 213.04C109.089 189.487 115.114 166.323 126.6 145.759H75.6V180.049C55.5496 180.049 36.3204 188.012 22.1427 202.186C7.96495 216.36 0 235.583 0 255.628C0 275.673 7.96495 294.896 22.1427 309.07C36.3204 323.244 55.5496 331.207 75.6 331.207C79.2474 331.193 82.8896 330.925 86.5 330.407C94.0264 345.367 104.992 358.331 118.498 368.236C132.004 378.141 147.666 384.706 164.2 387.391V440.876H134.7C131.075 440.874 127.486 441.587 124.136 442.973C120.787 444.36 117.744 446.392 115.181 448.954C112.618 451.517 110.585 454.559 109.198 457.907C107.812 461.255 107.099 464.844 107.1 468.468H255.1C255.101 464.844 254.388 461.255 253.002 457.907C251.615 454.559 249.582 451.517 247.019 448.954C244.456 446.392 241.413 444.36 238.064 442.973C234.714 441.587 231.125 440.874 227.5 440.876H198V387.491C223.568 383.342 246.729 369.969 263.1 349.901C257.721 350.505 252.313 350.806 246.9 350.801C210.354 350.798 175.306 336.283 149.464 310.449C123.622 284.614 109.103 249.576 109.1 213.04ZM75.7 308.313C61.7231 308.313 48.3187 302.762 38.4355 292.882C28.5523 283.002 23 269.601 23 255.628C23 241.655 28.5523 228.254 38.4355 218.374C48.3187 208.493 61.7231 202.943 75.7 202.943V274.623C75.5 277.422 75.3 280.121 75.3 282.92C75.3244 291.405 76.3311 299.859 78.3 308.113C77.4379 308.23 76.5698 308.296 75.7 308.313Z" fill="#85A0D3"/>
<path d="M278.301 139.66L279.001 146.458C280.101 146.458 292.001 145.959 292.101 145.259C292.201 144.559 283.001 143.159 283.001 143.159C283.062 142.059 283.029 140.955 282.901 139.86C282.801 139.56 278.301 139.66 278.301 139.66Z" fill="#2E3374" stroke="#2E3374" stroke-width="1.7" stroke-miterlimit="10"/>
<path d="M254.201 196.245L252.801 202.943C253.801 203.343 265.301 206.342 265.701 205.742C266.101 205.142 257.601 201.043 257.601 201.043C258 200.042 258.302 199.004 258.501 197.944C258.501 197.444 254.201 196.245 254.201 196.245Z" fill="#2E3374" stroke="#2E3374" stroke-width="1.7" stroke-miterlimit="10"/>
<path d="M233.001 112.068C233.001 112.068 250.601 77.7776 270.901 80.1769C291.201 82.5763 285.201 140.36 285.201 140.36H277.201C277.201 140.36 275.501 97.9718 268.501 98.0718C261.501 98.1718 238.401 130.563 238.401 130.563C238.401 130.563 268.601 127.963 272.601 148.558C277.501 173.551 260.301 199.343 260.301 199.343L250.601 198.943C250.601 198.943 269.201 155.256 258.701 148.858C242.601 139.06 211.601 156.655 199.301 133.562L233.001 112.068Z" fill="white" stroke="#2E3374" stroke-width="1.7" stroke-miterlimit="10"/>
<path d="M210.4 66.1812C210.4 66.1812 232.4 74.3789 243.6 69.6802C254.8 64.9815 267.5 41.688 274.7 41.3881C281.9 41.0882 282.2 38.5889 282.2 38.5889C282.2 38.5889 281.6 44.987 277 45.2869C272.4 45.5868 266.8 72.1795 248.8 79.3774C230.8 86.5754 212.1 80.7769 212.1 80.7769C212.1 80.7769 207.9 69.1804 210.4 66.1812Z" fill="white" stroke="#2E3374" stroke-width="1.7" stroke-miterlimit="10"/>
<path d="M203.7 33.3902C203.9 32.8903 210.4 22.8931 221 29.3913C225.4 32.1905 225.5 37.3891 231 38.6887C236.5 39.9884 244.4 34.7897 247.2 43.7871C250 52.7846 246.8 55.2839 251.7 56.2836C256.6 57.2833 260.3 56.6837 259.1 63.6817C257.4 73.6789 242.1 73.9786 240.2 68.2803C235.4 53.8843 227.3 70.8796 223.2 58.0832C221.2 51.7849 193.8 61.7822 203.7 33.3902Z" fill="white" stroke="#2E3374" stroke-width="1.7" stroke-miterlimit="10"/>
<path d="M220.2 65.2815C220.2 65.2815 229.8 70.9798 231.3 70.9798C232.8 70.9798 231.3 80.977 231.3 80.977C231.3 80.977 217.8 74.3789 220.2 65.2815Z" fill="#D5401A" stroke="#2E3374" stroke-width="1.7" stroke-miterlimit="10"/>
<path d="M220.2 65.2813C220.2 65.2813 182.2 51.2853 199.4 133.562C199.4 133.562 238.9 120.966 233 112.068C228.9 105.87 227.3 110.069 226.5 100.072C225.7 90.0744 248.2 88.7747 220.2 65.2813Z" fill="#D5401A" stroke="#2E3374" stroke-width="1.7" stroke-miterlimit="10"/>
<path d="M220.599 44.1872C219.499 43.9872 218.299 45.0868 217.599 46.0865C217.099 43.1873 216.799 40.3881 216.599 38.0888C216.299 34.1899 205.199 33.49 202.899 41.4877C202.899 41.4877 200.099 54.0842 206.899 55.9836C209.499 56.6834 210.899 56.0838 211.699 55.1841L210.199 64.6814C210.199 64.6814 213.699 69.08 220.199 65.2811C220.799 64.8812 219.599 57.8833 218.399 50.3854C218.862 50.5893 219.381 50.6312 219.871 50.5042C220.361 50.3772 220.793 50.0888 221.099 49.6856C221.999 48.286 222.599 44.587 220.599 44.1872Z" fill="white" stroke="#2E3374" stroke-width="1.7" stroke-miterlimit="10"/>
<path d="M214.499 79.9774C214.499 79.9774 235.399 90.6744 247.099 87.2754C258.799 83.8763 274.099 62.1824 281.199 62.7823C288.299 63.3821 288.899 60.7828 288.899 60.7828C288.899 60.7828 287.599 67.0811 282.899 66.7811C278.199 66.4812 269.699 92.374 250.999 97.3726C232.299 102.371 214.399 94.5734 214.399 94.5734C214.399 94.5734 211.599 82.6766 214.499 79.9774Z" fill="white" stroke="#2E3374" stroke-width="1.7" stroke-miterlimit="10"/>
<path d="M211.6 76.2788C211.6 76.2788 224.3 81.1774 225.2 82.9769C226.1 84.7764 223.8 99.8721 220.4 98.9724C217 98.0726 205.5 96.0734 205.3 88.6755C205.1 81.2776 207.3 74.4793 211.6 76.2788Z" fill="#D5401A" stroke="#2E3374" stroke-width="1.5" stroke-miterlimit="10"/>
<path d="M282.2 64.3821C288.569 64.3821 294.794 62.4941 300.089 58.9569C305.385 55.4197 309.512 50.3922 311.949 44.51C314.386 38.6279 315.024 32.1554 313.781 25.911C312.539 19.6666 309.472 13.9306 304.969 9.4286C300.466 4.92661 294.728 1.86092 288.482 0.618822C282.236 -0.623273 275.761 0.0141255 269.878 2.45058C263.994 4.88704 258.965 9.01309 255.427 14.3069C251.888 19.6006 250 25.8245 250 32.1912C249.997 36.4193 250.828 40.6064 252.446 44.5132C254.063 48.42 256.435 51.9698 259.425 54.9595C262.416 57.9492 265.967 60.3202 269.875 61.937C273.782 63.5538 277.971 64.3848 282.2 64.3821Z" fill="#FD8208"/>
<path d="M272.301 32.1912V33.5911H281.501V32.1912H272.301Z" fill="white"/>
<path d="M282.898 32.1912V33.5911H292.098V32.1912H282.898Z" fill="white"/>
<path d="M314.3 33.5911V32.1912H293.5V33.5911H314.3Z" fill="white"/>
<path d="M250 32.1912V33.5911H270.9V32.1912H250Z" fill="white"/>
<path d="M282.9 0H281.5V64.382H282.9V0Z" fill="white"/>
<path d="M293.5 33.9904V32.1911C293.9 22.094 297.4 13.0965 302.6 7.39806C302.2 7.09815 301.9 6.79808 301.5 6.49817C296 12.4965 292.4 21.6941 292 32.1911V33.9904C292 43.8876 294.9 52.8853 299.7 59.1835C300.1 58.8836 300.5 58.6836 300.9 58.3837C296.3 52.2854 293.5 43.5877 293.5 33.9904Z" fill="white"/>
<path d="M262.799 6.49817C262.399 6.79808 262.099 7.09815 261.699 7.39806C266.999 13.0965 270.499 22.094 270.799 32.1911V33.9904C270.799 43.5877 267.999 52.2854 263.399 58.3837C263.799 58.6836 264.199 58.8836 264.599 59.1835C269.299 52.8853 272.299 43.8876 272.299 33.9904V32.1911C271.899 21.6941 268.299 12.4965 262.799 6.49817Z" fill="white"/>
<path d="M47.2017 470.867L47.1016 477.665C46.0016 477.765 34.1017 478.365 33.9017 477.665C33.7017 476.965 42.8017 474.766 42.8017 474.766C42.6226 473.676 42.5555 472.571 42.6016 471.467C42.7016 471.167 47.2017 470.867 47.2017 470.867Z" fill="#2E3374" stroke="#2E3374" stroke-width="1.7" stroke-miterlimit="10"/>
<path d="M64.1009 470.867L63.8009 477.665C62.7009 477.765 50.8009 477.965 50.6009 477.265C50.4009 476.565 59.5009 474.666 59.5009 474.666C59.3606 473.572 59.3271 472.467 59.401 471.367C59.601 471.067 64.1009 470.867 64.1009 470.867Z" fill="#2E3374" stroke="#2E3374" stroke-width="1.7" stroke-miterlimit="10"/>
<path d="M72.2004 386.591C72.2004 386.591 80.7004 325.908 72.2004 317.31C59.0004 303.814 35.9004 313.911 35.0004 315.511C31.2004 321.809 30.9004 385.091 30.9004 385.091L72.2004 386.591Z" fill="white" stroke="#2E3374" stroke-width="1.7" stroke-miterlimit="10"/>
<path d="M30.8007 385.091C30.8007 385.091 11.0007 410.484 14.3007 423.28C17.6007 436.077 40.1007 472.666 40.1007 472.666H49.7007C49.7007 472.666 29.2007 427.379 30.8007 422.681C32.4007 417.982 51.5007 399.187 51.5007 399.187C51.5007 399.187 52.6007 449.373 58.5007 472.666H65.2007C65.2007 472.666 72.3007 416.482 72.2007 384.092L30.8007 385.091Z" fill="#F8B243" stroke="#2E3374" stroke-width="1.7" stroke-miterlimit="10"/>
<path d="M56.9015 289.018C56.2015 288.918 55.8015 289.318 55.4015 289.918C55.1015 287.518 54.9014 285.219 54.7014 283.32C54.4014 279.421 44.6014 283.32 42.1014 287.918C42.1014 287.918 38.2014 299.215 45.0014 301.215C47.8014 302.014 49.2015 301.215 49.9015 300.215C49.4015 304.514 48.7014 311.712 48.7014 311.712C48.7014 311.712 51.7014 314.311 58.2014 310.512C58.2014 310.512 57.1014 303.114 56.0014 295.516C56.4823 295.792 57.0438 295.893 57.5907 295.802C58.1376 295.711 58.6361 295.433 59.0014 295.016C60.2014 293.417 58.8015 289.418 56.9015 289.018Z" fill="white" stroke="#2E3374" stroke-width="1.7" stroke-miterlimit="10"/>
<path d="M76.3 386.591C76.3 386.591 70.4 382.392 78.1 374.194C84.6 367.296 100.4 350.301 94.9 344.003C89.4 337.705 76.2 332.906 76.2 332.906L73.5 315.311C73.5 315.311 102.6 326.608 108.5 342.803C114.1 358.099 82.1 376.294 79.4 378.593C75.9 381.593 76.3 386.591 76.3 386.591Z" fill="white" stroke="#2E3374" stroke-width="1.7" stroke-miterlimit="10"/>
<path d="M34.9005 315.411C34.9005 315.411 4.10051 325.108 2.70051 346.702C1.30051 368.296 30.9005 376.293 29.0005 379.892C27.4005 382.892 22.5005 383.792 23.9005 383.592C25.3005 383.392 33.2005 386.391 30.9005 376.194C28.6005 365.996 6.40052 358.499 16.4005 345.202C21.7005 338.104 32.4005 334.305 32.4005 334.305C32.4005 334.305 33.5005 320.109 34.9005 315.411Z" fill="white" stroke="#2E3374" stroke-width="1.7" stroke-miterlimit="10"/>
<path d="M97.0008 328.607C96.4008 328.207 82.6008 316.211 67.7008 312.812C66.5143 312.513 65.3125 312.28 64.1008 312.112L62.8008 422.88H73.7008C73.7008 422.88 75.9008 364.597 76.2008 335.105L88.8008 339.704C88.9008 339.504 97.6008 329.007 97.0008 328.607Z" fill="white" stroke="#2E3374" stroke-width="1.7" stroke-miterlimit="10"/>
<path d="M42.6998 312.012C41.5432 312.113 40.4022 312.348 39.2997 312.712C20.5997 318.61 10.8997 329.707 10.5997 330.007C10.2997 330.307 21.3998 342.004 21.3998 342.004C24.0998 339.504 28.4998 337.405 31.8998 336.005C30.4998 356 30.6998 381.493 30.6998 381.493C30.6998 381.493 20.6998 397.188 15.1998 409.185L21.5997 414.084C21.5997 414.084 40.5997 387.091 40.0997 383.892C39.5997 380.693 42.6998 312.012 42.6998 312.012Z" fill="white" stroke="#2E3374" stroke-width="1.7" stroke-miterlimit="10"/>
<path d="M62.8009 288.819C62.5009 285.52 59.0009 287.219 60.0009 284.92C61.0009 282.621 58.8009 277.422 54.1009 279.921C54.1009 279.921 52.6009 274.623 49.3009 275.823C46.0009 277.022 46.5009 278.822 44.1009 277.822C41.7009 276.823 39.3009 280.521 40.6009 282.921C42.3009 286.02 42.2009 287.019 46.7009 285.92C51.2009 284.82 53.6009 283.321 54.6009 285.12C55.4009 286.52 54.5009 289.719 54.7009 291.318L54.4009 291.518C54.7009 296.517 47.7009 298.916 45.2009 297.117C44.5247 296.604 43.6994 296.327 42.8509 296.327C42.0023 296.327 41.1771 296.604 40.5009 297.117C39.4009 297.717 40.7009 304.814 47.7009 303.915C53.4009 303.215 55.6009 294.617 56.2009 291.518C56.6009 290.719 56.8009 289.719 57.4009 290.519C58.4009 291.818 60.0009 295.317 57.3009 294.917C54.6009 294.517 56.6009 298.116 57.6009 298.016C58.6009 297.917 63.3009 294.018 62.8009 288.819Z" fill="#2E3374" stroke="#2E3374" stroke-width="1.7" stroke-miterlimit="10"/>
</svg>
