<svg width="1280" height="648" viewBox="0 0 1280 648" fill="none" xmlns="http://www.w3.org/2000/svg">
<path d="M0 0H1280V614H0V0Z" fill="url(#paint0_linear)"/>
<path d="M180.833 372.115C202.857 375.041 222.748 386.311 242.639 396.191C273.578 411.562 305.932 424.056 339.147 433.456C364.598 440.65 391.152 446.07 417.394 442.713C478.817 434.871 524.399 381.443 552.75 326.361C581.101 271.279 599.243 210.105 637.851 161.642C676.459 113.178 745.551 80.3971 800.91 108.19C841.412 128.525 861.734 173.608 882.2 214.062C902.667 254.517 931.688 297.417 976.383 304.875C1009.72 310.438 1042.31 294.491 1073.97 282.717C1105.65 270.943 1144.07 263.989 1170.96 284.492C1198.88 305.81 1201.25 345.881 1210.74 379.717C1220.13 413.121 1266.5 456.5 1280 458V544.5V629C1262.5 636 1231 650 1159 640.62C1087 631.241 822.947 610.82 648.001 616C502.22 620.292 351.638 648.102 206.001 640.62C116.373 636.016 43.8921 648.585 0.000402689 647.396L0 559.5L0.000402689 439C34.9657 396.483 128.637 365.209 180.833 372.115Z" fill="#E4F1C0"/>
<defs>
<linearGradient id="paint0_linear" x1="640" y1="0" x2="640" y2="614" gradientUnits="userSpaceOnUse">
<stop stop-color="#E4F1C0"/>
<stop offset="1" stop-color="#E4F1C0" stop-opacity="0.5"/>
</linearGradient>
</defs>
</svg>
