<svg id="Layer_1" data-name="Layer 1" xmlns="http://www.w3.org/2000/svg" viewBox="0 0 294.69 332.52"><defs><style>.cls-1{fill:#ebf5cf;}.cls-2{fill:#c9dc93;}.cls-3{fill:#2e3374;}.cls-3,.cls-4,.cls-5,.cls-7,.cls-9{stroke:#2e3374;stroke-miterlimit:10;stroke-width:1.5px;}.cls-4,.cls-8{fill:#fff;}.cls-5{fill:#f8b243;}.cls-6{fill:#ffbe55;}.cls-7{fill:#d5401a;}.cls-9{fill:none;}</style></defs><path class="cls-1" d="M205.13,315.25c33.7-17.1,94.8-20.5,89.2-128.5s-153.1-111.6-170.2-165-197.19-7.2-90.59,124.5c18.9,23.3-25.4,49.2-17.7,91.6S171.43,332.35,205.13,315.25Z"/><path class="cls-2" d="M139.34,331.05c-66.7,0-120.7-8.3-120.7-18.5s54-18.6,120.7-18.6,120.7,8.3,120.7,18.6S206,331.05,139.34,331.05Z"/><path class="cls-3" d="M48.14,310.05h190.6a7.38,7.38,0,0,0,7.4-7.4V40a7.38,7.38,0,0,0-7.4-7.4H48.14a7.38,7.38,0,0,0-7.4,7.4v262.8A7.36,7.36,0,0,0,48.14,310.05Z"/><path class="cls-4" d="M57.24,300.05h172.3a7.38,7.38,0,0,0,7.4-7.4V50a7.38,7.38,0,0,0-7.4-7.4H57.24a7.38,7.38,0,0,0-7.4,7.4v242.8A7.36,7.36,0,0,0,57.24,300.05Z"/><path class="cls-1" d="M186.14,77.25h26.2v26.2h-26.2Z"/><path class="cls-1" d="M186.14,154.15h26.2v26.2h-26.2Z"/><path class="cls-1" d="M186.14,232.85h26.2v26.2h-26.2Z"/><path class="cls-1" d="M71.54,77.25h102.8v4.2H71.54Z"/><path class="cls-1" d="M71.54,88.25h102.8v4.2H71.54Z"/><path class="cls-1" d="M129.34,99.25H71.44v4.2h102.9v-4.2Z"/><path class="cls-1" d="M71.54,154.15h102.8v4.2H71.54Z"/><path class="cls-1" d="M71.54,165.15h102.8v4.2H71.54Z"/><path class="cls-1" d="M125.34,176.05h49v4.2h-49Z"/><path class="cls-1" d="M71.54,232.85h102.8v4.2H71.54Z"/><path class="cls-1" d="M75.64,243.85h98.6v4.2H75.64Z"/><path class="cls-1" d="M71.54,254.85h102.8v4.2H71.54Z"/><path class="cls-5" d="M98.14,46.15h90.6V26.45a7.38,7.38,0,0,0-7.4-7.4h-75.9a7.38,7.38,0,0,0-7.4,7.4v19.7Z"/><path class="cls-6" d="M88.44,269.85h88.2v53.7H88.44Z"/><path class="cls-2" d="M88.44,269.85h88.2l-7.2-16.2H95.64Z"/><path class="cls-1" d="M88.44,269.85h88.2v53.7H88.44Z"/><path class="cls-4" d="M88.93,316l1.57,9.88-12.42,1.47s4.51-2.63,4.44-5.22-.36-5-.36-5l3.92-.6Z"/><path class="cls-4" d="M67.1,301.15l-.92,10-12.4-1.65s5-1.43,5.59-4,.88-4.89.88-4.89l4,.39Z"/><path class="cls-4" d="M88.86,322.8c.85-.31,1.94-.76,2.6-.05a3.36,3.36,0,0,1,.5.92,10.05,10.05,0,0,1,.62,2.79,2.05,2.05,0,0,1-.49,2,1.78,1.78,0,0,1-1.11.36l-20.42,2.89a2.3,2.3,0,0,1-2.23-.46,2.46,2.46,0,0,1-.44-1.1,4.07,4.07,0,0,1,.2-1.57,3.36,3.36,0,0,1,.86-1.32,8.4,8.4,0,0,1,2.59-1.77c2.32-1.18,6.19-3.34,8.9-2.68C83.33,323.51,85.9,323.91,88.86,322.8Z"/><path class="cls-4" d="M65.35,307.73c.9-.1,2.07-.26,2.53.59a3.4,3.4,0,0,1,.26,1,10.53,10.53,0,0,1-.09,2.86,2.11,2.11,0,0,1-1,1.8,1.79,1.79,0,0,1-1.16.07l-20.5-2.25a2.35,2.35,0,0,1-2.05-1,2.43,2.43,0,0,1-.15-1.18,4,4,0,0,1,.58-1.47A3.36,3.36,0,0,1,45,307.1,8.32,8.32,0,0,1,47.91,306c2.54-.57,6.82-1.7,9.28-.39C59.81,307,62.21,308.06,65.35,307.73Z"/><path class="cls-4" d="M96.39,185c11.3-14.57,28.17-17.22,28.79-17.31a33.79,33.79,0,0,1,10.95-1s12.27-.8,18.46,3.8c5,3.79,4.68,63.85,4.32,85.57a6.26,6.26,0,0,1-7.59,6l-32.06-7.42s-1.32-39.3-.44-64.56A81.06,81.06,0,0,1,107,195.37Z"/><path class="cls-7" d="M158.74,251.89S95.4,210,73.5,233s-14.56,70.14-14.56,70.14h9.19s3.44-54.47,18.45-57.91,27.56,4.1,27.56,4.1-22.87-4.77-35.59,7.15c-8.83,8.31,2.65,64.12,2.65,64.12h9.18S83.05,263.46,96,263.81c9.71.27,40.62.09,55.1.09a7.61,7.61,0,0,0,7.6-7.68Z"/><path class="cls-5" d="M192.91,254,68.22,162.52l-35.5-9.89a.27.27,0,0,0-.27.44l23.93,28.08L183,273.26Z"/><path class="cls-4" d="M51.88,158l-7.15,9.53L33.34,154.22a.71.71,0,0,1,.7-1.15Z"/><path class="cls-4" d="M121.56,129.4c3.44-6.44,16-5.3,16.42.18.27,2.56.62,5.74,1.15,9a1.72,1.72,0,0,1,1.94-1.06c2.65.53,4.6,6.18,3.18,8.3a3.33,3.33,0,0,1-3.79,1c1.67,10.42,3.53,20.31,2.56,20.84-9.19,5.39-14-.79-14-.79s1.23-8,2.11-13.34c-1.05,1.33-3.09,2.21-6.71,1.15C114.76,151.92,121.56,129.4,121.56,129.4Z"/><path class="cls-3" d="M169.69,150.51c-5.57-8.92-15.28-4.68-15.46-13.16s-9.71-21.19-26.84-16.25c-8.22,2.39-7.86,7.69-.27,7.51s7.86,5.74,8.48,8.74,2.56,6.36,3.09,4.77c2-6.09,4.42-3,4.42-3s2.91,4.77,0,6.18S139,145,138.69,147s-2.47,14,5.83,14.39,5.47,5.39,14.66,7.33S174.72,158.63,169.69,150.51Z"/><path class="cls-4" d="M120.5,154.4c-1-1.77-4.59-2.3-6.18-3.27-1.15-.71-3.54-3.18-4.42-2.56s0,4.59.71,5.21c1.68,1.5,8.3,1.59,7.59,5s-32.5,25.44-29.85,31.53,9,7.06,14.4,2.91C108.31,189,125.89,163.93,120.5,154.4Z"/><path class="cls-4" d="M68.66,163.67l4.06,8.12c.09.27,0,.53-.35.53l-8.57.62a.57.57,0,0,0-.53.71l1.24,6.27a.52.52,0,0,1-.44.62l-6.54.44a.49.49,0,0,0-.26.88l125.4,92.9,10.16-20.84L69.1,163.23C68.84,163.14,68.48,163.4,68.66,163.67Z"/><path class="cls-4" d="M168.36,202.35s2.74,31.53-4.5,31.79-29.5-13.25-32-13.69c-4.06-.79-8.74-.17-9.18-.53s-1.68-3.44,7.06-4.77c7.15-1.06,26.14,6.63,27.55,3.54s-4.5-48.22-4.5-48.22S168.89,175.86,168.36,202.35Z"/><path class="cls-8" d="M145.84,167.29s20.4.26,26.94,30.47c0,0-15.46,7-17.58,4.59-.79-.88-2.38-6.27-4-12.45"/><path class="cls-9" d="M145.84,167.29s20.4.26,26.94,30.47c0,0-15.46,7-17.58,4.59-.79-.88-2.38-6.27-4-12.45"/></svg>