<?xml version="1.0" encoding="utf-8"?>
<!-- Generator: Adobe Illustrator 22.0.1, SVG Export Plug-In . SVG Version: 6.00 Build 0)  -->
<svg version="1.1" id="Layer_1" xmlns="http://www.w3.org/2000/svg" xmlns:xlink="http://www.w3.org/1999/xlink" x="0px" y="0px"
	 viewBox="0 0 82 147" style="enable-background:new 0 0 82 147;" xml:space="preserve">
<style type="text/css">
	.st0{fill:#FFFFFF;}
	.st1{fill:#1A1A18;}
	.st2{fill:#134094;}
	.st3{fill:#FFED00;}
	.st4{fill:#0076BE;}
</style>
<g>
	<g>
		<path class="st0" d="M0,5c0-2.8,2.2-5,5-5h77v147H5c-2.8,0-5-2.2-5-5V5z"/>
	</g>
	<path class="st1" d="M28.2,122.2h-2.8v-1.5h2.5v-0.5h-2.5v-1.4h2.7v-0.5h-3.3v4.5h3.4V122.2z"/>
	<path class="st1" d="M29.1,122.4c0.1,0.1,0.2,0.2,0.4,0.3c0.2,0.1,0.4,0.1,0.5,0.1c0.2,0,0.4,0,0.6-0.1c0.2-0.1,0.3-0.2,0.4-0.4
		v0.5h0.5v-3.3H31v1.8c0,0.2,0,0.4-0.1,0.6c-0.1,0.2-0.2,0.3-0.3,0.4c-0.1,0.1-0.3,0.1-0.5,0.1c-0.2,0-0.3,0-0.4-0.1
		c-0.1-0.1-0.2-0.2-0.2-0.3c0-0.2,0-0.4,0-0.6v-1.8H29v2c0,0.2,0,0.3,0,0.5C29,122.2,29,122.3,29.1,122.4z"/>
	<path class="st1" d="M33,121c0-0.2,0-0.4,0.1-0.6c0-0.1,0.1-0.2,0.2-0.3c0.1-0.1,0.2-0.1,0.3-0.1c0.1,0,0.3,0,0.4,0.1l0.2-0.5
		c-0.2-0.1-0.4-0.2-0.6-0.2c-0.1,0-0.3,0-0.4,0.1c-0.1,0.1-0.3,0.3-0.4,0.5v-0.5h-0.5v3.3H33V121z"/>
	<path class="st1" d="M35.9,122.8c0.3,0,0.6-0.1,0.8-0.2c0.2-0.1,0.4-0.3,0.5-0.6c0.1-0.3,0.2-0.7,0.2-1c0-0.2,0-0.4-0.1-0.7
		c-0.1-0.2-0.2-0.4-0.3-0.6c-0.1-0.1-0.3-0.3-0.5-0.3c-0.2-0.1-0.4-0.1-0.6-0.1c-0.4,0-0.7,0.1-1,0.4c-0.2,0.2-0.3,0.4-0.4,0.6
		c-0.1,0.2-0.1,0.5-0.1,0.7c0,0.2,0,0.5,0.1,0.7c0.1,0.2,0.2,0.4,0.3,0.6c0.1,0.1,0.3,0.3,0.5,0.3C35.5,122.8,35.7,122.8,35.9,122.8
		z M35.2,120.2c0.1-0.1,0.2-0.2,0.3-0.2c0.1-0.1,0.2-0.1,0.4-0.1c0.1,0,0.3,0,0.4,0.1c0.1,0.1,0.2,0.1,0.3,0.2
		c0.2,0.3,0.3,0.6,0.3,0.9c0,0.3-0.1,0.7-0.3,1c-0.1,0.1-0.2,0.2-0.3,0.2c-0.1,0.1-0.2,0.1-0.4,0.1c-0.1,0-0.3,0-0.4-0.1
		c-0.1-0.1-0.2-0.1-0.3-0.2c-0.2-0.3-0.3-0.6-0.3-0.9C34.9,120.8,35,120.4,35.2,120.2z"/>
	<path class="st1" d="M39.4,122.8c0.3,0,0.6-0.1,0.8-0.2c0.2-0.1,0.4-0.3,0.5-0.6c0.1-0.3,0.2-0.7,0.2-1c0-0.2,0-0.4-0.1-0.7
		c-0.1-0.2-0.2-0.4-0.3-0.6c-0.1-0.1-0.3-0.3-0.5-0.3c-0.2-0.1-0.4-0.1-0.6-0.1c-0.4,0-0.7,0.1-1,0.4c-0.2,0.2-0.3,0.4-0.4,0.6
		c-0.1,0.2-0.1,0.5-0.1,0.7c0,0.5,0.1,0.9,0.4,1.3c0.1,0.1,0.3,0.3,0.5,0.3C38.9,122.8,39.2,122.8,39.4,122.8z M38.7,120.2
		c0.1-0.1,0.2-0.2,0.3-0.2c0.1-0.1,0.2-0.1,0.4-0.1c0.1,0,0.3,0,0.4,0.1s0.2,0.1,0.3,0.2c0.2,0.3,0.3,0.6,0.3,0.9
		c0,0.3-0.1,0.7-0.3,1c-0.1,0.1-0.2,0.2-0.3,0.2c-0.1,0.1-0.2,0.1-0.4,0.1c-0.1,0-0.3,0-0.4-0.1c-0.1-0.1-0.2-0.1-0.3-0.2
		c-0.2-0.3-0.3-0.6-0.3-0.9C38.4,120.8,38.5,120.4,38.7,120.2z"/>
	<path class="st1" d="M42.1,122.4c0.1,0.1,0.2,0.2,0.4,0.3c0.2,0.1,0.3,0.1,0.5,0.1c0.3,0,0.5-0.1,0.7-0.2c0.2-0.1,0.4-0.4,0.5-0.6
		c0.1-0.3,0.2-0.6,0.2-0.9c0-0.3-0.1-0.6-0.2-0.9c-0.1-0.2-0.3-0.5-0.5-0.6c-0.2-0.1-0.5-0.2-0.7-0.2c-0.2,0-0.4,0-0.5,0.1
		c-0.2,0.1-0.3,0.2-0.4,0.4v-0.4h-0.5v4.5h0.6V122.4z M42.3,120.2c0.1-0.1,0.2-0.2,0.3-0.2s0.2-0.1,0.4-0.1c0.1,0,0.2,0,0.3,0.1
		s0.2,0.1,0.3,0.2c0.2,0.3,0.3,0.6,0.3,0.9c0,0.3-0.1,0.7-0.3,1c-0.1,0.1-0.2,0.2-0.3,0.2c-0.1,0.1-0.2,0.1-0.4,0.1
		c-0.1,0-0.2,0-0.3-0.1c-0.1-0.1-0.2-0.1-0.3-0.2c-0.2-0.3-0.3-0.6-0.3-0.9C42,120.8,42.1,120.4,42.3,120.2L42.3,120.2z"/>
	<path class="st1" d="M46.1,120.9c-0.2,0-0.3,0-0.5,0.1c-0.1,0-0.3,0.1-0.4,0.2c-0.1,0.1-0.2,0.2-0.3,0.3c-0.1,0.1-0.1,0.3-0.1,0.4
		c0,0.1,0,0.3,0.1,0.4c0,0.1,0.1,0.2,0.2,0.3c0.2,0.2,0.5,0.3,0.8,0.3c0.2,0,0.4,0,0.6-0.1c0.2-0.1,0.4-0.2,0.6-0.4
		c0,0.1,0.1,0.3,0.1,0.4h0.6c-0.1-0.1-0.1-0.3-0.1-0.4c0-0.3,0-0.7,0-1v-0.7c0-0.2,0-0.3,0-0.5c0-0.1-0.1-0.3-0.2-0.4
		c-0.1-0.1-0.2-0.2-0.4-0.2c-0.2-0.1-0.4-0.1-0.7-0.1c-0.3,0-0.5,0-0.7,0.1c-0.2,0.1-0.4,0.2-0.5,0.3c-0.1,0.2-0.2,0.4-0.2,0.6
		l0.5,0.1c0-0.2,0.1-0.4,0.3-0.5c0.2-0.1,0.4-0.2,0.6-0.1c0.2,0,0.4,0,0.6,0.2c0.1,0.1,0.1,0.1,0.1,0.2c0,0.1,0,0.2,0,0.3
		c0,0,0,0.1,0,0.1C46.8,120.8,46.5,120.8,46.1,120.9z M47.1,121.3c0,0.2,0,0.4-0.1,0.6c-0.1,0.2-0.2,0.3-0.4,0.4
		c-0.2,0.1-0.4,0.1-0.6,0.1c-0.2,0-0.4,0-0.5-0.1c-0.1,0-0.1-0.1-0.1-0.2c0-0.1,0-0.1,0-0.2c0-0.1,0-0.2,0.1-0.3
		c0.1-0.1,0.1-0.1,0.2-0.2c0.2-0.1,0.3-0.1,0.5-0.1c0.3,0,0.6-0.1,0.9-0.2V121.3z"/>
	<path class="st1" d="M53.1,122.2h-2.2v-4h-0.6v4.5h2.8V122.2z"/>
	<path class="st1" d="M54.3,118.2h-0.6v0.6h0.6V118.2z"/>
	<path class="st1" d="M54.3,119.5h-0.6v3.3h0.6V119.5z"/>
	<path class="st1" d="M55.7,118.2h-0.6v0.6h0.6V118.2z"/>
	<path class="st1" d="M55.7,119.5h-0.6v3.3h0.6V119.5z"/>
	<path class="st1" d="M56.7,121.8c0,0.2,0,0.4,0.1,0.7c0.1,0.1,0.1,0.2,0.2,0.3c0.1,0.1,0.3,0.1,0.5,0.1c0.1,0,0.3,0,0.4,0l-0.1-0.5
		h-0.2c-0.1,0-0.1,0-0.2,0c0,0-0.1-0.1-0.1-0.1c0-0.1,0-0.2,0-0.3v-1.9h0.6v-0.4h-0.6v-1.1l-0.5,0.3v0.8h-0.4v0.4h0.4L56.7,121.8z"
		/>
	<path class="st1" d="M18.2,128.7h-2.8v-1.5H18v-0.5h-2.5v-1.4h2.7v-0.5h-3.3v4.5h3.4V128.7z"/>
	<path class="st1" d="M20.1,129.3c0.2,0,0.4,0,0.6-0.1c0.2-0.1,0.3-0.2,0.4-0.4v0.5h0.5v-3.3h-0.5v1.8c0,0.2,0,0.4-0.1,0.6
		c-0.1,0.2-0.2,0.3-0.3,0.4c-0.1,0.1-0.3,0.1-0.5,0.1c-0.2,0-0.3,0-0.4-0.1c-0.1-0.1-0.2-0.2-0.2-0.3c0-0.2,0-0.4,0-0.6v-1.8H19v2
		c0,0.2,0,0.3,0,0.5c0,0.2,0.1,0.3,0.2,0.4c0.1,0.1,0.2,0.2,0.4,0.3C19.7,129.2,19.9,129.3,20.1,129.3z"/>
	<path class="st1" d="M23,127.5c0-0.2,0-0.4,0.1-0.6c0-0.1,0.1-0.2,0.2-0.3c0.1-0.1,0.2-0.1,0.3-0.1c0.1,0,0.3,0,0.4,0.1l0.2-0.5
		c-0.2-0.1-0.4-0.2-0.6-0.2c-0.1,0-0.3,0-0.4,0.1c-0.1,0.1-0.3,0.3-0.4,0.5v-0.5h-0.5v3.3H23V127.5z"/>
	<path class="st1" d="M25.9,129.3c0.3,0,0.6-0.1,0.8-0.2c0.2-0.1,0.4-0.3,0.5-0.6c0.1-0.3,0.2-0.7,0.2-1c0-0.2,0-0.4-0.1-0.7
		c-0.1-0.2-0.2-0.4-0.4-0.6c-0.1-0.1-0.3-0.3-0.5-0.3c-0.2-0.1-0.4-0.1-0.6-0.1c-0.4,0-0.7,0.1-1,0.4c-0.2,0.2-0.3,0.4-0.4,0.6
		c-0.1,0.2-0.1,0.5-0.1,0.7c0,0.5,0.1,0.9,0.4,1.3c0.1,0.2,0.3,0.3,0.5,0.3C25.5,129.3,25.7,129.3,25.9,129.3z M25.2,126.6
		c0.1-0.1,0.2-0.2,0.3-0.2c0.1-0.1,0.2-0.1,0.4-0.1s0.3,0,0.4,0.1c0.1,0.1,0.2,0.1,0.3,0.2c0.2,0.3,0.3,0.6,0.3,0.9
		c0,0.3-0.1,0.7-0.3,1c-0.1,0.1-0.2,0.2-0.3,0.2c-0.1,0.1-0.2,0.1-0.4,0.1s-0.3,0-0.4-0.1c-0.1-0.1-0.2-0.1-0.3-0.2
		c-0.2-0.3-0.3-0.6-0.3-0.9C24.9,127.2,25,126.9,25.2,126.6z"/>
	<path class="st1" d="M28.3,128.8c0.1,0.1,0.3,0.3,0.5,0.3c0.2,0.1,0.4,0.1,0.6,0.1c0.3,0,0.6-0.1,0.8-0.2c0.2-0.1,0.4-0.3,0.6-0.6
		c0.1-0.3,0.2-0.7,0.2-1c0-0.2,0-0.4-0.1-0.7c-0.1-0.2-0.2-0.4-0.3-0.6c-0.1-0.1-0.3-0.3-0.5-0.3c-0.2-0.1-0.4-0.1-0.6-0.1
		c-0.4,0-0.7,0.1-1,0.4c-0.2,0.2-0.3,0.4-0.4,0.6c-0.1,0.2-0.1,0.5-0.1,0.7C27.8,128,28,128.5,28.3,128.8z M28.7,126.6
		c0.1-0.1,0.2-0.2,0.3-0.2c0.1-0.1,0.2-0.1,0.4-0.1c0.1,0,0.3,0,0.4,0.1c0.1,0.1,0.2,0.1,0.3,0.2c0.2,0.3,0.3,0.6,0.3,0.9
		c0,0.3-0.1,0.7-0.3,1c-0.1,0.1-0.2,0.2-0.3,0.2c-0.1,0.1-0.2,0.1-0.4,0.1c-0.1,0-0.3,0-0.4-0.1c-0.1-0.1-0.2-0.1-0.3-0.2
		c-0.2-0.3-0.3-0.6-0.3-0.9C28.4,127.2,28.5,126.9,28.7,126.6z"/>
	<path class="st1" d="M34.4,127.6c0-0.3-0.1-0.6-0.2-0.9c-0.1-0.2-0.3-0.5-0.5-0.6c-0.2-0.1-0.5-0.2-0.7-0.2c-0.2,0-0.4,0-0.5,0.1
		c-0.2,0.1-0.3,0.2-0.4,0.4V126h-0.5v4.5h0.5v-1.6c0.1,0.1,0.2,0.2,0.4,0.3c0.2,0.1,0.3,0.1,0.5,0.1c0.3,0,0.5-0.1,0.7-0.2
		c0.2-0.2,0.4-0.4,0.5-0.6C34.4,128.2,34.4,127.9,34.4,127.6z M33.6,128.5c-0.1,0.1-0.2,0.2-0.3,0.2c-0.1,0.1-0.2,0.1-0.4,0.1
		c-0.1,0-0.2,0-0.3-0.1c-0.1-0.1-0.2-0.1-0.3-0.2c-0.2-0.3-0.3-0.6-0.3-0.9c0-0.3,0.1-0.7,0.3-1c0.1-0.1,0.2-0.2,0.3-0.2
		c0.1-0.1,0.2-0.1,0.4-0.1c0.1,0,0.2,0,0.3,0.1c0.1,0.1,0.2,0.1,0.3,0.2c0.2,0.3,0.3,0.6,0.3,1C33.9,127.9,33.8,128.3,33.6,128.5z"
		/>
	<path class="st1" d="M37.8,128.8c0-0.3,0-0.7,0-1v-0.7c0-0.2,0-0.3,0-0.5c0-0.1-0.1-0.3-0.2-0.4c-0.1-0.1-0.2-0.2-0.4-0.3
		c-0.2-0.1-0.4-0.1-0.7-0.1c-0.3,0-0.5,0-0.8,0.1c-0.2,0.1-0.4,0.2-0.5,0.3c-0.1,0.2-0.2,0.4-0.2,0.6l0.5,0.1c0-0.2,0.1-0.4,0.3-0.5
		c0.2-0.1,0.4-0.2,0.6-0.1c0.2,0,0.4,0,0.6,0.2c0.1,0.1,0.1,0.1,0.1,0.2c0,0.1,0,0.2,0,0.3c0,0,0,0.1,0,0.1c-0.3,0.1-0.7,0.2-1,0.2
		c-0.2,0-0.3,0-0.5,0.1c-0.1,0-0.3,0.1-0.4,0.2c-0.1,0.1-0.2,0.2-0.3,0.3c-0.1,0.1-0.1,0.3-0.1,0.4c0,0.1,0,0.3,0.1,0.4
		c0,0.1,0.1,0.2,0.2,0.3c0.2,0.2,0.5,0.3,0.8,0.3c0.2,0,0.4,0,0.6-0.1c0.2-0.1,0.4-0.2,0.6-0.4c0,0.1,0.1,0.3,0.1,0.4h0.6
		C37.8,129.1,37.8,128.9,37.8,128.8z M37.2,127.8c0,0.2,0,0.4-0.1,0.6c-0.1,0.2-0.2,0.3-0.4,0.4c-0.2,0.1-0.4,0.1-0.6,0.1
		c-0.2,0-0.4,0-0.5-0.1c-0.1,0-0.1-0.1-0.1-0.2c0-0.1,0-0.1,0-0.2c0-0.1,0-0.2,0.1-0.3c0.1-0.1,0.1-0.1,0.2-0.2
		c0.2-0.1,0.3-0.1,0.5-0.1c0.3,0,0.6-0.1,0.9-0.2V127.8z"/>
	<path class="st1" d="M40.3,126.4c-0.1,0.1-0.1,0.3-0.1,0.4c0,0.2,0,0.3,0.1,0.4c0.1,0.1,0.2,0.2,0.4,0.3c0.3,0.1,0.6,0.2,0.8,0.3
		c0.2,0,0.4,0.1,0.6,0.2c0.1,0,0.1,0.1,0.1,0.1c0,0.1,0,0.1,0,0.2c0,0.1,0,0.1,0,0.2c0,0.1-0.1,0.1-0.1,0.2
		c-0.2,0.1-0.4,0.2-0.6,0.2c-0.2,0-0.4-0.1-0.6-0.2c-0.1-0.1-0.2-0.3-0.3-0.5l-0.5,0.1c0,0.3,0.2,0.6,0.4,0.8c0.3,0.2,0.6,0.3,1,0.3
		c0.2,0,0.5,0,0.7-0.1c0.2-0.1,0.4-0.2,0.5-0.4c0.1-0.2,0.2-0.3,0.2-0.5c0-0.2,0-0.3-0.1-0.5c-0.1-0.1-0.2-0.2-0.4-0.3
		c-0.3-0.1-0.5-0.2-0.8-0.3l-0.5-0.1c-0.1,0-0.2-0.1-0.2-0.2c0-0.1-0.1-0.1-0.1-0.2c0-0.1,0-0.1,0-0.2c0-0.1,0.1-0.1,0.1-0.1
		c0.2-0.1,0.4-0.1,0.5-0.1c0.2,0,0.4,0,0.5,0.1c0.1,0,0.1,0.1,0.1,0.2c0,0.1,0.1,0.1,0.1,0.2l0.5-0.1c0-0.2-0.1-0.4-0.2-0.5
		c-0.1-0.1-0.2-0.2-0.4-0.3c-0.2-0.1-0.4-0.1-0.7-0.1c-0.2,0-0.3,0-0.5,0.1c-0.1,0-0.2,0.1-0.4,0.2
		C40.5,126.2,40.4,126.3,40.3,126.4z"/>
	<path class="st1" d="M44.4,128.7c-0.1,0-0.1,0-0.2,0c0,0,0,0-0.1,0c0,0,0,0,0-0.1c0-0.1,0-0.2,0-0.3v-1.9h0.6v-0.4h-0.6v-1.1
		l-0.5,0.3v0.8h-0.4v0.4h0.4v1.9c0,0.2,0,0.4,0.1,0.7c0,0.1,0.1,0.2,0.2,0.3c0.1,0.1,0.3,0.1,0.5,0.1c0.1,0,0.3,0,0.4,0l-0.1-0.5
		L44.4,128.7z"/>
	<path class="st1" d="M45.2,125.9v3.3h0.6v-1.7c0-0.2,0-0.4,0.1-0.6c0-0.1,0.1-0.2,0.2-0.3c0.1-0.1,0.2-0.1,0.3-0.1
		c0.1,0,0.3,0,0.4,0.1L47,126c-0.2-0.1-0.4-0.2-0.6-0.2c-0.1,0-0.2,0.1-0.3,0.2c-0.1,0.1-0.3,0.3-0.4,0.5v-0.5L45.2,125.9z"/>
	<path class="st1" d="M49.4,127.7c0,0.2,0,0.4-0.1,0.6c-0.1,0.1-0.2,0.3-0.3,0.4c-0.1,0.1-0.3,0.1-0.5,0.1c-0.2,0-0.3,0-0.4-0.1
		c-0.1-0.1-0.2-0.2-0.2-0.3c0-0.2,0-0.4,0-0.6v-1.8h-0.5v2c0,0.2,0,0.3,0,0.5c0,0.2,0.1,0.3,0.2,0.4c0.1,0.1,0.2,0.2,0.4,0.3
		c0.2,0.1,0.4,0.1,0.5,0.1c0.2,0,0.4,0,0.6-0.1c0.2-0.1,0.3-0.2,0.4-0.4v0.5h0.5v-3.3h-0.5V127.7z"/>
	<path class="st1" d="M51.4,127.9l0.4-0.4l1.1,1.7h0.7l-1.4-2.1l1.2-1.2h-0.7l-1.3,1.3v-2.6h-0.6v4.5h0.6V127.9z"/>
	<path class="st1" d="M54.8,129.2c0.1,0,0.3,0,0.4,0l-0.1-0.5h-0.2c-0.1,0-0.1,0-0.2,0c0,0,0,0-0.1,0c0,0,0,0,0-0.1
		c0-0.1,0-0.2,0-0.3v-1.9h0.6v-0.4h-0.6v-1.1l-0.5,0.3v0.8h-0.4v0.4H54v1.9c0,0.2,0,0.4,0.1,0.7c0,0.1,0.1,0.2,0.2,0.3
		C54.5,129.2,54.7,129.3,54.8,129.2z"/>
	<path class="st1" d="M55.7,125.9v2c0,0.2,0,0.3,0,0.5c0,0.2,0.1,0.3,0.2,0.4c0.1,0.1,0.2,0.2,0.4,0.3c0.2,0.1,0.4,0.1,0.5,0.1
		c0.2,0,0.4,0,0.6-0.1c0.2-0.1,0.3-0.2,0.4-0.4v0.5h0.5v-3.3h-0.5v1.8c0,0.2,0,0.4-0.1,0.6c-0.1,0.2-0.2,0.3-0.3,0.4
		c-0.1,0.1-0.3,0.1-0.5,0.1c-0.2,0-0.3,0-0.4-0.1c-0.1-0.1-0.2-0.2-0.2-0.3c0-0.2,0-0.4,0-0.6v-1.8H55.7z"/>
	<path class="st1" d="M61.3,128.7v0.5h0.5v-3.3h-0.6v1.8c0,0.2,0,0.4-0.1,0.6c-0.1,0.1-0.2,0.3-0.3,0.4c-0.1,0.1-0.3,0.1-0.5,0.1
		c-0.1,0-0.3,0-0.4-0.1c-0.1-0.1-0.2-0.2-0.2-0.3c0-0.2,0-0.4,0-0.6v-1.8h-0.6v2c0,0.2,0,0.3,0,0.5c0,0.2,0.1,0.3,0.2,0.4
		c0.1,0.1,0.2,0.2,0.4,0.3c0.2,0.1,0.3,0.1,0.5,0.1c0.2,0,0.4,0,0.6-0.1C61.1,129,61.2,128.9,61.3,128.7z"/>
	<path class="st1" d="M63.2,127.5c0-0.2,0-0.4,0.1-0.6c0-0.1,0.1-0.2,0.2-0.3c0.1-0.1,0.2-0.1,0.3-0.1c0.1,0,0.3,0,0.4,0.1l0.2-0.5
		c-0.2-0.1-0.4-0.2-0.6-0.2c-0.1,0-0.2,0.1-0.3,0.1c-0.2,0.1-0.3,0.3-0.4,0.5v-0.5h-0.5v3.2h0.5L63.2,127.5z"/>
	<path class="st1" d="M65.3,124.7h-0.6v0.6h0.6V124.7z"/>
	<path class="st1" d="M65.3,125.9h-0.6v3.3h0.6V125.9z"/>
	<path class="st1" d="M67.7,127.3H66v0.6h1.7V127.3z"/>
	<path class="st1" d="M11.3,135.8c0,0.2,0,0.4-0.1,0.6c0,0-0.1,0.1-0.1,0.1c0,0-0.1,0-0.1,0c-0.1,0-0.2,0-0.3,0l-0.1,0.5
		c0.1,0,0.3,0.1,0.4,0.1c0.1,0,0.3,0,0.4-0.1c0.1-0.1,0.2-0.1,0.3-0.2c0.1-0.2,0.2-0.5,0.2-0.8v-3.5h-0.5V135.8z"/>
	<path class="st1" d="M11.8,131.1h-0.5v0.6h0.5V131.1z"/>
	<path class="st1" d="M15.3,134.3v-0.7c0-0.2,0-0.3,0-0.5c0-0.1-0.1-0.3-0.2-0.4c-0.1-0.1-0.2-0.2-0.4-0.3c-0.2-0.1-0.5-0.1-0.7-0.1
		c-0.3,0-0.5,0-0.7,0.1c-0.2,0.1-0.4,0.2-0.5,0.3c-0.1,0.2-0.2,0.4-0.2,0.6l0.5,0.1c0-0.2,0.1-0.4,0.3-0.5c0.2-0.1,0.4-0.2,0.6-0.1
		c0.2,0,0.4,0,0.6,0.2c0.1,0.1,0.1,0.1,0.1,0.2c0,0.1,0,0.2,0,0.3v0.1c-0.3,0.1-0.7,0.2-1,0.2c-0.2,0-0.3,0-0.5,0.1
		c-0.1,0-0.3,0.1-0.4,0.2c-0.1,0.1-0.2,0.2-0.3,0.3s-0.1,0.3-0.1,0.5c0,0.1,0,0.3,0.1,0.4c0.1,0.1,0.1,0.2,0.2,0.3
		c0.2,0.2,0.5,0.3,0.8,0.3c0.2,0,0.4,0,0.6-0.1c0.2-0.1,0.4-0.2,0.6-0.4c0,0.1,0,0.3,0.1,0.4h0.6c-0.1-0.1-0.1-0.3-0.1-0.4
		C15.3,135,15.3,134.6,15.3,134.3z M14.8,134.2c0,0.2,0,0.4-0.1,0.6c-0.1,0.2-0.2,0.3-0.4,0.4c-0.2,0.1-0.4,0.1-0.6,0.1
		c-0.2,0-0.3,0-0.5-0.1c-0.1,0-0.1-0.1-0.1-0.2c0-0.1,0-0.1,0-0.2c0-0.1,0-0.2,0.1-0.3c0.1-0.1,0.1-0.1,0.2-0.2
		c0.2-0.1,0.3-0.1,0.5-0.1c0.3,0,0.6-0.1,0.9-0.2V134.2z"/>
	<path class="st1" d="M18.5,132.4h-0.6v3.3h0.6V132.4z"/>
	<path class="st1" d="M18.5,131.1h-0.6v0.6h0.6V131.1z"/>
	<path class="st1" d="M21.8,132.7c-0.1-0.1-0.2-0.2-0.4-0.3c-0.2-0.1-0.4-0.1-0.5-0.1c-0.2,0-0.4,0-0.6,0.1
		c-0.2,0.1-0.3,0.2-0.4,0.4v-0.4h-0.5v3.3h0.6v-1.8c0-0.2,0-0.3,0-0.5c0-0.1,0.1-0.3,0.2-0.4c0.2-0.2,0.4-0.2,0.6-0.2
		c0.1,0,0.3,0,0.4,0.1c0.1,0.1,0.2,0.2,0.3,0.3c0,0.2,0.1,0.3,0.1,0.5v2H22v-2c0-0.2,0-0.4,0-0.5C22,133,21.9,132.8,21.8,132.7z"/>
	<path class="st1" d="M24.2,134.4c-0.1,0.2-0.2,0.4-0.2,0.6c-0.1-0.2-0.1-0.5-0.2-0.7l-0.7-2h-0.6l1.2,3.3h0.5l1.2-3.3h-0.6
		L24.2,134.4z"/>
	<path class="st1" d="M27.3,132.3c-0.2,0-0.4,0-0.6,0.1c-0.2,0.1-0.4,0.2-0.5,0.3c-0.3,0.4-0.4,0.8-0.4,1.3c0,0.2,0,0.5,0.1,0.7
		c0.1,0.2,0.2,0.4,0.3,0.6c0.1,0.2,0.3,0.3,0.5,0.3c0.2,0.1,0.4,0.1,0.6,0.1c0.3,0,0.7-0.1,0.9-0.3c0.3-0.2,0.4-0.5,0.5-0.8
		l-0.6-0.1c-0.1,0.2-0.2,0.4-0.3,0.5c-0.1,0.1-0.3,0.2-0.5,0.2c-0.1,0-0.3,0-0.4-0.1c-0.1,0-0.2-0.1-0.3-0.2
		c-0.2-0.2-0.3-0.5-0.3-0.8h2.4V134c0-0.5-0.1-0.9-0.4-1.3c-0.1-0.2-0.3-0.3-0.5-0.3S27.5,132.3,27.3,132.3z M26.4,133.7
		c0-0.3,0.1-0.5,0.3-0.7c0.1-0.1,0.2-0.2,0.3-0.2c0.1,0,0.2-0.1,0.4-0.1c0.1,0,0.2,0,0.4,0.1c0.1,0.1,0.2,0.1,0.3,0.2
		c0.1,0.2,0.2,0.4,0.2,0.6H26.4z"/>
	<path class="st1" d="M31.5,133.9c-0.3-0.1-0.5-0.2-0.8-0.3c-0.3-0.1-0.4-0.1-0.5-0.1c-0.1,0-0.2-0.1-0.2-0.1c0-0.1-0.1-0.1-0.1-0.2
		c0-0.1,0-0.1,0-0.2c0-0.1,0.1-0.1,0.1-0.1c0.2-0.1,0.4-0.1,0.5-0.1c0.2,0,0.4,0,0.5,0.1c0.1,0,0.1,0.1,0.1,0.2
		c0,0.1,0.1,0.1,0.1,0.2l0.5-0.1c0-0.2-0.1-0.4-0.2-0.5c-0.1-0.1-0.3-0.3-0.4-0.3c-0.2-0.1-0.4-0.1-0.7-0.1c-0.2,0-0.3,0-0.5,0.1
		c-0.1,0-0.2,0.1-0.4,0.2c-0.1,0.1-0.2,0.2-0.3,0.3c-0.1,0.1-0.1,0.3-0.1,0.4c0,0.2,0,0.3,0.1,0.4c0.1,0.1,0.2,0.2,0.4,0.3
		c0.3,0.1,0.6,0.2,0.8,0.3c0.2,0,0.4,0.1,0.6,0.2c0,0,0.1,0.1,0.1,0.1c0,0.1,0,0.1,0,0.2c0,0.1,0,0.1,0,0.2c0,0.1-0.1,0.1-0.1,0.2
		c-0.2,0.1-0.4,0.2-0.6,0.2c-0.2,0-0.4-0.1-0.6-0.2c-0.1-0.1-0.2-0.3-0.3-0.5l-0.5,0.1c0,0.3,0.2,0.6,0.4,0.8c0.3,0.2,0.6,0.3,1,0.3
		c0.2,0,0.5,0,0.7-0.1c0.2-0.1,0.4-0.2,0.5-0.4c0.1-0.2,0.2-0.3,0.2-0.5c0-0.2,0-0.3-0.1-0.5C31.8,134.1,31.6,134,31.5,133.9z"/>
	<path class="st1" d="M33.6,135.2c-0.1,0-0.1,0-0.2,0c0,0,0,0-0.1,0c0,0,0,0,0-0.1c0-0.1,0-0.2,0-0.3v-1.9h0.6v-0.5h-0.6v-1.1
		l-0.5,0.3v0.8h-0.4v0.4h0.4v1.9c0,0.2,0,0.4,0.1,0.7c0,0.1,0.1,0.2,0.2,0.3c0.1,0.1,0.3,0.1,0.5,0.1c0.1,0,0.3,0,0.4,0l-0.1-0.5
		L33.6,135.2z"/>
	<path class="st1" d="M35.7,132.3c-0.2,0-0.4,0-0.6,0.1c-0.2,0.1-0.4,0.2-0.5,0.3c-0.3,0.4-0.4,0.8-0.4,1.3c0,0.5,0.1,0.9,0.4,1.2
		c0.1,0.1,0.3,0.3,0.5,0.3c0.2,0.1,0.4,0.1,0.6,0.1c0.3,0,0.7-0.1,0.9-0.3c0.3-0.2,0.4-0.5,0.5-0.8l-0.6-0.1
		c-0.1,0.2-0.2,0.4-0.3,0.5c-0.1,0.1-0.3,0.2-0.5,0.2c-0.1,0-0.3,0-0.4-0.1c-0.1-0.1-0.2-0.1-0.3-0.2c-0.2-0.2-0.3-0.5-0.3-0.8h2.4
		c0,0,0-0.1,0-0.1c0-0.5-0.1-0.9-0.4-1.3c-0.1-0.1-0.3-0.3-0.5-0.3C36.1,132.4,35.9,132.3,35.7,132.3z M34.8,133.7
		c0-0.3,0.1-0.5,0.3-0.7c0.1-0.1,0.2-0.2,0.3-0.2c0.1,0,0.2-0.1,0.4-0.1c0.1,0,0.2,0,0.4,0.1c0.1,0.1,0.2,0.1,0.3,0.2
		c0.1,0.2,0.2,0.4,0.2,0.6H34.8z"/>
	<path class="st1" d="M39.2,132.3c-0.2,0-0.4,0-0.6,0.1c-0.2,0.1-0.4,0.2-0.5,0.3c-0.3,0.4-0.5,0.8-0.4,1.3c0,0.5,0.1,0.9,0.4,1.2
		c0.3,0.3,0.6,0.4,1,0.4c0.4,0,0.7-0.1,1.1-0.3c0.3-0.2,0.4-0.5,0.5-0.8l-0.6-0.1c-0.1,0.2-0.2,0.4-0.3,0.5
		c-0.1,0.1-0.3,0.2-0.5,0.2c-0.1,0-0.3,0-0.4-0.1c-0.1-0.1-0.2-0.1-0.3-0.2c-0.2-0.2-0.3-0.5-0.3-0.8h2.4c0-0.1,0-0.1,0-0.1
		c0-0.5-0.1-0.9-0.4-1.3c-0.1-0.1-0.3-0.3-0.5-0.3C39.6,132.3,39.4,132.3,39.2,132.3z M38.3,133.7c0-0.3,0.1-0.5,0.3-0.7
		c0.1-0.1,0.2-0.1,0.3-0.2c0.1,0,0.2-0.1,0.3-0.1c0.1,0,0.3,0,0.4,0.1c0.1,0.1,0.2,0.1,0.3,0.2c0.1,0.2,0.2,0.4,0.2,0.6H38.3z"/>
	<path class="st1" d="M42.2,132.4c-0.1,0.1-0.3,0.3-0.4,0.5v-0.5h-0.5v3.3h0.5V134c0-0.2,0-0.4,0.1-0.6c0-0.1,0.1-0.2,0.2-0.3
		s0.2-0.1,0.3-0.1c0.1,0,0.3,0,0.4,0.1l0.2-0.5c-0.2-0.1-0.4-0.2-0.6-0.2C42.4,132.3,42.3,132.4,42.2,132.4z"/>
	<path class="st1" d="M44,131.1h-0.6v0.6H44V131.1z"/>
	<path class="st1" d="M44,132.4h-0.6v3.3H44V132.4z"/>
	<path class="st1" d="M48.3,132.3c-0.2,0-0.4,0.1-0.6,0.2c-0.2,0.1-0.3,0.2-0.4,0.4c-0.1-0.2-0.2-0.3-0.3-0.4
		c-0.2-0.1-0.4-0.2-0.6-0.2c-0.2,0-0.4,0-0.6,0.2c-0.2,0.1-0.3,0.2-0.4,0.4v-0.5h-0.5v3.3h0.6V134c0-0.2,0-0.5,0.1-0.7
		c0.1-0.1,0.2-0.3,0.3-0.4c0.1-0.1,0.3-0.1,0.4-0.1c0.1,0,0.2,0,0.2,0c0.1,0,0.1,0.1,0.2,0.1c0.1,0.2,0.1,0.4,0.1,0.6v2.1h0.5v-1.9
		c0-0.3,0.1-0.5,0.2-0.7c0.1-0.1,0.2-0.1,0.3-0.2c0.1,0,0.2-0.1,0.3-0.1c0.1,0,0.2,0,0.3,0.1c0.1,0.1,0.2,0.1,0.2,0.2
		c0,0.2,0.1,0.3,0.1,0.5v2.1h0.5v-2.2c0-0.3-0.1-0.6-0.3-0.8c-0.1-0.1-0.2-0.2-0.3-0.2C48.5,132.3,48.4,132.3,48.3,132.3z"/>
	<path class="st1" d="M50.7,131.1h-0.6v0.6h0.6V131.1z"/>
	<path class="st1" d="M50.7,132.4h-0.6v3.3h0.6V132.4z"/>
	<path class="st1" d="M53.5,133.9c-0.3-0.1-0.5-0.2-0.8-0.3c-0.3-0.1-0.4-0.1-0.5-0.1c-0.1,0-0.2-0.1-0.2-0.1c0-0.1-0.1-0.1-0.1-0.2
		c0-0.1,0-0.1,0-0.2c0-0.1,0.1-0.1,0.1-0.1c0.2-0.1,0.4-0.1,0.5-0.1c0.2,0,0.3,0,0.5,0.1c0.1,0,0.1,0.1,0.1,0.2
		c0,0.1,0.1,0.1,0.1,0.2l0.5-0.1c0-0.2-0.1-0.4-0.2-0.5c-0.1-0.1-0.3-0.3-0.4-0.3c-0.4-0.1-0.8-0.1-1.2,0c-0.1,0-0.2,0.1-0.3,0.2
		c-0.1,0.1-0.2,0.2-0.3,0.3c-0.1,0.1-0.1,0.3-0.1,0.4c0,0.2,0,0.3,0.1,0.4c0.1,0.1,0.2,0.2,0.4,0.3c0.3,0.1,0.6,0.2,0.8,0.3
		c0.2,0,0.4,0.1,0.6,0.2c0,0,0.1,0.1,0.1,0.1c0,0.1,0,0.1,0,0.2c0,0.1,0,0.1,0,0.2c0,0.1-0.1,0.1-0.1,0.2c-0.2,0.1-0.4,0.2-0.6,0.2
		c-0.2,0-0.4-0.1-0.6-0.2c-0.1-0.1-0.2-0.3-0.3-0.5l-0.5,0.1c0,0.3,0.2,0.6,0.4,0.8c0.3,0.2,0.6,0.3,1,0.3c0.2,0,0.5,0,0.7-0.1
		c0.2-0.1,0.4-0.2,0.5-0.4c0.1-0.2,0.2-0.3,0.2-0.5c0-0.2,0-0.3-0.1-0.5C53.8,134.1,53.6,134,53.5,133.9z"/>
	<path class="st1" d="M55.4,131.7c0.1-0.1,0.2-0.1,0.4-0.1c0.1,0,0.2,0,0.3,0l0.1-0.5c-0.2,0-0.3-0.1-0.5-0.1c-0.2,0-0.4,0-0.6,0.1
		c-0.1,0.1-0.2,0.2-0.3,0.4c0,0.2-0.1,0.3-0.1,0.5v0.3h-0.5v0.4h0.5v2.8h0.5v-2.8H56v-0.4h-0.6v-0.3
		C55.3,131.9,55.3,131.8,55.4,131.7z"/>
	<path class="st1" d="M57.7,132.3c-0.4,0-0.7,0.1-1,0.4c-0.2,0.2-0.3,0.4-0.4,0.6c-0.1,0.2-0.1,0.5-0.1,0.7c0,0.5,0.1,0.9,0.4,1.3
		c0.1,0.1,0.3,0.3,0.5,0.3c0.2,0.1,0.4,0.1,0.6,0.1c0.3,0,0.6-0.1,0.8-0.2c0.2-0.1,0.4-0.3,0.5-0.6c0.1-0.3,0.2-0.7,0.2-1
		c0-0.2,0-0.4-0.1-0.7c-0.1-0.2-0.2-0.4-0.3-0.6c-0.1-0.1-0.3-0.3-0.5-0.3C58.1,132.3,57.9,132.3,57.7,132.3z M58.4,135
		c-0.1,0.1-0.2,0.2-0.3,0.2c-0.1,0.1-0.2,0.1-0.4,0.1c-0.1,0-0.3,0-0.4-0.1c-0.1-0.1-0.2-0.1-0.3-0.2c-0.2-0.3-0.3-0.6-0.3-0.9
		s0.1-0.7,0.3-0.9c0.1-0.1,0.2-0.2,0.3-0.2c0.1-0.1,0.2-0.1,0.4-0.1s0.3,0,0.4,0.1c0.1,0.1,0.2,0.1,0.3,0.2c0.2,0.3,0.3,0.6,0.3,0.9
		C58.7,134.3,58.6,134.7,58.4,135z"/>
	<path class="st1" d="M62.3,132.7c-0.1-0.1-0.2-0.2-0.4-0.3c-0.2-0.1-0.4-0.1-0.5-0.1c-0.2,0-0.4,0-0.6,0.1
		c-0.2,0.1-0.3,0.2-0.4,0.4v-0.4h-0.5v3.3h0.5v-1.8c0-0.2,0-0.3,0-0.5c0-0.1,0.1-0.3,0.2-0.4c0.2-0.2,0.4-0.2,0.6-0.2
		c0.1,0,0.3,0,0.4,0.1c0.1,0.1,0.2,0.2,0.2,0.3c0.1,0.2,0.1,0.3,0.1,0.5v2h0.6v-2c0-0.2,0-0.4,0-0.5C62.5,133,62.4,132.8,62.3,132.7
		z"/>
	<path class="st1" d="M65.5,132.8c-0.1-0.1-0.2-0.2-0.4-0.3c-0.2-0.1-0.3-0.1-0.5-0.1c-0.3,0-0.5,0.1-0.7,0.2
		c-0.2,0.1-0.4,0.4-0.5,0.6c-0.1,0.3-0.2,0.6-0.2,0.9c0,0.3,0.1,0.6,0.2,0.9c0.1,0.2,0.3,0.5,0.5,0.6c0.2,0.1,0.5,0.2,0.7,0.2
		c0.2,0,0.4,0,0.5-0.1c0.2-0.1,0.3-0.2,0.4-0.4v0.4H66v-4.5h-0.5V132.8z M65.3,135c-0.1,0.1-0.2,0.2-0.3,0.2s-0.2,0.1-0.3,0.1
		c-0.1,0-0.2,0-0.3-0.1s-0.2-0.1-0.3-0.2c-0.2-0.3-0.3-0.6-0.3-0.9c0-0.3,0.1-0.7,0.2-1c0.1-0.1,0.2-0.2,0.3-0.2
		c0.1-0.1,0.2-0.1,0.3-0.1c0.1,0,0.2,0,0.4,0.1c0.1,0.1,0.2,0.1,0.3,0.2c0.2,0.3,0.3,0.6,0.3,1C65.5,134.4,65.4,134.7,65.3,135z"/>
	<path class="st1" d="M67.4,131.1h-0.6v0.6h0.6V131.1z"/>
	<path class="st1" d="M67.4,132.4h-0.6v3.3h0.6V132.4z"/>
	<path class="st1" d="M70.4,131.1v1.6c-0.1-0.1-0.2-0.2-0.4-0.3c-0.2-0.1-0.3-0.1-0.5-0.1c-0.3,0-0.5,0.1-0.7,0.2
		c-0.2,0.1-0.4,0.4-0.5,0.6c-0.1,0.3-0.2,0.6-0.2,0.9c0,0.3,0.1,0.6,0.2,0.9c0.1,0.2,0.3,0.5,0.5,0.6c0.2,0.1,0.5,0.2,0.7,0.2
		c0.2,0,0.4,0,0.5-0.1c0.2-0.1,0.3-0.2,0.4-0.4v0.4h0.5v-4.5L70.4,131.1z M70.2,135c-0.1,0.1-0.2,0.2-0.3,0.2
		c-0.1,0.1-0.2,0.1-0.3,0.1c-0.1,0-0.2,0-0.4-0.1c-0.1-0.1-0.2-0.1-0.3-0.2c-0.2-0.3-0.3-0.6-0.3-0.9c0-0.3,0.1-0.7,0.2-1
		c0.1-0.1,0.2-0.2,0.3-0.2c0.1-0.1,0.2-0.1,0.3-0.1c0.1,0,0.2,0,0.4,0.1c0.1,0.1,0.2,0.1,0.3,0.2c0.2,0.3,0.3,0.6,0.3,1
		C70.4,134.4,70.3,134.7,70.2,135z"/>
	<path class="st2" d="M72,72.5H10v41.7h62V72.5z"/>
	<path class="st3" d="M39.5,81.3l1.4-1.1l1.4,1.1l-0.6-1.7l1.4-1.1h-1.8l-0.5-1.7l-0.5,1.7h-1.8l1.5,1.1L39.5,81.3z"/>
	<path class="st3" d="M41.5,106.3l-0.5-1.7l-0.5,1.7h-1.8l1.5,1.1l-0.6,1.7l1.4-1.1l1.4,1.1l-0.5-1.7l1.4-1.1H41.5z"/>
	<path class="st3" d="M48.4,104.5l-0.5-1.7l-0.5,1.7h-1.8l1.5,1.1l-0.6,1.7l1.4-1.1l1.4,1.1l-0.6-1.7l1.4-1.1H48.4z"/>
	<path class="st3" d="M47.8,78.7l-0.5,1.7h-1.8l1.5,1.1l-0.6,1.7l1.4-1.1l1.4,1.1l-0.6-1.7l1.4-1.1h-1.8L47.8,78.7z"/>
	<path class="st3" d="M51.5,88.3l1.4-1.1l1.4,1.1l-0.6-1.7l1.4-1.1h-1.8l-0.5-1.7l-0.5,1.7h-1.8l1.5,1.1L51.5,88.3z"/>
	<path class="st3" d="M53.5,99.5l-0.5-1.7l-0.5,1.7h-1.8l1.5,1.1l-0.6,1.7l1.4-1.1l1.4,1.1l-0.6-1.7l1.4-1.1H53.5z"/>
	<path class="st3" d="M57.1,92.4h-1.8l-0.5-1.7l-0.5,1.7h-1.8l1.5,1.1l-0.6,1.7l1.4-1.1l1.4,1.1l-0.6-1.7L57.1,92.4z"/>
	<path class="st3" d="M32.5,83.2l1.4-1.1l1.4,1.1l-0.6-1.7l1.4-1.1h-1.8L34,78.7l-0.5,1.7h-1.8l1.4,1.1L32.5,83.2z"/>
	<path class="st3" d="M29,83.8l-0.5,1.7h-1.8l1.5,1.1l-0.6,1.7l1.4-1.1l1.4,1.1l-0.6-1.7l1.4-1.1h-1.8L29,83.8z"/>
	<path class="st3" d="M27.2,94.1l1.4,1.1l-0.6-1.7l1.4-1.1h-1.8l-0.5-1.7l-0.5,1.7h-1.8l1.4,1.1l-0.6,1.7L27.2,94.1z"/>
	<path class="st3" d="M29.5,99.5L29,97.8l-0.5,1.7h-1.8l1.5,1.1l-0.6,1.7l1.4-1.1l1.4,1.1l-0.6-1.7l1.4-1.1H29.5z"/>
	<path class="st3" d="M34.6,104.5l-0.5-1.7l-0.5,1.7h-1.8l1.4,1.1l-0.6,1.7l1.4-1.1l1.4,1.1l-0.6-1.7l1.4-1.1H34.6z"/>
	<path class="st4" d="M41.5,18.3c4.7,0.4,9.2,1.9,13.1,4.5l0.3,0.2c-2.4-3.4-5.4-6.2-8.9-8.4c-3.5-2.2-7.4-3.6-11.5-4.2
		C30.5,9.7,26.4,10,22.4,11c-4,1.1-7.7,2.9-10.9,5.5c4.3,0.9,8.3,3,11.3,6.2C28.4,19.2,34.9,17.6,41.5,18.3z"/>
	<path d="M60.1,37.8c0-0.1,0-0.5,0-0.6c-0.5-5.1-2.2-10-5.2-14.3l-0.3-0.2c-4.8-3-10.3-4.6-15.9-4.6s-11.2,1.6-15.9,4.6
		c3.4,3.6,5.5,8.2,5.9,13.1c0.1,1.3,0.1,2.6,0,3.8c-0.2,2-0.6,3.9-1.4,5.8c-1.3,3.3-3.3,6.2-5.9,8.5l0,0c10.4-6,22.5-8.2,34.4-6.4
		c-1.2,1.1-2.6,1.9-4.1,2.6c2.6-0.8,5-1.8,7.5-2.9C60,44.2,60.4,41,60.1,37.8z"/>
	<path class="st0" d="M59.6,37.1c-3.8-2.6-7-4.2-13.7-4.8c-4.9-0.5-9.8,0.3-14.4,2.2c0.1,1.3,0.1,2.5,0,3.8
		c-0.3,2.9-1.2,5.8-2.6,8.3c-1.5,2.5-3.5,4.7-5.9,6.4c12.2-7,23.2-8,32.6-6.5c0.6,0.1,2.6,0.4,3.4,0.7C59.8,43.9,60,40.5,59.6,37.1z
		"/>
	<path class="st1" d="M38.4,59.7h-2.8v-1.5h2.5v-0.5h-2.5v-1.4h2.7v-0.5H35v4.5h3.4V59.7z"/>
	<path class="st1" d="M40.5,60.3c0.3,0,0.7-0.1,0.9-0.3c0.3-0.2,0.4-0.5,0.5-0.8l-0.6-0.1c-0.1,0.2-0.2,0.4-0.3,0.5
		c-0.2,0.1-0.3,0.2-0.5,0.2c-0.1,0-0.3,0-0.4-0.1c-0.1,0-0.2-0.1-0.3-0.2c-0.2-0.2-0.3-0.5-0.3-0.8H42v-0.2c0-0.5-0.1-0.9-0.4-1.3
		c-0.1-0.1-0.3-0.3-0.5-0.3c-0.2-0.1-0.4-0.1-0.6-0.1c-0.2,0-0.4,0-0.6,0.1c-0.2,0.1-0.4,0.2-0.5,0.4c-0.3,0.4-0.4,0.8-0.4,1.3
		c0,0.5,0.1,0.9,0.4,1.2c0.1,0.2,0.3,0.3,0.5,0.4C40.1,60.3,40.3,60.3,40.5,60.3z M39.8,57.6c0.1-0.1,0.2-0.2,0.3-0.2
		c0.1,0,0.2-0.1,0.3-0.1c0.1,0,0.3,0,0.4,0.1c0.1,0.1,0.2,0.1,0.3,0.2c0.1,0.2,0.2,0.4,0.2,0.6h-1.8c0-0.1,0-0.3,0.1-0.4
		C39.7,57.8,39.7,57.7,39.8,57.6L39.8,57.6z"/>
	<path class="st1" d="M45,58.8c-0.1-0.1-0.2-0.2-0.4-0.3c-0.3-0.1-0.5-0.2-0.8-0.3c-0.3-0.1-0.4-0.1-0.5-0.1c-0.1,0-0.2-0.1-0.2-0.1
		c0-0.1-0.1-0.1-0.1-0.2c0-0.1,0-0.1,0-0.2c0-0.1,0.1-0.1,0.1-0.1c0.2-0.1,0.4-0.1,0.5-0.1c0.2,0,0.3,0,0.5,0.1
		c0.1,0.1,0.2,0.2,0.2,0.4l0.5-0.1c0-0.2-0.1-0.4-0.2-0.5c-0.1-0.1-0.3-0.2-0.4-0.3c-0.2-0.1-0.4-0.1-0.7-0.1c-0.2,0-0.3,0-0.5,0.1
		c-0.1,0-0.3,0.1-0.4,0.2c-0.1,0.1-0.2,0.2-0.3,0.3c-0.1,0.1-0.1,0.3-0.1,0.4c0,0.2,0,0.3,0.1,0.4c0.1,0.1,0.2,0.2,0.4,0.3
		c0.3,0.1,0.6,0.2,0.8,0.3c0.2,0,0.4,0.1,0.6,0.2c0,0,0.1,0.1,0.1,0.1c0,0.1,0,0.1,0,0.2c0,0.1,0,0.1,0,0.2c0,0.1-0.1,0.1-0.1,0.2
		c-0.2,0.1-0.4,0.2-0.6,0.2c-0.2,0-0.4,0-0.6-0.2c-0.1-0.1-0.2-0.3-0.3-0.5l-0.5,0.1c0,0.3,0.2,0.6,0.4,0.8c0.3,0.2,0.6,0.3,1,0.3
		c0.2,0,0.5-0.1,0.7-0.2c0.2-0.1,0.3-0.2,0.5-0.4c0.1-0.2,0.2-0.3,0.2-0.5C45.1,59.1,45.1,58.9,45,58.8z"/>
	<path class="st1" d="M45.9,59.3c0,0.2,0,0.4,0.1,0.7c0,0.1,0.1,0.2,0.2,0.2c0.1,0.1,0.3,0.1,0.5,0.1c0.1,0,0.3,0,0.4,0L47,59.7
		h-0.2c-0.1,0-0.1,0-0.2,0c0,0-0.1-0.1-0.1-0.1c0-0.1,0-0.2,0-0.3v-1.9H47V57h-0.6v-1.2l-0.5,0.3v0.8h-0.4v0.4h0.4L45.9,59.3z"/>
	<path class="st1" d="M48.1,57h-0.6v3.3h0.6V57z"/>
	<path class="st1" d="M48.1,55.7h-0.6v0.6h0.6V55.7z"/>
	<path class="st1" d="M23,66.2c-0.1,0-0.1,0-0.2,0c0,0-0.1-0.1-0.1-0.1c0-0.1,0-0.2,0-0.3v-2h0.6v-0.4h-0.6v-1.2l-0.5,0.3v0.8h-0.4
		v0.4h0.4v1.9c0,0.2,0,0.4,0.1,0.6c0,0.1,0.1,0.2,0.2,0.3c0.1,0.1,0.3,0.1,0.5,0.1c0.1,0,0.3,0,0.4,0l-0.1-0.5L23,66.2z"/>
	<path class="st1" d="M25.8,65.1c0,0.2,0,0.4-0.1,0.6c-0.1,0.1-0.2,0.3-0.3,0.4c-0.1,0.1-0.3,0.1-0.5,0.1c-0.2,0-0.3,0-0.4-0.1
		c-0.1-0.1-0.2-0.2-0.2-0.3c0-0.2,0-0.4,0-0.6v-1.8h-0.6v2c0,0.2,0,0.3,0,0.5c0,0.1,0.1,0.3,0.2,0.4c0.1,0.1,0.2,0.2,0.4,0.3
		c0.2,0.1,0.4,0.1,0.5,0.1c0.2,0,0.4,0,0.6-0.1c0.2-0.1,0.3-0.2,0.4-0.4v0.5h0.5v-3.3h-0.6L25.8,65.1z"/>
	<path class="st1" d="M27.8,62.1h-0.5v4.5h0.5V62.1z"/>
	<path class="st1" d="M30,63.3c-0.2,0-0.4,0-0.6,0.1c-0.2,0.1-0.4,0.2-0.5,0.3c-0.3,0.4-0.5,0.8-0.4,1.3c0,0.2,0,0.4,0.1,0.7
		c0.1,0.2,0.2,0.4,0.3,0.6c0.1,0.2,0.3,0.3,0.5,0.3c0.2,0.1,0.4,0.1,0.6,0.1c0.3,0,0.7-0.1,0.9-0.3c0.3-0.2,0.4-0.5,0.5-0.8
		l-0.6-0.1c-0.1,0.2-0.2,0.4-0.3,0.5c-0.2,0.1-0.3,0.2-0.5,0.2c-0.1,0-0.3,0-0.4-0.1c-0.1,0-0.2-0.1-0.3-0.2
		c-0.2-0.2-0.3-0.5-0.3-0.8h2.4V65c0-0.5-0.1-0.9-0.4-1.3c-0.1-0.2-0.3-0.3-0.5-0.4C30.4,63.3,30.2,63.3,30,63.3z M29.1,64.7
		c0-0.3,0.1-0.5,0.3-0.7c0.1-0.1,0.2-0.1,0.3-0.2c0.1,0,0.2-0.1,0.3-0.1c0.1,0,0.3,0,0.4,0.1c0.1,0.1,0.2,0.1,0.3,0.2
		c0.1,0.2,0.2,0.4,0.2,0.6H29.1z"/>
	<path class="st1" d="M33.5,65.4c-0.1,0.2-0.2,0.4-0.2,0.6c-0.1-0.2-0.1-0.4-0.2-0.7l-0.7-2h-0.6l1.2,3.3h0.5l1.2-3.3h-0.6
		L33.5,65.4z"/>
	<path class="st1" d="M35.8,63.4h-0.6v3.3h0.6V63.4z"/>
	<path class="st1" d="M35.8,62.1h-0.6v0.6h0.6V62.1z"/>
	<path class="st1" d="M39.3,63.4h-0.7l-1.3,1.3v-2.6h-0.5v4.5h0.5v-1.3l0.4-0.4l1.1,1.7h0.7L38,64.6L39.3,63.4z"/>
	<path class="st1" d="M41.9,65.1c0,0.2,0,0.4-0.1,0.6c-0.1,0.1-0.2,0.3-0.3,0.4c-0.1,0.1-0.3,0.1-0.5,0.1c-0.1,0-0.3,0-0.4-0.1
		c-0.1,0-0.1-0.1-0.1-0.1c0-0.1-0.1-0.1-0.1-0.2c0-0.2,0-0.4,0-0.6v-1.8h-0.6v2c0,0.2,0,0.3,0,0.5c0,0.1,0.1,0.3,0.2,0.4
		c0.1,0.1,0.2,0.2,0.4,0.3c0.2,0.1,0.4,0.1,0.5,0.1c0.2,0,0.4,0,0.6-0.1c0.2-0.1,0.3-0.2,0.4-0.4v0.5h0.5v-3.3h-0.5V65.1z"/>
	<path class="st1" d="M47.2,63.5c-0.2-0.1-0.4-0.2-0.6-0.1c-0.2,0-0.4,0-0.5,0.1c-0.2,0.1-0.3,0.2-0.4,0.3v-1.6h-0.6v4.5h0.6v-1.8
		c0-0.2,0-0.4,0.1-0.6c0.1-0.1,0.2-0.3,0.3-0.4c0.1-0.1,0.3-0.1,0.5-0.1c0.1,0,0.2,0,0.3,0c0.1,0,0.2,0.1,0.2,0.2
		c0.1,0.2,0.2,0.4,0.2,0.6v2.1h0.6v-2.1c0-0.3,0-0.5-0.1-0.7C47.5,63.7,47.4,63.5,47.2,63.5z"/>
	<path class="st1" d="M49.9,63.3c-0.2,0-0.4,0-0.6,0.1c-0.2,0.1-0.4,0.2-0.5,0.3c-0.3,0.4-0.5,0.8-0.4,1.3c0,0.5,0.1,0.9,0.4,1.2
		c0.3,0.3,0.6,0.4,1,0.4c0.4,0,0.7-0.1,1.1-0.3c0.3-0.2,0.4-0.5,0.5-0.8l-0.6-0.1c-0.1,0.2-0.2,0.4-0.3,0.5
		c-0.2,0.1-0.3,0.2-0.5,0.2c-0.1,0-0.3,0-0.4-0.1c-0.1,0-0.2-0.1-0.3-0.2c-0.2-0.2-0.3-0.5-0.3-0.8h2.4c0-0.1,0-0.1,0-0.1
		c0-0.5-0.1-0.9-0.4-1.3c-0.1-0.1-0.3-0.3-0.5-0.3C50.3,63.3,50.1,63.3,49.9,63.3z M49,64.7c0-0.3,0.1-0.5,0.3-0.7
		c0.1-0.1,0.2-0.1,0.3-0.2c0.1,0,0.2-0.1,0.3-0.1c0.1,0,0.3,0,0.4,0.1c0.1,0.1,0.2,0.1,0.3,0.2c0.1,0.2,0.2,0.4,0.2,0.6H49z"/>
	<path class="st1" d="M54.7,65.3v-0.7c0-0.2,0-0.3,0-0.5c0-0.1-0.1-0.3-0.2-0.4c-0.1-0.1-0.2-0.2-0.4-0.2c-0.2-0.1-0.4-0.1-0.7-0.1
		c-0.3,0-0.5,0-0.7,0.1c-0.2,0.1-0.4,0.2-0.5,0.3c-0.1,0.2-0.2,0.4-0.2,0.6l0.5,0.1c0-0.2,0.1-0.4,0.3-0.5c0.2-0.1,0.4-0.1,0.6-0.1
		c0.2,0,0.4,0.1,0.6,0.2c0.1,0.1,0.1,0.1,0.1,0.2c0,0.1,0,0.2,0,0.3c0,0,0,0.1,0,0.1c-0.3,0.1-0.7,0.2-1,0.2c-0.2,0-0.3,0-0.5,0.1
		c-0.1,0-0.3,0.1-0.4,0.2c-0.1,0.1-0.2,0.2-0.3,0.3c-0.1,0.1-0.1,0.3-0.1,0.4c0,0.1,0,0.3,0.1,0.4c0,0.1,0.1,0.2,0.2,0.3
		c0.2,0.2,0.5,0.3,0.8,0.3c0.2,0,0.4,0,0.6-0.1c0.2-0.1,0.4-0.2,0.6-0.4c0,0.1,0.1,0.3,0.1,0.4h0.6c-0.1-0.1-0.1-0.3-0.1-0.4
		C54.7,66,54.7,65.6,54.7,65.3z M54.1,65.2c0,0.2,0,0.4-0.1,0.6c-0.1,0.2-0.2,0.3-0.4,0.4c-0.2,0.1-0.4,0.1-0.6,0.1
		c-0.2,0-0.4,0-0.5-0.1c-0.1,0-0.1-0.1-0.1-0.2c0-0.1,0-0.1,0-0.2c0-0.1,0-0.2,0.1-0.3c0-0.1,0.1-0.1,0.2-0.2
		c0.2-0.1,0.3-0.1,0.5-0.1c0.3,0,0.6-0.1,0.9-0.2V65.2z"/>
	<path class="st1" d="M58.1,63.4h-0.7l-1.3,1.3v-2.6h-0.5v4.5h0.5v-1.3l0.4-0.4l1.1,1.7h0.7l-1.4-2.1L58.1,63.4z"/>
	<path class="st1" d="M61.1,65.2c-0.1-0.1-0.2-0.2-0.4-0.3c-0.3-0.1-0.5-0.2-0.8-0.3c-0.3-0.1-0.4-0.1-0.5-0.1
		c-0.1,0-0.2-0.1-0.2-0.1c0-0.1-0.1-0.1-0.1-0.2c0-0.1,0-0.1,0-0.2c0-0.1,0.1-0.1,0.1-0.1c0.2-0.1,0.4-0.1,0.5-0.1
		c0.2,0,0.4,0,0.5,0.1c0.1,0.1,0.2,0.2,0.2,0.4l0.5-0.1c0-0.2-0.1-0.4-0.2-0.5c-0.1-0.1-0.3-0.2-0.4-0.3c-0.2-0.1-0.4-0.1-0.7-0.1
		c-0.2,0-0.3,0-0.5,0.1c-0.1,0-0.2,0.1-0.4,0.2c-0.1,0.1-0.2,0.2-0.3,0.3c-0.1,0.1-0.1,0.3-0.1,0.4c0,0.2,0,0.3,0.1,0.4
		c0.1,0.1,0.2,0.2,0.4,0.3c0.3,0.1,0.5,0.2,0.8,0.3c0.2,0,0.4,0.1,0.6,0.2c0.1,0,0.1,0.1,0.1,0.1c0,0.1,0,0.1,0,0.2
		c0,0.1,0,0.1-0.1,0.2s-0.1,0.1-0.1,0.2c-0.2,0.1-0.4,0.2-0.6,0.2c-0.2,0-0.4-0.1-0.6-0.2c-0.1-0.1-0.1-0.1-0.2-0.2
		c0-0.1-0.1-0.2-0.1-0.3l-0.5,0.1c0,0.3,0.2,0.6,0.4,0.8c0.3,0.2,0.6,0.3,1,0.3c0.2,0,0.5,0,0.7-0.1c0.2-0.1,0.3-0.2,0.5-0.4
		c0.1-0.2,0.2-0.3,0.2-0.5C61.2,65.5,61.2,65.4,61.1,65.2z"/>
</g>
</svg>
