<?xml version="1.0" encoding="UTF-8"?>
<svg xmlns="http://www.w3.org/2000/svg" xmlns:xlink="http://www.w3.org/1999/xlink" width="123" height="45" viewBox="0 0 123 45" version="1.1">
<g id="surface1">
<path style=" stroke:none;fill-rule:evenodd;fill:rgb(0%,28.235294%,46.666667%);fill-opacity:1;" d="M 60.949219 26.832031 L 61.300781 25.664062 L 61.65625 26.832031 Z M 74.15625 25.144531 C 73.957031 25.296875 73.835938 25.53125 73.835938 25.859375 C 73.835938 26.277344 74.121094 26.554688 74.648438 26.636719 L 75.238281 26.734375 C 75.445312 26.769531 75.554688 26.84375 75.554688 26.984375 C 75.554688 27.230469 75.210938 27.308594 75.023438 27.308594 C 74.683594 27.308594 74.453125 27.179688 74.207031 26.957031 L 73.664062 27.308594 C 74.050781 27.726562 74.460938 27.886719 74.941406 27.886719 C 75.472656 27.886719 76.238281 27.726562 76.238281 26.871094 C 76.238281 26.332031 75.773438 26.160156 75.207031 26.066406 L 74.9375 26.019531 C 74.667969 25.976562 74.546875 25.902344 74.546875 25.75 C 74.546875 25.570312 74.78125 25.464844 74.941406 25.464844 C 75.242188 25.464844 75.519531 25.59375 75.703125 25.820312 L 76.242188 25.433594 C 76.140625 25.320312 76.019531 25.222656 75.890625 25.144531 Z M 70.980469 25.144531 L 70.980469 26.816406 C 70.980469 27.59375 71.636719 27.886719 72.175781 27.886719 C 72.71875 27.886719 73.378906 27.59375 73.378906 26.816406 L 73.378906 25.144531 L 72.667969 25.144531 L 72.667969 26.757812 C 72.667969 27.078125 72.546875 27.308594 72.175781 27.308594 C 71.808594 27.308594 71.6875 27.078125 71.6875 26.757812 L 71.6875 25.144531 Z M 69.210938 27.804688 L 69.917969 27.804688 L 69.917969 25.519531 L 70.65625 25.519531 L 70.65625 25.144531 L 68.46875 25.144531 L 68.46875 25.519531 L 69.210938 25.519531 Z M 65.742188 25.144531 L 65.742188 26.816406 C 65.742188 27.59375 66.402344 27.886719 66.941406 27.886719 C 67.488281 27.886719 68.144531 27.59375 68.144531 26.816406 L 68.144531 25.144531 L 67.4375 25.144531 L 67.4375 26.757812 C 67.4375 27.078125 67.308594 27.308594 66.941406 27.308594 C 66.574219 27.308594 66.453125 27.078125 66.453125 26.757812 L 66.453125 25.144531 Z M 63.246094 25.144531 C 63.050781 25.296875 62.921875 25.53125 62.921875 25.859375 C 62.921875 26.277344 63.210938 26.554688 63.734375 26.636719 L 64.324219 26.734375 C 64.539062 26.769531 64.644531 26.84375 64.644531 26.984375 C 64.644531 27.230469 64.300781 27.308594 64.117188 27.308594 C 63.777344 27.308594 63.542969 27.179688 63.296875 26.957031 L 62.753906 27.308594 C 63.140625 27.726562 63.550781 27.886719 64.03125 27.886719 C 64.5625 27.886719 65.328125 27.726562 65.328125 26.871094 C 65.328125 26.332031 64.863281 26.160156 64.296875 26.066406 L 64.027344 26.019531 C 63.757812 25.976562 63.632812 25.902344 63.632812 25.75 C 63.632812 25.570312 63.871094 25.464844 64.035156 25.464844 C 64.332031 25.464844 64.609375 25.59375 64.796875 25.820312 L 65.332031 25.433594 C 65.230469 25.320312 65.109375 25.222656 64.980469 25.144531 Z M 60.863281 25.144531 L 59.882812 27.804688 L 60.640625 27.804688 L 60.78125 27.355469 L 61.828125 27.355469 L 61.96875 27.804688 L 62.730469 27.804688 L 61.726562 25.144531 Z M 57.636719 25.144531 L 57.636719 25.519531 L 58.375 25.519531 L 58.375 27.804688 L 59.085938 27.804688 L 59.085938 25.519531 L 59.824219 25.519531 L 59.824219 25.144531 Z M 54.84375 25.144531 L 54.84375 27.804688 L 55.550781 27.804688 L 55.550781 26.609375 L 56.605469 26.609375 L 56.605469 27.804688 L 57.3125 27.804688 L 57.3125 25.144531 L 56.605469 25.144531 L 56.605469 25.988281 L 55.550781 25.988281 L 55.550781 25.144531 Z M 53.585938 27.804688 L 54.296875 27.804688 L 54.296875 25.144531 L 53.585938 25.144531 Z M 51.089844 25.144531 C 50.894531 25.296875 50.769531 25.53125 50.769531 25.859375 C 50.769531 26.277344 51.054688 26.554688 51.582031 26.636719 L 52.167969 26.734375 C 52.378906 26.769531 52.488281 26.84375 52.488281 26.984375 C 52.488281 27.230469 52.148438 27.308594 51.957031 27.308594 C 51.621094 27.308594 51.386719 27.179688 51.140625 26.957031 L 50.597656 27.308594 C 50.984375 27.726562 51.394531 27.886719 51.875 27.886719 C 52.40625 27.886719 53.171875 27.726562 53.171875 26.871094 C 53.171875 26.332031 52.707031 26.160156 52.140625 26.066406 L 51.871094 26.019531 C 51.601562 25.976562 51.476562 25.902344 51.476562 25.75 C 51.476562 25.570312 51.714844 25.464844 51.875 25.464844 C 52.175781 25.464844 52.453125 25.59375 52.640625 25.820312 L 53.175781 25.433594 C 53.074219 25.320312 52.953125 25.222656 52.828125 25.144531 Z M 51.089844 25.144531 "/>
<path style=" stroke:none;fill-rule:evenodd;fill:rgb(0%,28.235294%,46.666667%);fill-opacity:1;" d="M 75.890625 25.144531 C 75.625 24.976562 75.3125 24.890625 74.996094 24.890625 C 74.671875 24.890625 74.371094 24.96875 74.15625 25.144531 Z M 72.667969 25.144531 L 73.378906 25.144531 L 73.378906 24.972656 L 72.667969 24.972656 Z M 70.980469 25.144531 L 71.6875 25.144531 L 71.6875 24.972656 L 70.980469 24.972656 Z M 68.46875 25.144531 L 70.65625 25.144531 L 70.65625 24.972656 L 68.46875 24.972656 Z M 67.4375 25.144531 L 68.144531 25.144531 L 68.144531 24.972656 L 67.4375 24.972656 Z M 65.742188 25.144531 L 66.453125 25.144531 L 66.453125 24.972656 L 65.742188 24.972656 Z M 64.984375 25.144531 C 64.714844 24.976562 64.402344 24.890625 64.082031 24.890625 C 63.761719 24.890625 63.460938 24.96875 63.246094 25.144531 Z M 61.726562 25.144531 L 61.660156 24.972656 L 60.925781 24.972656 L 60.863281 25.144531 Z M 57.632812 25.144531 L 59.824219 25.144531 L 59.824219 24.972656 L 57.632812 24.972656 Z M 56.605469 25.144531 L 57.3125 25.144531 L 57.3125 24.972656 L 56.605469 24.972656 Z M 54.84375 25.144531 L 55.550781 25.144531 L 55.550781 24.972656 L 54.84375 24.972656 Z M 53.589844 25.144531 L 54.296875 25.144531 L 54.296875 24.972656 L 53.589844 24.972656 Z M 52.828125 25.144531 C 52.558594 24.976562 52.246094 24.890625 51.929688 24.890625 C 51.605469 24.890625 51.304688 24.96875 51.089844 25.144531 Z M 52.828125 25.144531 "/>
<path style=" stroke:none;fill-rule:evenodd;fill:rgb(0%,28.235294%,46.666667%);fill-opacity:1;" d="M 52.636719 41.832031 L 52.636719 35.699219 L 57.964844 41.832031 L 60.21875 41.832031 L 54.472656 35.441406 L 59.644531 30.269531 L 57.453125 30.269531 L 52.636719 35.28125 L 52.636719 30.269531 L 51.035156 30.269531 L 51.035156 41.832031 Z M 52.636719 41.832031 "/>
<path style=" stroke:none;fill-rule:evenodd;fill:rgb(0%,28.235294%,46.666667%);fill-opacity:1;" d="M 66.269531 37.925781 C 66.269531 38.117188 66.253906 39.0625 65.964844 39.816406 C 65.648438 40.648438 64.796875 40.96875 64.171875 40.96875 C 62.71875 40.96875 62.394531 39.941406 62.394531 38.546875 L 62.394531 33.792969 L 60.878906 33.792969 L 60.878906 39.171875 C 60.878906 40.792969 61.835938 42.074219 63.515625 42.074219 C 64.636719 42.074219 65.660156 41.65625 66.269531 40.648438 L 66.300781 40.648438 L 66.300781 41.832031 L 67.789062 41.832031 L 67.789062 33.792969 L 66.269531 33.792969 Z M 66.269531 37.925781 "/>
<path style=" stroke:none;fill-rule:evenodd;fill:rgb(0%,28.235294%,46.666667%);fill-opacity:1;" d="M 68.589844 33.757812 L 68.589844 34.898438 L 69.96875 34.882812 L 69.96875 39.976562 C 69.96875 41.046875 70.046875 41.078125 70.320312 41.464844 C 70.574219 41.816406 70.976562 41.945312 71.214844 41.992188 C 71.582031 42.058594 71.871094 42.074219 72.238281 42.074219 C 72.589844 42.074219 72.925781 41.992188 73.28125 41.976562 L 73.28125 40.808594 C 73.039062 40.871094 72.71875 40.90625 72.480469 40.90625 C 71.9375 40.90625 71.484375 40.632812 71.484375 40.058594 L 71.484375 34.882812 L 73.34375 34.898438 L 73.34375 33.757812 L 71.484375 33.808594 L 71.484375 31.613281 L 69.96875 32.089844 L 69.96875 33.808594 Z M 68.589844 33.757812 "/>
<path style=" stroke:none;fill-rule:evenodd;fill:rgb(0%,28.235294%,46.666667%);fill-opacity:1;" d="M 73.863281 35.988281 C 73.863281 39.125 78.742188 37.777344 78.742188 39.574219 C 78.742188 40.613281 77.828125 40.96875 76.929688 40.96875 C 76.003906 40.96875 75.332031 40.441406 75.300781 39.445312 L 73.703125 39.445312 C 73.683594 41.304688 75.09375 42.074219 76.769531 42.074219 C 78.417969 42.074219 80.339844 41.464844 80.339844 39.492188 C 80.339844 37.683594 78.773438 37.523438 77.414062 37.074219 C 76.839844 36.898438 75.460938 36.832031 75.460938 35.9375 C 75.460938 35.039062 76.117188 34.65625 76.929688 34.65625 C 77.8125 34.65625 78.597656 34.992188 78.53125 36.019531 L 80.132812 36.019531 C 80.246094 34.191406 78.53125 33.550781 77.011719 33.550781 C 75.558594 33.550781 73.863281 34.308594 73.863281 35.988281 "/>
<path style=" stroke:none;fill-rule:evenodd;fill:rgb(0%,28.235294%,46.666667%);fill-opacity:1;" d="M 88.332031 38.101562 L 88.332031 37.347656 C 88.332031 35.125 87.195312 33.601562 84.796875 33.550781 C 82.25 33.550781 81.066406 35.523438 81.066406 37.875 C 81.066406 40.25 82.09375 42.074219 84.667969 42.074219 C 86.585938 42.074219 87.996094 41.160156 88.234375 39.335938 L 86.632812 39.335938 C 86.460938 40.503906 85.867188 40.96875 84.683594 40.96875 C 83.132812 40.96875 82.554688 39.511719 82.667969 38.101562 Z M 82.667969 37.042969 C 82.667969 35.730469 83.417969 34.65625 84.683594 34.65625 C 86.15625 34.65625 86.761719 35.699219 86.734375 37.042969 Z M 82.667969 37.042969 "/>
<path style=" stroke:none;fill-rule:evenodd;fill:rgb(0%,28.235294%,46.666667%);fill-opacity:1;" d="M 91.140625 41.832031 L 91.140625 37.492188 L 91.175781 37.492188 L 94.359375 41.832031 L 96.324219 41.832031 L 92.722656 37.203125 L 96.117188 33.792969 L 94.152344 33.792969 L 91.140625 37.074219 L 91.140625 30.269531 L 89.621094 30.269531 L 89.621094 41.832031 Z M 91.140625 41.832031 "/>
<path style=" stroke:none;fill-rule:evenodd;fill:rgb(0%,28.235294%,46.666667%);fill-opacity:1;" d="M 100.492188 33.550781 C 97.855469 33.550781 96.492188 35.3125 96.492188 37.8125 C 96.492188 40.3125 97.855469 42.074219 100.492188 42.074219 C 103.132812 42.074219 104.492188 40.3125 104.492188 37.8125 C 104.492188 35.3125 103.132812 33.550781 100.492188 33.550781 M 98.09375 37.8125 C 98.09375 36.097656 98.6875 34.65625 100.492188 34.65625 C 102.296875 34.65625 102.894531 36.097656 102.894531 37.8125 C 102.894531 39.527344 102.296875 40.96875 100.492188 40.96875 C 98.6875 40.96875 98.09375 39.527344 98.09375 37.8125 "/>
<path style=" stroke:none;fill-rule:evenodd;fill:rgb(0%,28.235294%,46.666667%);fill-opacity:1;" d="M 107.070312 37.796875 C 107.070312 36.289062 107.519531 34.609375 109.339844 34.609375 C 111.066406 34.609375 111.613281 36.339844 111.613281 37.796875 C 111.613281 39.300781 111.183594 41.015625 109.339844 41.015625 C 107.628906 41.015625 107.070312 39.300781 107.070312 37.796875 Z M 111.597656 34.882812 L 111.5625 34.882812 C 111.101562 33.921875 110.09375 33.550781 109.070312 33.550781 C 106.574219 33.550781 105.472656 35.632812 105.472656 37.8125 C 105.472656 39.878906 106.414062 42.070312 108.796875 42.070312 C 109.96875 42.070312 111.023438 41.671875 111.5625 40.550781 L 111.597656 40.550781 L 111.597656 40.628906 L 111.644531 41.832031 L 113.199219 41.832031 C 113.164062 41.367188 113.117188 40.886719 113.117188 40.410156 L 113.117188 30.269531 L 111.597656 30.269531 Z M 111.597656 34.882812 "/>
<path style=" stroke:none;fill-rule:evenodd;fill:rgb(0%,28.235294%,46.666667%);fill-opacity:1;" d="M 119.742188 37.925781 C 119.773438 39.414062 119.4375 40.96875 117.644531 40.96875 C 116.75 40.96875 116.0625 40.46875 116.0625 39.480469 C 116.0625 38.308594 117.292969 37.96875 118.222656 37.925781 Z M 118.363281 36.867188 C 116.464844 36.867188 114.460938 37.523438 114.460938 39.78125 C 114.460938 41.351562 115.867188 42.074219 117.261719 42.074219 C 118.363281 42.074219 119.265625 41.640625 119.761719 40.628906 L 119.789062 40.628906 C 119.808594 41 119.835938 41.351562 119.867188 41.71875 C 119.886719 41.910156 120.15625 41.832031 120.300781 41.832031 L 121.328125 41.832031 C 121.277344 41.160156 121.265625 40.484375 121.265625 40.136719 L 121.265625 36.289062 C 121.265625 34.046875 119.628906 33.550781 117.984375 33.550781 C 116.398438 33.550781 115.023438 34.175781 114.941406 35.9375 L 116.539062 35.9375 C 116.558594 35.105469 117.277344 34.65625 118.042969 34.65625 C 119.664062 34.65625 119.742188 35.472656 119.742188 36.867188 Z M 118.363281 36.867188 "/>
<path style=" stroke:none;fill-rule:evenodd;fill:rgb(98.431373%,81.568627%,20.392157%);fill-opacity:1;" d="M 30.875 7.980469 L 34.875 2.667969 L 33.609375 9.171875 C 32.738281 8.703125 31.824219 8.304688 30.875 7.980469 Z M 23.371094 7.074219 L 24.882812 0.539062 L 26.382812 7.0625 C 25.917969 7.023438 25.449219 7.007812 24.976562 7.007812 C 24.4375 7.007812 23.902344 7.027344 23.371094 7.074219 Z M 16.171875 9.265625 L 14.890625 2.667969 L 18.925781 8.03125 C 17.96875 8.367188 17.046875 8.78125 16.171875 9.265625 Z M 10.464844 14.171875 L 6.621094 8.679688 L 12.492188 11.9375 C 11.757812 12.625 11.082031 13.371094 10.464844 14.171875 Z M 7.210938 20.960938 L 1.515625 17.535156 L 8.160156 18.117188 C 7.769531 19.03125 7.453125 19.980469 7.210938 20.960938 Z M 6.972656 28.507812 L 0.445312 27.707031 L 6.695312 25.554688 C 6.710938 26.558594 6.804688 27.546875 6.972656 28.507812 Z M 9.8125 35.535156 L 3.601562 37.433594 L 8.375 32.980469 C 8.785156 33.875 9.269531 34.726562 9.8125 35.535156 Z M 15.277344 40.824219 L 10.4375 45.035156 L 12.957031 39.101562 C 13.683594 39.734375 14.460938 40.308594 15.277344 40.824219 Z M 37.386719 11.871094 L 43.140625 8.679688 L 39.382812 14.046875 C 38.78125 13.265625 38.109375 12.542969 37.386719 11.871094 Z M 20.15625 39.507812 C 19.199219 39.171875 18.285156 38.75 17.425781 38.242188 C 12.855469 35.546875 9.792969 30.574219 9.792969 24.886719 C 9.792969 16.332031 16.71875 9.398438 25.261719 9.398438 C 30.683594 9.398438 35.453125 12.191406 38.214844 16.414062 C 38.773438 17.269531 39.253906 18.1875 39.636719 19.148438 C 40.058594 20.210938 40.367188 21.328125 40.546875 22.488281 L 45.066406 22.488281 L 45.066406 44.511719 L 23.066406 44.511719 L 23.066406 40.21875 C 22.0625 40.074219 21.089844 39.835938 20.15625 39.507812 Z M 34.785156 16.414062 C 32.449219 13.789062 29.050781 12.132812 25.261719 12.132812 C 18.226562 12.132812 12.523438 17.84375 12.523438 24.886719 C 12.523438 28.96875 14.441406 32.601562 17.425781 34.941406 L 17.425781 16.414062 Z M 20.15625 36.574219 C 21.71875 37.257812 23.445312 37.636719 25.261719 37.636719 C 32.296875 37.636719 38 31.929688 38 24.886719 C 38 22.820312 37.507812 20.875 36.640625 19.148438 L 20.15625 19.148438 Z M 42.335938 41.777344 L 42.335938 25.222656 L 40.730469 25.222656 C 40.554688 33.441406 33.980469 40.085938 25.796875 40.363281 L 25.796875 41.777344 Z M 42.335938 41.777344 "/>
</g>
</svg>
