<svg width="123" height="45" viewBox="0 0 123 45" fill="none" xmlns="http://www.w3.org/2000/svg">
<path fill-rule="evenodd" clip-rule="evenodd" d="M61.2608 26.592L61.6155 25.408L61.9774 26.592H61.2608ZM74.6321 24.8835C74.4335 25.0403 74.307 25.2765 74.307 25.6059C74.307 26.03 74.5982 26.3102 75.132 26.394L75.728 26.4923C75.9403 26.5291 76.048 26.6014 76.048 26.7458C76.048 26.9951 75.702 27.0738 75.5127 27.0738C75.1688 27.0738 74.9333 26.9438 74.6834 26.7169L74.1351 27.0731C74.5274 27.4971 74.9413 27.6582 75.4267 27.6582C75.9656 27.6582 76.7422 27.4949 76.7422 26.6324C76.7422 26.0849 76.2697 25.91 75.6991 25.8154L75.4224 25.7713C75.1515 25.7266 75.028 25.6507 75.028 25.4954C75.028 25.3134 75.2671 25.2072 75.4296 25.2072C75.7345 25.2072 76.0126 25.3394 76.2004 25.5698L76.7458 25.1783C76.6418 25.0627 76.5219 24.9623 76.3904 24.8835H74.6321ZM71.4175 24.8835V26.5768C71.4175 27.3613 72.0807 27.6582 72.6275 27.6582C73.1787 27.6582 73.8469 27.3613 73.8469 26.5768V24.8835H73.1259V26.5168C73.1259 26.8383 73.0031 27.0738 72.6275 27.0738C72.2569 27.0738 72.1327 26.8383 72.1327 26.5168V24.8835H71.4175ZM69.6253 27.5758H70.3433V25.2621H71.091V24.8835H68.8762V25.2621H69.6253V27.5758ZM66.1152 24.8835V26.5768C66.1152 27.3613 66.7827 27.6582 67.3274 27.6582C67.88 27.6582 68.5446 27.3613 68.5446 26.5768V24.8835H67.8287V26.5168C67.8287 26.8383 67.7016 27.0738 67.3274 27.0738C66.9561 27.0738 66.8326 26.8383 66.8326 26.5168V24.8835H66.1152ZM63.5855 24.8835C63.3875 25.0403 63.2597 25.2765 63.2597 25.6059C63.2597 26.03 63.5508 26.3102 64.0825 26.394L64.6799 26.4923C64.8944 26.5291 65.0006 26.6014 65.0006 26.7458C65.0006 26.9951 64.656 27.0738 64.4668 27.0738C64.1229 27.0738 63.8867 26.9438 63.6375 26.7169L63.0899 27.0731C63.4793 27.4971 63.8946 27.6582 64.3822 27.6582C64.9182 27.6582 65.6963 27.4949 65.6963 26.6324C65.6963 26.0849 65.2231 25.91 64.6517 25.8154L64.3779 25.7713C64.1049 25.7266 63.9763 25.6507 63.9763 25.4954C63.9763 25.3134 64.2204 25.2072 64.3837 25.2072C64.6871 25.2072 64.9681 25.3394 65.1566 25.5698L65.6991 25.1783C65.5944 25.0627 65.4745 24.9623 65.3445 24.8835H63.5855ZM61.1734 24.8835L60.1809 27.5758H60.9466L61.0918 27.1222H62.1508L62.2946 27.5758H63.0661L62.0461 24.8835H61.1734ZM57.9054 24.8835V25.2621H58.6559V27.5758H59.374V25.2621H60.1231V24.8835H57.9054ZM55.078 24.8835V27.5758H55.796V26.3673H56.8637V27.5758H57.5796V24.8835H56.8637V25.7388H55.796V24.8835H55.078ZM53.8073 27.5758H54.5246V24.8828H53.8073V27.5758ZM51.2775 24.8835C51.0789 25.0403 50.9525 25.2765 50.9525 25.6059C50.9525 26.03 51.2436 26.3102 51.7745 26.394L52.3712 26.4923C52.5843 26.5291 52.6927 26.6014 52.6927 26.7458C52.6927 26.9951 52.3488 27.0738 52.1574 27.0738C51.815 27.0738 51.5795 26.9438 51.3281 26.7169L50.7812 27.0731C51.1728 27.4971 51.5853 27.6582 52.0743 27.6582C52.6096 27.6582 53.3862 27.4949 53.3862 26.6324C53.3862 26.0849 52.9144 25.91 52.3423 25.8154L52.07 25.7713C51.7969 25.7266 51.6691 25.6507 51.6691 25.4954C51.6691 25.3134 51.9125 25.2072 52.075 25.2072C52.3784 25.2072 52.6573 25.3394 52.8465 25.5698L53.3912 25.1783C53.2857 25.0627 53.1666 24.9623 53.0365 24.8835H51.2775Z" fill="#C7C7C9"/>
<path fill-rule="evenodd" clip-rule="evenodd" d="M76.3902 24.8829C76.1186 24.7153 75.8022 24.6265 75.4814 24.6265C75.1557 24.6265 74.8494 24.7045 74.6312 24.8822L76.3902 24.8829ZM73.1258 24.8829H73.8467V24.7088H73.1258V24.8829ZM71.4166 24.8829H72.1318V24.7088H71.4166V24.8829ZM68.876 24.8829H71.0908V24.7088H68.876V24.8829ZM67.8285 24.8829H68.5444V24.7088H67.8285V24.8829ZM66.1151 24.8829H66.8324V24.7088H66.1151V24.8829ZM65.3443 24.8829C65.0734 24.7153 64.7563 24.6265 64.4341 24.6265C64.1097 24.6265 63.8042 24.7045 63.5846 24.8822L65.3443 24.8829ZM62.0459 24.8829L61.9823 24.7088H61.2383L61.1732 24.8829H62.0459ZM57.9045 24.8829H60.1222V24.7088H57.9045V24.8829ZM56.8628 24.8829H57.5787V24.7088H56.8628V24.8829ZM55.0771 24.8829H55.7951V24.7088H55.0771V24.8829ZM53.8071 24.8829H54.5244V24.7088H53.8071V24.8829ZM53.0363 24.8829C52.764 24.7153 52.4476 24.6265 52.1261 24.6265C51.8011 24.6265 51.4941 24.7045 51.2773 24.8822L53.0363 24.8829Z" fill="#C7C7C9"/>
<path fill-rule="evenodd" clip-rule="evenodd" d="M52.8437 41.761V35.5572L58.237 41.761H60.5204L54.7045 35.2979L59.9382 30.0664H57.7205L52.8437 35.1368V30.0664H51.2227V41.761H52.8437Z" fill="#C7C7C9"/>
<path fill-rule="evenodd" clip-rule="evenodd" d="M66.648 37.8089C66.648 38.0025 66.6321 38.9589 66.3395 39.7203C66.0166 40.564 65.1555 40.8876 64.5242 40.8876C63.0512 40.8876 62.7247 39.8503 62.7247 38.4388V33.6299H61.1875V39.0716C61.1875 40.7085 62.1584 42.0037 63.8603 42.0037C64.9937 42.0037 66.0296 41.5819 66.648 40.564H66.6783V41.761H68.1852V33.6299H66.648V37.8089Z" fill="#C7C7C9"/>
<path fill-rule="evenodd" clip-rule="evenodd" d="M68.9961 33.5958V34.7488L70.3925 34.7307V39.8849C70.3925 40.9677 70.4712 40.9966 70.7479 41.3896C71.0058 41.7436 71.4125 41.875 71.6552 41.9242C72.0272 41.9885 72.3198 42.0036 72.6903 42.0036C73.0472 42.0036 73.3874 41.9242 73.7457 41.9061V40.7257C73.5009 40.79 73.1772 40.824 72.9345 40.824C72.3841 40.824 71.929 40.5473 71.929 39.9658V34.7307L73.8093 34.7488V33.5958L71.929 33.6471V31.4272L70.3925 31.9098V33.6471L68.9961 33.5958Z" fill="#C7C7C9"/>
<path fill-rule="evenodd" clip-rule="evenodd" d="M74.3385 35.8491C74.3385 39.0232 79.2789 37.6615 79.2789 39.4769C79.2789 40.5294 78.3528 40.8877 77.444 40.8877C76.5056 40.8877 75.8259 40.3524 75.7934 39.3468H74.176C74.1572 41.2258 75.5832 42.0038 77.2829 42.0038C78.9523 42.0038 80.8977 41.3897 80.8977 39.396C80.8977 37.5662 79.3106 37.4029 77.9352 36.9493C77.3508 36.7716 75.9566 36.7051 75.9566 35.8C75.9566 34.8926 76.6212 34.504 77.444 34.504C78.339 34.504 79.1322 34.8435 79.065 35.8809H80.6875C80.8016 34.0352 79.065 33.3872 77.5285 33.3872C76.0534 33.3872 74.3385 34.15 74.3385 35.8491Z" fill="#C7C7C9"/>
<path fill-rule="evenodd" clip-rule="evenodd" d="M88.9888 37.9866V37.2252C88.9888 34.9757 87.8381 33.4363 85.4065 33.3872C82.8305 33.3872 81.6328 35.3803 81.6328 37.7569C81.6328 40.1588 82.6709 42.0038 85.2794 42.0038C87.2212 42.0038 88.6486 41.0813 88.8899 39.2356H87.2688C87.0926 40.4181 86.4915 40.8877 85.2938 40.8877C83.7241 40.8877 83.1397 39.4126 83.2538 37.9866H88.9888ZM83.2538 36.9182C83.2538 35.5905 84.0138 34.504 85.2938 34.504C86.7834 34.504 87.3974 35.5572 87.3685 36.9182H83.2538Z" fill="#C7C7C9"/>
<path fill-rule="evenodd" clip-rule="evenodd" d="M91.8302 41.761V37.3733H91.8649L95.0881 41.761H97.0797L93.4339 37.0793L96.8717 33.6299H94.8794L91.8302 36.95V30.0664H90.293V41.761H91.8302Z" fill="#C7C7C9"/>
<path fill-rule="evenodd" clip-rule="evenodd" d="M101.3 33.3872C98.6269 33.3872 97.25 35.1686 97.25 37.6948C97.25 40.2231 98.6269 42.0038 101.3 42.0038C103.972 42.0038 105.348 40.2231 105.348 37.6948C105.348 35.1686 103.972 33.3872 101.3 33.3872ZM98.8696 37.6948C98.8696 35.9618 99.4706 34.504 101.3 34.504C103.127 34.504 103.73 35.9618 103.73 37.6948C103.73 39.4292 103.127 40.8877 101.3 40.8877C99.4706 40.8877 98.8696 39.4292 98.8696 37.6948Z" fill="#C7C7C9"/>
<path fill-rule="evenodd" clip-rule="evenodd" d="M107.958 37.6791C107.958 36.1563 108.412 34.4551 110.257 34.4551C112.005 34.4551 112.558 36.2047 112.558 37.6791C112.558 39.2026 112.122 40.9349 110.257 40.9349C108.525 40.9349 107.958 39.2026 107.958 37.6791ZM112.541 34.7311H112.507C112.039 33.7595 111.019 33.3874 109.984 33.3874C107.454 33.3874 106.34 35.4924 106.34 37.6943C106.34 39.7848 107.293 42.0033 109.706 42.0033C110.892 42.0033 111.963 41.598 112.507 40.4639H112.541V40.5455L112.591 41.7605H114.163C114.128 41.2903 114.082 40.8048 114.082 40.3208V30.0659H112.541V34.7311Z" fill="#C7C7C9"/>
<path fill-rule="evenodd" clip-rule="evenodd" d="M120.791 37.8089C120.822 39.3158 120.485 40.8877 118.669 40.8877C117.762 40.8877 117.067 40.3835 117.067 39.3822C117.067 38.1968 118.311 37.8544 119.252 37.8089H120.791ZM119.397 36.7391C117.472 36.7391 115.445 37.4029 115.445 39.6871C115.445 41.2742 116.869 42.0038 118.281 42.0038C119.397 42.0038 120.307 41.5674 120.81 40.5453H120.839C120.859 40.918 120.887 41.2742 120.918 41.6476C120.938 41.8412 121.212 41.761 121.359 41.761H122.398C122.346 41.0813 122.333 40.3994 122.333 40.0454V36.1561C122.333 33.8864 120.677 33.3872 119.01 33.3872C117.407 33.3872 116.012 34.0178 115.932 35.8H117.549C117.567 34.9562 118.294 34.504 119.072 34.504C120.711 34.504 120.791 35.3297 120.791 36.7391H119.397Z" fill="#C7C7C9"/>
<path fill-rule="evenodd" clip-rule="evenodd" d="M30.8132 7.52649L34.8621 2.15125L33.5813 8.73142C32.6993 8.25609 31.7739 7.85445 30.8132 7.52649ZM23.2152 6.60979L24.7444 0L26.2643 6.59534C25.7933 6.55922 25.318 6.54116 24.8383 6.54116C24.2922 6.54116 23.7526 6.56283 23.2152 6.60979ZM15.9227 8.82605L14.6268 2.15125L18.7126 7.57778C17.7424 7.91802 16.8105 8.337 15.9227 8.82605ZM10.1466 13.7881L6.25437 8.23081L12.1981 11.5285C11.4562 12.2227 10.77 12.979 10.1466 13.7881ZM6.85251 20.6522L1.08429 17.1891L7.81183 17.7785C7.41741 18.7003 7.09595 19.6603 6.85251 20.6522ZM6.61051 28.2863L0 27.4772L6.3295 25.2999C6.34395 26.3156 6.43858 27.3118 6.61051 28.2863ZM9.48486 35.3909L3.19726 37.3131L8.02999 32.8098C8.44608 33.7128 8.93441 34.5753 9.48486 35.3909ZM15.019 40.7408L10.1191 45L12.6698 38.9977C13.4038 39.6385 14.1905 40.2207 15.019 40.7408ZM37.4056 11.4599L43.2309 8.23153L39.4268 13.6588C38.815 12.8721 38.1374 12.1382 37.4056 11.4599ZM19.9587 39.4109C18.9892 39.0714 18.0639 38.6423 17.1934 38.1309C12.568 35.4053 9.4668 30.3754 9.4668 24.6231C9.4668 15.9718 16.4782 8.95897 25.128 8.95897C30.6181 8.95897 35.4472 11.7842 38.2443 16.0556C38.8085 16.9218 39.2954 17.8493 39.6811 18.8202C40.1095 19.8944 40.4237 21.0235 40.605 22.1973H45.1806V44.4712H22.9067V40.1283C21.8889 39.9831 20.9035 39.7403 19.9587 39.4109ZM34.7696 16.0556C32.4075 13.3994 28.9639 11.7242 25.128 11.7242C18.0039 11.7242 12.2299 17.499 12.2299 24.6231C12.2299 28.7508 14.1717 32.4277 17.1934 34.7913V16.0556H34.7696ZM19.9587 36.442C21.5414 37.1333 23.2888 37.5183 25.128 37.5183C32.2521 37.5183 38.0269 31.745 38.0269 24.6231C38.0269 22.5347 37.5291 20.5647 36.6507 18.8202H19.9587V36.442ZM42.4153 41.7074V24.964H40.7885C40.6108 33.2743 33.9577 39.9939 25.6713 40.2742V41.7074H42.4153Z" fill="#C7C7C9"/>
</svg>
