<svg width="93" height="24" viewBox="0 0 93 24" fill="none" xmlns="http://www.w3.org/2000/svg">
<path d="M34.02 19.2C32.3933 19.2 31.1133 18.7667 30.18 17.9C29.2467 17.02 28.7667 15.7467 28.74 14.08V13.46C28.7933 11.8733 29.2867 10.6333 30.22 9.74C31.1533 8.84667 32.4133 8.4 34 8.4C35.1467 8.4 36.1133 8.63333 36.9 9.1C37.7 9.55333 38.2933 10.1867 38.68 11C39.08 11.8 39.28 12.7133 39.28 13.74V14.24C39.28 14.3867 39.2267 14.5133 39.12 14.62C39.0267 14.7133 38.9067 14.76 38.76 14.76H32.42V14.88C32.4333 15.48 32.5733 15.9667 32.84 16.34C33.1067 16.7 33.4867 16.88 33.98 16.88C34.3 16.88 34.5533 16.82 34.74 16.7C34.94 16.5667 35.1267 16.4 35.3 16.2C35.42 16.0667 35.5133 15.9867 35.58 15.96C35.66 15.92 35.78 15.9 35.94 15.9H38.56C38.68 15.9 38.78 15.94 38.86 16.02C38.9533 16.0867 39 16.1733 39 16.28C39 16.6267 38.8 17.0333 38.4 17.5C38.0133 17.9667 37.44 18.3667 36.68 18.7C35.9333 19.0333 35.0467 19.2 34.02 19.2ZM35.6 12.72V12.68C35.6 12.04 35.46 11.5467 35.18 11.2C34.9 10.84 34.5067 10.66 34 10.66C33.4933 10.66 33.1 10.84 32.82 11.2C32.5533 11.5467 32.42 12.04 32.42 12.68V12.72H35.6ZM44.9736 19.2C43.6803 19.2 42.6603 18.7933 41.9136 17.98C41.1803 17.1667 40.7869 16.0067 40.7336 14.5L40.7136 13.8L40.7336 13.08C40.7869 11.6267 41.1869 10.4867 41.9336 9.66C42.6803 8.82 43.6936 8.4 44.9736 8.4C46.1736 8.4 47.1403 8.78667 47.8736 9.56V5.3C47.8736 5.15333 47.9203 5.03333 48.0136 4.94C48.1203 4.84667 48.2403 4.8 48.3736 4.8H50.9536C51.1003 4.8 51.2203 4.84667 51.3136 4.94C51.4203 5.03333 51.4736 5.15333 51.4736 5.3V18.5C51.4736 18.6467 51.4203 18.7667 51.3136 18.86C51.2203 18.9533 51.1003 19 50.9536 19H48.5736C48.4403 19 48.3203 18.9533 48.2136 18.86C48.1203 18.7533 48.0736 18.6333 48.0736 18.5V17.88C47.3536 18.76 46.3203 19.2 44.9736 19.2ZM46.1336 16.42C46.7069 16.42 47.1336 16.24 47.4136 15.88C47.6936 15.5067 47.8469 15.04 47.8736 14.48C47.9003 14.1067 47.9136 13.8533 47.9136 13.72C47.9136 13.5733 47.9003 13.3267 47.8736 12.98C47.8469 12.46 47.6869 12.0333 47.3936 11.7C47.1136 11.3533 46.6936 11.18 46.1336 11.18C45.5336 11.18 45.1003 11.36 44.8336 11.72C44.5803 12.0667 44.4336 12.5533 44.3936 13.18L44.3736 13.8L44.3936 14.42C44.4336 15.0467 44.5803 15.54 44.8336 15.9C45.1003 16.2467 45.5336 16.42 46.1336 16.42ZM57.5694 19.2C56.396 19.2 55.4494 18.8067 54.7294 18.02C54.0094 17.2333 53.6494 16.12 53.6494 14.68V9.1C53.6494 8.95333 53.696 8.83333 53.7894 8.74C53.896 8.64667 54.016 8.6 54.1494 8.6H56.8094C56.956 8.6 57.076 8.64667 57.1694 8.74C57.276 8.83333 57.3294 8.95333 57.3294 9.1V14.56C57.3294 15.8 57.8827 16.42 58.9894 16.42C59.5227 16.42 59.936 16.26 60.2294 15.94C60.536 15.6067 60.6894 15.1467 60.6894 14.56V9.1C60.6894 8.95333 60.736 8.83333 60.8294 8.74C60.936 8.64667 61.0627 8.6 61.2094 8.6H63.8494C63.996 8.6 64.116 8.64667 64.2094 8.74C64.3027 8.83333 64.3494 8.95333 64.3494 9.1V18.5C64.3494 18.6333 64.3027 18.7533 64.2094 18.86C64.116 18.9533 63.996 19 63.8494 19H61.4094C61.2627 19 61.136 18.9533 61.0294 18.86C60.936 18.7667 60.8894 18.6467 60.8894 18.5V17.74C60.196 18.7133 59.0894 19.2 57.5694 19.2Z" fill="white"/>
<path d="M67.4 19C67.2667 19 67.16 18.96 67.08 18.88C67 18.8 66.96 18.6933 66.96 18.56V17.6C66.96 17.4667 67 17.36 67.08 17.28C67.16 17.1867 67.2667 17.14 67.4 17.14H68.36C68.4933 17.14 68.6 17.1867 68.68 17.28C68.7733 17.36 68.82 17.4667 68.82 17.6V18.56C68.82 18.6933 68.7733 18.8 68.68 18.88C68.6 18.96 68.4933 19 68.36 19H67.4ZM75.5113 19.2C74.2446 19.2 73.2246 18.7867 72.4513 17.96C71.6779 17.12 71.2379 16 71.1313 14.6L71.1113 13.8L71.1313 13C71.2379 11.6133 71.6713 10.5 72.4313 9.66C73.2046 8.82 74.2313 8.4 75.5113 8.4C76.8979 8.4 77.9779 8.86 78.7513 9.78C79.5379 10.7 79.9313 11.96 79.9313 13.56V13.86C79.9313 13.9933 79.8846 14.1 79.7913 14.18C79.7113 14.26 79.6046 14.3 79.4713 14.3H72.3513V14.5C72.3779 15.1267 72.5179 15.7133 72.7713 16.26C73.0379 16.7933 73.4046 17.2267 73.8713 17.56C74.3379 17.88 74.8846 18.04 75.5113 18.04C76.2446 18.04 76.8379 17.9 77.2913 17.62C77.7579 17.3267 78.0913 17.0333 78.2913 16.74C78.4113 16.58 78.4979 16.48 78.5513 16.44C78.6179 16.4 78.7313 16.38 78.8913 16.38H79.2113C79.3313 16.38 79.4313 16.4133 79.5113 16.48C79.5913 16.5467 79.6313 16.6333 79.6313 16.74C79.6313 17.02 79.4513 17.36 79.0913 17.76C78.7446 18.1467 78.2579 18.4867 77.6313 18.78C77.0046 19.06 76.2979 19.2 75.5113 19.2ZM78.7113 13.18V13.1C78.7113 12.0733 78.4179 11.2267 77.8313 10.56C77.2579 9.89333 76.4846 9.56 75.5113 9.56C74.5379 9.56 73.7646 9.89333 73.1913 10.56C72.6313 11.2267 72.3513 12.0733 72.3513 13.1V13.18H78.7113ZM86.4292 19.2C85.1626 19.2 84.1426 18.7867 83.3692 17.96C82.5959 17.12 82.1559 16 82.0492 14.6L82.0292 13.8L82.0492 13C82.1559 11.6133 82.5892 10.5 83.3492 9.66C84.1226 8.82 85.1492 8.4 86.4292 8.4C87.8159 8.4 88.8959 8.86 89.6692 9.78C90.4559 10.7 90.8492 11.96 90.8492 13.56V13.86C90.8492 13.9933 90.8026 14.1 90.7092 14.18C90.6292 14.26 90.5226 14.3 90.3892 14.3H83.2692V14.5C83.2959 15.1267 83.4359 15.7133 83.6892 16.26C83.9559 16.7933 84.3226 17.2267 84.7892 17.56C85.2559 17.88 85.8026 18.04 86.4292 18.04C87.1626 18.04 87.7559 17.9 88.2092 17.62C88.6759 17.3267 89.0092 17.0333 89.2092 16.74C89.3292 16.58 89.4159 16.48 89.4692 16.44C89.5359 16.4 89.6492 16.38 89.8092 16.38H90.1292C90.2492 16.38 90.3492 16.4133 90.4292 16.48C90.5092 16.5467 90.5492 16.6333 90.5492 16.74C90.5492 17.02 90.3692 17.36 90.0092 17.76C89.6626 18.1467 89.1759 18.4867 88.5492 18.78C87.9226 19.06 87.2159 19.2 86.4292 19.2ZM89.6292 13.18V13.1C89.6292 12.0733 89.3359 11.2267 88.7492 10.56C88.1759 9.89333 87.4026 9.56 86.4292 9.56C85.4559 9.56 84.6826 9.89333 84.1092 10.56C83.5492 11.2267 83.2692 12.0733 83.2692 13.1V13.18H89.6292Z" fill="white"/>
<path d="M3 11C4.65685 11 6 9.65685 6 8C6 6.34315 4.65685 5 3 5C1.34315 5 0 6.34315 0 8C0 9.65685 1.34315 11 3 11Z" fill="#F8B243"/>
<path d="M9 24C11.2091 24 13 22.2091 13 20C13 17.7909 11.2091 16 9 16C6.79086 16 5 17.7909 5 20C5 22.2091 6.79086 24 9 24Z" fill="#D5401A"/>
<path d="M17 14C18.6569 14 20 12.6569 20 11C20 9.34315 18.6569 8 17 8C15.3431 8 14 9.34315 14 11C14 12.6569 15.3431 14 17 14Z" fill="#15ADC2"/>
</svg>
