<svg width="66" height="45" viewBox="0 0 66 45" fill="none" xmlns="http://www.w3.org/2000/svg">
<path fill-rule="evenodd" clip-rule="evenodd" d="M65.7242 38.3994L56.4901 22.4071V16.4309C56.4901 12.2962 53.1265 8.93271 48.9924 8.93271H41.2594L47.917 2.27622C48.3855 1.80766 48.3855 1.04835 47.917 0.579782C47.4484 0.111214 46.6891 0.111214 46.2205 0.579782L37.5165 9.28272C37.4199 9.37926 37.3471 9.49668 37.2878 9.62088V1.19965C37.2878 0.536312 36.7509 0 36.0876 0C35.4248 0 34.888 0.536312 34.888 1.19965V8.93271H29.1726C25.0379 8.93271 21.6744 12.2962 21.6744 16.4309C21.6744 20.565 25.0379 23.9286 29.1726 23.9286C31.984 23.9286 34.2709 26.2155 34.2709 29.0269C34.2709 31.8389 31.984 34.1258 29.1726 34.1258H23.075L25.2208 31.9795C25.6894 31.5109 25.6894 30.7516 25.2208 30.283C24.7522 29.8145 23.9929 29.8145 23.5244 30.283L19.3332 34.4753C19.3225 34.486 19.318 34.5007 19.3078 34.5114C18.8917 29.5576 14.7339 25.651 9.67451 25.651C4.34018 25.651 0 29.9912 0 35.3255C0 40.6593 4.34018 45 9.67451 45C14.7339 45 18.8917 41.0928 19.3078 36.139C19.318 36.1497 19.3225 36.165 19.3332 36.1751L23.5244 40.3663C23.7586 40.6005 24.0658 40.718 24.3723 40.718C24.6794 40.718 24.9865 40.6005 25.2208 40.3663C25.6894 39.8977 25.6894 39.1384 25.2208 38.6698L23.0755 36.5251H29.1726C33.3067 36.5251 36.6702 33.1616 36.6702 29.0269C36.6702 24.8928 33.3067 21.5293 29.1726 21.5293C26.3606 21.5293 24.0737 19.2423 24.0737 16.4309C24.0737 13.6189 26.3606 11.332 29.1726 11.332H34.888V19.0656C34.888 19.7284 35.4248 20.2653 36.0876 20.2653C36.7509 20.2653 37.2878 19.7284 37.2878 19.0656V10.6444C37.3471 10.7686 37.4199 10.886 37.5165 10.9826L46.2205 19.6855C46.4548 19.9198 46.7619 20.0366 47.0685 20.0366C47.3756 20.0366 47.6827 19.9198 47.917 19.6855C48.3855 19.2169 48.3855 18.4576 47.917 17.989L41.2594 11.332H48.9924C51.8038 11.332 54.0908 13.6189 54.0908 16.4309V22.4071L44.8583 38.3994C44.6438 38.7709 44.6438 39.2276 44.8583 39.5991C45.0723 39.9705 45.4686 40.1992 45.8971 40.1992H64.6849C65.114 40.1992 65.5097 39.9705 65.7242 39.5991C65.9388 39.2276 65.9388 38.7709 65.7242 38.3994ZM9.67451 42.6007C5.66289 42.6007 2.39929 39.3365 2.39929 35.3255C2.39929 31.3139 5.66289 28.0503 9.67451 28.0503C13.6856 28.0503 16.9497 31.3139 16.9497 35.3255C16.9497 39.3365 13.6856 42.6007 9.67451 42.6007ZM47.9757 37.7999L55.2904 25.1282L62.6069 37.7999H47.9757Z" fill="#C7C7C9"/>
</svg>
