<?xml version="1.0" encoding="UTF-8"?>
<svg xmlns="http://www.w3.org/2000/svg" xmlns:xlink="http://www.w3.org/1999/xlink" width="65" height="45" viewBox="0 0 65 45" version="1.1">
<g id="surface1">
<path style=" stroke:none;fill-rule:evenodd;fill:rgb(0%,44.705882%,73.72549%);fill-opacity:1;" d="M 64.679688 38.261719 L 55.589844 22.328125 L 55.589844 16.371094 C 55.589844 12.25 52.28125 8.902344 48.210938 8.902344 L 40.601562 8.902344 L 47.15625 2.269531 C 47.617188 1.800781 47.617188 1.042969 47.15625 0.578125 C 46.691406 0.109375 45.945312 0.109375 45.484375 0.578125 L 36.917969 9.25 C 36.824219 9.34375 36.753906 9.460938 36.695312 9.585938 L 36.695312 1.195312 C 36.695312 0.535156 36.167969 0 35.511719 0 C 34.859375 0 34.332031 0.535156 34.332031 1.195312 L 34.332031 8.902344 L 28.707031 8.902344 C 24.640625 8.902344 21.328125 12.25 21.328125 16.371094 C 21.328125 20.492188 24.640625 23.84375 28.707031 23.84375 C 31.476562 23.84375 33.726562 26.121094 33.726562 28.921875 C 33.726562 31.722656 31.476562 34.003906 28.707031 34.003906 L 22.707031 34.003906 L 24.820312 31.863281 C 25.28125 31.398438 25.28125 30.640625 24.820312 30.171875 C 24.359375 29.707031 23.609375 29.707031 23.148438 30.171875 L 19.027344 34.351562 C 19.015625 34.363281 19.011719 34.375 19 34.386719 C 18.589844 29.449219 14.5 25.558594 9.519531 25.558594 C 4.269531 25.558594 0 29.882812 0 35.199219 C 0 40.511719 4.269531 44.835938 9.519531 44.835938 C 14.5 44.835938 18.589844 40.945312 19 36.007812 C 19.011719 36.019531 19.015625 36.035156 19.027344 36.042969 L 23.148438 40.21875 C 23.378906 40.453125 23.683594 40.570312 23.984375 40.570312 C 24.285156 40.570312 24.589844 40.453125 24.820312 40.21875 C 25.28125 39.753906 25.28125 38.996094 24.820312 38.53125 L 22.707031 36.394531 L 28.707031 36.394531 C 32.777344 36.394531 36.085938 33.042969 36.085938 28.921875 C 36.085938 24.804688 32.777344 21.453125 28.707031 21.453125 C 25.941406 21.453125 23.691406 19.171875 23.691406 16.371094 C 23.691406 13.570312 25.941406 11.292969 28.707031 11.292969 L 34.332031 11.292969 L 34.332031 18.996094 C 34.332031 19.65625 34.859375 20.191406 35.511719 20.191406 C 36.167969 20.191406 36.695312 19.65625 36.695312 18.996094 L 36.695312 10.605469 C 36.753906 10.730469 36.824219 10.847656 36.917969 10.941406 L 45.484375 19.613281 C 45.714844 19.847656 46.019531 19.964844 46.320312 19.964844 C 46.621094 19.964844 46.925781 19.847656 47.15625 19.613281 C 47.617188 19.148438 47.617188 18.390625 47.15625 17.925781 L 40.601562 11.292969 L 48.210938 11.292969 C 50.980469 11.292969 53.230469 13.570312 53.230469 16.371094 L 53.230469 22.328125 L 44.144531 38.261719 C 43.933594 38.628906 43.933594 39.085938 44.144531 39.457031 C 44.355469 39.824219 44.746094 40.054688 45.167969 40.054688 L 63.65625 40.054688 C 64.078125 40.054688 64.46875 39.824219 64.679688 39.457031 C 64.890625 39.085938 64.890625 38.628906 64.679688 38.261719 Z M 9.519531 42.445312 C 5.574219 42.445312 2.359375 39.195312 2.359375 35.199219 C 2.359375 31.199219 5.574219 27.949219 9.519531 27.949219 C 13.46875 27.949219 16.679688 31.199219 16.679688 35.199219 C 16.679688 39.195312 13.46875 42.445312 9.519531 42.445312 Z M 47.210938 37.664062 L 54.410156 25.039062 L 61.609375 37.664062 Z M 47.210938 37.664062 "/>
</g>
</svg>
