<?xml version="1.0" encoding="UTF-8"?>
<svg width="18px" height="50px" viewBox="0 0 18 50" version="1.1" xmlns="http://www.w3.org/2000/svg" xmlns:xlink="http://www.w3.org/1999/xlink">
    <!-- Generator: Sketch 52.5 (67469) - http://www.bohemiancoding.com/sketch -->
    <title>Group 8 Copy 2</title>
    <desc>Created with Sketch.</desc>
    <g id="Page-1" stroke="none" stroke-width="1" fill="none" fill-rule="evenodd">
        <g id="Valdkonna_detailvaade_md" transform="translate(-998.000000, -178.000000)" fill="#15ADC2">
            <g id="Group-8-Copy-2" transform="translate(998.000000, 178.000000)">
                <circle id="Oval" cx="8.82352941" cy="4.70588235" r="4.70588235"></circle>
                <path d="M13.9363,27.0588235 L11.9623999,47.2912999 C11.8124747,48.8280328 10.520605,50 8.97657598,50 L8.53734399,50 C6.99331494,50 5.70144526,48.8280328 5.55152009,47.2912999 L3.57761996,27.0588235 L3.0465986,27.0588235 C1.38974435,27.0588235 0.0465985961,25.7156778 0.0465985961,24.0588235 C0.0465985961,24.0218024 0.0472838797,23.9847844 0.0486540948,23.9477885 L0.343334697,15.9914123 C0.442874282,13.3038435 2.65049738,11.1764706 5.33990887,11.1764706 L12.1740111,11.1764706 C14.8634226,11.1764706 17.0710457,13.3038435 17.1705853,15.9914123 L17.4652659,23.9477885 C17.5265888,25.6035076 16.2340754,26.9954451 14.5783564,27.056768 C14.5413606,27.0581382 14.5043426,27.0588235 14.4673214,27.0588235 L13.9363,27.0588235 Z" id="Combined-Shape"></path>
            </g>
        </g>
    </g>
</svg>