<svg width="192" height="60" viewBox="0 0 192 60" fill="none" xmlns="http://www.w3.org/2000/svg">
<g clip-path="url(#clip0)">
<path d="M64.4166 10.5029C64.0757 11.7838 63.5926 12.6376 62.9675 13.0931C62.3423 13.5485 61.6035 13.6623 60.7795 13.4631C59.9555 13.2638 59.0462 12.9223 58.0801 12.4099C57.114 11.8976 56.0626 11.3853 54.8976 10.7875C53.7326 10.1898 52.6244 9.67749 51.4594 9.27901C50.2944 8.88053 49.0725 8.73821 47.737 8.85206C46.4015 8.96592 45.1513 9.44979 43.9863 10.2752C42.6792 13.8046 41.7131 17.5333 41.1448 21.4896C40.5481 25.446 40.5481 29.5162 41.1448 33.7003C41.7415 37.8843 43.0486 41.2714 45.0944 43.9185C45.0376 44.1746 44.9524 44.4023 44.8387 44.6585C44.7251 44.9147 44.583 45.0855 44.4693 45.1993C44.3557 45.3132 44.1568 45.5124 43.9294 45.7401C43.6737 45.9963 43.5032 46.1386 43.418 46.224C41.6278 46.4232 40.2923 46.3948 39.4683 46.1101C37.6781 43.2923 36.5415 39.706 36.0869 35.408C35.6323 31.1101 35.6607 26.9545 36.229 22.9412C36.7973 18.928 37.6781 15.1993 38.9 11.7553C37.4508 12.4384 35.6323 13.0361 33.5011 13.5485C31.37 14.0323 29.1252 14.1746 26.8236 13.9469C24.522 13.7192 22.9308 12.9792 22.0499 11.6984C21.9931 11.5845 22.0215 11.4422 22.1351 11.2999C22.2204 11.1576 22.2488 11.0153 22.2204 10.8445C24.2663 10.9583 26.6247 10.7591 29.2957 10.2468C31.9667 9.73442 34.4672 9.10823 36.7973 8.36819C39.1273 7.62816 41.6278 6.97351 44.2704 6.40425C46.913 5.83499 49.3567 5.46497 51.6015 5.32265C53.8463 5.18034 56.091 5.52189 58.3927 6.34732C60.6374 7.14428 62.6833 8.53897 64.4166 10.5029Z" fill="white"/>
<path d="M60.6377 30.484C59.7568 28.2354 58.7907 27.9508 57.7109 29.6301C56.6311 31.2809 56.1197 33.3303 56.1197 35.835C56.0628 36.3758 56.0913 36.8312 56.2049 37.2582C57.1426 36.4327 57.7962 35.8066 58.2508 35.3511C58.677 34.8957 59.1601 34.2126 59.6715 33.3303C60.1546 32.4195 60.4672 31.4802 60.6377 30.484ZM57.5688 40.3322C58.1656 41.3568 58.8191 42.1253 59.5863 42.6092C60.3535 43.0931 61.0923 43.3208 61.8027 43.2923C62.513 43.2639 63.3655 43.0362 64.2748 42.6661C65.2125 42.2961 66.0081 41.8976 66.7185 41.4422C67.4288 40.9868 68.2245 40.4745 69.1337 39.9052C70.043 39.336 70.7534 38.909 71.2933 38.6813C71.4353 39.4498 71.3785 40.1899 71.1228 40.8445C70.8671 41.4992 70.4977 42.0115 70.0714 42.3815C69.6452 42.7515 69.1337 43.1785 68.537 43.6908C67.9403 44.2031 67.5425 44.6586 67.2868 45.0855C62.7688 47.1348 58.9612 46.7648 55.8355 43.9754C53.3066 41.7553 51.9711 38.8236 51.829 35.1234C51.6869 31.2809 52.9656 28.4062 55.6934 26.5276C56.5175 25.9868 57.4268 25.5883 58.3929 25.3037C60.4388 25.4745 61.9447 26.0153 62.9109 26.9546C63.877 27.8938 64.3032 29.0039 64.1895 30.2847C64.0759 31.5656 63.6781 32.8749 63.0529 34.2126C62.4278 35.5789 61.6038 36.8028 60.5808 37.9128C59.5295 38.966 58.5349 39.7914 57.5688 40.3322Z" fill="white"/>
<path d="M76.5214 30.484C75.6406 28.2354 74.6745 27.9508 73.5947 29.6301C72.5149 31.2809 72.0035 33.3303 72.0035 35.835C71.9466 36.3758 71.975 36.8312 72.0887 37.2582C73.0264 36.4327 73.6799 35.8066 74.1346 35.3511C74.5608 34.8957 75.0439 34.2126 75.5553 33.3303C76.0668 32.4195 76.3794 31.4802 76.5214 30.484ZM73.4526 40.3322C74.0493 41.3568 74.7029 42.1253 75.4701 42.6092C76.2373 43.0931 76.9761 43.3208 77.6864 43.2923C78.3968 43.2639 79.2493 43.0362 80.1586 42.6661C81.0962 42.2961 81.8919 41.8976 82.6022 41.4422C83.3126 40.9868 84.1082 40.4745 85.0175 39.9052C85.9268 39.336 86.6372 38.909 87.177 38.6813C87.3191 39.4498 87.2623 40.1899 87.0066 40.8445C86.7508 41.4992 86.3814 42.0115 85.9552 42.3815C85.529 42.7515 85.0175 43.1785 84.4208 43.6908C83.8241 44.2031 83.4263 44.6586 83.1705 45.0855C78.6526 47.1348 74.845 46.7648 71.7193 43.9754C69.1904 41.7553 67.8549 38.8236 67.7128 35.1234C67.5707 31.2809 68.8494 28.4062 71.5772 26.5276C72.4013 25.9868 73.3105 25.5883 74.2767 25.3037C76.3225 25.4745 77.8285 26.0153 78.7946 26.9546C79.7607 27.8938 80.187 29.0039 80.0733 30.2847C79.9596 31.5656 79.5618 32.8749 78.9367 34.2126C78.3116 35.5504 77.4875 36.8028 76.4646 37.9128C75.4417 39.0229 74.4471 39.7914 73.4526 40.3322Z" fill="white"/>
<path d="M102.208 45.2562C103.771 43.9469 104.993 42.3815 105.931 40.5883C106.869 38.7951 107.749 36.4042 108.602 33.4441C109.454 30.4839 110.108 28.4915 110.534 27.4099C115.336 27.9507 119.684 28.093 123.52 27.8938C123.605 28.7192 123.605 29.3169 123.52 29.7439C122.497 30.3985 121.076 30.7401 119.286 30.7401C117.496 30.7401 115.848 30.6262 114.398 30.3701C114.256 30.4839 114.114 30.8539 114.001 31.4517C113.887 32.0494 113.66 32.4194 113.376 32.5902V33.7002C112.892 35.3511 112.438 36.6888 112.068 37.7704C111.671 38.8236 111.131 40.0475 110.42 41.4422C109.71 42.8084 108.971 43.9184 108.204 44.8008C107.437 45.6547 106.442 46.4517 105.22 47.1632C103.999 47.8748 102.635 48.3871 101.129 48.6718C99.7648 47.9033 98.685 46.6794 97.8894 45.057C97.0938 43.4061 96.5539 41.7837 96.2413 40.1329C95.9572 38.482 95.5309 36.6888 94.9911 34.7534C94.4512 32.8179 93.7692 31.2809 92.9452 30.1708C91.6949 30.7401 90.5867 31.6224 89.6491 32.8179C88.7114 34.0133 87.8305 35.3511 86.9781 36.8027C86.1256 38.2828 85.3016 39.3928 84.5344 40.1898C84.2502 40.1898 83.9092 40.1613 83.5114 40.1044C83.1136 40.0475 82.8011 40.019 82.5737 40.0759C82.8295 39.6205 83.1136 39.0228 83.4546 38.2543C83.7956 37.4858 84.1081 36.8027 84.3923 36.205C84.6764 35.5788 85.0174 34.8957 85.4152 34.1272C85.813 33.3587 86.2108 32.6756 86.6087 32.0778C87.0349 31.4801 87.4895 30.8824 88.0294 30.2562C88.5693 29.63 89.1376 29.1462 89.7343 28.7477C90.331 28.3492 90.9846 28.0361 91.6949 27.8084C92.4053 27.5522 93.2009 27.4668 94.1102 27.4953C95.0195 27.5238 95.9572 27.6945 96.9233 27.9792C97.7473 28.9185 98.344 30.2562 98.7134 31.964C99.0828 33.6718 99.2533 35.3226 99.2533 36.8881C99.2533 38.4536 99.4806 40.0475 99.9353 41.6414C100.447 43.2069 101.186 44.4308 102.208 45.2562Z" fill="white"/>
<path d="M130.567 37.6281C130.652 37.6281 131.448 37.6565 132.897 37.7419C132.982 38.2258 132.982 38.9373 132.897 39.8197C131.959 41.0436 130.993 42.1537 129.942 43.1214C128.89 44.0892 127.754 44.9146 126.56 45.6546C125.339 46.3662 124.117 46.5939 122.866 46.3662C121.616 46.11 120.536 45.3131 119.627 43.9184C119.002 42.6945 118.604 41.4421 118.434 40.1897C118.263 38.9373 118.377 37.6281 118.775 36.2903C119.172 34.9241 119.542 33.8425 119.883 32.9601C120.224 32.1062 120.792 30.9108 121.588 29.3738C122.383 27.8368 122.923 26.7836 123.151 26.2144C124.742 26.3852 125.85 26.7267 126.475 27.2675C127.072 27.8083 127.271 28.4914 127.015 29.3169C126.759 30.1707 126.333 31.0816 125.736 32.0493C125.14 33.0455 124.486 34.0702 123.833 35.1518C123.179 36.2334 122.639 37.2865 122.27 38.3112C121.872 39.3358 121.872 40.332 122.27 41.2713C122.667 42.2106 123.492 42.9791 124.742 43.6053C125.481 43.2637 126.163 42.7514 126.845 42.0683C127.526 41.3852 128.208 40.5597 128.919 39.6205C129.629 38.6527 130.197 37.9981 130.567 37.6281ZM127.356 19.6679C125.651 19.8387 124.571 19.5256 124.06 18.7571C124.003 18.2163 124.145 17.647 124.458 16.9924C124.77 16.3662 124.912 15.8254 124.855 15.37C126.276 14.5161 127.328 14.6869 128.066 15.8539C128.748 16.907 128.748 17.9601 128.066 18.9848C127.896 19.2979 127.669 19.4971 127.356 19.6679Z" fill="white"/>
<path d="M141.535 37.6281C141.62 37.6281 142.416 37.6565 143.865 37.7419C143.95 38.2258 143.95 38.9373 143.865 39.8197C142.927 41.0436 141.961 42.1537 140.91 43.1214C139.859 44.0892 138.722 44.9146 137.529 45.6546C136.307 46.3662 135.085 46.5939 133.835 46.3662C132.584 46.11 131.505 45.3131 130.595 43.9184C129.97 42.6945 129.572 41.4421 129.402 40.1897C129.231 38.9373 129.345 37.6281 129.743 36.2903C130.141 34.9241 130.51 33.8425 130.851 32.9601C131.192 32.1062 131.76 30.9108 132.556 29.3738C133.352 27.8368 133.891 26.7836 134.119 26.2144C135.71 26.3852 136.818 26.7267 137.443 27.2675C138.04 27.8083 138.239 28.4914 137.983 29.3169C137.727 30.1707 137.301 31.0816 136.705 32.0493C136.108 33.0455 135.454 34.0702 134.801 35.1518C134.147 36.2334 133.636 37.2865 133.238 38.3112C132.84 39.3358 132.84 40.332 133.238 41.2713C133.636 42.2106 134.46 42.9791 135.71 43.6053C136.449 43.2637 137.131 42.7514 137.813 42.0683C138.495 41.3852 139.177 40.5597 139.887 39.6205C140.597 38.6527 141.137 37.9981 141.535 37.6281ZM138.324 19.6679C136.619 19.8387 135.54 19.5256 135.028 18.7571C134.971 18.2163 135.113 17.647 135.426 16.9924C135.738 16.3662 135.881 15.8254 135.824 15.37C137.244 14.5161 138.296 14.6869 139.035 15.8539C139.717 16.907 139.717 17.9601 139.035 18.9848C138.836 19.2979 138.608 19.4971 138.324 19.6679Z" fill="white"/>
<path d="M152.162 20.2943C152.077 20.2943 152.02 20.3227 152.02 20.4081C152.134 20.465 152.162 20.4081 152.162 20.2943C153.952 19.5258 155.941 18.8711 158.101 18.3588C160.26 17.8464 162.562 17.6757 164.949 17.8749C167.364 18.0457 169.154 18.7857 170.376 20.0666C170.802 21.632 169.893 22.7421 167.591 23.3967C166.966 22.9129 166.256 22.5144 165.517 22.2297C164.75 21.9451 163.897 21.8028 162.931 21.8313C161.965 21.8597 161.084 21.8882 160.346 21.9166C159.578 21.9451 158.641 22.1159 157.476 22.4005C156.311 22.6852 155.458 22.9129 154.947 23.0552C154.435 23.1975 153.583 23.4537 152.361 23.8521C151.139 24.2506 150.457 24.4499 150.315 24.5068C150.258 24.8768 150.059 25.6738 149.718 26.9261C149.377 28.1785 149.122 29.2032 148.951 30.0001C148.781 30.7971 148.553 31.8502 148.298 33.1595C148.042 34.4688 147.871 35.6074 147.815 36.5751C147.758 37.5428 147.758 38.539 147.786 39.6206C147.815 40.6738 147.957 41.613 148.269 42.41C148.553 43.207 148.98 43.8616 149.519 44.4024C150.628 44.5732 151.594 44.4594 152.361 44.0609C153.128 43.6624 153.753 43.1785 154.179 42.5523C154.606 41.9261 155.032 41.3 155.43 40.6738C155.828 40.0476 156.339 39.5352 156.964 39.1937C157.589 38.8521 158.357 38.7667 159.237 38.9091C159.237 39.8199 159.067 40.6453 158.697 41.4423C158.328 42.2108 157.93 42.8085 157.532 43.2354C157.106 43.6339 156.538 44.1747 155.771 44.8009C155.004 45.4271 154.464 45.911 154.123 46.2525C149.065 48.0457 145.74 46.5941 144.121 41.8977C142.899 38.169 142.899 33.7288 144.121 28.6055C144.462 27.1254 144.888 25.873 145.371 24.8483C145.229 24.8483 144.973 24.8199 144.632 24.7914C144.291 24.7914 144.035 24.7914 143.836 24.7629C143.638 24.7345 143.353 24.706 142.984 24.6776C142.615 24.6491 142.33 24.5922 142.132 24.5637C141.933 24.5352 141.677 24.4783 141.364 24.4214C141.052 24.3645 140.824 24.2791 140.682 24.1937C140.54 24.1083 140.341 24.0229 140.142 23.9091C139.944 23.7952 139.773 23.6814 139.659 23.5106C139.574 23.3398 139.489 23.169 139.404 22.9982C139.318 22.8275 139.29 22.5998 139.29 22.3721C139.29 22.1444 139.347 21.8882 139.432 21.6036C140.256 21.5182 141.279 21.6605 142.529 22.0305C143.78 22.4005 144.945 22.5144 146.081 22.4005C146.564 21.1197 147.445 18.1311 148.695 13.3493C150.343 12.9793 151.849 13.207 153.213 14.0324C153.327 16.6795 152.958 18.7857 152.162 20.2943Z" fill="white"/>
<path fill-rule="evenodd" clip-rule="evenodd" d="M99.6228 9.13647C102.038 9.13647 103.999 11.1004 103.999 13.5198C103.999 15.9391 102.038 17.9031 99.6228 17.9031C97.2075 17.9031 95.2469 15.9391 95.2469 13.5198C95.2185 11.1004 97.1791 9.13647 99.6228 9.13647Z" fill="white"/>
<path fill-rule="evenodd" clip-rule="evenodd" d="M14.4631 4.09863C17.4183 4.09863 19.8051 6.48952 19.8051 9.44968C19.8051 12.4098 17.4183 14.8007 14.4631 14.8007C11.508 14.8007 9.12109 12.4098 9.12109 9.44968C9.12109 6.48952 11.5364 4.09863 14.4631 4.09863Z" fill="white"/>
<path fill-rule="evenodd" clip-rule="evenodd" d="M28.2443 34.668C29.1535 34.668 29.8923 35.408 29.8923 36.3188C29.8923 37.2296 29.1535 37.9697 28.2443 37.9697C27.335 37.9697 26.5962 37.2296 26.5962 36.3188C26.5962 35.408 27.335 34.668 28.2443 34.668Z" fill="white"/>
<path fill-rule="evenodd" clip-rule="evenodd" d="M168.046 4.5542C169.751 4.5542 171.115 5.92042 171.115 7.6282C171.115 9.33598 169.751 10.7022 168.046 10.7022C166.341 10.7022 164.978 9.33598 164.978 7.6282C164.978 5.92042 166.37 4.5542 168.046 4.5542Z" fill="white"/>
<path d="M72.8845 6.31879C74.6265 6.31879 76.0386 4.90428 76.0386 3.15939C76.0386 1.41451 74.6265 0 72.8845 0C71.1426 0 69.7305 1.41451 69.7305 3.15939C69.7305 4.90428 71.1426 6.31879 72.8845 6.31879Z" fill="white"/>
<path fill-rule="evenodd" clip-rule="evenodd" d="M188.846 38.7097C190.579 38.7097 192 40.1329 192 41.8691C192 43.6054 190.579 45.0285 188.846 45.0285C187.113 45.0285 185.692 43.6054 185.692 41.8691C185.692 40.1329 187.084 38.7097 188.846 38.7097Z" fill="white"/>
<path fill-rule="evenodd" clip-rule="evenodd" d="M78.1979 49.3833C81.1246 49.3833 83.5115 51.7742 83.5115 54.7059C83.5115 57.6376 81.1246 60.0285 78.1979 60.0285C75.2711 60.0285 72.8843 57.6376 72.8843 54.7059C72.8843 51.7742 75.2711 49.3833 78.1979 49.3833Z" fill="white"/>
<path fill-rule="evenodd" clip-rule="evenodd" d="M1.56282 41.8691C2.41527 41.8691 3.12565 42.5523 3.12565 43.4346C3.12565 44.2885 2.44369 45.0001 1.56282 45.0001C0.710374 45.0001 0 44.317 0 43.4346C0 42.5807 0.681959 41.8691 1.56282 41.8691Z" fill="white"/>
<path fill-rule="evenodd" clip-rule="evenodd" d="M165.205 47.9602C166.057 47.9602 166.739 48.6433 166.739 49.4972C166.739 50.3511 166.057 51.0342 165.205 51.0342C164.352 51.0342 163.67 50.3511 163.67 49.4972C163.67 48.6433 164.352 47.9602 165.205 47.9602Z" fill="white"/>
<path d="M22.8172 44.5447C23.5276 44.6016 23.556 44.8293 23.6696 45.1139C23.897 45.5978 23.6696 46.1955 23.1866 46.4517L13.9801 50.7781C13.0424 51.1765 11.8774 49.5826 13.1277 48.9564L22.3341 44.6301C22.5046 44.5731 22.6467 44.5447 22.8172 44.5447Z" fill="white"/>
<path d="M3.23939 17.2485C3.38146 17.277 3.43829 17.2485 3.75086 17.3908L22.4763 26.1859C23.2435 26.5844 23.2719 26.9259 23.3288 27.3244C23.4993 28.3491 22.4195 29.4022 21.3681 29.0606C21.2829 29.0322 21.2545 29.0322 21.1692 28.9752L2.44377 20.1802C1.42083 19.6678 1.50608 19.184 1.56291 18.6432C1.61974 17.9316 2.21645 17.3339 2.92682 17.2485C3.12573 17.22 3.18256 17.2485 3.23939 17.2485Z" fill="white"/>
<path d="M138.977 50.8918C139.773 50.9488 140.199 52.0588 139.489 52.5996L131.334 58.6907C130.908 59.0038 130.765 58.9184 130.538 58.8615C129.856 58.6907 129.544 57.6945 130.197 57.1537L138.352 51.0626C138.523 50.9488 138.636 50.8918 138.977 50.8918Z" fill="white"/>
<path d="M173.36 44.8862C173.473 44.8862 173.559 44.9147 173.644 44.9716L180.435 48.501C181.06 48.8426 180.662 50.1519 179.81 49.7249L173.019 46.1955C172.735 46.0248 172.706 45.9109 172.678 45.7686C172.564 45.3701 172.877 44.8862 173.331 44.8862C173.331 44.8862 173.36 44.8862 173.36 44.8862Z" fill="white"/>
<path d="M189.642 19.4688C191.062 19.6395 191.83 21.8027 190.409 22.6851C190.324 22.742 190.295 22.742 190.21 22.7989L171.286 31.4517C170.064 31.964 168.473 30.7686 168.899 29.3454C169.041 28.8615 169.24 28.5485 169.836 28.2638L188.732 19.6395C189.017 19.5257 189.329 19.4688 189.642 19.4688Z" fill="white"/>
<path d="M132.357 4.44019C132.471 4.44019 132.584 4.49711 132.698 4.55404L141.166 9.67738C141.791 10.1043 141.308 11.4705 140.398 10.9582L131.931 5.83487C131.391 5.46485 131.533 4.46865 132.329 4.44019C132.329 4.44019 132.329 4.44019 132.357 4.44019Z" fill="white"/>
</g>
<defs>
<clipPath id="clip0">
<rect width="192" height="60" fill="white"/>
</clipPath>
</defs>
</svg>
