<?xml version="1.0" encoding="UTF-8" standalone="no"?>
<!DOCTYPE svg PUBLIC "-//W3C//DTD SVG 1.1//EN" "http://www.w3.org/Graphics/SVG/1.1/DTD/svg11.dtd">
<svg width="100%" height="100%" viewBox="0 0 24 24" version="1.1" xmlns="http://www.w3.org/2000/svg" xmlns:xlink="http://www.w3.org/1999/xlink" xml:space="preserve" xmlns:serif="http://www.serif.com/" style="fill-rule:evenodd;clip-rule:evenodd;stroke-linejoin:round;stroke-miterlimit:2;">
    <path d="M20,22C19.4,22 19,21.6 19,21L19,19C19,17.3 17.7,16 16,16L8,16C6.3,16 5,17.3 5,19L5,21C5,21.6 4.6,22 4,22C3.4,22 3,21.6 3,21L3,19C3,16.2 5.2,14 8,14L16,14C18.8,14 21,16.2 21,19L21,21C21,21.6 20.6,22 20,22Z" style="fill:white;fill-rule:nonzero;"/>
    <path d="M12,12C9.2,12 7,9.8 7,7C7,4.2 9.2,2 12,2C14.8,2 17,4.2 17,7C17,9.8 14.8,12 12,12ZM12,4C10.3,4 9,5.3 9,7C9,8.7 10.3,10 12,10C13.7,10 15,8.7 15,7C15,5.3 13.7,4 12,4Z" style="fill:white;fill-rule:nonzero;"/>
</svg>
