<?xml version="1.0" encoding="UTF-8"?>
<svg width="311px" height="197px" viewBox="0 0 311 197" version="1.1" xmlns="http://www.w3.org/2000/svg" xmlns:xlink="http://www.w3.org/1999/xlink">
    <!-- Generator: Sketch 49.1 (51147) - http://www.bohemiancoding.com/sketch -->
    <title>Combined Shape</title>
    <desc>Created with Sketch.</desc>
    <defs></defs>
    <g id="Page-1" stroke="none" stroke-width="1" fill="none" fill-rule="evenodd" opacity="0.2">
        <path d="M306.489119,98 C308.747826,103.579862 310,109.688534 310,116.095042 C310,142.447429 288.943701,163.806508 262.968575,163.806508 C250.566658,163.806508 239.288103,158.928688 230.885354,150.96614 C223.857601,155.269563 215.619613,157.75254 206.809458,157.75254 C203.535232,157.75254 200.341889,157.406078 197.256387,156.755702 C184.177457,180.743638 158.993178,197 130.055371,197 C97.9841328,197 70.5231727,177.038926 59.0439102,148.695902 C55.1016582,149.796071 50.949712,150.394781 46.6629624,150.394781 C20.8915388,150.394781 0,129.199816 0,103.05713 C0,101.343054 0.0928645974,99.6624098 0.266611264,98 C0.0931641606,96.3543822 0,94.6907137 0,92.9939524 C0,67.1153338 20.9589308,46.1344589 46.8134881,46.1344589 C51.1140659,46.1344589 55.2794055,46.727122 59.2343744,47.8161781 C70.7506668,19.7594474 98.3002107,0 130.474904,0 C159.506059,0 184.771578,16.0921566 197.892698,39.8377897 C200.988153,39.1939831 204.191798,38.8510207 207.476586,38.8510207 C216.31516,38.8510207 224.579722,41.3089179 231.630146,45.5688718 C240.06,37.6867536 251.374937,32.8582041 263.816861,32.8582041 C289.875778,32.8582041 311,54.0015349 311,80.087736 C311,86.4295318 309.743786,92.4765004 307.477794,98 L306.489119,98 Z" id="Combined-Shape" fill="#FFFFFE"></path>
    </g>
</svg>