<?xml version="1.0" encoding="UTF-8"?>
<svg width="1700px" height="818px" viewBox="150 0 1700 818" version="1.1" xmlns="http://www.w3.org/2000/svg" xmlns:xlink="http://www.w3.org/1999/xlink">
    <!-- Generator: Sketch 49.1 (51147) - http://www.bohemiancoding.com/sketch -->
    <title>Group 2</title>
    <desc>Created with Sketch.</desc>
    <defs>
        <rect id="path-1" x="0" y="0" width="1850" height="829"></rect>
        <linearGradient x1="50%" y1="-250.154523%" x2="50%" y2="100%" id="linearGradient-3">
            <stop stop-color="#15ADC2" offset="0%"></stop>
            <stop stop-color="#2E3374" offset="100%"></stop>
        </linearGradient>
    </defs>
    <g id="Page-1" stroke="none" stroke-width="1" fill="none" fill-rule="evenodd">
        <g id="Avalahet_2000px" transform="translate(0.000000, -1460.000000)">
            <g id="Group-2" transform="translate(0.000000, 1455.000000)">
                <mask id="mask-2" fill="white">
                    <use xlink:href="#path-1"></use>
                </mask>
                <g id="Mask"></g>
                <g mask="url(#mask-2)">
                    <g transform="translate(-357.000000, 5.000000)">
                        <rect id="Rectangle-27-Copy-2" fill="url(#linearGradient-3)" x="357" y="172" width="1850" height="479"></rect>
                        <path d="M1869,174 L1588.75747,174 L1393.52354,174 L846.274285,174 C845.437605,171.967226 844.678207,169.89452 844,167.785498 L844.000001,116.559696 C854.857013,82.7846006 886.591393,58.3400767 924.049709,58.3400767 C946.213135,58.3400767 966.369005,66.9132157 981.385529,80.9079969 C993.944804,73.3444052 1008.66689,68.9803837 1024.41148,68.9803837 C1030.26284,68.9803837 1035.96966,69.589317 1041.48375,70.7324021 C1064.85706,28.5717882 1109.86381,0 1161.57847,0 C1218.89287,0 1267.96827,35.0831005 1288.48282,84.898112 C1295.528,82.964482 1302.94793,81.9122026 1310.60877,81.9122026 C1341.73355,81.9122026 1368.87544,98.9254113 1383.20277,124.138236 C1388.58124,121.664818 1394.56458,120.28307 1400.87011,120.28307 C1403.8486,120.28307 1406.75351,120.594536 1409.56032,121.179217 C1421.45793,99.6143054 1444.3675,85 1470.69157,85 C1499.86605,85 1524.84666,102.944804 1535.28909,128.424896 C1538.87527,127.435856 1542.6522,126.897621 1546.55176,126.897621 C1560.58583,126.897621 1573.02911,133.725773 1580.75698,144.248733 C1586.17606,125.343408 1603.51118,111.517053 1624.05914,111.517053 C1635.94098,111.517053 1646.74656,116.148519 1654.79694,123.708918 C1661.52998,119.62284 1669.4225,117.265265 1677.8632,117.265265 C1681.00012,117.265265 1684.05955,117.594229 1687.01565,118.211757 C1699.54611,95.4353338 1723.67428,80 1751.39856,80 C1782.12488,80 1808.43425,98.9529394 1819.43212,125.864497 C1823.20906,124.819893 1827.18689,124.25142 1831.29387,124.25142 C1847.13992,124.25142 1861.06031,132.540399 1869,145.040463 L1869,174 Z" id="Combined-Shape-Copy-2" fill="#27568A"></path>
                        <path d="M2666,174 L2385.75747,174 L2190.52354,174 L1643.27428,174 C1642.4376,171.967226 1641.67821,169.89452 1641,167.785498 L1641,116.559696 C1651.85701,82.7846006 1683.59139,58.3400767 1721.04971,58.3400767 C1743.21314,58.3400767 1763.369,66.9132157 1778.38553,80.9079969 C1790.9448,73.3444052 1805.66689,68.9803837 1821.41148,68.9803837 C1827.26284,68.9803837 1832.96966,69.589317 1838.48375,70.7324021 C1861.85706,28.5717882 1906.86381,0 1958.57847,0 C2015.89287,0 2064.96827,35.0831005 2085.48282,84.898112 C2092.528,82.964482 2099.94793,81.9122026 2107.60877,81.9122026 C2138.73355,81.9122026 2165.87544,98.9254113 2180.20277,124.138236 C2185.58124,121.664818 2191.56458,120.28307 2197.87011,120.28307 C2200.8486,120.28307 2203.75351,120.594536 2206.56032,121.179217 C2218.45793,99.6143054 2241.3675,85 2267.69157,85 C2296.86605,85 2321.84666,102.944804 2332.28909,128.424896 C2335.87527,127.435856 2339.6522,126.897621 2343.55176,126.897621 C2357.58583,126.897621 2370.02911,133.725773 2377.75698,144.248733 C2383.17606,125.343408 2400.51118,111.517053 2421.05914,111.517053 C2432.94098,111.517053 2443.74656,116.148519 2451.79694,123.708918 C2458.52998,119.62284 2466.4225,117.265265 2474.8632,117.265265 C2478.00012,117.265265 2481.05955,117.594229 2484.01565,118.211757 C2496.54611,95.4353338 2520.67428,80 2548.39856,80 C2579.12488,80 2605.43425,98.9529394 2616.43212,125.864497 C2620.20906,124.819893 2624.18689,124.25142 2628.29387,124.25142 C2644.13992,124.25142 2658.06031,132.540399 2666,145.040463 L2666,174 Z" id="Combined-Shape-Copy-10" fill="#27568A"></path>
                        <path d="M1083,174 L802.75747,174 L607.52354,174 L60.274285,174 C59.4376047,171.967226 58.6782066,169.89452 58,167.785498 L58.000001,116.559696 C68.8570129,82.7846006 100.591393,58.3400767 138.049709,58.3400767 C160.213135,58.3400767 180.369005,66.9132157 195.385529,80.9079969 C207.944804,73.3444052 222.666887,68.9803837 238.411485,68.9803837 C244.262843,68.9803837 249.969658,69.589317 255.483747,70.7324021 C278.857061,28.5717882 323.863806,0 375.578467,0 C432.892873,0 481.968266,35.0831005 502.482819,84.898112 C509.528005,82.964482 516.947935,81.9122026 524.608771,81.9122026 C555.733545,81.9122026 582.875441,98.9254113 597.202774,124.138236 C602.581238,121.664818 608.564577,120.28307 614.870106,120.28307 C617.848595,120.28307 620.753508,120.594536 623.560319,121.179217 C635.457926,99.6143054 658.367497,85 684.691566,85 C713.866047,85 738.846663,102.944804 749.289089,128.424896 C752.875266,127.435856 756.652198,126.897621 760.551757,126.897621 C774.585828,126.897621 787.029109,133.725773 794.756982,144.248733 C800.17606,125.343408 817.511181,111.517053 838.05914,111.517053 C849.940977,111.517053 860.74656,116.148519 868.796935,123.708918 C875.529976,119.62284 883.4225,117.265265 891.863196,117.265265 C895.000116,117.265265 898.059546,117.594229 901.015655,118.211757 C913.546114,95.4353338 937.674278,80 965.398564,80 C996.124879,80 1022.43425,98.9529394 1033.43212,125.864497 C1037.20906,124.819893 1041.18689,124.25142 1045.29387,124.25142 C1061.13992,124.25142 1075.06031,132.540399 1083,145.040463 L1083,174 Z" id="Combined-Shape-Copy-9" fill="#27568A"></path>
                        <path d="M1871,706.979971 C1858.59963,737.855762 1828.32779,759.659923 1792.95029,759.659923 C1770.78687,759.659923 1750.631,751.086784 1735.61447,737.092003 C1723.0552,744.655595 1708.33311,749.019616 1692.58852,749.019616 C1686.73716,749.019616 1681.03034,748.410683 1675.51625,747.267598 C1652.14294,789.428212 1607.13619,818 1555.42153,818 C1498.10713,818 1449.03173,782.916899 1428.51718,733.101888 C1421.472,735.035518 1414.05207,736.087797 1406.39123,736.087797 C1375.26646,736.087797 1348.12456,719.074589 1333.79723,693.861764 C1328.41876,696.335182 1322.43542,697.71693 1316.12989,697.71693 C1313.15141,697.71693 1310.24649,697.405464 1307.43968,696.820783 C1295.54207,718.385695 1272.6325,733 1246.30843,733 C1217.13395,733 1192.15334,715.055196 1181.71091,689.575104 C1178.12473,690.564144 1174.3478,691.102379 1170.44824,691.102379 C1156.41417,691.102379 1143.97089,684.274227 1136.24302,673.751267 C1130.82394,692.656592 1113.48882,706.482947 1092.94086,706.482947 C1081.05902,706.482947 1070.25344,701.851481 1062.20307,694.291082 C1055.47002,698.37716 1047.5775,700.734735 1039.1368,700.734735 C1035.99988,700.734735 1032.94045,700.405771 1029.98435,699.788243 C1017.45389,722.564666 993.325722,738 965.601436,738 C934.875121,738 908.565749,719.047061 897.567875,692.135503 C893.790944,693.180107 889.813111,693.74858 885.706128,693.74858 C868.4304,693.74858 853.443487,683.896413 846,669.476312 L846,644 L1128.24253,644 L1323.47646,644 L1870.72572,644 C1870.81809,644.224424 1870.90952,644.449334 1871,644.674726 L1871,706.979971 Z" id="Combined-Shape-Copy-2" fill="#2E3374"></path>
                        <path d="M1025,706.979971 C1012.59963,737.855762 982.327792,759.659923 946.950292,759.659923 C924.786866,759.659923 904.630996,751.086784 889.614472,737.092003 C877.055197,744.655595 862.333114,749.019616 846.588516,749.019616 C840.737157,749.019616 835.030343,748.410683 829.516254,747.267598 C806.14294,789.428212 761.136195,818 709.421534,818 C652.107128,818 603.031734,782.916899 582.517181,733.101888 C575.471996,735.035518 568.052066,736.087797 560.39123,736.087797 C529.266455,736.087797 502.12456,719.074589 487.797226,693.861764 C482.418763,696.335182 476.435423,697.71693 470.129894,697.71693 C467.151405,697.71693 464.246492,697.405464 461.439681,696.820783 C449.542074,718.385695 426.632504,733 400.308434,733 C371.133953,733 346.153338,715.055196 335.710912,689.575104 C332.124734,690.564144 328.347803,691.102379 324.448243,691.102379 C310.414173,691.102379 297.970892,684.274227 290.243019,673.751267 C284.82394,692.656592 267.48882,706.482947 246.94086,706.482947 C235.059024,706.482947 224.25344,701.851481 216.203065,694.291082 C209.470024,698.37716 201.5775,700.734735 193.136804,700.734735 C189.999884,700.734735 186.940455,700.405771 183.984345,699.788243 C171.453887,722.564666 147.325722,738 119.601436,738 C88.8751208,738 62.5657493,719.047061 51.5678752,692.135503 C47.7909435,693.180107 43.8131112,693.74858 39.7061285,693.74858 C22.4304002,693.74858 7.44348717,683.896413 -1.43884904e-13,669.476312 L9.09494702e-13,644 L282.24253,644 L477.47646,644 L1024.72572,644 C1024.81809,644.224424 1024.90952,644.449334 1025,644.674726 L1025,706.979971 Z" id="Combined-Shape-Copy-11" fill="#2E3374"></path>
                        <path d="M2739,706.979971 C2726.59963,737.855762 2696.32779,759.659923 2660.95029,759.659923 C2638.78687,759.659923 2618.631,751.086784 2603.61447,737.092003 C2591.0552,744.655595 2576.33311,749.019616 2560.58852,749.019616 C2554.73716,749.019616 2549.03034,748.410683 2543.51625,747.267598 C2520.14294,789.428212 2475.13619,818 2423.42153,818 C2366.10713,818 2317.03173,782.916899 2296.51718,733.101888 C2289.472,735.035518 2282.05207,736.087797 2274.39123,736.087797 C2243.26646,736.087797 2216.12456,719.074589 2201.79723,693.861764 C2196.41876,696.335182 2190.43542,697.71693 2184.12989,697.71693 C2181.15141,697.71693 2178.24649,697.405464 2175.43968,696.820783 C2163.54207,718.385695 2140.6325,733 2114.30843,733 C2085.13395,733 2060.15334,715.055196 2049.71091,689.575104 C2046.12473,690.564144 2042.3478,691.102379 2038.44824,691.102379 C2024.41417,691.102379 2011.97089,684.274227 2004.24302,673.751267 C1998.82394,692.656592 1981.48882,706.482947 1960.94086,706.482947 C1949.05902,706.482947 1938.25344,701.851481 1930.20307,694.291082 C1923.47002,698.37716 1915.5775,700.734735 1907.1368,700.734735 C1903.99988,700.734735 1900.94045,700.405771 1897.98435,699.788243 C1885.45389,722.564666 1861.32572,738 1833.60144,738 C1802.87512,738 1776.56575,719.047061 1765.56788,692.135503 C1761.79094,693.180107 1757.81311,693.74858 1753.70613,693.74858 C1736.4304,693.74858 1721.44349,683.896413 1714,669.476312 L1714,644 L1996.24253,644 L2191.47646,644 L2738.72572,644 C2738.81809,644.224424 2738.90952,644.449334 2739,644.674726 L2739,706.979971 Z" id="Combined-Shape-Copy-12" fill="#2E3374" transform="translate(2226.500000, 731.000000) scale(-1, 1) translate(-2226.500000, -731.000000) "></path>
                        <g id="Group-3-Copy-4" stroke-width="1" fill="none" transform="translate(1726.000000, 141.000000)">
                            <path d="M11,39.4996532 C7.96286255,39.4996532 5.5,37.0376395 5.5,34 C5.5,37.0376395 3.03783102,39.4996532 0,39.4996532 C3.03783102,39.4996532 5.5,41.9623605 5.5,45 C5.5,41.9623605 7.96286255,39.4996532 11,39.4996532" id="Fill-49" fill="#FFFFFE"></path>
                            <path d="M57,40.0003368 C54.7911755,40.0003368 53,38.2096842 53,36 C53,38.2096842 51.2094981,40.0003368 49,40.0003368 C51.2094981,40.0003368 53,41.7909895 53,44 C53,41.7909895 54.7911755,40.0003368 57,40.0003368" id="Fill-50" fill="#FFFFFE"></path>
                            <path d="M19,108.500343 C15.13376,108.500343 11.99968,105.1424 11.99968,101 C11.99968,105.1424 8.8656,108.500343 5,108.500343 C8.8656,108.500343 11.99968,111.858286 11.99968,116 C11.99968,111.858286 15.13376,108.500343 19,108.500343" id="Fill-51" fill="#FFFFFE"></path>
                            <path d="M50,7.5 C45.8578792,7.5 42.5,4.14212077 42.5,0 C42.5,4.14212077 39.1421208,7.5 35,7.5 C39.1421208,7.5 42.5,10.8578792 42.5,15 C42.5,10.8578792 45.8578792,7.5 50,7.5" id="Fill-52" fill="#FFFFFE"></path>
                        </g>
                        <g id="Group-5" stroke-width="1" fill="none" transform="translate(1425.000000, 125.000000)">
                            <path d="M66.4772605,73.8951242 C66.1038634,73.8951242 65.7849201,74.2260649 65.7849201,74.6176916 L65.7849201,98.3823084 C65.7849201,98.7747442 66.1038634,99.106494 66.4772605,99.106494 L87.0218805,99.106494 C87.1463462,99.106494 87.208579,99.0765556 87.2163581,99.0725099 C87.2163581,99.0571361 87.2319164,98.9875496 87.1930208,98.8629411 L80.6352341,74.9316402 C80.4874311,74.4081228 79.8339862,73.8951242 79.3127861,73.8951242 L66.4772605,73.8951242 Z M63,98.3823084 L63,74.6176916 C63,72.6231468 64.5558213,71 66.4772605,71 L79.3127861,71 C81.0708641,71 82.821163,72.3787847 83.3034676,74.1370589 L89.8690334,98.0691689 C90.1413021,99.056327 89.98572,100.056431 89.4334035,100.811365 C88.888866,101.567107 88.009827,102 87.0218805,102 L66.4772605,102 C64.5558213,102 63,100.377662 63,98.3823084 Z" id="Fill-484" fill="#F3F4F1"></path>
                            <path d="M50.6909294,73.8951242 C50.1698479,73.8951242 49.5165518,74.4081228 49.3687825,74.9316402 L42.8047121,98.8629411 C42.7736027,98.9875496 42.7813801,99.0571361 42.7813801,99.0652276 C42.7969347,99.0765556 42.8591534,99.106494 42.9835908,99.106494 L63.5235314,99.106494 C63.8968435,99.106494 64.2157142,98.7747442 64.2157142,98.3823084 L64.2157142,74.6176916 C64.2157142,74.2260649 63.8968435,73.8951242 63.5235314,73.8951242 L50.6909294,73.8951242 Z M40.5648397,100.811365 C40.0204263,100.056431 39.8571023,99.056327 40.129309,98.0691689 L46.6933794,74.1370589 C47.1755741,72.3787847 48.9332517,71 50.6909294,71 L63.5235314,71 C65.4367557,71 67,72.6231468 67,74.6176916 L67,98.3823084 C67,100.377662 65.4367557,102 63.5235314,102 L42.9835908,102 C41.9958693,102 41.1170305,101.567107 40.5648397,100.811365 Z" id="Fill-485" fill="#F3F4F1"></path>
                            <polygon id="Fill-486" fill="#F3F4F1" points="62 62 68 62 68 51 62 51"></polygon>
                            <polyline id="Fill-487" fill="#DE4B33" points="51.4132867 27.6084855 55 24.216971 32 7 47.8265734 31 51.4132867 27.6084855"></polyline>
                            <path d="M28.9535646,8.90190811 C30.278575,10.3079805 32.4922151,10.3722536 33.8965674,9.04553063 C35.3088539,7.71960118 35.3723274,5.50416429 34.0473171,4.09809189 C32.7143725,2.69201948 30.5007324,2.62774642 29.0963801,3.95446937 C27.6920278,5.28119231 27.6285543,7.4966292 28.9535646,8.90190811" id="Fill-488" fill="#FFFFFE"></path>
                            <path d="M29.69,9.968 C29.41,9.671 29.18,9.345 29,9 C29.18,9.345 29.41,9.671 29.69,9.968" id="Fill-489" fill="#1F2839"></path>
                            <path d="M29.02,10.018 C29.01,10.012 29.01,10.006 29,10 C29.01,10.006 29.01,10.012 29.02,10.018" id="Fill-490" fill="#1C2432"></path>
                            <path d="M29,9.013 C29,9.009 29,9.004 29,9 C29,9.004 29,9.009 29,9.013" id="Fill-491" fill="#1F2839"></path>
                            <path d="M31.4679634,10 C30.5308924,10 29.6018307,9.60213452 28.9130435,8.81335319 C28.9050343,8.80814098 28.9050343,8.80292877 28.8970252,8.79771655 C28.6727689,8.53971209 28.4885584,8.25651526 28.3443936,7.9568131 C28.3443936,7.9559444 28.3363844,7.9550757 28.3363844,7.954207 C28.3363844,7.95073219 28.3363844,7.94638868 28.3363844,7.94291387 C28.1762014,7.61193845 28.0640732,7.26098287 28,6.90307769 C28.5926773,7.34350956 29.2894737,7.56589724 29.98627,7.56589724 C30.8592677,7.56589724 31.7242563,7.21928518 32.4130435,6.52171755 C33.326087,5.58612559 33.6784897,4.24658724 33.4542334,3 C33.6624714,3.15376024 33.8546911,3.33271283 34.0389016,3.53859518 C34.6796339,4.27786051 35,5.22213949 35,6.16468106 C35,6.90307769 34.8077803,7.63973691 34.4153318,8.27736411 C34.271167,8.51973194 34.0949657,8.74733184 33.8867277,8.9549516 C33.6864989,9.16344006 33.4702517,9.33978655 33.2379863,9.48572847 C32.6853547,9.82973443 32.076659,10 31.4679634,10" id="Fill-492" fill="#E4E4DF"></path>
                            <path d="M60,48.4996154 C60,50.9855568 62.0153846,53 64.5,53 C66.9846154,53 69,50.9855568 69,48.4996154 C69,46.0152124 66.9846154,44 64.5,44 C62.0153846,44 60,46.0152124 60,48.4996154" id="Fill-493" fill="#CDCECA"></path>
                            <path d="M65,58 C69.4179104,58 73,61.5821727 73,66 L57,66 C57,61.5821727 60.5820896,58 65,58" id="Fill-494" fill="#CDCECA"></path>
                            <polygon id="Fill-495" fill="#F3F4F1" points="48 72 82 72 82 66 48 66"></polygon>
                            <path d="M69.6468402,45.267679 C56.3897365,57.4053489 35.5082048,56.8177181 23,43.9547879 L71.0012318,0 C83.5094367,12.8629301 82.9039439,33.1292358 69.6468402,45.267679" id="Fill-496" fill="#1B8C9F"></path>
                            <path d="M46.008161,55 C46.008161,55 46.008161,55 46,55 C46.008161,55 46.008161,55 46.008161,55 M46.0163221,55 C51.1496192,54.9979016 56.2910773,54.0018652 61,52 C56.2910773,54.0025647 51.1496192,54.9986011 46.0163221,55" id="Fill-497" fill="#1C2432"></path>
                            <path d="M60,52 C62.8457503,50.4558282 65.5403987,48.456135 68,46 C65.5403987,48.456135 62.8457503,50.4558282 60,52" id="Fill-498" fill="#B6B7B3"></path>
                            <path d="M68,45 C68.0419162,44.9587128 68.0838323,44.91864 68.1257485,44.8773528 C68.0838323,44.91864 68.0419162,44.9587128 68,45 M68.1616766,44.8421372 C68.1676647,44.8384942 68.1736527,44.8342441 68.1736527,44.8306011 C68.1676647,44.8348512 68.1676647,44.8378871 68.1616766,44.8421372 M68.2035928,44.8026715 C68.2095808,44.7996357 68.2095808,44.797207 68.2095808,44.7947784 C68.2095808,44.797207 68.2095808,44.7996357 68.2035928,44.8026715 M68.245509,44.76017 C68.251497,44.756527 68.257485,44.7522769 68.257485,44.749241 C68.257485,44.752884 68.251497,44.756527 68.245509,44.76017 M68.2874251,44.7243473 C68.2874251,44.7200971 68.2934132,44.715847 68.2994012,44.7115968 C68.2934132,44.715847 68.2874251,44.7200971 68.2874251,44.7243473 M68.3293413,44.67881 C68.3353293,44.6745598 68.3413174,44.671524 68.3413174,44.6672738 C68.3413174,44.6709168 68.3353293,44.6745598 68.3293413,44.67881 M68.3652695,44.6423801 C68.3712575,44.6387371 68.3772455,44.6332726 68.3832335,44.6290225 C68.3772455,44.6332726 68.3712575,44.6381299 68.3652695,44.6423801 M68.4131737,44.5992714 C68.4191617,44.5938069 68.4251497,44.5889496 68.4251497,44.5834851 C68.4251497,44.5883424 68.4191617,44.5944141 68.4131737,44.5992714 M68.4491018,44.5616272 C68.4550898,44.5561627 68.4610778,44.5506982 68.4670659,44.5452338 C68.4610778,44.5506982 68.4550898,44.5561627 68.4491018,44.5616272 M68.491018,44.523983 C68.497006,44.516697 68.502994,44.5094111 68.508982,44.5027322 C68.502994,44.5100182 68.497006,44.516697 68.491018,44.523983 M68.5329341,44.4784457 C68.5389222,44.4729812 68.5449102,44.4681239 68.5508982,44.4620522 C68.5449102,44.4675167 68.5389222,44.4729812 68.5329341,44.4784457 M68.5688623,44.4414086 C68.5748503,44.4365513 68.5808383,44.431694 68.5868263,44.4268367 C68.5808383,44.431694 68.5748503,44.4365513 68.5688623,44.4414086 M68.6167665,44.3958713 C68.6227545,44.3904068 68.6287425,44.3831208 68.6347305,44.3770492 C68.6287425,44.3831208 68.6227545,44.3897996 68.6167665,44.3958713 M68.6526946,44.3606557 C68.6586826,44.3539769 68.6646707,44.3479053 68.6706587,44.3412265 C68.6646707,44.3479053 68.6586826,44.3545841 68.6526946,44.3606557 M68.6886228,44.3242259 C68.6946108,44.3132969 68.7065868,44.3029751 68.7185629,44.2920461 C68.7065868,44.3029751 68.6946108,44.3132969 68.6886228,44.3242259 M68.7305389,44.2774742 C68.7365269,44.2707954 68.748503,44.2635094 68.754491,44.2568306 C68.748503,44.2635094 68.7365269,44.2707954 68.7305389,44.2774742 M68.7664671,44.2446873 C68.7784431,44.2313297 68.7904192,44.2185792 68.8023952,44.2052216 C68.7904192,44.2185792 68.7784431,44.2319369 68.7664671,44.2446873 M68.8143713,44.1936855 C68.8203593,44.1863995 68.8263473,44.1785064 68.8383234,44.1712204 C68.8263473,44.1785064 68.8203593,44.1863995 68.8143713,44.1936855 M68.8443114,44.1602914 C68.8622754,44.1457195 68.8742515,44.1311475 68.8862275,44.1165756 C68.8742515,44.1311475 68.8622754,44.1457195 68.8443114,44.1602914 M68.8982036,44.1092896 C68.9041916,44.1013965 68.9101796,44.0941105 68.9161677,44.0868245 C68.9101796,44.0941105 68.9041916,44.1013965 68.8982036,44.1092896 M68.9281437,44.0746812 C68.9520958,44.0491803 68.9760479,44.0255009 69,44 C68.9760479,44.0248937 68.9520958,44.0503947 68.9281437,44.0746812" id="Fill-499" fill="#1C2432"></path>
                            <path d="M70,44.279 C70.02,44.266 70.03,44.253 70.04,44.24 C70.03,44.253 70.02,44.266 70,44.279 M70.05,44.229 C70.08,44.203 70.1,44.176 70.13,44.15 C70.1,44.177 70.08,44.202 70.05,44.229 M70.14,44.14 C70.15,44.125 70.17,44.111 70.18,44.096 C70.17,44.11 70.15,44.125 70.14,44.14 M70.18,44.092 C70.21,44.061 70.24,44.031 70.27,44 C70.24,44.031 70.21,44.061 70.18,44.092" id="Fill-500" fill="#1C2432"></path>
                            <path d="M70,46 C70.0175953,45.9876543 70.026393,45.9769547 70.0351906,45.963786 C70.026393,45.9761317 70.0175953,45.9884774 70,46 M70.0439883,45.9555556 C70.0879765,45.9176955 70.1231672,45.8814815 70.1583578,45.8444444 C70.1231672,45.8814815 70.0879765,45.9176955 70.0439883,45.9555556 M70.1671554,45.8386831 C70.202346,45.800823 70.2375367,45.762963 70.2727273,45.7251029 C70.2375367,45.762963 70.202346,45.800823 70.1671554,45.8386831 M70.2815249,45.7201646 C70.3343109,45.6674897 70.3870968,45.6148148 70.4398827,45.5621399 C70.3870968,45.6156379 70.3343109,45.6674897 70.2815249,45.7201646 M70.4398827,45.5613169 C70.5190616,45.4806584 70.5894428,45.4016461 70.6686217,45.3209877 C70.5894428,45.4016461 70.5102639,45.4806584 70.4398827,45.5613169 M70.6686217,45.3201646 C70.8005865,45.1851852 70.9237537,45.0510288 71.0469208,44.9152263 C70.9237537,45.0510288 70.8005865,45.1851852 70.6686217,45.3201646 M71.0557185,44.9127572 C71.9178886,43.9736626 72.7272727,43.0016461 73.4662757,41.9983539 C72.7272727,43.000823 71.9178886,43.9744856 71.0557185,44.9127572 M73.4662757,41.9975309 C73.4926686,41.9547325 73.5278592,41.9111111 73.5630499,41.8683128 C73.5278592,41.9111111 73.4926686,41.9555556 73.4662757,41.9975309 M73.5630499,41.8658436 C73.6686217,41.7209877 73.7741935,41.5761317 73.8709677,41.4296296 C73.7741935,41.5761317 73.6686217,41.7209877 73.5630499,41.8658436 M73.8797654,41.4255144 C73.9061584,41.382716 73.941349,41.3399177 73.9677419,41.2971193 C73.941349,41.3399177 73.9061584,41.382716 73.8797654,41.4255144 M73.9677419,41.2946502 C74.0029326,41.2510288 74.0293255,41.2090535 74.0557185,41.1662551 C74.0293255,41.2082305 74.0029326,41.2518519 73.9677419,41.2946502 M74.0645161,41.1613169 C74.0733138,41.1465021 74.0821114,41.1341564 74.0909091,41.1193416 C74.0821114,41.1333333 74.0733138,41.1473251 74.0645161,41.1613169 M74.0909091,41.1168724 C74.1260997,41.0740741 74.1524927,41.0312757 74.1788856,40.9884774 C74.1524927,41.0312757 74.1260997,41.0740741 74.0909091,41.1168724 M74.1876833,40.9802469 C74.2140762,40.9390947 74.2404692,40.8979424 74.2756598,40.8567901 C74.2404692,40.8979424 74.2140762,40.9390947 74.1876833,40.9802469 M74.2756598,40.8469136 C74.3020528,40.8057613 74.3372434,40.7646091 74.3636364,40.7234568 C74.3372434,40.7646091 74.3108504,40.8049383 74.2756598,40.8469136 M74.3636364,40.7144033 C74.372434,40.7012346 74.3812317,40.6880658 74.3900293,40.6748971 C74.3812317,40.6880658 74.372434,40.7012346 74.3636364,40.7144033 M74.398827,40.6674897 C74.4164223,40.6419753 74.4340176,40.617284 74.4516129,40.5917695 C74.4340176,40.617284 74.4164223,40.6427984 74.398827,40.6674897 M74.4604106,40.58107 C74.4604106,40.5687243 74.4692082,40.5563786 74.4780059,40.5440329 C74.4692082,40.5563786 74.4604106,40.5687243 74.4604106,40.58107 M74.4868035,40.5292181 C74.5043988,40.5061728 74.5219941,40.4831276 74.5395894,40.4600823 C74.5219941,40.4823045 74.5043988,40.5069959 74.4868035,40.5292181 M74.5483871,40.4477366 C74.5483871,40.436214 74.5571848,40.4255144 74.5659824,40.4139918 C74.5571848,40.4255144 74.5483871,40.436214 74.5483871,40.4477366 M74.5835777,40.3934156 C74.5835777,40.381893 74.5923754,40.3703704 74.601173,40.3596708 C74.5923754,40.3711934 74.5835777,40.381893 74.5835777,40.3934156 M74.601173,40.3588477 C74.6187683,40.3325103 74.6363636,40.3078189 74.6539589,40.2814815 C74.6363636,40.3069959 74.6187683,40.3333333 74.601173,40.3588477 M74.6627566,40.2617284 C74.6715543,40.2502058 74.6803519,40.2378601 74.6891496,40.2263374 C74.6803519,40.2378601 74.6715543,40.2502058 74.6627566,40.2617284 M74.6979472,40.2131687 C74.7067449,40.1917695 74.7243402,40.1695473 74.7419355,40.1481481 C74.7243402,40.1695473 74.7067449,40.1917695 74.6979472,40.2131687 M74.7507331,40.1283951 C74.7595308,40.1168724 74.7683284,40.1078189 74.7683284,40.0962963 C74.7683284,40.1069959 74.7595308,40.1176955 74.7507331,40.1283951 M74.7859238,40.0707819 C74.8035191,40.0518519 74.8123167,40.0345679 74.8211144,40.0156379 C74.8123167,40.0345679 74.8035191,40.0526749 74.7859238,40.0707819 M74.8387097,39.9958848 C74.8387097,39.9843621 74.8475073,39.9728395 74.856305,39.9613169 C74.8475073,39.9728395 74.8387097,39.9843621 74.8387097,39.9958848 M74.8739003,39.9407407 C74.8826979,39.9234568 74.8914956,39.9061728 74.9002933,39.8888889 C74.8914956,39.9061728 74.8826979,39.9234568 74.8739003,39.9407407 M74.9178886,39.8625514 C74.9266862,39.8510288 74.9354839,39.8411523 74.9354839,39.8296296 C74.9354839,39.8403292 74.9266862,39.8526749 74.9178886,39.8625514 M74.9530792,39.8065844 C74.9618768,39.7958848 74.9706745,39.7843621 74.9706745,39.7744856 C74.9706745,39.7851852 74.9618768,39.7958848 74.9530792,39.8065844 M74.9882698,39.7514403 C74.9970674,39.7325103 75.0146628,39.7152263 75.0234604,39.6962963 C75.0146628,39.7144033 74.9970674,39.7325103 74.9882698,39.7514403 M75.0410557,39.673251 C75.0410557,39.6625514 75.0498534,39.6526749 75.058651,39.6419753 C75.0498534,39.6526749 75.0410557,39.6625514 75.0410557,39.673251 M75.0762463,39.6123457 C75.085044,39.5983539 75.0938416,39.5851852 75.1026393,39.5711934 C75.0938416,39.5843621 75.085044,39.5983539 75.0762463,39.6123457 M75.1202346,39.5366255 C75.1290323,39.5283951 75.1290323,39.5185185 75.1378299,39.5102881 C75.1290323,39.5193416 75.1290323,39.527572 75.1202346,39.5366255 M75.1554252,39.4781893 C75.1642229,39.4699588 75.1642229,39.4600823 75.1730205,39.4510288 C75.1642229,39.4600823 75.1642229,39.4691358 75.1554252,39.4781893 M75.1994135,39.4016461 C75.2082111,39.3942387 75.2082111,39.3884774 75.2170088,39.38107 C75.2082111,39.3876543 75.2082111,39.3950617 75.1994135,39.4016461 M75.2434018,39.3407407 C75.2434018,39.3341564 75.2434018,39.327572 75.2521994,39.3209877 C75.2434018,39.327572 75.2434018,39.3349794 75.2434018,39.3407407 M75.28739,39.2674897 C75.28739,39.2609053 75.28739,39.255144 75.2961877,39.2485597 C75.28739,39.255144 75.28739,39.2609053 75.28739,39.2674897 M75.313783,39.2098765 C75.3225806,39.2024691 75.3225806,39.1942387 75.3313783,39.1876543 C75.3225806,39.1950617 75.3225806,39.2016461 75.313783,39.2098765 M75.3665689,39.1333333 C75.3665689,39.1292181 75.3665689,39.1234568 75.3753666,39.1185185 C75.3665689,39.1242798 75.3665689,39.1283951 75.3665689,39.1333333 M75.4017595,39.0748971 C75.4017595,39.0674897 75.4017595,39.0617284 75.4105572,39.055144 C75.4017595,39.0617284 75.4017595,39.0674897 75.4017595,39.0748971 M75.4369501,39.0024691 C75.4369501,39 75.4457478,38.999177 75.4457478,38.9975309 C75.4457478,38.999177 75.4369501,39.000823 75.4369501,39.0024691 M75.4721408,38.9407407 C75.4809384,38.9341564 75.4809384,38.927572 75.4897361,38.9209877 C75.4809384,38.927572 75.4809384,38.9349794 75.4721408,38.9407407 M75.516129,38.8757202 C75.516129,38.8707819 75.516129,38.8674897 75.5249267,38.8625514 C75.516129,38.8674897 75.516129,38.8707819 75.516129,38.8757202 M75.5513196,38.8049383 C75.5601173,38.8 75.5601173,38.7950617 75.5601173,38.7901235 C75.5601173,38.7950617 75.5601173,38.8 75.5513196,38.8049383 M75.5865103,38.7432099 C75.5953079,38.7382716 75.5953079,38.7333333 75.5953079,38.7283951 C75.5953079,38.7333333 75.5953079,38.7382716 75.5865103,38.7432099 M75.6304985,38.6699588 C75.6304985,38.6666667 75.6392962,38.6633745 75.6392962,38.6609053 C75.6392962,38.6633745 75.6304985,38.6674897 75.6304985,38.6699588 M75.6656891,38.6082305 C75.6656891,38.6032922 75.6744868,38.599177 75.6744868,38.5950617 C75.6744868,38.599177 75.6656891,38.6032922 75.6656891,38.6082305 M75.7096774,38.5341564 C75.7096774,38.5333333 75.7096774,38.5349794 75.7096774,38.5341564 M75.744868,38.4740741 C75.744868,38.4691358 75.744868,38.4666667 75.744868,38.4617284 C75.744868,38.4658436 75.744868,38.4699588 75.744868,38.4740741 M75.7800587,38.4024691 C75.7800587,38.4016461 75.7800587,38.4024691 75.7800587,38.400823 L75.7800587,38.4024691 M75.8152493,38.3374486 C75.8152493,38.3349794 75.8240469,38.3333333 75.8240469,38.3308642 C75.8240469,38.3333333 75.8240469,38.3349794 75.8152493,38.3374486 M75.8592375,38.2691358 C75.8592375,38.2683128 75.8592375,38.2683128 75.8592375,38.2674897 C75.8592375,38.2683128 75.8592375,38.2691358 75.8592375,38.2691358 M75.8944282,38.2032922 C75.8944282,38.200823 75.8944282,38.2 75.8944282,38.1975309 C75.8944282,38.2 75.8944282,38.200823 75.8944282,38.2032922 M75.9296188,38.1399177 C75.9296188,38.1366255 75.9296188,38.1341564 75.9296188,38.1308642 C75.9296188,38.1341564 75.9296188,38.1366255 75.9296188,38.1399177 M76,38.0016461 C76,38.000823 76,38.000823 76,38 C76,38.000823 76,38.000823 76,38.0016461" id="Fill-501" fill="#1C2432"></path>
                            <path d="M47.0062088,54 C47.0062088,54 47.0062088,54 46.9982413,54 C38.361424,53.9968895 29.7325743,50.7020552 23.2708965,44.173042 C23.2708965,44.1699315 23.2708965,44.1660433 23.2629289,44.1629328 C23.175286,44.0750602 23.087643,43.9864099 23,43.896982 L27.6211753,39.6472135 C33.0231698,43.0415849 39.2378538,44.7500463 45.4605054,44.7500463 C53.5873999,44.7500463 61.7302294,41.8393631 68.1042643,35.9682281 C75.1236702,29.4990928 78.5975192,20.7351602 78.4461359,12 C81.0355875,19.9443066 80.382249,28.6545825 76.5339254,36.1774116 C76.5179903,36.2194038 76.4940877,36.261396 76.4701851,36.3033883 C76.4701851,36.3041659 76.4701851,36.3041659 76.4701851,36.3049435 C76.45425,36.3453805 76.4303473,36.3873727 76.4064447,36.427032 C76.4064447,36.4301426 76.4064447,36.4324755 76.4064447,36.435586 C76.3984772,36.4534716 76.3825421,36.4721348 76.3745745,36.4900204 C76.3745745,36.4923533 76.3745745,36.4931309 76.3745745,36.4954638 C76.3586394,36.5156823 76.3506719,36.5359008 76.3427044,36.5561192 C76.3427044,36.5568969 76.3427044,36.5568969 76.3427044,36.5576745 C76.3267693,36.5771153 76.3188017,36.5973338 76.3108342,36.615997 C76.3108342,36.6183299 76.3028666,36.6198852 76.3028666,36.6222181 C76.2948991,36.6424366 76.2869316,36.6618774 76.2709965,36.6820959 C76.2709965,36.6836512 76.2709965,36.6828735 76.2709965,36.6836512 C76.2630289,36.7023144 76.2550614,36.7209776 76.2391263,36.7396408 C76.2391263,36.7443066 76.2391263,36.7466395 76.2391263,36.7513053 C76.2231912,36.7699685 76.2152237,36.7894094 76.2072561,36.8080726 C76.2072561,36.8088502 76.2072561,36.8072949 76.2072561,36.8080726 C76.1992886,36.8275134 76.1833535,36.8461766 76.1753859,36.8656175 C76.1753859,36.8695056 76.1674184,36.8733938 76.1674184,36.8780596 C76.1594509,36.8943899 76.1514833,36.9114979 76.1435158,36.9278282 C76.1435158,36.9301611 76.1355482,36.9332716 76.1355482,36.9363822 C76.1275807,36.9550454 76.1196131,36.9729309 76.103678,36.9915941 C76.103678,36.99626 76.103678,37.0009258 76.0957105,37.0055916 C76.087743,37.019589 76.0797754,37.0359193 76.0718079,37.0499167 C76.0718079,37.0545825 76.0718079,37.0592483 76.0638403,37.0639141 C76.0558728,37.0825773 76.0479052,37.1004629 76.0399377,37.1183485 C76.0319702,37.1230143 76.0319702,37.1261248 76.0319702,37.1307906 C76.0240026,37.144788 76.0160351,37.159563 76.0080675,37.1735605 C76.0001,37.1797815 76.0001,37.1860026 75.9921324,37.1922237 C75.9841649,37.2108869 75.9761974,37.2279948 75.9682298,37.2458804 C75.9682298,37.2474357 75.9602623,37.2482133 75.9602623,37.2505462 C75.9522947,37.2668765 75.9443272,37.2839844 75.9363596,37.3003148 C75.9283921,37.3065358 75.9283921,37.3119793 75.9283921,37.318978 C75.9204245,37.3321977 75.912457,37.3469728 75.9044895,37.3601926 C75.8965219,37.3648584 75.8965219,37.3703018 75.8965219,37.37419 C75.8805868,37.3912979 75.8726193,37.4084059 75.8646517,37.4255138 C75.8566842,37.4317349 75.8566842,37.4395112 75.8487167,37.4465099 C75.8487167,37.4581744 75.8407491,37.4713942 75.8327816,37.4830587 C75.824814,37.4892798 75.824814,37.4947232 75.824814,37.5009443 C75.8088789,37.5180522 75.8009114,37.5351602 75.7929438,37.5514905 C75.7849763,37.5577115 75.7849763,37.5639326 75.7849763,37.5701537 C75.7770088,37.5833734 75.7690412,37.595038 75.7610737,37.6082577 C75.7531061,37.6152564 75.7531061,37.6206999 75.7451386,37.6276986 C75.737171,37.6432512 75.7292035,37.6588039 75.721236,37.6743566 C75.7132684,37.6829106 75.7132684,37.6922422 75.7053009,37.7000185 C75.6973333,37.7101278 75.6973333,37.720237 75.6893658,37.7303462 C75.6813982,37.7381226 75.6813982,37.7474542 75.6734307,37.7552305 C75.6654632,37.7661174 75.6574956,37.7770043 75.6574956,37.7878911 C75.6495281,37.8011109 75.6415605,37.813553 75.633593,37.8267728 C75.6256254,37.8353268 75.6176579,37.845436 75.6176579,37.8547676 C75.6096903,37.8648769 75.6017228,37.8742085 75.6017228,37.8843177 C75.5937553,37.8913164 75.5857877,37.8990928 75.5857877,37.9060915 C75.5778202,37.923977 75.5618851,37.9403074 75.5539175,37.9581929 C75.5539175,37.9651916 75.54595,37.9721903 75.5379825,37.9799667 C75.5379825,37.9892983 75.5300149,38.0001852 75.5220474,38.0102944 C75.5220474,38.0180707 75.5140798,38.0250694 75.5061123,38.0320681 C75.5061123,38.042955 75.4981447,38.0522866 75.4901772,38.0631735 C75.4901772,38.0717275 75.4822096,38.0795038 75.4742421,38.0880578 C75.4662746,38.1043881 75.458307,38.1207184 75.4503395,38.1370487 C75.4423719,38.1440474 75.4423719,38.1502685 75.4344044,38.1564895 C75.4264368,38.1673764 75.4184693,38.1782633 75.4184693,38.1891502 C75.4105018,38.1953712 75.4105018,38.2015923 75.4025342,38.2078134 C75.3945667,38.2256989 75.3865991,38.2420293 75.370664,38.2599148 C75.370664,38.2676912 75.3626965,38.2762451 75.354729,38.2840215 C75.354729,38.2949084 75.3467614,38.3034623 75.3387939,38.3143492 C75.3387939,38.3205703 75.3308263,38.3267913 75.3308263,38.3330124 C75.3148912,38.3532309 75.2989561,38.374227 75.2909886,38.3944455 C75.2909886,38.3991113 75.2830211,38.4022218 75.2830211,38.4068876 C75.2750535,38.4177745 75.267086,38.429439 75.2591184,38.4403259 C75.2591184,38.4465469 75.2511509,38.4519904 75.2511509,38.4589891 C75.2352158,38.4838734 75.2192807,38.5072024 75.2033456,38.5320867 L75.2033456,38.5328643 C75.1953781,38.5429735 75.1874105,38.5538604 75.1874105,38.5647473 C75.179443,38.5709683 75.179443,38.577967 75.1714754,38.5841881 C75.1635079,38.595075 75.1555404,38.6051842 75.1555404,38.6160711 C75.1475728,38.6207369 75.1475728,38.6238474 75.1475728,38.6277356 C75.1316377,38.6495094 75.1157026,38.6712831 75.0997676,38.6930568 C75.0997676,38.6977226 75.0997676,38.7023884 75.0918,38.7070542 C75.0838325,38.7187188 75.0758649,38.7303833 75.0758649,38.7420478 C75.0678974,38.7459359 75.0678974,38.7490465 75.0678974,38.752157 C75.0519623,38.7762637 75.0360272,38.7995927 75.0200921,38.8236993 C75.0200921,38.8260322 75.0200921,38.8275875 75.0121246,38.830698 C75.004157,38.8431402 74.9961895,38.8555823 74.9882219,38.8680244 C74.9882219,38.8703573 74.9882219,38.8742455 74.9882219,38.8765784 C74.9643193,38.9154601 74.9324491,38.9543418 74.9085465,38.9932235 C74.9085465,38.996334 74.9085465,38.9994445 74.9085465,39.0025551 C74.8766763,39.0414368 74.8527737,39.0803185 74.8288711,39.1192001 C74.8288711,39.1223107 74.8288711,39.123866 74.8209035,39.1269765 C74.7970009,39.1674134 74.7730983,39.2078504 74.7412281,39.2482874 C74.7412281,39.2482874 74.7412281,39.2498426 74.7412281,39.2506203 C74.7332605,39.2646177 74.725293,39.2762822 74.7173255,39.2902796 C74.7173255,39.2918348 74.7173255,39.2926125 74.7093579,39.2949454 C74.6854553,39.3353823 74.6615527,39.3750417 74.6296825,39.4162562 C74.6296825,39.4170339 74.6296825,39.4178115 74.6296825,39.4185892 C74.6057799,39.4590261 74.5739097,39.4994631 74.550007,39.5399 C74.550007,39.5414553 74.550007,39.5430106 74.5420395,39.5437882 C74.4543965,39.682207 74.358786,39.8190705 74.2631755,39.9559341 C74.2631755,39.9574894 74.2631755,39.9574894 74.2631755,39.958267 C74.2313053,39.9987039 74.1994351,40.0399185 74.1755325,40.0803555 C74.1755325,40.0811331 74.1755325,40.0803555 74.1755325,40.0811331 C73.5062588,41.0290687 72.7732448,41.9474542 71.9924256,42.8347343 C71.984458,42.8355119 71.984458,42.8362896 71.984458,42.8370672 C71.8729124,42.9653768 71.7613668,43.0921311 71.6418536,43.219663 L71.6418536,43.2204407 C71.5701457,43.2966488 71.5064054,43.3713016 71.4346975,43.4475097 L71.4346975,43.4482874 C71.3868922,43.4980559 71.339087,43.5478245 71.2912817,43.597593 C71.2912817,43.5991483 71.2912817,43.6007036 71.2833142,43.6022588 C71.251444,43.63803 71.2195738,43.6738011 71.1877037,43.7095723 C71.1797361,43.7111276 71.1797361,43.7134605 71.1797361,43.7150157 C71.1478659,43.7500093 71.1159958,43.7842251 71.076158,43.8199963 C71.076158,43.8223292 71.076158,43.8254397 71.0681905,43.8277726 C71.060223,43.8402148 71.0522554,43.850324 71.0363203,43.8619885 L71.0363203,43.8635438 C71.0124177,43.8876504 70.9885151,43.9109794 70.9646124,43.9350861 C70.9646124,43.9358637 70.9646124,43.9366414 70.9646124,43.9381966 C70.9566449,43.9498611 70.9407098,43.960748 70.9327423,43.9724125 C70.9247747,43.9747454 70.9247747,43.977856 70.9247747,43.9801889 C70.9008721,44.0004073 70.884937,44.0214034 70.8610344,44.0416219 C70.8610344,44.0439548 70.8610344,44.047843 70.8530668,44.0501759 C70.8450993,44.0602851 70.8371317,44.0703944 70.8211966,44.0805036 C70.8211966,44.0851694 70.8132291,44.0898352 70.8132291,44.0937234 C70.7813589,44.126384 70.7494888,44.1567117 70.7176186,44.1893723 C70.709651,44.1948158 70.709651,44.1994816 70.7016835,44.204925 C70.6937159,44.2142566 70.6857484,44.2235882 70.6777809,44.2336975 C70.6698133,44.236808 70.6698133,44.2399185 70.6618458,44.2430291 C70.6459107,44.2616923 70.6299756,44.2803555 70.606073,44.2990187 C70.606073,44.3036845 70.5981054,44.3083503 70.5981054,44.3130161 C70.5821703,44.3223477 70.5742028,44.332457 70.5662353,44.3417886 C70.5582677,44.3464544 70.5582677,44.3518978 70.5503002,44.3565636 C70.5343651,44.3736715 70.51843,44.3900019 70.5024949,44.4071098 C70.4945274,44.4125532 70.4865598,44.417219 70.4865598,44.4226625 C70.4785923,44.4312164 70.4626572,44.440548 70.4546896,44.449102 C70.4546896,44.4553231 70.4467221,44.4615442 70.4387546,44.4677652 C70.4228195,44.4817626 70.4068844,44.4949824 70.3989168,44.5089798 C70.3909493,44.5159785 70.3829817,44.5237549 70.3750142,44.5307536 C70.3670467,44.5393075 70.3590791,44.5470839 70.3511116,44.5556378 C70.343144,44.5626365 70.3351765,44.5696353 70.3272089,44.576634 C70.3192414,44.5844103 70.3112739,44.5937419 70.3033063,44.6007406 C70.2873712,44.6139604 70.2714361,44.6271802 70.2634686,44.6403999 C70.2555011,44.646621 70.2475335,44.6528421 70.239566,44.6590631 C70.2315984,44.6676171 70.2236309,44.6769487 70.2156633,44.6855027 C70.2076958,44.693279 70.1997282,44.6995001 70.1917607,44.7064988 C70.1837932,44.7173857 70.1678581,44.7267173 70.1598905,44.7376041 C70.151923,44.7461581 70.1439554,44.7554897 70.1359879,44.7648213 C70.1200528,44.7741529 70.1120853,44.7827069 70.1041177,44.7920385 C70.0961502,44.7990372 70.0881826,44.8060359 70.0802151,44.8130346 C70.0722475,44.8223662 70.06428,44.8316978 70.0483449,44.8410294 C70.0483449,44.8480281 70.0403774,44.8542492 70.0324098,44.8612479 C70.0164747,44.8736901 70.0005397,44.8869098 69.9925721,44.899352 C69.9846046,44.9047954 69.976637,44.9117941 69.9686695,44.9164599 C69.9607019,44.9273468 69.9527344,44.937456 69.9367993,44.9483429 C69.9367993,44.9537863 69.9288318,44.9576745 69.9208642,44.9631179 C69.9049291,44.9771153 69.8969616,44.9911128 69.8810265,45.0051102 C69.873059,45.0105536 69.8650914,45.015997 69.8650914,45.0214405 C69.8491563,45.0315497 69.8411888,45.0432142 69.8252537,45.0533235 C69.8252537,45.0572116 69.8172862,45.0626551 69.8093186,45.0673209 C69.7933835,45.0820959 69.7774484,45.0968709 69.7615133,45.111646 C69.7615133,45.1147565 69.7615133,45.1178671 69.7535458,45.1217552 C69.7376107,45.1334197 69.7296432,45.1458619 69.7137081,45.1575264 C69.7137081,45.1621922 69.7057405,45.1676356 69.697773,45.1723014 C69.6818379,45.1870765 69.6659028,45.2018515 69.6499677,45.2174042 C69.5941949,45.2702833 69.5384221,45.3216071 69.4826493,45.3744862 C69.4746818,45.3799296 69.4667142,45.387706 69.4587467,45.3931494 C69.3950063,45.449139 69.3392335,45.5035734 69.2754932,45.5587854 C69.2675256,45.5673394 69.2595581,45.5743381 69.243623,45.5836697 C69.243623,45.5867802 69.2356555,45.5906684 69.2356555,45.5945566 C66.9011652,47.6700611 64.3435837,49.3598593 61.6425864,50.6647288 C57.0453138,52.8903166 52.0257613,53.9976671 47.0141764,54 C47.0141764,54 47.0141764,54 47.0062088,54" id="Fill-502" fill="#1A7E8E"></path>
                            <path d="M107.801167,87.4941728 C107.606235,87.4941728 107.442493,87.6644973 107.442493,87.8671106 L107.442493,100.132889 C107.442493,100.335503 107.606235,100.505827 107.801167,100.505827 L118.452222,100.505827 L118.553586,100.488875 L118.545789,100.380707 L115.138387,88.0285556 C115.068212,87.7589425 114.725132,87.4941728 114.460025,87.4941728 L107.801167,87.4941728 Z M106,100.132889 L106,87.8671106 C106,86.8378992 106.810915,86 107.801167,86 L114.460025,86 C115.372305,86 116.276787,86.7111649 116.526299,87.6184854 L119.933701,99.9706372 C120.074051,100.480803 119.988282,100.99662 119.70758,101.386509 C119.426879,101.777206 118.966841,102 118.452222,102 L107.801167,102 C106.810915,102 106,101.162908 106,100.132889 Z" id="Fill-503" fill="#F3F4F1"></path>
                            <path d="M99.5409601,87.4941728 C99.2680879,87.4941728 98.9328448,87.7589425 98.8548813,88.0285556 L95.4556727,100.380707 L95.44008,100.484839 L95.5414325,100.505827 L106.199043,100.505827 C106.393952,100.505827 106.557675,100.335503 106.557675,100.132889 L106.557675,87.8671106 C106.557675,87.6644973 106.393952,87.4941728 106.199043,87.4941728 L99.5409601,87.4941728 Z M94.2940165,101.386509 C94.0055515,100.997427 93.927588,100.480803 94.0679223,99.9706372 L97.467131,87.6184854 C97.7166142,86.7111649 98.6287872,86 99.5409601,86 L106.199043,86 C107.18918,86 108,86.8378992 108,87.8671106 L108,100.132889 C108,101.162908 107.18918,102 106.199043,102 L95.5414325,102 C95.0346698,102 94.5746851,101.777206 94.2940165,101.386509 Z" id="Fill-504" fill="#F3F4F1"></path>
                            <polygon id="Fill-505" fill="#F3F4F1" points="106 81 108 81 108 75 106 75"></polygon>
                            <polyline id="Fill-506" fill="#DE4B33" points="100.289385 62.30351 102 60.6085772 96.5037187 56.3038993 91 52 98.571332 64 100.289385 62.30351"></polyline>
                            <path d="M89.4122028,53.5301324 C89.977463,54.131571 90.9239451,54.1598354 91.5286421,53.590605 C92.133339,53.0226892 92.1596302,52.0728763 91.5877972,51.4707804 C91.022537,50.8680272 90.0694821,50.8404202 89.4713579,51.4089933 C88.866661,51.9775664 88.8403698,52.9273792 89.4122028,53.5301324" id="Fill-507" fill="#FFFFFE"></path>
                            <path d="M89,54 C89,53.9993681 89,53.9993681 89,53.9993681 C89,53.9993681 89,53.9993681 89,54 M91,52.0296998 C91,52.0246445 90.993994,52.0202212 90.987988,52.0157978 C90.993994,52.0202212 91,52.0246445 91,52.0296998 M90.987988,52.0151659 C90.987988,52.0139021 90.987988,52.0126382 90.987988,52.0113744 C90.987988,52.0126382 90.987988,52.0139021 90.987988,52.0151659 M90.981982,52.0082148 C90.981982,52.0075829 90.981982,52.0063191 90.981982,52.0056872 C90.981982,52.0063191 90.981982,52.0075829 90.981982,52.0082148 M90.975976,52.0012638 C90.975976,52.0006319 90.975976,52.0006319 90.975976,52 C90.975976,52 90.975976,52.0006319 90.975976,52.0012638" id="Fill-508" fill="#1C2432"></path>
                            <path d="M90.4834437,54 C90.0860927,54 89.6821192,53.8272967 89.3907285,53.4854881 C89.384106,53.4818901 89.384106,53.4782922 89.3774834,53.4746942 C89.3774834,53.4739746 89.3774834,53.4739746 89.3774834,53.4739746 C89.1788079,53.2415447 89.0529801,52.9623411 89,52.6730631 C89.2582781,52.8615975 89.5562914,52.9565843 89.8543046,52.9565843 C90.2251656,52.9565843 90.5960265,52.8083473 90.8874172,52.508995 C91.2847682,52.1081794 91.4304636,51.533941 91.3377483,51 C91.410596,51.0575678 91.4900662,51.1230511 91.5562914,51.1971696 C91.5562914,51.1978892 91.5562914,51.1978892 91.5562914,51.1986088 C91.5562914,51.200048 91.5629139,51.2014872 91.5629139,51.203646 C91.5629139,51.2043656 91.5629139,51.2058047 91.5629139,51.2065243 C91.5629139,51.2079635 91.5629139,51.2086831 91.5695364,51.2101223 C91.5695364,51.2115615 91.5695364,51.2130007 91.5695364,51.2144399 C91.5695364,51.2151595 91.5695364,51.2151595 91.5695364,51.2151595 C91.5761589,51.2201967 91.5827815,51.2252339 91.5827815,51.2309906 C91.8609272,51.5476133 92,51.9520269 92,52.3564404 C92,52.6723435 91.9139073,52.9889662 91.7483444,53.2616935 C91.6821192,53.3653154 91.6092715,53.4631806 91.5231788,53.5516911 C91.4370861,53.6409211 91.3443709,53.7171984 91.2450331,53.7790837 C91.0066225,53.9266011 90.7483444,54 90.4834437,54" id="Fill-509" fill="#E4E4DF"></path>
                            <path d="M105,75.499587 C105,76.8807203 106.115702,78 107.495868,78 C108.884298,78 110,76.8807203 110,75.499587 C110,74.1192797 108.884298,73 107.495868,73 C106.115702,73 105,74.1192797 105,75.499587" id="Fill-510" fill="#CDCECA"></path>
                            <path d="M108,79 C110.215385,79 112,81.2389925 112,84 L104,84 C104,81.2389925 105.792308,79 108,79" id="Fill-511" fill="#CDCECA"></path>
                            <polygon id="Fill-512" fill="#F3F4F1" points="100 86 118 86 118 83 100 83"></polygon>
                            <path d="M109.732609,73.4720043 C102.986562,79.7660258 92.3621257,79.4607014 86,72.7916114 L110.422101,50 C116.784227,56.6690901 116.478657,67.1787576 109.732609,73.4720043" id="Fill-513" fill="#1B8C9F"></path>
                            <path d="M98.0075705,78 C98,78 98,78 98,78 C98,78 98,78 98.0075705,78 M98.0151411,78 C100.475568,77.9982394 102.935994,77.3494718 105.199587,76.0466549 C102.935994,77.3503521 100.475568,77.9991197 98.0151411,78 M108.947006,73.056338 C108.969718,73.0378521 108.984859,73.0184859 109,73 C108.984859,73.0184859 108.969718,73.0378521 108.947006,73.056338" id="Fill-514" fill="#1C2432"></path>
                            <path d="M105,75 C106.066667,74.4860171 107.078788,73.8195467 108,73 C107.078788,73.8195467 106.066667,74.4860171 105,75" id="Fill-515" fill="#B6B7B3"></path>
                            <path d="M109.461813,73.896 C109.477413,73.882 109.485213,73.867 109.500812,73.852 C109.485213,73.867 109.477413,73.882 109.461813,73.896 M109.555411,73.785 C109.563211,73.771 109.578811,73.757 109.58661,73.743 C109.578811,73.757 109.563211,73.771 109.555411,73.785 M109.60221,73.728 C109.61001,73.719 109.61781,73.71 109.625609,73.701 C109.61781,73.71 109.61001,73.719 109.60221,73.728 M109.641209,73.684 C109.649009,73.671 109.656809,73.659 109.664608,73.646 C109.656809,73.659 109.649009,73.671 109.641209,73.684 M109.680208,73.627 C109.688008,73.62 109.695808,73.612 109.703607,73.605 C109.695808,73.613 109.688008,73.62 109.680208,73.627 M109.719207,73.583 C109.727007,73.577 109.727007,73.571 109.734807,73.565 C109.727007,73.571 109.727007,73.577 109.719207,73.583 M109.766006,73.523 C109.773806,73.517 109.773806,73.512 109.781605,73.506 C109.773806,73.512 109.773806,73.517 109.766006,73.523 M109.805005,73.48 C109.805005,73.476 109.805005,73.472 109.812805,73.467 C109.805005,73.471 109.805005,73.476 109.805005,73.48 M109.883003,73.374 C109.890803,73.371 109.890803,73.37 109.890803,73.367 C109.890803,73.369 109.890803,73.372 109.883003,73.374 M109.914202,73.336 C109.914202,73.334 109.914202,73.333 109.922002,73.332 C109.914202,73.333 109.914202,73.334 109.914202,73.336 M110,73.231 C110,73.23 110,73.228 110,73.228 C110,73.228 110,73.23 110,73.231 M86.0233994,73.038 C86.0155996,73.025 86.0077998,73.013 86,73 C86.0077998,73.013 86.0155996,73.025 86.0233994,73.038" id="Fill-516" fill="#1C2432"></path>
                            <path d="M98.216403,78 C98.2085669,78 98.2085669,78 98.2085669,78 C93.7890344,77.997638 89.3851739,76.2576674 86.0940326,72.8115807 C86.0861966,72.8013456 86.0783605,72.7918978 86.0705245,72.7816627 C86.0470163,72.7572558 86.0235082,72.732849 86,72.7084422 L88.3508152,70.4826969 C91.101269,72.2604588 94.2591974,73.1556383 97.4249619,73.1548509 C101.562397,73.1548509 105.699831,71.6306052 108.943956,68.5545575 C112.517195,65.1675196 114.288143,60.5766739 114.209782,56 C116.043418,61.79859 114.679945,68.3742619 110.182052,72.961171 C110.182052,72.961171 110.182052,72.9627456 110.182052,72.9635329 C110.150708,72.9895144 110.1272,73.0162831 110.103692,73.0430519 C110.095856,73.0438392 110.095856,73.0446266 110.095856,73.0462012 C110.08802,73.0540744 110.080184,73.0627349 110.072348,73.070608 C110.072348,73.07297 110.072348,73.0737573 110.064512,73.0761192 C110.041003,73.1005261 110.017495,73.1249329 109.993987,73.1493397 C109.986151,73.1532763 109.986151,73.1564256 109.986151,73.1595748 C109.978315,73.1666607 109.970479,73.1737466 109.962643,73.1800451 C109.954807,73.184769 109.954807,73.1887056 109.946971,73.1934295 C109.939135,73.2044519 109.923463,73.2154744 109.915627,73.2264968 C109.907791,73.2312207 109.907791,73.2359446 109.899954,73.2406685 C109.892118,73.2461797 109.884282,73.2524783 109.884282,73.2579895 C109.876446,73.2635007 109.86861,73.2697992 109.860774,73.2753105 C109.860774,73.2800344 109.852938,73.2855456 109.845102,73.2902695 C109.837266,73.3005046 109.82943,73.3099524 109.821594,73.3201875 C109.813758,73.3241241 109.805922,73.328848 109.805922,73.3335719 C109.798086,73.3406578 109.79025,73.3477436 109.782414,73.3548295 C109.774578,73.3587661 109.774578,73.3627026 109.766742,73.3666392 C109.758906,73.3776617 109.743233,73.3886841 109.735397,73.3997065 C109.719725,73.4178148 109.696217,73.4351358 109.680545,73.4524568 C109.664873,73.4642665 109.657037,73.4760763 109.641365,73.4870987 C109.625693,73.5012704 109.610021,73.5146548 109.594349,73.5280392 C109.578676,73.5445729 109.563004,73.5618939 109.539496,73.5784275 C108.348416,74.6743728 107.039796,75.5656157 105.660651,76.2529435 C103.317672,77.4181727 100.770955,77.9984254 98.224239,78 C98.216403,78 98.216403,78 98.216403,78" id="Fill-517" fill="#1A7E8E"></path>
                            <path d="M23.8087532,87.4941728 C23.6138445,87.4941728 23.4423248,87.6644973 23.4423248,87.8671106 L23.4423248,100.132889 C23.4423248,100.335503 23.6138445,100.505827 23.8087532,100.505827 L34.4585675,100.505827 L34.55992,100.488875 L34.5443273,100.380707 L31.1451187,88.0285556 C31.0671552,87.7589425 30.7319121,87.4941728 30.4590399,87.4941728 L23.8087532,87.4941728 Z M22,100.132889 L22,87.8671106 C22,86.8378992 22.8108204,86 23.8087532,86 L30.4590399,86 C31.3712128,86 32.2833858,86.7111649 32.532869,87.6184854 L35.9320777,99.9706372 C36.072412,100.480803 35.9944485,100.99662 35.7059835,101.386509 C35.4253149,101.777206 34.9653302,102 34.4585675,102 L23.8087532,102 C22.8108204,102 22,101.162908 22,100.132889 Z" id="Fill-518" fill="#F3F4F1"></path>
                            <path d="M14.5477719,87.4941728 C14.2748678,87.4941728 13.9317884,87.7589425 13.8616131,88.0285556 L10.4542112,100.380707 L10.4464139,100.484839 L10.5477783,100.505827 L21.1988333,100.505827 C21.3937648,100.505827 21.5575072,100.335503 21.5575072,100.132889 L21.5575072,87.8671106 C21.5575072,87.6644973 21.3937648,87.4941728 21.1988333,87.4941728 L14.5477719,87.4941728 Z M9.29241968,101.386509 C9.01171837,100.997427 8.92594853,100.480803 9.06629918,99.9706372 L12.4737011,87.6184854 C12.7232134,86.7111649 13.6354926,86 14.5477719,86 L21.1988333,86 C22.1968824,86 23,86.8378992 23,87.8671106 L23,100.132889 C23,101.162908 22.1968824,102 21.1988333,102 L10.5477783,102 C10.0331592,102 9.58091824,101.777206 9.29241968,101.386509 Z" id="Fill-519" fill="#F3F4F1"></path>
                            <polygon id="Fill-520" fill="#F3F4F1" points="20 81 22 81 22 75 20 75"></polygon>
                            <polyline id="Fill-521" fill="#DE4B33" points="14.2831081 62.30351 16 60.6085772 5 52 12.5662162 64 14.2831081 62.30351"></polyline>
                            <path d="M3.41003273,53.5301324 C3.97556622,54.131571 4.929082,54.1598354 5.52749535,53.590605 C6.13248467,53.0226892 6.15878855,52.0728763 5.59325506,51.4707804 C5.02114559,50.8680272 4.07420579,50.8404202 3.46921647,51.4089933 C2.87080312,51.9775664 2.83792326,52.9273792 3.41003273,53.5301324" id="Fill-522" fill="#FFFFFE"></path>
                            <path d="M4.48672566,54 C4.08185841,54 3.68362832,53.8272967 3.38495575,53.4854881 C3.37831858,53.4818901 3.37831858,53.4782922 3.37168142,53.4746942 C3.37168142,53.4739746 3.37168142,53.4739746 3.37168142,53.4739746 C3.17920354,53.2415447 3.05309735,52.9623411 3,52.6730631 C3.25221239,52.8615975 3.55088496,52.9565843 3.84955752,52.9565843 C4.22123894,52.9565843 4.59955752,52.8083473 4.89159292,52.508995 C5.28318584,52.1081794 5.43584071,51.533941 5.33628319,51 C5.42920354,51.0654833 5.50884956,51.1424802 5.58849558,51.2309906 C5.86061947,51.5476133 6,51.9520269 6,52.3564404 C6,52.6730631 5.91371681,52.9889662 5.74778761,53.2616935 C5.6880531,53.3653154 5.61504425,53.4631806 5.52212389,53.5516911 C5.43584071,53.6409211 5.34292035,53.7164788 5.24336283,53.7790837 C5.01106195,53.9266011 4.74557522,54 4.48672566,54" id="Fill-523" fill="#E4E4DF"></path>
                            <path d="M19,75.499587 C19,76.8807203 20.1239669,78 21.5041322,78 C22.8842975,78 24,76.8807203 24,75.499587 C24,74.1192797 22.8842975,73 21.5041322,73 C20.1239669,73 19,74.1192797 19,75.499587" id="Fill-524" fill="#CDCECA"></path>
                            <path d="M21,79 C23.2076923,79 25,81.2389925 25,84 L17,84 C17,81.2389925 18.7923077,79 21,79" id="Fill-525" fill="#CDCECA"></path>
                            <polygon id="Fill-526" fill="#F3F4F1" points="12 86 30 86 30 83 12 83"></polygon>
                            <path d="M23.7326094,73.4720043 C16.9943974,79.7660258 6.36996087,79.4607014 0,72.7916114 L24.4221009,50 C30.7842266,56.6690901 30.4786566,67.1787576 23.7326094,73.4720043" id="Fill-527" fill="#1B8C9F"></path>
                            <path d="M11.0075653,78 C11.0075653,78 11.0075653,78 11,78 C11.0075653,78 11.0075653,78 11.0075653,78 M11.0151307,78 C13.4738652,77.9982394 15.9401651,77.3494718 18.2022008,76.0466549 C15.9401651,77.3503521 13.4738652,77.9991197 11.0151307,78 M21.9470426,73.056338 C21.9621733,73.0378521 21.977304,73.0193662 22,73 C21.977304,73.0193662 21.9621733,73.0378521 21.9470426,73.056338" id="Fill-528" fill="#1C2432"></path>
                            <path d="M19,75 C20.0666667,74.4860171 21.0787879,73.8195467 22,73 C21.0787879,73.8195467 20.0666667,74.4860171 19,75" id="Fill-529" fill="#B6B7B3"></path>
                            <path d="M24,73.557 C24.02,73.543 24.03,73.529 24.05,73.515 C24.03,73.529 24.02,73.543 24,73.557 M24.06,73.5 C24.07,73.491 24.08,73.482 24.09,73.473 C24.08,73.482 24.07,73.491 24.06,73.5 M24.11,73.456 C24.12,73.443 24.14,73.431 24.15,73.418 C24.14,73.431 24.12,73.443 24.11,73.456 M24.17,73.399 C24.18,73.392 24.18,73.384 24.19,73.377 C24.18,73.385 24.18,73.392 24.17,73.399 M24.21,73.355 C24.22,73.349 24.23,73.343 24.23,73.337 C24.23,73.343 24.22,73.349 24.21,73.355 M24.28,73.295 C24.28,73.289 24.29,73.284 24.29,73.278 C24.29,73.284 24.28,73.289 24.28,73.295 M24.32,73.252 C24.32,73.248 24.33,73.244 24.33,73.239 C24.33,73.243 24.32,73.248 24.32,73.252 M24.43,73.146 C24.43,73.143 24.43,73.142 24.43,73.139 C24.43,73.141 24.43,73.144 24.43,73.146 M24.47,73.108 C24.47,73.106 24.47,73.105 24.47,73.104 C24.47,73.105 24.47,73.106 24.47,73.108 M24.57,73.003 C24.57,73.002 24.57,73 24.57,73 C24.57,73 24.57,73.002 24.57,73.003" id="Fill-530" fill="#1C2432"></path>
                            <path d="M12.2149577,78 C12.2149577,78 12.2149577,78 12.2071225,78 C7.81161821,77.997638 3.41611388,76.2686898 0.133197101,72.8430734 C0.0861863594,72.7981963 0.0470107415,72.7533193 0,72.7084422 L2.35053707,70.4826969 C5.10066545,72.2604588 8.25822026,73.1556383 11.4314453,73.1548509 C15.5605554,73.1548509 19.7053358,71.6306052 22.949077,68.5545575 C26.5218933,65.1675196 28.2847961,60.5766739 28.2064449,56 C30.0476989,61.79859 28.6765523,68.3742619 24.1791914,72.961171 C24.1791914,72.961171 24.1791914,72.9627456 24.1791914,72.9635329 C24.155686,72.9895144 24.1243455,73.0162831 24.1008401,73.0430519 C24.1008401,73.0438392 24.1008401,73.0446266 24.1008401,73.0462012 C24.0851699,73.0540744 24.0773348,73.0627349 24.0694996,73.070608 C24.0694996,73.07297 24.0694996,73.0737573 24.0694996,73.0761192 C24.0459943,73.1005261 24.0146538,73.1249329 23.9911484,73.1493397 C23.9911484,73.1532763 23.9833133,73.1564256 23.9833133,73.1595748 C23.9754782,73.1666607 23.967643,73.1737466 23.9598079,73.1800451 C23.9598079,73.184769 23.9519728,73.1887056 23.9519728,73.1934295 C23.9363025,73.2044519 23.9284674,73.2154744 23.9127972,73.2264968 C23.9127972,73.2312207 23.904962,73.2359446 23.8971269,73.2406685 C23.8971269,73.2461797 23.8892918,73.2524783 23.8814567,73.2579895 C23.8736216,73.2635007 23.8736216,73.2697992 23.8657864,73.2753105 C23.8579513,73.2800344 23.8579513,73.2855456 23.8501162,73.2902695 C23.8422811,73.3005046 23.8266108,73.3099524 23.8187757,73.3201875 C23.8109406,73.3241241 23.8109406,73.328848 23.8031054,73.3335719 C23.7952703,73.3406578 23.7874352,73.3477436 23.7796001,73.3548295 C23.7796001,73.3587661 23.7717649,73.3627026 23.7717649,73.3666392 C23.7560947,73.3776617 23.7482596,73.3886841 23.7325893,73.3997065 C23.6855786,73.443009 23.646403,73.4855241 23.5993922,73.5280392 C23.5758869,73.5453602 23.5602166,73.5618939 23.5445464,73.5784275 C22.3536076,74.6743728 21.0451419,75.5656157 19.6661602,76.2529435 C17.3234582,77.4181727 14.769208,77.9984254 12.2227928,78 L12.2149577,78" id="Fill-531" fill="#1A7E8E"></path>
                        </g>
                        <g id="Group-3-Copy-3" stroke-width="1" fill="none" transform="translate(980.000000, 125.000000)">
                            <path d="M11,39.4996532 C7.96286255,39.4996532 5.5,37.0376395 5.5,34 C5.5,37.0376395 3.03783102,39.4996532 0,39.4996532 C3.03783102,39.4996532 5.5,41.9623605 5.5,45 C5.5,41.9623605 7.96286255,39.4996532 11,39.4996532" id="Fill-49" fill="#FFFFFE"></path>
                            <path d="M57,40.0003368 C54.7911755,40.0003368 53,38.2096842 53,36 C53,38.2096842 51.2094981,40.0003368 49,40.0003368 C51.2094981,40.0003368 53,41.7909895 53,44 C53,41.7909895 54.7911755,40.0003368 57,40.0003368" id="Fill-50" fill="#FFFFFE"></path>
                            <path d="M19,108.500343 C15.13376,108.500343 11.99968,105.1424 11.99968,101 C11.99968,105.1424 8.8656,108.500343 5,108.500343 C8.8656,108.500343 11.99968,111.858286 11.99968,116 C11.99968,111.858286 15.13376,108.500343 19,108.500343" id="Fill-51" fill="#FFFFFE"></path>
                            <path d="M50,7.5 C45.8578792,7.5 42.5,4.14212077 42.5,0 C42.5,4.14212077 39.1421208,7.5 35,7.5 C39.1421208,7.5 42.5,10.8578792 42.5,15 C42.5,10.8578792 45.8578792,7.5 50,7.5" id="Fill-52" fill="#FFFFFE"></path>
                        </g>
                        <g id="Group" stroke-width="1" fill="none" transform="translate(1729.000000, 495.000000)">
                            <polyline id="Fill-441" fill="#FFFFFE" points="56 129 43.5704331 129 41 165 56 165 56 129"></polyline>
                            <polyline id="Fill-442" fill="#FFFFFE" points="57 129 69.4295669 129 72 165 57 165 57 129"></polyline>
                            <path d="M58,147.000563 C58,150.865386 54.8662594,154 50.9988748,154 C47.1337406,154 44,150.865386 44,147.000563 C44,143.133489 47.1337406,140 50.9988748,140 C54.8662594,140 58,143.133489 58,147.000563" id="Fill-443" fill="#FFFFFE"></path>
                            <path d="M67,151.000563 C67,154.866511 63.8662594,158 60,158 C56.1348658,158 53,154.866511 53,151.000563 C53,147.135739 56.1348658,144 60,144 C63.8662594,144 67,147.135739 67,151.000563" id="Fill-444" fill="#FFFFFE"></path>
                            <path d="M58,157.999437 C58,161.864261 54.8662594,165 50.9988748,165 C47.1337406,165 44,161.864261 44,157.999437 C44,154.133489 47.1337406,151 50.9988748,151 C54.8662594,151 58,154.133489 58,157.999437" id="Fill-445" fill="#FFFFFE"></path>
                            <path d="M57,166.000563 C57,169.865386 53.8665113,173 49.9994374,173 C46.1334887,173 43,169.865386 43,166.000563 C43,162.133489 46.1334887,159 49.9994374,159 C53.8665113,159 57,162.133489 57,166.000563" id="Fill-446" fill="#FFFFFE"></path>
                            <path d="M69,166.000563 C69,169.865386 65.8651342,173 62,173 C58.1337406,173 55,169.865386 55,166.000563 C55,162.133489 58.1337406,159 62,159 C65.8651342,159 69,162.133489 69,166.000563" id="Fill-447" fill="#FFFFFE"></path>
                            <path d="M68,158.998875 C68,162.866259 64.8662594,166 61.0011252,166 C57.1348658,166 54,162.866259 54,158.998875 C54,155.133741 57.1348658,152 61.0011252,152 C64.8662594,152 68,155.133741 68,158.998875" id="Fill-448" fill="#FFFFFE"></path>
                            <path d="M68,173 C68,176.866259 64.8662594,180 61.0011252,180 C57.1348658,180 54,176.866259 54,173 C54,169.133741 57.1348658,166 61.0011252,166 C64.8662594,166 68,169.133741 68,173" id="Fill-449" fill="#FFFFFE"></path>
                            <path d="M75,166.000563 C75,169.865386 71.8651342,173 67.9988748,173 C64.1337406,173 61,169.865386 61,166.000563 C61,162.133489 64.1337406,159 67.9988748,159 C71.8651342,159 75,162.133489 75,166.000563" id="Fill-450" fill="#FFFFFE"></path>
                            <path d="M49,165.001125 C49,168.866259 45.8662594,172 42.0011252,172 C38.1337406,172 35,168.866259 35,165.001125 C35,161.133741 38.1337406,158 42.0011252,158 C45.8662594,158 49,161.133741 49,165.001125" id="Fill-451" fill="#FFFFFE"></path>
                            <path d="M49,175.999437 C49,179.865386 45.8662594,183 42,183 C38.1337406,183 35,179.865386 35,175.999437 C35,172.133489 38.1337406,169 42,169 C45.8662594,169 49,172.133489 49,175.999437" id="Fill-452" fill="#FFFFFE"></path>
                            <path d="M43,185.5 C43,188.537297 40.5370535,191 37.4994558,191 C34.4618581,191 32,188.537297 32,185.5 C32,182.462703 34.4618581,180 37.4994558,180 C40.5370535,180 43,182.462703 43,185.5" id="Fill-453" fill="#FFFFFE"></path>
                            <path d="M58,177 C58,180.865134 54.8662594,184 50.9988748,184 C47.1337406,184 44,180.865134 44,177 C44,173.133741 47.1337406,170 50.9988748,170 C54.8662594,170 58,173.133741 58,177" id="Fill-454" fill="#FFFFFE"></path>
                            <path d="M61,192.5 C61,199.403121 55.4042621,205 48.5,205 C41.5968787,205 36,199.403121 36,192.5 C36,185.596879 41.5968787,180 48.5,180 C55.4042621,180 61,185.596879 61,192.5" id="Fill-455" fill="#FFFFFE"></path>
                            <path d="M83,184 C83,191.732757 76.73073,198 68.9994293,198 C61.2681286,198 55,191.732757 55,184 C55,176.268384 61.2681286,170 68.9994293,170 C76.73073,170 83,176.268384 83,184" id="Fill-456" fill="#FFFFFE"></path>
                            <path d="M62,135.331877 C62,138.829202 59.3134166,150 56,150 C52.6876697,150 50,138.829202 50,135.331877 C50,131.835699 52.6876697,129 56,129 C59.3134166,129 62,131.835699 62,135.331877" id="Fill-457" fill="#FADC47"></path>
                            <path d="M61,133.221187 C61,135.553977 59.2087247,143 56.9994853,143 C54.7902458,143 53,135.553977 53,133.221187 C53,130.889484 54.7902458,129 56.9994853,129 C59.2087247,129 61,130.889484 61,133.221187" id="Fill-458" fill="#E8814E"></path>
                            <polyline id="Fill-459" fill="#CE3642" points="102.611774 118 73 118 73 78 109 97.2961145 102.611774 118"></polyline>
                            <polyline id="Fill-460" fill="#CE3642" points="9.3872972 118 39 118 39 78 3 97.2961145 9.3872972 118"></polyline>
                            <polygon id="Fill-461" fill="#FFFFFE" points="35 123 79 123 79 30 35 30"></polygon>
                            <path d="M57,0 C57,0 35,6.80855831 35,30 C49.698523,30 57,30 57,30 C57,30 64.3026013,30 79,30 C79,6.80855831 57,0 57,0" id="Fill-462" fill="#DE4D52"></path>
                            <polygon id="Fill-463" fill="#10242F" points="37 131 74 131 74 123 37 123"></polygon>
                            <polygon id="Fill-464" fill="#EEEEEA" points="0 120 12 120 12 94 0 94"></polygon>
                            <path d="M5.99946452,84 C5.99946452,84 0,85.8153365 0,92 C4.0085676,92 5.99946452,92 5.99946452,92 C5.99946452,92 7.9914324,92 12,92 C12,85.8153365 5.99946452,84 5.99946452,84" id="Fill-465" fill="#DE4D52"></path>
                            <polygon id="Fill-466" fill="#10242F" points="1 124 12 124 12 121 1 121"></polygon>
                            <polygon id="Fill-467" fill="#EEEEEA" points="100 120 112 120 112 94 100 94"></polygon>
                            <path d="M106.000535,84 C106.000535,84 100,85.8153365 100,92 C104.008568,92 106.000535,92 106.000535,92 C106.000535,92 107.991432,92 112,92 C112,85.8153365 106.000535,84 106.000535,84" id="Fill-468" fill="#DE4D52"></path>
                            <polygon id="Fill-469" fill="#10242F" points="100 124 111 124 111 121 100 121"></polygon>
                            <path d="M69,52.0005595 C69,59.1795722 63.1798227,65 56,65 C48.8201773,65 43,59.1795722 43,52.0005595 C43,44.8204278 48.8201773,39 56,39 C63.1798227,39 69,44.8204278 69,52.0005595" id="Fill-470" fill="#DE4D52"></path>
                            <path d="M67,51 C67,57.0756751 62.2992621,62 56.4994505,62 C50.7007379,62 46,57.0756751 46,51 C46,44.9243249 50.7007379,40 56.4994505,40 C62.2992621,40 67,44.9243249 67,51" id="Fill-471" fill="#BDDFEC"></path>
                            <path d="M57,47 C57,48.6579991 55.6582948,50 54.0006609,50 C52.344349,50 51,48.6579991 51,47 C51,45.343323 52.344349,44 54.0006609,44 C55.6582948,44 57,45.343323 57,47" id="Fill-472" fill="#FFFFFE"></path>
                            <path d="M99.9366029,117 L79,117 L79,80 L100,91.4129849 C99.9588475,91.7729286 99.9366029,92.1483776 99.9366029,92.5393319 L99.9366029,117" id="Fill-473" fill="#B7313C"></path>
                            <path d="M79,123 L57,123 L57,64.4078933 C64.2137783,64.4078933 70.0614811,58.54857 70.0614811,51.321583 C70.0614811,44.0934695 64.2137783,38.2341462 57,38.2341462 L57,30 C57,30 64.3026013,30 79,30 L79,123" id="Fill-474" fill="#E4E4DF"></path>
                            <path d="M79,30 C64.3026013,30 57,30 57,30 L57,0 C57,0 79,6.80855831 79,30" id="Fill-475" fill="#D44348"></path>
                            <polygon id="Fill-476" fill="#0F212A" points="57 131 75 131 75 123 57 123"></polygon>
                            <path d="M112,120 L100,120 L100,94 C104.008568,94 106.000535,94 106.000535,94 C106.000535,94 107.991432,94 112,94 L112,120" id="Fill-477" fill="#D1D0CB"></path>
                            <path d="M112,92 C107.991432,92 106.000535,92 106.000535,92 C106.000535,92 104.008568,92 100,92 C100,91.6317162 100.021419,91.2780386 100.061044,90.9389671 L100.063186,90.9400104 C100.695047,85.6056338 106.000535,84 106.000535,84 C106.000535,84 112,85.8153365 112,92" id="Fill-478" fill="#D44348"></path>
                            <polygon id="Fill-479" fill="#0F212A" points="100 124 111 124 111 121 100 121"></polygon>
                            <path d="M57,65 L57,62.6924203 C62.450977,62.6924203 66.8689851,57.9060388 66.8689851,52.0005595 C66.8689851,46.0950803 62.450977,41.3086988 57,41.3086988 L57,39 C63.6275286,39 69,44.8204278 69,52.0005595 C69,59.1795722 63.6275286,65 57,65" id="Fill-480" fill="#D44348"></path>
                            <path d="M57,62 L57,40 C63.0756751,40 68,44.9243249 68,51 C68,57.0756751 63.0756751,62 57,62" id="Fill-481" fill="#A4C6D8"></path>
                        </g>
                    </g>
                </g>
            </g>
        </g>
    </g>
</svg>