<?xml version="1.0" encoding="utf-8"?><svg version="1.1" preserveAspectRatio="xMidYMid" xml:space="preserve" width="518.06826pt" height="585.98933pt" viewBox="20.79244 20.43737 518.06826 585.98933" xmlns="http://www.w3.org/2000/svg" xmlns:xlink="http://www.w3.org/1999/xlink"><desc xmlns:eadoc="http://www.siemens.com/eauml/doc"><eadoc:guid>EAID_1272F6EA_361A_4288_9E95_FC0D56810250</eadoc:guid><eadoc:name>OSKA</eadoc:name><eadoc:type>Diagram</eadoc:type><eadoc:note></eadoc:note></desc><g transform="matrix(1 0 0 -1 0 819)"><g stroke="#000000" fill="none" fill-rule="evenodd" stroke-width="1" stroke-linecap="round" stroke-linejoin="round" stroke-miterlimit="3" letter-spacing="normal" font-weight="normal" font-style="normal" baseline-shift="0"><g transform="matrix(0.75 0 0 0.75 0 819.349976)"><g transform="matrix(0.959748 0 0 -0.959578 0 0)" font-family="ArialUnicode" font-size="10"><path fill="#DFDFDF" stroke="none" d="M163 258C163 253 163 253 168 253H330C335 253 335 253 335 258V413C335 418 335 418 330 418H168C163 418 163 418 163 413V258" /><path fill="#FEFAF7" stroke="none" d="M160 255C160 250 160 250 165 250H327C332 250 332 250 332 255V410C332 415 332 415 327 415H165C160 415 160 415 160 410V255" /><path d="M160 255C160 250 160 250 165 250H327C332 250 332 250 332 255V410C332 415 332 415 327 415H165C160 415 160 415 160 410V255m0 0C160 250 160 250 165 250H327C332 250 332 250 332 255V410C332 415 332 415 327 415H165C160 415 160 415 160 410V255" /><rect x="160" y="250" width="172" height="165" /><text transform="matrix(1 0 0 1 183 259)" fill="#000000" font-weight="bold" stroke="none"><desc xmlns:eadoc="http://www.siemens.com/eauml/doc"><eadoc:guid>EAID_A392846E_8B59_4549_A754_888D5DD8EEE7</eadoc:guid><eadoc:name>Põhikutseala (MainProfession)</eadoc:name><eadoc:type>Class</eadoc:type><eadoc:note>Main profession of a sector</eadoc:note></desc><tspan dx="0 " x="0" y="9">Taxonomy::Põhikutseala </tspan><tspan dx="0 " x="20" y="21">(MainProfession)</tspan></text><path d="M160 288H332" /><text transform="matrix(1 0 0 1 165 292)" fill="#3C3C3C" stroke="none"><tspan dx="0 " x="0" y="9">- </tspan></text><text transform="matrix(1 0 0 1 182 292)" fill="#3C3C3C" stroke="none"><tspan dx="0 " x="0" y="9">id: int</tspan></text><text transform="matrix(1 0 0 1 165 305)" fill="#3C3C3C" stroke="none"><tspan dx="0 " x="0" y="9">- </tspan></text><text transform="matrix(1 0 0 1 182 305)" fill="#3C3C3C" stroke="none"><tspan dx="0 " x="0" y="9">title: string</tspan></text><text transform="matrix(1 0 0 1 165 318)" fill="#3C3C3C" stroke="none"><tspan dx="0 " x="0" y="9">- </tspan></text><text transform="matrix(1 0 0 1 182 318)" fill="#3C3C3C" stroke="none"><tspan dx="0 " x="0" y="9">content: text</tspan></text><text transform="matrix(1 0 0 1 165 331)" fill="#3C3C3C" stroke="none"><tspan dx="0 " x="0" y="9">- </tspan></text><text transform="matrix(1 0 0 1 182 331)" fill="#3C3C3C" stroke="none"><tspan dx="0 " x="0" y="9">ISCO_code: int</tspan></text><text transform="matrix(1 0 0 1 165 344)" fill="#3C3C3C" stroke="none"><tspan dx="0 " x="0" y="9">- </tspan></text><text transform="matrix(1 0 0 1 182 344)" fill="#3C3C3C" stroke="none"><tspan dx="0 " x="0" y="9">ISCO_title: string</tspan></text><text transform="matrix(1 0 0 1 165 357)" fill="#3C3C3C" stroke="none"><tspan dx="0 " x="0" y="9">- </tspan></text><text transform="matrix(1 0 0 1 182 357)" fill="#3C3C3C" stroke="none"><tspan dx="0 " x="0" y="9">EMTAK_code: int</tspan></text><text transform="matrix(1 0 0 1 165 370)" fill="#3C3C3C" stroke="none"><tspan dx="0 " x="0" y="9">- </tspan></text><text transform="matrix(1 0 0 1 182 370)" fill="#3C3C3C" stroke="none"><tspan dx="0 " x="0" y="9">ISCED-F_code: int</tspan></text><text transform="matrix(1 0 0 1 165 383)" fill="#3C3C3C" stroke="none"><tspan dx="0 " x="0" y="9">- </tspan></text><text transform="matrix(1 0 0 1 182 383)" fill="#3C3C3C" stroke="none"><tspan dx="0 " x="0" y="9">StudyProgramme_code: int</tspan></text><text transform="matrix(1 0 0 1 165 396)" fill="#3C3C3C" stroke="none"><tspan dx="0 " x="0" y="9">- </tspan></text><text transform="matrix(1 0 0 1 182 396)" fill="#3C3C3C" stroke="none"><tspan dx="0 " x="0" y="9">StudyProgramme_name: string</tspan></text><path fill="#DFDFDF" stroke="none" d="M43 48C43 43 43 43 48 43H181C186 43 186 43 186 48V157C186 162 186 162 181 162H48C43 162 43 162 43 157V48" /><path fill="#FEFAF7" stroke="none" d="M40 45C40 40 40 40 45 40H178C183 40 183 40 183 45V154C183 159 183 159 178 159H45C40 159 40 159 40 154V45" /><path d="M40 45C40 40 40 40 45 40H178C183 40 183 40 183 45V154C183 159 183 159 178 159H45C40 159 40 159 40 154V45m0 0C40 40 40 40 45 40H178C183 40 183 40 183 45V154C183 159 183 159 178 159H45C40 159 40 159 40 154V45" /><rect x="40" y="40" width="143" height="119" /><text transform="matrix(1 0 0 1 133 43)" fill="#000000" font-style="italic" stroke="none"><tspan dx="0 " x="0" y="9">Taxonomy</tspan></text><text transform="matrix(1 0 0 1 40 59)" fill="#000000" font-weight="bold" stroke="none"><desc xmlns:eadoc="http://www.siemens.com/eauml/doc"><eadoc:guid>EAID_5E25290D_2C17_489f_B46F_6F4BF819274C</eadoc:guid><eadoc:name>OSKA_valdkond (OSKA_Field)</eadoc:name><eadoc:type>Class</eadoc:type><eadoc:note></eadoc:note></desc><tspan dx="0 " x="0" y="9">Taxonomy::OSKA_valdkond </tspan><tspan dx="0 " x="38" y="21">(OSKA_Field)</tspan></text><path d="M40 88H183" /><text transform="matrix(1 0 0 1 45 92)" fill="#3C3C3C" stroke="none"><tspan dx="0 " x="0" y="9">- </tspan></text><text transform="matrix(1 0 0 1 62 92)" fill="#3C3C3C" stroke="none"><tspan dx="0 " x="0" y="9">id: int</tspan></text><text transform="matrix(1 0 0 1 45 105)" fill="#3C3C3C" stroke="none"><tspan dx="0 " x="0" y="9">- </tspan></text><text transform="matrix(1 0 0 1 62 105)" fill="#3C3C3C" stroke="none"><tspan dx="0 " x="0" y="9">title: string</tspan></text><text transform="matrix(1 0 0 1 45 118)" fill="#3C3C3C" stroke="none"><tspan dx="0 " x="0" y="9">- </tspan></text><text transform="matrix(1 0 0 1 62 118)" fill="#3C3C3C" stroke="none"><tspan dx="0 " x="0" y="9">content: text</tspan></text><text transform="matrix(1 0 0 1 45 131)" fill="#3C3C3C" stroke="none"><tspan dx="0 " x="0" y="9">- </tspan></text><text transform="matrix(1 0 0 1 62 131)" fill="#3C3C3C" stroke="none"><tspan dx="0 " x="0" y="9">picture</tspan></text><text transform="matrix(1 0 0 1 45 144)" fill="#3C3C3C" stroke="none"><tspan dx="0 " x="0" y="9">- </tspan></text><text transform="matrix(1 0 0 1 62 144)" fill="#3C3C3C" stroke="none"><tspan dx="0 " x="0" y="9">video</tspan></text><path fill="#DFDFDF" stroke="none" d="M243 48C243 43 243 43 248 43H393C398 43 398 43 398 48v77C398 130 398 130 393 130H248C243 130 243 130 243 125V48" /><path fill="#FEFAF7" stroke="none" d="M240 45C240 40 240 40 245 40H390C395 40 395 40 395 45v77C395 127 395 127 390 127H245C240 127 240 127 240 122V45" /><path d="M240 45C240 40 240 40 245 40H390C395 40 395 40 395 45v77C395 127 395 127 390 127H245C240 127 240 127 240 122V45m0 0C240 40 240 40 245 40H390C395 40 395 40 395 45v77C395 127 395 127 390 127H245C240 127 240 127 240 122V45" /><rect x="240" y="40" width="155" height="87" /><text transform="matrix(1 0 0 1 261 49)" fill="#000000" font-weight="bold" stroke="none"><desc xmlns:eadoc="http://www.siemens.com/eauml/doc"><eadoc:guid>EAID_44E662B8_051D_4c01_AA34_D07EB8002D6E</eadoc:guid><eadoc:name>OSKA_alamvaldkond (OSKA_SubField)</eadoc:name><eadoc:type>Class</eadoc:type><eadoc:note></eadoc:note></desc><tspan dx="0 " x="0" y="9">OSKA_alamvaldkond </tspan><tspan dx="0 " x="13" y="21">(OSKA_SubField)</tspan></text><path d="M240 78H395" /><text transform="matrix(1 0 0 1 245 82)" fill="#3C3C3C" stroke="none"><tspan dx="0 " x="0" y="9">- </tspan></text><text transform="matrix(1 0 0 1 262 82)" fill="#3C3C3C" stroke="none"><tspan dx="0 " x="0" y="9">title: string</tspan></text><path fill="#DFDFDF" stroke="none" d="M173 508C173 503 173 503 178 503H281C286 503 286 503 286 508V637C286 642 286 642 281 642H178C173 642 173 642 173 637V508" /><path fill="#FEFAF7" stroke="none" d="M170 505C170 500 170 500 175 500H278C283 500 283 500 283 505V634C283 639 283 639 278 639H175C170 639 170 639 170 634V505" /><path d="M170 505C170 500 170 500 175 500H278C283 500 283 500 283 505V634C283 639 283 639 278 639H175C170 639 170 639 170 634V505m0 0C170 500 170 500 175 500H278C283 500 283 500 283 505V634C283 639 283 639 278 639H175C170 639 170 639 170 634V505" /><rect x="170" y="500" width="113" height="139" /><text transform="matrix(1 0 0 1 197 509)" fill="#000000" font-weight="bold" stroke="none"><desc xmlns:eadoc="http://www.siemens.com/eauml/doc"><eadoc:guid>EAID_579A0270_6EE1_452f_8C95_CFF3A9D6B473</eadoc:guid><eadoc:name>Näidisamet (Occupation)</eadoc:name><eadoc:type>Class</eadoc:type><eadoc:note></eadoc:note></desc><tspan dx="0 " x="0" y="9">Näidisamet </tspan><tspan dx="0 " x="-3" y="21">(Occupation)</tspan></text><path d="M170 538H283" /><text transform="matrix(1 0 0 1 175 542)" fill="#3C3C3C" stroke="none"><tspan dx="0 " x="0" y="9">- </tspan></text><text transform="matrix(1 0 0 1 192 542)" fill="#3C3C3C" stroke="none"><tspan dx="0 " x="0" y="9">id: int</tspan></text><text transform="matrix(1 0 0 1 175 555)" fill="#3C3C3C" stroke="none"><tspan dx="0 " x="0" y="9">- </tspan></text><text transform="matrix(1 0 0 1 192 555)" fill="#3C3C3C" stroke="none"><tspan dx="0 " x="0" y="9">title: string</tspan></text><text transform="matrix(1 0 0 1 175 568)" fill="#3C3C3C" stroke="none"><tspan dx="0 " x="0" y="9">- </tspan></text><text transform="matrix(1 0 0 1 192 568)" fill="#3C3C3C" stroke="none"><tspan dx="0 " x="0" y="9">introduction: string</tspan></text><text transform="matrix(1 0 0 1 175 581)" fill="#3C3C3C" stroke="none"><tspan dx="0 " x="0" y="9">- </tspan></text><text transform="matrix(1 0 0 1 192 581)" fill="#3C3C3C" stroke="none"><tspan dx="0 " x="0" y="9">picture</tspan></text><text transform="matrix(1 0 0 1 175 594)" fill="#3C3C3C" stroke="none"><tspan dx="0 " x="0" y="9">- </tspan></text><text transform="matrix(1 0 0 1 192 594)" fill="#3C3C3C" stroke="none"><tspan dx="0 " x="0" y="9">video</tspan></text><text transform="matrix(1 0 0 1 175 607)" fill="#3C3C3C" stroke="none"><tspan dx="0 " x="0" y="9">- </tspan></text><text transform="matrix(1 0 0 1 192 607)" fill="#3C3C3C" stroke="none"><tspan dx="0 " x="0" y="9">content: text</tspan></text><text transform="matrix(1 0 0 1 175 620)" fill="#3C3C3C" stroke="none"><tspan dx="0 " x="0" y="9">- </tspan></text><text transform="matrix(1 0 0 1 192 620)" fill="#3C3C3C" stroke="none"><tspan dx="0 " x="0" y="9">ISCO_code: int</tspan></text><path fill="#DFDFDF" stroke="none" d="M463 328C463 323 463 323 468 323H727C732 323 732 323 732 328V704C732 709 732 709 727 709H468C463 709 463 709 463 704V328" /><path fill="#FFECB4" stroke="none" d="M460 325C460 320 460 320 465 320H724C729 320 729 320 729 325V701C729 706 729 706 724 706H465C460 706 460 706 460 701V325" /><path d="M460 325C460 320 460 320 465 320H724C729 320 729 320 729 325V701C729 706 729 706 724 706H465C460 706 460 706 460 701V325m0 0C460 320 460 320 465 320H724C729 320 729 320 729 325V701C729 706 729 706 724 706H465C460 706 460 706 460 701V325" /><rect x="460" y="320" width="269" height="386" /><text transform="matrix(1 0 0 1 473 329)" fill="#000000" font-weight="bold" stroke="none"><desc xmlns:eadoc="http://www.siemens.com/eauml/doc"><eadoc:guid>EAID_C34A750A_9590_4ebe_AB53_14862641C7BA</eadoc:guid><eadoc:name>Õppekava (StudyProgramme)</eadoc:name><eadoc:type>Class</eadoc:type><eadoc:note></eadoc:note></desc><tspan dx="0 " x="0" y="9">StudyProgramme::Õppekava (StudyProgramme)</tspan></text><path d="M460 346H729" /><text transform="matrix(1 0 0 1 465 350)" fill="#3C3C3C" stroke="none"><tspan dx="0 " x="0" y="9">- </tspan></text><text transform="matrix(1 0 0 1 482 350)" fill="#3C3C3C" stroke="none"><tspan dx="0 " x="0" y="9">id: string</tspan></text><text transform="matrix(1 0 0 1 465 363)" fill="#3C3C3C" stroke="none"><tspan dx="0 " x="0" y="9">- </tspan></text><text transform="matrix(1 0 0 1 482 363)" fill="#3C3C3C" stroke="none"><tspan dx="0 " x="0" y="9">EHIS_id: string</tspan></text><text transform="matrix(1 0 0 1 465 376)" fill="#3C3C3C" stroke="none"><tspan dx="0 " x="0" y="9">- </tspan></text><text transform="matrix(1 0 0 1 482 376)" fill="#3C3C3C" stroke="none"><tspan dx="0 " x="0" y="9">name: string</tspan></text><text transform="matrix(1 0 0 1 465 389)" fill="#3C3C3C" stroke="none"><tspan dx="0 " x="0" y="9">- </tspan></text><text transform="matrix(1 0 0 1 482 389)" fill="#3C3C3C" stroke="none"><tspan dx="0 " x="0" y="9">educationalInstitution</tspan></text><text transform="matrix(1 0 0 1 465 402)" fill="#3C3C3C" stroke="none"><tspan dx="0 " x="0" y="9">- </tspan></text><text transform="matrix(1 0 0 1 482 402)" fill="#3C3C3C" stroke="none"><tspan dx="0 " x="0" y="9">type: StudyProgrammeType</tspan></text><text transform="matrix(1 0 0 1 465 415)" fill="#3C3C3C" stroke="none"><tspan dx="0 " x="0" y="9">- </tspan></text><text transform="matrix(1 0 0 1 482 415)" fill="#3C3C3C" stroke="none"><tspan dx="0 " x="0" y="9">level: StudyProgrammeLevel [0..1]</tspan></text><text transform="matrix(1 0 0 1 465 428)" fill="#3C3C3C" stroke="none"><tspan dx="0 " x="0" y="9">- </tspan></text><text transform="matrix(1 0 0 1 482 428)" fill="#3C3C3C" stroke="none"><tspan dx="0 " x="0" y="9">degreeOrDiplomaAwarded: DegreeOrDiploma [0..1]</tspan></text><text transform="matrix(1 0 0 1 465 441)" fill="#3C3C3C" stroke="none"><tspan dx="0 " x="0" y="9">- </tspan></text><text transform="matrix(1 0 0 1 482 441)" fill="#3C3C3C" stroke="none"><tspan dx="0 " x="0" y="9">specialization: string [0..1]</tspan></text><text transform="matrix(1 0 0 1 465 454)" fill="#3C3C3C" stroke="none"><tspan dx="0 " x="0" y="9">- </tspan></text><text transform="matrix(1 0 0 1 482 454)" fill="#3C3C3C" stroke="none"><tspan dx="0 " x="0" y="9">ISCEDbroadField: ISCDEF [0..1]</tspan></text><text transform="matrix(1 0 0 1 465 467)" fill="#3C3C3C" stroke="none"><tspan dx="0 " x="0" y="9">- </tspan></text><text transform="matrix(1 0 0 1 482 467)" fill="#3C3C3C" stroke="none"><tspan dx="0 " x="0" y="9">ISCEDnarrowField: ISCDEF [0..1]</tspan></text><text transform="matrix(1 0 0 1 465 480)" fill="#3C3C3C" stroke="none"><tspan dx="0 " x="0" y="9">- </tspan></text><text transform="matrix(1 0 0 1 482 480)" fill="#3C3C3C" stroke="none"><tspan dx="0 " x="0" y="9">ISCEDdetailedField: ISCDEF [0..1]</tspan></text><text transform="matrix(1 0 0 1 465 493)" fill="#3C3C3C" stroke="none"><tspan dx="0 " x="0" y="9">- </tspan></text><text transform="matrix(1 0 0 1 482 493)" fill="#3C3C3C" stroke="none"><tspan dx="0 " x="0" y="9">ISCEDdetailedFieldCode: string [0..1]</tspan></text><text transform="matrix(1 0 0 1 465 506)" fill="#3C3C3C" stroke="none"><tspan dx="0 " x="0" y="9">- </tspan></text><text transform="matrix(1 0 0 1 482 506)" fill="#3C3C3C" stroke="none"><tspan dx="0 " x="0" y="9">qualificationStandardId: string [0..n]</tspan></text><text transform="matrix(1 0 0 1 465 519)" fill="#3C3C3C" stroke="none"><tspan dx="0 " x="0" y="9">- </tspan></text><text transform="matrix(1 0 0 1 482 519)" fill="#3C3C3C" stroke="none"><tspan dx="0 " x="0" y="9">occupationESCO: number</tspan></text><text transform="matrix(1 0 0 1 465 532)" fill="#3C3C3C" stroke="none"><tspan dx="0 " x="0" y="9">- </tspan></text><text transform="matrix(1 0 0 1 482 532)" fill="#3C3C3C" stroke="none"><tspan dx="0 " x="0" y="9">webPageAddress: link [0..1]</tspan></text><text transform="matrix(1 0 0 1 465 545)" fill="#3C3C3C" stroke="none"><tspan dx="0 " x="0" y="9">- </tspan></text><text transform="matrix(1 0 0 1 482 545)" fill="#3C3C3C" stroke="none"><tspan dx="0 " x="0" y="9">shortDescription: text(300) [0..1]</tspan></text><text transform="matrix(1 0 0 1 465 558)" fill="#3C3C3C" stroke="none"><tspan dx="0 " x="0" y="9">- </tspan></text><text transform="matrix(1 0 0 1 482 558)" fill="#3C3C3C" stroke="none"><tspan dx="0 " x="0" y="9">teachingLanguage: TeachingLanguage [0..n]</tspan></text><text transform="matrix(1 0 0 1 465 571)" fill="#3C3C3C" stroke="none"><tspan dx="0 " x="0" y="9">- </tspan></text><text transform="matrix(1 0 0 1 482 571)" fill="#3C3C3C" stroke="none"><tspan dx="0 " x="0" y="9">amount: number [0..1]</tspan></text><text transform="matrix(1 0 0 1 465 584)" fill="#3C3C3C" stroke="none"><tspan dx="0 " x="0" y="9">- </tspan></text><text transform="matrix(1 0 0 1 482 584)" fill="#3C3C3C" stroke="none"><tspan dx="0 " x="0" y="9">practicalTrainingAmount: number</tspan></text><text transform="matrix(1 0 0 1 465 597)" fill="#3C3C3C" stroke="none"><tspan dx="0 " x="0" y="9">- </tspan></text><text transform="matrix(1 0 0 1 482 597)" fill="#3C3C3C" stroke="none"><tspan dx="0 " x="0" y="9">durationYears: number [0..1]</tspan></text><text transform="matrix(1 0 0 1 465 610)" fill="#3C3C3C" stroke="none"><tspan dx="0 " x="0" y="9">- </tspan></text><text transform="matrix(1 0 0 1 482 610)" fill="#3C3C3C" stroke="none"><tspan dx="0 " x="0" y="9">durationMonths: number [0..1]</tspan></text><text transform="matrix(1 0 0 1 465 623)" fill="#3C3C3C" stroke="none"><tspan dx="0 " x="0" y="9">- </tspan></text><text transform="matrix(1 0 0 1 482 623)" fill="#3C3C3C" stroke="none"><tspan dx="0 " x="0" y="9">admissionStatus: AdmissionStatus [0..1]</tspan></text><text transform="matrix(1 0 0 1 465 636)" fill="#3C3C3C" stroke="none"><tspan dx="0 " x="0" y="9">- </tspan></text><text transform="matrix(1 0 0 1 482 636)" fill="#3C3C3C" stroke="none"><tspan dx="0 " x="0" y="9">accreditationStatus: AccreditationStatus [0..1]</tspan></text><text transform="matrix(1 0 0 1 465 649)" fill="#3C3C3C" stroke="none"><tspan dx="0 " x="0" y="9">- </tspan></text><text transform="matrix(1 0 0 1 482 649)" fill="#3C3C3C" stroke="none"><tspan dx="0 " x="0" y="9">accreditationValidUntil: date [0..1]</tspan></text><text transform="matrix(1 0 0 1 465 662)" fill="#3C3C3C" stroke="none"><tspan dx="0 " x="0" y="9">- </tspan></text><text transform="matrix(1 0 0 1 482 662)" fill="#3C3C3C" stroke="none"><tspan dx="0 " x="0" y="9">updateFromEHIS: boolean = 1</tspan></text><text transform="matrix(1 0 0 1 465 675)" fill="#3C3C3C" stroke="none"><tspan dx="0 " x="0" y="9">- </tspan></text><text transform="matrix(1 0 0 1 482 675)" fill="#3C3C3C" stroke="none"><tspan dx="0 " x="0" y="9">createdFromEHISDateTime: datetime</tspan></text><text transform="matrix(1 0 0 1 465 688)" fill="#3C3C3C" stroke="none"><tspan dx="0 " x="0" y="9">- </tspan></text><text transform="matrix(1 0 0 1 482 688)" fill="#3C3C3C" stroke="none"><tspan dx="0 " x="0" y="9">publish: boolean = 1</tspan></text><path fill="#DFDFDF" stroke="none" d="M463 208C463 203 463 203 468 203H636C641 203 641 203 641 208v90C641 303 641 303 636 303H468C463 303 463 303 463 298V208" /><path fill="#FFFFE0" stroke="none" d="M460 205C460 200 460 200 465 200H633C638 200 638 200 638 205v90C638 300 638 300 633 300H465C460 300 460 300 460 295V205" /><path d="M460 205C460 200 460 200 465 200H633C638 200 638 200 638 205v90C638 300 638 300 633 300H465C460 300 460 300 460 295V205m0 0C460 200 460 200 465 200H633C638 200 638 200 638 205v90C638 300 638 300 633 300H465C460 300 460 300 460 295V205" /><rect x="460" y="200" width="178" height="100" /><text transform="matrix(1 0 0 1 488 209)" fill="#000000" font-weight="bold" stroke="none"><desc xmlns:eadoc="http://www.siemens.com/eauml/doc"><eadoc:guid>EAID_A91EB4C6_8805_4c99_9F68_28C5FB1C83BF</eadoc:guid><eadoc:name>Kutsestandard (OccupationalQualificationStandard)</eadoc:name><eadoc:type>Class</eadoc:type><eadoc:note></eadoc:note></desc><tspan dx="0 " x="0" y="9">Qualification_standard::</tspan><tspan dx="0 " x="23" y="21">Kutsestandard </tspan><tspan dx="0 " x="-30" y="33">(OccupationalQualificationStandard)</tspan></text><path d="M460 250H638" /><text transform="matrix(1 0 0 1 465 254)" fill="#3C3C3C" stroke="none"><tspan dx="0 " x="0" y="9">- </tspan></text><text transform="matrix(1 0 0 1 482 254)" fill="#3C3C3C" stroke="none"><tspan dx="0 " x="0" y="9">id: int</tspan></text><text transform="matrix(1 0 0 1 465 267)" fill="#3C3C3C" stroke="none"><tspan dx="0 " x="0" y="9">- </tspan></text><text transform="matrix(1 0 0 1 482 267)" fill="#3C3C3C" stroke="none"><tspan dx="0 " x="0" y="9">title: string</tspan></text><text transform="matrix(1 0 0 1 465 280)" fill="#3C3C3C" stroke="none"><tspan dx="0 " x="0" y="9">- </tspan></text><text transform="matrix(1 0 0 1 482 280)" fill="#3C3C3C" stroke="none"><tspan dx="0 " x="0" y="9">ISCO_code: int</tspan></text><path fill="#DFDFDF" stroke="none" d="M173 693V832H293V705L281 693H173" /><path fill="#FFFFFF" d="M170 690V829H290V702L278 690H170" /><path fill="#DCDCDC" d="M278 690v12h12L278 690" /></g><g transform="matrix(0.959748 0 0 0.959578 0 0)" font-family="SegoeUIUnicode" font-size="10"><text transform="matrix(1 0 0 -1 0 0)" fill="#000000" stroke="none"><tspan dx="0 " x="175" y="714">OSKA tööturuinfo </tspan></text><text transform="matrix(1 0 0 -1 0 0)" fill="#000000" stroke="none"><tspan dx="0 " x="175" y="726">seosed loome </tspan></text><text transform="matrix(1 0 0 -1 0 0)" fill="#000000" stroke="none"><tspan dx="0 " x="175" y="738">põhikutsealaga.</tspan></text><text transform="matrix(1 0 0 -1 0 0)" fill="#000000" stroke="none"><tspan dx="0 " x="175" y="762">Lisaks loome võimaluse </tspan></text><text transform="matrix(1 0 0 -1 0 0)" fill="#000000" stroke="none"><tspan dx="0 " x="175" y="774">tööturuinfo seostamiseks </tspan></text><text transform="matrix(1 0 0 -1 0 0)" fill="#000000" stroke="none"><tspan dx="0 " x="175" y="786">läbi ametite (ISCO koodi </tspan></text><text transform="matrix(1 0 0 -1 0 0)" fill="#000000" stroke="none"><tspan dx="0 " x="175" y="798">alusel ja ametile võib </tspan></text><text transform="matrix(1 0 0 -1 0 0)" fill="#000000" stroke="none"><tspan dx="0 " x="175" y="810">lisada ka EMTAK koodi </tspan></text><text transform="matrix(1 0 0 -1 0 0)" fill="#000000" stroke="none"><tspan dx="0 " x="175" y="822">välja)</tspan></text></g><g transform="matrix(0.959748 0 0 -0.959578 0 0)"><path fill="#DFDFDF" stroke="none" d="M313 703v80H433V715L421 703H313" /><path fill="#FFFFFF" d="M310 700v80H430V712L418 700H310" /><path fill="#DCDCDC" d="M418 700v12h12L418 700" /></g><g transform="matrix(0.959748 0 0 0.959578 0 0)" font-family="SegoeUIUnicode" font-size="10"><text transform="matrix(1 0 0 -1 0 0)" fill="#000000" stroke="none"><tspan dx="0 " x="315" y="724">Ametite kirjeldus tänase </tspan></text><text transform="matrix(1 0 0 -1 0 0)" fill="#000000" stroke="none"><tspan dx="0 " x="315" y="736">Rajaleidja ametite AB </tspan></text><text transform="matrix(1 0 0 -1 0 0)" fill="#000000" stroke="none"><tspan dx="0 " x="315" y="748">asemel?</tspan></text></g><g transform="matrix(0.959748 0 0 -0.959578 0 0)"><path fill="#DFDFDF" stroke="none" d="M463 83v60H633V95L621 83H463" /><path fill="#FFFFFF" d="M460 80v60H630V92L618 80H460" /><path fill="#DCDCDC" d="M618 80V92h12L618 80" /></g><g transform="matrix(0.959748 0 0 0.959578 0 0)" font-family="SegoeUIUnicode" font-size="10"><text transform="matrix(1 0 0 -1 0 0)" fill="#000000" stroke="none"><tspan dx="0 " x="465" y="104">OSKA tööturuinfo esitamine läbi </tspan></text><text transform="matrix(1 0 0 -1 0 0)" fill="#000000" stroke="none"><tspan dx="0 " x="465" y="116">põhikutseala?</tspan></text></g><g transform="matrix(0.959748 0 0 -0.959578 0 0)" font-family="ArialUnicode" font-size="10"><path d="M333 268l3 -2m4 -3l3 -2m4 -3l3 -2m4 -3l3 -2m4 -3l3 -3m4 -3l3 -2m4 -3l3 -2m4 -3l3 -2m4 -3l3 -3m4 -3l3 -2m4 -3l3 -2m4 -3l3 -2m4 -3l3 -3m4 -3l3 -2m4 -3l3 -2m4 -3l3 -2m4 -3l3 -3m4 -3l3 -2m4 -3l3 -2m4 -3l3 -2m4 -3l3 -3m4 -3l3 -2m4 -3l3 -2m4 -3l3 -2m4 -3l3 -3" /><path d="M284 637l2 3m3 4l3 3m3 4l3 3m3 4l2 3m4 4l2 3m3 4l3 3m3 4l3 3m3 4l2 3m4 4l2 3" /><path stroke-dasharray="3,4" d="M228 640L228 690" /><path d="M333 376L460 497" /><path d="M333 376h-3m0 0v5m0 0h-9m12 -5h-3m0 0v-5m0 0h-9" /><path d="M460 497l-15 -6m15 6l-7 -15" /><path d="M333 337l99 -49m0 0h28" /><path d="M333 337h-3m0 0v5m0 0h-9m12 -5h-3m0 0v-5m0 0h-9" /><path d="M460 288l-15 6m15 -6l-15 -6" /><path d="M223 416v84" /><path d="M106 160v58m0 0V337m0 0h54m0 0l-15 6m15 -6l-15 -6" /><path d="M184 94h56" /><path d="M275 128V250" /><g transform="matrix(1 0 0 -1 283 133)"><rect fill="#FFFFFF" stroke="none" x="0" width="17" y="-11" height="11" /></g><text transform="matrix(1 0 0 1 283 133)" fill="#000000" stroke="none"><tspan dx="0 " x="0" y="9">0..*</tspan></text><g transform="matrix(1 0 0 -1 283 232)"><rect fill="#FFFFFF" stroke="none" x="0" width="17" y="-11" height="11" /></g><text transform="matrix(1 0 0 1 283 232)" fill="#000000" stroke="none"><tspan dx="0 " x="0" y="9">1..*</tspan></text><g transform="matrix(1 0 0 -1 187 99)"><rect fill="#FFFFFF" stroke="none" x="0" width="17" y="-11" height="11" /></g><text transform="matrix(1 0 0 1 187 99)" fill="#000000" stroke="none"><tspan dx="0 " x="0" y="9">1..*</tspan></text><g transform="matrix(1 0 0 -1 221 99)"><rect fill="#FFFFFF" stroke="none" x="0" width="17" y="-11" height="11" /></g><text transform="matrix(1 0 0 1 221 99)" fill="#000000" stroke="none"><tspan dx="0 " x="0" y="9">0..*</tspan></text><g transform="matrix(1 0 0 -1 386 422)"><rect fill="#FFFFFF" stroke="none" x="0" width="21" y="-11" height="11" /></g><text transform="matrix(1 0 0 1 386 422)" fill="#000000" stroke="none"><tspan dx="0 " x="0" y="9">seos</tspan></text><g transform="matrix(1 0 0 -1 114 165)"><rect fill="#FFFFFF" stroke="none" x="0" width="17" y="-11" height="11" /></g><text transform="matrix(1 0 0 1 114 165)" fill="#000000" stroke="none"><tspan dx="0 " x="0" y="9">1..*</tspan></text><g transform="matrix(1 0 0 -1 141 342)"><rect fill="#FFFFFF" stroke="none" x="0" width="17" y="-11" height="11" /></g><text transform="matrix(1 0 0 1 141 342)" fill="#000000" stroke="none"><tspan dx="0 " x="0" y="9">1..*</tspan></text><g transform="matrix(1 0 0 -1 231 421)"><rect fill="#FFFFFF" stroke="none" x="0" width="17" y="-11" height="11" /></g><text transform="matrix(1 0 0 1 231 421)" fill="#000000" stroke="none"><tspan dx="0 " x="0" y="9">1..*</tspan></text><g transform="matrix(1 0 0 -1 231 482)"><rect fill="#FFFFFF" stroke="none" x="0" width="17" y="-11" height="11" /></g><text transform="matrix(1 0 0 1 231 482)" fill="#000000" stroke="none"><tspan dx="0 " x="0" y="9">0..*</tspan></text><g transform="matrix(1 0 0 -1 380 310)"><rect fill="#FFFFFF" stroke="none" x="0" width="21" y="-11" height="11" /></g><text transform="matrix(1 0 0 1 380 310)" fill="#000000" stroke="none"><tspan dx="0 " x="0" y="9">seos</tspan></text></g></g></g></g></svg>