<?xml version="1.0" encoding="UTF-8"?>
<svg width="90px" height="90px" viewBox="0 0 90 90" version="1.1" xmlns="http://www.w3.org/2000/svg" xmlns:xlink="http://www.w3.org/1999/xlink">
    <!-- Generator: Sketch 49.1 (51147) - http://www.bohemiancoding.com/sketch -->
    <title>Group 8</title>
    <desc>Created with Sketch.</desc>
    <defs></defs>
    <g id="Page-1" stroke="none" stroke-width="1" fill="none" fill-rule="evenodd">
        <g id="Avaleht_375px" transform="translate(-143.000000, -1039.000000)">
            <g id="Group-8" transform="translate(143.000000, 1039.000000)">
                <circle id="Oval-9" fill="#FFFFFF" opacity="0.6" cx="45" cy="45" r="45"></circle>
                <g id="Group-18" transform="translate(21.000000, 17.000000)">
                    <polygon id="Fill-609" fill="#4A2D30" points="22.1825417 52.7382456 27.5204583 52.7382456 27.5204583 44.3878947 22.1825417 44.3878947"></polygon>
                    <polygon id="Fill-610" fill="#6B3E43" points="13.095625 52.8366667 36.607375 52.8366667 36.607375 51.1297368 13.095625 51.1297368"></polygon>
                    <polygon id="Fill-611" fill="#4A2D30" points="10.0212917 54.5455263 39.597375 54.5455263 39.597375 52.8376316 10.0212917 52.8376316"></polygon>
                    <path d="M7.90145833,38.6997368 C17.23275,48.0950877 32.421375,48.0883333 41.7565,38.6891228 L40.3065417,37.2282456 C31.76875,45.8227193 17.8844167,45.8285088 9.352375,37.2388596 C0.820333333,28.6472807 0.82225,14.6647368 9.36004167,6.06929825 L7.90816667,4.60745614 C-1.42791667,14.0085965 -1.43175,29.3024561 7.90145833,38.6997368" id="Fill-612" fill="#6B3E43"></path>
                    <path d="M41.2428333,39.3066667 C41.6894167,39.7563158 42.4139167,39.7563158 42.8614583,39.3066667 C43.3070833,38.8550877 43.3070833,38.1265789 42.8614583,37.6769298 L9.013125,3.59622807 C8.56558333,3.14657895 7.84108333,3.14657895 7.3945,3.59622807 C6.94791667,4.04684211 6.94791667,4.77631579 7.3945,5.22596491 L41.2428333,39.3066667" id="Fill-613" fill="#4A2D30"></path>
                    <path d="M44.6267083,15.3720175 C47.9617083,26.2147368 41.93475,37.7271053 31.1659583,41.0859649 C20.3990833,44.4438596 8.96425,38.3755263 5.62925,27.5337719 C2.29425,16.6910526 8.32025,5.17868421 19.0880833,1.81982456 C29.856875,-1.53807018 41.2917083,4.52929825 44.6267083,15.3720175" id="Fill-614" fill="#3198AB"></path>
                    <path d="M41.6654583,9.40114035 C41.1623333,9.76298246 40.4359167,9.57 39.721,9.37701754 C39.1843333,9.23131579 38.6534167,9.08657895 38.2298333,9.17631579 C36.664875,9.35868421 36.8507917,10.625614 35.9499583,11.3145614 C35.4439583,11.7584211 34.692625,11.725614 33.9815417,11.6918421 C33.6815833,11.6783333 33.3892917,11.6638596 33.12575,11.6850877 C30.765375,11.9118421 31.748625,13.134386 33.6767917,13.1459649 C34.0332917,13.1662281 34.5412083,13.0070175 35.06925,12.847807 C35.7659583,12.6374561 36.4971667,12.4271053 36.9629167,12.6297368 C38.50775,13.3727193 37.11625,15.4376316 36.3361667,16.1912281 C34.525875,17.8769298 32.0370833,17.2053509 29.9450417,16.3282456 C28.649375,16.7113158 29.486,17.8537719 30.2009167,18.3082456 C31.1640417,19.1303509 32.5066667,19.2200877 33.6959583,19.4613158 C36.4712917,19.9225439 36.1837917,21.9498246 36.6207917,24.3621053 C36.9447083,26.4028947 36.7722083,28.8016667 37.5570833,30.6986842 C38.067875,31.9144737 39.5676667,33.7960526 40.0247917,35.5058772 C38.69175,36.9416667 37.1459583,38.1941228 35.411375,39.2130702 C33.7755,38.4787719 32.0658333,36.8953509 31.1027083,36.3829825 C29.678625,35.7046491 28.0695833,35.0861404 27.1495833,33.7410526 C26.435625,32.7394737 26.5841667,31.5709649 25.6565,30.5346491 C24.3100417,29.2291228 23.2894167,30.217193 22.0905417,31.2052632 C21.23475,31.9115789 20.2869583,32.6169298 19.0660417,32.4876316 C17.48,32.2685965 17.321875,31.0942982 16.17475,30.3310526 C14.786125,29.4375439 14.17375,29.425 13.3534167,27.742193 C10.8521667,22.9967544 14.4430417,18.7714035 18.8494583,17.0191228 C19.4685417,17.1754386 21.2865,15.850614 22.3262917,15.4279825 C23.3785417,14.8963158 24.4614583,14.795 25.783,14.4842982 C25.4111667,13.2752632 24.3244167,14.0221053 23.5414583,13.4508772 C22.816,13.0649123 22.701,12.6934211 22.3512083,11.8838596 C23.1025417,11.0376316 24.6320417,11.0704386 24.1749167,9.58157895 C23.8030833,8.37157895 22.1585833,7.9672807 21.2845833,8.74885965 C20.162375,9.71184211 21.5097917,11.1273684 19.725375,11.5818421 C19.49825,11.6522807 19.1465417,11.560614 18.7727917,11.4699123 C18.080875,11.3000877 17.31325,11.1312281 17.1158333,11.9871053 C16.8475,13.0909649 23.68425,13.9159649 19.596,14.7824561 C18.828375,14.9194737 17.2289167,15.3170175 16.6175,15.3044737 C16.0875417,15.3054386 15.6035833,15.0275439 15.1244167,14.7496491 C14.4142917,14.3376316 13.716625,13.925614 12.9020417,14.4225439 C13.0678333,15.2890351 14.4056667,15.6875439 14.812,16.6833333 C14.0252083,17.4784211 13.4300833,17.005614 12.8292083,16.5337719 C12.4267083,16.2172807 12.0213333,15.9007895 11.5536667,15.9644737 C10.0174583,16.2404386 10.8895417,18.4163158 10.9901667,19.404386 C11.1205,20.4850877 11.100375,21.4094737 9.71558333,21.8417544 C8.23591667,22.3029825 8.43429167,21.6294737 8.15445833,20.3905263 C7.79604167,18.5639474 7.85929167,18.4433333 8.80995833,16.9235965 C9.54020833,15.6759649 8.94795833,14.7380702 9.89095833,13.5261404 C10.6154583,12.5863158 11.6955,12.1472807 12.35675,11.33 C13.3275417,10.2116667 13.40325,8.14868421 11.4846667,9.15412281 C10.8943333,9.54298246 10.2426667,11.3772807 9.5105,11.3000877 C7.95320833,11.1727193 9.208625,9.66070175 9.706,9.30078947 C11.0131667,8.28184211 11.0927083,8.86850877 10.761125,7.13649123 L10.6652917,6.94157895 C12.9394167,4.63736842 15.7904583,2.84745614 19.08425,1.81982456 C27.6680417,-0.856842105 36.6715833,2.45377193 41.6654583,9.40114035" id="Fill-615" fill="#AACC3A"></path>
                    <path d="M42.6170833,31.6713158 C41.4498333,31.8305263 40.3295417,29.8341228 39.7372917,28.897193 C38.9754167,27.6707895 39.0520833,26.7049123 39.0587917,25.4939474 C39.7487917,25.1417544 40.8930417,25.5055263 41.5907083,26.6875439 C42.5950417,28.3114912 42.4072083,30.0020175 42.6170833,31.6713158" id="Fill-616" fill="#AACC3A"></path>
                    <path d="M25.1207917,42.0122807 C16.4085833,42.0122807 8.34133333,36.3521053 5.62925,27.5347368 C4.40545833,23.5573684 4.44091667,19.4912281 5.5085,15.7685965 C5.528625,15.6991228 5.54875,15.630614 5.56983333,15.5611404 C4.44379167,19.3387719 4.38245833,23.4830702 5.62925,27.5337719 C8.34133333,36.3521053 16.4105,42.0113158 25.12175,42.0113158 C27.1217917,42.0113158 29.1563333,41.7131579 31.1659583,41.0859649 C32.3504583,40.7164035 33.4765,40.249386 34.54025,39.6945614 C34.399375,39.7678947 34.2575417,39.8402632 34.1137917,39.9107018 C33.9412917,39.9965789 33.766875,40.0785965 33.5905417,40.1596491 C33.5752083,40.1664035 33.5589167,40.1741228 33.5435833,40.1808772 C33.4803333,40.2098246 33.4170833,40.2387719 33.352875,40.2667544 C33.3519167,40.2667544 33.3509583,40.2667544 33.3509583,40.2677193 C33.3452083,40.2696491 33.3394583,40.2725439 33.3337083,40.2754386 C33.3279583,40.2773684 33.3231667,40.2792982 33.318375,40.2812281 C33.3164583,40.282193 33.3145417,40.2831579 33.3135833,40.2841228 C32.6207083,40.5880702 31.9048333,40.8563158 31.1659583,41.0869298 C29.155375,41.7141228 27.1208333,42.0122807 25.1207917,42.0122807 M35.4065833,39.2159649 L35.4046667,39.2159649 C35.4065833,39.215 35.4094583,39.2130702 35.4104167,39.2121053 C35.411375,39.2121053 35.411375,39.2130702 35.411375,39.2130702 C35.4410833,39.1957018 35.4707917,39.1783333 35.4995417,39.1609649 L35.4880417,39.1677193 C35.46025,39.1841228 35.4334167,39.1995614 35.4065833,39.2159649 M36.0275833,38.8357895 C36.156,38.7547368 36.285375,38.6707895 36.411875,38.5858772 C36.285375,38.6717544 36.1579167,38.7547368 36.0275833,38.8357895 M37.3500833,37.9210526 C37.7985833,37.5833333 38.2307917,37.2282456 38.6476667,36.8577193 C38.602625,36.8982456 38.556625,36.9387719 38.5115833,36.9783333 C38.441625,37.0391228 38.372625,37.0989474 38.3017083,37.1597368 C38.1761667,37.2658772 38.0496667,37.3710526 37.92125,37.4762281 C37.8465,37.5360526 37.77175,37.5958772 37.697,37.6547368 C37.5829583,37.7425439 37.4689167,37.8332456 37.3500833,37.9210526 M38.729125,36.7853509 L38.729125,36.784386 C38.7310417,36.7834211 38.732,36.7824561 38.7339167,36.7805263 C38.732,36.7824561 38.7310417,36.7834211 38.729125,36.7853509 M40.350625,35.1498246 C41.7545833,33.5644737 42.903625,31.7726316 43.7613333,29.8447368 C42.903625,31.7726316 41.7545833,33.5644737 40.350625,35.1498246 M43.7613333,29.8437719 C43.7651667,29.8341228 43.769,29.8264035 43.7728333,29.8167544 C43.769,29.8264035 43.7651667,29.8341228 43.7613333,29.8437719 M43.77475,29.8148246 C43.78625,29.7868421 43.7987083,29.7588596 43.8111667,29.7318421 C43.7987083,29.7598246 43.7872083,29.7868421 43.77475,29.8148246 M43.8111667,29.7308772 C43.815,29.7212281 43.8188333,29.7144737 43.8226667,29.7057895 C43.8188333,29.7135088 43.815,29.722193 43.8111667,29.7308772 M43.8245833,29.7 C43.8284167,29.6922807 43.8312917,29.6845614 43.835125,29.6768421 C43.8312917,29.6845614 43.8284167,29.6922807 43.8245833,29.7 M43.8360833,29.6729825 C43.8399167,29.6642982 43.84375,29.655614 43.8475833,29.6469298 C43.84375,29.655614 43.8399167,29.6642982 43.8360833,29.6729825 M43.8475833,29.6459649 C43.8562083,29.6276316 43.863875,29.6092982 43.8725,29.59 C43.863875,29.6092982 43.8562083,29.6276316 43.8475833,29.6459649 M43.8725,29.5890351 C43.8763333,29.5803509 43.8801667,29.5716667 43.884,29.5629825 C43.8801667,29.5716667 43.8763333,29.5803509 43.8725,29.5890351 M43.8849583,29.5600877 C43.8887917,29.5514035 43.8916667,29.5436842 43.8955,29.5359649 C43.892625,29.5436842 43.8887917,29.5514035 43.8849583,29.5600877 M43.8974167,29.5311404 C43.90125,29.5224561 43.904125,29.5147368 43.9079583,29.5060526 C43.904125,29.5147368 43.90125,29.5224561 43.8974167,29.5311404 M43.9089167,29.5041228 C43.9204167,29.4761404 43.9319167,29.4491228 43.9434167,29.4211404 C43.9319167,29.4491228 43.9204167,29.4771053 43.9089167,29.5041228 M43.9453333,29.4172807 C43.9491667,29.4095614 43.9520417,29.4018421 43.9549167,29.3941228 C43.9520417,29.4018421 43.9491667,29.4095614 43.9453333,29.4172807 M43.9568333,29.3892982 C43.9606667,29.3815789 43.9635417,29.3728947 43.967375,29.3651754 C43.9635417,29.3728947 43.9606667,29.3815789 43.9568333,29.3892982 M43.9683333,29.3613158 C43.9798333,29.3342982 43.9913333,29.3063158 44.0028333,29.2783333 C43.9913333,29.3063158 43.9807917,29.3333333 43.9683333,29.3613158 M44.0037917,29.2764035 C44.007625,29.2677193 44.0105,29.2590351 44.0143333,29.2513158 C44.0105,29.26 44.007625,29.2677193 44.0037917,29.2764035 M44.01625,29.2464912 C44.019125,29.237807 44.0229583,29.2300877 44.0258333,29.2214035 C44.0229583,29.2291228 44.019125,29.2387719 44.01625,29.2464912 M44.0267917,29.2194737 C44.0382917,29.1914912 44.0497917,29.1635088 44.0612917,29.1355263 C44.0497917,29.1625439 44.0382917,29.1914912 44.0267917,29.2194737 M44.0612917,29.1335965 C44.065125,29.1249123 44.0689583,29.1152632 44.0727917,29.1065789 C44.0689583,29.1152632 44.065125,29.1249123 44.0612917,29.1335965 M44.0727917,29.105614 C45.1221667,26.4762281 45.6387083,23.6200877 45.5323333,20.7070175 C45.5323333,20.7050877 45.5323333,20.7041228 45.5323333,20.7031579 C45.6396667,23.617193 45.123125,26.4752632 44.0727917,29.105614 M5.84104167,14.7168421 C5.908125,14.5219298 5.97808333,14.3279825 6.05091667,14.135 C6.2905,13.5039474 6.55883333,12.8883333 6.856875,12.2852632 C7.02554167,11.9465789 7.20283333,11.6127193 7.38875,11.2836842 C6.77158333,12.3769298 6.253125,13.5261404 5.84104167,14.7168421 M9.12333333,8.69385965 C9.37345833,8.37447368 9.63316667,8.06280702 9.9015,7.75982456 L9.89958333,7.75789474 C9.9015,7.75692982 9.90341667,7.75403509 9.904375,7.75307018 L9.90629167,7.755 C9.63604167,8.05991228 9.37441667,8.37254386 9.12333333,8.69385965 M11.5220417,6.12236842 L11.5210833,6.12236842 C13.6409167,4.21280702 16.192,2.72105263 19.0852083,1.81885965 C19.9659167,1.54289474 20.8504583,1.33157895 21.735,1.17912281 C21.7302083,1.18105263 21.7244583,1.18298246 21.7196667,1.18491228 C20.8399167,1.33640351 19.9601667,1.54675439 19.08425,1.81982456 C16.192,2.72201754 13.6409167,4.21280702 11.5220417,6.12236842" id="Fill-617" fill="#CEA831"></path>
                    <path d="M38.7339167,36.7805263 C39.3050833,36.2662281 39.844625,35.7210526 40.350625,35.1498246 C39.844625,35.7210526 39.3050833,36.2662281 38.7339167,36.7805263 M9.90629167,7.755 L9.904375,7.75307018 C10.4113333,7.18087719 10.9499167,6.63666667 11.5210833,6.12236842 L11.5220417,6.12236842 C11.2278333,6.3877193 10.94225,6.66078947 10.6652917,6.94157895 L10.66625,6.94254386 C10.4055833,7.20692982 10.151625,7.47710526 9.90629167,7.755" id="Fill-618" fill="#3D2729"></path>
                    <path d="M25.12175,42.0113158 C16.4105,42.0113158 8.34133333,36.3521053 5.62925,27.5337719 C4.38245833,23.4830702 4.44379167,19.3387719 5.56983333,15.5611404 C5.61966667,15.3971053 5.67045833,15.235 5.72316667,15.0738596 C5.7615,14.9542105 5.80079167,14.8355263 5.84104167,14.7168421 C6.253125,13.5261404 6.77158333,12.3769298 7.38875,11.2836842 C7.63025,10.8591228 7.886125,10.4432456 8.15733333,10.0370175 C8.46016667,9.57578947 8.783125,9.12710526 9.12333333,8.69385965 C9.37441667,8.37254386 9.63604167,8.05991228 9.90629167,7.755 C10.151625,7.47710526 10.4055833,7.20692982 10.66625,6.94254386 L10.761125,7.13649123 C11.0927083,8.86850877 11.0131667,8.28184211 9.706,9.30078947 C9.208625,9.66070175 7.95320833,11.1727193 9.5105,11.3000877 C9.52583333,11.3020175 9.54116667,11.3020175 9.55554167,11.3020175 C10.2695,11.3020175 10.9067917,9.53429825 11.4846667,9.15412281 C11.8430833,8.96596491 12.1315417,8.88587719 12.3577083,8.88587719 C12.509125,8.88587719 12.6337083,8.92254386 12.7314583,8.98719298 C12.1430417,10.0302632 11.6590833,11.1331579 11.2882083,12.2775439 C10.801375,12.639386 10.2915417,13.0060526 9.89095833,13.5261404 C8.94795833,14.7380702 9.54020833,15.6759649 8.80995833,16.9235965 C7.85929167,18.4433333 7.79604167,18.5639474 8.15445833,20.3905263 C8.374875,21.3631579 8.29916667,21.9874561 8.97383333,21.9874561 C9.15783333,21.9874561 9.39741667,21.9411404 9.71558333,21.8417544 C10.2244583,21.6825439 10.5493333,21.4577193 10.7505833,21.1817544 C10.8713333,21.802193 11.025625,22.4216667 11.2163333,23.0392105 C11.669625,24.5155263 12.2973333,25.8895614 13.0687917,27.1449123 C13.153125,27.3436842 13.2470417,27.5424561 13.3534167,27.742193 C13.843125,28.7466667 14.2580833,29.1557895 14.809125,29.512807 C18.138375,33.33 22.9875417,35.5753509 28.091625,35.5753509 C28.50275,35.5753509 28.91675,35.5608772 29.33075,35.5319298 C29.9124583,35.8407018 30.5229167,36.1070175 31.1027083,36.3829825 C32.0658333,36.8953509 33.7755,38.477807 35.4104167,39.2121053 C35.4094583,39.2130702 35.4065833,39.215 35.4046667,39.2159649 L35.4017917,39.2159649 C35.121,39.3809649 34.8325417,39.5411404 34.54025,39.6945614 C33.4765,40.249386 32.3504583,40.7164035 31.1659583,41.0859649 C29.1563333,41.7131579 27.1217917,42.0113158 25.12175,42.0113158 M36.0199167,38.8415789 C36.1684583,38.7470175 36.3150833,38.6505263 36.46075,38.5530702 C36.4444583,38.5636842 36.4281667,38.5752632 36.411875,38.5858772 C36.285375,38.6707895 36.156,38.7547368 36.0275833,38.8357895 C36.0247083,38.8377193 36.0218333,38.8396491 36.0199167,38.8415789 M37.2935417,37.9625439 C38.2825417,37.2224561 39.194875,36.399386 40.0247917,35.5058772 C39.7325,34.4135965 39.0156667,33.2518421 38.4023333,32.2377193 C39.2111667,31.6529825 39.9634583,31.0045614 40.6534583,30.3021053 C41.184375,31.0238596 41.8235833,31.68 42.483875,31.68 C42.5279583,31.68 42.5720417,31.6771053 42.6170833,31.6713158 C42.4800417,30.5828947 42.512625,29.4848246 42.2730417,28.402193 C43.9405417,26.1433333 45.065625,23.5042982 45.5323333,20.7070175 C45.6387083,23.6200877 45.1221667,26.4762281 44.0727917,29.105614 C44.0727917,29.105614 44.0727917,29.105614 44.0727917,29.1065789 C44.0689583,29.1152632 44.065125,29.1249123 44.0612917,29.1335965 C44.0612917,29.1345614 44.0612917,29.1345614 44.0612917,29.1355263 C44.0497917,29.1635088 44.0382917,29.1914912 44.0267917,29.2194737 C44.0267917,29.2204386 44.0267917,29.2204386 44.0258333,29.2214035 C44.0229583,29.2300877 44.019125,29.237807 44.01625,29.2464912 C44.0152917,29.2484211 44.0143333,29.249386 44.0143333,29.2513158 C44.0105,29.2590351 44.007625,29.2677193 44.0037917,29.2764035 C44.0037917,29.2764035 44.0028333,29.2773684 44.0028333,29.2783333 C43.9913333,29.3063158 43.9798333,29.3342982 43.9683333,29.3613158 C43.9683333,29.3622807 43.967375,29.3642105 43.967375,29.3651754 C43.9635417,29.3728947 43.9606667,29.3815789 43.9568333,29.3892982 C43.9568333,29.3902632 43.955875,29.392193 43.9549167,29.3941228 C43.9520417,29.4018421 43.9491667,29.4095614 43.9453333,29.4172807 C43.9453333,29.4182456 43.944375,29.4201754 43.9434167,29.4211404 C43.9319167,29.4491228 43.9204167,29.4761404 43.9089167,29.5041228 C43.9089167,29.5050877 43.9079583,29.5060526 43.9079583,29.5060526 C43.904125,29.5147368 43.90125,29.5224561 43.8974167,29.5311404 C43.8964583,29.5330702 43.8964583,29.5340351 43.8955,29.5359649 C43.8916667,29.5436842 43.8887917,29.5514035 43.8849583,29.5600877 C43.8849583,29.5600877 43.884,29.5620175 43.884,29.5629825 C43.8801667,29.5716667 43.8763333,29.5803509 43.8725,29.5890351 L43.8725,29.59 C43.863875,29.6092982 43.8562083,29.6276316 43.8475833,29.6459649 L43.8475833,29.6469298 C43.84375,29.655614 43.8399167,29.6642982 43.8360833,29.6729825 C43.8360833,29.6739474 43.835125,29.6758772 43.835125,29.6768421 C43.8312917,29.6845614 43.8284167,29.6922807 43.8245833,29.7 C43.8245833,29.7009649 43.8226667,29.7038596 43.8226667,29.7057895 C43.8188333,29.7144737 43.815,29.7212281 43.8111667,29.7308772 C43.8111667,29.7308772 43.8111667,29.7308772 43.8111667,29.7318421 C43.7987083,29.7588596 43.78625,29.7868421 43.77475,29.8148246 C43.7737917,29.8148246 43.7737917,29.8167544 43.7728333,29.8167544 C43.769,29.8264035 43.7651667,29.8341228 43.7613333,29.8437719 C43.7613333,29.8437719 43.7613333,29.8437719 43.7613333,29.8447368 C42.903625,31.7726316 41.7545833,33.5644737 40.350625,35.1498246 C39.844625,35.7210526 39.3050833,36.2662281 38.7339167,36.7805263 C38.732,36.7824561 38.7310417,36.7834211 38.729125,36.784386 L38.7281667,36.784386 C38.7013333,36.8094737 38.6745,36.8335965 38.6476667,36.8577193 C38.2307917,37.2282456 37.7985833,37.5833333 37.3500833,37.9210526 C37.3309167,37.9345614 37.31175,37.9480702 37.2935417,37.9625439" id="Fill-619" fill="#298191"></path>
                    <path d="M35.411375,39.2130702 C35.411375,39.2130702 35.411375,39.2121053 35.4104167,39.2121053 C33.7755,38.477807 32.0658333,36.8953509 31.1027083,36.3829825 C30.5229167,36.1070175 29.9124583,35.8407018 29.33075,35.5319298 C30.659,35.4364035 31.9968333,35.1884211 33.324125,34.7744737 C35.1919167,34.1916667 36.8958333,33.3261404 38.4023333,32.2377193 C39.0156667,33.2518421 39.7325,34.4135965 40.0247917,35.5058772 C39.194875,36.399386 38.2825417,37.2224561 37.2935417,37.9625439 C37.28875,37.9654386 37.2849167,37.9683333 37.280125,37.9712281 C37.099,38.1063158 36.9073333,38.2414035 36.7242917,38.3668421 C36.6380417,38.4295614 36.549875,38.4913158 36.46075,38.5530702 C36.3150833,38.6505263 36.1684583,38.7470175 36.0199167,38.8415789 C35.8953333,38.9197368 35.7688333,38.9959649 35.641375,39.0712281 L35.4995417,39.1609649 C35.4707917,39.1783333 35.4410833,39.1957018 35.411375,39.2130702 M14.809125,29.512807 C14.2580833,29.1557895 13.843125,28.7466667 13.3534167,27.742193 C13.2470417,27.5424561 13.153125,27.3436842 13.0687917,27.1449123 C13.58725,27.9892105 14.1699167,28.7794737 14.809125,29.512807 M8.97383333,21.9874561 C8.29916667,21.9874561 8.374875,21.3631579 8.15445833,20.3905263 C7.79604167,18.5639474 7.85929167,18.4433333 8.80995833,16.9235965 C9.54020833,15.6759649 8.94795833,14.7380702 9.89095833,13.5261404 C10.2915417,13.0060526 10.801375,12.639386 11.2882083,12.2775439 C10.3806667,15.0825439 10.1564167,18.1364912 10.7505833,21.1817544 C10.5493333,21.4577193 10.2244583,21.6825439 9.71558333,21.8417544 C9.39741667,21.9411404 9.15783333,21.9874561 8.97383333,21.9874561 M9.55554167,11.3020175 C9.54116667,11.3020175 9.52583333,11.3020175 9.5105,11.3000877 C7.95320833,11.1727193 9.208625,9.66070175 9.706,9.30078947 C11.0131667,8.28184211 11.0927083,8.86850877 10.761125,7.13649123 L10.66625,6.94254386 L10.6652917,6.94157895 C10.94225,6.66078947 11.2278333,6.3877193 11.5220417,6.12236842 C13.6409167,4.21280702 16.192,2.72201754 19.08425,1.81982456 C19.9601667,1.54675439 20.8399167,1.33640351 21.7196667,1.18491228 C17.793375,2.70850877 14.6855,5.52219298 12.7314583,8.98719298 C12.6337083,8.92254386 12.509125,8.88587719 12.3577083,8.88587719 C12.1315417,8.88587719 11.8430833,8.96596491 11.4846667,9.15412281 C10.9067917,9.53429825 10.2695,11.3020175 9.55554167,11.3020175" id="Fill-620" fill="#90B13E"></path>
                    <path d="M42.483875,31.68 C41.8235833,31.68 41.184375,31.0238596 40.6534583,30.3021053 C41.239,29.7057895 41.7795,29.0708772 42.2730417,28.402193 C42.512625,29.4848246 42.4800417,30.5828947 42.6170833,31.6713158 C42.5720417,31.6771053 42.5279583,31.68 42.483875,31.68" id="Fill-621" fill="#90B13E"></path>
                    <path d="M32.950375,12.7648246 C32.5555417,12.7648246 32.1779583,12.6905263 31.832,12.5535088 C31.564625,12.2032456 31.8770417,11.8047368 33.12575,11.6850877 C33.2235,11.6773684 33.3260417,11.6744737 33.4314583,11.6744737 C33.6077917,11.6744737 33.79275,11.6831579 33.9815417,11.6918421 C34.169375,11.7005263 34.3600833,11.7092105 34.548875,11.7092105 C34.819125,11.7092105 35.0855417,11.6908772 35.3299167,11.6281579 C34.7664167,12.3219298 33.9096667,12.7648246 32.950375,12.7648246" id="Fill-622" fill="#96CED1"></path>
                    <path d="M31.832,12.5535088 C30.6867917,12.1038596 29.877,10.9826316 29.877,9.67131579 C29.877,7.96149123 31.25125,6.57587719 32.950375,6.57587719 C34.6475833,6.57587719 36.0227917,7.96149123 36.0227917,9.67131579 C36.0227917,10.4133333 35.7630833,11.0955263 35.3299167,11.6281579 C35.0855417,11.6908772 34.819125,11.7092105 34.548875,11.7092105 C34.3600833,11.7092105 34.169375,11.7005263 33.9815417,11.6918421 C33.79275,11.6831579 33.6077917,11.6744737 33.4314583,11.6744737 C33.3260417,11.6744737 33.2235,11.6773684 33.12575,11.6850877 C31.8770417,11.8047368 31.564625,12.2032456 31.832,12.5535088" id="Fill-623" fill="#D7E390"></path>
                    <polygon id="Fill-626" fill="#563338" points="13.095625 51.1326316 22.17775 51.1326316 22.17775 51.1297368 13.095625 51.1297368"></polygon>
                    <polygon id="Fill-627" fill="#3C2629" points="10.0212917 52.8405263 13.09275 52.8405263 13.09275 52.8376316 10.0212917 52.8376316"></polygon>
                    <path d="M22.17775,45.5969298 C21.6190417,45.5342105 21.0612917,45.4531579 20.5083333,45.3518421 C21.06225,45.452193 21.6180833,45.5332456 22.17775,45.5940351 L22.17775,45.5969298 M2.16008333,13.9265789 C3.22095833,10.7568421 4.95170833,7.76754386 7.35425,5.1854386 C7.35616667,5.18736842 7.35904167,5.19026316 7.36191667,5.19315789 C4.9565,7.77333333 3.222875,10.7607018 2.16008333,13.9265789" id="Fill-628" fill="#563338"></path>
                    <path d="M7.35616667,3.63578947 C7.36479167,3.62614035 7.374375,3.61745614 7.383,3.60877193 C7.38108333,3.61070175 7.37916667,3.61263158 7.37629167,3.61552632 L7.35616667,3.63578947" id="Fill-629" fill="#C9A432"></path>
                    <path d="M7.37629167,3.61552632 C7.37916667,3.61263158 7.38108333,3.61070175 7.383,3.60877193 C7.385875,3.60587719 7.38779167,3.60298246 7.39066667,3.60105263 L7.37629167,3.61552632" id="Fill-630" fill="#3C2629"></path>
                    <path d="M24.8160417,43.6815789 C19.213625,43.6815789 13.6121667,41.5336842 9.34566667,37.2378947 C1.00816667,28.8431579 0.8165,15.2861404 8.79941667,6.65017544 L8.80133333,6.65210526 C0.827041667,15.2861404 1.01104167,28.8392982 9.352375,37.2388596 C13.6169583,41.5317544 19.2165,43.6786842 24.8189167,43.6777193 C28.1472083,43.6777193 31.478375,42.9192982 34.5277917,41.404386 C31.4774167,42.922193 28.14625,43.6815789 24.8160417,43.6815789" id="Fill-632" fill="#563338"></path>
                    <path d="M33.3135833,40.2841228 C33.3145417,40.2831579 33.3164583,40.282193 33.318375,40.2812281 C33.3164583,40.282193 33.3145417,40.2831579 33.3135833,40.2841228 M33.3337083,40.2754386 C33.3394583,40.2725439 33.3452083,40.2696491 33.3509583,40.2677193 C33.3452083,40.2696491 33.3394583,40.2725439 33.3337083,40.2754386 M33.352875,40.2667544 C33.4170833,40.2387719 33.4803333,40.2098246 33.5435833,40.1808772 C33.5589167,40.1741228 33.5752083,40.1664035 33.5905417,40.1596491 C33.5119583,40.1953509 33.4324167,40.2310526 33.352875,40.2667544 M34.1137917,39.9107018 C34.2575417,39.8402632 34.399375,39.7678947 34.54025,39.6945614 C34.8335,39.5411404 35.121,39.3819298 35.4046667,39.2159649 L35.4065833,39.2159649 C34.9868333,39.4620175 34.5555833,39.6935965 34.1137917,39.9107018" id="Fill-633" fill="#A88934"></path>
                    <path d="M34.54025,39.6945614 C34.8325417,39.5411404 35.121,39.3809649 35.4017917,39.2159649 L35.4046667,39.2159649 C35.121,39.3819298 34.8335,39.5411404 34.54025,39.6945614" id="Fill-634" fill="#246A78"></path>
                    <path d="M35.4880417,39.1677193 L35.4995417,39.1609649 C35.6595833,39.0654386 35.8186667,38.9679825 35.9758333,38.8695614 C35.9930833,38.8579825 36.009375,38.8473684 36.0275833,38.8357895 C36.1579167,38.7547368 36.285375,38.6717544 36.411875,38.5858772 C36.7319583,38.3726316 37.044375,38.1507018 37.3500833,37.9210526 C37.4689167,37.8332456 37.5829583,37.7425439 37.697,37.6547368 C36.9993333,38.2037719 36.262375,38.709386 35.4880417,39.1677193" id="Fill-635" fill="#A88934"></path>
                    <path d="M35.9758333,38.8695614 C35.9902083,38.8599123 36.0045833,38.8502632 36.0199167,38.8415789 C36.0218333,38.8396491 36.0247083,38.8377193 36.0275833,38.8357895 C36.009375,38.8473684 35.9930833,38.8579825 35.9758333,38.8695614 M36.411875,38.5858772 C36.4281667,38.5752632 36.4444583,38.5636842 36.46075,38.5530702 C36.7444167,38.3620175 37.021375,38.1651754 37.2935417,37.9625439 C37.31175,37.9480702 37.3309167,37.9345614 37.3500833,37.9210526 C37.044375,38.1507018 36.7319583,38.3726316 36.411875,38.5858772" id="Fill-636" fill="#246A78"></path>
                    <path d="M35.4995417,39.1609649 L35.641375,39.0712281 C35.7688333,38.9959649 35.8953333,38.9197368 36.0199167,38.8415789 C36.0045833,38.8502632 35.9902083,38.8599123 35.9758333,38.8695614 C35.8186667,38.9679825 35.6595833,39.0654386 35.4995417,39.1609649 M36.46075,38.5530702 C36.549875,38.4913158 36.6380417,38.4295614 36.7242917,38.3668421 C36.9073333,38.2414035 37.099,38.1063158 37.280125,37.9712281 C37.2849167,37.9683333 37.28875,37.9654386 37.2935417,37.9625439 C37.021375,38.1651754 36.7444167,38.3620175 36.46075,38.5530702" id="Fill-637" fill="#76933D"></path>
                    <path d="M37.92125,37.4762281 C38.0496667,37.3710526 38.1761667,37.2658772 38.3017083,37.1597368 C38.1761667,37.2658772 38.0496667,37.3720175 37.92125,37.4762281 M38.5115833,36.9783333 C38.556625,36.9387719 38.602625,36.8982456 38.6476667,36.8577193 C38.6745,36.8335965 38.7022917,36.8094737 38.729125,36.784386 L38.729125,36.7853509 C38.65725,36.85 38.5844167,36.9146491 38.5115833,36.9783333" id="Fill-638" fill="#A88934"></path>
                    <path d="M38.6476667,36.8577193 C38.6745,36.8335965 38.7013333,36.8094737 38.7281667,36.784386 L38.729125,36.784386 C38.7022917,36.8094737 38.6745,36.8335965 38.6476667,36.8577193" id="Fill-639" fill="#246A78"></path>
                    <path d="M5.5085,15.7685965 C5.666625,15.2166667 5.84775,14.6705263 6.05091667,14.135 C5.97808333,14.3279825 5.908125,14.5219298 5.84104167,14.7168421 C5.74520833,14.9957018 5.65416667,15.2774561 5.56983333,15.5611404 C5.54875,15.630614 5.528625,15.6991228 5.5085,15.7685965" id="Fill-640" fill="#A88934"></path>
                    <path d="M5.56983333,15.5611404 C5.65416667,15.2774561 5.74520833,14.9957018 5.84104167,14.7168421 C5.80079167,14.8355263 5.7615,14.9542105 5.72316667,15.0738596 C5.67045833,15.235 5.61966667,15.3971053 5.56983333,15.5611404" id="Fill-641" fill="#246A78"></path>
                    <path d="M6.856875,12.2852632 C7.66570833,10.6526316 8.68729167,9.12807018 9.89958333,7.75789474 L9.9015,7.75982456 C9.63316667,8.06280702 9.37345833,8.37447368 9.12333333,8.69385965 C8.48029167,9.51307018 7.9005,10.3795614 7.38875,11.2836842 C7.20283333,11.6127193 7.02554167,11.9465789 6.856875,12.2852632" id="Fill-642" fill="#A88934"></path>
                    <path d="M7.38875,11.2836842 C7.9005,10.3795614 8.48029167,9.51307018 9.12333333,8.69385965 C8.783125,9.12710526 8.46016667,9.57578947 8.15733333,10.0370175 C7.886125,10.4432456 7.63025,10.8591228 7.38875,11.2836842" id="Fill-643" fill="#246A78"></path>
                    <path d="M27.5204583,51.1297368 L27.5156667,51.1297368 L27.5156667,45.5940351 C27.516625,45.5940351 27.5185417,45.5940351 27.5204583,45.5930702 L27.5204583,51.1297368" id="Fill-645" fill="#3C2629"></path>
                    <polyline id="Fill-646" fill="#563338" points="31.119 51.1326316 27.5156667 51.1326316 27.5156667 51.1297368 31.121875 51.1297368 31.119 51.1326316"></polyline>
                    <path d="M36.6121667,42.6307895 C38.2298333,41.7073684 39.7631667,40.579386 41.1719167,39.2449123 L41.178625,39.2516667 C39.767,40.5832456 38.23175,41.7092982 36.6121667,42.6307895" id="Fill-647" fill="#563338"></path>
                </g>
            </g>
        </g>
    </g>
</svg>