<?xml version="1.0" encoding="UTF-8"?>
<svg width="100px" height="100px" viewBox="0 0 100 100" version="1.1" xmlns="http://www.w3.org/2000/svg" xmlns:xlink="http://www.w3.org/1999/xlink">
    <!-- Generator: Sketch 49.1 (51147) - http://www.bohemiancoding.com/sketch -->
    <title>Group 12</title>
    <desc>Created with Sketch.</desc>
    <defs></defs>
    <g id="Page-1" stroke="none" stroke-width="1" fill="none" fill-rule="evenodd">
        <g id="Avaleht_700px" transform="translate(-170.000000, -425.000000)">
            <g id="Group-2" transform="translate(120.000000, 425.000000)">
                <g id="Group-12" transform="translate(50.000000, 0.000000)">
                    <circle id="Oval-9-Copy-4" fill="#FFFFFF" opacity="0.6" cx="50" cy="50" r="50"></circle>
                    <g id="Group-7-Copy" transform="translate(18.000000, 17.000000)">
                        <path d="M54.5149091,43.3047273 L29.1861818,43.3047273 C26.8985455,43.3047273 25.044,40.7574545 25.044,37.6243636 C25.044,36.0698182 25.5032727,34.6167273 26.3378182,33.5236364 C27.1069091,32.5123636 28.1170909,31.9527273 29.1861818,31.9527273 L54.5061818,31.9527273 C54.1134545,32.2450909 53.7458182,32.604 53.4294545,33.0218182 C52.5272727,34.2 51.9687273,35.8287273 51.9687273,37.6243636 C51.9687273,40.0636364 52.9941818,42.1941818 54.5149091,43.3047273" id="Fill-212" fill="#BDBDBD"></path>
                        <path d="M33.8792727,9.00545455 C32.5843636,6.59672727 30.3196364,4.71054545 27.4538182,3.98072727 C24.5901818,3.25090909 21.7025455,3.82363636 19.4094545,5.31818182 C20.7076364,7.72581818 22.9690909,9.61309091 25.8338182,10.344 C28.6985455,11.0738182 31.5883636,10.5 33.8792727,9.00545455" id="Fill-213" fill="#9AC63D"></path>
                        <path d="M21.5389091,23.3858182 C23.508,28.5774545 28.6090909,31.5883636 33.5356364,30.7712727 C38.4556364,31.5992727 43.5763636,28.5774545 45.5465455,23.3858182 C47.7698182,17.5287273 45.1690909,11.1010909 39.7396364,9.03927273 C37.6996364,8.26363636 35.5472727,8.21345455 33.5356364,8.77418182 C31.536,8.21345455 29.3847273,8.26363636 27.3447273,9.03927273 C21.9054545,11.1010909 19.3145455,17.5287273 21.5389091,23.3858182" id="Fill-214" fill="#E05A29"></path>
                        <path d="M27.3447273,9.03927273 C28.1912727,8.71309091 29.0574545,8.52 29.9149091,8.43709091 C29.916,8.43818182 29.9170909,8.43927273 29.9170909,8.44036364 C29.0530909,8.52109091 28.1890909,8.71854545 27.3447273,9.03927273" id="Fill-215" fill="#879A3C"></path>
                        <path d="M38.6727273,30.2825455 L28.4116364,30.2825455 C28.3090909,30.2454545 28.2076364,30.2072727 28.1072727,30.168 C25.2316364,29.0312727 22.7716364,26.6356364 21.5389091,23.3858182 C21,21.9665455 20.7436364,20.5145455 20.7425455,19.0996364 C20.7370909,14.6716364 23.2232727,10.6014545 27.3447273,9.03927273 C28.1890909,8.71854545 29.0530909,8.52109091 29.9170909,8.44036364 C30.1810909,8.86909091 28.476,9.516 28.0549091,9.92618182 C26.6443636,11.3029091 25.824,11.4883636 24.6763636,13.1138182 C22.8523636,15.7003636 22.6396364,19.2632727 23.7829091,22.08 C25.1912727,25.6505455 28.7629091,24.7516364 31.6898182,26.16 C33.6534545,27.0316364 36.7330909,28.4563636 39.2629091,28.4563636 C39.6927273,28.4563636 40.1061818,28.416 40.4956364,28.3232727 C41.5669091,28.0178182 42.6272727,27.4461818 43.6287273,26.7218182 C42.2890909,28.3712727 40.5621818,29.5963636 38.6727273,30.2825455" id="Fill-216" fill="#C9482C"></path>
                        <path d="M31.2294545,2.56472727 C32.4436364,4.09418182 34.2163636,6.60763636 32.9814545,8.56909091 C32.316,9.624 33.3654545,10.2589091 34.0265455,9.20836364 C35.7916364,6.40909091 34.3941818,3.40036364 32.5341818,1.05709091 C31.9581818,0.328363636 30.7396364,1.94727273 31.2294545,2.56472727" id="Fill-217" fill="#544436"></path>
                        <path d="M42.9905455,19.8294545 C41.8494545,19.8294545 40.3778182,18.5312727 39.4461818,16.5894545 C38.3465455,14.3029091 38.4098182,11.9934545 39.5836364,11.4283636 C39.7603636,11.3432727 39.9512727,11.3029091 40.1530909,11.3029091 C41.2952727,11.3029091 42.7647273,12.6021818 43.6974545,14.544 C44.7970909,16.8305455 44.7349091,19.14 43.56,19.7050909 C43.3832727,19.7890909 43.1923636,19.8294545 42.9905455,19.8294545" id="Fill-218" fill="#E88153"></path>
                        <path d="M56.8123636,43.3047273 L56.8941818,44.9574545 C56.7949091,44.9749091 56.712,44.9749091 56.6105455,44.9749091 L29.1861818,44.9749091 C28.2185455,44.9749091 27.2989091,44.6749091 26.4905455,44.1403636 C26.1370909,43.8981818 25.8054545,43.6221818 25.4945455,43.3047273 C24.2007273,41.9509091 23.3738182,39.9054545 23.3738182,37.6243636 C23.3738182,35.7021818 23.9498182,33.8901818 25.0101818,32.5123636 C25.1596364,32.3116364 25.3276364,32.1196364 25.4945455,31.9527273 C25.8054545,31.6265455 26.1370909,31.3429091 26.4981818,31.1170909 C27.3163636,30.5738182 28.2447273,30.2825455 29.1861818,30.2825455 L56.6105455,30.2825455 C56.712,30.2825455 56.7949091,30.2825455 56.8941818,30.2989091 L56.8123636,31.9527273 L29.1861818,31.9527273 C28.1170909,31.9527273 27.1069091,32.5123636 26.3378182,33.5236364 C25.5032727,34.6167273 25.044,36.0698182 25.044,37.6243636 C25.044,40.7574545 26.8985455,43.3047273 29.1861818,43.3047273 L56.8123636,43.3047273" id="Fill-219" fill="#41A69E"></path>
                        <path d="M26.4905455,44.1403636 C27.2989091,44.6749091 28.2185455,44.9749091 29.1861818,44.9749091 L14.6781818,44.9749091 C11.4709091,44.9749091 8.85490909,41.676 8.85490909,37.6243636 C8.85490909,33.5727273 11.4709091,30.2825455 14.6781818,30.2825455 L29.1861818,30.2825455 C28.2447273,30.2825455 27.3163636,30.5738182 26.4981818,31.1170909 C26.1370909,31.3429091 25.8054545,31.6265455 25.4945455,31.9527273 C25.3276364,32.1196364 25.1596364,32.3116364 25.0101818,32.5123636 C23.9498182,33.8901818 23.3738182,35.7021818 23.3738182,37.6243636 C23.3738182,39.9054545 24.2007273,41.9509091 25.4945455,43.3047273 C25.8054545,43.6221818 26.1370909,43.8981818 26.4905455,44.1403636" id="Fill-220" fill="#39928A"></path>
                        <path d="M58.0614545,57.9992727 L32.8756364,57.9992727 C30.5869091,57.9992727 28.7312727,55.4509091 28.7312727,52.3265455 C28.7312727,50.7730909 29.1916364,49.3189091 30.0272727,48.216 C30.7952727,47.2058182 31.8043636,46.6461818 32.8756364,46.6461818 L58.0516364,46.6461818 C57.6523636,46.9385455 57.2934545,47.2974545 56.9749091,47.7152727 C56.0727273,48.9010909 55.5130909,50.5210909 55.5130909,52.3265455 C55.5130909,54.7658182 56.5407273,56.8865455 58.0614545,57.9992727" id="Fill-221" fill="#BDBDBD"></path>
                        <path d="M60.4145455,57.9992727 L60.3992727,59.6683636 L32.8756364,59.6683636 C31.9069091,59.6683636 30.9883636,59.3672727 30.1778182,58.8327273 C29.8254545,58.5916364 29.4916364,58.3145455 29.184,57.9992727 C27.888,56.6541818 27.06,54.6065455 27.06,52.3265455 C27.06,50.4130909 27.6381818,48.5912727 28.692,47.2058182 C28.8414545,47.0050909 29.0072727,46.8218182 29.1752727,46.6461818 C29.484,46.32 29.8254545,46.0363636 30.1854545,45.8116364 C31.0036364,45.2683636 31.9309091,44.9749091 32.8756364,44.9749091 L60.3992727,44.9749091 L60.4145455,46.6461818 L32.8756364,46.6461818 C31.8043636,46.6461818 30.7952727,47.2058182 30.0272727,48.216 C29.1916364,49.3189091 28.7312727,50.7730909 28.7312727,52.3265455 C28.7312727,55.4509091 30.5869091,57.9992727 32.8756364,57.9992727 L60.4145455,57.9992727" id="Fill-222" fill="#60566C"></path>
                        <path d="M30.1778182,58.8327273 C30.9883636,59.3672727 31.9069091,59.6683636 32.8756364,59.6683636 L5.83527273,59.6683636 C2.628,59.6683636 0.0130909091,56.376 0.0130909091,52.3265455 C0.0130909091,48.2749091 2.628,44.9749091 5.83527273,44.9749091 L32.8756364,44.9749091 C31.9309091,44.9749091 31.0036364,45.2683636 30.1854545,45.8116364 C29.8254545,46.0363636 29.484,46.32 29.1752727,46.6461818 C29.0072727,46.8218182 28.8414545,47.0050909 28.692,47.2058182 C27.6381818,48.5912727 27.06,50.4130909 27.06,52.3265455 C27.06,54.6065455 27.888,56.6541818 29.184,57.9992727 C29.4916364,58.3145455 29.8254545,58.5916364 30.1778182,58.8327273" id="Fill-223" fill="#4C4555"></path>
                        <path d="M22.6952727,43.3047273 L20.1141818,43.3047273 C19.0538182,41.7087273 18.4592727,39.7123636 18.4592727,37.6243636 C18.4592727,35.5363636 19.0461818,33.5389091 20.1054545,31.9527273 L22.6865455,31.9527273 C21.6272727,33.5389091 21.0316364,35.5363636 21.0316364,37.6243636 C21.0316364,39.7123636 21.6272727,41.7087273 22.6952727,43.3047273" id="Fill-224" fill="#317973"></path>
                        <path d="M17.9236364,43.3047273 L13.6996364,43.3047273 L13.6821818,43.2796364 C12.2552727,42.2934545 11.3149091,40.44 11.3149091,37.6287273 C11.3149091,34.8534545 12.4385455,33.0785455 13.6723636,31.9767273 L13.6909091,31.9527273 L17.9170909,31.9527273 C16.848,33.5389091 16.2632727,35.5363636 16.2632727,37.6243636 C16.2632727,39.7123636 16.8556364,41.7087273 17.9236364,43.3047273" id="Fill-225" fill="#317973"></path>
                        <path d="M13.2621818,58.0036364 L6.73090909,58.0036364 C4.47490909,58.0036364 2.57781818,55.4061818 2.57781818,52.3330909 C2.57781818,49.2589091 4.47490909,46.6527273 6.73090909,46.6527273 L13.2523636,46.6527273 C12.1941818,48.2487273 11.6094545,50.2538182 11.6094545,52.3330909 C11.6094545,54.42 12.2007273,56.4174545 13.2621818,58.0036364" id="Fill-226" fill="#3D3845"></path>
                        <path d="M25.044,58.0036364 L19.1978182,58.0036364 C18.1363636,56.4174545 17.5429091,54.42 17.5429091,52.3330909 C17.5429091,50.2538182 18.1287273,48.2487273 19.188,46.6527273 L25.0374545,46.6527273 C23.976,48.2487273 23.3890909,50.2538182 23.3890909,52.3330909 C23.3890909,54.42 23.9836364,56.4174545 25.044,58.0036364" id="Fill-227" fill="#3D3845"></path>
                        <path d="M52.0101818,36.7789091 C52.1552727,35.3203636 52.6712727,34.0112727 53.4294545,33.0218182 C53.7447273,32.6061818 54.1112727,32.2472727 54.5018182,31.956 L54.528,31.956 C54.1352727,32.2483636 53.7665455,32.6072727 53.4501818,33.024 C52.6985455,34.0112727 52.1792727,35.3061818 52.0374545,36.7505455 L52.0101818,36.7789091" id="Fill-228" fill="#559242"></path>
                        <path d="M45.4843636,43.3047273 L29.1861818,43.3047273 C28.9865455,43.3047273 28.7901818,43.2850909 28.5970909,43.2469091 C26.5996364,42.8410909 25.0658182,40.4749091 25.0658182,37.6276364 C25.0658182,36.0741818 25.5261818,34.62 26.3607273,33.5258182 C27.1298182,32.5156364 28.1389091,31.956 29.2069091,31.956 L54.5018182,31.956 C54.1112727,32.2472727 53.7447273,32.6061818 53.4294545,33.0218182 C52.6712727,34.0112727 52.1552727,35.3203636 52.0101818,36.7789091 L45.4843636,43.3047273" id="Fill-229" fill="#A6A6A6"></path>
                        <path d="M45.48,43.3090909 L29.2069091,43.3090909 C28.9996364,43.3090909 28.7967273,43.2883636 28.5970909,43.2469091 C28.7901818,43.2850909 28.9865455,43.3047273 29.1861818,43.3047273 L45.4843636,43.3047273 L45.48,43.3090909" id="Fill-230" fill="#378A85"></path>
                        <path d="M55.548,51.5421818 C55.6854545,50.0541818 56.2058182,48.7265455 56.9749091,47.7152727 C57.2923636,47.2996364 57.6501818,46.9407273 58.0483636,46.6483636 L58.0767273,46.6483636 C57.6763636,46.9418182 57.3185455,47.3007273 57.0010909,47.7185455 C56.2407273,48.7210909 55.7214545,50.0323636 55.5796364,51.5105455 L55.548,51.5421818" id="Fill-231" fill="#559242"></path>
                        <path d="M49.092,57.9992727 L32.8756364,57.9992727 C32.7763636,57.9992727 32.6781818,57.9938182 32.5810909,57.9850909 C30.4418182,57.7603636 28.7574545,55.3058182 28.7574545,52.3287273 C28.7574545,50.7752727 29.2189091,49.3221818 30.0523636,48.2192727 C30.8214545,47.2090909 31.8316364,46.6483636 32.9018182,46.6483636 L58.0483636,46.6483636 C57.6501818,46.9407273 57.2923636,47.2996364 56.9749091,47.7152727 C56.2058182,48.7265455 55.6854545,50.0541818 55.548,51.5421818 L49.092,57.9992727" id="Fill-232" fill="#A6A6A6"></path>
                        <path d="M49.0898182,58.0014545 L32.9018182,58.0014545 C32.7938182,58.0014545 32.6869091,57.996 32.5810909,57.9850909 C32.6781818,57.9938182 32.7763636,57.9992727 32.8756364,57.9992727 L49.092,57.9992727 L49.0898182,58.0014545" id="Fill-233" fill="#4D4758"></path>
                        <path d="M25.2065455,10.1629091 C24.1003636,9.804 23.0945455,9.26945455 22.212,8.59854545 C23.0956364,9.26836364 24.1036364,9.80181818 25.212,10.1585455 C25.2109091,10.1596364 25.2087273,10.1618182 25.2065455,10.1629091" id="Fill-236" fill="#7FA640"></path>
                        <path d="M28.4116364,30.2825455 L28.4105455,30.2825455 C28.3090909,30.2454545 28.2076364,30.2072727 28.1072727,30.168 C28.2076364,30.2072727 28.3090909,30.2454545 28.4116364,30.2825455" id="Fill-237" fill="#A43D2B"></path>
                        <path d="M11.2101818,31.7301818 C12.18,30.8203636 13.3810909,30.2825455 14.6781818,30.2825455 L28.4116364,30.2825455 C28.4138182,30.2836364 28.4170909,30.2847273 28.4203636,30.2858182 L14.6738182,30.2858182 C13.3789091,30.2858182 12.18,30.8225455 11.2101818,31.7301818" id="Fill-238" fill="#317873"></path>
                        <path d="M3.01418182,45.8989091 C3.84981818,45.3109091 4.812,44.9749091 5.83527273,44.9749091 L14.4523636,44.9749091 C14.5254545,44.9781818 14.5996364,44.9803636 14.6738182,44.9803636 L5.82763636,44.9803636 C4.80763636,44.9803636 3.84763636,45.3130909 3.01418182,45.8989091" id="Fill-239" fill="#3D3746"></path>
                    </g>
                </g>
            </g>
        </g>
    </g>
</svg>