<?xml version="1.0" encoding="UTF-8"?>
<svg width="700px" height="554px" viewBox="0 0 700 554" version="1.1" xmlns="http://www.w3.org/2000/svg" xmlns:xlink="http://www.w3.org/1999/xlink">
    <!-- Generator: Sketch 49.1 (51147) - http://www.bohemiancoding.com/sketch -->
    <title>Group 7</title>
    <desc>Created with Sketch.</desc>
    <defs>
        <rect id="path-1" x="0" y="0" width="700" height="558"></rect>
    </defs>
    <g id="Page-1" stroke="none" stroke-width="1" fill="none" fill-rule="evenodd">
        <g id="Avaleht_700px" transform="translate(0.000000, -789.000000)">
            <g id="Group-7" transform="translate(0.000000, 788.000000)">
                <mask id="mask-2" fill="white">
                    <use xlink:href="#path-1"></use>
                </mask>
                <g id="Mask"></g>
                <g mask="url(#mask-2)">
                    <g transform="translate(-24.000000, 1.000000)">
                        <path d="M214.431738,158 L0.281231881,158 C0.0979571721,156.270422 0,154.521873 0,152.738542 C0,125.539586 22.0372038,103.488258 49.221899,103.488258 C53.7437285,103.488258 58.1233621,104.111159 62.281802,105.255779 C74.3905725,75.7675825 103.357456,55 137.18744,55 C167.712158,55 194.277511,71.913185 208.073673,96.87033 C211.328379,96.1936761 214.696842,95.8332157 218.150622,95.8332157 C223.770029,95.8332157 229.168762,96.7777476 234.198018,98.514416 C247.996128,83.6685378 267.695055,74.380046 289.563894,74.380046 C296.505663,74.380046 303.229137,75.3355641 309.613042,77.0913891 C328.202041,31.8570683 372.67108,0 424.605794,0 C471.466372,0 512.248657,25.9444973 533.428086,64.2282732 C538.424607,63.1902993 543.595764,62.6373599 548.897897,62.6373599 C563.164663,62.6373599 576.50489,66.6000921 587.885316,73.4681811 C601.492347,60.7602763 619.756329,52.975472 639.839434,52.975472 C681.902381,52.975472 716,87.0636992 716,129.121044 C716,139.345572 713.972286,149.094766 710.314638,158 L214.431738,158 Z" id="Combined-Shape-Copy-9" fill="#DFEAEC" transform="translate(358.000000, 79.000000) scale(-1, 1) translate(-358.000000, -79.000000) "></path>
                        <rect id="Rectangle-2-Copy-5" fill="#BEE3E8" x="24" y="157" width="700" height="239"></rect>
                        <path d="M264.431738,554 L50.2812319,554 C50.0979572,552.270422 50,550.521873 50,548.738542 C50,521.539586 72.0372038,499.488258 99.221899,499.488258 C103.743728,499.488258 108.123362,500.111159 112.281802,501.255779 C124.390572,471.767583 153.357456,451 187.18744,451 C217.712158,451 244.277511,467.913185 258.073673,492.87033 C261.328379,492.193676 264.696842,491.833216 268.150622,491.833216 C273.770029,491.833216 279.168762,492.777748 284.198018,494.514416 C297.996128,479.668538 317.695055,470.380046 339.563894,470.380046 C346.505663,470.380046 353.229137,471.335564 359.613042,473.091389 C378.202041,427.857068 422.67108,396 474.605794,396 C521.466372,396 562.248657,421.944497 583.428086,460.228273 C588.424607,459.190299 593.595764,458.63736 598.897897,458.63736 C613.164663,458.63736 626.50489,462.600092 637.885316,469.468181 C651.492347,456.760276 669.756329,448.975472 689.839434,448.975472 C731.902381,448.975472 766,483.063699 766,525.121044 C766,535.345572 763.972286,545.094766 760.314638,554 L264.431738,554 Z" id="Combined-Shape-Copy-10" fill="#DFEAEC" transform="translate(408.000000, 475.000000) scale(1, -1) translate(-408.000000, -475.000000) "></path>
                        <path d="M466.625871,479 L352.150212,479 C352.052321,478.088316 352,477.166632 352,476.226615 C352,461.88968 363.770546,450.266129 378.290478,450.266129 C380.705685,450.266129 383.044942,450.594468 385.266054,451.197813 C391.733609,435.654189 407.205447,424.707317 425.274771,424.707317 C441.578682,424.707317 455.76781,433.622484 463.136637,446.77773 C464.875046,446.421057 466.674215,446.231053 468.518953,446.231053 C471.470299,446.231053 474.30768,446.712446 476.955531,447.598858 C484.320275,439.575594 494.909332,434.543822 506.677039,434.543822 C510.377531,434.543822 513.961656,435.051819 517.364764,435.985295 C527.274118,411.936669 550.979506,395 578.664669,395 C603.64493,395 625.384998,408.793277 636.675248,429.146677 C639.338775,428.594843 642.095396,428.300875 644.921838,428.300875 C652.527112,428.300875 659.63847,430.407644 665.705104,434.059033 C672.958689,427.302932 682.694785,423.164175 693.400611,423.164175 C715.823369,423.164175 734,441.28703 734,463.646631 C734,469.082456 732.919074,474.265572 730.969269,479 L466.625871,479 Z" id="Combined-Shape-Copy-22" fill="#BEE3E8" transform="translate(543.000000, 437.000000) scale(1, -1) translate(-543.000000, -437.000000) "></path>
                        <path d="M156.625871,449 L42.150212,449 C42.052321,448.088316 42,447.166632 42,446.226615 C42,431.88968 53.7705459,420.266129 68.2904781,420.266129 C70.7056847,420.266129 73.0449415,420.594468 75.266054,421.197813 C81.7336095,405.654189 97.205447,394.707317 115.274771,394.707317 C131.578682,394.707317 145.76781,403.622484 153.136637,416.77773 C154.875046,416.421057 156.674215,416.231053 158.518953,416.231053 C161.470299,416.231053 164.30768,416.712446 166.955531,417.598858 C174.320275,409.575594 184.909332,404.543822 196.677039,404.543822 C200.377531,404.543822 203.961656,405.051819 207.364764,405.985295 C217.274118,381.936669 240.979506,365 268.664669,365 C293.64493,365 315.384998,378.793277 326.675248,399.146677 C329.338775,398.594843 332.095396,398.300875 334.921838,398.300875 C342.527112,398.300875 349.63847,400.407644 355.705104,404.059033 C362.958689,397.302932 372.694785,393.164175 383.400611,393.164175 C405.823369,393.164175 424,411.28703 424,433.646631 C424,439.082456 422.919074,444.265572 420.969269,449 L156.625871,449 Z" id="Combined-Shape-Copy-22" fill="#BEE3E8" transform="translate(233.000000, 407.000000) scale(1, -1) translate(-233.000000, -407.000000) "></path>
                        <path d="M126.625871,158 L12.150212,158 C12.052321,157.088316 12,156.166632 12,155.226615 C12,140.88968 23.7705459,129.266129 38.2904781,129.266129 C40.7056847,129.266129 43.0449415,129.594468 45.266054,130.197813 C51.7336095,114.654189 67.205447,103.707317 85.2747709,103.707317 C101.578682,103.707317 115.76781,112.622484 123.136637,125.77773 C124.875046,125.421057 126.674215,125.231053 128.518953,125.231053 C131.470299,125.231053 134.30768,125.712446 136.955531,126.598858 C144.320275,118.575594 154.909332,113.543822 166.677039,113.543822 C170.377531,113.543822 173.961656,114.051819 177.364764,114.985295 C187.274118,90.9366692 210.979506,74 238.664669,74 C263.64493,74 285.384998,87.7932771 296.675248,108.146677 C299.338775,107.594843 302.095396,107.300875 304.921838,107.300875 C312.527112,107.300875 319.63847,109.407644 325.705104,113.059033 C332.958689,106.302932 342.694785,102.164175 353.400611,102.164175 C375.823369,102.164175 394,120.28703 394,142.646631 C394,148.082456 392.919074,153.265572 390.969269,158 L126.625871,158 Z" id="Combined-Shape-Copy-23" fill="#BEE3E8" transform="translate(203.000000, 116.000000) scale(-1, 1) translate(-203.000000, -116.000000) "></path>
                        <path d="M436.625871,188 L322.150212,188 C322.052321,187.088316 322,186.166632 322,185.226615 C322,170.88968 333.770546,159.266129 348.290478,159.266129 C350.705685,159.266129 353.044942,159.594468 355.266054,160.197813 C361.733609,144.654189 377.205447,133.707317 395.274771,133.707317 C411.578682,133.707317 425.76781,142.622484 433.136637,155.77773 C434.875046,155.421057 436.674215,155.231053 438.518953,155.231053 C441.470299,155.231053 444.30768,155.712446 446.955531,156.598858 C454.320275,148.575594 464.909332,143.543822 476.677039,143.543822 C480.377531,143.543822 483.961656,144.051819 487.364764,144.985295 C497.274118,120.936669 520.979506,104 548.664669,104 C573.64493,104 595.384998,117.793277 606.675248,138.146677 C609.338775,137.594843 612.095396,137.300875 614.921838,137.300875 C622.527112,137.300875 629.63847,139.407644 635.705104,143.059033 C642.958689,136.302932 652.694785,132.164175 663.400611,132.164175 C685.823369,132.164175 704,150.28703 704,172.646631 C704,178.082456 702.919074,183.265572 700.969269,188 L436.625871,188 Z" id="Combined-Shape-Copy-23" fill="#BEE3E8" transform="translate(513.000000, 146.000000) scale(-1, 1) translate(-513.000000, -146.000000) "></path>
                    </g>
                </g>
            </g>
        </g>
    </g>
</svg>