<?xml version="1.0" encoding="UTF-8"?>
<svg width="232px" height="146px" viewBox="0 0 232 146" version="1.1" xmlns="http://www.w3.org/2000/svg" xmlns:xlink="http://www.w3.org/1999/xlink">
    <!-- Generator: Sketch 49.1 (51147) - http://www.bohemiancoding.com/sketch -->
    <title>Group 9</title>
    <desc>Created with Sketch.</desc>
    <defs></defs>
    <g id="Page-1" stroke="none" stroke-width="1" fill="none" fill-rule="evenodd" opacity="0.2">
        <g id="Avaleht_1025px" transform="translate(-52.000000, -208.000000)" fill="#FFFFFE">
            <g id="Group-11">
                <g id="Group-9" transform="translate(52.000000, 208.000000)">
                    <path d="M196.802288,24.4760092 C187.520853,24.4760092 179.080128,28.0727859 172.79162,33.9441596 C167.53214,30.7709286 161.366936,28.940046 154.77353,28.940046 C152.323142,28.940046 149.933284,29.195518 147.624135,29.6750883 C137.836033,11.9870146 118.988443,0 97.3317614,0 C73.3300607,0 52.7786324,14.7187721 44.1877005,35.6181734 C41.23737,34.8069378 38.1301071,34.3654643 34.921959,34.3654643 C15.6349581,34.3654643 0,49.9940752 0,69.2710054 C0,70.5349194 0.0694986665,71.7741827 0.19952843,73 L229.372502,73 C231.062889,68.8855564 232,64.3811819 232,59.6571911 C232,40.2256332 216.241738,24.4760092 196.802288,24.4760092" id="Fill-384-Copy-10"></path>
                    <path d="M196.802288,97.4760092 C187.520853,97.4760092 179.080128,101.072786 172.79162,106.94416 C167.53214,103.770929 161.366936,101.940046 154.77353,101.940046 C152.323142,101.940046 149.933284,102.195518 147.624135,102.675088 C137.836033,84.9870146 118.988443,73 97.3317614,73 C73.3300607,73 52.7786324,87.7187721 44.1877005,108.618173 C41.23737,107.806938 38.1301071,107.365464 34.921959,107.365464 C15.6349581,107.365464 0,122.994075 0,142.271005 C0,143.534919 0.0694986665,144.774183 0.19952843,146 L229.372502,146 C231.062889,141.885556 232,137.381182 232,132.657191 C232,113.225633 216.241738,97.4760092 196.802288,97.4760092" id="Fill-384-Copy-11" transform="translate(116.000000, 109.500000) scale(1, -1) translate(-116.000000, -109.500000) "></path>
                </g>
            </g>
        </g>
    </g>
</svg>