<?xml version="1.0" encoding="UTF-8"?>
<svg width="90px" height="90px" viewBox="0 0 90 90" version="1.1" xmlns="http://www.w3.org/2000/svg" xmlns:xlink="http://www.w3.org/1999/xlink">
    <!-- Generator: Sketch 49.1 (51147) - http://www.bohemiancoding.com/sketch -->
    <title>Group 4</title>
    <desc>Created with Sketch.</desc>
    <defs></defs>
    <g id="Page-1" stroke="none" stroke-width="1" fill="none" fill-rule="evenodd">
        <g id="Avaleht_375px" transform="translate(-143.000000, -659.000000)">
            <g id="Group-4" transform="translate(143.000000, 659.000000)">
                <circle id="Oval-9-Copy-2" fill="#FFFFFF" opacity="0.6" cx="45" cy="45" r="45"></circle>
                <g id="Group-12-Copy-2" transform="translate(19.000000, 16.000000)">
                    <path d="M42.7807519,7.09142857 C38.4188653,2.70857143 32.390704,0 25.7384005,0 C12.4273958,0 1.63784005,10.8414286 1.63784005,24.2164286 L1.63784005,50.1514286 C1.63784005,51.2828571 1.71674641,52.3907143 1.86318524,53.4764286 L3.56855776,53.4764286 C3.41074504,52.3907143 3.32615174,51.2828571 3.32615174,50.1514286 L3.32615174,24.2164286 C3.32615174,11.7964286 13.3842242,1.69642857 25.7384005,1.69642857 C38.0982638,1.69642857 48.1499385,11.7964286 48.1499385,24.2164286 L48.1499385,50.1514286 C48.1499385,51.2828571 48.0653452,52.3907143 47.9082433,53.4764286 L49.6136159,53.4764286 C49.7600547,52.3907143 49.8382502,51.2764286 49.8382502,50.1514286 L49.8382502,24.2164286 C49.8382502,17.5257143 47.1426384,11.475 42.7807519,7.09142857" id="Fill-774" fill="#62BCBC"></path>
                    <path d="M48.1499385,49.2071429 L3.32615174,49.2071429 L3.32615174,40.8235714 L3.53727956,40.8607143 L3.71215311,39.905 L3.41074504,39.8507143 C3.43207109,39.575 3.43562543,39.2971429 3.41074504,39.0214286 L3.71712919,38.9671429 L3.69082707,38.8178571 L3.5543404,38.0092857 L3.32615174,38.05 L3.32615174,36.8757143 L3.88205058,36.8757143 C4.51614491,36.8757143 5.24407382,36.3985714 5.50140807,35.815 L5.78930964,35.1564286 L7.55581681,36.8757143 C7.49397129,37.0342857 7.43994532,37.1971429 7.3958715,37.3621429 L7.09019822,37.305 L6.91532468,38.2635714 L7.21957621,38.3178571 C7.19682843,38.5914286 7.19682843,38.8692857 7.21957621,39.1485714 L6.91319207,39.1985714 L7.07598086,40.1571429 L7.38165414,40.1071429 C7.41861928,40.2385714 7.46127136,40.3714286 7.50392344,40.5007143 C7.55155161,40.6314286 7.60344498,40.7585714 7.66031442,40.8835714 L7.39089542,41.0385714 L7.83092276,41.8064286 L7.87144224,41.8842857 L8.13943951,41.7278571 C8.29583049,41.9578571 8.47639098,42.1721429 8.66619275,42.3692857 L8.46572796,42.6064286 L9.20289815,43.2321429 L9.40620643,42.9964286 C9.629419,43.1557143 9.86827068,43.2942857 10.1184962,43.4142857 L10.0104443,43.7057143 L10.9153794,44.0414286 L11.0227204,43.7471429 C11.2878742,43.8192857 11.558715,43.8728571 11.83311,43.8978571 L11.83311,44.2092857 L12.7998906,44.2142857 L12.7998906,43.9021429 C13.0707314,43.8792857 13.3437047,43.8342857 13.6138346,43.7635714 L13.7190431,44.0578571 L14.6282433,43.7292857 L14.5244566,43.4364286 C14.7761039,43.3171429 15.017799,43.1785714 15.2403008,43.0228571 L15.4393438,43.265 L16.182201,42.6421429 L15.9831579,42.4035714 C16.182201,42.2092857 16.3570745,41.9942857 16.5170198,41.77 L16.785728,41.9307143 L17.27054,41.09 L17.0046753,40.9328571 C17.1191251,40.6857143 17.2200684,40.4221429 17.2883117,40.1557143 L17.5946958,40.2114286 L17.7695694,39.2557143 L17.4681613,39.2021429 C17.4894874,38.925 17.4923308,38.6492857 17.4681613,38.3714286 L17.7745455,38.3178571 L17.744689,38.1664286 L17.6089132,37.3607143 L17.3053725,37.4128571 C17.2684074,37.2778571 17.2264662,37.1457143 17.1823923,37.0164286 C17.1333424,36.8878571 17.0828708,36.7607143 17.0267122,36.6321429 L17.2954204,36.48 L17.0103623,35.9735714 L16.8162953,35.6335714 L16.5468763,35.7885714 C16.3890636,35.5578571 16.2134792,35.3471429 16.0215448,35.1485714 L16.2227204,34.9114286 L15.4827068,34.2864286 L15.2808202,34.5207143 C15.1542857,34.43 15.0206425,34.3471429 14.8848667,34.2685714 C14.7846343,34.2121429 14.6744498,34.1557143 14.5713739,34.1064286 L14.678715,33.8135714 L13.7723582,33.4742857 L13.6664388,33.7685714 C13.3977307,33.7 13.1304443,33.645 12.8539166,33.62 L12.8553383,33.31 L11.887136,33.3021429 L11.887136,33.6157143 C11.6162953,33.64 11.3426111,33.6864286 11.0717703,33.7564286 L10.9686945,33.4635714 L10.0559398,33.7921429 L10.1625701,34.0828571 C10.0139986,34.1521429 9.87111415,34.2278571 9.73320574,34.31 L7.22739576,31.8714286 L8.74936432,28.3942857 L9.85618592,25.8685714 L9.85476418,25.8685714 L10.9125359,25.8685714 C11.8402187,26.92 13.1730964,27.5521429 14.6225564,27.5521429 C14.7384279,27.5521429 14.8571429,27.5492857 14.9737252,27.5414286 C15.6014217,29.2228571 17.1631989,30.3385714 18.935393,30.3385714 C19.0697471,30.3385714 19.2076555,30.3314286 19.3469856,30.3192857 C19.371866,30.4214286 19.398879,30.5228571 19.4322898,30.6235714 C20.104771,32.7642857 22.0212714,34.1985714 24.2050581,34.1985714 C24.3984142,34.1985714 24.5931921,34.1878571 24.7872591,34.1614286 C25.0822693,34.1278571 25.3737252,34.0635714 25.6580725,33.9728571 C25.7334245,33.95 25.8038004,33.925 25.8791524,33.8985714 C26.484812,33.6685714 27.0449761,33.3242857 27.519836,32.8771429 C27.691866,32.9485714 27.8631852,33.0171429 28.0430349,33.0721429 C28.979959,34.2885714 30.2481476,35.1907143 31.6521121,35.6821429 C31.7722488,35.7271429 31.8930964,35.765 32.0103896,35.7971429 C32.6999316,36.0042857 33.4164867,36.1142857 34.1458373,36.1142857 C34.9114422,36.1142857 35.6734928,35.9935714 36.410663,35.7621429 C38.3683937,35.1385714 39.9607382,33.7707143 40.894108,31.9085714 C41.654026,30.3978571 41.9056733,28.7071429 41.6334108,27.0471429 C42.1260424,26.6664286 42.4438004,26.0685714 42.4438004,25.3971429 C42.4438004,24.6414286 42.0421599,23.9792857 41.4414764,23.6157143 C41.4457416,23.4314286 41.4421873,23.2471429 41.4315243,23.0628571 C41.675352,23.7714286 42.251866,24.325 42.974108,24.5335714 L42.974108,31.0978571 C42.2561312,31.3442857 41.7407519,32.0278571 41.7407519,32.8307143 C41.7407519,32.9871429 41.7599453,33.1392857 41.7969105,33.2842857 L34.1614764,38.0871429 C33.8650444,38.2764286 33.7740533,38.6714286 33.9610116,38.9692857 C34.0818592,39.1642857 34.2894327,39.2714286 34.5019822,39.2714286 C34.6178537,39.2714286 34.7344361,39.2392857 34.8396446,39.1728571 L42.5262611,34.3371429 C42.8205605,34.5414286 43.1781271,34.6614286 43.5634176,34.6614286 C43.9920711,34.6614286 44.3866029,34.5128571 44.6972522,34.2635714 L48.1499385,36.2678571 L48.1499385,49.2071429 M48.1499385,34.7892857 L45.3540943,33.1678571 C45.3747095,33.0585714 45.3846617,32.9457143 45.3846617,32.8307143 C45.3846617,32.0642857 44.9154887,31.4064286 44.2494053,31.1342857 L44.2494053,24.5342857 C45.2140533,24.2564286 45.9199453,23.3635714 45.9199453,22.3057143 C45.9199453,22.1185714 45.8979084,21.9371429 45.8566781,21.7628571 L47.861326,20.6 C48.0511278,21.7778571 48.1499385,22.9857143 48.1499385,24.2164286 L48.1499385,34.7892857 M9.67136022,23.1992857 L9.41473684,23.1992857 L9.41473684,22.8028571 C9.46165414,22.8064286 9.50857143,22.8078571 9.55691046,22.8078571 C9.57965824,22.8078571 9.60311688,22.8071429 9.62586466,22.8064286 C9.63581681,22.9378571 9.65074504,23.0685714 9.67136022,23.1992857 M41.3113876,22.1342857 C41.2786876,21.9692857 41.2395899,21.805 41.1948052,21.6421429 L41.3732331,21.7457143 C41.3419549,21.8714286 41.3213397,22.0014286 41.3113876,22.1342857 M45.4863158,20.4785714 C45.5076418,20.3635714 45.5190157,20.245 45.5190157,20.1242857 C45.5190157,19.0642857 44.6631306,18.2042857 43.6082023,18.2042857 C42.5525632,18.2042857 41.6973889,19.0642857 41.6973889,20.1242857 C41.6973889,20.2428571 41.7080519,20.3592857 41.7286671,20.4721429 L40.2514833,19.6157143 C39.4254545,18.41 38.2247984,17.4971429 36.8044839,17.0307143 C36.8073274,16.985 36.8087491,16.9392857 36.8087491,16.8935714 C36.8087491,16.0335714 36.3424197,15.2814286 35.6493233,14.8807143 C35.4922215,14.6835714 35.3216131,14.4992857 35.1382092,14.33 L35.1382092,8.87642857 C36.2094874,8.59285714 37.0021053,7.61214286 37.0021053,6.44785714 C37.0021053,6.21928571 36.9715379,5.99785714 36.9139576,5.78714286 L37.8252905,5.25857143 C42.6997129,8.40714286 46.2867532,13.4014286 47.6011483,19.2514286 L45.4863158,20.4785714 M40.3751743,13.245 C39.6038824,13.245 38.9790294,13.8728571 38.9790294,14.6471429 C38.9790294,15.4221429 39.6038824,16.05 40.3751743,16.05 C41.1457553,16.05 41.7713192,15.4221429 41.7713192,14.6471429 C41.7713192,13.8728571 41.1457553,13.245 40.3751743,13.245 M7.89561176,19.4742857 L4.60358168,19.4742857 L4.60358168,17.9792857 L4.20051948,17.9792857 L5.37203008,17.9792857 L5.37203008,14.8192857 C8.9057553,7.11928571 16.6407109,1.75 25.6026247,1.69642857 C25.5734792,1.94571429 25.6914833,2.2 25.9225154,2.33 L32.0814764,5.81357143 C32.0288722,6.01642857 32.0011483,6.22857143 32.0011483,6.44785714 C32.0011483,7.61142857 32.7916336,8.59214286 33.8629118,8.87571429 L33.8629118,13.4692857 C33.2224197,13.1692857 32.5136842,13.005 31.7750923,13.005 C31.3464388,13.005 30.9163636,13.0607143 30.4827341,13.1807143 C29.3190431,12.32 27.8887765,11.865 26.4499795,11.865 C25.7696787,11.865 25.0865345,11.9664286 24.4289815,12.1757143 C23.2148189,12.5621429 22.1456733,13.2714286 21.3231989,14.2364286 C20.5881613,13.8978571 19.7898565,13.725 18.9922625,13.725 C18.4384962,13.725 17.8854409,13.8078571 17.3544224,13.9778571 C17.1539576,14.0407143 16.9591798,14.115 16.769378,14.2 C16.4608612,13.9721429 16.079836,13.8371429 15.6675325,13.8371429 C14.6389064,13.8371429 13.805769,14.6742857 13.805769,15.7078571 C13.805769,16.0878571 13.918797,16.4414286 14.112864,16.7364286 C13.9920164,16.9714286 13.8875188,17.2157143 13.7993712,17.4692857 C13.5420369,17.5071429 13.2847027,17.5671429 13.0415858,17.6457143 C12.1793028,17.9185714 11.4264935,18.4157143 10.8435817,19.0878571 C10.4902802,18.8064286 10.0431442,18.6385714 9.55691046,18.6385714 C8.87732057,18.6385714 8.27379357,18.9671429 7.89561176,19.4742857 M32.7077512,4.69857143 L27.5241012,1.76714286 C30.784853,2.02642857 33.8515379,2.99 36.5727409,4.50571429 L36.2748872,4.67857143 C35.8213534,4.22071429 35.1943677,3.93714286 34.5019822,3.93714286 C33.7982228,3.93714286 33.1627068,4.22928571 32.7077512,4.69857143" id="Fill-775" fill="#B7DFE2"></path>
                    <path d="M3.88205058,36.8757143 L3.32615174,36.8757143 L3.32615174,28.3942857 L8.74936432,28.3942857 L7.22739576,31.8714286 L6.51297334,31.1764286 C6.18810663,30.8592857 5.76869446,30.7021429 5.34857143,30.7021429 C4.91138756,30.7021429 4.47349282,30.8728571 4.1443609,31.2128571 C3.50173616,31.8814286 3.51950786,32.9471429 4.18416951,33.5935714 L5.78930964,35.1564286 L5.50140807,35.815 C5.24407382,36.3985714 4.51614491,36.8757143 3.88205058,36.8757143" id="Fill-776" fill="#BDE2E4"></path>
                    <path d="M7.55581681,36.8757143 L4.18416951,33.5935714 C3.51950786,32.9471429 3.50173616,31.8814286 4.1443609,31.2128571 C4.47349282,30.8728571 4.91138756,30.7021429 5.34857143,30.7021429 C5.76869446,30.7021429 6.18810663,30.8592857 6.51297334,31.1764286 L9.73320574,34.31 C9.63581681,34.3678571 9.54056049,34.4292857 9.44672591,34.4935714 L9.24768284,34.255 L8.5048257,34.8728571 L8.70315789,35.1128571 C8.5048257,35.31 8.32995215,35.525 8.1685851,35.7478571 L7.90272044,35.5885714 L7.41222146,36.4278571 L7.67950786,36.5871429 C7.63543404,36.6807143 7.59420369,36.7771429 7.55581681,36.8757143" id="Fill-777" fill="#BFE3E6"></path>
                    <path d="M3.53727956,40.8607143 L3.32615174,40.8235714 L3.32615174,38.05 L3.5543404,38.0092857 L3.69082707,38.8178571 L3.71712919,38.9671429 L3.41074504,39.0214286 C3.43562543,39.2971429 3.43207109,39.575 3.41074504,39.8507143 L3.71215311,39.905 L3.53727956,40.8607143" id="Fill-778" fill="#9BC1CA"></path>
                    <path d="M12.7998906,44.2142857 L11.83311,44.2092857 L11.83311,43.8978571 C11.558715,43.8728571 11.2878742,43.8192857 11.0227204,43.7471429 L10.9153794,44.0414286 L10.0104443,43.7057143 L10.1184962,43.4142857 C9.86827068,43.2942857 9.629419,43.1557143 9.40620643,42.9964286 L9.20289815,43.2321429 L8.46572796,42.6064286 L8.66619275,42.3692857 C8.47639098,42.1721429 8.29583049,41.9578571 8.13943951,41.7278571 L7.87144224,41.8842857 L7.83092276,41.8064286 L7.39089542,41.0385714 L7.66031442,40.8835714 C7.60344498,40.7585714 7.55155161,40.6314286 7.50392344,40.5007143 C7.46127136,40.3714286 7.41861928,40.2385714 7.38165414,40.1071429 L7.07598086,40.1571429 L6.91319207,39.1985714 L7.21957621,39.1485714 C7.19682843,38.8692857 7.19682843,38.5914286 7.21957621,38.3178571 L6.91532468,38.2635714 L7.09019822,37.305 L7.3958715,37.3621429 C7.43994532,37.1971429 7.49397129,37.0342857 7.55581681,36.8757143 C7.59420369,36.7771429 7.63543404,36.6807143 7.67950786,36.5871429 L7.41222146,36.4278571 L7.90272044,35.5885714 L8.1685851,35.7478571 C8.32995215,35.525 8.5048257,35.31 8.70315789,35.1128571 L8.5048257,34.8728571 L9.24768284,34.255 L9.44672591,34.4935714 C9.54056049,34.4292857 9.63581681,34.3678571 9.73320574,34.31 C9.87111415,34.2278571 10.0139986,34.1521429 10.1625701,34.0828571 L10.0559398,33.7921429 L10.9686945,33.4635714 L11.0717703,33.7564286 C11.3426111,33.6864286 11.6162953,33.64 11.887136,33.6157143 L11.887136,33.3021429 L12.8553383,33.31 L12.8539166,33.62 C13.1304443,33.645 13.3977307,33.7 13.6664388,33.7685714 L13.7723582,33.4742857 L14.678715,33.8135714 L14.5713739,34.1064286 C14.6744498,34.1557143 14.7846343,34.2121429 14.8848667,34.2685714 C15.0206425,34.3471429 15.1542857,34.43 15.2808202,34.5207143 L15.4827068,34.2864286 L16.2227204,34.9114286 L16.0215448,35.1485714 C16.2134792,35.3471429 16.3890636,35.5578571 16.5468763,35.7885714 L16.8162953,35.6335714 L17.0103623,35.9735714 L17.2954204,36.48 L17.0267122,36.6321429 C17.0828708,36.7607143 17.1333424,36.8878571 17.1823923,37.0164286 C17.2264662,37.1457143 17.2684074,37.2778571 17.3053725,37.4128571 L17.6089132,37.3607143 L17.744689,38.1664286 L17.7745455,38.3178571 L17.4681613,38.3714286 C17.4923308,38.6492857 17.4894874,38.925 17.4681613,39.2021429 L17.7695694,39.2557143 L17.5946958,40.2114286 L17.2883117,40.1557143 C17.2200684,40.4221429 17.1191251,40.6857143 17.0046753,40.9328571 L17.27054,41.09 L16.785728,41.9307143 L16.5170198,41.77 C16.3570745,41.9942857 16.182201,42.2092857 15.9831579,42.4035714 L16.182201,42.6421429 L15.4393438,43.265 L15.2403008,43.0228571 C15.017799,43.1785714 14.7761039,43.3171429 14.5244566,43.4364286 L14.6282433,43.7292857 L13.7190431,44.0578571 L13.6138346,43.7635714 C13.3437047,43.8342857 13.0707314,43.8792857 12.7998906,43.9021429 L12.7998906,44.2142857 M12.3420916,36.0435714 C10.8506904,36.0435714 9.64221463,37.2585714 9.64221463,38.7592857 C9.64221463,40.2585714 10.8506904,41.4742857 12.3420916,41.4742857 C13.8349146,41.4742857 15.044812,40.2585714 15.044812,38.7592857 C15.044812,37.2585714 13.8349146,36.0435714 12.3420916,36.0435714" id="Fill-779" fill="#BFE3E6"></path>
                    <path d="M12.3420916,41.4742857 C10.8506904,41.4742857 9.64221463,40.2585714 9.64221463,38.7592857 C9.64221463,37.2585714 10.8506904,36.0435714 12.3420916,36.0435714 C13.8349146,36.0435714 15.044812,37.2585714 15.044812,38.7592857 C15.044812,40.2585714 13.8349146,41.4742857 12.3420916,41.4742857 M12.3420916,37.4021429 C11.5971018,37.4021429 10.992864,38.0092857 10.992864,38.7592857 C10.992864,39.5078571 11.5971018,40.1135714 12.3420916,40.1135714 C13.0863705,40.1135714 13.6941627,39.5078571 13.6941627,38.7592857 C13.6941627,38.0092857 13.0863705,37.4021429 12.3420916,37.4021429" id="Fill-780" fill="#BDE2E4"></path>
                    <path d="M12.3420916,40.1135714 C11.5971018,40.1135714 10.992864,39.5078571 10.992864,38.7592857 C10.992864,38.0092857 11.5971018,37.4021429 12.3420916,37.4021429 C13.0863705,37.4021429 13.6941627,38.0092857 13.6941627,38.7592857 C13.6941627,39.5078571 13.0863705,40.1135714 12.3420916,40.1135714" id="Fill-781" fill="#BFE3E6"></path>
                    <path d="M10.9125359,25.8685714 L3.32615174,25.8685714 L3.32615174,24.2164286 C3.32615174,23.8771429 3.33397129,23.5392857 3.34889952,23.2035714 L9.41473684,23.2035714 L9.41473684,23.1992857 L9.67136022,23.1992857 C9.7118797,23.4614286 9.77230349,23.7228571 9.85405332,23.9807143 C10.0786876,24.6985714 10.4440738,25.3371429 10.9125359,25.8685714" id="Fill-782" fill="#BFE3E6"></path>
                    <polyline id="Fill-783" fill="#B3DCDF" points="8.74936432 28.3942857 8.74936432 28.3942857 9.85476418 25.8685714 9.85618592 25.8685714 8.74936432 28.3942857"></polyline>
                    <polyline id="Fill-784" fill="#B7DEE0" points="8.74936432 28.3942857 3.32615174 28.3942857 3.32615174 25.8685714 9.85476418 25.8685714 8.74936432 28.3942857"></polyline>
                    <path d="M9.41473684,23.2035714 L3.34889952,23.2035714 C3.4050581,21.93 3.56713602,20.6842857 3.82660287,19.4742857 L7.89561176,19.4742857 C7.63614491,19.8221429 7.4825974,20.2542857 7.4825974,20.7228571 C7.4825974,21.8257143 8.3356391,22.7292857 9.41473684,22.8028571 L9.41473684,23.2035714" id="Fill-785" fill="#BFE3E6"></path>
                    <path d="M5.37203008,17.9792857 L4.20051948,17.9792857 C4.2758715,17.7192857 4.35548872,17.4585714 4.43937116,17.2021429 L4.60358168,17.2021429 L4.60358168,16.7185714 C4.83177033,16.0714286 5.08839371,15.4378571 5.37203008,14.8192857 L5.37203008,17.9792857" id="Fill-786" fill="#BFE3E6"></path>
                    <path d="M4.60358168,19.4742857 L3.82660287,19.4742857 C3.93465482,18.9692857 4.0597676,18.4707143 4.20051948,17.9792857 L4.60358168,17.9792857 L4.60358168,19.4742857" id="Fill-787" fill="#B5DBDD"></path>
                    <path d="M4.60358168,17.2021429 L4.43937116,17.2021429 C4.49268626,17.0392857 4.54671224,16.8792857 4.60358168,16.7185714 L4.60358168,17.2021429" id="Fill-788" fill="#AAD1D3"></path>
                    <path d="M32.0814764,5.81357143 L25.9225154,2.33 C25.6914833,2.2 25.5734792,1.94571429 25.6026247,1.69642857 C25.6474094,1.69642857 25.692905,1.69642857 25.7384005,1.69642857 C26.3397949,1.69642857 26.9340807,1.72 27.5241012,1.76714286 L32.7077512,4.69857143 C32.4113192,5.005 32.1923718,5.38714286 32.0814764,5.81357143" id="Fill-789" fill="#BFE3E6"></path>
                    <path d="M34.5019822,39.2714286 C34.2894327,39.2714286 34.0818592,39.1642857 33.9610116,38.9692857 C33.7740533,38.6714286 33.8650444,38.2764286 34.1614764,38.0871429 L41.7969105,33.2842857 C41.9063841,33.7178571 42.1701162,34.09 42.5262611,34.3371429 L34.8396446,39.1728571 C34.7344361,39.2392857 34.6178537,39.2714286 34.5019822,39.2714286" id="Fill-790" fill="#BFE3E6"></path>
                    <path d="M41.3732331,21.7457143 L41.1948052,21.6421429 C41.17419,21.5685714 41.152864,21.4957143 41.1301162,21.4228571 C40.9239645,20.7692857 40.6261107,20.1621429 40.2514833,19.6157143 L41.7286671,20.4721429 C41.7514149,20.5971429 41.7862474,20.7171429 41.8310321,20.8321429 C41.61635,21.0942857 41.4571155,21.405 41.3732331,21.7457143 M45.4820506,20.5028571 C45.4834723,20.495 45.4848941,20.4864286 45.4863158,20.4785714 L47.6011483,19.2514286 C47.6025701,19.2578571 47.6039918,19.2642857 47.6054135,19.2707143 L45.4820506,20.5028571 M35.1382092,14.33 C34.7593165,13.9778571 34.3292413,13.6878571 33.8629118,13.4692857 L33.8629118,8.87571429 C34.066931,8.93 34.2809023,8.95857143 34.5019822,8.95857143 C34.7216405,8.95857143 34.9349009,8.93 35.1382092,8.87642857 L35.1382092,14.33 M36.9139576,5.78714286 C36.798797,5.36214286 36.5748735,4.98214286 36.2748872,4.67857143 L36.5727409,4.50571429 C36.9985509,4.74357143 37.4165414,4.99428571 37.8252905,5.25857143 L36.9139576,5.78714286" id="Fill-791" fill="#BFE3E6"></path>
                    <path d="M48.1499385,36.2678571 L44.6972522,34.2635714 C45.0334928,33.995 45.2730554,33.61 45.3540943,33.1678571 L48.1499385,34.7892857 L48.1499385,36.2678571 M44.2494053,31.1342857 C44.0375666,31.0471429 43.8065345,31 43.5634176,31 C43.3572659,31 43.1589337,31.0342857 42.974108,31.0978571 L42.974108,24.5335714 C43.1767054,24.5921429 43.3913876,24.6235714 43.6131784,24.6235714 C43.8335475,24.6235714 44.0475188,24.5921429 44.2494053,24.5342857 L44.2494053,31.1342857 M45.8566781,21.7628571 C45.7727956,21.4121429 45.6100068,21.0928571 45.388216,20.8242857 C45.4280246,20.7214286 45.4600137,20.6135714 45.4820506,20.5028571 L47.6054135,19.2707143 C47.7035133,19.7092857 47.7888175,20.1521429 47.861326,20.6 L45.8566781,21.7628571" id="Fill-792" fill="#BFE3E6"></path>
                    <path d="M43.5634176,34.6614286 C43.1781271,34.6614286 42.8205605,34.5414286 42.5262611,34.3371429 C42.1701162,34.09 41.9063841,33.7178571 41.7969105,33.2842857 C41.7599453,33.1392857 41.7407519,32.9871429 41.7407519,32.8307143 C41.7407519,32.0278571 42.2561312,31.3442857 42.974108,31.0978571 C43.1589337,31.0342857 43.3572659,31 43.5634176,31 C43.8065345,31 44.0375666,31.0471429 44.2494053,31.1342857 C44.9154887,31.4064286 45.3846617,32.0642857 45.3846617,32.8307143 C45.3846617,32.9457143 45.3747095,33.0585714 45.3540943,33.1678571 C45.2730554,33.61 45.0334928,33.995 44.6972522,34.2635714 C44.3866029,34.5128571 43.9920711,34.6614286 43.5634176,34.6614286 M43.1354751,31.5907143 C42.6933151,31.5907143 42.332905,31.9542857 42.332905,32.3992857 C42.332905,32.8457143 42.6933151,33.2071429 43.1354751,33.2071429 C43.5797676,33.2071429 43.9401777,32.8457143 43.9401777,32.3992857 C43.9401777,31.9542857 43.5797676,31.5907143 43.1354751,31.5907143" id="Fill-793" fill="#BFE3E6"></path>
                    <path d="M43.6131784,24.6235714 C43.3913876,24.6235714 43.1767054,24.5921429 42.974108,24.5335714 C42.251866,24.325 41.675352,23.7714286 41.4315243,23.0628571 C41.4130417,22.7521429 41.3732331,22.4421429 41.3113876,22.1342857 C41.3213397,22.0014286 41.3419549,21.8714286 41.3732331,21.7457143 C41.4571155,21.405 41.61635,21.0942857 41.8310321,20.8321429 C41.8765277,20.9464286 41.9326863,21.0557143 41.9980861,21.1585714 C41.912782,21.2985714 41.8644429,21.4621429 41.8644429,21.6371429 C41.8644429,22.15 42.2767464,22.565 42.785728,22.565 C43.1504033,22.565 43.4653178,22.3528571 43.615311,22.0442857 C44.4214354,22.0414286 45.1102666,21.5364286 45.388216,20.8242857 C45.6100068,21.0928571 45.7727956,21.4121429 45.8566781,21.7628571 C45.8979084,21.9371429 45.9199453,22.1185714 45.9199453,22.3057143 C45.9199453,23.3635714 45.2140533,24.2564286 44.2494053,24.5342857 C44.0475188,24.5921429 43.8335475,24.6235714 43.6131784,24.6235714" id="Fill-794" fill="#BFE3E6"></path>
                    <path d="M36.8044839,17.0307143 C36.7568558,17.015 36.7092276,17 36.6608886,16.985 C36.6274778,16.8457143 36.5890909,16.7071429 36.5478606,16.5757143 C36.3502392,15.9428571 36.0417225,15.3714286 35.6493233,14.8807143 C36.3424197,15.2814286 36.8087491,16.0335714 36.8087491,16.8935714 C36.8087491,16.9392857 36.8073274,16.985 36.8044839,17.0307143" id="Fill-795" fill="#B8CBBD"></path>
                    <path d="M34.5019822,8.95857143 C34.2809023,8.95857143 34.066931,8.93 33.8629118,8.87571429 C32.7916336,8.59214286 32.0011483,7.61142857 32.0011483,6.44785714 C32.0011483,6.22857143 32.0288722,6.01642857 32.0814764,5.81357143 C32.1923718,5.38714286 32.4113192,5.005 32.7077512,4.69857143 C33.1627068,4.22928571 33.7982228,3.93714286 34.5019822,3.93714286 C35.1943677,3.93714286 35.8213534,4.22071429 36.2748872,4.67857143 C36.5748735,4.98214286 36.798797,5.36214286 36.9139576,5.78714286 C36.9715379,5.99785714 37.0021053,6.21928571 37.0021053,6.44785714 C37.0021053,7.61214286 36.2094874,8.59285714 35.1382092,8.87642857 C34.9349009,8.93 34.7216405,8.95857143 34.5019822,8.95857143 M33.8629118,4.855 C33.2501435,4.855 32.7532468,5.355 32.7532468,5.97214286 C32.7532468,6.58785714 33.2501435,7.08857143 33.8629118,7.08857143 C34.4778127,7.08857143 34.9754204,6.58785714 34.9754204,5.97214286 C34.9754204,5.355 34.4778127,4.855 33.8629118,4.855" id="Fill-796" fill="#BFE3E6"></path>
                    <path d="M33.8629118,7.08857143 C33.2501435,7.08857143 32.7532468,6.58785714 32.7532468,5.97214286 C32.7532468,5.355 33.2501435,4.855 33.8629118,4.855 C34.4778127,4.855 34.9754204,5.355 34.9754204,5.97214286 C34.9754204,6.58785714 34.4778127,7.08857143 33.8629118,7.08857143" id="Fill-797" fill="#A0D2D8"></path>
                    <path d="M42.785728,22.565 C42.2767464,22.565 41.8644429,22.15 41.8644429,21.6371429 C41.8644429,21.4621429 41.912782,21.2985714 41.9980861,21.1585714 C42.3371702,21.6914286 42.9314559,22.0442857 43.6082023,22.0442857 C43.6103349,22.0442857 43.6124675,22.0442857 43.615311,22.0442857 C43.4653178,22.3528571 43.1504033,22.565 42.785728,22.565" id="Fill-798" fill="#A0D2D8"></path>
                    <path d="M43.1354751,33.2071429 C42.6933151,33.2071429 42.332905,32.8457143 42.332905,32.3992857 C42.332905,31.9542857 42.6933151,31.5907143 43.1354751,31.5907143 C43.5797676,31.5907143 43.9401777,31.9542857 43.9401777,32.3992857 C43.9401777,32.8457143 43.5797676,33.2071429 43.1354751,33.2071429" id="Fill-799" fill="#BAD2C7"></path>
                    <polyline id="Fill-800" fill="#A2D6DA" points="48.1499385 49.2071429 48.1499385 24.2164286 48.1499385 49.2071429"></polyline>
                    <polygon id="Fill-801" fill="#3D4A67" points="0 54.6078571 51.4768011 54.6078571 51.4768011 49.2071429 0 49.2071429"></polygon>
                    <path d="M40.818756,25.3814286 C40.9061928,25.5871429 40.9843882,25.8021429 41.0533424,26.0214286 C42.2994942,29.985 40.1917703,34.1857143 36.3445523,35.4071429 C33.3326042,36.3614286 30.1500478,35.2071429 28.311743,32.7557143 C28.0295284,32.67 27.7501572,32.5592857 27.4864252,32.43 C26.9802871,32.9642857 26.3405058,33.3821429 25.5926726,33.6185714 C23.1913602,34.3807143 20.6130417,32.9921429 19.835352,30.515 C19.7713739,30.3114286 19.7209023,30.1057143 19.6853589,29.8992857 C17.8072454,30.2657143 15.9014081,29.1264286 15.2971702,27.2028571 L15.2772659,27.14 C13.1034313,27.44 10.9544771,26.095 10.2556938,23.8735714 C9.47729323,21.3935714 10.7966644,18.7692857 13.1993985,18.0064286 C13.5057826,17.9092857 13.8192755,17.8478571 14.1292139,17.8178571 C14.6097608,16.2114286 15.826056,14.875 17.5115243,14.3392857 C18.8735475,13.9078571 20.2874641,14.0814286 21.4703486,14.71 C22.2380861,13.7221429 23.3050991,12.9435714 24.5889269,12.5364286 C26.6781681,11.8742857 28.8512919,12.3421429 30.4557211,13.6007143 L30.477758,13.5928571 C32.881203,12.8307143 35.4616541,14.2185714 36.2393438,16.6935714 C36.3019002,16.8914286 36.3495284,17.0907143 36.3857826,17.2885714 C38.4217088,17.8335714 40.139877,19.3771429 40.8201777,21.54 C41.2275051,22.8385714 41.2019139,24.1721429 40.818756,25.3814286" id="Fill-802" fill="#E3B3C6"></path>
                    <path d="M29.4363363,33.4814286 C29.12,33.1964286 28.8271224,32.8742857 28.5662338,32.5235714 L28.516473,32.4607143 L28.4915926,32.4271429 L28.3757211,32.3921429 C28.1098565,32.3128571 27.8518113,32.2078571 27.6051401,32.0892857 L27.3584689,31.9685714 L27.1679563,32.1671429 C26.6852768,32.6778571 26.1030759,33.0464286 25.434149,33.2564286 C25.0339303,33.3842857 24.6194942,33.4478571 24.2050581,33.4478571 C22.3475598,33.4478571 20.7175393,32.2228571 20.1460014,30.3985714 C20.0862884,30.21 20.0372386,30.02 20.008093,29.8314286 L19.943404,29.4521429 L19.5666439,29.5278571 C19.361203,29.5692857 19.1443882,29.5878571 18.935393,29.5878571 C17.4148462,29.5878571 16.0755707,28.5807143 15.6056869,27.0864286 L15.4891046,26.7221429 L15.179877,26.7635714 C14.9957621,26.7892857 14.8095147,26.8014286 14.6225564,26.8014286 C12.7686124,26.8014286 11.1393028,25.5764286 10.5642105,23.755 C10.2201504,22.6514286 10.3097198,21.48 10.8208339,20.4628571 C11.3340807,19.445 12.2006288,18.6978571 13.2662201,18.36 C13.5391934,18.2728571 13.8263841,18.2171429 14.1178401,18.1864286 L14.3680656,18.1635714 L14.4391524,17.9207143 C14.9033493,16.3771429 16.0755707,15.1714286 17.5783459,14.695 C18.7853999,14.3114286 20.1189884,14.4392857 21.2478469,15.0357143 L21.5250854,15.1864286 L21.7198633,14.9385714 C22.47054,13.97 23.4870813,13.26 24.652905,12.8921429 C26.5331511,12.295 28.6366097,12.6814286 30.1770608,13.8907143 L30.3554887,14.0071429 L30.542447,13.9471429 C30.9455092,13.82 31.3571018,13.755 31.7750923,13.755 C33.6340123,13.755 35.2626111,14.9807143 35.8377033,16.8021429 C35.8903076,16.9778571 35.9358031,17.1614286 35.9727683,17.3535714 L36.0139986,17.5857143 L36.2414764,17.6457143 C38.237594,18.1835714 39.7958168,19.6778571 40.4164046,21.6492857 C40.7896104,22.8357143 40.7896104,24.0864286 40.4164046,25.2657143 L40.3751743,25.3971429 L40.3943677,25.4371429 L40.4270677,25.525 C40.5095284,25.7192857 40.5841695,25.9228571 40.6524129,26.1292857 C40.6851128,26.2371429 40.7156801,26.3435714 40.7412714,26.4514286 C41.2047573,28.1792857 41.0256186,29.9821429 40.2294463,31.57 C39.3849351,33.2528571 37.9496924,34.4842857 36.1860287,35.0442857 C35.5206562,35.255 34.8368011,35.3628571 34.1458373,35.3628571 C32.4077649,35.3628571 30.7222967,34.6792857 29.4363363,33.4814286 M41.3618592,25.9042857 C41.3057006,25.7192857 41.2374573,25.535 41.1677922,25.36 C41.5481066,24.0707143 41.5331784,22.7157143 41.1301162,21.4228571 C40.4540807,19.28 38.7942037,17.6342857 36.6608886,16.985 C36.6274778,16.8457143 36.5890909,16.7071429 36.5478606,16.5757143 C35.8796446,14.4392857 33.958879,13.005 31.7750923,13.005 C31.3464388,13.005 30.9163636,13.0607143 30.4827341,13.1807143 C28.7681203,11.9121429 26.4769925,11.525 24.4289815,12.1757143 C23.2148189,12.5621429 22.1456733,13.2714286 21.3231989,14.2364286 C20.077758,13.6628571 18.6510458,13.5642857 17.3544224,13.9778571 C15.6909911,14.5028571 14.3794395,15.7985714 13.7993712,17.4692857 C13.5420369,17.5071429 13.2847027,17.5671429 13.0415858,17.6457143 C11.7819275,18.0442857 10.7547232,18.9221429 10.1526179,20.1242857 C9.55477785,21.3185714 9.44601504,22.6892857 9.85405332,23.9807143 C10.5222693,26.1185714 12.4401914,27.5521429 14.6225564,27.5521429 C14.7384279,27.5521429 14.8571429,27.5492857 14.9737252,27.5414286 C15.6014217,29.2228571 17.1631989,30.3385714 18.935393,30.3385714 C19.0697471,30.3385714 19.2076555,30.3314286 19.3469856,30.3192857 C19.371866,30.4214286 19.398879,30.5228571 19.4322898,30.6235714 C20.104771,32.7642857 22.0212714,34.1985714 24.2050581,34.1985714 C24.3984142,34.1985714 24.5931921,34.1878571 24.7872591,34.1614286 C25.0822693,34.1278571 25.3737252,34.0635714 25.6580725,33.9728571 C25.7334245,33.95 25.8038004,33.925 25.8791524,33.8985714 C26.484812,33.6685714 27.0449761,33.3242857 27.519836,32.8771429 C27.691866,32.9485714 27.8631852,33.0171429 28.0430349,33.0721429 C28.979959,34.2885714 30.2481476,35.1907143 31.6521121,35.6821429 C31.7722488,35.7271429 31.8930964,35.765 32.0103896,35.7971429 C32.6999316,36.0042857 33.4164867,36.1142857 34.1458373,36.1142857 C34.9114422,36.1142857 35.6734928,35.9935714 36.410663,35.7621429 C38.3683937,35.1385714 39.9607382,33.7707143 40.894108,31.9085714 C41.8288995,30.0492857 41.9945318,27.9171429 41.3618592,25.9042857" id="Fill-803" fill="#DF818F"></path>
                    <path d="M15.3504853,26.8128571 C14.996473,26.0135714 15.0149556,25.5992857 15.2914833,24.7671429 C15.7521258,23.3778571 18.1193165,22.185 19.2929597,23.2971429 C19.4657006,23.4621429 19.8168694,23.1621429 19.8879563,23.0042857 C20.4587833,21.7242857 20.9094737,20.5821429 22.3297881,20.0921429 C23.2460971,19.7785714 24.561203,19.4635714 25.4519207,20.1757143 C25.8841285,20.5221429 26.1841148,20.0071429 26.0355434,19.8785714 C24.7510048,18.7807143 22.8515653,19.1307143 21.9253042,19.5664286 C20.5298701,20.2221429 20.0144908,21.585 19.2922488,23.205 C19.4898701,23.1078571 19.6882023,23.01 19.8865345,22.9114286 C18.7534108,21.8357143 17.1496924,22.2914286 16.0393165,23.0214286 C14.5521805,23.995 14.1676008,25.7478571 14.9076145,27.425 C14.9886535,27.6078571 15.5992891,27.2564286 15.5026111,27.0385714 L15.3504853,26.8128571" id="Fill-804" fill="#DF818F"></path>
                    <path d="M37.2047027,18.9164286 C35.9628161,18.745 35.069255,19.1064286 34.3320848,19.9528571 C33.1527546,21.3057143 33.1911415,22.6985714 32.9046617,24.345 C31.6585099,24.0042857 30.5360492,24.0471429 29.2920301,24.54 C28.0757348,25.0207143 27.7807245,25.9257143 27.2788517,26.9335714 C26.1592344,25.6871429 24.4410663,25.6757143 22.9041695,26.1514286 C20.9997539,26.7414286 20.067095,28.3828571 19.2822967,30.1257143 C19.1095557,30.51 19.749337,30.33 19.8545455,30.0964286 C20.4594942,28.7521429 21.0182365,27.5464286 22.3866576,26.8128571 C23.8830349,26.0107143 25.9466849,26.1857143 26.9660697,27.6714286 C27.1132194,27.8885714 27.4665208,27.6035714 27.5489815,27.4635714 C28.1311825,26.4857143 28.1617498,25.5857143 29.3425017,24.9742857 C30.4855776,24.3835714 31.7580314,24.5871429 32.9274094,24.9807143 C33.1136569,25.0435714 33.4008476,24.83 33.4399453,24.6471429 C33.8046206,22.9221429 33.5302256,19.385 36.8002187,19.425 C37.9013534,19.4371429 37.5139303,18.96 37.2047027,18.9164286" id="Fill-805" fill="#DF818F"></path>
                    <path d="M28.0373479,32.9121429 C29.4981818,33.7771429 31.2490499,33.7978571 32.8854682,33.5228571 C34.7948599,33.2028571 34.7607382,31.3714286 35.3088175,30.8542857 C35.7737252,30.4171429 36.9999727,30.6042857 37.5715106,30.4671429 C38.1864115,30.3214286 38.706056,29.9478571 39.2050854,29.5764286 C40.7867669,28.3971429 40.5756391,26.4435714 41.1187423,24.7942857 C41.1791661,24.6114286 40.5998086,24.7807143 40.5287218,24.9878571 C39.9337252,26.7364286 39.714067,30.2914286 36.3793848,30.1614286 C35.9493096,30.1442857 35.4559672,30.0207143 35.0870267,30.3128571 C34.5716473,30.7221429 34.3761586,31.4228571 34.1735612,32.035 C33.4690909,34.1621429 29.874231,33.2478571 28.5683664,32.4742857 C28.3913602,32.3692857 27.8511005,32.8035714 28.0373479,32.9121429" id="Fill-806" fill="#DF818F"></path>
                    <path d="M23.4323445,22.1521429 C25.2699385,23.5707143 27.8233766,22.505 29.1981955,20.9614286 C30.1344087,19.9078571 30.1372522,18.4821429 29.6325359,17.2314286 C29.001285,15.6657143 27.7423377,15.4328571 26.4208339,15.9635714 C25.8663568,16.1871429 26.1087628,16.515 26.4272317,16.4092857 C27.4579904,16.07 28.1510868,16.0028571 28.8854135,16.95 C29.5209296,17.7685714 29.744853,19.1385714 29.249378,20.0185714 C28.2349692,21.8228571 25.6509638,23.02 24.0266302,21.7664286 C23.8602871,21.6371429 23.3569925,22.095 23.4323445,22.1521429" id="Fill-807" fill="#DF818F"></path>
                    <path d="M21.1184689,14.8978571 C20.6628025,15.47 20.5327136,16.1314286 21.0203691,16.7428571 C21.4547095,17.2892857 22.2345318,17.5171429 22.8885304,17.4364286 C23.0513192,17.4171429 23.2027341,17.3264286 23.3193165,17.2107143 C23.3605468,17.17 23.4963226,16.9735714 23.332823,16.9935714 C22.1478059,17.1392857 20.827013,16.0364286 21.791661,14.8214286 C22.0134518,14.5442857 21.3722488,14.6185714 21.1184689,14.8978571" id="Fill-808" fill="#DF818F"></path>
                    <path d="M14.1583595,18.1307143 C15.1912509,17.7471429 16.3137116,19.1121429 15.944771,20.1035714 C15.794067,20.5057143 16.4310048,20.3485714 16.5276828,20.0892857 C17.0899795,18.5792857 15.5196719,17.145 14.0936705,17.6735714 C13.751743,17.8007143 13.7176213,18.2942857 14.1583595,18.1307143" id="Fill-809" fill="#DF818F"></path>
                    <path d="M36.9480793,24.1478571 C36.717758,23.6685714 36.0395899,23.8242857 36.3530827,24.5335714 C37.7606015,27.7135714 33.2110458,30.1057143 31.1395762,27.9635714 C30.9767874,27.7957143 30.5779904,27.7578571 30.5339166,28.3092857 C30.2858237,31.38 24.8462611,32.0907143 23.8204785,29.1407143 C23.6413397,28.6257143 22.9169651,28.7428571 23.2261928,29.5264286 C24.5306357,32.8407143 29.9545591,31.7035714 30.9910048,28.7171429 C33.6148189,30.4607143 38.6719344,27.7171429 36.9480793,24.1478571" id="Fill-810" fill="#DF818F"></path>
                    <path d="M23.3996446,22.1128571 C23.4742857,22.7585714 23.5844703,24.3364286 22.664607,24.5392857 C21.8321805,24.7214286 22.1044429,25.1228571 22.459877,25.0514286 C23.9598086,24.7478571 24.1645386,23.1228571 24.0124129,21.8028571 C23.9882433,21.595 23.2098428,21.3971429 23.3996446,22.1128571" id="Fill-811" fill="#DF818F"></path>
                    <path d="M30.2794258,13.955 C31.4957211,14.9521429 32.2876282,16.1392857 32.2698565,17.7721429 C32.2655913,18.1707143 32.9060834,17.9378571 32.9110595,17.6414286 C32.929542,15.8642857 32.1205742,14.5707143 30.7862748,13.4742857 C30.5538209,13.2842857 30.009296,13.7314286 30.2794258,13.955" id="Fill-812" fill="#DF818F"></path>
                    <path d="M31.9968831,38.3178571 C30.3554887,38.6521429 28.9252221,38.0957143 28.0657826,36.4814286 C27.5233903,35.4614286 26.9177307,34.3421429 25.8791524,33.8985714 C26.484812,33.6685714 27.0449761,33.3235714 27.519836,32.8771429 C27.691866,32.9485714 27.8631852,33.0171429 28.042324,33.0721429 C28.979959,34.2885714 30.2481476,35.1907143 31.6521121,35.6821429 C30.8943267,36.7114286 31.1701435,37.515 31.9968831,38.3178571" id="Fill-813" fill="#E3B3C6"></path>
                    <path d="M32.4376213,38.5321429 C31.1850718,38.9421429 29.2344498,39.1557143 28.2179084,38.0321429 C27.0783869,36.7757143 26.7449897,34.4171429 24.7872591,34.1614286 L24.7460287,34.1542857 C24.5519617,34.1307143 24.8512372,33.8464286 25.0602324,33.7485714 L25.1910321,33.7142857 L25.2166234,33.7178571 C25.4561859,33.7485714 25.6772659,33.8078571 25.8791524,33.8985714 C26.9177307,34.3421429 27.5233903,35.4614286 28.0657826,36.4814286 C28.9252221,38.0957143 30.3554887,38.6521429 31.9968831,38.3178571 C31.1701435,37.515 30.8943267,36.7114286 31.6521121,35.6821429 L31.6599316,35.6714286 C31.7196446,35.5957143 31.9634723,35.4642857 32.1092003,35.4314286 L32.1127546,35.4314286 L32.2200957,35.4614286 L32.175311,35.55 C32.1127546,35.6335714 32.0601504,35.7142857 32.0111005,35.7971429 C31.469419,36.7485714 32.045933,37.4621429 32.8264662,38.1492857 C32.9416268,38.2507143 32.4902256,38.5178571 32.4376213,38.5321429" id="Fill-814" fill="#DF818F"></path>
                    <path d="M9.55691046,22.8078571 C9.50857143,22.8078571 9.46165414,22.8064286 9.41473684,22.8028571 L9.41473684,19.4742857 L7.89561176,19.4742857 C8.27379357,18.9671429 8.87732057,18.6385714 9.55691046,18.6385714 C10.0431442,18.6385714 10.4902802,18.8064286 10.8435817,19.0878571 C10.5748735,19.3978571 10.3424197,19.745 10.1526179,20.1242857 C9.73391661,20.9607143 9.55477785,21.8842857 9.62586466,22.8064286 C9.60311688,22.8071429 9.57965824,22.8078571 9.55691046,22.8078571" id="Fill-815" fill="#E7F4F5"></path>
                    <path d="M9.41473684,22.8028571 C8.3356391,22.7292857 7.4825974,21.8257143 7.4825974,20.7228571 C7.4825974,20.2542857 7.63614491,19.8221429 7.89561176,19.4742857 L9.41473684,19.4742857 L9.41473684,22.8028571" id="Fill-816" fill="#E8F5F6"></path>
                    <path d="M10.3644566,22.6435714 C10.3260697,21.8921429 10.4789064,21.1428571 10.8208339,20.4628571 C10.9672727,20.1721429 11.1421463,19.9042857 11.3426111,19.6614286 C11.526015,19.9721429 11.6319344,20.335 11.6319344,20.7228571 C11.6319344,21.5857143 11.1094463,22.3271429 10.3644566,22.6435714" id="Fill-817" fill="#EAF3F5"></path>
                    <path d="M9.62586466,22.8064286 C9.55477785,21.8842857 9.73391661,20.9607143 10.1526179,20.1242857 C10.3424197,19.745 10.5748735,19.3978571 10.8435817,19.0878571 C11.0426247,19.2464286 11.2125222,19.4407143 11.3426111,19.6614286 C11.1421463,19.9042857 10.9672727,20.1721429 10.8208339,20.4628571 C10.4789064,21.1428571 10.3260697,21.8921429 10.3644566,22.6435714 C10.1362679,22.7407143 9.88675325,22.7978571 9.62586466,22.8064286" id="Fill-818" fill="#E9F1F1"></path>
                    <path d="M14.112864,16.7364286 C13.918797,16.4414286 13.805769,16.0878571 13.805769,15.7078571 C13.805769,14.6742857 14.6389064,13.8371429 15.6675325,13.8371429 C16.079836,13.8371429 16.4608612,13.9721429 16.769378,14.2 C15.6241695,14.7135714 14.6900889,15.61 14.112864,16.7364286" id="Fill-819" fill="#D9EFF0"></path>
                    <path d="M15.6675325,17.5778571 C15.3028571,17.5778571 14.9630622,17.4728571 14.6758715,17.2907143 C15.1969378,16.145 16.1331511,15.2478571 17.2932878,14.7957143 C17.4432809,15.0657143 17.5285851,15.3764286 17.5285851,15.7078571 C17.5285851,16.7407143 16.6954477,17.5778571 15.6675325,17.5778571" id="Fill-820" fill="#E8E3E9"></path>
                    <path d="M14.6758715,17.2907143 C14.4512372,17.1485714 14.2585919,16.9592857 14.112864,16.7364286 C14.6900889,15.61 15.6241695,14.7135714 16.769378,14.2 C16.9833493,14.3585714 17.162488,14.5614286 17.2932878,14.7957143 C16.1331511,15.2478571 15.1969378,16.145 14.6758715,17.2907143" id="Fill-821" fill="#E7D6D8"></path>
                    <path d="M16.7935475,8.25928571 C16.7935475,8.88428571 16.289542,9.39071429 15.6675325,9.39071429 C15.0455229,9.39071429 14.5422283,8.88428571 14.5422283,8.25928571 C14.5422283,7.635 15.0455229,7.12857143 15.6675325,7.12857143 C16.289542,7.12857143 16.7935475,7.635 16.7935475,8.25928571" id="Fill-822" fill="#EAF6F7"></path>
                    <path d="M32.2620369,8.68357143 C32.2620369,9.07357143 31.9471224,9.39071429 31.5582775,9.39071429 C31.1694327,9.39071429 30.855229,9.07357143 30.855229,8.68357143 C30.855229,8.29285714 31.1694327,7.97714286 31.5582775,7.97714286 C31.9471224,7.97714286 32.2620369,8.29285714 32.2620369,8.68357143" id="Fill-823" fill="#EAF6F7"></path>
                    <path d="M41.6334108,27.0471429 C41.5708544,26.6635714 41.4805742,26.2821429 41.3618592,25.9042857 C41.3057006,25.7192857 41.2374573,25.535 41.1677922,25.36 C41.3369788,24.7878571 41.4279699,24.2028571 41.4414764,23.6157143 C42.0421599,23.9792857 42.4438004,24.6414286 42.4438004,25.3971429 C42.4438004,26.0685714 42.1260424,26.6664286 41.6334108,27.0471429" id="Fill-824" fill="#E0F1F3"></path>
                    <path d="M40.5230349,27.4714286 C40.6118934,27.14 40.6780041,26.7985714 40.7419822,26.455 C40.8258647,26.7685714 40.8884211,27.0842857 40.9303623,27.4007143 C40.7995625,27.4371429 40.6630759,27.4614286 40.5230349,27.4714286 M39.8406015,27.4064286 C38.9569925,27.1692857 38.3065482,26.3585714 38.3065482,25.3971429 C38.3065482,24.2492857 39.2328093,23.3185714 40.3751743,23.3185714 C40.4839371,23.3185714 40.5905673,23.3271429 40.6950649,23.3428571 C40.7078606,23.9907143 40.6147368,24.6385714 40.4164046,25.2657143 L40.3751743,25.3971429 L40.392946,25.4335714 C40.2294463,26.0192857 40.0744771,26.7228571 39.8406015,27.4064286" id="Fill-825" fill="#E8EBEE"></path>
                    <path d="M40.9303623,27.4007143 C40.8884211,27.0842857 40.8258647,26.7685714 40.7419822,26.455 C40.8464798,25.8935714 40.9431579,25.3278571 41.1187423,24.7942857 C41.136514,24.7392857 41.0974163,24.7164286 41.0313055,24.7164286 C40.8770472,24.7164286 40.5784826,24.8428571 40.5287218,24.9878571 C40.4818045,25.1257143 40.4370198,25.2757143 40.392946,25.4335714 L40.3751743,25.3971429 L40.4164046,25.2657143 C40.6147368,24.6385714 40.7078606,23.9907143 40.6950649,23.3428571 C40.9644839,23.385 41.2168421,23.4792857 41.4414764,23.6157143 C41.4279699,24.2028571 41.3369788,24.7878571 41.1677922,25.36 C41.2374573,25.535 41.3057006,25.7192857 41.3618592,25.9042857 C41.4805742,26.2821429 41.5708544,26.6635714 41.6334108,27.0471429 C41.4265482,27.2071429 41.1891183,27.3285714 40.9303623,27.4007143" id="Fill-826" fill="#E7E0E2"></path>
                    <path d="M40.3751743,27.4764286 C40.1903486,27.4764286 40.0112098,27.4521429 39.8406015,27.4064286 C40.0744771,26.7228571 40.2294463,26.0192857 40.392946,25.4335714 C40.4370198,25.2757143 40.4818045,25.1257143 40.5287218,24.9878571 C40.5784826,24.8428571 40.8770472,24.7164286 41.0313055,24.7164286 C41.0974163,24.7164286 41.136514,24.7392857 41.1187423,24.7942857 C40.9431579,25.3278571 40.8464798,25.8935714 40.7419822,26.455 C40.6780041,26.7985714 40.6118934,27.14 40.5230349,27.4714286 C40.473985,27.4742857 40.4249351,27.4764286 40.3751743,27.4764286" id="Fill-827" fill="#E7E0E2"></path>
                    <path d="M42.0115926,20.6364286 L41.7286671,20.4721429 C41.7080519,20.3592857 41.6973889,20.2428571 41.6973889,20.1242857 C41.6973889,19.0642857 42.5525632,18.2042857 43.6082023,18.2042857 C44.6631306,18.2042857 45.5190157,19.0642857 45.5190157,20.1242857 C45.5190157,20.245 45.5076418,20.3635714 45.4863158,20.4785714 L45.2140533,20.6364286 C44.7996172,20.2342857 44.235188,19.9871429 43.6131784,19.9871429 C42.9911688,19.9871429 42.4267396,20.2342857 42.0115926,20.6364286" id="Fill-828" fill="#D9EFF0"></path>
                    <path d="M41.8310321,20.8321429 C41.7862474,20.7171429 41.7514149,20.5971429 41.7286671,20.4721429 L42.0115926,20.6364286 C41.9476145,20.6978571 41.8879016,20.7635714 41.8310321,20.8321429 M45.2282707,20.65 C45.2232946,20.6457143 45.2190294,20.6407143 45.2140533,20.6364286 L45.4863158,20.4785714 C45.4848941,20.4864286 45.4834723,20.495 45.4820506,20.5028571 L45.2282707,20.65" id="Fill-829" fill="#DDF0F2"></path>
                    <path d="M45.388216,20.8242857 C45.3377444,20.7635714 45.2844293,20.705 45.2282707,20.65 L45.4820506,20.5028571 C45.4600137,20.6135714 45.4280246,20.7214286 45.388216,20.8242857" id="Fill-830" fill="#DDF0F2"></path>
                    <path d="M43.615311,22.0442857 C43.6750239,21.9214286 43.7084347,21.7835714 43.7084347,21.6371429 C43.7084347,21.1285714 43.2954204,20.7121429 42.785728,20.7121429 C42.45162,20.7121429 42.1594532,20.8914286 41.9980861,21.1585714 C41.9326863,21.0557143 41.8765277,20.9464286 41.8310321,20.8321429 C41.8879016,20.7635714 41.9476145,20.6978571 42.0115926,20.6364286 C42.4267396,20.2342857 42.9911688,19.9871429 43.6131784,19.9871429 C44.235188,19.9871429 44.7996172,20.2342857 45.2140533,20.6364286 C45.2190294,20.6407143 45.2232946,20.6457143 45.2282707,20.65 C45.2844293,20.705 45.3377444,20.7635714 45.388216,20.8242857 C45.1102666,21.5364286 44.4214354,22.0414286 43.615311,22.0442857" id="Fill-831" fill="#D2EBED"></path>
                    <path d="M43.6082023,22.0442857 C42.9314559,22.0442857 42.3371702,21.6914286 41.9980861,21.1585714 C42.1594532,20.8914286 42.45162,20.7121429 42.785728,20.7121429 C43.2954204,20.7121429 43.7084347,21.1285714 43.7084347,21.6371429 C43.7084347,21.7835714 43.6750239,21.9214286 43.615311,22.0442857 C43.6124675,22.0442857 43.6103349,22.0442857 43.6082023,22.0442857" id="Fill-832" fill="#D4ECEE"></path>
                    <path d="M40.3751743,16.05 C39.6038824,16.05 38.9790294,15.4221429 38.9790294,14.6471429 C38.9790294,13.8728571 39.6038824,13.245 40.3751743,13.245 C41.1457553,13.245 41.7713192,13.8728571 41.7713192,14.6471429 C41.7713192,15.4221429 41.1457553,16.05 40.3751743,16.05" id="Fill-833" fill="#D9EFF0"></path>
                    <path d="M16.4857416,42.07 C17.5435133,44.6092857 17.8584279,46.8314286 17.1603554,49.2071429 L16.1416815,49.2071429 C16.6378674,47.5607143 16.6876282,45.8764286 16.0748599,44.1278571 C15.4613807,42.3814286 14.177553,40.6842857 13.789419,38.8971429 C13.293944,36.6292857 14.0033903,34.6778571 15.0106904,32.6821429 C17.1326316,28.4857143 20.1552427,24.205 21.3814901,19.6292857 C21.4831442,19.2392857 22.5864115,19.0807143 22.4676965,19.505 C21.263486,23.99 18.348216,28.1414286 16.2660834,32.2571429 C15.6355434,33.4971429 14.8422146,34.8592857 14.7242105,36.2735714 C14.5265892,38.6085714 15.6298565,40.0171429 16.4857416,42.07" id="Fill-834" fill="#5E6E8B"></path>
                    <path d="M24.8547915,49.2071429 L23.7792481,49.2071429 C24.2242515,46.9335714 23.4927683,44.7678571 21.9843062,42.5842857 C20.8469173,40.9278571 19.8339303,39.4628571 19.6597676,37.4157143 C19.3953247,34.3564286 20.487218,30.3692857 21.8712782,27.6492857 C22.0795625,27.2364286 23.1835407,27.2185714 22.9077239,27.7621429 C21.0665755,31.3642857 19.6654545,37.2121429 22.0688995,40.7692857 C23.9761586,43.5914286 25.4121121,46.2271429 24.8547915,49.2071429" id="Fill-835" fill="#596931"></path>
                    <path d="M30.241039,49.2071429 L28.963609,49.2071429 C27.2298018,46.3621429 24.5562269,44.0214286 25.4682707,40.2878571 C26.3575666,36.6457143 29.3744908,30.5721429 26.7734245,27.1392857 C26.5317293,26.8235714 27.578838,26.4542857 27.7871224,26.7271429 C30.2019412,29.9107143 27.9221873,35.1307143 26.9881066,38.4728571 C26.1997539,41.3064286 26.1656323,43.5292857 28.0003828,46.0064286 C28.7887355,47.0742857 29.604812,48.0864286 30.241039,49.2071429" id="Fill-836" fill="#5E6E8B"></path>
                    <path d="M37.822447,49.2071429 L36.2123308,49.2071429 C33.7477512,47.4607143 32.655147,45.0107143 34.2034176,41.8714286 C35.8803554,38.4678571 36.4710868,33.2142857 33.2010936,30.5507143 C32.9593985,30.3521429 33.9553247,29.9285714 34.2197676,30.1485714 C36.7923992,32.2471429 37.068216,36.1435714 36.2293917,39.1857143 C35.7232536,41.035 34.1586329,43.065 34.5240191,45.0557143 C34.8894053,47.0578571 36.17892,48.2457143 37.822447,49.2071429" id="Fill-837" fill="#E6753F"></path>
                    <path d="M10.243609,44.8407143 C10.7213124,46.345 11.1158442,47.7542857 11.1044703,49.2071429 L9.96210526,49.2071429 C9.85476418,45.5364286 7.29990431,42.0478571 8.73514696,38.2757143 C10.5251128,33.5757143 15.1514422,28.83 13.5640738,23.4807143 C13.4346958,23.045 14.5209023,22.7457143 14.6509911,23.1871429 C16.0855229,28.0221429 12.5908954,32.2292857 10.626056,36.3357143 C9.19650034,39.3385714 9.24768284,41.7192857 10.243609,44.8407143" id="Fill-838" fill="#B2824A"></path>
                    <path d="M15.8701299,23.335 C15.8701299,24.2871429 15.1016815,25.0592857 14.1533835,25.0592857 C13.2050854,25.0592857 12.436637,24.2871429 12.436637,23.335 C12.436637,22.3821429 13.2050854,21.61 14.1533835,21.61 C15.1016815,21.61 15.8701299,22.3821429 15.8701299,23.335" id="Fill-839" fill="#3D4A67"></path>
                    <path d="M23.4245249,19.7057143 C23.4245249,20.6585714 22.6560766,21.4307143 21.7077785,21.4307143 C20.7601914,21.4307143 19.991743,20.6585714 19.991743,19.7057143 C19.991743,18.7535714 20.7601914,17.9814286 21.7077785,17.9814286 C22.6560766,17.9814286 23.4245249,18.7535714 23.4245249,19.7057143" id="Fill-840" fill="#3D4A67"></path>
                    <path d="M24.1951059,27.7057143 C24.1951059,28.6578571 23.4266576,29.4307143 22.4783595,29.4307143 C21.5300615,29.4307143 20.7616131,28.6578571 20.7616131,27.7057143 C20.7616131,26.7528571 21.5300615,25.9807143 22.4783595,25.9807143 C23.4266576,25.9807143 24.1951059,26.7528571 24.1951059,27.7057143" id="Fill-841" fill="#3D4A67"></path>
                    <path d="M29.1086261,27.1221429 C29.1086261,28.075 28.3401777,28.8464286 27.3911688,28.8464286 C26.4435817,28.8464286 25.6751333,28.075 25.6751333,27.1221429 C25.6751333,26.1692857 26.4435817,25.3971429 27.3911688,25.3971429 C28.3401777,25.3971429 29.1086261,26.1692857 29.1086261,27.1221429" id="Fill-842" fill="#3D4A67"></path>
                    <path d="M35.7680383,30.3485714 C35.7680383,31.3014286 34.9995899,32.0735714 34.0520027,32.0735714 C33.1037047,32.0735714 32.3352563,31.3014286 32.3352563,30.3485714 C32.3352563,29.3957143 33.1037047,28.6235714 34.0520027,28.6235714 C34.9995899,28.6235714 35.7680383,29.3957143 35.7680383,30.3485714" id="Fill-843" fill="#3D4A67"></path>
                </g>
            </g>
        </g>
    </g>
</svg>