<?xml version="1.0" encoding="UTF-8"?>
<svg width="90px" height="90px" viewBox="0 0 90 90" version="1.1" xmlns="http://www.w3.org/2000/svg" xmlns:xlink="http://www.w3.org/1999/xlink">
    <!-- Generator: Sketch 49.1 (51147) - http://www.bohemiancoding.com/sketch -->
    <title>Group 3</title>
    <desc>Created with Sketch.</desc>
    <defs></defs>
    <g id="Page-1" stroke="none" stroke-width="1" fill="none" fill-rule="evenodd">
        <g id="Avaleht_375px" transform="translate(-143.000000, -469.000000)">
            <g id="Group-3" transform="translate(143.000000, 469.000000)">
                <circle id="Oval-9-Copy-3" fill="#FFFFFF" opacity="0.6" cx="45" cy="45" r="45"></circle>
                <g id="Group-7" transform="translate(17.000000, 13.000000)">
                    <path d="M49.972,39.696 L26.754,39.696 C24.657,39.696 22.957,37.361 22.957,34.489 C22.957,33.064 23.378,31.732 24.143,30.73 C24.848,29.803 25.774,29.29 26.754,29.29 L49.964,29.29 C49.604,29.558 49.267,29.887 48.977,30.27 C48.15,31.35 47.638,32.843 47.638,34.489 C47.638,36.725 48.578,38.678 49.972,39.696" id="Fill-212" fill="#BDBDBD"></path>
                    <path d="M31.056,8.255 C29.869,6.047 27.793,4.318 25.166,3.649 C22.541,2.98 19.894,3.505 17.792,4.875 C18.982,7.082 21.055,8.812 23.681,9.482 C26.307,10.151 28.956,9.625 31.056,8.255" id="Fill-213" fill="#9AC63D"></path>
                    <path d="M19.744,21.437 C21.549,26.196 26.225,28.956 30.741,28.207 C35.251,28.966 39.945,26.196 41.751,21.437 C43.789,16.068 41.405,10.176 36.428,8.286 C34.558,7.575 32.585,7.529 30.741,8.043 C28.908,7.529 26.936,7.575 25.066,8.286 C20.08,10.176 17.705,16.068 19.744,21.437" id="Fill-214" fill="#E05A29"></path>
                    <path d="M25.066,8.286 C25.842,7.987 26.636,7.81 27.422,7.734 C27.423,7.735 27.424,7.736 27.424,7.737 C26.632,7.811 25.84,7.992 25.066,8.286" id="Fill-215" fill="#879A3C"></path>
                    <path d="M35.45,27.759 L26.044,27.759 C25.95,27.725 25.857,27.69 25.765,27.654 C23.129,26.612 20.874,24.416 19.744,21.437 C19.25,20.136 19.015,18.805 19.014,17.508 C19.009,13.449 21.288,9.718 25.066,8.286 C25.84,7.992 26.632,7.811 27.424,7.737 C27.666,8.13 26.103,8.723 25.717,9.099 C24.424,10.361 23.672,10.531 22.62,12.021 C20.948,14.392 20.753,17.658 21.801,20.24 C23.092,23.513 26.366,22.689 29.049,23.98 C30.849,24.779 33.672,26.085 35.991,26.085 C36.385,26.085 36.764,26.048 37.121,25.963 C38.103,25.683 39.075,25.159 39.993,24.495 C38.765,26.007 37.182,27.13 35.45,27.759" id="Fill-216" fill="#C9482C"></path>
                    <path d="M28.627,2.351 C29.74,3.753 31.365,6.057 30.233,7.855 C29.623,8.822 30.585,9.404 31.191,8.441 C32.809,5.875 31.528,3.117 29.823,0.969 C29.295,0.301 28.178,1.785 28.627,2.351" id="Fill-217" fill="#544436"></path>
                    <path d="M39.408,18.177 C38.362,18.177 37.013,16.987 36.159,15.207 C35.151,13.111 35.209,10.994 36.285,10.476 C36.447,10.398 36.622,10.361 36.807,10.361 C37.854,10.361 39.201,11.552 40.056,13.332 C41.064,15.428 41.007,17.545 39.93,18.063 C39.768,18.14 39.593,18.177 39.408,18.177" id="Fill-218" fill="#E88153"></path>
                    <path d="M52.078,39.696 L52.153,41.211 C52.062,41.227 51.986,41.227 51.893,41.227 L26.754,41.227 C25.867,41.227 25.024,40.952 24.283,40.462 C23.959,40.24 23.655,39.987 23.37,39.696 C22.184,38.455 21.426,36.58 21.426,34.489 C21.426,32.727 21.954,31.066 22.926,29.803 C23.063,29.619 23.217,29.443 23.37,29.29 C23.655,28.991 23.959,28.731 24.29,28.524 C25.04,28.026 25.891,27.759 26.754,27.759 L51.893,27.759 C51.986,27.759 52.062,27.759 52.153,27.774 L52.078,29.29 L26.754,29.29 C25.774,29.29 24.848,29.803 24.143,30.73 C23.378,31.732 22.957,33.064 22.957,34.489 C22.957,37.361 24.657,39.696 26.754,39.696 L52.078,39.696" id="Fill-219" fill="#41A69E"></path>
                    <path d="M24.283,40.462 C25.024,40.952 25.867,41.227 26.754,41.227 L13.455,41.227 C10.515,41.227 8.117,38.203 8.117,34.489 C8.117,30.775 10.515,27.759 13.455,27.759 L26.754,27.759 C25.891,27.759 25.04,28.026 24.29,28.524 C23.959,28.731 23.655,28.991 23.37,29.29 C23.217,29.443 23.063,29.619 22.926,29.803 C21.954,31.066 21.426,32.727 21.426,34.489 C21.426,36.58 22.184,38.455 23.37,39.696 C23.655,39.987 23.959,40.24 24.283,40.462" id="Fill-220" fill="#39928A"></path>
                    <path d="M53.223,53.166 L30.136,53.166 C28.038,53.166 26.337,50.83 26.337,47.966 C26.337,46.542 26.759,45.209 27.525,44.198 C28.229,43.272 29.154,42.759 30.136,42.759 L53.214,42.759 C52.848,43.027 52.519,43.356 52.227,43.739 C51.4,44.826 50.887,46.311 50.887,47.966 C50.887,50.202 51.829,52.146 53.223,53.166" id="Fill-221" fill="#BDBDBD"></path>
                    <path d="M55.38,53.166 L55.366,54.696 L30.136,54.696 C29.248,54.696 28.406,54.42 27.663,53.93 C27.34,53.709 27.034,53.455 26.752,53.166 C25.564,51.933 24.805,50.056 24.805,47.966 C24.805,46.212 25.335,44.542 26.301,43.272 C26.438,43.088 26.59,42.92 26.744,42.759 C27.027,42.46 27.34,42.2 27.67,41.994 C28.42,41.496 29.27,41.227 30.136,41.227 L55.366,41.227 L55.38,42.759 L30.136,42.759 C29.154,42.759 28.229,43.272 27.525,44.198 C26.759,45.209 26.337,46.542 26.337,47.966 C26.337,50.83 28.038,53.166 30.136,53.166 L55.38,53.166" id="Fill-222" fill="#60566C"></path>
                    <path d="M27.663,53.93 C28.406,54.42 29.248,54.696 30.136,54.696 L5.349,54.696 C2.409,54.696 0.012,51.678 0.012,47.966 C0.012,44.252 2.409,41.227 5.349,41.227 L30.136,41.227 C29.27,41.227 28.42,41.496 27.67,41.994 C27.34,42.2 27.027,42.46 26.744,42.759 C26.59,42.92 26.438,43.088 26.301,43.272 C25.335,44.542 24.805,46.212 24.805,47.966 C24.805,50.056 25.564,51.933 26.752,53.166 C27.034,53.455 27.34,53.709 27.663,53.93" id="Fill-223" fill="#4C4555"></path>
                    <path d="M20.804,39.696 L18.438,39.696 C17.466,38.233 16.921,36.403 16.921,34.489 C16.921,32.575 17.459,30.744 18.43,29.29 L20.796,29.29 C19.825,30.744 19.279,32.575 19.279,34.489 C19.279,36.403 19.825,38.233 20.804,39.696" id="Fill-224" fill="#317973"></path>
                    <path d="M16.43,39.696 L12.558,39.696 L12.542,39.673 C11.234,38.769 10.372,37.07 10.372,34.493 C10.372,31.949 11.402,30.322 12.533,29.312 L12.55,29.29 L16.424,29.29 C15.444,30.744 14.908,32.575 14.908,34.489 C14.908,36.403 15.451,38.233 16.43,39.696" id="Fill-225" fill="#317973"></path>
                    <path d="M12.157,53.17 L6.17,53.17 C4.102,53.17 2.363,50.789 2.363,47.972 C2.363,45.154 4.102,42.765 6.17,42.765 L12.148,42.765 C11.178,44.228 10.642,46.066 10.642,47.972 C10.642,49.885 11.184,51.716 12.157,53.17" id="Fill-226" fill="#3D3845"></path>
                    <path d="M22.957,53.17 L17.598,53.17 C16.625,51.716 16.081,49.885 16.081,47.972 C16.081,46.066 16.618,44.228 17.589,42.765 L22.951,42.765 C21.978,44.228 21.44,46.066 21.44,47.972 C21.44,49.885 21.985,51.716 22.957,53.17" id="Fill-227" fill="#3D3845"></path>
                    <path d="M47.676,33.714 C47.809,32.377 48.282,31.177 48.977,30.27 C49.266,29.889 49.602,29.56 49.96,29.293 L49.984,29.293 C49.624,29.561 49.286,29.89 48.996,30.272 C48.307,31.177 47.831,32.364 47.701,33.688 L47.676,33.714" id="Fill-228" fill="#559242"></path>
                    <path d="M41.694,39.696 L26.754,39.696 C26.571,39.696 26.391,39.678 26.214,39.643 C24.383,39.271 22.977,37.102 22.977,34.492 C22.977,33.068 23.399,31.735 24.164,30.732 C24.869,29.806 25.794,29.293 26.773,29.293 L49.96,29.293 C49.602,29.56 49.266,29.889 48.977,30.27 C48.282,31.177 47.809,32.377 47.676,33.714 L41.694,39.696" id="Fill-229" fill="#A6A6A6"></path>
                    <path d="M41.69,39.7 L26.773,39.7 C26.583,39.7 26.397,39.681 26.214,39.643 C26.391,39.678 26.571,39.696 26.754,39.696 L41.694,39.696 L41.69,39.7" id="Fill-230" fill="#378A85"></path>
                    <path d="M50.919,47.247 C51.045,45.883 51.522,44.666 52.227,43.739 C52.518,43.358 52.846,43.029 53.211,42.761 L53.237,42.761 C52.87,43.03 52.542,43.359 52.251,43.742 C51.554,44.661 51.078,45.863 50.948,47.218 L50.919,47.247" id="Fill-231" fill="#559242"></path>
                    <path d="M45.001,53.166 L30.136,53.166 C30.045,53.166 29.955,53.161 29.866,53.153 C27.905,52.947 26.361,50.697 26.361,47.968 C26.361,46.544 26.784,45.212 27.548,44.201 C28.253,43.275 29.179,42.761 30.16,42.761 L53.211,42.761 C52.846,43.029 52.518,43.358 52.227,43.739 C51.522,44.666 51.045,45.883 50.919,47.247 L45.001,53.166" id="Fill-232" fill="#A6A6A6"></path>
                    <path d="M44.999,53.168 L30.16,53.168 C30.061,53.168 29.963,53.163 29.866,53.153 C29.955,53.161 30.045,53.166 30.136,53.166 L45.001,53.166 L44.999,53.168" id="Fill-233" fill="#4D4758"></path>
                    <path d="M23.106,9.316 C22.092,8.987 21.17,8.497 20.361,7.882 C21.171,8.496 22.095,8.985 23.111,9.312 C23.11,9.313 23.108,9.315 23.106,9.316" id="Fill-236" fill="#7FA640"></path>
                    <path d="M26.044,27.759 L26.043,27.759 C25.95,27.725 25.857,27.69 25.765,27.654 C25.857,27.69 25.95,27.725 26.044,27.759" id="Fill-237" fill="#A43D2B"></path>
                    <path d="M10.276,29.086 C11.165,28.252 12.266,27.759 13.455,27.759 L26.044,27.759 C26.046,27.76 26.049,27.761 26.052,27.762 L13.451,27.762 C12.264,27.762 11.165,28.254 10.276,29.086" id="Fill-238" fill="#317873"></path>
                    <path d="M2.763,42.074 C3.529,41.535 4.411,41.227 5.349,41.227 L13.248,41.227 C13.315,41.23 13.383,41.232 13.451,41.232 L5.342,41.232 C4.407,41.232 3.527,41.537 2.763,42.074" id="Fill-239" fill="#3D3746"></path>
                </g>
            </g>
        </g>
    </g>
</svg>