<?xml version="1.0" encoding="UTF-8"?>
<svg width="100px" height="100px" viewBox="0 0 100 100" version="1.1" xmlns="http://www.w3.org/2000/svg" xmlns:xlink="http://www.w3.org/1999/xlink">
    <!-- Generator: Sketch 49.1 (51147) - http://www.bohemiancoding.com/sketch -->
    <title>Group 13</title>
    <desc>Created with Sketch.</desc>
    <defs></defs>
    <g id="Page-1" stroke="none" stroke-width="1" fill="none" fill-rule="evenodd">
        <g id="Avaleht_700px" transform="translate(-430.000000, -425.000000)">
            <g id="Group-3" transform="translate(380.000000, 425.000000)">
                <g id="Group-13" transform="translate(50.000000, 0.000000)">
                    <circle id="Oval-9-Copy-4" fill="#FFFFFF" opacity="0.6" cx="50" cy="50" r="50"></circle>
                    <g id="Group-12-Copy-3" transform="translate(22.000000, 18.000000)">
                        <path d="M46.6699111,7.7361039 C41.9114895,2.95480519 35.3353135,0 28.0782551,0 C13.557159,0 1.78673461,11.827013 1.78673461,26.4179221 L1.78673461,54.7106494 C1.78673461,55.9449351 1.87281427,57.1535065 2.03256571,58.3379221 L3.8929721,58.3379221 C3.72081278,57.1535065 3.62852917,55.9449351 3.62852917,54.7106494 L3.62852917,26.4179221 C3.62852917,12.8688312 14.6009719,1.85064935 28.0782551,1.85064935 C41.5617424,1.85064935 52.5272056,12.8688312 52.5272056,26.4179221 L52.5272056,54.7106494 C52.5272056,55.9449351 52.434922,57.1535065 52.2635382,58.3379221 L54.1239446,58.3379221 C54.283696,57.1535065 54.3690002,55.9379221 54.3690002,54.7106494 L54.3690002,26.4179221 C54.3690002,19.118961 51.4283328,12.5181818 46.6699111,7.7361039" id="Fill-774" fill="#62BCBC"></path>
                        <path d="M52.5272056,53.6805195 L3.62852917,53.6805195 L3.62852917,44.5348052 L3.85885043,44.5753247 L4.04962157,43.5327273 L3.72081278,43.4735065 C3.74407755,43.1727273 3.74795501,42.8696104 3.72081278,42.5688312 L4.05505002,42.5096104 L4.0263568,42.3467532 L3.87746225,41.4646753 L3.62852917,41.5090909 L3.62852917,40.2280519 L4.23496427,40.2280519 C4.92670354,40.2280519 5.7208078,39.7075325 6.00153607,39.0709091 L6.31561051,38.3524675 L8.24270925,40.2280519 C8.17524141,40.401039 8.11630398,40.5787013 8.06822345,40.7587013 L7.7347617,40.6963636 L7.54399055,41.7420779 L7.87590132,41.8012987 C7.85108557,42.0997403 7.85108557,42.4028571 7.87590132,42.7075325 L7.54166408,42.7620779 L7.71925185,43.8077922 L8.0527136,43.7532468 C8.09303921,43.8966234 8.13956876,44.0415584 8.1860983,44.1825974 C8.2380563,44.3251948 8.29466725,44.4638961 8.35670664,44.6002597 L8.062795,44.7693506 L8.54282483,45.607013 L8.5870279,45.6919481 L8.87938855,45.5212987 C9.04999689,45.7722078 9.24697198,46.005974 9.45402846,46.221039 L9.23533959,46.4797403 L10.0395253,47.1623377 L10.2613161,46.9051948 C10.5048207,47.078961 10.7653862,47.2301299 11.0383595,47.361039 L10.9204847,47.678961 L11.9076866,48.0451948 L12.0247859,47.7241558 C12.3140446,47.8028571 12.6095072,47.8612987 12.9088473,47.8885714 L12.9088473,48.2283117 L13.9635171,48.2337662 L13.9635171,47.8932468 C14.2589797,47.8683117 14.5567688,47.8192208 14.8514559,47.7420779 L14.9662288,48.0631169 L15.9580836,47.7046753 L15.8448617,47.3851948 C16.1193861,47.2550649 16.3830535,47.1038961 16.6257826,46.934026 L16.8429205,47.1981818 L17.6533101,46.5187013 L17.4361722,46.2584416 C17.6533101,46.0464935 17.8440813,45.8119481 18.0185671,45.5672727 L18.3117032,45.7425974 L18.8405891,44.8254545 L18.5505549,44.654026 C18.6754092,44.3844156 18.7855291,44.0968831 18.8599764,43.8062338 L19.1942136,43.867013 L19.3849848,42.8244156 L19.056176,42.765974 C19.0794408,42.4636364 19.0825427,42.1628571 19.056176,41.8597403 L19.3904132,41.8012987 L19.3578425,41.6361039 L19.2097235,40.7571429 L18.8785882,40.814026 C18.8382626,40.6667532 18.7925085,40.5225974 18.744428,40.3815584 C18.690919,40.2412987 18.6358591,40.1025974 18.5745952,39.9623377 L18.8677313,39.7963636 L18.5567588,39.2438961 L18.3450494,38.872987 L18.0511378,39.0420779 C17.8789784,38.7903896 17.6874318,38.5605195 17.4780488,38.3438961 L17.6975132,38.0851948 L16.8902256,37.4033766 L16.6699857,37.658961 C16.5319481,37.56 16.3861555,37.4696104 16.2380364,37.3838961 C16.128692,37.3223377 16.0084906,37.2607792 15.8960442,37.207013 L16.0131436,36.8875325 L15.0243907,36.5174026 L14.9088424,36.8384416 C14.6157062,36.7636364 14.324121,36.7036364 14.0224545,36.6763636 L14.0240055,36.3381818 L12.9677848,36.3296104 L12.9677848,36.6716883 C12.6723221,36.6981818 12.3737575,36.7488312 12.0782949,36.8251948 L11.9658485,36.5057143 L10.9701162,36.8641558 L11.0864401,37.1812987 C10.9243621,37.2568831 10.7684882,37.3394805 10.6180426,37.4290909 L7.88443174,34.7688312 L9.54476108,30.9755844 L10.7522028,28.2202597 L10.7506518,28.2202597 L11.9045846,28.2202597 C12.9166022,29.3672727 14.3706506,30.0568831 15.9518797,30.0568831 C16.078285,30.0568831 16.2077922,30.0537662 16.334973,30.0451948 C17.0197328,31.8794805 18.7234897,33.0966234 20.6567924,33.0966234 C20.8033605,33.0966234 20.953806,33.0888312 21.1058025,33.0755844 C21.1329448,33.187013 21.1624135,33.2976623 21.1988616,33.4075325 C21.9324775,35.7428571 24.0232051,37.3075325 26.4055179,37.3075325 C26.6164519,37.3075325 26.8289368,37.2958442 27.0406462,37.267013 C27.3624756,37.2303896 27.6804275,37.1602597 27.9906245,37.0612987 C28.0728267,37.0363636 28.1496004,37.0090909 28.2318026,36.9802597 C28.8925222,36.7293506 29.5036103,36.3537662 30.0216392,35.865974 C30.2093084,35.9438961 30.3962021,36.0187013 30.5924017,36.0787013 C31.6145007,37.4057143 32.9979792,38.3898701 34.5295768,38.925974 C34.6606351,38.9750649 34.7924688,39.0163636 34.920425,39.0514286 C35.6726527,39.2774026 36.4543491,39.3974026 37.2500043,39.3974026 C38.0852097,39.3974026 38.9165376,39.2657143 39.7207233,39.0132468 C41.8564295,38.332987 43.5935326,36.8407792 44.6117542,34.8093506 C45.4407556,33.1612987 45.7152799,31.3168831 45.4182663,29.505974 C45.9556826,29.0906494 46.3023277,28.4384416 46.3023277,27.705974 C46.3023277,26.8815584 45.8641745,26.1592208 45.2088834,25.7625974 C45.2135363,25.5615584 45.2096589,25.3605195 45.1980265,25.1594805 C45.4640204,25.9324675 46.0929448,26.5363636 46.8808451,26.7638961 L46.8808451,33.9249351 C46.0975977,34.1937662 45.5353657,34.9394805 45.5353657,35.8153247 C45.5353657,35.985974 45.556304,36.1519481 45.5966296,36.3101299 L37.2670652,41.5496104 C36.9436848,41.7561039 36.8444218,42.187013 37.0483763,42.5119481 C37.18021,42.7246753 37.4066538,42.8415584 37.6385261,42.8415584 C37.7649313,42.8415584 37.8921121,42.8064935 38.006885,42.734026 L46.3922848,37.4587013 C46.7133387,37.6815584 47.1034114,37.8124675 47.5237283,37.8124675 C47.9913503,37.8124675 48.4217486,37.6503896 48.7606388,37.3784416 L52.5272056,39.5649351 L52.5272056,53.6805195 M52.5272056,37.9519481 L49.4771938,36.1831169 C49.4996831,36.0638961 49.51054,35.9407792 49.51054,35.8153247 C49.51054,34.9792208 48.998715,34.2615584 48.2720785,33.9646753 L48.2720785,26.7646753 C49.3244218,26.4615584 50.0944858,25.4875325 50.0944858,24.3335065 C50.0944858,24.1293506 50.0704455,23.9314286 50.025467,23.7412987 L52.2123557,22.4727273 C52.4194122,23.7576623 52.5272056,25.0753247 52.5272056,26.4179221 L52.5272056,37.9519481 M10.5505748,25.3083117 L10.270622,25.3083117 L10.270622,24.8758442 C10.3218045,24.8797403 10.372987,24.8812987 10.4257205,24.8812987 C10.4505363,24.8812987 10.4761275,24.8805195 10.5009433,24.8797403 C10.5118002,25.0231169 10.5280855,25.1657143 10.5505748,25.3083117 M45.0669682,24.1464935 C45.0312956,23.9664935 44.9886435,23.7872727 44.9397875,23.6096104 L45.1344361,23.7225974 C45.1003144,23.8597403 45.0778251,24.0015584 45.0669682,24.1464935 M49.6214354,22.3402597 C49.6447002,22.2148052 49.6571081,22.0854545 49.6571081,21.9537662 C49.6571081,20.7974026 48.7234151,19.8592208 47.5725844,19.8592208 C46.4209781,19.8592208 45.4880606,20.7974026 45.4880606,21.9537662 C45.4880606,22.0831169 45.499693,22.2101299 45.5221823,22.3332468 L43.910709,21.398961 C43.0095868,20.0836364 41.69978,19.0877922 40.1503461,18.578961 C40.1534481,18.5290909 40.1549991,18.4792208 40.1549991,18.4293506 C40.1549991,17.4911688 39.646276,16.6706494 38.8901709,16.2335065 C38.7187871,16.0184416 38.5326689,15.8174026 38.3325918,15.6327273 L38.3325918,9.68337662 C39.5012589,9.37402597 40.365933,8.30415584 40.365933,7.03402597 C40.365933,6.78467532 40.3325868,6.54311688 40.269772,6.31324675 L41.2639533,5.73662338 C46.581505,9.17142857 50.4946399,14.6197403 51.9285254,21.0015584 L49.6214354,22.3402597 M44.0456447,14.4490909 C43.2042354,14.4490909 42.5225775,15.134026 42.5225775,15.9787013 C42.5225775,16.8241558 43.2042354,17.5090909 44.0456447,17.5090909 C44.8862785,17.5090909 45.5687119,16.8241558 45.5687119,15.9787013 C45.5687119,15.134026 44.8862785,14.4490909 44.0456447,14.4490909 M8.61339464,21.2446753 L5.02208911,21.2446753 L5.02208911,19.6137662 L4.58238489,19.6137662 L5.86039645,19.6137662 L5.86039645,16.1664935 C9.71536942,7.76649351 18.1535028,1.90909091 27.9301361,1.85064935 C27.8983409,2.1225974 28.0270726,2.4 28.2791077,2.54181818 L34.9979743,6.34207792 C34.9405878,6.56337662 34.9103436,6.79480519 34.9103436,7.03402597 C34.9103436,8.30337662 35.7726912,9.37324675 36.9413584,9.6825974 L36.9413584,14.6937662 C36.2426397,14.3664935 35.4694737,14.1872727 34.663737,14.1872727 C34.1961151,14.1872727 33.7269421,14.2480519 33.2538918,14.378961 C31.9844106,13.44 30.4241198,12.9436364 28.8545231,12.9436364 C28.1123768,12.9436364 27.3671286,13.0542857 26.649798,13.2825974 C25.3252569,13.7041558 24.1589163,14.4779221 23.2616715,15.5306494 C22.4598123,15.1612987 21.5889343,14.9727273 20.7188318,14.9727273 C20.1147232,14.9727273 19.51139,15.0631169 18.9320972,15.2485714 C18.7134083,15.3171429 18.5009234,15.3981818 18.2938669,15.4909091 C17.9573032,15.2423377 17.5416392,15.0950649 17.0918536,15.0950649 C15.969716,15.0950649 15.0608389,16.0083117 15.0608389,17.1358442 C15.0608389,17.5503896 15.1841422,17.9361039 15.3958516,18.2579221 C15.2640179,18.5142857 15.1500205,18.7807792 15.0538594,19.0574026 C14.7731312,19.0987013 14.4924029,19.1641558 14.2271845,19.2498701 C13.2865121,19.5475325 12.4652656,20.0898701 11.8293618,20.8231169 C11.4439421,20.5161039 10.9561573,20.332987 10.4257205,20.332987 C9.68434972,20.332987 9.02595663,20.6914286 8.61339464,21.2446753 M35.6811831,5.12571429 L30.0262922,1.92779221 C33.583476,2.21064935 36.9289505,3.26181818 39.8975356,4.91532468 L39.5726042,5.1038961 C39.0778401,4.60441558 38.3938557,4.29506494 37.6385261,4.29506494 C36.8707885,4.29506494 36.1774983,4.61376623 35.6811831,5.12571429" id="Fill-775" fill="#B7DFE2"></path>
                        <path d="M4.23496427,40.2280519 L3.62852917,40.2280519 L3.62852917,30.9755844 L9.54476108,30.9755844 L7.88443174,34.7688312 L7.10506183,34.0106494 C6.75066178,33.6646753 6.29312123,33.4932468 5.83480519,33.4932468 C5.35787734,33.4932468 4.88017399,33.6794805 4.52112098,34.0503896 C3.82007581,34.7797403 3.83946312,35.9423377 4.56454856,36.6475325 L6.31561051,38.3524675 L6.00153607,39.0709091 C5.7208078,39.7075325 4.92670354,40.2280519 4.23496427,40.2280519" id="Fill-776" fill="#BDE2E4"></path>
                        <path d="M8.24270925,40.2280519 L4.56454856,36.6475325 C3.83946312,35.9423377 3.82007581,34.7797403 4.52112098,34.0503896 C4.88017399,33.6794805 5.35787734,33.4932468 5.83480519,33.4932468 C6.29312123,33.4932468 6.75066178,33.6646753 7.10506183,34.0106494 L10.6180426,37.4290909 C10.5118002,37.4922078 10.4078842,37.5592208 10.3055192,37.6293506 L10.0883813,37.3690909 L9.27799167,38.0431169 L9.49435407,38.3049351 C9.27799167,38.52 9.08722053,38.7545455 8.91118374,38.9976623 L8.62114957,38.8238961 L8.08605978,39.7394805 L8.37764494,39.9132468 C8.32956441,40.0153247 8.28458584,40.1205195 8.24270925,40.2280519" id="Fill-777" fill="#BFE3E6"></path>
                        <path d="M3.85885043,44.5753247 L3.62852917,44.5348052 L3.62852917,41.5090909 L3.87746225,41.4646753 L4.0263568,42.3467532 L4.05505002,42.5096104 L3.72081278,42.5688312 C3.74795501,42.8696104 3.74407755,43.1727273 3.72081278,43.4735065 L4.04962157,43.5327273 L3.85885043,44.5753247" id="Fill-778" fill="#9BC1CA"></path>
                        <path d="M13.9635171,48.2337662 L12.9088473,48.2283117 L12.9088473,47.8885714 C12.6095072,47.8612987 12.3140446,47.8028571 12.0247859,47.7241558 L11.9076866,48.0451948 L10.9204847,47.678961 L11.0383595,47.361039 C10.7653862,47.2301299 10.5048207,47.078961 10.2613161,46.9051948 L10.0395253,47.1623377 L9.23533959,46.4797403 L9.45402846,46.221039 C9.24697198,46.005974 9.04999689,45.7722078 8.87938855,45.5212987 L8.5870279,45.6919481 L8.54282483,45.607013 L8.062795,44.7693506 L8.35670664,44.6002597 C8.29466725,44.4638961 8.2380563,44.3251948 8.1860983,44.1825974 C8.13956876,44.0415584 8.09303921,43.8966234 8.0527136,43.7532468 L7.71925185,43.8077922 L7.54166408,42.7620779 L7.87590132,42.7075325 C7.85108557,42.4028571 7.85108557,42.0997403 7.87590132,41.8012987 L7.54399055,41.7420779 L7.7347617,40.6963636 L8.06822345,40.7587013 C8.11630398,40.5787013 8.17524141,40.401039 8.24270925,40.2280519 C8.28458584,40.1205195 8.32956441,40.0153247 8.37764494,39.9132468 L8.08605978,39.7394805 L8.62114957,38.8238961 L8.91118374,38.9976623 C9.08722053,38.7545455 9.27799167,38.52 9.49435407,38.3049351 L9.27799167,38.0431169 L10.0883813,37.3690909 L10.3055192,37.6293506 C10.4078842,37.5592208 10.5118002,37.4922078 10.6180426,37.4290909 C10.7684882,37.3394805 10.9243621,37.2568831 11.0864401,37.1812987 L10.9701162,36.8641558 L11.9658485,36.5057143 L12.0782949,36.8251948 C12.3737575,36.7488312 12.6723221,36.6981818 12.9677848,36.6716883 L12.9677848,36.3296104 L14.0240055,36.3381818 L14.0224545,36.6763636 C14.324121,36.7036364 14.6157062,36.7636364 14.9088424,36.8384416 L15.0243907,36.5174026 L16.0131436,36.8875325 L15.8960442,37.207013 C16.0084906,37.2607792 16.128692,37.3223377 16.2380364,37.3838961 C16.3861555,37.4696104 16.5319481,37.56 16.6699857,37.658961 L16.8902256,37.4033766 L17.6975132,38.0851948 L17.4780488,38.3438961 C17.6874318,38.5605195 17.8789784,38.7903896 18.0511378,39.0420779 L18.3450494,38.872987 L18.5567588,39.2438961 L18.8677313,39.7963636 L18.5745952,39.9623377 C18.6358591,40.1025974 18.690919,40.2412987 18.744428,40.3815584 C18.7925085,40.5225974 18.8382626,40.6667532 18.8785882,40.814026 L19.2097235,40.7571429 L19.3578425,41.6361039 L19.3904132,41.8012987 L19.056176,41.8597403 C19.0825427,42.1628571 19.0794408,42.4636364 19.056176,42.765974 L19.3849848,42.8244156 L19.1942136,43.867013 L18.8599764,43.8062338 C18.7855291,44.0968831 18.6754092,44.3844156 18.5505549,44.654026 L18.8405891,44.8254545 L18.3117032,45.7425974 L18.0185671,45.5672727 C17.8440813,45.8119481 17.6533101,46.0464935 17.4361722,46.2584416 L17.6533101,46.5187013 L16.8429205,47.1981818 L16.6257826,46.934026 C16.3830535,47.1038961 16.1193861,47.2550649 15.8448617,47.3851948 L15.9580836,47.7046753 L14.9662288,48.0631169 L14.8514559,47.7420779 C14.5567688,47.8192208 14.2589797,47.8683117 13.9635171,47.8932468 L13.9635171,48.2337662 M13.4640999,39.3202597 C11.8371168,39.3202597 10.5187796,40.6457143 10.5187796,42.2828571 C10.5187796,43.9184416 11.8371168,45.2446753 13.4640999,45.2446753 C15.0926341,45.2446753 16.4125222,43.9184416 16.4125222,42.2828571 C16.4125222,40.6457143 15.0926341,39.3202597 13.4640999,39.3202597" id="Fill-779" fill="#BFE3E6"></path>
                        <path d="M13.4640999,45.2446753 C11.8371168,45.2446753 10.5187796,43.9184416 10.5187796,42.2828571 C10.5187796,40.6457143 11.8371168,39.3202597 13.4640999,39.3202597 C15.0926341,39.3202597 16.4125222,40.6457143 16.4125222,42.2828571 C16.4125222,43.9184416 15.0926341,45.2446753 13.4640999,45.2446753 M13.4640999,40.8023377 C12.6513838,40.8023377 11.9922152,41.4646753 11.9922152,42.2828571 C11.9922152,43.0994805 12.6513838,43.7602597 13.4640999,43.7602597 C14.2760405,43.7602597 14.9390866,43.0994805 14.9390866,42.2828571 C14.9390866,41.4646753 14.2760405,40.8023377 13.4640999,40.8023377" id="Fill-780" fill="#BDE2E4"></path>
                        <path d="M13.4640999,43.7602597 C12.6513838,43.7602597 11.9922152,43.0994805 11.9922152,42.2828571 C11.9922152,41.4646753 12.6513838,40.8023377 13.4640999,40.8023377 C14.2760405,40.8023377 14.9390866,41.4646753 14.9390866,42.2828571 C14.9390866,43.0994805 14.2760405,43.7602597 13.4640999,43.7602597" id="Fill-781" fill="#BFE3E6"></path>
                        <path d="M11.9045846,28.2202597 L3.62852917,28.2202597 L3.62852917,26.4179221 C3.62852917,26.0477922 3.63705959,25.6792208 3.65334493,25.312987 L10.270622,25.312987 L10.270622,25.3083117 L10.5505748,25.3083117 C10.5947779,25.5942857 10.6606947,25.8794805 10.7498763,26.1607792 C10.994932,26.9438961 11.3935351,27.6405195 11.9045846,28.2202597" id="Fill-782" fill="#BFE3E6"></path>
                        <polyline id="Fill-783" fill="#B3DCDF" points="9.54476108 30.9755844 9.54476108 30.9755844 10.7506518 28.2202597 10.7522028 28.2202597 9.54476108 30.9755844"></polyline>
                        <polyline id="Fill-784" fill="#B7DEE0" points="9.54476108 30.9755844 3.62852917 30.9755844 3.62852917 28.2202597 10.7506518 28.2202597 9.54476108 30.9755844"></polyline>
                        <path d="M10.270622,25.312987 L3.65334493,25.312987 C3.71460884,23.9236364 3.89142111,22.5646753 4.17447586,21.2446753 L8.61339464,21.2446753 C8.3303399,21.6241558 8.16283353,22.0955844 8.16283353,22.6067532 C8.16283353,23.8098701 9.09342447,24.7955844 10.270622,24.8758442 L10.270622,25.312987" id="Fill-785" fill="#BFE3E6"></path>
                        <path d="M5.86039645,19.6137662 L4.58238489,19.6137662 C4.66458709,19.3301299 4.75144224,19.0457143 4.84295035,18.765974 L5.02208911,18.765974 L5.02208911,18.2384416 C5.27102218,17.5324675 5.55097496,16.8412987 5.86039645,16.1664935 L5.86039645,19.6137662" id="Fill-786" fill="#BFE3E6"></path>
                        <path d="M5.02208911,21.2446753 L4.17447586,21.2446753 C4.29235071,20.6937662 4.42883738,20.1498701 4.58238489,19.6137662 L5.02208911,19.6137662 L5.02208911,21.2446753" id="Fill-787" fill="#B5DBDD"></path>
                        <path d="M5.02208911,18.765974 L4.84295035,18.765974 C4.90111228,18.5883117 4.96004971,18.4137662 5.02208911,18.2384416 L5.02208911,18.765974" id="Fill-788" fill="#AAD1D3"></path>
                        <path d="M34.9979743,6.34207792 L28.2791077,2.54181818 C28.0270726,2.4 27.8983409,2.1225974 27.9301361,1.85064935 C27.9789921,1.85064935 28.0286236,1.85064935 28.0782551,1.85064935 C28.7343218,1.85064935 29.3826334,1.87636364 30.0262922,1.92779221 L35.6811831,5.12571429 C35.3578028,5.46 35.1189511,5.87688312 34.9979743,6.34207792" id="Fill-789" fill="#BFE3E6"></path>
                        <path d="M37.6385261,42.8415584 C37.4066538,42.8415584 37.18021,42.7246753 37.0483763,42.5119481 C36.8444218,42.187013 36.9436848,41.7561039 37.2670652,41.5496104 L45.5966296,36.3101299 C45.7160554,36.7831169 46.0037631,37.1890909 46.3922848,37.4587013 L38.006885,42.734026 C37.8921121,42.8064935 37.7649313,42.8415584 37.6385261,42.8415584" id="Fill-790" fill="#BFE3E6"></path>
                        <path d="M45.1344361,23.7225974 L44.9397875,23.6096104 C44.9172982,23.5293506 44.8940334,23.4498701 44.8692177,23.3703896 C44.6443249,22.6574026 44.3193935,21.9950649 43.910709,21.398961 L45.5221823,22.3332468 C45.5469981,22.4696104 45.5849972,22.6005195 45.6338532,22.725974 C45.3996545,23.0119481 45.2259442,23.3509091 45.1344361,23.7225974 M49.6167825,22.3667532 C49.6183334,22.3581818 49.6198844,22.3488312 49.6214354,22.3402597 L51.9285254,21.0015584 C51.9300764,21.0085714 51.9316274,21.0155844 51.9331784,21.0225974 L49.6167825,22.3667532 M38.3325918,15.6327273 C37.9192543,15.2485714 37.4500814,14.9322078 36.9413584,14.6937662 L36.9413584,9.6825974 C37.1639247,9.74181818 37.3973479,9.77298701 37.6385261,9.77298701 C37.8781532,9.77298701 38.110801,9.74181818 38.3325918,9.68337662 L38.3325918,15.6327273 M40.269772,6.31324675 C40.1441422,5.84961039 39.8998621,5.43506494 39.5726042,5.1038961 L39.8975356,4.91532468 C40.3620556,5.17480519 40.8180451,5.44831169 41.2639533,5.73662338 L40.269772,6.31324675" id="Fill-791" fill="#BFE3E6"></path>
                        <path d="M52.5272056,39.5649351 L48.7606388,37.3784416 C49.1274467,37.0854545 49.3887877,36.6654545 49.4771938,36.1831169 L52.5272056,37.9519481 L52.5272056,39.5649351 M48.2720785,33.9646753 C48.0409818,33.8696104 47.7889467,33.8181818 47.5237283,33.8181818 C47.2988355,33.8181818 47.0824731,33.8555844 46.8808451,33.9249351 L46.8808451,26.7638961 C47.1018604,26.8277922 47.3360592,26.8620779 47.5780128,26.8620779 C47.8184155,26.8620779 48.0518387,26.8277922 48.2720785,26.7646753 L48.2720785,33.9646753 M50.025467,23.7412987 C49.9339589,23.3587013 49.7563711,23.0103896 49.5144174,22.7174026 C49.557845,22.6051948 49.5927422,22.4875325 49.6167825,22.3667532 L51.9331784,21.0225974 C52.0401964,21.501039 52.1332555,21.9841558 52.2123557,22.4727273 L50.025467,23.7412987" id="Fill-792" fill="#BFE3E6"></path>
                        <path d="M47.5237283,37.8124675 C47.1034114,37.8124675 46.7133387,37.6815584 46.3922848,37.4587013 C46.0037631,37.1890909 45.7160554,36.7831169 45.5966296,36.3101299 C45.556304,36.1519481 45.5353657,35.985974 45.5353657,35.8153247 C45.5353657,34.9394805 46.0975977,34.1937662 46.8808451,33.9249351 C47.0824731,33.8555844 47.2988355,33.8181818 47.5237283,33.8181818 C47.7889467,33.8181818 48.0409818,33.8696104 48.2720785,33.9646753 C48.998715,34.2615584 49.51054,34.9792208 49.51054,35.8153247 C49.51054,35.9407792 49.4996831,36.0638961 49.4771938,36.1831169 C49.3887877,36.6654545 49.1274467,37.0854545 48.7606388,37.3784416 C48.4217486,37.6503896 47.9913503,37.8124675 47.5237283,37.8124675 M47.0568819,34.4625974 C46.5745256,34.4625974 46.1813509,34.8592208 46.1813509,35.3446753 C46.1813509,35.8316883 46.5745256,36.225974 47.0568819,36.225974 C47.5415647,36.225974 47.9347393,35.8316883 47.9347393,35.3446753 C47.9347393,34.8592208 47.5415647,34.4625974 47.0568819,34.4625974" id="Fill-793" fill="#BFE3E6"></path>
                        <path d="M47.5780128,26.8620779 C47.3360592,26.8620779 47.1018604,26.8277922 46.8808451,26.7638961 C46.0929448,26.5363636 45.4640204,25.9324675 45.1980265,25.1594805 C45.1778637,24.8205195 45.1344361,24.4823377 45.0669682,24.1464935 C45.0778251,24.0015584 45.1003144,23.8597403 45.1344361,23.7225974 C45.2259442,23.3509091 45.3996545,23.0119481 45.6338532,22.725974 C45.6834847,22.8506494 45.7447486,22.9698701 45.816094,23.0820779 C45.7230349,23.2348052 45.6703014,23.4132468 45.6703014,23.6041558 C45.6703014,24.1636364 46.120087,24.6163636 46.6753396,24.6163636 C47.0731672,24.6163636 47.4167104,24.3849351 47.5803393,24.0483117 C48.4597477,24.0451948 49.2111999,23.4942857 49.5144174,22.7174026 C49.7563711,23.0103896 49.9339589,23.3587013 50.025467,23.7412987 C50.0704455,23.9314286 50.0944858,24.1293506 50.0944858,24.3335065 C50.0944858,25.4875325 49.3244218,26.4615584 48.2720785,26.7646753 C48.0518387,26.8277922 47.8184155,26.8620779 47.5780128,26.8620779" id="Fill-794" fill="#BFE3E6"></path>
                        <path d="M40.1503461,18.578961 C40.0983881,18.5618182 40.0464301,18.5454545 39.9936966,18.5290909 C39.9572485,18.3771429 39.9153719,18.225974 39.8703933,18.0825974 C39.6548064,17.3922078 39.3182427,16.7688312 38.8901709,16.2335065 C39.646276,16.6706494 40.1549991,17.4911688 40.1549991,18.4293506 C40.1549991,18.4792208 40.1534481,18.5290909 40.1503461,18.578961" id="Fill-795" fill="#B8CBBD"></path>
                        <path d="M37.6385261,9.77298701 C37.3973479,9.77298701 37.1639247,9.74181818 36.9413584,9.6825974 C35.7726912,9.37324675 34.9103436,8.30337662 34.9103436,7.03402597 C34.9103436,6.79480519 34.9405878,6.56337662 34.9979743,6.34207792 C35.1189511,5.87688312 35.3578028,5.46 35.6811831,5.12571429 C36.1774983,4.61376623 36.8707885,4.29506494 37.6385261,4.29506494 C38.3938557,4.29506494 39.0778401,4.60441558 39.5726042,5.1038961 C39.8998621,5.43506494 40.1441422,5.84961039 40.269772,6.31324675 C40.3325868,6.54311688 40.365933,6.78467532 40.365933,7.03402597 C40.365933,8.30415584 39.5012589,9.37402597 38.3325918,9.68337662 C38.110801,9.74181818 37.8781532,9.77298701 37.6385261,9.77298701 M36.9413584,5.29636364 C36.2728839,5.29636364 35.7308146,5.84181818 35.7308146,6.51506494 C35.7308146,7.18675325 36.2728839,7.73298701 36.9413584,7.73298701 C37.6121593,7.73298701 38.155004,7.18675325 38.155004,6.51506494 C38.155004,5.84181818 37.6121593,5.29636364 36.9413584,5.29636364" id="Fill-796" fill="#BFE3E6"></path>
                        <path d="M36.9413584,7.73298701 C36.2728839,7.73298701 35.7308146,7.18675325 35.7308146,6.51506494 C35.7308146,5.84181818 36.2728839,5.29636364 36.9413584,5.29636364 C37.6121593,5.29636364 38.155004,5.84181818 38.155004,6.51506494 C38.155004,7.18675325 37.6121593,7.73298701 36.9413584,7.73298701" id="Fill-797" fill="#A0D2D8"></path>
                        <path d="M46.6753396,24.6163636 C46.120087,24.6163636 45.6703014,24.1636364 45.6703014,23.6041558 C45.6703014,23.4132468 45.7230349,23.2348052 45.816094,23.0820779 C46.1860039,23.6633766 46.8343155,24.0483117 47.5725844,24.0483117 C47.5749108,24.0483117 47.5772373,24.0483117 47.5803393,24.0483117 C47.4167104,24.3849351 47.0731672,24.6163636 46.6753396,24.6163636" id="Fill-798" fill="#A0D2D8"></path>
                        <path d="M47.0568819,36.225974 C46.5745256,36.225974 46.1813509,35.8316883 46.1813509,35.3446753 C46.1813509,34.8592208 46.5745256,34.4625974 47.0568819,34.4625974 C47.5415647,34.4625974 47.9347393,34.8592208 47.9347393,35.3446753 C47.9347393,35.8316883 47.5415647,36.225974 47.0568819,36.225974" id="Fill-799" fill="#BAD2C7"></path>
                        <polyline id="Fill-800" fill="#A2D6DA" points="52.5272056 53.6805195 52.5272056 26.4179221 52.5272056 53.6805195"></polyline>
                        <polygon id="Fill-801" fill="#3D4A67" points="0 59.5722078 56.1565103 59.5722078 56.1565103 53.6805195 0 53.6805195"></polygon>
                        <path d="M44.529552,27.6888312 C44.6249376,27.9132468 44.7102417,28.1477922 44.7854645,28.387013 C46.1449028,32.7109091 43.8455676,37.2935065 39.6486025,38.625974 C36.362841,39.667013 32.8909613,38.4077922 30.8855378,35.7335065 C30.5776673,35.64 30.2728988,35.5192208 29.9851911,35.3781818 C29.4330405,35.961039 28.7350972,36.4168831 27.9192792,36.6748052 C25.2996657,37.5062338 22.4869546,35.9914286 21.6385658,33.2890909 C21.5687715,33.067013 21.5137116,32.8425974 21.4749369,32.6174026 C19.4260859,33.0171429 17.3469906,31.7742857 16.687822,29.6758442 L16.6661082,29.6072727 C14.2946523,29.9345455 11.9503387,28.4672727 11.1880296,26.0438961 C10.3388653,23.3384416 11.7781793,20.4755844 14.3993438,19.6433766 C14.7335811,19.5374026 15.0755732,19.4703896 15.4136879,19.4376623 C15.9379208,17.6851948 17.2647884,16.2272727 19.103481,15.6428571 C20.5893246,15.1722078 22.131779,15.3615584 23.4221985,16.0472727 C24.2597303,14.9696104 25.4237445,14.1202597 26.8242839,13.6761039 C29.1034562,12.9537662 31.4741366,13.4641558 33.224423,14.8371429 L33.2484633,14.8285714 C35.8704033,13.9971429 38.6854409,15.5111688 39.5338296,18.2111688 C39.602073,18.427013 39.6540309,18.6444156 39.6935811,18.8602597 C41.9145914,19.4548052 43.7889567,21.1387013 44.531103,23.4981818 C44.9754601,24.9148052 44.9475424,26.3696104 44.529552,27.6888312" id="Fill-802" fill="#E3B3C6"></path>
                        <path d="M32.1123669,36.5251948 C31.7672727,36.2142857 31.4477698,35.8628571 31.1631641,35.4802597 L31.1088796,35.4116883 L31.0817374,35.3750649 L30.9553321,35.3368831 C30.665298,35.2503896 30.3837942,35.1358442 30.1146983,35.0064935 L29.8456024,34.8748052 L29.6377705,35.0914286 C29.1112111,35.6485714 28.4760828,36.0506494 27.7463444,36.2797403 C27.3097421,36.4192208 26.85763,36.4885714 26.4055179,36.4885714 C24.3791562,36.4885714 22.600952,35.1522078 21.977456,33.1620779 C21.9123147,32.9563636 21.8588057,32.7490909 21.8270105,32.5433766 L21.7564407,32.1296104 L21.3454297,32.2122078 C21.1213124,32.2574026 20.8847872,32.2776623 20.6567924,32.2776623 C18.998014,32.2776623 17.5369863,31.178961 17.0243858,29.5488312 L16.897205,29.1514286 L16.5598658,29.1966234 C16.3590132,29.2246753 16.1558342,29.2379221 15.9518797,29.2379221 C13.9293954,29.2379221 12.1519667,27.9015584 11.5245933,25.9145455 C11.149255,24.7106494 11.246967,23.4327273 11.8045461,22.3231169 C12.3644516,21.2127273 13.3097769,20.3976623 14.4722401,20.0290909 C14.7700292,19.934026 15.0833282,19.8732468 15.4012801,19.8397403 L15.6742534,19.8148052 L15.7518026,19.5498701 C16.2581992,17.865974 17.5369863,16.5506494 19.1763773,16.0309091 C20.4931635,15.6124675 21.9479873,15.7519481 23.1794693,16.4025974 L23.4819114,16.567013 L23.6943963,16.2966234 C24.5133163,15.24 25.6222706,14.4654545 26.8940782,14.0641558 C28.9452557,13.4127273 31.2399379,13.8342857 32.92043,15.1535065 L33.1150786,15.2805195 L33.3190331,15.2150649 C33.7587373,15.0763636 34.2077475,15.0054545 34.663737,15.0054545 C36.6916498,15.0054545 38.468303,16.3425974 39.0956764,18.3296104 C39.1530628,18.5212987 39.2026943,18.7215584 39.2430199,18.9311688 L39.2879985,19.1844156 L39.5361561,19.2498701 C41.7137389,19.8366234 43.4136183,21.4667532 44.0906233,23.6174026 C44.4977568,24.9116883 44.4977568,26.2761039 44.0906233,27.5625974 L44.0456447,27.705974 L44.066583,27.7496104 L44.1022556,27.8454545 C44.1922128,28.0574026 44.2736395,28.2794805 44.3480867,28.5046753 C44.3837594,28.6223377 44.4171056,28.7384416 44.4450233,28.8561039 C44.9506444,30.741039 44.7552203,32.7077922 43.8866687,34.44 C42.9653837,36.2758442 41.3996645,37.6192208 39.4756677,38.2301299 C38.7498067,38.46 38.003783,38.5776623 37.2500043,38.5776623 C35.3539253,38.5776623 33.5152327,37.8319481 32.1123669,36.5251948 M45.1220282,28.2592208 C45.0607643,28.0574026 44.986317,27.8563636 44.9103188,27.6654545 C45.3252072,26.258961 45.3089219,24.7807792 44.8692177,23.3703896 C44.1317244,21.0327273 42.3209495,19.2374026 39.9936966,18.5290909 C39.9572485,18.3771429 39.9153719,18.225974 39.8703933,18.0825974 C39.1414304,15.7519481 37.0460498,14.1872727 34.663737,14.1872727 C34.1961151,14.1872727 33.7269421,14.2480519 33.2538918,14.378961 C31.383404,12.9950649 28.8839918,12.5727273 26.649798,13.2825974 C25.3252569,13.7041558 24.1589163,14.4779221 23.2616715,15.5306494 C21.9030088,14.9049351 20.3465954,14.7974026 18.9320972,15.2485714 C17.1174449,15.8212987 15.6866613,17.2348052 15.0538594,19.0574026 C14.7731312,19.0987013 14.4924029,19.1641558 14.2271845,19.2498701 C12.8530119,19.6846753 11.7324253,20.6423377 11.0755832,21.9537662 C10.423394,23.2566234 10.3047437,24.7519481 10.7498763,26.1607792 C11.4788392,28.492987 13.5711179,30.0568831 15.9518797,30.0568831 C16.078285,30.0568831 16.2077922,30.0537662 16.334973,30.0451948 C17.0197328,31.8794805 18.7234897,33.0966234 20.6567924,33.0966234 C20.8033605,33.0966234 20.953806,33.0888312 21.1058025,33.0755844 C21.1329448,33.187013 21.1624135,33.2976623 21.1988616,33.4075325 C21.9324775,35.7428571 24.0232051,37.3075325 26.4055179,37.3075325 C26.6164519,37.3075325 26.8289368,37.2958442 27.0406462,37.267013 C27.3624756,37.2303896 27.6804275,37.1602597 27.9906245,37.0612987 C28.0728267,37.0363636 28.1496004,37.0090909 28.2318026,36.9802597 C28.8925222,36.7293506 29.5036103,36.3537662 30.0216392,35.865974 C30.2093084,35.9438961 30.3962021,36.0187013 30.5924017,36.0787013 C31.6145007,37.4057143 32.9979792,38.3898701 34.5295768,38.925974 C34.6606351,38.9750649 34.7924688,39.0163636 34.920425,39.0514286 C35.6726527,39.2774026 36.4543491,39.3974026 37.2500043,39.3974026 C38.0852097,39.3974026 38.9165376,39.2657143 39.7207233,39.0132468 C41.8564295,38.332987 43.5935326,36.8407792 44.6117542,34.8093506 C45.6315268,32.781039 45.8122165,30.4550649 45.1220282,28.2592208" id="Fill-803" fill="#DF818F"></path>
                        <path d="M16.745984,29.2503896 C16.3597887,28.3784416 16.3799515,27.9264935 16.6816181,27.0187013 C17.1841372,25.5031169 19.7665271,24.2018182 21.0468651,25.4150649 C21.2353098,25.5950649 21.618403,25.2677922 21.6959523,25.0955844 C22.3186727,23.6992208 22.8103349,22.4532468 24.3597688,21.9187013 C25.3593786,21.5766234 26.7940396,21.232987 27.7657317,22.0098701 C28.2372311,22.3877922 28.5644889,21.825974 28.402411,21.6857143 C27.0010961,20.4880519 24.9289803,20.8698701 23.9185136,21.3451948 C22.396222,22.0605195 21.8339899,23.5472727 21.0460896,25.3145455 C21.2616765,25.2085714 21.4780389,25.1018182 21.6944013,24.9942857 C20.4582663,23.8207792 18.7087554,24.3179221 17.4974362,25.1142857 C15.8751059,26.1763636 15.4555645,28.0885714 16.2628522,29.9181818 C16.3512583,30.1176623 17.0174063,29.7342857 16.9119394,29.4966234 L16.745984,29.2503896" id="Fill-804" fill="#DF818F"></path>
                        <path d="M40.5869484,20.6361039 C39.2321631,20.4490909 38.257369,20.8433766 37.4531834,21.7667532 C36.1666414,23.2425974 36.208518,24.7620779 35.8959945,26.5581818 C34.5365563,26.1864935 33.3120537,26.2332468 31.9549419,26.7709091 C30.6280743,27.2953247 30.306245,28.2825974 29.7587473,29.3820779 C28.5373467,28.0223377 26.6629814,28.0098701 24.9863667,28.5288312 C22.9088225,29.1724675 21.8913764,30.9631169 21.0352327,32.8644156 C20.846788,33.2836364 21.5447312,33.0872727 21.6595041,32.8324675 C22.3194482,31.365974 22.9289853,30.0506494 24.4218082,29.2503896 C26.0542198,28.3753247 28.3054744,28.5662338 29.4175306,30.187013 C29.5780575,30.4238961 29.9634773,30.112987 30.0534344,29.9602597 C30.6885627,28.8935065 30.7219089,27.9116883 32.0100019,27.2446753 C33.2569937,26.6002597 34.6451252,26.8223377 35.9208103,27.2516883 C36.1239893,27.3202597 36.4372883,27.0872727 36.4799403,26.8877922 C36.877768,25.005974 36.5784279,21.1472727 40.1456932,21.1909091 C41.346931,21.2041558 40.9242876,20.6836364 40.5869484,20.6361039" id="Fill-805" fill="#DF818F"></path>
                        <path d="M30.5861977,35.9041558 C32.1798347,36.8477922 34.0898726,36.8703896 35.8750562,36.5703896 C37.958029,36.2212987 37.9208053,34.2233766 38.51871,33.6592208 C39.0258821,33.1823377 40.3636065,33.3864935 40.9871025,33.2368831 C41.6579034,33.0779221 42.2247884,32.6703896 42.7691841,32.2651948 C44.4946548,30.9787013 44.2643336,28.8475325 44.8568098,27.0483117 C44.9227267,26.8488312 44.2907003,27.0335065 44.2131511,27.2594805 C43.5640639,29.167013 43.3244367,33.0451948 39.6866016,32.9033766 C39.2174287,32.8846753 38.6792369,32.7498701 38.2767564,33.0685714 C37.7145243,33.5150649 37.5012639,34.2794805 37.2802486,34.9472727 C36.5117355,37.2677922 32.5900702,36.2703896 31.1654906,35.4264935 C30.972393,35.3119481 30.3830187,35.7857143 30.5861977,35.9041558" id="Fill-806" fill="#DF818F"></path>
                        <path d="M25.5625576,24.165974 C27.5672056,25.7135065 30.3527745,24.5509091 31.8525769,22.867013 C32.8739005,21.7176623 32.8770024,20.1623377 32.3264028,18.7979221 C31.6377655,17.0898701 30.2643684,16.8358442 28.8227279,17.4148052 C28.2178438,17.6587013 28.4822867,18.0163636 28.8297073,17.901039 C29.9541714,17.5309091 30.7102765,17.4576623 31.5113602,18.4909091 C32.2046505,19.3838961 32.4489306,20.8784416 31.9084124,21.8384416 C30.8017846,23.8067532 27.9828696,25.1127273 26.2108693,23.7451948 C26.0294041,23.6041558 25.4803554,24.1036364 25.5625576,24.165974" id="Fill-807" fill="#DF818F"></path>
                        <path d="M23.0383297,16.2522078 C22.541239,16.8763636 22.3993239,17.5979221 22.9313118,18.2649351 C23.4051376,18.861039 24.2558529,19.1096104 24.9693059,19.0215584 C25.1468937,19.0005195 25.3120736,18.9015584 25.4392543,18.7753247 C25.4842329,18.7309091 25.632352,18.5166234 25.4539887,18.5384416 C24.1612428,18.6974026 22.7203778,17.4942857 23.7727211,16.1688312 C24.0146747,15.8664935 23.3151805,15.9475325 23.0383297,16.2522078" id="Fill-808" fill="#DF818F"></path>
                        <path d="M15.4454831,19.778961 C16.5722737,19.3605195 17.7967762,20.8496104 17.3942957,21.9311688 C17.2298913,22.3698701 17.9247325,22.1984416 18.0301995,21.9155844 C18.643614,20.2683117 16.9305512,18.7036364 15.3749133,19.2802597 C15.0019014,19.418961 14.9646778,19.9574026 15.4454831,19.778961" id="Fill-809" fill="#DF818F"></path>
                        <path d="M40.3069956,26.3431169 C40.055736,25.8202597 39.3159162,25.9901299 39.6579084,26.7638961 C41.1933835,30.232987 36.2302318,32.8425974 33.9704468,30.5057143 C33.792859,30.3225974 33.3578077,30.2812987 33.3097272,30.8828571 C33.0390803,34.2327273 27.1050121,35.0080519 25.9859765,31.7898701 C25.7905524,31.2280519 25.0003256,31.3558442 25.3376648,32.2106494 C26.7606935,35.8262338 32.6777009,34.5857143 33.8083689,31.3277922 C36.6707115,33.2298701 42.1875648,30.2368831 40.3069956,26.3431169" id="Fill-810" fill="#DF818F"></path>
                        <path d="M25.526885,24.1231169 C25.6083117,24.8275325 25.728513,26.5488312 24.7250258,26.7701299 C23.8169241,26.9688312 24.1139377,27.4067532 24.501684,27.3288312 C26.137973,26.9976623 26.3613149,25.2249351 26.1953595,23.7849351 C26.1689927,23.5581818 25.3198285,23.3423377 25.526885,24.1231169" id="Fill-811" fill="#DF818F"></path>
                        <path d="M33.0321009,15.2236364 C34.3589685,16.3114286 35.2228671,17.6064935 35.2034798,19.3877922 C35.1988268,19.8225974 35.8975455,19.5685714 35.902974,19.2451948 C35.9231368,17.3064935 35.0406264,15.8953247 33.585027,14.6992208 C33.331441,14.4919481 32.7374138,14.9797403 33.0321009,15.2236364" id="Fill-812" fill="#DF818F"></path>
                        <path d="M34.9056907,41.8012987 C33.1150786,42.165974 31.5547878,41.558961 30.6172174,39.7979221 C30.0255167,38.6851948 29.3647971,37.4641558 28.2318026,36.9802597 C28.8925222,36.7293506 29.5036103,36.352987 30.0216392,35.865974 C30.2093084,35.9438961 30.3962021,36.0187013 30.5916262,36.0787013 C31.6145007,37.4057143 32.9979792,38.3898701 34.5295768,38.925974 C33.7029019,40.0488312 34.003793,40.9254545 34.9056907,41.8012987" id="Fill-813" fill="#E3B3C6"></path>
                        <path d="M35.386496,42.0350649 C34.0200783,42.4823377 31.892127,42.7153247 30.7831728,41.4896104 C29.5400584,40.118961 29.1763525,37.545974 27.0406462,37.267013 L26.9956677,37.2592208 C26.7839582,37.2335065 27.1104406,36.9233766 27.3384353,36.8166234 L27.481126,36.7792208 L27.5090437,36.7831169 C27.7703846,36.8166234 28.0115628,36.8812987 28.2318026,36.9802597 C29.3647971,37.4641558 30.0255167,38.6851948 30.6172174,39.7979221 C31.5547878,41.558961 33.1150786,42.165974 34.9056907,41.8012987 C34.003793,40.9254545 33.7029019,40.0488312 34.5295768,38.925974 L34.5381073,38.9142857 C34.6032486,38.8316883 34.8692425,38.6883117 35.0282185,38.6524675 L35.0320959,38.6524675 L35.1491953,38.6851948 L35.1003393,38.7818182 C35.0320959,38.872987 34.9747095,38.961039 34.9212005,39.0514286 C34.3302753,40.0893506 34.9591997,40.8677922 35.8106904,41.6174026 C35.9363201,41.7280519 35.4438824,42.0194805 35.386496,42.0350649" id="Fill-814" fill="#DF818F"></path>
                        <path d="M10.4257205,24.8812987 C10.372987,24.8812987 10.3218045,24.8797403 10.270622,24.8758442 L10.270622,21.2446753 L8.61339464,21.2446753 C9.02595663,20.6914286 9.68434972,20.332987 10.4257205,20.332987 C10.9561573,20.332987 11.4439421,20.5161039 11.8293618,20.8231169 C11.5362257,21.1612987 11.2826397,21.54 11.0755832,21.9537662 C10.6188181,22.8662338 10.423394,23.8737662 10.5009433,24.8797403 C10.4761275,24.8805195 10.4505363,24.8812987 10.4257205,24.8812987" id="Fill-815" fill="#E7F4F5"></path>
                        <path d="M10.270622,24.8758442 C9.09342447,24.7955844 8.16283353,23.8098701 8.16283353,22.6067532 C8.16283353,22.0955844 8.3303399,21.6241558 8.61339464,21.2446753 L10.270622,21.2446753 L10.270622,24.8758442" id="Fill-816" fill="#E8F5F6"></path>
                        <path d="M11.3066799,24.7020779 C11.2648033,23.8823377 11.4315342,23.0649351 11.8045461,22.3231169 C11.9642975,22.005974 12.1550687,21.7137662 12.3737575,21.4488312 C12.5738346,21.7877922 12.689383,22.1836364 12.689383,22.6067532 C12.689383,23.5480519 12.119396,24.3568831 11.3066799,24.7020779" id="Fill-817" fill="#EAF3F5"></path>
                        <path d="M10.5009433,24.8797403 C10.423394,23.8737662 10.6188181,22.8662338 11.0755832,21.9537662 C11.2826397,21.54 11.5362257,21.1612987 11.8293618,20.8231169 C12.0464997,20.9961039 12.2318424,21.2080519 12.3737575,21.4488312 C12.1550687,21.7137662 11.9642975,22.005974 11.8045461,22.3231169 C11.4315342,23.0649351 11.2648033,23.8823377 11.3066799,24.7020779 C11.0577468,24.8080519 10.785549,24.8703896 10.5009433,24.8797403" id="Fill-818" fill="#E9F1F1"></path>
                        <path d="M15.3958516,18.2579221 C15.1841422,17.9361039 15.0608389,17.5503896 15.0608389,17.1358442 C15.0608389,16.0083117 15.969716,15.0950649 17.0918536,15.0950649 C17.5416392,15.0950649 17.9573032,15.2423377 18.2938669,15.4909091 C17.0445486,16.0511688 16.0255515,17.0290909 15.3958516,18.2579221" id="Fill-819" fill="#D9EFF0"></path>
                        <path d="M17.0918536,19.1758442 C16.694026,19.1758442 16.3233406,19.0612987 16.0100416,18.8625974 C16.5784776,17.6127273 17.5998012,16.634026 18.8654048,16.1407792 C19.0290337,16.4353247 19.1220928,16.7742857 19.1220928,17.1358442 C19.1220928,18.2625974 18.2132157,19.1758442 17.0918536,19.1758442" id="Fill-820" fill="#E8E3E9"></path>
                        <path d="M16.0100416,18.8625974 C15.764986,18.7075325 15.5548276,18.501039 15.3958516,18.2579221 C16.0255515,17.0290909 17.0445486,16.0511688 18.2938669,15.4909091 C18.5272901,15.6638961 18.7227142,15.8851948 18.8654048,16.1407792 C17.5998012,16.634026 16.5784776,17.6127273 16.0100416,18.8625974" id="Fill-821" fill="#E7D6D8"></path>
                        <path d="M18.3202336,9.01012987 C18.3202336,9.69194805 17.7704095,10.2444156 17.0918536,10.2444156 C16.4132977,10.2444156 15.8642491,9.69194805 15.8642491,9.01012987 C15.8642491,8.32909091 16.4132977,7.77662338 17.0918536,7.77662338 C17.7704095,7.77662338 18.3202336,8.32909091 18.3202336,9.01012987" id="Fill-822" fill="#EAF6F7"></path>
                        <path d="M35.1949494,9.47298701 C35.1949494,9.89844156 34.8514062,10.2444156 34.4272118,10.2444156 C34.0030175,10.2444156 33.6602498,9.89844156 33.6602498,9.47298701 C33.6602498,9.04675325 34.0030175,8.70233766 34.4272118,8.70233766 C34.8514062,8.70233766 35.1949494,9.04675325 35.1949494,9.47298701" id="Fill-823" fill="#EAF6F7"></path>
                        <path d="M45.4182663,29.505974 C45.350023,29.0875325 45.2515355,28.6714286 45.1220282,28.2592208 C45.0607643,28.0574026 44.986317,27.8563636 44.9103188,27.6654545 C45.094886,27.0412987 45.194149,26.4031169 45.2088834,25.7625974 C45.8641745,26.1592208 46.3023277,26.8815584 46.3023277,27.705974 C46.3023277,28.4384416 45.9556826,29.0906494 45.4182663,29.505974" id="Fill-824" fill="#E0F1F3"></path>
                        <path d="M44.2069471,29.9688312 C44.3038837,29.6072727 44.3760045,29.2348052 44.4457988,28.86 C44.5373069,29.2020779 44.6055502,29.5464935 44.6513043,29.8916883 C44.5086137,29.9314286 44.3597191,29.9579221 44.2069471,29.9688312 M43.4624744,29.8979221 C42.4985373,29.6392208 41.7889617,28.7548052 41.7889617,27.705974 C41.7889617,26.4537662 42.7994283,25.4384416 44.0456447,25.4384416 C44.164295,25.4384416 44.2806189,25.4477922 44.3946163,25.4649351 C44.4085752,26.1716883 44.3069856,26.8784416 44.0906233,27.5625974 L44.0456447,27.705974 L44.065032,27.7457143 C43.8866687,28.3846753 43.7176114,29.1522078 43.4624744,29.8979221" id="Fill-825" fill="#E8EBEE"></path>
                        <path d="M44.6513043,29.8916883 C44.6055502,29.5464935 44.5373069,29.2020779 44.4457988,28.86 C44.5597962,28.2475325 44.6652632,27.6303896 44.8568098,27.0483117 C44.8761971,26.9883117 44.833545,26.9633766 44.7614242,26.9633766 C44.5931424,26.9633766 44.2674355,27.1012987 44.2131511,27.2594805 C44.1619686,27.4098701 44.1131125,27.5735065 44.065032,27.7457143 L44.0456447,27.705974 L44.0906233,27.5625974 C44.3069856,26.8784416 44.4085752,26.1716883 44.3946163,25.4649351 C44.6885279,25.5109091 44.9638278,25.6137662 45.2088834,25.7625974 C45.194149,26.4031169 45.094886,27.0412987 44.9103188,27.6654545 C44.986317,27.8563636 45.0607643,28.0574026 45.1220282,28.2592208 C45.2515355,28.6714286 45.350023,29.0875325 45.4182663,29.505974 C45.192598,29.6805195 44.9335835,29.812987 44.6513043,29.8916883" id="Fill-826" fill="#E7E0E2"></path>
                        <path d="M44.0456447,29.9742857 C43.8440167,29.9742857 43.6485926,29.9477922 43.4624744,29.8979221 C43.7176114,29.1522078 43.8866687,28.3846753 44.065032,27.7457143 C44.1131125,27.5735065 44.1619686,27.4098701 44.2131511,27.2594805 C44.2674355,27.1012987 44.5931424,26.9633766 44.7614242,26.9633766 C44.833545,26.9633766 44.8761971,26.9883117 44.8568098,27.0483117 C44.6652632,27.6303896 44.5597962,28.2475325 44.4457988,28.86 C44.3760045,29.2348052 44.3038837,29.6072727 44.2069471,29.9688312 C44.1534381,29.9719481 44.0999292,29.9742857 44.0456447,29.9742857" id="Fill-827" fill="#E7E0E2"></path>
                        <path d="M45.8308283,22.5124675 L45.5221823,22.3332468 C45.499693,22.2101299 45.4880606,22.0831169 45.4880606,21.9537662 C45.4880606,20.7974026 46.4209781,19.8592208 47.5725844,19.8592208 C48.7234151,19.8592208 49.6571081,20.7974026 49.6571081,21.9537662 C49.6571081,22.0854545 49.6447002,22.2148052 49.6214354,22.3402597 L49.3244218,22.5124675 C48.8723097,22.0737662 48.2565687,21.8041558 47.5780128,21.8041558 C46.8994569,21.8041558 46.2837159,22.0737662 45.8308283,22.5124675" id="Fill-828" fill="#D9EFF0"></path>
                        <path d="M45.6338532,22.725974 C45.5849972,22.6005195 45.5469981,22.4696104 45.5221823,22.3332468 L45.8308283,22.5124675 C45.761034,22.5794805 45.6958926,22.6511688 45.6338532,22.725974 M49.3399316,22.5272727 C49.3345032,22.5225974 49.3298502,22.5171429 49.3244218,22.5124675 L49.6214354,22.3402597 C49.6198844,22.3488312 49.6183334,22.3581818 49.6167825,22.3667532 L49.3399316,22.5272727" id="Fill-829" fill="#DDF0F2"></path>
                        <path d="M49.5144174,22.7174026 C49.4593575,22.6511688 49.4011956,22.5872727 49.3399316,22.5272727 L49.6167825,22.3667532 C49.5927422,22.4875325 49.557845,22.6051948 49.5144174,22.7174026" id="Fill-830" fill="#DDF0F2"></path>
                        <path d="M47.5803393,24.0483117 C47.6454806,23.9142857 47.6819288,23.7638961 47.6819288,23.6041558 C47.6819288,23.0493506 47.2313677,22.5950649 46.6753396,22.5950649 C46.3108581,22.5950649 45.9921307,22.7906494 45.816094,23.0820779 C45.7447486,22.9698701 45.6834847,22.8506494 45.6338532,22.725974 C45.6958926,22.6511688 45.761034,22.5794805 45.8308283,22.5124675 C46.2837159,22.0737662 46.8994569,21.8041558 47.5780128,21.8041558 C48.2565687,21.8041558 48.8723097,22.0737662 49.3244218,22.5124675 C49.3298502,22.5171429 49.3345032,22.5225974 49.3399316,22.5272727 C49.4011956,22.5872727 49.4593575,22.6511688 49.5144174,22.7174026 C49.2111999,23.4942857 48.4597477,24.0451948 47.5803393,24.0483117" id="Fill-831" fill="#D2EBED"></path>
                        <path d="M47.5725844,24.0483117 C46.8343155,24.0483117 46.1860039,23.6633766 45.816094,23.0820779 C45.9921307,22.7906494 46.3108581,22.5950649 46.6753396,22.5950649 C47.2313677,22.5950649 47.6819288,23.0493506 47.6819288,23.6041558 C47.6819288,23.7638961 47.6454806,23.9142857 47.5803393,24.0483117 C47.5772373,24.0483117 47.5749108,24.0483117 47.5725844,24.0483117" id="Fill-832" fill="#D4ECEE"></path>
                        <path d="M44.0456447,17.5090909 C43.2042354,17.5090909 42.5225775,16.8241558 42.5225775,15.9787013 C42.5225775,15.134026 43.2042354,14.4490909 44.0456447,14.4490909 C44.8862785,14.4490909 45.5687119,15.134026 45.5687119,15.9787013 C45.5687119,16.8241558 44.8862785,17.5090909 44.0456447,17.5090909" id="Fill-833" fill="#D9EFF0"></path>
                        <path d="M17.9844454,45.8945455 C19.1383782,48.6646753 19.4819213,51.0888312 18.7203877,53.6805195 L17.6091071,53.6805195 C18.1504008,51.8844156 18.2046853,50.047013 17.5362108,48.1394805 C16.8669608,46.2342857 15.4664214,44.3828571 15.0430025,42.4332468 C14.5024843,39.9592208 15.2764258,37.8303896 16.3752986,35.6532468 C18.6901435,31.0753247 21.9875374,26.4054545 23.3252619,21.4137662 C23.4361573,20.9883117 24.6397216,20.8153247 24.5102144,21.2781818 C23.1965302,26.1709091 20.0162356,30.6997403 17.7448182,35.1896104 C17.0569564,36.5423377 16.1915069,38.0283117 16.0627751,39.5711688 C15.8471882,42.1184416 17.0507525,43.6550649 17.9844454,45.8945455" id="Fill-834" fill="#5E6E8B"></path>
                        <path d="M27.114318,53.6805195 L25.9409979,53.6805195 C26.4264562,51.2002597 25.6284745,48.8376623 23.9828795,46.4555844 C22.7420916,44.6485714 21.6370149,43.0503896 21.4470192,40.8171429 C21.158536,37.4797403 22.3496924,33.1301299 23.8595762,30.1628571 C24.0867955,29.7124675 25.2911353,29.692987 24.9902442,30.285974 C22.9817188,34.2155844 21.4532231,40.5950649 24.0751631,44.4755844 C26.1558094,47.5542857 27.7223041,50.4296104 27.114318,53.6805195" id="Fill-835" fill="#596931"></path>
                        <path d="M32.9902243,53.6805195 L31.5966644,53.6805195 C29.7052383,50.5768831 26.7886112,48.0233766 27.783568,43.9503896 C28.7537091,39.9771429 32.044899,33.3514286 29.2073721,29.6064935 C28.9437047,29.2620779 30.0860051,28.8592208 30.3132244,29.1568831 C32.9475722,32.6298701 30.4605679,38.3244156 29.4415709,41.9703896 C28.5815497,45.0615584 28.5443261,47.4864935 30.5458721,50.1888312 C31.4058932,51.3537662 32.2961586,52.4579221 32.9902243,53.6805195" id="Fill-836" fill="#5E6E8B"></path>
                        <path d="M41.2608513,53.6805195 L39.5043609,53.6805195 C36.8157286,51.7753247 35.6237967,49.1025974 37.3128192,45.6779221 C39.1422059,41.9649351 39.7866402,36.2337662 36.2193749,33.3280519 C35.9557075,33.1114286 37.0421724,32.6493506 37.3306556,32.8893506 C40.1371627,35.1787013 40.4380538,39.4293506 39.5229727,42.7480519 C38.9708221,44.7654545 37.2639632,46.98 37.6625663,49.1516883 C38.0611695,51.3358442 39.4679128,52.6316883 41.2608513,53.6805195" id="Fill-837" fill="#E6753F"></path>
                        <path d="M11.1748462,48.9171429 C11.6959771,50.5581818 12.1263754,52.0955844 12.1139676,53.6805195 L10.8677512,53.6805195 C10.7506518,49.6761039 7.96353197,45.8703896 9.52925123,41.7553247 C11.4819412,36.6280519 16.5288461,31.4509091 14.7971714,25.6153247 C14.6560318,25.14 15.8409843,24.8135065 15.9828994,25.2950649 C17.5478432,30.5696104 13.7355223,35.1592208 11.5920611,39.638961 C10.0325458,42.9148052 10.0883813,45.5119481 11.1748462,48.9171429" id="Fill-838" fill="#B2824A"></path>
                        <path d="M17.3128689,25.4563636 C17.3128689,26.4950649 16.4745616,27.3374026 15.4400547,27.3374026 C14.4055478,27.3374026 13.5672404,26.4950649 13.5672404,25.4563636 C13.5672404,24.4168831 14.4055478,23.5745455 15.4400547,23.5745455 C16.4745616,23.5745455 17.3128689,24.4168831 17.3128689,25.4563636" id="Fill-839" fill="#3D4A67"></path>
                        <path d="M25.5540272,21.4971429 C25.5540272,22.5366234 24.7157199,23.378961 23.6812129,23.378961 C22.6474815,23.378961 21.8091742,22.5366234 21.8091742,21.4971429 C21.8091742,20.4584416 22.6474815,19.6161039 23.6812129,19.6161039 C24.7157199,19.6161039 25.5540272,20.4584416 25.5540272,21.4971429" id="Fill-840" fill="#3D4A67"></path>
                        <path d="M26.394661,30.2244156 C26.394661,31.2631169 25.5563537,32.1062338 24.5218468,32.1062338 C23.4873398,32.1062338 22.6490325,31.2631169 22.6490325,30.2244156 C22.6490325,29.1849351 23.4873398,28.3425974 24.5218468,28.3425974 C25.5563537,28.3425974 26.394661,29.1849351 26.394661,30.2244156" id="Fill-841" fill="#3D4A67"></path>
                        <path d="M31.7548648,29.5877922 C31.7548648,30.6272727 30.9165575,31.4688312 29.8812751,31.4688312 C28.8475437,31.4688312 28.0092363,30.6272727 28.0092363,29.5877922 C28.0092363,28.5483117 28.8475437,27.705974 29.8812751,27.705974 C30.9165575,27.705974 31.7548648,28.5483117 31.7548648,29.5877922" id="Fill-842" fill="#3D4A67"></path>
                        <path d="M39.0196781,33.1075325 C39.0196781,34.147013 38.1813708,34.9893506 37.1476393,34.9893506 C36.1131324,34.9893506 35.2748251,34.147013 35.2748251,33.1075325 C35.2748251,32.0680519 36.1131324,31.2257143 37.1476393,31.2257143 C38.1813708,31.2257143 39.0196781,32.0680519 39.0196781,33.1075325" id="Fill-843" fill="#3D4A67"></path>
                    </g>
                </g>
            </g>
        </g>
    </g>
</svg>