<?xml version="1.0" encoding="UTF-8"?>
<svg width="90px" height="90px" viewBox="0 0 90 90" version="1.1" xmlns="http://www.w3.org/2000/svg" xmlns:xlink="http://www.w3.org/1999/xlink">
    <!-- Generator: Sketch 49.1 (51147) - http://www.bohemiancoding.com/sketch -->
    <title>Group 5</title>
    <desc>Created with Sketch.</desc>
    <defs></defs>
    <g id="Page-1" stroke="none" stroke-width="1" fill="none" fill-rule="evenodd">
        <g id="Avaleht_375px" transform="translate(-143.000000, -849.000000)">
            <g id="Group-5" transform="translate(143.000000, 849.000000)">
                <circle id="Oval-9-Copy" fill="#FFFFFF" opacity="0.6" cx="45" cy="45" r="45"></circle>
                <g id="Group-6" transform="translate(7.000000, 22.000000)">
                    <polyline id="Fill-551" fill="#CE5231" points="61.9528451 20.055 61.567493 16.4539286 69.9735211 15.5517857 70.3588732 19.1517857 61.9528451 20.055"></polyline>
                    <polyline id="Fill-552" fill="#464644" points="72.1668169 18.1725 72.1261408 17.7964286 71.5556056 17.6260714 72.0790423 17.3496429 72.0308732 16.9071429 71.6926197 16.7903571 71.9976901 16.5953571 71.9538028 16.1839286 72.4654648 16.3028571 72.9193239 16.4025 72.9278873 16.4014286 73.0392113 16.5053571 73.160169 17.6325 73.0745352 17.7525 73.0659718 17.7525 72.6388732 17.955 72.1668169 18.1725"></polyline>
                    <polyline id="Fill-553" fill="#F0E1BD" points="70.3588732 19.1539286 69.9735211 15.5517857 72.4900845 16.2846429 72.4654648 16.3028571 71.9976901 16.5953571 71.6926197 16.7903571 72.0308732 16.9071429 72.5767887 17.0914286 72.0790423 17.3496429 71.5556056 17.6260714 72.1261408 17.7964286 72.6388732 17.955 72.6688451 17.9625 70.3588732 19.1539286"></polyline>
                    <path d="M71.191662,8.51892857 C70.976507,8.09142857 71.1531268,7.56642857 71.5791549,7.35 C72.0148169,7.13142857 72.5339718,7.30928571 72.7480563,7.73678571 C72.9653521,8.17392857 72.7962254,8.68714286 72.3616338,8.90678571 C71.9323944,9.12214286 71.4100282,8.95392857 71.191662,8.51892857 M72.7341408,5.59392857 L43.4099155,20.3239286 L46.2208451,25.9296429 L75.5450704,11.1996429 L72.7341408,5.59392857" id="Fill-554" fill="#EFC651"></path>
                    <polyline id="Fill-555" fill="#917A32" points="73.5797746 12.1853571 72.6153239 10.2632143 73.2832676 9.92785714 74.2466479 11.8521429 73.5797746 12.1853571"></polyline>
                    <polyline id="Fill-556" fill="#917A32" points="72.3380845 12.81 71.5759437 11.2928571 72.103662 11.0303571 72.8615211 12.5453571 72.3380845 12.81"></polyline>
                    <polyline id="Fill-557" fill="#917A32" points="71.0257465 13.4689286 70.2636056 11.9528571 70.7891831 11.6882143 71.5513239 13.2053571 71.0257465 13.4689286"></polyline>
                    <polyline id="Fill-558" fill="#2C6D61" points="69.7112676 14.1310714 69.7112676 14.13 69.8654085 14.0528571 69.7112676 14.1310714"></polyline>
                    <polyline id="Fill-559" fill="#917A32" points="69.7112676 14.13 68.9501972 12.6117857 69.4768451 12.3482143 70.2379155 13.8642857 69.8654085 14.0528571 69.7112676 14.13"></polyline>
                    <polyline id="Fill-560" fill="#2C6D61" points="68.9705352 14.5028571 68.9940845 14.49 68.9705352 14.5028571"></polyline>
                    <polyline id="Fill-561" fill="#917A32" points="68.3272113 14.8242857 67.363831 12.9010714 68.0307042 12.5667857 68.9940845 14.49 68.9705352 14.5028571 68.3272113 14.8242857"></polyline>
                    <polyline id="Fill-562" fill="#917A32" points="67.0855211 15.4489286 66.3233803 13.9317857 66.8500282 13.6682143 67.6110986 15.1842857 67.0855211 15.4489286"></polyline>
                    <polyline id="Fill-563" fill="#917A32" points="65.9626479 16.0125 65.9626479 15.1746429 66.2987606 15.8442857 65.9626479 16.0125"></polyline>
                    <polyline id="Fill-564" fill="#917A32" points="63.3572394 17.3207143 63.3572394 16.3628571 63.3615211 16.3714286 63.3615211 17.3185714 63.3572394 17.3207143"></polyline>
                    <path d="M1.79402817,13.1175 L3.68439437,13.4817857 C3.50242254,15.1842857 2.88478873,17.2146429 1.72980282,17.1053571 C0.00214084507,16.8782143 -0.344676056,12.735 0.346816901,11.1953571 C0.98371831,9.74892857 2.3131831,9.12964286 3.45746479,8.9025 C4.39408451,8.69142857 5.22366197,8.57357143 5.79633803,8.95607143 L5.83273239,8.97535714 C6.30478873,9.30321429 6.60557746,9.9675 6.68692958,11.1953571 L14.9463099,14.4460714 L14.9463099,14.8382143 L3.1491831,10.5139286 L2.9211831,10.4314286 C2.23932394,10.3317857 1.44828169,11.67 1.79402817,13.1175" id="Fill-565" fill="#C7C6C1"></path>
                    <path d="M14.9463099,13.2085714 L14.9463099,14.4460714 L6.68692958,11.1953571 C6.60557746,9.9675 6.30478873,9.30321429 5.83273239,8.97535714 L14.9463099,13.2085714" id="Fill-566" fill="#F4F4F1"></path>
                    <path d="M14.9463099,14.8382143 L14.9463099,18.9439286 L1.72980282,17.1053571 C2.88478873,17.2146429 3.50242254,15.1842857 3.68439437,13.4817857 C3.75825352,12.7885714 3.75825352,12.1532143 3.69509859,11.7321429 C3.58484507,11.0592857 3.38574648,10.6778571 3.1491831,10.5139286 L14.9463099,14.8382143" id="Fill-567" fill="#E4E4DF"></path>
                    <path d="M3.68439437,13.4817857 L1.79402817,13.1175 C1.44828169,11.67 2.23932394,10.3317857 2.9211831,10.4314286 L3.1491831,10.5139286 C3.38574648,10.6778571 3.58484507,11.0592857 3.69509859,11.7321429 C3.75825352,12.1532143 3.75825352,12.7896429 3.68439437,13.4817857" id="Fill-568" fill="#ACADA9"></path>
                    <polyline id="Fill-569" fill="#EEA043" points="20.3658592 11.9935714 22.199493 26.5082143 11.2661972 27.8914286 9.4336338 13.3757143 20.3658592 11.9935714"></polyline>
                    <polygon id="Fill-570" fill="#474250" points="14.7343662 44.5832143 61.7815775 44.5832143 61.7815775 9.84107143 14.7343662 9.84107143"></polygon>
                    <path d="M63.3572394,8.43857143 L63.3572394,32.2317857 C57.8745352,34.1539286 48.6496338,35.4128571 38.1841127,35.4128571 C27.8588169,35.4128571 18.7356056,34.1882143 13.2293521,32.3067857 L13.2293521,8.43857143 L63.3572394,8.43857143" id="Fill-571" fill="#60566C"></path>
                    <path d="M47.8682254,6.4575 L45.759493,6.4575 C45.759493,4.08857143 43.8295211,2.16428571 41.4649577,2.16428571 L34.9781972,2.16428571 C32.6125634,2.16428571 30.6825915,4.08857143 30.6825915,6.4575 L28.576,6.4575 C28.576,4.69392857 29.2921127,3.09642857 30.4545915,1.935 C31.6181408,0.776785714 33.2152113,0.0610714286 34.9781972,0.0610714286 L41.4649577,0.0610714286 C45.0037746,0.0610714286 47.8682254,2.92285714 47.8682254,6.4575" id="Fill-572" fill="#474250"></path>
                    <polygon id="Fill-573" fill="#EFC653" points="27.8598873 9.40392857 31.3451831 9.40392857 31.3451831 6.4575 27.8598873 6.4575"></polygon>
                    <polygon id="Fill-574" fill="#EFC653" points="45.1696901 9.40392857 48.6560563 9.40392857 48.6560563 6.4575 45.1696901 6.4575"></polygon>
                    <polygon id="Fill-575" fill="#F1CB2B" points="34.8957746 39.6707143 41.6918873 39.6707143 41.6918873 31.1560714 34.8957746 31.1560714"></polygon>
                    <path d="M40.9040563,34.5385714 L40.9040563,34.5803571 L35.671831,34.5803571 L35.671831,34.5385714 C35.671831,33.09 36.8460845,31.9157143 38.2890141,31.9157143 C39.015831,31.9157143 39.6709296,32.2125 40.1451268,32.685 C40.611831,33.1585714 40.9040563,33.8110714 40.9040563,34.5385714" id="Fill-576" fill="#E5AA2D"></path>
                    <polygon id="Fill-577" fill="#E5AA2D" points="35.671831 36.8185714 40.9040563 36.8185714 40.9040563 35.6346429 35.671831 35.6346429"></polygon>
                    <path d="M61.8190423,37.785 L61.7815775,37.785 L61.7815775,32.7482143 C61.7944225,32.7439286 61.8061972,32.7407143 61.8190423,32.7375 L61.8190423,37.785" id="Fill-578" fill="#38848D"></path>
                    <path d="M61.7815775,37.785 L41.6918873,37.785 L41.6918873,35.3657143 C49.7735775,35.1482143 56.8918873,34.1764286 61.7815775,32.7482143 L61.7815775,37.785 M34.8957746,37.785 L14.771831,37.785 L14.771831,32.79 C19.6968451,34.2053571 26.8237183,35.1642857 34.8957746,35.3710714 L34.8957746,37.785" id="Fill-579" fill="#38333A"></path>
                    <path d="M34.8957746,35.3710714 C26.8237183,35.1642857 19.6968451,34.2053571 14.771831,32.79 L14.771831,32.7857143 C19.6904225,34.1978571 26.8183662,35.16 34.8957746,35.37 L34.8957746,35.3710714" id="Fill-580" fill="#4A414C"></path>
                    <path d="M41.6918873,37.785 L34.8957746,37.785 L34.8957746,35.37 C35.9876056,35.3978571 37.0965634,35.4128571 38.2194366,35.4128571 C39.3936901,35.4128571 40.5529577,35.3967857 41.6918873,35.3657143 L41.6918873,37.785 Z M35.671831,36.8185714 L40.9040563,36.8185714 L40.9040563,35.6346429 L35.671831,35.6346429 L35.671831,36.8185714 Z" id="Fill-581" fill="#BE9A34"></path>
                    <polygon id="Fill-582" fill="#B88232" points="35.671831 36.8185714 40.9040563 36.8185714 40.9040563 35.6346429 35.671831 35.6346429"></polygon>
                    <path d="M63.3615211,19.905 L63.3615211,19.9028571 L65.5730141,19.6660714 L63.3615211,19.905 M63.3615211,10.3017857 L63.3615211,10.2996429 L64.1964507,9.88178571 L63.3615211,10.3017857" id="Fill-583" fill="#306C6B"></path>
                    <polyline id="Fill-584" fill="#843525" points="63.3615211 19.9028571 63.3615211 17.3196429 64.4597746 16.7678571 64.4608451 16.7678571 64.5860845 16.7046429 65.9626479 16.0135714 65.9626479 19.6232143 65.5730141 19.6660714 63.3615211 19.9028571"></polyline>
                    <polyline id="Fill-585" fill="#987931" points="63.3615211 17.3196429 63.3615211 17.3185714 63.7415211 17.1278571 63.3615211 16.3714286 63.3615211 10.3017857 64.1964507 9.88178571 65.9626479 8.99785714 65.9626479 15.1746429 65.5376901 14.3260714 65.0110423 14.5907143 65.7710423 16.1078571 65.9626479 16.0125 65.9626479 16.0135714 64.5860845 16.7046429 64.9842817 16.5021429 64.2242817 14.9860714 63.6987042 15.2517857 64.4597746 16.7678571 63.3615211 17.3196429"></polyline>
                    <polyline id="Fill-586" fill="#5B4A25" points="65.7710423 16.1078571 65.0110423 14.5907143 65.5376901 14.3260714 65.9626479 15.1746429 65.9626479 16.0125 65.7710423 16.1078571"></polyline>
                    <polyline id="Fill-587" fill="#4C2319" points="64.4608451 16.7678571 64.4597746 16.7678571 64.5860845 16.7046429 64.4608451 16.7678571"></polyline>
                    <polyline id="Fill-588" fill="#5B4A25" points="64.4597746 16.7678571 63.6987042 15.2517857 64.2242817 14.9860714 64.9842817 16.5021429 64.5860845 16.7046429 64.4597746 16.7678571"></polyline>
                    <polyline id="Fill-589" fill="#5B4A25" points="63.3615211 17.3185714 63.3615211 16.3714286 63.7415211 17.1278571 63.3615211 17.3185714"></polyline>
                    <path d="M12.3023662,27.7607143 L13.2293521,27.6428571 L13.2293521,27.645 L13.2218592,27.6460714 L13.2218592,27.645 L12.3023662,27.7607143 M10.9322254,25.2407143 L10.3852394,20.925 L10.3852394,20.9110714 L10.9322254,25.2407143" id="Fill-590" fill="#306C6B"></path>
                    <polyline id="Fill-591" fill="#817B6A" points="10.5672113 13.2332143 10.3852394 13.1657143 10.3852394 12.6514286 11.5477183 13.1089286 10.5672113 13.2332143"></polyline>
                    <polyline id="Fill-592" fill="#98927F" points="11.5477183 13.1089286 10.3852394 12.6514286 10.3852394 11.1 13.2293521 12.4189286 13.2293521 12.8957143 11.5477183 13.1089286"></polyline>
                    <polyline id="Fill-593" fill="#908A77" points="10.3852394 13.2557143 10.3852394 13.1657143 10.5672113 13.2332143 10.3852394 13.2557143"></polyline>
                    <polyline id="Fill-594" fill="#9A642E" points="11.2672676 27.8903571 10.3852394 20.9110714 10.3852394 13.2557143 10.5672113 13.2332143 11.5477183 13.1089286 13.2293521 12.8957143 13.2293521 27.6428571 12.3023662 27.7607143 11.6140845 27.8475 11.2672676 27.8903571"></polyline>
                    <polyline id="Fill-595" fill="#3C3539" points="13.2293521 27.645 13.2293521 12.4189286 13.2325634 12.4210714 13.2325634 27.645 13.2293521 27.645"></polyline>
                    <path d="M1.76726761,17.1075 C1.75870423,17.1075 1.75014085,17.1064286 1.74157746,17.1064286 C1.74050704,17.1064286 1.74050704,17.1064286 1.74050704,17.1064286 C1.73729577,17.1053571 1.73301408,17.1053571 1.72980282,17.1053571 C1.57030986,17.0839286 1.42152113,17.0292857 1.28450704,16.9467857 C1.4204507,17.0282143 1.56709859,17.0817857 1.7244507,17.1021429 L1.76726761,17.1075 M0.769633803,10.4689286 C0.804957746,10.4228571 0.841352113,10.3767857 0.877746479,10.3328571 L0.901295775,10.3092857 C0.855267606,10.3617857 0.812450704,10.4142857 0.769633803,10.4689286" id="Fill-598" fill="#A1A2A1"></path>
                    <path d="M10.0512676,18.2625 L1.72980282,17.1053571 C1.73301408,17.1053571 1.73729577,17.1053571 1.74050704,17.1064286 C1.74050704,17.1064286 1.74050704,17.1064286 1.74157746,17.1064286 C1.75014085,17.1064286 1.75870423,17.1075 1.76726761,17.1075 L10.0501972,18.2592857 L10.0512676,18.2625" id="Fill-599" fill="#B7B7B6"></path>
                    <path d="M11.2661972,27.8914286 L11.6140845,27.8475 L11.863493,27.8164286 L11.2661972,27.8914286 M10.1957746,19.4067857 L10.0512676,18.2625 L10.0501972,18.2592857 L10.0534085,18.2592857 L10.1957746,19.4067857" id="Fill-600" fill="#C28236"></path>
                    <path d="M14.7311549,32.7782143 C14.2901408,32.6507143 13.8673239,32.52 13.4627042,32.3860714 C13.8705352,32.5189286 14.2933521,32.6507143 14.7311549,32.7664286 L14.7311549,32.7782143" id="Fill-601" fill="#4D4658"></path>
                    <polyline id="Fill-602" fill="#265758" points="11.863493 27.8164286 12.3023662 27.7607143 13.2218592 27.645 13.2218592 27.6460714 11.863493 27.8164286"></polyline>
                    <polyline id="Fill-603" fill="#7B5128" points="11.6140845 27.8475 12.3023662 27.7607143 11.863493 27.8164286 11.6140845 27.8475"></polyline>
                    <path d="M47.8607324,6.4575 L45.7509296,6.4575 C45.7487887,4.09178571 43.8230986,2.16535714 41.4585352,2.16535714 L34.9728451,2.16535714 C34.5254085,2.16535714 34.0929577,2.235 33.6872676,2.3625 C34.0950986,2.23392857 34.5286197,2.16428571 34.9781972,2.16428571 L41.4649577,2.16428571 C43.8295211,2.16428571 45.759493,4.08857143 45.759493,6.4575 L47.8607324,6.4575 M30.6804507,6.4575 L28.5706479,6.4575 C28.5717183,5.12678571 28.9795493,3.8925 29.6796056,2.87035714 C28.9827606,3.89464286 28.576,5.12892857 28.576,6.4575 L30.6804507,6.4575 M33.6765634,2.36678571 C33.6787042,2.36571429 33.6797746,2.36571429 33.6808451,2.36464286 C33.6797746,2.36571429 33.6787042,2.36571429 33.6765634,2.36678571 M31.1557183,1.32964286 C31.6449014,0.962142857 32.1886761,0.665357143 32.7731268,0.452142857 C32.1897465,0.666428571 31.6459718,0.964285714 31.1557183,1.32964286" id="Fill-604" fill="#368196"></path>
                    <path d="M47.8607324,6.4575 L45.759493,6.4575 C45.759493,4.08857143 43.8295211,2.16428571 41.4649577,2.16428571 L34.9781972,2.16428571 C34.5286197,2.16428571 34.0950986,2.23392857 33.6872676,2.3625 C33.6851268,2.36357143 33.6829859,2.36464286 33.6808451,2.36464286 C33.6797746,2.36571429 33.6787042,2.36571429 33.6765634,2.36678571 C31.9435493,2.9175 30.6825915,4.54392857 30.6804507,6.4575 L28.576,6.4575 C28.576,5.12892857 28.9827606,3.89464286 29.6796056,2.87035714 C29.9076056,2.53714286 30.1677183,2.22535714 30.4545915,1.94035714 C30.6729577,1.72071429 30.9073803,1.51607143 31.1557183,1.32964286 C31.6459718,0.964285714 32.1897465,0.666428571 32.7731268,0.452142857 C33.4581972,0.201428571 34.1989296,0.0664285714 34.9728451,0.0664285714 L41.4585352,0.0664285714 C45.0005634,0.0664285714 47.8575211,2.925 47.8607324,6.4575" id="Fill-605" fill="#34303C"></path>
                    <path d="M30.6804507,6.46285714 L28.5706479,6.46285714 C28.5706479,6.46178571 28.5706479,6.45964286 28.5706479,6.4575 L30.6804507,6.4575 C30.6804507,6.45964286 30.6804507,6.46178571 30.6804507,6.46285714" id="Fill-606" fill="#AF913F"></path>
                    <path d="M47.8607324,6.46285714 L45.7509296,6.46285714 C45.7509296,6.46178571 45.7509296,6.45964286 45.7509296,6.4575 L47.8607324,6.4575 C47.8607324,6.45964286 47.8607324,6.46178571 47.8607324,6.46285714" id="Fill-607" fill="#AF913F"></path>
                </g>
            </g>
        </g>
    </g>
</svg>