<?xml version="1.0" encoding="UTF-8"?>
<svg width="171px" height="63px" viewBox="0 0 171 63" version="1.1" xmlns="http://www.w3.org/2000/svg" xmlns:xlink="http://www.w3.org/1999/xlink">
    <!-- Generator: Sketch 53.2 (72643) - https://sketchapp.com -->
    <title>Group</title>
    <desc>Created with Sketch.</desc>
    <g id="Page-1" stroke="none" stroke-width="1" fill="none" fill-rule="evenodd">
        <g id="Kutsekoda_värv_SA" transform="translate(-85.000000, -32.000000)">
            <g id="Group" transform="translate(85.622800, 32.754900)">
                <path d="M84.8059,36.8111 L85.2969,35.1721 L85.7979,36.8111 L84.8059,36.8111 Z M103.3159,34.4461 C103.0409,34.6631 102.8659,34.9901 102.8659,35.4461 C102.8659,36.0331 103.2689,36.4211 104.0079,36.5371 L104.8329,36.6731 C105.1269,36.7241 105.2759,36.8241 105.2759,37.0241 C105.2759,37.3691 104.7969,37.4781 104.5349,37.4781 C104.0589,37.4781 103.7329,37.2981 103.3869,36.9841 L102.6279,37.4771 C103.1709,38.0641 103.7439,38.2871 104.4159,38.2871 C105.1619,38.2871 106.2369,38.0611 106.2369,36.8671 C106.2369,36.1091 105.5829,35.8671 104.7929,35.7361 L104.4099,35.6751 C104.0349,35.6131 103.8639,35.5081 103.8639,35.2931 C103.8639,35.0411 104.1949,34.8941 104.4199,34.8941 C104.8419,34.8941 105.2269,35.0771 105.4869,35.3961 L106.2419,34.8541 C106.0979,34.6941 105.9319,34.5551 105.7499,34.4461 L103.3159,34.4461 Z M98.8659,34.4461 L98.8659,36.7901 C98.8659,37.8761 99.7839,38.2871 100.5409,38.2871 C101.3039,38.2871 102.2289,37.8761 102.2289,36.7901 L102.2289,34.4461 L101.2309,34.4461 L101.2309,36.7071 C101.2309,37.1521 101.0609,37.4781 100.5409,37.4781 C100.0279,37.4781 99.8559,37.1521 99.8559,36.7071 L99.8559,34.4461 L98.8659,34.4461 Z M96.3849,38.1731 L97.3789,38.1731 L97.3789,34.9701 L98.4139,34.9701 L98.4139,34.4461 L95.3479,34.4461 L95.3479,34.9701 L96.3849,34.9701 L96.3849,38.1731 Z M91.5259,34.4461 L91.5259,36.7901 C91.5259,37.8761 92.4499,38.2871 93.2039,38.2871 C93.9689,38.2871 94.8889,37.8761 94.8889,36.7901 L94.8889,34.4461 L93.8979,34.4461 L93.8979,36.7071 C93.8979,37.1521 93.7219,37.4781 93.2039,37.4781 C92.6899,37.4781 92.5189,37.1521 92.5189,36.7071 L92.5189,34.4461 L91.5259,34.4461 Z M88.0239,34.4461 C87.7499,34.6631 87.5729,34.9901 87.5729,35.4461 C87.5729,36.0331 87.9759,36.4211 88.7119,36.5371 L89.5389,36.6731 C89.8359,36.7241 89.9829,36.8241 89.9829,37.0241 C89.9829,37.3691 89.5059,37.4781 89.2439,37.4781 C88.7679,37.4781 88.4409,37.2981 88.0959,36.9841 L87.3379,37.4771 C87.8769,38.0641 88.4519,38.2871 89.1269,38.2871 C89.8689,38.2871 90.9459,38.0611 90.9459,36.8671 C90.9459,36.1091 90.2909,35.8671 89.4999,35.7361 L89.1209,35.6751 C88.7429,35.6131 88.5649,35.5081 88.5649,35.2931 C88.5649,35.0411 88.9029,34.8941 89.1289,34.8941 C89.5489,34.8941 89.9379,35.0771 90.1989,35.3961 L90.9499,34.8541 C90.8049,34.6941 90.6389,34.5551 90.4589,34.4461 L88.0239,34.4461 Z M84.6849,34.4461 L83.3109,38.1731 L84.3709,38.1731 L84.5719,37.5451 L86.0379,37.5451 L86.2369,38.1731 L87.3049,38.1731 L85.8929,34.4461 L84.6849,34.4461 Z M80.1609,34.4461 L80.1609,34.9701 L81.1999,34.9701 L81.1999,38.1731 L82.1939,38.1731 L82.1939,34.9701 L83.2309,34.9701 L83.2309,34.4461 L80.1609,34.4461 Z M76.2469,34.4461 L76.2469,38.1731 L77.2409,38.1731 L77.2409,36.5001 L78.7189,36.5001 L78.7189,38.1731 L79.7099,38.1731 L79.7099,34.4461 L78.7189,34.4461 L78.7189,35.6301 L77.2409,35.6301 L77.2409,34.4461 L76.2469,34.4461 Z M74.4879,38.1731 L75.4809,38.1731 L75.4809,34.4451 L74.4879,34.4451 L74.4879,38.1731 Z M70.9859,34.4461 C70.7109,34.6631 70.5359,34.9901 70.5359,35.4461 C70.5359,36.0331 70.9389,36.4211 71.6739,36.5371 L72.4999,36.6731 C72.7949,36.7241 72.9449,36.8241 72.9449,37.0241 C72.9449,37.3691 72.4689,37.4781 72.2039,37.4781 C71.7299,37.4781 71.4039,37.2981 71.0559,36.9841 L70.2989,37.4771 C70.8409,38.0641 71.4119,38.2871 72.0889,38.2871 C72.8299,38.2871 73.9049,38.0611 73.9049,36.8671 C73.9049,36.1091 73.2519,35.8671 72.4599,35.7361 L72.0829,35.6751 C71.7049,35.6131 71.5279,35.5081 71.5279,35.2931 C71.5279,35.0411 71.8649,34.8941 72.0899,34.8941 C72.5099,34.8941 72.8959,35.0771 73.1579,35.3961 L73.9119,34.8541 C73.7659,34.6941 73.6009,34.5551 73.4209,34.4461 L70.9859,34.4461 Z" id="Fill-1" fill="#004877"></path>
                <path d="M105.7502,34.4458 C105.3742,34.2138 104.9362,34.0908 104.4922,34.0908 C104.0412,34.0908 103.6172,34.1988 103.3152,34.4448 L105.7502,34.4458 Z M101.2312,34.4458 L102.2292,34.4458 L102.2292,34.2048 L101.2312,34.2048 L101.2312,34.4458 Z M98.8652,34.4458 L99.8552,34.4458 L99.8552,34.2048 L98.8652,34.2048 L98.8652,34.4458 Z M95.3482,34.4458 L98.4142,34.4458 L98.4142,34.2048 L95.3482,34.2048 L95.3482,34.4458 Z M93.8982,34.4458 L94.8892,34.4458 L94.8892,34.2048 L93.8982,34.2048 L93.8982,34.4458 Z M91.5262,34.4458 L92.5192,34.4458 L92.5192,34.2048 L91.5262,34.2048 L91.5262,34.4458 Z M90.4592,34.4458 C90.0842,34.2138 89.6452,34.0908 89.1992,34.0908 C88.7502,34.0908 88.3272,34.1988 88.0232,34.4448 L90.4592,34.4458 Z M85.8932,34.4458 L85.8052,34.2048 L84.7752,34.2048 L84.6852,34.4458 L85.8932,34.4458 Z M80.1602,34.4458 L83.2302,34.4458 L83.2302,34.2048 L80.1602,34.2048 L80.1602,34.4458 Z M78.7182,34.4458 L79.7092,34.4458 L79.7092,34.2048 L78.7182,34.2048 L78.7182,34.4458 Z M76.2462,34.4458 L77.2402,34.4458 L77.2402,34.2048 L76.2462,34.2048 L76.2462,34.4458 Z M74.4882,34.4458 L75.4812,34.4458 L75.4812,34.2048 L74.4882,34.2048 L74.4882,34.4458 Z M73.4212,34.4458 C73.0442,34.2138 72.6062,34.0908 72.1612,34.0908 C71.7112,34.0908 71.2862,34.1988 70.9862,34.4448 L73.4212,34.4458 Z" id="Fill-3" fill="#004877"></path>
                <polygon id="Fill-5" fill="#004877" points="73.1545 57.8101 73.1545 49.2221 80.6205 57.8101 83.7815 57.8101 75.7305 48.8631 82.9755 41.6211 79.9055 41.6211 73.1545 48.6401 73.1545 41.6211 70.9105 41.6211 70.9105 57.8101"></polygon>
                <path d="M92.2649,52.3394 C92.2649,52.6074 92.2429,53.9314 91.8379,54.9854 C91.3909,56.1534 90.1989,56.6014 89.3249,56.6014 C87.2859,56.6014 86.8339,55.1654 86.8339,53.2114 L86.8339,46.5544 L84.7059,46.5544 L84.7059,54.0874 C84.7059,56.3534 86.0499,58.1464 88.4059,58.1464 C89.9749,58.1464 91.4089,57.5624 92.2649,56.1534 L92.3069,56.1534 L92.3069,57.8104 L94.3929,57.8104 L94.3929,46.5544 L92.2649,46.5544 L92.2649,52.3394 Z" id="Fill-7" fill="#004877"></path>
                <path d="M95.5149,46.5074 L95.5149,48.1034 L97.4479,48.0784 L97.4479,55.2134 C97.4479,56.7124 97.5569,56.7524 97.9399,57.2964 C98.2969,57.7864 98.8599,57.9684 99.1959,58.0364 C99.7109,58.1254 100.1159,58.1464 100.6289,58.1464 C101.1229,58.1464 101.5939,58.0364 102.0899,58.0114 L102.0899,56.3774 C101.7509,56.4664 101.3029,56.5134 100.9669,56.5134 C100.2049,56.5134 99.5749,56.1304 99.5749,55.3254 L99.5749,48.0784 L102.1779,48.1034 L102.1779,46.5074 L99.5749,46.5784 L99.5749,43.5054 L97.4479,44.1734 L97.4479,46.5784 L95.5149,46.5074 Z" id="Fill-9" fill="#004877"></path>
                <path d="M102.9065,49.6265 C102.9065,54.0205 109.7455,52.1355 109.7455,54.6485 C109.7455,56.1055 108.4635,56.6015 107.2055,56.6015 C105.9065,56.6015 104.9655,55.8605 104.9205,54.4685 L102.6815,54.4685 C102.6555,57.0695 104.6295,58.1465 106.9825,58.1465 C109.2935,58.1465 111.9865,57.2965 111.9865,54.5365 C111.9865,52.0035 109.7895,51.7775 107.8855,51.1495 C107.0765,50.9035 105.1465,50.8115 105.1465,49.5585 C105.1465,48.3025 106.0665,47.7645 107.2055,47.7645 C108.4445,47.7645 109.5425,48.2345 109.4495,49.6705 L111.6955,49.6705 C111.8535,47.1155 109.4495,46.2185 107.3225,46.2185 C105.2805,46.2185 102.9065,47.2745 102.9065,49.6265" id="Fill-11" fill="#004877"></path>
                <path d="M123.1887,52.5855 L123.1887,51.5315 C123.1887,48.4175 121.5957,46.2865 118.2297,46.2185 C114.6637,46.2185 113.0057,48.9775 113.0057,52.2675 C113.0057,55.5925 114.4427,58.1465 118.0537,58.1465 C120.7417,58.1465 122.7177,56.8695 123.0517,54.3145 L120.8077,54.3145 C120.5637,55.9515 119.7317,56.6015 118.0737,56.6015 C115.9007,56.6015 115.0917,54.5595 115.2497,52.5855 L123.1887,52.5855 Z M115.2497,51.1065 C115.2497,49.2685 116.3017,47.7645 118.0737,47.7645 C120.1357,47.7645 120.9857,49.2225 120.9457,51.1065 L115.2497,51.1065 Z" id="Fill-13" fill="#004877"></path>
                <polygon id="Fill-15" fill="#004877" points="127.1223 57.8101 127.1223 51.7361 127.1703 51.7361 131.6323 57.8101 134.3893 57.8101 129.3423 51.3291 134.1013 46.5541 131.3433 46.5541 127.1223 51.1501 127.1223 41.6211 124.9943 41.6211 124.9943 57.8101"></polygon>
                <path d="M140.2327,46.2183 C136.5327,46.2183 134.6267,48.6843 134.6267,52.1813 C134.6267,55.6813 136.5327,58.1463 140.2327,58.1463 C143.9317,58.1463 145.8367,55.6813 145.8367,52.1813 C145.8367,48.6843 143.9317,46.2183 140.2327,46.2183 M136.8687,52.1813 C136.8687,49.7823 137.7007,47.7643 140.2327,47.7643 C142.7617,47.7643 143.5967,49.7823 143.5967,52.1813 C143.5967,54.5823 142.7617,56.6013 140.2327,56.6013 C137.7007,56.6013 136.8687,54.5823 136.8687,52.1813" id="Fill-17" fill="#004877"></path>
                <path d="M149.4504,52.1597 C149.4504,50.0517 150.0794,47.6967 152.6324,47.6967 C155.0534,47.6967 155.8184,50.1187 155.8184,52.1597 C155.8184,54.2687 155.2144,56.6667 152.6324,56.6667 C150.2354,56.6667 149.4504,54.2687 149.4504,52.1597 L149.4504,52.1597 Z M155.7944,48.0787 L155.7474,48.0787 C155.0994,46.7337 153.6884,46.2187 152.2554,46.2187 C148.7534,46.2187 147.2104,49.1327 147.2104,52.1807 C147.2104,55.0747 148.5294,58.1457 151.8704,58.1457 C153.5114,58.1457 154.9944,57.5847 155.7474,56.0147 L155.7944,56.0147 L155.7944,56.1277 L155.8644,57.8097 L158.0394,57.8097 C157.9914,57.1587 157.9284,56.4867 157.9284,55.8167 L157.9284,41.6207 L155.7944,41.6207 L155.7944,48.0787 Z" id="Fill-19" fill="#004877"></path>
                <path d="M167.2122,52.3394 C167.2552,54.4254 166.7882,56.6014 164.2742,56.6014 C163.0192,56.6014 162.0572,55.9034 162.0572,54.5174 C162.0572,52.8764 163.7792,52.4024 165.0822,52.3394 L167.2122,52.3394 Z M165.2822,50.8584 C162.6172,50.8584 159.8122,51.7774 159.8122,54.9394 C159.8122,57.1364 161.7832,58.1464 163.7372,58.1464 C165.2822,58.1464 166.5422,57.5424 167.2382,56.1274 L167.2792,56.1274 C167.3062,56.6434 167.3452,57.1364 167.3882,57.6534 C167.4162,57.9214 167.7952,57.8104 167.9982,57.8104 L169.4362,57.8104 C169.3642,56.8694 169.3472,55.9254 169.3472,55.4354 L169.3472,50.0514 C169.3472,46.9094 167.0542,46.2184 164.7462,46.2184 C162.5282,46.2184 160.5962,47.0914 160.4862,49.5584 L162.7242,49.5584 C162.7492,48.3904 163.7562,47.7644 164.8322,47.7644 C167.1012,47.7644 167.2122,48.9074 167.2122,50.8584 L165.2822,50.8584 Z" id="Fill-21" fill="#004877"></path>
                <path d="M42.655,10.419 L48.26,2.978 L46.487,12.087 C45.266,11.429 43.985,10.873 42.655,10.419 L42.655,10.419 Z M32.137,9.15 L34.254,0 L36.358,9.13 C35.706,9.08 35.048,9.055 34.384,9.055 C33.628,9.055 32.881,9.085 32.137,9.15 L32.137,9.15 Z M22.042,12.218 L20.248,2.978 L25.904,10.49 C24.561,10.961 23.271,11.541 22.042,12.218 L22.042,12.218 Z M14.046,19.087 L8.658,11.394 L16.886,15.959 C15.859,16.92 14.909,17.967 14.046,19.087 L14.046,19.087 Z M9.486,28.589 L1.501,23.795 L10.814,24.611 C10.268,25.887 9.823,27.216 9.486,28.589 L9.486,28.589 Z M9.151,39.157 L0,38.037 L8.762,35.023 C8.782,36.429 8.913,37.808 9.151,39.157 L9.151,39.157 Z M13.13,48.992 L4.426,51.653 L11.116,45.419 C11.692,46.669 12.368,47.863 13.13,48.992 L13.13,48.992 Z M20.791,56.398 L14.008,62.294 L17.539,53.985 C18.555,54.872 19.644,55.678 20.791,56.398 L20.791,56.398 Z M51.781,15.864 L59.845,11.395 L54.579,18.908 C53.732,17.819 52.794,16.803 51.781,15.864 L51.781,15.864 Z M27.629,54.557 C26.287,54.087 25.006,53.493 23.801,52.785 C17.398,49.012 13.105,42.049 13.105,34.086 C13.105,22.11 22.811,12.402 34.785,12.402 C42.385,12.402 49.07,16.313 52.942,22.226 C53.723,23.425 54.397,24.709 54.931,26.053 C55.524,27.54 55.959,29.103 56.21,30.728 L62.544,30.728 L62.544,61.562 L31.71,61.562 L31.71,55.55 C30.301,55.349 28.937,55.013 27.629,54.557 L27.629,54.557 Z M48.132,22.226 C44.862,18.549 40.095,16.23 34.785,16.23 C24.923,16.23 16.93,24.224 16.93,34.086 C16.93,39.8 19.618,44.89 23.801,48.162 L23.801,22.226 L48.132,22.226 Z M27.629,50.447 C29.82,51.404 32.239,51.937 34.785,51.937 C44.647,51.937 52.641,43.945 52.641,34.086 C52.641,31.195 51.952,28.468 50.736,26.053 L27.629,26.053 L27.629,50.447 Z M58.716,57.736 L58.716,34.558 L56.464,34.558 C56.218,46.062 47.008,55.364 35.537,55.752 L35.537,57.736 L58.716,57.736 Z" id="Fill-23" fill="#FBD034"></path>
            </g>
        </g>
    </g>
</svg>