<?xml version="1.0" encoding="UTF-8"?>
<svg width="117px" height="80px" viewBox="0 0 117 80" version="1.1" xmlns="http://www.w3.org/2000/svg" xmlns:xlink="http://www.w3.org/1999/xlink">
    <!-- Generator: Sketch 53.2 (72643) - https://sketchapp.com -->
    <title>Fill 1</title>
    <desc>Created with Sketch.</desc>
    <g id="Page-1" stroke="none" stroke-width="1" fill="none" fill-rule="evenodd">
        <g id="OSKA" fill="#0072BC">
            <path d="M116.421,68.019 L100.064,39.691 L100.064,29.105 C100.064,21.781 94.106,15.823 86.783,15.823 L73.085,15.823 L84.878,4.032 C85.708,3.202 85.708,1.857 84.878,1.027 C84.048,0.197 82.703,0.197 81.873,1.027 L66.455,16.443 C66.284,16.614 66.155,16.822 66.05,17.042 L66.05,2.125 C66.05,0.95 65.099,-1.42108547e-14 63.924,-1.42108547e-14 C62.75,-1.42108547e-14 61.799,0.95 61.799,2.125 L61.799,15.823 L51.675,15.823 C44.351,15.823 38.393,21.781 38.393,29.105 C38.393,36.428 44.351,42.386 51.675,42.386 C56.655,42.386 60.706,46.437 60.706,51.417 C60.706,56.398 56.655,60.449 51.675,60.449 L40.874,60.449 L44.675,56.647 C45.505,55.817 45.505,54.472 44.675,53.642 C43.845,52.812 42.5,52.812 41.67,53.642 L34.246,61.068 C34.227,61.087 34.219,61.113 34.201,61.132 C33.464,52.357 26.099,45.437 17.137,45.437 C7.688,45.437 0,53.125 0,62.574 C0,72.022 7.688,79.711 17.137,79.711 C26.099,79.711 33.464,72.79 34.201,64.015 C34.219,64.034 34.227,64.061 34.246,64.079 L41.67,71.503 C42.085,71.918 42.629,72.126 43.172,72.126 C43.716,72.126 44.26,71.918 44.675,71.503 C45.505,70.673 45.505,69.328 44.675,68.498 L40.875,64.699 L51.675,64.699 C58.998,64.699 64.956,58.741 64.956,51.417 C64.956,44.094 58.998,38.136 51.675,38.136 C46.694,38.136 42.643,34.085 42.643,29.105 C42.643,24.124 46.694,20.073 51.675,20.073 L61.799,20.073 L61.799,33.772 C61.799,34.946 62.75,35.897 63.924,35.897 C65.099,35.897 66.05,34.946 66.05,33.772 L66.05,18.855 C66.155,19.075 66.284,19.283 66.455,19.454 L81.873,34.87 C82.288,35.285 82.832,35.492 83.375,35.492 C83.919,35.492 84.463,35.285 84.878,34.87 C85.708,34.04 85.708,32.695 84.878,31.865 L73.085,20.073 L86.783,20.073 C91.763,20.073 95.814,24.124 95.814,29.105 L95.814,39.691 L79.46,68.019 C79.08,68.677 79.08,69.486 79.46,70.144 C79.839,70.802 80.541,71.207 81.3,71.207 L114.58,71.207 C115.34,71.207 116.041,70.802 116.421,70.144 C116.801,69.486 116.801,68.677 116.421,68.019 L116.421,68.019 Z M17.137,75.461 C10.031,75.461 4.25,69.679 4.25,62.574 C4.25,55.468 10.031,49.687 17.137,49.687 C24.242,49.687 30.024,55.468 30.024,62.574 C30.024,69.679 24.242,75.461 17.137,75.461 L17.137,75.461 Z M84.982,66.957 L97.939,44.511 L110.899,66.957 L84.982,66.957 Z" id="Fill-1"></path>
        </g>
    </g>
</svg>