<?xml version="1.0" encoding="UTF-8"?>
<svg width="375px" height="603px" viewBox="0 0 375 603" version="1.1" xmlns="http://www.w3.org/2000/svg" xmlns:xlink="http://www.w3.org/1999/xlink">
    <!-- Generator: Sketch 49.1 (51147) - http://www.bohemiancoding.com/sketch -->
    <title>Group 3</title>
    <desc>Created with Sketch.</desc>
    <defs>
        <linearGradient x1="50%" y1="-250.154523%" x2="50%" y2="100%" id="linearGradient-1">
            <stop stop-color="#15ADC2" offset="0%"></stop>
            <stop stop-color="#2E3374" offset="100%"></stop>
        </linearGradient>
        <rect id="path-2" x="0" y="0" width="375" height="603"></rect>
    </defs>
    <g id="Page-1" stroke="none" stroke-width="1" fill="none" fill-rule="evenodd">
        <g id="404_xs" transform="translate(0.000000, -64.000000)">
            <g id="Group-3" transform="translate(0.000000, 64.000000)">
                <mask id="mask-3" fill="white">
                    <use xlink:href="#path-2"></use>
                </mask>
                <use id="Mask" fill="url(#linearGradient-1)" xlink:href="#path-2"></use>
                <g mask="url(#mask-3)">
                    <g transform="translate(49.000000, 36.000000)">
                        <g id="Group-15" transform="translate(14.000000, 429.981906)">
                            <path d="M73.4622275,36.4025271 C73.4622275,56.5074525 57.01702,72.8056091 36.7311138,72.8056091 C16.4452075,72.8056091 0,56.5074525 0,36.4025271 C0,16.2977867 16.4452075,0 36.7311138,0 C57.01702,0 73.4622275,16.2977867 73.4622275,36.4025271" id="Fill-37" fill="#4385C4"></path>
                            <path d="M19.7558973,37.4588121 C22.9583458,31.7377465 12.0689012,29.0007644 13.862347,20.5686106 C15.6557928,12.1366418 20.9092266,15.3005028 25.8192744,10.9519972 C30.5445655,6.7656983 27.0117946,1.84105415 26.7411914,1.47964971 C11.3112123,5.79208879 0,19.8461716 0,36.5188646 C0,38.9242201 0.238877277,41.2742738 0.686772171,43.5492352 C10.8801135,46.3272776 16.7382054,42.8475113 19.7558973,37.4588121" id="Fill-38" fill="#14CC76"></path>
                            <path d="M22.4497899,46.8443763 C27.7834716,45.844503 31.3405036,48.1516468 29.9035075,51.4586639 C28.4683776,54.7660509 25.6988941,57.5194941 27.6005812,59.226455 C29.5022683,60.9336009 28.7389807,64.6101605 23.8084044,66.6097221 C18.0846809,68.9299978 23.1496257,61.5866812 19.3705125,60.0576482 C5.13491982,54.2981117 18.1089419,47.6581837 22.4497899,46.8443763" id="Fill-39" fill="#14CC76"></path>
                            <path d="M36.7311138,72.8728836 C16.5011944,72.8728836 0.0933114362,56.6670202 0,36.6401463 C0.0933114362,56.6670202 16.5011944,72.8728836 36.7311138,72.8728836 C36.7479098,72.8728836 36.7665721,72.8726987 36.7852344,72.8728836 C36.7665721,72.8726987 36.7497761,72.8728836 36.7311138,72.8728836 M36.798298,72.8726987 C36.8132278,72.8726987 36.8281577,72.8726987 36.8449537,72.8726987 C36.8281577,72.8726987 36.8132278,72.8726987 36.798298,72.8726987 M36.8524186,72.8726987 C36.8710809,72.8725137 36.8860107,72.8725137 36.904673,72.8723287 C36.8860107,72.8725137 36.8692147,72.8725137 36.8524186,72.8726987 M36.9177366,72.8723287 C36.9326665,72.8723287 36.9457301,72.8721438 36.9606599,72.8721438 C36.9457301,72.8721438 36.9308002,72.8723287 36.9177366,72.8723287 M36.9718573,72.8719588 C36.9886533,72.8719588 37.0073156,72.8717739 37.0241117,72.8715889 C37.0073156,72.8717739 36.9886533,72.8719588 36.9718573,72.8719588 M37.035309,72.8715889 C37.0502389,72.871404 37.0633025,72.871404 37.0782323,72.871219 C37.0651687,72.871404 37.0502389,72.871404 37.035309,72.8715889 M37.0912959,72.8710341 C37.1099582,72.8708491 37.124888,72.8706641 37.1435503,72.8704792 C37.1267543,72.8706641 37.1099582,72.8708491 37.0912959,72.8710341 M37.1566139,72.8704792 C37.1696775,72.8702942 37.1846073,72.8701093 37.1958047,72.8699243 C37.1827411,72.8701093 37.1696775,72.8702942 37.1566139,72.8704792 M37.2126008,72.8697394 C37.2293968,72.8695544 37.2461929,72.8693694 37.262989,72.8689995 C37.2461929,72.8693694 37.2293968,72.8695544 37.2126008,72.8697394 M37.2723201,72.8689995 C37.2872499,72.8686296 37.3003135,72.8684447 37.3152434,72.8682597 C37.3021798,72.8684447 37.2872499,72.8686296 37.2723201,72.8689995 M37.3320394,72.8680748 C37.3488355,72.8677048 37.3656315,72.8675199 37.3824276,72.86715 C37.3656315,72.8675199 37.3488355,72.8677048 37.3320394,72.8680748 M37.38616,72.86715 C37.4029561,72.8667801 37.4178859,72.8665951 37.434682,72.8662252 C37.4178859,72.8665951 37.4029561,72.8667801 37.38616,72.86715 M37.4514781,72.8658553 C37.4664079,72.8656703 37.4794715,72.8654854 37.4925351,72.8651155 C37.4794715,72.8654854 37.4664079,72.8656703 37.4514781,72.8658553 M37.5037325,72.8649305 C37.5205285,72.8645606 37.5373246,72.8641907 37.5541206,72.8638208 C37.5373246,72.8641907 37.5205285,72.8645606 37.5037325,72.8649305 M37.5709167,72.8634508 C37.5839803,72.8632659 37.5970439,72.862896 37.6101075,72.8625261 C37.5970439,72.862896 37.5839803,72.8632659 37.5709167,72.8634508 M37.6250373,72.8623411 C37.6399672,72.8619712 37.6567632,72.8614163 37.671693,72.8610464 C37.6567632,72.8614163 37.6399672,72.8617862 37.6250373,72.8623411 M37.6922216,72.8606765 C37.7034189,72.8603066 37.7146163,72.8599367 37.7258137,72.8597517 C37.7146163,72.8599367 37.7034189,72.8603066 37.6922216,72.8606765 M37.744476,72.8591969 C37.761272,72.8588269 37.7762019,72.8582721 37.7929979,72.8579022 C37.7762019,72.8582721 37.7594058,72.8588269 37.744476,72.8591969 M37.809794,72.8573473 C37.8228576,72.8569774 37.8321887,72.8567924 37.8452523,72.8564225 C37.8321887,72.8567924 37.8228576,72.8569774 37.809794,72.8573473 M37.8639146,72.8558676 C37.8807107,72.8553128 37.8956405,72.8549429 37.9105703,72.854388 C37.8956405,72.8549429 37.8788444,72.8553128 37.8639146,72.8558676 M37.9292326,72.8538331 C37.9385638,72.8534632 37.9516274,72.8530933 37.9628247,72.8527234 C37.9516274,72.8530933 37.94043,72.8534632 37.9292326,72.8538331 M37.9833532,72.8519836 C37.9982831,72.8516137 38.0094804,72.8512437 38.0244103,72.8506889 C38.0113467,72.8510588 37.9982831,72.8516137 37.9833532,72.8519836 M38.0449388,72.849949 C38.0561362,72.8495791 38.0691998,72.8490243 38.0822634,72.8486544 C38.0691998,72.8490243 38.0561362,72.8495791 38.0449388,72.849949 M38.1046581,72.8479145 C38.1139893,72.8475446 38.1233204,72.8471747 38.1326515,72.8468048 C38.1233204,72.8471747 38.1139893,72.8475446 38.1046581,72.8479145 M38.1681099,72.8455101 C38.1793073,72.8451402 38.1886384,72.8445853 38.1998358,72.8442154 C38.1886384,72.8445853 38.177441,72.8451402 38.1681099,72.8455101 M38.2240967,72.8432906 C38.2334279,72.8429207 38.2408928,72.8425508 38.2502239,72.8421809 C38.242759,72.8425508 38.2334279,72.8429207 38.2240967,72.8432906 M38.2800836,72.8410711 C38.2931472,72.8405163 38.3062108,72.8399614 38.3174082,72.8394065 C38.3062108,72.8399614 38.2931472,72.8405163 38.2800836,72.8410711 M38.3435354,72.8382968 C38.3510003,72.8379269 38.3621977,72.837557 38.3696626,72.8371871 C38.3603314,72.837557 38.3528665,72.8379269 38.3435354,72.8382968 M38.3957898,72.8360773 C38.4107196,72.8355225 38.421917,72.8349676 38.4368468,72.8342278 C38.4237832,72.8347826 38.4088534,72.8355225 38.3957898,72.8360773 M38.4648403,72.8329331 C38.4723052,72.8325632 38.4797701,72.8323782 38.487235,72.8320083 C38.4797701,72.8323782 38.4723052,72.8325632 38.4648403,72.8329331 M38.5152284,72.8305286 C38.5226933,72.8303437 38.5301583,72.8299738 38.5376232,72.8296039 C38.5301583,72.8299738 38.5226933,72.8303437 38.5152284,72.8305286 M38.5861451,72.8271994 C38.5917438,72.8268295 38.5973425,72.8266446 38.6048074,72.8262746 C38.5973425,72.8266446 38.5917438,72.8268295 38.5861451,72.8271994 M38.6365333,72.82461 C38.6402658,72.8244251 38.6458644,72.8242401 38.6495969,72.8238702 C38.6458644,72.8242401 38.6402658,72.8244251 38.6365333,72.82461 M38.70745,72.8209109 C38.7130487,72.820726 38.7186474,72.820541 38.7223798,72.8201711 C38.7186474,72.820541 38.7130487,72.820726 38.70745,72.8209109 M38.7559719,72.8185065 C38.7597044,72.8183215 38.7653031,72.8179516 38.7690355,72.8175817 C38.7653031,72.8179516 38.7597044,72.8181366 38.7559719,72.8185065 M38.8306211,72.8142525 C38.8343535,72.8140675 38.838086,72.8138826 38.8418185,72.8136976 C38.838086,72.8138826 38.8343535,72.8140675 38.8306211,72.8142525 M38.8754106,72.8118481 C38.8810093,72.8114782 38.8828755,72.8112932 38.8884742,72.8111082 C38.8828755,72.8112932 38.8810093,72.8114782 38.8754106,72.8118481 M38.9967154,72.8046348 C39.0004479,72.8044498 39.0023141,72.8042649 39.0060466,72.8040799 C39.0023141,72.8042649 38.9985817,72.8044498 38.9967154,72.8046348 M39.1198865,72.7970516 C39.1217528,72.7970516 39.1217528,72.7968666 39.123619,72.7968666 C39.1217528,72.7968666 39.1198865,72.7970516 39.1198865,72.7970516 M39.2411914,72.7890984 C39.2430576,72.7890984 39.2411914,72.7890984 39.2430576,72.7890984 L39.2411914,72.7890984 M0,36.4698016 C0,36.4544503 0,36.438729 0,36.4233776 C0,36.438544 0,36.4546352 0,36.4698016 M0,36.4017377 C0,36.3934147 0,36.3849067 0,36.3767686 C0,36.383797 0,36.3906404 0,36.3976687 C0,36.3989634 0,36.400443 0,36.4017377 M0,36.3469907 C0,36.341442 0,36.3360783 0,36.3305296 C0,36.3345986 0,36.3366332 0,36.3407022 C0,36.3431066 0,36.3445863 0,36.3469907 M0,36.3112941 C0,36.3059304 0,36.2996419 0,36.2942782 C0,36.2979773 0,36.3014915 0,36.3051906 C0,36.3072251 0,36.3092596 0,36.3112941 M0,36.2887295 C0,36.2868799 0,36.2857702 0,36.2839206 L0,36.2852153 C0,36.28651 0,36.2874348 0,36.2887295 M0,36.2646852 C0,36.2565471 0,36.2489639 0,36.2408258 C0,36.2419356 0,36.2452648 0,36.2465595 C0,36.252663 0,36.2585816 0,36.2646852 M0.00186622872,36.2177063 C0.00186622872,36.2086435 0.00186622872,36.1995806 0.00186622872,36.1905177 C0.00186622872,36.1995806 0.00186622872,36.2084585 0.00186622872,36.2177063 M0.00186622872,36.1710973 C0.00186622872,36.1620345 0.00186622872,36.1524168 0.00186622872,36.1433539 C0.00186622872,36.1524168 0.00186622872,36.1620345 0.00186622872,36.1710973 M0.00186622872,36.1244884 C0.00186622872,36.1226388 0.00186622872,36.1206043 0.00186622872,36.1189397 L0.00186622872,36.121714 C0.00186622872,36.1228238 0.00186622872,36.1233786 0.00186622872,36.1244884 M0.00186622872,36.109322 C0.00186622872,36.1002591 0.00186622872,36.0932308 0.00186622872,36.0841679 C0.00186622872,36.0911963 0.00186622872,36.09656 0.00186622872,36.1037733 C0.00186622872,36.1061777 0.00186622872,36.1069175 0.00186622872,36.109322 M0.00186622872,36.0791741 C0.00186622872,36.0747352 0.00186622872,36.0699263 0.00186622872,36.0653024 C0.00186622872,36.0665971 0.00186622872,36.0662272 0.00186622872,36.0675219 C0.00186622872,36.0715909 0.00186622872,36.0751051 0.00186622872,36.0791741 M0.00186622872,36.0495811 C0.00186622872,36.0440324 0.00186622872,36.0381138 0.00186622872,36.0327501 C0.00186622872,36.0368191 0.00186622872,36.0431076 0.00186622872,36.0471767 C0.00186622872,36.0484714 0.00186622872,36.0482864 0.00186622872,36.0495811 M0.00373245745,36.0172138 C0.00373245745,36.0144394 0.00373245745,36.0114801 0.00373245745,36.0087058 L0.00373245745,36.0109253 C0.00373245745,36.0129598 0.00373245745,36.0151793 0.00373245745,36.0172138 M0.00373245745,35.9957588 C0.00373245745,35.9920597 0.00373245745,35.9898402 0.00373245745,35.9863261 C0.00373245745,35.9883606 0.00373245745,35.9902102 0.00373245745,35.9922447 C0.00373245745,35.9933544 0.00373245745,35.9944642 0.00373245745,35.9957588 M0.00373245745,35.9676455 C0.00373245745,35.9595074 0.00373245745,35.9517393 0.00373245745,35.9434162 C0.00373245745,35.9460056 0.00373245745,35.9497048 0.00373245745,35.9521092 C0.00373245745,35.957288 0.00373245745,35.9626517 0.00373245745,35.9676455 M0.00373245745,35.9201118 C0.00373245745,35.9110489 0.00373245745,35.9025409 0.00373245745,35.8934781 C0.00373245745,35.9025409 0.00373245745,35.9108639 0.00373245745,35.9201118 M0.00559868617,35.8729479 C0.00559868617,35.8638851 0.00559868617,35.8564868 0.00559868617,35.8476089 C0.00559868617,35.855562 0.00559868617,35.8638851 0.00559868617,35.8720231 C0.00559868617,35.8731329 0.00559868617,35.8718382 0.00559868617,35.8729479 M0.00559868617,35.8200504 C0.00559868617,35.8137619 0.00559868617,35.8067336 0.00559868617,35.8002601 C0.00559868617,35.8034044 0.00559868617,35.8063637 0.00559868617,35.8095079 C0.00559868617,35.8132071 0.00559868617,35.8163513 0.00559868617,35.8200504 M0.0074649149,35.7802849 C0.0074649149,35.7758459 0.0074649149,35.7734415 0.0074649149,35.7690025 C0.0074649149,35.771407 0.0074649149,35.7721468 0.0074649149,35.7747362 C0.0074649149,35.7767707 0.0074649149,35.7782503 0.0074649149,35.7802849 M0.0074649149,35.7342308 C0.0074649149,35.7277573 0.0074649149,35.7223936 0.0074649149,35.7161051 C0.0074649149,35.7173997 0.0074649149,35.7188794 0.0074649149,35.7199891 C0.0074649149,35.7240582 0.0074649149,35.7301617 0.0074649149,35.7342308 M0.00933114362,35.6885466 C0.00933114362,35.6776342 0.00933114362,35.6676465 0.00933114362,35.6567341 C0.00933114362,35.6580288 0.00933114362,35.6604332 0.00933114362,35.661543 C0.00933114362,35.669681 0.00933114362,35.6804085 0.00933114362,35.6885466 M0.00933114362,35.6450819 C0.00933114362,35.6441571 0.00933114362,35.6430473 0.00933114362,35.6421226 C0.00933114362,35.6432323 0.00933114362,35.6434173 0.00933114362,35.644342 L0.00933114362,35.6450819 M0.00933114362,35.6341695 C0.00933114362,35.6214075 0.00933114362,35.6093853 0.0111973723,35.5968083 C0.00933114362,35.6088304 0.00933114362,35.6219623 0.00933114362,35.6341695 M0.0111973723,35.5762782 C0.0111973723,35.5681401 0.0111973723,35.5590772 0.0111973723,35.5509392 C0.0111973723,35.5590772 0.0111973723,35.5681401 0.0111973723,35.5762782 M0.0130636011,35.522086 C0.0130636011,35.5165373 0.0130636011,35.5102488 0.0130636011,35.5047001 C0.0130636011,35.5087691 0.0130636011,35.5128382 0.0130636011,35.5169072 C0.0130636011,35.5193116 0.0130636011,35.5196816 0.0130636011,35.522086 M0.0130636011,35.4682637 C0.0130636011,35.4647496 0.0130636011,35.4629 0.0149298298,35.4592009 L0.0130636011,35.4606805 C0.0130636011,35.463085 0.0130636011,35.4658593 0.0130636011,35.4682637 M0.0149298298,35.4351566 C0.0149298298,35.4307176 0.0149298298,35.4251689 0.0149298298,35.42073 C0.0149298298,35.4231344 0.0149298298,35.424799 0.0149298298,35.4272034 C0.0149298298,35.4301627 0.0149298298,35.4321973 0.0149298298,35.4351566 M0.0167960585,35.3896573 C0.0167960585,35.382444 0.0167960585,35.3752308 0.0167960585,35.3680175 L0.0167960585,35.3682024 C0.0167960585,35.3752308 0.0167960585,35.382629 0.0167960585,35.3896573 M0.0167960585,35.3434183 C0.0167960585,35.336205 0.0186622872,35.3289917 0.0186622872,35.3217784 C0.0186622872,35.3288067 0.0167960585,35.3363899 0.0167960585,35.3434183 M0.0186622872,35.2838624 C0.0186622872,35.2820128 0.0186622872,35.2805332 0.0186622872,35.2786836 C0.0186622872,35.2797933 0.0186622872,35.2807181 0.0186622872,35.2818279 C0.0186622872,35.2829376 0.0186622872,35.2825677 0.0186622872,35.2838624 M0.020528516,35.2176481 C0.0223947447,35.2150587 0.0223947447,35.2117295 0.0223947447,35.2089551 C0.0223947447,35.2119144 0.0223947447,35.2146888 0.020528516,35.2176481 M0.0223947447,35.1704842 C0.0223947447,35.1677099 0.0223947447,35.1666001 0.0242609734,35.1638258 C0.0223947447,35.1658603 0.0223947447,35.1666001 0.0223947447,35.1686347 C0.0223947447,35.1699294 0.0223947447,35.1691895 0.0223947447,35.1704842 M0.0261272021,35.0894734 C0.0261272021,35.0841097 0.0261272021,35.0793008 0.0261272021,35.0739371 C0.0261272021,35.0752318 0.0261272021,35.0750468 0.0261272021,35.0763415 C0.0261272021,35.0813353 0.0261272021,35.0844796 0.0261272021,35.0894734 M0.0279934309,35.044529 C0.0279934309,35.0391653 0.0279934309,35.0326918 0.0279934309,35.0273281 C0.0279934309,35.0334317 0.0279934309,35.0386104 0.0279934309,35.044529 M0.0298596596,34.9951457 C0.0298596596,34.9907068 0.0298596596,34.9870077 0.0298596596,34.9825687 C0.0298596596,34.9846032 0.0298596596,34.9842333 0.0298596596,34.9862678 C0.0298596596,34.9886723 0.0298596596,34.9927413 0.0298596596,34.9951457 M0.033592117,34.9082163 C0.033592117,34.905442 0.033592117,34.9039623 0.033592117,34.901188 L0.033592117,34.9021128 C0.033592117,34.9041473 0.033592117,34.9061818 0.033592117,34.9082163 M0.0410570319,34.740646 C0.0410570319,34.7378716 0.0410570319,34.7347274 0.0410570319,34.731953 C0.0410570319,34.7339876 0.0410570319,34.7386115 0.0410570319,34.740646 M0.0429232607,34.6968114 C0.0429232607,34.6931122 0.0429232607,34.6903379 0.0429232607,34.6866388 C0.0429232607,34.689783 0.0429232607,34.6916326 0.0429232607,34.6947768 C0.0429232607,34.6958866 0.0429232607,34.6955167 0.0429232607,34.6968114 M0.0503881756,34.5636429 C0.0503881756,34.5608685 0.0503881756,34.5597588 0.0503881756,34.5569845 L0.0503881756,34.5577243 C0.0503881756,34.5595738 0.0503881756,34.5616084 0.0503881756,34.5636429 M0.0522544043,34.5186985 C0.0522544043,34.5179587 0.0522544043,34.5179587 0.0522544043,34.5170339 C0.0522544043,34.5179587 0.0522544043,34.5177737 0.0522544043,34.5186985 M0.0690504628,34.2172199 C0.0690504628,34.2183296 0.0690504628,34.2161102 0.0690504628,34.2172199" id="Fill-40" fill="#A4BAA0"></path>
                            <path d="M36.7311138,72.873488 C16.5011944,72.873488 0.0933114362,56.6676246 0,36.6407507 C0.0111973723,38.9865504 0.24820842,41.2794526 0.686772171,43.5007767 C2.49514781,43.993685 4.16728874,44.2896149 5.7106599,44.4127958 C8.18527919,52.8823107 13.6794566,60.0806216 20.9633473,64.7872024 C20.9110929,66.0236347 21.0025381,66.9992787 22.1409376,66.9992787 C22.568304,66.9992787 23.1431024,66.8620412 23.9138549,66.5498351 C23.9287847,66.5433616 23.9455808,66.5367032 23.9605106,66.5302297 C29.0534488,69.1769532 34.8499552,70.6745436 40.9973126,70.6745436 C46.2526127,70.6745436 51.2466408,69.5786781 55.7666468,67.6088944 C50.8883249,70.5450743 45.2635115,72.3866833 39.2430576,72.7897029 C39.2411914,72.7897029 39.2430576,72.7897029 39.2411914,72.7897029 C39.2020006,72.7922923 39.1628098,72.7948817 39.123619,72.797471 C39.1217528,72.797471 39.1217528,72.797656 39.1198865,72.797656 C39.082562,72.8000604 39.0452374,72.8024649 39.0060466,72.8046843 C39.0023141,72.8048693 39.0004479,72.8050542 38.9967154,72.8052392 C38.9593909,72.8074587 38.9239325,72.8096781 38.8884742,72.8117127 C38.8828755,72.8118976 38.8810093,72.8120826 38.8754106,72.8124525 C38.8642132,72.8130074 38.8530158,72.8137472 38.8418185,72.8143021 C38.838086,72.814487 38.8343535,72.814672 38.8306211,72.8148569 C38.8100926,72.8159667 38.789564,72.8170764 38.7690355,72.8181861 C38.7653031,72.818556 38.7597044,72.818926 38.7559719,72.8191109 C38.7447746,72.8196658 38.7335772,72.8202207 38.7223798,72.8207755 C38.7186474,72.8211454 38.7130487,72.8213304 38.70745,72.8215153 C38.6887877,72.8226251 38.6701254,72.8235499 38.6495969,72.8244746 C38.6458644,72.8248446 38.6402658,72.8250295 38.6365333,72.8252145 C38.6253359,72.8257693 38.6141385,72.8263242 38.6048074,72.8268791 C38.5973425,72.827249 38.5917438,72.8274339 38.5861451,72.8278039 C38.5693491,72.8285437 38.552553,72.8294685 38.5376232,72.8302083 C38.5301583,72.8305782 38.5226933,72.8309481 38.5152284,72.8311331 C38.5058973,72.8316879 38.4965661,72.8320579 38.487235,72.8326127 C38.4797701,72.8329826 38.4723052,72.8331676 38.4648403,72.8335375 C38.4555091,72.8340924 38.446178,72.8344623 38.4368468,72.8348322 C38.421917,72.835572 38.4107196,72.8361269 38.3957898,72.8366818 C38.3864586,72.8370517 38.3771275,72.8374216 38.3696626,72.8377915 C38.3621977,72.8381614 38.3510003,72.8385313 38.3435354,72.8389012 C38.3360705,72.8392711 38.3267393,72.8396411 38.3174082,72.840011 C38.3062108,72.8405658 38.2931472,72.8411207 38.2800836,72.8416756 C38.2707525,72.8420455 38.2614213,72.8424154 38.2502239,72.8427853 C38.2408928,72.8431552 38.2334279,72.8435251 38.2240967,72.843895 C38.2166318,72.844265 38.2073007,72.8444499 38.1998358,72.8448198 C38.1886384,72.8451897 38.1793073,72.8457446 38.1681099,72.8461145 C38.1569125,72.8464844 38.1457151,72.8468543 38.1326515,72.8474092 C38.1233204,72.8477791 38.1139893,72.848149 38.1046581,72.848519 C38.0971932,72.8487039 38.0897283,72.8490738 38.0822634,72.8492588 C38.0691998,72.8496287 38.0561362,72.8501836 38.0449388,72.8505535 C38.0374739,72.8507384 38.0318752,72.8511083 38.0244103,72.8512933 C38.0094804,72.8518482 37.9982831,72.8522181 37.9833532,72.852588 C37.9758883,72.8527729 37.9702896,72.8531429 37.9628247,72.8533278 C37.9516274,72.8536977 37.9385638,72.8540676 37.9292326,72.8544376 C37.9217677,72.8546225 37.9180352,72.8548075 37.9105703,72.8549924 C37.8956405,72.8555473 37.8807107,72.8559172 37.8639146,72.8564721 C37.8583159,72.856657 37.850851,72.856842 37.8452523,72.8570269 C37.8321887,72.8573969 37.8228576,72.8575818 37.809794,72.8579517 C37.8041953,72.8581367 37.7985966,72.8583216 37.7929979,72.8585066 C37.7762019,72.8588765 37.761272,72.8594314 37.744476,72.8598013 C37.7388773,72.8599862 37.7332786,72.8601712 37.7258137,72.8603562 C37.7146163,72.8605411 37.7034189,72.860911 37.6922216,72.8612809 C37.6847566,72.8612809 37.679158,72.8614659 37.671693,72.8616508 C37.6567632,72.8620208 37.6399672,72.8625756 37.6250373,72.8629455 C37.6194386,72.8629455 37.61384,72.8631305 37.6101075,72.8631305 C37.5970439,72.8635004 37.5839803,72.8638703 37.5709167,72.8640553 C37.565318,72.8642402 37.5597193,72.8642402 37.5541206,72.8644252 C37.5373246,72.8647951 37.5205285,72.865165 37.5037325,72.8655349 C37.5018662,72.8655349 37.4962675,72.8657199 37.4925351,72.8657199 C37.4794715,72.8660898 37.4664079,72.8662747 37.4514781,72.8664597 C37.4458794,72.8666447 37.4402807,72.8668296 37.434682,72.8668296 C37.4178859,72.8671995 37.4029561,72.8673845 37.38616,72.8677544 C37.3842938,72.8677544 37.3842938,72.8677544 37.3824276,72.8677544 C37.3656315,72.8681243 37.3488355,72.8683093 37.3320394,72.8686792 C37.3264407,72.8686792 37.320842,72.8688641 37.3152434,72.8688641 C37.3003135,72.8690491 37.2872499,72.869234 37.2723201,72.869604 C37.2704539,72.869604 37.2667214,72.869604 37.262989,72.869604 C37.2461929,72.8699739 37.2293968,72.8701588 37.2126008,72.8703438 C37.2070021,72.8703438 37.2014034,72.8705287 37.1958047,72.8705287 C37.1846073,72.8707137 37.1696775,72.8708987 37.1566139,72.8710836 C37.1510152,72.8710836 37.1472828,72.8710836 37.1435503,72.8710836 C37.124888,72.8712686 37.1099582,72.8714535 37.0912959,72.8716385 C37.0875635,72.8716385 37.083831,72.8718234 37.0782323,72.8718234 C37.0633025,72.8720084 37.0502389,72.8720084 37.035309,72.8721933 C37.0315766,72.8721933 37.0278441,72.8721933 37.0241117,72.8721933 C37.0073156,72.8723783 36.9886533,72.8725633 36.9718573,72.8725633 C36.9681248,72.8727482 36.9643924,72.8727482 36.9606599,72.8727482 C36.9457301,72.8727482 36.9326665,72.8729332 36.9177366,72.8729332 C36.912138,72.8729332 36.9084055,72.8729332 36.904673,72.8729332 C36.8860107,72.8731181 36.8710809,72.8731181 36.8524186,72.8733031 C36.8486862,72.8733031 36.8468199,72.8733031 36.8449537,72.8733031 C36.8281577,72.8733031 36.8132278,72.8733031 36.798298,72.8733031 C36.7926993,72.8733031 36.7889669,72.8733031 36.7852344,72.8733031 C36.7665721,72.8733031 36.7479098,72.873488 36.7311138,72.873488 M0,36.6272489 C0,36.6124524 0,36.5993205 0,36.584524 C0,36.5987657 0,36.6130073 0,36.6272489 M0,36.559185 C0,36.5493824 0,36.5375452 0,36.5277425 C0,36.538285 0,36.5486425 0,36.559185 M0,36.4099254 C0,36.407151 0,36.4049316 0,36.4023422 C0,36.4010475 0,36.3995678 0,36.3982731 C0,36.4023422 0,36.4058563 0,36.4099254 M0,36.3599872 C0,36.3562881 0,36.3512943 0,36.3475951 C0,36.3451907 0,36.343711 0,36.3413066 C0,36.3474102 0,36.3538836 0,36.3599872 M0,36.305795 C0,36.3020959 0,36.2985817 0,36.2948826 C0,36.293033 0,36.2909985 0,36.2893339 C0,36.2880392 0,36.2871144 0,36.2858198 C0,36.293033 0,36.2985817 0,36.305795 M0,36.2471639 C0,36.2458692 0,36.24254 0,36.2414303 C0,36.2405055 0,36.2386559 0,36.2377311 C0,36.2406904 0,36.2440196 0,36.2471639 M0.00186622872,36.1223185 L0.00186622872,36.1195441 C0.00186622872,36.1167698 0.00186622872,36.1127007 0.00186622872,36.1099264 C0.00186622872,36.107522 0.00186622872,36.1067821 0.00186622872,36.1043777 C0.00186622872,36.1104813 0.00186622872,36.1162149 0.00186622872,36.1223185 M0.00186622872,36.0681263 C0.00186622872,36.0668316 0.00186622872,36.0672015 0.00186622872,36.0659068 C0.00186622872,36.0605431 0.00186622872,36.0555493 0.00186622872,36.0501855 C0.00186622872,36.0488908 0.00186622872,36.0490758 0.00186622872,36.0477811 C0.00186622872,36.0549944 0.00186622872,36.061098 0.00186622872,36.0681263 M0.00373245745,36.0115297 L0.00373245745,36.0093102 C0.00373245745,36.0048713 0.00373245745,36.0008022 0.00373245745,35.9963633 C0.00373245745,35.9950686 0.00373245745,35.9939588 0.00373245745,35.9928491 C0.00373245745,35.9987677 0.00373245745,36.0054261 0.00373245745,36.0115297 M0.00373245745,35.9527136 C0.00373245745,35.9503092 0.00373245745,35.9466101 0.00373245745,35.9440207 C0.00373245745,35.9432808 0.00373245745,35.9418012 0.00373245745,35.9408764 C0.00373245745,35.9449454 0.00373245745,35.9486446 0.00373245745,35.9527136 M0.00559868617,35.8741072 L0.00559868617,35.8735524 C0.00559868617,35.8724426 0.00559868617,35.8737373 0.00559868617,35.8726276 L0.00559868617,35.8741072 M0.00559868617,35.8274983 C0.00559868617,35.8247239 0.00559868617,35.8232443 0.00559868617,35.8206549 C0.00559868617,35.8169557 0.00559868617,35.8138115 0.00559868617,35.8101124 C0.00559868617,35.8162159 0.00559868617,35.8213947 0.00559868617,35.8274983 M0.0074649149,35.7753406 C0.0074649149,35.7727512 0.0074649149,35.7720114 0.0074649149,35.769607 C0.0074649149,35.7649831 0.0074649149,35.7592494 0.0074649149,35.7546255 C0.0074649149,35.7616538 0.0074649149,35.7681273 0.0074649149,35.7753406 M0.0074649149,35.7205936 C0.0074649149,35.7194838 0.0074649149,35.7180042 0.0074649149,35.7167095 C0.0074649149,35.7122705 0.0074649149,35.7076466 0.0074649149,35.7032077 C0.0074649149,35.7091263 0.0074649149,35.71449 0.0074649149,35.7205936 M0.00933114362,35.6621474 C0.00933114362,35.6610377 0.00933114362,35.6586332 0.00933114362,35.6573385 C0.00933114362,35.6538244 0.00933114362,35.6492005 0.00933114362,35.6456863 L0.00933114362,35.6449465 C0.00933114362,35.65105 0.00933114362,35.6560438 0.00933114362,35.6621474 M0.0111973723,35.5770675 C0.0111973723,35.5761428 0.0111973723,35.5778074 0.0111973723,35.5768826 C0.0111973723,35.5778074 0.0111973723,35.5759578 0.0111973723,35.5770675 M0.0130636011,35.5293488 C0.0130636011,35.5267594 0.0130636011,35.5252798 0.0130636011,35.5226904 C0.0130636011,35.520286 0.0130636011,35.5199161 0.0130636011,35.5175116 C0.0130636011,35.5213957 0.0130636011,35.5254648 0.0130636011,35.5293488 M0.0130636011,35.4831098 C0.0130636011,35.4786708 0.0130636011,35.4734921 0.0130636011,35.4688682 C0.0130636011,35.4664637 0.0130636011,35.4636894 0.0130636011,35.4612849 C0.0130636011,35.469423 0.0130636011,35.4749717 0.0130636011,35.4831098 M0.0149298298,35.4278079 C0.0149298298,35.4254034 0.0149298298,35.4237388 0.0149298298,35.4213344 C0.0149298298,35.4194848 0.0149298298,35.4163406 0.0149298298,35.414491 C0.0149298298,35.4185601 0.0149298298,35.4237388 0.0149298298,35.4278079 M0.0167960585,35.3688068 L0.0167960585,35.3684369 L0.0167960585,35.3688068 M0.0186622872,35.2983385 C0.0186622872,35.2938996 0.0186622872,35.2889058 0.0186622872,35.2844668 C0.0186622872,35.2831721 0.0186622872,35.283542 0.0186622872,35.2824323 C0.0186622872,35.2885358 0.0186622872,35.2924199 0.0186622872,35.2983385 M0.0223947447,35.1795966 C0.0223947447,35.1770072 0.0223947447,35.173678 0.0223947447,35.1710887 C0.0223947447,35.169794 0.0223947447,35.1705338 0.0223947447,35.1692391 C0.0223947447,35.1721984 0.0223947447,35.1766373 0.0223947447,35.1795966 M0.0242609734,35.1363169 C0.0242609734,35.1300284 0.0242609734,35.1246646 0.0242609734,35.1183761 C0.0242609734,35.1244797 0.0242609734,35.1302133 0.0242609734,35.1363169 M0.0261272021,35.0769459 C0.0261272021,35.0756512 0.0261272021,35.0758362 0.0261272021,35.0745415 L0.0261272021,35.0738017 C0.0261272021,35.0749114 0.0261272021,35.0758362 0.0261272021,35.0769459 M0.0298596596,34.9996342 C0.0298596596,34.9987095 0.0298596596,34.9966749 0.0298596596,34.9957502 C0.0298596596,34.9933457 0.0298596596,34.9892767 0.0298596596,34.9868723 C0.0298596596,34.9909413 0.0298596596,34.9955652 0.0298596596,34.9996342 M0.0317258883,34.9546899 C0.0317258883,34.9484014 0.0317258883,34.9435925 0.0317258883,34.937304 C0.0317258883,34.9434076 0.0317258883,34.9487713 0.0317258883,34.9546899 M0.033592117,34.9027172 L0.033592117,34.9017924 C0.033592117,34.9001278 0.033592117,34.899203 0.033592117,34.8973535 C0.033592117,34.899388 0.033592117,34.9008676 0.033592117,34.9027172 M0.0391908032,34.7793514 C0.0391908032,34.7784266 0.0391908032,34.7784266 0.0391908032,34.7775018 C0.0391908032,34.7786116 0.0391908032,34.7782417 0.0391908032,34.7793514 M0.0429232607,34.6992653 C0.0429232607,34.6983406 0.0429232607,34.6983406 0.0429232607,34.6974158 C0.0429232607,34.6961211 0.0429232607,34.696491 0.0429232607,34.6953813 C0.0429232607,34.696306 0.0429232607,34.6981556 0.0429232607,34.6992653 M0.0447894894,34.6546909 C0.0447894894,34.6511767 0.0447894894,34.6463679 0.0447894894,34.6426687 C0.0447894894,34.6467378 0.0447894894,34.6508068 0.0447894894,34.6546909 M0.0466557181,34.6099315 C0.0466557181,34.6062324 0.0485219468,34.6023483 0.0485219468,34.5988341 C0.0485219468,34.6029032 0.0466557181,34.6058625 0.0466557181,34.6099315 M0.0503881756,34.5583287 L0.0503881756,34.5568491 C0.0503881756,34.5579588 0.0503881756,34.557219 0.0503881756,34.5583287 M0.0671842341,34.2629536 C0.0671842341,34.261289 0.0671842341,34.2609191 0.0671842341,34.2592545 C0.0671842341,34.261289 0.0671842341,34.2609191 0.0671842341,34.2629536 M0.0690504628,34.2185641 L0.0690504628,34.2178243 C0.0690504628,34.2167146 0.0690504628,34.2189341 0.0690504628,34.2178243 L0.0690504628,34.2168995 C0.0690504628,34.2180093 0.0690504628,34.2176394 0.0690504628,34.2185641" id="Fill-41" fill="#3070AE"></path>
                            <path d="M5.7106599,44.4237082 C4.16728874,44.3005274 2.49514781,44.0045974 0.686772171,43.5116891 C0.24820842,41.290365 0.0111973723,38.9974628 0,36.6516631 C0,36.647964 0,36.6418605 0,36.6381613 C0,36.6239197 0,36.6096781 0,36.5954365 C0,36.5869285 0,36.5787904 0,36.5700975 C0,36.5595549 0,36.5491974 0,36.5386549 C0,36.5190495 0,36.5011088 0,36.4813185 C0,36.4661521 0,36.4500609 0,36.4348945 C0,36.4302706 0,36.4252767 0,36.4208378 C0,36.4167687 0,36.4132546 0,36.4091855 C0,36.4021572 0,36.3953138 0,36.3882855 C0,36.381997 0,36.3773731 0,36.3708996 C0,36.3647961 0,36.3583226 0,36.352219 C0,36.34815 0,36.3461155 0,36.3420464 C0,36.3357579 0,36.3290995 0,36.322811 C0,36.3207765 0,36.318742 0,36.3167074 C0,36.3094941 0,36.3039455 0,36.2967322 L0,36.2954375 C0,36.288964 0,36.2824905 0,36.276202 C0,36.2700985 0,36.2641799 0,36.2580763 C0,36.2549321 0,36.2516029 0,36.2486436 C0,36.2414303 0.00186622872,36.2364364 0.00186622872,36.2292231 C0.00186622872,36.2199753 0.00186622872,36.2110974 0.00186622872,36.2020346 C0.00186622872,36.1955611 0.00186622872,36.1889027 0.00186622872,36.1826142 C0.00186622872,36.1735513 0.00186622872,36.1639336 0.00186622872,36.1548708 C0.00186622872,36.1485822 0.00186622872,36.1422937 0.00186622872,36.1360052 C0.00186622872,36.1348955 0.00186622872,36.1343406 0.00186622872,36.1332309 C0.00186622872,36.1271273 0.00186622872,36.1213937 0.00186622872,36.1152901 C0.00186622872,36.1080768 0.00186622872,36.1027131 0.00186622872,36.0956848 C0.00186622872,36.09476 0.00186622872,36.0916157 0.00186622872,36.0906909 C0.00186622872,36.0866219 0.00186622872,36.0831077 0.00186622872,36.0790387 C0.00186622872,36.0720104 0.00186622872,36.0659068 0.00186622872,36.0586935 C0.00186622872,36.0546245 0.00186622872,36.048336 0.00186622872,36.0442669 C0.00373245745,36.0389032 0.00373245745,36.0340943 0.00373245745,36.0287306 C0.00373245745,36.0266961 0.00373245745,36.0244766 0.00373245745,36.0224421 C0.00373245745,36.0163385 0.00373245745,36.0096801 0.00373245745,36.0037615 C0.00373245745,36.001727 0.00373245745,35.9998774 0.00373245745,35.9978429 C0.00373245745,35.9922942 0.00373245745,35.984711 0.00373245745,35.9791623 C0.00373245745,35.9741685 0.00373245745,35.9688048 0.00373245745,35.963626 C0.00373245745,35.959557 0.00373245745,35.9558579 0.00373245745,35.9517888 C0.00373245745,35.9445755 0.00373245745,35.9388419 0.00373245745,35.9316286 C0.00373245745,35.9223808 0.00373245745,35.9140578 0.00373245745,35.9049949 C0.00559868617,35.8987064 0.00559868617,35.8913081 0.00559868617,35.8850196 L0.00559868617,35.88354 C0.00559868617,35.8754019 0.00559868617,35.8670789 0.00559868617,35.8591258 C0.00559868617,35.8526523 0.00559868617,35.8446992 0.00559868617,35.8384107 C0.00559868617,35.8323071 0.00559868617,35.8271283 0.00559868617,35.8210248 C0.00559868617,35.8178805 0.00559868617,35.8149212 0.00559868617,35.811777 C0.00559868617,35.8054885 0.00559868617,35.7982752 0.0074649149,35.7918017 C0.0074649149,35.7897672 0.0074649149,35.7882875 0.0074649149,35.786253 C0.0074649149,35.7790397 0.0074649149,35.7725663 0.0074649149,35.7655379 C0.0074649149,35.7592494 0.0074649149,35.7520361 0.0074649149,35.7457476 C0.0074649149,35.7416786 0.0074649149,35.735575 0.0074649149,35.731506 C0.0074649149,35.7254024 0.0074649149,35.7200387 0.0074649149,35.7141201 C0.0074649149,35.7094962 0.0074649149,35.7045024 0.00933114362,35.7000634 C0.00933114362,35.6919253 0.00933114362,35.6811979 0.00933114362,35.6730598 C0.00933114362,35.6669563 0.00933114362,35.6619624 0.00933114362,35.6558589 C0.00933114362,35.6549341 0.00933114362,35.6547491 0.00933114362,35.6536394 C0.00933114362,35.65105 0.00933114362,35.6482757 0.00933114362,35.6456863 C0.00933114362,35.6334792 0.00933114362,35.6203473 0.0111973723,35.6083251 C0.0111973723,35.6018517 0.0111973723,35.5942685 0.0111973723,35.58798 C0.0111973723,35.5868702 0.0111973723,35.5887198 0.0111973723,35.587795 C0.0111973723,35.5796569 0.0111973723,35.5705941 0.0111973723,35.562456 C0.0111973723,35.5552427 0.0111973723,35.5474745 0.0130636011,35.5402613 C0.0130636011,35.5363772 0.0130636011,35.5323081 0.0130636011,35.5284241 C0.0130636011,35.524355 0.0130636011,35.520286 0.0130636011,35.5162169 C0.0130636011,35.5090037 0.0130636011,35.5012355 0.0130636011,35.4940222 C0.0130636011,35.4858841 0.0130636011,35.4803354 0.0130636011,35.4721974 L0.0149298298,35.4707177 C0.0149298298,35.4625796 0.0149298298,35.4548115 0.0149298298,35.4466734 C0.0149298298,35.4437141 0.0149298298,35.4416796 0.0149298298,35.4387203 C0.0149298298,35.4346513 0.0149298298,35.4294725 0.0149298298,35.4254034 C0.0149298298,35.4172654 0.0149298298,35.4093123 0.0167960585,35.4011742 C0.0167960585,35.3941458 0.0167960585,35.3867476 0.0167960585,35.3797193 L0.0167960585,35.3793493 C0.0167960585,35.3712113 0.0167960585,35.3630732 0.0167960585,35.3549351 C0.0167960585,35.3479068 0.0186622872,35.3403236 0.0186622872,35.3332952 C0.0186622872,35.3251572 0.0186622872,35.317389 0.0186622872,35.3092509 C0.0186622872,35.3033323 0.0186622872,35.2994483 0.0186622872,35.2933447 C0.0186622872,35.292235 0.0186622872,35.2913102 0.0186622872,35.2902005 C0.020528516,35.2694854 0.020528516,35.24988 0.020528516,35.2291649 C0.0223947447,35.2262056 0.0223947447,35.2234313 0.0223947447,35.220472 C0.0223947447,35.2104843 0.0223947447,35.2004967 0.0223947447,35.1905091 C0.0223947447,35.1875498 0.0223947447,35.1831108 0.0223947447,35.1801515 C0.0223947447,35.178117 0.0223947447,35.1773772 0.0242609734,35.1753426 C0.0242609734,35.1662798 0.0242609734,35.1561072 0.0242609734,35.1472293 C0.0242609734,35.1411257 0.0242609734,35.1353921 0.0242609734,35.1292885 C0.0261272021,35.1202257 0.0261272021,35.1100531 0.0261272021,35.1009902 C0.0261272021,35.0959964 0.0261272021,35.0928522 0.0261272021,35.0878584 C0.0261272021,35.0867486 0.0261272021,35.0858238 0.0261272021,35.0847141 C0.0261272021,35.0749114 0.0279934309,35.0660335 0.0279934309,35.0560459 C0.0279934309,35.0501273 0.0279934309,35.0449485 0.0279934309,35.038845 C0.0279934309,35.0290423 0.0298596596,35.0203493 0.0298596596,35.0105467 C0.0298596596,35.0064776 0.0298596596,35.0018537 0.0298596596,34.9977847 C0.0298596596,34.9957502 0.0298596596,34.9961201 0.0298596596,34.9940856 C0.0298596596,34.9850227 0.0317258883,34.9746652 0.0317258883,34.9656023 C0.0317258883,34.9596837 0.0317258883,34.95432 0.0317258883,34.9482164 C0.0317258883,34.9391536 0.033592117,34.9286111 0.033592117,34.9197332 C0.033592117,34.9176986 0.033592117,34.9156641 0.033592117,34.9136296 C0.033592117,34.91178 0.033592117,34.9103004 0.033592117,34.9082659 C0.0354583458,34.86961 0.0373245745,34.8289197 0.0391908032,34.7902638 C0.0391908032,34.7891541 0.0391908032,34.789524 0.0391908032,34.7884142 C0.0391908032,34.7758372 0.0410570319,34.7647398 0.0410570319,34.7521628 C0.0410570319,34.7501283 0.0410570319,34.7455044 0.0410570319,34.7434699 C0.0410570319,34.7327424 0.0429232607,34.7209052 0.0429232607,34.7101778 C0.0429232607,34.709068 0.0429232607,34.7072185 0.0429232607,34.7062937 C0.0429232607,34.7031494 0.0429232607,34.7012999 0.0429232607,34.6981556 C0.0447894894,34.6874282 0.0447894894,34.6765157 0.0447894894,34.6656033 C0.0447894894,34.6617192 0.0447894894,34.6576502 0.0447894894,34.6535812 C0.0466557181,34.6428537 0.0466557181,34.6315714 0.0466557181,34.6208439 C0.0466557181,34.6167749 0.0485219468,34.6138156 0.0485219468,34.6097465 C0.0485219468,34.5980943 0.0485219468,34.586812 0.0503881756,34.5751597 C0.0503881756,34.5731252 0.0503881756,34.5710907 0.0503881756,34.5692411 C0.0503881756,34.5681314 0.0503881756,34.5688712 0.0503881756,34.5677615 C0.0503881756,34.5551845 0.0522544043,34.5427924 0.0522544043,34.5302154 C0.0522544043,34.5292906 0.0522544043,34.5294755 0.0522544043,34.5285508 C0.0559868617,34.4442107 0.0615855479,34.3582061 0.0671842341,34.2738661 C0.0671842341,34.2718315 0.0671842341,34.2722015 0.0671842341,34.2701669 C0.0671842341,34.2566651 0.0690504628,34.2429784 0.0690504628,34.2294766 C0.0690504628,34.2285518 0.0690504628,34.2289217 0.0690504628,34.227812 C0.927515676,20.3011639 9.68759331,8.49337429 21.9617796,3.14425563 C11.3541356,9.52746448 4.26619887,21.0846385 4.26619887,34.282559 C4.26619887,37.8019058 4.77008062,41.2047303 5.7106599,44.4237082" id="Fill-42" fill="#0B9756"></path>
                            <path d="M22.0904616,66.9467511 C20.9520621,66.9467511 20.8606169,65.9711071 20.9128713,64.7346748 C21.881444,65.3609366 22.8817426,65.9426238 23.9100346,66.4777022 C23.8951048,66.4841756 23.8783088,66.4908341 23.8633789,66.4973075 C23.0926265,66.8095136 22.517828,66.9467511 22.0904616,66.9467511" id="Fill-43" fill="#64935C"></path>
                            <path d="M53.0450706,20.351657 C56.8297824,25.7636608 67.6389792,24.4948611 66.7730491,28.9114306 C65.9071189,33.3281849 60.4465337,37.4029553 61.0922488,42.15633 C61.689442,46.5562533 67.0529834,49.42178 70.7238553,50.2389165 C72.4725116,45.9932466 73.4410843,41.3480713 73.4410843,36.4781742 C73.4410843,23.5467756 66.6368144,12.1913888 56.3837538,5.73364263 C53.7393076,7.85231605 48.2208693,13.4503858 53.0450706,20.351657" id="Fill-44" fill="#14CC76"></path>
                            <path d="M62.08184,54.1194828 C60.2529358,57.4216911 62.604384,60.7229745 63.2556979,61.5351173 C66.0513085,58.6399977 68.3691646,55.2872964 70.086095,51.6027836 C67.850353,52.2414374 63.8846169,50.8609243 62.08184,54.1194828" id="Fill-45" fill="#14CC76"></path>
                        </g>
                        <g id="Group" transform="translate(26.000000, 418.000000)">
                            <circle id="Oval" fill="#EEEEEE" cx="186.5" cy="186.5" r="186.5"></circle>
                            <ellipse id="Oval-6" fill="#C7C7C9" cx="100.5" cy="94" rx="25.5" ry="13"></ellipse>
                            <ellipse id="Oval-6" fill="#DADADA" cx="104.5" cy="97" rx="18.5" ry="9"></ellipse>
                            <ellipse id="Oval-6-Copy" fill="#C7C7C9" cx="173.5" cy="42.5" rx="19.5" ry="18.5"></ellipse>
                            <ellipse id="Oval-6-Copy-4" fill="#DADADA" cx="176" cy="45" rx="16" ry="15"></ellipse>
                            <ellipse id="Oval-6-Copy-2" fill="#C7C7C9" cx="215" cy="84" rx="15" ry="12"></ellipse>
                            <ellipse id="Oval-6-Copy-2" fill="#DADADA" cx="217" cy="86" rx="12" ry="9"></ellipse>
                            <ellipse id="Oval-6-Copy-3" fill="#C7C7C9" cx="307" cy="122" rx="31" ry="28"></ellipse>
                            <ellipse id="Oval-6-Copy-3" fill="#DADADA" cx="310.5" cy="121" rx="23.5" ry="21"></ellipse>
                        </g>
                        <g id="Group-4" transform="translate(270.892018, 417.590636) rotate(15.000000) translate(-270.892018, -417.590636) translate(255.392018, 391.090636)">
                            <path d="M15.0873231,52.9644414 C23.3973947,52.9644414 30.1748479,51.4488205 30.1748479,49.590432 C30.1748479,47.7318272 23.3973947,46.2162063 15.0873231,46.2162063 C6.77725151,46.2162063 0,47.7318272 0,49.590432 C0,51.4488205 6.77725151,52.9644414 15.0873231,52.9644414" id="Fill-23" fill="#C7C7C9"></path>
                            <path d="M7.46074643,50.0565439 C8.45895564,50.0565439 9.2729763,49.8745569 9.2729763,49.6512386 C9.2729763,49.427704 8.45895564,49.245717 7.46074643,49.245717 C6.46253721,49.245717 5.64871829,49.427704 5.64871829,49.6512386 C5.64871829,49.8745569 6.46253721,50.0565439 7.46074643,50.0565439" id="Fill-24" fill="#80817E"></path>
                            <path d="M5.47239759,51.6202042 C7.81964178,51.6202042 9.7341538,50.6494624 9.7341538,49.4590811 C9.7341538,48.2689162 7.81964178,47.2981744 5.47239759,47.2981744 C3.1251534,47.2981744 1.21043963,48.2689162 1.21043963,49.4590811 C1.21043963,50.6494624 3.1251534,51.6202042 5.47239759,51.6202042" id="Fill-25" fill="#363131"></path>
                            <polyline id="Fill-26" fill="#98766B" points="4.43827866 5.31781161 7.72361357 5.31781161 7.72361357 50.2945769 7.70908829 50.3086425 7.70686915 50.3108064 7.68911604 50.3266031 7.6838708 50.3315802 7.67116118 50.3426163 7.65764461 50.3540851 7.65280285 50.3581966 7.63363755 50.3733442 7.59389479 50.404072 7.57331731 50.4190032 7.57291383 50.419436 7.5525381 50.4335016 7.54224936 50.4404262 7.53095192 50.4482163 7.51118141 50.4616327 7.50916401 50.4627147 7.48656914 50.4765639 7.47870128 50.4817574 7.46377252 50.4908459 7.44561593 50.5016656 7.44037069 50.5046951 7.41656538 50.5178951 7.41152188 50.5207082 7.39235659 50.5315279 7.37702435 50.5401836 7.36794605 50.5445115 7.34272856 50.5574951 7.34050942 50.5585771 7.31730933 50.570046 7.30439797 50.5765378 7.29148662 50.5828132 7.2666726 50.5947148 7.26526042 50.5949312 7.23822727 50.6070493 7.22793854 50.6118099 7.21139586 50.6191673 7.18900273 50.6284722 7.18375749 50.6306362 7.15611912 50.642105 7.14885648 50.6451345 7.12787553 50.6531411 7.10810501 50.6609313 7.09922846 50.6643936 7.0701779 50.6747805 7.06674832 50.6762952 7.04072387 50.6853838 7.02438294 50.69101 7.0110681 50.6953379 6.98141233 50.705292 6.98100885 50.705292 6.95074786 50.7152461 6.93743302 50.7193576 6.91988165 50.7247674 6.89305024 50.7325576 6.88901544 50.7336395 6.85734227 50.7427281 6.84806223 50.7453248 6.8256691 50.7513838 6.80226726 50.7576592 6.79379419 50.7600396 6.76091058 50.7680461 6.75566534 50.7693445 6.72843045 50.7756199 6.70845819 50.7805969 6.69554684 50.7834101 6.66225975 50.7905511 6.66084757 50.7912002 6.62836744 50.7979084 6.61263172 50.8009379 6.59487861 50.8044002 6.56360892 50.8102429 6.56058282 50.8108921 6.52608529 50.8171675 6.51438437 50.8193314 6.49158776 50.8232265 6.46415113 50.827338 6.45688849 50.8284199 6.421584 50.8338298 6.41371614 50.8351281 6.38567429 50.8388068 6.36287768 50.8420527 6.35016806 50.8437839 6.31446009 50.8481118 6.31143399 50.8483282 6.27834864 50.8524396 6.25958683 50.8541708 6.24203545 50.8559019 6.2069327 50.8591478 6.20552053 50.8593642 6.16840038 50.8626101 6.15427858 50.8636921 6.13148197 50.8654232 6.1008175 50.8673708 6.09416008 50.8678036 6.05663645 50.8704003 6.04695293 50.8706167 5.99288663 50.872997 5.98158919 50.8736462 5.9432586 50.8747282 5.93841685 50.8747282 5.90512976 50.8755937 5.88354358 50.8758101 5.86679917 50.8760265 5.80345283 50.8760265 5.77863881 50.8758101 5.7538248 50.8758101 5.72921253 50.8753774 5.71811683 50.8747282 5.704802 50.8742954 5.68039146 50.8736462 5.66364705 50.872997 5.65598093 50.872997 5.63136866 50.8714823 5.60958075 50.8706167 5.60736161 50.8706167 5.58315281 50.8695347 5.55894402 50.8678036 5.55571618 50.8673708 5.53493697 50.8660724 5.51092991 50.8643413 5.50245684 50.8636921 5.48692286 50.8621773 5.46331929 50.8602298 5.44919749 50.8591478 5.43951398 50.8584987 5.41611214 50.8563347 5.39694685 50.8541708 5.39250857 50.8535216 5.36930848 50.8513577 5.34590664 50.8483282 5.34509969 50.8483282 5.32290829 50.845515 5.29950646 50.8427019 5.27670985 50.8396724 5.25371149 50.8366429 5.2426158 50.8351281 5.20811827 50.8299347 5.19197907 50.827338 5.18592687 50.8264724 5.163332 50.8227937 5.14235105 50.8193314 5.14093887 50.8188986 5.11874747 50.8152199 5.09655608 50.8108921 5.09272302 50.8102429 5.07456643 50.8067806 5.05237503 50.8026691 5.04390196 50.8009379 5.03038538 50.7981248 5.00900095 50.7935806 4.99548437 50.7912002 4.98741477 50.7892527 4.9658286 50.7842756 4.94444417 50.7797314 4.92346321 50.7747543 4.90248226 50.7695609 4.88150131 50.7643674 4.86052035 50.7587412 4.85426641 50.7576592 4.83994288 50.7535477 4.8193654 50.7481379 4.80847145 50.7453248 4.79878793 50.7427281 4.77861394 50.7368854 4.75843994 50.7310428 4.73846769 50.7249838 4.71910065 50.7193576 4.71889891 50.7189248 4.69872492 50.7126494 4.67915615 50.7065903 4.65978911 50.7000985 4.64042208 50.6936067 4.5647696 50.6669903 4.54863041 50.6609313 4.54641127 50.6596329 4.52785119 50.6527083 4.50949286 50.6455673 4.49133626 50.6384263 4.47378489 50.6308526 4.45562829 50.6237116 4.43827866 50.615705 4.43827866 5.31781161"></polyline>
                            <path d="M4.43827866,5.31781161 L7.72361357,5.31781161 L7.72361357,5.62898564 C7.26949696,6.00551054 6.69998512,6.22991073 6.08145046,6.22991073 C5.46210885,6.22991073 4.89219352,6.00551054 4.43827866,5.62876924 L4.43827866,5.31781161" id="Fill-27" fill="#16110F"></path>
                            <polyline id="Fill-28" fill="#B28E7D" points="6.08084524 5.31781161 4.43827866 5.31781161 4.43827866 50.2945769 4.45280393 50.3086425 4.45361089 50.3090752 4.46894313 50.3235736 4.47802143 50.3315802 4.48508232 50.3376392 4.50122152 50.3517048 4.50424762 50.3540851 4.51857115 50.3657704 4.53571905 50.3791868 4.55347216 50.393036 4.57122528 50.4066688 4.58897839 50.419436 4.58998709 50.4196524 4.60834543 50.4332852 4.61964286 50.4404262 4.6279142 50.4460524 4.64728124 50.459036 4.65071081 50.4616327 4.66745523 50.4715869 4.68319095 50.4817574 4.68762922 50.4843541 4.70840844 50.4966885 4.7162763 50.5016656 4.72938939 50.509023 4.7501686 50.5207082 4.75077382 50.521141 4.77276348 50.5334754 4.78486787 50.5401836 4.79455139 50.5451607 4.81694452 50.5561968 4.8213828 50.5585771 4.83974114 50.567882 4.85749425 50.5765378 4.86273949 50.5791345 4.8865448 50.590387 4.89521962 50.5947148 4.91014838 50.6012066 4.93355021 50.6118099 4.93435717 50.6120263 4.95856596 50.6226296 4.9728895 50.6284722 4.98317823 50.6330165 5.00819399 50.6429706 5.01303575 50.6451345 5.03341148 50.6531411 5.05378721 50.6609313 5.05943593 50.6626624 5.08525864 50.6724001 5.0951439 50.6762952 5.1112831 50.6819215 5.13750929 50.69101 5.13771103 50.6912264 5.16474418 50.7000985 5.18047989 50.705292 5.19177733 50.7089707 5.21921396 50.7176264 5.2244592 50.7193576 5.24665059 50.7258494 5.26884199 50.7325576 5.27449071 50.7342887 5.3027343 50.7422953 5.31382999 50.7453248 5.33138137 50.7498691 5.35962496 50.7576592 5.36002844 50.7576592 5.38867551 50.765233 5.40602515 50.7693445 5.41812954 50.7721576 5.44738183 50.7790822 5.45343403 50.7805969 5.47703761 50.7860068 5.50104466 50.7912002 5.50709686 50.7922822 5.53715611 50.7985576 5.54905876 50.8009379 5.56761884 50.8044002 5.59828331 50.8102429 5.62894778 50.8160855 5.64750785 50.8193314 5.65981399 50.821279 5.69088194 50.8264724 5.69753936 50.827338 5.72275685 50.8314495 5.74817608 50.8351281 5.75402654 50.8359937 5.78590145 50.8401052 5.81817984 50.8444331 5.85045823 50.8483282 5.88273662 50.8522232 5.91501501 50.8556855 5.94789862 50.858715 5.95495952 50.8591478 5.98078223 50.8615282 6.00761364 50.8636921 6.01406932 50.8643413 6.04735641 50.8667216 6.06107473 50.8673708 6.08084524 50.8686692 6.08084524 5.31781161"></polyline>
                            <path d="M6.08084524,5.31781161 L4.43827866,5.31781161 L4.43827866,5.62898564 C4.89239526,6.00551054 5.46190711,6.22991073 6.08044176,6.22991073 L6.08084524,5.31781161" id="Fill-29" fill="#463229"></path>
                            <path d="M5.91562023,0.340758288 C7.40042618,0.341191075 8.60340144,1.63154625 8.60340144,3.22420331 C8.60340144,4.81621119 7.40042618,6.10743194 5.91562023,6.10743194 C4.4314195,6.10743194 3.22783902,4.81642758 3.22783902,3.22420331 C3.22783902,1.63154625 4.43081428,0.340758288 5.91562023,0.340758288" id="Fill-30" fill="#98766B"></path>
                            <path d="M4.56858825,5.71910235 C3.2843118,4.92082628 2.84613265,3.15743465 3.59055302,1.77900728 C4.33416644,0.401229081 5.97875042,-0.0685614738 7.26383383,0.7297146 L4.56858825,5.71910235" id="Fill-31" fill="#B28E7D"></path>
                            <path d="M8.60340144,3.15387538 C8.60340144,4.74609966 7.40042618,6.03710401 5.91562023,6.03710401 C4.43081428,6.03710401 3.22783902,4.74609966 3.22783902,3.15387538 C3.22783902,5.20810004 5.67676014,5.3961461 5.9043228,5.3961461 C6.80428466,5.3961461 8.60340144,5.02070316 8.60340144,3.15387538" id="Fill-32" fill="#463229"></path>
                            <path d="M3.22783902,3.15387538 C3.22783902,4.74609966 4.43081428,6.03710401 5.91562023,6.03710401 L5.91562023,5.3961461 C5.01243053,5.39354937 3.22783902,4.80625708 3.22783902,3.15387538" id="Fill-33" fill="#60392F"></path>
                            <path d="M4.43827866,5.96699247 C4.99548437,6.24289434 5.53372653,6.41297973 6.08124872,6.41297973 C6.60879866,6.41297973 7.17588963,6.32750425 7.72341183,5.96699247 L26.4188537,5.96699247 L23.9491534,14.3779962 L26.4188537,22.7892163 L7.72280661,22.7892163 C7.21522892,23.0545149 6.62796396,23.2349872 6.08044176,23.2349872 C5.53291957,23.2349872 4.90651706,23.0118853 4.43827866,22.7892163 C4.43827866,17.1818084 4.43827866,11.5744004 4.43827866,5.96699247" id="Fill-34" fill="#FFFFFF"></path>
                            <path d="M6.05219817,6.41297973 L6.05260165,6.41297973 C6.58015159,6.41297973 7.14724256,6.32750425 7.69476476,5.96699247 L7.69476476,22.7892163 L7.69415954,22.7892163 C7.18658185,23.0545149 6.59951863,23.2349872 6.05219817,23.2349872 L6.05219817,6.41297973" id="Fill-35" fill="#E9E9EA"></path>
                            <polyline id="Fill-36" fill="#E9E9EA" points="20.6813699 5.96699247 26.4144154 5.96699247 26.4144154 22.7892163 13.314836 22.7892163 20.6813699 5.96699247"></polyline>
                        </g>
                        <g id="Group-3-Copy-4" opacity="0.5">
                            <path d="M8,29.9997478 C5.79117276,29.9997478 4,28.2091924 4,26 C4,28.2091924 2.20933165,29.9997478 0,29.9997478 C2.20933165,29.9997478 4,31.7908076 4,34 C4,31.7908076 5.79117276,29.9997478 8,29.9997478" id="Fill-49" fill="#FFFFFE"></path>
                            <path d="M87,30.0002526 C85.3433816,30.0002526 84,28.6572632 84,27 C84,28.6572632 82.6571236,30.0002526 81,30.0002526 C82.6571236,30.0002526 84,31.3432421 84,33 C84,31.3432421 85.3433816,30.0002526 87,30.0002526" id="Fill-50" fill="#FFFFFE"></path>
                            <path d="M15,81.5002514 C11.96224,81.5002514 9.49974857,79.03776 9.49974857,76 C9.49974857,79.03776 7.03725714,81.5002514 4,81.5002514 C7.03725714,81.5002514 9.49974857,83.9627429 9.49974857,87 C9.49974857,83.9627429 11.96224,81.5002514 15,81.5002514" id="Fill-51" fill="#FFFFFE"></path>
                            <path d="M37,5.5 C33.9624448,5.5 31.5,3.03755523 31.5,0 C31.5,3.03755523 29.0375552,5.5 26,5.5 C29.0375552,5.5 31.5,7.96244477 31.5,11 C31.5,7.96244477 33.9624448,5.5 37,5.5" id="Fill-52" fill="#FFFFFE"></path>
                        </g>
                        <g id="Group-3-Copy-4" opacity="0.5" transform="translate(88.000000, 310.000000)">
                            <path d="M9,35.4997163 C6.51506936,35.4997163 4.5,33.4853414 4.5,31 C4.5,33.4853414 2.48549811,35.4997163 0,35.4997163 C2.48549811,35.4997163 4.5,37.5146586 4.5,40 C4.5,37.5146586 6.51506936,35.4997163 9,35.4997163" id="Fill-49" fill="#FFFFFE"></path>
                            <path d="M104,35.5002947 C102.067279,35.5002947 100.5,33.9334737 100.5,32 C100.5,33.9334737 98.9333109,35.5002947 97,35.5002947 C98.9333109,35.5002947 100.5,37.0671158 100.5,39 C100.5,37.0671158 102.067279,35.5002947 104,35.5002947" id="Fill-50" fill="#FFFFFE"></path>
                            <path d="M18,96.5002971 C14.40992,96.5002971 11.4997029,93.59008 11.4997029,90 C11.4997029,93.59008 8.58948571,96.5002971 5,96.5002971 C8.58948571,96.5002971 11.4997029,99.4105143 11.4997029,103 C11.4997029,99.4105143 14.40992,96.5002971 18,96.5002971" id="Fill-51" fill="#FFFFFE"></path>
                            <path d="M45,6.5 C41.410162,6.5 38.5,3.589838 38.5,0 C38.5,3.589838 35.589838,6.5 32,6.5 C35.589838,6.5 38.5,9.410162 38.5,13 C38.5,9.410162 41.410162,6.5 45,6.5" id="Fill-52" fill="#FFFFFE"></path>
                        </g>
                    </g>
                </g>
            </g>
        </g>
    </g>
</svg>