<?xml version="1.0" encoding="UTF-8"?>
<svg width="1022px" height="704px" viewBox="0 0 1022 704" version="1.1" xmlns="http://www.w3.org/2000/svg" xmlns:xlink="http://www.w3.org/1999/xlink">
    <!-- Generator: Sketch 49.1 (51147) - http://www.bohemiancoding.com/sketch -->
    <title>Group 8</title>
    <desc>Created with Sketch.</desc>
    <defs>
        <linearGradient x1="50%" y1="-250.154523%" x2="50%" y2="100%" id="linearGradient-1">
            <stop stop-color="#15ADC2" offset="0%"></stop>
            <stop stop-color="#2E3374" offset="100%"></stop>
        </linearGradient>
        <rect id="path-2" x="0" y="0" width="1022" height="704"></rect>
    </defs>
    <g id="Page-1" stroke="none" stroke-width="1" fill="none" fill-rule="evenodd">
        <g id="404_md" transform="translate(-258.000000, -64.000000)">
            <g id="Group-8" transform="translate(258.000000, 64.000000)">
                <mask id="mask-3" fill="white">
                    <use xlink:href="#path-2"></use>
                </mask>
                <use id="Mask" fill="url(#linearGradient-1)" xlink:href="#path-2"></use>
                <g mask="url(#mask-3)">
                    <g transform="translate(97.000000, 56.000000)">
                        <g id="Group-15" transform="translate(229.000000, 399.000000)">
                            <path d="M159.853807,79.9256853 C159.853807,124.068223 124.069036,159.852589 79.9269036,159.852589 C35.7847716,159.852589 0,124.068223 0,79.9256853 C0,35.7835533 35.7847716,0 79.9269036,0 C124.069036,0 159.853807,35.7835533 159.853807,79.9256853" id="Fill-37" fill="#4385C4"></path>
                            <path d="M42.9888325,82.2448731 C49.9573604,69.6836548 26.2619289,63.6743147 30.164467,45.1606091 C34.0670051,26.6473096 45.4984772,33.5939086 56.1827411,24.0462944 C66.4649746,14.8548223 58.777665,4.0422335 58.1888325,3.24873096 C24.613198,12.7171574 0,43.5744162 0,80.1811168 C0,85.462335 0.519796954,90.622132 1.49441624,95.6170558 C23.6751269,101.716548 36.422335,94.0763452 42.9888325,82.2448731" id="Fill-38" fill="#14CC76"></path>
                            <path d="M48.8507429,102.851894 C60.4568343,100.656565 68.1969358,105.722148 65.0700322,112.983062 C61.9471896,120.244788 55.9207936,126.29027 60.0588647,130.038087 C64.1969358,133.786311 62.5360221,141.858595 51.8070881,146.248849 C39.3522657,151.343265 50.3735855,135.220219 42.1502353,131.863062 C11.1735855,119.217377 39.4050576,104.638697 48.8507429,102.851894" id="Fill-39" fill="#14CC76"></path>
                            <path d="M79.9269036,160.000297 C35.906599,160.000297 0.203045685,124.418571 0,80.4474039 C0.203045685,124.418571 35.906599,160.000297 79.9269036,160.000297 C79.9634518,160.000297 80.0040609,159.999891 80.0446701,160.000297 C80.0040609,159.999891 79.9675127,160.000297 79.9269036,160.000297 M80.0730964,159.999891 C80.1055838,159.999891 80.1380711,159.999891 80.1746193,159.999891 C80.1380711,159.999891 80.1055838,159.999891 80.0730964,159.999891 M80.1908629,159.999891 C80.2314721,159.999485 80.2639594,159.999485 80.3045685,159.999079 C80.2639594,159.999485 80.2274112,159.999485 80.1908629,159.999891 M80.3329949,159.999079 C80.3654822,159.999079 80.3939086,159.998673 80.4263959,159.998673 C80.3939086,159.998673 80.3614213,159.999079 80.3329949,159.999079 M80.4507614,159.998267 C80.4873096,159.998267 80.5279188,159.997861 80.564467,159.997455 C80.5279188,159.997861 80.4873096,159.998267 80.4507614,159.998267 M80.5888325,159.997455 C80.6213198,159.997049 80.6497462,159.997049 80.6822335,159.996642 C80.6538071,159.997049 80.6213198,159.997049 80.5888325,159.997455 M80.7106599,159.996236 C80.751269,159.99583 80.7837563,159.995424 80.8243655,159.995018 C80.7878173,159.995424 80.751269,159.99583 80.7106599,159.996236 M80.8527919,159.995018 C80.8812183,159.994612 80.9137056,159.994206 80.9380711,159.9938 C80.9096447,159.994206 80.8812183,159.994612 80.8527919,159.995018 M80.9746193,159.993394 C81.0111675,159.992988 81.0477157,159.992582 81.084264,159.991769 C81.0477157,159.992582 81.0111675,159.992988 80.9746193,159.993394 M81.1045685,159.991769 C81.1370558,159.990957 81.1654822,159.990551 81.1979695,159.990145 C81.1695431,159.990551 81.1370558,159.990957 81.1045685,159.991769 M81.2345178,159.989739 C81.271066,159.988927 81.3076142,159.988521 81.3441624,159.987708 C81.3076142,159.988521 81.271066,159.988927 81.2345178,159.989739 M81.3522843,159.987708 C81.3888325,159.986896 81.4213198,159.98649 81.457868,159.985678 C81.4213198,159.98649 81.3888325,159.986896 81.3522843,159.987708 M81.4944162,159.984866 C81.5269036,159.98446 81.5553299,159.984054 81.5837563,159.983241 C81.5553299,159.984054 81.5269036,159.98446 81.4944162,159.984866 M81.6081218,159.982835 C81.6446701,159.982023 81.6812183,159.981211 81.7177665,159.980399 C81.6812183,159.981211 81.6446701,159.982023 81.6081218,159.982835 M81.7543147,159.979587 C81.7827411,159.979181 81.8111675,159.978368 81.8395939,159.977556 C81.8111675,159.978368 81.7827411,159.979181 81.7543147,159.979587 M81.8720812,159.97715 C81.9045685,159.976338 81.9411168,159.97512 81.9736041,159.974307 C81.9411168,159.97512 81.9045685,159.975932 81.8720812,159.97715 M82.0182741,159.973495 C82.0426396,159.972683 82.0670051,159.971871 82.0913706,159.971465 C82.0670051,159.971871 82.0426396,159.972683 82.0182741,159.973495 M82.1319797,159.970247 C82.1685279,159.969434 82.2010152,159.968216 82.2375635,159.967404 C82.2010152,159.968216 82.164467,159.969434 82.1319797,159.970247 M82.2741117,159.966186 C82.3025381,159.965373 82.3228426,159.964967 82.351269,159.964155 C82.3228426,159.964967 82.3025381,159.965373 82.2741117,159.966186 M82.3918782,159.962937 C82.4284264,159.961719 82.4609137,159.960906 82.493401,159.959688 C82.4609137,159.960906 82.4243655,159.961719 82.3918782,159.962937 M82.5340102,159.95847 C82.5543147,159.957658 82.5827411,159.956846 82.6071066,159.956033 C82.5827411,159.956846 82.5583756,159.957658 82.5340102,159.95847 M82.6517766,159.954409 C82.684264,159.953597 82.7086294,159.952785 82.7411168,159.951566 C82.7126904,159.952378 82.684264,159.953597 82.6517766,159.954409 M82.7857868,159.949942 C82.8101523,159.94913 82.8385787,159.947911 82.8670051,159.947099 C82.8385787,159.947911 82.8101523,159.94913 82.7857868,159.949942 M82.915736,159.945475 C82.9360406,159.944663 82.9563452,159.943851 82.9766497,159.943038 C82.9563452,159.943851 82.9360406,159.944663 82.915736,159.945475 M83.0538071,159.940196 C83.0781726,159.939384 83.0984772,159.938165 83.1228426,159.937353 C83.0984772,159.938165 83.0741117,159.939384 83.0538071,159.940196 M83.1756345,159.935323 C83.1959391,159.93451 83.2121827,159.933698 83.2324873,159.932886 C83.2162437,159.933698 83.1959391,159.93451 83.1756345,159.935323 M83.2974619,159.93045 C83.3258883,159.929231 83.3543147,159.928013 83.3786802,159.926795 C83.3543147,159.928013 83.3258883,159.929231 83.2974619,159.93045 M83.435533,159.924358 C83.4517766,159.923546 83.4761421,159.922734 83.4923858,159.921922 C83.4720812,159.922734 83.4558376,159.923546 83.435533,159.924358 M83.5492386,159.919485 C83.5817259,159.918267 83.6060914,159.917049 83.6385787,159.915424 C83.6101523,159.916642 83.577665,159.918267 83.5492386,159.919485 M83.6994924,159.912582 C83.715736,159.911769 83.7319797,159.911363 83.7482234,159.910551 C83.7319797,159.911363 83.715736,159.911769 83.6994924,159.912582 M83.8091371,159.907302 C83.8253807,159.906896 83.8416244,159.906084 83.857868,159.905272 C83.8416244,159.906084 83.8253807,159.906896 83.8091371,159.907302 M83.9634518,159.899993 C83.9756345,159.899181 83.9878173,159.898774 84.0040609,159.897962 C83.9878173,159.898774 83.9756345,159.899181 83.9634518,159.899993 M84.0730964,159.894307 C84.0812183,159.893901 84.093401,159.893495 84.1015228,159.892683 C84.093401,159.893495 84.0812183,159.893901 84.0730964,159.894307 M84.2274112,159.886186 C84.2395939,159.88578 84.2517766,159.885373 84.2598985,159.884561 C84.2517766,159.885373 84.2395939,159.88578 84.2274112,159.886186 M84.3329949,159.880906 C84.3411168,159.8805 84.3532995,159.879688 84.3614213,159.878876 C84.3532995,159.879688 84.3411168,159.880094 84.3329949,159.880906 M84.4954315,159.871566 C84.5035533,159.87116 84.5116751,159.870754 84.519797,159.870348 C84.5116751,159.870754 84.5035533,159.87116 84.4954315,159.871566 M84.5928934,159.866287 C84.6050761,159.865475 84.6091371,159.865069 84.6213198,159.864663 C84.6091371,159.865069 84.6050761,159.865475 84.5928934,159.866287 M84.8568528,159.85045 C84.8649746,159.850043 84.8690355,159.849637 84.8771574,159.849231 C84.8690355,159.849637 84.8609137,159.850043 84.8568528,159.85045 M85.1248731,159.8338 C85.128934,159.8338 85.128934,159.833394 85.1329949,159.833394 C85.128934,159.833394 85.1248731,159.8338 85.1248731,159.8338 M85.3888325,159.816338 C85.3928934,159.816338 85.3888325,159.816338 85.3928934,159.816338 L85.3888325,159.816338 M0,80.0733937 C0,80.0396881 0,80.0051704 0,79.9714648 C0,80.0047643 0,80.0400942 0,80.0733937 M0,79.9239521 C0,79.905678 0,79.8869978 0,79.8691298 C0,79.8845612 0,79.8995866 0,79.9150181 C0,79.9178607 0,79.9211095 0,79.9239521 M0,79.8037491 C0,79.7915663 0,79.7797897 0,79.7676069 C0,79.7765409 0,79.7810079 0,79.7899419 C0,79.7952211 0,79.7984699 0,79.8037491 M0,79.7253734 C0,79.7135968 0,79.6997897 0,79.688013 C0,79.6961348 0,79.7038506 0,79.7119724 C0,79.7164394 0,79.7209064 0,79.7253734 M0,79.6758303 C0,79.6717694 0,79.6693328 0,79.6652719 L0,79.6681145 C0,79.6709572 0,79.6729876 0,79.6758303 M0,79.6230384 C0,79.6051704 0,79.5885206 0,79.5706526 C0,79.5730892 0,79.5803988 0,79.5832414 C0,79.5966425 0,79.6096374 0,79.6230384 M0.00406091371,79.5198912 C0.00406091371,79.4999927 0.00406091371,79.4800942 0.00406091371,79.4601958 C0.00406091371,79.4800942 0.00406091371,79.4995866 0.00406091371,79.5198912 M0.00406091371,79.4175562 C0.00406091371,79.3976577 0.00406091371,79.3765409 0.00406091371,79.3566425 C0.00406091371,79.3765409 0.00406091371,79.3976577 0.00406091371,79.4175562 M0.00406091371,79.3152211 C0.00406091371,79.3111602 0.00406091371,79.3066932 0.00406091371,79.3030384 L0.00406091371,79.3091298 C0.00406091371,79.3115663 0.00406091371,79.3127846 0.00406091371,79.3152211 M0.00406091371,79.2819216 C0.00406091371,79.2620232 0.00406091371,79.2465917 0.00406091371,79.2266932 C0.00406091371,79.2421247 0.00406091371,79.2539013 0.00406091371,79.2697389 C0.00406091371,79.2750181 0.00406091371,79.2766425 0.00406091371,79.2819216 M0.00406091371,79.2157288 C0.00406091371,79.2059826 0.00406091371,79.1954242 0.00406091371,79.1852719 C0.00406091371,79.1881145 0.00406091371,79.1873024 0.00406091371,79.190145 C0.00406091371,79.199079 0.00406091371,79.2067947 0.00406091371,79.2157288 M0.00406091371,79.1507541 C0.00406091371,79.1385714 0.00406091371,79.1255765 0.00406091371,79.1137998 C0.00406091371,79.1227338 0.00406091371,79.1365409 0.00406091371,79.1454749 C0.00406091371,79.1483176 0.00406091371,79.1479115 0.00406091371,79.1507541 M0.00812182741,79.0796881 C0.00812182741,79.0735968 0.00812182741,79.0670993 0.00812182741,79.0610079 L0.00812182741,79.065881 C0.00812182741,79.070348 0.00812182741,79.0752211 0.00812182741,79.0796881 M0.00812182741,79.0325815 C0.00812182741,79.0244597 0.00812182741,79.0195866 0.00812182741,79.0118709 C0.00812182741,79.0163379 0.00812182741,79.0203988 0.00812182741,79.0248658 C0.00812182741,79.0273024 0.00812182741,79.0297389 0.00812182741,79.0325815 M0.00812182741,78.9708557 C0.00812182741,78.9529876 0.00812182741,78.9359318 0.00812182741,78.9176577 C0.00812182741,78.923343 0.00812182741,78.9314648 0.00812182741,78.936744 C0.00812182741,78.9481145 0.00812182741,78.9598912 0.00812182741,78.9708557 M0.00812182741,78.8664902 C0.00812182741,78.8465917 0.00812182741,78.8279115 0.00812182741,78.808013 C0.00812182741,78.8279115 0.00812182741,78.8461856 0.00812182741,78.8664902 M0.0121827411,78.7629369 C0.0121827411,78.7430384 0.0121827411,78.7267947 0.0121827411,78.7073024 C0.0121827411,78.7247643 0.0121827411,78.7430384 0.0121827411,78.7609064 C0.0121827411,78.763343 0.0121827411,78.7605003 0.0121827411,78.7629369 M0.0121827411,78.6467947 C0.0121827411,78.6329876 0.0121827411,78.6175562 0.0121827411,78.603343 C0.0121827411,78.6102465 0.0121827411,78.616744 0.0121827411,78.6236475 C0.0121827411,78.6317694 0.0121827411,78.6386729 0.0121827411,78.6467947 M0.0162436548,78.5594851 C0.0162436548,78.5497389 0.0162436548,78.5444597 0.0162436548,78.5347135 C0.0162436548,78.5399927 0.0162436548,78.5416171 0.0162436548,78.5473024 C0.0162436548,78.5517694 0.0162436548,78.5550181 0.0162436548,78.5594851 M0.0162436548,78.4583683 C0.0162436548,78.4441551 0.0162436548,78.4323785 0.0162436548,78.4185714 C0.0162436548,78.421414 0.0162436548,78.4246628 0.0162436548,78.4270993 C0.0162436548,78.4360333 0.0162436548,78.4494343 0.0162436548,78.4583683 M0.0203045685,78.3580638 C0.0203045685,78.3341044 0.0203045685,78.3121755 0.0203045685,78.2882161 C0.0203045685,78.2910587 0.0203045685,78.2963379 0.0203045685,78.2987744 C0.0203045685,78.3166425 0.0203045685,78.3401958 0.0203045685,78.3580638 M0.0203045685,78.2626323 C0.0203045685,78.2606018 0.0203045685,78.2581653 0.0203045685,78.2561348 C0.0203045685,78.2585714 0.0203045685,78.2589775 0.0203045685,78.2610079 L0.0203045685,78.2626323 M0.0203045685,78.2386729 C0.0203045685,78.2106526 0.0203045685,78.1842567 0.0243654822,78.1566425 C0.0203045685,78.1830384 0.0203045685,78.2118709 0.0203045685,78.2386729 M0.0243654822,78.1115663 C0.0243654822,78.0936983 0.0243654822,78.0737998 0.0243654822,78.0559318 C0.0243654822,78.0737998 0.0243654822,78.0936983 0.0243654822,78.1115663 M0.0284263959,77.9925815 C0.0284263959,77.9803988 0.0284263959,77.9665917 0.0284263959,77.954409 C0.0284263959,77.963343 0.0284263959,77.972277 0.0284263959,77.981211 C0.0284263959,77.9864902 0.0284263959,77.9873024 0.0284263959,77.9925815 M0.0284263959,77.874409 C0.0284263959,77.8666932 0.0284263959,77.8626323 0.0324873096,77.8545105 L0.0284263959,77.8577592 C0.0284263959,77.8630384 0.0284263959,77.8691298 0.0284263959,77.874409 M0.0324873096,77.8017186 C0.0324873096,77.7919724 0.0324873096,77.7797897 0.0324873096,77.7700435 C0.0324873096,77.7753227 0.0324873096,77.7789775 0.0324873096,77.7842567 C0.0324873096,77.7907541 0.0324873096,77.7952211 0.0324873096,77.8017186 M0.0365482234,77.7018201 C0.0365482234,77.6859826 0.0365482234,77.670145 0.0365482234,77.6543074 L0.0365482234,77.6547135 C0.0365482234,77.670145 0.0365482234,77.6863887 0.0365482234,77.7018201 M0.0365482234,77.6002973 C0.0365482234,77.5844597 0.0406091371,77.5686222 0.0406091371,77.5527846 C0.0406091371,77.5682161 0.0365482234,77.5848658 0.0365482234,77.6002973 M0.0406091371,77.4695359 C0.0406091371,77.4654749 0.0406091371,77.4622262 0.0406091371,77.4581653 C0.0406091371,77.4606018 0.0406091371,77.4626323 0.0406091371,77.4650689 C0.0406091371,77.4675054 0.0406091371,77.4666932 0.0406091371,77.4695359 M0.0446700508,77.3241551 C0.0487309645,77.3184699 0.0487309645,77.3111602 0.0487309645,77.3050689 C0.0487309645,77.3115663 0.0487309645,77.3176577 0.0446700508,77.3241551 M0.0487309645,77.2206018 C0.0487309645,77.2145105 0.0487309645,77.2120739 0.0527918782,77.2059826 C0.0487309645,77.2104496 0.0487309645,77.2120739 0.0487309645,77.2165409 C0.0487309645,77.2193836 0.0487309645,77.2177592 0.0487309645,77.2206018 M0.0568527919,77.0427338 C0.0568527919,77.0309572 0.0568527919,77.0203988 0.0568527919,77.0086222 C0.0568527919,77.0114648 0.0568527919,77.0110587 0.0568527919,77.0139013 C0.0568527919,77.0248658 0.0568527919,77.0317694 0.0568527919,77.0427338 M0.0609137056,76.9440536 C0.0609137056,76.932277 0.0609137056,76.9180638 0.0609137056,76.9062871 C0.0609137056,76.9196881 0.0609137056,76.9310587 0.0609137056,76.9440536 M0.0649746193,76.8356272 C0.0649746193,76.825881 0.0649746193,76.8177592 0.0649746193,76.808013 C0.0649746193,76.81248 0.0649746193,76.8116678 0.0649746193,76.8161348 C0.0649746193,76.821414 0.0649746193,76.830348 0.0649746193,76.8356272 M0.0730964467,76.6447643 C0.0730964467,76.6386729 0.0730964467,76.6354242 0.0730964467,76.6293328 L0.0730964467,76.6313633 C0.0730964467,76.6358303 0.0730964467,76.6402973 0.0730964467,76.6447643 M0.0893401015,76.2768455 C0.0893401015,76.2707541 0.0893401015,76.2638506 0.0893401015,76.2577592 C0.0893401015,76.2622262 0.0893401015,76.2723785 0.0893401015,76.2768455 M0.0934010152,76.1806018 C0.0934010152,76.17248 0.0934010152,76.1663887 0.0934010152,76.1582668 C0.0934010152,76.1651704 0.0934010152,76.1692313 0.0934010152,76.1761348 C0.0934010152,76.1785714 0.0934010152,76.1777592 0.0934010152,76.1806018 M0.10964467,75.8882161 C0.10964467,75.8821247 0.10964467,75.8796881 0.10964467,75.8735968 L0.10964467,75.8752211 C0.10964467,75.8792821 0.10964467,75.8837491 0.10964467,75.8882161 M0.113705584,75.7895359 C0.113705584,75.7879115 0.113705584,75.7879115 0.113705584,75.785881 C0.113705584,75.7879115 0.113705584,75.7875054 0.113705584,75.7895359 M0.150253807,75.1276069 C0.150253807,75.1300435 0.150253807,75.1251704 0.150253807,75.1276069" id="Fill-40" fill="#A4BAA0"></path>
                            <path d="M79.9269036,160.001624 C35.906599,160.001624 0.203045685,124.419898 0,80.448731 C0.0243654822,85.5991878 0.540101523,90.6335025 1.49441624,95.5106599 C5.42944162,96.5928934 9.0680203,97.2426396 12.4263959,97.5130964 C17.8111675,116.108832 29.7664975,131.913503 45.6162437,142.24731 C45.5025381,144.96203 45.7015228,147.104162 48.1786802,147.104162 C49.1086294,147.104162 50.3593909,146.802843 52.0365482,146.11736 C52.0690355,146.103147 52.1055838,146.088528 52.1380711,146.074315 C63.2203046,151.885482 75.8335025,155.173604 89.2101523,155.173604 C100.645685,155.173604 111.51269,152.767513 121.348223,148.44264 C110.732995,154.88934 98.493401,158.932792 85.3928934,159.817665 C85.3888325,159.817665 85.3928934,159.817665 85.3888325,159.817665 C85.3035533,159.82335 85.2182741,159.829036 85.1329949,159.834721 C85.128934,159.834721 85.128934,159.835127 85.1248731,159.835127 C85.0436548,159.840406 84.9624365,159.845685 84.8771574,159.850558 C84.8690355,159.850964 84.8649746,159.851371 84.8568528,159.851777 C84.7756345,159.85665 84.6984772,159.861523 84.6213198,159.86599 C84.6091371,159.866396 84.6050761,159.866802 84.5928934,159.867614 C84.5685279,159.868832 84.5441624,159.870457 84.519797,159.871675 C84.5116751,159.872081 84.5035533,159.872487 84.4954315,159.872893 C84.4507614,159.87533 84.4060914,159.877766 84.3614213,159.880203 C84.3532995,159.881015 84.3411168,159.881827 84.3329949,159.882234 C84.3086294,159.883452 84.284264,159.88467 84.2598985,159.885888 C84.2517766,159.886701 84.2395939,159.887107 84.2274112,159.887513 C84.186802,159.889949 84.1461929,159.89198 84.1015228,159.89401 C84.093401,159.894822 84.0812183,159.895228 84.0730964,159.895635 C84.048731,159.896853 84.0243655,159.898071 84.0040609,159.899289 C83.9878173,159.900102 83.9756345,159.900508 83.9634518,159.90132 C83.9269036,159.902944 83.8903553,159.904975 83.857868,159.906599 C83.8416244,159.907411 83.8253807,159.908223 83.8091371,159.908629 C83.7888325,159.909848 83.7685279,159.91066 83.7482234,159.911878 C83.7319797,159.91269 83.715736,159.913096 83.6994924,159.913909 C83.6791878,159.915127 83.6588832,159.915939 83.6385787,159.916751 C83.6060914,159.918376 83.5817259,159.919594 83.5492386,159.920812 C83.528934,159.921624 83.5086294,159.922437 83.4923858,159.923249 C83.4761421,159.924061 83.4517766,159.924873 83.435533,159.925685 C83.4192893,159.926497 83.3989848,159.92731 83.3786802,159.928122 C83.3543147,159.92934 83.3258883,159.930558 83.2974619,159.931777 C83.2771574,159.932589 83.2568528,159.933401 83.2324873,159.934213 C83.2121827,159.935025 83.1959391,159.935838 83.1756345,159.93665 C83.1593909,159.937462 83.1390863,159.937868 83.1228426,159.93868 C83.0984772,159.939492 83.0781726,159.940711 83.0538071,159.941523 C83.0294416,159.942335 83.0050761,159.943147 82.9766497,159.944365 C82.9563452,159.945178 82.9360406,159.94599 82.915736,159.946802 C82.8994924,159.947208 82.8832487,159.94802 82.8670051,159.948426 C82.8385787,159.949239 82.8101523,159.950457 82.7857868,159.951269 C82.7695431,159.951675 82.7573604,159.952487 82.7411168,159.952893 C82.7086294,159.954112 82.684264,159.954924 82.6517766,159.955736 C82.635533,159.956142 82.6233503,159.956954 82.6071066,159.95736 C82.5827411,159.958173 82.5543147,159.958985 82.5340102,159.959797 C82.5177665,159.960203 82.5096447,159.960609 82.493401,159.961015 C82.4609137,159.962234 82.4284264,159.963046 82.3918782,159.964264 C82.3796954,159.96467 82.3634518,159.965076 82.351269,159.965482 C82.3228426,159.966294 82.3025381,159.966701 82.2741117,159.967513 C82.2619289,159.967919 82.2497462,159.968325 82.2375635,159.968731 C82.2010152,159.969543 82.1685279,159.970761 82.1319797,159.971574 C82.119797,159.97198 82.1076142,159.972386 82.0913706,159.972792 C82.0670051,159.973198 82.0426396,159.97401 82.0182741,159.974822 C82.0020305,159.974822 81.9898477,159.975228 81.9736041,159.975635 C81.9411168,159.976447 81.9045685,159.977665 81.8720812,159.978477 C81.8598985,159.978477 81.8477157,159.978883 81.8395939,159.978883 C81.8111675,159.979695 81.7827411,159.980508 81.7543147,159.980914 C81.742132,159.98132 81.7299492,159.98132 81.7177665,159.981726 C81.6812183,159.982538 81.6446701,159.98335 81.6081218,159.984162 C81.6040609,159.984162 81.5918782,159.984569 81.5837563,159.984569 C81.5553299,159.985381 81.5269036,159.985787 81.4944162,159.986193 C81.4822335,159.986599 81.4700508,159.987005 81.457868,159.987005 C81.4213198,159.987817 81.3888325,159.988223 81.3522843,159.989036 C81.3482234,159.989036 81.3482234,159.989036 81.3441624,159.989036 C81.3076142,159.989848 81.271066,159.990254 81.2345178,159.991066 C81.222335,159.991066 81.2101523,159.991472 81.1979695,159.991472 C81.1654822,159.991878 81.1370558,159.992284 81.1045685,159.993096 C81.1005076,159.993096 81.0923858,159.993096 81.084264,159.993096 C81.0477157,159.993909 81.0111675,159.994315 80.9746193,159.994721 C80.9624365,159.994721 80.9502538,159.995127 80.9380711,159.995127 C80.9137056,159.995533 80.8812183,159.995939 80.8527919,159.996345 C80.8406091,159.996345 80.8324873,159.996345 80.8243655,159.996345 C80.7837563,159.996751 80.751269,159.997157 80.7106599,159.997563 C80.7025381,159.997563 80.6944162,159.99797 80.6822335,159.99797 C80.6497462,159.998376 80.6213198,159.998376 80.5888325,159.998782 C80.5807107,159.998782 80.5725888,159.998782 80.564467,159.998782 C80.5279188,159.999188 80.4873096,159.999594 80.4507614,159.999594 C80.4426396,160 80.4345178,160 80.4263959,160 C80.3939086,160 80.3654822,160.000406 80.3329949,160.000406 C80.3208122,160.000406 80.3126904,160.000406 80.3045685,160.000406 C80.2639594,160.000812 80.2314721,160.000812 80.1908629,160.001218 C80.1827411,160.001218 80.1786802,160.001218 80.1746193,160.001218 C80.1380711,160.001218 80.1055838,160.001218 80.0730964,160.001218 C80.0609137,160.001218 80.0527919,160.001218 80.0446701,160.001218 C80.0040609,160.001218 79.9634518,160.001624 79.9269036,160.001624 M0,80.4190863 C0,80.386599 0,80.3577665 0,80.3252792 C0,80.3565482 0,80.3878173 0,80.4190863 M0,80.2696447 C0,80.2481218 0,80.222132 0,80.2006091 C0,80.2237563 0,80.2464975 0,80.2696447 M0,79.9419289 C0,79.9358376 0,79.9309645 0,79.9252792 C0,79.9224365 0,79.9191878 0,79.9163452 C0,79.9252792 0,79.9329949 0,79.9419289 M0,79.8322843 C0,79.8241624 0,79.813198 0,79.8050761 C0,79.799797 0,79.7965482 0,79.791269 C0,79.8046701 0,79.8188832 0,79.8322843 M0,79.7132995 C0,79.7051777 0,79.6974619 0,79.6893401 C0,79.6852792 0,79.6808122 0,79.6771574 C0,79.6743147 0,79.6722843 0,79.6694416 C0,79.6852792 0,79.6974619 0,79.7132995 M0,79.5845685 C0,79.5817259 0,79.5744162 0,79.5719797 C0,79.5699492 0,79.5658883 0,79.5638579 C0,79.5703553 0,79.577665 0,79.5845685 M0.00406091371,79.3104569 L0.00406091371,79.3043655 C0.00406091371,79.2982741 0.00406091371,79.2893401 0.00406091371,79.2832487 C0.00406091371,79.2779695 0.00406091371,79.2763452 0.00406091371,79.271066 C0.00406091371,79.284467 0.00406091371,79.2970558 0.00406091371,79.3104569 M0.00406091371,79.1914721 C0.00406091371,79.1886294 0.00406091371,79.1894416 0.00406091371,79.186599 C0.00406091371,79.1748223 0.00406091371,79.1638579 0.00406091371,79.1520812 C0.00406091371,79.1492386 0.00406091371,79.1496447 0.00406091371,79.146802 C0.00406091371,79.1626396 0.00406091371,79.1760406 0.00406091371,79.1914721 M0.00812182741,79.0672081 L0.00812182741,79.062335 C0.00812182741,79.0525888 0.00812182741,79.0436548 0.00812182741,79.0339086 C0.00812182741,79.031066 0.00812182741,79.0286294 0.00812182741,79.0261929 C0.00812182741,79.0391878 0.00812182741,79.0538071 0.00812182741,79.0672081 M0.00812182741,78.9380711 C0.00812182741,78.9327919 0.00812182741,78.9246701 0.00812182741,78.9189848 C0.00812182741,78.9173604 0.00812182741,78.9141117 0.00812182741,78.9120812 C0.00812182741,78.9210152 0.00812182741,78.9291371 0.00812182741,78.9380711 M0.0121827411,78.7654822 L0.0121827411,78.764264 C0.0121827411,78.7618274 0.0121827411,78.7646701 0.0121827411,78.7622335 L0.0121827411,78.7654822 M0.0121827411,78.6631472 C0.0121827411,78.6570558 0.0121827411,78.6538071 0.0121827411,78.6481218 C0.0121827411,78.64 0.0121827411,78.6330964 0.0121827411,78.6249746 C0.0121827411,78.6383756 0.0121827411,78.6497462 0.0121827411,78.6631472 M0.0162436548,78.5486294 C0.0162436548,78.5429442 0.0162436548,78.5413198 0.0162436548,78.5360406 C0.0162436548,78.5258883 0.0162436548,78.5132995 0.0162436548,78.5031472 C0.0162436548,78.5185787 0.0162436548,78.5327919 0.0162436548,78.5486294 M0.0162436548,78.4284264 C0.0162436548,78.4259898 0.0162436548,78.4227411 0.0162436548,78.4198985 C0.0162436548,78.4101523 0.0162436548,78.4 0.0162436548,78.3902538 C0.0162436548,78.4032487 0.0162436548,78.4150254 0.0162436548,78.4284264 M0.0203045685,78.3001015 C0.0203045685,78.297665 0.0203045685,78.2923858 0.0203045685,78.2895431 C0.0203045685,78.2818274 0.0203045685,78.2716751 0.0203045685,78.2639594 L0.0203045685,78.262335 C0.0203045685,78.275736 0.0203045685,78.2867005 0.0203045685,78.3001015 M0.0243654822,78.1132995 C0.0243654822,78.111269 0.0243654822,78.1149239 0.0243654822,78.1128934 C0.0243654822,78.1149239 0.0243654822,78.1108629 0.0243654822,78.1132995 M0.0284263959,78.0085279 C0.0284263959,78.0028426 0.0284263959,77.9995939 0.0284263959,77.9939086 C0.0284263959,77.9886294 0.0284263959,77.9878173 0.0284263959,77.9825381 C0.0284263959,77.991066 0.0284263959,78 0.0284263959,78.0085279 M0.0284263959,77.9070051 C0.0284263959,77.8972589 0.0284263959,77.8858883 0.0284263959,77.875736 C0.0284263959,77.8704569 0.0284263959,77.8643655 0.0284263959,77.8590863 C0.0284263959,77.8769543 0.0284263959,77.8891371 0.0284263959,77.9070051 M0.0324873096,77.7855838 C0.0324873096,77.7803046 0.0324873096,77.7766497 0.0324873096,77.7713706 C0.0324873096,77.7673096 0.0324873096,77.7604061 0.0324873096,77.7563452 C0.0324873096,77.7652792 0.0324873096,77.7766497 0.0324873096,77.7855838 M0.0365482234,77.6560406 L0.0365482234,77.6552284 L0.0365482234,77.6560406 M0.0406091371,77.5013198 C0.0406091371,77.4915736 0.0406091371,77.4806091 0.0406091371,77.4708629 C0.0406091371,77.4680203 0.0406091371,77.4688325 0.0406091371,77.4663959 C0.0406091371,77.479797 0.0406091371,77.4883249 0.0406091371,77.5013198 M0.0487309645,77.2406091 C0.0487309645,77.2349239 0.0487309645,77.2276142 0.0487309645,77.2219289 C0.0487309645,77.2190863 0.0487309645,77.2207107 0.0487309645,77.217868 C0.0487309645,77.2243655 0.0487309645,77.2341117 0.0487309645,77.2406091 M0.0527918782,77.1455838 C0.0527918782,77.1317766 0.0527918782,77.12 0.0527918782,77.1061929 C0.0527918782,77.1195939 0.0527918782,77.1321827 0.0527918782,77.1455838 M0.0568527919,77.0152284 C0.0568527919,77.0123858 0.0568527919,77.0127919 0.0568527919,77.0099492 L0.0568527919,77.0083249 C0.0568527919,77.0107614 0.0568527919,77.0127919 0.0568527919,77.0152284 M0.0649746193,76.8454822 C0.0649746193,76.8434518 0.0649746193,76.8389848 0.0649746193,76.8369543 C0.0649746193,76.8316751 0.0649746193,76.8227411 0.0649746193,76.8174619 C0.0649746193,76.8263959 0.0649746193,76.8365482 0.0649746193,76.8454822 M0.069035533,76.746802 C0.069035533,76.7329949 0.069035533,76.7224365 0.069035533,76.7086294 C0.069035533,76.7220305 0.069035533,76.7338071 0.069035533,76.746802 M0.0730964467,76.6326904 L0.0730964467,76.6306599 C0.0730964467,76.6270051 0.0730964467,76.6249746 0.0730964467,76.6209137 C0.0730964467,76.6253807 0.0730964467,76.6286294 0.0730964467,76.6326904 M0.0852791878,76.3618274 C0.0852791878,76.359797 0.0852791878,76.359797 0.0852791878,76.3577665 C0.0852791878,76.360203 0.0852791878,76.3593909 0.0852791878,76.3618274 M0.0934010152,76.1859898 C0.0934010152,76.1839594 0.0934010152,76.1839594 0.0934010152,76.1819289 C0.0934010152,76.1790863 0.0934010152,76.1798985 0.0934010152,76.1774619 C0.0934010152,76.1794924 0.0934010152,76.1835533 0.0934010152,76.1859898 M0.0974619289,76.0881218 C0.0974619289,76.0804061 0.0974619289,76.0698477 0.0974619289,76.0617259 C0.0974619289,76.0706599 0.0974619289,76.0795939 0.0974619289,76.0881218 M0.101522843,75.9898477 C0.101522843,75.9817259 0.105583756,75.973198 0.105583756,75.9654822 C0.105583756,75.9744162 0.101522843,75.9809137 0.101522843,75.9898477 M0.10964467,75.8765482 L0.10964467,75.8732995 C0.10964467,75.875736 0.10964467,75.8741117 0.10964467,75.8765482 M0.146192893,75.2280203 C0.146192893,75.2243655 0.146192893,75.2235533 0.146192893,75.2198985 C0.146192893,75.2243655 0.146192893,75.2235533 0.146192893,75.2280203 M0.150253807,75.1305584 L0.150253807,75.128934 C0.150253807,75.1264975 0.150253807,75.1313706 0.150253807,75.128934 L0.150253807,75.1269036 C0.150253807,75.1293401 0.150253807,75.1285279 0.150253807,75.1305584" id="Fill-41" fill="#3070AE"></path>
                            <path d="M12.4263959,97.5370558 C9.0680203,97.266599 5.42944162,96.6168528 1.49441624,95.5346193 C0.540101523,90.6574619 0.0243654822,85.6231472 0,80.4726904 C0,80.4645685 0,80.4511675 0,80.4430457 C0,80.4117766 0,80.3805076 0,80.3492386 C0,80.3305584 0,80.3126904 0,80.2936041 C0,80.2704569 0,80.2477157 0,80.2245685 C0,80.1815228 0,80.142132 0,80.0986802 C0,80.0653807 0,80.0300508 0,79.9967513 C0,79.986599 0,79.9756345 0,79.9658883 C0,79.9569543 0,79.9492386 0,79.9403046 C0,79.9248731 0,79.9098477 0,79.8944162 C0,79.8806091 0,79.8704569 0,79.8562437 C0,79.8428426 0,79.8286294 0,79.8152284 C0,79.8062944 0,79.8018274 0,79.7928934 C0,79.7790863 0,79.764467 0,79.7506599 C0,79.7461929 0,79.7417259 0,79.7372589 C0,79.7214213 0,79.7092386 0,79.693401 L0,79.6905584 C0,79.6763452 0,79.662132 0,79.6483249 C0,79.6349239 0,79.6219289 0,79.6085279 C0,79.6016244 0,79.5943147 0,79.5878173 C0,79.5719797 0.00406091371,79.5610152 0.00406091371,79.5451777 C0.00406091371,79.5248731 0.00406091371,79.5053807 0.00406091371,79.4854822 C0.00406091371,79.471269 0.00406091371,79.4566497 0.00406091371,79.4428426 C0.00406091371,79.4229442 0.00406091371,79.4018274 0.00406091371,79.3819289 C0.00406091371,79.3681218 0.00406091371,79.3543147 0.00406091371,79.3405076 C0.00406091371,79.3380711 0.00406091371,79.3368528 0.00406091371,79.3344162 C0.00406091371,79.3210152 0.00406091371,79.3084264 0.00406091371,79.2950254 C0.00406091371,79.2791878 0.00406091371,79.2674112 0.00406091371,79.2519797 C0.00406091371,79.2499492 0.00406091371,79.2430457 0.00406091371,79.2410152 C0.00406091371,79.2320812 0.00406091371,79.2243655 0.00406091371,79.2154315 C0.00406091371,79.2 0.00406091371,79.186599 0.00406091371,79.1707614 C0.00406091371,79.1618274 0.00406091371,79.1480203 0.00406091371,79.1390863 C0.00812182741,79.1273096 0.00812182741,79.1167513 0.00812182741,79.1049746 C0.00812182741,79.1005076 0.00812182741,79.0956345 0.00812182741,79.0911675 C0.00812182741,79.0777665 0.00812182741,79.0631472 0.00812182741,79.0501523 C0.00812182741,79.0456853 0.00812182741,79.0416244 0.00812182741,79.0371574 C0.00812182741,79.0249746 0.00812182741,79.0083249 0.00812182741,78.9961421 C0.00812182741,78.9851777 0.00812182741,78.973401 0.00812182741,78.9620305 C0.00812182741,78.9530964 0.00812182741,78.9449746 0.00812182741,78.9360406 C0.00812182741,78.920203 0.00812182741,78.9076142 0.00812182741,78.8917766 C0.00812182741,78.8714721 0.00812182741,78.853198 0.00812182741,78.8332995 C0.0121827411,78.8194924 0.0121827411,78.8032487 0.0121827411,78.7894416 L0.0121827411,78.7861929 C0.0121827411,78.7683249 0.0121827411,78.7500508 0.0121827411,78.7325888 C0.0121827411,78.7183756 0.0121827411,78.7009137 0.0121827411,78.6871066 C0.0121827411,78.6737056 0.0121827411,78.662335 0.0121827411,78.648934 C0.0121827411,78.6420305 0.0121827411,78.635533 0.0121827411,78.6286294 C0.0121827411,78.6148223 0.0121827411,78.5989848 0.0162436548,78.5847716 C0.0162436548,78.5803046 0.0162436548,78.5770558 0.0162436548,78.5725888 C0.0162436548,78.5567513 0.0162436548,78.5425381 0.0162436548,78.5271066 C0.0162436548,78.5132995 0.0162436548,78.4974619 0.0162436548,78.4836548 C0.0162436548,78.4747208 0.0162436548,78.4613198 0.0162436548,78.4523858 C0.0162436548,78.4389848 0.0162436548,78.4272081 0.0162436548,78.4142132 C0.0162436548,78.4040609 0.0162436548,78.3930964 0.0203045685,78.3833503 C0.0203045685,78.3654822 0.0203045685,78.3419289 0.0203045685,78.3240609 C0.0203045685,78.3106599 0.0203045685,78.2996954 0.0203045685,78.2862944 C0.0203045685,78.284264 0.0203045685,78.2838579 0.0203045685,78.2814213 C0.0203045685,78.275736 0.0203045685,78.2696447 0.0203045685,78.2639594 C0.0203045685,78.2371574 0.0203045685,78.2083249 0.0243654822,78.1819289 C0.0243654822,78.1677157 0.0243654822,78.151066 0.0243654822,78.1372589 C0.0243654822,78.1348223 0.0243654822,78.1388832 0.0243654822,78.1368528 C0.0243654822,78.1189848 0.0243654822,78.0990863 0.0243654822,78.0812183 C0.0243654822,78.0653807 0.0243654822,78.0483249 0.0284263959,78.0324873 C0.0284263959,78.0239594 0.0284263959,78.0150254 0.0284263959,78.0064975 C0.0284263959,77.9975635 0.0284263959,77.9886294 0.0284263959,77.9796954 C0.0284263959,77.9638579 0.0284263959,77.946802 0.0284263959,77.9309645 C0.0284263959,77.9130964 0.0284263959,77.9009137 0.0284263959,77.8830457 L0.0324873096,77.879797 C0.0324873096,77.8619289 0.0324873096,77.8448731 0.0324873096,77.8270051 C0.0324873096,77.8205076 0.0324873096,77.8160406 0.0324873096,77.8095431 C0.0324873096,77.8006091 0.0324873096,77.7892386 0.0324873096,77.7803046 C0.0324873096,77.7624365 0.0324873096,77.7449746 0.0365482234,77.7271066 C0.0365482234,77.7116751 0.0365482234,77.6954315 0.0365482234,77.68 L0.0365482234,77.6791878 C0.0365482234,77.6613198 0.0365482234,77.6434518 0.0365482234,77.6255838 C0.0365482234,77.6101523 0.0406091371,77.5935025 0.0406091371,77.5780711 C0.0406091371,77.560203 0.0406091371,77.5431472 0.0406091371,77.5252792 C0.0406091371,77.5122843 0.0406091371,77.5037563 0.0406091371,77.4903553 C0.0406091371,77.4879188 0.0406091371,77.4858883 0.0406091371,77.4834518 C0.0446700508,77.4379695 0.0446700508,77.3949239 0.0446700508,77.3494416 C0.0487309645,77.3429442 0.0487309645,77.3368528 0.0487309645,77.3303553 C0.0487309645,77.3084264 0.0487309645,77.2864975 0.0487309645,77.2645685 C0.0487309645,77.2580711 0.0487309645,77.2483249 0.0487309645,77.2418274 C0.0487309645,77.2373604 0.0487309645,77.235736 0.0527918782,77.231269 C0.0527918782,77.2113706 0.0527918782,77.1890355 0.0527918782,77.1695431 C0.0527918782,77.1561421 0.0527918782,77.1435533 0.0527918782,77.1301523 C0.0568527919,77.1102538 0.0568527919,77.0879188 0.0568527919,77.0680203 C0.0568527919,77.0570558 0.0568527919,77.0501523 0.0568527919,77.0391878 C0.0568527919,77.0367513 0.0568527919,77.0347208 0.0568527919,77.0322843 C0.0568527919,77.0107614 0.0609137056,76.991269 0.0609137056,76.9693401 C0.0609137056,76.9563452 0.0609137056,76.9449746 0.0609137056,76.9315736 C0.0609137056,76.9100508 0.0649746193,76.8909645 0.0649746193,76.8694416 C0.0649746193,76.8605076 0.0649746193,76.8503553 0.0649746193,76.8414213 C0.0649746193,76.8369543 0.0649746193,76.8377665 0.0649746193,76.8332995 C0.0649746193,76.813401 0.069035533,76.7906599 0.069035533,76.7707614 C0.069035533,76.7577665 0.069035533,76.7459898 0.069035533,76.7325888 C0.069035533,76.7126904 0.0730964467,76.6895431 0.0730964467,76.6700508 C0.0730964467,76.6655838 0.0730964467,76.6611168 0.0730964467,76.6566497 C0.0730964467,76.6525888 0.0730964467,76.6493401 0.0730964467,76.6448731 C0.0771573604,76.56 0.0812182741,76.4706599 0.0852791878,76.3857868 C0.0852791878,76.3833503 0.0852791878,76.3841624 0.0852791878,76.3817259 C0.0852791878,76.3541117 0.0893401015,76.3297462 0.0893401015,76.302132 C0.0893401015,76.297665 0.0893401015,76.2875127 0.0893401015,76.2830457 C0.0893401015,76.2594924 0.0934010152,76.2335025 0.0934010152,76.2099492 C0.0934010152,76.2075127 0.0934010152,76.2034518 0.0934010152,76.2014213 C0.0934010152,76.1945178 0.0934010152,76.1904569 0.0934010152,76.1835533 C0.0974619289,76.16 0.0974619289,76.1360406 0.0974619289,76.1120812 C0.0974619289,76.1035533 0.0974619289,76.0946193 0.0974619289,76.0856853 C0.101522843,76.062132 0.101522843,76.0373604 0.101522843,76.0138071 C0.101522843,76.0048731 0.105583756,75.9983756 0.105583756,75.9894416 C0.105583756,75.9638579 0.105583756,75.9390863 0.10964467,75.9135025 C0.10964467,75.9090355 0.10964467,75.9045685 0.10964467,75.9005076 C0.10964467,75.8980711 0.10964467,75.8996954 0.10964467,75.8972589 C0.10964467,75.8696447 0.113705584,75.8424365 0.113705584,75.8148223 C0.113705584,75.8127919 0.113705584,75.813198 0.113705584,75.8111675 C0.121827411,75.6259898 0.134010152,75.4371574 0.146192893,75.2519797 C0.146192893,75.2475127 0.146192893,75.2483249 0.146192893,75.2438579 C0.146192893,75.2142132 0.150253807,75.1841624 0.150253807,75.1545178 C0.150253807,75.1524873 0.150253807,75.1532995 0.150253807,75.1508629 C2.01827411,44.573401 21.080203,18.6481218 47.7888325,6.9035533 C24.706599,20.9185787 9.28324873,46.2936041 9.28324873,75.271066 C9.28324873,82.9981726 10.3796954,90.4694416 12.4263959,97.5370558" id="Fill-42" fill="#0B9756"></path>
                            <path d="M48.0688445,146.988832 C45.5916872,146.988832 45.3927024,144.846701 45.506408,142.13198 C47.6140222,143.507005 49.7906719,144.784162 52.0282354,145.958985 C51.9957481,145.973198 51.9591999,145.987817 51.9267126,146.00203 C50.2495552,146.687513 48.9987938,146.988832 48.0688445,146.988832" id="Fill-43" fill="#64935C"></path>
                            <path d="M115.426074,44.684264 C123.661607,56.5669036 147.182419,53.7811168 145.298155,63.4781726 C143.413891,73.1756345 131.531657,82.1222335 132.936733,92.5587817 C134.236226,102.219289 145.907292,108.510863 153.895109,110.304975 C157.700185,100.983147 159.807799,90.7841624 159.807799,80.0917766 C159.807799,51.6994924 145.001708,26.7675127 122.691048,12.5888325 C116.936733,17.2406091 104.928612,29.5317766 115.426074,44.684264" id="Fill-44" fill="#14CC76"></path>
                            <path d="M135.090084,118.825178 C131.110388,126.075533 136.22714,133.323858 137.644399,135.107005 C143.727647,128.750457 148.771302,121.389239 152.507343,113.299492 C147.642368,114.701726 139.012926,111.67066 135.090084,118.825178" id="Fill-45" fill="#14CC76"></path>
                        </g>
                        <g id="Group-7">
                            <g id="Group" transform="translate(235.000000, 358.000000)">
                                <circle id="Oval" fill="#EEEEEE" cx="405" cy="405" r="405"></circle>
                                <ellipse id="Oval-6" fill="#C7C7C9" cx="219.5" cy="205.5" rx="55.5" ry="28.5"></ellipse>
                                <ellipse id="Oval-6" fill="#DADADA" cx="226" cy="212.5" rx="40" ry="20.5"></ellipse>
                                <ellipse id="Oval-6-Copy" fill="#C7C7C9" cx="379.5" cy="89.5" rx="43.5" ry="39.5"></ellipse>
                                <ellipse id="Oval-6-Copy-4" fill="#DADADA" cx="384" cy="94.5" rx="36" ry="32.5"></ellipse>
                                <ellipse id="Oval-6-Copy-2" fill="#C7C7C9" cx="465" cy="180.5" rx="32" ry="25.5"></ellipse>
                                <ellipse id="Oval-6-Copy-2" fill="#DADADA" cx="469.5" cy="183.5" rx="25.5" ry="20.5"></ellipse>
                                <ellipse id="Oval-6-Copy-3" fill="#C7C7C9" cx="667.5" cy="266.5" rx="67.5" ry="60.5"></ellipse>
                                <ellipse id="Oval-6-Copy-3" fill="#DADADA" cx="675.5" cy="263" rx="51.5" ry="46"></ellipse>
                            </g>
                            <g id="Group-4" transform="translate(771.054799, 357.718290) rotate(15.000000) translate(-771.054799, -357.718290) translate(738.054799, 303.718290)">
                                <path d="M32.830015,107.446115 C50.9127308,107.446115 65.660469,104.371456 65.660469,100.601443 C65.660469,96.8309915 50.9127308,93.7563328 32.830015,93.7563328 C14.7472993,93.7563328 0,96.8309915 0,100.601443 C0,104.371456 14.7472993,107.446115 32.830015,107.446115" id="Fill-23" fill="#C7C7C9"></path>
                                <path d="M16.2345842,101.547019 C18.4066875,101.547019 20.1779964,101.177832 20.1779964,100.724798 C20.1779964,100.271326 18.4066875,99.9021383 16.2345842,99.9021383 C14.062481,99.9021383 12.291611,100.271326 12.291611,100.724798 C12.291611,101.177832 14.062481,101.547019 16.2345842,101.547019" id="Fill-24" fill="#80817E"></path>
                                <path d="M11.9079371,104.719133 C17.0155405,104.719133 21.1815187,102.749841 21.1815187,100.334979 C21.1815187,97.920555 17.0155405,95.9512633 11.9079371,95.9512633 C6.80033379,95.9512633 2.63391664,97.920555 2.63391664,100.334979 C2.63391664,102.749841 6.80033379,104.719133 11.9079371,104.719133" id="Fill-25" fill="#363131"></path>
                                <polyline id="Fill-26" fill="#98766B" points="9.65769436 10.7879585 16.8065831 10.7879585 16.8065831 102.029904 16.7749761 102.058438 16.7701473 102.062828 16.7315165 102.094874 16.7201029 102.104971 16.6924467 102.127359 16.6630347 102.150625 16.652499 102.158966 16.6107953 102.189695 16.5243151 102.252031 16.4795385 102.282321 16.4786605 102.283199 16.4343229 102.311733 16.4119346 102.325781 16.3873514 102.341584 16.3443307 102.368801 16.3399409 102.370996 16.2907744 102.399091 16.273654 102.409627 16.241169 102.428064 16.2016603 102.450014 16.1902466 102.456159 16.1384463 102.482938 16.1274716 102.488644 16.0857679 102.510594 16.052405 102.528153 16.0326506 102.536933 15.9777773 102.563272 15.9729485 102.565467 15.9224651 102.588733 15.89437 102.601903 15.8662749 102.614633 15.8122796 102.638778 15.8092067 102.639217 15.7503825 102.6638 15.7279943 102.673458 15.6919974 102.688383 15.6432699 102.70726 15.6318563 102.711649 15.5717152 102.734916 15.5559117 102.741061 15.5102571 102.757304 15.4672365 102.773107 15.4479211 102.780131 15.3847071 102.801203 15.3772444 102.804275 15.3206151 102.822713 15.2850573 102.834126 15.2560842 102.842906 15.1915532 102.8631 15.1906753 102.8631 15.1248273 102.883293 15.0958543 102.891634 15.0576625 102.902608 14.9992773 102.918412 14.9904976 102.920607 14.9215768 102.939044 14.9013834 102.944312 14.852656 102.956604 14.8017336 102.969334 14.7832962 102.974163 14.7117414 102.990406 14.7003278 102.993039 14.6410647 103.00577 14.597605 103.015867 14.5695099 103.021574 14.4970772 103.03606 14.4940043 103.037377 14.4233275 103.050986 14.3890866 103.057131 14.3504558 103.064155 14.282413 103.076008 14.2758282 103.077325 14.2007616 103.090055 14.1753004 103.094445 14.125695 103.102347 14.0659929 103.110688 14.0501894 103.112883 13.9733668 103.123857 13.9562463 103.126491 13.8952273 103.133954 13.8456218 103.140539 13.8179657 103.144051 13.7402652 103.15283 13.7336804 103.153269 13.6616866 103.16161 13.6208609 103.165122 13.5826691 103.168634 13.5062856 103.175219 13.5032127 103.175658 13.4224392 103.182242 13.3917102 103.184437 13.3421048 103.187949 13.2753789 103.1919 13.2608923 103.192778 13.1792409 103.198046 13.1581696 103.198485 13.0405213 103.203314 13.0159381 103.204631 12.9325307 103.206826 12.9219951 103.206826 12.8495623 103.208582 12.8025908 103.209021 12.766155 103.20946 12.6283134 103.20946 12.5743181 103.209021 12.5203228 103.209021 12.4667665 103.208143 12.4426222 103.206826 12.4136491 103.205948 12.3605318 103.204631 12.324096 103.203314 12.3074145 103.203314 12.2538582 103.200241 12.2064477 103.198485 12.2016189 103.198485 12.1489405 103.19629 12.0962622 103.192778 12.0892384 103.1919 12.0440228 103.189266 11.9917835 103.185754 11.9733461 103.184437 11.9395441 103.181365 11.8881828 103.177414 11.8574537 103.175219 11.8363824 103.173902 11.78546 103.169512 11.7437563 103.165122 11.7340986 103.163805 11.6836152 103.159415 11.6326929 103.153269 11.6309369 103.153269 11.5826484 103.147563 11.5317261 103.141856 11.4821206 103.13571 11.4320762 103.129564 11.407932 103.126491 11.3328653 103.115956 11.2977465 103.110688 11.2845769 103.108932 11.2354104 103.101469 11.1897559 103.094445 11.186683 103.093567 11.1383945 103.086105 11.090106 103.077325 11.0817653 103.076008 11.0422565 103.068984 10.9939681 103.060643 10.9755307 103.057131 10.9461186 103.051425 10.8995861 103.042206 10.870174 103.037377 10.8526145 103.033426 10.805643 103.02333 10.7591105 103.014111 10.713456 103.004014 10.6678014 102.993478 10.6221468 102.982943 10.5764923 102.971529 10.5628837 102.969334 10.5317157 102.960993 10.4869391 102.950019 10.4632339 102.944312 10.4421625 102.939044 10.3982639 102.927192 10.3543653 102.915339 10.3109057 102.903047 10.268763 102.891634 10.268324 102.890756 10.2244254 102.878025 10.1818438 102.865733 10.1397011 102.852564 10.0975584 102.839394 9.93293865 102.785399 9.89781976 102.773107 9.89299092 102.770474 9.85260419 102.756426 9.81265646 102.741939 9.77314771 102.727453 9.73495592 102.712088 9.69544717 102.697602 9.65769436 102.681359 9.65769436 10.7879585"></polyline>
                                <path d="M9.65769436,10.7879585 L16.8065831,10.7879585 L16.8065831,11.4192205 C15.8184254,12.1830563 14.5791676,12.6382849 13.2332362,12.6382849 C11.8855489,12.6382849 10.6454131,12.1830563 9.65769436,11.4187815 L9.65769436,10.7879585" id="Fill-27" fill="#16110F"></path>
                                <polyline id="Fill-28" fill="#B28E7D" points="13.2319192 10.7879585 9.65769436 10.7879585 9.65769436 102.029904 9.68930136 102.058438 9.69105731 102.059316 9.72442025 102.088728 9.74417463 102.104971 9.75953914 102.117262 9.79465803 102.145796 9.80124282 102.150625 9.83241083 102.17433 9.86972465 102.201548 9.90835543 102.229643 9.94698621 102.257299 9.98561698 102.283199 9.98781191 102.283638 10.0277597 102.311294 10.0523429 102.325781 10.0703413 102.337194 10.112484 102.363533 10.1199467 102.368801 10.1563826 102.388995 10.1906235 102.409627 10.2002812 102.414895 10.2454968 102.439917 10.2626172 102.450014 10.2911513 102.464939 10.3363669 102.488644 10.3376838 102.489522 10.3855333 102.514545 10.4118725 102.528153 10.4329438 102.53825 10.4816713 102.560638 10.491329 102.565467 10.5312767 102.584343 10.5699075 102.601903 10.5813211 102.607171 10.6331215 102.629998 10.6519979 102.638778 10.6844829 102.651947 10.7354053 102.673458 10.7371612 102.673897 10.7898395 102.695407 10.8210075 102.70726 10.8433958 102.716478 10.8978301 102.736672 10.9083658 102.741061 10.9527034 102.757304 10.997041 102.773107 11.0093326 102.776619 11.0655228 102.796374 11.0870331 102.804275 11.122152 102.815689 11.1792202 102.834126 11.1796592 102.834565 11.2384833 102.852564 11.2727243 102.8631 11.2973075 102.870562 11.3570096 102.888122 11.3684232 102.891634 11.4167117 102.904803 11.4650002 102.918412 11.4772918 102.921924 11.5387498 102.938166 11.5628941 102.944312 11.6010859 102.953531 11.6625439 102.969334 11.6634219 102.969334 11.7257579 102.984699 11.7635107 102.993039 11.7898499 102.998746 11.8535029 103.012794 11.8666725 103.015867 11.9180338 103.026841 11.9702732 103.037377 11.9834428 103.039572 12.0488517 103.052303 12.0747519 103.057131 12.1151386 103.064155 12.1818645 103.076008 12.2485904 103.08786 12.2889771 103.094445 12.3157552 103.098396 12.3833591 103.108932 12.3978456 103.110688 12.4527189 103.119028 12.5080312 103.126491 12.5207618 103.128247 12.5901216 103.136588 12.6603593 103.145368 12.7305971 103.153269 12.8008349 103.161171 12.8710727 103.168195 12.9426274 103.174341 12.9579919 103.175219 13.0141821 103.180048 13.0725673 103.184437 13.0866148 103.185754 13.1590476 103.190583 13.1888986 103.1919 13.2319192 103.194534 13.2319192 10.7879585"></polyline>
                                <path d="M13.2319192,10.7879585 L9.65769436,10.7879585 L9.65769436,11.4192205 C10.6458521,12.1830563 11.8851099,12.6382849 13.2310413,12.6382849 L13.2319192,10.7879585" id="Fill-29" fill="#463229"></path>
                                <path d="M12.8723896,0.691278017 C16.1033274,0.692155989 18.7210015,3.30983015 18.7210015,6.5407679 C18.7210015,9.77038869 16.1033274,12.3898188 12.8723896,12.3898188 C9.64276883,12.3898188 7.02377772,9.77082768 7.02377772,6.5407679 C7.02377772,3.30983015 9.64145188,0.691278017 12.8723896,0.691278017" id="Fill-30" fill="#98766B"></path>
                                <path d="M9.94124803,11.6020355 C7.14666247,9.9826157 6.19318464,6.40531791 7.81304338,3.60897641 C9.43114617,0.813951864 13.0097609,-0.139086976 15.8061024,1.48033277 L9.94124803,11.6020355" id="Fill-31" fill="#B28E7D"></path>
                                <path d="M18.7210015,6.39809741 C18.7210015,9.62815719 16.1033274,12.2471483 12.8723896,12.2471483 C9.64145188,12.2471483 7.02377772,9.62815719 7.02377772,6.39809741 C7.02377772,10.5653925 12.3526301,10.9468715 12.8478064,10.9468715 C14.8061234,10.9468715 18.7210015,10.1852306 18.7210015,6.39809741" id="Fill-32" fill="#463229"></path>
                                <path d="M7.02377772,6.39809741 C7.02377772,9.62815719 9.64145188,12.2471483 12.8723896,12.2471483 L12.8723896,10.9468715 C10.9070488,10.9416036 7.02377772,9.75019533 7.02377772,6.39809741" id="Fill-33" fill="#60392F"></path>
                                <path d="M9.65769436,12.1049168 C10.870174,12.6646241 12.0413889,13.0096672 13.2327972,13.0096672 C14.3807459,13.0096672 15.6147358,12.8362677 16.8061441,12.1049168 L57.4874257,12.1049168 L52.1133578,29.1678678 L57.4874257,46.2312578 L16.8048272,46.2312578 C15.7003381,46.7694548 14.4224496,47.1355692 13.2310413,47.1355692 C12.039633,47.1355692 10.6765811,46.6829745 9.65769436,46.2312578 C9.65769436,34.8558108 9.65769436,23.4803638 9.65769436,12.1049168" id="Fill-34" fill="#FFFFFF"></path>
                                <path d="M13.1695832,13.0096672 L13.1704612,13.0096672 C14.3184099,13.0096672 15.5523998,12.8362677 16.7438081,12.1049168 L16.7438081,46.2312578 L16.7424911,46.2312578 C15.6380021,46.7694548 14.3605525,47.1355692 13.1695832,47.1355692 L13.1695832,13.0096672" id="Fill-35" fill="#E9E9EA"></path>
                                <polyline id="Fill-36" fill="#E9E9EA" points="45.0026608 12.1049168 57.477768 12.1049168 57.477768 46.2312578 28.9730831 46.2312578 45.0026608 12.1049168"></polyline>
                            </g>
                            <g id="Group-3" opacity="0.5" transform="translate(0.000000, 21.000000)" fill="#FFFFFE">
                                <path d="M12,44.9996217 C8.68675914,44.9996217 6,42.3137885 6,39 C6,42.3137885 3.31399748,44.9996217 0,44.9996217 C3.31399748,44.9996217 6,47.6862115 6,51 C6,47.6862115 8.68675914,44.9996217 12,44.9996217" id="Fill-49"></path>
                                <path d="M132,45.5003789 C129.515072,45.5003789 127.5,43.4858947 127.5,41 C127.5,43.4858947 125.485685,45.5003789 123,45.5003789 C125.485685,45.5003789 127.5,47.5148632 127.5,50 C127.5,47.5148632 129.515072,45.5003789 132,45.5003789" id="Fill-50"></path>
                                <path d="M22,123.000366 C17.58144,123.000366 13.9996343,119.41856 13.9996343,115 C13.9996343,119.41856 10.4178286,123.000366 6,123.000366 C10.4178286,123.000366 13.9996343,126.582171 13.9996343,131 C13.9996343,126.582171 17.58144,123.000366 22,123.000366" id="Fill-51"></path>
                                <path d="M57,8.5 C52.3055965,8.5 48.5,4.69440353 48.5,0 C48.5,4.69440353 44.6944035,8.5 40,8.5 C44.6944035,8.5 48.5,12.3055965 48.5,17 C48.5,12.3055965 52.3055965,8.5 57,8.5" id="Fill-52"></path>
                            </g>
                            <g id="Group-3-Copy" transform="translate(45.000000, 115.000000)" fill="#FFFFFE">
                                <path d="M8,29.9997478 C5.79117276,29.9997478 4,28.2091924 4,26 C4,28.2091924 2.20933165,29.9997478 0,29.9997478 C2.20933165,29.9997478 4,31.7908076 4,34 C4,31.7908076 5.79117276,29.9997478 8,29.9997478" id="Fill-49"></path>
                                <path d="M87,30.0002526 C85.3433816,30.0002526 84,28.6572632 84,27 C84,28.6572632 82.6571236,30.0002526 81,30.0002526 C82.6571236,30.0002526 84,31.3432421 84,33 C84,31.3432421 85.3433816,30.0002526 87,30.0002526" id="Fill-50"></path>
                                <path d="M15,81.5002514 C11.96224,81.5002514 9.49974857,79.03776 9.49974857,76 C9.49974857,79.03776 7.03725714,81.5002514 4,81.5002514 C7.03725714,81.5002514 9.49974857,83.9627429 9.49974857,87 C9.49974857,83.9627429 11.96224,81.5002514 15,81.5002514" id="Fill-51"></path>
                                <path d="M37,5.5 C33.9624448,5.5 31.5,3.03755523 31.5,0 C31.5,3.03755523 29.0375552,5.5 26,5.5 C29.0375552,5.5 31.5,7.96244477 31.5,11 C31.5,7.96244477 33.9624448,5.5 37,5.5" id="Fill-52"></path>
                            </g>
                            <g id="Group-3-Copy-2" transform="translate(85.000000, 380.000000)" fill="#FFFFFE">
                                <path d="M12,44.9996217 C8.68675914,44.9996217 6,42.3137885 6,39 C6,42.3137885 3.31399748,44.9996217 0,44.9996217 C3.31399748,44.9996217 6,47.6862115 6,51 C6,47.6862115 8.68675914,44.9996217 12,44.9996217" id="Fill-49"></path>
                                <path d="M132,45.5003789 C129.515072,45.5003789 127.5,43.4858947 127.5,41 C127.5,43.4858947 125.485685,45.5003789 123,45.5003789 C125.485685,45.5003789 127.5,47.5148632 127.5,50 C127.5,47.5148632 129.515072,45.5003789 132,45.5003789" id="Fill-50"></path>
                                <path d="M22,123.000366 C17.58144,123.000366 13.9996343,119.41856 13.9996343,115 C13.9996343,119.41856 10.4178286,123.000366 6,123.000366 C10.4178286,123.000366 13.9996343,126.582171 13.9996343,131 C13.9996343,126.582171 17.58144,123.000366 22,123.000366" id="Fill-51"></path>
                                <path d="M57,8.5 C52.3055965,8.5 48.5,4.69440353 48.5,0 C48.5,4.69440353 44.6944035,8.5 40,8.5 C44.6944035,8.5 48.5,12.3055965 48.5,17 C48.5,12.3055965 52.3055965,8.5 57,8.5" id="Fill-52"></path>
                            </g>
                            <g id="Group-3-Copy-3" opacity="0.5" transform="translate(701.000000, 109.000000)" fill="#FFFFFE">
                                <path d="M13,47.4995902 C9.41065574,47.4995902 6.5,44.5899376 6.5,41 C6.5,44.5899376 3.59016393,47.4995902 0,47.4995902 C3.59016393,47.4995902 6.5,50.4100624 6.5,54 C6.5,50.4100624 9.41065574,47.4995902 13,47.4995902" id="Fill-49"></path>
                                <path d="M140,48.5003789 C137.515072,48.5003789 135.5,46.4858947 135.5,44 C135.5,46.4858947 133.485685,48.5003789 131,48.5003789 C133.485685,48.5003789 135.5,50.5148632 135.5,53 C135.5,50.5148632 137.515072,48.5003789 140,48.5003789" id="Fill-50"></path>
                                <path d="M23,130.500389 C18.30528,130.500389 14.4996114,126.69472 14.4996114,122 C14.4996114,126.69472 10.6939429,130.500389 6,130.500389 C10.6939429,130.500389 14.4996114,134.306057 14.4996114,139 C14.4996114,134.306057 18.30528,130.500389 23,130.500389" id="Fill-51"></path>
                                <path d="M60,9 C55.0294551,9 51,4.97054492 51,0 C51,4.97054492 46.9705449,9 42,9 C46.9705449,9 51,13.0294551 51,18 C51,13.0294551 55.0294551,9 60,9" id="Fill-52"></path>
                            </g>
                            <g id="Group-16" transform="translate(701.000000, 0.000000)">
                                <polyline id="Fill-539" fill="#FFFFFE" points="82 67.3635803 95.6727702 48 126 69.6364197 112.32723 89 82 67.3635803"></polyline>
                                <polyline id="Fill-540" fill="#5498C1" points="97.9283483 75 85 65.7403189 96.0716517 50 109 59.2596811 97.9283483 75"></polyline>
                                <polyline id="Fill-541" fill="#5498C1" points="111.927976 86 99 76.7411324 110.072024 61 123 70.2588676 111.927976 86"></polyline>
                                <polyline id="Fill-542" fill="#FFFFFE" points="15 19.3635351 28.6725181 0 59 21.6364649 45.3274819 41 15 19.3635351"></polyline>
                                <polyline id="Fill-543" fill="#5498C1" points="29.9287826 27 17 17.7406202 28.0720236 2 41 11.2593798 29.9287826 27"></polyline>
                                <polyline id="Fill-544" fill="#5498C1" points="43.9283483 38 31 28.7403189 42.0716517 13 55 22.258054 43.9283483 38"></polyline>
                                <polyline id="Fill-545" fill="#FFFFFE" points="0 39.3631499 13.6725181 20 44 41.6360345 30.3274819 61 0 39.3631499"></polyline>
                                <polyline id="Fill-546" fill="#5498C1" points="14.9279764 48 2 38.7411324 13.0720236 23 26 32.2596811 14.9279764 48"></polyline>
                                <polyline id="Fill-547" fill="#5498C1" points="29.9279764 58 17 48.7408311 28.0720236 33 41 42.2599824 29.9279764 58"></polyline>
                                <polyline id="Fill-548" fill="#FFFFFE" points="68 87.3635351 81.6725181 68 112 89.6364649 98.3274819 109 68 87.3635351"></polyline>
                                <polyline id="Fill-549" fill="#5498C1" points="82.9279764 95 70 85.7408311 81.0720236 70 94 79.2599824 82.9279764 95"></polyline>
                                <polyline id="Fill-550" fill="#5498C1" points="97.9283483 106 85 96.7411324 96.0716517 81 109 90.2588676 97.9283483 106"></polyline>
                                <path d="M39.553627,82.2645261 C40.5123575,80.9127762 42.3852263,80.5948631 43.7362022,81.5535569 C45.0871782,82.5130763 45.4051034,84.3850476 44.446373,85.7367975 C43.4868167,87.0877216 41.6147737,87.404809 40.2637978,86.4461153 C38.9128218,85.4874215 38.5948966,83.6154502 39.553627,82.2645261" id="Fill-551" fill="#B6B8B5"></path>
                                <path d="M44.831045,72.89575 C46.2689206,70.8686999 49.0777753,70.3923633 51.1048253,71.831045 C53.1310694,73.2689206 53.607406,76.0777753 52.1695303,78.1048253 C50.7316547,80.1310694 47.921994,80.607406 45.89575,79.1695303 C43.8686999,77.7316547 43.3923633,74.921994 44.831045,72.89575" id="Fill-552" fill="#B6B8B5"></path>
                                <polyline id="Fill-553" fill="#B6B8B5" points="48.3210965 71 51 72.867355 43.6789035 83 41 81.1318507 48.3210965 71"></polyline>
                                <polyline id="Fill-554" fill="#B6B8B5" points="85.3216885 19 88 20.8680257 80.6791202 31 78 29.1319743 85.3216885 19"></polyline>
                                <polyline id="Fill-555" fill="#B6B8B5" points="92 21.4557327 90.0972807 24 82 18.5458037 83.9035287 16 92 21.4557327"></polyline>
                                <polyline id="Fill-556" fill="#FFFFFE" points="59.6141658 83 36 66.2201801 62.3858342 29 86 45.7806236 59.6141658 83"></polyline>
                                <polyline id="Fill-557" fill="#B6B8B5" points="77.8961546 72 71 67.5375 72.1038454 66 79 70.46325 77.8961546 72"></polyline>
                                <polyline id="Fill-558" fill="#B6B8B5" points="69.8805909 84 63 79.464939 64.1194091 78 71 82.535061 69.8805909 84"></polyline>
                                <polyline id="Fill-559" fill="#B6B8B5" points="33.1349028 56 40 60.6102001 38.8659161 62 32 57.3905746 33.1349028 56"></polyline>
                                <polyline id="Fill-560" fill="#B6B8B5" points="41.1038454 44 48 48.4630579 46.8961546 50 40 45.5369421 41.1038454 44"></polyline>
                                <polyline id="Fill-561" fill="#B6B8B5" points="92.8812968 52 86 47.464939 87.1187032 46 94 50.5358232 92.8812968 52"></polyline>
                                <polyline id="Fill-562" fill="#B6B8B5" points="84.8805909 63 78 58.464939 79.1202298 57 86 61.5358232 84.8805909 63"></polyline>
                                <polyline id="Fill-563" fill="#B6B8B5" points="48.1349028 36 55 40.6102001 53.8650972 42 47 37.3897999 48.1349028 36"></polyline>
                                <polyline id="Fill-564" fill="#B6B8B5" points="56.1350189 24 63 28.6094254 61.8658 30 55 25.3897999 56.1350189 24"></polyline>
                                <path d="M86.3235454,45.8918792 C81.6888591,52.4219569 72.638119,53.9580202 66.1080824,49.3233048 C59.5780458,44.6885894 58.0419921,35.6377924 62.6766784,29.1077147 C67.3113646,22.5784408 76.3621047,21.0415736 82.8921413,25.6770928 C89.4213742,30.3110045 90.9582316,39.3618015 86.3235454,45.8918792" id="Fill-565" fill="#FFFFFE"></path>
                                <polyline id="Fill-566" fill="#B6B8B5" points="32 102.413791 31.570774 103 15 91.5862092 15.4283973 91 32 102.413791"></polyline>
                                <polyline id="Fill-567" fill="#B6B8B5" points="15.5862092 93 15 92.5716027 26.4145949 76 27 76.4283973 15.5862092 93"></polyline>
                                <polyline id="Fill-568" fill="#B6B8B5" points="15.1224976 92 15 91.2924188 34.8766802 88 35 88.7075812 15.1224976 92"></polyline>
                                <path d="M42.7679528,86.4183101 C41.2640237,77.6442322 32.8603893,71.7401797 24,73.2299949 L29.4474379,105 C38.3078272,103.510997 44.2718819,95.1915762 42.7679528,86.4183101" id="Fill-569" fill="#FFFFFE"></path>
                                <path d="M14.6650973,90.0283616 C15.753625,89.8441665 16.7865235,90.5764358 16.9714529,91.6650662 C17.1563823,92.7544483 16.4234303,93.7866924 15.3349027,93.9716393 C14.2456233,94.1558343 13.2134765,93.423565 13.0285471,92.3341829 C12.8436177,91.2455525 13.5765697,90.2133084 14.6650973,90.0283616" id="Fill-570" fill="#FFFFFE"></path>
                                <path d="M65.0812244,42.3649841 C66.1213593,40.9080423 68.1702804,40.5617988 69.6348289,41.5965313 L71.627483,43.0030958 C73.0928353,44.0378283 73.4400828,46.0761074 72.4007518,47.5330491 L55.9185523,70.6346118 C54.8792212,72.0923532 52.8303002,72.4377971 51.3649478,71.4038642 L49.3722937,69.9965001 C47.9077452,68.9625672 47.5596939,66.9242881 48.599025,65.4673464 L65.0812244,42.3649841" id="Fill-571" fill="#E5E6E3"></path>
                            </g>
                            <g id="Group-5" transform="translate(488.009381, 363.227889) rotate(-27.000000) translate(-488.009381, -363.227889) translate(449.509381, 324.227889)">
                                <polyline id="Fill-643" fill="#9FA2A1" points="16 42.9969869 13.0057915 43 13 31.0024105 15.9942085 31 16 42.9969869"></polyline>
                                <polygon id="Fill-644" fill="#FFFFFE" points="70 31 72 31 72 3 70 3"></polygon>
                                <polyline id="Fill-645" fill="#E5E6E3" points="61 20.0262895 56.9341317 17 44 32.9737105 48.0658683 36 61 20.0262895"></polyline>
                                <polyline id="Fill-646" fill="#FFFFFE" points="73 3.89406657 70.5532739 2 58 18.1047757 60.4525378 20 73 3.89406657"></polyline>
                                <path d="M16,30.4975671 C16,31.8785552 14.8852857,32.9989184 13.5000098,32.9999998 C12.120145,33.0005405 11.0000195,31.8817995 11.0000195,30.5013521 C10.9946083,29.1209046 12.1147338,28.0005415 13.5000098,28.0000008 C14.8798745,27.9989194 16,29.1171196 16,30.4975671" id="Fill-647" fill="#B6B8B5"></path>
                                <path d="M18,39.9971851 C18,42.2068959 16.2109705,43.9983099 14.0056259,43.9999988 C11.7946554,44.0016878 10.0056259,42.2125257 10,40.0033779 C10,37.7936671 11.7890295,36.0016901 14,36.0000012 C16.2053446,35.9983122 17.9943741,37.7880373 18,39.9971851" id="Fill-648" fill="#B6B8B5"></path>
                                <path d="M50,34.9966221 C50,37.2057699 48.2097115,38.9983099 46.0028149,38.9999988 C43.7902885,39.0016878 42,37.2119627 42,35.0028149 C42,32.7936671 43.7846587,31.0016901 45.9971851,31.0000012 C48.2040816,30.9983122 50,32.7880373 50,34.9966221" id="Fill-649" fill="#B6B8B5"></path>
                                <path d="M73.9999835,2.99782016 C74.0054331,4.65449555 72.6593877,5.99836446 71.0027165,5.99999934 C69.3460453,6.00108925 68.0054496,4.65885522 68,3.00217984 C68,1.34550445 69.3405958,0.00109058159 70.997267,6.63573969e-07 C72.6539382,-0.00108925444 73.9999835,1.34059982 73.9999835,2.99782016" id="Fill-650" fill="#B6B8B5"></path>
                                <polyline id="Fill-651" fill="#B6B8B5" points="12 10 12 9.01982759 29.9942345 9 30 9.98103448 12 10"></polyline>
                                <polyline id="Fill-652" fill="#B6B8B5" points="29 9.0005767 29.9827586 9 30 26.9994233 29.0258621 27 29 9.0005767"></polyline>
                                <polyline id="Fill-653" fill="#B6B8B5" points="29.5393701 10 30 10.4566386 17.4549431 23 17 22.5433614 29.5393701 10"></polyline>
                                <path d="M11.2951578,28.7166522 C17.0162326,34.4337707 26.2847216,34.4268106 32,28.701572 L11.2777686,8 C5.5682866,13.7252386 5.57408303,23.0001136 11.2951578,28.7166522" id="Fill-654" fill="#FFFFFE"></path>
                                <path d="M31.4150665,11.4129546 C30.6351551,12.194696 29.3707533,12.1958778 28.5849335,11.4153181 C27.8050222,10.6347585 27.8050222,9.36849099 28.5849335,8.58674957 C29.3648449,7.80500814 30.6292467,7.80441726 31.4150665,8.58497691 C32.1949778,9.36494568 32.1949778,10.631804 31.4150665,11.4129546" id="Fill-655" fill="#FFFFFE"></path>
                                <polyline id="Fill-656" fill="#E5E6E3" points="67.006016 53 67 47.0097664 75.993984 47 76 52.9896591 67.006016 53"></polyline>
                                <polyline id="Fill-657" fill="#B6B8B5" points="61.0057692 54 61 48.0076368 66.9942308 48 67 53.9923632 61.0057692 54"></polyline>
                                <path d="M75.994152,47 L75.619883,47.0005702 C75.2807018,47.0011404 75,47.2737048 75,47.6072825 L75.005848,53.3938579 C75.005848,53.7280059 75.2865497,54 75.6315789,54 L76,53.9994298 L75.994152,47" id="Fill-658" fill="#50B3D9"></path>
                                <polyline id="Fill-659" fill="#D7EEF3" points="67 49 67 48.0144558 75 48 75 48.9863946 67 49"></polyline>
                                <polyline id="Fill-660" fill="#D7EEF3" points="61 49 61 48.0094017 66 48 66 48.9905983 61 49"></polyline>
                                <path d="M76.01,50.4994181 L76.01,50.4988362 L76,47 C76,47 76.72,47.263591 76.73,50.4988362 L76.73,50.5 C76.73,53.7358271 76.01,54 76.01,54 L76.01,50.4994181" id="Fill-661" fill="#FFFFFE"></path>
                                <polyline id="Fill-662" fill="#B6B8B5" points="54.1222897 60 0 60 6.87771032 72 54.1222897 72 61 60 54.1222897 60"></polyline>
                                <path d="M13,72 C13,75.3135039 10.3168071,78 7.00297471,78 C3.68319286,78 1,75.3135039 1,72 C1,68.6859012 3.68319286,66 7.00297471,66 C10.3168071,66 13,68.6859012 13,72" id="Fill-663" fill="#1B1A19"></path>
                                <path d="M10,71.5 C10,73.4327173 8.43309002,75 6.50283861,75 C4.56690998,75 3,73.4327173 3,71.5 C3,69.5667153 4.56690998,68 6.50283861,68 C8.43309002,68 10,69.5667153 10,71.5" id="Fill-664" fill="#3A3A39"></path>
                                <path d="M25,72 C25,75.3135039 22.3168071,78 19.0029747,78 C15.6891423,78 13,75.3135039 13,72 C13,68.6859012 15.6891423,66 19.0029747,66 C22.3168071,66 25,68.6859012 25,72" id="Fill-665" fill="#1B1A19"></path>
                                <path d="M22,71.5 C22,73.4327173 20.4286872,75 18.5,75 C16.5656402,75 15,73.4327173 15,71.5 C15,69.5667153 16.5656402,68 18.5,68 C20.4286872,68 22,69.5667153 22,71.5" id="Fill-666" fill="#3A3A39"></path>
                                <path d="M36,72 C36,75.3135039 33.3168071,78 30.0029747,78 C26.6891423,78 24,75.3135039 24,72 C24,68.6859012 26.6891423,66 30.0029747,66 C33.3168071,66 36,68.6859012 36,72" id="Fill-667" fill="#1B1A19"></path>
                                <path d="M34,71.5 C34,73.4327173 32.4286872,75 30.5,75 C28.5656402,75 27,73.4327173 27,71.5 C27,69.5667153 28.5656402,68 30.5,68 C32.4286872,68 34,69.5667153 34,71.5" id="Fill-668" fill="#3A3A39"></path>
                                <path d="M48,72 C48,75.3135039 45.3121903,78 42,78 C38.6878097,78 36,75.3135039 36,72 C36,68.6859012 38.6878097,66 42,66 C45.3121903,66 48,68.6859012 48,72" id="Fill-669" fill="#1B1A19"></path>
                                <path d="M45,71.5 C45,73.4327173 43.4343598,75 41.5,75 C39.5656402,75 38,73.4327173 38,71.5 C38,69.5667153 39.5656402,68 41.5,68 C43.4343598,68 45,69.5667153 45,71.5" id="Fill-670" fill="#3A3A39"></path>
                                <path d="M60,72 C60,75.3135039 57.3108577,78 53.9970253,78 C50.6831929,78 48,75.3135039 48,72 C48,68.6859012 50.6831929,66 53.9970253,66 C57.3108577,66 60,68.6859012 60,72" id="Fill-671" fill="#1B1A19"></path>
                                <path d="M57,71.5 C57,73.4327173 55.4343598,75 53.5,75 C51.5656402,75 50,73.4327173 50,71.5 C50,69.5667153 51.5656402,68 53.5,68 C55.4343598,68 57,69.5667153 57,71.5" id="Fill-672" fill="#3A3A39"></path>
                                <polyline id="Fill-673" fill="#FFFFFE" points="55.7270888 40 0 40 0 60 61 60 61 47.8189821 55.7270888 40"></polyline>
                                <polygon id="Fill-674" fill="#9FA2A1" points="41 39 52 39 52 37 41 37"></polygon>
                                <path d="M67.8916225,34.0002821 C67.8916225,32.8355507 68.8374337,31.8909305 70.0028083,31.8903675 C71.1681829,31.8898046 72.1139941,32.832736 72.1139941,33.9985932 C72.1139941,35.1633246 71.1681829,36.1085078 70.0028083,36.1096337 L70.0028083,38 C72.215331,37.9977482 74.0056166,36.2064601 73.9999868,33.9969044 C73.9999868,31.7879117 72.2097012,29.9983124 69.9971785,30.0000012 C67.7902856,30.00169 66,31.7924153 66,34.0002821 L67.8916225,34.0002821" id="Fill-675" fill="#B6B8B5"></path>
                                <polygon id="Fill-676" fill="#50B3D9" points="0 52 61 52 61 48 0 48"></polygon>
                            </g>
                        </g>
                    </g>
                </g>
            </g>
        </g>
    </g>
</svg>