<svg width="30" height="29" viewBox="0 0 30 29" fill="none" xmlns="http://www.w3.org/2000/svg">
<path d="M4.5 9.1579C6.98528 9.1579 9 7.10783 9 4.57895C9 2.05006 6.98528 0 4.5 0C2.01472 0 0 2.05006 0 4.57895C0 7.10783 2.01472 9.1579 4.5 9.1579Z" fill="#F8B243"/>
<path d="M13.5 29.0001C16.8137 29.0001 19.5 26.2667 19.5 22.8948C19.5 19.523 16.8137 16.7896 13.5 16.7896C10.1863 16.7896 7.5 19.523 7.5 22.8948C7.5 26.2667 10.1863 29.0001 13.5 29.0001Z" fill="#D5401A"/>
<path d="M25.5 13.7368C27.9853 13.7368 30 11.6867 30 9.1578C30 6.62892 27.9853 4.57886 25.5 4.57886C23.0147 4.57886 21 6.62892 21 9.1578C21 11.6867 23.0147 13.7368 25.5 13.7368Z" fill="#15ADC2"/>
</svg>
