<?xml version="1.0" encoding="UTF-8"?>
<svg width="12530px" height="174px" viewBox="0 0 12530 174" version="1.1" xmlns="http://www.w3.org/2000/svg" xmlns:xlink="http://www.w3.org/1999/xlink">
    <!-- Generator: Sketch 49.1 (51147) - http://www.bohemiancoding.com/sketch -->
    <title>Group 24</title>
    <desc>Created with Sketch.</desc>
    <defs></defs>
    <g id="Page-1" stroke="none" stroke-width="1" fill="none" fill-rule="evenodd">
        <g id="Group-24" fill="#275489">
            <g id="Group-22">
                <path d="M1811,174 L1530.75747,174 L1335.52354,174 L788.274285,174 C787.437605,171.967226 786.678207,169.89452 786,167.785498 L786.000001,116.559696 C796.857013,82.7846006 828.591393,58.3400767 866.049709,58.3400767 C888.213135,58.3400767 908.369005,66.9132157 923.385529,80.9079969 C935.944804,73.3444052 950.666887,68.9803837 966.411485,68.9803837 C972.262843,68.9803837 977.969658,69.589317 983.483747,70.7324021 C1006.85706,28.5717882 1051.86381,0 1103.57847,0 C1160.89287,0 1209.96827,35.0831005 1230.48282,84.898112 C1237.528,82.964482 1244.94793,81.9122026 1252.60877,81.9122026 C1283.73355,81.9122026 1310.87544,98.9254113 1325.20277,124.138236 C1330.58124,121.664818 1336.56458,120.28307 1342.87011,120.28307 C1345.8486,120.28307 1348.75351,120.594536 1351.56032,121.179217 C1363.45793,99.6143054 1386.3675,85 1412.69157,85 C1441.86605,85 1466.84666,102.944804 1477.28909,128.424896 C1480.87527,127.435856 1484.6522,126.897621 1488.55176,126.897621 C1502.58583,126.897621 1515.02911,133.725773 1522.75698,144.248733 C1528.17606,125.343408 1545.51118,111.517053 1566.05914,111.517053 C1577.94098,111.517053 1588.74656,116.148519 1596.79694,123.708918 C1603.52998,119.62284 1611.4225,117.265265 1619.8632,117.265265 C1623.00012,117.265265 1626.05955,117.594229 1629.01565,118.211757 C1641.54611,95.4353338 1665.67428,80 1693.39856,80 C1724.12488,80 1750.43425,98.9529394 1761.43212,125.864497 C1765.20906,124.819893 1769.18689,124.25142 1773.29387,124.25142 C1789.13992,124.25142 1803.06031,132.540399 1811,145.040463 L1811,174 Z" id="Combined-Shape-Copy-2"></path>
                <path d="M2608,174 L2327.75747,174 L2132.52354,174 L1585.27428,174 C1584.4376,171.967226 1583.67821,169.89452 1583,167.785498 L1583,116.559696 C1593.85701,82.7846006 1625.59139,58.3400767 1663.04971,58.3400767 C1685.21314,58.3400767 1705.369,66.9132157 1720.38553,80.9079969 C1732.9448,73.3444052 1747.66689,68.9803837 1763.41148,68.9803837 C1769.26284,68.9803837 1774.96966,69.589317 1780.48375,70.7324021 C1803.85706,28.5717882 1848.86381,0 1900.57847,0 C1957.89287,0 2006.96827,35.0831005 2027.48282,84.898112 C2034.528,82.964482 2041.94793,81.9122026 2049.60877,81.9122026 C2080.73355,81.9122026 2107.87544,98.9254113 2122.20277,124.138236 C2127.58124,121.664818 2133.56458,120.28307 2139.87011,120.28307 C2142.8486,120.28307 2145.75351,120.594536 2148.56032,121.179217 C2160.45793,99.6143054 2183.3675,85 2209.69157,85 C2238.86605,85 2263.84666,102.944804 2274.28909,128.424896 C2277.87527,127.435856 2281.6522,126.897621 2285.55176,126.897621 C2299.58583,126.897621 2312.02911,133.725773 2319.75698,144.248733 C2325.17606,125.343408 2342.51118,111.517053 2363.05914,111.517053 C2374.94098,111.517053 2385.74656,116.148519 2393.79694,123.708918 C2400.52998,119.62284 2408.4225,117.265265 2416.8632,117.265265 C2420.00012,117.265265 2423.05955,117.594229 2426.01565,118.211757 C2438.54611,95.4353338 2462.67428,80 2490.39856,80 C2521.12488,80 2547.43425,98.9529394 2558.43212,125.864497 C2562.20906,124.819893 2566.18689,124.25142 2570.29387,124.25142 C2586.13992,124.25142 2600.06031,132.540399 2608,145.040463 L2608,174 Z" id="Combined-Shape-Copy-10"></path>
                <path d="M2815,174 L2428.27428,174 C2427.4376,171.967226 2426.67821,169.89452 2426,167.785498 L2426,116.559696 C2436.85701,82.7846006 2468.59139,58.3400767 2506.04971,58.3400767 C2528.21314,58.3400767 2548.369,66.9132157 2563.38553,80.9079969 C2575.9448,73.3444052 2590.66689,68.9803837 2606.41148,68.9803837 C2612.26284,68.9803837 2617.96966,69.589317 2623.48375,70.7324021 C2646.85706,28.5717882 2691.86381,0 2743.57847,0 C2769.74817,0 2794.20018,7.31421772 2815,20.005363 L2815,174 Z" id="Combined-Shape"></path>
                <path d="M1025,174 L744.75747,174 L549.52354,174 L2.27428498,174 C1.43760474,171.967226 0.678206631,169.89452 -1.55320201e-13,167.785498 L1.03116145e-06,116.559696 C10.8570129,82.7846006 42.5913934,58.3400767 80.0497091,58.3400767 C102.213135,58.3400767 122.369005,66.9132157 137.385529,80.9079969 C149.944804,73.3444052 164.666887,68.9803837 180.411485,68.9803837 C186.262843,68.9803837 191.969658,69.589317 197.483747,70.7324021 C220.857061,28.5717882 265.863806,0 317.578467,0 C374.892873,0 423.968266,35.0831005 444.482819,84.898112 C451.528005,82.964482 458.947935,81.9122026 466.608771,81.9122026 C497.733545,81.9122026 524.875441,98.9254113 539.202774,124.138236 C544.581238,121.664818 550.564577,120.28307 556.870106,120.28307 C559.848595,120.28307 562.753508,120.594536 565.560319,121.179217 C577.457926,99.6143054 600.367497,85 626.691566,85 C655.866047,85 680.846663,102.944804 691.289089,128.424896 C694.875266,127.435856 698.652198,126.897621 702.551757,126.897621 C716.585828,126.897621 729.029109,133.725773 736.756982,144.248733 C742.17606,125.343408 759.511181,111.517053 780.05914,111.517053 C791.940977,111.517053 802.74656,116.148519 810.796935,123.708918 C817.529976,119.62284 825.4225,117.265265 833.863196,117.265265 C837.000116,117.265265 840.059546,117.594229 843.015655,118.211757 C855.546114,95.4353338 879.674278,80 907.398564,80 C938.124879,80 964.434251,98.9529394 975.432125,125.864497 C979.209057,124.819893 983.186889,124.25142 987.293872,124.25142 C1003.13992,124.25142 1017.06031,132.540399 1025,145.040463 L1025,174 Z" id="Combined-Shape-Copy-9"></path>
            </g>
            <g id="Group-22-Copy" transform="translate(2436.000000, 0.000000)">
                <path d="M1811,174 L1530.75747,174 L1335.52354,174 L788.274285,174 C787.437605,171.967226 786.678207,169.89452 786,167.785498 L786.000001,116.559696 C796.857013,82.7846006 828.591393,58.3400767 866.049709,58.3400767 C888.213135,58.3400767 908.369005,66.9132157 923.385529,80.9079969 C935.944804,73.3444052 950.666887,68.9803837 966.411485,68.9803837 C972.262843,68.9803837 977.969658,69.589317 983.483747,70.7324021 C1006.85706,28.5717882 1051.86381,0 1103.57847,0 C1160.89287,0 1209.96827,35.0831005 1230.48282,84.898112 C1237.528,82.964482 1244.94793,81.9122026 1252.60877,81.9122026 C1283.73355,81.9122026 1310.87544,98.9254113 1325.20277,124.138236 C1330.58124,121.664818 1336.56458,120.28307 1342.87011,120.28307 C1345.8486,120.28307 1348.75351,120.594536 1351.56032,121.179217 C1363.45793,99.6143054 1386.3675,85 1412.69157,85 C1441.86605,85 1466.84666,102.944804 1477.28909,128.424896 C1480.87527,127.435856 1484.6522,126.897621 1488.55176,126.897621 C1502.58583,126.897621 1515.02911,133.725773 1522.75698,144.248733 C1528.17606,125.343408 1545.51118,111.517053 1566.05914,111.517053 C1577.94098,111.517053 1588.74656,116.148519 1596.79694,123.708918 C1603.52998,119.62284 1611.4225,117.265265 1619.8632,117.265265 C1623.00012,117.265265 1626.05955,117.594229 1629.01565,118.211757 C1641.54611,95.4353338 1665.67428,80 1693.39856,80 C1724.12488,80 1750.43425,98.9529394 1761.43212,125.864497 C1765.20906,124.819893 1769.18689,124.25142 1773.29387,124.25142 C1789.13992,124.25142 1803.06031,132.540399 1811,145.040463 L1811,174 Z" id="Combined-Shape-Copy-2"></path>
                <path d="M2608,174 L2327.75747,174 L2132.52354,174 L1585.27428,174 C1584.4376,171.967226 1583.67821,169.89452 1583,167.785498 L1583,116.559696 C1593.85701,82.7846006 1625.59139,58.3400767 1663.04971,58.3400767 C1685.21314,58.3400767 1705.369,66.9132157 1720.38553,80.9079969 C1732.9448,73.3444052 1747.66689,68.9803837 1763.41148,68.9803837 C1769.26284,68.9803837 1774.96966,69.589317 1780.48375,70.7324021 C1803.85706,28.5717882 1848.86381,0 1900.57847,0 C1957.89287,0 2006.96827,35.0831005 2027.48282,84.898112 C2034.528,82.964482 2041.94793,81.9122026 2049.60877,81.9122026 C2080.73355,81.9122026 2107.87544,98.9254113 2122.20277,124.138236 C2127.58124,121.664818 2133.56458,120.28307 2139.87011,120.28307 C2142.8486,120.28307 2145.75351,120.594536 2148.56032,121.179217 C2160.45793,99.6143054 2183.3675,85 2209.69157,85 C2238.86605,85 2263.84666,102.944804 2274.28909,128.424896 C2277.87527,127.435856 2281.6522,126.897621 2285.55176,126.897621 C2299.58583,126.897621 2312.02911,133.725773 2319.75698,144.248733 C2325.17606,125.343408 2342.51118,111.517053 2363.05914,111.517053 C2374.94098,111.517053 2385.74656,116.148519 2393.79694,123.708918 C2400.52998,119.62284 2408.4225,117.265265 2416.8632,117.265265 C2420.00012,117.265265 2423.05955,117.594229 2426.01565,118.211757 C2438.54611,95.4353338 2462.67428,80 2490.39856,80 C2521.12488,80 2547.43425,98.9529394 2558.43212,125.864497 C2562.20906,124.819893 2566.18689,124.25142 2570.29387,124.25142 C2586.13992,124.25142 2600.06031,132.540399 2608,145.040463 L2608,174 Z" id="Combined-Shape-Copy-10"></path>
                <path d="M2815,174 L2428.27428,174 C2427.4376,171.967226 2426.67821,169.89452 2426,167.785498 L2426,116.559696 C2436.85701,82.7846006 2468.59139,58.3400767 2506.04971,58.3400767 C2528.21314,58.3400767 2548.369,66.9132157 2563.38553,80.9079969 C2575.9448,73.3444052 2590.66689,68.9803837 2606.41148,68.9803837 C2612.26284,68.9803837 2617.96966,69.589317 2623.48375,70.7324021 C2646.85706,28.5717882 2691.86381,0 2743.57847,0 C2769.74817,0 2794.20018,7.31421772 2815,20.005363 L2815,174 Z" id="Combined-Shape"></path>
                <path d="M1025,174 L744.75747,174 L549.52354,174 L2.27428498,174 C1.43760474,171.967226 0.678206631,169.89452 -1.55320201e-13,167.785498 L1.03116145e-06,116.559696 C10.8570129,82.7846006 42.5913934,58.3400767 80.0497091,58.3400767 C102.213135,58.3400767 122.369005,66.9132157 137.385529,80.9079969 C149.944804,73.3444052 164.666887,68.9803837 180.411485,68.9803837 C186.262843,68.9803837 191.969658,69.589317 197.483747,70.7324021 C220.857061,28.5717882 265.863806,0 317.578467,0 C374.892873,0 423.968266,35.0831005 444.482819,84.898112 C451.528005,82.964482 458.947935,81.9122026 466.608771,81.9122026 C497.733545,81.9122026 524.875441,98.9254113 539.202774,124.138236 C544.581238,121.664818 550.564577,120.28307 556.870106,120.28307 C559.848595,120.28307 562.753508,120.594536 565.560319,121.179217 C577.457926,99.6143054 600.367497,85 626.691566,85 C655.866047,85 680.846663,102.944804 691.289089,128.424896 C694.875266,127.435856 698.652198,126.897621 702.551757,126.897621 C716.585828,126.897621 729.029109,133.725773 736.756982,144.248733 C742.17606,125.343408 759.511181,111.517053 780.05914,111.517053 C791.940977,111.517053 802.74656,116.148519 810.796935,123.708918 C817.529976,119.62284 825.4225,117.265265 833.863196,117.265265 C837.000116,117.265265 840.059546,117.594229 843.015655,118.211757 C855.546114,95.4353338 879.674278,80 907.398564,80 C938.124879,80 964.434251,98.9529394 975.432125,125.864497 C979.209057,124.819893 983.186889,124.25142 987.293872,124.25142 C1003.13992,124.25142 1017.06031,132.540399 1025,145.040463 L1025,174 Z" id="Combined-Shape-Copy-9"></path>
            </g>
            <g id="Group-22-Copy-2" transform="translate(4862.000000, 0.000000)">
                <path d="M1811,174 L1530.75747,174 L1335.52354,174 L788.274285,174 C787.437605,171.967226 786.678207,169.89452 786,167.785498 L786.000001,116.559696 C796.857013,82.7846006 828.591393,58.3400767 866.049709,58.3400767 C888.213135,58.3400767 908.369005,66.9132157 923.385529,80.9079969 C935.944804,73.3444052 950.666887,68.9803837 966.411485,68.9803837 C972.262843,68.9803837 977.969658,69.589317 983.483747,70.7324021 C1006.85706,28.5717882 1051.86381,0 1103.57847,0 C1160.89287,0 1209.96827,35.0831005 1230.48282,84.898112 C1237.528,82.964482 1244.94793,81.9122026 1252.60877,81.9122026 C1283.73355,81.9122026 1310.87544,98.9254113 1325.20277,124.138236 C1330.58124,121.664818 1336.56458,120.28307 1342.87011,120.28307 C1345.8486,120.28307 1348.75351,120.594536 1351.56032,121.179217 C1363.45793,99.6143054 1386.3675,85 1412.69157,85 C1441.86605,85 1466.84666,102.944804 1477.28909,128.424896 C1480.87527,127.435856 1484.6522,126.897621 1488.55176,126.897621 C1502.58583,126.897621 1515.02911,133.725773 1522.75698,144.248733 C1528.17606,125.343408 1545.51118,111.517053 1566.05914,111.517053 C1577.94098,111.517053 1588.74656,116.148519 1596.79694,123.708918 C1603.52998,119.62284 1611.4225,117.265265 1619.8632,117.265265 C1623.00012,117.265265 1626.05955,117.594229 1629.01565,118.211757 C1641.54611,95.4353338 1665.67428,80 1693.39856,80 C1724.12488,80 1750.43425,98.9529394 1761.43212,125.864497 C1765.20906,124.819893 1769.18689,124.25142 1773.29387,124.25142 C1789.13992,124.25142 1803.06031,132.540399 1811,145.040463 L1811,174 Z" id="Combined-Shape-Copy-2"></path>
                <path d="M2608,174 L2327.75747,174 L2132.52354,174 L1585.27428,174 C1584.4376,171.967226 1583.67821,169.89452 1583,167.785498 L1583,116.559696 C1593.85701,82.7846006 1625.59139,58.3400767 1663.04971,58.3400767 C1685.21314,58.3400767 1705.369,66.9132157 1720.38553,80.9079969 C1732.9448,73.3444052 1747.66689,68.9803837 1763.41148,68.9803837 C1769.26284,68.9803837 1774.96966,69.589317 1780.48375,70.7324021 C1803.85706,28.5717882 1848.86381,0 1900.57847,0 C1957.89287,0 2006.96827,35.0831005 2027.48282,84.898112 C2034.528,82.964482 2041.94793,81.9122026 2049.60877,81.9122026 C2080.73355,81.9122026 2107.87544,98.9254113 2122.20277,124.138236 C2127.58124,121.664818 2133.56458,120.28307 2139.87011,120.28307 C2142.8486,120.28307 2145.75351,120.594536 2148.56032,121.179217 C2160.45793,99.6143054 2183.3675,85 2209.69157,85 C2238.86605,85 2263.84666,102.944804 2274.28909,128.424896 C2277.87527,127.435856 2281.6522,126.897621 2285.55176,126.897621 C2299.58583,126.897621 2312.02911,133.725773 2319.75698,144.248733 C2325.17606,125.343408 2342.51118,111.517053 2363.05914,111.517053 C2374.94098,111.517053 2385.74656,116.148519 2393.79694,123.708918 C2400.52998,119.62284 2408.4225,117.265265 2416.8632,117.265265 C2420.00012,117.265265 2423.05955,117.594229 2426.01565,118.211757 C2438.54611,95.4353338 2462.67428,80 2490.39856,80 C2521.12488,80 2547.43425,98.9529394 2558.43212,125.864497 C2562.20906,124.819893 2566.18689,124.25142 2570.29387,124.25142 C2586.13992,124.25142 2600.06031,132.540399 2608,145.040463 L2608,174 Z" id="Combined-Shape-Copy-10"></path>
                <path d="M2815,174 L2428.27428,174 C2427.4376,171.967226 2426.67821,169.89452 2426,167.785498 L2426,116.559696 C2436.85701,82.7846006 2468.59139,58.3400767 2506.04971,58.3400767 C2528.21314,58.3400767 2548.369,66.9132157 2563.38553,80.9079969 C2575.9448,73.3444052 2590.66689,68.9803837 2606.41148,68.9803837 C2612.26284,68.9803837 2617.96966,69.589317 2623.48375,70.7324021 C2646.85706,28.5717882 2691.86381,0 2743.57847,0 C2769.74817,0 2794.20018,7.31421772 2815,20.005363 L2815,174 Z" id="Combined-Shape"></path>
                <path d="M1025,174 L744.75747,174 L549.52354,174 L2.27428498,174 C1.43760474,171.967226 0.678206631,169.89452 -1.55320201e-13,167.785498 L1.03116145e-06,116.559696 C10.8570129,82.7846006 42.5913934,58.3400767 80.0497091,58.3400767 C102.213135,58.3400767 122.369005,66.9132157 137.385529,80.9079969 C149.944804,73.3444052 164.666887,68.9803837 180.411485,68.9803837 C186.262843,68.9803837 191.969658,69.589317 197.483747,70.7324021 C220.857061,28.5717882 265.863806,0 317.578467,0 C374.892873,0 423.968266,35.0831005 444.482819,84.898112 C451.528005,82.964482 458.947935,81.9122026 466.608771,81.9122026 C497.733545,81.9122026 524.875441,98.9254113 539.202774,124.138236 C544.581238,121.664818 550.564577,120.28307 556.870106,120.28307 C559.848595,120.28307 562.753508,120.594536 565.560319,121.179217 C577.457926,99.6143054 600.367497,85 626.691566,85 C655.866047,85 680.846663,102.944804 691.289089,128.424896 C694.875266,127.435856 698.652198,126.897621 702.551757,126.897621 C716.585828,126.897621 729.029109,133.725773 736.756982,144.248733 C742.17606,125.343408 759.511181,111.517053 780.05914,111.517053 C791.940977,111.517053 802.74656,116.148519 810.796935,123.708918 C817.529976,119.62284 825.4225,117.265265 833.863196,117.265265 C837.000116,117.265265 840.059546,117.594229 843.015655,118.211757 C855.546114,95.4353338 879.674278,80 907.398564,80 C938.124879,80 964.434251,98.9529394 975.432125,125.864497 C979.209057,124.819893 983.186889,124.25142 987.293872,124.25142 C1003.13992,124.25142 1017.06031,132.540399 1025,145.040463 L1025,174 Z" id="Combined-Shape-Copy-9"></path>
            </g>
            <g id="Group-22-Copy-3" transform="translate(7288.000000, 0.000000)">
                <path d="M1811,174 L1530.75747,174 L1335.52354,174 L788.274285,174 C787.437605,171.967226 786.678207,169.89452 786,167.785498 L786.000001,116.559696 C796.857013,82.7846006 828.591393,58.3400767 866.049709,58.3400767 C888.213135,58.3400767 908.369005,66.9132157 923.385529,80.9079969 C935.944804,73.3444052 950.666887,68.9803837 966.411485,68.9803837 C972.262843,68.9803837 977.969658,69.589317 983.483747,70.7324021 C1006.85706,28.5717882 1051.86381,0 1103.57847,0 C1160.89287,0 1209.96827,35.0831005 1230.48282,84.898112 C1237.528,82.964482 1244.94793,81.9122026 1252.60877,81.9122026 C1283.73355,81.9122026 1310.87544,98.9254113 1325.20277,124.138236 C1330.58124,121.664818 1336.56458,120.28307 1342.87011,120.28307 C1345.8486,120.28307 1348.75351,120.594536 1351.56032,121.179217 C1363.45793,99.6143054 1386.3675,85 1412.69157,85 C1441.86605,85 1466.84666,102.944804 1477.28909,128.424896 C1480.87527,127.435856 1484.6522,126.897621 1488.55176,126.897621 C1502.58583,126.897621 1515.02911,133.725773 1522.75698,144.248733 C1528.17606,125.343408 1545.51118,111.517053 1566.05914,111.517053 C1577.94098,111.517053 1588.74656,116.148519 1596.79694,123.708918 C1603.52998,119.62284 1611.4225,117.265265 1619.8632,117.265265 C1623.00012,117.265265 1626.05955,117.594229 1629.01565,118.211757 C1641.54611,95.4353338 1665.67428,80 1693.39856,80 C1724.12488,80 1750.43425,98.9529394 1761.43212,125.864497 C1765.20906,124.819893 1769.18689,124.25142 1773.29387,124.25142 C1789.13992,124.25142 1803.06031,132.540399 1811,145.040463 L1811,174 Z" id="Combined-Shape-Copy-2"></path>
                <path d="M2608,174 L2327.75747,174 L2132.52354,174 L1585.27428,174 C1584.4376,171.967226 1583.67821,169.89452 1583,167.785498 L1583,116.559696 C1593.85701,82.7846006 1625.59139,58.3400767 1663.04971,58.3400767 C1685.21314,58.3400767 1705.369,66.9132157 1720.38553,80.9079969 C1732.9448,73.3444052 1747.66689,68.9803837 1763.41148,68.9803837 C1769.26284,68.9803837 1774.96966,69.589317 1780.48375,70.7324021 C1803.85706,28.5717882 1848.86381,0 1900.57847,0 C1957.89287,0 2006.96827,35.0831005 2027.48282,84.898112 C2034.528,82.964482 2041.94793,81.9122026 2049.60877,81.9122026 C2080.73355,81.9122026 2107.87544,98.9254113 2122.20277,124.138236 C2127.58124,121.664818 2133.56458,120.28307 2139.87011,120.28307 C2142.8486,120.28307 2145.75351,120.594536 2148.56032,121.179217 C2160.45793,99.6143054 2183.3675,85 2209.69157,85 C2238.86605,85 2263.84666,102.944804 2274.28909,128.424896 C2277.87527,127.435856 2281.6522,126.897621 2285.55176,126.897621 C2299.58583,126.897621 2312.02911,133.725773 2319.75698,144.248733 C2325.17606,125.343408 2342.51118,111.517053 2363.05914,111.517053 C2374.94098,111.517053 2385.74656,116.148519 2393.79694,123.708918 C2400.52998,119.62284 2408.4225,117.265265 2416.8632,117.265265 C2420.00012,117.265265 2423.05955,117.594229 2426.01565,118.211757 C2438.54611,95.4353338 2462.67428,80 2490.39856,80 C2521.12488,80 2547.43425,98.9529394 2558.43212,125.864497 C2562.20906,124.819893 2566.18689,124.25142 2570.29387,124.25142 C2586.13992,124.25142 2600.06031,132.540399 2608,145.040463 L2608,174 Z" id="Combined-Shape-Copy-10"></path>
                <path d="M2815,174 L2428.27428,174 C2427.4376,171.967226 2426.67821,169.89452 2426,167.785498 L2426,116.559696 C2436.85701,82.7846006 2468.59139,58.3400767 2506.04971,58.3400767 C2528.21314,58.3400767 2548.369,66.9132157 2563.38553,80.9079969 C2575.9448,73.3444052 2590.66689,68.9803837 2606.41148,68.9803837 C2612.26284,68.9803837 2617.96966,69.589317 2623.48375,70.7324021 C2646.85706,28.5717882 2691.86381,0 2743.57847,0 C2769.74817,0 2794.20018,7.31421772 2815,20.005363 L2815,174 Z" id="Combined-Shape"></path>
                <path d="M1025,174 L744.75747,174 L549.52354,174 L2.27428498,174 C1.43760474,171.967226 0.678206631,169.89452 -1.55320201e-13,167.785498 L1.03116145e-06,116.559696 C10.8570129,82.7846006 42.5913934,58.3400767 80.0497091,58.3400767 C102.213135,58.3400767 122.369005,66.9132157 137.385529,80.9079969 C149.944804,73.3444052 164.666887,68.9803837 180.411485,68.9803837 C186.262843,68.9803837 191.969658,69.589317 197.483747,70.7324021 C220.857061,28.5717882 265.863806,0 317.578467,0 C374.892873,0 423.968266,35.0831005 444.482819,84.898112 C451.528005,82.964482 458.947935,81.9122026 466.608771,81.9122026 C497.733545,81.9122026 524.875441,98.9254113 539.202774,124.138236 C544.581238,121.664818 550.564577,120.28307 556.870106,120.28307 C559.848595,120.28307 562.753508,120.594536 565.560319,121.179217 C577.457926,99.6143054 600.367497,85 626.691566,85 C655.866047,85 680.846663,102.944804 691.289089,128.424896 C694.875266,127.435856 698.652198,126.897621 702.551757,126.897621 C716.585828,126.897621 729.029109,133.725773 736.756982,144.248733 C742.17606,125.343408 759.511181,111.517053 780.05914,111.517053 C791.940977,111.517053 802.74656,116.148519 810.796935,123.708918 C817.529976,119.62284 825.4225,117.265265 833.863196,117.265265 C837.000116,117.265265 840.059546,117.594229 843.015655,118.211757 C855.546114,95.4353338 879.674278,80 907.398564,80 C938.124879,80 964.434251,98.9529394 975.432125,125.864497 C979.209057,124.819893 983.186889,124.25142 987.293872,124.25142 C1003.13992,124.25142 1017.06031,132.540399 1025,145.040463 L1025,174 Z" id="Combined-Shape-Copy-9"></path>
            </g>
            <g id="Group-22-Copy-4" transform="translate(9714.000000, 0.000000)">
                <path d="M1811,174 L1530.75747,174 L1335.52354,174 L788.274285,174 C787.437605,171.967226 786.678207,169.89452 786,167.785498 L786.000001,116.559696 C796.857013,82.7846006 828.591393,58.3400767 866.049709,58.3400767 C888.213135,58.3400767 908.369005,66.9132157 923.385529,80.9079969 C935.944804,73.3444052 950.666887,68.9803837 966.411485,68.9803837 C972.262843,68.9803837 977.969658,69.589317 983.483747,70.7324021 C1006.85706,28.5717882 1051.86381,0 1103.57847,0 C1160.89287,0 1209.96827,35.0831005 1230.48282,84.898112 C1237.528,82.964482 1244.94793,81.9122026 1252.60877,81.9122026 C1283.73355,81.9122026 1310.87544,98.9254113 1325.20277,124.138236 C1330.58124,121.664818 1336.56458,120.28307 1342.87011,120.28307 C1345.8486,120.28307 1348.75351,120.594536 1351.56032,121.179217 C1363.45793,99.6143054 1386.3675,85 1412.69157,85 C1441.86605,85 1466.84666,102.944804 1477.28909,128.424896 C1480.87527,127.435856 1484.6522,126.897621 1488.55176,126.897621 C1502.58583,126.897621 1515.02911,133.725773 1522.75698,144.248733 C1528.17606,125.343408 1545.51118,111.517053 1566.05914,111.517053 C1577.94098,111.517053 1588.74656,116.148519 1596.79694,123.708918 C1603.52998,119.62284 1611.4225,117.265265 1619.8632,117.265265 C1623.00012,117.265265 1626.05955,117.594229 1629.01565,118.211757 C1641.54611,95.4353338 1665.67428,80 1693.39856,80 C1724.12488,80 1750.43425,98.9529394 1761.43212,125.864497 C1765.20906,124.819893 1769.18689,124.25142 1773.29387,124.25142 C1789.13992,124.25142 1803.06031,132.540399 1811,145.040463 L1811,174 Z" id="Combined-Shape-Copy-2"></path>
                <path d="M2608,174 L2327.75747,174 L2132.52354,174 L1585.27428,174 C1584.4376,171.967226 1583.67821,169.89452 1583,167.785498 L1583,116.559696 C1593.85701,82.7846006 1625.59139,58.3400767 1663.04971,58.3400767 C1685.21314,58.3400767 1705.369,66.9132157 1720.38553,80.9079969 C1732.9448,73.3444052 1747.66689,68.9803837 1763.41148,68.9803837 C1769.26284,68.9803837 1774.96966,69.589317 1780.48375,70.7324021 C1803.85706,28.5717882 1848.86381,0 1900.57847,0 C1957.89287,0 2006.96827,35.0831005 2027.48282,84.898112 C2034.528,82.964482 2041.94793,81.9122026 2049.60877,81.9122026 C2080.73355,81.9122026 2107.87544,98.9254113 2122.20277,124.138236 C2127.58124,121.664818 2133.56458,120.28307 2139.87011,120.28307 C2142.8486,120.28307 2145.75351,120.594536 2148.56032,121.179217 C2160.45793,99.6143054 2183.3675,85 2209.69157,85 C2238.86605,85 2263.84666,102.944804 2274.28909,128.424896 C2277.87527,127.435856 2281.6522,126.897621 2285.55176,126.897621 C2299.58583,126.897621 2312.02911,133.725773 2319.75698,144.248733 C2325.17606,125.343408 2342.51118,111.517053 2363.05914,111.517053 C2374.94098,111.517053 2385.74656,116.148519 2393.79694,123.708918 C2400.52998,119.62284 2408.4225,117.265265 2416.8632,117.265265 C2420.00012,117.265265 2423.05955,117.594229 2426.01565,118.211757 C2438.54611,95.4353338 2462.67428,80 2490.39856,80 C2521.12488,80 2547.43425,98.9529394 2558.43212,125.864497 C2562.20906,124.819893 2566.18689,124.25142 2570.29387,124.25142 C2586.13992,124.25142 2600.06031,132.540399 2608,145.040463 L2608,174 Z" id="Combined-Shape-Copy-10"></path>
                <path d="M2816,174 L2429.27428,174 C2428.4376,171.967226 2427.67821,169.89452 2427,167.785498 L2427,116.559696 C2437.85701,82.7846006 2469.59139,58.3400767 2507.04971,58.3400767 C2529.21314,58.3400767 2549.369,66.9132157 2564.38553,80.9079969 C2576.9448,73.3444052 2591.66689,68.9803837 2607.41148,68.9803837 C2613.26284,68.9803837 2618.96966,69.589317 2624.48375,70.7324021 C2647.85706,28.5717882 2692.86381,0 2744.57847,0 C2770.74817,0 2795.20018,7.31421772 2816,20.005363 L2816,174 Z" id="Combined-Shape"></path>
                <path d="M1025,174 L744.75747,174 L549.52354,174 L2.27428498,174 C1.43760474,171.967226 0.678206631,169.89452 -1.55320201e-13,167.785498 L1.03116145e-06,116.559696 C10.8570129,82.7846006 42.5913934,58.3400767 80.0497091,58.3400767 C102.213135,58.3400767 122.369005,66.9132157 137.385529,80.9079969 C149.944804,73.3444052 164.666887,68.9803837 180.411485,68.9803837 C186.262843,68.9803837 191.969658,69.589317 197.483747,70.7324021 C220.857061,28.5717882 265.863806,0 317.578467,0 C374.892873,0 423.968266,35.0831005 444.482819,84.898112 C451.528005,82.964482 458.947935,81.9122026 466.608771,81.9122026 C497.733545,81.9122026 524.875441,98.9254113 539.202774,124.138236 C544.581238,121.664818 550.564577,120.28307 556.870106,120.28307 C559.848595,120.28307 562.753508,120.594536 565.560319,121.179217 C577.457926,99.6143054 600.367497,85 626.691566,85 C655.866047,85 680.846663,102.944804 691.289089,128.424896 C694.875266,127.435856 698.652198,126.897621 702.551757,126.897621 C716.585828,126.897621 729.029109,133.725773 736.756982,144.248733 C742.17606,125.343408 759.511181,111.517053 780.05914,111.517053 C791.940977,111.517053 802.74656,116.148519 810.796935,123.708918 C817.529976,119.62284 825.4225,117.265265 833.863196,117.265265 C837.000116,117.265265 840.059546,117.594229 843.015655,118.211757 C855.546114,95.4353338 879.674278,80 907.398564,80 C938.124879,80 964.434251,98.9529394 975.432125,125.864497 C979.209057,124.819893 983.186889,124.25142 987.293872,124.25142 C1003.13992,124.25142 1017.06031,132.540399 1025,145.040463 L1025,174 Z" id="Combined-Shape-Copy-9"></path>
            </g>
        </g>
    </g>
</svg>