<svg width="30" height="29" viewBox="0 0 30 29" fill="none" xmlns="http://www.w3.org/2000/svg">
<path d="M4.5 9C6.98528 9 9 6.98528 9 4.5C9 2.01472 6.98528 0 4.5 0C2.01472 0 0 2.01472 0 4.5C0 6.98528 2.01472 9 4.5 9Z" fill="#C7C7C9"/>
<path d="M13.5 28.5C16.8137 28.5 19.5 25.8137 19.5 22.5C19.5 19.1863 16.8137 16.5 13.5 16.5C10.1863 16.5 7.5 19.1863 7.5 22.5C7.5 25.8137 10.1863 28.5 13.5 28.5Z" fill="#C7C7C9"/>
<path d="M25.5 13.5C27.9853 13.5 30 11.4853 30 9C30 6.51472 27.9853 4.5 25.5 4.5C23.0147 4.5 21 6.51472 21 9C21 11.4853 23.0147 13.5 25.5 13.5Z" fill="#C7C7C9"/>
</svg>
